<?xml version="1.0" encoding="utf-8" standalone="no"?>
<!DOCTYPE svg PUBLIC "-//W3C//DTD SVG 1.1//EN"
  "http://www.w3.org/Graphics/SVG/1.1/DTD/svg11.dtd">
<!-- Created with matplotlib (https://matplotlib.org/) -->
<svg height="288pt" version="1.1" viewBox="0 0 432 288" width="432pt" xmlns="http://www.w3.org/2000/svg" xmlns:xlink="http://www.w3.org/1999/xlink">
 <metadata>
  <rdf:RDF xmlns:cc="http://creativecommons.org/ns#" xmlns:dc="http://purl.org/dc/elements/1.1/" xmlns:rdf="http://www.w3.org/1999/02/22-rdf-syntax-ns#">
   <cc:Work>
    <dc:type rdf:resource="http://purl.org/dc/dcmitype/StillImage"/>
    <dc:date>2021-03-31T23:39:56.243854</dc:date>
    <dc:format>image/svg+xml</dc:format>
    <dc:creator>
     <cc:Agent>
      <dc:title>Matplotlib v3.3.4, https://matplotlib.org/</dc:title>
     </cc:Agent>
    </dc:creator>
   </cc:Work>
  </rdf:RDF>
 </metadata>
 <defs>
  <style type="text/css">*{stroke-linecap:butt;stroke-linejoin:round;}</style>
 </defs>
 <g id="figure_1">
  <g id="patch_1">
   <path d="M 0 288 
L 432 288 
L 432 0 
L 0 0 
z
" style="fill:#ffffff;"/>
  </g>
  <g id="axes_1">
   <g id="patch_2">
    <path d="M 54 252 
L 388.8 252 
L 388.8 34.56 
L 54 34.56 
z
" style="fill:#ffffff;"/>
   </g>
   <g id="PolyCollection_1">
    <defs>
     <path d="M 57.381818 -219.161682 
L 57.381818 -218.80903 
L 60.763636 -218.80903 
L 64.145455 -218.80903 
L 67.527273 -218.80903 
L 70.909091 -218.80903 
L 74.290909 -215.223796 
L 77.672727 -215.223796 
L 81.054545 -215.223796 
L 84.436364 -208.084674 
L 87.818182 -208.084674 
L 91.2 -208.084674 
L 94.581818 -207.116284 
L 97.963636 -207.116284 
L 101.345455 -207.116284 
L 104.727273 -203.005708 
L 108.109091 -203.005708 
L 111.490909 -203.005708 
L 114.872727 -203.005708 
L 118.254545 -203.005708 
L 121.636364 -203.005708 
L 125.018182 -203.005708 
L 128.4 -203.005708 
L 131.781818 -203.005708 
L 135.163636 -198.929369 
L 138.545455 -198.929369 
L 141.927273 -198.929369 
L 145.309091 -198.929369 
L 148.690909 -198.929369 
L 152.072727 -198.929369 
L 155.454545 -194.987298 
L 158.836364 -194.987298 
L 162.218182 -194.987298 
L 165.6 -194.987298 
L 168.981818 -194.987298 
L 172.363636 -194.987298 
L 175.745455 -193.674571 
L 179.127273 -193.674571 
L 182.509091 -193.674571 
L 185.890909 -191.56838 
L 189.272727 -191.56838 
L 192.654545 -191.56838 
L 196.036364 -191.56838 
L 199.418182 -191.56838 
L 202.8 -191.56838 
L 206.181818 -191.56838 
L 209.563636 -191.56838 
L 212.945455 -191.56838 
L 216.327273 -191.56838 
L 219.709091 -191.56838 
L 223.090909 -191.56838 
L 226.472727 -191.56838 
L 229.854545 -191.56838 
L 233.236364 -191.56838 
L 236.618182 -186.346701 
L 240 -186.346701 
L 243.381818 -186.346701 
L 246.763636 -184.797591 
L 250.145455 -184.797591 
L 253.527273 -184.797591 
L 256.909091 -179.563923 
L 260.290909 -179.563923 
L 263.672727 -179.563923 
L 267.054545 -175.209012 
L 270.436364 -175.209012 
L 273.818182 -175.209012 
L 277.2 -175.01483 
L 280.581818 -175.01483 
L 283.963636 -175.01483 
L 287.345455 -174.854204 
L 290.727273 -174.854204 
L 294.109091 -174.854204 
L 297.490909 -166.88648 
L 300.872727 -166.88648 
L 304.254545 -166.88648 
L 307.636364 -166.88648 
L 311.018182 -166.88648 
L 314.4 -166.88648 
L 317.781818 -166.88648 
L 321.163636 -166.88648 
L 324.545455 -166.88648 
L 327.927273 -163.088951 
L 331.309091 -163.088951 
L 334.690909 -163.088951 
L 338.072727 -158.341335 
L 341.454545 -158.341335 
L 344.836364 -158.341335 
L 348.218182 -158.341335 
L 351.6 -158.341335 
L 354.981818 -158.341335 
L 358.363636 -158.341335 
L 361.745455 -158.341335 
L 365.127273 -158.341335 
L 368.509091 -158.341335 
L 371.890909 -158.341335 
L 375.272727 -158.341335 
L 378.654545 -158.341335 
L 382.036364 -158.341335 
L 385.418182 -158.341335 
L 388.8 -155.998166 
L 392.181818 -155.998166 
L 392.181818 -215.705323 
L 392.181818 -215.705323 
L 388.8 -215.705323 
L 385.418182 -215.705323 
L 382.036364 -215.705323 
L 378.654545 -215.705323 
L 375.272727 -215.705323 
L 371.890909 -215.705323 
L 368.509091 -215.705323 
L 365.127273 -215.705323 
L 361.745455 -215.705323 
L 358.363636 -215.705323 
L 354.981818 -215.705323 
L 351.6 -215.705323 
L 348.218182 -215.705323 
L 344.836364 -215.705323 
L 341.454545 -215.705323 
L 338.072727 -215.705323 
L 334.690909 -215.705323 
L 331.309091 -215.705323 
L 327.927273 -215.705323 
L 324.545455 -215.705323 
L 321.163636 -215.705323 
L 317.781818 -215.705323 
L 314.4 -215.705323 
L 311.018182 -215.705323 
L 307.636364 -215.705323 
L 304.254545 -215.705323 
L 300.872727 -215.705323 
L 297.490909 -215.705323 
L 294.109091 -215.705323 
L 290.727273 -215.705323 
L 287.345455 -215.705323 
L 283.963636 -218.109936 
L 280.581818 -218.109936 
L 277.2 -218.109936 
L 273.818182 -218.109936 
L 270.436364 -218.109936 
L 267.054545 -218.109936 
L 263.672727 -218.109936 
L 260.290909 -218.109936 
L 256.909091 -218.109936 
L 253.527273 -218.109936 
L 250.145455 -218.109936 
L 246.763636 -218.109936 
L 243.381818 -218.109936 
L 240 -218.109936 
L 236.618182 -218.109936 
L 233.236364 -218.109936 
L 229.854545 -218.109936 
L 226.472727 -218.109936 
L 223.090909 -218.109936 
L 219.709091 -218.109936 
L 216.327273 -218.109936 
L 212.945455 -218.109936 
L 209.563636 -218.109936 
L 206.181818 -218.109936 
L 202.8 -218.109936 
L 199.418182 -218.109936 
L 196.036364 -218.109936 
L 192.654545 -218.109936 
L 189.272727 -218.109936 
L 185.890909 -218.109936 
L 182.509091 -218.109936 
L 179.127273 -218.109936 
L 175.745455 -218.109936 
L 172.363636 -218.109936 
L 168.981818 -218.109936 
L 165.6 -218.109936 
L 162.218182 -218.109936 
L 158.836364 -218.109936 
L 155.454545 -218.109936 
L 152.072727 -218.663609 
L 148.690909 -218.663609 
L 145.309091 -218.663609 
L 141.927273 -218.663609 
L 138.545455 -218.663609 
L 135.163636 -218.663609 
L 131.781818 -218.663609 
L 128.4 -218.663609 
L 125.018182 -218.663609 
L 121.636364 -218.663609 
L 118.254545 -218.663609 
L 114.872727 -218.663609 
L 111.490909 -219.064468 
L 108.109091 -219.064468 
L 104.727273 -219.064468 
L 101.345455 -219.064468 
L 97.963636 -219.064468 
L 94.581818 -219.064468 
L 91.2 -219.064468 
L 87.818182 -219.064468 
L 84.436364 -219.064468 
L 81.054545 -219.064468 
L 77.672727 -219.064468 
L 74.290909 -219.064468 
L 70.909091 -219.161682 
L 67.527273 -219.161682 
L 64.145455 -219.161682 
L 60.763636 -219.161682 
L 57.381818 -219.161682 
z
" id="mdf83795878" style="stroke:#a52a2a;stroke-opacity:0.5;"/>
    </defs>
    <g clip-path="url(#pe76fc54793)">
     <use style="fill:#a52a2a;fill-opacity:0.5;stroke:#a52a2a;stroke-opacity:0.5;" x="0" xlink:href="#mdf83795878" y="288"/>
    </g>
   </g>
   <g id="PolyCollection_2">
    <defs>
     <path d="M 57.381818 -243.556364 
L 57.381818 -100.840765 
L 60.763636 -100.840765 
L 64.145455 -100.840765 
L 67.527273 -100.840765 
L 70.909091 -100.840765 
L 74.290909 -100.745352 
L 77.672727 -62.760668 
L 81.054545 -62.760668 
L 84.436364 -60.450757 
L 87.818182 -60.450757 
L 91.2 -60.450757 
L 94.581818 -60.450757 
L 97.963636 -56.62734 
L 101.345455 -56.62734 
L 104.727273 -56.287875 
L 108.109091 -56.287875 
L 111.490909 -56.287875 
L 114.872727 -56.287875 
L 118.254545 -56.287875 
L 121.636364 -55.022141 
L 125.018182 -55.022141 
L 128.4 -46.798531 
L 131.781818 -46.798531 
L 135.163636 -46.793837 
L 138.545455 -46.793837 
L 141.927273 -46.793837 
L 145.309091 -46.793837 
L 148.690909 -45.883636 
L 152.072727 -45.883636 
L 155.454545 -45.883636 
L 158.836364 -45.883636 
L 162.218182 -45.883636 
L 165.6 -45.883636 
L 168.981818 -45.883636 
L 172.363636 -45.883636 
L 175.745455 -45.883636 
L 179.127273 -45.883636 
L 182.509091 -45.883636 
L 185.890909 -45.883636 
L 189.272727 -45.883636 
L 192.654545 -45.883636 
L 196.036364 -45.883636 
L 199.418182 -45.883636 
L 202.8 -45.883636 
L 206.181818 -45.883636 
L 209.563636 -45.883636 
L 212.945455 -45.883636 
L 216.327273 -45.883636 
L 219.709091 -45.883636 
L 223.090909 -45.883636 
L 226.472727 -45.883636 
L 229.854545 -45.883636 
L 233.236364 -45.883636 
L 236.618182 -45.883636 
L 240 -45.883636 
L 243.381818 -45.883636 
L 246.763636 -45.883636 
L 250.145455 -45.883636 
L 253.527273 -45.883636 
L 256.909091 -45.883636 
L 260.290909 -45.883636 
L 263.672727 -45.883636 
L 267.054545 -45.883636 
L 270.436364 -45.883636 
L 273.818182 -45.883636 
L 277.2 -45.883636 
L 280.581818 -45.883636 
L 283.963636 -45.883636 
L 287.345455 -45.883636 
L 290.727273 -45.883636 
L 294.109091 -45.883636 
L 297.490909 -45.883636 
L 300.872727 -45.883636 
L 304.254545 -45.883636 
L 307.636364 -45.883636 
L 311.018182 -45.883636 
L 314.4 -45.883636 
L 317.781818 -45.883636 
L 321.163636 -45.883636 
L 324.545455 -45.883636 
L 327.927273 -45.883636 
L 331.309091 -45.883636 
L 334.690909 -45.883636 
L 338.072727 -45.883636 
L 341.454545 -45.883636 
L 344.836364 -45.883636 
L 348.218182 -45.883636 
L 351.6 -45.883636 
L 354.981818 -45.883636 
L 358.363636 -45.883636 
L 361.745455 -45.883636 
L 365.127273 -45.883636 
L 368.509091 -45.883636 
L 371.890909 -45.883636 
L 375.272727 -45.883636 
L 378.654545 -45.883636 
L 382.036364 -45.883636 
L 385.418182 -45.883636 
L 388.8 -45.883636 
L 392.181818 -45.883636 
L 392.181818 -47.169471 
L 392.181818 -47.169471 
L 388.8 -47.169471 
L 385.418182 -47.169471 
L 382.036364 -47.169471 
L 378.654545 -47.169471 
L 375.272727 -47.169471 
L 371.890909 -47.169471 
L 368.509091 -47.169471 
L 365.127273 -47.169471 
L 361.745455 -47.169471 
L 358.363636 -47.169471 
L 354.981818 -47.169471 
L 351.6 -47.169471 
L 348.218182 -47.169471 
L 344.836364 -47.169471 
L 341.454545 -47.169471 
L 338.072727 -47.169471 
L 334.690909 -47.169471 
L 331.309091 -47.169471 
L 327.927273 -47.169471 
L 324.545455 -47.169471 
L 321.163636 -47.169471 
L 317.781818 -47.169471 
L 314.4 -47.169471 
L 311.018182 -47.169471 
L 307.636364 -47.169471 
L 304.254545 -47.169471 
L 300.872727 -47.169471 
L 297.490909 -47.169471 
L 294.109091 -47.169471 
L 290.727273 -47.169471 
L 287.345455 -47.169471 
L 283.963636 -47.169471 
L 280.581818 -47.169471 
L 277.2 -47.169471 
L 273.818182 -47.169471 
L 270.436364 -47.169471 
L 267.054545 -47.169471 
L 263.672727 -47.169471 
L 260.290909 -47.169471 
L 256.909091 -47.169471 
L 253.527273 -47.210247 
L 250.145455 -47.210247 
L 246.763636 -47.210247 
L 243.381818 -47.210247 
L 240 -47.210247 
L 236.618182 -47.922217 
L 233.236364 -47.922217 
L 229.854545 -47.922217 
L 226.472727 -47.922217 
L 223.090909 -47.922217 
L 219.709091 -47.922217 
L 216.327273 -49.354065 
L 212.945455 -49.354065 
L 209.563636 -49.430399 
L 206.181818 -49.430399 
L 202.8 -51.930156 
L 199.418182 -51.930156 
L 196.036364 -51.930156 
L 192.654545 -51.930156 
L 189.272727 -52.323436 
L 185.890909 -52.323436 
L 182.509091 -67.693845 
L 179.127273 -67.693845 
L 175.745455 -67.693845 
L 172.363636 -67.693845 
L 168.981818 -95.379696 
L 165.6 -101.988058 
L 162.218182 -101.988058 
L 158.836364 -117.872189 
L 155.454545 -117.872189 
L 152.072727 -119.05128 
L 148.690909 -119.05128 
L 145.309091 -126.457453 
L 141.927273 -126.457453 
L 138.545455 -126.457453 
L 135.163636 -126.457453 
L 131.781818 -129.970955 
L 128.4 -130.796091 
L 125.018182 -130.796091 
L 121.636364 -130.796091 
L 118.254545 -130.796091 
L 114.872727 -130.796091 
L 111.490909 -130.796091 
L 108.109091 -130.796091 
L 104.727273 -130.796091 
L 101.345455 -130.920528 
L 97.963636 -140.980266 
L 94.581818 -140.980266 
L 91.2 -158.228858 
L 87.818182 -158.228858 
L 84.436364 -159.469726 
L 81.054545 -188.033768 
L 77.672727 -188.033768 
L 74.290909 -243.556364 
L 70.909091 -243.556364 
L 67.527273 -243.556364 
L 64.145455 -243.556364 
L 60.763636 -243.556364 
L 57.381818 -243.556364 
z
" id="mc61fdf45be" style="stroke:#008000;stroke-opacity:0.5;"/>
    </defs>
    <g clip-path="url(#pe76fc54793)">
     <use style="fill:#008000;fill-opacity:0.5;stroke:#008000;stroke-opacity:0.5;" x="0" xlink:href="#mc61fdf45be" y="288"/>
    </g>
   </g>
   <g id="PolyCollection_3">
    <defs>
     <path d="M 57.381818 -219.739829 
L 57.381818 -219.030134 
L 60.763636 -219.030134 
L 64.145455 -219.030134 
L 67.527273 -219.030134 
L 70.909091 -219.030134 
L 74.290909 -219.030134 
L 77.672727 -219.030134 
L 81.054545 -218.687921 
L 84.436364 -218.687921 
L 87.818182 -218.286797 
L 91.2 -218.286797 
L 94.581818 -218.286797 
L 97.963636 -218.286797 
L 101.345455 -218.286797 
L 104.727273 -218.286797 
L 108.109091 -218.286797 
L 111.490909 -218.286797 
L 114.872727 -218.286797 
L 118.254545 -218.286797 
L 121.636364 -218.286797 
L 125.018182 -218.286797 
L 128.4 -218.286797 
L 131.781818 -218.286797 
L 135.163636 -218.286797 
L 138.545455 -218.286797 
L 141.927273 -218.286797 
L 145.309091 -218.286797 
L 148.690909 -218.286797 
L 152.072727 -218.286797 
L 155.454545 -218.286797 
L 158.836364 -218.286797 
L 162.218182 -218.286797 
L 165.6 -218.286797 
L 168.981818 -218.286797 
L 172.363636 -218.286797 
L 175.745455 -218.286797 
L 179.127273 -218.286797 
L 182.509091 -218.286797 
L 185.890909 -218.286797 
L 189.272727 -218.286797 
L 192.654545 -218.286797 
L 196.036364 -218.286797 
L 199.418182 -218.286797 
L 202.8 -218.286797 
L 206.181818 -218.286797 
L 209.563636 -218.286797 
L 212.945455 -218.286797 
L 216.327273 -218.286797 
L 219.709091 -218.286797 
L 223.090909 -218.286797 
L 226.472727 -218.286797 
L 229.854545 -218.286797 
L 233.236364 -218.286797 
L 236.618182 -218.286797 
L 240 -218.286797 
L 243.381818 -218.237482 
L 246.763636 -218.237482 
L 250.145455 -218.237482 
L 253.527273 -218.237482 
L 256.909091 -218.237482 
L 260.290909 -218.237482 
L 263.672727 -218.237482 
L 267.054545 -218.237482 
L 270.436364 -218.237482 
L 273.818182 -218.237482 
L 277.2 -218.237482 
L 280.581818 -218.237482 
L 283.963636 -218.237482 
L 287.345455 -218.237482 
L 290.727273 -218.237482 
L 294.109091 -218.237482 
L 297.490909 -218.237482 
L 300.872727 -218.237482 
L 304.254545 -218.237482 
L 307.636364 -218.237482 
L 311.018182 -218.237482 
L 314.4 -218.237482 
L 317.781818 -218.237482 
L 321.163636 -218.237482 
L 324.545455 -218.237482 
L 327.927273 -218.237482 
L 331.309091 -218.237482 
L 334.690909 -218.237482 
L 338.072727 -218.237482 
L 341.454545 -218.237482 
L 344.836364 -218.237482 
L 348.218182 -218.237482 
L 351.6 -218.237482 
L 354.981818 -218.237482 
L 358.363636 -218.237482 
L 361.745455 -218.237482 
L 365.127273 -218.237482 
L 368.509091 -218.237482 
L 371.890909 -218.237482 
L 375.272727 -218.237482 
L 378.654545 -218.237482 
L 382.036364 -218.237482 
L 385.418182 -218.237482 
L 388.8 -218.237482 
L 392.181818 -218.237482 
L 392.181818 -218.847848 
L 392.181818 -218.847848 
L 388.8 -218.847848 
L 385.418182 -218.847848 
L 382.036364 -218.847848 
L 378.654545 -218.847848 
L 375.272727 -218.847848 
L 371.890909 -218.847848 
L 368.509091 -218.847848 
L 365.127273 -218.847848 
L 361.745455 -218.847848 
L 358.363636 -218.847848 
L 354.981818 -218.847848 
L 351.6 -218.847848 
L 348.218182 -218.847848 
L 344.836364 -218.847848 
L 341.454545 -218.847848 
L 338.072727 -218.847848 
L 334.690909 -218.847848 
L 331.309091 -218.847848 
L 327.927273 -218.847848 
L 324.545455 -218.847848 
L 321.163636 -218.847848 
L 317.781818 -218.847848 
L 314.4 -218.847848 
L 311.018182 -218.847848 
L 307.636364 -218.847848 
L 304.254545 -218.847848 
L 300.872727 -218.847848 
L 297.490909 -218.847848 
L 294.109091 -218.847848 
L 290.727273 -218.847848 
L 287.345455 -218.847848 
L 283.963636 -218.847848 
L 280.581818 -218.847848 
L 277.2 -218.847848 
L 273.818182 -218.847848 
L 270.436364 -218.847848 
L 267.054545 -218.847848 
L 263.672727 -218.847848 
L 260.290909 -218.847848 
L 256.909091 -218.847848 
L 253.527273 -218.847848 
L 250.145455 -218.847848 
L 246.763636 -218.847848 
L 243.381818 -218.847848 
L 240 -218.847848 
L 236.618182 -218.847848 
L 233.236364 -218.847848 
L 229.854545 -218.847848 
L 226.472727 -218.847848 
L 223.090909 -218.847848 
L 219.709091 -218.847848 
L 216.327273 -218.847848 
L 212.945455 -218.847848 
L 209.563636 -218.847848 
L 206.181818 -218.847848 
L 202.8 -218.936433 
L 199.418182 -218.936433 
L 196.036364 -218.936433 
L 192.654545 -218.936433 
L 189.272727 -218.936433 
L 185.890909 -218.936433 
L 182.509091 -218.936433 
L 179.127273 -218.936433 
L 175.745455 -218.936433 
L 172.363636 -218.936433 
L 168.981818 -218.936433 
L 165.6 -218.936433 
L 162.218182 -218.936433 
L 158.836364 -218.936433 
L 155.454545 -218.936433 
L 152.072727 -218.936433 
L 148.690909 -218.936433 
L 145.309091 -218.936433 
L 141.927273 -218.936433 
L 138.545455 -218.936433 
L 135.163636 -218.936433 
L 131.781818 -218.936433 
L 128.4 -218.936433 
L 125.018182 -218.936433 
L 121.636364 -218.936433 
L 118.254545 -218.977569 
L 114.872727 -219.043183 
L 111.490909 -219.043183 
L 108.109091 -219.043183 
L 104.727273 -219.043183 
L 101.345455 -219.043183 
L 97.963636 -219.043183 
L 94.581818 -219.043183 
L 91.2 -219.043183 
L 87.818182 -219.360435 
L 84.436364 -219.360435 
L 81.054545 -219.360435 
L 77.672727 -219.739829 
L 74.290909 -219.739829 
L 70.909091 -219.739829 
L 67.527273 -219.739829 
L 64.145455 -219.739829 
L 60.763636 -219.739829 
L 57.381818 -219.739829 
z
" id="m594ac727c5" style="stroke:#808080;stroke-opacity:0.5;"/>
    </defs>
    <g clip-path="url(#pe76fc54793)">
     <use style="fill:#808080;fill-opacity:0.5;stroke:#808080;stroke-opacity:0.5;" x="0" xlink:href="#m594ac727c5" y="288"/>
    </g>
   </g>
   <g id="PolyCollection_4">
    <defs>
     <path d="M 57.381818 -219.540982 
L 57.381818 -218.633373 
L 60.763636 -218.633373 
L 64.145455 -218.633373 
L 67.527273 -218.633373 
L 70.909091 -218.633373 
L 74.290909 -173.651448 
L 77.672727 -173.651448 
L 81.054545 -173.651448 
L 84.436364 -132.297261 
L 87.818182 -132.297261 
L 91.2 -132.297261 
L 94.581818 -109.29773 
L 97.963636 -109.29773 
L 101.345455 -109.29773 
L 104.727273 -109.29773 
L 108.109091 -109.29773 
L 111.490909 -104.946846 
L 114.872727 -104.946846 
L 118.254545 -104.946846 
L 121.636364 -84.211733 
L 125.018182 -84.211733 
L 128.4 -84.211733 
L 131.781818 -80.928127 
L 135.163636 -80.928127 
L 138.545455 -80.928127 
L 141.927273 -80.928127 
L 145.309091 -80.928127 
L 148.690909 -59.287433 
L 152.072727 -59.287433 
L 155.454545 -59.287433 
L 158.836364 -59.287433 
L 162.218182 -59.287433 
L 165.6 -59.287433 
L 168.981818 -59.287433 
L 172.363636 -59.287433 
L 175.745455 -59.179771 
L 179.127273 -59.179771 
L 182.509091 -59.179771 
L 185.890909 -59.179771 
L 189.272727 -59.179771 
L 192.654545 -59.179771 
L 196.036364 -59.179771 
L 199.418182 -59.179771 
L 202.8 -59.179771 
L 206.181818 -59.179771 
L 209.563636 -59.179771 
L 212.945455 -59.179771 
L 216.327273 -59.179771 
L 219.709091 -59.179771 
L 223.090909 -59.179771 
L 226.472727 -54.866288 
L 229.854545 -54.866288 
L 233.236364 -54.866288 
L 236.618182 -54.866288 
L 240 -54.866288 
L 243.381818 -54.866288 
L 246.763636 -54.866288 
L 250.145455 -52.420409 
L 253.527273 -52.420409 
L 256.909091 -52.420409 
L 260.290909 -52.420409 
L 263.672727 -52.420409 
L 267.054545 -52.420409 
L 270.436364 -52.420409 
L 273.818182 -52.420409 
L 277.2 -51.892651 
L 280.581818 -51.892651 
L 283.963636 -51.892651 
L 287.345455 -51.892651 
L 290.727273 -50.787046 
L 294.109091 -50.787046 
L 297.490909 -50.787046 
L 300.872727 -50.787046 
L 304.254545 -50.787046 
L 307.636364 -50.787046 
L 311.018182 -49.519157 
L 314.4 -49.519157 
L 317.781818 -49.519157 
L 321.163636 -49.519157 
L 324.545455 -49.519157 
L 327.927273 -49.519157 
L 331.309091 -49.519157 
L 334.690909 -49.519157 
L 338.072727 -49.519157 
L 341.454545 -49.519157 
L 344.836364 -49.519157 
L 348.218182 -49.519157 
L 351.6 -49.519157 
L 354.981818 -49.519157 
L 358.363636 -49.519157 
L 361.745455 -49.519157 
L 365.127273 -49.519157 
L 368.509091 -49.519157 
L 371.890909 -49.519157 
L 375.272727 -49.519157 
L 378.654545 -49.519157 
L 382.036364 -49.519157 
L 385.418182 -49.519157 
L 388.8 -49.519157 
L 392.181818 -49.519157 
L 392.181818 -76.614833 
L 392.181818 -76.614833 
L 388.8 -76.614833 
L 385.418182 -76.614833 
L 382.036364 -76.614833 
L 378.654545 -76.614833 
L 375.272727 -76.614833 
L 371.890909 -76.614833 
L 368.509091 -90.634204 
L 365.127273 -90.634204 
L 361.745455 -90.634204 
L 358.363636 -90.634204 
L 354.981818 -90.634204 
L 351.6 -90.634204 
L 348.218182 -90.634204 
L 344.836364 -90.634204 
L 341.454545 -113.002569 
L 338.072727 -113.002569 
L 334.690909 -113.002569 
L 331.309091 -113.002569 
L 327.927273 -113.002569 
L 324.545455 -113.002569 
L 321.163636 -113.002569 
L 317.781818 -113.002569 
L 314.4 -113.002569 
L 311.018182 -113.002569 
L 307.636364 -113.145393 
L 304.254545 -113.145393 
L 300.872727 -113.145393 
L 297.490909 -113.145393 
L 294.109091 -113.145393 
L 290.727273 -113.145393 
L 287.345455 -113.145393 
L 283.963636 -113.145393 
L 280.581818 -113.249864 
L 277.2 -113.249864 
L 273.818182 -123.342504 
L 270.436364 -123.342504 
L 267.054545 -123.342504 
L 263.672727 -123.342504 
L 260.290909 -123.342504 
L 256.909091 -123.342504 
L 253.527273 -123.342504 
L 250.145455 -123.342504 
L 246.763636 -133.484454 
L 243.381818 -133.484454 
L 240 -133.484454 
L 236.618182 -133.484454 
L 233.236364 -133.484454 
L 229.854545 -133.484454 
L 226.472727 -133.484454 
L 223.090909 -133.484454 
L 219.709091 -133.484454 
L 216.327273 -133.484454 
L 212.945455 -133.484454 
L 209.563636 -133.484454 
L 206.181818 -133.484454 
L 202.8 -133.484454 
L 199.418182 -133.484454 
L 196.036364 -133.484454 
L 192.654545 -133.484454 
L 189.272727 -133.484454 
L 185.890909 -135.144817 
L 182.509091 -135.144817 
L 179.127273 -154.114517 
L 175.745455 -154.114517 
L 172.363636 -154.114517 
L 168.981818 -159.536478 
L 165.6 -159.536478 
L 162.218182 -159.536478 
L 158.836364 -181.294645 
L 155.454545 -182.215586 
L 152.072727 -182.215586 
L 148.690909 -182.215586 
L 145.309091 -182.215586 
L 141.927273 -182.215586 
L 138.545455 -182.215586 
L 135.163636 -182.215586 
L 131.781818 -182.889589 
L 128.4 -182.889589 
L 125.018182 -189.312489 
L 121.636364 -189.312489 
L 118.254545 -189.312489 
L 114.872727 -218.965339 
L 111.490909 -218.965339 
L 108.109091 -218.965339 
L 104.727273 -218.965339 
L 101.345455 -218.965339 
L 97.963636 -218.965339 
L 94.581818 -218.965339 
L 91.2 -218.965339 
L 87.818182 -218.965339 
L 84.436364 -219.540982 
L 81.054545 -219.540982 
L 77.672727 -219.540982 
L 74.290909 -219.540982 
L 70.909091 -219.540982 
L 67.527273 -219.540982 
L 64.145455 -219.540982 
L 60.763636 -219.540982 
L 57.381818 -219.540982 
z
" id="m7c2bb542c2" style="stroke:#0000ff;stroke-opacity:0.5;"/>
    </defs>
    <g clip-path="url(#pe76fc54793)">
     <use style="fill:#0000ff;fill-opacity:0.5;stroke:#0000ff;stroke-opacity:0.5;" x="0" xlink:href="#m7c2bb542c2" y="288"/>
    </g>
   </g>
   <g id="PolyCollection_5">
    <defs>
     <path d="M 57.381818 -79.390146 
L 57.381818 -78.434906 
L 60.763636 -78.434906 
L 64.145455 -78.434906 
L 67.527273 -78.434906 
L 70.909091 -78.434906 
L 74.290909 -59.457171 
L 77.672727 -59.457171 
L 81.054545 -59.457171 
L 84.436364 -59.457171 
L 87.818182 -59.457171 
L 91.2 -59.457171 
L 94.581818 -59.457171 
L 97.963636 -59.457171 
L 101.345455 -59.457171 
L 104.727273 -59.457171 
L 108.109091 -59.104293 
L 111.490909 -59.104293 
L 114.872727 -59.104293 
L 118.254545 -59.104293 
L 121.636364 -59.104293 
L 125.018182 -59.104293 
L 128.4 -55.724762 
L 131.781818 -55.724762 
L 135.163636 -55.724762 
L 138.545455 -55.724762 
L 141.927273 -55.564176 
L 145.309091 -55.564176 
L 148.690909 -55.564176 
L 152.072727 -55.564176 
L 155.454545 -55.564176 
L 158.836364 -55.564176 
L 162.218182 -55.547031 
L 165.6 -55.547031 
L 168.981818 -55.377107 
L 172.363636 -54.497468 
L 175.745455 -54.497468 
L 179.127273 -54.497468 
L 182.509091 -54.497468 
L 185.890909 -54.497468 
L 189.272727 -54.497468 
L 192.654545 -54.497468 
L 196.036364 -54.29978 
L 199.418182 -54.29978 
L 202.8 -54.29978 
L 206.181818 -54.29978 
L 209.563636 -54.29978 
L 212.945455 -54.29978 
L 216.327273 -54.29978 
L 219.709091 -54.29978 
L 223.090909 -54.29978 
L 226.472727 -54.29978 
L 229.854545 -53.995599 
L 233.236364 -53.995599 
L 236.618182 -53.995599 
L 240 -53.995599 
L 243.381818 -53.995599 
L 246.763636 -53.995599 
L 250.145455 -53.995599 
L 253.527273 -53.995599 
L 256.909091 -53.995599 
L 260.290909 -53.995599 
L 263.672727 -53.995599 
L 267.054545 -53.995599 
L 270.436364 -53.995599 
L 273.818182 -53.995599 
L 277.2 -53.995599 
L 280.581818 -53.995599 
L 283.963636 -53.995599 
L 287.345455 -53.995599 
L 290.727273 -53.995599 
L 294.109091 -53.995599 
L 297.490909 -53.995599 
L 300.872727 -53.995599 
L 304.254545 -53.995599 
L 307.636364 -53.995599 
L 311.018182 -53.995599 
L 314.4 -53.995599 
L 317.781818 -53.995599 
L 321.163636 -53.995599 
L 324.545455 -53.995599 
L 327.927273 -53.995599 
L 331.309091 -53.995599 
L 334.690909 -53.995599 
L 338.072727 -53.995599 
L 341.454545 -53.995599 
L 344.836364 -53.995599 
L 348.218182 -53.995599 
L 351.6 -53.995599 
L 354.981818 -53.995599 
L 358.363636 -53.995599 
L 361.745455 -53.995599 
L 365.127273 -53.995599 
L 368.509091 -53.995599 
L 371.890909 -53.995599 
L 375.272727 -53.995599 
L 378.654545 -53.995599 
L 382.036364 -53.995599 
L 385.418182 -53.995599 
L 388.8 -53.995599 
L 392.181818 -53.995599 
L 392.181818 -55.383775 
L 392.181818 -55.383775 
L 388.8 -55.383775 
L 385.418182 -55.383775 
L 382.036364 -55.383775 
L 378.654545 -55.383775 
L 375.272727 -55.383775 
L 371.890909 -55.383775 
L 368.509091 -55.383775 
L 365.127273 -55.383775 
L 361.745455 -55.383775 
L 358.363636 -55.383775 
L 354.981818 -55.383775 
L 351.6 -55.383775 
L 348.218182 -55.383775 
L 344.836364 -55.383775 
L 341.454545 -55.383775 
L 338.072727 -55.383775 
L 334.690909 -55.383775 
L 331.309091 -55.484921 
L 327.927273 -55.484921 
L 324.545455 -55.484921 
L 321.163636 -55.920553 
L 317.781818 -55.920553 
L 314.4 -55.920553 
L 311.018182 -55.920553 
L 307.636364 -55.920553 
L 304.254545 -55.920553 
L 300.872727 -55.920553 
L 297.490909 -55.920553 
L 294.109091 -55.920553 
L 290.727273 -55.920553 
L 287.345455 -55.920553 
L 283.963636 -55.920553 
L 280.581818 -55.920553 
L 277.2 -55.920553 
L 273.818182 -55.920553 
L 270.436364 -57.83182 
L 267.054545 -57.83182 
L 263.672727 -57.83182 
L 260.290909 -57.83182 
L 256.909091 -57.83182 
L 253.527273 -57.83182 
L 250.145455 -57.83182 
L 246.763636 -57.83182 
L 243.381818 -57.83182 
L 240 -57.83182 
L 236.618182 -57.83182 
L 233.236364 -57.83182 
L 229.854545 -57.83182 
L 226.472727 -57.83182 
L 223.090909 -57.83182 
L 219.709091 -57.83182 
L 216.327273 -57.83182 
L 212.945455 -57.83182 
L 209.563636 -57.83182 
L 206.181818 -57.83182 
L 202.8 -57.83182 
L 199.418182 -57.83182 
L 196.036364 -57.83182 
L 192.654545 -57.83182 
L 189.272727 -57.83182 
L 185.890909 -59.479742 
L 182.509091 -59.479742 
L 179.127273 -59.479742 
L 175.745455 -59.479742 
L 172.363636 -59.479742 
L 168.981818 -59.479742 
L 165.6 -59.479742 
L 162.218182 -59.479742 
L 158.836364 -59.541057 
L 155.454545 -59.541057 
L 152.072727 -59.541057 
L 148.690909 -59.541057 
L 145.309091 -59.851429 
L 141.927273 -59.851429 
L 138.545455 -59.851429 
L 135.163636 -59.851429 
L 131.781818 -59.851429 
L 128.4 -59.851429 
L 125.018182 -59.852715 
L 121.636364 -59.852715 
L 118.254545 -59.852715 
L 114.872727 -59.852715 
L 111.490909 -59.852715 
L 108.109091 -59.852715 
L 104.727273 -78.434906 
L 101.345455 -79.390146 
L 97.963636 -79.390146 
L 94.581818 -79.390146 
L 91.2 -79.390146 
L 87.818182 -79.390146 
L 84.436364 -79.390146 
L 81.054545 -79.390146 
L 77.672727 -79.390146 
L 74.290909 -79.390146 
L 70.909091 -79.390146 
L 67.527273 -79.390146 
L 64.145455 -79.390146 
L 60.763636 -79.390146 
L 57.381818 -79.390146 
z
" id="m36458a3544" style="stroke:#ee82ee;stroke-opacity:0.5;"/>
    </defs>
    <g clip-path="url(#pe76fc54793)">
     <use style="fill:#ee82ee;fill-opacity:0.5;stroke:#ee82ee;stroke-opacity:0.5;" x="0" xlink:href="#m36458a3544" y="288"/>
    </g>
   </g>
   <g id="matplotlib.axis_1">
    <g id="xtick_1">
     <g id="line2d_1">
      <defs>
       <path d="M 0 0 
L 0 3.5 
" id="m6d7872e4b7" style="stroke:#000000;stroke-width:0.8;"/>
      </defs>
      <g>
       <use style="stroke:#000000;stroke-width:0.8;" x="54" xlink:href="#m6d7872e4b7" y="252"/>
      </g>
     </g>
     <g id="text_1">
      <!-- 0 -->
      <g transform="translate(50.81875 266.598437)scale(0.1 -0.1)">
       <defs>
        <path d="M 31.78125 66.40625 
Q 24.171875 66.40625 20.328125 58.90625 
Q 16.5 51.421875 16.5 36.375 
Q 16.5 21.390625 20.328125 13.890625 
Q 24.171875 6.390625 31.78125 6.390625 
Q 39.453125 6.390625 43.28125 13.890625 
Q 47.125 21.390625 47.125 36.375 
Q 47.125 51.421875 43.28125 58.90625 
Q 39.453125 66.40625 31.78125 66.40625 
z
M 31.78125 74.21875 
Q 44.046875 74.21875 50.515625 64.515625 
Q 56.984375 54.828125 56.984375 36.375 
Q 56.984375 17.96875 50.515625 8.265625 
Q 44.046875 -1.421875 31.78125 -1.421875 
Q 19.53125 -1.421875 13.0625 8.265625 
Q 6.59375 17.96875 6.59375 36.375 
Q 6.59375 54.828125 13.0625 64.515625 
Q 19.53125 74.21875 31.78125 74.21875 
z
" id="DejaVuSans-48"/>
       </defs>
       <use xlink:href="#DejaVuSans-48"/>
      </g>
     </g>
    </g>
    <g id="xtick_2">
     <g id="line2d_2">
      <g>
       <use style="stroke:#000000;stroke-width:0.8;" x="121.636364" xlink:href="#m6d7872e4b7" y="252"/>
      </g>
     </g>
     <g id="text_2">
      <!-- 20 -->
      <g transform="translate(115.273864 266.598437)scale(0.1 -0.1)">
       <defs>
        <path d="M 19.1875 8.296875 
L 53.609375 8.296875 
L 53.609375 0 
L 7.328125 0 
L 7.328125 8.296875 
Q 12.9375 14.109375 22.625 23.890625 
Q 32.328125 33.6875 34.8125 36.53125 
Q 39.546875 41.84375 41.421875 45.53125 
Q 43.3125 49.21875 43.3125 52.78125 
Q 43.3125 58.59375 39.234375 62.25 
Q 35.15625 65.921875 28.609375 65.921875 
Q 23.96875 65.921875 18.8125 64.3125 
Q 13.671875 62.703125 7.8125 59.421875 
L 7.8125 69.390625 
Q 13.765625 71.78125 18.9375 73 
Q 24.125 74.21875 28.421875 74.21875 
Q 39.75 74.21875 46.484375 68.546875 
Q 53.21875 62.890625 53.21875 53.421875 
Q 53.21875 48.921875 51.53125 44.890625 
Q 49.859375 40.875 45.40625 35.40625 
Q 44.1875 33.984375 37.640625 27.21875 
Q 31.109375 20.453125 19.1875 8.296875 
z
" id="DejaVuSans-50"/>
       </defs>
       <use xlink:href="#DejaVuSans-50"/>
       <use x="63.623047" xlink:href="#DejaVuSans-48"/>
      </g>
     </g>
    </g>
    <g id="xtick_3">
     <g id="line2d_3">
      <g>
       <use style="stroke:#000000;stroke-width:0.8;" x="189.272727" xlink:href="#m6d7872e4b7" y="252"/>
      </g>
     </g>
     <g id="text_3">
      <!-- 40 -->
      <g transform="translate(182.910227 266.598437)scale(0.1 -0.1)">
       <defs>
        <path d="M 37.796875 64.3125 
L 12.890625 25.390625 
L 37.796875 25.390625 
z
M 35.203125 72.90625 
L 47.609375 72.90625 
L 47.609375 25.390625 
L 58.015625 25.390625 
L 58.015625 17.1875 
L 47.609375 17.1875 
L 47.609375 0 
L 37.796875 0 
L 37.796875 17.1875 
L 4.890625 17.1875 
L 4.890625 26.703125 
z
" id="DejaVuSans-52"/>
       </defs>
       <use xlink:href="#DejaVuSans-52"/>
       <use x="63.623047" xlink:href="#DejaVuSans-48"/>
      </g>
     </g>
    </g>
    <g id="xtick_4">
     <g id="line2d_4">
      <g>
       <use style="stroke:#000000;stroke-width:0.8;" x="256.909091" xlink:href="#m6d7872e4b7" y="252"/>
      </g>
     </g>
     <g id="text_4">
      <!-- 60 -->
      <g transform="translate(250.546591 266.598437)scale(0.1 -0.1)">
       <defs>
        <path d="M 33.015625 40.375 
Q 26.375 40.375 22.484375 35.828125 
Q 18.609375 31.296875 18.609375 23.390625 
Q 18.609375 15.53125 22.484375 10.953125 
Q 26.375 6.390625 33.015625 6.390625 
Q 39.65625 6.390625 43.53125 10.953125 
Q 47.40625 15.53125 47.40625 23.390625 
Q 47.40625 31.296875 43.53125 35.828125 
Q 39.65625 40.375 33.015625 40.375 
z
M 52.59375 71.296875 
L 52.59375 62.3125 
Q 48.875 64.0625 45.09375 64.984375 
Q 41.3125 65.921875 37.59375 65.921875 
Q 27.828125 65.921875 22.671875 59.328125 
Q 17.53125 52.734375 16.796875 39.40625 
Q 19.671875 43.65625 24.015625 45.921875 
Q 28.375 48.1875 33.59375 48.1875 
Q 44.578125 48.1875 50.953125 41.515625 
Q 57.328125 34.859375 57.328125 23.390625 
Q 57.328125 12.15625 50.6875 5.359375 
Q 44.046875 -1.421875 33.015625 -1.421875 
Q 20.359375 -1.421875 13.671875 8.265625 
Q 6.984375 17.96875 6.984375 36.375 
Q 6.984375 53.65625 15.1875 63.9375 
Q 23.390625 74.21875 37.203125 74.21875 
Q 40.921875 74.21875 44.703125 73.484375 
Q 48.484375 72.75 52.59375 71.296875 
z
" id="DejaVuSans-54"/>
       </defs>
       <use xlink:href="#DejaVuSans-54"/>
       <use x="63.623047" xlink:href="#DejaVuSans-48"/>
      </g>
     </g>
    </g>
    <g id="xtick_5">
     <g id="line2d_5">
      <g>
       <use style="stroke:#000000;stroke-width:0.8;" x="324.545455" xlink:href="#m6d7872e4b7" y="252"/>
      </g>
     </g>
     <g id="text_5">
      <!-- 80 -->
      <g transform="translate(318.182955 266.598437)scale(0.1 -0.1)">
       <defs>
        <path d="M 31.78125 34.625 
Q 24.75 34.625 20.71875 30.859375 
Q 16.703125 27.09375 16.703125 20.515625 
Q 16.703125 13.921875 20.71875 10.15625 
Q 24.75 6.390625 31.78125 6.390625 
Q 38.8125 6.390625 42.859375 10.171875 
Q 46.921875 13.96875 46.921875 20.515625 
Q 46.921875 27.09375 42.890625 30.859375 
Q 38.875 34.625 31.78125 34.625 
z
M 21.921875 38.8125 
Q 15.578125 40.375 12.03125 44.71875 
Q 8.5 49.078125 8.5 55.328125 
Q 8.5 64.0625 14.71875 69.140625 
Q 20.953125 74.21875 31.78125 74.21875 
Q 42.671875 74.21875 48.875 69.140625 
Q 55.078125 64.0625 55.078125 55.328125 
Q 55.078125 49.078125 51.53125 44.71875 
Q 48 40.375 41.703125 38.8125 
Q 48.828125 37.15625 52.796875 32.3125 
Q 56.78125 27.484375 56.78125 20.515625 
Q 56.78125 9.90625 50.3125 4.234375 
Q 43.84375 -1.421875 31.78125 -1.421875 
Q 19.734375 -1.421875 13.25 4.234375 
Q 6.78125 9.90625 6.78125 20.515625 
Q 6.78125 27.484375 10.78125 32.3125 
Q 14.796875 37.15625 21.921875 38.8125 
z
M 18.3125 54.390625 
Q 18.3125 48.734375 21.84375 45.5625 
Q 25.390625 42.390625 31.78125 42.390625 
Q 38.140625 42.390625 41.71875 45.5625 
Q 45.3125 48.734375 45.3125 54.390625 
Q 45.3125 60.0625 41.71875 63.234375 
Q 38.140625 66.40625 31.78125 66.40625 
Q 25.390625 66.40625 21.84375 63.234375 
Q 18.3125 60.0625 18.3125 54.390625 
z
" id="DejaVuSans-56"/>
       </defs>
       <use xlink:href="#DejaVuSans-56"/>
       <use x="63.623047" xlink:href="#DejaVuSans-48"/>
      </g>
     </g>
    </g>
    <g id="text_6">
     <!-- Nbr. of function evaluations -->
     <g transform="translate(152.382031 280.276563)scale(0.1 -0.1)">
      <defs>
       <path d="M 9.8125 72.90625 
L 23.09375 72.90625 
L 55.421875 11.921875 
L 55.421875 72.90625 
L 64.984375 72.90625 
L 64.984375 0 
L 51.703125 0 
L 19.390625 60.984375 
L 19.390625 0 
L 9.8125 0 
z
" id="DejaVuSans-78"/>
       <path d="M 48.6875 27.296875 
Q 48.6875 37.203125 44.609375 42.84375 
Q 40.53125 48.484375 33.40625 48.484375 
Q 26.265625 48.484375 22.1875 42.84375 
Q 18.109375 37.203125 18.109375 27.296875 
Q 18.109375 17.390625 22.1875 11.75 
Q 26.265625 6.109375 33.40625 6.109375 
Q 40.53125 6.109375 44.609375 11.75 
Q 48.6875 17.390625 48.6875 27.296875 
z
M 18.109375 46.390625 
Q 20.953125 51.265625 25.265625 53.625 
Q 29.59375 56 35.59375 56 
Q 45.5625 56 51.78125 48.09375 
Q 58.015625 40.1875 58.015625 27.296875 
Q 58.015625 14.40625 51.78125 6.484375 
Q 45.5625 -1.421875 35.59375 -1.421875 
Q 29.59375 -1.421875 25.265625 0.953125 
Q 20.953125 3.328125 18.109375 8.203125 
L 18.109375 0 
L 9.078125 0 
L 9.078125 75.984375 
L 18.109375 75.984375 
z
" id="DejaVuSans-98"/>
       <path d="M 41.109375 46.296875 
Q 39.59375 47.171875 37.8125 47.578125 
Q 36.03125 48 33.890625 48 
Q 26.265625 48 22.1875 43.046875 
Q 18.109375 38.09375 18.109375 28.8125 
L 18.109375 0 
L 9.078125 0 
L 9.078125 54.6875 
L 18.109375 54.6875 
L 18.109375 46.1875 
Q 20.953125 51.171875 25.484375 53.578125 
Q 30.03125 56 36.53125 56 
Q 37.453125 56 38.578125 55.875 
Q 39.703125 55.765625 41.0625 55.515625 
z
" id="DejaVuSans-114"/>
       <path d="M 10.6875 12.40625 
L 21 12.40625 
L 21 0 
L 10.6875 0 
z
" id="DejaVuSans-46"/>
       <path id="DejaVuSans-32"/>
       <path d="M 30.609375 48.390625 
Q 23.390625 48.390625 19.1875 42.75 
Q 14.984375 37.109375 14.984375 27.296875 
Q 14.984375 17.484375 19.15625 11.84375 
Q 23.34375 6.203125 30.609375 6.203125 
Q 37.796875 6.203125 41.984375 11.859375 
Q 46.1875 17.53125 46.1875 27.296875 
Q 46.1875 37.015625 41.984375 42.703125 
Q 37.796875 48.390625 30.609375 48.390625 
z
M 30.609375 56 
Q 42.328125 56 49.015625 48.375 
Q 55.71875 40.765625 55.71875 27.296875 
Q 55.71875 13.875 49.015625 6.21875 
Q 42.328125 -1.421875 30.609375 -1.421875 
Q 18.84375 -1.421875 12.171875 6.21875 
Q 5.515625 13.875 5.515625 27.296875 
Q 5.515625 40.765625 12.171875 48.375 
Q 18.84375 56 30.609375 56 
z
" id="DejaVuSans-111"/>
       <path d="M 37.109375 75.984375 
L 37.109375 68.5 
L 28.515625 68.5 
Q 23.6875 68.5 21.796875 66.546875 
Q 19.921875 64.59375 19.921875 59.515625 
L 19.921875 54.6875 
L 34.71875 54.6875 
L 34.71875 47.703125 
L 19.921875 47.703125 
L 19.921875 0 
L 10.890625 0 
L 10.890625 47.703125 
L 2.296875 47.703125 
L 2.296875 54.6875 
L 10.890625 54.6875 
L 10.890625 58.5 
Q 10.890625 67.625 15.140625 71.796875 
Q 19.390625 75.984375 28.609375 75.984375 
z
" id="DejaVuSans-102"/>
       <path d="M 8.5 21.578125 
L 8.5 54.6875 
L 17.484375 54.6875 
L 17.484375 21.921875 
Q 17.484375 14.15625 20.5 10.265625 
Q 23.53125 6.390625 29.59375 6.390625 
Q 36.859375 6.390625 41.078125 11.03125 
Q 45.3125 15.671875 45.3125 23.6875 
L 45.3125 54.6875 
L 54.296875 54.6875 
L 54.296875 0 
L 45.3125 0 
L 45.3125 8.40625 
Q 42.046875 3.421875 37.71875 1 
Q 33.40625 -1.421875 27.6875 -1.421875 
Q 18.265625 -1.421875 13.375 4.4375 
Q 8.5 10.296875 8.5 21.578125 
z
M 31.109375 56 
z
" id="DejaVuSans-117"/>
       <path d="M 54.890625 33.015625 
L 54.890625 0 
L 45.90625 0 
L 45.90625 32.71875 
Q 45.90625 40.484375 42.875 44.328125 
Q 39.84375 48.1875 33.796875 48.1875 
Q 26.515625 48.1875 22.3125 43.546875 
Q 18.109375 38.921875 18.109375 30.90625 
L 18.109375 0 
L 9.078125 0 
L 9.078125 54.6875 
L 18.109375 54.6875 
L 18.109375 46.1875 
Q 21.34375 51.125 25.703125 53.5625 
Q 30.078125 56 35.796875 56 
Q 45.21875 56 50.046875 50.171875 
Q 54.890625 44.34375 54.890625 33.015625 
z
" id="DejaVuSans-110"/>
       <path d="M 48.78125 52.59375 
L 48.78125 44.1875 
Q 44.96875 46.296875 41.140625 47.34375 
Q 37.3125 48.390625 33.40625 48.390625 
Q 24.65625 48.390625 19.8125 42.84375 
Q 14.984375 37.3125 14.984375 27.296875 
Q 14.984375 17.28125 19.8125 11.734375 
Q 24.65625 6.203125 33.40625 6.203125 
Q 37.3125 6.203125 41.140625 7.25 
Q 44.96875 8.296875 48.78125 10.40625 
L 48.78125 2.09375 
Q 45.015625 0.34375 40.984375 -0.53125 
Q 36.96875 -1.421875 32.421875 -1.421875 
Q 20.0625 -1.421875 12.78125 6.34375 
Q 5.515625 14.109375 5.515625 27.296875 
Q 5.515625 40.671875 12.859375 48.328125 
Q 20.21875 56 33.015625 56 
Q 37.15625 56 41.109375 55.140625 
Q 45.0625 54.296875 48.78125 52.59375 
z
" id="DejaVuSans-99"/>
       <path d="M 18.3125 70.21875 
L 18.3125 54.6875 
L 36.8125 54.6875 
L 36.8125 47.703125 
L 18.3125 47.703125 
L 18.3125 18.015625 
Q 18.3125 11.328125 20.140625 9.421875 
Q 21.96875 7.515625 27.59375 7.515625 
L 36.8125 7.515625 
L 36.8125 0 
L 27.59375 0 
Q 17.1875 0 13.234375 3.875 
Q 9.28125 7.765625 9.28125 18.015625 
L 9.28125 47.703125 
L 2.6875 47.703125 
L 2.6875 54.6875 
L 9.28125 54.6875 
L 9.28125 70.21875 
z
" id="DejaVuSans-116"/>
       <path d="M 9.421875 54.6875 
L 18.40625 54.6875 
L 18.40625 0 
L 9.421875 0 
z
M 9.421875 75.984375 
L 18.40625 75.984375 
L 18.40625 64.59375 
L 9.421875 64.59375 
z
" id="DejaVuSans-105"/>
       <path d="M 56.203125 29.59375 
L 56.203125 25.203125 
L 14.890625 25.203125 
Q 15.484375 15.921875 20.484375 11.0625 
Q 25.484375 6.203125 34.421875 6.203125 
Q 39.59375 6.203125 44.453125 7.46875 
Q 49.3125 8.734375 54.109375 11.28125 
L 54.109375 2.78125 
Q 49.265625 0.734375 44.1875 -0.34375 
Q 39.109375 -1.421875 33.890625 -1.421875 
Q 20.796875 -1.421875 13.15625 6.1875 
Q 5.515625 13.8125 5.515625 26.8125 
Q 5.515625 40.234375 12.765625 48.109375 
Q 20.015625 56 32.328125 56 
Q 43.359375 56 49.78125 48.890625 
Q 56.203125 41.796875 56.203125 29.59375 
z
M 47.21875 32.234375 
Q 47.125 39.59375 43.09375 43.984375 
Q 39.0625 48.390625 32.421875 48.390625 
Q 24.90625 48.390625 20.390625 44.140625 
Q 15.875 39.890625 15.1875 32.171875 
z
" id="DejaVuSans-101"/>
       <path d="M 2.984375 54.6875 
L 12.5 54.6875 
L 29.59375 8.796875 
L 46.6875 54.6875 
L 56.203125 54.6875 
L 35.6875 0 
L 23.484375 0 
z
" id="DejaVuSans-118"/>
       <path d="M 34.28125 27.484375 
Q 23.390625 27.484375 19.1875 25 
Q 14.984375 22.515625 14.984375 16.5 
Q 14.984375 11.71875 18.140625 8.90625 
Q 21.296875 6.109375 26.703125 6.109375 
Q 34.1875 6.109375 38.703125 11.40625 
Q 43.21875 16.703125 43.21875 25.484375 
L 43.21875 27.484375 
z
M 52.203125 31.203125 
L 52.203125 0 
L 43.21875 0 
L 43.21875 8.296875 
Q 40.140625 3.328125 35.546875 0.953125 
Q 30.953125 -1.421875 24.3125 -1.421875 
Q 15.921875 -1.421875 10.953125 3.296875 
Q 6 8.015625 6 15.921875 
Q 6 25.140625 12.171875 29.828125 
Q 18.359375 34.515625 30.609375 34.515625 
L 43.21875 34.515625 
L 43.21875 35.40625 
Q 43.21875 41.609375 39.140625 45 
Q 35.0625 48.390625 27.6875 48.390625 
Q 23 48.390625 18.546875 47.265625 
Q 14.109375 46.140625 10.015625 43.890625 
L 10.015625 52.203125 
Q 14.9375 54.109375 19.578125 55.046875 
Q 24.21875 56 28.609375 56 
Q 40.484375 56 46.34375 49.84375 
Q 52.203125 43.703125 52.203125 31.203125 
z
" id="DejaVuSans-97"/>
       <path d="M 9.421875 75.984375 
L 18.40625 75.984375 
L 18.40625 0 
L 9.421875 0 
z
" id="DejaVuSans-108"/>
       <path d="M 44.28125 53.078125 
L 44.28125 44.578125 
Q 40.484375 46.53125 36.375 47.5 
Q 32.28125 48.484375 27.875 48.484375 
Q 21.1875 48.484375 17.84375 46.4375 
Q 14.5 44.390625 14.5 40.28125 
Q 14.5 37.15625 16.890625 35.375 
Q 19.28125 33.59375 26.515625 31.984375 
L 29.59375 31.296875 
Q 39.15625 29.25 43.1875 25.515625 
Q 47.21875 21.78125 47.21875 15.09375 
Q 47.21875 7.46875 41.1875 3.015625 
Q 35.15625 -1.421875 24.609375 -1.421875 
Q 20.21875 -1.421875 15.453125 -0.5625 
Q 10.6875 0.296875 5.421875 2 
L 5.421875 11.28125 
Q 10.40625 8.6875 15.234375 7.390625 
Q 20.0625 6.109375 24.8125 6.109375 
Q 31.15625 6.109375 34.5625 8.28125 
Q 37.984375 10.453125 37.984375 14.40625 
Q 37.984375 18.0625 35.515625 20.015625 
Q 33.0625 21.96875 24.703125 23.78125 
L 21.578125 24.515625 
Q 13.234375 26.265625 9.515625 29.90625 
Q 5.8125 33.546875 5.8125 39.890625 
Q 5.8125 47.609375 11.28125 51.796875 
Q 16.75 56 26.8125 56 
Q 31.78125 56 36.171875 55.265625 
Q 40.578125 54.546875 44.28125 53.078125 
z
" id="DejaVuSans-115"/>
      </defs>
      <use xlink:href="#DejaVuSans-78"/>
      <use x="74.804688" xlink:href="#DejaVuSans-98"/>
      <use x="138.28125" xlink:href="#DejaVuSans-114"/>
      <use x="170.269531" xlink:href="#DejaVuSans-46"/>
      <use x="202.056641" xlink:href="#DejaVuSans-32"/>
      <use x="233.84375" xlink:href="#DejaVuSans-111"/>
      <use x="295.025391" xlink:href="#DejaVuSans-102"/>
      <use x="330.230469" xlink:href="#DejaVuSans-32"/>
      <use x="362.017578" xlink:href="#DejaVuSans-102"/>
      <use x="397.222656" xlink:href="#DejaVuSans-117"/>
      <use x="460.601562" xlink:href="#DejaVuSans-110"/>
      <use x="523.980469" xlink:href="#DejaVuSans-99"/>
      <use x="578.960938" xlink:href="#DejaVuSans-116"/>
      <use x="618.169922" xlink:href="#DejaVuSans-105"/>
      <use x="645.953125" xlink:href="#DejaVuSans-111"/>
      <use x="707.134766" xlink:href="#DejaVuSans-110"/>
      <use x="770.513672" xlink:href="#DejaVuSans-32"/>
      <use x="802.300781" xlink:href="#DejaVuSans-101"/>
      <use x="863.824219" xlink:href="#DejaVuSans-118"/>
      <use x="923.003906" xlink:href="#DejaVuSans-97"/>
      <use x="984.283203" xlink:href="#DejaVuSans-108"/>
      <use x="1012.066406" xlink:href="#DejaVuSans-117"/>
      <use x="1075.445312" xlink:href="#DejaVuSans-97"/>
      <use x="1136.724609" xlink:href="#DejaVuSans-116"/>
      <use x="1175.933594" xlink:href="#DejaVuSans-105"/>
      <use x="1203.716797" xlink:href="#DejaVuSans-111"/>
      <use x="1264.898438" xlink:href="#DejaVuSans-110"/>
      <use x="1328.277344" xlink:href="#DejaVuSans-115"/>
     </g>
    </g>
   </g>
   <g id="matplotlib.axis_2">
    <g id="ytick_1">
     <g id="line2d_6">
      <defs>
       <path d="M 0 0 
L -3.5 0 
" id="m7c9af7eea0" style="stroke:#000000;stroke-width:0.8;"/>
      </defs>
      <g>
       <use style="stroke:#000000;stroke-width:0.8;" x="54" xlink:href="#m7c9af7eea0" y="246.117165"/>
      </g>
     </g>
     <g id="text_7">
      <!-- −80 -->
      <g transform="translate(25.895312 249.916384)scale(0.1 -0.1)">
       <defs>
        <path d="M 10.59375 35.5 
L 73.1875 35.5 
L 73.1875 27.203125 
L 10.59375 27.203125 
z
" id="DejaVuSans-8722"/>
       </defs>
       <use xlink:href="#DejaVuSans-8722"/>
       <use x="83.789062" xlink:href="#DejaVuSans-56"/>
       <use x="147.412109" xlink:href="#DejaVuSans-48"/>
      </g>
     </g>
    </g>
    <g id="ytick_2">
     <g id="line2d_7">
      <g>
       <use style="stroke:#000000;stroke-width:0.8;" x="54" xlink:href="#m7c9af7eea0" y="221.774915"/>
      </g>
     </g>
     <g id="text_8">
      <!-- −60 -->
      <g transform="translate(25.895312 225.574133)scale(0.1 -0.1)">
       <use xlink:href="#DejaVuSans-8722"/>
       <use x="83.789062" xlink:href="#DejaVuSans-54"/>
       <use x="147.412109" xlink:href="#DejaVuSans-48"/>
      </g>
     </g>
    </g>
    <g id="ytick_3">
     <g id="line2d_8">
      <g>
       <use style="stroke:#000000;stroke-width:0.8;" x="54" xlink:href="#m7c9af7eea0" y="197.432664"/>
      </g>
     </g>
     <g id="text_9">
      <!-- −40 -->
      <g transform="translate(25.895312 201.231883)scale(0.1 -0.1)">
       <use xlink:href="#DejaVuSans-8722"/>
       <use x="83.789062" xlink:href="#DejaVuSans-52"/>
       <use x="147.412109" xlink:href="#DejaVuSans-48"/>
      </g>
     </g>
    </g>
    <g id="ytick_4">
     <g id="line2d_9">
      <g>
       <use style="stroke:#000000;stroke-width:0.8;" x="54" xlink:href="#m7c9af7eea0" y="173.090414"/>
      </g>
     </g>
     <g id="text_10">
      <!-- −20 -->
      <g transform="translate(25.895312 176.889632)scale(0.1 -0.1)">
       <use xlink:href="#DejaVuSans-8722"/>
       <use x="83.789062" xlink:href="#DejaVuSans-50"/>
       <use x="147.412109" xlink:href="#DejaVuSans-48"/>
      </g>
     </g>
    </g>
    <g id="ytick_5">
     <g id="line2d_10">
      <g>
       <use style="stroke:#000000;stroke-width:0.8;" x="54" xlink:href="#m7c9af7eea0" y="148.748163"/>
      </g>
     </g>
     <g id="text_11">
      <!-- 0 -->
      <g transform="translate(40.6375 152.547382)scale(0.1 -0.1)">
       <use xlink:href="#DejaVuSans-48"/>
      </g>
     </g>
    </g>
    <g id="ytick_6">
     <g id="line2d_11">
      <g>
       <use style="stroke:#000000;stroke-width:0.8;" x="54" xlink:href="#m7c9af7eea0" y="124.405913"/>
      </g>
     </g>
     <g id="text_12">
      <!-- 20 -->
      <g transform="translate(34.275 128.205132)scale(0.1 -0.1)">
       <use xlink:href="#DejaVuSans-50"/>
       <use x="63.623047" xlink:href="#DejaVuSans-48"/>
      </g>
     </g>
    </g>
    <g id="ytick_7">
     <g id="line2d_12">
      <g>
       <use style="stroke:#000000;stroke-width:0.8;" x="54" xlink:href="#m7c9af7eea0" y="100.063662"/>
      </g>
     </g>
     <g id="text_13">
      <!-- 40 -->
      <g transform="translate(34.275 103.862881)scale(0.1 -0.1)">
       <use xlink:href="#DejaVuSans-52"/>
       <use x="63.623047" xlink:href="#DejaVuSans-48"/>
      </g>
     </g>
    </g>
    <g id="ytick_8">
     <g id="line2d_13">
      <g>
       <use style="stroke:#000000;stroke-width:0.8;" x="54" xlink:href="#m7c9af7eea0" y="75.721412"/>
      </g>
     </g>
     <g id="text_14">
      <!-- 60 -->
      <g transform="translate(34.275 79.520631)scale(0.1 -0.1)">
       <use xlink:href="#DejaVuSans-54"/>
       <use x="63.623047" xlink:href="#DejaVuSans-48"/>
      </g>
     </g>
    </g>
    <g id="ytick_9">
     <g id="line2d_14">
      <g>
       <use style="stroke:#000000;stroke-width:0.8;" x="54" xlink:href="#m7c9af7eea0" y="51.379161"/>
      </g>
     </g>
     <g id="text_15">
      <!-- 80 -->
      <g transform="translate(34.275 55.17838)scale(0.1 -0.1)">
       <use xlink:href="#DejaVuSans-56"/>
       <use x="63.623047" xlink:href="#DejaVuSans-48"/>
      </g>
     </g>
    </g>
    <g id="text_16">
     <!-- Best function evaluation -->
     <g transform="translate(19.815625 204.253438)rotate(-90)scale(0.1 -0.1)">
      <defs>
       <path d="M 19.671875 34.8125 
L 19.671875 8.109375 
L 35.5 8.109375 
Q 43.453125 8.109375 47.28125 11.40625 
Q 51.125 14.703125 51.125 21.484375 
Q 51.125 28.328125 47.28125 31.5625 
Q 43.453125 34.8125 35.5 34.8125 
z
M 19.671875 64.796875 
L 19.671875 42.828125 
L 34.28125 42.828125 
Q 41.5 42.828125 45.03125 45.53125 
Q 48.578125 48.25 48.578125 53.8125 
Q 48.578125 59.328125 45.03125 62.0625 
Q 41.5 64.796875 34.28125 64.796875 
z
M 9.8125 72.90625 
L 35.015625 72.90625 
Q 46.296875 72.90625 52.390625 68.21875 
Q 58.5 63.53125 58.5 54.890625 
Q 58.5 48.1875 55.375 44.234375 
Q 52.25 40.28125 46.1875 39.3125 
Q 53.46875 37.75 57.5 32.78125 
Q 61.53125 27.828125 61.53125 20.40625 
Q 61.53125 10.640625 54.890625 5.3125 
Q 48.25 0 35.984375 0 
L 9.8125 0 
z
" id="DejaVuSans-66"/>
      </defs>
      <use xlink:href="#DejaVuSans-66"/>
      <use x="68.603516" xlink:href="#DejaVuSans-101"/>
      <use x="130.126953" xlink:href="#DejaVuSans-115"/>
      <use x="182.226562" xlink:href="#DejaVuSans-116"/>
      <use x="221.435547" xlink:href="#DejaVuSans-32"/>
      <use x="253.222656" xlink:href="#DejaVuSans-102"/>
      <use x="288.427734" xlink:href="#DejaVuSans-117"/>
      <use x="351.806641" xlink:href="#DejaVuSans-110"/>
      <use x="415.185547" xlink:href="#DejaVuSans-99"/>
      <use x="470.166016" xlink:href="#DejaVuSans-116"/>
      <use x="509.375" xlink:href="#DejaVuSans-105"/>
      <use x="537.158203" xlink:href="#DejaVuSans-111"/>
      <use x="598.339844" xlink:href="#DejaVuSans-110"/>
      <use x="661.71875" xlink:href="#DejaVuSans-32"/>
      <use x="693.505859" xlink:href="#DejaVuSans-101"/>
      <use x="755.029297" xlink:href="#DejaVuSans-118"/>
      <use x="814.208984" xlink:href="#DejaVuSans-97"/>
      <use x="875.488281" xlink:href="#DejaVuSans-108"/>
      <use x="903.271484" xlink:href="#DejaVuSans-117"/>
      <use x="966.650391" xlink:href="#DejaVuSans-97"/>
      <use x="1027.929688" xlink:href="#DejaVuSans-116"/>
      <use x="1067.138672" xlink:href="#DejaVuSans-105"/>
      <use x="1094.921875" xlink:href="#DejaVuSans-111"/>
      <use x="1156.103516" xlink:href="#DejaVuSans-110"/>
     </g>
    </g>
   </g>
   <g id="line2d_15">
    <path clip-path="url(#pe76fc54793)" d="M 57.381818 69.001982 
L 74.290909 69.001982 
L 74.290909 69.221708 
L 84.436364 69.221708 
L 84.436364 69.435001 
L 94.581818 69.435001 
L 94.581818 69.947867 
L 104.727273 69.947867 
L 104.727273 71.702978 
L 114.872727 71.702978 
L 114.872727 73.970613 
L 125.018182 73.970613 
L 125.018182 74.499671 
L 145.309091 74.499671 
L 145.309091 75.143204 
L 155.454545 75.143204 
L 155.454545 78.149925 
L 165.6 78.149925 
L 165.6 79.083249 
L 175.745455 79.083249 
L 175.745455 79.755926 
L 185.890909 79.755926 
L 185.890909 80.060019 
L 196.036364 80.060019 
L 196.036364 80.313851 
L 206.181818 80.313851 
L 206.181818 81.72712 
L 216.327273 81.72712 
L 216.327273 84.045461 
L 226.472727 84.045461 
L 226.472727 86.618553 
L 236.618182 86.618553 
L 236.618182 87.313072 
L 246.763636 87.313072 
L 246.763636 87.993045 
L 267.054545 87.993045 
L 267.054545 89.119919 
L 277.2 89.119919 
L 277.2 92.101258 
L 287.345455 92.101258 
L 287.345455 92.883502 
L 297.490909 92.883502 
L 297.490909 93.246593 
L 307.636364 93.246593 
L 307.636364 94.437944 
L 338.072727 94.437944 
L 338.072727 94.928299 
L 392.181818 94.999451 
L 392.181818 94.999451 
" style="fill:none;stroke:#a52a2a;stroke-linecap:square;stroke-width:1.5;"/>
   </g>
   <g id="line2d_16">
    <path clip-path="url(#pe76fc54793)" d="M 57.381818 107.929904 
L 74.290909 107.929904 
L 74.290909 116.680332 
L 77.672727 116.680332 
L 77.672727 169.589294 
L 84.436364 169.589294 
L 84.436364 194.782172 
L 91.2 194.782172 
L 91.2 201.786769 
L 97.963636 201.786769 
L 97.963636 206.561113 
L 101.345455 206.561113 
L 101.345455 211.501765 
L 104.727273 211.501765 
L 104.727273 211.678077 
L 114.872727 211.725957 
L 114.872727 219.995498 
L 118.254545 219.995498 
L 118.254545 224.826493 
L 125.018182 224.826493 
L 125.018182 225.051299 
L 128.4 225.051299 
L 128.4 229.682987 
L 135.163636 229.682987 
L 135.163636 236.528147 
L 152.072727 236.621499 
L 152.072727 237.275547 
L 155.454545 237.275547 
L 155.454545 239.006157 
L 162.218182 239.006157 
L 162.218182 239.159889 
L 168.981818 239.159889 
L 168.981818 240.132033 
L 175.745455 240.132033 
L 175.745455 240.304442 
L 199.418182 240.40307 
L 199.418182 240.52557 
L 206.181818 240.52557 
L 206.181818 240.84945 
L 209.563636 240.84945 
L 209.563636 241.081477 
L 226.472727 241.08616 
L 226.472727 241.194359 
L 260.290909 241.194359 
L 260.290909 241.32135 
L 280.581818 241.325224 
L 280.581818 241.488808 
L 361.745455 241.568095 
L 361.745455 241.609497 
L 392.181818 241.609497 
L 392.181818 241.609497 
" style="fill:none;stroke:#008000;stroke-linecap:square;stroke-width:1.5;"/>
   </g>
   <g id="line2d_17">
    <path clip-path="url(#pe76fc54793)" d="M 57.381818 68.705567 
L 81.054545 68.705567 
L 81.054545 69.007807 
L 118.254545 69.10031 
L 118.254545 69.232116 
L 172.363636 69.329298 
L 172.363636 69.344356 
L 344.836364 69.44312 
L 344.836364 69.498719 
L 392.181818 69.498719 
L 392.181818 69.498719 
" style="fill:none;stroke:#808080;stroke-linecap:square;stroke-width:1.5;"/>
   </g>
   <g id="line2d_18">
    <path clip-path="url(#pe76fc54793)" d="M 57.381818 68.985919 
L 74.290909 68.985919 
L 74.290909 105.817652 
L 84.436364 105.817652 
L 84.436364 106.104827 
L 97.963636 106.104827 
L 97.963636 123.179108 
L 101.345455 123.179108 
L 101.345455 138.527205 
L 125.018182 138.527205 
L 125.018182 143.375951 
L 145.309091 143.375951 
L 145.309091 150.854296 
L 152.072727 150.854296 
L 152.072727 153.185007 
L 168.981818 153.185007 
L 168.981818 163.458713 
L 172.363636 163.458713 
L 172.363636 166.860651 
L 179.127273 166.860651 
L 179.127273 170.590481 
L 189.272727 170.590481 
L 189.272727 180.731134 
L 199.418182 180.731134 
L 199.418182 190.949092 
L 202.8 190.949092 
L 202.8 192.290848 
L 212.945455 192.290848 
L 212.945455 193.210272 
L 219.709091 193.307077 
L 219.709091 194.676181 
L 226.472727 194.676181 
L 226.472727 196.398548 
L 240 196.398548 
L 240 196.778668 
L 243.381818 196.778668 
L 243.381818 197.134471 
L 250.145455 197.134471 
L 250.145455 206.270572 
L 253.527273 206.270572 
L 253.527273 208.929265 
L 263.672727 208.929265 
L 263.672727 213.299746 
L 273.818182 213.299746 
L 273.818182 216.421335 
L 277.2 216.421335 
L 277.2 220.261417 
L 283.963636 220.261417 
L 283.963636 223.91609 
L 287.345455 223.91609 
L 287.345455 224.139993 
L 311.018182 224.139993 
L 311.018182 228.2683 
L 344.836364 228.2683 
L 344.836364 229.550802 
L 348.218182 229.550802 
L 348.218182 229.661974 
L 354.981818 229.661974 
L 354.981818 231.357086 
L 365.127273 231.357086 
L 365.127273 231.782825 
L 371.890909 231.782825 
L 371.890909 232.210597 
L 375.272727 232.210597 
L 375.272727 232.560093 
L 385.418182 232.560093 
L 385.418182 233.300434 
L 392.181818 233.300434 
L 392.181818 233.956619 
L 392.181818 233.956619 
" style="fill:none;stroke:#0000ff;stroke-linecap:square;stroke-width:1.5;"/>
   </g>
   <g id="line2d_19">
    <path clip-path="url(#pe76fc54793)" d="M 57.381818 209.028862 
L 74.290909 209.028862 
L 74.290909 209.383128 
L 101.345455 209.383128 
L 101.345455 219.42294 
L 108.109091 219.42294 
L 108.109091 228.36147 
L 128.4 228.36147 
L 128.4 228.715224 
L 141.927273 228.715224 
L 141.927273 230.601225 
L 145.309091 230.601225 
L 145.309091 232.024146 
L 162.218182 232.024146 
L 162.218182 232.231176 
L 209.563636 232.305125 
L 209.563636 232.369166 
L 243.381818 232.369166 
L 243.381818 232.52459 
L 273.818182 232.624276 
L 273.818182 232.66676 
L 300.872727 232.66676 
L 300.872727 232.786644 
L 331.309091 232.881316 
L 331.309091 232.968651 
L 351.6 232.968651 
L 351.6 233.082177 
L 361.745455 233.082177 
L 361.745455 233.195691 
L 392.181818 233.195691 
L 392.181818 233.195691 
" style="fill:none;stroke:#ee82ee;stroke-linecap:square;stroke-width:1.5;"/>
   </g>
   <g id="patch_3">
    <path d="M 54 252 
L 54 34.56 
" style="fill:none;stroke:#000000;stroke-linecap:square;stroke-linejoin:miter;stroke-width:0.8;"/>
   </g>
   <g id="patch_4">
    <path d="M 388.8 252 
L 388.8 34.56 
" style="fill:none;stroke:#000000;stroke-linecap:square;stroke-linejoin:miter;stroke-width:0.8;"/>
   </g>
   <g id="patch_5">
    <path d="M 54 252 
L 388.8 252 
" style="fill:none;stroke:#000000;stroke-linecap:square;stroke-linejoin:miter;stroke-width:0.8;"/>
   </g>
   <g id="patch_6">
    <path d="M 54 34.56 
L 388.8 34.56 
" style="fill:none;stroke:#000000;stroke-linecap:square;stroke-linejoin:miter;stroke-width:0.8;"/>
   </g>
   <g id="legend_1">
    <g id="patch_7">
     <path d="M 270.10625 181.475313 
L 381.8 181.475313 
Q 383.8 181.475313 383.8 179.475313 
L 383.8 107.084688 
Q 383.8 105.084688 381.8 105.084688 
L 270.10625 105.084688 
Q 268.10625 105.084688 268.10625 107.084688 
L 268.10625 179.475313 
Q 268.10625 181.475313 270.10625 181.475313 
z
" style="fill:#ffffff;opacity:0.8;stroke:#cccccc;stroke-linejoin:miter;"/>
    </g>
    <g id="line2d_20">
     <path d="M 272.10625 113.183125 
L 292.10625 113.183125 
" style="fill:none;stroke:#a52a2a;stroke-linecap:square;stroke-width:1.5;"/>
    </g>
    <g id="line2d_21"/>
    <g id="text_17">
     <!-- Nesterov -->
     <g transform="translate(300.10625 116.683125)scale(0.1 -0.1)">
      <use xlink:href="#DejaVuSans-78"/>
      <use x="74.804688" xlink:href="#DejaVuSans-101"/>
      <use x="136.328125" xlink:href="#DejaVuSans-115"/>
      <use x="188.427734" xlink:href="#DejaVuSans-116"/>
      <use x="227.636719" xlink:href="#DejaVuSans-101"/>
      <use x="289.160156" xlink:href="#DejaVuSans-114"/>
      <use x="328.023438" xlink:href="#DejaVuSans-111"/>
      <use x="389.205078" xlink:href="#DejaVuSans-118"/>
     </g>
    </g>
    <g id="line2d_22">
     <path d="M 272.10625 127.86125 
L 292.10625 127.86125 
" style="fill:none;stroke:#008000;stroke-linecap:square;stroke-width:1.5;"/>
    </g>
    <g id="line2d_23"/>
    <g id="text_18">
     <!-- Simplex -->
     <g transform="translate(300.10625 131.36125)scale(0.1 -0.1)">
      <defs>
       <path d="M 53.515625 70.515625 
L 53.515625 60.890625 
Q 47.90625 63.578125 42.921875 64.890625 
Q 37.9375 66.21875 33.296875 66.21875 
Q 25.25 66.21875 20.875 63.09375 
Q 16.5 59.96875 16.5 54.203125 
Q 16.5 49.359375 19.40625 46.890625 
Q 22.3125 44.4375 30.421875 42.921875 
L 36.375 41.703125 
Q 47.40625 39.59375 52.65625 34.296875 
Q 57.90625 29 57.90625 20.125 
Q 57.90625 9.515625 50.796875 4.046875 
Q 43.703125 -1.421875 29.984375 -1.421875 
Q 24.8125 -1.421875 18.96875 -0.25 
Q 13.140625 0.921875 6.890625 3.21875 
L 6.890625 13.375 
Q 12.890625 10.015625 18.65625 8.296875 
Q 24.421875 6.59375 29.984375 6.59375 
Q 38.421875 6.59375 43.015625 9.90625 
Q 47.609375 13.234375 47.609375 19.390625 
Q 47.609375 24.75 44.3125 27.78125 
Q 41.015625 30.8125 33.5 32.328125 
L 27.484375 33.5 
Q 16.453125 35.6875 11.515625 40.375 
Q 6.59375 45.0625 6.59375 53.421875 
Q 6.59375 63.09375 13.40625 68.65625 
Q 20.21875 74.21875 32.171875 74.21875 
Q 37.3125 74.21875 42.625 73.28125 
Q 47.953125 72.359375 53.515625 70.515625 
z
" id="DejaVuSans-83"/>
       <path d="M 52 44.1875 
Q 55.375 50.25 60.0625 53.125 
Q 64.75 56 71.09375 56 
Q 79.640625 56 84.28125 50.015625 
Q 88.921875 44.046875 88.921875 33.015625 
L 88.921875 0 
L 79.890625 0 
L 79.890625 32.71875 
Q 79.890625 40.578125 77.09375 44.375 
Q 74.3125 48.1875 68.609375 48.1875 
Q 61.625 48.1875 57.5625 43.546875 
Q 53.515625 38.921875 53.515625 30.90625 
L 53.515625 0 
L 44.484375 0 
L 44.484375 32.71875 
Q 44.484375 40.625 41.703125 44.40625 
Q 38.921875 48.1875 33.109375 48.1875 
Q 26.21875 48.1875 22.15625 43.53125 
Q 18.109375 38.875 18.109375 30.90625 
L 18.109375 0 
L 9.078125 0 
L 9.078125 54.6875 
L 18.109375 54.6875 
L 18.109375 46.1875 
Q 21.1875 51.21875 25.484375 53.609375 
Q 29.78125 56 35.6875 56 
Q 41.65625 56 45.828125 52.96875 
Q 50 49.953125 52 44.1875 
z
" id="DejaVuSans-109"/>
       <path d="M 18.109375 8.203125 
L 18.109375 -20.796875 
L 9.078125 -20.796875 
L 9.078125 54.6875 
L 18.109375 54.6875 
L 18.109375 46.390625 
Q 20.953125 51.265625 25.265625 53.625 
Q 29.59375 56 35.59375 56 
Q 45.5625 56 51.78125 48.09375 
Q 58.015625 40.1875 58.015625 27.296875 
Q 58.015625 14.40625 51.78125 6.484375 
Q 45.5625 -1.421875 35.59375 -1.421875 
Q 29.59375 -1.421875 25.265625 0.953125 
Q 20.953125 3.328125 18.109375 8.203125 
z
M 48.6875 27.296875 
Q 48.6875 37.203125 44.609375 42.84375 
Q 40.53125 48.484375 33.40625 48.484375 
Q 26.265625 48.484375 22.1875 42.84375 
Q 18.109375 37.203125 18.109375 27.296875 
Q 18.109375 17.390625 22.1875 11.75 
Q 26.265625 6.109375 33.40625 6.109375 
Q 40.53125 6.109375 44.609375 11.75 
Q 48.6875 17.390625 48.6875 27.296875 
z
" id="DejaVuSans-112"/>
       <path d="M 54.890625 54.6875 
L 35.109375 28.078125 
L 55.90625 0 
L 45.3125 0 
L 29.390625 21.484375 
L 13.484375 0 
L 2.875 0 
L 24.125 28.609375 
L 4.6875 54.6875 
L 15.28125 54.6875 
L 29.78125 35.203125 
L 44.28125 54.6875 
z
" id="DejaVuSans-120"/>
      </defs>
      <use xlink:href="#DejaVuSans-83"/>
      <use x="63.476562" xlink:href="#DejaVuSans-105"/>
      <use x="91.259766" xlink:href="#DejaVuSans-109"/>
      <use x="188.671875" xlink:href="#DejaVuSans-112"/>
      <use x="252.148438" xlink:href="#DejaVuSans-108"/>
      <use x="279.931641" xlink:href="#DejaVuSans-101"/>
      <use x="339.705078" xlink:href="#DejaVuSans-120"/>
     </g>
    </g>
    <g id="line2d_24">
     <path d="M 272.10625 142.539375 
L 292.10625 142.539375 
" style="fill:none;stroke:#808080;stroke-linecap:square;stroke-width:1.5;"/>
    </g>
    <g id="line2d_25"/>
    <g id="text_19">
     <!-- Approx. Newton -->
     <g transform="translate(300.10625 146.039375)scale(0.1 -0.1)">
      <defs>
       <path d="M 34.1875 63.1875 
L 20.796875 26.90625 
L 47.609375 26.90625 
z
M 28.609375 72.90625 
L 39.796875 72.90625 
L 67.578125 0 
L 57.328125 0 
L 50.6875 18.703125 
L 17.828125 18.703125 
L 11.1875 0 
L 0.78125 0 
z
" id="DejaVuSans-65"/>
       <path d="M 4.203125 54.6875 
L 13.1875 54.6875 
L 24.421875 12.015625 
L 35.59375 54.6875 
L 46.1875 54.6875 
L 57.421875 12.015625 
L 68.609375 54.6875 
L 77.59375 54.6875 
L 63.28125 0 
L 52.6875 0 
L 40.921875 44.828125 
L 29.109375 0 
L 18.5 0 
z
" id="DejaVuSans-119"/>
      </defs>
      <use xlink:href="#DejaVuSans-65"/>
      <use x="68.408203" xlink:href="#DejaVuSans-112"/>
      <use x="131.884766" xlink:href="#DejaVuSans-112"/>
      <use x="195.361328" xlink:href="#DejaVuSans-114"/>
      <use x="234.224609" xlink:href="#DejaVuSans-111"/>
      <use x="292.28125" xlink:href="#DejaVuSans-120"/>
      <use x="351.460938" xlink:href="#DejaVuSans-46"/>
      <use x="383.248047" xlink:href="#DejaVuSans-32"/>
      <use x="415.035156" xlink:href="#DejaVuSans-78"/>
      <use x="489.839844" xlink:href="#DejaVuSans-101"/>
      <use x="551.363281" xlink:href="#DejaVuSans-119"/>
      <use x="633.150391" xlink:href="#DejaVuSans-116"/>
      <use x="672.359375" xlink:href="#DejaVuSans-111"/>
      <use x="733.541016" xlink:href="#DejaVuSans-110"/>
     </g>
    </g>
    <g id="line2d_26">
     <path d="M 272.10625 157.2175 
L 292.10625 157.2175 
" style="fill:none;stroke:#0000ff;stroke-linecap:square;stroke-width:1.5;"/>
    </g>
    <g id="line2d_27"/>
    <g id="text_20">
     <!-- Adam  -->
     <g transform="translate(300.10625 160.7175)scale(0.1 -0.1)">
      <defs>
       <path d="M 45.40625 46.390625 
L 45.40625 75.984375 
L 54.390625 75.984375 
L 54.390625 0 
L 45.40625 0 
L 45.40625 8.203125 
Q 42.578125 3.328125 38.25 0.953125 
Q 33.9375 -1.421875 27.875 -1.421875 
Q 17.96875 -1.421875 11.734375 6.484375 
Q 5.515625 14.40625 5.515625 27.296875 
Q 5.515625 40.1875 11.734375 48.09375 
Q 17.96875 56 27.875 56 
Q 33.9375 56 38.25 53.625 
Q 42.578125 51.265625 45.40625 46.390625 
z
M 14.796875 27.296875 
Q 14.796875 17.390625 18.875 11.75 
Q 22.953125 6.109375 30.078125 6.109375 
Q 37.203125 6.109375 41.296875 11.75 
Q 45.40625 17.390625 45.40625 27.296875 
Q 45.40625 37.203125 41.296875 42.84375 
Q 37.203125 48.484375 30.078125 48.484375 
Q 22.953125 48.484375 18.875 42.84375 
Q 14.796875 37.203125 14.796875 27.296875 
z
" id="DejaVuSans-100"/>
      </defs>
      <use xlink:href="#DejaVuSans-65"/>
      <use x="66.658203" xlink:href="#DejaVuSans-100"/>
      <use x="130.134766" xlink:href="#DejaVuSans-97"/>
      <use x="191.414062" xlink:href="#DejaVuSans-109"/>
      <use x="288.826172" xlink:href="#DejaVuSans-32"/>
     </g>
    </g>
    <g id="line2d_28">
     <path d="M 272.10625 171.895625 
L 292.10625 171.895625 
" style="fill:none;stroke:#ee82ee;stroke-linecap:square;stroke-width:1.5;"/>
    </g>
    <g id="line2d_29"/>
    <g id="text_21">
     <!-- DIRECT -->
     <g transform="translate(300.10625 175.395625)scale(0.1 -0.1)">
      <defs>
       <path d="M 19.671875 64.796875 
L 19.671875 8.109375 
L 31.59375 8.109375 
Q 46.6875 8.109375 53.6875 14.9375 
Q 60.6875 21.78125 60.6875 36.53125 
Q 60.6875 51.171875 53.6875 57.984375 
Q 46.6875 64.796875 31.59375 64.796875 
z
M 9.8125 72.90625 
L 30.078125 72.90625 
Q 51.265625 72.90625 61.171875 64.09375 
Q 71.09375 55.28125 71.09375 36.53125 
Q 71.09375 17.671875 61.125 8.828125 
Q 51.171875 0 30.078125 0 
L 9.8125 0 
z
" id="DejaVuSans-68"/>
       <path d="M 9.8125 72.90625 
L 19.671875 72.90625 
L 19.671875 0 
L 9.8125 0 
z
" id="DejaVuSans-73"/>
       <path d="M 44.390625 34.1875 
Q 47.5625 33.109375 50.5625 29.59375 
Q 53.5625 26.078125 56.59375 19.921875 
L 66.609375 0 
L 56 0 
L 46.6875 18.703125 
Q 43.0625 26.03125 39.671875 28.421875 
Q 36.28125 30.8125 30.421875 30.8125 
L 19.671875 30.8125 
L 19.671875 0 
L 9.8125 0 
L 9.8125 72.90625 
L 32.078125 72.90625 
Q 44.578125 72.90625 50.734375 67.671875 
Q 56.890625 62.453125 56.890625 51.90625 
Q 56.890625 45.015625 53.6875 40.46875 
Q 50.484375 35.9375 44.390625 34.1875 
z
M 19.671875 64.796875 
L 19.671875 38.921875 
L 32.078125 38.921875 
Q 39.203125 38.921875 42.84375 42.21875 
Q 46.484375 45.515625 46.484375 51.90625 
Q 46.484375 58.296875 42.84375 61.546875 
Q 39.203125 64.796875 32.078125 64.796875 
z
" id="DejaVuSans-82"/>
       <path d="M 9.8125 72.90625 
L 55.90625 72.90625 
L 55.90625 64.59375 
L 19.671875 64.59375 
L 19.671875 43.015625 
L 54.390625 43.015625 
L 54.390625 34.71875 
L 19.671875 34.71875 
L 19.671875 8.296875 
L 56.78125 8.296875 
L 56.78125 0 
L 9.8125 0 
z
" id="DejaVuSans-69"/>
       <path d="M 64.40625 67.28125 
L 64.40625 56.890625 
Q 59.421875 61.53125 53.78125 63.8125 
Q 48.140625 66.109375 41.796875 66.109375 
Q 29.296875 66.109375 22.65625 58.46875 
Q 16.015625 50.828125 16.015625 36.375 
Q 16.015625 21.96875 22.65625 14.328125 
Q 29.296875 6.6875 41.796875 6.6875 
Q 48.140625 6.6875 53.78125 8.984375 
Q 59.421875 11.28125 64.40625 15.921875 
L 64.40625 5.609375 
Q 59.234375 2.09375 53.4375 0.328125 
Q 47.65625 -1.421875 41.21875 -1.421875 
Q 24.65625 -1.421875 15.125 8.703125 
Q 5.609375 18.84375 5.609375 36.375 
Q 5.609375 53.953125 15.125 64.078125 
Q 24.65625 74.21875 41.21875 74.21875 
Q 47.75 74.21875 53.53125 72.484375 
Q 59.328125 70.75 64.40625 67.28125 
z
" id="DejaVuSans-67"/>
       <path d="M -0.296875 72.90625 
L 61.375 72.90625 
L 61.375 64.59375 
L 35.5 64.59375 
L 35.5 0 
L 25.59375 0 
L 25.59375 64.59375 
L -0.296875 64.59375 
z
" id="DejaVuSans-84"/>
      </defs>
      <use xlink:href="#DejaVuSans-68"/>
      <use x="77.001953" xlink:href="#DejaVuSans-73"/>
      <use x="106.494141" xlink:href="#DejaVuSans-82"/>
      <use x="175.976562" xlink:href="#DejaVuSans-69"/>
      <use x="239.160156" xlink:href="#DejaVuSans-67"/>
      <use x="308.984375" xlink:href="#DejaVuSans-84"/>
     </g>
    </g>
   </g>
  </g>
 </g>
 <defs>
  <clipPath id="pe76fc54793">
   <rect height="217.44" width="334.8" x="54" y="34.56"/>
  </clipPath>
 </defs>
</svg>
