<?xml version="1.0" encoding="utf-8" standalone="no"?>
<!DOCTYPE svg PUBLIC "-//W3C//DTD SVG 1.1//EN"
  "http://www.w3.org/Graphics/SVG/1.1/DTD/svg11.dtd">
<!-- Created with matplotlib (https://matplotlib.org/) -->
<svg height="288pt" version="1.1" viewBox="0 0 432 288" width="432pt" xmlns="http://www.w3.org/2000/svg" xmlns:xlink="http://www.w3.org/1999/xlink">
 <metadata>
  <rdf:RDF xmlns:cc="http://creativecommons.org/ns#" xmlns:dc="http://purl.org/dc/elements/1.1/" xmlns:rdf="http://www.w3.org/1999/02/22-rdf-syntax-ns#">
   <cc:Work>
    <dc:type rdf:resource="http://purl.org/dc/dcmitype/StillImage"/>
    <dc:date>2021-04-14T20:02:02.752827</dc:date>
    <dc:format>image/svg+xml</dc:format>
    <dc:creator>
     <cc:Agent>
      <dc:title>Matplotlib v3.3.4, https://matplotlib.org/</dc:title>
     </cc:Agent>
    </dc:creator>
   </cc:Work>
  </rdf:RDF>
 </metadata>
 <defs>
  <style type="text/css">*{stroke-linecap:butt;stroke-linejoin:round;}</style>
 </defs>
 <g id="figure_1">
  <g id="patch_1">
   <path d="M 0 288 
L 432 288 
L 432 0 
L 0 0 
z
" style="fill:#ffffff;"/>
  </g>
  <g id="axes_1">
   <g id="patch_2">
    <path d="M 54 252 
L 388.8 252 
L 388.8 34.56 
L 54 34.56 
z
" style="fill:#ffffff;"/>
   </g>
   <g id="PolyCollection_1">
    <defs>
     <path d="M 57.381818 -220.520163 
L 57.381818 -220.344306 
L 60.763636 -220.344306 
L 64.145455 -220.344306 
L 67.527273 -220.344306 
L 70.909091 -220.344306 
L 74.290909 -217.790179 
L 77.672727 -217.790179 
L 81.054545 -217.790179 
L 84.436364 -214.939912 
L 87.818182 -214.939912 
L 91.2 -214.939912 
L 94.581818 -211.730081 
L 97.963636 -211.730081 
L 101.345455 -211.730081 
L 104.727273 -209.90248 
L 108.109091 -209.90248 
L 111.490909 -209.90248 
L 114.872727 -209.42628 
L 118.254545 -209.42628 
L 121.636364 -209.42628 
L 125.018182 -204.751432 
L 128.4 -204.751432 
L 131.781818 -204.751432 
L 135.163636 -204.601621 
L 138.545455 -204.601621 
L 141.927273 -204.601621 
L 145.309091 -204.594097 
L 148.690909 -204.594097 
L 152.072727 -204.594097 
L 155.454545 -204.542361 
L 158.836364 -204.542361 
L 162.218182 -204.542361 
L 165.6 -204.33016 
L 168.981818 -204.33016 
L 172.363636 -204.33016 
L 175.745455 -204.196691 
L 179.127273 -204.196691 
L 182.509091 -204.196691 
L 185.890909 -202.801457 
L 189.272727 -202.801457 
L 192.654545 -202.801457 
L 196.036364 -198.81002 
L 199.418182 -198.81002 
L 202.8 -198.81002 
L 206.181818 -198.679627 
L 209.563636 -198.679627 
L 212.945455 -198.679627 
L 216.327273 -197.256672 
L 219.709091 -197.256672 
L 223.090909 -197.256672 
L 226.472727 -197.192045 
L 229.854545 -197.192045 
L 233.236364 -197.192045 
L 236.618182 -196.852897 
L 240 -196.852897 
L 243.381818 -196.852897 
L 246.763636 -196.673504 
L 250.145455 -196.673504 
L 253.527273 -196.673504 
L 256.909091 -195.762169 
L 260.290909 -195.762169 
L 263.672727 -195.762169 
L 267.054545 -195.608266 
L 270.436364 -195.608266 
L 273.818182 -195.608266 
L 277.2 -194.254887 
L 280.581818 -194.254887 
L 283.963636 -194.254887 
L 287.345455 -192.040317 
L 290.727273 -192.040317 
L 294.109091 -192.040317 
L 297.490909 -191.786413 
L 300.872727 -191.786413 
L 304.254545 -191.786413 
L 307.636364 -190.341164 
L 311.018182 -190.341164 
L 314.4 -190.341164 
L 317.781818 -188.32398 
L 321.163636 -188.32398 
L 324.545455 -188.32398 
L 327.927273 -186.254927 
L 331.309091 -186.254927 
L 334.690909 -186.254927 
L 338.072727 -186.083154 
L 341.454545 -186.083154 
L 344.836364 -186.083154 
L 348.218182 -184.468798 
L 351.6 -184.468798 
L 354.981818 -184.468798 
L 358.363636 -184.199907 
L 361.745455 -184.199907 
L 365.127273 -184.199907 
L 368.509091 -184.178252 
L 371.890909 -184.178252 
L 375.272727 -184.178252 
L 378.654545 -184.137512 
L 382.036364 -184.137512 
L 385.418182 -184.137512 
L 388.8 -181.932266 
L 392.181818 -181.932266 
L 392.181818 -199.941096 
L 392.181818 -199.941096 
L 388.8 -199.941096 
L 385.418182 -200.00036 
L 382.036364 -200.00036 
L 378.654545 -200.00036 
L 375.272727 -200.261871 
L 371.890909 -200.261871 
L 368.509091 -200.261871 
L 365.127273 -200.536982 
L 361.745455 -200.536982 
L 358.363636 -200.536982 
L 354.981818 -200.756476 
L 351.6 -200.756476 
L 348.218182 -200.756476 
L 344.836364 -201.044775 
L 341.454545 -201.044775 
L 338.072727 -201.044775 
L 334.690909 -202.263848 
L 331.309091 -202.263848 
L 327.927273 -202.263848 
L 324.545455 -203.865755 
L 321.163636 -203.865755 
L 317.781818 -203.865755 
L 314.4 -204.059 
L 311.018182 -204.059 
L 307.636364 -204.059 
L 304.254545 -204.976182 
L 300.872727 -204.976182 
L 297.490909 -204.976182 
L 294.109091 -205.084157 
L 290.727273 -205.084157 
L 287.345455 -205.084157 
L 283.963636 -205.093918 
L 280.581818 -205.093918 
L 277.2 -205.093918 
L 273.818182 -206.17713 
L 270.436364 -206.17713 
L 267.054545 -206.17713 
L 263.672727 -207.333699 
L 260.290909 -207.333699 
L 256.909091 -207.333699 
L 253.527273 -207.927418 
L 250.145455 -207.927418 
L 246.763636 -207.927418 
L 243.381818 -208.342774 
L 240 -208.342774 
L 236.618182 -208.342774 
L 233.236364 -210.884609 
L 229.854545 -210.884609 
L 226.472727 -210.884609 
L 223.090909 -211.608257 
L 219.709091 -211.608257 
L 216.327273 -211.608257 
L 212.945455 -212.624642 
L 209.563636 -212.624642 
L 206.181818 -212.624642 
L 202.8 -212.739144 
L 199.418182 -212.739144 
L 196.036364 -212.739144 
L 192.654545 -214.912671 
L 189.272727 -214.912671 
L 185.890909 -214.912671 
L 182.509091 -215.176861 
L 179.127273 -215.176861 
L 175.745455 -215.176861 
L 172.363636 -215.965807 
L 168.981818 -215.965807 
L 165.6 -215.965807 
L 162.218182 -216.446892 
L 158.836364 -216.446892 
L 155.454545 -216.446892 
L 152.072727 -216.973406 
L 148.690909 -216.973406 
L 145.309091 -216.973406 
L 141.927273 -218.196242 
L 138.545455 -218.196242 
L 135.163636 -218.196242 
L 131.781818 -218.411383 
L 128.4 -218.411383 
L 125.018182 -218.411383 
L 121.636364 -218.737594 
L 118.254545 -218.737594 
L 114.872727 -218.737594 
L 111.490909 -218.941647 
L 108.109091 -218.941647 
L 104.727273 -218.941647 
L 101.345455 -219.369023 
L 97.963636 -219.369023 
L 94.581818 -219.369023 
L 91.2 -220.031628 
L 87.818182 -220.031628 
L 84.436364 -220.031628 
L 81.054545 -220.412047 
L 77.672727 -220.412047 
L 74.290909 -220.412047 
L 70.909091 -220.520163 
L 67.527273 -220.520163 
L 64.145455 -220.520163 
L 60.763636 -220.520163 
L 57.381818 -220.520163 
z
" id="m8566cea70c" style="stroke:#a52a2a;stroke-opacity:0.5;"/>
    </defs>
    <g clip-path="url(#pe18e72c0e4)">
     <use style="fill:#a52a2a;fill-opacity:0.5;stroke:#a52a2a;stroke-opacity:0.5;" x="0" xlink:href="#m8566cea70c" y="288"/>
    </g>
   </g>
   <g id="PolyCollection_2">
    <defs>
     <path d="M 57.381818 -243.556364 
L 57.381818 -109.081201 
L 60.763636 -109.081201 
L 64.145455 -109.081201 
L 67.527273 -109.081201 
L 70.909091 -109.081201 
L 74.290909 -109.081201 
L 77.672727 -94.291468 
L 81.054545 -94.291468 
L 84.436364 -68.352033 
L 87.818182 -68.352033 
L 91.2 -68.352033 
L 94.581818 -68.352033 
L 97.963636 -60.798294 
L 101.345455 -60.798294 
L 104.727273 -60.798294 
L 108.109091 -60.798294 
L 111.490909 -60.798294 
L 114.872727 -60.798294 
L 118.254545 -60.798294 
L 121.636364 -49.129572 
L 125.018182 -49.129572 
L 128.4 -49.129572 
L 131.781818 -47.333036 
L 135.163636 -47.333036 
L 138.545455 -47.333036 
L 141.927273 -47.333036 
L 145.309091 -47.333036 
L 148.690909 -47.333036 
L 152.072727 -45.883636 
L 155.454545 -45.883636 
L 158.836364 -45.883636 
L 162.218182 -45.883636 
L 165.6 -45.883636 
L 168.981818 -45.883636 
L 172.363636 -45.883636 
L 175.745455 -45.883636 
L 179.127273 -45.883636 
L 182.509091 -45.883636 
L 185.890909 -45.883636 
L 189.272727 -45.883636 
L 192.654545 -45.883636 
L 196.036364 -45.883636 
L 199.418182 -45.883636 
L 202.8 -45.883636 
L 206.181818 -45.883636 
L 209.563636 -45.883636 
L 212.945455 -45.883636 
L 216.327273 -45.883636 
L 219.709091 -45.883636 
L 223.090909 -45.883636 
L 226.472727 -45.883636 
L 229.854545 -45.883636 
L 233.236364 -45.883636 
L 236.618182 -45.883636 
L 240 -45.883636 
L 243.381818 -45.883636 
L 246.763636 -45.883636 
L 250.145455 -45.883636 
L 253.527273 -45.883636 
L 256.909091 -45.883636 
L 260.290909 -45.883636 
L 263.672727 -45.883636 
L 267.054545 -45.883636 
L 270.436364 -45.883636 
L 273.818182 -45.883636 
L 277.2 -45.883636 
L 280.581818 -45.883636 
L 283.963636 -45.883636 
L 287.345455 -45.883636 
L 290.727273 -45.883636 
L 294.109091 -45.883636 
L 297.490909 -45.883636 
L 300.872727 -45.883636 
L 304.254545 -45.883636 
L 307.636364 -45.883636 
L 311.018182 -45.883636 
L 314.4 -45.883636 
L 317.781818 -45.883636 
L 321.163636 -45.883636 
L 324.545455 -45.883636 
L 327.927273 -45.883636 
L 331.309091 -45.883636 
L 334.690909 -45.883636 
L 338.072727 -45.883636 
L 341.454545 -45.883636 
L 344.836364 -45.883636 
L 348.218182 -45.883636 
L 351.6 -45.883636 
L 354.981818 -45.883636 
L 358.363636 -45.883636 
L 361.745455 -45.883636 
L 365.127273 -45.883636 
L 368.509091 -45.883636 
L 371.890909 -45.883636 
L 375.272727 -45.883636 
L 378.654545 -45.883636 
L 382.036364 -45.883636 
L 385.418182 -45.883636 
L 388.8 -45.883636 
L 392.181818 -45.883636 
L 392.181818 -140.792958 
L 392.181818 -140.792958 
L 388.8 -140.792958 
L 385.418182 -140.792958 
L 382.036364 -140.792958 
L 378.654545 -140.792958 
L 375.272727 -140.792958 
L 371.890909 -140.792958 
L 368.509091 -140.792958 
L 365.127273 -140.792958 
L 361.745455 -140.792958 
L 358.363636 -140.792958 
L 354.981818 -140.792958 
L 351.6 -140.792958 
L 348.218182 -140.792958 
L 344.836364 -140.792958 
L 341.454545 -140.792958 
L 338.072727 -140.792958 
L 334.690909 -140.792958 
L 331.309091 -140.792958 
L 327.927273 -140.792958 
L 324.545455 -140.792958 
L 321.163636 -140.792958 
L 317.781818 -140.792958 
L 314.4 -140.792958 
L 311.018182 -140.792958 
L 307.636364 -140.792958 
L 304.254545 -140.792958 
L 300.872727 -140.792958 
L 297.490909 -140.792958 
L 294.109091 -140.792958 
L 290.727273 -140.792958 
L 287.345455 -140.792958 
L 283.963636 -140.792958 
L 280.581818 -140.792958 
L 277.2 -140.792958 
L 273.818182 -140.792958 
L 270.436364 -140.792958 
L 267.054545 -140.792958 
L 263.672727 -140.792958 
L 260.290909 -140.792958 
L 256.909091 -140.792958 
L 253.527273 -140.792958 
L 250.145455 -140.792958 
L 246.763636 -140.792958 
L 243.381818 -140.792958 
L 240 -140.792958 
L 236.618182 -140.792958 
L 233.236364 -140.792958 
L 229.854545 -140.792958 
L 226.472727 -140.792958 
L 223.090909 -140.792958 
L 219.709091 -140.792958 
L 216.327273 -140.792958 
L 212.945455 -140.792958 
L 209.563636 -140.792958 
L 206.181818 -140.792958 
L 202.8 -140.792958 
L 199.418182 -140.792958 
L 196.036364 -140.792958 
L 192.654545 -140.792958 
L 189.272727 -140.792958 
L 185.890909 -140.792958 
L 182.509091 -140.792958 
L 179.127273 -140.792958 
L 175.745455 -140.792958 
L 172.363636 -140.792958 
L 168.981818 -140.792958 
L 165.6 -140.792958 
L 162.218182 -140.792958 
L 158.836364 -140.792958 
L 155.454545 -140.792958 
L 152.072727 -140.792958 
L 148.690909 -140.792958 
L 145.309091 -140.792958 
L 141.927273 -140.792958 
L 138.545455 -140.792958 
L 135.163636 -140.792958 
L 131.781818 -140.792958 
L 128.4 -140.792958 
L 125.018182 -140.792958 
L 121.636364 -140.792958 
L 118.254545 -140.792958 
L 114.872727 -140.792958 
L 111.490909 -140.792958 
L 108.109091 -140.792958 
L 104.727273 -140.792958 
L 101.345455 -140.792958 
L 97.963636 -140.792958 
L 94.581818 -156.19646 
L 91.2 -161.475113 
L 87.818182 -161.475113 
L 84.436364 -161.475113 
L 81.054545 -186.236547 
L 77.672727 -186.236547 
L 74.290909 -243.556364 
L 70.909091 -243.556364 
L 67.527273 -243.556364 
L 64.145455 -243.556364 
L 60.763636 -243.556364 
L 57.381818 -243.556364 
z
" id="m0de0f8f639" style="stroke:#008000;stroke-opacity:0.5;"/>
    </defs>
    <g clip-path="url(#pe18e72c0e4)">
     <use style="fill:#008000;fill-opacity:0.5;stroke:#008000;stroke-opacity:0.5;" x="0" xlink:href="#m0de0f8f639" y="288"/>
    </g>
   </g>
   <g id="PolyCollection_3">
    <defs>
     <path d="M 57.381818 -88.33598 
L 57.381818 -88.33598 
L 60.763636 -88.33598 
L 64.145455 -88.33598 
L 67.527273 -88.33598 
L 70.909091 -88.33598 
L 74.290909 -70.195148 
L 77.672727 -70.195148 
L 81.054545 -70.195148 
L 84.436364 -70.195148 
L 87.818182 -70.195148 
L 91.2 -70.195148 
L 94.581818 -70.195148 
L 97.963636 -70.195148 
L 101.345455 -70.195148 
L 104.727273 -70.195148 
L 108.109091 -70.195148 
L 111.490909 -70.195148 
L 114.872727 -69.729526 
L 118.254545 -69.729526 
L 121.636364 -69.729526 
L 125.018182 -69.729526 
L 128.4 -66.517032 
L 131.781818 -66.517032 
L 135.163636 -66.517032 
L 138.545455 -66.517032 
L 141.927273 -66.517032 
L 145.309091 -66.517032 
L 148.690909 -66.517032 
L 152.072727 -66.517032 
L 155.454545 -66.517032 
L 158.836364 -66.517032 
L 162.218182 -66.517032 
L 165.6 -66.517032 
L 168.981818 -66.517032 
L 172.363636 -66.517032 
L 175.745455 -66.517032 
L 179.127273 -66.517032 
L 182.509091 -66.517032 
L 185.890909 -66.517032 
L 189.272727 -66.517032 
L 192.654545 -66.517032 
L 196.036364 -65.354526 
L 199.418182 -65.354526 
L 202.8 -65.354526 
L 206.181818 -65.354526 
L 209.563636 -65.354526 
L 212.945455 -65.354526 
L 216.327273 -65.354526 
L 219.709091 -65.354526 
L 223.090909 -64.809803 
L 226.472727 -64.809803 
L 229.854545 -64.809803 
L 233.236364 -64.809803 
L 236.618182 -64.809803 
L 240 -64.809803 
L 243.381818 -64.809803 
L 246.763636 -64.809803 
L 250.145455 -64.809803 
L 253.527273 -64.809803 
L 256.909091 -64.809803 
L 260.290909 -64.809803 
L 263.672727 -64.809803 
L 267.054545 -64.809803 
L 270.436364 -64.809803 
L 273.818182 -64.809803 
L 277.2 -64.809803 
L 280.581818 -64.809803 
L 283.963636 -64.809803 
L 287.345455 -64.809803 
L 290.727273 -64.809803 
L 294.109091 -64.809803 
L 297.490909 -64.809803 
L 300.872727 -64.809803 
L 304.254545 -64.809803 
L 307.636364 -64.809803 
L 311.018182 -64.809803 
L 314.4 -64.809803 
L 317.781818 -64.809803 
L 321.163636 -64.809803 
L 324.545455 -64.809803 
L 327.927273 -64.809803 
L 331.309091 -64.809803 
L 334.690909 -64.809803 
L 338.072727 -64.809803 
L 341.454545 -64.809803 
L 344.836364 -64.809803 
L 348.218182 -64.809803 
L 351.6 -64.809803 
L 354.981818 -64.809803 
L 358.363636 -64.809803 
L 361.745455 -64.809803 
L 365.127273 -64.809803 
L 368.509091 -64.809803 
L 371.890909 -64.809803 
L 375.272727 -64.809803 
L 378.654545 -64.809803 
L 382.036364 -64.809803 
L 385.418182 -64.809803 
L 388.8 -64.809803 
L 392.181818 -64.809803 
L 392.181818 -64.809803 
L 392.181818 -64.809803 
L 388.8 -64.809803 
L 385.418182 -64.809803 
L 382.036364 -64.809803 
L 378.654545 -64.809803 
L 375.272727 -64.809803 
L 371.890909 -64.809803 
L 368.509091 -64.809803 
L 365.127273 -64.809803 
L 361.745455 -64.809803 
L 358.363636 -64.809803 
L 354.981818 -64.809803 
L 351.6 -64.809803 
L 348.218182 -64.809803 
L 344.836364 -64.809803 
L 341.454545 -64.809803 
L 338.072727 -64.809803 
L 334.690909 -64.809803 
L 331.309091 -64.809803 
L 327.927273 -64.809803 
L 324.545455 -64.809803 
L 321.163636 -64.809803 
L 317.781818 -64.809803 
L 314.4 -64.809803 
L 311.018182 -64.809803 
L 307.636364 -64.809803 
L 304.254545 -64.809803 
L 300.872727 -65.354526 
L 297.490909 -65.354526 
L 294.109091 -65.354526 
L 290.727273 -65.354526 
L 287.345455 -65.354526 
L 283.963636 -65.354526 
L 280.581818 -65.354526 
L 277.2 -65.354526 
L 273.818182 -65.354526 
L 270.436364 -65.354526 
L 267.054545 -65.354526 
L 263.672727 -65.354526 
L 260.290909 -65.354526 
L 256.909091 -65.354526 
L 253.527273 -65.354526 
L 250.145455 -65.354526 
L 246.763636 -65.354526 
L 243.381818 -65.354526 
L 240 -65.354526 
L 236.618182 -65.354526 
L 233.236364 -65.408225 
L 229.854545 -65.408225 
L 226.472727 -65.408225 
L 223.090909 -65.408225 
L 219.709091 -65.408225 
L 216.327273 -65.408225 
L 212.945455 -65.408225 
L 209.563636 -66.517032 
L 206.181818 -66.517032 
L 202.8 -66.517032 
L 199.418182 -66.517032 
L 196.036364 -66.517032 
L 192.654545 -66.517032 
L 189.272727 -66.517032 
L 185.890909 -66.517032 
L 182.509091 -66.517032 
L 179.127273 -66.517032 
L 175.745455 -66.517032 
L 172.363636 -66.517032 
L 168.981818 -66.517032 
L 165.6 -66.517032 
L 162.218182 -66.517032 
L 158.836364 -66.716653 
L 155.454545 -66.716653 
L 152.072727 -66.716653 
L 148.690909 -66.716653 
L 145.309091 -66.716653 
L 141.927273 -70.195148 
L 138.545455 -70.195148 
L 135.163636 -70.195148 
L 131.781818 -70.195148 
L 128.4 -70.195148 
L 125.018182 -70.195148 
L 121.636364 -70.195148 
L 118.254545 -70.195148 
L 114.872727 -70.195148 
L 111.490909 -70.195148 
L 108.109091 -70.195148 
L 104.727273 -80.143986 
L 101.345455 -88.33598 
L 97.963636 -88.33598 
L 94.581818 -88.33598 
L 91.2 -88.33598 
L 87.818182 -88.33598 
L 84.436364 -88.33598 
L 81.054545 -88.33598 
L 77.672727 -88.33598 
L 74.290909 -88.33598 
L 70.909091 -88.33598 
L 67.527273 -88.33598 
L 64.145455 -88.33598 
L 60.763636 -88.33598 
L 57.381818 -88.33598 
z
" id="m6623bfe4d5" style="stroke:#ee82ee;stroke-opacity:0.5;"/>
    </defs>
    <g clip-path="url(#pe18e72c0e4)">
     <use style="fill:#ee82ee;fill-opacity:0.5;stroke:#ee82ee;stroke-opacity:0.5;" x="0" xlink:href="#m6623bfe4d5" y="288"/>
    </g>
   </g>
   <g id="matplotlib.axis_1">
    <g id="xtick_1">
     <g id="line2d_1">
      <defs>
       <path d="M 0 0 
L 0 3.5 
" id="mcba9f1f948" style="stroke:#000000;stroke-width:0.8;"/>
      </defs>
      <g>
       <use style="stroke:#000000;stroke-width:0.8;" x="54" xlink:href="#mcba9f1f948" y="252"/>
      </g>
     </g>
     <g id="text_1">
      <!-- 0 -->
      <g transform="translate(50.25 269.415625)scale(0.15 -0.15)">
       <defs>
        <path d="M 3.609375 32.71875 
Q 3.609375 44.046875 7.03125 52.21875 
Q 10.453125 60.40625 16.109375 64.40625 
Q 20.515625 67.578125 25.203125 67.578125 
Q 32.8125 67.578125 38.875 59.8125 
Q 46.4375 50.203125 46.4375 33.734375 
Q 46.4375 22.21875 43.109375 14.15625 
Q 39.796875 6.109375 34.640625 2.46875 
Q 29.5 -1.171875 24.703125 -1.171875 
Q 15.234375 -1.171875 8.9375 10.015625 
Q 3.609375 19.4375 3.609375 32.71875 
z
M 13.1875 31.5 
Q 13.1875 17.828125 16.546875 9.1875 
Q 19.34375 1.90625 24.859375 1.90625 
Q 27.484375 1.90625 30.3125 4.265625 
Q 33.15625 6.640625 34.625 12.203125 
Q 36.859375 20.609375 36.859375 35.890625 
Q 36.859375 47.21875 34.515625 54.78125 
Q 32.765625 60.40625 29.984375 62.75 
Q 27.984375 64.359375 25.140625 64.359375 
Q 21.828125 64.359375 19.234375 61.375 
Q 15.71875 57.328125 14.453125 48.625 
Q 13.1875 39.9375 13.1875 31.5 
z
" id="TimesNewRomanPSMT-48"/>
       </defs>
       <use xlink:href="#TimesNewRomanPSMT-48"/>
      </g>
     </g>
    </g>
    <g id="xtick_2">
     <g id="line2d_2">
      <g>
       <use style="stroke:#000000;stroke-width:0.8;" x="121.636364" xlink:href="#mcba9f1f948" y="252"/>
      </g>
     </g>
     <g id="text_2">
      <!-- 20 -->
      <g transform="translate(114.136364 269.415625)scale(0.15 -0.15)">
       <defs>
        <path d="M 45.84375 12.75 
L 41.21875 0 
L 2.15625 0 
L 2.15625 1.8125 
Q 19.390625 17.53125 26.421875 27.484375 
Q 33.453125 37.453125 33.453125 45.703125 
Q 33.453125 52 29.59375 56.046875 
Q 25.734375 60.109375 20.359375 60.109375 
Q 15.484375 60.109375 11.59375 57.25 
Q 7.71875 54.390625 5.859375 48.875 
L 4.046875 48.875 
Q 5.28125 57.90625 10.328125 62.734375 
Q 15.375 67.578125 22.953125 67.578125 
Q 31 67.578125 36.390625 62.40625 
Q 41.796875 57.234375 41.796875 50.203125 
Q 41.796875 45.171875 39.453125 40.140625 
Q 35.84375 32.234375 27.734375 23.390625 
Q 15.578125 10.109375 12.546875 7.375 
L 29.828125 7.375 
Q 35.109375 7.375 37.234375 7.765625 
Q 39.359375 8.15625 41.0625 9.34375 
Q 42.78125 10.546875 44.046875 12.75 
z
" id="TimesNewRomanPSMT-50"/>
       </defs>
       <use xlink:href="#TimesNewRomanPSMT-50"/>
       <use x="50" xlink:href="#TimesNewRomanPSMT-48"/>
      </g>
     </g>
    </g>
    <g id="xtick_3">
     <g id="line2d_3">
      <g>
       <use style="stroke:#000000;stroke-width:0.8;" x="189.272727" xlink:href="#mcba9f1f948" y="252"/>
      </g>
     </g>
     <g id="text_3">
      <!-- 40 -->
      <g transform="translate(181.772727 269.415625)scale(0.15 -0.15)">
       <defs>
        <path d="M 46.53125 24.421875 
L 46.53125 17.484375 
L 37.640625 17.484375 
L 37.640625 0 
L 29.59375 0 
L 29.59375 17.484375 
L 1.5625 17.484375 
L 1.5625 23.734375 
L 32.28125 67.578125 
L 37.640625 67.578125 
L 37.640625 24.421875 
z
M 29.59375 24.421875 
L 29.59375 57.28125 
L 6.34375 24.421875 
z
" id="TimesNewRomanPSMT-52"/>
       </defs>
       <use xlink:href="#TimesNewRomanPSMT-52"/>
       <use x="50" xlink:href="#TimesNewRomanPSMT-48"/>
      </g>
     </g>
    </g>
    <g id="xtick_4">
     <g id="line2d_4">
      <g>
       <use style="stroke:#000000;stroke-width:0.8;" x="256.909091" xlink:href="#mcba9f1f948" y="252"/>
      </g>
     </g>
     <g id="text_4">
      <!-- 60 -->
      <g transform="translate(249.409091 269.415625)scale(0.15 -0.15)">
       <defs>
        <path d="M 44.828125 67.578125 
L 44.828125 65.765625 
Q 38.375 65.140625 34.296875 63.203125 
Q 30.21875 61.28125 26.234375 57.328125 
Q 22.265625 53.375 19.65625 48.515625 
Q 17.046875 43.65625 15.28125 36.96875 
Q 22.3125 41.796875 29.390625 41.796875 
Q 36.1875 41.796875 41.15625 36.328125 
Q 46.140625 30.859375 46.140625 22.265625 
Q 46.140625 13.96875 41.109375 7.125 
Q 35.0625 -1.171875 25.09375 -1.171875 
Q 18.3125 -1.171875 13.578125 3.328125 
Q 4.296875 12.0625 4.296875 25.984375 
Q 4.296875 34.859375 7.859375 42.859375 
Q 11.421875 50.875 18.03125 57.078125 
Q 24.65625 63.28125 30.703125 65.421875 
Q 36.765625 67.578125 42 67.578125 
z
M 14.453125 33.40625 
Q 13.578125 26.8125 13.578125 22.75 
Q 13.578125 18.0625 15.3125 12.5625 
Q 17.046875 7.078125 20.453125 3.859375 
Q 22.953125 1.5625 26.515625 1.5625 
Q 30.765625 1.5625 34.109375 5.5625 
Q 37.453125 9.578125 37.453125 17 
Q 37.453125 25.34375 34.125 31.4375 
Q 30.8125 37.546875 24.703125 37.546875 
Q 22.859375 37.546875 20.734375 36.765625 
Q 18.609375 35.984375 14.453125 33.40625 
z
" id="TimesNewRomanPSMT-54"/>
       </defs>
       <use xlink:href="#TimesNewRomanPSMT-54"/>
       <use x="50" xlink:href="#TimesNewRomanPSMT-48"/>
      </g>
     </g>
    </g>
    <g id="xtick_5">
     <g id="line2d_5">
      <g>
       <use style="stroke:#000000;stroke-width:0.8;" x="324.545455" xlink:href="#mcba9f1f948" y="252"/>
      </g>
     </g>
     <g id="text_5">
      <!-- 80 -->
      <g transform="translate(317.045455 269.415625)scale(0.15 -0.15)">
       <defs>
        <path d="M 19.1875 33.34375 
Q 11.328125 39.796875 9.046875 43.703125 
Q 6.78125 47.609375 6.78125 51.8125 
Q 6.78125 58.25 11.765625 62.90625 
Q 16.75 67.578125 25 67.578125 
Q 33.015625 67.578125 37.890625 63.234375 
Q 42.78125 58.890625 42.78125 53.328125 
Q 42.78125 49.609375 40.140625 45.75 
Q 37.5 41.890625 29.15625 36.671875 
Q 37.75 30.03125 40.53125 26.21875 
Q 44.234375 21.234375 44.234375 15.71875 
Q 44.234375 8.734375 38.90625 3.78125 
Q 33.59375 -1.171875 24.953125 -1.171875 
Q 15.53125 -1.171875 10.25 4.734375 
Q 6.0625 9.46875 6.0625 15.09375 
Q 6.0625 19.484375 9.015625 23.796875 
Q 11.96875 28.125 19.1875 33.34375 
z
M 26.859375 38.578125 
Q 32.71875 43.84375 34.28125 46.890625 
Q 35.84375 49.953125 35.84375 53.8125 
Q 35.84375 58.9375 32.953125 61.84375 
Q 30.078125 64.75 25.09375 64.75 
Q 20.125 64.75 17 61.859375 
Q 13.875 58.984375 13.875 55.125 
Q 13.875 52.59375 15.15625 50.046875 
Q 16.453125 47.515625 18.84375 45.21875 
z
M 21.484375 31.5 
Q 17.4375 28.078125 15.484375 24.046875 
Q 13.53125 20.015625 13.53125 15.328125 
Q 13.53125 9.03125 16.96875 5.25 
Q 20.40625 1.46875 25.734375 1.46875 
Q 31 1.46875 34.171875 4.4375 
Q 37.359375 7.421875 37.359375 11.671875 
Q 37.359375 15.1875 35.5 17.96875 
Q 32.03125 23.140625 21.484375 31.5 
z
" id="TimesNewRomanPSMT-56"/>
       </defs>
       <use xlink:href="#TimesNewRomanPSMT-56"/>
       <use x="50" xlink:href="#TimesNewRomanPSMT-48"/>
      </g>
     </g>
    </g>
    <g id="text_6">
     <!-- Nbr. of function evaluations -->
     <g transform="translate(137.25 287.039844)scale(0.15 -0.15)">
      <defs>
       <path d="M -1.3125 66.21875 
L 16.65625 66.21875 
L 57.125 16.546875 
L 57.125 54.734375 
Q 57.125 60.84375 55.765625 62.359375 
Q 53.953125 64.40625 50.046875 64.40625 
L 47.75 64.40625 
L 47.75 66.21875 
L 70.796875 66.21875 
L 70.796875 64.40625 
L 68.453125 64.40625 
Q 64.265625 64.40625 62.5 61.859375 
Q 61.421875 60.296875 61.421875 54.734375 
L 61.421875 -1.078125 
L 59.671875 -1.078125 
L 16.015625 52.25 
L 16.015625 11.46875 
Q 16.015625 5.375 17.328125 3.859375 
Q 19.1875 1.8125 23.046875 1.8125 
L 25.390625 1.8125 
L 25.390625 0 
L 2.34375 0 
L 2.34375 1.8125 
L 4.640625 1.8125 
Q 8.890625 1.8125 10.640625 4.34375 
Q 11.71875 5.90625 11.71875 11.46875 
L 11.71875 57.515625 
Q 8.84375 60.890625 7.34375 61.953125 
Q 5.859375 63.03125 2.984375 63.96875 
Q 1.5625 64.40625 -1.3125 64.40625 
z
" id="TimesNewRomanPSMT-78"/>
       <path d="M 15.375 37.015625 
Q 21.875 46.046875 29.390625 46.046875 
Q 36.28125 46.046875 41.40625 40.15625 
Q 46.53125 34.28125 46.53125 24.078125 
Q 46.53125 12.15625 38.625 4.890625 
Q 31.84375 -1.375 23.484375 -1.375 
Q 19.578125 -1.375 15.546875 0.046875 
Q 11.53125 1.46875 7.328125 4.296875 
L 7.328125 50.640625 
Q 7.328125 58.25 6.953125 60 
Q 6.59375 61.765625 5.8125 62.390625 
Q 5.03125 63.03125 3.859375 63.03125 
Q 2.484375 63.03125 0.4375 62.25 
L -0.25 63.96875 
L 13.1875 69.4375 
L 15.375 69.4375 
z
M 15.375 33.890625 
L 15.375 7.125 
Q 17.875 4.6875 20.53125 3.4375 
Q 23.1875 2.203125 25.984375 2.203125 
Q 30.421875 2.203125 34.25 7.078125 
Q 38.09375 11.96875 38.09375 21.296875 
Q 38.09375 29.890625 34.25 34.5 
Q 30.421875 39.109375 25.53125 39.109375 
Q 22.953125 39.109375 20.359375 37.796875 
Q 18.40625 36.8125 15.375 33.890625 
z
" id="TimesNewRomanPSMT-98"/>
       <path d="M 16.21875 46.046875 
L 16.21875 35.984375 
Q 21.828125 46.046875 27.734375 46.046875 
Q 30.421875 46.046875 32.171875 44.40625 
Q 33.9375 42.78125 33.9375 40.625 
Q 33.9375 38.71875 32.65625 37.390625 
Q 31.390625 36.078125 29.640625 36.078125 
Q 27.9375 36.078125 25.8125 37.765625 
Q 23.6875 39.453125 22.65625 39.453125 
Q 21.78125 39.453125 20.75 38.484375 
Q 18.5625 36.46875 16.21875 31.890625 
L 16.21875 10.453125 
Q 16.21875 6.734375 17.140625 4.828125 
Q 17.78125 3.515625 19.390625 2.640625 
Q 21 1.765625 24.03125 1.765625 
L 24.03125 0 
L 1.125 0 
L 1.125 1.765625 
Q 4.546875 1.765625 6.203125 2.828125 
Q 7.421875 3.609375 7.90625 5.328125 
Q 8.15625 6.15625 8.15625 10.0625 
L 8.15625 27.390625 
Q 8.15625 35.203125 7.828125 36.6875 
Q 7.515625 38.1875 6.65625 38.859375 
Q 5.8125 39.546875 4.546875 39.546875 
Q 3.03125 39.546875 1.125 38.8125 
L 0.640625 40.578125 
L 14.15625 46.046875 
z
" id="TimesNewRomanPSMT-114"/>
       <path d="M 12.5 9.46875 
Q 14.796875 9.46875 16.359375 7.875 
Q 17.921875 6.296875 17.921875 4.046875 
Q 17.921875 1.8125 16.328125 0.21875 
Q 14.75 -1.375 12.5 -1.375 
Q 10.25 -1.375 8.65625 0.21875 
Q 7.078125 1.8125 7.078125 4.046875 
Q 7.078125 6.34375 8.65625 7.90625 
Q 10.25 9.46875 12.5 9.46875 
z
" id="TimesNewRomanPSMT-46"/>
       <path id="TimesNewRomanPSMT-32"/>
       <path d="M 25 46.046875 
Q 35.15625 46.046875 41.3125 38.328125 
Q 46.53125 31.734375 46.53125 23.1875 
Q 46.53125 17.1875 43.640625 11.03125 
Q 40.765625 4.890625 35.71875 1.75 
Q 30.671875 -1.375 24.46875 -1.375 
Q 14.359375 -1.375 8.40625 6.6875 
Q 3.375 13.484375 3.375 21.921875 
Q 3.375 28.078125 6.421875 34.15625 
Q 9.46875 40.234375 14.453125 43.140625 
Q 19.4375 46.046875 25 46.046875 
z
M 23.484375 42.875 
Q 20.90625 42.875 18.28125 41.328125 
Q 15.671875 39.796875 14.0625 35.9375 
Q 12.453125 32.078125 12.453125 26.03125 
Q 12.453125 16.265625 16.328125 9.171875 
Q 20.21875 2.09375 26.5625 2.09375 
Q 31.296875 2.09375 34.375 6 
Q 37.453125 9.90625 37.453125 19.4375 
Q 37.453125 31.34375 32.328125 38.1875 
Q 28.859375 42.875 23.484375 42.875 
z
" id="TimesNewRomanPSMT-111"/>
       <path d="M 20.609375 41.21875 
L 20.609375 11.8125 
Q 20.609375 5.5625 21.96875 3.90625 
Q 23.78125 1.765625 26.8125 1.765625 
L 30.859375 1.765625 
L 30.859375 0 
L 4.15625 0 
L 4.15625 1.765625 
L 6.15625 1.765625 
Q 8.109375 1.765625 9.71875 2.734375 
Q 11.328125 3.71875 11.9375 5.375 
Q 12.546875 7.03125 12.546875 11.8125 
L 12.546875 41.21875 
L 3.859375 41.21875 
L 3.859375 44.734375 
L 12.546875 44.734375 
L 12.546875 47.65625 
Q 12.546875 54.34375 14.6875 58.984375 
Q 16.84375 63.625 21.265625 66.484375 
Q 25.6875 69.34375 31.203125 69.34375 
Q 36.328125 69.34375 40.625 66.015625 
Q 43.453125 63.8125 43.453125 61.078125 
Q 43.453125 59.625 42.1875 58.328125 
Q 40.921875 57.03125 39.453125 57.03125 
Q 38.328125 57.03125 37.078125 57.828125 
Q 35.84375 58.640625 34.03125 61.296875 
Q 32.234375 63.96875 30.71875 64.890625 
Q 29.203125 65.828125 27.34375 65.828125 
Q 25.09375 65.828125 23.53125 64.625 
Q 21.96875 63.421875 21.28125 60.90625 
Q 20.609375 58.40625 20.609375 47.953125 
L 20.609375 44.734375 
L 32.125 44.734375 
L 32.125 41.21875 
z
" id="TimesNewRomanPSMT-102"/>
       <path d="M 42.328125 44.734375 
L 42.328125 17.625 
Q 42.328125 9.859375 42.6875 8.125 
Q 43.0625 6.390625 43.859375 5.703125 
Q 44.671875 5.03125 45.75 5.03125 
Q 47.265625 5.03125 49.171875 5.859375 
L 49.859375 4.15625 
L 36.46875 -1.375 
L 34.28125 -1.375 
L 34.28125 8.109375 
Q 28.515625 1.859375 25.484375 0.234375 
Q 22.46875 -1.375 19.09375 -1.375 
Q 15.328125 -1.375 12.5625 0.796875 
Q 9.8125 2.984375 8.734375 6.390625 
Q 7.671875 9.8125 7.671875 16.0625 
L 7.671875 36.03125 
Q 7.671875 39.203125 6.984375 40.421875 
Q 6.296875 41.65625 4.953125 42.3125 
Q 3.609375 42.96875 0.09375 42.921875 
L 0.09375 44.734375 
L 15.765625 44.734375 
L 15.765625 14.796875 
Q 15.765625 8.546875 17.9375 6.59375 
Q 20.125 4.640625 23.1875 4.640625 
Q 25.296875 4.640625 27.953125 5.953125 
Q 30.609375 7.28125 34.28125 10.984375 
L 34.28125 36.328125 
Q 34.28125 40.140625 32.890625 41.484375 
Q 31.5 42.828125 27.09375 42.921875 
L 27.09375 44.734375 
z
" id="TimesNewRomanPSMT-117"/>
       <path d="M 16.15625 36.578125 
Q 24.03125 46.046875 31.15625 46.046875 
Q 34.8125 46.046875 37.453125 44.21875 
Q 40.09375 42.390625 41.65625 38.1875 
Q 42.71875 35.25 42.71875 29.203125 
L 42.71875 10.109375 
Q 42.71875 5.859375 43.40625 4.34375 
Q 43.953125 3.125 45.140625 2.4375 
Q 46.34375 1.765625 49.5625 1.765625 
L 49.5625 0 
L 27.4375 0 
L 27.4375 1.765625 
L 28.375 1.765625 
Q 31.5 1.765625 32.734375 2.703125 
Q 33.984375 3.65625 34.46875 5.515625 
Q 34.671875 6.25 34.671875 10.109375 
L 34.671875 28.421875 
Q 34.671875 34.515625 33.078125 37.28125 
Q 31.5 40.046875 27.734375 40.046875 
Q 21.921875 40.046875 16.15625 33.6875 
L 16.15625 10.109375 
Q 16.15625 5.5625 16.703125 4.5 
Q 17.390625 3.078125 18.578125 2.421875 
Q 19.78125 1.765625 23.4375 1.765625 
L 23.4375 0 
L 1.3125 0 
L 1.3125 1.765625 
L 2.296875 1.765625 
Q 5.71875 1.765625 6.90625 3.484375 
Q 8.109375 5.21875 8.109375 10.109375 
L 8.109375 26.703125 
Q 8.109375 34.765625 7.734375 36.515625 
Q 7.375 38.28125 6.609375 38.90625 
Q 5.859375 39.546875 4.59375 39.546875 
Q 3.21875 39.546875 1.3125 38.8125 
L 0.59375 40.578125 
L 14.0625 46.046875 
L 16.15625 46.046875 
z
" id="TimesNewRomanPSMT-110"/>
       <path d="M 41.109375 17 
Q 39.3125 8.15625 34.03125 3.390625 
Q 28.765625 -1.375 22.359375 -1.375 
Q 14.75 -1.375 9.078125 5.015625 
Q 3.421875 11.421875 3.421875 22.3125 
Q 3.421875 32.859375 9.6875 39.453125 
Q 15.96875 46.046875 24.75 46.046875 
Q 31.34375 46.046875 35.59375 42.546875 
Q 39.84375 39.0625 39.84375 35.296875 
Q 39.84375 33.453125 38.640625 32.296875 
Q 37.453125 31.15625 35.296875 31.15625 
Q 32.421875 31.15625 30.953125 33.015625 
Q 30.125 34.03125 29.859375 36.90625 
Q 29.59375 39.796875 27.875 41.3125 
Q 26.171875 42.78125 23.140625 42.78125 
Q 18.265625 42.78125 15.28125 39.15625 
Q 11.328125 34.375 11.328125 26.515625 
Q 11.328125 18.5 15.25 12.375 
Q 19.1875 6.25 25.875 6.25 
Q 30.671875 6.25 34.46875 9.515625 
Q 37.15625 11.765625 39.703125 17.671875 
z
" id="TimesNewRomanPSMT-99"/>
       <path d="M 16.109375 59.421875 
L 16.109375 44.734375 
L 26.5625 44.734375 
L 26.5625 41.3125 
L 16.109375 41.3125 
L 16.109375 12.3125 
Q 16.109375 7.953125 17.359375 6.4375 
Q 18.609375 4.9375 20.5625 4.9375 
Q 22.171875 4.9375 23.6875 5.9375 
Q 25.203125 6.9375 26.03125 8.890625 
L 27.9375 8.890625 
Q 26.21875 4.109375 23.09375 1.6875 
Q 19.96875 -0.734375 16.65625 -0.734375 
Q 14.40625 -0.734375 12.25 0.515625 
Q 10.109375 1.765625 9.078125 4.078125 
Q 8.0625 6.390625 8.0625 11.234375 
L 8.0625 41.3125 
L 0.984375 41.3125 
L 0.984375 42.921875 
Q 3.65625 44 6.46875 46.5625 
Q 9.28125 49.125 11.46875 52.640625 
Q 12.59375 54.5 14.59375 59.421875 
z
" id="TimesNewRomanPSMT-116"/>
       <path d="M 14.5 69.4375 
Q 16.546875 69.4375 17.984375 67.984375 
Q 19.4375 66.546875 19.4375 64.5 
Q 19.4375 62.453125 17.984375 60.984375 
Q 16.546875 59.515625 14.5 59.515625 
Q 12.453125 59.515625 10.984375 60.984375 
Q 9.515625 62.453125 9.515625 64.5 
Q 9.515625 66.546875 10.953125 67.984375 
Q 12.40625 69.4375 14.5 69.4375 
z
M 18.5625 46.046875 
L 18.5625 10.109375 
Q 18.5625 5.90625 19.171875 4.515625 
Q 19.78125 3.125 20.96875 2.4375 
Q 22.171875 1.765625 25.34375 1.765625 
L 25.34375 0 
L 3.609375 0 
L 3.609375 1.765625 
Q 6.890625 1.765625 8 2.390625 
Q 9.125 3.03125 9.78125 4.484375 
Q 10.453125 5.953125 10.453125 10.109375 
L 10.453125 27.34375 
Q 10.453125 34.625 10.015625 36.765625 
Q 9.671875 38.328125 8.9375 38.9375 
Q 8.203125 39.546875 6.9375 39.546875 
Q 5.5625 39.546875 3.609375 38.8125 
L 2.9375 40.578125 
L 16.40625 46.046875 
z
" id="TimesNewRomanPSMT-105"/>
       <path d="M 10.640625 27.875 
Q 10.59375 17.921875 15.484375 12.25 
Q 20.359375 6.59375 26.953125 6.59375 
Q 31.34375 6.59375 34.59375 9 
Q 37.84375 11.421875 40.046875 17.28125 
L 41.546875 16.3125 
Q 40.53125 9.625 35.59375 4.125 
Q 30.671875 -1.375 23.25 -1.375 
Q 15.1875 -1.375 9.453125 4.90625 
Q 3.71875 11.1875 3.71875 21.78125 
Q 3.71875 33.25 9.59375 39.671875 
Q 15.484375 46.09375 24.359375 46.09375 
Q 31.890625 46.09375 36.71875 41.140625 
Q 41.546875 36.1875 41.546875 27.875 
z
M 10.640625 30.71875 
L 31.34375 30.71875 
Q 31.109375 35.015625 30.328125 36.765625 
Q 29.109375 39.5 26.6875 41.0625 
Q 24.265625 42.625 21.625 42.625 
Q 17.578125 42.625 14.375 39.46875 
Q 11.1875 36.328125 10.640625 30.71875 
z
" id="TimesNewRomanPSMT-101"/>
       <path d="M 0.828125 44.734375 
L 21.875 44.734375 
L 21.875 42.921875 
L 20.515625 42.921875 
Q 18.609375 42.921875 17.609375 41.984375 
Q 16.609375 41.0625 16.609375 39.5 
Q 16.609375 37.796875 17.625 35.453125 
L 28.03125 10.75 
L 38.484375 36.375 
Q 39.59375 39.109375 39.59375 40.53125 
Q 39.59375 41.21875 39.203125 41.65625 
Q 38.671875 42.390625 37.84375 42.65625 
Q 37.015625 42.921875 34.46875 42.921875 
L 34.46875 44.734375 
L 49.078125 44.734375 
L 49.078125 42.921875 
Q 46.53125 42.71875 45.5625 41.890625 
Q 43.84375 40.4375 42.484375 37.015625 
L 26.609375 -1.375 
L 24.609375 -1.375 
L 8.640625 36.375 
Q 7.5625 39.015625 6.578125 40.15625 
Q 5.609375 41.3125 4.109375 42.09375 
Q 3.265625 42.53125 0.828125 42.921875 
z
" id="TimesNewRomanPSMT-118"/>
       <path d="M 28.46875 6.453125 
Q 21.578125 1.125 19.828125 0.296875 
Q 17.1875 -0.921875 14.203125 -0.921875 
Q 9.578125 -0.921875 6.5625 2.25 
Q 3.5625 5.421875 3.5625 10.59375 
Q 3.5625 13.875 5.03125 16.265625 
Q 7.03125 19.578125 11.984375 22.5 
Q 16.9375 25.4375 28.46875 29.640625 
L 28.46875 31.390625 
Q 28.46875 38.09375 26.34375 40.578125 
Q 24.21875 43.0625 20.171875 43.0625 
Q 17.09375 43.0625 15.28125 41.40625 
Q 13.421875 39.75 13.421875 37.59375 
L 13.53125 34.765625 
Q 13.53125 32.515625 12.375 31.296875 
Q 11.234375 30.078125 9.375 30.078125 
Q 7.5625 30.078125 6.421875 31.34375 
Q 5.28125 32.625 5.28125 34.8125 
Q 5.28125 39.015625 9.578125 42.53125 
Q 13.875 46.046875 21.625 46.046875 
Q 27.59375 46.046875 31.390625 44.046875 
Q 34.28125 42.53125 35.640625 39.3125 
Q 36.53125 37.203125 36.53125 30.71875 
L 36.53125 15.53125 
Q 36.53125 9.125 36.765625 7.6875 
Q 37.015625 6.25 37.578125 5.765625 
Q 38.140625 5.28125 38.875 5.28125 
Q 39.65625 5.28125 40.234375 5.609375 
Q 41.265625 6.25 44.1875 9.1875 
L 44.1875 6.453125 
Q 38.71875 -0.875 33.734375 -0.875 
Q 31.34375 -0.875 29.921875 0.78125 
Q 28.515625 2.4375 28.46875 6.453125 
z
M 28.46875 9.625 
L 28.46875 26.65625 
Q 21.09375 23.734375 18.953125 22.515625 
Q 15.09375 20.359375 13.421875 18.015625 
Q 11.765625 15.671875 11.765625 12.890625 
Q 11.765625 9.375 13.859375 7.046875 
Q 15.96875 4.734375 18.703125 4.734375 
Q 22.40625 4.734375 28.46875 9.625 
z
" id="TimesNewRomanPSMT-97"/>
       <path d="M 18.5 69.4375 
L 18.5 10.109375 
Q 18.5 5.90625 19.109375 4.53125 
Q 19.734375 3.171875 21 2.46875 
Q 22.265625 1.765625 25.734375 1.765625 
L 25.734375 0 
L 3.8125 0 
L 3.8125 1.765625 
Q 6.890625 1.765625 8 2.390625 
Q 9.125 3.03125 9.765625 4.484375 
Q 10.40625 5.953125 10.40625 10.109375 
L 10.40625 50.734375 
Q 10.40625 58.296875 10.0625 60.03125 
Q 9.71875 61.765625 8.953125 62.390625 
Q 8.203125 63.03125 7.03125 63.03125 
Q 5.765625 63.03125 3.8125 62.25 
L 2.984375 63.96875 
L 16.3125 69.4375 
z
" id="TimesNewRomanPSMT-108"/>
       <path d="M 32.03125 46.046875 
L 32.03125 30.8125 
L 30.421875 30.8125 
Q 28.5625 37.984375 25.65625 40.578125 
Q 22.75 43.171875 18.265625 43.171875 
Q 14.84375 43.171875 12.734375 41.359375 
Q 10.640625 39.546875 10.640625 37.359375 
Q 10.640625 34.625 12.203125 32.671875 
Q 13.71875 30.671875 18.359375 28.421875 
L 25.484375 24.953125 
Q 35.40625 20.125 35.40625 12.203125 
Q 35.40625 6.109375 30.78125 2.359375 
Q 26.171875 -1.375 20.453125 -1.375 
Q 16.359375 -1.375 11.078125 0.09375 
Q 9.46875 0.59375 8.453125 0.59375 
Q 7.328125 0.59375 6.6875 -0.6875 
L 5.078125 -0.6875 
L 5.078125 15.28125 
L 6.6875 15.28125 
Q 8.0625 8.453125 11.90625 4.984375 
Q 15.765625 1.515625 20.5625 1.515625 
Q 23.921875 1.515625 26.046875 3.484375 
Q 28.171875 5.46875 28.171875 8.25 
Q 28.171875 11.625 25.796875 13.921875 
Q 23.4375 16.21875 16.359375 19.734375 
Q 9.28125 23.25 7.078125 26.078125 
Q 4.890625 28.859375 4.890625 33.109375 
Q 4.890625 38.625 8.671875 42.328125 
Q 12.453125 46.046875 18.453125 46.046875 
Q 21.09375 46.046875 24.859375 44.921875 
Q 27.34375 44.1875 28.171875 44.1875 
Q 28.953125 44.1875 29.390625 44.53125 
Q 29.828125 44.875 30.421875 46.046875 
z
" id="TimesNewRomanPSMT-115"/>
      </defs>
      <use xlink:href="#TimesNewRomanPSMT-78"/>
      <use x="72.216797" xlink:href="#TimesNewRomanPSMT-98"/>
      <use x="122.216797" xlink:href="#TimesNewRomanPSMT-114"/>
      <use x="150.017578" xlink:href="#TimesNewRomanPSMT-46"/>
      <use x="175.017578" xlink:href="#TimesNewRomanPSMT-32"/>
      <use x="200.017578" xlink:href="#TimesNewRomanPSMT-111"/>
      <use x="250.017578" xlink:href="#TimesNewRomanPSMT-102"/>
      <use x="283.318359" xlink:href="#TimesNewRomanPSMT-32"/>
      <use x="308.318359" xlink:href="#TimesNewRomanPSMT-102"/>
      <use x="341.619141" xlink:href="#TimesNewRomanPSMT-117"/>
      <use x="391.619141" xlink:href="#TimesNewRomanPSMT-110"/>
      <use x="441.619141" xlink:href="#TimesNewRomanPSMT-99"/>
      <use x="486.003906" xlink:href="#TimesNewRomanPSMT-116"/>
      <use x="513.787109" xlink:href="#TimesNewRomanPSMT-105"/>
      <use x="541.570312" xlink:href="#TimesNewRomanPSMT-111"/>
      <use x="591.570312" xlink:href="#TimesNewRomanPSMT-110"/>
      <use x="641.570312" xlink:href="#TimesNewRomanPSMT-32"/>
      <use x="666.570312" xlink:href="#TimesNewRomanPSMT-101"/>
      <use x="710.955078" xlink:href="#TimesNewRomanPSMT-118"/>
      <use x="760.955078" xlink:href="#TimesNewRomanPSMT-97"/>
      <use x="805.339844" xlink:href="#TimesNewRomanPSMT-108"/>
      <use x="833.123047" xlink:href="#TimesNewRomanPSMT-117"/>
      <use x="883.123047" xlink:href="#TimesNewRomanPSMT-97"/>
      <use x="927.507812" xlink:href="#TimesNewRomanPSMT-116"/>
      <use x="955.291016" xlink:href="#TimesNewRomanPSMT-105"/>
      <use x="983.074219" xlink:href="#TimesNewRomanPSMT-111"/>
      <use x="1033.074219" xlink:href="#TimesNewRomanPSMT-110"/>
      <use x="1083.074219" xlink:href="#TimesNewRomanPSMT-115"/>
     </g>
    </g>
   </g>
   <g id="matplotlib.axis_2">
    <g id="ytick_1">
     <g id="line2d_6">
      <defs>
       <path d="M 0 0 
L -3.5 0 
" id="m855795e328" style="stroke:#000000;stroke-width:0.8;"/>
      </defs>
      <g>
       <use style="stroke:#000000;stroke-width:0.8;" x="54" xlink:href="#m855795e328" y="200.184369"/>
      </g>
     </g>
     <g id="text_7">
      <!-- −50 -->
      <g transform="translate(23.541406 205.392181)scale(0.15 -0.15)">
       <defs>
        <path d="M 54.4375 31.25 
L 1.8125 31.25 
L 1.8125 35.25 
L 54.4375 35.25 
z
" id="TimesNewRomanPSMT-8722"/>
        <path d="M 43.40625 66.21875 
L 39.59375 57.90625 
L 19.671875 57.90625 
L 15.328125 49.03125 
Q 28.265625 47.125 35.84375 39.40625 
Q 42.328125 32.765625 42.328125 23.78125 
Q 42.328125 18.5625 40.203125 14.109375 
Q 38.09375 9.671875 34.859375 6.546875 
Q 31.640625 3.421875 27.6875 1.515625 
Q 22.078125 -1.171875 16.15625 -1.171875 
Q 10.203125 -1.171875 7.484375 0.84375 
Q 4.78125 2.875 4.78125 5.328125 
Q 4.78125 6.6875 5.90625 7.734375 
Q 7.03125 8.796875 8.734375 8.796875 
Q 10.015625 8.796875 10.96875 8.40625 
Q 11.921875 8.015625 14.203125 6.390625 
Q 17.875 3.859375 21.625 3.859375 
Q 27.34375 3.859375 31.65625 8.171875 
Q 35.984375 12.5 35.984375 18.703125 
Q 35.984375 24.703125 32.125 29.90625 
Q 28.265625 35.109375 21.484375 37.9375 
Q 16.15625 40.140625 6.984375 40.484375 
L 19.671875 66.21875 
z
" id="TimesNewRomanPSMT-53"/>
       </defs>
       <use xlink:href="#TimesNewRomanPSMT-8722"/>
       <use x="56.396484" xlink:href="#TimesNewRomanPSMT-53"/>
       <use x="106.396484" xlink:href="#TimesNewRomanPSMT-48"/>
      </g>
     </g>
    </g>
    <g id="ytick_2">
     <g id="line2d_7">
      <g>
       <use style="stroke:#000000;stroke-width:0.8;" x="54" xlink:href="#m855795e328" y="142.828312"/>
      </g>
     </g>
     <g id="text_8">
      <!-- 0 -->
      <g transform="translate(39.5 148.036124)scale(0.15 -0.15)">
       <use xlink:href="#TimesNewRomanPSMT-48"/>
      </g>
     </g>
    </g>
    <g id="ytick_3">
     <g id="line2d_8">
      <g>
       <use style="stroke:#000000;stroke-width:0.8;" x="54" xlink:href="#m855795e328" y="85.472255"/>
      </g>
     </g>
     <g id="text_9">
      <!-- 50 -->
      <g transform="translate(32 90.680068)scale(0.15 -0.15)">
       <use xlink:href="#TimesNewRomanPSMT-53"/>
       <use x="50" xlink:href="#TimesNewRomanPSMT-48"/>
      </g>
     </g>
    </g>
    <g id="text_10">
     <!-- Best function evaluation -->
     <g transform="translate(16.332812 216.597188)rotate(-90)scale(0.15 -0.15)">
      <defs>
       <path d="M 46.1875 33.796875 
Q 53.078125 32.328125 56.5 29.109375 
Q 61.234375 24.609375 61.234375 18.109375 
Q 61.234375 13.1875 58.109375 8.671875 
Q 54.984375 4.15625 49.53125 2.078125 
Q 44.09375 0 32.90625 0 
L 1.65625 0 
L 1.65625 1.8125 
L 4.15625 1.8125 
Q 8.296875 1.8125 10.109375 4.4375 
Q 11.234375 6.15625 11.234375 11.71875 
L 11.234375 54.5 
Q 11.234375 60.640625 9.8125 62.25 
Q 7.90625 64.40625 4.15625 64.40625 
L 1.65625 64.40625 
L 1.65625 66.21875 
L 30.28125 66.21875 
Q 38.28125 66.21875 43.109375 65.046875 
Q 50.4375 63.28125 54.296875 58.8125 
Q 58.15625 54.34375 58.15625 48.53125 
Q 58.15625 43.5625 55.125 39.625 
Q 52.09375 35.6875 46.1875 33.796875 
z
M 20.609375 36.421875 
Q 22.40625 36.078125 24.71875 35.90625 
Q 27.046875 35.75 29.828125 35.75 
Q 36.96875 35.75 40.546875 37.28125 
Q 44.140625 38.8125 46.046875 41.984375 
Q 47.953125 45.171875 47.953125 48.921875 
Q 47.953125 54.734375 43.21875 58.828125 
Q 38.484375 62.9375 29.390625 62.9375 
Q 24.515625 62.9375 20.609375 61.859375 
z
M 20.609375 4.78125 
Q 26.265625 3.46875 31.78125 3.46875 
Q 40.625 3.46875 45.265625 7.4375 
Q 49.90625 11.421875 49.90625 17.28125 
Q 49.90625 21.140625 47.796875 24.703125 
Q 45.703125 28.265625 40.96875 30.3125 
Q 36.234375 32.375 29.25 32.375 
Q 26.21875 32.375 24.0625 32.265625 
Q 21.921875 32.171875 20.609375 31.9375 
z
" id="TimesNewRomanPSMT-66"/>
      </defs>
      <use xlink:href="#TimesNewRomanPSMT-66"/>
      <use x="66.699219" xlink:href="#TimesNewRomanPSMT-101"/>
      <use x="111.083984" xlink:href="#TimesNewRomanPSMT-115"/>
      <use x="150" xlink:href="#TimesNewRomanPSMT-116"/>
      <use x="177.783203" xlink:href="#TimesNewRomanPSMT-32"/>
      <use x="202.783203" xlink:href="#TimesNewRomanPSMT-102"/>
      <use x="236.083984" xlink:href="#TimesNewRomanPSMT-117"/>
      <use x="286.083984" xlink:href="#TimesNewRomanPSMT-110"/>
      <use x="336.083984" xlink:href="#TimesNewRomanPSMT-99"/>
      <use x="380.46875" xlink:href="#TimesNewRomanPSMT-116"/>
      <use x="408.251953" xlink:href="#TimesNewRomanPSMT-105"/>
      <use x="436.035156" xlink:href="#TimesNewRomanPSMT-111"/>
      <use x="486.035156" xlink:href="#TimesNewRomanPSMT-110"/>
      <use x="536.035156" xlink:href="#TimesNewRomanPSMT-32"/>
      <use x="561.035156" xlink:href="#TimesNewRomanPSMT-101"/>
      <use x="605.419922" xlink:href="#TimesNewRomanPSMT-118"/>
      <use x="655.419922" xlink:href="#TimesNewRomanPSMT-97"/>
      <use x="699.804688" xlink:href="#TimesNewRomanPSMT-108"/>
      <use x="727.587891" xlink:href="#TimesNewRomanPSMT-117"/>
      <use x="777.587891" xlink:href="#TimesNewRomanPSMT-97"/>
      <use x="821.972656" xlink:href="#TimesNewRomanPSMT-116"/>
      <use x="849.755859" xlink:href="#TimesNewRomanPSMT-105"/>
      <use x="877.539062" xlink:href="#TimesNewRomanPSMT-111"/>
      <use x="927.539062" xlink:href="#TimesNewRomanPSMT-110"/>
     </g>
    </g>
   </g>
   <g id="line2d_9">
    <path clip-path="url(#pe18e72c0e4)" d="M 57.381818 67.524332 
L 74.290909 67.524332 
L 74.290909 67.898223 
L 84.436364 67.898223 
L 84.436364 70.288204 
L 94.581818 70.288204 
L 94.581818 72.305852 
L 104.727273 72.305852 
L 104.727273 73.980481 
L 114.872727 73.980481 
L 114.872727 74.16902 
L 125.018182 74.16902 
L 125.018182 74.948548 
L 135.163636 74.948548 
L 135.163636 75.311061 
L 145.309091 75.311061 
L 145.309091 76.080338 
L 155.454545 76.080338 
L 155.454545 77.060146 
L 165.6 77.060146 
L 165.6 77.489153 
L 175.745455 77.489153 
L 175.745455 78.641323 
L 185.890909 78.641323 
L 185.890909 79.007956 
L 196.036364 79.007956 
L 196.036364 79.417103 
L 206.181818 79.417103 
L 206.181818 80.495645 
L 216.327273 80.495645 
L 216.327273 81.665099 
L 226.472727 81.665099 
L 226.472727 82.112544 
L 236.618182 82.112544 
L 236.618182 83.199529 
L 246.763636 83.199529 
L 246.763636 83.905177 
L 256.909091 83.905177 
L 256.909091 84.990338 
L 267.054545 84.990338 
L 267.054545 86.317577 
L 277.2 86.317577 
L 277.2 86.760442 
L 287.345455 86.760442 
L 287.345455 88.534174 
L 297.490909 88.534174 
L 297.490909 89.494538 
L 307.636364 89.494538 
L 307.636364 90.282873 
L 317.781818 90.282873 
L 317.781818 90.469453 
L 327.927273 90.469453 
L 327.927273 92.039415 
L 348.218182 92.127897 
L 348.218182 93.004949 
L 358.363636 93.004949 
L 358.363636 94.299433 
L 368.509091 94.299433 
L 368.509091 94.502263 
L 378.654545 94.502263 
L 378.654545 96.784878 
L 392.181818 96.837765 
L 392.181818 96.837765 
" style="fill:none;stroke:#a52a2a;stroke-linecap:square;stroke-width:1.5;"/>
   </g>
   <g id="line2d_10">
    <path clip-path="url(#pe18e72c0e4)" d="M 57.381818 112.479524 
L 74.290909 112.479524 
L 74.290909 116.4937 
L 77.672727 116.4937 
L 77.672727 130.047491 
L 81.054545 130.047491 
L 81.054545 141.118007 
L 84.436364 141.118007 
L 84.436364 151.914852 
L 94.581818 151.914852 
L 94.581818 156.403842 
L 97.963636 156.403842 
L 97.963636 161.952892 
L 101.345455 161.952892 
L 101.345455 179.436041 
L 104.727273 179.436041 
L 104.727273 193.167957 
L 114.872727 193.167957 
L 114.872727 193.412901 
L 118.254545 193.412901 
L 118.254545 197.311457 
L 155.454545 197.311457 
L 155.454545 199.246041 
L 162.218182 199.246041 
L 162.218182 205.03866 
L 165.6 205.03866 
L 165.6 213.957987 
L 179.127273 213.957987 
L 179.127273 215.9597 
L 185.890909 215.9597 
L 185.890909 217.959879 
L 192.654545 217.959879 
L 192.654545 223.239312 
L 243.381818 223.239312 
L 243.381818 224.274974 
L 250.145455 224.274974 
L 250.145455 227.08317 
L 277.2 227.08317 
L 277.2 227.204278 
L 280.581818 227.204278 
L 280.581818 228.174897 
L 283.963636 228.174897 
L 283.963636 230.391506 
L 351.6 230.391506 
L 351.6 230.772094 
L 361.745455 230.772094 
L 361.745455 231.346103 
L 365.127273 231.346103 
L 365.127273 232.209584 
L 392.181818 232.209584 
L 392.181818 232.209584 
" style="fill:none;stroke:#008000;stroke-linecap:square;stroke-width:1.5;"/>
   </g>
   <g id="line2d_11">
    <path clip-path="url(#pe18e72c0e4)" d="M 57.381818 67.479368 
L 84.436364 67.479368 
L 84.436364 193.211138 
L 111.490909 193.211138 
L 111.490909 218.252284 
L 141.927273 218.252284 
L 141.927273 221.536008 
L 172.363636 221.536008 
L 172.363636 224.384806 
L 202.8 224.384806 
L 202.8 226.863136 
L 236.618182 226.863136 
L 236.618182 227.416497 
L 270.436364 227.416497 
L 270.436364 227.95189 
L 304.254545 227.95189 
L 304.254545 228.469951 
L 341.454545 228.469951 
L 341.454545 228.596027 
L 378.654545 228.596027 
L 378.654545 228.721081 
L 419.236364 228.721081 
L 419.236364 228.757217 
" style="fill:none;stroke:#000000;stroke-linecap:square;stroke-width:1.5;"/>
   </g>
   <g id="line2d_12">
    <path clip-path="url(#pe18e72c0e4)" d="M 57.381818 67.479368 
L 74.290909 67.479368 
L 74.290909 110.384065 
L 84.436364 110.384065 
L 84.436364 149.026216 
L 94.581818 149.026216 
L 94.581818 182.590801 
L 104.727273 182.590801 
L 104.727273 210.118858 
L 118.254545 210.118858 
L 118.254545 215.956203 
L 131.781818 215.956203 
L 131.781818 221.247645 
L 152.072727 221.247645 
L 152.072727 221.561088 
L 172.363636 221.561088 
L 172.363636 221.869685 
L 192.654545 221.869685 
L 192.654545 222.175529 
L 216.327273 222.175529 
L 216.327273 222.251648 
L 240 222.251648 
L 240 222.327605 
L 263.672727 222.327605 
L 263.672727 222.403434 
L 290.727273 222.403434 
L 290.727273 222.403434 
L 317.781818 222.403434 
L 317.781818 222.403434 
L 344.836364 222.403434 
L 344.836364 222.403434 
L 371.890909 222.403434 
L 371.890909 222.403434 
L 398.945455 222.403434 
L 398.945455 222.403434 
" style="fill:none;stroke:#0000ff;stroke-linecap:square;stroke-width:1.5;"/>
   </g>
   <g id="line2d_13">
    <path clip-path="url(#pe18e72c0e4)" d="M 57.381818 199.66402 
L 101.345455 199.66402 
L 101.345455 209.777898 
L 108.109091 209.777898 
L 108.109091 217.804852 
L 128.4 217.804852 
L 128.4 218.037663 
L 131.781818 218.037663 
L 131.781818 218.270474 
L 141.927273 218.270474 
L 141.927273 221.383157 
L 209.563636 221.482968 
L 209.563636 222.618625 
L 236.618182 222.645474 
L 236.618182 222.917835 
L 290.727273 222.917835 
L 290.727273 223.190197 
L 392.181818 223.190197 
L 392.181818 223.190197 
" style="fill:none;stroke:#ee82ee;stroke-linecap:square;stroke-width:1.5;"/>
   </g>
   <g id="patch_3">
    <path d="M 54 252 
L 54 34.56 
" style="fill:none;stroke:#000000;stroke-linecap:square;stroke-linejoin:miter;stroke-width:0.8;"/>
   </g>
   <g id="patch_4">
    <path d="M 388.8 252 
L 388.8 34.56 
" style="fill:none;stroke:#000000;stroke-linecap:square;stroke-linejoin:miter;stroke-width:0.8;"/>
   </g>
   <g id="patch_5">
    <path d="M 54 252 
L 388.8 252 
" style="fill:none;stroke:#000000;stroke-linecap:square;stroke-linejoin:miter;stroke-width:0.8;"/>
   </g>
   <g id="patch_6">
    <path d="M 54 34.56 
L 388.8 34.56 
" style="fill:none;stroke:#000000;stroke-linecap:square;stroke-linejoin:miter;stroke-width:0.8;"/>
   </g>
   <g id="legend_1">
    <g id="patch_7">
     <path d="M 250.694531 189.33957 
L 380.05 189.33957 
Q 382.55 189.33957 382.55 186.83957 
L 382.55 99.72043 
Q 382.55 97.22043 380.05 97.22043 
L 250.694531 97.22043 
Q 248.194531 97.22043 248.194531 99.72043 
L 248.194531 186.83957 
Q 248.194531 189.33957 250.694531 189.33957 
z
" style="fill:#ffffff;opacity:0.8;stroke:#cccccc;stroke-linejoin:miter;"/>
    </g>
    <g id="line2d_14">
     <path d="M 253.194531 106.59543 
L 278.194531 106.59543 
" style="fill:none;stroke:#a52a2a;stroke-linecap:square;stroke-width:1.5;"/>
    </g>
    <g id="line2d_15"/>
    <g id="text_11">
     <!-- Nesterov -->
     <g transform="translate(288.194531 110.97043)scale(0.125 -0.125)">
      <use xlink:href="#TimesNewRomanPSMT-78"/>
      <use x="72.216797" xlink:href="#TimesNewRomanPSMT-101"/>
      <use x="116.601562" xlink:href="#TimesNewRomanPSMT-115"/>
      <use x="155.517578" xlink:href="#TimesNewRomanPSMT-116"/>
      <use x="183.300781" xlink:href="#TimesNewRomanPSMT-101"/>
      <use x="227.685547" xlink:href="#TimesNewRomanPSMT-114"/>
      <use x="260.986328" xlink:href="#TimesNewRomanPSMT-111"/>
      <use x="310.986328" xlink:href="#TimesNewRomanPSMT-118"/>
     </g>
    </g>
    <g id="line2d_16">
     <path d="M 253.194531 124.269258 
L 278.194531 124.269258 
" style="fill:none;stroke:#008000;stroke-linecap:square;stroke-width:1.5;"/>
    </g>
    <g id="line2d_17"/>
    <g id="text_12">
     <!-- Simplex -->
     <g transform="translate(288.194531 128.644258)scale(0.125 -0.125)">
      <defs>
       <path d="M 45.84375 67.71875 
L 45.84375 44.828125 
L 44.046875 44.828125 
Q 43.171875 51.421875 40.890625 55.328125 
Q 38.625 59.234375 34.421875 61.515625 
Q 30.21875 63.8125 25.734375 63.8125 
Q 20.65625 63.8125 17.328125 60.71875 
Q 14.015625 57.625 14.015625 53.65625 
Q 14.015625 50.640625 16.109375 48.140625 
Q 19.140625 44.484375 30.515625 38.375 
Q 39.796875 33.40625 43.1875 30.734375 
Q 46.578125 28.078125 48.40625 24.453125 
Q 50.25 20.84375 50.25 16.890625 
Q 50.25 9.375 44.40625 3.921875 
Q 38.578125 -1.515625 29.390625 -1.515625 
Q 26.515625 -1.515625 23.96875 -1.078125 
Q 22.46875 -0.828125 17.703125 0.703125 
Q 12.9375 2.25 11.671875 2.25 
Q 10.453125 2.25 9.734375 1.515625 
Q 9.03125 0.78125 8.6875 -1.515625 
L 6.890625 -1.515625 
L 6.890625 21.1875 
L 8.6875 21.1875 
Q 9.96875 14.0625 12.109375 10.515625 
Q 14.265625 6.984375 18.671875 4.640625 
Q 23.09375 2.296875 28.375 2.296875 
Q 34.46875 2.296875 38 5.515625 
Q 41.546875 8.734375 41.546875 13.140625 
Q 41.546875 15.578125 40.203125 18.0625 
Q 38.875 20.5625 36.03125 22.703125 
Q 34.125 24.171875 25.625 28.921875 
Q 17.140625 33.6875 13.546875 36.515625 
Q 9.96875 39.359375 8.109375 42.765625 
Q 6.25 46.1875 6.25 50.296875 
Q 6.25 57.421875 11.71875 62.5625 
Q 17.1875 67.71875 25.640625 67.71875 
Q 30.90625 67.71875 36.8125 65.140625 
Q 39.546875 63.921875 40.671875 63.921875 
Q 41.9375 63.921875 42.75 64.671875 
Q 43.5625 65.4375 44.046875 67.71875 
z
" id="TimesNewRomanPSMT-83"/>
       <path d="M 16.40625 36.53125 
Q 21.296875 41.40625 22.171875 42.140625 
Q 24.359375 44 26.890625 45.015625 
Q 29.4375 46.046875 31.9375 46.046875 
Q 36.140625 46.046875 39.15625 43.59375 
Q 42.1875 41.15625 43.21875 36.53125 
Q 48.25 42.390625 51.703125 44.21875 
Q 55.171875 46.046875 58.84375 46.046875 
Q 62.40625 46.046875 65.15625 44.21875 
Q 67.921875 42.390625 69.53125 38.234375 
Q 70.609375 35.40625 70.609375 29.34375 
L 70.609375 10.109375 
Q 70.609375 5.90625 71.234375 4.34375 
Q 71.734375 3.265625 73.046875 2.515625 
Q 74.359375 1.765625 77.34375 1.765625 
L 77.34375 0 
L 55.28125 0 
L 55.28125 1.765625 
L 56.203125 1.765625 
Q 59.078125 1.765625 60.6875 2.875 
Q 61.8125 3.65625 62.3125 5.375 
Q 62.5 6.203125 62.5 10.109375 
L 62.5 29.34375 
Q 62.5 34.8125 61.1875 37.0625 
Q 59.28125 40.1875 55.078125 40.1875 
Q 52.484375 40.1875 49.875 38.890625 
Q 47.265625 37.59375 43.5625 34.078125 
L 43.453125 33.546875 
L 43.5625 31.453125 
L 43.5625 10.109375 
Q 43.5625 5.515625 44.0625 4.390625 
Q 44.578125 3.265625 45.984375 2.515625 
Q 47.40625 1.765625 50.828125 1.765625 
L 50.828125 0 
L 28.21875 0 
L 28.21875 1.765625 
Q 31.9375 1.765625 33.328125 2.640625 
Q 34.71875 3.515625 35.25 5.28125 
Q 35.5 6.109375 35.5 10.109375 
L 35.5 29.34375 
Q 35.5 34.8125 33.890625 37.203125 
Q 31.734375 40.328125 27.875 40.328125 
Q 25.25 40.328125 22.65625 38.921875 
Q 18.609375 36.765625 16.40625 34.078125 
L 16.40625 10.109375 
Q 16.40625 5.71875 17.015625 4.390625 
Q 17.625 3.078125 18.8125 2.421875 
Q 20.015625 1.765625 23.6875 1.765625 
L 23.6875 0 
L 1.5625 0 
L 1.5625 1.765625 
Q 4.640625 1.765625 5.859375 2.421875 
Q 7.078125 3.078125 7.703125 4.515625 
Q 8.34375 5.953125 8.34375 10.109375 
L 8.34375 27.203125 
Q 8.34375 34.578125 7.90625 36.71875 
Q 7.5625 38.328125 6.828125 38.9375 
Q 6.109375 39.546875 4.828125 39.546875 
Q 3.46875 39.546875 1.5625 38.8125 
L 0.828125 40.578125 
L 14.3125 46.046875 
L 16.40625 46.046875 
z
" id="TimesNewRomanPSMT-109"/>
       <path d="M -0.09375 40.28125 
L 13.671875 45.84375 
L 15.53125 45.84375 
L 15.53125 35.40625 
Q 19 41.3125 22.484375 43.671875 
Q 25.984375 46.046875 29.828125 46.046875 
Q 36.578125 46.046875 41.0625 40.765625 
Q 46.578125 34.328125 46.578125 23.96875 
Q 46.578125 12.40625 39.9375 4.828125 
Q 34.46875 -1.375 26.171875 -1.375 
Q 22.5625 -1.375 19.921875 -0.34375 
Q 17.96875 0.390625 15.53125 2.59375 
L 15.53125 -11.03125 
Q 15.53125 -15.625 16.09375 -16.859375 
Q 16.65625 -18.109375 18.046875 -18.84375 
Q 19.4375 -19.578125 23.09375 -19.578125 
L 23.09375 -21.390625 
L -0.34375 -21.390625 
L -0.34375 -19.578125 
L 0.875 -19.578125 
Q 3.5625 -19.625 5.46875 -18.5625 
Q 6.390625 -18.015625 6.90625 -16.8125 
Q 7.421875 -15.625 7.421875 -10.75 
L 7.421875 31.546875 
Q 7.421875 35.890625 7.03125 37.0625 
Q 6.640625 38.234375 5.78125 38.8125 
Q 4.9375 39.40625 3.46875 39.40625 
Q 2.296875 39.40625 0.484375 38.71875 
z
M 15.53125 32.515625 
L 15.53125 15.828125 
Q 15.53125 10.40625 15.96875 8.6875 
Q 16.65625 5.859375 19.3125 3.703125 
Q 21.96875 1.5625 26.03125 1.5625 
Q 30.90625 1.5625 33.9375 5.375 
Q 37.890625 10.359375 37.890625 19.390625 
Q 37.890625 29.640625 33.40625 35.15625 
Q 30.28125 38.96875 25.984375 38.96875 
Q 23.640625 38.96875 21.34375 37.796875 
Q 19.578125 36.921875 15.53125 32.515625 
z
" id="TimesNewRomanPSMT-112"/>
       <path d="M 1.3125 44.734375 
L 22.359375 44.734375 
L 22.359375 42.921875 
Q 20.359375 42.921875 19.546875 42.234375 
Q 18.75 41.546875 18.75 40.4375 
Q 18.75 39.265625 20.453125 36.8125 
Q 21 36.03125 22.078125 34.375 
L 25.25 29.296875 
L 28.90625 34.375 
Q 32.421875 39.203125 32.421875 40.484375 
Q 32.421875 41.5 31.59375 42.203125 
Q 30.765625 42.921875 28.90625 42.921875 
L 28.90625 44.734375 
L 44.046875 44.734375 
L 44.046875 42.921875 
Q 41.65625 42.78125 39.890625 41.609375 
Q 37.5 39.9375 33.34375 34.375 
L 27.25 26.21875 
L 38.375 10.203125 
Q 42.484375 4.296875 44.234375 3.09375 
Q 46 1.90625 48.78125 1.765625 
L 48.78125 0 
L 27.6875 0 
L 27.6875 1.765625 
Q 29.890625 1.765625 31.109375 2.734375 
Q 32.03125 3.421875 32.03125 4.546875 
Q 32.03125 5.671875 28.90625 10.203125 
L 22.359375 19.78125 
L 15.1875 10.203125 
Q 11.859375 5.765625 11.859375 4.9375 
Q 11.859375 3.765625 12.953125 2.8125 
Q 14.0625 1.859375 16.265625 1.765625 
L 16.265625 0 
L 1.65625 0 
L 1.65625 1.765625 
Q 3.421875 2 4.734375 2.984375 
Q 6.59375 4.390625 10.984375 10.203125 
L 20.359375 22.65625 
L 11.859375 34.96875 
Q 8.25 40.234375 6.265625 41.578125 
Q 4.296875 42.921875 1.3125 42.921875 
z
" id="TimesNewRomanPSMT-120"/>
      </defs>
      <use xlink:href="#TimesNewRomanPSMT-83"/>
      <use x="55.615234" xlink:href="#TimesNewRomanPSMT-105"/>
      <use x="83.398438" xlink:href="#TimesNewRomanPSMT-109"/>
      <use x="161.181641" xlink:href="#TimesNewRomanPSMT-112"/>
      <use x="211.181641" xlink:href="#TimesNewRomanPSMT-108"/>
      <use x="238.964844" xlink:href="#TimesNewRomanPSMT-101"/>
      <use x="283.349609" xlink:href="#TimesNewRomanPSMT-120"/>
     </g>
    </g>
    <g id="line2d_18">
     <path d="M 253.194531 141.943086 
L 278.194531 141.943086 
" style="fill:none;stroke:#000000;stroke-linecap:square;stroke-width:1.5;"/>
    </g>
    <g id="line2d_19"/>
    <g id="text_13">
     <!-- Newton Fin. Diff. -->
     <g transform="translate(288.194531 146.318086)scale(0.125 -0.125)">
      <defs>
       <path d="M 0.640625 44.734375 
L 19.390625 44.734375 
L 19.390625 42.921875 
Q 16.796875 42.71875 15.984375 41.984375 
Q 15.1875 41.265625 15.1875 39.890625 
Q 15.1875 38.375 16.015625 36.234375 
L 25.59375 10.5 
L 35.203125 31.453125 
L 32.671875 38.03125 
Q 31.5 40.96875 29.59375 42.09375 
Q 28.515625 42.78125 25.59375 42.921875 
L 25.59375 44.734375 
L 46.875 44.734375 
L 46.875 42.921875 
Q 43.359375 42.78125 41.890625 41.65625 
Q 40.921875 40.875 40.921875 39.15625 
Q 40.921875 38.1875 41.3125 37.15625 
L 51.46875 11.46875 
L 60.890625 36.234375 
Q 61.859375 38.875 61.859375 40.4375 
Q 61.859375 41.359375 60.90625 42.09375 
Q 59.96875 42.828125 57.171875 42.921875 
L 57.171875 44.734375 
L 71.296875 44.734375 
L 71.296875 42.921875 
Q 67.046875 42.28125 65.046875 37.15625 
L 50.09375 -1.375 
L 48.09375 -1.375 
L 36.921875 27.203125 
L 23.875 -1.375 
L 22.078125 -1.375 
L 7.71875 36.234375 
Q 6.296875 39.796875 4.921875 41.03125 
Q 3.5625 42.28125 0.640625 42.921875 
z
" id="TimesNewRomanPSMT-119"/>
       <path d="M 20.453125 62.59375 
L 20.453125 36.578125 
L 32.515625 36.578125 
Q 36.671875 36.578125 38.59375 38.40625 
Q 40.53125 40.234375 41.15625 45.65625 
L 42.96875 45.65625 
L 42.96875 23.25 
L 41.15625 23.25 
Q 41.109375 27.09375 40.15625 28.90625 
Q 39.203125 30.71875 37.515625 31.609375 
Q 35.84375 32.515625 32.515625 32.515625 
L 20.453125 32.515625 
L 20.453125 11.71875 
Q 20.453125 6.6875 21.09375 5.078125 
Q 21.578125 3.859375 23.140625 2.984375 
Q 25.296875 1.8125 27.640625 1.8125 
L 30.03125 1.8125 
L 30.03125 0 
L 1.609375 0 
L 1.609375 1.8125 
L 3.953125 1.8125 
Q 8.0625 1.8125 9.90625 4.203125 
Q 11.078125 5.765625 11.078125 11.71875 
L 11.078125 54.5 
Q 11.078125 59.515625 10.453125 61.140625 
Q 9.96875 62.359375 8.453125 63.234375 
Q 6.34375 64.40625 3.953125 64.40625 
L 1.609375 64.40625 
L 1.609375 66.21875 
L 50.875 66.21875 
L 51.515625 51.65625 
L 49.8125 51.65625 
Q 48.53125 56.296875 46.84375 58.46875 
Q 45.171875 60.640625 42.703125 61.609375 
Q 40.234375 62.59375 35.0625 62.59375 
z
" id="TimesNewRomanPSMT-70"/>
       <path d="M 1.703125 0 
L 1.703125 1.8125 
L 4.203125 1.8125 
Q 8.40625 1.8125 10.15625 4.5 
Q 11.234375 6.109375 11.234375 11.71875 
L 11.234375 54.5 
Q 11.234375 60.6875 9.859375 62.25 
Q 7.953125 64.40625 4.203125 64.40625 
L 1.703125 64.40625 
L 1.703125 66.21875 
L 28.65625 66.21875 
Q 43.5 66.21875 51.234375 62.84375 
Q 58.984375 59.46875 63.6875 51.609375 
Q 68.40625 43.75 68.40625 33.453125 
Q 68.40625 19.625 60.015625 10.359375 
Q 50.59375 0 31.296875 0 
z
M 20.609375 4.78125 
Q 26.8125 3.421875 31 3.421875 
Q 42.328125 3.421875 49.796875 11.375 
Q 57.28125 19.34375 57.28125 32.953125 
Q 57.28125 46.6875 49.796875 54.59375 
Q 42.328125 62.5 30.609375 62.5 
Q 26.21875 62.5 20.609375 61.078125 
z
" id="TimesNewRomanPSMT-68"/>
      </defs>
      <use xlink:href="#TimesNewRomanPSMT-78"/>
      <use x="72.216797" xlink:href="#TimesNewRomanPSMT-101"/>
      <use x="116.601562" xlink:href="#TimesNewRomanPSMT-119"/>
      <use x="188.818359" xlink:href="#TimesNewRomanPSMT-116"/>
      <use x="216.601562" xlink:href="#TimesNewRomanPSMT-111"/>
      <use x="266.601562" xlink:href="#TimesNewRomanPSMT-110"/>
      <use x="316.601562" xlink:href="#TimesNewRomanPSMT-32"/>
      <use x="341.601562" xlink:href="#TimesNewRomanPSMT-70"/>
      <use x="397.216797" xlink:href="#TimesNewRomanPSMT-105"/>
      <use x="425" xlink:href="#TimesNewRomanPSMT-110"/>
      <use x="475" xlink:href="#TimesNewRomanPSMT-46"/>
      <use x="500" xlink:href="#TimesNewRomanPSMT-32"/>
      <use x="525" xlink:href="#TimesNewRomanPSMT-68"/>
      <use x="597.216797" xlink:href="#TimesNewRomanPSMT-105"/>
      <use x="625" xlink:href="#TimesNewRomanPSMT-102"/>
      <use x="656.550781" xlink:href="#TimesNewRomanPSMT-102"/>
      <use x="689.851562" xlink:href="#TimesNewRomanPSMT-46"/>
     </g>
    </g>
    <g id="line2d_20">
     <path d="M 253.194531 159.616914 
L 278.194531 159.616914 
" style="fill:none;stroke:#0000ff;stroke-linecap:square;stroke-width:1.5;"/>
    </g>
    <g id="line2d_21"/>
    <g id="text_14">
     <!-- Adam -->
     <g transform="translate(288.194531 163.991914)scale(0.125 -0.125)">
      <defs>
       <path d="M 45.75 22.171875 
L 20.125 22.171875 
L 15.625 11.71875 
Q 13.96875 7.859375 13.96875 5.953125 
Q 13.96875 4.4375 15.40625 3.296875 
Q 16.84375 2.15625 21.625 1.8125 
L 21.625 0 
L 0.78125 0 
L 0.78125 1.8125 
Q 4.9375 2.546875 6.15625 3.71875 
Q 8.640625 6.0625 11.671875 13.234375 
L 34.96875 67.71875 
L 36.671875 67.71875 
L 59.71875 12.640625 
Q 62.5 6 64.765625 4.015625 
Q 67.046875 2.046875 71.09375 1.8125 
L 71.09375 0 
L 44.96875 0 
L 44.96875 1.8125 
Q 48.921875 2 50.3125 3.125 
Q 51.703125 4.25 51.703125 5.859375 
Q 51.703125 8.015625 49.75 12.640625 
z
M 44.390625 25.78125 
L 33.15625 52.546875 
L 21.625 25.78125 
z
" id="TimesNewRomanPSMT-65"/>
       <path d="M 34.71875 5.03125 
Q 31.453125 1.609375 28.328125 0.109375 
Q 25.203125 -1.375 21.578125 -1.375 
Q 14.265625 -1.375 8.796875 4.75 
Q 3.328125 10.890625 3.328125 20.515625 
Q 3.328125 30.125 9.375 38.109375 
Q 15.4375 46.09375 24.953125 46.09375 
Q 30.859375 46.09375 34.71875 42.328125 
L 34.71875 50.59375 
Q 34.71875 58.25 34.34375 60 
Q 33.984375 61.765625 33.203125 62.390625 
Q 32.421875 63.03125 31.25 63.03125 
Q 29.984375 63.03125 27.875 62.25 
L 27.25 63.96875 
L 40.578125 69.4375 
L 42.78125 69.4375 
L 42.78125 17.71875 
Q 42.78125 9.859375 43.140625 8.125 
Q 43.5 6.390625 44.3125 5.703125 
Q 45.125 5.03125 46.1875 5.03125 
Q 47.515625 5.03125 49.703125 5.859375 
L 50.25 4.15625 
L 36.96875 -1.375 
L 34.71875 -1.375 
z
M 34.71875 8.453125 
L 34.71875 31.5 
Q 34.421875 34.8125 32.953125 37.546875 
Q 31.5 40.28125 29.078125 41.671875 
Q 26.65625 43.0625 24.359375 43.0625 
Q 20.0625 43.0625 16.703125 39.203125 
Q 12.25 34.125 12.25 24.359375 
Q 12.25 14.5 16.546875 9.25 
Q 20.84375 4 26.125 4 
Q 30.5625 4 34.71875 8.453125 
z
" id="TimesNewRomanPSMT-100"/>
      </defs>
      <use xlink:href="#TimesNewRomanPSMT-65"/>
      <use x="72.216797" xlink:href="#TimesNewRomanPSMT-100"/>
      <use x="122.216797" xlink:href="#TimesNewRomanPSMT-97"/>
      <use x="166.601562" xlink:href="#TimesNewRomanPSMT-109"/>
     </g>
    </g>
    <g id="line2d_22">
     <path d="M 253.194531 177.290742 
L 278.194531 177.290742 
" style="fill:none;stroke:#ee82ee;stroke-linecap:square;stroke-width:1.5;"/>
    </g>
    <g id="line2d_23"/>
    <g id="text_15">
     <!-- DIRECT -->
     <g transform="translate(288.194531 181.665742)scale(0.125 -0.125)">
      <defs>
       <path d="M 30.859375 1.8125 
L 30.859375 0 
L 2.484375 0 
L 2.484375 1.8125 
L 4.828125 1.8125 
Q 8.9375 1.8125 10.796875 4.203125 
Q 11.96875 5.765625 11.96875 11.71875 
L 11.96875 54.5 
Q 11.96875 59.515625 11.328125 61.140625 
Q 10.84375 62.359375 9.328125 63.234375 
Q 7.171875 64.40625 4.828125 64.40625 
L 2.484375 64.40625 
L 2.484375 66.21875 
L 30.859375 66.21875 
L 30.859375 64.40625 
L 28.46875 64.40625 
Q 24.421875 64.40625 22.5625 62.015625 
Q 21.34375 60.453125 21.34375 54.5 
L 21.34375 11.71875 
Q 21.34375 6.6875 21.96875 5.078125 
Q 22.46875 3.859375 24.03125 2.984375 
Q 26.125 1.8125 28.46875 1.8125 
z
" id="TimesNewRomanPSMT-73"/>
       <path d="M 67.578125 0 
L 49.90625 0 
L 27.484375 30.953125 
Q 25 30.859375 23.4375 30.859375 
Q 22.796875 30.859375 22.0625 30.875 
Q 21.34375 30.90625 20.5625 30.953125 
L 20.5625 11.71875 
Q 20.5625 5.46875 21.921875 3.953125 
Q 23.78125 1.8125 27.484375 1.8125 
L 30.078125 1.8125 
L 30.078125 0 
L 1.703125 0 
L 1.703125 1.8125 
L 4.203125 1.8125 
Q 8.40625 1.8125 10.203125 4.546875 
Q 11.234375 6.0625 11.234375 11.71875 
L 11.234375 54.5 
Q 11.234375 60.75 9.859375 62.25 
Q 7.953125 64.40625 4.203125 64.40625 
L 1.703125 64.40625 
L 1.703125 66.21875 
L 25.828125 66.21875 
Q 36.375 66.21875 41.375 64.671875 
Q 46.390625 63.140625 49.875 59.015625 
Q 53.375 54.890625 53.375 49.171875 
Q 53.375 43.0625 49.390625 38.5625 
Q 45.40625 34.078125 37.0625 32.234375 
L 50.734375 13.234375 
Q 55.421875 6.6875 58.78125 4.53125 
Q 62.15625 2.390625 67.578125 1.8125 
z
M 20.5625 34.03125 
Q 21.484375 34.03125 22.171875 34 
Q 22.859375 33.984375 23.296875 33.984375 
Q 32.765625 33.984375 37.578125 38.078125 
Q 42.390625 42.1875 42.390625 48.53125 
Q 42.390625 54.734375 38.5 58.609375 
Q 34.625 62.5 28.21875 62.5 
Q 25.390625 62.5 20.5625 61.578125 
z
" id="TimesNewRomanPSMT-82"/>
       <path d="M 20.90625 62.59375 
L 20.90625 36.421875 
L 35.453125 36.421875 
Q 41.109375 36.421875 43.015625 38.140625 
Q 45.5625 40.375 45.84375 46.046875 
L 47.65625 46.046875 
L 47.65625 23 
L 45.84375 23 
Q 45.171875 27.828125 44.484375 29.203125 
Q 43.609375 30.90625 41.59375 31.875 
Q 39.59375 32.859375 35.453125 32.859375 
L 20.90625 32.859375 
L 20.90625 11.03125 
Q 20.90625 6.640625 21.296875 5.6875 
Q 21.6875 4.734375 22.65625 4.171875 
Q 23.640625 3.609375 26.375 3.609375 
L 37.59375 3.609375 
Q 43.21875 3.609375 45.75 4.390625 
Q 48.296875 5.171875 50.640625 7.46875 
Q 53.65625 10.5 56.84375 16.609375 
L 58.796875 16.609375 
L 53.078125 0 
L 2.046875 0 
L 2.046875 1.8125 
L 4.390625 1.8125 
Q 6.734375 1.8125 8.84375 2.9375 
Q 10.40625 3.71875 10.96875 5.28125 
Q 11.53125 6.84375 11.53125 11.671875 
L 11.53125 54.6875 
Q 11.53125 60.984375 10.25 62.453125 
Q 8.5 64.40625 4.390625 64.40625 
L 2.046875 64.40625 
L 2.046875 66.21875 
L 53.078125 66.21875 
L 53.8125 51.703125 
L 51.90625 51.703125 
Q 50.875 56.9375 49.625 58.890625 
Q 48.390625 60.84375 45.953125 61.859375 
Q 44 62.59375 39.0625 62.59375 
z
" id="TimesNewRomanPSMT-69"/>
       <path d="M 60.203125 67.71875 
L 61.71875 45.21875 
L 60.203125 45.21875 
Q 57.171875 55.328125 51.5625 59.765625 
Q 45.953125 64.203125 38.09375 64.203125 
Q 31.5 64.203125 26.171875 60.859375 
Q 20.84375 57.515625 17.796875 50.1875 
Q 14.75 42.875 14.75 31.984375 
Q 14.75 23 17.625 16.40625 
Q 20.515625 9.8125 26.296875 6.296875 
Q 32.078125 2.78125 39.5 2.78125 
Q 45.953125 2.78125 50.875 5.53125 
Q 55.8125 8.296875 61.71875 16.5 
L 63.234375 15.53125 
Q 58.25 6.6875 51.609375 2.578125 
Q 44.96875 -1.515625 35.84375 -1.515625 
Q 19.390625 -1.515625 10.359375 10.6875 
Q 3.609375 19.78125 3.609375 32.078125 
Q 3.609375 42 8.046875 50.296875 
Q 12.5 58.59375 20.28125 63.15625 
Q 28.078125 67.71875 37.3125 67.71875 
Q 44.484375 67.71875 51.46875 64.203125 
Q 53.515625 63.140625 54.390625 63.140625 
Q 55.71875 63.140625 56.6875 64.0625 
Q 57.953125 65.375 58.5 67.71875 
z
" id="TimesNewRomanPSMT-67"/>
       <path d="M 57.859375 66.21875 
L 58.59375 50.6875 
L 56.734375 50.6875 
Q 56.203125 54.78125 55.28125 56.546875 
Q 53.765625 59.375 51.25 60.71875 
Q 48.734375 62.0625 44.625 62.0625 
L 35.296875 62.0625 
L 35.296875 11.46875 
Q 35.296875 5.375 36.625 3.859375 
Q 38.484375 1.8125 42.328125 1.8125 
L 44.625 1.8125 
L 44.625 0 
L 16.546875 0 
L 16.546875 1.8125 
L 18.890625 1.8125 
Q 23.09375 1.8125 24.859375 4.34375 
Q 25.921875 5.90625 25.921875 11.46875 
L 25.921875 62.0625 
L 17.96875 62.0625 
Q 13.328125 62.0625 11.375 61.375 
Q 8.84375 60.453125 7.03125 57.8125 
Q 5.21875 55.171875 4.890625 50.6875 
L 3.03125 50.6875 
L 3.8125 66.21875 
z
" id="TimesNewRomanPSMT-84"/>
      </defs>
      <use xlink:href="#TimesNewRomanPSMT-68"/>
      <use x="72.216797" xlink:href="#TimesNewRomanPSMT-73"/>
      <use x="105.517578" xlink:href="#TimesNewRomanPSMT-82"/>
      <use x="172.216797" xlink:href="#TimesNewRomanPSMT-69"/>
      <use x="233.300781" xlink:href="#TimesNewRomanPSMT-67"/>
      <use x="300" xlink:href="#TimesNewRomanPSMT-84"/>
     </g>
    </g>
   </g>
  </g>
 </g>
 <defs>
  <clipPath id="pe18e72c0e4">
   <rect height="217.44" width="334.8" x="54" y="34.56"/>
  </clipPath>
 </defs>
</svg>
