<?xml version="1.0" encoding="utf-8" standalone="no"?>
<!DOCTYPE svg PUBLIC "-//W3C//DTD SVG 1.1//EN"
  "http://www.w3.org/Graphics/SVG/1.1/DTD/svg11.dtd">
<!-- Created with matplotlib (https://matplotlib.org/) -->
<svg height="288pt" version="1.1" viewBox="0 0 432 288" width="432pt" xmlns="http://www.w3.org/2000/svg" xmlns:xlink="http://www.w3.org/1999/xlink">
 <metadata>
  <rdf:RDF xmlns:cc="http://creativecommons.org/ns#" xmlns:dc="http://purl.org/dc/elements/1.1/" xmlns:rdf="http://www.w3.org/1999/02/22-rdf-syntax-ns#">
   <cc:Work>
    <dc:type rdf:resource="http://purl.org/dc/dcmitype/StillImage"/>
    <dc:date>2021-04-14T20:09:02.357148</dc:date>
    <dc:format>image/svg+xml</dc:format>
    <dc:creator>
     <cc:Agent>
      <dc:title>Matplotlib v3.3.4, https://matplotlib.org/</dc:title>
     </cc:Agent>
    </dc:creator>
   </cc:Work>
  </rdf:RDF>
 </metadata>
 <defs>
  <style type="text/css">*{stroke-linecap:butt;stroke-linejoin:round;}</style>
 </defs>
 <g id="figure_1">
  <g id="patch_1">
   <path d="M 0 288 
L 432 288 
L 432 0 
L 0 0 
z
" style="fill:#ffffff;"/>
  </g>
  <g id="axes_1">
   <g id="patch_2">
    <path d="M 54 252 
L 388.8 252 
L 388.8 34.56 
L 54 34.56 
z
" style="fill:#ffffff;"/>
   </g>
   <g id="PolyCollection_1">
    <defs>
     <path d="M 57.381818 -202.466743 
L 57.381818 -201.641774 
L 60.763636 -201.641774 
L 64.145455 -201.641774 
L 67.527273 -201.641774 
L 70.909091 -201.641774 
L 74.290909 -201.641774 
L 77.672727 -201.641774 
L 81.054545 -201.641774 
L 84.436364 -201.641774 
L 87.818182 -201.641774 
L 91.2 -201.641774 
L 94.581818 -201.641774 
L 97.963636 -201.641774 
L 101.345455 -201.641774 
L 104.727273 -201.641774 
L 108.109091 -201.641774 
L 111.490909 -62.813126 
L 114.872727 -62.813126 
L 118.254545 -62.813126 
L 121.636364 -62.813126 
L 125.018182 -62.813126 
L 128.4 -61.238104 
L 131.781818 -61.238104 
L 135.163636 -61.238104 
L 138.545455 -59.426757 
L 141.927273 -59.426757 
L 145.309091 -58.689922 
L 148.690909 -58.689922 
L 152.072727 -58.689922 
L 155.454545 -58.335576 
L 158.836364 -58.335576 
L 162.218182 -58.335576 
L 165.6 -58.335576 
L 168.981818 -58.335576 
L 172.363636 -57.284108 
L 175.745455 -57.284108 
L 179.127273 -57.284108 
L 182.509091 -57.284108 
L 185.890909 -57.284108 
L 189.272727 -57.284108 
L 192.654545 -57.284108 
L 196.036364 -57.284108 
L 199.418182 -56.744916 
L 202.8 -56.744916 
L 206.181818 -56.744916 
L 209.563636 -56.744916 
L 212.945455 -56.744916 
L 216.327273 -56.744916 
L 219.709091 -56.744916 
L 223.090909 -56.744916 
L 226.472727 -56.744916 
L 229.854545 -56.744916 
L 233.236364 -56.744916 
L 236.618182 -56.744916 
L 240 -56.744916 
L 243.381818 -56.744916 
L 246.763636 -56.744916 
L 250.145455 -56.744916 
L 253.527273 -56.744916 
L 256.909091 -56.744916 
L 260.290909 -56.744916 
L 263.672727 -56.744916 
L 267.054545 -56.744916 
L 270.436364 -56.744916 
L 273.818182 -56.744916 
L 277.2 -56.744916 
L 280.581818 -56.744916 
L 283.963636 -56.744916 
L 287.345455 -56.744916 
L 290.727273 -56.744916 
L 294.109091 -56.744916 
L 297.490909 -56.744916 
L 300.872727 -56.744916 
L 304.254545 -56.744916 
L 307.636364 -56.744916 
L 311.018182 -56.744916 
L 314.4 -56.744916 
L 317.781818 -56.627438 
L 321.163636 -56.627438 
L 324.545455 -56.627438 
L 327.927273 -56.627438 
L 331.309091 -56.627438 
L 334.690909 -56.627438 
L 338.072727 -56.627438 
L 341.454545 -56.627438 
L 344.836364 -56.627438 
L 348.218182 -56.627438 
L 351.6 -56.627438 
L 354.981818 -56.627438 
L 358.363636 -56.627438 
L 361.745455 -56.627438 
L 365.127273 -56.627438 
L 368.509091 -56.627438 
L 371.890909 -56.627438 
L 375.272727 -56.627438 
L 378.654545 -56.627438 
L 382.036364 -56.47922 
L 385.418182 -56.47922 
L 388.8 -56.47922 
L 392.181818 -56.47922 
L 392.181818 -58.384631 
L 392.181818 -58.384631 
L 388.8 -58.384631 
L 385.418182 -58.384631 
L 382.036364 -58.384631 
L 378.654545 -58.384631 
L 375.272727 -58.384631 
L 371.890909 -58.384631 
L 368.509091 -58.384631 
L 365.127273 -58.384631 
L 361.745455 -58.384631 
L 358.363636 -58.384631 
L 354.981818 -58.384631 
L 351.6 -58.384631 
L 348.218182 -58.384631 
L 344.836364 -58.384631 
L 341.454545 -58.384631 
L 338.072727 -58.384631 
L 334.690909 -58.384631 
L 331.309091 -58.384631 
L 327.927273 -58.384631 
L 324.545455 -58.384631 
L 321.163636 -58.384631 
L 317.781818 -58.384631 
L 314.4 -58.384631 
L 311.018182 -58.384631 
L 307.636364 -58.384631 
L 304.254545 -58.384631 
L 300.872727 -58.695065 
L 297.490909 -58.695065 
L 294.109091 -58.695065 
L 290.727273 -58.695065 
L 287.345455 -58.695065 
L 283.963636 -58.695065 
L 280.581818 -58.695065 
L 277.2 -58.695065 
L 273.818182 -58.695065 
L 270.436364 -58.695065 
L 267.054545 -58.695065 
L 263.672727 -58.695065 
L 260.290909 -58.695065 
L 256.909091 -58.695065 
L 253.527273 -58.784849 
L 250.145455 -58.784849 
L 246.763636 -58.784849 
L 243.381818 -58.784849 
L 240 -58.920242 
L 236.618182 -58.920242 
L 233.236364 -58.920242 
L 229.854545 -58.920242 
L 226.472727 -59.211819 
L 223.090909 -59.211819 
L 219.709091 -59.211819 
L 216.327273 -59.211819 
L 212.945455 -59.211819 
L 209.563636 -59.211819 
L 206.181818 -59.396056 
L 202.8 -59.396056 
L 199.418182 -59.396056 
L 196.036364 -59.396056 
L 192.654545 -59.396056 
L 189.272727 -59.798097 
L 185.890909 -59.798097 
L 182.509091 -63.568091 
L 179.127273 -63.568091 
L 175.745455 -63.568091 
L 172.363636 -63.568091 
L 168.981818 -63.568091 
L 165.6 -63.568091 
L 162.218182 -63.568091 
L 158.836364 -63.976103 
L 155.454545 -63.976103 
L 152.072727 -65.685976 
L 148.690909 -69.045308 
L 145.309091 -71.336987 
L 141.927273 -71.336987 
L 138.545455 -71.336987 
L 135.163636 -76.744569 
L 131.781818 -76.744569 
L 128.4 -76.744569 
L 125.018182 -137.560664 
L 121.636364 -137.560664 
L 118.254545 -137.560664 
L 114.872727 -137.560664 
L 111.490909 -137.560664 
L 108.109091 -202.466743 
L 104.727273 -202.466743 
L 101.345455 -202.466743 
L 97.963636 -202.466743 
L 94.581818 -202.466743 
L 91.2 -202.466743 
L 87.818182 -202.466743 
L 84.436364 -202.466743 
L 81.054545 -202.466743 
L 77.672727 -202.466743 
L 74.290909 -202.466743 
L 70.909091 -202.466743 
L 67.527273 -202.466743 
L 64.145455 -202.466743 
L 60.763636 -202.466743 
L 57.381818 -202.466743 
z
" id="m147aad28d5" style="stroke:#0000ff;stroke-opacity:0.5;"/>
    </defs>
    <g clip-path="url(#p223a9284fc)">
     <use style="fill:#0000ff;fill-opacity:0.5;stroke:#0000ff;stroke-opacity:0.5;" x="0" xlink:href="#m147aad28d5" y="288"/>
    </g>
   </g>
   <g id="PolyCollection_2">
    <defs>
     <path d="M 57.381818 -202.466743 
L 57.381818 -201.641774 
L 60.763636 -201.641774 
L 64.145455 -201.641774 
L 67.527273 -201.641774 
L 70.909091 -201.641774 
L 74.290909 -201.641774 
L 77.672727 -201.641774 
L 81.054545 -119.646047 
L 84.436364 -119.646047 
L 87.818182 -63.000153 
L 91.2 -63.000153 
L 94.581818 -60.115932 
L 97.963636 -60.115932 
L 101.345455 -58.856397 
L 104.727273 -58.856397 
L 108.109091 -58.856397 
L 111.490909 -58.856397 
L 114.872727 -58.22778 
L 118.254545 -58.22778 
L 121.636364 -58.22778 
L 125.018182 -58.22778 
L 128.4 -58.22778 
L 131.781818 -58.22778 
L 135.163636 -58.22778 
L 138.545455 -58.077963 
L 141.927273 -58.077963 
L 145.309091 -58.077963 
L 148.690909 -58.077963 
L 152.072727 -58.077963 
L 155.454545 -58.077963 
L 158.836364 -57.464732 
L 162.218182 -57.464732 
L 165.6 -57.464732 
L 168.981818 -57.464732 
L 172.363636 -57.464732 
L 175.745455 -57.464732 
L 179.127273 -57.464732 
L 182.509091 -57.464732 
L 185.890909 -57.464732 
L 189.272727 -57.464732 
L 192.654545 -57.39735 
L 196.036364 -57.39735 
L 199.418182 -57.050363 
L 202.8 -57.050363 
L 206.181818 -57.050363 
L 209.563636 -57.050363 
L 212.945455 -57.050363 
L 216.327273 -57.050363 
L 219.709091 -57.050363 
L 223.090909 -57.050363 
L 226.472727 -57.050363 
L 229.854545 -57.050363 
L 233.236364 -57.050363 
L 236.618182 -57.050363 
L 240 -57.050363 
L 243.381818 -57.050363 
L 246.763636 -57.050363 
L 250.145455 -57.050363 
L 253.527273 -57.050363 
L 256.909091 -57.050363 
L 260.290909 -57.050363 
L 263.672727 -57.050363 
L 267.054545 -57.050363 
L 270.436364 -57.050363 
L 273.818182 -57.050363 
L 277.2 -57.050363 
L 280.581818 -57.050363 
L 283.963636 -57.050363 
L 287.345455 -57.050363 
L 290.727273 -57.050363 
L 294.109091 -57.050363 
L 297.490909 -57.050363 
L 300.872727 -57.050363 
L 304.254545 -57.050363 
L 307.636364 -57.050363 
L 311.018182 -57.050363 
L 314.4 -57.050363 
L 317.781818 -57.050363 
L 321.163636 -57.050363 
L 324.545455 -57.050363 
L 327.927273 -57.050363 
L 331.309091 -57.050363 
L 334.690909 -57.050363 
L 338.072727 -57.050363 
L 341.454545 -57.050363 
L 344.836364 -57.050363 
L 348.218182 -57.050363 
L 351.6 -57.050363 
L 354.981818 -57.050363 
L 358.363636 -57.050363 
L 361.745455 -56.724948 
L 365.127273 -56.724948 
L 368.509091 -56.724948 
L 371.890909 -56.724948 
L 375.272727 -56.724948 
L 378.654545 -56.724948 
L 382.036364 -56.724948 
L 385.418182 -56.724948 
L 388.8 -56.724948 
L 392.181818 -56.724948 
L 392.181818 -59.67948 
L 392.181818 -59.67948 
L 388.8 -59.67948 
L 385.418182 -59.67948 
L 382.036364 -59.67948 
L 378.654545 -59.67948 
L 375.272727 -59.67948 
L 371.890909 -59.67948 
L 368.509091 -59.67948 
L 365.127273 -59.67948 
L 361.745455 -59.67948 
L 358.363636 -59.67948 
L 354.981818 -59.67948 
L 351.6 -59.67948 
L 348.218182 -60.206592 
L 344.836364 -60.206592 
L 341.454545 -60.206592 
L 338.072727 -60.206592 
L 334.690909 -60.206592 
L 331.309091 -60.206592 
L 327.927273 -60.206592 
L 324.545455 -60.206592 
L 321.163636 -60.206592 
L 317.781818 -60.206592 
L 314.4 -60.206592 
L 311.018182 -60.206592 
L 307.636364 -60.206592 
L 304.254545 -60.206592 
L 300.872727 -60.206592 
L 297.490909 -60.206592 
L 294.109091 -60.206592 
L 290.727273 -60.206592 
L 287.345455 -60.206592 
L 283.963636 -60.206592 
L 280.581818 -60.206592 
L 277.2 -60.206592 
L 273.818182 -60.206592 
L 270.436364 -60.206592 
L 267.054545 -60.206592 
L 263.672727 -60.206592 
L 260.290909 -60.206592 
L 256.909091 -60.206592 
L 253.527273 -60.206592 
L 250.145455 -60.206592 
L 246.763636 -60.206592 
L 243.381818 -60.206592 
L 240 -60.206592 
L 236.618182 -60.206592 
L 233.236364 -60.206592 
L 229.854545 -60.206592 
L 226.472727 -60.206592 
L 223.090909 -60.206592 
L 219.709091 -60.206592 
L 216.327273 -60.206592 
L 212.945455 -60.206592 
L 209.563636 -60.206592 
L 206.181818 -60.206592 
L 202.8 -60.206592 
L 199.418182 -60.206592 
L 196.036364 -60.206592 
L 192.654545 -60.206592 
L 189.272727 -60.206592 
L 185.890909 -60.258526 
L 182.509091 -60.258526 
L 179.127273 -60.258526 
L 175.745455 -60.258526 
L 172.363636 -60.258526 
L 168.981818 -60.258526 
L 165.6 -60.258526 
L 162.218182 -60.258526 
L 158.836364 -60.258526 
L 155.454545 -60.258526 
L 152.072727 -60.258526 
L 148.690909 -61.229128 
L 145.309091 -61.229128 
L 141.927273 -61.229128 
L 138.545455 -61.229128 
L 135.163636 -61.229128 
L 131.781818 -61.229128 
L 128.4 -61.229128 
L 125.018182 -64.372536 
L 121.636364 -64.600703 
L 118.254545 -64.600703 
L 114.872727 -64.600703 
L 111.490909 -64.600703 
L 108.109091 -64.600703 
L 104.727273 -64.600703 
L 101.345455 -119.986927 
L 97.963636 -119.986927 
L 94.581818 -119.986927 
L 91.2 -120.451949 
L 87.818182 -120.451949 
L 84.436364 -120.451949 
L 81.054545 -120.451949 
L 77.672727 -202.466743 
L 74.290909 -202.466743 
L 70.909091 -202.466743 
L 67.527273 -202.466743 
L 64.145455 -202.466743 
L 60.763636 -202.466743 
L 57.381818 -202.466743 
z
" id="m23ca73689a" style="stroke:#00bfbf;stroke-opacity:0.5;"/>
    </defs>
    <g clip-path="url(#p223a9284fc)">
     <use style="fill:#00bfbf;fill-opacity:0.5;stroke:#00bfbf;stroke-opacity:0.5;" x="0" xlink:href="#m23ca73689a" y="288"/>
    </g>
   </g>
   <g id="PolyCollection_3">
    <defs>
     <path d="M 60.763636 -202.466743 
L 60.763636 -201.272151 
L 64.145455 -201.272151 
L 67.527273 -174.718948 
L 70.909091 -174.718948 
L 74.290909 -174.718948 
L 77.672727 -143.118304 
L 81.054545 -143.118304 
L 84.436364 -122.339501 
L 87.818182 -122.339501 
L 91.2 -118.609488 
L 94.581818 -115.087043 
L 97.963636 -112.048141 
L 101.345455 -100.949854 
L 104.727273 -78.658023 
L 108.109091 -72.752846 
L 111.490909 -72.021466 
L 114.872727 -72.021466 
L 118.254545 -72.021466 
L 121.636364 -70.848114 
L 125.018182 -69.099324 
L 128.4 -68.867895 
L 131.781818 -68.867895 
L 135.163636 -63.075212 
L 138.545455 -60.35188 
L 141.927273 -60.35188 
L 145.309091 -60.35188 
L 148.690909 -60.35188 
L 152.072727 -60.101929 
L 155.454545 -60.101929 
L 158.836364 -59.416206 
L 162.218182 -59.416206 
L 165.6 -59.416206 
L 168.981818 -59.416206 
L 172.363636 -59.416206 
L 175.745455 -59.416206 
L 179.127273 -59.416206 
L 182.509091 -59.416206 
L 185.890909 -59.416206 
L 189.272727 -59.416206 
L 192.654545 -59.416206 
L 196.036364 -59.416206 
L 199.418182 -59.416206 
L 202.8 -59.416206 
L 206.181818 -59.416206 
L 209.563636 -59.416206 
L 212.945455 -58.439838 
L 216.327273 -58.439838 
L 219.709091 -58.439838 
L 223.090909 -58.439838 
L 226.472727 -58.439838 
L 229.854545 -58.439838 
L 233.236364 -58.439838 
L 236.618182 -58.439838 
L 240 -58.439838 
L 243.381818 -58.439838 
L 246.763636 -58.439838 
L 250.145455 -58.439838 
L 253.527273 -58.439838 
L 256.909091 -58.439838 
L 260.290909 -58.439838 
L 263.672727 -58.439838 
L 267.054545 -58.439838 
L 270.436364 -58.439838 
L 273.818182 -58.439838 
L 277.2 -58.439838 
L 280.581818 -58.439838 
L 283.963636 -58.439838 
L 287.345455 -58.439838 
L 290.727273 -58.439838 
L 294.109091 -58.439838 
L 297.490909 -58.439838 
L 300.872727 -58.439838 
L 304.254545 -58.439838 
L 307.636364 -58.439838 
L 311.018182 -58.439838 
L 314.4 -58.439838 
L 317.781818 -58.439838 
L 321.163636 -58.439838 
L 324.545455 -58.439838 
L 327.927273 -58.439838 
L 331.309091 -58.439838 
L 334.690909 -58.439838 
L 338.072727 -58.439838 
L 341.454545 -58.439838 
L 344.836364 -58.439838 
L 348.218182 -58.439838 
L 351.6 -58.439838 
L 354.981818 -58.439838 
L 358.363636 -58.439838 
L 361.745455 -58.439838 
L 365.127273 -58.439838 
L 368.509091 -58.439838 
L 371.890909 -58.439838 
L 375.272727 -58.439838 
L 378.654545 -58.439838 
L 382.036364 -58.439838 
L 385.418182 -58.439838 
L 388.8 -58.439838 
L 392.181818 -58.439838 
L 392.181818 -117.462043 
L 392.181818 -117.462043 
L 388.8 -117.462043 
L 385.418182 -117.462043 
L 382.036364 -117.462043 
L 378.654545 -117.462043 
L 375.272727 -117.462043 
L 371.890909 -117.462043 
L 368.509091 -117.462043 
L 365.127273 -117.462043 
L 361.745455 -117.462043 
L 358.363636 -117.462043 
L 354.981818 -117.462043 
L 351.6 -117.462043 
L 348.218182 -117.462043 
L 344.836364 -117.462043 
L 341.454545 -117.462043 
L 338.072727 -117.462043 
L 334.690909 -121.53569 
L 331.309091 -121.53569 
L 327.927273 -121.53569 
L 324.545455 -121.53569 
L 321.163636 -121.53569 
L 317.781818 -121.53569 
L 314.4 -121.53569 
L 311.018182 -121.53569 
L 307.636364 -121.53569 
L 304.254545 -121.53569 
L 300.872727 -121.53569 
L 297.490909 -121.53569 
L 294.109091 -121.53569 
L 290.727273 -121.53569 
L 287.345455 -121.53569 
L 283.963636 -121.53569 
L 280.581818 -121.53569 
L 277.2 -121.53569 
L 273.818182 -121.53569 
L 270.436364 -121.53569 
L 267.054545 -121.53569 
L 263.672727 -121.587251 
L 260.290909 -121.587251 
L 256.909091 -121.587251 
L 253.527273 -121.945981 
L 250.145455 -121.945981 
L 246.763636 -121.945981 
L 243.381818 -122.599176 
L 240 -122.599176 
L 236.618182 -122.599176 
L 233.236364 -125.129831 
L 229.854545 -125.256664 
L 226.472727 -125.256664 
L 223.090909 -125.256664 
L 219.709091 -125.256664 
L 216.327273 -125.256664 
L 212.945455 -125.256664 
L 209.563636 -125.256664 
L 206.181818 -125.256664 
L 202.8 -125.256664 
L 199.418182 -125.256664 
L 196.036364 -125.256664 
L 192.654545 -125.256664 
L 189.272727 -125.256664 
L 185.890909 -125.256664 
L 182.509091 -125.256664 
L 179.127273 -125.256664 
L 175.745455 -125.256664 
L 172.363636 -125.256664 
L 168.981818 -125.256664 
L 165.6 -125.256664 
L 162.218182 -125.256664 
L 158.836364 -125.256664 
L 155.454545 -125.256664 
L 152.072727 -125.256664 
L 148.690909 -125.256664 
L 145.309091 -125.256664 
L 141.927273 -125.256664 
L 138.545455 -125.256664 
L 135.163636 -125.256664 
L 131.781818 -125.256664 
L 128.4 -125.256664 
L 125.018182 -125.256664 
L 121.636364 -125.256664 
L 118.254545 -126.656864 
L 114.872727 -126.656864 
L 111.490909 -126.656864 
L 108.109091 -126.656864 
L 104.727273 -126.656864 
L 101.345455 -126.656864 
L 97.963636 -127.541232 
L 94.581818 -129.06663 
L 91.2 -131.851143 
L 87.818182 -131.851143 
L 84.436364 -131.984648 
L 81.054545 -143.714948 
L 77.672727 -143.714948 
L 74.290909 -175.338742 
L 70.909091 -175.338742 
L 67.527273 -175.338742 
L 64.145455 -202.466743 
L 60.763636 -202.466743 
z
" id="m69b90045d2" style="stroke:#008000;stroke-opacity:0.5;"/>
    </defs>
    <g clip-path="url(#p223a9284fc)">
     <use style="fill:#008000;fill-opacity:0.5;stroke:#008000;stroke-opacity:0.5;" x="0" xlink:href="#m69b90045d2" y="288"/>
    </g>
   </g>
   <g id="PolyCollection_4">
    <defs>
     <path d="M 60.763636 -202.311173 
L 60.763636 -201.480727 
L 64.145455 -201.480727 
L 67.527273 -201.480727 
L 70.909091 -131.622742 
L 74.290909 -131.622742 
L 77.672727 -115.01665 
L 81.054545 -115.01665 
L 84.436364 -115.01665 
L 87.818182 -115.01665 
L 91.2 -115.01665 
L 94.581818 -115.01665 
L 97.963636 -102.152586 
L 101.345455 -85.026383 
L 104.727273 -59.329119 
L 108.109091 -59.329119 
L 111.490909 -59.329119 
L 114.872727 -59.329119 
L 118.254545 -59.329119 
L 121.636364 -59.329119 
L 125.018182 -59.329119 
L 128.4 -59.329119 
L 131.781818 -59.329119 
L 135.163636 -59.329119 
L 138.545455 -59.329119 
L 141.927273 -59.329119 
L 145.309091 -59.329119 
L 148.690909 -59.329119 
L 152.072727 -59.329119 
L 155.454545 -59.329119 
L 158.836364 -59.329119 
L 162.218182 -59.329119 
L 165.6 -59.329119 
L 168.981818 -59.329119 
L 172.363636 -59.329119 
L 175.745455 -59.329119 
L 179.127273 -59.329119 
L 182.509091 -59.329119 
L 185.890909 -59.329119 
L 189.272727 -59.329119 
L 192.654545 -59.329119 
L 196.036364 -59.329119 
L 199.418182 -59.329119 
L 202.8 -59.329119 
L 206.181818 -59.329119 
L 209.563636 -59.329119 
L 212.945455 -59.329119 
L 216.327273 -59.329119 
L 219.709091 -59.329119 
L 223.090909 -59.329119 
L 226.472727 -59.329119 
L 229.854545 -59.329119 
L 233.236364 -59.329119 
L 236.618182 -59.329119 
L 240 -59.329119 
L 243.381818 -59.329119 
L 246.763636 -59.329119 
L 250.145455 -59.329119 
L 253.527273 -59.329119 
L 256.909091 -59.329119 
L 260.290909 -59.329119 
L 263.672727 -59.329119 
L 267.054545 -59.329119 
L 270.436364 -59.329119 
L 273.818182 -59.329119 
L 277.2 -59.329119 
L 280.581818 -59.329119 
L 283.963636 -59.329119 
L 287.345455 -59.329119 
L 290.727273 -59.329119 
L 294.109091 -59.329119 
L 297.490909 -59.329119 
L 300.872727 -58.390433 
L 304.254545 -58.390433 
L 307.636364 -58.390433 
L 311.018182 -58.390433 
L 314.4 -58.390433 
L 317.781818 -58.390433 
L 321.163636 -58.390433 
L 324.545455 -58.390433 
L 327.927273 -58.390433 
L 331.309091 -58.390433 
L 334.690909 -58.390433 
L 338.072727 -58.390433 
L 341.454545 -58.390433 
L 344.836364 -58.390433 
L 348.218182 -58.390433 
L 351.6 -58.390433 
L 354.981818 -58.390433 
L 358.363636 -58.390433 
L 361.745455 -58.390433 
L 365.127273 -58.390433 
L 368.509091 -58.390433 
L 371.890909 -58.390433 
L 375.272727 -58.390433 
L 378.654545 -58.390433 
L 382.036364 -58.390433 
L 385.418182 -58.390433 
L 388.8 -58.390433 
L 392.181818 -58.390433 
L 392.181818 -61.777753 
L 392.181818 -61.777753 
L 388.8 -61.777753 
L 385.418182 -61.777753 
L 382.036364 -61.777753 
L 378.654545 -61.777753 
L 375.272727 -61.777753 
L 371.890909 -61.777753 
L 368.509091 -61.777753 
L 365.127273 -62.517037 
L 361.745455 -62.517037 
L 358.363636 -62.517037 
L 354.981818 -62.517037 
L 351.6 -62.517037 
L 348.218182 -62.517037 
L 344.836364 -62.517037 
L 341.454545 -62.517037 
L 338.072727 -62.517037 
L 334.690909 -62.517037 
L 331.309091 -62.517037 
L 327.927273 -62.517037 
L 324.545455 -62.517037 
L 321.163636 -62.517037 
L 317.781818 -62.517037 
L 314.4 -62.517037 
L 311.018182 -62.517037 
L 307.636364 -64.744824 
L 304.254545 -65.481294 
L 300.872727 -65.481294 
L 297.490909 -66.639616 
L 294.109091 -66.639616 
L 290.727273 -66.639616 
L 287.345455 -66.639616 
L 283.963636 -66.639616 
L 280.581818 -66.639616 
L 277.2 -67.225204 
L 273.818182 -67.225204 
L 270.436364 -67.225204 
L 267.054545 -67.225204 
L 263.672727 -67.693821 
L 260.290909 -67.693821 
L 256.909091 -67.693821 
L 253.527273 -69.856312 
L 250.145455 -69.856312 
L 246.763636 -69.856312 
L 243.381818 -69.856312 
L 240 -72.466846 
L 236.618182 -72.466846 
L 233.236364 -72.466846 
L 229.854545 -72.466846 
L 226.472727 -72.59365 
L 223.090909 -72.59365 
L 219.709091 -72.59365 
L 216.327273 -72.59365 
L 212.945455 -72.59365 
L 209.563636 -72.59365 
L 206.181818 -72.982246 
L 202.8 -72.982246 
L 199.418182 -72.982246 
L 196.036364 -77.378444 
L 192.654545 -77.378444 
L 189.272727 -77.378444 
L 185.890909 -77.378444 
L 182.509091 -77.378444 
L 179.127273 -77.378444 
L 175.745455 -77.378444 
L 172.363636 -77.378444 
L 168.981818 -77.378444 
L 165.6 -77.878966 
L 162.218182 -77.878966 
L 158.836364 -77.878966 
L 155.454545 -77.878966 
L 152.072727 -86.915208 
L 148.690909 -86.915208 
L 145.309091 -86.915208 
L 141.927273 -95.058305 
L 138.545455 -95.058305 
L 135.163636 -95.058305 
L 131.781818 -95.058305 
L 128.4 -98.239993 
L 125.018182 -98.239993 
L 121.636364 -115.437722 
L 118.254545 -133.615114 
L 114.872727 -133.615114 
L 111.490909 -133.615114 
L 108.109091 -133.615114 
L 104.727273 -133.615114 
L 101.345455 -133.615114 
L 97.963636 -133.615114 
L 94.581818 -133.615114 
L 91.2 -133.615114 
L 87.818182 -142.021603 
L 84.436364 -142.021603 
L 81.054545 -142.021603 
L 77.672727 -142.021603 
L 74.290909 -202.311173 
L 70.909091 -202.311173 
L 67.527273 -202.311173 
L 64.145455 -202.311173 
L 60.763636 -202.311173 
z
" id="m2328358ced" style="stroke:#ffa500;stroke-opacity:0.5;"/>
    </defs>
    <g clip-path="url(#p223a9284fc)">
     <use style="fill:#ffa500;fill-opacity:0.5;stroke:#ffa500;stroke-opacity:0.5;" x="0" xlink:href="#m2328358ced" y="288"/>
    </g>
   </g>
   <g id="PolyCollection_5">
    <defs>
     <path d="M 57.381818 -134.791611 
L 57.381818 -133.964742 
L 60.763636 -133.964742 
L 64.145455 -133.964742 
L 67.527273 -70.997295 
L 70.909091 -59.487485 
L 74.290909 -46.28705 
L 77.672727 -45.883636 
L 81.054545 -56.293388 
L 84.436364 -56.293388 
L 87.818182 -55.702916 
L 91.2 -55.702916 
L 94.581818 -55.702916 
L 97.963636 -55.702916 
L 101.345455 -55.702916 
L 104.727273 -55.702916 
L 108.109091 -55.432323 
L 111.490909 -55.432323 
L 114.872727 -55.432323 
L 118.254545 -55.432323 
L 121.636364 -55.432323 
L 125.018182 -55.432323 
L 128.4 -55.432323 
L 131.781818 -55.432323 
L 135.163636 -55.432323 
L 138.545455 -55.432323 
L 141.927273 -55.432323 
L 145.309091 -55.432323 
L 148.690909 -55.432323 
L 152.072727 -55.432323 
L 155.454545 -55.432323 
L 158.836364 -55.432323 
L 162.218182 -55.432323 
L 165.6 -55.432323 
L 168.981818 -55.432323 
L 172.363636 -55.432323 
L 175.745455 -55.432323 
L 179.127273 -55.432323 
L 182.509091 -55.432323 
L 185.890909 -55.432323 
L 189.272727 -55.432323 
L 192.654545 -55.432323 
L 196.036364 -55.432323 
L 199.418182 -55.432323 
L 202.8 -55.432323 
L 206.181818 -55.432323 
L 209.563636 -55.432323 
L 212.945455 -55.432323 
L 216.327273 -55.432323 
L 219.709091 -55.432323 
L 223.090909 -55.432323 
L 226.472727 -55.432323 
L 229.854545 -55.432323 
L 233.236364 -55.432323 
L 236.618182 -55.432323 
L 240 -55.432323 
L 243.381818 -55.432323 
L 246.763636 -55.432323 
L 250.145455 -55.432323 
L 253.527273 -55.432323 
L 256.909091 -55.432323 
L 260.290909 -55.432323 
L 263.672727 -55.432323 
L 267.054545 -55.432323 
L 270.436364 -55.432323 
L 273.818182 -55.432323 
L 277.2 -55.432323 
L 280.581818 -55.432323 
L 283.963636 -55.432323 
L 287.345455 -55.432323 
L 290.727273 -55.432323 
L 294.109091 -55.432323 
L 297.490909 -55.432323 
L 300.872727 -55.432323 
L 304.254545 -55.432323 
L 307.636364 -55.432323 
L 311.018182 -55.432323 
L 314.4 -55.432323 
L 317.781818 -55.432323 
L 321.163636 -55.432323 
L 324.545455 -55.432323 
L 327.927273 -55.432323 
L 331.309091 -55.432323 
L 334.690909 -55.432323 
L 338.072727 -55.432323 
L 341.454545 -55.432323 
L 344.836364 -55.432323 
L 348.218182 -55.432323 
L 351.6 -55.432323 
L 354.981818 -55.432323 
L 358.363636 -55.432323 
L 361.745455 -55.432323 
L 365.127273 -55.432323 
L 368.509091 -55.432323 
L 371.890909 -55.432323 
L 375.272727 -55.432323 
L 378.654545 -55.432323 
L 382.036364 -55.432323 
L 385.418182 -55.432323 
L 388.8 -55.432323 
L 392.181818 -55.432323 
L 392.181818 -59.770223 
L 392.181818 -59.770223 
L 388.8 -59.770223 
L 385.418182 -59.770223 
L 382.036364 -59.770223 
L 378.654545 -59.770223 
L 375.272727 -59.770223 
L 371.890909 -59.770223 
L 368.509091 -59.770223 
L 365.127273 -59.770223 
L 361.745455 -59.770223 
L 358.363636 -59.770223 
L 354.981818 -59.770223 
L 351.6 -59.770223 
L 348.218182 -59.770223 
L 344.836364 -59.770223 
L 341.454545 -59.770223 
L 338.072727 -59.770223 
L 334.690909 -59.770223 
L 331.309091 -59.770223 
L 327.927273 -59.770223 
L 324.545455 -59.770223 
L 321.163636 -59.770223 
L 317.781818 -59.770223 
L 314.4 -59.770223 
L 311.018182 -59.770223 
L 307.636364 -59.770223 
L 304.254545 -59.770223 
L 300.872727 -59.770223 
L 297.490909 -59.770223 
L 294.109091 -59.770223 
L 290.727273 -59.770223 
L 287.345455 -59.770223 
L 283.963636 -59.770223 
L 280.581818 -59.770223 
L 277.2 -59.770223 
L 273.818182 -59.770223 
L 270.436364 -59.770223 
L 267.054545 -59.770223 
L 263.672727 -59.770223 
L 260.290909 -59.770223 
L 256.909091 -59.770223 
L 253.527273 -59.770223 
L 250.145455 -59.770223 
L 246.763636 -59.770223 
L 243.381818 -59.770223 
L 240 -59.770223 
L 236.618182 -59.770223 
L 233.236364 -59.770223 
L 229.854545 -59.770223 
L 226.472727 -59.770223 
L 223.090909 -59.770223 
L 219.709091 -59.770223 
L 216.327273 -59.770223 
L 212.945455 -59.770223 
L 209.563636 -59.770223 
L 206.181818 -59.770223 
L 202.8 -59.770223 
L 199.418182 -59.770223 
L 196.036364 -59.770223 
L 192.654545 -59.770223 
L 189.272727 -59.770223 
L 185.890909 -59.770223 
L 182.509091 -59.770223 
L 179.127273 -59.770223 
L 175.745455 -59.770223 
L 172.363636 -59.770223 
L 168.981818 -59.770223 
L 165.6 -59.770223 
L 162.218182 -59.770223 
L 158.836364 -59.770223 
L 155.454545 -59.770223 
L 152.072727 -59.770223 
L 148.690909 -59.770223 
L 145.309091 -59.770223 
L 141.927273 -59.770223 
L 138.545455 -59.770223 
L 135.163636 -59.770223 
L 131.781818 -59.770223 
L 128.4 -59.770223 
L 125.018182 -59.770223 
L 121.636364 -59.770223 
L 118.254545 -59.770223 
L 114.872727 -59.770223 
L 111.490909 -59.770223 
L 108.109091 -61.253988 
L 104.727273 -243.556364 
L 101.345455 -243.556364 
L 97.963636 -243.556364 
L 94.581818 -243.556364 
L 91.2 -243.556364 
L 87.818182 -243.556364 
L 84.436364 -243.556364 
L 81.054545 -243.556364 
L 77.672727 -219.737564 
L 74.290909 -142.107471 
L 70.909091 -142.107471 
L 67.527273 -142.107471 
L 64.145455 -134.791611 
L 60.763636 -134.791611 
L 57.381818 -134.791611 
z
" id="m4b0b0d2efa" style="stroke:#ff0000;stroke-opacity:0.5;"/>
    </defs>
    <g clip-path="url(#p223a9284fc)">
     <use style="fill:#ff0000;fill-opacity:0.5;stroke:#ff0000;stroke-opacity:0.5;" x="0" xlink:href="#m4b0b0d2efa" y="288"/>
    </g>
   </g>
   <g id="matplotlib.axis_1">
    <g id="xtick_1">
     <g id="line2d_1">
      <defs>
       <path d="M 0 0 
L 0 3.5 
" id="md301061f01" style="stroke:#000000;stroke-width:0.8;"/>
      </defs>
      <g>
       <use style="stroke:#000000;stroke-width:0.8;" x="54" xlink:href="#md301061f01" y="252"/>
      </g>
     </g>
     <g id="text_1">
      <!-- 0 -->
      <g transform="translate(50.25 269.415625)scale(0.15 -0.15)">
       <defs>
        <path d="M 3.609375 32.71875 
Q 3.609375 44.046875 7.03125 52.21875 
Q 10.453125 60.40625 16.109375 64.40625 
Q 20.515625 67.578125 25.203125 67.578125 
Q 32.8125 67.578125 38.875 59.8125 
Q 46.4375 50.203125 46.4375 33.734375 
Q 46.4375 22.21875 43.109375 14.15625 
Q 39.796875 6.109375 34.640625 2.46875 
Q 29.5 -1.171875 24.703125 -1.171875 
Q 15.234375 -1.171875 8.9375 10.015625 
Q 3.609375 19.4375 3.609375 32.71875 
z
M 13.1875 31.5 
Q 13.1875 17.828125 16.546875 9.1875 
Q 19.34375 1.90625 24.859375 1.90625 
Q 27.484375 1.90625 30.3125 4.265625 
Q 33.15625 6.640625 34.625 12.203125 
Q 36.859375 20.609375 36.859375 35.890625 
Q 36.859375 47.21875 34.515625 54.78125 
Q 32.765625 60.40625 29.984375 62.75 
Q 27.984375 64.359375 25.140625 64.359375 
Q 21.828125 64.359375 19.234375 61.375 
Q 15.71875 57.328125 14.453125 48.625 
Q 13.1875 39.9375 13.1875 31.5 
z
" id="TimesNewRomanPSMT-48"/>
       </defs>
       <use xlink:href="#TimesNewRomanPSMT-48"/>
      </g>
     </g>
    </g>
    <g id="xtick_2">
     <g id="line2d_2">
      <g>
       <use style="stroke:#000000;stroke-width:0.8;" x="121.636364" xlink:href="#md301061f01" y="252"/>
      </g>
     </g>
     <g id="text_2">
      <!-- 20 -->
      <g transform="translate(114.136364 269.415625)scale(0.15 -0.15)">
       <defs>
        <path d="M 45.84375 12.75 
L 41.21875 0 
L 2.15625 0 
L 2.15625 1.8125 
Q 19.390625 17.53125 26.421875 27.484375 
Q 33.453125 37.453125 33.453125 45.703125 
Q 33.453125 52 29.59375 56.046875 
Q 25.734375 60.109375 20.359375 60.109375 
Q 15.484375 60.109375 11.59375 57.25 
Q 7.71875 54.390625 5.859375 48.875 
L 4.046875 48.875 
Q 5.28125 57.90625 10.328125 62.734375 
Q 15.375 67.578125 22.953125 67.578125 
Q 31 67.578125 36.390625 62.40625 
Q 41.796875 57.234375 41.796875 50.203125 
Q 41.796875 45.171875 39.453125 40.140625 
Q 35.84375 32.234375 27.734375 23.390625 
Q 15.578125 10.109375 12.546875 7.375 
L 29.828125 7.375 
Q 35.109375 7.375 37.234375 7.765625 
Q 39.359375 8.15625 41.0625 9.34375 
Q 42.78125 10.546875 44.046875 12.75 
z
" id="TimesNewRomanPSMT-50"/>
       </defs>
       <use xlink:href="#TimesNewRomanPSMT-50"/>
       <use x="50" xlink:href="#TimesNewRomanPSMT-48"/>
      </g>
     </g>
    </g>
    <g id="xtick_3">
     <g id="line2d_3">
      <g>
       <use style="stroke:#000000;stroke-width:0.8;" x="189.272727" xlink:href="#md301061f01" y="252"/>
      </g>
     </g>
     <g id="text_3">
      <!-- 40 -->
      <g transform="translate(181.772727 269.415625)scale(0.15 -0.15)">
       <defs>
        <path d="M 46.53125 24.421875 
L 46.53125 17.484375 
L 37.640625 17.484375 
L 37.640625 0 
L 29.59375 0 
L 29.59375 17.484375 
L 1.5625 17.484375 
L 1.5625 23.734375 
L 32.28125 67.578125 
L 37.640625 67.578125 
L 37.640625 24.421875 
z
M 29.59375 24.421875 
L 29.59375 57.28125 
L 6.34375 24.421875 
z
" id="TimesNewRomanPSMT-52"/>
       </defs>
       <use xlink:href="#TimesNewRomanPSMT-52"/>
       <use x="50" xlink:href="#TimesNewRomanPSMT-48"/>
      </g>
     </g>
    </g>
    <g id="xtick_4">
     <g id="line2d_4">
      <g>
       <use style="stroke:#000000;stroke-width:0.8;" x="256.909091" xlink:href="#md301061f01" y="252"/>
      </g>
     </g>
     <g id="text_4">
      <!-- 60 -->
      <g transform="translate(249.409091 269.415625)scale(0.15 -0.15)">
       <defs>
        <path d="M 44.828125 67.578125 
L 44.828125 65.765625 
Q 38.375 65.140625 34.296875 63.203125 
Q 30.21875 61.28125 26.234375 57.328125 
Q 22.265625 53.375 19.65625 48.515625 
Q 17.046875 43.65625 15.28125 36.96875 
Q 22.3125 41.796875 29.390625 41.796875 
Q 36.1875 41.796875 41.15625 36.328125 
Q 46.140625 30.859375 46.140625 22.265625 
Q 46.140625 13.96875 41.109375 7.125 
Q 35.0625 -1.171875 25.09375 -1.171875 
Q 18.3125 -1.171875 13.578125 3.328125 
Q 4.296875 12.0625 4.296875 25.984375 
Q 4.296875 34.859375 7.859375 42.859375 
Q 11.421875 50.875 18.03125 57.078125 
Q 24.65625 63.28125 30.703125 65.421875 
Q 36.765625 67.578125 42 67.578125 
z
M 14.453125 33.40625 
Q 13.578125 26.8125 13.578125 22.75 
Q 13.578125 18.0625 15.3125 12.5625 
Q 17.046875 7.078125 20.453125 3.859375 
Q 22.953125 1.5625 26.515625 1.5625 
Q 30.765625 1.5625 34.109375 5.5625 
Q 37.453125 9.578125 37.453125 17 
Q 37.453125 25.34375 34.125 31.4375 
Q 30.8125 37.546875 24.703125 37.546875 
Q 22.859375 37.546875 20.734375 36.765625 
Q 18.609375 35.984375 14.453125 33.40625 
z
" id="TimesNewRomanPSMT-54"/>
       </defs>
       <use xlink:href="#TimesNewRomanPSMT-54"/>
       <use x="50" xlink:href="#TimesNewRomanPSMT-48"/>
      </g>
     </g>
    </g>
    <g id="xtick_5">
     <g id="line2d_5">
      <g>
       <use style="stroke:#000000;stroke-width:0.8;" x="324.545455" xlink:href="#md301061f01" y="252"/>
      </g>
     </g>
     <g id="text_5">
      <!-- 80 -->
      <g transform="translate(317.045455 269.415625)scale(0.15 -0.15)">
       <defs>
        <path d="M 19.1875 33.34375 
Q 11.328125 39.796875 9.046875 43.703125 
Q 6.78125 47.609375 6.78125 51.8125 
Q 6.78125 58.25 11.765625 62.90625 
Q 16.75 67.578125 25 67.578125 
Q 33.015625 67.578125 37.890625 63.234375 
Q 42.78125 58.890625 42.78125 53.328125 
Q 42.78125 49.609375 40.140625 45.75 
Q 37.5 41.890625 29.15625 36.671875 
Q 37.75 30.03125 40.53125 26.21875 
Q 44.234375 21.234375 44.234375 15.71875 
Q 44.234375 8.734375 38.90625 3.78125 
Q 33.59375 -1.171875 24.953125 -1.171875 
Q 15.53125 -1.171875 10.25 4.734375 
Q 6.0625 9.46875 6.0625 15.09375 
Q 6.0625 19.484375 9.015625 23.796875 
Q 11.96875 28.125 19.1875 33.34375 
z
M 26.859375 38.578125 
Q 32.71875 43.84375 34.28125 46.890625 
Q 35.84375 49.953125 35.84375 53.8125 
Q 35.84375 58.9375 32.953125 61.84375 
Q 30.078125 64.75 25.09375 64.75 
Q 20.125 64.75 17 61.859375 
Q 13.875 58.984375 13.875 55.125 
Q 13.875 52.59375 15.15625 50.046875 
Q 16.453125 47.515625 18.84375 45.21875 
z
M 21.484375 31.5 
Q 17.4375 28.078125 15.484375 24.046875 
Q 13.53125 20.015625 13.53125 15.328125 
Q 13.53125 9.03125 16.96875 5.25 
Q 20.40625 1.46875 25.734375 1.46875 
Q 31 1.46875 34.171875 4.4375 
Q 37.359375 7.421875 37.359375 11.671875 
Q 37.359375 15.1875 35.5 17.96875 
Q 32.03125 23.140625 21.484375 31.5 
z
" id="TimesNewRomanPSMT-56"/>
       </defs>
       <use xlink:href="#TimesNewRomanPSMT-56"/>
       <use x="50" xlink:href="#TimesNewRomanPSMT-48"/>
      </g>
     </g>
    </g>
    <g id="text_6">
     <!-- Nbr. of function evaluations -->
     <g transform="translate(137.25 287.039844)scale(0.15 -0.15)">
      <defs>
       <path d="M -1.3125 66.21875 
L 16.65625 66.21875 
L 57.125 16.546875 
L 57.125 54.734375 
Q 57.125 60.84375 55.765625 62.359375 
Q 53.953125 64.40625 50.046875 64.40625 
L 47.75 64.40625 
L 47.75 66.21875 
L 70.796875 66.21875 
L 70.796875 64.40625 
L 68.453125 64.40625 
Q 64.265625 64.40625 62.5 61.859375 
Q 61.421875 60.296875 61.421875 54.734375 
L 61.421875 -1.078125 
L 59.671875 -1.078125 
L 16.015625 52.25 
L 16.015625 11.46875 
Q 16.015625 5.375 17.328125 3.859375 
Q 19.1875 1.8125 23.046875 1.8125 
L 25.390625 1.8125 
L 25.390625 0 
L 2.34375 0 
L 2.34375 1.8125 
L 4.640625 1.8125 
Q 8.890625 1.8125 10.640625 4.34375 
Q 11.71875 5.90625 11.71875 11.46875 
L 11.71875 57.515625 
Q 8.84375 60.890625 7.34375 61.953125 
Q 5.859375 63.03125 2.984375 63.96875 
Q 1.5625 64.40625 -1.3125 64.40625 
z
" id="TimesNewRomanPSMT-78"/>
       <path d="M 15.375 37.015625 
Q 21.875 46.046875 29.390625 46.046875 
Q 36.28125 46.046875 41.40625 40.15625 
Q 46.53125 34.28125 46.53125 24.078125 
Q 46.53125 12.15625 38.625 4.890625 
Q 31.84375 -1.375 23.484375 -1.375 
Q 19.578125 -1.375 15.546875 0.046875 
Q 11.53125 1.46875 7.328125 4.296875 
L 7.328125 50.640625 
Q 7.328125 58.25 6.953125 60 
Q 6.59375 61.765625 5.8125 62.390625 
Q 5.03125 63.03125 3.859375 63.03125 
Q 2.484375 63.03125 0.4375 62.25 
L -0.25 63.96875 
L 13.1875 69.4375 
L 15.375 69.4375 
z
M 15.375 33.890625 
L 15.375 7.125 
Q 17.875 4.6875 20.53125 3.4375 
Q 23.1875 2.203125 25.984375 2.203125 
Q 30.421875 2.203125 34.25 7.078125 
Q 38.09375 11.96875 38.09375 21.296875 
Q 38.09375 29.890625 34.25 34.5 
Q 30.421875 39.109375 25.53125 39.109375 
Q 22.953125 39.109375 20.359375 37.796875 
Q 18.40625 36.8125 15.375 33.890625 
z
" id="TimesNewRomanPSMT-98"/>
       <path d="M 16.21875 46.046875 
L 16.21875 35.984375 
Q 21.828125 46.046875 27.734375 46.046875 
Q 30.421875 46.046875 32.171875 44.40625 
Q 33.9375 42.78125 33.9375 40.625 
Q 33.9375 38.71875 32.65625 37.390625 
Q 31.390625 36.078125 29.640625 36.078125 
Q 27.9375 36.078125 25.8125 37.765625 
Q 23.6875 39.453125 22.65625 39.453125 
Q 21.78125 39.453125 20.75 38.484375 
Q 18.5625 36.46875 16.21875 31.890625 
L 16.21875 10.453125 
Q 16.21875 6.734375 17.140625 4.828125 
Q 17.78125 3.515625 19.390625 2.640625 
Q 21 1.765625 24.03125 1.765625 
L 24.03125 0 
L 1.125 0 
L 1.125 1.765625 
Q 4.546875 1.765625 6.203125 2.828125 
Q 7.421875 3.609375 7.90625 5.328125 
Q 8.15625 6.15625 8.15625 10.0625 
L 8.15625 27.390625 
Q 8.15625 35.203125 7.828125 36.6875 
Q 7.515625 38.1875 6.65625 38.859375 
Q 5.8125 39.546875 4.546875 39.546875 
Q 3.03125 39.546875 1.125 38.8125 
L 0.640625 40.578125 
L 14.15625 46.046875 
z
" id="TimesNewRomanPSMT-114"/>
       <path d="M 12.5 9.46875 
Q 14.796875 9.46875 16.359375 7.875 
Q 17.921875 6.296875 17.921875 4.046875 
Q 17.921875 1.8125 16.328125 0.21875 
Q 14.75 -1.375 12.5 -1.375 
Q 10.25 -1.375 8.65625 0.21875 
Q 7.078125 1.8125 7.078125 4.046875 
Q 7.078125 6.34375 8.65625 7.90625 
Q 10.25 9.46875 12.5 9.46875 
z
" id="TimesNewRomanPSMT-46"/>
       <path id="TimesNewRomanPSMT-32"/>
       <path d="M 25 46.046875 
Q 35.15625 46.046875 41.3125 38.328125 
Q 46.53125 31.734375 46.53125 23.1875 
Q 46.53125 17.1875 43.640625 11.03125 
Q 40.765625 4.890625 35.71875 1.75 
Q 30.671875 -1.375 24.46875 -1.375 
Q 14.359375 -1.375 8.40625 6.6875 
Q 3.375 13.484375 3.375 21.921875 
Q 3.375 28.078125 6.421875 34.15625 
Q 9.46875 40.234375 14.453125 43.140625 
Q 19.4375 46.046875 25 46.046875 
z
M 23.484375 42.875 
Q 20.90625 42.875 18.28125 41.328125 
Q 15.671875 39.796875 14.0625 35.9375 
Q 12.453125 32.078125 12.453125 26.03125 
Q 12.453125 16.265625 16.328125 9.171875 
Q 20.21875 2.09375 26.5625 2.09375 
Q 31.296875 2.09375 34.375 6 
Q 37.453125 9.90625 37.453125 19.4375 
Q 37.453125 31.34375 32.328125 38.1875 
Q 28.859375 42.875 23.484375 42.875 
z
" id="TimesNewRomanPSMT-111"/>
       <path d="M 20.609375 41.21875 
L 20.609375 11.8125 
Q 20.609375 5.5625 21.96875 3.90625 
Q 23.78125 1.765625 26.8125 1.765625 
L 30.859375 1.765625 
L 30.859375 0 
L 4.15625 0 
L 4.15625 1.765625 
L 6.15625 1.765625 
Q 8.109375 1.765625 9.71875 2.734375 
Q 11.328125 3.71875 11.9375 5.375 
Q 12.546875 7.03125 12.546875 11.8125 
L 12.546875 41.21875 
L 3.859375 41.21875 
L 3.859375 44.734375 
L 12.546875 44.734375 
L 12.546875 47.65625 
Q 12.546875 54.34375 14.6875 58.984375 
Q 16.84375 63.625 21.265625 66.484375 
Q 25.6875 69.34375 31.203125 69.34375 
Q 36.328125 69.34375 40.625 66.015625 
Q 43.453125 63.8125 43.453125 61.078125 
Q 43.453125 59.625 42.1875 58.328125 
Q 40.921875 57.03125 39.453125 57.03125 
Q 38.328125 57.03125 37.078125 57.828125 
Q 35.84375 58.640625 34.03125 61.296875 
Q 32.234375 63.96875 30.71875 64.890625 
Q 29.203125 65.828125 27.34375 65.828125 
Q 25.09375 65.828125 23.53125 64.625 
Q 21.96875 63.421875 21.28125 60.90625 
Q 20.609375 58.40625 20.609375 47.953125 
L 20.609375 44.734375 
L 32.125 44.734375 
L 32.125 41.21875 
z
" id="TimesNewRomanPSMT-102"/>
       <path d="M 42.328125 44.734375 
L 42.328125 17.625 
Q 42.328125 9.859375 42.6875 8.125 
Q 43.0625 6.390625 43.859375 5.703125 
Q 44.671875 5.03125 45.75 5.03125 
Q 47.265625 5.03125 49.171875 5.859375 
L 49.859375 4.15625 
L 36.46875 -1.375 
L 34.28125 -1.375 
L 34.28125 8.109375 
Q 28.515625 1.859375 25.484375 0.234375 
Q 22.46875 -1.375 19.09375 -1.375 
Q 15.328125 -1.375 12.5625 0.796875 
Q 9.8125 2.984375 8.734375 6.390625 
Q 7.671875 9.8125 7.671875 16.0625 
L 7.671875 36.03125 
Q 7.671875 39.203125 6.984375 40.421875 
Q 6.296875 41.65625 4.953125 42.3125 
Q 3.609375 42.96875 0.09375 42.921875 
L 0.09375 44.734375 
L 15.765625 44.734375 
L 15.765625 14.796875 
Q 15.765625 8.546875 17.9375 6.59375 
Q 20.125 4.640625 23.1875 4.640625 
Q 25.296875 4.640625 27.953125 5.953125 
Q 30.609375 7.28125 34.28125 10.984375 
L 34.28125 36.328125 
Q 34.28125 40.140625 32.890625 41.484375 
Q 31.5 42.828125 27.09375 42.921875 
L 27.09375 44.734375 
z
" id="TimesNewRomanPSMT-117"/>
       <path d="M 16.15625 36.578125 
Q 24.03125 46.046875 31.15625 46.046875 
Q 34.8125 46.046875 37.453125 44.21875 
Q 40.09375 42.390625 41.65625 38.1875 
Q 42.71875 35.25 42.71875 29.203125 
L 42.71875 10.109375 
Q 42.71875 5.859375 43.40625 4.34375 
Q 43.953125 3.125 45.140625 2.4375 
Q 46.34375 1.765625 49.5625 1.765625 
L 49.5625 0 
L 27.4375 0 
L 27.4375 1.765625 
L 28.375 1.765625 
Q 31.5 1.765625 32.734375 2.703125 
Q 33.984375 3.65625 34.46875 5.515625 
Q 34.671875 6.25 34.671875 10.109375 
L 34.671875 28.421875 
Q 34.671875 34.515625 33.078125 37.28125 
Q 31.5 40.046875 27.734375 40.046875 
Q 21.921875 40.046875 16.15625 33.6875 
L 16.15625 10.109375 
Q 16.15625 5.5625 16.703125 4.5 
Q 17.390625 3.078125 18.578125 2.421875 
Q 19.78125 1.765625 23.4375 1.765625 
L 23.4375 0 
L 1.3125 0 
L 1.3125 1.765625 
L 2.296875 1.765625 
Q 5.71875 1.765625 6.90625 3.484375 
Q 8.109375 5.21875 8.109375 10.109375 
L 8.109375 26.703125 
Q 8.109375 34.765625 7.734375 36.515625 
Q 7.375 38.28125 6.609375 38.90625 
Q 5.859375 39.546875 4.59375 39.546875 
Q 3.21875 39.546875 1.3125 38.8125 
L 0.59375 40.578125 
L 14.0625 46.046875 
L 16.15625 46.046875 
z
" id="TimesNewRomanPSMT-110"/>
       <path d="M 41.109375 17 
Q 39.3125 8.15625 34.03125 3.390625 
Q 28.765625 -1.375 22.359375 -1.375 
Q 14.75 -1.375 9.078125 5.015625 
Q 3.421875 11.421875 3.421875 22.3125 
Q 3.421875 32.859375 9.6875 39.453125 
Q 15.96875 46.046875 24.75 46.046875 
Q 31.34375 46.046875 35.59375 42.546875 
Q 39.84375 39.0625 39.84375 35.296875 
Q 39.84375 33.453125 38.640625 32.296875 
Q 37.453125 31.15625 35.296875 31.15625 
Q 32.421875 31.15625 30.953125 33.015625 
Q 30.125 34.03125 29.859375 36.90625 
Q 29.59375 39.796875 27.875 41.3125 
Q 26.171875 42.78125 23.140625 42.78125 
Q 18.265625 42.78125 15.28125 39.15625 
Q 11.328125 34.375 11.328125 26.515625 
Q 11.328125 18.5 15.25 12.375 
Q 19.1875 6.25 25.875 6.25 
Q 30.671875 6.25 34.46875 9.515625 
Q 37.15625 11.765625 39.703125 17.671875 
z
" id="TimesNewRomanPSMT-99"/>
       <path d="M 16.109375 59.421875 
L 16.109375 44.734375 
L 26.5625 44.734375 
L 26.5625 41.3125 
L 16.109375 41.3125 
L 16.109375 12.3125 
Q 16.109375 7.953125 17.359375 6.4375 
Q 18.609375 4.9375 20.5625 4.9375 
Q 22.171875 4.9375 23.6875 5.9375 
Q 25.203125 6.9375 26.03125 8.890625 
L 27.9375 8.890625 
Q 26.21875 4.109375 23.09375 1.6875 
Q 19.96875 -0.734375 16.65625 -0.734375 
Q 14.40625 -0.734375 12.25 0.515625 
Q 10.109375 1.765625 9.078125 4.078125 
Q 8.0625 6.390625 8.0625 11.234375 
L 8.0625 41.3125 
L 0.984375 41.3125 
L 0.984375 42.921875 
Q 3.65625 44 6.46875 46.5625 
Q 9.28125 49.125 11.46875 52.640625 
Q 12.59375 54.5 14.59375 59.421875 
z
" id="TimesNewRomanPSMT-116"/>
       <path d="M 14.5 69.4375 
Q 16.546875 69.4375 17.984375 67.984375 
Q 19.4375 66.546875 19.4375 64.5 
Q 19.4375 62.453125 17.984375 60.984375 
Q 16.546875 59.515625 14.5 59.515625 
Q 12.453125 59.515625 10.984375 60.984375 
Q 9.515625 62.453125 9.515625 64.5 
Q 9.515625 66.546875 10.953125 67.984375 
Q 12.40625 69.4375 14.5 69.4375 
z
M 18.5625 46.046875 
L 18.5625 10.109375 
Q 18.5625 5.90625 19.171875 4.515625 
Q 19.78125 3.125 20.96875 2.4375 
Q 22.171875 1.765625 25.34375 1.765625 
L 25.34375 0 
L 3.609375 0 
L 3.609375 1.765625 
Q 6.890625 1.765625 8 2.390625 
Q 9.125 3.03125 9.78125 4.484375 
Q 10.453125 5.953125 10.453125 10.109375 
L 10.453125 27.34375 
Q 10.453125 34.625 10.015625 36.765625 
Q 9.671875 38.328125 8.9375 38.9375 
Q 8.203125 39.546875 6.9375 39.546875 
Q 5.5625 39.546875 3.609375 38.8125 
L 2.9375 40.578125 
L 16.40625 46.046875 
z
" id="TimesNewRomanPSMT-105"/>
       <path d="M 10.640625 27.875 
Q 10.59375 17.921875 15.484375 12.25 
Q 20.359375 6.59375 26.953125 6.59375 
Q 31.34375 6.59375 34.59375 9 
Q 37.84375 11.421875 40.046875 17.28125 
L 41.546875 16.3125 
Q 40.53125 9.625 35.59375 4.125 
Q 30.671875 -1.375 23.25 -1.375 
Q 15.1875 -1.375 9.453125 4.90625 
Q 3.71875 11.1875 3.71875 21.78125 
Q 3.71875 33.25 9.59375 39.671875 
Q 15.484375 46.09375 24.359375 46.09375 
Q 31.890625 46.09375 36.71875 41.140625 
Q 41.546875 36.1875 41.546875 27.875 
z
M 10.640625 30.71875 
L 31.34375 30.71875 
Q 31.109375 35.015625 30.328125 36.765625 
Q 29.109375 39.5 26.6875 41.0625 
Q 24.265625 42.625 21.625 42.625 
Q 17.578125 42.625 14.375 39.46875 
Q 11.1875 36.328125 10.640625 30.71875 
z
" id="TimesNewRomanPSMT-101"/>
       <path d="M 0.828125 44.734375 
L 21.875 44.734375 
L 21.875 42.921875 
L 20.515625 42.921875 
Q 18.609375 42.921875 17.609375 41.984375 
Q 16.609375 41.0625 16.609375 39.5 
Q 16.609375 37.796875 17.625 35.453125 
L 28.03125 10.75 
L 38.484375 36.375 
Q 39.59375 39.109375 39.59375 40.53125 
Q 39.59375 41.21875 39.203125 41.65625 
Q 38.671875 42.390625 37.84375 42.65625 
Q 37.015625 42.921875 34.46875 42.921875 
L 34.46875 44.734375 
L 49.078125 44.734375 
L 49.078125 42.921875 
Q 46.53125 42.71875 45.5625 41.890625 
Q 43.84375 40.4375 42.484375 37.015625 
L 26.609375 -1.375 
L 24.609375 -1.375 
L 8.640625 36.375 
Q 7.5625 39.015625 6.578125 40.15625 
Q 5.609375 41.3125 4.109375 42.09375 
Q 3.265625 42.53125 0.828125 42.921875 
z
" id="TimesNewRomanPSMT-118"/>
       <path d="M 28.46875 6.453125 
Q 21.578125 1.125 19.828125 0.296875 
Q 17.1875 -0.921875 14.203125 -0.921875 
Q 9.578125 -0.921875 6.5625 2.25 
Q 3.5625 5.421875 3.5625 10.59375 
Q 3.5625 13.875 5.03125 16.265625 
Q 7.03125 19.578125 11.984375 22.5 
Q 16.9375 25.4375 28.46875 29.640625 
L 28.46875 31.390625 
Q 28.46875 38.09375 26.34375 40.578125 
Q 24.21875 43.0625 20.171875 43.0625 
Q 17.09375 43.0625 15.28125 41.40625 
Q 13.421875 39.75 13.421875 37.59375 
L 13.53125 34.765625 
Q 13.53125 32.515625 12.375 31.296875 
Q 11.234375 30.078125 9.375 30.078125 
Q 7.5625 30.078125 6.421875 31.34375 
Q 5.28125 32.625 5.28125 34.8125 
Q 5.28125 39.015625 9.578125 42.53125 
Q 13.875 46.046875 21.625 46.046875 
Q 27.59375 46.046875 31.390625 44.046875 
Q 34.28125 42.53125 35.640625 39.3125 
Q 36.53125 37.203125 36.53125 30.71875 
L 36.53125 15.53125 
Q 36.53125 9.125 36.765625 7.6875 
Q 37.015625 6.25 37.578125 5.765625 
Q 38.140625 5.28125 38.875 5.28125 
Q 39.65625 5.28125 40.234375 5.609375 
Q 41.265625 6.25 44.1875 9.1875 
L 44.1875 6.453125 
Q 38.71875 -0.875 33.734375 -0.875 
Q 31.34375 -0.875 29.921875 0.78125 
Q 28.515625 2.4375 28.46875 6.453125 
z
M 28.46875 9.625 
L 28.46875 26.65625 
Q 21.09375 23.734375 18.953125 22.515625 
Q 15.09375 20.359375 13.421875 18.015625 
Q 11.765625 15.671875 11.765625 12.890625 
Q 11.765625 9.375 13.859375 7.046875 
Q 15.96875 4.734375 18.703125 4.734375 
Q 22.40625 4.734375 28.46875 9.625 
z
" id="TimesNewRomanPSMT-97"/>
       <path d="M 18.5 69.4375 
L 18.5 10.109375 
Q 18.5 5.90625 19.109375 4.53125 
Q 19.734375 3.171875 21 2.46875 
Q 22.265625 1.765625 25.734375 1.765625 
L 25.734375 0 
L 3.8125 0 
L 3.8125 1.765625 
Q 6.890625 1.765625 8 2.390625 
Q 9.125 3.03125 9.765625 4.484375 
Q 10.40625 5.953125 10.40625 10.109375 
L 10.40625 50.734375 
Q 10.40625 58.296875 10.0625 60.03125 
Q 9.71875 61.765625 8.953125 62.390625 
Q 8.203125 63.03125 7.03125 63.03125 
Q 5.765625 63.03125 3.8125 62.25 
L 2.984375 63.96875 
L 16.3125 69.4375 
z
" id="TimesNewRomanPSMT-108"/>
       <path d="M 32.03125 46.046875 
L 32.03125 30.8125 
L 30.421875 30.8125 
Q 28.5625 37.984375 25.65625 40.578125 
Q 22.75 43.171875 18.265625 43.171875 
Q 14.84375 43.171875 12.734375 41.359375 
Q 10.640625 39.546875 10.640625 37.359375 
Q 10.640625 34.625 12.203125 32.671875 
Q 13.71875 30.671875 18.359375 28.421875 
L 25.484375 24.953125 
Q 35.40625 20.125 35.40625 12.203125 
Q 35.40625 6.109375 30.78125 2.359375 
Q 26.171875 -1.375 20.453125 -1.375 
Q 16.359375 -1.375 11.078125 0.09375 
Q 9.46875 0.59375 8.453125 0.59375 
Q 7.328125 0.59375 6.6875 -0.6875 
L 5.078125 -0.6875 
L 5.078125 15.28125 
L 6.6875 15.28125 
Q 8.0625 8.453125 11.90625 4.984375 
Q 15.765625 1.515625 20.5625 1.515625 
Q 23.921875 1.515625 26.046875 3.484375 
Q 28.171875 5.46875 28.171875 8.25 
Q 28.171875 11.625 25.796875 13.921875 
Q 23.4375 16.21875 16.359375 19.734375 
Q 9.28125 23.25 7.078125 26.078125 
Q 4.890625 28.859375 4.890625 33.109375 
Q 4.890625 38.625 8.671875 42.328125 
Q 12.453125 46.046875 18.453125 46.046875 
Q 21.09375 46.046875 24.859375 44.921875 
Q 27.34375 44.1875 28.171875 44.1875 
Q 28.953125 44.1875 29.390625 44.53125 
Q 29.828125 44.875 30.421875 46.046875 
z
" id="TimesNewRomanPSMT-115"/>
      </defs>
      <use xlink:href="#TimesNewRomanPSMT-78"/>
      <use x="72.216797" xlink:href="#TimesNewRomanPSMT-98"/>
      <use x="122.216797" xlink:href="#TimesNewRomanPSMT-114"/>
      <use x="150.017578" xlink:href="#TimesNewRomanPSMT-46"/>
      <use x="175.017578" xlink:href="#TimesNewRomanPSMT-32"/>
      <use x="200.017578" xlink:href="#TimesNewRomanPSMT-111"/>
      <use x="250.017578" xlink:href="#TimesNewRomanPSMT-102"/>
      <use x="283.318359" xlink:href="#TimesNewRomanPSMT-32"/>
      <use x="308.318359" xlink:href="#TimesNewRomanPSMT-102"/>
      <use x="341.619141" xlink:href="#TimesNewRomanPSMT-117"/>
      <use x="391.619141" xlink:href="#TimesNewRomanPSMT-110"/>
      <use x="441.619141" xlink:href="#TimesNewRomanPSMT-99"/>
      <use x="486.003906" xlink:href="#TimesNewRomanPSMT-116"/>
      <use x="513.787109" xlink:href="#TimesNewRomanPSMT-105"/>
      <use x="541.570312" xlink:href="#TimesNewRomanPSMT-111"/>
      <use x="591.570312" xlink:href="#TimesNewRomanPSMT-110"/>
      <use x="641.570312" xlink:href="#TimesNewRomanPSMT-32"/>
      <use x="666.570312" xlink:href="#TimesNewRomanPSMT-101"/>
      <use x="710.955078" xlink:href="#TimesNewRomanPSMT-118"/>
      <use x="760.955078" xlink:href="#TimesNewRomanPSMT-97"/>
      <use x="805.339844" xlink:href="#TimesNewRomanPSMT-108"/>
      <use x="833.123047" xlink:href="#TimesNewRomanPSMT-117"/>
      <use x="883.123047" xlink:href="#TimesNewRomanPSMT-97"/>
      <use x="927.507812" xlink:href="#TimesNewRomanPSMT-116"/>
      <use x="955.291016" xlink:href="#TimesNewRomanPSMT-105"/>
      <use x="983.074219" xlink:href="#TimesNewRomanPSMT-111"/>
      <use x="1033.074219" xlink:href="#TimesNewRomanPSMT-110"/>
      <use x="1083.074219" xlink:href="#TimesNewRomanPSMT-115"/>
     </g>
    </g>
   </g>
   <g id="matplotlib.axis_2">
    <g id="ytick_1">
     <g id="line2d_6">
      <defs>
       <path d="M 0 0 
L -3.5 0 
" id="mfc8b03d49d" style="stroke:#000000;stroke-width:0.8;"/>
      </defs>
      <g>
       <use style="stroke:#000000;stroke-width:0.8;" x="54" xlink:href="#mfc8b03d49d" y="205.355428"/>
      </g>
     </g>
     <g id="text_7">
      <!-- 50 -->
      <g transform="translate(23.541406 210.563241)scale(0.15 -0.15)">
       <defs>
        <path d="M 54.4375 31.25 
L 1.8125 31.25 
L 1.8125 35.25 
L 54.4375 35.25 
z
" id="TimesNewRomanPSMT-8722"/>
        <path d="M 43.40625 66.21875 
L 39.59375 57.90625 
L 19.671875 57.90625 
L 15.328125 49.03125 
Q 28.265625 47.125 35.84375 39.40625 
Q 42.328125 32.765625 42.328125 23.78125 
Q 42.328125 18.5625 40.203125 14.109375 
Q 38.09375 9.671875 34.859375 6.546875 
Q 31.640625 3.421875 27.6875 1.515625 
Q 22.078125 -1.171875 16.15625 -1.171875 
Q 10.203125 -1.171875 7.484375 0.84375 
Q 4.78125 2.875 4.78125 5.328125 
Q 4.78125 6.6875 5.90625 7.734375 
Q 7.03125 8.796875 8.734375 8.796875 
Q 10.015625 8.796875 10.96875 8.40625 
Q 11.921875 8.015625 14.203125 6.390625 
Q 17.875 3.859375 21.625 3.859375 
Q 27.34375 3.859375 31.65625 8.171875 
Q 35.984375 12.5 35.984375 18.703125 
Q 35.984375 24.703125 32.125 29.90625 
Q 28.265625 35.109375 21.484375 37.9375 
Q 16.15625 40.140625 6.984375 40.484375 
L 19.671875 66.21875 
z
" id="TimesNewRomanPSMT-53"/>
       </defs>
       <use xlink:href="#TimesNewRomanPSMT-8722"/>
       <use x="56.396484" xlink:href="#TimesNewRomanPSMT-53"/>
       <use x="106.396484" xlink:href="#TimesNewRomanPSMT-48"/>
      </g>
     </g>
    </g>
    <g id="ytick_2">
     <g id="line2d_7">
      <g>
       <use style="stroke:#000000;stroke-width:0.8;" x="54" xlink:href="#mfc8b03d49d" y="153.840247"/>
      </g>
     </g>
     <g id="text_8">
      <!-- 0 -->
      <g transform="translate(39.5 159.048059)scale(0.15 -0.15)">
       <use xlink:href="#TimesNewRomanPSMT-48"/>
      </g>
     </g>
    </g>
    <g id="ytick_3">
     <g id="line2d_8">
      <g>
       <use style="stroke:#000000;stroke-width:0.8;" x="54" xlink:href="#mfc8b03d49d" y="102.325065"/>
      </g>
     </g>
     <g id="text_9">
      <!-- 50 -->
      <g transform="translate(32 107.532878)scale(0.15 -0.15)">
       <use xlink:href="#TimesNewRomanPSMT-53"/>
       <use x="50" xlink:href="#TimesNewRomanPSMT-48"/>
      </g>
     </g>
    </g>
    <g id="ytick_4">
     <g id="line2d_9">
      <g>
       <use style="stroke:#000000;stroke-width:0.8;" x="54" xlink:href="#mfc8b03d49d" y="50.809883"/>
      </g>
     </g>
     <g id="text_10">
      <!-- 100 -->
      <g transform="translate(24.5 56.017696)scale(0.15 -0.15)">
       <defs>
        <path d="M 11.71875 59.71875 
L 27.828125 67.578125 
L 29.4375 67.578125 
L 29.4375 11.671875 
Q 29.4375 6.109375 29.90625 4.734375 
Q 30.375 3.375 31.828125 2.640625 
Q 33.296875 1.90625 37.796875 1.8125 
L 37.796875 0 
L 12.890625 0 
L 12.890625 1.8125 
Q 17.578125 1.90625 18.9375 2.609375 
Q 20.3125 3.328125 20.84375 4.515625 
Q 21.390625 5.71875 21.390625 11.671875 
L 21.390625 47.40625 
Q 21.390625 54.640625 20.90625 56.6875 
Q 20.5625 58.25 19.65625 58.984375 
Q 18.75 59.71875 17.484375 59.71875 
Q 15.671875 59.71875 12.453125 58.203125 
z
" id="TimesNewRomanPSMT-49"/>
       </defs>
       <use xlink:href="#TimesNewRomanPSMT-49"/>
       <use x="50" xlink:href="#TimesNewRomanPSMT-48"/>
       <use x="100" xlink:href="#TimesNewRomanPSMT-48"/>
      </g>
     </g>
    </g>
    <g id="text_11">
     <!-- Best function evaluation -->
     <g transform="translate(16.332812 216.597188)rotate(-90)scale(0.15 -0.15)">
      <defs>
       <path d="M 46.1875 33.796875 
Q 53.078125 32.328125 56.5 29.109375 
Q 61.234375 24.609375 61.234375 18.109375 
Q 61.234375 13.1875 58.109375 8.671875 
Q 54.984375 4.15625 49.53125 2.078125 
Q 44.09375 0 32.90625 0 
L 1.65625 0 
L 1.65625 1.8125 
L 4.15625 1.8125 
Q 8.296875 1.8125 10.109375 4.4375 
Q 11.234375 6.15625 11.234375 11.71875 
L 11.234375 54.5 
Q 11.234375 60.640625 9.8125 62.25 
Q 7.90625 64.40625 4.15625 64.40625 
L 1.65625 64.40625 
L 1.65625 66.21875 
L 30.28125 66.21875 
Q 38.28125 66.21875 43.109375 65.046875 
Q 50.4375 63.28125 54.296875 58.8125 
Q 58.15625 54.34375 58.15625 48.53125 
Q 58.15625 43.5625 55.125 39.625 
Q 52.09375 35.6875 46.1875 33.796875 
z
M 20.609375 36.421875 
Q 22.40625 36.078125 24.71875 35.90625 
Q 27.046875 35.75 29.828125 35.75 
Q 36.96875 35.75 40.546875 37.28125 
Q 44.140625 38.8125 46.046875 41.984375 
Q 47.953125 45.171875 47.953125 48.921875 
Q 47.953125 54.734375 43.21875 58.828125 
Q 38.484375 62.9375 29.390625 62.9375 
Q 24.515625 62.9375 20.609375 61.859375 
z
M 20.609375 4.78125 
Q 26.265625 3.46875 31.78125 3.46875 
Q 40.625 3.46875 45.265625 7.4375 
Q 49.90625 11.421875 49.90625 17.28125 
Q 49.90625 21.140625 47.796875 24.703125 
Q 45.703125 28.265625 40.96875 30.3125 
Q 36.234375 32.375 29.25 32.375 
Q 26.21875 32.375 24.0625 32.265625 
Q 21.921875 32.171875 20.609375 31.9375 
z
" id="TimesNewRomanPSMT-66"/>
      </defs>
      <use xlink:href="#TimesNewRomanPSMT-66"/>
      <use x="66.699219" xlink:href="#TimesNewRomanPSMT-101"/>
      <use x="111.083984" xlink:href="#TimesNewRomanPSMT-115"/>
      <use x="150" xlink:href="#TimesNewRomanPSMT-116"/>
      <use x="177.783203" xlink:href="#TimesNewRomanPSMT-32"/>
      <use x="202.783203" xlink:href="#TimesNewRomanPSMT-102"/>
      <use x="236.083984" xlink:href="#TimesNewRomanPSMT-117"/>
      <use x="286.083984" xlink:href="#TimesNewRomanPSMT-110"/>
      <use x="336.083984" xlink:href="#TimesNewRomanPSMT-99"/>
      <use x="380.46875" xlink:href="#TimesNewRomanPSMT-116"/>
      <use x="408.251953" xlink:href="#TimesNewRomanPSMT-105"/>
      <use x="436.035156" xlink:href="#TimesNewRomanPSMT-111"/>
      <use x="486.035156" xlink:href="#TimesNewRomanPSMT-110"/>
      <use x="536.035156" xlink:href="#TimesNewRomanPSMT-32"/>
      <use x="561.035156" xlink:href="#TimesNewRomanPSMT-101"/>
      <use x="605.419922" xlink:href="#TimesNewRomanPSMT-118"/>
      <use x="655.419922" xlink:href="#TimesNewRomanPSMT-97"/>
      <use x="699.804688" xlink:href="#TimesNewRomanPSMT-108"/>
      <use x="727.587891" xlink:href="#TimesNewRomanPSMT-117"/>
      <use x="777.587891" xlink:href="#TimesNewRomanPSMT-97"/>
      <use x="821.972656" xlink:href="#TimesNewRomanPSMT-116"/>
      <use x="849.755859" xlink:href="#TimesNewRomanPSMT-105"/>
      <use x="877.539062" xlink:href="#TimesNewRomanPSMT-111"/>
      <use x="927.539062" xlink:href="#TimesNewRomanPSMT-110"/>
     </g>
    </g>
   </g>
   <g id="line2d_10">
    <path clip-path="url(#p223a9284fc)" d="M 57.381818 86.13707 
L 111.490909 86.13707 
L 111.490909 216.014717 
L 128.4 216.014717 
L 128.4 218.562192 
L 135.163636 218.562192 
L 135.163636 219.353862 
L 138.545455 219.353862 
L 138.545455 223.699392 
L 145.309091 223.699392 
L 145.309091 224.227903 
L 148.690909 224.227903 
L 148.690909 224.817028 
L 152.072727 224.817028 
L 152.072727 224.991147 
L 155.454545 224.991147 
L 155.454545 226.319285 
L 158.836364 226.319285 
L 158.836364 226.823313 
L 162.218182 226.823313 
L 162.218182 228.199105 
L 168.981818 228.199105 
L 168.981818 228.472429 
L 175.745455 228.48778 
L 175.745455 229.168451 
L 185.890909 229.246677 
L 185.890909 229.818847 
L 192.654545 229.875522 
L 192.654545 229.948389 
L 206.181818 229.973556 
L 206.181818 230.358379 
L 240 230.405336 
L 240 230.502458 
L 256.909091 230.587397 
L 256.909091 230.693443 
L 314.4 230.788976 
L 314.4 230.876741 
L 317.781818 230.876741 
L 317.781818 231.013424 
L 392.181818 231.08768 
L 392.181818 231.08768 
" style="fill:none;stroke:#0000ff;stroke-linecap:square;stroke-width:1.5;"/>
   </g>
   <g id="line2d_11">
    <path clip-path="url(#p223a9284fc)" d="M 57.381818 86.13707 
L 81.054545 86.13707 
L 81.054545 167.991318 
L 87.818182 167.991318 
L 87.818182 224.254714 
L 94.581818 224.254714 
L 94.581818 224.47565 
L 101.345455 224.533403 
L 101.345455 224.822753 
L 104.727273 224.822753 
L 104.727273 227.192756 
L 118.254545 227.192756 
L 118.254545 227.508005 
L 121.636364 227.508005 
L 121.636364 227.743575 
L 125.018182 227.743575 
L 125.018182 227.977364 
L 128.4 227.977364 
L 128.4 228.288237 
L 141.927273 228.369207 
L 141.927273 228.459456 
L 158.836364 228.517465 
L 158.836364 228.597567 
L 172.363636 228.597567 
L 172.363636 228.718864 
L 175.745455 228.718864 
L 175.745455 229.197926 
L 199.418182 229.221425 
L 199.418182 229.342144 
L 219.709091 229.342144 
L 219.709091 229.527714 
L 233.236364 229.527714 
L 233.236364 229.652067 
L 334.690909 229.727867 
L 334.690909 229.793729 
L 341.454545 229.793729 
L 341.454545 230.052922 
L 392.181818 230.052922 
L 392.181818 230.052922 
" style="fill:none;stroke:#00bfbf;stroke-linecap:square;stroke-width:1.5;"/>
   </g>
   <g id="line2d_12">
    <path clip-path="url(#p223a9284fc)" d="M 60.763636 86.165932 
L 67.527273 86.165932 
L 67.527273 113.097483 
L 77.672727 113.097483 
L 77.672727 144.593401 
L 84.436364 144.593401 
L 84.436364 161.852881 
L 91.2 161.852881 
L 91.2 163.462825 
L 97.963636 163.462825 
L 97.963636 164.198373 
L 101.345455 164.198373 
L 101.345455 169.642587 
L 104.727273 169.642587 
L 104.727273 170.940835 
L 108.109091 170.940835 
L 108.109091 173.259712 
L 111.490909 173.259712 
L 111.490909 177.272412 
L 114.872727 177.272412 
L 114.872727 181.392009 
L 118.254545 181.392009 
L 118.254545 186.552281 
L 121.636364 186.552281 
L 121.636364 188.058705 
L 125.018182 188.058705 
L 125.018182 188.776568 
L 131.781818 188.776568 
L 131.781818 191.660165 
L 135.163636 191.660165 
L 135.163636 193.169024 
L 138.545455 193.169024 
L 138.545455 193.359527 
L 141.927273 193.359527 
L 141.927273 194.580689 
L 145.309091 194.580689 
L 145.309091 197.387424 
L 148.690909 197.387424 
L 148.690909 203.167855 
L 155.454545 203.167855 
L 155.454545 203.99964 
L 162.218182 203.99964 
L 162.218182 211.672399 
L 172.363636 211.672399 
L 172.363636 212.824946 
L 392.181818 212.824946 
L 392.181818 212.824946 
" style="fill:none;stroke:#008000;stroke-linecap:square;stroke-width:1.5;"/>
   </g>
   <g id="line2d_13">
    <path clip-path="url(#p223a9284fc)" d="M 60.763636 86.178511 
L 77.672727 86.213277 
L 77.672727 161.227871 
L 91.2 161.227871 
L 91.2 161.970132 
L 101.345455 161.970132 
L 101.345455 165.465021 
L 104.727273 165.465021 
L 104.727273 185.126584 
L 118.254545 185.126584 
L 118.254545 199.272024 
L 121.636364 199.272024 
L 121.636364 209.702798 
L 135.163636 209.702798 
L 135.163636 211.249138 
L 145.309091 211.249138 
L 145.309091 212.524146 
L 155.454545 212.524146 
L 155.454545 216.580721 
L 168.981818 216.580721 
L 168.981818 220.331197 
L 199.418182 220.331197 
L 199.418182 222.859196 
L 243.381818 222.859196 
L 243.381818 226.431974 
L 304.254545 226.518633 
L 304.254545 226.940368 
L 311.018182 226.940368 
L 311.018182 227.647109 
L 341.454545 227.647109 
L 341.454545 227.875041 
L 368.509091 227.875041 
L 368.509091 228.555582 
L 392.181818 228.555582 
L 392.181818 228.555582 
" style="fill:none;stroke:#ffa500;stroke-linecap:square;stroke-width:1.5;"/>
   </g>
   <g id="line2d_14">
    <path clip-path="url(#p223a9284fc)" d="M 57.381818 153.72532 
L 67.527273 153.72532 
L 67.527273 196.152765 
L 70.909091 196.152765 
L 70.909091 214.328582 
L 81.054545 214.328582 
L 81.054545 228.401244 
L 91.2 228.401244 
L 91.2 230.521639 
L 94.581818 230.521639 
L 94.581818 231.005533 
L 104.727273 231.005533 
L 104.727273 231.309636 
L 108.109091 231.309636 
L 108.109091 231.603013 
L 392.181818 231.603013 
L 392.181818 231.603013 
" style="fill:none;stroke:#ff0000;stroke-linecap:square;stroke-width:1.5;"/>
   </g>
   <g id="patch_3">
    <path d="M 54 252 
L 54 34.56 
" style="fill:none;stroke:#000000;stroke-linecap:square;stroke-linejoin:miter;stroke-width:0.8;"/>
   </g>
   <g id="patch_4">
    <path d="M 388.8 252 
L 388.8 34.56 
" style="fill:none;stroke:#000000;stroke-linecap:square;stroke-linejoin:miter;stroke-width:0.8;"/>
   </g>
   <g id="patch_5">
    <path d="M 54 252 
L 388.8 252 
" style="fill:none;stroke:#000000;stroke-linecap:square;stroke-linejoin:miter;stroke-width:0.8;"/>
   </g>
   <g id="patch_6">
    <path d="M 54 34.56 
L 388.8 34.56 
" style="fill:none;stroke:#000000;stroke-linecap:square;stroke-linejoin:miter;stroke-width:0.8;"/>
   </g>
   <g id="legend_1">
    <g id="patch_7">
     <path d="M 252.553906 132.999453 
L 380.05 132.999453 
Q 382.55 132.999453 382.55 130.499453 
L 382.55 43.31 
Q 382.55 40.81 380.05 40.81 
L 252.553906 40.81 
Q 250.053906 40.81 250.053906 43.31 
L 250.053906 130.499453 
Q 250.053906 132.999453 252.553906 132.999453 
z
" style="fill:#ffffff;opacity:0.8;stroke:#cccccc;stroke-linejoin:miter;"/>
    </g>
    <g id="line2d_15">
     <path d="M 255.053906 50.185 
L 280.053906 50.185 
" style="fill:none;stroke:#0000ff;stroke-linecap:square;stroke-width:1.5;"/>
    </g>
    <g id="line2d_16"/>
    <g id="text_12">
     <!-- CUATRO_global -->
     <g transform="translate(290.053906 54.56)scale(0.125 -0.125)">
      <defs>
       <path d="M 60.203125 67.71875 
L 61.71875 45.21875 
L 60.203125 45.21875 
Q 57.171875 55.328125 51.5625 59.765625 
Q 45.953125 64.203125 38.09375 64.203125 
Q 31.5 64.203125 26.171875 60.859375 
Q 20.84375 57.515625 17.796875 50.1875 
Q 14.75 42.875 14.75 31.984375 
Q 14.75 23 17.625 16.40625 
Q 20.515625 9.8125 26.296875 6.296875 
Q 32.078125 2.78125 39.5 2.78125 
Q 45.953125 2.78125 50.875 5.53125 
Q 55.8125 8.296875 61.71875 16.5 
L 63.234375 15.53125 
Q 58.25 6.6875 51.609375 2.578125 
Q 44.96875 -1.515625 35.84375 -1.515625 
Q 19.390625 -1.515625 10.359375 10.6875 
Q 3.609375 19.78125 3.609375 32.078125 
Q 3.609375 42 8.046875 50.296875 
Q 12.5 58.59375 20.28125 63.15625 
Q 28.078125 67.71875 37.3125 67.71875 
Q 44.484375 67.71875 51.46875 64.203125 
Q 53.515625 63.140625 54.390625 63.140625 
Q 55.71875 63.140625 56.6875 64.0625 
Q 57.953125 65.375 58.5 67.71875 
z
" id="TimesNewRomanPSMT-67"/>
       <path d="M 47.703125 64.40625 
L 47.703125 66.21875 
L 71.140625 66.21875 
L 71.140625 64.40625 
L 68.65625 64.40625 
Q 64.75 64.40625 62.640625 61.140625 
Q 61.625 59.625 61.625 54.109375 
L 61.625 27.25 
Q 61.625 17.28125 59.640625 11.78125 
Q 57.671875 6.296875 51.875 2.359375 
Q 46.09375 -1.5625 36.140625 -1.5625 
Q 25.296875 -1.5625 19.671875 2.1875 
Q 14.0625 5.953125 11.71875 12.3125 
Q 10.15625 16.65625 10.15625 28.609375 
L 10.15625 54.5 
Q 10.15625 60.59375 8.46875 62.5 
Q 6.78125 64.40625 3.03125 64.40625 
L 0.53125 64.40625 
L 0.53125 66.21875 
L 29.15625 66.21875 
L 29.15625 64.40625 
L 26.609375 64.40625 
Q 22.515625 64.40625 20.75 61.8125 
Q 19.53125 60.0625 19.53125 54.5 
L 19.53125 25.640625 
Q 19.53125 21.78125 20.234375 16.796875 
Q 20.953125 11.8125 22.796875 9.03125 
Q 24.65625 6.25 28.140625 4.4375 
Q 31.640625 2.640625 36.71875 2.640625 
Q 43.21875 2.640625 48.34375 5.46875 
Q 53.46875 8.296875 55.34375 12.71875 
Q 57.234375 17.140625 57.234375 27.6875 
L 57.234375 54.5 
Q 57.234375 60.6875 55.859375 62.25 
Q 53.953125 64.40625 50.203125 64.40625 
z
" id="TimesNewRomanPSMT-85"/>
       <path d="M 45.75 22.171875 
L 20.125 22.171875 
L 15.625 11.71875 
Q 13.96875 7.859375 13.96875 5.953125 
Q 13.96875 4.4375 15.40625 3.296875 
Q 16.84375 2.15625 21.625 1.8125 
L 21.625 0 
L 0.78125 0 
L 0.78125 1.8125 
Q 4.9375 2.546875 6.15625 3.71875 
Q 8.640625 6.0625 11.671875 13.234375 
L 34.96875 67.71875 
L 36.671875 67.71875 
L 59.71875 12.640625 
Q 62.5 6 64.765625 4.015625 
Q 67.046875 2.046875 71.09375 1.8125 
L 71.09375 0 
L 44.96875 0 
L 44.96875 1.8125 
Q 48.921875 2 50.3125 3.125 
Q 51.703125 4.25 51.703125 5.859375 
Q 51.703125 8.015625 49.75 12.640625 
z
M 44.390625 25.78125 
L 33.15625 52.546875 
L 21.625 25.78125 
z
" id="TimesNewRomanPSMT-65"/>
       <path d="M 57.859375 66.21875 
L 58.59375 50.6875 
L 56.734375 50.6875 
Q 56.203125 54.78125 55.28125 56.546875 
Q 53.765625 59.375 51.25 60.71875 
Q 48.734375 62.0625 44.625 62.0625 
L 35.296875 62.0625 
L 35.296875 11.46875 
Q 35.296875 5.375 36.625 3.859375 
Q 38.484375 1.8125 42.328125 1.8125 
L 44.625 1.8125 
L 44.625 0 
L 16.546875 0 
L 16.546875 1.8125 
L 18.890625 1.8125 
Q 23.09375 1.8125 24.859375 4.34375 
Q 25.921875 5.90625 25.921875 11.46875 
L 25.921875 62.0625 
L 17.96875 62.0625 
Q 13.328125 62.0625 11.375 61.375 
Q 8.84375 60.453125 7.03125 57.8125 
Q 5.21875 55.171875 4.890625 50.6875 
L 3.03125 50.6875 
L 3.8125 66.21875 
z
" id="TimesNewRomanPSMT-84"/>
       <path d="M 67.578125 0 
L 49.90625 0 
L 27.484375 30.953125 
Q 25 30.859375 23.4375 30.859375 
Q 22.796875 30.859375 22.0625 30.875 
Q 21.34375 30.90625 20.5625 30.953125 
L 20.5625 11.71875 
Q 20.5625 5.46875 21.921875 3.953125 
Q 23.78125 1.8125 27.484375 1.8125 
L 30.078125 1.8125 
L 30.078125 0 
L 1.703125 0 
L 1.703125 1.8125 
L 4.203125 1.8125 
Q 8.40625 1.8125 10.203125 4.546875 
Q 11.234375 6.0625 11.234375 11.71875 
L 11.234375 54.5 
Q 11.234375 60.75 9.859375 62.25 
Q 7.953125 64.40625 4.203125 64.40625 
L 1.703125 64.40625 
L 1.703125 66.21875 
L 25.828125 66.21875 
Q 36.375 66.21875 41.375 64.671875 
Q 46.390625 63.140625 49.875 59.015625 
Q 53.375 54.890625 53.375 49.171875 
Q 53.375 43.0625 49.390625 38.5625 
Q 45.40625 34.078125 37.0625 32.234375 
L 50.734375 13.234375 
Q 55.421875 6.6875 58.78125 4.53125 
Q 62.15625 2.390625 67.578125 1.8125 
z
M 20.5625 34.03125 
Q 21.484375 34.03125 22.171875 34 
Q 22.859375 33.984375 23.296875 33.984375 
Q 32.765625 33.984375 37.578125 38.078125 
Q 42.390625 42.1875 42.390625 48.53125 
Q 42.390625 54.734375 38.5 58.609375 
Q 34.625 62.5 28.21875 62.5 
Q 25.390625 62.5 20.5625 61.578125 
z
" id="TimesNewRomanPSMT-82"/>
       <path d="M 36.578125 67.71875 
Q 49.46875 67.71875 58.90625 57.921875 
Q 68.359375 48.140625 68.359375 33.5 
Q 68.359375 18.40625 58.828125 8.4375 
Q 49.3125 -1.515625 35.796875 -1.515625 
Q 22.125 -1.515625 12.8125 8.203125 
Q 3.515625 17.921875 3.515625 33.34375 
Q 3.515625 49.125 14.265625 59.078125 
Q 23.578125 67.71875 36.578125 67.71875 
z
M 35.640625 64.15625 
Q 26.765625 64.15625 21.390625 57.5625 
Q 14.703125 49.359375 14.703125 33.546875 
Q 14.703125 17.328125 21.625 8.59375 
Q 26.953125 1.953125 35.6875 1.953125 
Q 45.015625 1.953125 51.09375 9.21875 
Q 57.171875 16.5 57.171875 32.171875 
Q 57.171875 49.171875 50.484375 57.515625 
Q 45.125 64.15625 35.640625 64.15625 
z
" id="TimesNewRomanPSMT-79"/>
       <path d="M 50.875 -21.578125 
L -0.828125 -21.578125 
L -0.828125 -17.484375 
L 50.875 -17.484375 
z
" id="TimesNewRomanPSMT-95"/>
       <path d="M 15.09375 16.3125 
Q 10.984375 18.3125 8.78125 21.890625 
Q 6.59375 25.484375 6.59375 29.828125 
Q 6.59375 36.46875 11.59375 41.25 
Q 16.609375 46.046875 24.421875 46.046875 
Q 30.8125 46.046875 35.5 42.921875 
L 44.96875 42.921875 
Q 47.078125 42.921875 47.40625 42.796875 
Q 47.75 42.671875 47.90625 42.390625 
Q 48.1875 41.9375 48.1875 40.828125 
Q 48.1875 39.546875 47.953125 39.0625 
Q 47.796875 38.8125 47.4375 38.671875 
Q 47.078125 38.53125 44.96875 38.53125 
L 39.15625 38.53125 
Q 41.890625 35.015625 41.890625 29.546875 
Q 41.890625 23.296875 37.109375 18.84375 
Q 32.328125 14.40625 24.265625 14.40625 
Q 20.953125 14.40625 17.484375 15.375 
Q 15.328125 13.53125 14.5625 12.140625 
Q 13.8125 10.75 13.8125 9.765625 
Q 13.8125 8.9375 14.625 8.15625 
Q 15.4375 7.375 17.78125 7.03125 
Q 19.140625 6.84375 24.609375 6.6875 
Q 34.671875 6.453125 37.640625 6 
Q 42.1875 5.375 44.890625 2.640625 
Q 47.609375 -0.09375 47.609375 -4.109375 
Q 47.609375 -9.625 42.4375 -14.453125 
Q 34.8125 -21.578125 22.5625 -21.578125 
Q 13.140625 -21.578125 6.640625 -17.328125 
Q 2.984375 -14.890625 2.984375 -12.25 
Q 2.984375 -11.078125 3.515625 -9.90625 
Q 4.34375 -8.109375 6.9375 -4.890625 
Q 7.28125 -4.4375 11.921875 0.390625 
Q 9.375 1.90625 8.328125 3.09375 
Q 7.28125 4.296875 7.28125 5.8125 
Q 7.28125 7.515625 8.671875 9.8125 
Q 10.0625 12.109375 15.09375 16.3125 
z
M 23.578125 43.703125 
Q 19.96875 43.703125 17.53125 40.8125 
Q 15.09375 37.9375 15.09375 31.984375 
Q 15.09375 24.265625 18.40625 20.015625 
Q 20.953125 16.796875 24.859375 16.796875 
Q 28.5625 16.796875 30.953125 19.578125 
Q 33.34375 22.359375 33.34375 28.328125 
Q 33.34375 36.078125 29.984375 40.484375 
Q 27.484375 43.703125 23.578125 43.703125 
z
M 14.59375 0 
Q 12.3125 -2.484375 11.140625 -4.625 
Q 9.96875 -6.78125 9.96875 -8.59375 
Q 9.96875 -10.9375 12.796875 -12.703125 
Q 17.671875 -15.71875 26.90625 -15.71875 
Q 35.6875 -15.71875 39.859375 -12.609375 
Q 44.046875 -9.515625 44.046875 -6 
Q 44.046875 -3.46875 41.546875 -2.390625 
Q 39.015625 -1.3125 31.5 -1.125 
Q 20.515625 -0.828125 14.59375 0 
z
" id="TimesNewRomanPSMT-103"/>
      </defs>
      <use xlink:href="#TimesNewRomanPSMT-67"/>
      <use x="66.699219" xlink:href="#TimesNewRomanPSMT-85"/>
      <use x="138.916016" xlink:href="#TimesNewRomanPSMT-65"/>
      <use x="200.007812" xlink:href="#TimesNewRomanPSMT-84"/>
      <use x="261.091797" xlink:href="#TimesNewRomanPSMT-82"/>
      <use x="327.791016" xlink:href="#TimesNewRomanPSMT-79"/>
      <use x="400.007812" xlink:href="#TimesNewRomanPSMT-95"/>
      <use x="450.007812" xlink:href="#TimesNewRomanPSMT-103"/>
      <use x="500.007812" xlink:href="#TimesNewRomanPSMT-108"/>
      <use x="527.791016" xlink:href="#TimesNewRomanPSMT-111"/>
      <use x="577.791016" xlink:href="#TimesNewRomanPSMT-98"/>
      <use x="627.791016" xlink:href="#TimesNewRomanPSMT-97"/>
      <use x="672.175781" xlink:href="#TimesNewRomanPSMT-108"/>
     </g>
    </g>
    <g id="line2d_17">
     <path d="M 255.053906 67.882266 
L 280.053906 67.882266 
" style="fill:none;stroke:#00bfbf;stroke-linecap:square;stroke-width:1.5;"/>
    </g>
    <g id="line2d_18"/>
    <g id="text_13">
     <!-- CUATRO_local -->
     <g transform="translate(290.053906 72.257266)scale(0.125 -0.125)">
      <use xlink:href="#TimesNewRomanPSMT-67"/>
      <use x="66.699219" xlink:href="#TimesNewRomanPSMT-85"/>
      <use x="138.916016" xlink:href="#TimesNewRomanPSMT-65"/>
      <use x="200.007812" xlink:href="#TimesNewRomanPSMT-84"/>
      <use x="261.091797" xlink:href="#TimesNewRomanPSMT-82"/>
      <use x="327.791016" xlink:href="#TimesNewRomanPSMT-79"/>
      <use x="400.007812" xlink:href="#TimesNewRomanPSMT-95"/>
      <use x="450.007812" xlink:href="#TimesNewRomanPSMT-108"/>
      <use x="477.791016" xlink:href="#TimesNewRomanPSMT-111"/>
      <use x="527.791016" xlink:href="#TimesNewRomanPSMT-99"/>
      <use x="572.175781" xlink:href="#TimesNewRomanPSMT-97"/>
      <use x="616.560547" xlink:href="#TimesNewRomanPSMT-108"/>
     </g>
    </g>
    <g id="line2d_19">
     <path d="M 255.053906 85.579531 
L 280.053906 85.579531 
" style="fill:none;stroke:#008000;stroke-linecap:square;stroke-width:1.5;"/>
    </g>
    <g id="line2d_20"/>
    <g id="text_14">
     <!-- Py-BOBYQA  -->
     <g transform="translate(290.053906 89.954531)scale(0.125 -0.125)">
      <defs>
       <path d="M 20.515625 31 
L 20.515625 11.71875 
Q 20.515625 5.46875 21.875 3.953125 
Q 23.734375 1.8125 27.484375 1.8125 
L 30.03125 1.8125 
L 30.03125 0 
L 1.65625 0 
L 1.65625 1.8125 
L 4.15625 1.8125 
Q 8.34375 1.8125 10.15625 4.546875 
Q 11.140625 6.0625 11.140625 11.71875 
L 11.140625 54.5 
Q 11.140625 60.75 9.8125 62.25 
Q 7.90625 64.40625 4.15625 64.40625 
L 1.65625 64.40625 
L 1.65625 66.21875 
L 25.921875 66.21875 
Q 34.8125 66.21875 39.9375 64.375 
Q 45.0625 62.546875 48.578125 58.203125 
Q 52.09375 53.859375 52.09375 47.90625 
Q 52.09375 39.796875 46.75 34.71875 
Q 41.40625 29.640625 31.640625 29.640625 
Q 29.25 29.640625 26.46875 29.984375 
Q 23.6875 30.328125 20.515625 31 
z
M 20.515625 33.796875 
Q 23.09375 33.296875 25.09375 33.046875 
Q 27.09375 32.8125 28.515625 32.8125 
Q 33.59375 32.8125 37.28125 36.734375 
Q 40.96875 40.671875 40.96875 46.921875 
Q 40.96875 51.21875 39.203125 54.90625 
Q 37.453125 58.59375 34.21875 60.421875 
Q 31 62.25 26.90625 62.25 
Q 24.421875 62.25 20.515625 61.328125 
z
" id="TimesNewRomanPSMT-80"/>
       <path d="M 0.59375 44.734375 
L 21.4375 44.734375 
L 21.4375 42.921875 
L 20.40625 42.921875 
Q 18.21875 42.921875 17.109375 41.96875 
Q 16.015625 41.015625 16.015625 39.59375 
Q 16.015625 37.703125 17.625 34.328125 
L 28.515625 11.765625 
L 38.53125 36.46875 
Q 39.359375 38.484375 39.359375 40.4375 
Q 39.359375 41.3125 39.015625 41.75 
Q 38.625 42.28125 37.796875 42.59375 
Q 36.96875 42.921875 34.859375 42.921875 
L 34.859375 44.734375 
L 49.421875 44.734375 
L 49.421875 42.921875 
Q 47.609375 42.71875 46.625 42.125 
Q 45.65625 41.546875 44.484375 39.9375 
Q 44.046875 39.265625 42.828125 36.1875 
L 24.609375 -8.453125 
Q 21.96875 -14.9375 17.6875 -18.25 
Q 13.421875 -21.578125 9.46875 -21.578125 
Q 6.59375 -21.578125 4.734375 -19.921875 
Q 2.875 -18.265625 2.875 -16.109375 
Q 2.875 -14.0625 4.21875 -12.8125 
Q 5.5625 -11.578125 7.90625 -11.578125 
Q 9.515625 -11.578125 12.3125 -12.640625 
Q 14.265625 -13.375 14.75 -13.375 
Q 16.21875 -13.375 17.9375 -11.859375 
Q 19.671875 -10.359375 21.4375 -6 
L 24.609375 1.765625 
L 8.546875 35.5 
Q 7.8125 37.015625 6.203125 39.265625 
Q 4.984375 40.96875 4.203125 41.546875 
Q 3.078125 42.328125 0.59375 42.921875 
z
" id="TimesNewRomanPSMT-121"/>
       <path d="M 4.046875 26.125 
L 29.296875 26.125 
L 29.296875 18.75 
L 4.046875 18.75 
z
" id="TimesNewRomanPSMT-45"/>
       <path d="M 47.65625 66.21875 
L 70.75 66.21875 
L 70.75 64.40625 
L 69.484375 64.40625 
Q 68.21875 64.40625 65.765625 63.28125 
Q 63.328125 62.15625 61.328125 60.046875 
Q 59.328125 57.953125 56.390625 53.21875 
L 40.4375 28.078125 
L 40.4375 11.46875 
Q 40.4375 5.375 41.796875 3.859375 
Q 43.65625 1.8125 47.65625 1.8125 
L 49.8125 1.8125 
L 49.8125 0 
L 21.6875 0 
L 21.6875 1.8125 
L 24.03125 1.8125 
Q 28.21875 1.8125 29.984375 4.34375 
Q 31.0625 5.90625 31.0625 11.46875 
L 31.0625 27.15625 
L 12.890625 54.890625 
Q 9.671875 59.765625 8.515625 60.984375 
Q 7.375 62.203125 3.765625 63.921875 
Q 2.78125 64.40625 0.921875 64.40625 
L 0.921875 66.21875 
L 29.25 66.21875 
L 29.25 64.40625 
L 27.78125 64.40625 
Q 25.484375 64.40625 23.546875 63.328125 
Q 21.625 62.25 21.625 60.109375 
Q 21.625 58.34375 24.609375 53.765625 
L 38.421875 32.421875 
L 51.421875 52.828125 
Q 54.34375 57.421875 54.34375 59.671875 
Q 54.34375 61.03125 53.640625 62.109375 
Q 52.9375 63.1875 51.609375 63.796875 
Q 50.296875 64.40625 47.65625 64.40625 
z
" id="TimesNewRomanPSMT-89"/>
       <path d="M 44.046875 -0.734375 
Q 49.03125 -9.328125 54.8125 -13.375 
Q 60.59375 -17.4375 67.96875 -18.015625 
L 67.96875 -19.578125 
Q 61.234375 -19.34375 53.5625 -16.875 
Q 45.90625 -14.40625 39.03125 -10.03125 
Q 32.171875 -5.671875 27.203125 -0.734375 
Q 20.171875 2.09375 16.0625 5.28125 
Q 10.109375 10.015625 6.8125 16.921875 
Q 3.515625 23.828125 3.515625 33.25 
Q 3.515625 48.09375 13.125 57.90625 
Q 22.75 67.71875 36.421875 67.71875 
Q 49.421875 67.71875 58.90625 57.875 
Q 68.40625 48.046875 68.40625 33.0625 
Q 68.40625 20.90625 61.640625 11.71875 
Q 54.890625 2.546875 44.046875 -0.734375 
z
M 35.84375 63.96875 
Q 26.953125 63.96875 21.53125 57.625 
Q 14.703125 49.65625 14.703125 33.25 
Q 14.703125 17.1875 21.625 8.5 
Q 27 1.8125 35.84375 1.8125 
Q 45.015625 1.8125 50.640625 8.5 
Q 57.234375 16.40625 57.234375 31.84375 
Q 57.234375 43.703125 53.609375 51.8125 
Q 50.828125 58.0625 46.21875 61.015625 
Q 41.609375 63.96875 35.84375 63.96875 
z
" id="TimesNewRomanPSMT-81"/>
      </defs>
      <use xlink:href="#TimesNewRomanPSMT-80"/>
      <use x="55.615234" xlink:href="#TimesNewRomanPSMT-121"/>
      <use x="105.615234" xlink:href="#TimesNewRomanPSMT-45"/>
      <use x="138.916016" xlink:href="#TimesNewRomanPSMT-66"/>
      <use x="205.615234" xlink:href="#TimesNewRomanPSMT-79"/>
      <use x="277.832031" xlink:href="#TimesNewRomanPSMT-66"/>
      <use x="344.53125" xlink:href="#TimesNewRomanPSMT-89"/>
      <use x="416.748047" xlink:href="#TimesNewRomanPSMT-81"/>
      <use x="488.964844" xlink:href="#TimesNewRomanPSMT-65"/>
      <use x="555.681641" xlink:href="#TimesNewRomanPSMT-32"/>
     </g>
    </g>
    <g id="line2d_21">
     <path d="M 255.053906 103.276797 
L 280.053906 103.276797 
" style="fill:none;stroke:#ffa500;stroke-linecap:square;stroke-width:1.5;"/>
    </g>
    <g id="line2d_22"/>
    <g id="text_15">
     <!-- Snobfit -->
     <g transform="translate(290.053906 107.651797)scale(0.125 -0.125)">
      <defs>
       <path d="M 45.84375 67.71875 
L 45.84375 44.828125 
L 44.046875 44.828125 
Q 43.171875 51.421875 40.890625 55.328125 
Q 38.625 59.234375 34.421875 61.515625 
Q 30.21875 63.8125 25.734375 63.8125 
Q 20.65625 63.8125 17.328125 60.71875 
Q 14.015625 57.625 14.015625 53.65625 
Q 14.015625 50.640625 16.109375 48.140625 
Q 19.140625 44.484375 30.515625 38.375 
Q 39.796875 33.40625 43.1875 30.734375 
Q 46.578125 28.078125 48.40625 24.453125 
Q 50.25 20.84375 50.25 16.890625 
Q 50.25 9.375 44.40625 3.921875 
Q 38.578125 -1.515625 29.390625 -1.515625 
Q 26.515625 -1.515625 23.96875 -1.078125 
Q 22.46875 -0.828125 17.703125 0.703125 
Q 12.9375 2.25 11.671875 2.25 
Q 10.453125 2.25 9.734375 1.515625 
Q 9.03125 0.78125 8.6875 -1.515625 
L 6.890625 -1.515625 
L 6.890625 21.1875 
L 8.6875 21.1875 
Q 9.96875 14.0625 12.109375 10.515625 
Q 14.265625 6.984375 18.671875 4.640625 
Q 23.09375 2.296875 28.375 2.296875 
Q 34.46875 2.296875 38 5.515625 
Q 41.546875 8.734375 41.546875 13.140625 
Q 41.546875 15.578125 40.203125 18.0625 
Q 38.875 20.5625 36.03125 22.703125 
Q 34.125 24.171875 25.625 28.921875 
Q 17.140625 33.6875 13.546875 36.515625 
Q 9.96875 39.359375 8.109375 42.765625 
Q 6.25 46.1875 6.25 50.296875 
Q 6.25 57.421875 11.71875 62.5625 
Q 17.1875 67.71875 25.640625 67.71875 
Q 30.90625 67.71875 36.8125 65.140625 
Q 39.546875 63.921875 40.671875 63.921875 
Q 41.9375 63.921875 42.75 64.671875 
Q 43.5625 65.4375 44.046875 67.71875 
z
" id="TimesNewRomanPSMT-83"/>
      </defs>
      <use xlink:href="#TimesNewRomanPSMT-83"/>
      <use x="55.615234" xlink:href="#TimesNewRomanPSMT-110"/>
      <use x="105.615234" xlink:href="#TimesNewRomanPSMT-111"/>
      <use x="155.615234" xlink:href="#TimesNewRomanPSMT-98"/>
      <use x="205.615234" xlink:href="#TimesNewRomanPSMT-102"/>
      <use x="238.916016" xlink:href="#TimesNewRomanPSMT-105"/>
      <use x="266.699219" xlink:href="#TimesNewRomanPSMT-116"/>
     </g>
    </g>
    <g id="line2d_23">
     <path d="M 255.053906 120.950625 
L 280.053906 120.950625 
" style="fill:none;stroke:#ff0000;stroke-linecap:square;stroke-width:1.5;"/>
    </g>
    <g id="line2d_24"/>
    <g id="text_16">
     <!-- BO -->
     <g transform="translate(290.053906 125.325625)scale(0.125 -0.125)">
      <use xlink:href="#TimesNewRomanPSMT-66"/>
      <use x="66.699219" xlink:href="#TimesNewRomanPSMT-79"/>
     </g>
    </g>
   </g>
  </g>
 </g>
 <defs>
  <clipPath id="p223a9284fc">
   <rect height="217.44" width="334.8" x="54" y="34.56"/>
  </clipPath>
 </defs>
</svg>
