<?xml version="1.0" encoding="utf-8" standalone="no"?>
<!DOCTYPE svg PUBLIC "-//W3C//DTD SVG 1.1//EN"
  "http://www.w3.org/Graphics/SVG/1.1/DTD/svg11.dtd">
<!-- Created with matplotlib (https://matplotlib.org/) -->
<svg height="288pt" version="1.1" viewBox="0 0 432 288" width="432pt" xmlns="http://www.w3.org/2000/svg" xmlns:xlink="http://www.w3.org/1999/xlink">
 <metadata>
  <rdf:RDF xmlns:cc="http://creativecommons.org/ns#" xmlns:dc="http://purl.org/dc/elements/1.1/" xmlns:rdf="http://www.w3.org/1999/02/22-rdf-syntax-ns#">
   <cc:Work>
    <dc:type rdf:resource="http://purl.org/dc/dcmitype/StillImage"/>
    <dc:date>2021-04-24T17:46:21.010005</dc:date>
    <dc:format>image/svg+xml</dc:format>
    <dc:creator>
     <cc:Agent>
      <dc:title>Matplotlib v3.3.4, https://matplotlib.org/</dc:title>
     </cc:Agent>
    </dc:creator>
   </cc:Work>
  </rdf:RDF>
 </metadata>
 <defs>
  <style type="text/css">*{stroke-linecap:butt;stroke-linejoin:round;}</style>
 </defs>
 <g id="figure_1">
  <g id="patch_1">
   <path d="M 0 288 
L 432 288 
L 432 0 
L 0 0 
z
" style="fill:#ffffff;"/>
  </g>
  <g id="axes_1">
   <g id="patch_2">
    <path d="M 56.2 232.8 
L 415.8 232.8 
L 415.8 42.5488 
L 56.2 42.5488 
z
" style="fill:#ffffff;"/>
   </g>
   <g id="patch_3">
    <path clip-path="url(#pe35bde90a8)" d="M 62.3132 188.202558 
L 74.060133 188.202558 
L 74.060133 149.948993 
L 62.3132 149.948993 
L 62.3132 188.202558 
z
" style="fill:#597dbf;stroke:#545454;stroke-linejoin:miter;stroke-width:1.5;"/>
   </g>
   <g id="patch_4">
    <path clip-path="url(#pe35bde90a8)" d="M 74.299867 219.034774 
L 86.0468 219.034774 
L 86.0468 210.976702 
L 74.299867 210.976702 
L 74.299867 219.034774 
z
" style="fill:#d98b5f;stroke:#545454;stroke-linejoin:miter;stroke-width:1.5;"/>
   </g>
   <g id="patch_5">
    <path clip-path="url(#pe35bde90a8)" d="M 86.286533 216.88437 
L 98.033467 216.88437 
L 98.033467 204.351955 
L 86.286533 204.351955 
L 86.286533 216.88437 
z
" style="fill:#75bf71;stroke:#545454;stroke-linejoin:miter;stroke-width:1.5;"/>
   </g>
   <g id="patch_6">
    <path clip-path="url(#pe35bde90a8)" d="M 98.2732 222.107736 
L 110.020133 222.107736 
L 110.020133 216.45258 
L 98.2732 216.45258 
L 98.2732 222.107736 
z
" style="fill:#c76e6e;stroke:#545454;stroke-linejoin:miter;stroke-width:1.5;"/>
   </g>
   <g id="patch_7">
    <path clip-path="url(#pe35bde90a8)" d="M 122.246533 191.400222 
L 133.993467 191.400222 
L 133.993467 128.899822 
L 122.246533 128.899822 
L 122.246533 191.400222 
z
" style="fill:#597dbf;stroke:#545454;stroke-linejoin:miter;stroke-width:1.5;"/>
   </g>
   <g id="patch_8">
    <path clip-path="url(#pe35bde90a8)" d="M 134.2332 217.289161 
L 145.980133 217.289161 
L 145.980133 211.263518 
L 134.2332 211.263518 
L 134.2332 217.289161 
z
" style="fill:#d98b5f;stroke:#545454;stroke-linejoin:miter;stroke-width:1.5;"/>
   </g>
   <g id="patch_9">
    <path clip-path="url(#pe35bde90a8)" d="M 146.219867 215.268694 
L 157.9668 215.268694 
L 157.9668 209.020981 
L 146.219867 209.020981 
L 146.219867 215.268694 
z
" style="fill:#75bf71;stroke:#545454;stroke-linejoin:miter;stroke-width:1.5;"/>
   </g>
   <g id="patch_10">
    <path clip-path="url(#pe35bde90a8)" d="M 158.206533 220.100037 
L 169.953467 220.100037 
L 169.953467 213.555023 
L 158.206533 213.555023 
L 158.206533 220.100037 
z
" style="fill:#c76e6e;stroke:#545454;stroke-linejoin:miter;stroke-width:1.5;"/>
   </g>
   <g id="patch_11">
    <path clip-path="url(#pe35bde90a8)" d="M 182.179867 187.995599 
L 193.9268 187.995599 
L 193.9268 156.047301 
L 182.179867 156.047301 
L 182.179867 187.995599 
z
" style="fill:#597dbf;stroke:#545454;stroke-linejoin:miter;stroke-width:1.5;"/>
   </g>
   <g id="patch_12">
    <path clip-path="url(#pe35bde90a8)" d="M 194.166533 217.888452 
L 205.913467 217.888452 
L 205.913467 211.695435 
L 194.166533 211.695435 
L 194.166533 217.888452 
z
" style="fill:#d98b5f;stroke:#545454;stroke-linejoin:miter;stroke-width:1.5;"/>
   </g>
   <g id="patch_13">
    <path clip-path="url(#pe35bde90a8)" d="M 206.1532 216.666592 
L 217.900133 216.666592 
L 217.900133 203.205082 
L 206.1532 203.205082 
L 206.1532 216.666592 
z
" style="fill:#75bf71;stroke:#545454;stroke-linejoin:miter;stroke-width:1.5;"/>
   </g>
   <g id="patch_14">
    <path clip-path="url(#pe35bde90a8)" d="M 218.139867 217.764488 
L 229.8868 217.764488 
L 229.8868 214.094465 
L 218.139867 214.094465 
L 218.139867 217.764488 
z
" style="fill:#c76e6e;stroke:#545454;stroke-linejoin:miter;stroke-width:1.5;"/>
   </g>
   <g id="patch_15">
    <path clip-path="url(#pe35bde90a8)" d="M 242.1132 178.989129 
L 253.860133 178.989129 
L 253.860133 142.262622 
L 242.1132 142.262622 
L 242.1132 178.989129 
z
" style="fill:#597dbf;stroke:#545454;stroke-linejoin:miter;stroke-width:1.5;"/>
   </g>
   <g id="patch_16">
    <path clip-path="url(#pe35bde90a8)" d="M 254.099867 215.585525 
L 265.8468 215.585525 
L 265.8468 204.941647 
L 254.099867 204.941647 
L 254.099867 215.585525 
z
" style="fill:#d98b5f;stroke:#545454;stroke-linejoin:miter;stroke-width:1.5;"/>
   </g>
   <g id="patch_17">
    <path clip-path="url(#pe35bde90a8)" d="M 266.086533 214.881495 
L 277.833467 214.881495 
L 277.833467 204.616021 
L 266.086533 204.616021 
L 266.086533 214.881495 
z
" style="fill:#75bf71;stroke:#545454;stroke-linejoin:miter;stroke-width:1.5;"/>
   </g>
   <g id="patch_18">
    <path clip-path="url(#pe35bde90a8)" d="M 278.0732 215.670552 
L 289.820133 215.670552 
L 289.820133 210.956495 
L 278.0732 210.956495 
L 278.0732 215.670552 
z
" style="fill:#c76e6e;stroke:#545454;stroke-linejoin:miter;stroke-width:1.5;"/>
   </g>
   <g id="patch_19">
    <path clip-path="url(#pe35bde90a8)" d="M 302.046533 193.229157 
L 313.793467 193.229157 
L 313.793467 156.985713 
L 302.046533 156.985713 
L 302.046533 193.229157 
z
" style="fill:#597dbf;stroke:#545454;stroke-linejoin:miter;stroke-width:1.5;"/>
   </g>
   <g id="patch_20">
    <path clip-path="url(#pe35bde90a8)" d="M 314.0332 217.150554 
L 325.780133 217.150554 
L 325.780133 209.484017 
L 314.0332 209.484017 
L 314.0332 217.150554 
z
" style="fill:#d98b5f;stroke:#545454;stroke-linejoin:miter;stroke-width:1.5;"/>
   </g>
   <g id="patch_21">
    <path clip-path="url(#pe35bde90a8)" d="M 326.019867 216.662264 
L 337.7668 216.662264 
L 337.7668 206.845152 
L 326.019867 206.845152 
L 326.019867 216.662264 
z
" style="fill:#75bf71;stroke:#545454;stroke-linejoin:miter;stroke-width:1.5;"/>
   </g>
   <g id="patch_22">
    <path clip-path="url(#pe35bde90a8)" d="M 338.006533 215.704108 
L 349.753467 215.704108 
L 349.753467 205.820429 
L 338.006533 205.820429 
L 338.006533 215.704108 
z
" style="fill:#c76e6e;stroke:#545454;stroke-linejoin:miter;stroke-width:1.5;"/>
   </g>
   <g id="patch_23">
    <path clip-path="url(#pe35bde90a8)" d="M 361.979867 180.70485 
L 373.7268 180.70485 
L 373.7268 143.558738 
L 361.979867 143.558738 
L 361.979867 180.70485 
z
" style="fill:#597dbf;stroke:#545454;stroke-linejoin:miter;stroke-width:1.5;"/>
   </g>
   <g id="patch_24">
    <path clip-path="url(#pe35bde90a8)" d="M 373.966533 212.431797 
L 385.713467 212.431797 
L 385.713467 197.55784 
L 373.966533 197.55784 
L 373.966533 212.431797 
z
" style="fill:#d98b5f;stroke:#545454;stroke-linejoin:miter;stroke-width:1.5;"/>
   </g>
   <g id="patch_25">
    <path clip-path="url(#pe35bde90a8)" d="M 385.9532 212.207428 
L 397.700133 212.207428 
L 397.700133 198.925419 
L 385.9532 198.925419 
L 385.9532 212.207428 
z
" style="fill:#75bf71;stroke:#545454;stroke-linejoin:miter;stroke-width:1.5;"/>
   </g>
   <g id="patch_26">
    <path clip-path="url(#pe35bde90a8)" d="M 397.939867 211.258485 
L 409.6868 211.258485 
L 409.6868 203.88583 
L 397.939867 203.88583 
L 397.939867 211.258485 
z
" style="fill:#c76e6e;stroke:#545454;stroke-linejoin:miter;stroke-width:1.5;"/>
   </g>
   <g id="patch_27">
    <path clip-path="url(#pe35bde90a8)" d="M 86.166667 224.152218 
L 86.166667 224.152218 
L 86.166667 224.152218 
L 86.166667 224.152218 
z
" style="fill:#597dbf;stroke:#545454;stroke-linejoin:miter;stroke-width:0.75;"/>
   </g>
   <g id="patch_28">
    <path clip-path="url(#pe35bde90a8)" d="M 86.166667 224.152218 
L 86.166667 224.152218 
L 86.166667 224.152218 
L 86.166667 224.152218 
z
" style="fill:#d98b5f;stroke:#545454;stroke-linejoin:miter;stroke-width:0.75;"/>
   </g>
   <g id="patch_29">
    <path clip-path="url(#pe35bde90a8)" d="M 86.166667 224.152218 
L 86.166667 224.152218 
L 86.166667 224.152218 
L 86.166667 224.152218 
z
" style="fill:#75bf71;stroke:#545454;stroke-linejoin:miter;stroke-width:0.75;"/>
   </g>
   <g id="patch_30">
    <path clip-path="url(#pe35bde90a8)" d="M 86.166667 224.152218 
L 86.166667 224.152218 
L 86.166667 224.152218 
L 86.166667 224.152218 
z
" style="fill:#c76e6e;stroke:#545454;stroke-linejoin:miter;stroke-width:0.75;"/>
   </g>
   <g id="matplotlib.axis_1">
    <g id="xtick_1">
     <g id="line2d_1">
      <defs>
       <path d="M 0 0 
L 0 3.5 
" id="mfc81d297f2" style="stroke:#000000;stroke-width:0.8;"/>
      </defs>
      <g>
       <use style="stroke:#000000;stroke-width:0.8;" x="86.166667" xlink:href="#mfc81d297f2" y="232.8"/>
      </g>
     </g>
     <g id="text_1">
      <!-- 0.000 -->
      <g transform="translate(69.291667 250.215625)scale(0.15 -0.15)">
       <defs>
        <path d="M 3.609375 32.71875 
Q 3.609375 44.046875 7.03125 52.21875 
Q 10.453125 60.40625 16.109375 64.40625 
Q 20.515625 67.578125 25.203125 67.578125 
Q 32.8125 67.578125 38.875 59.8125 
Q 46.4375 50.203125 46.4375 33.734375 
Q 46.4375 22.21875 43.109375 14.15625 
Q 39.796875 6.109375 34.640625 2.46875 
Q 29.5 -1.171875 24.703125 -1.171875 
Q 15.234375 -1.171875 8.9375 10.015625 
Q 3.609375 19.4375 3.609375 32.71875 
z
M 13.1875 31.5 
Q 13.1875 17.828125 16.546875 9.1875 
Q 19.34375 1.90625 24.859375 1.90625 
Q 27.484375 1.90625 30.3125 4.265625 
Q 33.15625 6.640625 34.625 12.203125 
Q 36.859375 20.609375 36.859375 35.890625 
Q 36.859375 47.21875 34.515625 54.78125 
Q 32.765625 60.40625 29.984375 62.75 
Q 27.984375 64.359375 25.140625 64.359375 
Q 21.828125 64.359375 19.234375 61.375 
Q 15.71875 57.328125 14.453125 48.625 
Q 13.1875 39.9375 13.1875 31.5 
z
" id="TimesNewRomanPSMT-48"/>
        <path d="M 12.5 9.46875 
Q 14.796875 9.46875 16.359375 7.875 
Q 17.921875 6.296875 17.921875 4.046875 
Q 17.921875 1.8125 16.328125 0.21875 
Q 14.75 -1.375 12.5 -1.375 
Q 10.25 -1.375 8.65625 0.21875 
Q 7.078125 1.8125 7.078125 4.046875 
Q 7.078125 6.34375 8.65625 7.90625 
Q 10.25 9.46875 12.5 9.46875 
z
" id="TimesNewRomanPSMT-46"/>
       </defs>
       <use xlink:href="#TimesNewRomanPSMT-48"/>
       <use x="50" xlink:href="#TimesNewRomanPSMT-46"/>
       <use x="75" xlink:href="#TimesNewRomanPSMT-48"/>
       <use x="125" xlink:href="#TimesNewRomanPSMT-48"/>
       <use x="175" xlink:href="#TimesNewRomanPSMT-48"/>
      </g>
     </g>
    </g>
    <g id="xtick_2">
     <g id="line2d_2">
      <g>
       <use style="stroke:#000000;stroke-width:0.8;" x="146.1" xlink:href="#mfc81d297f2" y="232.8"/>
      </g>
     </g>
     <g id="text_2">
      <!-- 0.333 -->
      <g transform="translate(129.225 250.215625)scale(0.15 -0.15)">
       <defs>
        <path d="M 5.078125 53.609375 
Q 7.90625 60.296875 12.21875 63.9375 
Q 16.546875 67.578125 23 67.578125 
Q 30.953125 67.578125 35.203125 62.40625 
Q 38.421875 58.546875 38.421875 54.15625 
Q 38.421875 46.921875 29.34375 39.203125 
Q 35.453125 36.8125 38.578125 32.375 
Q 41.703125 27.9375 41.703125 21.921875 
Q 41.703125 13.328125 36.234375 7.03125 
Q 29.109375 -1.171875 15.578125 -1.171875 
Q 8.890625 -1.171875 6.46875 0.484375 
Q 4.046875 2.15625 4.046875 4.046875 
Q 4.046875 5.46875 5.1875 6.546875 
Q 6.34375 7.625 7.953125 7.625 
Q 9.1875 7.625 10.453125 7.234375 
Q 11.28125 6.984375 14.203125 5.4375 
Q 17.140625 3.90625 18.265625 3.609375 
Q 20.0625 3.078125 22.125 3.078125 
Q 27.09375 3.078125 30.78125 6.9375 
Q 34.46875 10.796875 34.46875 16.0625 
Q 34.46875 19.921875 32.765625 23.578125 
Q 31.5 26.3125 29.984375 27.734375 
Q 27.875 29.6875 24.21875 31.265625 
Q 20.5625 32.859375 16.75 32.859375 
L 15.1875 32.859375 
L 15.1875 34.328125 
Q 19.046875 34.8125 22.921875 37.109375 
Q 26.8125 39.40625 28.5625 42.625 
Q 30.328125 45.84375 30.328125 49.703125 
Q 30.328125 54.734375 27.171875 57.828125 
Q 24.03125 60.9375 19.34375 60.9375 
Q 11.765625 60.9375 6.6875 52.828125 
z
" id="TimesNewRomanPSMT-51"/>
       </defs>
       <use xlink:href="#TimesNewRomanPSMT-48"/>
       <use x="50" xlink:href="#TimesNewRomanPSMT-46"/>
       <use x="75" xlink:href="#TimesNewRomanPSMT-51"/>
       <use x="125" xlink:href="#TimesNewRomanPSMT-51"/>
       <use x="175" xlink:href="#TimesNewRomanPSMT-51"/>
      </g>
     </g>
    </g>
    <g id="xtick_3">
     <g id="line2d_3">
      <g>
       <use style="stroke:#000000;stroke-width:0.8;" x="206.033333" xlink:href="#mfc81d297f2" y="232.8"/>
      </g>
     </g>
     <g id="text_3">
      <!-- 0.667 -->
      <g transform="translate(189.158333 250.215625)scale(0.15 -0.15)">
       <defs>
        <path d="M 44.828125 67.578125 
L 44.828125 65.765625 
Q 38.375 65.140625 34.296875 63.203125 
Q 30.21875 61.28125 26.234375 57.328125 
Q 22.265625 53.375 19.65625 48.515625 
Q 17.046875 43.65625 15.28125 36.96875 
Q 22.3125 41.796875 29.390625 41.796875 
Q 36.1875 41.796875 41.15625 36.328125 
Q 46.140625 30.859375 46.140625 22.265625 
Q 46.140625 13.96875 41.109375 7.125 
Q 35.0625 -1.171875 25.09375 -1.171875 
Q 18.3125 -1.171875 13.578125 3.328125 
Q 4.296875 12.0625 4.296875 25.984375 
Q 4.296875 34.859375 7.859375 42.859375 
Q 11.421875 50.875 18.03125 57.078125 
Q 24.65625 63.28125 30.703125 65.421875 
Q 36.765625 67.578125 42 67.578125 
z
M 14.453125 33.40625 
Q 13.578125 26.8125 13.578125 22.75 
Q 13.578125 18.0625 15.3125 12.5625 
Q 17.046875 7.078125 20.453125 3.859375 
Q 22.953125 1.5625 26.515625 1.5625 
Q 30.765625 1.5625 34.109375 5.5625 
Q 37.453125 9.578125 37.453125 17 
Q 37.453125 25.34375 34.125 31.4375 
Q 30.8125 37.546875 24.703125 37.546875 
Q 22.859375 37.546875 20.734375 36.765625 
Q 18.609375 35.984375 14.453125 33.40625 
z
" id="TimesNewRomanPSMT-54"/>
        <path d="M 10.0625 66.21875 
L 45.5625 66.21875 
L 45.5625 64.359375 
L 23.484375 -1.375 
L 18.015625 -1.375 
L 37.796875 58.25 
L 19.578125 58.25 
Q 14.0625 58.25 11.71875 56.9375 
Q 7.625 54.6875 5.125 50 
L 3.71875 50.53125 
z
" id="TimesNewRomanPSMT-55"/>
       </defs>
       <use xlink:href="#TimesNewRomanPSMT-48"/>
       <use x="50" xlink:href="#TimesNewRomanPSMT-46"/>
       <use x="75" xlink:href="#TimesNewRomanPSMT-54"/>
       <use x="125" xlink:href="#TimesNewRomanPSMT-54"/>
       <use x="175" xlink:href="#TimesNewRomanPSMT-55"/>
      </g>
     </g>
    </g>
    <g id="xtick_4">
     <g id="line2d_4">
      <g>
       <use style="stroke:#000000;stroke-width:0.8;" x="265.966667" xlink:href="#mfc81d297f2" y="232.8"/>
      </g>
     </g>
     <g id="text_4">
      <!-- 1.000 -->
      <g transform="translate(249.091667 250.215625)scale(0.15 -0.15)">
       <defs>
        <path d="M 11.71875 59.71875 
L 27.828125 67.578125 
L 29.4375 67.578125 
L 29.4375 11.671875 
Q 29.4375 6.109375 29.90625 4.734375 
Q 30.375 3.375 31.828125 2.640625 
Q 33.296875 1.90625 37.796875 1.8125 
L 37.796875 0 
L 12.890625 0 
L 12.890625 1.8125 
Q 17.578125 1.90625 18.9375 2.609375 
Q 20.3125 3.328125 20.84375 4.515625 
Q 21.390625 5.71875 21.390625 11.671875 
L 21.390625 47.40625 
Q 21.390625 54.640625 20.90625 56.6875 
Q 20.5625 58.25 19.65625 58.984375 
Q 18.75 59.71875 17.484375 59.71875 
Q 15.671875 59.71875 12.453125 58.203125 
z
" id="TimesNewRomanPSMT-49"/>
       </defs>
       <use xlink:href="#TimesNewRomanPSMT-49"/>
       <use x="50" xlink:href="#TimesNewRomanPSMT-46"/>
       <use x="75" xlink:href="#TimesNewRomanPSMT-48"/>
       <use x="125" xlink:href="#TimesNewRomanPSMT-48"/>
       <use x="175" xlink:href="#TimesNewRomanPSMT-48"/>
      </g>
     </g>
    </g>
    <g id="xtick_5">
     <g id="line2d_5">
      <g>
       <use style="stroke:#000000;stroke-width:0.8;" x="325.9" xlink:href="#mfc81d297f2" y="232.8"/>
      </g>
     </g>
     <g id="text_5">
      <!-- 1.333 -->
      <g transform="translate(309.025 250.215625)scale(0.15 -0.15)">
       <use xlink:href="#TimesNewRomanPSMT-49"/>
       <use x="50" xlink:href="#TimesNewRomanPSMT-46"/>
       <use x="75" xlink:href="#TimesNewRomanPSMT-51"/>
       <use x="125" xlink:href="#TimesNewRomanPSMT-51"/>
       <use x="175" xlink:href="#TimesNewRomanPSMT-51"/>
      </g>
     </g>
    </g>
    <g id="xtick_6">
     <g id="line2d_6">
      <g>
       <use style="stroke:#000000;stroke-width:0.8;" x="385.833333" xlink:href="#mfc81d297f2" y="232.8"/>
      </g>
     </g>
     <g id="text_6">
      <!-- 1.667 -->
      <g transform="translate(368.958333 250.215625)scale(0.15 -0.15)">
       <use xlink:href="#TimesNewRomanPSMT-49"/>
       <use x="50" xlink:href="#TimesNewRomanPSMT-46"/>
       <use x="75" xlink:href="#TimesNewRomanPSMT-54"/>
       <use x="125" xlink:href="#TimesNewRomanPSMT-54"/>
       <use x="175" xlink:href="#TimesNewRomanPSMT-55"/>
      </g>
     </g>
    </g>
    <g id="text_7">
     <!-- Noise standard deviation -->
     <g transform="translate(161.433594 267.839844)scale(0.15 -0.15)">
      <defs>
       <path d="M -1.3125 66.21875 
L 16.65625 66.21875 
L 57.125 16.546875 
L 57.125 54.734375 
Q 57.125 60.84375 55.765625 62.359375 
Q 53.953125 64.40625 50.046875 64.40625 
L 47.75 64.40625 
L 47.75 66.21875 
L 70.796875 66.21875 
L 70.796875 64.40625 
L 68.453125 64.40625 
Q 64.265625 64.40625 62.5 61.859375 
Q 61.421875 60.296875 61.421875 54.734375 
L 61.421875 -1.078125 
L 59.671875 -1.078125 
L 16.015625 52.25 
L 16.015625 11.46875 
Q 16.015625 5.375 17.328125 3.859375 
Q 19.1875 1.8125 23.046875 1.8125 
L 25.390625 1.8125 
L 25.390625 0 
L 2.34375 0 
L 2.34375 1.8125 
L 4.640625 1.8125 
Q 8.890625 1.8125 10.640625 4.34375 
Q 11.71875 5.90625 11.71875 11.46875 
L 11.71875 57.515625 
Q 8.84375 60.890625 7.34375 61.953125 
Q 5.859375 63.03125 2.984375 63.96875 
Q 1.5625 64.40625 -1.3125 64.40625 
z
" id="TimesNewRomanPSMT-78"/>
       <path d="M 25 46.046875 
Q 35.15625 46.046875 41.3125 38.328125 
Q 46.53125 31.734375 46.53125 23.1875 
Q 46.53125 17.1875 43.640625 11.03125 
Q 40.765625 4.890625 35.71875 1.75 
Q 30.671875 -1.375 24.46875 -1.375 
Q 14.359375 -1.375 8.40625 6.6875 
Q 3.375 13.484375 3.375 21.921875 
Q 3.375 28.078125 6.421875 34.15625 
Q 9.46875 40.234375 14.453125 43.140625 
Q 19.4375 46.046875 25 46.046875 
z
M 23.484375 42.875 
Q 20.90625 42.875 18.28125 41.328125 
Q 15.671875 39.796875 14.0625 35.9375 
Q 12.453125 32.078125 12.453125 26.03125 
Q 12.453125 16.265625 16.328125 9.171875 
Q 20.21875 2.09375 26.5625 2.09375 
Q 31.296875 2.09375 34.375 6 
Q 37.453125 9.90625 37.453125 19.4375 
Q 37.453125 31.34375 32.328125 38.1875 
Q 28.859375 42.875 23.484375 42.875 
z
" id="TimesNewRomanPSMT-111"/>
       <path d="M 14.5 69.4375 
Q 16.546875 69.4375 17.984375 67.984375 
Q 19.4375 66.546875 19.4375 64.5 
Q 19.4375 62.453125 17.984375 60.984375 
Q 16.546875 59.515625 14.5 59.515625 
Q 12.453125 59.515625 10.984375 60.984375 
Q 9.515625 62.453125 9.515625 64.5 
Q 9.515625 66.546875 10.953125 67.984375 
Q 12.40625 69.4375 14.5 69.4375 
z
M 18.5625 46.046875 
L 18.5625 10.109375 
Q 18.5625 5.90625 19.171875 4.515625 
Q 19.78125 3.125 20.96875 2.4375 
Q 22.171875 1.765625 25.34375 1.765625 
L 25.34375 0 
L 3.609375 0 
L 3.609375 1.765625 
Q 6.890625 1.765625 8 2.390625 
Q 9.125 3.03125 9.78125 4.484375 
Q 10.453125 5.953125 10.453125 10.109375 
L 10.453125 27.34375 
Q 10.453125 34.625 10.015625 36.765625 
Q 9.671875 38.328125 8.9375 38.9375 
Q 8.203125 39.546875 6.9375 39.546875 
Q 5.5625 39.546875 3.609375 38.8125 
L 2.9375 40.578125 
L 16.40625 46.046875 
z
" id="TimesNewRomanPSMT-105"/>
       <path d="M 32.03125 46.046875 
L 32.03125 30.8125 
L 30.421875 30.8125 
Q 28.5625 37.984375 25.65625 40.578125 
Q 22.75 43.171875 18.265625 43.171875 
Q 14.84375 43.171875 12.734375 41.359375 
Q 10.640625 39.546875 10.640625 37.359375 
Q 10.640625 34.625 12.203125 32.671875 
Q 13.71875 30.671875 18.359375 28.421875 
L 25.484375 24.953125 
Q 35.40625 20.125 35.40625 12.203125 
Q 35.40625 6.109375 30.78125 2.359375 
Q 26.171875 -1.375 20.453125 -1.375 
Q 16.359375 -1.375 11.078125 0.09375 
Q 9.46875 0.59375 8.453125 0.59375 
Q 7.328125 0.59375 6.6875 -0.6875 
L 5.078125 -0.6875 
L 5.078125 15.28125 
L 6.6875 15.28125 
Q 8.0625 8.453125 11.90625 4.984375 
Q 15.765625 1.515625 20.5625 1.515625 
Q 23.921875 1.515625 26.046875 3.484375 
Q 28.171875 5.46875 28.171875 8.25 
Q 28.171875 11.625 25.796875 13.921875 
Q 23.4375 16.21875 16.359375 19.734375 
Q 9.28125 23.25 7.078125 26.078125 
Q 4.890625 28.859375 4.890625 33.109375 
Q 4.890625 38.625 8.671875 42.328125 
Q 12.453125 46.046875 18.453125 46.046875 
Q 21.09375 46.046875 24.859375 44.921875 
Q 27.34375 44.1875 28.171875 44.1875 
Q 28.953125 44.1875 29.390625 44.53125 
Q 29.828125 44.875 30.421875 46.046875 
z
" id="TimesNewRomanPSMT-115"/>
       <path d="M 10.640625 27.875 
Q 10.59375 17.921875 15.484375 12.25 
Q 20.359375 6.59375 26.953125 6.59375 
Q 31.34375 6.59375 34.59375 9 
Q 37.84375 11.421875 40.046875 17.28125 
L 41.546875 16.3125 
Q 40.53125 9.625 35.59375 4.125 
Q 30.671875 -1.375 23.25 -1.375 
Q 15.1875 -1.375 9.453125 4.90625 
Q 3.71875 11.1875 3.71875 21.78125 
Q 3.71875 33.25 9.59375 39.671875 
Q 15.484375 46.09375 24.359375 46.09375 
Q 31.890625 46.09375 36.71875 41.140625 
Q 41.546875 36.1875 41.546875 27.875 
z
M 10.640625 30.71875 
L 31.34375 30.71875 
Q 31.109375 35.015625 30.328125 36.765625 
Q 29.109375 39.5 26.6875 41.0625 
Q 24.265625 42.625 21.625 42.625 
Q 17.578125 42.625 14.375 39.46875 
Q 11.1875 36.328125 10.640625 30.71875 
z
" id="TimesNewRomanPSMT-101"/>
       <path id="TimesNewRomanPSMT-32"/>
       <path d="M 16.109375 59.421875 
L 16.109375 44.734375 
L 26.5625 44.734375 
L 26.5625 41.3125 
L 16.109375 41.3125 
L 16.109375 12.3125 
Q 16.109375 7.953125 17.359375 6.4375 
Q 18.609375 4.9375 20.5625 4.9375 
Q 22.171875 4.9375 23.6875 5.9375 
Q 25.203125 6.9375 26.03125 8.890625 
L 27.9375 8.890625 
Q 26.21875 4.109375 23.09375 1.6875 
Q 19.96875 -0.734375 16.65625 -0.734375 
Q 14.40625 -0.734375 12.25 0.515625 
Q 10.109375 1.765625 9.078125 4.078125 
Q 8.0625 6.390625 8.0625 11.234375 
L 8.0625 41.3125 
L 0.984375 41.3125 
L 0.984375 42.921875 
Q 3.65625 44 6.46875 46.5625 
Q 9.28125 49.125 11.46875 52.640625 
Q 12.59375 54.5 14.59375 59.421875 
z
" id="TimesNewRomanPSMT-116"/>
       <path d="M 28.46875 6.453125 
Q 21.578125 1.125 19.828125 0.296875 
Q 17.1875 -0.921875 14.203125 -0.921875 
Q 9.578125 -0.921875 6.5625 2.25 
Q 3.5625 5.421875 3.5625 10.59375 
Q 3.5625 13.875 5.03125 16.265625 
Q 7.03125 19.578125 11.984375 22.5 
Q 16.9375 25.4375 28.46875 29.640625 
L 28.46875 31.390625 
Q 28.46875 38.09375 26.34375 40.578125 
Q 24.21875 43.0625 20.171875 43.0625 
Q 17.09375 43.0625 15.28125 41.40625 
Q 13.421875 39.75 13.421875 37.59375 
L 13.53125 34.765625 
Q 13.53125 32.515625 12.375 31.296875 
Q 11.234375 30.078125 9.375 30.078125 
Q 7.5625 30.078125 6.421875 31.34375 
Q 5.28125 32.625 5.28125 34.8125 
Q 5.28125 39.015625 9.578125 42.53125 
Q 13.875 46.046875 21.625 46.046875 
Q 27.59375 46.046875 31.390625 44.046875 
Q 34.28125 42.53125 35.640625 39.3125 
Q 36.53125 37.203125 36.53125 30.71875 
L 36.53125 15.53125 
Q 36.53125 9.125 36.765625 7.6875 
Q 37.015625 6.25 37.578125 5.765625 
Q 38.140625 5.28125 38.875 5.28125 
Q 39.65625 5.28125 40.234375 5.609375 
Q 41.265625 6.25 44.1875 9.1875 
L 44.1875 6.453125 
Q 38.71875 -0.875 33.734375 -0.875 
Q 31.34375 -0.875 29.921875 0.78125 
Q 28.515625 2.4375 28.46875 6.453125 
z
M 28.46875 9.625 
L 28.46875 26.65625 
Q 21.09375 23.734375 18.953125 22.515625 
Q 15.09375 20.359375 13.421875 18.015625 
Q 11.765625 15.671875 11.765625 12.890625 
Q 11.765625 9.375 13.859375 7.046875 
Q 15.96875 4.734375 18.703125 4.734375 
Q 22.40625 4.734375 28.46875 9.625 
z
" id="TimesNewRomanPSMT-97"/>
       <path d="M 16.15625 36.578125 
Q 24.03125 46.046875 31.15625 46.046875 
Q 34.8125 46.046875 37.453125 44.21875 
Q 40.09375 42.390625 41.65625 38.1875 
Q 42.71875 35.25 42.71875 29.203125 
L 42.71875 10.109375 
Q 42.71875 5.859375 43.40625 4.34375 
Q 43.953125 3.125 45.140625 2.4375 
Q 46.34375 1.765625 49.5625 1.765625 
L 49.5625 0 
L 27.4375 0 
L 27.4375 1.765625 
L 28.375 1.765625 
Q 31.5 1.765625 32.734375 2.703125 
Q 33.984375 3.65625 34.46875 5.515625 
Q 34.671875 6.25 34.671875 10.109375 
L 34.671875 28.421875 
Q 34.671875 34.515625 33.078125 37.28125 
Q 31.5 40.046875 27.734375 40.046875 
Q 21.921875 40.046875 16.15625 33.6875 
L 16.15625 10.109375 
Q 16.15625 5.5625 16.703125 4.5 
Q 17.390625 3.078125 18.578125 2.421875 
Q 19.78125 1.765625 23.4375 1.765625 
L 23.4375 0 
L 1.3125 0 
L 1.3125 1.765625 
L 2.296875 1.765625 
Q 5.71875 1.765625 6.90625 3.484375 
Q 8.109375 5.21875 8.109375 10.109375 
L 8.109375 26.703125 
Q 8.109375 34.765625 7.734375 36.515625 
Q 7.375 38.28125 6.609375 38.90625 
Q 5.859375 39.546875 4.59375 39.546875 
Q 3.21875 39.546875 1.3125 38.8125 
L 0.59375 40.578125 
L 14.0625 46.046875 
L 16.15625 46.046875 
z
" id="TimesNewRomanPSMT-110"/>
       <path d="M 34.71875 5.03125 
Q 31.453125 1.609375 28.328125 0.109375 
Q 25.203125 -1.375 21.578125 -1.375 
Q 14.265625 -1.375 8.796875 4.75 
Q 3.328125 10.890625 3.328125 20.515625 
Q 3.328125 30.125 9.375 38.109375 
Q 15.4375 46.09375 24.953125 46.09375 
Q 30.859375 46.09375 34.71875 42.328125 
L 34.71875 50.59375 
Q 34.71875 58.25 34.34375 60 
Q 33.984375 61.765625 33.203125 62.390625 
Q 32.421875 63.03125 31.25 63.03125 
Q 29.984375 63.03125 27.875 62.25 
L 27.25 63.96875 
L 40.578125 69.4375 
L 42.78125 69.4375 
L 42.78125 17.71875 
Q 42.78125 9.859375 43.140625 8.125 
Q 43.5 6.390625 44.3125 5.703125 
Q 45.125 5.03125 46.1875 5.03125 
Q 47.515625 5.03125 49.703125 5.859375 
L 50.25 4.15625 
L 36.96875 -1.375 
L 34.71875 -1.375 
z
M 34.71875 8.453125 
L 34.71875 31.5 
Q 34.421875 34.8125 32.953125 37.546875 
Q 31.5 40.28125 29.078125 41.671875 
Q 26.65625 43.0625 24.359375 43.0625 
Q 20.0625 43.0625 16.703125 39.203125 
Q 12.25 34.125 12.25 24.359375 
Q 12.25 14.5 16.546875 9.25 
Q 20.84375 4 26.125 4 
Q 30.5625 4 34.71875 8.453125 
z
" id="TimesNewRomanPSMT-100"/>
       <path d="M 16.21875 46.046875 
L 16.21875 35.984375 
Q 21.828125 46.046875 27.734375 46.046875 
Q 30.421875 46.046875 32.171875 44.40625 
Q 33.9375 42.78125 33.9375 40.625 
Q 33.9375 38.71875 32.65625 37.390625 
Q 31.390625 36.078125 29.640625 36.078125 
Q 27.9375 36.078125 25.8125 37.765625 
Q 23.6875 39.453125 22.65625 39.453125 
Q 21.78125 39.453125 20.75 38.484375 
Q 18.5625 36.46875 16.21875 31.890625 
L 16.21875 10.453125 
Q 16.21875 6.734375 17.140625 4.828125 
Q 17.78125 3.515625 19.390625 2.640625 
Q 21 1.765625 24.03125 1.765625 
L 24.03125 0 
L 1.125 0 
L 1.125 1.765625 
Q 4.546875 1.765625 6.203125 2.828125 
Q 7.421875 3.609375 7.90625 5.328125 
Q 8.15625 6.15625 8.15625 10.0625 
L 8.15625 27.390625 
Q 8.15625 35.203125 7.828125 36.6875 
Q 7.515625 38.1875 6.65625 38.859375 
Q 5.8125 39.546875 4.546875 39.546875 
Q 3.03125 39.546875 1.125 38.8125 
L 0.640625 40.578125 
L 14.15625 46.046875 
z
" id="TimesNewRomanPSMT-114"/>
       <path d="M 0.828125 44.734375 
L 21.875 44.734375 
L 21.875 42.921875 
L 20.515625 42.921875 
Q 18.609375 42.921875 17.609375 41.984375 
Q 16.609375 41.0625 16.609375 39.5 
Q 16.609375 37.796875 17.625 35.453125 
L 28.03125 10.75 
L 38.484375 36.375 
Q 39.59375 39.109375 39.59375 40.53125 
Q 39.59375 41.21875 39.203125 41.65625 
Q 38.671875 42.390625 37.84375 42.65625 
Q 37.015625 42.921875 34.46875 42.921875 
L 34.46875 44.734375 
L 49.078125 44.734375 
L 49.078125 42.921875 
Q 46.53125 42.71875 45.5625 41.890625 
Q 43.84375 40.4375 42.484375 37.015625 
L 26.609375 -1.375 
L 24.609375 -1.375 
L 8.640625 36.375 
Q 7.5625 39.015625 6.578125 40.15625 
Q 5.609375 41.3125 4.109375 42.09375 
Q 3.265625 42.53125 0.828125 42.921875 
z
" id="TimesNewRomanPSMT-118"/>
      </defs>
      <use xlink:href="#TimesNewRomanPSMT-78"/>
      <use x="72.216797" xlink:href="#TimesNewRomanPSMT-111"/>
      <use x="122.216797" xlink:href="#TimesNewRomanPSMT-105"/>
      <use x="150" xlink:href="#TimesNewRomanPSMT-115"/>
      <use x="188.916016" xlink:href="#TimesNewRomanPSMT-101"/>
      <use x="233.300781" xlink:href="#TimesNewRomanPSMT-32"/>
      <use x="258.300781" xlink:href="#TimesNewRomanPSMT-115"/>
      <use x="297.216797" xlink:href="#TimesNewRomanPSMT-116"/>
      <use x="325" xlink:href="#TimesNewRomanPSMT-97"/>
      <use x="369.384766" xlink:href="#TimesNewRomanPSMT-110"/>
      <use x="419.384766" xlink:href="#TimesNewRomanPSMT-100"/>
      <use x="469.384766" xlink:href="#TimesNewRomanPSMT-97"/>
      <use x="513.769531" xlink:href="#TimesNewRomanPSMT-114"/>
      <use x="547.070312" xlink:href="#TimesNewRomanPSMT-100"/>
      <use x="597.070312" xlink:href="#TimesNewRomanPSMT-32"/>
      <use x="622.070312" xlink:href="#TimesNewRomanPSMT-100"/>
      <use x="672.070312" xlink:href="#TimesNewRomanPSMT-101"/>
      <use x="716.455078" xlink:href="#TimesNewRomanPSMT-118"/>
      <use x="766.455078" xlink:href="#TimesNewRomanPSMT-105"/>
      <use x="794.238281" xlink:href="#TimesNewRomanPSMT-97"/>
      <use x="838.623047" xlink:href="#TimesNewRomanPSMT-116"/>
      <use x="866.40625" xlink:href="#TimesNewRomanPSMT-105"/>
      <use x="894.189453" xlink:href="#TimesNewRomanPSMT-111"/>
      <use x="944.189453" xlink:href="#TimesNewRomanPSMT-110"/>
     </g>
    </g>
   </g>
   <g id="matplotlib.axis_2">
    <g id="ytick_1">
     <g id="line2d_7">
      <defs>
       <path d="M 0 0 
L -3.5 0 
" id="m3eeece4ac5" style="stroke:#000000;stroke-width:0.8;"/>
      </defs>
      <g>
       <use style="stroke:#000000;stroke-width:0.8;" x="56.2" xlink:href="#m3eeece4ac5" y="224.152218"/>
      </g>
     </g>
     <g id="text_8">
      <!-- 0 -->
      <g transform="translate(41.7 229.360031)scale(0.15 -0.15)">
       <use xlink:href="#TimesNewRomanPSMT-48"/>
      </g>
     </g>
    </g>
    <g id="ytick_2">
     <g id="line2d_8">
      <g>
       <use style="stroke:#000000;stroke-width:0.8;" x="56.2" xlink:href="#m3eeece4ac5" y="189.190068"/>
      </g>
     </g>
     <g id="text_9">
      <!-- 5 -->
      <g transform="translate(41.7 194.39788)scale(0.15 -0.15)">
       <defs>
        <path d="M 43.40625 66.21875 
L 39.59375 57.90625 
L 19.671875 57.90625 
L 15.328125 49.03125 
Q 28.265625 47.125 35.84375 39.40625 
Q 42.328125 32.765625 42.328125 23.78125 
Q 42.328125 18.5625 40.203125 14.109375 
Q 38.09375 9.671875 34.859375 6.546875 
Q 31.640625 3.421875 27.6875 1.515625 
Q 22.078125 -1.171875 16.15625 -1.171875 
Q 10.203125 -1.171875 7.484375 0.84375 
Q 4.78125 2.875 4.78125 5.328125 
Q 4.78125 6.6875 5.90625 7.734375 
Q 7.03125 8.796875 8.734375 8.796875 
Q 10.015625 8.796875 10.96875 8.40625 
Q 11.921875 8.015625 14.203125 6.390625 
Q 17.875 3.859375 21.625 3.859375 
Q 27.34375 3.859375 31.65625 8.171875 
Q 35.984375 12.5 35.984375 18.703125 
Q 35.984375 24.703125 32.125 29.90625 
Q 28.265625 35.109375 21.484375 37.9375 
Q 16.15625 40.140625 6.984375 40.484375 
L 19.671875 66.21875 
z
" id="TimesNewRomanPSMT-53"/>
       </defs>
       <use xlink:href="#TimesNewRomanPSMT-53"/>
      </g>
     </g>
    </g>
    <g id="ytick_3">
     <g id="line2d_9">
      <g>
       <use style="stroke:#000000;stroke-width:0.8;" x="56.2" xlink:href="#m3eeece4ac5" y="154.227917"/>
      </g>
     </g>
     <g id="text_10">
      <!-- 10 -->
      <g transform="translate(34.2 159.43573)scale(0.15 -0.15)">
       <use xlink:href="#TimesNewRomanPSMT-49"/>
       <use x="50" xlink:href="#TimesNewRomanPSMT-48"/>
      </g>
     </g>
    </g>
    <g id="ytick_4">
     <g id="line2d_10">
      <g>
       <use style="stroke:#000000;stroke-width:0.8;" x="56.2" xlink:href="#m3eeece4ac5" y="119.265767"/>
      </g>
     </g>
     <g id="text_11">
      <!-- 15 -->
      <g transform="translate(34.2 124.473579)scale(0.15 -0.15)">
       <use xlink:href="#TimesNewRomanPSMT-49"/>
       <use x="50" xlink:href="#TimesNewRomanPSMT-53"/>
      </g>
     </g>
    </g>
    <g id="ytick_5">
     <g id="line2d_11">
      <g>
       <use style="stroke:#000000;stroke-width:0.8;" x="56.2" xlink:href="#m3eeece4ac5" y="84.303616"/>
      </g>
     </g>
     <g id="text_12">
      <!-- 20 -->
      <g transform="translate(34.2 89.511429)scale(0.15 -0.15)">
       <defs>
        <path d="M 45.84375 12.75 
L 41.21875 0 
L 2.15625 0 
L 2.15625 1.8125 
Q 19.390625 17.53125 26.421875 27.484375 
Q 33.453125 37.453125 33.453125 45.703125 
Q 33.453125 52 29.59375 56.046875 
Q 25.734375 60.109375 20.359375 60.109375 
Q 15.484375 60.109375 11.59375 57.25 
Q 7.71875 54.390625 5.859375 48.875 
L 4.046875 48.875 
Q 5.28125 57.90625 10.328125 62.734375 
Q 15.375 67.578125 22.953125 67.578125 
Q 31 67.578125 36.390625 62.40625 
Q 41.796875 57.234375 41.796875 50.203125 
Q 41.796875 45.171875 39.453125 40.140625 
Q 35.84375 32.234375 27.734375 23.390625 
Q 15.578125 10.109375 12.546875 7.375 
L 29.828125 7.375 
Q 35.109375 7.375 37.234375 7.765625 
Q 39.359375 8.15625 41.0625 9.34375 
Q 42.78125 10.546875 44.046875 12.75 
z
" id="TimesNewRomanPSMT-50"/>
       </defs>
       <use xlink:href="#TimesNewRomanPSMT-50"/>
       <use x="50" xlink:href="#TimesNewRomanPSMT-48"/>
      </g>
     </g>
    </g>
    <g id="ytick_6">
     <g id="line2d_12">
      <g>
       <use style="stroke:#000000;stroke-width:0.8;" x="56.2" xlink:href="#m3eeece4ac5" y="49.341466"/>
      </g>
     </g>
     <g id="text_13">
      <!-- 25 -->
      <g transform="translate(34.2 54.549278)scale(0.15 -0.15)">
       <use xlink:href="#TimesNewRomanPSMT-50"/>
       <use x="50" xlink:href="#TimesNewRomanPSMT-53"/>
      </g>
     </g>
    </g>
    <g id="text_14">
     <!-- $f_{best, sample}$ - $f_{opt, noise}$ -->
     <g transform="translate(25.55 208.0244)rotate(-90)scale(0.15 -0.15)">
      <defs>
       <path d="M 47.796875 75.984375 
L 46.390625 68.5 
L 37.796875 68.5 
Q 32.90625 68.5 30.6875 66.578125 
Q 28.46875 64.65625 27.390625 59.515625 
L 26.421875 54.6875 
L 41.21875 54.6875 
L 39.890625 47.703125 
L 25.09375 47.703125 
L 15.828125 0 
L 6.78125 0 
L 16.109375 47.703125 
L 7.515625 47.703125 
L 8.796875 54.6875 
L 17.390625 54.6875 
L 18.109375 58.5 
Q 19.96875 68.171875 24.625 72.078125 
Q 29.296875 75.984375 39.3125 75.984375 
z
" id="DejaVuSans-Oblique-102"/>
       <path d="M 49.515625 33.40625 
Q 49.515625 40.484375 46.265625 44.484375 
Q 43.015625 48.484375 37.3125 48.484375 
Q 33.15625 48.484375 29.515625 46.453125 
Q 25.875 44.4375 23.1875 40.578125 
Q 20.359375 36.53125 18.71875 31.171875 
Q 17.09375 25.828125 17.09375 20.515625 
Q 17.09375 13.765625 20.28125 9.9375 
Q 23.484375 6.109375 29.109375 6.109375 
Q 33.34375 6.109375 36.953125 8.078125 
Q 40.578125 10.0625 43.3125 13.921875 
Q 46.09375 17.921875 47.796875 23.234375 
Q 49.515625 28.5625 49.515625 33.40625 
z
M 21.578125 46.390625 
Q 24.90625 50.875 29.90625 53.4375 
Q 34.90625 56 40.375 56 
Q 48.78125 56 53.734375 50.328125 
Q 58.6875 44.671875 58.6875 35.015625 
Q 58.6875 27.09375 55.78125 19.671875 
Q 52.875 12.25 47.515625 6.5 
Q 44 2.6875 39.40625 0.625 
Q 34.8125 -1.421875 29.78125 -1.421875 
Q 24.46875 -1.421875 20.5625 1.015625 
Q 16.65625 3.46875 14.203125 8.296875 
L 12.59375 0 
L 3.609375 0 
L 18.40625 75.984375 
L 27.390625 75.984375 
z
" id="DejaVuSans-Oblique-98"/>
       <path d="M 48.09375 32.234375 
Q 48.25 33.015625 48.3125 33.84375 
Q 48.390625 34.671875 48.390625 35.5 
Q 48.390625 41.453125 44.890625 44.921875 
Q 41.40625 48.390625 35.40625 48.390625 
Q 28.71875 48.390625 23.578125 44.15625 
Q 18.453125 39.9375 15.828125 32.171875 
z
M 55.90625 25.203125 
L 14.109375 25.203125 
Q 13.8125 23.34375 13.71875 22.265625 
Q 13.625 21.1875 13.625 20.40625 
Q 13.625 13.625 17.796875 9.90625 
Q 21.96875 6.203125 29.59375 6.203125 
Q 35.453125 6.203125 40.671875 7.515625 
Q 45.90625 8.84375 50.390625 11.375 
L 48.6875 2.484375 
Q 43.84375 0.53125 38.6875 -0.4375 
Q 33.546875 -1.421875 28.21875 -1.421875 
Q 16.84375 -1.421875 10.71875 4.015625 
Q 4.59375 9.46875 4.59375 19.484375 
Q 4.59375 28.03125 7.640625 35.375 
Q 10.6875 42.71875 16.609375 48.484375 
Q 20.40625 52.09375 25.65625 54.046875 
Q 30.90625 56 36.8125 56 
Q 46.09375 56 51.578125 50.4375 
Q 57.078125 44.875 57.078125 35.5 
Q 57.078125 33.25 56.78125 30.6875 
Q 56.5 28.125 55.90625 25.203125 
z
" id="DejaVuSans-Oblique-101"/>
       <path d="M 50 53.078125 
L 48.296875 44.578125 
Q 44.734375 46.53125 40.765625 47.5 
Q 36.8125 48.484375 32.625 48.484375 
Q 25.53125 48.484375 21.453125 46.0625 
Q 17.390625 43.65625 17.390625 39.5 
Q 17.390625 34.671875 26.859375 32.078125 
Q 27.59375 31.890625 27.9375 31.78125 
L 30.8125 30.90625 
Q 39.796875 28.421875 42.796875 25.6875 
Q 45.796875 22.953125 45.796875 18.21875 
Q 45.796875 9.515625 38.890625 4.046875 
Q 31.984375 -1.421875 20.796875 -1.421875 
Q 16.453125 -1.421875 11.671875 -0.578125 
Q 6.890625 0.25 1.125 2 
L 2.875 11.28125 
Q 7.8125 8.734375 12.59375 7.421875 
Q 17.390625 6.109375 21.78125 6.109375 
Q 28.375 6.109375 32.5 8.9375 
Q 36.625 11.765625 36.625 16.109375 
Q 36.625 20.796875 25.78125 23.6875 
L 24.859375 23.921875 
L 21.78125 24.703125 
Q 14.9375 26.515625 11.765625 29.46875 
Q 8.59375 32.421875 8.59375 37.015625 
Q 8.59375 45.75 15.15625 50.875 
Q 21.734375 56 33.015625 56 
Q 37.453125 56 41.671875 55.265625 
Q 45.90625 54.546875 50 53.078125 
z
" id="DejaVuSans-Oblique-115"/>
       <path d="M 42.28125 54.6875 
L 40.921875 47.703125 
L 23 47.703125 
L 17.1875 18.015625 
Q 16.890625 16.359375 16.75 15.234375 
Q 16.609375 14.109375 16.609375 13.484375 
Q 16.609375 10.359375 18.484375 8.9375 
Q 20.359375 7.515625 24.515625 7.515625 
L 33.59375 7.515625 
L 32.078125 0 
L 23.484375 0 
Q 15.484375 0 11.546875 3.125 
Q 7.625 6.25 7.625 12.59375 
Q 7.625 13.71875 7.765625 15.0625 
Q 7.90625 16.40625 8.203125 18.015625 
L 14.015625 47.703125 
L 6.390625 47.703125 
L 7.8125 54.6875 
L 15.28125 54.6875 
L 18.3125 70.21875 
L 27.296875 70.21875 
L 24.3125 54.6875 
z
" id="DejaVuSans-Oblique-116"/>
       <path d="M 11.71875 12.40625 
L 22.015625 12.40625 
L 22.015625 4 
L 14.015625 -11.625 
L 7.71875 -11.625 
L 11.71875 4 
z
" id="DejaVuSans-44"/>
       <path d="M 53.71875 31.203125 
L 47.609375 0 
L 38.625 0 
L 40.28125 8.296875 
Q 36.328125 3.421875 31.265625 1 
Q 26.21875 -1.421875 20.015625 -1.421875 
Q 13.03125 -1.421875 8.5625 2.84375 
Q 4.109375 7.125 4.109375 13.8125 
Q 4.109375 23.390625 11.75 28.953125 
Q 19.390625 34.515625 32.8125 34.515625 
L 45.3125 34.515625 
L 45.796875 36.921875 
Q 45.90625 37.3125 45.953125 37.765625 
Q 46 38.234375 46 39.203125 
Q 46 43.5625 42.453125 45.96875 
Q 38.921875 48.390625 32.515625 48.390625 
Q 28.125 48.390625 23.5 47.265625 
Q 18.890625 46.140625 14.015625 43.890625 
L 15.578125 52.203125 
Q 20.65625 54.109375 25.515625 55.046875 
Q 30.375 56 34.90625 56 
Q 44.578125 56 49.625 51.796875 
Q 54.6875 47.609375 54.6875 39.59375 
Q 54.6875 37.984375 54.4375 35.8125 
Q 54.203125 33.640625 53.71875 31.203125 
z
M 44 27.484375 
L 35.015625 27.484375 
Q 23.96875 27.484375 18.671875 24.53125 
Q 13.375 21.578125 13.375 15.375 
Q 13.375 11.078125 16.078125 8.640625 
Q 18.796875 6.203125 23.578125 6.203125 
Q 30.90625 6.203125 36.375 11.453125 
Q 41.84375 16.703125 43.609375 25.484375 
z
" id="DejaVuSans-Oblique-97"/>
       <path d="M 89.796875 33.015625 
L 83.40625 0 
L 74.421875 0 
L 80.71875 32.71875 
Q 81.109375 34.8125 81.296875 36.328125 
Q 81.5 37.84375 81.5 38.921875 
Q 81.5 43.3125 79.046875 45.75 
Q 76.609375 48.1875 72.21875 48.1875 
Q 65.671875 48.1875 60.546875 43.28125 
Q 55.421875 38.375 53.90625 30.515625 
L 47.90625 0 
L 38.921875 0 
L 45.3125 32.71875 
Q 45.703125 34.515625 45.890625 36.046875 
Q 46.09375 37.59375 46.09375 38.8125 
Q 46.09375 43.265625 43.65625 45.71875 
Q 41.21875 48.1875 36.921875 48.1875 
Q 30.28125 48.1875 25.140625 43.28125 
Q 20.015625 38.375 18.5 30.515625 
L 12.5 0 
L 3.515625 0 
L 14.203125 54.6875 
L 23.1875 54.6875 
L 21.484375 46.1875 
Q 25.140625 50.984375 30.046875 53.484375 
Q 34.96875 56 40.578125 56 
Q 46.53125 56 50.359375 52.875 
Q 54.203125 49.75 54.984375 44.1875 
Q 59.078125 49.953125 64.46875 52.96875 
Q 69.875 56 75.875 56 
Q 82.90625 56 86.734375 51.953125 
Q 90.578125 47.90625 90.578125 40.484375 
Q 90.578125 38.875 90.375 36.9375 
Q 90.1875 35.015625 89.796875 33.015625 
z
" id="DejaVuSans-Oblique-109"/>
       <path d="M 49.609375 33.6875 
Q 49.609375 40.875 46.484375 44.671875 
Q 43.359375 48.484375 37.5 48.484375 
Q 33.5 48.484375 29.859375 46.4375 
Q 26.21875 44.390625 23.390625 40.484375 
Q 20.609375 36.625 18.9375 31.15625 
Q 17.28125 25.6875 17.28125 20.3125 
Q 17.28125 13.484375 20.40625 9.796875 
Q 23.53125 6.109375 29.296875 6.109375 
Q 33.546875 6.109375 37.1875 8.109375 
Q 40.828125 10.109375 43.40625 13.921875 
Q 46.1875 17.921875 47.890625 23.34375 
Q 49.609375 28.765625 49.609375 33.6875 
z
M 21.78125 46.390625 
Q 25.390625 51.125 30.296875 53.5625 
Q 35.203125 56 41.21875 56 
Q 49.609375 56 54.25 50.5 
Q 58.890625 45.015625 58.890625 35.109375 
Q 58.890625 27 56 19.65625 
Q 53.125 12.3125 47.703125 6.5 
Q 44.09375 2.640625 39.546875 0.609375 
Q 35.015625 -1.421875 29.984375 -1.421875 
Q 24.171875 -1.421875 20.21875 1 
Q 16.265625 3.421875 14.3125 8.203125 
L 8.6875 -20.796875 
L -0.296875 -20.796875 
L 14.40625 54.6875 
L 23.390625 54.6875 
z
" id="DejaVuSans-Oblique-112"/>
       <path d="M 18.3125 75.984375 
L 27.296875 75.984375 
L 12.5 0 
L 3.515625 0 
z
" id="DejaVuSans-Oblique-108"/>
       <path d="M 4.046875 26.125 
L 29.296875 26.125 
L 29.296875 18.75 
L 4.046875 18.75 
z
" id="TimesNewRomanPSMT-45"/>
       <path d="M 25.390625 -1.421875 
Q 15.765625 -1.421875 10.171875 4.515625 
Q 4.59375 10.453125 4.59375 20.703125 
Q 4.59375 26.65625 6.515625 32.828125 
Q 8.453125 39.015625 11.53125 43.21875 
Q 16.359375 49.75 22.3125 52.875 
Q 28.265625 56 35.796875 56 
Q 45.125 56 50.859375 50.1875 
Q 56.59375 44.390625 56.59375 35.015625 
Q 56.59375 28.515625 54.6875 22.0625 
Q 52.78125 15.625 49.703125 11.375 
Q 44.921875 4.828125 38.96875 1.703125 
Q 33.015625 -1.421875 25.390625 -1.421875 
z
M 13.921875 21 
Q 13.921875 13.578125 17.015625 9.890625 
Q 20.125 6.203125 26.421875 6.203125 
Q 35.453125 6.203125 41.375 14.078125 
Q 47.3125 21.96875 47.3125 34.078125 
Q 47.3125 41.15625 44.140625 44.765625 
Q 40.96875 48.390625 34.8125 48.390625 
Q 29.734375 48.390625 25.78125 46.015625 
Q 21.828125 43.65625 18.703125 38.8125 
Q 16.40625 35.203125 15.15625 30.5625 
Q 13.921875 25.921875 13.921875 21 
z
" id="DejaVuSans-Oblique-111"/>
       <path d="M 55.71875 33.015625 
L 49.3125 0 
L 40.28125 0 
L 46.6875 32.671875 
Q 47.125 34.96875 47.359375 36.71875 
Q 47.609375 38.484375 47.609375 39.5 
Q 47.609375 43.609375 45.015625 45.890625 
Q 42.4375 48.1875 37.796875 48.1875 
Q 30.5625 48.1875 25.34375 43.375 
Q 20.125 38.578125 18.5 30.328125 
L 12.5 0 
L 3.515625 0 
L 14.109375 54.6875 
L 23.09375 54.6875 
L 21.296875 46.09375 
Q 25.046875 50.828125 30.3125 53.40625 
Q 35.59375 56 41.40625 56 
Q 48.640625 56 52.609375 52.09375 
Q 56.59375 48.1875 56.59375 41.109375 
Q 56.59375 39.359375 56.375 37.359375 
Q 56.15625 35.359375 55.71875 33.015625 
z
" id="DejaVuSans-Oblique-110"/>
       <path d="M 18.3125 75.984375 
L 27.296875 75.984375 
L 25.09375 64.59375 
L 16.109375 64.59375 
z
M 14.203125 54.6875 
L 23.1875 54.6875 
L 12.5 0 
L 3.515625 0 
z
" id="DejaVuSans-Oblique-105"/>
      </defs>
      <use transform="translate(0 0.015625)" xlink:href="#DejaVuSans-Oblique-102"/>
      <use transform="translate(35.205078 -16.390625)scale(0.7)" xlink:href="#DejaVuSans-Oblique-98"/>
      <use transform="translate(79.638672 -16.390625)scale(0.7)" xlink:href="#DejaVuSans-Oblique-101"/>
      <use transform="translate(122.705078 -16.390625)scale(0.7)" xlink:href="#DejaVuSans-Oblique-115"/>
      <use transform="translate(159.174805 -16.390625)scale(0.7)" xlink:href="#DejaVuSans-Oblique-116"/>
      <use transform="translate(186.621094 -16.390625)scale(0.7)" xlink:href="#DejaVuSans-44"/>
      <use transform="translate(222.509766 -16.390625)scale(0.7)" xlink:href="#DejaVuSans-Oblique-115"/>
      <use transform="translate(258.979492 -16.390625)scale(0.7)" xlink:href="#DejaVuSans-Oblique-97"/>
      <use transform="translate(301.875 -16.390625)scale(0.7)" xlink:href="#DejaVuSans-Oblique-109"/>
      <use transform="translate(370.063477 -16.390625)scale(0.7)" xlink:href="#DejaVuSans-Oblique-112"/>
      <use transform="translate(414.49707 -16.390625)scale(0.7)" xlink:href="#DejaVuSans-Oblique-108"/>
      <use transform="translate(433.945312 -16.390625)scale(0.7)" xlink:href="#DejaVuSans-Oblique-101"/>
      <use transform="translate(479.746094 0.015625)" xlink:href="#TimesNewRomanPSMT-32"/>
      <use transform="translate(504.746094 0.015625)" xlink:href="#TimesNewRomanPSMT-45"/>
      <use transform="translate(538.046875 0.015625)" xlink:href="#TimesNewRomanPSMT-32"/>
      <use transform="translate(563.046875 0.015625)" xlink:href="#DejaVuSans-Oblique-102"/>
      <use transform="translate(598.251953 -16.390625)scale(0.7)" xlink:href="#DejaVuSans-Oblique-111"/>
      <use transform="translate(641.079102 -16.390625)scale(0.7)" xlink:href="#DejaVuSans-Oblique-112"/>
      <use transform="translate(685.512695 -16.390625)scale(0.7)" xlink:href="#DejaVuSans-Oblique-116"/>
      <use transform="translate(712.958984 -16.390625)scale(0.7)" xlink:href="#DejaVuSans-44"/>
      <use transform="translate(748.847656 -16.390625)scale(0.7)" xlink:href="#DejaVuSans-Oblique-110"/>
      <use transform="translate(793.212891 -16.390625)scale(0.7)" xlink:href="#DejaVuSans-Oblique-111"/>
      <use transform="translate(836.040039 -16.390625)scale(0.7)" xlink:href="#DejaVuSans-Oblique-105"/>
      <use transform="translate(855.488281 -16.390625)scale(0.7)" xlink:href="#DejaVuSans-Oblique-115"/>
      <use transform="translate(891.958008 -16.390625)scale(0.7)" xlink:href="#DejaVuSans-Oblique-101"/>
     </g>
    </g>
   </g>
   <g id="line2d_13">
    <path clip-path="url(#pe35bde90a8)" d="M 68.186667 188.202558 
L 68.186667 196.230151 
" style="fill:none;stroke:#545454;stroke-linecap:square;stroke-width:1.5;"/>
   </g>
   <g id="line2d_14">
    <path clip-path="url(#pe35bde90a8)" d="M 68.186667 149.948993 
L 68.186667 107.388473 
" style="fill:none;stroke:#545454;stroke-linecap:square;stroke-width:1.5;"/>
   </g>
   <g id="line2d_15">
    <path clip-path="url(#pe35bde90a8)" d="M 65.249933 196.230151 
L 71.1234 196.230151 
" style="fill:none;stroke:#545454;stroke-linecap:square;stroke-width:1.5;"/>
   </g>
   <g id="line2d_16">
    <path clip-path="url(#pe35bde90a8)" d="M 65.249933 107.388473 
L 71.1234 107.388473 
" style="fill:none;stroke:#545454;stroke-linecap:square;stroke-width:1.5;"/>
   </g>
   <g id="line2d_17">
    <defs>
     <path d="M 0 3.535534 
L 2.12132 0 
L 0 -3.535534 
L -2.12132 0 
z
" id="mad455e0d39" style="stroke:#545454;stroke-linejoin:miter;"/>
    </defs>
    <g clip-path="url(#pe35bde90a8)">
     <use style="fill:#545454;stroke:#545454;stroke-linejoin:miter;" x="68.186667" xlink:href="#mad455e0d39" y="92.318719"/>
    </g>
   </g>
   <g id="line2d_18">
    <path clip-path="url(#pe35bde90a8)" d="M 80.173333 219.034774 
L 80.173333 221.378141 
" style="fill:none;stroke:#545454;stroke-linecap:square;stroke-width:1.5;"/>
   </g>
   <g id="line2d_19">
    <path clip-path="url(#pe35bde90a8)" d="M 80.173333 210.976702 
L 80.173333 203.927609 
" style="fill:none;stroke:#545454;stroke-linecap:square;stroke-width:1.5;"/>
   </g>
   <g id="line2d_20">
    <path clip-path="url(#pe35bde90a8)" d="M 77.2366 221.378141 
L 83.110067 221.378141 
" style="fill:none;stroke:#545454;stroke-linecap:square;stroke-width:1.5;"/>
   </g>
   <g id="line2d_21">
    <path clip-path="url(#pe35bde90a8)" d="M 77.2366 203.927609 
L 83.110067 203.927609 
" style="fill:none;stroke:#545454;stroke-linecap:square;stroke-width:1.5;"/>
   </g>
   <g id="line2d_22"/>
   <g id="line2d_23">
    <path clip-path="url(#pe35bde90a8)" d="M 92.16 216.88437 
L 92.16 217.872567 
" style="fill:none;stroke:#545454;stroke-linecap:square;stroke-width:1.5;"/>
   </g>
   <g id="line2d_24">
    <path clip-path="url(#pe35bde90a8)" d="M 92.16 204.351955 
L 92.16 193.06414 
" style="fill:none;stroke:#545454;stroke-linecap:square;stroke-width:1.5;"/>
   </g>
   <g id="line2d_25">
    <path clip-path="url(#pe35bde90a8)" d="M 89.223267 217.872567 
L 95.096733 217.872567 
" style="fill:none;stroke:#545454;stroke-linecap:square;stroke-width:1.5;"/>
   </g>
   <g id="line2d_26">
    <path clip-path="url(#pe35bde90a8)" d="M 89.223267 193.06414 
L 95.096733 193.06414 
" style="fill:none;stroke:#545454;stroke-linecap:square;stroke-width:1.5;"/>
   </g>
   <g id="line2d_27">
    <g clip-path="url(#pe35bde90a8)">
     <use style="fill:#545454;stroke:#545454;stroke-linejoin:miter;" x="92.16" xlink:href="#mad455e0d39" y="171.461113"/>
     <use style="fill:#545454;stroke:#545454;stroke-linejoin:miter;" x="92.16" xlink:href="#mad455e0d39" y="178.530983"/>
    </g>
   </g>
   <g id="line2d_28">
    <path clip-path="url(#pe35bde90a8)" d="M 104.146667 222.107736 
L 104.146667 224.152218 
" style="fill:none;stroke:#545454;stroke-linecap:square;stroke-width:1.5;"/>
   </g>
   <g id="line2d_29">
    <path clip-path="url(#pe35bde90a8)" d="M 104.146667 216.45258 
L 104.146667 213.364878 
" style="fill:none;stroke:#545454;stroke-linecap:square;stroke-width:1.5;"/>
   </g>
   <g id="line2d_30">
    <path clip-path="url(#pe35bde90a8)" d="M 101.209933 224.152218 
L 107.0834 224.152218 
" style="fill:none;stroke:#545454;stroke-linecap:square;stroke-width:1.5;"/>
   </g>
   <g id="line2d_31">
    <path clip-path="url(#pe35bde90a8)" d="M 101.209933 213.364878 
L 107.0834 213.364878 
" style="fill:none;stroke:#545454;stroke-linecap:square;stroke-width:1.5;"/>
   </g>
   <g id="line2d_32">
    <g clip-path="url(#pe35bde90a8)">
     <use style="fill:#545454;stroke:#545454;stroke-linejoin:miter;" x="104.146667" xlink:href="#mad455e0d39" y="200.894514"/>
    </g>
   </g>
   <g id="line2d_33">
    <path clip-path="url(#pe35bde90a8)" d="M 128.12 191.400222 
L 128.12 204.360559 
" style="fill:none;stroke:#545454;stroke-linecap:square;stroke-width:1.5;"/>
   </g>
   <g id="line2d_34">
    <path clip-path="url(#pe35bde90a8)" d="M 128.12 128.899822 
L 128.12 51.196582 
" style="fill:none;stroke:#545454;stroke-linecap:square;stroke-width:1.5;"/>
   </g>
   <g id="line2d_35">
    <path clip-path="url(#pe35bde90a8)" d="M 125.183267 204.360559 
L 131.056733 204.360559 
" style="fill:none;stroke:#545454;stroke-linecap:square;stroke-width:1.5;"/>
   </g>
   <g id="line2d_36">
    <path clip-path="url(#pe35bde90a8)" d="M 125.183267 51.196582 
L 131.056733 51.196582 
" style="fill:none;stroke:#545454;stroke-linecap:square;stroke-width:1.5;"/>
   </g>
   <g id="line2d_37"/>
   <g id="line2d_38">
    <path clip-path="url(#pe35bde90a8)" d="M 140.106667 217.289161 
L 140.106667 220.186285 
" style="fill:none;stroke:#545454;stroke-linecap:square;stroke-width:1.5;"/>
   </g>
   <g id="line2d_39">
    <path clip-path="url(#pe35bde90a8)" d="M 140.106667 211.263518 
L 140.106667 205.002226 
" style="fill:none;stroke:#545454;stroke-linecap:square;stroke-width:1.5;"/>
   </g>
   <g id="line2d_40">
    <path clip-path="url(#pe35bde90a8)" d="M 137.169933 220.186285 
L 143.0434 220.186285 
" style="fill:none;stroke:#545454;stroke-linecap:square;stroke-width:1.5;"/>
   </g>
   <g id="line2d_41">
    <path clip-path="url(#pe35bde90a8)" d="M 137.169933 205.002226 
L 143.0434 205.002226 
" style="fill:none;stroke:#545454;stroke-linecap:square;stroke-width:1.5;"/>
   </g>
   <g id="line2d_42">
    <g clip-path="url(#pe35bde90a8)">
     <use style="fill:#545454;stroke:#545454;stroke-linejoin:miter;" x="140.106667" xlink:href="#mad455e0d39" y="197.452544"/>
    </g>
   </g>
   <g id="line2d_43">
    <path clip-path="url(#pe35bde90a8)" d="M 152.093333 215.268694 
L 152.093333 217.537591 
" style="fill:none;stroke:#545454;stroke-linecap:square;stroke-width:1.5;"/>
   </g>
   <g id="line2d_44">
    <path clip-path="url(#pe35bde90a8)" d="M 152.093333 209.020981 
L 152.093333 208.124919 
" style="fill:none;stroke:#545454;stroke-linecap:square;stroke-width:1.5;"/>
   </g>
   <g id="line2d_45">
    <path clip-path="url(#pe35bde90a8)" d="M 149.1566 217.537591 
L 155.030067 217.537591 
" style="fill:none;stroke:#545454;stroke-linecap:square;stroke-width:1.5;"/>
   </g>
   <g id="line2d_46">
    <path clip-path="url(#pe35bde90a8)" d="M 149.1566 208.124919 
L 155.030067 208.124919 
" style="fill:none;stroke:#545454;stroke-linecap:square;stroke-width:1.5;"/>
   </g>
   <g id="line2d_47">
    <g clip-path="url(#pe35bde90a8)">
     <use style="fill:#545454;stroke:#545454;stroke-linejoin:miter;" x="152.093333" xlink:href="#mad455e0d39" y="182.976122"/>
     <use style="fill:#545454;stroke:#545454;stroke-linejoin:miter;" x="152.093333" xlink:href="#mad455e0d39" y="198.498105"/>
     <use style="fill:#545454;stroke:#545454;stroke-linejoin:miter;" x="152.093333" xlink:href="#mad455e0d39" y="192.811557"/>
    </g>
   </g>
   <g id="line2d_48">
    <path clip-path="url(#pe35bde90a8)" d="M 164.08 220.100037 
L 164.08 224.152218 
" style="fill:none;stroke:#545454;stroke-linecap:square;stroke-width:1.5;"/>
   </g>
   <g id="line2d_49">
    <path clip-path="url(#pe35bde90a8)" d="M 164.08 213.555023 
L 164.08 207.125455 
" style="fill:none;stroke:#545454;stroke-linecap:square;stroke-width:1.5;"/>
   </g>
   <g id="line2d_50">
    <path clip-path="url(#pe35bde90a8)" d="M 161.143267 224.152218 
L 167.016733 224.152218 
" style="fill:none;stroke:#545454;stroke-linecap:square;stroke-width:1.5;"/>
   </g>
   <g id="line2d_51">
    <path clip-path="url(#pe35bde90a8)" d="M 161.143267 207.125455 
L 167.016733 207.125455 
" style="fill:none;stroke:#545454;stroke-linecap:square;stroke-width:1.5;"/>
   </g>
   <g id="line2d_52">
    <g clip-path="url(#pe35bde90a8)">
     <use style="fill:#545454;stroke:#545454;stroke-linejoin:miter;" x="164.08" xlink:href="#mad455e0d39" y="193.390636"/>
    </g>
   </g>
   <g id="line2d_53">
    <path clip-path="url(#pe35bde90a8)" d="M 188.053333 187.995599 
L 188.053333 210.857784 
" style="fill:none;stroke:#545454;stroke-linecap:square;stroke-width:1.5;"/>
   </g>
   <g id="line2d_54">
    <path clip-path="url(#pe35bde90a8)" d="M 188.053333 156.047301 
L 188.053333 136.152645 
" style="fill:none;stroke:#545454;stroke-linecap:square;stroke-width:1.5;"/>
   </g>
   <g id="line2d_55">
    <path clip-path="url(#pe35bde90a8)" d="M 185.1166 210.857784 
L 190.990067 210.857784 
" style="fill:none;stroke:#545454;stroke-linecap:square;stroke-width:1.5;"/>
   </g>
   <g id="line2d_56">
    <path clip-path="url(#pe35bde90a8)" d="M 185.1166 136.152645 
L 190.990067 136.152645 
" style="fill:none;stroke:#545454;stroke-linecap:square;stroke-width:1.5;"/>
   </g>
   <g id="line2d_57"/>
   <g id="line2d_58">
    <path clip-path="url(#pe35bde90a8)" d="M 200.04 217.888452 
L 200.04 219.695425 
" style="fill:none;stroke:#545454;stroke-linecap:square;stroke-width:1.5;"/>
   </g>
   <g id="line2d_59">
    <path clip-path="url(#pe35bde90a8)" d="M 200.04 211.695435 
L 200.04 207.293797 
" style="fill:none;stroke:#545454;stroke-linecap:square;stroke-width:1.5;"/>
   </g>
   <g id="line2d_60">
    <path clip-path="url(#pe35bde90a8)" d="M 197.103267 219.695425 
L 202.976733 219.695425 
" style="fill:none;stroke:#545454;stroke-linecap:square;stroke-width:1.5;"/>
   </g>
   <g id="line2d_61">
    <path clip-path="url(#pe35bde90a8)" d="M 197.103267 207.293797 
L 202.976733 207.293797 
" style="fill:none;stroke:#545454;stroke-linecap:square;stroke-width:1.5;"/>
   </g>
   <g id="line2d_62">
    <g clip-path="url(#pe35bde90a8)">
     <use style="fill:#545454;stroke:#545454;stroke-linejoin:miter;" x="200.04" xlink:href="#mad455e0d39" y="200.081085"/>
     <use style="fill:#545454;stroke:#545454;stroke-linejoin:miter;" x="200.04" xlink:href="#mad455e0d39" y="199.409721"/>
    </g>
   </g>
   <g id="line2d_63">
    <path clip-path="url(#pe35bde90a8)" d="M 212.026667 216.666592 
L 212.026667 220.378927 
" style="fill:none;stroke:#545454;stroke-linecap:square;stroke-width:1.5;"/>
   </g>
   <g id="line2d_64">
    <path clip-path="url(#pe35bde90a8)" d="M 212.026667 203.205082 
L 212.026667 193.828108 
" style="fill:none;stroke:#545454;stroke-linecap:square;stroke-width:1.5;"/>
   </g>
   <g id="line2d_65">
    <path clip-path="url(#pe35bde90a8)" d="M 209.089933 220.378927 
L 214.9634 220.378927 
" style="fill:none;stroke:#545454;stroke-linecap:square;stroke-width:1.5;"/>
   </g>
   <g id="line2d_66">
    <path clip-path="url(#pe35bde90a8)" d="M 209.089933 193.828108 
L 214.9634 193.828108 
" style="fill:none;stroke:#545454;stroke-linecap:square;stroke-width:1.5;"/>
   </g>
   <g id="line2d_67">
    <g clip-path="url(#pe35bde90a8)">
     <use style="fill:#545454;stroke:#545454;stroke-linejoin:miter;" x="212.026667" xlink:href="#mad455e0d39" y="147.085588"/>
     <use style="fill:#545454;stroke:#545454;stroke-linejoin:miter;" x="212.026667" xlink:href="#mad455e0d39" y="179.557852"/>
    </g>
   </g>
   <g id="line2d_68">
    <path clip-path="url(#pe35bde90a8)" d="M 224.013333 217.764488 
L 224.013333 221.034027 
" style="fill:none;stroke:#545454;stroke-linecap:square;stroke-width:1.5;"/>
   </g>
   <g id="line2d_69">
    <path clip-path="url(#pe35bde90a8)" d="M 224.013333 214.094465 
L 224.013333 210.734021 
" style="fill:none;stroke:#545454;stroke-linecap:square;stroke-width:1.5;"/>
   </g>
   <g id="line2d_70">
    <path clip-path="url(#pe35bde90a8)" d="M 221.0766 221.034027 
L 226.950067 221.034027 
" style="fill:none;stroke:#545454;stroke-linecap:square;stroke-width:1.5;"/>
   </g>
   <g id="line2d_71">
    <path clip-path="url(#pe35bde90a8)" d="M 221.0766 210.734021 
L 226.950067 210.734021 
" style="fill:none;stroke:#545454;stroke-linecap:square;stroke-width:1.5;"/>
   </g>
   <g id="line2d_72">
    <g clip-path="url(#pe35bde90a8)">
     <use style="fill:#545454;stroke:#545454;stroke-linejoin:miter;" x="224.013333" xlink:href="#mad455e0d39" y="224.152218"/>
     <use style="fill:#545454;stroke:#545454;stroke-linejoin:miter;" x="224.013333" xlink:href="#mad455e0d39" y="200.533988"/>
     <use style="fill:#545454;stroke:#545454;stroke-linejoin:miter;" x="224.013333" xlink:href="#mad455e0d39" y="204.648293"/>
    </g>
   </g>
   <g id="line2d_73">
    <path clip-path="url(#pe35bde90a8)" d="M 247.986667 178.989129 
L 247.986667 196.456937 
" style="fill:none;stroke:#545454;stroke-linecap:square;stroke-width:1.5;"/>
   </g>
   <g id="line2d_74">
    <path clip-path="url(#pe35bde90a8)" d="M 247.986667 142.262622 
L 247.986667 117.076525 
" style="fill:none;stroke:#545454;stroke-linecap:square;stroke-width:1.5;"/>
   </g>
   <g id="line2d_75">
    <path clip-path="url(#pe35bde90a8)" d="M 245.049933 196.456937 
L 250.9234 196.456937 
" style="fill:none;stroke:#545454;stroke-linecap:square;stroke-width:1.5;"/>
   </g>
   <g id="line2d_76">
    <path clip-path="url(#pe35bde90a8)" d="M 245.049933 117.076525 
L 250.9234 117.076525 
" style="fill:none;stroke:#545454;stroke-linecap:square;stroke-width:1.5;"/>
   </g>
   <g id="line2d_77"/>
   <g id="line2d_78">
    <path clip-path="url(#pe35bde90a8)" d="M 259.973333 215.585525 
L 259.973333 218.226126 
" style="fill:none;stroke:#545454;stroke-linecap:square;stroke-width:1.5;"/>
   </g>
   <g id="line2d_79">
    <path clip-path="url(#pe35bde90a8)" d="M 259.973333 204.941647 
L 259.973333 189.472656 
" style="fill:none;stroke:#545454;stroke-linecap:square;stroke-width:1.5;"/>
   </g>
   <g id="line2d_80">
    <path clip-path="url(#pe35bde90a8)" d="M 257.0366 218.226126 
L 262.910067 218.226126 
" style="fill:none;stroke:#545454;stroke-linecap:square;stroke-width:1.5;"/>
   </g>
   <g id="line2d_81">
    <path clip-path="url(#pe35bde90a8)" d="M 257.0366 189.472656 
L 262.910067 189.472656 
" style="fill:none;stroke:#545454;stroke-linecap:square;stroke-width:1.5;"/>
   </g>
   <g id="line2d_82"/>
   <g id="line2d_83">
    <path clip-path="url(#pe35bde90a8)" d="M 271.96 214.881495 
L 271.96 218.074605 
" style="fill:none;stroke:#545454;stroke-linecap:square;stroke-width:1.5;"/>
   </g>
   <g id="line2d_84">
    <path clip-path="url(#pe35bde90a8)" d="M 271.96 204.616021 
L 271.96 191.286135 
" style="fill:none;stroke:#545454;stroke-linecap:square;stroke-width:1.5;"/>
   </g>
   <g id="line2d_85">
    <path clip-path="url(#pe35bde90a8)" d="M 269.023267 218.074605 
L 274.896733 218.074605 
" style="fill:none;stroke:#545454;stroke-linecap:square;stroke-width:1.5;"/>
   </g>
   <g id="line2d_86">
    <path clip-path="url(#pe35bde90a8)" d="M 269.023267 191.286135 
L 274.896733 191.286135 
" style="fill:none;stroke:#545454;stroke-linecap:square;stroke-width:1.5;"/>
   </g>
   <g id="line2d_87">
    <g clip-path="url(#pe35bde90a8)">
     <use style="fill:#545454;stroke:#545454;stroke-linejoin:miter;" x="271.96" xlink:href="#mad455e0d39" y="181.934393"/>
     <use style="fill:#545454;stroke:#545454;stroke-linejoin:miter;" x="271.96" xlink:href="#mad455e0d39" y="161.521194"/>
    </g>
   </g>
   <g id="line2d_88">
    <path clip-path="url(#pe35bde90a8)" d="M 283.946667 215.670552 
L 283.946667 219.038652 
" style="fill:none;stroke:#545454;stroke-linecap:square;stroke-width:1.5;"/>
   </g>
   <g id="line2d_89">
    <path clip-path="url(#pe35bde90a8)" d="M 283.946667 210.956495 
L 283.946667 209.004318 
" style="fill:none;stroke:#545454;stroke-linecap:square;stroke-width:1.5;"/>
   </g>
   <g id="line2d_90">
    <path clip-path="url(#pe35bde90a8)" d="M 281.009933 219.038652 
L 286.8834 219.038652 
" style="fill:none;stroke:#545454;stroke-linecap:square;stroke-width:1.5;"/>
   </g>
   <g id="line2d_91">
    <path clip-path="url(#pe35bde90a8)" d="M 281.009933 209.004318 
L 286.8834 209.004318 
" style="fill:none;stroke:#545454;stroke-linecap:square;stroke-width:1.5;"/>
   </g>
   <g id="line2d_92">
    <g clip-path="url(#pe35bde90a8)">
     <use style="fill:#545454;stroke:#545454;stroke-linejoin:miter;" x="283.946667" xlink:href="#mad455e0d39" y="224.152218"/>
    </g>
   </g>
   <g id="line2d_93">
    <path clip-path="url(#pe35bde90a8)" d="M 307.92 193.229157 
L 307.92 206.729187 
" style="fill:none;stroke:#545454;stroke-linecap:square;stroke-width:1.5;"/>
   </g>
   <g id="line2d_94">
    <path clip-path="url(#pe35bde90a8)" d="M 307.92 156.985713 
L 307.92 120.23246 
" style="fill:none;stroke:#545454;stroke-linecap:square;stroke-width:1.5;"/>
   </g>
   <g id="line2d_95">
    <path clip-path="url(#pe35bde90a8)" d="M 304.983267 206.729187 
L 310.856733 206.729187 
" style="fill:none;stroke:#545454;stroke-linecap:square;stroke-width:1.5;"/>
   </g>
   <g id="line2d_96">
    <path clip-path="url(#pe35bde90a8)" d="M 304.983267 120.23246 
L 310.856733 120.23246 
" style="fill:none;stroke:#545454;stroke-linecap:square;stroke-width:1.5;"/>
   </g>
   <g id="line2d_97"/>
   <g id="line2d_98">
    <path clip-path="url(#pe35bde90a8)" d="M 319.906667 217.150554 
L 319.906667 220.618361 
" style="fill:none;stroke:#545454;stroke-linecap:square;stroke-width:1.5;"/>
   </g>
   <g id="line2d_99">
    <path clip-path="url(#pe35bde90a8)" d="M 319.906667 209.484017 
L 319.906667 200.545171 
" style="fill:none;stroke:#545454;stroke-linecap:square;stroke-width:1.5;"/>
   </g>
   <g id="line2d_100">
    <path clip-path="url(#pe35bde90a8)" d="M 316.969933 220.618361 
L 322.8434 220.618361 
" style="fill:none;stroke:#545454;stroke-linecap:square;stroke-width:1.5;"/>
   </g>
   <g id="line2d_101">
    <path clip-path="url(#pe35bde90a8)" d="M 316.969933 200.545171 
L 322.8434 200.545171 
" style="fill:none;stroke:#545454;stroke-linecap:square;stroke-width:1.5;"/>
   </g>
   <g id="line2d_102">
    <g clip-path="url(#pe35bde90a8)">
     <use style="fill:#545454;stroke:#545454;stroke-linejoin:miter;" x="319.906667" xlink:href="#mad455e0d39" y="194.874305"/>
     <use style="fill:#545454;stroke:#545454;stroke-linejoin:miter;" x="319.906667" xlink:href="#mad455e0d39" y="197.101719"/>
    </g>
   </g>
   <g id="line2d_103">
    <path clip-path="url(#pe35bde90a8)" d="M 331.893333 216.662264 
L 331.893333 220.171976 
" style="fill:none;stroke:#545454;stroke-linecap:square;stroke-width:1.5;"/>
   </g>
   <g id="line2d_104">
    <path clip-path="url(#pe35bde90a8)" d="M 331.893333 206.845152 
L 331.893333 202.941637 
" style="fill:none;stroke:#545454;stroke-linecap:square;stroke-width:1.5;"/>
   </g>
   <g id="line2d_105">
    <path clip-path="url(#pe35bde90a8)" d="M 328.9566 220.171976 
L 334.830067 220.171976 
" style="fill:none;stroke:#545454;stroke-linecap:square;stroke-width:1.5;"/>
   </g>
   <g id="line2d_106">
    <path clip-path="url(#pe35bde90a8)" d="M 328.9566 202.941637 
L 334.830067 202.941637 
" style="fill:none;stroke:#545454;stroke-linecap:square;stroke-width:1.5;"/>
   </g>
   <g id="line2d_107">
    <g clip-path="url(#pe35bde90a8)">
     <use style="fill:#545454;stroke:#545454;stroke-linejoin:miter;" x="331.893333" xlink:href="#mad455e0d39" y="187.632643"/>
     <use style="fill:#545454;stroke:#545454;stroke-linejoin:miter;" x="331.893333" xlink:href="#mad455e0d39" y="162.738409"/>
    </g>
   </g>
   <g id="line2d_108">
    <path clip-path="url(#pe35bde90a8)" d="M 343.88 215.704108 
L 343.88 224.152218 
" style="fill:none;stroke:#545454;stroke-linecap:square;stroke-width:1.5;"/>
   </g>
   <g id="line2d_109">
    <path clip-path="url(#pe35bde90a8)" d="M 343.88 205.820429 
L 343.88 196.55556 
" style="fill:none;stroke:#545454;stroke-linecap:square;stroke-width:1.5;"/>
   </g>
   <g id="line2d_110">
    <path clip-path="url(#pe35bde90a8)" d="M 340.943267 224.152218 
L 346.816733 224.152218 
" style="fill:none;stroke:#545454;stroke-linecap:square;stroke-width:1.5;"/>
   </g>
   <g id="line2d_111">
    <path clip-path="url(#pe35bde90a8)" d="M 340.943267 196.55556 
L 346.816733 196.55556 
" style="fill:none;stroke:#545454;stroke-linecap:square;stroke-width:1.5;"/>
   </g>
   <g id="line2d_112"/>
   <g id="line2d_113">
    <path clip-path="url(#pe35bde90a8)" d="M 367.853333 180.70485 
L 367.853333 198.186636 
" style="fill:none;stroke:#545454;stroke-linecap:square;stroke-width:1.5;"/>
   </g>
   <g id="line2d_114">
    <path clip-path="url(#pe35bde90a8)" d="M 367.853333 143.558738 
L 367.853333 119.767334 
" style="fill:none;stroke:#545454;stroke-linecap:square;stroke-width:1.5;"/>
   </g>
   <g id="line2d_115">
    <path clip-path="url(#pe35bde90a8)" d="M 364.9166 198.186636 
L 370.790067 198.186636 
" style="fill:none;stroke:#545454;stroke-linecap:square;stroke-width:1.5;"/>
   </g>
   <g id="line2d_116">
    <path clip-path="url(#pe35bde90a8)" d="M 364.9166 119.767334 
L 370.790067 119.767334 
" style="fill:none;stroke:#545454;stroke-linecap:square;stroke-width:1.5;"/>
   </g>
   <g id="line2d_117"/>
   <g id="line2d_118">
    <path clip-path="url(#pe35bde90a8)" d="M 379.84 212.431797 
L 379.84 214.525245 
" style="fill:none;stroke:#545454;stroke-linecap:square;stroke-width:1.5;"/>
   </g>
   <g id="line2d_119">
    <path clip-path="url(#pe35bde90a8)" d="M 379.84 197.55784 
L 379.84 192.085629 
" style="fill:none;stroke:#545454;stroke-linecap:square;stroke-width:1.5;"/>
   </g>
   <g id="line2d_120">
    <path clip-path="url(#pe35bde90a8)" d="M 376.903267 214.525245 
L 382.776733 214.525245 
" style="fill:none;stroke:#545454;stroke-linecap:square;stroke-width:1.5;"/>
   </g>
   <g id="line2d_121">
    <path clip-path="url(#pe35bde90a8)" d="M 376.903267 192.085629 
L 382.776733 192.085629 
" style="fill:none;stroke:#545454;stroke-linecap:square;stroke-width:1.5;"/>
   </g>
   <g id="line2d_122"/>
   <g id="line2d_123">
    <path clip-path="url(#pe35bde90a8)" d="M 391.826667 212.207428 
L 391.826667 217.409754 
" style="fill:none;stroke:#545454;stroke-linecap:square;stroke-width:1.5;"/>
   </g>
   <g id="line2d_124">
    <path clip-path="url(#pe35bde90a8)" d="M 391.826667 198.925419 
L 391.826667 188.243232 
" style="fill:none;stroke:#545454;stroke-linecap:square;stroke-width:1.5;"/>
   </g>
   <g id="line2d_125">
    <path clip-path="url(#pe35bde90a8)" d="M 388.889933 217.409754 
L 394.7634 217.409754 
" style="fill:none;stroke:#545454;stroke-linecap:square;stroke-width:1.5;"/>
   </g>
   <g id="line2d_126">
    <path clip-path="url(#pe35bde90a8)" d="M 388.889933 188.243232 
L 394.7634 188.243232 
" style="fill:none;stroke:#545454;stroke-linecap:square;stroke-width:1.5;"/>
   </g>
   <g id="line2d_127">
    <g clip-path="url(#pe35bde90a8)">
     <use style="fill:#545454;stroke:#545454;stroke-linejoin:miter;" x="391.826667" xlink:href="#mad455e0d39" y="176.503326"/>
     <use style="fill:#545454;stroke:#545454;stroke-linejoin:miter;" x="391.826667" xlink:href="#mad455e0d39" y="158.354184"/>
    </g>
   </g>
   <g id="line2d_128">
    <path clip-path="url(#pe35bde90a8)" d="M 403.813333 211.258485 
L 403.813333 220.259361 
" style="fill:none;stroke:#545454;stroke-linecap:square;stroke-width:1.5;"/>
   </g>
   <g id="line2d_129">
    <path clip-path="url(#pe35bde90a8)" d="M 403.813333 203.88583 
L 403.813333 194.34978 
" style="fill:none;stroke:#545454;stroke-linecap:square;stroke-width:1.5;"/>
   </g>
   <g id="line2d_130">
    <path clip-path="url(#pe35bde90a8)" d="M 400.8766 220.259361 
L 406.750067 220.259361 
" style="fill:none;stroke:#545454;stroke-linecap:square;stroke-width:1.5;"/>
   </g>
   <g id="line2d_131">
    <path clip-path="url(#pe35bde90a8)" d="M 400.8766 194.34978 
L 406.750067 194.34978 
" style="fill:none;stroke:#545454;stroke-linecap:square;stroke-width:1.5;"/>
   </g>
   <g id="line2d_132">
    <g clip-path="url(#pe35bde90a8)">
     <use style="fill:#545454;stroke:#545454;stroke-linejoin:miter;" x="403.813333" xlink:href="#mad455e0d39" y="224.152218"/>
     <use style="fill:#545454;stroke:#545454;stroke-linejoin:miter;" x="403.813333" xlink:href="#mad455e0d39" y="181.667358"/>
    </g>
   </g>
   <g id="line2d_133">
    <path clip-path="url(#pe35bde90a8)" d="M 62.3132 181.627953 
L 74.060133 181.627953 
" style="fill:none;stroke:#545454;stroke-linecap:square;stroke-width:1.5;"/>
   </g>
   <g id="line2d_134">
    <path clip-path="url(#pe35bde90a8)" d="M 74.299867 214.172647 
L 86.0468 214.172647 
" style="fill:none;stroke:#545454;stroke-linecap:square;stroke-width:1.5;"/>
   </g>
   <g id="line2d_135">
    <path clip-path="url(#pe35bde90a8)" d="M 86.286533 214.246666 
L 98.033467 214.246666 
" style="fill:none;stroke:#545454;stroke-linecap:square;stroke-width:1.5;"/>
   </g>
   <g id="line2d_136">
    <path clip-path="url(#pe35bde90a8)" d="M 98.2732 218.18631 
L 110.020133 218.18631 
" style="fill:none;stroke:#545454;stroke-linecap:square;stroke-width:1.5;"/>
   </g>
   <g id="line2d_137">
    <path clip-path="url(#pe35bde90a8)" d="M 122.246533 171.155218 
L 133.993467 171.155218 
" style="fill:none;stroke:#545454;stroke-linecap:square;stroke-width:1.5;"/>
   </g>
   <g id="line2d_138">
    <path clip-path="url(#pe35bde90a8)" d="M 134.2332 215.930825 
L 145.980133 215.930825 
" style="fill:none;stroke:#545454;stroke-linecap:square;stroke-width:1.5;"/>
   </g>
   <g id="line2d_139">
    <path clip-path="url(#pe35bde90a8)" d="M 146.219867 211.979704 
L 157.9668 211.979704 
" style="fill:none;stroke:#545454;stroke-linecap:square;stroke-width:1.5;"/>
   </g>
   <g id="line2d_140">
    <path clip-path="url(#pe35bde90a8)" d="M 158.206533 216.113954 
L 169.953467 216.113954 
" style="fill:none;stroke:#545454;stroke-linecap:square;stroke-width:1.5;"/>
   </g>
   <g id="line2d_141">
    <path clip-path="url(#pe35bde90a8)" d="M 182.179867 176.154817 
L 193.9268 176.154817 
" style="fill:none;stroke:#545454;stroke-linecap:square;stroke-width:1.5;"/>
   </g>
   <g id="line2d_142">
    <path clip-path="url(#pe35bde90a8)" d="M 194.166533 215.364366 
L 205.913467 215.364366 
" style="fill:none;stroke:#545454;stroke-linecap:square;stroke-width:1.5;"/>
   </g>
   <g id="line2d_143">
    <path clip-path="url(#pe35bde90a8)" d="M 206.1532 210.235389 
L 217.900133 210.235389 
" style="fill:none;stroke:#545454;stroke-linecap:square;stroke-width:1.5;"/>
   </g>
   <g id="line2d_144">
    <path clip-path="url(#pe35bde90a8)" d="M 218.139867 215.600212 
L 229.8868 215.600212 
" style="fill:none;stroke:#545454;stroke-linecap:square;stroke-width:1.5;"/>
   </g>
   <g id="line2d_145">
    <path clip-path="url(#pe35bde90a8)" d="M 242.1132 172.880065 
L 253.860133 172.880065 
" style="fill:none;stroke:#545454;stroke-linecap:square;stroke-width:1.5;"/>
   </g>
   <g id="line2d_146">
    <path clip-path="url(#pe35bde90a8)" d="M 254.099867 212.601237 
L 265.8468 212.601237 
" style="fill:none;stroke:#545454;stroke-linecap:square;stroke-width:1.5;"/>
   </g>
   <g id="line2d_147">
    <path clip-path="url(#pe35bde90a8)" d="M 266.086533 207.905653 
L 277.833467 207.905653 
" style="fill:none;stroke:#545454;stroke-linecap:square;stroke-width:1.5;"/>
   </g>
   <g id="line2d_148">
    <path clip-path="url(#pe35bde90a8)" d="M 278.0732 211.963532 
L 289.820133 211.963532 
" style="fill:none;stroke:#545454;stroke-linecap:square;stroke-width:1.5;"/>
   </g>
   <g id="line2d_149">
    <path clip-path="url(#pe35bde90a8)" d="M 302.046533 178.028691 
L 313.793467 178.028691 
" style="fill:none;stroke:#545454;stroke-linecap:square;stroke-width:1.5;"/>
   </g>
   <g id="line2d_150">
    <path clip-path="url(#pe35bde90a8)" d="M 314.0332 213.178937 
L 325.780133 213.178937 
" style="fill:none;stroke:#545454;stroke-linecap:square;stroke-width:1.5;"/>
   </g>
   <g id="line2d_151">
    <path clip-path="url(#pe35bde90a8)" d="M 326.019867 210.121432 
L 337.7668 210.121432 
" style="fill:none;stroke:#545454;stroke-linecap:square;stroke-width:1.5;"/>
   </g>
   <g id="line2d_152">
    <path clip-path="url(#pe35bde90a8)" d="M 338.006533 211.775054 
L 349.753467 211.775054 
" style="fill:none;stroke:#545454;stroke-linecap:square;stroke-width:1.5;"/>
   </g>
   <g id="line2d_153">
    <path clip-path="url(#pe35bde90a8)" d="M 361.979867 172.032246 
L 373.7268 172.032246 
" style="fill:none;stroke:#545454;stroke-linecap:square;stroke-width:1.5;"/>
   </g>
   <g id="line2d_154">
    <path clip-path="url(#pe35bde90a8)" d="M 373.966533 209.628916 
L 385.713467 209.628916 
" style="fill:none;stroke:#545454;stroke-linecap:square;stroke-width:1.5;"/>
   </g>
   <g id="line2d_155">
    <path clip-path="url(#pe35bde90a8)" d="M 385.9532 206.091692 
L 397.700133 206.091692 
" style="fill:none;stroke:#545454;stroke-linecap:square;stroke-width:1.5;"/>
   </g>
   <g id="line2d_156">
    <path clip-path="url(#pe35bde90a8)" d="M 397.939867 208.264515 
L 409.6868 208.264515 
" style="fill:none;stroke:#545454;stroke-linecap:square;stroke-width:1.5;"/>
   </g>
   <g id="patch_31">
    <path d="M 56.2 232.8 
L 56.2 42.5488 
" style="fill:none;stroke:#000000;stroke-linecap:square;stroke-linejoin:miter;stroke-width:0.8;"/>
   </g>
   <g id="patch_32">
    <path d="M 415.8 232.8 
L 415.8 42.5488 
" style="fill:none;stroke:#000000;stroke-linecap:square;stroke-linejoin:miter;stroke-width:0.8;"/>
   </g>
   <g id="patch_33">
    <path d="M 56.2 232.8 
L 415.8 232.8 
" style="fill:none;stroke:#000000;stroke-linecap:square;stroke-linejoin:miter;stroke-width:0.8;"/>
   </g>
   <g id="patch_34">
    <path d="M 56.2 42.5488 
L 415.8 42.5488 
" style="fill:none;stroke:#000000;stroke-linecap:square;stroke-linejoin:miter;stroke-width:0.8;"/>
   </g>
   <g id="legend_1">
    <g id="patch_35">
     <path d="M 58.7 38.743776 
L 413.3 38.743776 
Q 415.8 38.743776 415.8 36.243776 
L 415.8 19.79651 
Q 415.8 17.29651 413.3 17.29651 
L 58.7 17.29651 
Q 56.2 17.29651 56.2 19.79651 
L 56.2 36.243776 
Q 56.2 38.743776 58.7 38.743776 
z
" style="fill:#ffffff;opacity:0.8;stroke:#cccccc;stroke-linejoin:miter;"/>
    </g>
    <g id="patch_36">
     <path d="M 61.2 31.04651 
L 76.2 31.04651 
L 76.2 22.29651 
L 61.2 22.29651 
z
" style="fill:#597dbf;stroke:#545454;stroke-linejoin:miter;stroke-width:0.75;"/>
    </g>
    <g id="text_15">
     <!-- Snobfit -->
     <g transform="translate(86.2 31.04651)scale(0.125 -0.125)">
      <defs>
       <path d="M 45.84375 67.71875 
L 45.84375 44.828125 
L 44.046875 44.828125 
Q 43.171875 51.421875 40.890625 55.328125 
Q 38.625 59.234375 34.421875 61.515625 
Q 30.21875 63.8125 25.734375 63.8125 
Q 20.65625 63.8125 17.328125 60.71875 
Q 14.015625 57.625 14.015625 53.65625 
Q 14.015625 50.640625 16.109375 48.140625 
Q 19.140625 44.484375 30.515625 38.375 
Q 39.796875 33.40625 43.1875 30.734375 
Q 46.578125 28.078125 48.40625 24.453125 
Q 50.25 20.84375 50.25 16.890625 
Q 50.25 9.375 44.40625 3.921875 
Q 38.578125 -1.515625 29.390625 -1.515625 
Q 26.515625 -1.515625 23.96875 -1.078125 
Q 22.46875 -0.828125 17.703125 0.703125 
Q 12.9375 2.25 11.671875 2.25 
Q 10.453125 2.25 9.734375 1.515625 
Q 9.03125 0.78125 8.6875 -1.515625 
L 6.890625 -1.515625 
L 6.890625 21.1875 
L 8.6875 21.1875 
Q 9.96875 14.0625 12.109375 10.515625 
Q 14.265625 6.984375 18.671875 4.640625 
Q 23.09375 2.296875 28.375 2.296875 
Q 34.46875 2.296875 38 5.515625 
Q 41.546875 8.734375 41.546875 13.140625 
Q 41.546875 15.578125 40.203125 18.0625 
Q 38.875 20.5625 36.03125 22.703125 
Q 34.125 24.171875 25.625 28.921875 
Q 17.140625 33.6875 13.546875 36.515625 
Q 9.96875 39.359375 8.109375 42.765625 
Q 6.25 46.1875 6.25 50.296875 
Q 6.25 57.421875 11.71875 62.5625 
Q 17.1875 67.71875 25.640625 67.71875 
Q 30.90625 67.71875 36.8125 65.140625 
Q 39.546875 63.921875 40.671875 63.921875 
Q 41.9375 63.921875 42.75 64.671875 
Q 43.5625 65.4375 44.046875 67.71875 
z
" id="TimesNewRomanPSMT-83"/>
       <path d="M 15.375 37.015625 
Q 21.875 46.046875 29.390625 46.046875 
Q 36.28125 46.046875 41.40625 40.15625 
Q 46.53125 34.28125 46.53125 24.078125 
Q 46.53125 12.15625 38.625 4.890625 
Q 31.84375 -1.375 23.484375 -1.375 
Q 19.578125 -1.375 15.546875 0.046875 
Q 11.53125 1.46875 7.328125 4.296875 
L 7.328125 50.640625 
Q 7.328125 58.25 6.953125 60 
Q 6.59375 61.765625 5.8125 62.390625 
Q 5.03125 63.03125 3.859375 63.03125 
Q 2.484375 63.03125 0.4375 62.25 
L -0.25 63.96875 
L 13.1875 69.4375 
L 15.375 69.4375 
z
M 15.375 33.890625 
L 15.375 7.125 
Q 17.875 4.6875 20.53125 3.4375 
Q 23.1875 2.203125 25.984375 2.203125 
Q 30.421875 2.203125 34.25 7.078125 
Q 38.09375 11.96875 38.09375 21.296875 
Q 38.09375 29.890625 34.25 34.5 
Q 30.421875 39.109375 25.53125 39.109375 
Q 22.953125 39.109375 20.359375 37.796875 
Q 18.40625 36.8125 15.375 33.890625 
z
" id="TimesNewRomanPSMT-98"/>
       <path d="M 20.609375 41.21875 
L 20.609375 11.8125 
Q 20.609375 5.5625 21.96875 3.90625 
Q 23.78125 1.765625 26.8125 1.765625 
L 30.859375 1.765625 
L 30.859375 0 
L 4.15625 0 
L 4.15625 1.765625 
L 6.15625 1.765625 
Q 8.109375 1.765625 9.71875 2.734375 
Q 11.328125 3.71875 11.9375 5.375 
Q 12.546875 7.03125 12.546875 11.8125 
L 12.546875 41.21875 
L 3.859375 41.21875 
L 3.859375 44.734375 
L 12.546875 44.734375 
L 12.546875 47.65625 
Q 12.546875 54.34375 14.6875 58.984375 
Q 16.84375 63.625 21.265625 66.484375 
Q 25.6875 69.34375 31.203125 69.34375 
Q 36.328125 69.34375 40.625 66.015625 
Q 43.453125 63.8125 43.453125 61.078125 
Q 43.453125 59.625 42.1875 58.328125 
Q 40.921875 57.03125 39.453125 57.03125 
Q 38.328125 57.03125 37.078125 57.828125 
Q 35.84375 58.640625 34.03125 61.296875 
Q 32.234375 63.96875 30.71875 64.890625 
Q 29.203125 65.828125 27.34375 65.828125 
Q 25.09375 65.828125 23.53125 64.625 
Q 21.96875 63.421875 21.28125 60.90625 
Q 20.609375 58.40625 20.609375 47.953125 
L 20.609375 44.734375 
L 32.125 44.734375 
L 32.125 41.21875 
z
" id="TimesNewRomanPSMT-102"/>
      </defs>
      <use xlink:href="#TimesNewRomanPSMT-83"/>
      <use x="55.615234" xlink:href="#TimesNewRomanPSMT-110"/>
      <use x="105.615234" xlink:href="#TimesNewRomanPSMT-111"/>
      <use x="155.615234" xlink:href="#TimesNewRomanPSMT-98"/>
      <use x="205.615234" xlink:href="#TimesNewRomanPSMT-102"/>
      <use x="238.916016" xlink:href="#TimesNewRomanPSMT-105"/>
      <use x="266.699219" xlink:href="#TimesNewRomanPSMT-116"/>
     </g>
    </g>
    <g id="patch_37">
     <path d="M 133.638281 31.04651 
L 148.638281 31.04651 
L 148.638281 22.29651 
L 133.638281 22.29651 
z
" style="fill:#d98b5f;stroke:#545454;stroke-linejoin:miter;stroke-width:0.75;"/>
    </g>
    <g id="text_16">
     <!-- CUATRO_l -->
     <g transform="translate(158.638281 31.04651)scale(0.125 -0.125)">
      <defs>
       <path d="M 60.203125 67.71875 
L 61.71875 45.21875 
L 60.203125 45.21875 
Q 57.171875 55.328125 51.5625 59.765625 
Q 45.953125 64.203125 38.09375 64.203125 
Q 31.5 64.203125 26.171875 60.859375 
Q 20.84375 57.515625 17.796875 50.1875 
Q 14.75 42.875 14.75 31.984375 
Q 14.75 23 17.625 16.40625 
Q 20.515625 9.8125 26.296875 6.296875 
Q 32.078125 2.78125 39.5 2.78125 
Q 45.953125 2.78125 50.875 5.53125 
Q 55.8125 8.296875 61.71875 16.5 
L 63.234375 15.53125 
Q 58.25 6.6875 51.609375 2.578125 
Q 44.96875 -1.515625 35.84375 -1.515625 
Q 19.390625 -1.515625 10.359375 10.6875 
Q 3.609375 19.78125 3.609375 32.078125 
Q 3.609375 42 8.046875 50.296875 
Q 12.5 58.59375 20.28125 63.15625 
Q 28.078125 67.71875 37.3125 67.71875 
Q 44.484375 67.71875 51.46875 64.203125 
Q 53.515625 63.140625 54.390625 63.140625 
Q 55.71875 63.140625 56.6875 64.0625 
Q 57.953125 65.375 58.5 67.71875 
z
" id="TimesNewRomanPSMT-67"/>
       <path d="M 47.703125 64.40625 
L 47.703125 66.21875 
L 71.140625 66.21875 
L 71.140625 64.40625 
L 68.65625 64.40625 
Q 64.75 64.40625 62.640625 61.140625 
Q 61.625 59.625 61.625 54.109375 
L 61.625 27.25 
Q 61.625 17.28125 59.640625 11.78125 
Q 57.671875 6.296875 51.875 2.359375 
Q 46.09375 -1.5625 36.140625 -1.5625 
Q 25.296875 -1.5625 19.671875 2.1875 
Q 14.0625 5.953125 11.71875 12.3125 
Q 10.15625 16.65625 10.15625 28.609375 
L 10.15625 54.5 
Q 10.15625 60.59375 8.46875 62.5 
Q 6.78125 64.40625 3.03125 64.40625 
L 0.53125 64.40625 
L 0.53125 66.21875 
L 29.15625 66.21875 
L 29.15625 64.40625 
L 26.609375 64.40625 
Q 22.515625 64.40625 20.75 61.8125 
Q 19.53125 60.0625 19.53125 54.5 
L 19.53125 25.640625 
Q 19.53125 21.78125 20.234375 16.796875 
Q 20.953125 11.8125 22.796875 9.03125 
Q 24.65625 6.25 28.140625 4.4375 
Q 31.640625 2.640625 36.71875 2.640625 
Q 43.21875 2.640625 48.34375 5.46875 
Q 53.46875 8.296875 55.34375 12.71875 
Q 57.234375 17.140625 57.234375 27.6875 
L 57.234375 54.5 
Q 57.234375 60.6875 55.859375 62.25 
Q 53.953125 64.40625 50.203125 64.40625 
z
" id="TimesNewRomanPSMT-85"/>
       <path d="M 45.75 22.171875 
L 20.125 22.171875 
L 15.625 11.71875 
Q 13.96875 7.859375 13.96875 5.953125 
Q 13.96875 4.4375 15.40625 3.296875 
Q 16.84375 2.15625 21.625 1.8125 
L 21.625 0 
L 0.78125 0 
L 0.78125 1.8125 
Q 4.9375 2.546875 6.15625 3.71875 
Q 8.640625 6.0625 11.671875 13.234375 
L 34.96875 67.71875 
L 36.671875 67.71875 
L 59.71875 12.640625 
Q 62.5 6 64.765625 4.015625 
Q 67.046875 2.046875 71.09375 1.8125 
L 71.09375 0 
L 44.96875 0 
L 44.96875 1.8125 
Q 48.921875 2 50.3125 3.125 
Q 51.703125 4.25 51.703125 5.859375 
Q 51.703125 8.015625 49.75 12.640625 
z
M 44.390625 25.78125 
L 33.15625 52.546875 
L 21.625 25.78125 
z
" id="TimesNewRomanPSMT-65"/>
       <path d="M 57.859375 66.21875 
L 58.59375 50.6875 
L 56.734375 50.6875 
Q 56.203125 54.78125 55.28125 56.546875 
Q 53.765625 59.375 51.25 60.71875 
Q 48.734375 62.0625 44.625 62.0625 
L 35.296875 62.0625 
L 35.296875 11.46875 
Q 35.296875 5.375 36.625 3.859375 
Q 38.484375 1.8125 42.328125 1.8125 
L 44.625 1.8125 
L 44.625 0 
L 16.546875 0 
L 16.546875 1.8125 
L 18.890625 1.8125 
Q 23.09375 1.8125 24.859375 4.34375 
Q 25.921875 5.90625 25.921875 11.46875 
L 25.921875 62.0625 
L 17.96875 62.0625 
Q 13.328125 62.0625 11.375 61.375 
Q 8.84375 60.453125 7.03125 57.8125 
Q 5.21875 55.171875 4.890625 50.6875 
L 3.03125 50.6875 
L 3.8125 66.21875 
z
" id="TimesNewRomanPSMT-84"/>
       <path d="M 67.578125 0 
L 49.90625 0 
L 27.484375 30.953125 
Q 25 30.859375 23.4375 30.859375 
Q 22.796875 30.859375 22.0625 30.875 
Q 21.34375 30.90625 20.5625 30.953125 
L 20.5625 11.71875 
Q 20.5625 5.46875 21.921875 3.953125 
Q 23.78125 1.8125 27.484375 1.8125 
L 30.078125 1.8125 
L 30.078125 0 
L 1.703125 0 
L 1.703125 1.8125 
L 4.203125 1.8125 
Q 8.40625 1.8125 10.203125 4.546875 
Q 11.234375 6.0625 11.234375 11.71875 
L 11.234375 54.5 
Q 11.234375 60.75 9.859375 62.25 
Q 7.953125 64.40625 4.203125 64.40625 
L 1.703125 64.40625 
L 1.703125 66.21875 
L 25.828125 66.21875 
Q 36.375 66.21875 41.375 64.671875 
Q 46.390625 63.140625 49.875 59.015625 
Q 53.375 54.890625 53.375 49.171875 
Q 53.375 43.0625 49.390625 38.5625 
Q 45.40625 34.078125 37.0625 32.234375 
L 50.734375 13.234375 
Q 55.421875 6.6875 58.78125 4.53125 
Q 62.15625 2.390625 67.578125 1.8125 
z
M 20.5625 34.03125 
Q 21.484375 34.03125 22.171875 34 
Q 22.859375 33.984375 23.296875 33.984375 
Q 32.765625 33.984375 37.578125 38.078125 
Q 42.390625 42.1875 42.390625 48.53125 
Q 42.390625 54.734375 38.5 58.609375 
Q 34.625 62.5 28.21875 62.5 
Q 25.390625 62.5 20.5625 61.578125 
z
" id="TimesNewRomanPSMT-82"/>
       <path d="M 36.578125 67.71875 
Q 49.46875 67.71875 58.90625 57.921875 
Q 68.359375 48.140625 68.359375 33.5 
Q 68.359375 18.40625 58.828125 8.4375 
Q 49.3125 -1.515625 35.796875 -1.515625 
Q 22.125 -1.515625 12.8125 8.203125 
Q 3.515625 17.921875 3.515625 33.34375 
Q 3.515625 49.125 14.265625 59.078125 
Q 23.578125 67.71875 36.578125 67.71875 
z
M 35.640625 64.15625 
Q 26.765625 64.15625 21.390625 57.5625 
Q 14.703125 49.359375 14.703125 33.546875 
Q 14.703125 17.328125 21.625 8.59375 
Q 26.953125 1.953125 35.6875 1.953125 
Q 45.015625 1.953125 51.09375 9.21875 
Q 57.171875 16.5 57.171875 32.171875 
Q 57.171875 49.171875 50.484375 57.515625 
Q 45.125 64.15625 35.640625 64.15625 
z
" id="TimesNewRomanPSMT-79"/>
       <path d="M 50.875 -21.578125 
L -0.828125 -21.578125 
L -0.828125 -17.484375 
L 50.875 -17.484375 
z
" id="TimesNewRomanPSMT-95"/>
       <path d="M 18.5 69.4375 
L 18.5 10.109375 
Q 18.5 5.90625 19.109375 4.53125 
Q 19.734375 3.171875 21 2.46875 
Q 22.265625 1.765625 25.734375 1.765625 
L 25.734375 0 
L 3.8125 0 
L 3.8125 1.765625 
Q 6.890625 1.765625 8 2.390625 
Q 9.125 3.03125 9.765625 4.484375 
Q 10.40625 5.953125 10.40625 10.109375 
L 10.40625 50.734375 
Q 10.40625 58.296875 10.0625 60.03125 
Q 9.71875 61.765625 8.953125 62.390625 
Q 8.203125 63.03125 7.03125 63.03125 
Q 5.765625 63.03125 3.8125 62.25 
L 2.984375 63.96875 
L 16.3125 69.4375 
z
" id="TimesNewRomanPSMT-108"/>
      </defs>
      <use xlink:href="#TimesNewRomanPSMT-67"/>
      <use x="66.699219" xlink:href="#TimesNewRomanPSMT-85"/>
      <use x="138.916016" xlink:href="#TimesNewRomanPSMT-65"/>
      <use x="200.007812" xlink:href="#TimesNewRomanPSMT-84"/>
      <use x="261.091797" xlink:href="#TimesNewRomanPSMT-82"/>
      <use x="327.791016" xlink:href="#TimesNewRomanPSMT-79"/>
      <use x="400.007812" xlink:href="#TimesNewRomanPSMT-95"/>
      <use x="450.007812" xlink:href="#TimesNewRomanPSMT-108"/>
     </g>
    </g>
    <g id="patch_38">
     <path d="M 228.992578 31.04651 
L 243.992578 31.04651 
L 243.992578 22.29651 
L 228.992578 22.29651 
z
" style="fill:#75bf71;stroke:#545454;stroke-linejoin:miter;stroke-width:0.75;"/>
    </g>
    <g id="text_17">
     <!-- CUATRO_g -->
     <g transform="translate(253.992578 31.04651)scale(0.125 -0.125)">
      <defs>
       <path d="M 15.09375 16.3125 
Q 10.984375 18.3125 8.78125 21.890625 
Q 6.59375 25.484375 6.59375 29.828125 
Q 6.59375 36.46875 11.59375 41.25 
Q 16.609375 46.046875 24.421875 46.046875 
Q 30.8125 46.046875 35.5 42.921875 
L 44.96875 42.921875 
Q 47.078125 42.921875 47.40625 42.796875 
Q 47.75 42.671875 47.90625 42.390625 
Q 48.1875 41.9375 48.1875 40.828125 
Q 48.1875 39.546875 47.953125 39.0625 
Q 47.796875 38.8125 47.4375 38.671875 
Q 47.078125 38.53125 44.96875 38.53125 
L 39.15625 38.53125 
Q 41.890625 35.015625 41.890625 29.546875 
Q 41.890625 23.296875 37.109375 18.84375 
Q 32.328125 14.40625 24.265625 14.40625 
Q 20.953125 14.40625 17.484375 15.375 
Q 15.328125 13.53125 14.5625 12.140625 
Q 13.8125 10.75 13.8125 9.765625 
Q 13.8125 8.9375 14.625 8.15625 
Q 15.4375 7.375 17.78125 7.03125 
Q 19.140625 6.84375 24.609375 6.6875 
Q 34.671875 6.453125 37.640625 6 
Q 42.1875 5.375 44.890625 2.640625 
Q 47.609375 -0.09375 47.609375 -4.109375 
Q 47.609375 -9.625 42.4375 -14.453125 
Q 34.8125 -21.578125 22.5625 -21.578125 
Q 13.140625 -21.578125 6.640625 -17.328125 
Q 2.984375 -14.890625 2.984375 -12.25 
Q 2.984375 -11.078125 3.515625 -9.90625 
Q 4.34375 -8.109375 6.9375 -4.890625 
Q 7.28125 -4.4375 11.921875 0.390625 
Q 9.375 1.90625 8.328125 3.09375 
Q 7.28125 4.296875 7.28125 5.8125 
Q 7.28125 7.515625 8.671875 9.8125 
Q 10.0625 12.109375 15.09375 16.3125 
z
M 23.578125 43.703125 
Q 19.96875 43.703125 17.53125 40.8125 
Q 15.09375 37.9375 15.09375 31.984375 
Q 15.09375 24.265625 18.40625 20.015625 
Q 20.953125 16.796875 24.859375 16.796875 
Q 28.5625 16.796875 30.953125 19.578125 
Q 33.34375 22.359375 33.34375 28.328125 
Q 33.34375 36.078125 29.984375 40.484375 
Q 27.484375 43.703125 23.578125 43.703125 
z
M 14.59375 0 
Q 12.3125 -2.484375 11.140625 -4.625 
Q 9.96875 -6.78125 9.96875 -8.59375 
Q 9.96875 -10.9375 12.796875 -12.703125 
Q 17.671875 -15.71875 26.90625 -15.71875 
Q 35.6875 -15.71875 39.859375 -12.609375 
Q 44.046875 -9.515625 44.046875 -6 
Q 44.046875 -3.46875 41.546875 -2.390625 
Q 39.015625 -1.3125 31.5 -1.125 
Q 20.515625 -0.828125 14.59375 0 
z
" id="TimesNewRomanPSMT-103"/>
      </defs>
      <use xlink:href="#TimesNewRomanPSMT-67"/>
      <use x="66.699219" xlink:href="#TimesNewRomanPSMT-85"/>
      <use x="138.916016" xlink:href="#TimesNewRomanPSMT-65"/>
      <use x="200.007812" xlink:href="#TimesNewRomanPSMT-84"/>
      <use x="261.091797" xlink:href="#TimesNewRomanPSMT-82"/>
      <use x="327.791016" xlink:href="#TimesNewRomanPSMT-79"/>
      <use x="400.007812" xlink:href="#TimesNewRomanPSMT-95"/>
      <use x="450.007812" xlink:href="#TimesNewRomanPSMT-103"/>
     </g>
    </g>
    <g id="patch_39">
     <path d="M 327.124219 31.04651 
L 342.124219 31.04651 
L 342.124219 22.29651 
L 327.124219 22.29651 
z
" style="fill:#c76e6e;stroke:#545454;stroke-linejoin:miter;stroke-width:0.75;"/>
    </g>
    <g id="text_18">
     <!-- Bayes. Opt. -->
     <g transform="translate(352.124219 31.04651)scale(0.125 -0.125)">
      <defs>
       <path d="M 46.1875 33.796875 
Q 53.078125 32.328125 56.5 29.109375 
Q 61.234375 24.609375 61.234375 18.109375 
Q 61.234375 13.1875 58.109375 8.671875 
Q 54.984375 4.15625 49.53125 2.078125 
Q 44.09375 0 32.90625 0 
L 1.65625 0 
L 1.65625 1.8125 
L 4.15625 1.8125 
Q 8.296875 1.8125 10.109375 4.4375 
Q 11.234375 6.15625 11.234375 11.71875 
L 11.234375 54.5 
Q 11.234375 60.640625 9.8125 62.25 
Q 7.90625 64.40625 4.15625 64.40625 
L 1.65625 64.40625 
L 1.65625 66.21875 
L 30.28125 66.21875 
Q 38.28125 66.21875 43.109375 65.046875 
Q 50.4375 63.28125 54.296875 58.8125 
Q 58.15625 54.34375 58.15625 48.53125 
Q 58.15625 43.5625 55.125 39.625 
Q 52.09375 35.6875 46.1875 33.796875 
z
M 20.609375 36.421875 
Q 22.40625 36.078125 24.71875 35.90625 
Q 27.046875 35.75 29.828125 35.75 
Q 36.96875 35.75 40.546875 37.28125 
Q 44.140625 38.8125 46.046875 41.984375 
Q 47.953125 45.171875 47.953125 48.921875 
Q 47.953125 54.734375 43.21875 58.828125 
Q 38.484375 62.9375 29.390625 62.9375 
Q 24.515625 62.9375 20.609375 61.859375 
z
M 20.609375 4.78125 
Q 26.265625 3.46875 31.78125 3.46875 
Q 40.625 3.46875 45.265625 7.4375 
Q 49.90625 11.421875 49.90625 17.28125 
Q 49.90625 21.140625 47.796875 24.703125 
Q 45.703125 28.265625 40.96875 30.3125 
Q 36.234375 32.375 29.25 32.375 
Q 26.21875 32.375 24.0625 32.265625 
Q 21.921875 32.171875 20.609375 31.9375 
z
" id="TimesNewRomanPSMT-66"/>
       <path d="M 0.59375 44.734375 
L 21.4375 44.734375 
L 21.4375 42.921875 
L 20.40625 42.921875 
Q 18.21875 42.921875 17.109375 41.96875 
Q 16.015625 41.015625 16.015625 39.59375 
Q 16.015625 37.703125 17.625 34.328125 
L 28.515625 11.765625 
L 38.53125 36.46875 
Q 39.359375 38.484375 39.359375 40.4375 
Q 39.359375 41.3125 39.015625 41.75 
Q 38.625 42.28125 37.796875 42.59375 
Q 36.96875 42.921875 34.859375 42.921875 
L 34.859375 44.734375 
L 49.421875 44.734375 
L 49.421875 42.921875 
Q 47.609375 42.71875 46.625 42.125 
Q 45.65625 41.546875 44.484375 39.9375 
Q 44.046875 39.265625 42.828125 36.1875 
L 24.609375 -8.453125 
Q 21.96875 -14.9375 17.6875 -18.25 
Q 13.421875 -21.578125 9.46875 -21.578125 
Q 6.59375 -21.578125 4.734375 -19.921875 
Q 2.875 -18.265625 2.875 -16.109375 
Q 2.875 -14.0625 4.21875 -12.8125 
Q 5.5625 -11.578125 7.90625 -11.578125 
Q 9.515625 -11.578125 12.3125 -12.640625 
Q 14.265625 -13.375 14.75 -13.375 
Q 16.21875 -13.375 17.9375 -11.859375 
Q 19.671875 -10.359375 21.4375 -6 
L 24.609375 1.765625 
L 8.546875 35.5 
Q 7.8125 37.015625 6.203125 39.265625 
Q 4.984375 40.96875 4.203125 41.546875 
Q 3.078125 42.328125 0.59375 42.921875 
z
" id="TimesNewRomanPSMT-121"/>
       <path d="M -0.09375 40.28125 
L 13.671875 45.84375 
L 15.53125 45.84375 
L 15.53125 35.40625 
Q 19 41.3125 22.484375 43.671875 
Q 25.984375 46.046875 29.828125 46.046875 
Q 36.578125 46.046875 41.0625 40.765625 
Q 46.578125 34.328125 46.578125 23.96875 
Q 46.578125 12.40625 39.9375 4.828125 
Q 34.46875 -1.375 26.171875 -1.375 
Q 22.5625 -1.375 19.921875 -0.34375 
Q 17.96875 0.390625 15.53125 2.59375 
L 15.53125 -11.03125 
Q 15.53125 -15.625 16.09375 -16.859375 
Q 16.65625 -18.109375 18.046875 -18.84375 
Q 19.4375 -19.578125 23.09375 -19.578125 
L 23.09375 -21.390625 
L -0.34375 -21.390625 
L -0.34375 -19.578125 
L 0.875 -19.578125 
Q 3.5625 -19.625 5.46875 -18.5625 
Q 6.390625 -18.015625 6.90625 -16.8125 
Q 7.421875 -15.625 7.421875 -10.75 
L 7.421875 31.546875 
Q 7.421875 35.890625 7.03125 37.0625 
Q 6.640625 38.234375 5.78125 38.8125 
Q 4.9375 39.40625 3.46875 39.40625 
Q 2.296875 39.40625 0.484375 38.71875 
z
M 15.53125 32.515625 
L 15.53125 15.828125 
Q 15.53125 10.40625 15.96875 8.6875 
Q 16.65625 5.859375 19.3125 3.703125 
Q 21.96875 1.5625 26.03125 1.5625 
Q 30.90625 1.5625 33.9375 5.375 
Q 37.890625 10.359375 37.890625 19.390625 
Q 37.890625 29.640625 33.40625 35.15625 
Q 30.28125 38.96875 25.984375 38.96875 
Q 23.640625 38.96875 21.34375 37.796875 
Q 19.578125 36.921875 15.53125 32.515625 
z
" id="TimesNewRomanPSMT-112"/>
      </defs>
      <use xlink:href="#TimesNewRomanPSMT-66"/>
      <use x="66.699219" xlink:href="#TimesNewRomanPSMT-97"/>
      <use x="111.083984" xlink:href="#TimesNewRomanPSMT-121"/>
      <use x="161.083984" xlink:href="#TimesNewRomanPSMT-101"/>
      <use x="205.46875" xlink:href="#TimesNewRomanPSMT-115"/>
      <use x="244.384766" xlink:href="#TimesNewRomanPSMT-46"/>
      <use x="269.384766" xlink:href="#TimesNewRomanPSMT-32"/>
      <use x="294.384766" xlink:href="#TimesNewRomanPSMT-79"/>
      <use x="366.601562" xlink:href="#TimesNewRomanPSMT-112"/>
      <use x="416.601562" xlink:href="#TimesNewRomanPSMT-116"/>
      <use x="444.384766" xlink:href="#TimesNewRomanPSMT-46"/>
     </g>
    </g>
   </g>
  </g>
 </g>
 <defs>
  <clipPath id="pe35bde90a8">
   <rect height="190.2512" width="359.6" x="56.2" y="42.5488"/>
  </clipPath>
 </defs>
</svg>
