<?xml version="1.0" encoding="utf-8" standalone="no"?>
<!DOCTYPE svg PUBLIC "-//W3C//DTD SVG 1.1//EN"
  "http://www.w3.org/Graphics/SVG/1.1/DTD/svg11.dtd">
<!-- Created with matplotlib (https://matplotlib.org/) -->
<svg height="288pt" version="1.1" viewBox="0 0 432 288" width="432pt" xmlns="http://www.w3.org/2000/svg" xmlns:xlink="http://www.w3.org/1999/xlink">
 <metadata>
  <rdf:RDF xmlns:cc="http://creativecommons.org/ns#" xmlns:dc="http://purl.org/dc/elements/1.1/" xmlns:rdf="http://www.w3.org/1999/02/22-rdf-syntax-ns#">
   <cc:Work>
    <dc:type rdf:resource="http://purl.org/dc/dcmitype/StillImage"/>
    <dc:date>2021-04-26T19:16:43.826921</dc:date>
    <dc:format>image/svg+xml</dc:format>
    <dc:creator>
     <cc:Agent>
      <dc:title>Matplotlib v3.3.4, https://matplotlib.org/</dc:title>
     </cc:Agent>
    </dc:creator>
   </cc:Work>
  </rdf:RDF>
 </metadata>
 <defs>
  <style type="text/css">*{stroke-linecap:butt;stroke-linejoin:round;}</style>
 </defs>
 <g id="figure_1">
  <g id="patch_1">
   <path d="M 0 288 
L 432 288 
L 432 0 
L 0 0 
z
" style="fill:#ffffff;"/>
  </g>
  <g id="axes_1">
   <g id="patch_2">
    <path d="M 54 252 
L 388.8 252 
L 388.8 34.56 
L 54 34.56 
z
" style="fill:#ffffff;"/>
   </g>
   <g id="PolyCollection_1">
    <defs>
     <path d="M 54 -240.780705 
L 54 -240.572366 
L 57.381818 -240.572366 
L 57.381818 -240.572366 
L 60.763636 -240.572366 
L 60.763636 -240.572366 
L 64.145455 -240.572366 
L 64.145455 -240.572366 
L 67.527273 -240.572366 
L 67.527273 -240.572366 
L 70.909091 -240.572366 
L 70.909091 -237.54648 
L 74.290909 -237.54648 
L 74.290909 -237.54648 
L 77.672727 -237.54648 
L 77.672727 -237.54648 
L 81.054545 -237.54648 
L 81.054545 -234.169755 
L 84.436364 -234.169755 
L 84.436364 -234.169755 
L 87.818182 -234.169755 
L 87.818182 -234.169755 
L 91.2 -234.169755 
L 91.2 -230.367053 
L 94.581818 -230.367053 
L 94.581818 -230.367053 
L 97.963636 -230.367053 
L 97.963636 -230.367053 
L 101.345455 -230.367053 
L 101.345455 -228.201885 
L 104.727273 -228.201885 
L 104.727273 -228.201885 
L 108.109091 -228.201885 
L 108.109091 -228.201885 
L 111.490909 -228.201885 
L 111.490909 -227.637729 
L 114.872727 -227.637729 
L 114.872727 -227.637729 
L 118.254545 -227.637729 
L 118.254545 -227.637729 
L 121.636364 -227.637729 
L 121.636364 -222.099413 
L 125.018182 -222.099413 
L 125.018182 -222.099413 
L 128.4 -222.099413 
L 128.4 -222.099413 
L 131.781818 -222.099413 
L 131.781818 -221.921932 
L 135.163636 -221.921932 
L 135.163636 -221.921932 
L 138.545455 -221.921932 
L 138.545455 -221.921932 
L 141.927273 -221.921932 
L 141.927273 -221.913018 
L 145.309091 -221.913018 
L 145.309091 -221.913018 
L 148.690909 -221.913018 
L 148.690909 -221.913018 
L 152.072727 -221.913018 
L 152.072727 -221.851725 
L 155.454545 -221.851725 
L 155.454545 -221.851725 
L 158.836364 -221.851725 
L 158.836364 -221.851725 
L 162.218182 -221.851725 
L 162.218182 -221.60033 
L 165.6 -221.60033 
L 165.6 -221.60033 
L 168.981818 -221.60033 
L 168.981818 -221.60033 
L 172.363636 -221.60033 
L 172.363636 -221.442209 
L 175.745455 -221.442209 
L 175.745455 -221.442209 
L 179.127273 -221.442209 
L 179.127273 -221.442209 
L 182.509091 -221.442209 
L 182.509091 -219.789268 
L 185.890909 -219.789268 
L 185.890909 -219.789268 
L 189.272727 -219.789268 
L 189.272727 -219.789268 
L 192.654545 -219.789268 
L 192.654545 -215.060593 
L 196.036364 -215.060593 
L 196.036364 -215.060593 
L 199.418182 -215.060593 
L 199.418182 -215.060593 
L 202.8 -215.060593 
L 202.8 -214.906116 
L 206.181818 -214.906116 
L 206.181818 -214.906116 
L 209.563636 -214.906116 
L 209.563636 -214.906116 
L 212.945455 -214.906116 
L 212.945455 -213.220334 
L 216.327273 -213.220334 
L 216.327273 -213.220334 
L 219.709091 -213.220334 
L 219.709091 -213.220334 
L 223.090909 -213.220334 
L 223.090909 -213.14377 
L 226.472727 -213.14377 
L 226.472727 -213.14377 
L 229.854545 -213.14377 
L 229.854545 -213.14377 
L 233.236364 -213.14377 
L 233.236364 -212.741981 
L 236.618182 -212.741981 
L 236.618182 -212.741981 
L 240 -212.741981 
L 240 -212.741981 
L 243.381818 -212.741981 
L 243.381818 -212.529452 
L 246.763636 -212.529452 
L 246.763636 -212.529452 
L 250.145455 -212.529452 
L 250.145455 -212.529452 
L 253.527273 -212.529452 
L 253.527273 -211.449789 
L 256.909091 -211.449789 
L 256.909091 -211.449789 
L 260.290909 -211.449789 
L 260.290909 -211.449789 
L 263.672727 -211.449789 
L 263.672727 -211.26746 
L 267.054545 -211.26746 
L 267.054545 -211.26746 
L 270.436364 -211.26746 
L 270.436364 -211.26746 
L 273.818182 -211.26746 
L 273.818182 -209.664105 
L 277.2 -209.664105 
L 277.2 -209.664105 
L 280.581818 -209.664105 
L 280.581818 -209.664105 
L 283.963636 -209.664105 
L 283.963636 -207.040494 
L 287.345455 -207.040494 
L 287.345455 -207.040494 
L 290.727273 -207.040494 
L 290.727273 -207.040494 
L 294.109091 -207.040494 
L 294.109091 -206.739692 
L 297.490909 -206.739692 
L 297.490909 -206.739692 
L 300.872727 -206.739692 
L 300.872727 -206.739692 
L 304.254545 -206.739692 
L 304.254545 -205.027498 
L 307.636364 -205.027498 
L 307.636364 -205.027498 
L 311.018182 -205.027498 
L 311.018182 -205.027498 
L 314.4 -205.027498 
L 314.4 -202.637731 
L 317.781818 -202.637731 
L 317.781818 -202.637731 
L 321.163636 -202.637731 
L 321.163636 -202.637731 
L 324.545455 -202.637731 
L 324.545455 -200.186514 
L 327.927273 -200.186514 
L 327.927273 -200.186514 
L 331.309091 -200.186514 
L 331.309091 -200.186514 
L 334.690909 -200.186514 
L 334.690909 -199.983013 
L 338.072727 -199.983013 
L 338.072727 -199.983013 
L 341.454545 -199.983013 
L 341.454545 -199.983013 
L 344.836364 -199.983013 
L 344.836364 -198.070478 
L 348.218182 -198.070478 
L 348.218182 -198.070478 
L 351.6 -198.070478 
L 351.6 -198.070478 
L 354.981818 -198.070478 
L 354.981818 -197.751921 
L 358.363636 -197.751921 
L 358.363636 -197.751921 
L 361.745455 -197.751921 
L 361.745455 -197.751921 
L 365.127273 -197.751921 
L 365.127273 -197.726267 
L 368.509091 -197.726267 
L 368.509091 -197.726267 
L 371.890909 -197.726267 
L 371.890909 -197.726267 
L 375.272727 -197.726267 
L 375.272727 -197.678002 
L 378.654545 -197.678002 
L 378.654545 -197.678002 
L 382.036364 -197.678002 
L 382.036364 -197.678002 
L 385.418182 -197.678002 
L 385.418182 -195.065436 
L 388.8 -195.065436 
L 388.8 -195.065436 
L 388.8 -216.400585 
L 388.8 -216.400585 
L 388.8 -216.400585 
L 385.418182 -216.400585 
L 385.418182 -216.470795 
L 382.036364 -216.470795 
L 382.036364 -216.470795 
L 378.654545 -216.470795 
L 378.654545 -216.470795 
L 375.272727 -216.470795 
L 375.272727 -216.780608 
L 371.890909 -216.780608 
L 371.890909 -216.780608 
L 368.509091 -216.780608 
L 368.509091 -216.780608 
L 365.127273 -216.780608 
L 365.127273 -217.106533 
L 361.745455 -217.106533 
L 361.745455 -217.106533 
L 358.363636 -217.106533 
L 358.363636 -217.106533 
L 354.981818 -217.106533 
L 354.981818 -217.366569 
L 351.6 -217.366569 
L 351.6 -217.366569 
L 348.218182 -217.366569 
L 348.218182 -217.366569 
L 344.836364 -217.366569 
L 344.836364 -217.708119 
L 341.454545 -217.708119 
L 341.454545 -217.708119 
L 338.072727 -217.708119 
L 338.072727 -217.708119 
L 334.690909 -217.708119 
L 334.690909 -219.152361 
L 331.309091 -219.152361 
L 331.309091 -219.152361 
L 327.927273 -219.152361 
L 327.927273 -219.152361 
L 324.545455 -219.152361 
L 324.545455 -221.050147 
L 321.163636 -221.050147 
L 321.163636 -221.050147 
L 317.781818 -221.050147 
L 317.781818 -221.050147 
L 314.4 -221.050147 
L 314.4 -221.279086 
L 311.018182 -221.279086 
L 311.018182 -221.279086 
L 307.636364 -221.279086 
L 307.636364 -221.279086 
L 304.254545 -221.279086 
L 304.254545 -222.365676 
L 300.872727 -222.365676 
L 300.872727 -222.365676 
L 297.490909 -222.365676 
L 297.490909 -222.365676 
L 294.109091 -222.365676 
L 294.109091 -222.493594 
L 290.727273 -222.493594 
L 290.727273 -222.493594 
L 287.345455 -222.493594 
L 287.345455 -222.493594 
L 283.963636 -222.493594 
L 283.963636 -222.505158 
L 280.581818 -222.505158 
L 280.581818 -222.505158 
L 277.2 -222.505158 
L 277.2 -222.505158 
L 273.818182 -222.505158 
L 273.818182 -223.788445 
L 270.436364 -223.788445 
L 270.436364 -223.788445 
L 267.054545 -223.788445 
L 267.054545 -223.788445 
L 263.672727 -223.788445 
L 263.672727 -225.158638 
L 260.290909 -225.158638 
L 260.290909 -225.158638 
L 256.909091 -225.158638 
L 256.909091 -225.158638 
L 253.527273 -225.158638 
L 253.527273 -225.86202 
L 250.145455 -225.86202 
L 250.145455 -225.86202 
L 246.763636 -225.86202 
L 246.763636 -225.86202 
L 243.381818 -225.86202 
L 243.381818 -226.354094 
L 240 -226.354094 
L 240 -226.354094 
L 236.618182 -226.354094 
L 236.618182 -226.354094 
L 233.236364 -226.354094 
L 233.236364 -229.365418 
L 229.854545 -229.365418 
L 229.854545 -229.365418 
L 226.472727 -229.365418 
L 226.472727 -229.365418 
L 223.090909 -229.365418 
L 223.090909 -230.222727 
L 219.709091 -230.222727 
L 219.709091 -230.222727 
L 216.327273 -230.222727 
L 216.327273 -230.222727 
L 212.945455 -230.222727 
L 212.945455 -231.426844 
L 209.563636 -231.426844 
L 209.563636 -231.426844 
L 206.181818 -231.426844 
L 206.181818 -231.426844 
L 202.8 -231.426844 
L 202.8 -231.562495 
L 199.418182 -231.562495 
L 199.418182 -231.562495 
L 196.036364 -231.562495 
L 196.036364 -231.562495 
L 192.654545 -231.562495 
L 192.654545 -234.137482 
L 189.272727 -234.137482 
L 189.272727 -234.137482 
L 185.890909 -234.137482 
L 185.890909 -234.137482 
L 182.509091 -234.137482 
L 182.509091 -234.45047 
L 179.127273 -234.45047 
L 179.127273 -234.45047 
L 175.745455 -234.45047 
L 175.745455 -234.45047 
L 172.363636 -234.45047 
L 172.363636 -235.385138 
L 168.981818 -235.385138 
L 168.981818 -235.385138 
L 165.6 -235.385138 
L 165.6 -235.385138 
L 162.218182 -235.385138 
L 162.218182 -235.955082 
L 158.836364 -235.955082 
L 158.836364 -235.955082 
L 155.454545 -235.955082 
L 155.454545 -235.955082 
L 152.072727 -235.955082 
L 152.072727 -236.578846 
L 148.690909 -236.578846 
L 148.690909 -236.578846 
L 145.309091 -236.578846 
L 145.309091 -236.578846 
L 141.927273 -236.578846 
L 141.927273 -238.027545 
L 138.545455 -238.027545 
L 138.545455 -238.027545 
L 135.163636 -238.027545 
L 135.163636 -238.027545 
L 131.781818 -238.027545 
L 131.781818 -238.282424 
L 128.4 -238.282424 
L 128.4 -238.282424 
L 125.018182 -238.282424 
L 125.018182 -238.282424 
L 121.636364 -238.282424 
L 121.636364 -238.668888 
L 118.254545 -238.668888 
L 118.254545 -238.668888 
L 114.872727 -238.668888 
L 114.872727 -238.668888 
L 111.490909 -238.668888 
L 111.490909 -238.91063 
L 108.109091 -238.91063 
L 108.109091 -238.91063 
L 104.727273 -238.91063 
L 104.727273 -238.91063 
L 101.345455 -238.91063 
L 101.345455 -239.416944 
L 97.963636 -239.416944 
L 97.963636 -239.416944 
L 94.581818 -239.416944 
L 94.581818 -239.416944 
L 91.2 -239.416944 
L 91.2 -240.201936 
L 87.818182 -240.201936 
L 87.818182 -240.201936 
L 84.436364 -240.201936 
L 84.436364 -240.201936 
L 81.054545 -240.201936 
L 81.054545 -240.65262 
L 77.672727 -240.65262 
L 77.672727 -240.65262 
L 74.290909 -240.65262 
L 74.290909 -240.65262 
L 70.909091 -240.65262 
L 70.909091 -240.780705 
L 67.527273 -240.780705 
L 67.527273 -240.780705 
L 64.145455 -240.780705 
L 64.145455 -240.780705 
L 60.763636 -240.780705 
L 60.763636 -240.780705 
L 57.381818 -240.780705 
L 57.381818 -240.780705 
L 54 -240.780705 
z
" id="me782c6fcda" style="stroke:#a52a2a;stroke-opacity:0.5;"/>
    </defs>
    <g clip-path="url(#paeb53d1cb1)">
     <use style="fill:#a52a2a;fill-opacity:0.5;stroke:#a52a2a;stroke-opacity:0.5;" x="0" xlink:href="#me782c6fcda" y="288"/>
    </g>
   </g>
   <g id="PolyCollection_2">
    <defs>
     <path d="M 54 -240.781261 
L 54 -240.781261 
L 57.381818 -240.781261 
L 57.381818 -240.781261 
L 60.763636 -240.781261 
L 60.763636 -240.781261 
L 64.145455 -240.781261 
L 64.145455 -240.781261 
L 67.527273 -240.781261 
L 67.527273 -240.781261 
L 70.909091 -240.781261 
L 70.909091 -240.781261 
L 74.290909 -240.781261 
L 74.290909 -240.781261 
L 77.672727 -240.781261 
L 77.672727 -108.758424 
L 81.054545 -108.758424 
L 81.054545 -66.273898 
L 84.436364 -66.273898 
L 84.436364 -66.273898 
L 87.818182 -66.273898 
L 87.818182 -66.273898 
L 91.2 -66.273898 
L 91.2 -59.23721 
L 94.581818 -59.23721 
L 94.581818 -59.23721 
L 97.963636 -59.23721 
L 97.963636 -59.23721 
L 101.345455 -59.23721 
L 101.345455 -59.23721 
L 104.727273 -59.23721 
L 104.727273 -59.23721 
L 108.109091 -59.23721 
L 108.109091 -59.23721 
L 111.490909 -59.23721 
L 111.490909 -59.23721 
L 114.872727 -59.23721 
L 114.872727 -59.23721 
L 118.254545 -59.23721 
L 118.254545 -59.23721 
L 121.636364 -59.23721 
L 121.636364 -59.23721 
L 125.018182 -59.23721 
L 125.018182 -59.23721 
L 128.4 -59.23721 
L 128.4 -58.281942 
L 131.781818 -58.281942 
L 131.781818 -58.281942 
L 135.163636 -58.281942 
L 135.163636 -58.281942 
L 138.545455 -58.281942 
L 138.545455 -58.281942 
L 141.927273 -58.281942 
L 141.927273 -58.281942 
L 145.309091 -58.281942 
L 145.309091 -58.281942 
L 148.690909 -58.281942 
L 148.690909 -51.423745 
L 152.072727 -51.423745 
L 152.072727 -51.423745 
L 155.454545 -51.423745 
L 155.454545 -51.423745 
L 158.836364 -51.423745 
L 158.836364 -51.423745 
L 162.218182 -51.423745 
L 162.218182 -51.423745 
L 165.6 -51.423745 
L 165.6 -51.287639 
L 168.981818 -51.287639 
L 168.981818 -51.287639 
L 172.363636 -51.287639 
L 172.363636 -51.287639 
L 175.745455 -51.287639 
L 175.745455 -50.430895 
L 179.127273 -50.430895 
L 179.127273 -50.430895 
L 182.509091 -50.430895 
L 182.509091 -50.430895 
L 185.890909 -50.430895 
L 185.890909 -50.430895 
L 189.272727 -50.430895 
L 189.272727 -50.430895 
L 192.654545 -50.430895 
L 192.654545 -50.430895 
L 196.036364 -50.430895 
L 196.036364 -50.430895 
L 199.418182 -50.430895 
L 199.418182 -50.430895 
L 202.8 -50.430895 
L 202.8 -50.430895 
L 206.181818 -50.430895 
L 206.181818 -50.430895 
L 209.563636 -50.430895 
L 209.563636 -50.430895 
L 212.945455 -50.430895 
L 212.945455 -50.430895 
L 216.327273 -50.430895 
L 216.327273 -48.982423 
L 219.709091 -48.982423 
L 219.709091 -48.982423 
L 223.090909 -48.982423 
L 223.090909 -48.982423 
L 226.472727 -48.982423 
L 226.472727 -48.982423 
L 229.854545 -48.982423 
L 229.854545 -48.982423 
L 233.236364 -48.982423 
L 233.236364 -48.982423 
L 236.618182 -48.982423 
L 236.618182 -48.982423 
L 240 -48.982423 
L 240 -48.836395 
L 243.381818 -48.836395 
L 243.381818 -48.836395 
L 246.763636 -48.836395 
L 246.763636 -48.836395 
L 250.145455 -48.836395 
L 250.145455 -48.836395 
L 253.527273 -48.836395 
L 253.527273 -48.836395 
L 256.909091 -48.836395 
L 256.909091 -48.836395 
L 260.290909 -48.836395 
L 260.290909 -48.836395 
L 263.672727 -48.836395 
L 263.672727 -48.836395 
L 267.054545 -48.836395 
L 267.054545 -48.836395 
L 270.436364 -48.836395 
L 270.436364 -48.836395 
L 273.818182 -48.836395 
L 273.818182 -48.836395 
L 277.2 -48.836395 
L 277.2 -48.836395 
L 280.581818 -48.836395 
L 280.581818 -48.836395 
L 283.963636 -48.836395 
L 283.963636 -48.836395 
L 287.345455 -48.836395 
L 287.345455 -48.836395 
L 290.727273 -48.836395 
L 290.727273 -48.558346 
L 294.109091 -48.558346 
L 294.109091 -48.558346 
L 297.490909 -48.558346 
L 297.490909 -48.558346 
L 300.872727 -48.558346 
L 300.872727 -48.558346 
L 304.254545 -48.558346 
L 304.254545 -48.558346 
L 307.636364 -48.558346 
L 307.636364 -48.558346 
L 311.018182 -48.558346 
L 311.018182 -48.558346 
L 314.4 -48.558346 
L 314.4 -48.558346 
L 317.781818 -48.558346 
L 317.781818 -48.558346 
L 321.163636 -48.558346 
L 321.163636 -48.558346 
L 324.545455 -48.558346 
L 324.545455 -48.558346 
L 327.927273 -48.558346 
L 327.927273 -48.558346 
L 331.309091 -48.558346 
L 331.309091 -48.558346 
L 334.690909 -48.558346 
L 334.690909 -48.558346 
L 338.072727 -48.558346 
L 338.072727 -48.558346 
L 341.454545 -48.558346 
L 341.454545 -48.558346 
L 344.836364 -48.558346 
L 344.836364 -48.558346 
L 348.218182 -48.558346 
L 348.218182 -48.558346 
L 351.6 -48.558346 
L 351.6 -48.558346 
L 354.981818 -48.558346 
L 354.981818 -48.558346 
L 358.363636 -48.558346 
L 358.363636 -48.558346 
L 361.745455 -48.558346 
L 361.745455 -48.558346 
L 365.127273 -48.558346 
L 365.127273 -48.558346 
L 368.509091 -48.558346 
L 368.509091 -48.558346 
L 371.890909 -48.558346 
L 371.890909 -48.558346 
L 375.272727 -48.558346 
L 375.272727 -48.558346 
L 378.654545 -48.558346 
L 378.654545 -48.558346 
L 382.036364 -48.558346 
L 382.036364 -48.558346 
L 385.418182 -48.558346 
L 385.418182 -48.558346 
L 388.8 -48.558346 
L 388.8 -48.558346 
L 388.8 -147.356228 
L 388.8 -147.356228 
L 388.8 -147.356228 
L 385.418182 -147.356228 
L 385.418182 -147.356228 
L 382.036364 -147.356228 
L 382.036364 -147.356228 
L 378.654545 -147.356228 
L 378.654545 -147.356228 
L 375.272727 -147.356228 
L 375.272727 -147.356228 
L 371.890909 -147.356228 
L 371.890909 -147.356228 
L 368.509091 -147.356228 
L 368.509091 -147.356228 
L 365.127273 -147.356228 
L 365.127273 -147.356228 
L 361.745455 -147.356228 
L 361.745455 -147.356228 
L 358.363636 -147.356228 
L 358.363636 -147.356228 
L 354.981818 -147.356228 
L 354.981818 -147.356228 
L 351.6 -147.356228 
L 351.6 -147.356228 
L 348.218182 -147.356228 
L 348.218182 -147.356228 
L 344.836364 -147.356228 
L 344.836364 -147.356228 
L 341.454545 -147.356228 
L 341.454545 -147.356228 
L 338.072727 -147.356228 
L 338.072727 -147.356228 
L 334.690909 -147.356228 
L 334.690909 -147.356228 
L 331.309091 -147.356228 
L 331.309091 -147.356228 
L 327.927273 -147.356228 
L 327.927273 -147.356228 
L 324.545455 -147.356228 
L 324.545455 -147.356228 
L 321.163636 -147.356228 
L 321.163636 -147.356228 
L 317.781818 -147.356228 
L 317.781818 -147.356228 
L 314.4 -147.356228 
L 314.4 -147.356228 
L 311.018182 -147.356228 
L 311.018182 -147.356228 
L 307.636364 -147.356228 
L 307.636364 -147.356228 
L 304.254545 -147.356228 
L 304.254545 -147.356228 
L 300.872727 -147.356228 
L 300.872727 -147.356228 
L 297.490909 -147.356228 
L 297.490909 -147.356228 
L 294.109091 -147.356228 
L 294.109091 -147.356228 
L 290.727273 -147.356228 
L 290.727273 -147.356228 
L 287.345455 -147.356228 
L 287.345455 -147.356228 
L 283.963636 -147.356228 
L 283.963636 -147.356228 
L 280.581818 -147.356228 
L 280.581818 -147.356228 
L 277.2 -147.356228 
L 277.2 -147.356228 
L 273.818182 -147.356228 
L 273.818182 -147.356228 
L 270.436364 -147.356228 
L 270.436364 -147.356228 
L 267.054545 -147.356228 
L 267.054545 -147.356228 
L 263.672727 -147.356228 
L 263.672727 -147.356228 
L 260.290909 -147.356228 
L 260.290909 -147.356228 
L 256.909091 -147.356228 
L 256.909091 -147.356228 
L 253.527273 -147.356228 
L 253.527273 -147.356228 
L 250.145455 -147.356228 
L 250.145455 -147.356228 
L 246.763636 -147.356228 
L 246.763636 -147.356228 
L 243.381818 -147.356228 
L 243.381818 -147.356228 
L 240 -147.356228 
L 240 -147.356228 
L 236.618182 -147.356228 
L 236.618182 -147.356228 
L 233.236364 -147.356228 
L 233.236364 -147.356228 
L 229.854545 -147.356228 
L 229.854545 -147.356228 
L 226.472727 -147.356228 
L 226.472727 -147.356228 
L 223.090909 -147.356228 
L 223.090909 -147.356228 
L 219.709091 -147.356228 
L 219.709091 -147.356228 
L 216.327273 -147.356228 
L 216.327273 -147.378996 
L 212.945455 -147.378996 
L 212.945455 -147.378996 
L 209.563636 -147.378996 
L 209.563636 -147.378996 
L 206.181818 -147.378996 
L 206.181818 -147.378996 
L 202.8 -147.378996 
L 202.8 -147.378996 
L 199.418182 -147.378996 
L 199.418182 -147.378996 
L 196.036364 -147.378996 
L 196.036364 -147.523185 
L 192.654545 -147.523185 
L 192.654545 -147.523185 
L 189.272727 -147.523185 
L 189.272727 -147.523185 
L 185.890909 -147.523185 
L 185.890909 -147.523185 
L 182.509091 -147.523185 
L 182.509091 -147.523185 
L 179.127273 -147.523185 
L 179.127273 -147.523185 
L 175.745455 -147.523185 
L 175.745455 -147.523185 
L 172.363636 -147.523185 
L 172.363636 -147.523185 
L 168.981818 -147.523185 
L 168.981818 -147.523185 
L 165.6 -147.523185 
L 165.6 -147.523185 
L 162.218182 -147.523185 
L 162.218182 -147.523185 
L 158.836364 -147.523185 
L 158.836364 -147.523185 
L 155.454545 -147.523185 
L 155.454545 -147.523185 
L 152.072727 -147.523185 
L 152.072727 -147.523185 
L 148.690909 -147.523185 
L 148.690909 -147.523185 
L 145.309091 -147.523185 
L 145.309091 -147.523185 
L 141.927273 -147.523185 
L 141.927273 -147.523185 
L 138.545455 -147.523185 
L 138.545455 -147.523185 
L 135.163636 -147.523185 
L 135.163636 -147.523185 
L 131.781818 -147.523185 
L 131.781818 -148.464736 
L 128.4 -148.464736 
L 128.4 -148.464736 
L 125.018182 -148.464736 
L 125.018182 -148.464736 
L 121.636364 -148.464736 
L 121.636364 -151.44748 
L 118.254545 -151.44748 
L 118.254545 -151.44748 
L 114.872727 -151.44748 
L 114.872727 -151.44748 
L 111.490909 -151.44748 
L 111.490909 -153.299594 
L 108.109091 -153.299594 
L 108.109091 -153.299594 
L 104.727273 -153.299594 
L 104.727273 -153.299594 
L 101.345455 -153.299594 
L 101.345455 -155.22768 
L 97.963636 -155.22768 
L 97.963636 -155.22768 
L 94.581818 -155.22768 
L 94.581818 -155.22768 
L 91.2 -155.22768 
L 91.2 -159.150632 
L 87.818182 -159.150632 
L 87.818182 -159.150632 
L 84.436364 -159.150632 
L 84.436364 -159.150632 
L 81.054545 -159.150632 
L 81.054545 -240.781261 
L 77.672727 -240.781261 
L 77.672727 -240.781261 
L 74.290909 -240.781261 
L 74.290909 -240.781261 
L 70.909091 -240.781261 
L 70.909091 -240.781261 
L 67.527273 -240.781261 
L 67.527273 -240.781261 
L 64.145455 -240.781261 
L 64.145455 -240.781261 
L 60.763636 -240.781261 
L 60.763636 -240.781261 
L 57.381818 -240.781261 
L 57.381818 -240.781261 
L 54 -240.781261 
z
" id="m12c52f3122" style="stroke:#008000;stroke-opacity:0.5;"/>
    </defs>
    <g clip-path="url(#paeb53d1cb1)">
     <use style="fill:#008000;fill-opacity:0.5;stroke:#008000;stroke-opacity:0.5;" x="0" xlink:href="#m12c52f3122" y="288"/>
    </g>
   </g>
   <g id="PolyCollection_3">
    <defs>
     <path d="M 54 -240.781261 
L 54 -240.781261 
L 57.381818 -240.781261 
L 57.381818 -84.18146 
L 60.763636 -84.18146 
L 60.763636 -84.18146 
L 64.145455 -84.18146 
L 64.145455 -84.18146 
L 67.527273 -84.18146 
L 67.527273 -84.18146 
L 70.909091 -84.18146 
L 70.909091 -62.689927 
L 74.290909 -62.689927 
L 74.290909 -62.689927 
L 77.672727 -62.689927 
L 77.672727 -62.689927 
L 81.054545 -62.689927 
L 81.054545 -62.689927 
L 84.436364 -62.689927 
L 84.436364 -62.689927 
L 87.818182 -62.689927 
L 87.818182 -62.689927 
L 91.2 -62.689927 
L 91.2 -62.689927 
L 94.581818 -62.689927 
L 94.581818 -62.689927 
L 97.963636 -62.689927 
L 97.963636 -62.689927 
L 101.345455 -62.689927 
L 101.345455 -62.689927 
L 104.727273 -62.689927 
L 104.727273 -62.689927 
L 108.109091 -62.689927 
L 108.109091 -62.689927 
L 111.490909 -62.689927 
L 111.490909 -62.138303 
L 114.872727 -62.138303 
L 114.872727 -62.138303 
L 118.254545 -62.138303 
L 118.254545 -62.138303 
L 121.636364 -62.138303 
L 121.636364 -62.138303 
L 125.018182 -62.138303 
L 125.018182 -58.332445 
L 128.4 -58.332445 
L 128.4 -58.332445 
L 131.781818 -58.332445 
L 131.781818 -58.332445 
L 135.163636 -58.332445 
L 135.163636 -58.332445 
L 138.545455 -58.332445 
L 138.545455 -58.332445 
L 141.927273 -58.332445 
L 141.927273 -58.332445 
L 145.309091 -58.332445 
L 145.309091 -58.332445 
L 148.690909 -58.332445 
L 148.690909 -58.332445 
L 152.072727 -58.332445 
L 152.072727 -58.332445 
L 155.454545 -58.332445 
L 155.454545 -58.332445 
L 158.836364 -58.332445 
L 158.836364 -58.332445 
L 162.218182 -58.332445 
L 162.218182 -58.332445 
L 165.6 -58.332445 
L 165.6 -58.332445 
L 168.981818 -58.332445 
L 168.981818 -58.332445 
L 172.363636 -58.332445 
L 172.363636 -58.332445 
L 175.745455 -58.332445 
L 175.745455 -58.332445 
L 179.127273 -58.332445 
L 179.127273 -58.332445 
L 182.509091 -58.332445 
L 182.509091 -58.332445 
L 185.890909 -58.332445 
L 185.890909 -58.332445 
L 189.272727 -58.332445 
L 189.272727 -58.332445 
L 192.654545 -58.332445 
L 192.654545 -56.955219 
L 196.036364 -56.955219 
L 196.036364 -56.955219 
L 199.418182 -56.955219 
L 199.418182 -56.955219 
L 202.8 -56.955219 
L 202.8 -56.955219 
L 206.181818 -56.955219 
L 206.181818 -56.955219 
L 209.563636 -56.955219 
L 209.563636 -56.955219 
L 212.945455 -56.955219 
L 212.945455 -56.955219 
L 216.327273 -56.955219 
L 216.327273 -56.955219 
L 219.709091 -56.955219 
L 219.709091 -56.309884 
L 223.090909 -56.309884 
L 223.090909 -56.309884 
L 226.472727 -56.309884 
L 226.472727 -56.309884 
L 229.854545 -56.309884 
L 229.854545 -56.309884 
L 233.236364 -56.309884 
L 233.236364 -56.309884 
L 236.618182 -56.309884 
L 236.618182 -56.309884 
L 240 -56.309884 
L 240 -56.309884 
L 243.381818 -56.309884 
L 243.381818 -56.309884 
L 246.763636 -56.309884 
L 246.763636 -56.309884 
L 250.145455 -56.309884 
L 250.145455 -56.309884 
L 253.527273 -56.309884 
L 253.527273 -56.309884 
L 256.909091 -56.309884 
L 256.909091 -56.309884 
L 260.290909 -56.309884 
L 260.290909 -56.309884 
L 263.672727 -56.309884 
L 263.672727 -56.309884 
L 267.054545 -56.309884 
L 267.054545 -56.309884 
L 270.436364 -56.309884 
L 270.436364 -56.309884 
L 273.818182 -56.309884 
L 273.818182 -56.309884 
L 277.2 -56.309884 
L 277.2 -56.309884 
L 280.581818 -56.309884 
L 280.581818 -56.309884 
L 283.963636 -56.309884 
L 283.963636 -56.309884 
L 287.345455 -56.309884 
L 287.345455 -56.309884 
L 290.727273 -56.309884 
L 290.727273 -56.309884 
L 294.109091 -56.309884 
L 294.109091 -56.309884 
L 297.490909 -56.309884 
L 297.490909 -56.309884 
L 300.872727 -56.309884 
L 300.872727 -56.309884 
L 304.254545 -56.309884 
L 304.254545 -56.309884 
L 307.636364 -56.309884 
L 307.636364 -56.309884 
L 311.018182 -56.309884 
L 311.018182 -56.309884 
L 314.4 -56.309884 
L 314.4 -56.309884 
L 317.781818 -56.309884 
L 317.781818 -56.309884 
L 321.163636 -56.309884 
L 321.163636 -56.309884 
L 324.545455 -56.309884 
L 324.545455 -56.309884 
L 327.927273 -56.309884 
L 327.927273 -56.309884 
L 331.309091 -56.309884 
L 331.309091 -56.309884 
L 334.690909 -56.309884 
L 334.690909 -56.309884 
L 338.072727 -56.309884 
L 338.072727 -56.309884 
L 341.454545 -56.309884 
L 341.454545 -56.309884 
L 344.836364 -56.309884 
L 344.836364 -56.309884 
L 348.218182 -56.309884 
L 348.218182 -56.309884 
L 351.6 -56.309884 
L 351.6 -56.309884 
L 354.981818 -56.309884 
L 354.981818 -56.309884 
L 358.363636 -56.309884 
L 358.363636 -56.309884 
L 361.745455 -56.309884 
L 361.745455 -56.309884 
L 365.127273 -56.309884 
L 365.127273 -56.309884 
L 368.509091 -56.309884 
L 368.509091 -56.309884 
L 371.890909 -56.309884 
L 371.890909 -56.309884 
L 375.272727 -56.309884 
L 375.272727 -56.309884 
L 378.654545 -56.309884 
L 378.654545 -56.309884 
L 382.036364 -56.309884 
L 382.036364 -56.309884 
L 385.418182 -56.309884 
L 385.418182 -56.309884 
L 388.8 -56.309884 
L 388.8 -56.309884 
L 388.8 -56.309884 
L 388.8 -56.309884 
L 388.8 -56.309884 
L 385.418182 -56.309884 
L 385.418182 -56.309884 
L 382.036364 -56.309884 
L 382.036364 -56.309884 
L 378.654545 -56.309884 
L 378.654545 -56.309884 
L 375.272727 -56.309884 
L 375.272727 -56.309884 
L 371.890909 -56.309884 
L 371.890909 -56.309884 
L 368.509091 -56.309884 
L 368.509091 -56.309884 
L 365.127273 -56.309884 
L 365.127273 -56.309884 
L 361.745455 -56.309884 
L 361.745455 -56.309884 
L 358.363636 -56.309884 
L 358.363636 -56.309884 
L 354.981818 -56.309884 
L 354.981818 -56.309884 
L 351.6 -56.309884 
L 351.6 -56.309884 
L 348.218182 -56.309884 
L 348.218182 -56.309884 
L 344.836364 -56.309884 
L 344.836364 -56.309884 
L 341.454545 -56.309884 
L 341.454545 -56.309884 
L 338.072727 -56.309884 
L 338.072727 -56.309884 
L 334.690909 -56.309884 
L 334.690909 -56.309884 
L 331.309091 -56.309884 
L 331.309091 -56.309884 
L 327.927273 -56.309884 
L 327.927273 -56.309884 
L 324.545455 -56.309884 
L 324.545455 -56.309884 
L 321.163636 -56.309884 
L 321.163636 -56.309884 
L 317.781818 -56.309884 
L 317.781818 -56.309884 
L 314.4 -56.309884 
L 314.4 -56.309884 
L 311.018182 -56.309884 
L 311.018182 -56.309884 
L 307.636364 -56.309884 
L 307.636364 -56.309884 
L 304.254545 -56.309884 
L 304.254545 -56.309884 
L 300.872727 -56.309884 
L 300.872727 -56.955219 
L 297.490909 -56.955219 
L 297.490909 -56.955219 
L 294.109091 -56.955219 
L 294.109091 -56.955219 
L 290.727273 -56.955219 
L 290.727273 -56.955219 
L 287.345455 -56.955219 
L 287.345455 -56.955219 
L 283.963636 -56.955219 
L 283.963636 -56.955219 
L 280.581818 -56.955219 
L 280.581818 -56.955219 
L 277.2 -56.955219 
L 277.2 -56.955219 
L 273.818182 -56.955219 
L 273.818182 -56.955219 
L 270.436364 -56.955219 
L 270.436364 -56.955219 
L 267.054545 -56.955219 
L 267.054545 -56.955219 
L 263.672727 -56.955219 
L 263.672727 -56.955219 
L 260.290909 -56.955219 
L 260.290909 -56.955219 
L 256.909091 -56.955219 
L 256.909091 -56.955219 
L 253.527273 -56.955219 
L 253.527273 -56.955219 
L 250.145455 -56.955219 
L 250.145455 -56.955219 
L 246.763636 -56.955219 
L 246.763636 -56.955219 
L 243.381818 -56.955219 
L 243.381818 -56.955219 
L 240 -56.955219 
L 240 -56.955219 
L 236.618182 -56.955219 
L 236.618182 -56.955219 
L 233.236364 -56.955219 
L 233.236364 -57.018836 
L 229.854545 -57.018836 
L 229.854545 -57.018836 
L 226.472727 -57.018836 
L 226.472727 -57.018836 
L 223.090909 -57.018836 
L 223.090909 -57.018836 
L 219.709091 -57.018836 
L 219.709091 -57.018836 
L 216.327273 -57.018836 
L 216.327273 -57.018836 
L 212.945455 -57.018836 
L 212.945455 -57.018836 
L 209.563636 -57.018836 
L 209.563636 -58.332445 
L 206.181818 -58.332445 
L 206.181818 -58.332445 
L 202.8 -58.332445 
L 202.8 -58.332445 
L 199.418182 -58.332445 
L 199.418182 -58.332445 
L 196.036364 -58.332445 
L 196.036364 -58.332445 
L 192.654545 -58.332445 
L 192.654545 -58.332445 
L 189.272727 -58.332445 
L 189.272727 -58.332445 
L 185.890909 -58.332445 
L 185.890909 -58.332445 
L 182.509091 -58.332445 
L 182.509091 -58.332445 
L 179.127273 -58.332445 
L 179.127273 -58.332445 
L 175.745455 -58.332445 
L 175.745455 -58.332445 
L 172.363636 -58.332445 
L 172.363636 -58.332445 
L 168.981818 -58.332445 
L 168.981818 -58.332445 
L 165.6 -58.332445 
L 165.6 -58.332445 
L 162.218182 -58.332445 
L 162.218182 -58.332445 
L 158.836364 -58.332445 
L 158.836364 -58.568938 
L 155.454545 -58.568938 
L 155.454545 -58.568938 
L 152.072727 -58.568938 
L 152.072727 -58.568938 
L 148.690909 -58.568938 
L 148.690909 -58.568938 
L 145.309091 -58.568938 
L 145.309091 -58.568938 
L 141.927273 -58.568938 
L 141.927273 -62.689927 
L 138.545455 -62.689927 
L 138.545455 -62.689927 
L 135.163636 -62.689927 
L 135.163636 -62.689927 
L 131.781818 -62.689927 
L 131.781818 -62.689927 
L 128.4 -62.689927 
L 128.4 -62.689927 
L 125.018182 -62.689927 
L 125.018182 -62.689927 
L 121.636364 -62.689927 
L 121.636364 -62.689927 
L 118.254545 -62.689927 
L 118.254545 -62.689927 
L 114.872727 -62.689927 
L 114.872727 -62.689927 
L 111.490909 -62.689927 
L 111.490909 -62.689927 
L 108.109091 -62.689927 
L 108.109091 -62.689927 
L 104.727273 -62.689927 
L 104.727273 -74.476365 
L 101.345455 -74.476365 
L 101.345455 -84.18146 
L 97.963636 -84.18146 
L 97.963636 -84.18146 
L 94.581818 -84.18146 
L 94.581818 -84.18146 
L 91.2 -84.18146 
L 91.2 -84.18146 
L 87.818182 -84.18146 
L 87.818182 -84.18146 
L 84.436364 -84.18146 
L 84.436364 -84.18146 
L 81.054545 -84.18146 
L 81.054545 -84.18146 
L 77.672727 -84.18146 
L 77.672727 -84.18146 
L 74.290909 -84.18146 
L 74.290909 -84.18146 
L 70.909091 -84.18146 
L 70.909091 -84.18146 
L 67.527273 -84.18146 
L 67.527273 -84.18146 
L 64.145455 -84.18146 
L 64.145455 -84.18146 
L 60.763636 -84.18146 
L 60.763636 -84.18146 
L 57.381818 -84.18146 
L 57.381818 -240.781261 
L 54 -240.781261 
z
" id="mdb29aa2abf" style="stroke:#ee82ee;stroke-opacity:0.5;"/>
    </defs>
    <g clip-path="url(#paeb53d1cb1)">
     <use style="fill:#ee82ee;fill-opacity:0.5;stroke:#ee82ee;stroke-opacity:0.5;" x="0" xlink:href="#mdb29aa2abf" y="288"/>
    </g>
   </g>
   <g id="matplotlib.axis_1">
    <g id="xtick_1">
     <g id="line2d_1">
      <defs>
       <path d="M 0 0 
L 0 3.5 
" id="m7cc5184b2d" style="stroke:#000000;stroke-width:0.8;"/>
      </defs>
      <g>
       <use style="stroke:#000000;stroke-width:0.8;" x="118.254545" xlink:href="#m7cc5184b2d" y="252"/>
      </g>
     </g>
     <g id="text_1">
      <!-- 20 -->
      <g transform="translate(110.754545 269.415625)scale(0.15 -0.15)">
       <defs>
        <path d="M 45.84375 12.75 
L 41.21875 0 
L 2.15625 0 
L 2.15625 1.8125 
Q 19.390625 17.53125 26.421875 27.484375 
Q 33.453125 37.453125 33.453125 45.703125 
Q 33.453125 52 29.59375 56.046875 
Q 25.734375 60.109375 20.359375 60.109375 
Q 15.484375 60.109375 11.59375 57.25 
Q 7.71875 54.390625 5.859375 48.875 
L 4.046875 48.875 
Q 5.28125 57.90625 10.328125 62.734375 
Q 15.375 67.578125 22.953125 67.578125 
Q 31 67.578125 36.390625 62.40625 
Q 41.796875 57.234375 41.796875 50.203125 
Q 41.796875 45.171875 39.453125 40.140625 
Q 35.84375 32.234375 27.734375 23.390625 
Q 15.578125 10.109375 12.546875 7.375 
L 29.828125 7.375 
Q 35.109375 7.375 37.234375 7.765625 
Q 39.359375 8.15625 41.0625 9.34375 
Q 42.78125 10.546875 44.046875 12.75 
z
" id="TimesNewRomanPSMT-50"/>
        <path d="M 3.609375 32.71875 
Q 3.609375 44.046875 7.03125 52.21875 
Q 10.453125 60.40625 16.109375 64.40625 
Q 20.515625 67.578125 25.203125 67.578125 
Q 32.8125 67.578125 38.875 59.8125 
Q 46.4375 50.203125 46.4375 33.734375 
Q 46.4375 22.21875 43.109375 14.15625 
Q 39.796875 6.109375 34.640625 2.46875 
Q 29.5 -1.171875 24.703125 -1.171875 
Q 15.234375 -1.171875 8.9375 10.015625 
Q 3.609375 19.4375 3.609375 32.71875 
z
M 13.1875 31.5 
Q 13.1875 17.828125 16.546875 9.1875 
Q 19.34375 1.90625 24.859375 1.90625 
Q 27.484375 1.90625 30.3125 4.265625 
Q 33.15625 6.640625 34.625 12.203125 
Q 36.859375 20.609375 36.859375 35.890625 
Q 36.859375 47.21875 34.515625 54.78125 
Q 32.765625 60.40625 29.984375 62.75 
Q 27.984375 64.359375 25.140625 64.359375 
Q 21.828125 64.359375 19.234375 61.375 
Q 15.71875 57.328125 14.453125 48.625 
Q 13.1875 39.9375 13.1875 31.5 
z
" id="TimesNewRomanPSMT-48"/>
       </defs>
       <use xlink:href="#TimesNewRomanPSMT-50"/>
       <use x="50" xlink:href="#TimesNewRomanPSMT-48"/>
      </g>
     </g>
    </g>
    <g id="xtick_2">
     <g id="line2d_2">
      <g>
       <use style="stroke:#000000;stroke-width:0.8;" x="185.890909" xlink:href="#m7cc5184b2d" y="252"/>
      </g>
     </g>
     <g id="text_2">
      <!-- 40 -->
      <g transform="translate(178.390909 269.415625)scale(0.15 -0.15)">
       <defs>
        <path d="M 46.53125 24.421875 
L 46.53125 17.484375 
L 37.640625 17.484375 
L 37.640625 0 
L 29.59375 0 
L 29.59375 17.484375 
L 1.5625 17.484375 
L 1.5625 23.734375 
L 32.28125 67.578125 
L 37.640625 67.578125 
L 37.640625 24.421875 
z
M 29.59375 24.421875 
L 29.59375 57.28125 
L 6.34375 24.421875 
z
" id="TimesNewRomanPSMT-52"/>
       </defs>
       <use xlink:href="#TimesNewRomanPSMT-52"/>
       <use x="50" xlink:href="#TimesNewRomanPSMT-48"/>
      </g>
     </g>
    </g>
    <g id="xtick_3">
     <g id="line2d_3">
      <g>
       <use style="stroke:#000000;stroke-width:0.8;" x="253.527273" xlink:href="#m7cc5184b2d" y="252"/>
      </g>
     </g>
     <g id="text_3">
      <!-- 60 -->
      <g transform="translate(246.027273 269.415625)scale(0.15 -0.15)">
       <defs>
        <path d="M 44.828125 67.578125 
L 44.828125 65.765625 
Q 38.375 65.140625 34.296875 63.203125 
Q 30.21875 61.28125 26.234375 57.328125 
Q 22.265625 53.375 19.65625 48.515625 
Q 17.046875 43.65625 15.28125 36.96875 
Q 22.3125 41.796875 29.390625 41.796875 
Q 36.1875 41.796875 41.15625 36.328125 
Q 46.140625 30.859375 46.140625 22.265625 
Q 46.140625 13.96875 41.109375 7.125 
Q 35.0625 -1.171875 25.09375 -1.171875 
Q 18.3125 -1.171875 13.578125 3.328125 
Q 4.296875 12.0625 4.296875 25.984375 
Q 4.296875 34.859375 7.859375 42.859375 
Q 11.421875 50.875 18.03125 57.078125 
Q 24.65625 63.28125 30.703125 65.421875 
Q 36.765625 67.578125 42 67.578125 
z
M 14.453125 33.40625 
Q 13.578125 26.8125 13.578125 22.75 
Q 13.578125 18.0625 15.3125 12.5625 
Q 17.046875 7.078125 20.453125 3.859375 
Q 22.953125 1.5625 26.515625 1.5625 
Q 30.765625 1.5625 34.109375 5.5625 
Q 37.453125 9.578125 37.453125 17 
Q 37.453125 25.34375 34.125 31.4375 
Q 30.8125 37.546875 24.703125 37.546875 
Q 22.859375 37.546875 20.734375 36.765625 
Q 18.609375 35.984375 14.453125 33.40625 
z
" id="TimesNewRomanPSMT-54"/>
       </defs>
       <use xlink:href="#TimesNewRomanPSMT-54"/>
       <use x="50" xlink:href="#TimesNewRomanPSMT-48"/>
      </g>
     </g>
    </g>
    <g id="xtick_4">
     <g id="line2d_4">
      <g>
       <use style="stroke:#000000;stroke-width:0.8;" x="321.163636" xlink:href="#m7cc5184b2d" y="252"/>
      </g>
     </g>
     <g id="text_4">
      <!-- 80 -->
      <g transform="translate(313.663636 269.415625)scale(0.15 -0.15)">
       <defs>
        <path d="M 19.1875 33.34375 
Q 11.328125 39.796875 9.046875 43.703125 
Q 6.78125 47.609375 6.78125 51.8125 
Q 6.78125 58.25 11.765625 62.90625 
Q 16.75 67.578125 25 67.578125 
Q 33.015625 67.578125 37.890625 63.234375 
Q 42.78125 58.890625 42.78125 53.328125 
Q 42.78125 49.609375 40.140625 45.75 
Q 37.5 41.890625 29.15625 36.671875 
Q 37.75 30.03125 40.53125 26.21875 
Q 44.234375 21.234375 44.234375 15.71875 
Q 44.234375 8.734375 38.90625 3.78125 
Q 33.59375 -1.171875 24.953125 -1.171875 
Q 15.53125 -1.171875 10.25 4.734375 
Q 6.0625 9.46875 6.0625 15.09375 
Q 6.0625 19.484375 9.015625 23.796875 
Q 11.96875 28.125 19.1875 33.34375 
z
M 26.859375 38.578125 
Q 32.71875 43.84375 34.28125 46.890625 
Q 35.84375 49.953125 35.84375 53.8125 
Q 35.84375 58.9375 32.953125 61.84375 
Q 30.078125 64.75 25.09375 64.75 
Q 20.125 64.75 17 61.859375 
Q 13.875 58.984375 13.875 55.125 
Q 13.875 52.59375 15.15625 50.046875 
Q 16.453125 47.515625 18.84375 45.21875 
z
M 21.484375 31.5 
Q 17.4375 28.078125 15.484375 24.046875 
Q 13.53125 20.015625 13.53125 15.328125 
Q 13.53125 9.03125 16.96875 5.25 
Q 20.40625 1.46875 25.734375 1.46875 
Q 31 1.46875 34.171875 4.4375 
Q 37.359375 7.421875 37.359375 11.671875 
Q 37.359375 15.1875 35.5 17.96875 
Q 32.03125 23.140625 21.484375 31.5 
z
" id="TimesNewRomanPSMT-56"/>
       </defs>
       <use xlink:href="#TimesNewRomanPSMT-56"/>
       <use x="50" xlink:href="#TimesNewRomanPSMT-48"/>
      </g>
     </g>
    </g>
    <g id="xtick_5">
     <g id="line2d_5">
      <g>
       <use style="stroke:#000000;stroke-width:0.8;" x="388.8" xlink:href="#m7cc5184b2d" y="252"/>
      </g>
     </g>
     <g id="text_5">
      <!-- 100 -->
      <g transform="translate(377.55 269.415625)scale(0.15 -0.15)">
       <defs>
        <path d="M 11.71875 59.71875 
L 27.828125 67.578125 
L 29.4375 67.578125 
L 29.4375 11.671875 
Q 29.4375 6.109375 29.90625 4.734375 
Q 30.375 3.375 31.828125 2.640625 
Q 33.296875 1.90625 37.796875 1.8125 
L 37.796875 0 
L 12.890625 0 
L 12.890625 1.8125 
Q 17.578125 1.90625 18.9375 2.609375 
Q 20.3125 3.328125 20.84375 4.515625 
Q 21.390625 5.71875 21.390625 11.671875 
L 21.390625 47.40625 
Q 21.390625 54.640625 20.90625 56.6875 
Q 20.5625 58.25 19.65625 58.984375 
Q 18.75 59.71875 17.484375 59.71875 
Q 15.671875 59.71875 12.453125 58.203125 
z
" id="TimesNewRomanPSMT-49"/>
       </defs>
       <use xlink:href="#TimesNewRomanPSMT-49"/>
       <use x="50" xlink:href="#TimesNewRomanPSMT-48"/>
       <use x="100" xlink:href="#TimesNewRomanPSMT-48"/>
      </g>
     </g>
    </g>
    <g id="text_6">
     <!-- Number of function evaluations -->
     <g transform="translate(125.799609 287.039844)scale(0.15 -0.15)">
      <defs>
       <path d="M -1.3125 66.21875 
L 16.65625 66.21875 
L 57.125 16.546875 
L 57.125 54.734375 
Q 57.125 60.84375 55.765625 62.359375 
Q 53.953125 64.40625 50.046875 64.40625 
L 47.75 64.40625 
L 47.75 66.21875 
L 70.796875 66.21875 
L 70.796875 64.40625 
L 68.453125 64.40625 
Q 64.265625 64.40625 62.5 61.859375 
Q 61.421875 60.296875 61.421875 54.734375 
L 61.421875 -1.078125 
L 59.671875 -1.078125 
L 16.015625 52.25 
L 16.015625 11.46875 
Q 16.015625 5.375 17.328125 3.859375 
Q 19.1875 1.8125 23.046875 1.8125 
L 25.390625 1.8125 
L 25.390625 0 
L 2.34375 0 
L 2.34375 1.8125 
L 4.640625 1.8125 
Q 8.890625 1.8125 10.640625 4.34375 
Q 11.71875 5.90625 11.71875 11.46875 
L 11.71875 57.515625 
Q 8.84375 60.890625 7.34375 61.953125 
Q 5.859375 63.03125 2.984375 63.96875 
Q 1.5625 64.40625 -1.3125 64.40625 
z
" id="TimesNewRomanPSMT-78"/>
       <path d="M 42.328125 44.734375 
L 42.328125 17.625 
Q 42.328125 9.859375 42.6875 8.125 
Q 43.0625 6.390625 43.859375 5.703125 
Q 44.671875 5.03125 45.75 5.03125 
Q 47.265625 5.03125 49.171875 5.859375 
L 49.859375 4.15625 
L 36.46875 -1.375 
L 34.28125 -1.375 
L 34.28125 8.109375 
Q 28.515625 1.859375 25.484375 0.234375 
Q 22.46875 -1.375 19.09375 -1.375 
Q 15.328125 -1.375 12.5625 0.796875 
Q 9.8125 2.984375 8.734375 6.390625 
Q 7.671875 9.8125 7.671875 16.0625 
L 7.671875 36.03125 
Q 7.671875 39.203125 6.984375 40.421875 
Q 6.296875 41.65625 4.953125 42.3125 
Q 3.609375 42.96875 0.09375 42.921875 
L 0.09375 44.734375 
L 15.765625 44.734375 
L 15.765625 14.796875 
Q 15.765625 8.546875 17.9375 6.59375 
Q 20.125 4.640625 23.1875 4.640625 
Q 25.296875 4.640625 27.953125 5.953125 
Q 30.609375 7.28125 34.28125 10.984375 
L 34.28125 36.328125 
Q 34.28125 40.140625 32.890625 41.484375 
Q 31.5 42.828125 27.09375 42.921875 
L 27.09375 44.734375 
z
" id="TimesNewRomanPSMT-117"/>
       <path d="M 16.40625 36.53125 
Q 21.296875 41.40625 22.171875 42.140625 
Q 24.359375 44 26.890625 45.015625 
Q 29.4375 46.046875 31.9375 46.046875 
Q 36.140625 46.046875 39.15625 43.59375 
Q 42.1875 41.15625 43.21875 36.53125 
Q 48.25 42.390625 51.703125 44.21875 
Q 55.171875 46.046875 58.84375 46.046875 
Q 62.40625 46.046875 65.15625 44.21875 
Q 67.921875 42.390625 69.53125 38.234375 
Q 70.609375 35.40625 70.609375 29.34375 
L 70.609375 10.109375 
Q 70.609375 5.90625 71.234375 4.34375 
Q 71.734375 3.265625 73.046875 2.515625 
Q 74.359375 1.765625 77.34375 1.765625 
L 77.34375 0 
L 55.28125 0 
L 55.28125 1.765625 
L 56.203125 1.765625 
Q 59.078125 1.765625 60.6875 2.875 
Q 61.8125 3.65625 62.3125 5.375 
Q 62.5 6.203125 62.5 10.109375 
L 62.5 29.34375 
Q 62.5 34.8125 61.1875 37.0625 
Q 59.28125 40.1875 55.078125 40.1875 
Q 52.484375 40.1875 49.875 38.890625 
Q 47.265625 37.59375 43.5625 34.078125 
L 43.453125 33.546875 
L 43.5625 31.453125 
L 43.5625 10.109375 
Q 43.5625 5.515625 44.0625 4.390625 
Q 44.578125 3.265625 45.984375 2.515625 
Q 47.40625 1.765625 50.828125 1.765625 
L 50.828125 0 
L 28.21875 0 
L 28.21875 1.765625 
Q 31.9375 1.765625 33.328125 2.640625 
Q 34.71875 3.515625 35.25 5.28125 
Q 35.5 6.109375 35.5 10.109375 
L 35.5 29.34375 
Q 35.5 34.8125 33.890625 37.203125 
Q 31.734375 40.328125 27.875 40.328125 
Q 25.25 40.328125 22.65625 38.921875 
Q 18.609375 36.765625 16.40625 34.078125 
L 16.40625 10.109375 
Q 16.40625 5.71875 17.015625 4.390625 
Q 17.625 3.078125 18.8125 2.421875 
Q 20.015625 1.765625 23.6875 1.765625 
L 23.6875 0 
L 1.5625 0 
L 1.5625 1.765625 
Q 4.640625 1.765625 5.859375 2.421875 
Q 7.078125 3.078125 7.703125 4.515625 
Q 8.34375 5.953125 8.34375 10.109375 
L 8.34375 27.203125 
Q 8.34375 34.578125 7.90625 36.71875 
Q 7.5625 38.328125 6.828125 38.9375 
Q 6.109375 39.546875 4.828125 39.546875 
Q 3.46875 39.546875 1.5625 38.8125 
L 0.828125 40.578125 
L 14.3125 46.046875 
L 16.40625 46.046875 
z
" id="TimesNewRomanPSMT-109"/>
       <path d="M 15.375 37.015625 
Q 21.875 46.046875 29.390625 46.046875 
Q 36.28125 46.046875 41.40625 40.15625 
Q 46.53125 34.28125 46.53125 24.078125 
Q 46.53125 12.15625 38.625 4.890625 
Q 31.84375 -1.375 23.484375 -1.375 
Q 19.578125 -1.375 15.546875 0.046875 
Q 11.53125 1.46875 7.328125 4.296875 
L 7.328125 50.640625 
Q 7.328125 58.25 6.953125 60 
Q 6.59375 61.765625 5.8125 62.390625 
Q 5.03125 63.03125 3.859375 63.03125 
Q 2.484375 63.03125 0.4375 62.25 
L -0.25 63.96875 
L 13.1875 69.4375 
L 15.375 69.4375 
z
M 15.375 33.890625 
L 15.375 7.125 
Q 17.875 4.6875 20.53125 3.4375 
Q 23.1875 2.203125 25.984375 2.203125 
Q 30.421875 2.203125 34.25 7.078125 
Q 38.09375 11.96875 38.09375 21.296875 
Q 38.09375 29.890625 34.25 34.5 
Q 30.421875 39.109375 25.53125 39.109375 
Q 22.953125 39.109375 20.359375 37.796875 
Q 18.40625 36.8125 15.375 33.890625 
z
" id="TimesNewRomanPSMT-98"/>
       <path d="M 10.640625 27.875 
Q 10.59375 17.921875 15.484375 12.25 
Q 20.359375 6.59375 26.953125 6.59375 
Q 31.34375 6.59375 34.59375 9 
Q 37.84375 11.421875 40.046875 17.28125 
L 41.546875 16.3125 
Q 40.53125 9.625 35.59375 4.125 
Q 30.671875 -1.375 23.25 -1.375 
Q 15.1875 -1.375 9.453125 4.90625 
Q 3.71875 11.1875 3.71875 21.78125 
Q 3.71875 33.25 9.59375 39.671875 
Q 15.484375 46.09375 24.359375 46.09375 
Q 31.890625 46.09375 36.71875 41.140625 
Q 41.546875 36.1875 41.546875 27.875 
z
M 10.640625 30.71875 
L 31.34375 30.71875 
Q 31.109375 35.015625 30.328125 36.765625 
Q 29.109375 39.5 26.6875 41.0625 
Q 24.265625 42.625 21.625 42.625 
Q 17.578125 42.625 14.375 39.46875 
Q 11.1875 36.328125 10.640625 30.71875 
z
" id="TimesNewRomanPSMT-101"/>
       <path d="M 16.21875 46.046875 
L 16.21875 35.984375 
Q 21.828125 46.046875 27.734375 46.046875 
Q 30.421875 46.046875 32.171875 44.40625 
Q 33.9375 42.78125 33.9375 40.625 
Q 33.9375 38.71875 32.65625 37.390625 
Q 31.390625 36.078125 29.640625 36.078125 
Q 27.9375 36.078125 25.8125 37.765625 
Q 23.6875 39.453125 22.65625 39.453125 
Q 21.78125 39.453125 20.75 38.484375 
Q 18.5625 36.46875 16.21875 31.890625 
L 16.21875 10.453125 
Q 16.21875 6.734375 17.140625 4.828125 
Q 17.78125 3.515625 19.390625 2.640625 
Q 21 1.765625 24.03125 1.765625 
L 24.03125 0 
L 1.125 0 
L 1.125 1.765625 
Q 4.546875 1.765625 6.203125 2.828125 
Q 7.421875 3.609375 7.90625 5.328125 
Q 8.15625 6.15625 8.15625 10.0625 
L 8.15625 27.390625 
Q 8.15625 35.203125 7.828125 36.6875 
Q 7.515625 38.1875 6.65625 38.859375 
Q 5.8125 39.546875 4.546875 39.546875 
Q 3.03125 39.546875 1.125 38.8125 
L 0.640625 40.578125 
L 14.15625 46.046875 
z
" id="TimesNewRomanPSMT-114"/>
       <path id="TimesNewRomanPSMT-32"/>
       <path d="M 25 46.046875 
Q 35.15625 46.046875 41.3125 38.328125 
Q 46.53125 31.734375 46.53125 23.1875 
Q 46.53125 17.1875 43.640625 11.03125 
Q 40.765625 4.890625 35.71875 1.75 
Q 30.671875 -1.375 24.46875 -1.375 
Q 14.359375 -1.375 8.40625 6.6875 
Q 3.375 13.484375 3.375 21.921875 
Q 3.375 28.078125 6.421875 34.15625 
Q 9.46875 40.234375 14.453125 43.140625 
Q 19.4375 46.046875 25 46.046875 
z
M 23.484375 42.875 
Q 20.90625 42.875 18.28125 41.328125 
Q 15.671875 39.796875 14.0625 35.9375 
Q 12.453125 32.078125 12.453125 26.03125 
Q 12.453125 16.265625 16.328125 9.171875 
Q 20.21875 2.09375 26.5625 2.09375 
Q 31.296875 2.09375 34.375 6 
Q 37.453125 9.90625 37.453125 19.4375 
Q 37.453125 31.34375 32.328125 38.1875 
Q 28.859375 42.875 23.484375 42.875 
z
" id="TimesNewRomanPSMT-111"/>
       <path d="M 20.609375 41.21875 
L 20.609375 11.8125 
Q 20.609375 5.5625 21.96875 3.90625 
Q 23.78125 1.765625 26.8125 1.765625 
L 30.859375 1.765625 
L 30.859375 0 
L 4.15625 0 
L 4.15625 1.765625 
L 6.15625 1.765625 
Q 8.109375 1.765625 9.71875 2.734375 
Q 11.328125 3.71875 11.9375 5.375 
Q 12.546875 7.03125 12.546875 11.8125 
L 12.546875 41.21875 
L 3.859375 41.21875 
L 3.859375 44.734375 
L 12.546875 44.734375 
L 12.546875 47.65625 
Q 12.546875 54.34375 14.6875 58.984375 
Q 16.84375 63.625 21.265625 66.484375 
Q 25.6875 69.34375 31.203125 69.34375 
Q 36.328125 69.34375 40.625 66.015625 
Q 43.453125 63.8125 43.453125 61.078125 
Q 43.453125 59.625 42.1875 58.328125 
Q 40.921875 57.03125 39.453125 57.03125 
Q 38.328125 57.03125 37.078125 57.828125 
Q 35.84375 58.640625 34.03125 61.296875 
Q 32.234375 63.96875 30.71875 64.890625 
Q 29.203125 65.828125 27.34375 65.828125 
Q 25.09375 65.828125 23.53125 64.625 
Q 21.96875 63.421875 21.28125 60.90625 
Q 20.609375 58.40625 20.609375 47.953125 
L 20.609375 44.734375 
L 32.125 44.734375 
L 32.125 41.21875 
z
" id="TimesNewRomanPSMT-102"/>
       <path d="M 16.15625 36.578125 
Q 24.03125 46.046875 31.15625 46.046875 
Q 34.8125 46.046875 37.453125 44.21875 
Q 40.09375 42.390625 41.65625 38.1875 
Q 42.71875 35.25 42.71875 29.203125 
L 42.71875 10.109375 
Q 42.71875 5.859375 43.40625 4.34375 
Q 43.953125 3.125 45.140625 2.4375 
Q 46.34375 1.765625 49.5625 1.765625 
L 49.5625 0 
L 27.4375 0 
L 27.4375 1.765625 
L 28.375 1.765625 
Q 31.5 1.765625 32.734375 2.703125 
Q 33.984375 3.65625 34.46875 5.515625 
Q 34.671875 6.25 34.671875 10.109375 
L 34.671875 28.421875 
Q 34.671875 34.515625 33.078125 37.28125 
Q 31.5 40.046875 27.734375 40.046875 
Q 21.921875 40.046875 16.15625 33.6875 
L 16.15625 10.109375 
Q 16.15625 5.5625 16.703125 4.5 
Q 17.390625 3.078125 18.578125 2.421875 
Q 19.78125 1.765625 23.4375 1.765625 
L 23.4375 0 
L 1.3125 0 
L 1.3125 1.765625 
L 2.296875 1.765625 
Q 5.71875 1.765625 6.90625 3.484375 
Q 8.109375 5.21875 8.109375 10.109375 
L 8.109375 26.703125 
Q 8.109375 34.765625 7.734375 36.515625 
Q 7.375 38.28125 6.609375 38.90625 
Q 5.859375 39.546875 4.59375 39.546875 
Q 3.21875 39.546875 1.3125 38.8125 
L 0.59375 40.578125 
L 14.0625 46.046875 
L 16.15625 46.046875 
z
" id="TimesNewRomanPSMT-110"/>
       <path d="M 41.109375 17 
Q 39.3125 8.15625 34.03125 3.390625 
Q 28.765625 -1.375 22.359375 -1.375 
Q 14.75 -1.375 9.078125 5.015625 
Q 3.421875 11.421875 3.421875 22.3125 
Q 3.421875 32.859375 9.6875 39.453125 
Q 15.96875 46.046875 24.75 46.046875 
Q 31.34375 46.046875 35.59375 42.546875 
Q 39.84375 39.0625 39.84375 35.296875 
Q 39.84375 33.453125 38.640625 32.296875 
Q 37.453125 31.15625 35.296875 31.15625 
Q 32.421875 31.15625 30.953125 33.015625 
Q 30.125 34.03125 29.859375 36.90625 
Q 29.59375 39.796875 27.875 41.3125 
Q 26.171875 42.78125 23.140625 42.78125 
Q 18.265625 42.78125 15.28125 39.15625 
Q 11.328125 34.375 11.328125 26.515625 
Q 11.328125 18.5 15.25 12.375 
Q 19.1875 6.25 25.875 6.25 
Q 30.671875 6.25 34.46875 9.515625 
Q 37.15625 11.765625 39.703125 17.671875 
z
" id="TimesNewRomanPSMT-99"/>
       <path d="M 16.109375 59.421875 
L 16.109375 44.734375 
L 26.5625 44.734375 
L 26.5625 41.3125 
L 16.109375 41.3125 
L 16.109375 12.3125 
Q 16.109375 7.953125 17.359375 6.4375 
Q 18.609375 4.9375 20.5625 4.9375 
Q 22.171875 4.9375 23.6875 5.9375 
Q 25.203125 6.9375 26.03125 8.890625 
L 27.9375 8.890625 
Q 26.21875 4.109375 23.09375 1.6875 
Q 19.96875 -0.734375 16.65625 -0.734375 
Q 14.40625 -0.734375 12.25 0.515625 
Q 10.109375 1.765625 9.078125 4.078125 
Q 8.0625 6.390625 8.0625 11.234375 
L 8.0625 41.3125 
L 0.984375 41.3125 
L 0.984375 42.921875 
Q 3.65625 44 6.46875 46.5625 
Q 9.28125 49.125 11.46875 52.640625 
Q 12.59375 54.5 14.59375 59.421875 
z
" id="TimesNewRomanPSMT-116"/>
       <path d="M 14.5 69.4375 
Q 16.546875 69.4375 17.984375 67.984375 
Q 19.4375 66.546875 19.4375 64.5 
Q 19.4375 62.453125 17.984375 60.984375 
Q 16.546875 59.515625 14.5 59.515625 
Q 12.453125 59.515625 10.984375 60.984375 
Q 9.515625 62.453125 9.515625 64.5 
Q 9.515625 66.546875 10.953125 67.984375 
Q 12.40625 69.4375 14.5 69.4375 
z
M 18.5625 46.046875 
L 18.5625 10.109375 
Q 18.5625 5.90625 19.171875 4.515625 
Q 19.78125 3.125 20.96875 2.4375 
Q 22.171875 1.765625 25.34375 1.765625 
L 25.34375 0 
L 3.609375 0 
L 3.609375 1.765625 
Q 6.890625 1.765625 8 2.390625 
Q 9.125 3.03125 9.78125 4.484375 
Q 10.453125 5.953125 10.453125 10.109375 
L 10.453125 27.34375 
Q 10.453125 34.625 10.015625 36.765625 
Q 9.671875 38.328125 8.9375 38.9375 
Q 8.203125 39.546875 6.9375 39.546875 
Q 5.5625 39.546875 3.609375 38.8125 
L 2.9375 40.578125 
L 16.40625 46.046875 
z
" id="TimesNewRomanPSMT-105"/>
       <path d="M 0.828125 44.734375 
L 21.875 44.734375 
L 21.875 42.921875 
L 20.515625 42.921875 
Q 18.609375 42.921875 17.609375 41.984375 
Q 16.609375 41.0625 16.609375 39.5 
Q 16.609375 37.796875 17.625 35.453125 
L 28.03125 10.75 
L 38.484375 36.375 
Q 39.59375 39.109375 39.59375 40.53125 
Q 39.59375 41.21875 39.203125 41.65625 
Q 38.671875 42.390625 37.84375 42.65625 
Q 37.015625 42.921875 34.46875 42.921875 
L 34.46875 44.734375 
L 49.078125 44.734375 
L 49.078125 42.921875 
Q 46.53125 42.71875 45.5625 41.890625 
Q 43.84375 40.4375 42.484375 37.015625 
L 26.609375 -1.375 
L 24.609375 -1.375 
L 8.640625 36.375 
Q 7.5625 39.015625 6.578125 40.15625 
Q 5.609375 41.3125 4.109375 42.09375 
Q 3.265625 42.53125 0.828125 42.921875 
z
" id="TimesNewRomanPSMT-118"/>
       <path d="M 28.46875 6.453125 
Q 21.578125 1.125 19.828125 0.296875 
Q 17.1875 -0.921875 14.203125 -0.921875 
Q 9.578125 -0.921875 6.5625 2.25 
Q 3.5625 5.421875 3.5625 10.59375 
Q 3.5625 13.875 5.03125 16.265625 
Q 7.03125 19.578125 11.984375 22.5 
Q 16.9375 25.4375 28.46875 29.640625 
L 28.46875 31.390625 
Q 28.46875 38.09375 26.34375 40.578125 
Q 24.21875 43.0625 20.171875 43.0625 
Q 17.09375 43.0625 15.28125 41.40625 
Q 13.421875 39.75 13.421875 37.59375 
L 13.53125 34.765625 
Q 13.53125 32.515625 12.375 31.296875 
Q 11.234375 30.078125 9.375 30.078125 
Q 7.5625 30.078125 6.421875 31.34375 
Q 5.28125 32.625 5.28125 34.8125 
Q 5.28125 39.015625 9.578125 42.53125 
Q 13.875 46.046875 21.625 46.046875 
Q 27.59375 46.046875 31.390625 44.046875 
Q 34.28125 42.53125 35.640625 39.3125 
Q 36.53125 37.203125 36.53125 30.71875 
L 36.53125 15.53125 
Q 36.53125 9.125 36.765625 7.6875 
Q 37.015625 6.25 37.578125 5.765625 
Q 38.140625 5.28125 38.875 5.28125 
Q 39.65625 5.28125 40.234375 5.609375 
Q 41.265625 6.25 44.1875 9.1875 
L 44.1875 6.453125 
Q 38.71875 -0.875 33.734375 -0.875 
Q 31.34375 -0.875 29.921875 0.78125 
Q 28.515625 2.4375 28.46875 6.453125 
z
M 28.46875 9.625 
L 28.46875 26.65625 
Q 21.09375 23.734375 18.953125 22.515625 
Q 15.09375 20.359375 13.421875 18.015625 
Q 11.765625 15.671875 11.765625 12.890625 
Q 11.765625 9.375 13.859375 7.046875 
Q 15.96875 4.734375 18.703125 4.734375 
Q 22.40625 4.734375 28.46875 9.625 
z
" id="TimesNewRomanPSMT-97"/>
       <path d="M 18.5 69.4375 
L 18.5 10.109375 
Q 18.5 5.90625 19.109375 4.53125 
Q 19.734375 3.171875 21 2.46875 
Q 22.265625 1.765625 25.734375 1.765625 
L 25.734375 0 
L 3.8125 0 
L 3.8125 1.765625 
Q 6.890625 1.765625 8 2.390625 
Q 9.125 3.03125 9.765625 4.484375 
Q 10.40625 5.953125 10.40625 10.109375 
L 10.40625 50.734375 
Q 10.40625 58.296875 10.0625 60.03125 
Q 9.71875 61.765625 8.953125 62.390625 
Q 8.203125 63.03125 7.03125 63.03125 
Q 5.765625 63.03125 3.8125 62.25 
L 2.984375 63.96875 
L 16.3125 69.4375 
z
" id="TimesNewRomanPSMT-108"/>
       <path d="M 32.03125 46.046875 
L 32.03125 30.8125 
L 30.421875 30.8125 
Q 28.5625 37.984375 25.65625 40.578125 
Q 22.75 43.171875 18.265625 43.171875 
Q 14.84375 43.171875 12.734375 41.359375 
Q 10.640625 39.546875 10.640625 37.359375 
Q 10.640625 34.625 12.203125 32.671875 
Q 13.71875 30.671875 18.359375 28.421875 
L 25.484375 24.953125 
Q 35.40625 20.125 35.40625 12.203125 
Q 35.40625 6.109375 30.78125 2.359375 
Q 26.171875 -1.375 20.453125 -1.375 
Q 16.359375 -1.375 11.078125 0.09375 
Q 9.46875 0.59375 8.453125 0.59375 
Q 7.328125 0.59375 6.6875 -0.6875 
L 5.078125 -0.6875 
L 5.078125 15.28125 
L 6.6875 15.28125 
Q 8.0625 8.453125 11.90625 4.984375 
Q 15.765625 1.515625 20.5625 1.515625 
Q 23.921875 1.515625 26.046875 3.484375 
Q 28.171875 5.46875 28.171875 8.25 
Q 28.171875 11.625 25.796875 13.921875 
Q 23.4375 16.21875 16.359375 19.734375 
Q 9.28125 23.25 7.078125 26.078125 
Q 4.890625 28.859375 4.890625 33.109375 
Q 4.890625 38.625 8.671875 42.328125 
Q 12.453125 46.046875 18.453125 46.046875 
Q 21.09375 46.046875 24.859375 44.921875 
Q 27.34375 44.1875 28.171875 44.1875 
Q 28.953125 44.1875 29.390625 44.53125 
Q 29.828125 44.875 30.421875 46.046875 
z
" id="TimesNewRomanPSMT-115"/>
      </defs>
      <use xlink:href="#TimesNewRomanPSMT-78"/>
      <use x="72.216797" xlink:href="#TimesNewRomanPSMT-117"/>
      <use x="122.216797" xlink:href="#TimesNewRomanPSMT-109"/>
      <use x="200" xlink:href="#TimesNewRomanPSMT-98"/>
      <use x="250" xlink:href="#TimesNewRomanPSMT-101"/>
      <use x="294.384766" xlink:href="#TimesNewRomanPSMT-114"/>
      <use x="327.685547" xlink:href="#TimesNewRomanPSMT-32"/>
      <use x="352.685547" xlink:href="#TimesNewRomanPSMT-111"/>
      <use x="402.685547" xlink:href="#TimesNewRomanPSMT-102"/>
      <use x="435.986328" xlink:href="#TimesNewRomanPSMT-32"/>
      <use x="460.986328" xlink:href="#TimesNewRomanPSMT-102"/>
      <use x="494.287109" xlink:href="#TimesNewRomanPSMT-117"/>
      <use x="544.287109" xlink:href="#TimesNewRomanPSMT-110"/>
      <use x="594.287109" xlink:href="#TimesNewRomanPSMT-99"/>
      <use x="638.671875" xlink:href="#TimesNewRomanPSMT-116"/>
      <use x="666.455078" xlink:href="#TimesNewRomanPSMT-105"/>
      <use x="694.238281" xlink:href="#TimesNewRomanPSMT-111"/>
      <use x="744.238281" xlink:href="#TimesNewRomanPSMT-110"/>
      <use x="794.238281" xlink:href="#TimesNewRomanPSMT-32"/>
      <use x="819.238281" xlink:href="#TimesNewRomanPSMT-101"/>
      <use x="863.623047" xlink:href="#TimesNewRomanPSMT-118"/>
      <use x="913.623047" xlink:href="#TimesNewRomanPSMT-97"/>
      <use x="958.007812" xlink:href="#TimesNewRomanPSMT-108"/>
      <use x="985.791016" xlink:href="#TimesNewRomanPSMT-117"/>
      <use x="1035.791016" xlink:href="#TimesNewRomanPSMT-97"/>
      <use x="1080.175781" xlink:href="#TimesNewRomanPSMT-116"/>
      <use x="1107.958984" xlink:href="#TimesNewRomanPSMT-105"/>
      <use x="1135.742188" xlink:href="#TimesNewRomanPSMT-111"/>
      <use x="1185.742188" xlink:href="#TimesNewRomanPSMT-110"/>
      <use x="1235.742188" xlink:href="#TimesNewRomanPSMT-115"/>
     </g>
    </g>
   </g>
   <g id="matplotlib.axis_2">
    <g id="ytick_1">
     <g id="line2d_6">
      <defs>
       <path d="M 0 0 
L -3.5 0 
" id="m5d6e905209" style="stroke:#000000;stroke-width:0.8;"/>
      </defs>
      <g>
       <use style="stroke:#000000;stroke-width:0.8;" x="54" xlink:href="#m5d6e905209" y="238.41"/>
      </g>
     </g>
     <g id="text_7">
      <!-- 75 -->
      <g transform="translate(23.541406 243.617813)scale(0.15 -0.15)">
       <defs>
        <path d="M 54.4375 31.25 
L 1.8125 31.25 
L 1.8125 35.25 
L 54.4375 35.25 
z
" id="TimesNewRomanPSMT-8722"/>
        <path d="M 10.0625 66.21875 
L 45.5625 66.21875 
L 45.5625 64.359375 
L 23.484375 -1.375 
L 18.015625 -1.375 
L 37.796875 58.25 
L 19.578125 58.25 
Q 14.0625 58.25 11.71875 56.9375 
Q 7.625 54.6875 5.125 50 
L 3.71875 50.53125 
z
" id="TimesNewRomanPSMT-55"/>
        <path d="M 43.40625 66.21875 
L 39.59375 57.90625 
L 19.671875 57.90625 
L 15.328125 49.03125 
Q 28.265625 47.125 35.84375 39.40625 
Q 42.328125 32.765625 42.328125 23.78125 
Q 42.328125 18.5625 40.203125 14.109375 
Q 38.09375 9.671875 34.859375 6.546875 
Q 31.640625 3.421875 27.6875 1.515625 
Q 22.078125 -1.171875 16.15625 -1.171875 
Q 10.203125 -1.171875 7.484375 0.84375 
Q 4.78125 2.875 4.78125 5.328125 
Q 4.78125 6.6875 5.90625 7.734375 
Q 7.03125 8.796875 8.734375 8.796875 
Q 10.015625 8.796875 10.96875 8.40625 
Q 11.921875 8.015625 14.203125 6.390625 
Q 17.875 3.859375 21.625 3.859375 
Q 27.34375 3.859375 31.65625 8.171875 
Q 35.984375 12.5 35.984375 18.703125 
Q 35.984375 24.703125 32.125 29.90625 
Q 28.265625 35.109375 21.484375 37.9375 
Q 16.15625 40.140625 6.984375 40.484375 
L 19.671875 66.21875 
z
" id="TimesNewRomanPSMT-53"/>
       </defs>
       <use xlink:href="#TimesNewRomanPSMT-8722"/>
       <use x="56.396484" xlink:href="#TimesNewRomanPSMT-55"/>
       <use x="106.396484" xlink:href="#TimesNewRomanPSMT-53"/>
      </g>
     </g>
    </g>
    <g id="ytick_2">
     <g id="line2d_7">
      <g>
       <use style="stroke:#000000;stroke-width:0.8;" x="54" xlink:href="#m5d6e905209" y="204.435"/>
      </g>
     </g>
     <g id="text_8">
      <!-- 50 -->
      <g transform="translate(23.541406 209.642813)scale(0.15 -0.15)">
       <use xlink:href="#TimesNewRomanPSMT-8722"/>
       <use x="56.396484" xlink:href="#TimesNewRomanPSMT-53"/>
       <use x="106.396484" xlink:href="#TimesNewRomanPSMT-48"/>
      </g>
     </g>
    </g>
    <g id="ytick_3">
     <g id="line2d_8">
      <g>
       <use style="stroke:#000000;stroke-width:0.8;" x="54" xlink:href="#m5d6e905209" y="170.46"/>
      </g>
     </g>
     <g id="text_9">
      <!-- 25 -->
      <g transform="translate(23.541406 175.667813)scale(0.15 -0.15)">
       <use xlink:href="#TimesNewRomanPSMT-8722"/>
       <use x="56.396484" xlink:href="#TimesNewRomanPSMT-50"/>
       <use x="106.396484" xlink:href="#TimesNewRomanPSMT-53"/>
      </g>
     </g>
    </g>
    <g id="ytick_4">
     <g id="line2d_9">
      <g>
       <use style="stroke:#000000;stroke-width:0.8;" x="54" xlink:href="#m5d6e905209" y="136.485"/>
      </g>
     </g>
     <g id="text_10">
      <!-- 0 -->
      <g transform="translate(39.5 141.692813)scale(0.15 -0.15)">
       <use xlink:href="#TimesNewRomanPSMT-48"/>
      </g>
     </g>
    </g>
    <g id="ytick_5">
     <g id="line2d_10">
      <g>
       <use style="stroke:#000000;stroke-width:0.8;" x="54" xlink:href="#m5d6e905209" y="102.51"/>
      </g>
     </g>
     <g id="text_11">
      <!-- 25 -->
      <g transform="translate(32 107.717813)scale(0.15 -0.15)">
       <use xlink:href="#TimesNewRomanPSMT-50"/>
       <use x="50" xlink:href="#TimesNewRomanPSMT-53"/>
      </g>
     </g>
    </g>
    <g id="ytick_6">
     <g id="line2d_11">
      <g>
       <use style="stroke:#000000;stroke-width:0.8;" x="54" xlink:href="#m5d6e905209" y="68.535"/>
      </g>
     </g>
     <g id="text_12">
      <!-- 50 -->
      <g transform="translate(32 73.742813)scale(0.15 -0.15)">
       <use xlink:href="#TimesNewRomanPSMT-53"/>
       <use x="50" xlink:href="#TimesNewRomanPSMT-48"/>
      </g>
     </g>
    </g>
    <g id="ytick_7">
     <g id="line2d_12">
      <g>
       <use style="stroke:#000000;stroke-width:0.8;" x="54" xlink:href="#m5d6e905209" y="34.56"/>
      </g>
     </g>
     <g id="text_13">
      <!-- 75 -->
      <g transform="translate(32 39.767812)scale(0.15 -0.15)">
       <use xlink:href="#TimesNewRomanPSMT-55"/>
       <use x="50" xlink:href="#TimesNewRomanPSMT-53"/>
      </g>
     </g>
    </g>
    <g id="text_14">
     <!-- Best function evaluation -->
     <g transform="translate(16.332812 216.597188)rotate(-90)scale(0.15 -0.15)">
      <defs>
       <path d="M 46.1875 33.796875 
Q 53.078125 32.328125 56.5 29.109375 
Q 61.234375 24.609375 61.234375 18.109375 
Q 61.234375 13.1875 58.109375 8.671875 
Q 54.984375 4.15625 49.53125 2.078125 
Q 44.09375 0 32.90625 0 
L 1.65625 0 
L 1.65625 1.8125 
L 4.15625 1.8125 
Q 8.296875 1.8125 10.109375 4.4375 
Q 11.234375 6.15625 11.234375 11.71875 
L 11.234375 54.5 
Q 11.234375 60.640625 9.8125 62.25 
Q 7.90625 64.40625 4.15625 64.40625 
L 1.65625 64.40625 
L 1.65625 66.21875 
L 30.28125 66.21875 
Q 38.28125 66.21875 43.109375 65.046875 
Q 50.4375 63.28125 54.296875 58.8125 
Q 58.15625 54.34375 58.15625 48.53125 
Q 58.15625 43.5625 55.125 39.625 
Q 52.09375 35.6875 46.1875 33.796875 
z
M 20.609375 36.421875 
Q 22.40625 36.078125 24.71875 35.90625 
Q 27.046875 35.75 29.828125 35.75 
Q 36.96875 35.75 40.546875 37.28125 
Q 44.140625 38.8125 46.046875 41.984375 
Q 47.953125 45.171875 47.953125 48.921875 
Q 47.953125 54.734375 43.21875 58.828125 
Q 38.484375 62.9375 29.390625 62.9375 
Q 24.515625 62.9375 20.609375 61.859375 
z
M 20.609375 4.78125 
Q 26.265625 3.46875 31.78125 3.46875 
Q 40.625 3.46875 45.265625 7.4375 
Q 49.90625 11.421875 49.90625 17.28125 
Q 49.90625 21.140625 47.796875 24.703125 
Q 45.703125 28.265625 40.96875 30.3125 
Q 36.234375 32.375 29.25 32.375 
Q 26.21875 32.375 24.0625 32.265625 
Q 21.921875 32.171875 20.609375 31.9375 
z
" id="TimesNewRomanPSMT-66"/>
      </defs>
      <use xlink:href="#TimesNewRomanPSMT-66"/>
      <use x="66.699219" xlink:href="#TimesNewRomanPSMT-101"/>
      <use x="111.083984" xlink:href="#TimesNewRomanPSMT-115"/>
      <use x="150" xlink:href="#TimesNewRomanPSMT-116"/>
      <use x="177.783203" xlink:href="#TimesNewRomanPSMT-32"/>
      <use x="202.783203" xlink:href="#TimesNewRomanPSMT-102"/>
      <use x="236.083984" xlink:href="#TimesNewRomanPSMT-117"/>
      <use x="286.083984" xlink:href="#TimesNewRomanPSMT-110"/>
      <use x="336.083984" xlink:href="#TimesNewRomanPSMT-99"/>
      <use x="380.46875" xlink:href="#TimesNewRomanPSMT-116"/>
      <use x="408.251953" xlink:href="#TimesNewRomanPSMT-105"/>
      <use x="436.035156" xlink:href="#TimesNewRomanPSMT-111"/>
      <use x="486.035156" xlink:href="#TimesNewRomanPSMT-110"/>
      <use x="536.035156" xlink:href="#TimesNewRomanPSMT-32"/>
      <use x="561.035156" xlink:href="#TimesNewRomanPSMT-101"/>
      <use x="605.419922" xlink:href="#TimesNewRomanPSMT-118"/>
      <use x="655.419922" xlink:href="#TimesNewRomanPSMT-97"/>
      <use x="699.804688" xlink:href="#TimesNewRomanPSMT-108"/>
      <use x="727.587891" xlink:href="#TimesNewRomanPSMT-117"/>
      <use x="777.587891" xlink:href="#TimesNewRomanPSMT-97"/>
      <use x="821.972656" xlink:href="#TimesNewRomanPSMT-116"/>
      <use x="849.755859" xlink:href="#TimesNewRomanPSMT-105"/>
      <use x="877.539062" xlink:href="#TimesNewRomanPSMT-111"/>
      <use x="927.539062" xlink:href="#TimesNewRomanPSMT-110"/>
     </g>
    </g>
   </g>
   <g id="line2d_13">
    <path clip-path="url(#paeb53d1cb1)" d="M 54 47.272008 
L 70.909091 47.272008 
L 70.909091 47.714959 
L 81.054545 47.714959 
L 81.054545 50.54638 
L 91.2 50.54638 
L 91.2 52.936698 
L 101.345455 52.936698 
L 101.345455 54.920639 
L 111.490909 54.920639 
L 111.490909 55.144002 
L 121.636364 55.144002 
L 121.636364 56.067512 
L 131.781818 56.067512 
L 131.781818 56.496983 
L 141.927273 56.496983 
L 141.927273 57.408349 
L 152.072727 57.408349 
L 152.072727 58.569133 
L 162.218182 58.569133 
L 162.218182 59.077379 
L 172.363636 59.077379 
L 172.363636 60.442361 
L 182.509091 60.442361 
L 182.509091 60.876714 
L 192.654545 60.876714 
L 192.654545 61.361431 
L 202.8 61.361431 
L 202.8 62.639185 
L 212.945455 62.639185 
L 212.945455 64.024644 
L 223.090909 64.024644 
L 223.090909 64.554733 
L 233.236364 64.554733 
L 233.236364 65.84249 
L 243.381818 65.84249 
L 243.381818 66.678475 
L 253.527273 66.678475 
L 253.527273 67.96407 
L 263.672727 67.96407 
L 263.672727 69.536457 
L 273.818182 69.536457 
L 273.818182 70.061121 
L 283.963636 70.061121 
L 283.963636 72.16247 
L 294.109091 72.16247 
L 294.109091 73.300218 
L 304.254545 73.300218 
L 304.254545 74.234163 
L 314.4 74.234163 
L 314.4 74.455205 
L 324.545455 74.455205 
L 324.545455 76.315146 
L 344.836364 76.419971 
L 344.836364 77.459019 
L 354.981818 77.459019 
L 354.981818 78.9926 
L 365.127273 78.9926 
L 365.127273 79.232894 
L 375.272727 79.232894 
L 375.272727 81.937119 
L 388.8 81.999775 
L 388.8 81.999775 
" style="fill:none;stroke:#a52a2a;stroke-linecap:square;stroke-width:1.5;"/>
   </g>
   <g id="line2d_14">
    <path clip-path="url(#paeb53d1cb1)" d="M 54 47.218739 
L 81.054545 47.218739 
L 81.054545 187.727435 
L 94.581818 187.727435 
L 94.581818 187.878189 
L 101.345455 187.878189 
L 101.345455 188.153064 
L 104.727273 188.153064 
L 104.727273 198.979594 
L 111.490909 198.979594 
L 111.490909 200.692333 
L 121.636364 200.692333 
L 121.636364 201.57205 
L 131.781818 201.57205 
L 131.781818 206.266137 
L 138.545455 206.266137 
L 138.545455 208.996898 
L 152.072727 208.996898 
L 152.072727 214.554707 
L 162.218182 214.554707 
L 162.218182 217.455161 
L 165.6 217.455161 
L 165.6 225.965445 
L 168.981818 225.965445 
L 168.981818 228.42095 
L 172.363636 228.42095 
L 172.363636 229.057066 
L 182.509091 229.057066 
L 182.509091 230.330761 
L 189.272727 230.330761 
L 189.272727 232.703289 
L 192.654545 232.703289 
L 192.654545 233.19074 
L 206.181818 233.291124 
L 206.181818 234.451945 
L 212.945455 234.451945 
L 212.945455 235.950721 
L 216.327273 235.950721 
L 216.327273 236.099791 
L 223.090909 236.099791 
L 223.090909 236.459651 
L 236.618182 236.54632 
L 236.618182 237.083955 
L 250.145455 237.083955 
L 250.145455 238.031878 
L 270.436364 238.047024 
L 270.436364 238.293671 
L 297.490909 238.293671 
L 297.490909 238.489253 
L 388.8 238.489253 
L 388.8 238.489253 
" style="fill:none;stroke:#008000;stroke-linecap:square;stroke-width:1.5;"/>
   </g>
   <g id="line2d_15">
    <path clip-path="url(#paeb53d1cb1)" d="M 77.672727 -1 
L 77.672727 133.402639 
L 108.109091 133.402639 
L 108.109091 133.762835 
L 135.163636 133.762835 
L 135.163636 134.171332 
L 158.836364 134.171332 
L 158.836364 134.597334 
L 185.890909 134.597334 
L 185.890909 134.820597 
L 216.327273 134.820597 
L 216.327273 134.866356 
L 246.763636 134.866356 
L 246.763636 134.909844 
L 280.581818 134.909844 
L 280.581818 134.922349 
L 314.4 134.922349 
L 314.4 134.932797 
L 348.218182 134.932797 
L 348.218182 134.943141 
L 382.036364 134.943141 
L 382.036364 134.950444 
L 415.854545 134.950444 
L 415.854545 134.958066 
" style="fill:none;stroke:#000000;stroke-linecap:square;stroke-width:1.5;"/>
   </g>
   <g id="line2d_16">
    <path clip-path="url(#paeb53d1cb1)" d="M 70.909091 -1 
L 70.909091 120.14982 
L 84.436364 120.14982 
L 84.436364 131.032288 
L 111.490909 131.032288 
L 111.490909 131.038385 
L 138.545455 131.038385 
L 138.545455 131.038385 
L 158.836364 131.038385 
L 158.836364 131.050236 
L 179.127273 131.050236 
L 179.127273 131.065009 
L 199.418182 131.065009 
L 199.418182 131.074172 
L 216.327273 131.074172 
L 216.327273 131.139777 
L 236.618182 131.139777 
L 236.618182 131.158966 
L 246.763636 131.158966 
L 246.763636 132.159977 
L 267.054545 132.159977 
L 267.054545 132.229547 
L 287.345455 132.229547 
L 287.345455 132.251239 
L 304.254545 132.251239 
L 304.254545 132.291695 
L 324.545455 132.291695 
L 324.545455 132.322735 
L 344.836364 132.322735 
L 344.836364 132.331786 
L 354.981818 132.331786 
L 354.981818 133.711089 
L 371.890909 133.711089 
L 371.890909 133.794335 
L 385.418182 133.794335 
L 385.418182 133.967982 
L 402.327273 133.967982 
L 402.327273 134.055866 
" style="fill:none;stroke:#0000ff;stroke-linecap:square;stroke-width:1.5;"/>
   </g>
   <g id="line2d_17">
    <path clip-path="url(#paeb53d1cb1)" d="M 54 47.218739 
L 57.381818 47.218739 
L 57.381818 203.81854 
L 97.963636 203.81854 
L 97.963636 215.800502 
L 104.727273 215.800502 
L 104.727273 225.310073 
L 125.018182 225.310073 
L 125.018182 225.861697 
L 138.545455 225.861697 
L 138.545455 229.549308 
L 145.309091 229.549308 
L 145.309091 229.667555 
L 206.181818 229.667555 
L 206.181818 230.981164 
L 233.236364 231.044781 
L 233.236364 231.690116 
L 388.8 231.690116 
L 388.8 231.690116 
" style="fill:none;stroke:#ee82ee;stroke-linecap:square;stroke-width:1.5;"/>
   </g>
   <g id="patch_3">
    <path d="M 54 252 
L 54 34.56 
" style="fill:none;stroke:#000000;stroke-linecap:square;stroke-linejoin:miter;stroke-width:0.8;"/>
   </g>
   <g id="patch_4">
    <path d="M 388.8 252 
L 388.8 34.56 
" style="fill:none;stroke:#000000;stroke-linecap:square;stroke-linejoin:miter;stroke-width:0.8;"/>
   </g>
   <g id="patch_5">
    <path d="M 54 252 
L 388.8 252 
" style="fill:none;stroke:#000000;stroke-linecap:square;stroke-linejoin:miter;stroke-width:0.8;"/>
   </g>
   <g id="patch_6">
    <path d="M 54 34.56 
L 388.8 34.56 
" style="fill:none;stroke:#000000;stroke-linecap:square;stroke-linejoin:miter;stroke-width:0.8;"/>
   </g>
   <g id="legend_1">
    <g id="patch_7">
     <path d="M 294.915234 132.929141 
L 380.05 132.929141 
Q 382.55 132.929141 382.55 130.429141 
L 382.55 43.31 
Q 382.55 40.81 380.05 40.81 
L 294.915234 40.81 
Q 292.415234 40.81 292.415234 43.31 
L 292.415234 130.429141 
Q 292.415234 132.929141 294.915234 132.929141 
z
" style="fill:#ffffff;opacity:0.8;stroke:#cccccc;stroke-linejoin:miter;"/>
    </g>
    <g id="line2d_18">
     <path d="M 297.415234 50.185 
L 322.415234 50.185 
" style="fill:none;stroke:#a52a2a;stroke-linecap:square;stroke-width:1.5;"/>
    </g>
    <g id="line2d_19"/>
    <g id="text_15">
     <!-- Nesterov -->
     <g transform="translate(332.415234 54.56)scale(0.125 -0.125)">
      <use xlink:href="#TimesNewRomanPSMT-78"/>
      <use x="72.216797" xlink:href="#TimesNewRomanPSMT-101"/>
      <use x="116.601562" xlink:href="#TimesNewRomanPSMT-115"/>
      <use x="155.517578" xlink:href="#TimesNewRomanPSMT-116"/>
      <use x="183.300781" xlink:href="#TimesNewRomanPSMT-101"/>
      <use x="227.685547" xlink:href="#TimesNewRomanPSMT-114"/>
      <use x="260.986328" xlink:href="#TimesNewRomanPSMT-111"/>
      <use x="310.986328" xlink:href="#TimesNewRomanPSMT-118"/>
     </g>
    </g>
    <g id="line2d_20">
     <path d="M 297.415234 67.858828 
L 322.415234 67.858828 
" style="fill:none;stroke:#008000;stroke-linecap:square;stroke-width:1.5;"/>
    </g>
    <g id="line2d_21"/>
    <g id="text_16">
     <!-- Simplex -->
     <g transform="translate(332.415234 72.233828)scale(0.125 -0.125)">
      <defs>
       <path d="M 45.84375 67.71875 
L 45.84375 44.828125 
L 44.046875 44.828125 
Q 43.171875 51.421875 40.890625 55.328125 
Q 38.625 59.234375 34.421875 61.515625 
Q 30.21875 63.8125 25.734375 63.8125 
Q 20.65625 63.8125 17.328125 60.71875 
Q 14.015625 57.625 14.015625 53.65625 
Q 14.015625 50.640625 16.109375 48.140625 
Q 19.140625 44.484375 30.515625 38.375 
Q 39.796875 33.40625 43.1875 30.734375 
Q 46.578125 28.078125 48.40625 24.453125 
Q 50.25 20.84375 50.25 16.890625 
Q 50.25 9.375 44.40625 3.921875 
Q 38.578125 -1.515625 29.390625 -1.515625 
Q 26.515625 -1.515625 23.96875 -1.078125 
Q 22.46875 -0.828125 17.703125 0.703125 
Q 12.9375 2.25 11.671875 2.25 
Q 10.453125 2.25 9.734375 1.515625 
Q 9.03125 0.78125 8.6875 -1.515625 
L 6.890625 -1.515625 
L 6.890625 21.1875 
L 8.6875 21.1875 
Q 9.96875 14.0625 12.109375 10.515625 
Q 14.265625 6.984375 18.671875 4.640625 
Q 23.09375 2.296875 28.375 2.296875 
Q 34.46875 2.296875 38 5.515625 
Q 41.546875 8.734375 41.546875 13.140625 
Q 41.546875 15.578125 40.203125 18.0625 
Q 38.875 20.5625 36.03125 22.703125 
Q 34.125 24.171875 25.625 28.921875 
Q 17.140625 33.6875 13.546875 36.515625 
Q 9.96875 39.359375 8.109375 42.765625 
Q 6.25 46.1875 6.25 50.296875 
Q 6.25 57.421875 11.71875 62.5625 
Q 17.1875 67.71875 25.640625 67.71875 
Q 30.90625 67.71875 36.8125 65.140625 
Q 39.546875 63.921875 40.671875 63.921875 
Q 41.9375 63.921875 42.75 64.671875 
Q 43.5625 65.4375 44.046875 67.71875 
z
" id="TimesNewRomanPSMT-83"/>
       <path d="M -0.09375 40.28125 
L 13.671875 45.84375 
L 15.53125 45.84375 
L 15.53125 35.40625 
Q 19 41.3125 22.484375 43.671875 
Q 25.984375 46.046875 29.828125 46.046875 
Q 36.578125 46.046875 41.0625 40.765625 
Q 46.578125 34.328125 46.578125 23.96875 
Q 46.578125 12.40625 39.9375 4.828125 
Q 34.46875 -1.375 26.171875 -1.375 
Q 22.5625 -1.375 19.921875 -0.34375 
Q 17.96875 0.390625 15.53125 2.59375 
L 15.53125 -11.03125 
Q 15.53125 -15.625 16.09375 -16.859375 
Q 16.65625 -18.109375 18.046875 -18.84375 
Q 19.4375 -19.578125 23.09375 -19.578125 
L 23.09375 -21.390625 
L -0.34375 -21.390625 
L -0.34375 -19.578125 
L 0.875 -19.578125 
Q 3.5625 -19.625 5.46875 -18.5625 
Q 6.390625 -18.015625 6.90625 -16.8125 
Q 7.421875 -15.625 7.421875 -10.75 
L 7.421875 31.546875 
Q 7.421875 35.890625 7.03125 37.0625 
Q 6.640625 38.234375 5.78125 38.8125 
Q 4.9375 39.40625 3.46875 39.40625 
Q 2.296875 39.40625 0.484375 38.71875 
z
M 15.53125 32.515625 
L 15.53125 15.828125 
Q 15.53125 10.40625 15.96875 8.6875 
Q 16.65625 5.859375 19.3125 3.703125 
Q 21.96875 1.5625 26.03125 1.5625 
Q 30.90625 1.5625 33.9375 5.375 
Q 37.890625 10.359375 37.890625 19.390625 
Q 37.890625 29.640625 33.40625 35.15625 
Q 30.28125 38.96875 25.984375 38.96875 
Q 23.640625 38.96875 21.34375 37.796875 
Q 19.578125 36.921875 15.53125 32.515625 
z
" id="TimesNewRomanPSMT-112"/>
       <path d="M 1.3125 44.734375 
L 22.359375 44.734375 
L 22.359375 42.921875 
Q 20.359375 42.921875 19.546875 42.234375 
Q 18.75 41.546875 18.75 40.4375 
Q 18.75 39.265625 20.453125 36.8125 
Q 21 36.03125 22.078125 34.375 
L 25.25 29.296875 
L 28.90625 34.375 
Q 32.421875 39.203125 32.421875 40.484375 
Q 32.421875 41.5 31.59375 42.203125 
Q 30.765625 42.921875 28.90625 42.921875 
L 28.90625 44.734375 
L 44.046875 44.734375 
L 44.046875 42.921875 
Q 41.65625 42.78125 39.890625 41.609375 
Q 37.5 39.9375 33.34375 34.375 
L 27.25 26.21875 
L 38.375 10.203125 
Q 42.484375 4.296875 44.234375 3.09375 
Q 46 1.90625 48.78125 1.765625 
L 48.78125 0 
L 27.6875 0 
L 27.6875 1.765625 
Q 29.890625 1.765625 31.109375 2.734375 
Q 32.03125 3.421875 32.03125 4.546875 
Q 32.03125 5.671875 28.90625 10.203125 
L 22.359375 19.78125 
L 15.1875 10.203125 
Q 11.859375 5.765625 11.859375 4.9375 
Q 11.859375 3.765625 12.953125 2.8125 
Q 14.0625 1.859375 16.265625 1.765625 
L 16.265625 0 
L 1.65625 0 
L 1.65625 1.765625 
Q 3.421875 2 4.734375 2.984375 
Q 6.59375 4.390625 10.984375 10.203125 
L 20.359375 22.65625 
L 11.859375 34.96875 
Q 8.25 40.234375 6.265625 41.578125 
Q 4.296875 42.921875 1.3125 42.921875 
z
" id="TimesNewRomanPSMT-120"/>
      </defs>
      <use xlink:href="#TimesNewRomanPSMT-83"/>
      <use x="55.615234" xlink:href="#TimesNewRomanPSMT-105"/>
      <use x="83.398438" xlink:href="#TimesNewRomanPSMT-109"/>
      <use x="161.181641" xlink:href="#TimesNewRomanPSMT-112"/>
      <use x="211.181641" xlink:href="#TimesNewRomanPSMT-108"/>
      <use x="238.964844" xlink:href="#TimesNewRomanPSMT-101"/>
      <use x="283.349609" xlink:href="#TimesNewRomanPSMT-120"/>
     </g>
    </g>
    <g id="line2d_22">
     <path d="M 297.415234 85.532656 
L 322.415234 85.532656 
" style="fill:none;stroke:#000000;stroke-linecap:square;stroke-width:1.5;"/>
    </g>
    <g id="line2d_23"/>
    <g id="text_17">
     <!-- Newton -->
     <g transform="translate(332.415234 89.907656)scale(0.125 -0.125)">
      <defs>
       <path d="M 0.640625 44.734375 
L 19.390625 44.734375 
L 19.390625 42.921875 
Q 16.796875 42.71875 15.984375 41.984375 
Q 15.1875 41.265625 15.1875 39.890625 
Q 15.1875 38.375 16.015625 36.234375 
L 25.59375 10.5 
L 35.203125 31.453125 
L 32.671875 38.03125 
Q 31.5 40.96875 29.59375 42.09375 
Q 28.515625 42.78125 25.59375 42.921875 
L 25.59375 44.734375 
L 46.875 44.734375 
L 46.875 42.921875 
Q 43.359375 42.78125 41.890625 41.65625 
Q 40.921875 40.875 40.921875 39.15625 
Q 40.921875 38.1875 41.3125 37.15625 
L 51.46875 11.46875 
L 60.890625 36.234375 
Q 61.859375 38.875 61.859375 40.4375 
Q 61.859375 41.359375 60.90625 42.09375 
Q 59.96875 42.828125 57.171875 42.921875 
L 57.171875 44.734375 
L 71.296875 44.734375 
L 71.296875 42.921875 
Q 67.046875 42.28125 65.046875 37.15625 
L 50.09375 -1.375 
L 48.09375 -1.375 
L 36.921875 27.203125 
L 23.875 -1.375 
L 22.078125 -1.375 
L 7.71875 36.234375 
Q 6.296875 39.796875 4.921875 41.03125 
Q 3.5625 42.28125 0.640625 42.921875 
z
" id="TimesNewRomanPSMT-119"/>
      </defs>
      <use xlink:href="#TimesNewRomanPSMT-78"/>
      <use x="72.216797" xlink:href="#TimesNewRomanPSMT-101"/>
      <use x="116.601562" xlink:href="#TimesNewRomanPSMT-119"/>
      <use x="188.818359" xlink:href="#TimesNewRomanPSMT-116"/>
      <use x="216.601562" xlink:href="#TimesNewRomanPSMT-111"/>
      <use x="266.601562" xlink:href="#TimesNewRomanPSMT-110"/>
     </g>
    </g>
    <g id="line2d_24">
     <path d="M 297.415234 103.206484 
L 322.415234 103.206484 
" style="fill:none;stroke:#0000ff;stroke-linecap:square;stroke-width:1.5;"/>
    </g>
    <g id="line2d_25"/>
    <g id="text_18">
     <!-- Adam -->
     <g transform="translate(332.415234 107.581484)scale(0.125 -0.125)">
      <defs>
       <path d="M 45.75 22.171875 
L 20.125 22.171875 
L 15.625 11.71875 
Q 13.96875 7.859375 13.96875 5.953125 
Q 13.96875 4.4375 15.40625 3.296875 
Q 16.84375 2.15625 21.625 1.8125 
L 21.625 0 
L 0.78125 0 
L 0.78125 1.8125 
Q 4.9375 2.546875 6.15625 3.71875 
Q 8.640625 6.0625 11.671875 13.234375 
L 34.96875 67.71875 
L 36.671875 67.71875 
L 59.71875 12.640625 
Q 62.5 6 64.765625 4.015625 
Q 67.046875 2.046875 71.09375 1.8125 
L 71.09375 0 
L 44.96875 0 
L 44.96875 1.8125 
Q 48.921875 2 50.3125 3.125 
Q 51.703125 4.25 51.703125 5.859375 
Q 51.703125 8.015625 49.75 12.640625 
z
M 44.390625 25.78125 
L 33.15625 52.546875 
L 21.625 25.78125 
z
" id="TimesNewRomanPSMT-65"/>
       <path d="M 34.71875 5.03125 
Q 31.453125 1.609375 28.328125 0.109375 
Q 25.203125 -1.375 21.578125 -1.375 
Q 14.265625 -1.375 8.796875 4.75 
Q 3.328125 10.890625 3.328125 20.515625 
Q 3.328125 30.125 9.375 38.109375 
Q 15.4375 46.09375 24.953125 46.09375 
Q 30.859375 46.09375 34.71875 42.328125 
L 34.71875 50.59375 
Q 34.71875 58.25 34.34375 60 
Q 33.984375 61.765625 33.203125 62.390625 
Q 32.421875 63.03125 31.25 63.03125 
Q 29.984375 63.03125 27.875 62.25 
L 27.25 63.96875 
L 40.578125 69.4375 
L 42.78125 69.4375 
L 42.78125 17.71875 
Q 42.78125 9.859375 43.140625 8.125 
Q 43.5 6.390625 44.3125 5.703125 
Q 45.125 5.03125 46.1875 5.03125 
Q 47.515625 5.03125 49.703125 5.859375 
L 50.25 4.15625 
L 36.96875 -1.375 
L 34.71875 -1.375 
z
M 34.71875 8.453125 
L 34.71875 31.5 
Q 34.421875 34.8125 32.953125 37.546875 
Q 31.5 40.28125 29.078125 41.671875 
Q 26.65625 43.0625 24.359375 43.0625 
Q 20.0625 43.0625 16.703125 39.203125 
Q 12.25 34.125 12.25 24.359375 
Q 12.25 14.5 16.546875 9.25 
Q 20.84375 4 26.125 4 
Q 30.5625 4 34.71875 8.453125 
z
" id="TimesNewRomanPSMT-100"/>
      </defs>
      <use xlink:href="#TimesNewRomanPSMT-65"/>
      <use x="72.216797" xlink:href="#TimesNewRomanPSMT-100"/>
      <use x="122.216797" xlink:href="#TimesNewRomanPSMT-97"/>
      <use x="166.601562" xlink:href="#TimesNewRomanPSMT-109"/>
     </g>
    </g>
    <g id="line2d_26">
     <path d="M 297.415234 120.880313 
L 322.415234 120.880313 
" style="fill:none;stroke:#ee82ee;stroke-linecap:square;stroke-width:1.5;"/>
    </g>
    <g id="line2d_27"/>
    <g id="text_19">
     <!-- DIRECT -->
     <g transform="translate(332.415234 125.255313)scale(0.125 -0.125)">
      <defs>
       <path d="M 1.703125 0 
L 1.703125 1.8125 
L 4.203125 1.8125 
Q 8.40625 1.8125 10.15625 4.5 
Q 11.234375 6.109375 11.234375 11.71875 
L 11.234375 54.5 
Q 11.234375 60.6875 9.859375 62.25 
Q 7.953125 64.40625 4.203125 64.40625 
L 1.703125 64.40625 
L 1.703125 66.21875 
L 28.65625 66.21875 
Q 43.5 66.21875 51.234375 62.84375 
Q 58.984375 59.46875 63.6875 51.609375 
Q 68.40625 43.75 68.40625 33.453125 
Q 68.40625 19.625 60.015625 10.359375 
Q 50.59375 0 31.296875 0 
z
M 20.609375 4.78125 
Q 26.8125 3.421875 31 3.421875 
Q 42.328125 3.421875 49.796875 11.375 
Q 57.28125 19.34375 57.28125 32.953125 
Q 57.28125 46.6875 49.796875 54.59375 
Q 42.328125 62.5 30.609375 62.5 
Q 26.21875 62.5 20.609375 61.078125 
z
" id="TimesNewRomanPSMT-68"/>
       <path d="M 30.859375 1.8125 
L 30.859375 0 
L 2.484375 0 
L 2.484375 1.8125 
L 4.828125 1.8125 
Q 8.9375 1.8125 10.796875 4.203125 
Q 11.96875 5.765625 11.96875 11.71875 
L 11.96875 54.5 
Q 11.96875 59.515625 11.328125 61.140625 
Q 10.84375 62.359375 9.328125 63.234375 
Q 7.171875 64.40625 4.828125 64.40625 
L 2.484375 64.40625 
L 2.484375 66.21875 
L 30.859375 66.21875 
L 30.859375 64.40625 
L 28.46875 64.40625 
Q 24.421875 64.40625 22.5625 62.015625 
Q 21.34375 60.453125 21.34375 54.5 
L 21.34375 11.71875 
Q 21.34375 6.6875 21.96875 5.078125 
Q 22.46875 3.859375 24.03125 2.984375 
Q 26.125 1.8125 28.46875 1.8125 
z
" id="TimesNewRomanPSMT-73"/>
       <path d="M 67.578125 0 
L 49.90625 0 
L 27.484375 30.953125 
Q 25 30.859375 23.4375 30.859375 
Q 22.796875 30.859375 22.0625 30.875 
Q 21.34375 30.90625 20.5625 30.953125 
L 20.5625 11.71875 
Q 20.5625 5.46875 21.921875 3.953125 
Q 23.78125 1.8125 27.484375 1.8125 
L 30.078125 1.8125 
L 30.078125 0 
L 1.703125 0 
L 1.703125 1.8125 
L 4.203125 1.8125 
Q 8.40625 1.8125 10.203125 4.546875 
Q 11.234375 6.0625 11.234375 11.71875 
L 11.234375 54.5 
Q 11.234375 60.75 9.859375 62.25 
Q 7.953125 64.40625 4.203125 64.40625 
L 1.703125 64.40625 
L 1.703125 66.21875 
L 25.828125 66.21875 
Q 36.375 66.21875 41.375 64.671875 
Q 46.390625 63.140625 49.875 59.015625 
Q 53.375 54.890625 53.375 49.171875 
Q 53.375 43.0625 49.390625 38.5625 
Q 45.40625 34.078125 37.0625 32.234375 
L 50.734375 13.234375 
Q 55.421875 6.6875 58.78125 4.53125 
Q 62.15625 2.390625 67.578125 1.8125 
z
M 20.5625 34.03125 
Q 21.484375 34.03125 22.171875 34 
Q 22.859375 33.984375 23.296875 33.984375 
Q 32.765625 33.984375 37.578125 38.078125 
Q 42.390625 42.1875 42.390625 48.53125 
Q 42.390625 54.734375 38.5 58.609375 
Q 34.625 62.5 28.21875 62.5 
Q 25.390625 62.5 20.5625 61.578125 
z
" id="TimesNewRomanPSMT-82"/>
       <path d="M 20.90625 62.59375 
L 20.90625 36.421875 
L 35.453125 36.421875 
Q 41.109375 36.421875 43.015625 38.140625 
Q 45.5625 40.375 45.84375 46.046875 
L 47.65625 46.046875 
L 47.65625 23 
L 45.84375 23 
Q 45.171875 27.828125 44.484375 29.203125 
Q 43.609375 30.90625 41.59375 31.875 
Q 39.59375 32.859375 35.453125 32.859375 
L 20.90625 32.859375 
L 20.90625 11.03125 
Q 20.90625 6.640625 21.296875 5.6875 
Q 21.6875 4.734375 22.65625 4.171875 
Q 23.640625 3.609375 26.375 3.609375 
L 37.59375 3.609375 
Q 43.21875 3.609375 45.75 4.390625 
Q 48.296875 5.171875 50.640625 7.46875 
Q 53.65625 10.5 56.84375 16.609375 
L 58.796875 16.609375 
L 53.078125 0 
L 2.046875 0 
L 2.046875 1.8125 
L 4.390625 1.8125 
Q 6.734375 1.8125 8.84375 2.9375 
Q 10.40625 3.71875 10.96875 5.28125 
Q 11.53125 6.84375 11.53125 11.671875 
L 11.53125 54.6875 
Q 11.53125 60.984375 10.25 62.453125 
Q 8.5 64.40625 4.390625 64.40625 
L 2.046875 64.40625 
L 2.046875 66.21875 
L 53.078125 66.21875 
L 53.8125 51.703125 
L 51.90625 51.703125 
Q 50.875 56.9375 49.625 58.890625 
Q 48.390625 60.84375 45.953125 61.859375 
Q 44 62.59375 39.0625 62.59375 
z
" id="TimesNewRomanPSMT-69"/>
       <path d="M 60.203125 67.71875 
L 61.71875 45.21875 
L 60.203125 45.21875 
Q 57.171875 55.328125 51.5625 59.765625 
Q 45.953125 64.203125 38.09375 64.203125 
Q 31.5 64.203125 26.171875 60.859375 
Q 20.84375 57.515625 17.796875 50.1875 
Q 14.75 42.875 14.75 31.984375 
Q 14.75 23 17.625 16.40625 
Q 20.515625 9.8125 26.296875 6.296875 
Q 32.078125 2.78125 39.5 2.78125 
Q 45.953125 2.78125 50.875 5.53125 
Q 55.8125 8.296875 61.71875 16.5 
L 63.234375 15.53125 
Q 58.25 6.6875 51.609375 2.578125 
Q 44.96875 -1.515625 35.84375 -1.515625 
Q 19.390625 -1.515625 10.359375 10.6875 
Q 3.609375 19.78125 3.609375 32.078125 
Q 3.609375 42 8.046875 50.296875 
Q 12.5 58.59375 20.28125 63.15625 
Q 28.078125 67.71875 37.3125 67.71875 
Q 44.484375 67.71875 51.46875 64.203125 
Q 53.515625 63.140625 54.390625 63.140625 
Q 55.71875 63.140625 56.6875 64.0625 
Q 57.953125 65.375 58.5 67.71875 
z
" id="TimesNewRomanPSMT-67"/>
       <path d="M 57.859375 66.21875 
L 58.59375 50.6875 
L 56.734375 50.6875 
Q 56.203125 54.78125 55.28125 56.546875 
Q 53.765625 59.375 51.25 60.71875 
Q 48.734375 62.0625 44.625 62.0625 
L 35.296875 62.0625 
L 35.296875 11.46875 
Q 35.296875 5.375 36.625 3.859375 
Q 38.484375 1.8125 42.328125 1.8125 
L 44.625 1.8125 
L 44.625 0 
L 16.546875 0 
L 16.546875 1.8125 
L 18.890625 1.8125 
Q 23.09375 1.8125 24.859375 4.34375 
Q 25.921875 5.90625 25.921875 11.46875 
L 25.921875 62.0625 
L 17.96875 62.0625 
Q 13.328125 62.0625 11.375 61.375 
Q 8.84375 60.453125 7.03125 57.8125 
Q 5.21875 55.171875 4.890625 50.6875 
L 3.03125 50.6875 
L 3.8125 66.21875 
z
" id="TimesNewRomanPSMT-84"/>
      </defs>
      <use xlink:href="#TimesNewRomanPSMT-68"/>
      <use x="72.216797" xlink:href="#TimesNewRomanPSMT-73"/>
      <use x="105.517578" xlink:href="#TimesNewRomanPSMT-82"/>
      <use x="172.216797" xlink:href="#TimesNewRomanPSMT-69"/>
      <use x="233.300781" xlink:href="#TimesNewRomanPSMT-67"/>
      <use x="300" xlink:href="#TimesNewRomanPSMT-84"/>
     </g>
    </g>
   </g>
  </g>
 </g>
 <defs>
  <clipPath id="paeb53d1cb1">
   <rect height="217.44" width="334.8" x="54" y="34.56"/>
  </clipPath>
 </defs>
</svg>
