<?xml version="1.0" encoding="utf-8" standalone="no"?>
<!DOCTYPE svg PUBLIC "-//W3C//DTD SVG 1.1//EN"
  "http://www.w3.org/Graphics/SVG/1.1/DTD/svg11.dtd">
<!-- Created with matplotlib (https://matplotlib.org/) -->
<svg height="288pt" version="1.1" viewBox="0 0 432 288" width="432pt" xmlns="http://www.w3.org/2000/svg" xmlns:xlink="http://www.w3.org/1999/xlink">
 <metadata>
  <rdf:RDF xmlns:cc="http://creativecommons.org/ns#" xmlns:dc="http://purl.org/dc/elements/1.1/" xmlns:rdf="http://www.w3.org/1999/02/22-rdf-syntax-ns#">
   <cc:Work>
    <dc:type rdf:resource="http://purl.org/dc/dcmitype/StillImage"/>
    <dc:date>2021-04-14T20:25:52.577932</dc:date>
    <dc:format>image/svg+xml</dc:format>
    <dc:creator>
     <cc:Agent>
      <dc:title>Matplotlib v3.3.4, https://matplotlib.org/</dc:title>
     </cc:Agent>
    </dc:creator>
   </cc:Work>
  </rdf:RDF>
 </metadata>
 <defs>
  <style type="text/css">*{stroke-linecap:butt;stroke-linejoin:round;}</style>
 </defs>
 <g id="figure_1">
  <g id="patch_1">
   <path d="M 0 288 
L 432 288 
L 432 0 
L 0 0 
z
" style="fill:#ffffff;"/>
  </g>
  <g id="axes_1">
   <g id="patch_2">
    <path d="M 54 252 
L 388.8 252 
L 388.8 34.56 
L 54 34.56 
z
" style="fill:#ffffff;"/>
   </g>
   <g id="patch_3">
    <path clip-path="url(#pb14cd18652)" d="M 59.6916 194.924927 
L 70.6284 194.924927 
L 70.6284 177.774171 
L 59.6916 177.774171 
L 59.6916 194.924927 
z
" style="fill:#597dbf;stroke:#545454;stroke-linejoin:miter;stroke-width:1.5;"/>
   </g>
   <g id="patch_4">
    <path clip-path="url(#pb14cd18652)" d="M 70.8516 225.622244 
L 81.7884 225.622244 
L 81.7884 221.909437 
L 70.8516 221.909437 
L 70.8516 225.622244 
z
" style="fill:#d98b5f;stroke:#545454;stroke-linejoin:miter;stroke-width:1.5;"/>
   </g>
   <g id="patch_5">
    <path clip-path="url(#pb14cd18652)" d="M 82.0116 213.618356 
L 92.9484 213.618356 
L 92.9484 206.098947 
L 82.0116 206.098947 
L 82.0116 213.618356 
z
" style="fill:#75bf71;stroke:#545454;stroke-linejoin:miter;stroke-width:1.5;"/>
   </g>
   <g id="patch_6">
    <path clip-path="url(#pb14cd18652)" d="M 93.1716 235.291644 
L 104.1084 235.291644 
L 104.1084 232.375577 
L 93.1716 232.375577 
L 93.1716 235.291644 
z
" style="fill:#c76e6e;stroke:#545454;stroke-linejoin:miter;stroke-width:1.5;"/>
   </g>
   <g id="patch_7">
    <path clip-path="url(#pb14cd18652)" d="M 115.4916 203.746257 
L 126.4284 203.746257 
L 126.4284 176.052198 
L 115.4916 176.052198 
L 115.4916 203.746257 
z
" style="fill:#597dbf;stroke:#545454;stroke-linejoin:miter;stroke-width:1.5;"/>
   </g>
   <g id="patch_8">
    <path clip-path="url(#pb14cd18652)" d="M 126.6516 224.257065 
L 137.5884 224.257065 
L 137.5884 221.22556 
L 126.6516 221.22556 
L 126.6516 224.257065 
z
" style="fill:#d98b5f;stroke:#545454;stroke-linejoin:miter;stroke-width:1.5;"/>
   </g>
   <g id="patch_9">
    <path clip-path="url(#pb14cd18652)" d="M 137.8116 209.691409 
L 148.7484 209.691409 
L 148.7484 199.543149 
L 137.8116 199.543149 
L 137.8116 209.691409 
z
" style="fill:#75bf71;stroke:#545454;stroke-linejoin:miter;stroke-width:1.5;"/>
   </g>
   <g id="patch_10">
    <path clip-path="url(#pb14cd18652)" d="M 148.9716 235.366441 
L 159.9084 235.366441 
L 159.9084 231.991521 
L 148.9716 231.991521 
L 148.9716 235.366441 
z
" style="fill:#c76e6e;stroke:#545454;stroke-linejoin:miter;stroke-width:1.5;"/>
   </g>
   <g id="patch_11">
    <path clip-path="url(#pb14cd18652)" d="M 171.2916 199.88241 
L 182.2284 199.88241 
L 182.2284 141.97988 
L 171.2916 141.97988 
L 171.2916 199.88241 
z
" style="fill:#597dbf;stroke:#545454;stroke-linejoin:miter;stroke-width:1.5;"/>
   </g>
   <g id="patch_12">
    <path clip-path="url(#pb14cd18652)" d="M 182.4516 225.92129 
L 193.3884 225.92129 
L 193.3884 221.483538 
L 182.4516 221.483538 
L 182.4516 225.92129 
z
" style="fill:#d98b5f;stroke:#545454;stroke-linejoin:miter;stroke-width:1.5;"/>
   </g>
   <g id="patch_13">
    <path clip-path="url(#pb14cd18652)" d="M 193.6116 209.973976 
L 204.5484 209.973976 
L 204.5484 199.957767 
L 193.6116 199.957767 
L 193.6116 209.973976 
z
" style="fill:#75bf71;stroke:#545454;stroke-linejoin:miter;stroke-width:1.5;"/>
   </g>
   <g id="patch_14">
    <path clip-path="url(#pb14cd18652)" d="M 204.7716 234.468623 
L 215.7084 234.468623 
L 215.7084 232.576185 
L 204.7716 232.576185 
L 204.7716 234.468623 
z
" style="fill:#c76e6e;stroke:#545454;stroke-linejoin:miter;stroke-width:1.5;"/>
   </g>
   <g id="patch_15">
    <path clip-path="url(#pb14cd18652)" d="M 227.0916 198.775083 
L 238.0284 198.775083 
L 238.0284 145.853804 
L 227.0916 145.853804 
L 227.0916 198.775083 
z
" style="fill:#597dbf;stroke:#545454;stroke-linejoin:miter;stroke-width:1.5;"/>
   </g>
   <g id="patch_16">
    <path clip-path="url(#pb14cd18652)" d="M 238.2516 224.313991 
L 249.1884 224.313991 
L 249.1884 217.705743 
L 238.2516 217.705743 
L 238.2516 224.313991 
z
" style="fill:#d98b5f;stroke:#545454;stroke-linejoin:miter;stroke-width:1.5;"/>
   </g>
   <g id="patch_17">
    <path clip-path="url(#pb14cd18652)" d="M 249.4116 211.291057 
L 260.3484 211.291057 
L 260.3484 205.632982 
L 249.4116 205.632982 
L 249.4116 211.291057 
z
" style="fill:#75bf71;stroke:#545454;stroke-linejoin:miter;stroke-width:1.5;"/>
   </g>
   <g id="patch_18">
    <path clip-path="url(#pb14cd18652)" d="M 260.5716 234.988388 
L 271.5084 234.988388 
L 271.5084 232.557596 
L 260.5716 232.557596 
L 260.5716 234.988388 
z
" style="fill:#c76e6e;stroke:#545454;stroke-linejoin:miter;stroke-width:1.5;"/>
   </g>
   <g id="patch_19">
    <path clip-path="url(#pb14cd18652)" d="M 282.8916 196.702761 
L 293.8284 196.702761 
L 293.8284 164.882864 
L 282.8916 164.882864 
L 282.8916 196.702761 
z
" style="fill:#597dbf;stroke:#545454;stroke-linejoin:miter;stroke-width:1.5;"/>
   </g>
   <g id="patch_20">
    <path clip-path="url(#pb14cd18652)" d="M 294.0516 224.744357 
L 304.9884 224.744357 
L 304.9884 217.470069 
L 294.0516 217.470069 
L 294.0516 224.744357 
z
" style="fill:#d98b5f;stroke:#545454;stroke-linejoin:miter;stroke-width:1.5;"/>
   </g>
   <g id="patch_21">
    <path clip-path="url(#pb14cd18652)" d="M 305.2116 209.738641 
L 316.1484 209.738641 
L 316.1484 201.005623 
L 305.2116 201.005623 
L 305.2116 209.738641 
z
" style="fill:#75bf71;stroke:#545454;stroke-linejoin:miter;stroke-width:1.5;"/>
   </g>
   <g id="patch_22">
    <path clip-path="url(#pb14cd18652)" d="M 316.3716 234.938597 
L 327.3084 234.938597 
L 327.3084 229.842102 
L 316.3716 229.842102 
L 316.3716 234.938597 
z
" style="fill:#c76e6e;stroke:#545454;stroke-linejoin:miter;stroke-width:1.5;"/>
   </g>
   <g id="patch_23">
    <path clip-path="url(#pb14cd18652)" d="M 338.6916 189.931264 
L 349.6284 189.931264 
L 349.6284 165.042618 
L 338.6916 165.042618 
L 338.6916 189.931264 
z
" style="fill:#597dbf;stroke:#545454;stroke-linejoin:miter;stroke-width:1.5;"/>
   </g>
   <g id="patch_24">
    <path clip-path="url(#pb14cd18652)" d="M 349.8516 224.347518 
L 360.7884 224.347518 
L 360.7884 214.484966 
L 349.8516 214.484966 
L 349.8516 224.347518 
z
" style="fill:#d98b5f;stroke:#545454;stroke-linejoin:miter;stroke-width:1.5;"/>
   </g>
   <g id="patch_25">
    <path clip-path="url(#pb14cd18652)" d="M 361.0116 209.768061 
L 371.9484 209.768061 
L 371.9484 200.463789 
L 361.0116 200.463789 
L 361.0116 209.768061 
z
" style="fill:#75bf71;stroke:#545454;stroke-linejoin:miter;stroke-width:1.5;"/>
   </g>
   <g id="patch_26">
    <path clip-path="url(#pb14cd18652)" d="M 372.1716 235.467742 
L 383.1084 235.467742 
L 383.1084 231.666051 
L 372.1716 231.666051 
L 372.1716 235.467742 
z
" style="fill:#c76e6e;stroke:#545454;stroke-linejoin:miter;stroke-width:1.5;"/>
   </g>
   <g id="patch_27">
    <path clip-path="url(#pb14cd18652)" d="M 81.9 -40.354729 
L 81.9 -40.354729 
L 81.9 -40.354729 
L 81.9 -40.354729 
z
" style="fill:#597dbf;stroke:#545454;stroke-linejoin:miter;stroke-width:0.75;"/>
   </g>
   <g id="patch_28">
    <path clip-path="url(#pb14cd18652)" d="M 81.9 -40.354729 
L 81.9 -40.354729 
L 81.9 -40.354729 
L 81.9 -40.354729 
z
" style="fill:#d98b5f;stroke:#545454;stroke-linejoin:miter;stroke-width:0.75;"/>
   </g>
   <g id="patch_29">
    <path clip-path="url(#pb14cd18652)" d="M 81.9 -40.354729 
L 81.9 -40.354729 
L 81.9 -40.354729 
L 81.9 -40.354729 
z
" style="fill:#75bf71;stroke:#545454;stroke-linejoin:miter;stroke-width:0.75;"/>
   </g>
   <g id="patch_30">
    <path clip-path="url(#pb14cd18652)" d="M 81.9 -40.354729 
L 81.9 -40.354729 
L 81.9 -40.354729 
L 81.9 -40.354729 
z
" style="fill:#c76e6e;stroke:#545454;stroke-linejoin:miter;stroke-width:0.75;"/>
   </g>
   <g id="matplotlib.axis_1">
    <g id="xtick_1">
     <g id="line2d_1">
      <defs>
       <path d="M 0 0 
L 0 3.5 
" id="mdb3a15b318" style="stroke:#000000;stroke-width:0.8;"/>
      </defs>
      <g>
       <use style="stroke:#000000;stroke-width:0.8;" x="81.9" xlink:href="#mdb3a15b318" y="252"/>
      </g>
     </g>
     <g id="text_1">
      <!-- 0.000 -->
      <g transform="translate(65.025 269.415625)scale(0.15 -0.15)">
       <defs>
        <path d="M 3.609375 32.71875 
Q 3.609375 44.046875 7.03125 52.21875 
Q 10.453125 60.40625 16.109375 64.40625 
Q 20.515625 67.578125 25.203125 67.578125 
Q 32.8125 67.578125 38.875 59.8125 
Q 46.4375 50.203125 46.4375 33.734375 
Q 46.4375 22.21875 43.109375 14.15625 
Q 39.796875 6.109375 34.640625 2.46875 
Q 29.5 -1.171875 24.703125 -1.171875 
Q 15.234375 -1.171875 8.9375 10.015625 
Q 3.609375 19.4375 3.609375 32.71875 
z
M 13.1875 31.5 
Q 13.1875 17.828125 16.546875 9.1875 
Q 19.34375 1.90625 24.859375 1.90625 
Q 27.484375 1.90625 30.3125 4.265625 
Q 33.15625 6.640625 34.625 12.203125 
Q 36.859375 20.609375 36.859375 35.890625 
Q 36.859375 47.21875 34.515625 54.78125 
Q 32.765625 60.40625 29.984375 62.75 
Q 27.984375 64.359375 25.140625 64.359375 
Q 21.828125 64.359375 19.234375 61.375 
Q 15.71875 57.328125 14.453125 48.625 
Q 13.1875 39.9375 13.1875 31.5 
z
" id="TimesNewRomanPSMT-48"/>
        <path d="M 12.5 9.46875 
Q 14.796875 9.46875 16.359375 7.875 
Q 17.921875 6.296875 17.921875 4.046875 
Q 17.921875 1.8125 16.328125 0.21875 
Q 14.75 -1.375 12.5 -1.375 
Q 10.25 -1.375 8.65625 0.21875 
Q 7.078125 1.8125 7.078125 4.046875 
Q 7.078125 6.34375 8.65625 7.90625 
Q 10.25 9.46875 12.5 9.46875 
z
" id="TimesNewRomanPSMT-46"/>
       </defs>
       <use xlink:href="#TimesNewRomanPSMT-48"/>
       <use x="50" xlink:href="#TimesNewRomanPSMT-46"/>
       <use x="75" xlink:href="#TimesNewRomanPSMT-48"/>
       <use x="125" xlink:href="#TimesNewRomanPSMT-48"/>
       <use x="175" xlink:href="#TimesNewRomanPSMT-48"/>
      </g>
     </g>
    </g>
    <g id="xtick_2">
     <g id="line2d_2">
      <g>
       <use style="stroke:#000000;stroke-width:0.8;" x="137.7" xlink:href="#mdb3a15b318" y="252"/>
      </g>
     </g>
     <g id="text_2">
      <!-- 0.333 -->
      <g transform="translate(120.825 269.415625)scale(0.15 -0.15)">
       <defs>
        <path d="M 5.078125 53.609375 
Q 7.90625 60.296875 12.21875 63.9375 
Q 16.546875 67.578125 23 67.578125 
Q 30.953125 67.578125 35.203125 62.40625 
Q 38.421875 58.546875 38.421875 54.15625 
Q 38.421875 46.921875 29.34375 39.203125 
Q 35.453125 36.8125 38.578125 32.375 
Q 41.703125 27.9375 41.703125 21.921875 
Q 41.703125 13.328125 36.234375 7.03125 
Q 29.109375 -1.171875 15.578125 -1.171875 
Q 8.890625 -1.171875 6.46875 0.484375 
Q 4.046875 2.15625 4.046875 4.046875 
Q 4.046875 5.46875 5.1875 6.546875 
Q 6.34375 7.625 7.953125 7.625 
Q 9.1875 7.625 10.453125 7.234375 
Q 11.28125 6.984375 14.203125 5.4375 
Q 17.140625 3.90625 18.265625 3.609375 
Q 20.0625 3.078125 22.125 3.078125 
Q 27.09375 3.078125 30.78125 6.9375 
Q 34.46875 10.796875 34.46875 16.0625 
Q 34.46875 19.921875 32.765625 23.578125 
Q 31.5 26.3125 29.984375 27.734375 
Q 27.875 29.6875 24.21875 31.265625 
Q 20.5625 32.859375 16.75 32.859375 
L 15.1875 32.859375 
L 15.1875 34.328125 
Q 19.046875 34.8125 22.921875 37.109375 
Q 26.8125 39.40625 28.5625 42.625 
Q 30.328125 45.84375 30.328125 49.703125 
Q 30.328125 54.734375 27.171875 57.828125 
Q 24.03125 60.9375 19.34375 60.9375 
Q 11.765625 60.9375 6.6875 52.828125 
z
" id="TimesNewRomanPSMT-51"/>
       </defs>
       <use xlink:href="#TimesNewRomanPSMT-48"/>
       <use x="50" xlink:href="#TimesNewRomanPSMT-46"/>
       <use x="75" xlink:href="#TimesNewRomanPSMT-51"/>
       <use x="125" xlink:href="#TimesNewRomanPSMT-51"/>
       <use x="175" xlink:href="#TimesNewRomanPSMT-51"/>
      </g>
     </g>
    </g>
    <g id="xtick_3">
     <g id="line2d_3">
      <g>
       <use style="stroke:#000000;stroke-width:0.8;" x="193.5" xlink:href="#mdb3a15b318" y="252"/>
      </g>
     </g>
     <g id="text_3">
      <!-- 0.667 -->
      <g transform="translate(176.625 269.415625)scale(0.15 -0.15)">
       <defs>
        <path d="M 44.828125 67.578125 
L 44.828125 65.765625 
Q 38.375 65.140625 34.296875 63.203125 
Q 30.21875 61.28125 26.234375 57.328125 
Q 22.265625 53.375 19.65625 48.515625 
Q 17.046875 43.65625 15.28125 36.96875 
Q 22.3125 41.796875 29.390625 41.796875 
Q 36.1875 41.796875 41.15625 36.328125 
Q 46.140625 30.859375 46.140625 22.265625 
Q 46.140625 13.96875 41.109375 7.125 
Q 35.0625 -1.171875 25.09375 -1.171875 
Q 18.3125 -1.171875 13.578125 3.328125 
Q 4.296875 12.0625 4.296875 25.984375 
Q 4.296875 34.859375 7.859375 42.859375 
Q 11.421875 50.875 18.03125 57.078125 
Q 24.65625 63.28125 30.703125 65.421875 
Q 36.765625 67.578125 42 67.578125 
z
M 14.453125 33.40625 
Q 13.578125 26.8125 13.578125 22.75 
Q 13.578125 18.0625 15.3125 12.5625 
Q 17.046875 7.078125 20.453125 3.859375 
Q 22.953125 1.5625 26.515625 1.5625 
Q 30.765625 1.5625 34.109375 5.5625 
Q 37.453125 9.578125 37.453125 17 
Q 37.453125 25.34375 34.125 31.4375 
Q 30.8125 37.546875 24.703125 37.546875 
Q 22.859375 37.546875 20.734375 36.765625 
Q 18.609375 35.984375 14.453125 33.40625 
z
" id="TimesNewRomanPSMT-54"/>
        <path d="M 10.0625 66.21875 
L 45.5625 66.21875 
L 45.5625 64.359375 
L 23.484375 -1.375 
L 18.015625 -1.375 
L 37.796875 58.25 
L 19.578125 58.25 
Q 14.0625 58.25 11.71875 56.9375 
Q 7.625 54.6875 5.125 50 
L 3.71875 50.53125 
z
" id="TimesNewRomanPSMT-55"/>
       </defs>
       <use xlink:href="#TimesNewRomanPSMT-48"/>
       <use x="50" xlink:href="#TimesNewRomanPSMT-46"/>
       <use x="75" xlink:href="#TimesNewRomanPSMT-54"/>
       <use x="125" xlink:href="#TimesNewRomanPSMT-54"/>
       <use x="175" xlink:href="#TimesNewRomanPSMT-55"/>
      </g>
     </g>
    </g>
    <g id="xtick_4">
     <g id="line2d_4">
      <g>
       <use style="stroke:#000000;stroke-width:0.8;" x="249.3" xlink:href="#mdb3a15b318" y="252"/>
      </g>
     </g>
     <g id="text_4">
      <!-- 1.000 -->
      <g transform="translate(232.425 269.415625)scale(0.15 -0.15)">
       <defs>
        <path d="M 11.71875 59.71875 
L 27.828125 67.578125 
L 29.4375 67.578125 
L 29.4375 11.671875 
Q 29.4375 6.109375 29.90625 4.734375 
Q 30.375 3.375 31.828125 2.640625 
Q 33.296875 1.90625 37.796875 1.8125 
L 37.796875 0 
L 12.890625 0 
L 12.890625 1.8125 
Q 17.578125 1.90625 18.9375 2.609375 
Q 20.3125 3.328125 20.84375 4.515625 
Q 21.390625 5.71875 21.390625 11.671875 
L 21.390625 47.40625 
Q 21.390625 54.640625 20.90625 56.6875 
Q 20.5625 58.25 19.65625 58.984375 
Q 18.75 59.71875 17.484375 59.71875 
Q 15.671875 59.71875 12.453125 58.203125 
z
" id="TimesNewRomanPSMT-49"/>
       </defs>
       <use xlink:href="#TimesNewRomanPSMT-49"/>
       <use x="50" xlink:href="#TimesNewRomanPSMT-46"/>
       <use x="75" xlink:href="#TimesNewRomanPSMT-48"/>
       <use x="125" xlink:href="#TimesNewRomanPSMT-48"/>
       <use x="175" xlink:href="#TimesNewRomanPSMT-48"/>
      </g>
     </g>
    </g>
    <g id="xtick_5">
     <g id="line2d_5">
      <g>
       <use style="stroke:#000000;stroke-width:0.8;" x="305.1" xlink:href="#mdb3a15b318" y="252"/>
      </g>
     </g>
     <g id="text_5">
      <!-- 1.333 -->
      <g transform="translate(288.225 269.415625)scale(0.15 -0.15)">
       <use xlink:href="#TimesNewRomanPSMT-49"/>
       <use x="50" xlink:href="#TimesNewRomanPSMT-46"/>
       <use x="75" xlink:href="#TimesNewRomanPSMT-51"/>
       <use x="125" xlink:href="#TimesNewRomanPSMT-51"/>
       <use x="175" xlink:href="#TimesNewRomanPSMT-51"/>
      </g>
     </g>
    </g>
    <g id="xtick_6">
     <g id="line2d_6">
      <g>
       <use style="stroke:#000000;stroke-width:0.8;" x="360.9" xlink:href="#mdb3a15b318" y="252"/>
      </g>
     </g>
     <g id="text_6">
      <!-- 1.667 -->
      <g transform="translate(344.025 269.415625)scale(0.15 -0.15)">
       <use xlink:href="#TimesNewRomanPSMT-49"/>
       <use x="50" xlink:href="#TimesNewRomanPSMT-46"/>
       <use x="75" xlink:href="#TimesNewRomanPSMT-54"/>
       <use x="125" xlink:href="#TimesNewRomanPSMT-54"/>
       <use x="175" xlink:href="#TimesNewRomanPSMT-55"/>
      </g>
     </g>
    </g>
    <g id="text_7">
     <!-- Noise standard deviation -->
     <g transform="translate(146.833594 287.039844)scale(0.15 -0.15)">
      <defs>
       <path d="M -1.3125 66.21875 
L 16.65625 66.21875 
L 57.125 16.546875 
L 57.125 54.734375 
Q 57.125 60.84375 55.765625 62.359375 
Q 53.953125 64.40625 50.046875 64.40625 
L 47.75 64.40625 
L 47.75 66.21875 
L 70.796875 66.21875 
L 70.796875 64.40625 
L 68.453125 64.40625 
Q 64.265625 64.40625 62.5 61.859375 
Q 61.421875 60.296875 61.421875 54.734375 
L 61.421875 -1.078125 
L 59.671875 -1.078125 
L 16.015625 52.25 
L 16.015625 11.46875 
Q 16.015625 5.375 17.328125 3.859375 
Q 19.1875 1.8125 23.046875 1.8125 
L 25.390625 1.8125 
L 25.390625 0 
L 2.34375 0 
L 2.34375 1.8125 
L 4.640625 1.8125 
Q 8.890625 1.8125 10.640625 4.34375 
Q 11.71875 5.90625 11.71875 11.46875 
L 11.71875 57.515625 
Q 8.84375 60.890625 7.34375 61.953125 
Q 5.859375 63.03125 2.984375 63.96875 
Q 1.5625 64.40625 -1.3125 64.40625 
z
" id="TimesNewRomanPSMT-78"/>
       <path d="M 25 46.046875 
Q 35.15625 46.046875 41.3125 38.328125 
Q 46.53125 31.734375 46.53125 23.1875 
Q 46.53125 17.1875 43.640625 11.03125 
Q 40.765625 4.890625 35.71875 1.75 
Q 30.671875 -1.375 24.46875 -1.375 
Q 14.359375 -1.375 8.40625 6.6875 
Q 3.375 13.484375 3.375 21.921875 
Q 3.375 28.078125 6.421875 34.15625 
Q 9.46875 40.234375 14.453125 43.140625 
Q 19.4375 46.046875 25 46.046875 
z
M 23.484375 42.875 
Q 20.90625 42.875 18.28125 41.328125 
Q 15.671875 39.796875 14.0625 35.9375 
Q 12.453125 32.078125 12.453125 26.03125 
Q 12.453125 16.265625 16.328125 9.171875 
Q 20.21875 2.09375 26.5625 2.09375 
Q 31.296875 2.09375 34.375 6 
Q 37.453125 9.90625 37.453125 19.4375 
Q 37.453125 31.34375 32.328125 38.1875 
Q 28.859375 42.875 23.484375 42.875 
z
" id="TimesNewRomanPSMT-111"/>
       <path d="M 14.5 69.4375 
Q 16.546875 69.4375 17.984375 67.984375 
Q 19.4375 66.546875 19.4375 64.5 
Q 19.4375 62.453125 17.984375 60.984375 
Q 16.546875 59.515625 14.5 59.515625 
Q 12.453125 59.515625 10.984375 60.984375 
Q 9.515625 62.453125 9.515625 64.5 
Q 9.515625 66.546875 10.953125 67.984375 
Q 12.40625 69.4375 14.5 69.4375 
z
M 18.5625 46.046875 
L 18.5625 10.109375 
Q 18.5625 5.90625 19.171875 4.515625 
Q 19.78125 3.125 20.96875 2.4375 
Q 22.171875 1.765625 25.34375 1.765625 
L 25.34375 0 
L 3.609375 0 
L 3.609375 1.765625 
Q 6.890625 1.765625 8 2.390625 
Q 9.125 3.03125 9.78125 4.484375 
Q 10.453125 5.953125 10.453125 10.109375 
L 10.453125 27.34375 
Q 10.453125 34.625 10.015625 36.765625 
Q 9.671875 38.328125 8.9375 38.9375 
Q 8.203125 39.546875 6.9375 39.546875 
Q 5.5625 39.546875 3.609375 38.8125 
L 2.9375 40.578125 
L 16.40625 46.046875 
z
" id="TimesNewRomanPSMT-105"/>
       <path d="M 32.03125 46.046875 
L 32.03125 30.8125 
L 30.421875 30.8125 
Q 28.5625 37.984375 25.65625 40.578125 
Q 22.75 43.171875 18.265625 43.171875 
Q 14.84375 43.171875 12.734375 41.359375 
Q 10.640625 39.546875 10.640625 37.359375 
Q 10.640625 34.625 12.203125 32.671875 
Q 13.71875 30.671875 18.359375 28.421875 
L 25.484375 24.953125 
Q 35.40625 20.125 35.40625 12.203125 
Q 35.40625 6.109375 30.78125 2.359375 
Q 26.171875 -1.375 20.453125 -1.375 
Q 16.359375 -1.375 11.078125 0.09375 
Q 9.46875 0.59375 8.453125 0.59375 
Q 7.328125 0.59375 6.6875 -0.6875 
L 5.078125 -0.6875 
L 5.078125 15.28125 
L 6.6875 15.28125 
Q 8.0625 8.453125 11.90625 4.984375 
Q 15.765625 1.515625 20.5625 1.515625 
Q 23.921875 1.515625 26.046875 3.484375 
Q 28.171875 5.46875 28.171875 8.25 
Q 28.171875 11.625 25.796875 13.921875 
Q 23.4375 16.21875 16.359375 19.734375 
Q 9.28125 23.25 7.078125 26.078125 
Q 4.890625 28.859375 4.890625 33.109375 
Q 4.890625 38.625 8.671875 42.328125 
Q 12.453125 46.046875 18.453125 46.046875 
Q 21.09375 46.046875 24.859375 44.921875 
Q 27.34375 44.1875 28.171875 44.1875 
Q 28.953125 44.1875 29.390625 44.53125 
Q 29.828125 44.875 30.421875 46.046875 
z
" id="TimesNewRomanPSMT-115"/>
       <path d="M 10.640625 27.875 
Q 10.59375 17.921875 15.484375 12.25 
Q 20.359375 6.59375 26.953125 6.59375 
Q 31.34375 6.59375 34.59375 9 
Q 37.84375 11.421875 40.046875 17.28125 
L 41.546875 16.3125 
Q 40.53125 9.625 35.59375 4.125 
Q 30.671875 -1.375 23.25 -1.375 
Q 15.1875 -1.375 9.453125 4.90625 
Q 3.71875 11.1875 3.71875 21.78125 
Q 3.71875 33.25 9.59375 39.671875 
Q 15.484375 46.09375 24.359375 46.09375 
Q 31.890625 46.09375 36.71875 41.140625 
Q 41.546875 36.1875 41.546875 27.875 
z
M 10.640625 30.71875 
L 31.34375 30.71875 
Q 31.109375 35.015625 30.328125 36.765625 
Q 29.109375 39.5 26.6875 41.0625 
Q 24.265625 42.625 21.625 42.625 
Q 17.578125 42.625 14.375 39.46875 
Q 11.1875 36.328125 10.640625 30.71875 
z
" id="TimesNewRomanPSMT-101"/>
       <path id="TimesNewRomanPSMT-32"/>
       <path d="M 16.109375 59.421875 
L 16.109375 44.734375 
L 26.5625 44.734375 
L 26.5625 41.3125 
L 16.109375 41.3125 
L 16.109375 12.3125 
Q 16.109375 7.953125 17.359375 6.4375 
Q 18.609375 4.9375 20.5625 4.9375 
Q 22.171875 4.9375 23.6875 5.9375 
Q 25.203125 6.9375 26.03125 8.890625 
L 27.9375 8.890625 
Q 26.21875 4.109375 23.09375 1.6875 
Q 19.96875 -0.734375 16.65625 -0.734375 
Q 14.40625 -0.734375 12.25 0.515625 
Q 10.109375 1.765625 9.078125 4.078125 
Q 8.0625 6.390625 8.0625 11.234375 
L 8.0625 41.3125 
L 0.984375 41.3125 
L 0.984375 42.921875 
Q 3.65625 44 6.46875 46.5625 
Q 9.28125 49.125 11.46875 52.640625 
Q 12.59375 54.5 14.59375 59.421875 
z
" id="TimesNewRomanPSMT-116"/>
       <path d="M 28.46875 6.453125 
Q 21.578125 1.125 19.828125 0.296875 
Q 17.1875 -0.921875 14.203125 -0.921875 
Q 9.578125 -0.921875 6.5625 2.25 
Q 3.5625 5.421875 3.5625 10.59375 
Q 3.5625 13.875 5.03125 16.265625 
Q 7.03125 19.578125 11.984375 22.5 
Q 16.9375 25.4375 28.46875 29.640625 
L 28.46875 31.390625 
Q 28.46875 38.09375 26.34375 40.578125 
Q 24.21875 43.0625 20.171875 43.0625 
Q 17.09375 43.0625 15.28125 41.40625 
Q 13.421875 39.75 13.421875 37.59375 
L 13.53125 34.765625 
Q 13.53125 32.515625 12.375 31.296875 
Q 11.234375 30.078125 9.375 30.078125 
Q 7.5625 30.078125 6.421875 31.34375 
Q 5.28125 32.625 5.28125 34.8125 
Q 5.28125 39.015625 9.578125 42.53125 
Q 13.875 46.046875 21.625 46.046875 
Q 27.59375 46.046875 31.390625 44.046875 
Q 34.28125 42.53125 35.640625 39.3125 
Q 36.53125 37.203125 36.53125 30.71875 
L 36.53125 15.53125 
Q 36.53125 9.125 36.765625 7.6875 
Q 37.015625 6.25 37.578125 5.765625 
Q 38.140625 5.28125 38.875 5.28125 
Q 39.65625 5.28125 40.234375 5.609375 
Q 41.265625 6.25 44.1875 9.1875 
L 44.1875 6.453125 
Q 38.71875 -0.875 33.734375 -0.875 
Q 31.34375 -0.875 29.921875 0.78125 
Q 28.515625 2.4375 28.46875 6.453125 
z
M 28.46875 9.625 
L 28.46875 26.65625 
Q 21.09375 23.734375 18.953125 22.515625 
Q 15.09375 20.359375 13.421875 18.015625 
Q 11.765625 15.671875 11.765625 12.890625 
Q 11.765625 9.375 13.859375 7.046875 
Q 15.96875 4.734375 18.703125 4.734375 
Q 22.40625 4.734375 28.46875 9.625 
z
" id="TimesNewRomanPSMT-97"/>
       <path d="M 16.15625 36.578125 
Q 24.03125 46.046875 31.15625 46.046875 
Q 34.8125 46.046875 37.453125 44.21875 
Q 40.09375 42.390625 41.65625 38.1875 
Q 42.71875 35.25 42.71875 29.203125 
L 42.71875 10.109375 
Q 42.71875 5.859375 43.40625 4.34375 
Q 43.953125 3.125 45.140625 2.4375 
Q 46.34375 1.765625 49.5625 1.765625 
L 49.5625 0 
L 27.4375 0 
L 27.4375 1.765625 
L 28.375 1.765625 
Q 31.5 1.765625 32.734375 2.703125 
Q 33.984375 3.65625 34.46875 5.515625 
Q 34.671875 6.25 34.671875 10.109375 
L 34.671875 28.421875 
Q 34.671875 34.515625 33.078125 37.28125 
Q 31.5 40.046875 27.734375 40.046875 
Q 21.921875 40.046875 16.15625 33.6875 
L 16.15625 10.109375 
Q 16.15625 5.5625 16.703125 4.5 
Q 17.390625 3.078125 18.578125 2.421875 
Q 19.78125 1.765625 23.4375 1.765625 
L 23.4375 0 
L 1.3125 0 
L 1.3125 1.765625 
L 2.296875 1.765625 
Q 5.71875 1.765625 6.90625 3.484375 
Q 8.109375 5.21875 8.109375 10.109375 
L 8.109375 26.703125 
Q 8.109375 34.765625 7.734375 36.515625 
Q 7.375 38.28125 6.609375 38.90625 
Q 5.859375 39.546875 4.59375 39.546875 
Q 3.21875 39.546875 1.3125 38.8125 
L 0.59375 40.578125 
L 14.0625 46.046875 
L 16.15625 46.046875 
z
" id="TimesNewRomanPSMT-110"/>
       <path d="M 34.71875 5.03125 
Q 31.453125 1.609375 28.328125 0.109375 
Q 25.203125 -1.375 21.578125 -1.375 
Q 14.265625 -1.375 8.796875 4.75 
Q 3.328125 10.890625 3.328125 20.515625 
Q 3.328125 30.125 9.375 38.109375 
Q 15.4375 46.09375 24.953125 46.09375 
Q 30.859375 46.09375 34.71875 42.328125 
L 34.71875 50.59375 
Q 34.71875 58.25 34.34375 60 
Q 33.984375 61.765625 33.203125 62.390625 
Q 32.421875 63.03125 31.25 63.03125 
Q 29.984375 63.03125 27.875 62.25 
L 27.25 63.96875 
L 40.578125 69.4375 
L 42.78125 69.4375 
L 42.78125 17.71875 
Q 42.78125 9.859375 43.140625 8.125 
Q 43.5 6.390625 44.3125 5.703125 
Q 45.125 5.03125 46.1875 5.03125 
Q 47.515625 5.03125 49.703125 5.859375 
L 50.25 4.15625 
L 36.96875 -1.375 
L 34.71875 -1.375 
z
M 34.71875 8.453125 
L 34.71875 31.5 
Q 34.421875 34.8125 32.953125 37.546875 
Q 31.5 40.28125 29.078125 41.671875 
Q 26.65625 43.0625 24.359375 43.0625 
Q 20.0625 43.0625 16.703125 39.203125 
Q 12.25 34.125 12.25 24.359375 
Q 12.25 14.5 16.546875 9.25 
Q 20.84375 4 26.125 4 
Q 30.5625 4 34.71875 8.453125 
z
" id="TimesNewRomanPSMT-100"/>
       <path d="M 16.21875 46.046875 
L 16.21875 35.984375 
Q 21.828125 46.046875 27.734375 46.046875 
Q 30.421875 46.046875 32.171875 44.40625 
Q 33.9375 42.78125 33.9375 40.625 
Q 33.9375 38.71875 32.65625 37.390625 
Q 31.390625 36.078125 29.640625 36.078125 
Q 27.9375 36.078125 25.8125 37.765625 
Q 23.6875 39.453125 22.65625 39.453125 
Q 21.78125 39.453125 20.75 38.484375 
Q 18.5625 36.46875 16.21875 31.890625 
L 16.21875 10.453125 
Q 16.21875 6.734375 17.140625 4.828125 
Q 17.78125 3.515625 19.390625 2.640625 
Q 21 1.765625 24.03125 1.765625 
L 24.03125 0 
L 1.125 0 
L 1.125 1.765625 
Q 4.546875 1.765625 6.203125 2.828125 
Q 7.421875 3.609375 7.90625 5.328125 
Q 8.15625 6.15625 8.15625 10.0625 
L 8.15625 27.390625 
Q 8.15625 35.203125 7.828125 36.6875 
Q 7.515625 38.1875 6.65625 38.859375 
Q 5.8125 39.546875 4.546875 39.546875 
Q 3.03125 39.546875 1.125 38.8125 
L 0.640625 40.578125 
L 14.15625 46.046875 
z
" id="TimesNewRomanPSMT-114"/>
       <path d="M 0.828125 44.734375 
L 21.875 44.734375 
L 21.875 42.921875 
L 20.515625 42.921875 
Q 18.609375 42.921875 17.609375 41.984375 
Q 16.609375 41.0625 16.609375 39.5 
Q 16.609375 37.796875 17.625 35.453125 
L 28.03125 10.75 
L 38.484375 36.375 
Q 39.59375 39.109375 39.59375 40.53125 
Q 39.59375 41.21875 39.203125 41.65625 
Q 38.671875 42.390625 37.84375 42.65625 
Q 37.015625 42.921875 34.46875 42.921875 
L 34.46875 44.734375 
L 49.078125 44.734375 
L 49.078125 42.921875 
Q 46.53125 42.71875 45.5625 41.890625 
Q 43.84375 40.4375 42.484375 37.015625 
L 26.609375 -1.375 
L 24.609375 -1.375 
L 8.640625 36.375 
Q 7.5625 39.015625 6.578125 40.15625 
Q 5.609375 41.3125 4.109375 42.09375 
Q 3.265625 42.53125 0.828125 42.921875 
z
" id="TimesNewRomanPSMT-118"/>
      </defs>
      <use xlink:href="#TimesNewRomanPSMT-78"/>
      <use x="72.216797" xlink:href="#TimesNewRomanPSMT-111"/>
      <use x="122.216797" xlink:href="#TimesNewRomanPSMT-105"/>
      <use x="150" xlink:href="#TimesNewRomanPSMT-115"/>
      <use x="188.916016" xlink:href="#TimesNewRomanPSMT-101"/>
      <use x="233.300781" xlink:href="#TimesNewRomanPSMT-32"/>
      <use x="258.300781" xlink:href="#TimesNewRomanPSMT-115"/>
      <use x="297.216797" xlink:href="#TimesNewRomanPSMT-116"/>
      <use x="325" xlink:href="#TimesNewRomanPSMT-97"/>
      <use x="369.384766" xlink:href="#TimesNewRomanPSMT-110"/>
      <use x="419.384766" xlink:href="#TimesNewRomanPSMT-100"/>
      <use x="469.384766" xlink:href="#TimesNewRomanPSMT-97"/>
      <use x="513.769531" xlink:href="#TimesNewRomanPSMT-114"/>
      <use x="547.070312" xlink:href="#TimesNewRomanPSMT-100"/>
      <use x="597.070312" xlink:href="#TimesNewRomanPSMT-32"/>
      <use x="622.070312" xlink:href="#TimesNewRomanPSMT-100"/>
      <use x="672.070312" xlink:href="#TimesNewRomanPSMT-101"/>
      <use x="716.455078" xlink:href="#TimesNewRomanPSMT-118"/>
      <use x="766.455078" xlink:href="#TimesNewRomanPSMT-105"/>
      <use x="794.238281" xlink:href="#TimesNewRomanPSMT-97"/>
      <use x="838.623047" xlink:href="#TimesNewRomanPSMT-116"/>
      <use x="866.40625" xlink:href="#TimesNewRomanPSMT-105"/>
      <use x="894.189453" xlink:href="#TimesNewRomanPSMT-111"/>
      <use x="944.189453" xlink:href="#TimesNewRomanPSMT-110"/>
     </g>
    </g>
   </g>
   <g id="matplotlib.axis_2">
    <g id="ytick_1">
     <g id="line2d_7">
      <defs>
       <path d="M 0 0 
L -3.5 0 
" id="m10cdc37d68" style="stroke:#000000;stroke-width:0.8;"/>
      </defs>
      <g>
       <use style="stroke:#000000;stroke-width:0.8;" x="54" xlink:href="#m10cdc37d68" y="248.095615"/>
      </g>
     </g>
     <g id="text_8">
      <!-- −80 -->
      <g transform="translate(23.541406 253.303427)scale(0.15 -0.15)">
       <defs>
        <path d="M 54.4375 31.25 
L 1.8125 31.25 
L 1.8125 35.25 
L 54.4375 35.25 
z
" id="TimesNewRomanPSMT-8722"/>
        <path d="M 19.1875 33.34375 
Q 11.328125 39.796875 9.046875 43.703125 
Q 6.78125 47.609375 6.78125 51.8125 
Q 6.78125 58.25 11.765625 62.90625 
Q 16.75 67.578125 25 67.578125 
Q 33.015625 67.578125 37.890625 63.234375 
Q 42.78125 58.890625 42.78125 53.328125 
Q 42.78125 49.609375 40.140625 45.75 
Q 37.5 41.890625 29.15625 36.671875 
Q 37.75 30.03125 40.53125 26.21875 
Q 44.234375 21.234375 44.234375 15.71875 
Q 44.234375 8.734375 38.90625 3.78125 
Q 33.59375 -1.171875 24.953125 -1.171875 
Q 15.53125 -1.171875 10.25 4.734375 
Q 6.0625 9.46875 6.0625 15.09375 
Q 6.0625 19.484375 9.015625 23.796875 
Q 11.96875 28.125 19.1875 33.34375 
z
M 26.859375 38.578125 
Q 32.71875 43.84375 34.28125 46.890625 
Q 35.84375 49.953125 35.84375 53.8125 
Q 35.84375 58.9375 32.953125 61.84375 
Q 30.078125 64.75 25.09375 64.75 
Q 20.125 64.75 17 61.859375 
Q 13.875 58.984375 13.875 55.125 
Q 13.875 52.59375 15.15625 50.046875 
Q 16.453125 47.515625 18.84375 45.21875 
z
M 21.484375 31.5 
Q 17.4375 28.078125 15.484375 24.046875 
Q 13.53125 20.015625 13.53125 15.328125 
Q 13.53125 9.03125 16.96875 5.25 
Q 20.40625 1.46875 25.734375 1.46875 
Q 31 1.46875 34.171875 4.4375 
Q 37.359375 7.421875 37.359375 11.671875 
Q 37.359375 15.1875 35.5 17.96875 
Q 32.03125 23.140625 21.484375 31.5 
z
" id="TimesNewRomanPSMT-56"/>
       </defs>
       <use xlink:href="#TimesNewRomanPSMT-8722"/>
       <use x="56.396484" xlink:href="#TimesNewRomanPSMT-56"/>
       <use x="106.396484" xlink:href="#TimesNewRomanPSMT-48"/>
      </g>
     </g>
    </g>
    <g id="ytick_2">
     <g id="line2d_8">
      <g>
       <use style="stroke:#000000;stroke-width:0.8;" x="54" xlink:href="#m10cdc37d68" y="212.039322"/>
      </g>
     </g>
     <g id="text_9">
      <!-- −70 -->
      <g transform="translate(23.541406 217.247134)scale(0.15 -0.15)">
       <use xlink:href="#TimesNewRomanPSMT-8722"/>
       <use x="56.396484" xlink:href="#TimesNewRomanPSMT-55"/>
       <use x="106.396484" xlink:href="#TimesNewRomanPSMT-48"/>
      </g>
     </g>
    </g>
    <g id="ytick_3">
     <g id="line2d_9">
      <g>
       <use style="stroke:#000000;stroke-width:0.8;" x="54" xlink:href="#m10cdc37d68" y="175.983029"/>
      </g>
     </g>
     <g id="text_10">
      <!-- −60 -->
      <g transform="translate(23.541406 181.190841)scale(0.15 -0.15)">
       <use xlink:href="#TimesNewRomanPSMT-8722"/>
       <use x="56.396484" xlink:href="#TimesNewRomanPSMT-54"/>
       <use x="106.396484" xlink:href="#TimesNewRomanPSMT-48"/>
      </g>
     </g>
    </g>
    <g id="ytick_4">
     <g id="line2d_10">
      <g>
       <use style="stroke:#000000;stroke-width:0.8;" x="54" xlink:href="#m10cdc37d68" y="139.926736"/>
      </g>
     </g>
     <g id="text_11">
      <!-- −50 -->
      <g transform="translate(23.541406 145.134548)scale(0.15 -0.15)">
       <defs>
        <path d="M 43.40625 66.21875 
L 39.59375 57.90625 
L 19.671875 57.90625 
L 15.328125 49.03125 
Q 28.265625 47.125 35.84375 39.40625 
Q 42.328125 32.765625 42.328125 23.78125 
Q 42.328125 18.5625 40.203125 14.109375 
Q 38.09375 9.671875 34.859375 6.546875 
Q 31.640625 3.421875 27.6875 1.515625 
Q 22.078125 -1.171875 16.15625 -1.171875 
Q 10.203125 -1.171875 7.484375 0.84375 
Q 4.78125 2.875 4.78125 5.328125 
Q 4.78125 6.6875 5.90625 7.734375 
Q 7.03125 8.796875 8.734375 8.796875 
Q 10.015625 8.796875 10.96875 8.40625 
Q 11.921875 8.015625 14.203125 6.390625 
Q 17.875 3.859375 21.625 3.859375 
Q 27.34375 3.859375 31.65625 8.171875 
Q 35.984375 12.5 35.984375 18.703125 
Q 35.984375 24.703125 32.125 29.90625 
Q 28.265625 35.109375 21.484375 37.9375 
Q 16.15625 40.140625 6.984375 40.484375 
L 19.671875 66.21875 
z
" id="TimesNewRomanPSMT-53"/>
       </defs>
       <use xlink:href="#TimesNewRomanPSMT-8722"/>
       <use x="56.396484" xlink:href="#TimesNewRomanPSMT-53"/>
       <use x="106.396484" xlink:href="#TimesNewRomanPSMT-48"/>
      </g>
     </g>
    </g>
    <g id="ytick_5">
     <g id="line2d_11">
      <g>
       <use style="stroke:#000000;stroke-width:0.8;" x="54" xlink:href="#m10cdc37d68" y="103.870443"/>
      </g>
     </g>
     <g id="text_12">
      <!-- −40 -->
      <g transform="translate(23.541406 109.078255)scale(0.15 -0.15)">
       <defs>
        <path d="M 46.53125 24.421875 
L 46.53125 17.484375 
L 37.640625 17.484375 
L 37.640625 0 
L 29.59375 0 
L 29.59375 17.484375 
L 1.5625 17.484375 
L 1.5625 23.734375 
L 32.28125 67.578125 
L 37.640625 67.578125 
L 37.640625 24.421875 
z
M 29.59375 24.421875 
L 29.59375 57.28125 
L 6.34375 24.421875 
z
" id="TimesNewRomanPSMT-52"/>
       </defs>
       <use xlink:href="#TimesNewRomanPSMT-8722"/>
       <use x="56.396484" xlink:href="#TimesNewRomanPSMT-52"/>
       <use x="106.396484" xlink:href="#TimesNewRomanPSMT-48"/>
      </g>
     </g>
    </g>
    <g id="ytick_6">
     <g id="line2d_12">
      <g>
       <use style="stroke:#000000;stroke-width:0.8;" x="54" xlink:href="#m10cdc37d68" y="67.81415"/>
      </g>
     </g>
     <g id="text_13">
      <!-- −30 -->
      <g transform="translate(23.541406 73.021962)scale(0.15 -0.15)">
       <use xlink:href="#TimesNewRomanPSMT-8722"/>
       <use x="56.396484" xlink:href="#TimesNewRomanPSMT-51"/>
       <use x="106.396484" xlink:href="#TimesNewRomanPSMT-48"/>
      </g>
     </g>
    </g>
    <g id="text_14">
     <!-- Best function evaluation -->
     <g transform="translate(16.332812 216.597188)rotate(-90)scale(0.15 -0.15)">
      <defs>
       <path d="M 46.1875 33.796875 
Q 53.078125 32.328125 56.5 29.109375 
Q 61.234375 24.609375 61.234375 18.109375 
Q 61.234375 13.1875 58.109375 8.671875 
Q 54.984375 4.15625 49.53125 2.078125 
Q 44.09375 0 32.90625 0 
L 1.65625 0 
L 1.65625 1.8125 
L 4.15625 1.8125 
Q 8.296875 1.8125 10.109375 4.4375 
Q 11.234375 6.15625 11.234375 11.71875 
L 11.234375 54.5 
Q 11.234375 60.640625 9.8125 62.25 
Q 7.90625 64.40625 4.15625 64.40625 
L 1.65625 64.40625 
L 1.65625 66.21875 
L 30.28125 66.21875 
Q 38.28125 66.21875 43.109375 65.046875 
Q 50.4375 63.28125 54.296875 58.8125 
Q 58.15625 54.34375 58.15625 48.53125 
Q 58.15625 43.5625 55.125 39.625 
Q 52.09375 35.6875 46.1875 33.796875 
z
M 20.609375 36.421875 
Q 22.40625 36.078125 24.71875 35.90625 
Q 27.046875 35.75 29.828125 35.75 
Q 36.96875 35.75 40.546875 37.28125 
Q 44.140625 38.8125 46.046875 41.984375 
Q 47.953125 45.171875 47.953125 48.921875 
Q 47.953125 54.734375 43.21875 58.828125 
Q 38.484375 62.9375 29.390625 62.9375 
Q 24.515625 62.9375 20.609375 61.859375 
z
M 20.609375 4.78125 
Q 26.265625 3.46875 31.78125 3.46875 
Q 40.625 3.46875 45.265625 7.4375 
Q 49.90625 11.421875 49.90625 17.28125 
Q 49.90625 21.140625 47.796875 24.703125 
Q 45.703125 28.265625 40.96875 30.3125 
Q 36.234375 32.375 29.25 32.375 
Q 26.21875 32.375 24.0625 32.265625 
Q 21.921875 32.171875 20.609375 31.9375 
z
" id="TimesNewRomanPSMT-66"/>
       <path d="M 20.609375 41.21875 
L 20.609375 11.8125 
Q 20.609375 5.5625 21.96875 3.90625 
Q 23.78125 1.765625 26.8125 1.765625 
L 30.859375 1.765625 
L 30.859375 0 
L 4.15625 0 
L 4.15625 1.765625 
L 6.15625 1.765625 
Q 8.109375 1.765625 9.71875 2.734375 
Q 11.328125 3.71875 11.9375 5.375 
Q 12.546875 7.03125 12.546875 11.8125 
L 12.546875 41.21875 
L 3.859375 41.21875 
L 3.859375 44.734375 
L 12.546875 44.734375 
L 12.546875 47.65625 
Q 12.546875 54.34375 14.6875 58.984375 
Q 16.84375 63.625 21.265625 66.484375 
Q 25.6875 69.34375 31.203125 69.34375 
Q 36.328125 69.34375 40.625 66.015625 
Q 43.453125 63.8125 43.453125 61.078125 
Q 43.453125 59.625 42.1875 58.328125 
Q 40.921875 57.03125 39.453125 57.03125 
Q 38.328125 57.03125 37.078125 57.828125 
Q 35.84375 58.640625 34.03125 61.296875 
Q 32.234375 63.96875 30.71875 64.890625 
Q 29.203125 65.828125 27.34375 65.828125 
Q 25.09375 65.828125 23.53125 64.625 
Q 21.96875 63.421875 21.28125 60.90625 
Q 20.609375 58.40625 20.609375 47.953125 
L 20.609375 44.734375 
L 32.125 44.734375 
L 32.125 41.21875 
z
" id="TimesNewRomanPSMT-102"/>
       <path d="M 42.328125 44.734375 
L 42.328125 17.625 
Q 42.328125 9.859375 42.6875 8.125 
Q 43.0625 6.390625 43.859375 5.703125 
Q 44.671875 5.03125 45.75 5.03125 
Q 47.265625 5.03125 49.171875 5.859375 
L 49.859375 4.15625 
L 36.46875 -1.375 
L 34.28125 -1.375 
L 34.28125 8.109375 
Q 28.515625 1.859375 25.484375 0.234375 
Q 22.46875 -1.375 19.09375 -1.375 
Q 15.328125 -1.375 12.5625 0.796875 
Q 9.8125 2.984375 8.734375 6.390625 
Q 7.671875 9.8125 7.671875 16.0625 
L 7.671875 36.03125 
Q 7.671875 39.203125 6.984375 40.421875 
Q 6.296875 41.65625 4.953125 42.3125 
Q 3.609375 42.96875 0.09375 42.921875 
L 0.09375 44.734375 
L 15.765625 44.734375 
L 15.765625 14.796875 
Q 15.765625 8.546875 17.9375 6.59375 
Q 20.125 4.640625 23.1875 4.640625 
Q 25.296875 4.640625 27.953125 5.953125 
Q 30.609375 7.28125 34.28125 10.984375 
L 34.28125 36.328125 
Q 34.28125 40.140625 32.890625 41.484375 
Q 31.5 42.828125 27.09375 42.921875 
L 27.09375 44.734375 
z
" id="TimesNewRomanPSMT-117"/>
       <path d="M 41.109375 17 
Q 39.3125 8.15625 34.03125 3.390625 
Q 28.765625 -1.375 22.359375 -1.375 
Q 14.75 -1.375 9.078125 5.015625 
Q 3.421875 11.421875 3.421875 22.3125 
Q 3.421875 32.859375 9.6875 39.453125 
Q 15.96875 46.046875 24.75 46.046875 
Q 31.34375 46.046875 35.59375 42.546875 
Q 39.84375 39.0625 39.84375 35.296875 
Q 39.84375 33.453125 38.640625 32.296875 
Q 37.453125 31.15625 35.296875 31.15625 
Q 32.421875 31.15625 30.953125 33.015625 
Q 30.125 34.03125 29.859375 36.90625 
Q 29.59375 39.796875 27.875 41.3125 
Q 26.171875 42.78125 23.140625 42.78125 
Q 18.265625 42.78125 15.28125 39.15625 
Q 11.328125 34.375 11.328125 26.515625 
Q 11.328125 18.5 15.25 12.375 
Q 19.1875 6.25 25.875 6.25 
Q 30.671875 6.25 34.46875 9.515625 
Q 37.15625 11.765625 39.703125 17.671875 
z
" id="TimesNewRomanPSMT-99"/>
       <path d="M 18.5 69.4375 
L 18.5 10.109375 
Q 18.5 5.90625 19.109375 4.53125 
Q 19.734375 3.171875 21 2.46875 
Q 22.265625 1.765625 25.734375 1.765625 
L 25.734375 0 
L 3.8125 0 
L 3.8125 1.765625 
Q 6.890625 1.765625 8 2.390625 
Q 9.125 3.03125 9.765625 4.484375 
Q 10.40625 5.953125 10.40625 10.109375 
L 10.40625 50.734375 
Q 10.40625 58.296875 10.0625 60.03125 
Q 9.71875 61.765625 8.953125 62.390625 
Q 8.203125 63.03125 7.03125 63.03125 
Q 5.765625 63.03125 3.8125 62.25 
L 2.984375 63.96875 
L 16.3125 69.4375 
z
" id="TimesNewRomanPSMT-108"/>
      </defs>
      <use xlink:href="#TimesNewRomanPSMT-66"/>
      <use x="66.699219" xlink:href="#TimesNewRomanPSMT-101"/>
      <use x="111.083984" xlink:href="#TimesNewRomanPSMT-115"/>
      <use x="150" xlink:href="#TimesNewRomanPSMT-116"/>
      <use x="177.783203" xlink:href="#TimesNewRomanPSMT-32"/>
      <use x="202.783203" xlink:href="#TimesNewRomanPSMT-102"/>
      <use x="236.083984" xlink:href="#TimesNewRomanPSMT-117"/>
      <use x="286.083984" xlink:href="#TimesNewRomanPSMT-110"/>
      <use x="336.083984" xlink:href="#TimesNewRomanPSMT-99"/>
      <use x="380.46875" xlink:href="#TimesNewRomanPSMT-116"/>
      <use x="408.251953" xlink:href="#TimesNewRomanPSMT-105"/>
      <use x="436.035156" xlink:href="#TimesNewRomanPSMT-111"/>
      <use x="486.035156" xlink:href="#TimesNewRomanPSMT-110"/>
      <use x="536.035156" xlink:href="#TimesNewRomanPSMT-32"/>
      <use x="561.035156" xlink:href="#TimesNewRomanPSMT-101"/>
      <use x="605.419922" xlink:href="#TimesNewRomanPSMT-118"/>
      <use x="655.419922" xlink:href="#TimesNewRomanPSMT-97"/>
      <use x="699.804688" xlink:href="#TimesNewRomanPSMT-108"/>
      <use x="727.587891" xlink:href="#TimesNewRomanPSMT-117"/>
      <use x="777.587891" xlink:href="#TimesNewRomanPSMT-97"/>
      <use x="821.972656" xlink:href="#TimesNewRomanPSMT-116"/>
      <use x="849.755859" xlink:href="#TimesNewRomanPSMT-105"/>
      <use x="877.539062" xlink:href="#TimesNewRomanPSMT-111"/>
      <use x="927.539062" xlink:href="#TimesNewRomanPSMT-110"/>
     </g>
    </g>
   </g>
   <g id="line2d_13">
    <path clip-path="url(#pb14cd18652)" d="M 65.16 194.924927 
L 65.16 217.032886 
" style="fill:none;stroke:#545454;stroke-linecap:square;stroke-width:1.5;"/>
   </g>
   <g id="line2d_14">
    <path clip-path="url(#pb14cd18652)" d="M 65.16 177.774171 
L 65.16 168.475727 
" style="fill:none;stroke:#545454;stroke-linecap:square;stroke-width:1.5;"/>
   </g>
   <g id="line2d_15">
    <path clip-path="url(#pb14cd18652)" d="M 62.4258 217.032886 
L 67.8942 217.032886 
" style="fill:none;stroke:#545454;stroke-linecap:square;stroke-width:1.5;"/>
   </g>
   <g id="line2d_16">
    <path clip-path="url(#pb14cd18652)" d="M 62.4258 168.475727 
L 67.8942 168.475727 
" style="fill:none;stroke:#545454;stroke-linecap:square;stroke-width:1.5;"/>
   </g>
   <g id="line2d_17"/>
   <g id="line2d_18">
    <path clip-path="url(#pb14cd18652)" d="M 76.32 225.622244 
L 76.32 229.514247 
" style="fill:none;stroke:#545454;stroke-linecap:square;stroke-width:1.5;"/>
   </g>
   <g id="line2d_19">
    <path clip-path="url(#pb14cd18652)" d="M 76.32 221.909437 
L 76.32 220.1494 
" style="fill:none;stroke:#545454;stroke-linecap:square;stroke-width:1.5;"/>
   </g>
   <g id="line2d_20">
    <path clip-path="url(#pb14cd18652)" d="M 73.5858 229.514247 
L 79.0542 229.514247 
" style="fill:none;stroke:#545454;stroke-linecap:square;stroke-width:1.5;"/>
   </g>
   <g id="line2d_21">
    <path clip-path="url(#pb14cd18652)" d="M 73.5858 220.1494 
L 79.0542 220.1494 
" style="fill:none;stroke:#545454;stroke-linecap:square;stroke-width:1.5;"/>
   </g>
   <g id="line2d_22">
    <defs>
     <path d="M 0 3.535534 
L 2.12132 0 
L 0 -3.535534 
L -2.12132 0 
z
" id="m2d91436516" style="stroke:#545454;stroke-linejoin:miter;"/>
    </defs>
    <g clip-path="url(#pb14cd18652)">
     <use style="fill:#545454;stroke:#545454;stroke-linejoin:miter;" x="76.32" xlink:href="#m2d91436516" y="215.01533"/>
    </g>
   </g>
   <g id="line2d_23">
    <path clip-path="url(#pb14cd18652)" d="M 87.48 213.618356 
L 87.48 222.945654 
" style="fill:none;stroke:#545454;stroke-linecap:square;stroke-width:1.5;"/>
   </g>
   <g id="line2d_24">
    <path clip-path="url(#pb14cd18652)" d="M 87.48 206.098947 
L 87.48 201.489085 
" style="fill:none;stroke:#545454;stroke-linecap:square;stroke-width:1.5;"/>
   </g>
   <g id="line2d_25">
    <path clip-path="url(#pb14cd18652)" d="M 84.7458 222.945654 
L 90.2142 222.945654 
" style="fill:none;stroke:#545454;stroke-linecap:square;stroke-width:1.5;"/>
   </g>
   <g id="line2d_26">
    <path clip-path="url(#pb14cd18652)" d="M 84.7458 201.489085 
L 90.2142 201.489085 
" style="fill:none;stroke:#545454;stroke-linecap:square;stroke-width:1.5;"/>
   </g>
   <g id="line2d_27">
    <g clip-path="url(#pb14cd18652)">
     <use style="fill:#545454;stroke:#545454;stroke-linejoin:miter;" x="87.48" xlink:href="#m2d91436516" y="191.395018"/>
     <use style="fill:#545454;stroke:#545454;stroke-linejoin:miter;" x="87.48" xlink:href="#m2d91436516" y="191.172386"/>
     <use style="fill:#545454;stroke:#545454;stroke-linejoin:miter;" x="87.48" xlink:href="#m2d91436516" y="181.943384"/>
    </g>
   </g>
   <g id="line2d_28">
    <path clip-path="url(#pb14cd18652)" d="M 98.64 235.291644 
L 98.64 236.345877 
" style="fill:none;stroke:#545454;stroke-linecap:square;stroke-width:1.5;"/>
   </g>
   <g id="line2d_29">
    <path clip-path="url(#pb14cd18652)" d="M 98.64 232.375577 
L 98.64 230.783411 
" style="fill:none;stroke:#545454;stroke-linecap:square;stroke-width:1.5;"/>
   </g>
   <g id="line2d_30">
    <path clip-path="url(#pb14cd18652)" d="M 95.9058 236.345877 
L 101.3742 236.345877 
" style="fill:none;stroke:#545454;stroke-linecap:square;stroke-width:1.5;"/>
   </g>
   <g id="line2d_31">
    <path clip-path="url(#pb14cd18652)" d="M 95.9058 230.783411 
L 101.3742 230.783411 
" style="fill:none;stroke:#545454;stroke-linecap:square;stroke-width:1.5;"/>
   </g>
   <g id="line2d_32">
    <g clip-path="url(#pb14cd18652)">
     <use style="fill:#545454;stroke:#545454;stroke-linejoin:miter;" x="98.64" xlink:href="#m2d91436516" y="224.353099"/>
    </g>
   </g>
   <g id="line2d_33">
    <path clip-path="url(#pb14cd18652)" d="M 120.96 203.746257 
L 120.96 229.236903 
" style="fill:none;stroke:#545454;stroke-linecap:square;stroke-width:1.5;"/>
   </g>
   <g id="line2d_34">
    <path clip-path="url(#pb14cd18652)" d="M 120.96 176.052198 
L 120.96 147.545448 
" style="fill:none;stroke:#545454;stroke-linecap:square;stroke-width:1.5;"/>
   </g>
   <g id="line2d_35">
    <path clip-path="url(#pb14cd18652)" d="M 118.2258 229.236903 
L 123.6942 229.236903 
" style="fill:none;stroke:#545454;stroke-linecap:square;stroke-width:1.5;"/>
   </g>
   <g id="line2d_36">
    <path clip-path="url(#pb14cd18652)" d="M 118.2258 147.545448 
L 123.6942 147.545448 
" style="fill:none;stroke:#545454;stroke-linecap:square;stroke-width:1.5;"/>
   </g>
   <g id="line2d_37"/>
   <g id="line2d_38">
    <path clip-path="url(#pb14cd18652)" d="M 132.12 224.257065 
L 132.12 227.35808 
" style="fill:none;stroke:#545454;stroke-linecap:square;stroke-width:1.5;"/>
   </g>
   <g id="line2d_39">
    <path clip-path="url(#pb14cd18652)" d="M 132.12 221.22556 
L 132.12 219.741188 
" style="fill:none;stroke:#545454;stroke-linecap:square;stroke-width:1.5;"/>
   </g>
   <g id="line2d_40">
    <path clip-path="url(#pb14cd18652)" d="M 129.3858 227.35808 
L 134.8542 227.35808 
" style="fill:none;stroke:#545454;stroke-linecap:square;stroke-width:1.5;"/>
   </g>
   <g id="line2d_41">
    <path clip-path="url(#pb14cd18652)" d="M 129.3858 219.741188 
L 134.8542 219.741188 
" style="fill:none;stroke:#545454;stroke-linecap:square;stroke-width:1.5;"/>
   </g>
   <g id="line2d_42">
    <g clip-path="url(#pb14cd18652)">
     <use style="fill:#545454;stroke:#545454;stroke-linejoin:miter;" x="132.12" xlink:href="#m2d91436516" y="229.394364"/>
     <use style="fill:#545454;stroke:#545454;stroke-linejoin:miter;" x="132.12" xlink:href="#m2d91436516" y="213.753491"/>
     <use style="fill:#545454;stroke:#545454;stroke-linejoin:miter;" x="132.12" xlink:href="#m2d91436516" y="213.203792"/>
    </g>
   </g>
   <g id="line2d_43">
    <path clip-path="url(#pb14cd18652)" d="M 143.28 209.691409 
L 143.28 222.626097 
" style="fill:none;stroke:#545454;stroke-linecap:square;stroke-width:1.5;"/>
   </g>
   <g id="line2d_44">
    <path clip-path="url(#pb14cd18652)" d="M 143.28 199.543149 
L 143.28 190.308023 
" style="fill:none;stroke:#545454;stroke-linecap:square;stroke-width:1.5;"/>
   </g>
   <g id="line2d_45">
    <path clip-path="url(#pb14cd18652)" d="M 140.5458 222.626097 
L 146.0142 222.626097 
" style="fill:none;stroke:#545454;stroke-linecap:square;stroke-width:1.5;"/>
   </g>
   <g id="line2d_46">
    <path clip-path="url(#pb14cd18652)" d="M 140.5458 190.308023 
L 146.0142 190.308023 
" style="fill:none;stroke:#545454;stroke-linecap:square;stroke-width:1.5;"/>
   </g>
   <g id="line2d_47">
    <g clip-path="url(#pb14cd18652)">
     <use style="fill:#545454;stroke:#545454;stroke-linejoin:miter;" x="143.28" xlink:href="#m2d91436516" y="182.376795"/>
    </g>
   </g>
   <g id="line2d_48">
    <path clip-path="url(#pb14cd18652)" d="M 154.44 235.366441 
L 154.44 237.455938 
" style="fill:none;stroke:#545454;stroke-linecap:square;stroke-width:1.5;"/>
   </g>
   <g id="line2d_49">
    <path clip-path="url(#pb14cd18652)" d="M 154.44 231.991521 
L 154.44 228.67613 
" style="fill:none;stroke:#545454;stroke-linecap:square;stroke-width:1.5;"/>
   </g>
   <g id="line2d_50">
    <path clip-path="url(#pb14cd18652)" d="M 151.7058 237.455938 
L 157.1742 237.455938 
" style="fill:none;stroke:#545454;stroke-linecap:square;stroke-width:1.5;"/>
   </g>
   <g id="line2d_51">
    <path clip-path="url(#pb14cd18652)" d="M 151.7058 228.67613 
L 157.1742 228.67613 
" style="fill:none;stroke:#545454;stroke-linecap:square;stroke-width:1.5;"/>
   </g>
   <g id="line2d_52">
    <g clip-path="url(#pb14cd18652)">
     <use style="fill:#545454;stroke:#545454;stroke-linejoin:miter;" x="154.44" xlink:href="#m2d91436516" y="221.593805"/>
    </g>
   </g>
   <g id="line2d_53">
    <path clip-path="url(#pb14cd18652)" d="M 176.76 199.88241 
L 176.76 231.413528 
" style="fill:none;stroke:#545454;stroke-linecap:square;stroke-width:1.5;"/>
   </g>
   <g id="line2d_54">
    <path clip-path="url(#pb14cd18652)" d="M 176.76 141.97988 
L 176.76 108.888279 
" style="fill:none;stroke:#545454;stroke-linecap:square;stroke-width:1.5;"/>
   </g>
   <g id="line2d_55">
    <path clip-path="url(#pb14cd18652)" d="M 174.0258 231.413528 
L 179.4942 231.413528 
" style="fill:none;stroke:#545454;stroke-linecap:square;stroke-width:1.5;"/>
   </g>
   <g id="line2d_56">
    <path clip-path="url(#pb14cd18652)" d="M 174.0258 108.888279 
L 179.4942 108.888279 
" style="fill:none;stroke:#545454;stroke-linecap:square;stroke-width:1.5;"/>
   </g>
   <g id="line2d_57"/>
   <g id="line2d_58">
    <path clip-path="url(#pb14cd18652)" d="M 187.92 225.92129 
L 187.92 231.855581 
" style="fill:none;stroke:#545454;stroke-linecap:square;stroke-width:1.5;"/>
   </g>
   <g id="line2d_59">
    <path clip-path="url(#pb14cd18652)" d="M 187.92 221.483538 
L 187.92 218.038494 
" style="fill:none;stroke:#545454;stroke-linecap:square;stroke-width:1.5;"/>
   </g>
   <g id="line2d_60">
    <path clip-path="url(#pb14cd18652)" d="M 185.1858 231.855581 
L 190.6542 231.855581 
" style="fill:none;stroke:#545454;stroke-linecap:square;stroke-width:1.5;"/>
   </g>
   <g id="line2d_61">
    <path clip-path="url(#pb14cd18652)" d="M 185.1858 218.038494 
L 190.6542 218.038494 
" style="fill:none;stroke:#545454;stroke-linecap:square;stroke-width:1.5;"/>
   </g>
   <g id="line2d_62">
    <g clip-path="url(#pb14cd18652)">
     <use style="fill:#545454;stroke:#545454;stroke-linejoin:miter;" x="187.92" xlink:href="#m2d91436516" y="206.971882"/>
    </g>
   </g>
   <g id="line2d_63">
    <path clip-path="url(#pb14cd18652)" d="M 199.08 209.973976 
L 199.08 222.306561 
" style="fill:none;stroke:#545454;stroke-linecap:square;stroke-width:1.5;"/>
   </g>
   <g id="line2d_64">
    <path clip-path="url(#pb14cd18652)" d="M 199.08 199.957767 
L 199.08 189.858318 
" style="fill:none;stroke:#545454;stroke-linecap:square;stroke-width:1.5;"/>
   </g>
   <g id="line2d_65">
    <path clip-path="url(#pb14cd18652)" d="M 196.3458 222.306561 
L 201.8142 222.306561 
" style="fill:none;stroke:#545454;stroke-linecap:square;stroke-width:1.5;"/>
   </g>
   <g id="line2d_66">
    <path clip-path="url(#pb14cd18652)" d="M 196.3458 189.858318 
L 201.8142 189.858318 
" style="fill:none;stroke:#545454;stroke-linecap:square;stroke-width:1.5;"/>
   </g>
   <g id="line2d_67">
    <g clip-path="url(#pb14cd18652)">
     <use style="fill:#545454;stroke:#545454;stroke-linejoin:miter;" x="199.08" xlink:href="#m2d91436516" y="182.810205"/>
    </g>
   </g>
   <g id="line2d_68">
    <path clip-path="url(#pb14cd18652)" d="M 210.24 234.468623 
L 210.24 236.154553 
" style="fill:none;stroke:#545454;stroke-linecap:square;stroke-width:1.5;"/>
   </g>
   <g id="line2d_69">
    <path clip-path="url(#pb14cd18652)" d="M 210.24 232.576185 
L 210.24 230.84338 
" style="fill:none;stroke:#545454;stroke-linecap:square;stroke-width:1.5;"/>
   </g>
   <g id="line2d_70">
    <path clip-path="url(#pb14cd18652)" d="M 207.5058 236.154553 
L 212.9742 236.154553 
" style="fill:none;stroke:#545454;stroke-linecap:square;stroke-width:1.5;"/>
   </g>
   <g id="line2d_71">
    <path clip-path="url(#pb14cd18652)" d="M 207.5058 230.84338 
L 212.9742 230.84338 
" style="fill:none;stroke:#545454;stroke-linecap:square;stroke-width:1.5;"/>
   </g>
   <g id="line2d_72">
    <g clip-path="url(#pb14cd18652)">
     <use style="fill:#545454;stroke:#545454;stroke-linejoin:miter;" x="210.24" xlink:href="#m2d91436516" y="237.762441"/>
     <use style="fill:#545454;stroke:#545454;stroke-linejoin:miter;" x="210.24" xlink:href="#m2d91436516" y="225.583759"/>
     <use style="fill:#545454;stroke:#545454;stroke-linejoin:miter;" x="210.24" xlink:href="#m2d91436516" y="227.70529"/>
    </g>
   </g>
   <g id="line2d_73">
    <path clip-path="url(#pb14cd18652)" d="M 232.56 198.775083 
L 232.56 222.965143 
" style="fill:none;stroke:#545454;stroke-linecap:square;stroke-width:1.5;"/>
   </g>
   <g id="line2d_74">
    <path clip-path="url(#pb14cd18652)" d="M 232.56 145.853804 
L 232.56 118.835246 
" style="fill:none;stroke:#545454;stroke-linecap:square;stroke-width:1.5;"/>
   </g>
   <g id="line2d_75">
    <path clip-path="url(#pb14cd18652)" d="M 229.8258 222.965143 
L 235.2942 222.965143 
" style="fill:none;stroke:#545454;stroke-linecap:square;stroke-width:1.5;"/>
   </g>
   <g id="line2d_76">
    <path clip-path="url(#pb14cd18652)" d="M 229.8258 118.835246 
L 235.2942 118.835246 
" style="fill:none;stroke:#545454;stroke-linecap:square;stroke-width:1.5;"/>
   </g>
   <g id="line2d_77">
    <g clip-path="url(#pb14cd18652)">
     <use style="fill:#545454;stroke:#545454;stroke-linejoin:miter;" x="232.56" xlink:href="#m2d91436516" y="44.443636"/>
    </g>
   </g>
   <g id="line2d_78">
    <path clip-path="url(#pb14cd18652)" d="M 243.72 224.313991 
L 243.72 232.302511 
" style="fill:none;stroke:#545454;stroke-linecap:square;stroke-width:1.5;"/>
   </g>
   <g id="line2d_79">
    <path clip-path="url(#pb14cd18652)" d="M 243.72 217.705743 
L 243.72 216.784756 
" style="fill:none;stroke:#545454;stroke-linecap:square;stroke-width:1.5;"/>
   </g>
   <g id="line2d_80">
    <path clip-path="url(#pb14cd18652)" d="M 240.9858 232.302511 
L 246.4542 232.302511 
" style="fill:none;stroke:#545454;stroke-linecap:square;stroke-width:1.5;"/>
   </g>
   <g id="line2d_81">
    <path clip-path="url(#pb14cd18652)" d="M 240.9858 216.784756 
L 246.4542 216.784756 
" style="fill:none;stroke:#545454;stroke-linecap:square;stroke-width:1.5;"/>
   </g>
   <g id="line2d_82">
    <g clip-path="url(#pb14cd18652)">
     <use style="fill:#545454;stroke:#545454;stroke-linejoin:miter;" x="243.72" xlink:href="#m2d91436516" y="202.324748"/>
     <use style="fill:#545454;stroke:#545454;stroke-linejoin:miter;" x="243.72" xlink:href="#m2d91436516" y="206.418232"/>
    </g>
   </g>
   <g id="line2d_83">
    <path clip-path="url(#pb14cd18652)" d="M 254.88 211.291057 
L 254.88 218.055795 
" style="fill:none;stroke:#545454;stroke-linecap:square;stroke-width:1.5;"/>
   </g>
   <g id="line2d_84">
    <path clip-path="url(#pb14cd18652)" d="M 254.88 205.632982 
L 254.88 203.885282 
" style="fill:none;stroke:#545454;stroke-linecap:square;stroke-width:1.5;"/>
   </g>
   <g id="line2d_85">
    <path clip-path="url(#pb14cd18652)" d="M 252.1458 218.055795 
L 257.6142 218.055795 
" style="fill:none;stroke:#545454;stroke-linecap:square;stroke-width:1.5;"/>
   </g>
   <g id="line2d_86">
    <path clip-path="url(#pb14cd18652)" d="M 252.1458 203.885282 
L 257.6142 203.885282 
" style="fill:none;stroke:#545454;stroke-linecap:square;stroke-width:1.5;"/>
   </g>
   <g id="line2d_87">
    <g clip-path="url(#pb14cd18652)">
     <use style="fill:#545454;stroke:#545454;stroke-linejoin:miter;" x="254.88" xlink:href="#m2d91436516" y="221.987042"/>
     <use style="fill:#545454;stroke:#545454;stroke-linejoin:miter;" x="254.88" xlink:href="#m2d91436516" y="229.149923"/>
     <use style="fill:#545454;stroke:#545454;stroke-linejoin:miter;" x="254.88" xlink:href="#m2d91436516" y="189.446165"/>
     <use style="fill:#545454;stroke:#545454;stroke-linejoin:miter;" x="254.88" xlink:href="#m2d91436516" y="190.270933"/>
     <use style="fill:#545454;stroke:#545454;stroke-linejoin:miter;" x="254.88" xlink:href="#m2d91436516" y="190.066104"/>
     <use style="fill:#545454;stroke:#545454;stroke-linejoin:miter;" x="254.88" xlink:href="#m2d91436516" y="183.243616"/>
    </g>
   </g>
   <g id="line2d_88">
    <path clip-path="url(#pb14cd18652)" d="M 266.04 234.988388 
L 266.04 236.72514 
" style="fill:none;stroke:#545454;stroke-linecap:square;stroke-width:1.5;"/>
   </g>
   <g id="line2d_89">
    <path clip-path="url(#pb14cd18652)" d="M 266.04 232.557596 
L 266.04 231.550961 
" style="fill:none;stroke:#545454;stroke-linecap:square;stroke-width:1.5;"/>
   </g>
   <g id="line2d_90">
    <path clip-path="url(#pb14cd18652)" d="M 263.3058 236.72514 
L 268.7742 236.72514 
" style="fill:none;stroke:#545454;stroke-linecap:square;stroke-width:1.5;"/>
   </g>
   <g id="line2d_91">
    <path clip-path="url(#pb14cd18652)" d="M 263.3058 231.550961 
L 268.7742 231.550961 
" style="fill:none;stroke:#545454;stroke-linecap:square;stroke-width:1.5;"/>
   </g>
   <g id="line2d_92">
    <g clip-path="url(#pb14cd18652)">
     <use style="fill:#545454;stroke:#545454;stroke-linejoin:miter;" x="266.04" xlink:href="#m2d91436516" y="239.361938"/>
    </g>
   </g>
   <g id="line2d_93">
    <path clip-path="url(#pb14cd18652)" d="M 288.36 196.702761 
L 288.36 223.760411 
" style="fill:none;stroke:#545454;stroke-linecap:square;stroke-width:1.5;"/>
   </g>
   <g id="line2d_94">
    <path clip-path="url(#pb14cd18652)" d="M 288.36 164.882864 
L 288.36 131.372511 
" style="fill:none;stroke:#545454;stroke-linecap:square;stroke-width:1.5;"/>
   </g>
   <g id="line2d_95">
    <path clip-path="url(#pb14cd18652)" d="M 285.6258 223.760411 
L 291.0942 223.760411 
" style="fill:none;stroke:#545454;stroke-linecap:square;stroke-width:1.5;"/>
   </g>
   <g id="line2d_96">
    <path clip-path="url(#pb14cd18652)" d="M 285.6258 131.372511 
L 291.0942 131.372511 
" style="fill:none;stroke:#545454;stroke-linecap:square;stroke-width:1.5;"/>
   </g>
   <g id="line2d_97"/>
   <g id="line2d_98">
    <path clip-path="url(#pb14cd18652)" d="M 299.52 224.744357 
L 299.52 232.692308 
" style="fill:none;stroke:#545454;stroke-linecap:square;stroke-width:1.5;"/>
   </g>
   <g id="line2d_99">
    <path clip-path="url(#pb14cd18652)" d="M 299.52 217.470069 
L 299.52 215.338678 
" style="fill:none;stroke:#545454;stroke-linecap:square;stroke-width:1.5;"/>
   </g>
   <g id="line2d_100">
    <path clip-path="url(#pb14cd18652)" d="M 296.7858 232.692308 
L 302.2542 232.692308 
" style="fill:none;stroke:#545454;stroke-linecap:square;stroke-width:1.5;"/>
   </g>
   <g id="line2d_101">
    <path clip-path="url(#pb14cd18652)" d="M 296.7858 215.338678 
L 302.2542 215.338678 
" style="fill:none;stroke:#545454;stroke-linecap:square;stroke-width:1.5;"/>
   </g>
   <g id="line2d_102">
    <g clip-path="url(#pb14cd18652)">
     <use style="fill:#545454;stroke:#545454;stroke-linejoin:miter;" x="299.52" xlink:href="#m2d91436516" y="198.249481"/>
    </g>
   </g>
   <g id="line2d_103">
    <path clip-path="url(#pb14cd18652)" d="M 310.68 209.738641 
L 310.68 218.273152 
" style="fill:none;stroke:#545454;stroke-linecap:square;stroke-width:1.5;"/>
   </g>
   <g id="line2d_104">
    <path clip-path="url(#pb14cd18652)" d="M 310.68 201.005623 
L 310.68 188.796548 
" style="fill:none;stroke:#545454;stroke-linecap:square;stroke-width:1.5;"/>
   </g>
   <g id="line2d_105">
    <path clip-path="url(#pb14cd18652)" d="M 307.9458 218.273152 
L 313.4142 218.273152 
" style="fill:none;stroke:#545454;stroke-linecap:square;stroke-width:1.5;"/>
   </g>
   <g id="line2d_106">
    <path clip-path="url(#pb14cd18652)" d="M 307.9458 188.796548 
L 313.4142 188.796548 
" style="fill:none;stroke:#545454;stroke-linecap:square;stroke-width:1.5;"/>
   </g>
   <g id="line2d_107">
    <g clip-path="url(#pb14cd18652)">
     <use style="fill:#545454;stroke:#545454;stroke-linejoin:miter;" x="310.68" xlink:href="#m2d91436516" y="183.677026"/>
    </g>
   </g>
   <g id="line2d_108">
    <path clip-path="url(#pb14cd18652)" d="M 321.84 234.938597 
L 321.84 239.294844 
" style="fill:none;stroke:#545454;stroke-linecap:square;stroke-width:1.5;"/>
   </g>
   <g id="line2d_109">
    <path clip-path="url(#pb14cd18652)" d="M 321.84 229.842102 
L 321.84 225.064696 
" style="fill:none;stroke:#545454;stroke-linecap:square;stroke-width:1.5;"/>
   </g>
   <g id="line2d_110">
    <path clip-path="url(#pb14cd18652)" d="M 319.1058 239.294844 
L 324.5742 239.294844 
" style="fill:none;stroke:#545454;stroke-linecap:square;stroke-width:1.5;"/>
   </g>
   <g id="line2d_111">
    <path clip-path="url(#pb14cd18652)" d="M 319.1058 225.064696 
L 324.5742 225.064696 
" style="fill:none;stroke:#545454;stroke-linecap:square;stroke-width:1.5;"/>
   </g>
   <g id="line2d_112"/>
   <g id="line2d_113">
    <path clip-path="url(#pb14cd18652)" d="M 344.16 189.931264 
L 344.16 207.15386 
" style="fill:none;stroke:#545454;stroke-linecap:square;stroke-width:1.5;"/>
   </g>
   <g id="line2d_114">
    <path clip-path="url(#pb14cd18652)" d="M 344.16 165.042618 
L 344.16 137.684912 
" style="fill:none;stroke:#545454;stroke-linecap:square;stroke-width:1.5;"/>
   </g>
   <g id="line2d_115">
    <path clip-path="url(#pb14cd18652)" d="M 341.4258 207.15386 
L 346.8942 207.15386 
" style="fill:none;stroke:#545454;stroke-linecap:square;stroke-width:1.5;"/>
   </g>
   <g id="line2d_116">
    <path clip-path="url(#pb14cd18652)" d="M 341.4258 137.684912 
L 346.8942 137.684912 
" style="fill:none;stroke:#545454;stroke-linecap:square;stroke-width:1.5;"/>
   </g>
   <g id="line2d_117"/>
   <g id="line2d_118">
    <path clip-path="url(#pb14cd18652)" d="M 355.32 224.347518 
L 355.32 229.047358 
" style="fill:none;stroke:#545454;stroke-linecap:square;stroke-width:1.5;"/>
   </g>
   <g id="line2d_119">
    <path clip-path="url(#pb14cd18652)" d="M 355.32 214.484966 
L 355.32 207.865412 
" style="fill:none;stroke:#545454;stroke-linecap:square;stroke-width:1.5;"/>
   </g>
   <g id="line2d_120">
    <path clip-path="url(#pb14cd18652)" d="M 352.5858 229.047358 
L 358.0542 229.047358 
" style="fill:none;stroke:#545454;stroke-linecap:square;stroke-width:1.5;"/>
   </g>
   <g id="line2d_121">
    <path clip-path="url(#pb14cd18652)" d="M 352.5858 207.865412 
L 358.0542 207.865412 
" style="fill:none;stroke:#545454;stroke-linecap:square;stroke-width:1.5;"/>
   </g>
   <g id="line2d_122">
    <g clip-path="url(#pb14cd18652)">
     <use style="fill:#545454;stroke:#545454;stroke-linejoin:miter;" x="355.32" xlink:href="#m2d91436516" y="174.432368"/>
    </g>
   </g>
   <g id="line2d_123">
    <path clip-path="url(#pb14cd18652)" d="M 366.48 209.768061 
L 366.48 218.490519 
" style="fill:none;stroke:#545454;stroke-linecap:square;stroke-width:1.5;"/>
   </g>
   <g id="line2d_124">
    <path clip-path="url(#pb14cd18652)" d="M 366.48 200.463789 
L 366.48 188.14693 
" style="fill:none;stroke:#545454;stroke-linecap:square;stroke-width:1.5;"/>
   </g>
   <g id="line2d_125">
    <path clip-path="url(#pb14cd18652)" d="M 363.7458 218.490519 
L 369.2142 218.490519 
" style="fill:none;stroke:#545454;stroke-linecap:square;stroke-width:1.5;"/>
   </g>
   <g id="line2d_126">
    <path clip-path="url(#pb14cd18652)" d="M 363.7458 188.14693 
L 369.2142 188.14693 
" style="fill:none;stroke:#545454;stroke-linecap:square;stroke-width:1.5;"/>
   </g>
   <g id="line2d_127">
    <g clip-path="url(#pb14cd18652)">
     <use style="fill:#545454;stroke:#545454;stroke-linejoin:miter;" x="366.48" xlink:href="#m2d91436516" y="184.110437"/>
    </g>
   </g>
   <g id="line2d_128">
    <path clip-path="url(#pb14cd18652)" d="M 377.64 235.467742 
L 377.64 240.109021 
" style="fill:none;stroke:#545454;stroke-linecap:square;stroke-width:1.5;"/>
   </g>
   <g id="line2d_129">
    <path clip-path="url(#pb14cd18652)" d="M 377.64 231.666051 
L 377.64 226.74881 
" style="fill:none;stroke:#545454;stroke-linecap:square;stroke-width:1.5;"/>
   </g>
   <g id="line2d_130">
    <path clip-path="url(#pb14cd18652)" d="M 374.9058 240.109021 
L 380.3742 240.109021 
" style="fill:none;stroke:#545454;stroke-linecap:square;stroke-width:1.5;"/>
   </g>
   <g id="line2d_131">
    <path clip-path="url(#pb14cd18652)" d="M 374.9058 226.74881 
L 380.3742 226.74881 
" style="fill:none;stroke:#545454;stroke-linecap:square;stroke-width:1.5;"/>
   </g>
   <g id="line2d_132">
    <g clip-path="url(#pb14cd18652)">
     <use style="fill:#545454;stroke:#545454;stroke-linejoin:miter;" x="377.64" xlink:href="#m2d91436516" y="242.116364"/>
     <use style="fill:#545454;stroke:#545454;stroke-linejoin:miter;" x="377.64" xlink:href="#m2d91436516" y="220.209151"/>
    </g>
   </g>
   <g id="line2d_133">
    <path clip-path="url(#pb14cd18652)" d="M 59.6916 185.974366 
L 70.6284 185.974366 
" style="fill:none;stroke:#545454;stroke-linecap:square;stroke-width:1.5;"/>
   </g>
   <g id="line2d_134">
    <path clip-path="url(#pb14cd18652)" d="M 70.8516 224.324174 
L 81.7884 224.324174 
" style="fill:none;stroke:#545454;stroke-linecap:square;stroke-width:1.5;"/>
   </g>
   <g id="line2d_135">
    <path clip-path="url(#pb14cd18652)" d="M 82.0116 208.992543 
L 92.9484 208.992543 
" style="fill:none;stroke:#545454;stroke-linecap:square;stroke-width:1.5;"/>
   </g>
   <g id="line2d_136">
    <path clip-path="url(#pb14cd18652)" d="M 93.1716 233.269571 
L 104.1084 233.269571 
" style="fill:none;stroke:#545454;stroke-linecap:square;stroke-width:1.5;"/>
   </g>
   <g id="line2d_137">
    <path clip-path="url(#pb14cd18652)" d="M 115.4916 194.344037 
L 126.4284 194.344037 
" style="fill:none;stroke:#545454;stroke-linecap:square;stroke-width:1.5;"/>
   </g>
   <g id="line2d_138">
    <path clip-path="url(#pb14cd18652)" d="M 126.6516 222.472139 
L 137.5884 222.472139 
" style="fill:none;stroke:#545454;stroke-linecap:square;stroke-width:1.5;"/>
   </g>
   <g id="line2d_139">
    <path clip-path="url(#pb14cd18652)" d="M 137.8116 207.887282 
L 148.7484 207.887282 
" style="fill:none;stroke:#545454;stroke-linecap:square;stroke-width:1.5;"/>
   </g>
   <g id="line2d_140">
    <path clip-path="url(#pb14cd18652)" d="M 148.9716 233.311027 
L 159.9084 233.311027 
" style="fill:none;stroke:#545454;stroke-linecap:square;stroke-width:1.5;"/>
   </g>
   <g id="line2d_141">
    <path clip-path="url(#pb14cd18652)" d="M 171.2916 179.199013 
L 182.2284 179.199013 
" style="fill:none;stroke:#545454;stroke-linecap:square;stroke-width:1.5;"/>
   </g>
   <g id="line2d_142">
    <path clip-path="url(#pb14cd18652)" d="M 182.4516 222.785151 
L 193.3884 222.785151 
" style="fill:none;stroke:#545454;stroke-linecap:square;stroke-width:1.5;"/>
   </g>
   <g id="line2d_143">
    <path clip-path="url(#pb14cd18652)" d="M 193.6116 208.203198 
L 204.5484 208.203198 
" style="fill:none;stroke:#545454;stroke-linecap:square;stroke-width:1.5;"/>
   </g>
   <g id="line2d_144">
    <path clip-path="url(#pb14cd18652)" d="M 204.7716 233.35262 
L 215.7084 233.35262 
" style="fill:none;stroke:#545454;stroke-linecap:square;stroke-width:1.5;"/>
   </g>
   <g id="line2d_145">
    <path clip-path="url(#pb14cd18652)" d="M 227.0916 158.745537 
L 238.0284 158.745537 
" style="fill:none;stroke:#545454;stroke-linecap:square;stroke-width:1.5;"/>
   </g>
   <g id="line2d_146">
    <path clip-path="url(#pb14cd18652)" d="M 238.2516 219.877294 
L 249.1884 219.877294 
" style="fill:none;stroke:#545454;stroke-linecap:square;stroke-width:1.5;"/>
   </g>
   <g id="line2d_147">
    <path clip-path="url(#pb14cd18652)" d="M 249.4116 208.61047 
L 260.3484 208.61047 
" style="fill:none;stroke:#545454;stroke-linecap:square;stroke-width:1.5;"/>
   </g>
   <g id="line2d_148">
    <path clip-path="url(#pb14cd18652)" d="M 260.5716 233.076872 
L 271.5084 233.076872 
" style="fill:none;stroke:#545454;stroke-linecap:square;stroke-width:1.5;"/>
   </g>
   <g id="line2d_149">
    <path clip-path="url(#pb14cd18652)" d="M 282.8916 179.940509 
L 293.8284 179.940509 
" style="fill:none;stroke:#545454;stroke-linecap:square;stroke-width:1.5;"/>
   </g>
   <g id="line2d_150">
    <path clip-path="url(#pb14cd18652)" d="M 294.0516 221.410108 
L 304.9884 221.410108 
" style="fill:none;stroke:#545454;stroke-linecap:square;stroke-width:1.5;"/>
   </g>
   <g id="line2d_151">
    <path clip-path="url(#pb14cd18652)" d="M 305.2116 208.445102 
L 316.1484 208.445102 
" style="fill:none;stroke:#545454;stroke-linecap:square;stroke-width:1.5;"/>
   </g>
   <g id="line2d_152">
    <path clip-path="url(#pb14cd18652)" d="M 316.3716 232.91259 
L 327.3084 232.91259 
" style="fill:none;stroke:#545454;stroke-linecap:square;stroke-width:1.5;"/>
   </g>
   <g id="line2d_153">
    <path clip-path="url(#pb14cd18652)" d="M 338.6916 178.173615 
L 349.6284 178.173615 
" style="fill:none;stroke:#545454;stroke-linecap:square;stroke-width:1.5;"/>
   </g>
   <g id="line2d_154">
    <path clip-path="url(#pb14cd18652)" d="M 349.8516 219.178666 
L 360.7884 219.178666 
" style="fill:none;stroke:#545454;stroke-linecap:square;stroke-width:1.5;"/>
   </g>
   <g id="line2d_155">
    <path clip-path="url(#pb14cd18652)" d="M 361.0116 208.120252 
L 371.9484 208.120252 
" style="fill:none;stroke:#545454;stroke-linecap:square;stroke-width:1.5;"/>
   </g>
   <g id="line2d_156">
    <path clip-path="url(#pb14cd18652)" d="M 372.1716 233.923909 
L 383.1084 233.923909 
" style="fill:none;stroke:#545454;stroke-linecap:square;stroke-width:1.5;"/>
   </g>
   <g id="patch_31">
    <path d="M 54 252 
L 54 34.56 
" style="fill:none;stroke:#000000;stroke-linecap:square;stroke-linejoin:miter;stroke-width:0.8;"/>
   </g>
   <g id="patch_32">
    <path d="M 388.8 252 
L 388.8 34.56 
" style="fill:none;stroke:#000000;stroke-linecap:square;stroke-linejoin:miter;stroke-width:0.8;"/>
   </g>
   <g id="patch_33">
    <path d="M 54 252 
L 388.8 252 
" style="fill:none;stroke:#000000;stroke-linecap:square;stroke-linejoin:miter;stroke-width:0.8;"/>
   </g>
   <g id="patch_34">
    <path d="M 54 34.56 
L 388.8 34.56 
" style="fill:none;stroke:#000000;stroke-linecap:square;stroke-linejoin:miter;stroke-width:0.8;"/>
   </g>
   <g id="legend_1">
    <g id="patch_35">
     <path d="M 62.75 135.199844 
L 165.251953 135.199844 
Q 167.751953 135.199844 167.751953 132.699844 
L 167.751953 43.31 
Q 167.751953 40.81 165.251953 40.81 
L 62.75 40.81 
Q 60.25 40.81 60.25 43.31 
L 60.25 132.699844 
Q 60.25 135.199844 62.75 135.199844 
z
" style="fill:#ffffff;opacity:0.8;stroke:#cccccc;stroke-linejoin:miter;"/>
    </g>
    <g id="text_15">
     <!-- Method -->
     <g transform="translate(90.668945 56.225625)scale(0.15 -0.15)">
      <defs>
       <path d="M 40.921875 0 
L 15.328125 55.71875 
L 15.328125 11.46875 
Q 15.328125 5.375 16.65625 3.859375 
Q 18.453125 1.8125 22.359375 1.8125 
L 24.703125 1.8125 
L 24.703125 0 
L 1.65625 0 
L 1.65625 1.8125 
L 4 1.8125 
Q 8.203125 1.8125 9.96875 4.34375 
Q 11.03125 5.90625 11.03125 11.46875 
L 11.03125 54.734375 
Q 11.03125 59.125 10.0625 61.078125 
Q 9.375 62.5 7.546875 63.453125 
Q 5.71875 64.40625 1.65625 64.40625 
L 1.65625 66.21875 
L 20.40625 66.21875 
L 44.4375 14.40625 
L 68.0625 66.21875 
L 86.8125 66.21875 
L 86.8125 64.40625 
L 84.515625 64.40625 
Q 80.28125 64.40625 78.515625 61.859375 
Q 77.4375 60.296875 77.4375 54.734375 
L 77.4375 11.46875 
Q 77.4375 5.375 78.8125 3.859375 
Q 80.609375 1.8125 84.515625 1.8125 
L 86.8125 1.8125 
L 86.8125 0 
L 58.6875 0 
L 58.6875 1.8125 
L 61.03125 1.8125 
Q 65.28125 1.8125 67 4.34375 
Q 68.0625 5.90625 68.0625 11.46875 
L 68.0625 55.71875 
L 42.53125 0 
z
" id="TimesNewRomanPSMT-77"/>
       <path d="M 16.265625 69.4375 
L 16.265625 36.71875 
Q 21.6875 42.671875 24.859375 44.359375 
Q 28.03125 46.046875 31.203125 46.046875 
Q 35.015625 46.046875 37.75 43.9375 
Q 40.484375 41.84375 41.796875 37.359375 
Q 42.71875 34.234375 42.71875 25.921875 
L 42.71875 10.109375 
Q 42.71875 5.859375 43.40625 4.296875 
Q 43.890625 3.125 45.0625 2.4375 
Q 46.234375 1.765625 49.359375 1.765625 
L 49.359375 0 
L 27.390625 0 
L 27.390625 1.765625 
L 28.421875 1.765625 
Q 31.546875 1.765625 32.765625 2.703125 
Q 33.984375 3.65625 34.46875 5.515625 
Q 34.625 6.296875 34.625 10.109375 
L 34.625 25.921875 
Q 34.625 33.25 33.859375 35.546875 
Q 33.109375 37.84375 31.4375 38.984375 
Q 29.78125 40.140625 27.4375 40.140625 
Q 25.046875 40.140625 22.453125 38.859375 
Q 19.875 37.59375 16.265625 33.734375 
L 16.265625 10.109375 
Q 16.265625 5.515625 16.765625 4.390625 
Q 17.28125 3.265625 18.671875 2.515625 
Q 20.0625 1.765625 23.484375 1.765625 
L 23.484375 0 
L 1.3125 0 
L 1.3125 1.765625 
Q 4.296875 1.765625 6 2.6875 
Q 6.984375 3.171875 7.5625 4.53125 
Q 8.15625 5.90625 8.15625 10.109375 
L 8.15625 50.59375 
Q 8.15625 58.25 7.78125 60 
Q 7.421875 61.765625 6.65625 62.390625 
Q 5.90625 63.03125 4.640625 63.03125 
Q 3.609375 63.03125 1.3125 62.25 
L 0.640625 63.96875 
L 14.015625 69.4375 
z
" id="TimesNewRomanPSMT-104"/>
      </defs>
      <use xlink:href="#TimesNewRomanPSMT-77"/>
      <use x="88.916016" xlink:href="#TimesNewRomanPSMT-101"/>
      <use x="133.300781" xlink:href="#TimesNewRomanPSMT-116"/>
      <use x="161.083984" xlink:href="#TimesNewRomanPSMT-104"/>
      <use x="211.083984" xlink:href="#TimesNewRomanPSMT-111"/>
      <use x="261.083984" xlink:href="#TimesNewRomanPSMT-100"/>
     </g>
    </g>
    <g id="patch_36">
     <path d="M 65.25 74.434219 
L 90.25 74.434219 
L 90.25 65.684219 
L 65.25 65.684219 
z
" style="fill:#597dbf;stroke:#545454;stroke-linejoin:miter;stroke-width:0.75;"/>
    </g>
    <g id="text_16">
     <!-- SQSnobfit -->
     <g transform="translate(100.25 74.434219)scale(0.125 -0.125)">
      <defs>
       <path d="M 45.84375 67.71875 
L 45.84375 44.828125 
L 44.046875 44.828125 
Q 43.171875 51.421875 40.890625 55.328125 
Q 38.625 59.234375 34.421875 61.515625 
Q 30.21875 63.8125 25.734375 63.8125 
Q 20.65625 63.8125 17.328125 60.71875 
Q 14.015625 57.625 14.015625 53.65625 
Q 14.015625 50.640625 16.109375 48.140625 
Q 19.140625 44.484375 30.515625 38.375 
Q 39.796875 33.40625 43.1875 30.734375 
Q 46.578125 28.078125 48.40625 24.453125 
Q 50.25 20.84375 50.25 16.890625 
Q 50.25 9.375 44.40625 3.921875 
Q 38.578125 -1.515625 29.390625 -1.515625 
Q 26.515625 -1.515625 23.96875 -1.078125 
Q 22.46875 -0.828125 17.703125 0.703125 
Q 12.9375 2.25 11.671875 2.25 
Q 10.453125 2.25 9.734375 1.515625 
Q 9.03125 0.78125 8.6875 -1.515625 
L 6.890625 -1.515625 
L 6.890625 21.1875 
L 8.6875 21.1875 
Q 9.96875 14.0625 12.109375 10.515625 
Q 14.265625 6.984375 18.671875 4.640625 
Q 23.09375 2.296875 28.375 2.296875 
Q 34.46875 2.296875 38 5.515625 
Q 41.546875 8.734375 41.546875 13.140625 
Q 41.546875 15.578125 40.203125 18.0625 
Q 38.875 20.5625 36.03125 22.703125 
Q 34.125 24.171875 25.625 28.921875 
Q 17.140625 33.6875 13.546875 36.515625 
Q 9.96875 39.359375 8.109375 42.765625 
Q 6.25 46.1875 6.25 50.296875 
Q 6.25 57.421875 11.71875 62.5625 
Q 17.1875 67.71875 25.640625 67.71875 
Q 30.90625 67.71875 36.8125 65.140625 
Q 39.546875 63.921875 40.671875 63.921875 
Q 41.9375 63.921875 42.75 64.671875 
Q 43.5625 65.4375 44.046875 67.71875 
z
" id="TimesNewRomanPSMT-83"/>
       <path d="M 44.046875 -0.734375 
Q 49.03125 -9.328125 54.8125 -13.375 
Q 60.59375 -17.4375 67.96875 -18.015625 
L 67.96875 -19.578125 
Q 61.234375 -19.34375 53.5625 -16.875 
Q 45.90625 -14.40625 39.03125 -10.03125 
Q 32.171875 -5.671875 27.203125 -0.734375 
Q 20.171875 2.09375 16.0625 5.28125 
Q 10.109375 10.015625 6.8125 16.921875 
Q 3.515625 23.828125 3.515625 33.25 
Q 3.515625 48.09375 13.125 57.90625 
Q 22.75 67.71875 36.421875 67.71875 
Q 49.421875 67.71875 58.90625 57.875 
Q 68.40625 48.046875 68.40625 33.0625 
Q 68.40625 20.90625 61.640625 11.71875 
Q 54.890625 2.546875 44.046875 -0.734375 
z
M 35.84375 63.96875 
Q 26.953125 63.96875 21.53125 57.625 
Q 14.703125 49.65625 14.703125 33.25 
Q 14.703125 17.1875 21.625 8.5 
Q 27 1.8125 35.84375 1.8125 
Q 45.015625 1.8125 50.640625 8.5 
Q 57.234375 16.40625 57.234375 31.84375 
Q 57.234375 43.703125 53.609375 51.8125 
Q 50.828125 58.0625 46.21875 61.015625 
Q 41.609375 63.96875 35.84375 63.96875 
z
" id="TimesNewRomanPSMT-81"/>
       <path d="M 15.375 37.015625 
Q 21.875 46.046875 29.390625 46.046875 
Q 36.28125 46.046875 41.40625 40.15625 
Q 46.53125 34.28125 46.53125 24.078125 
Q 46.53125 12.15625 38.625 4.890625 
Q 31.84375 -1.375 23.484375 -1.375 
Q 19.578125 -1.375 15.546875 0.046875 
Q 11.53125 1.46875 7.328125 4.296875 
L 7.328125 50.640625 
Q 7.328125 58.25 6.953125 60 
Q 6.59375 61.765625 5.8125 62.390625 
Q 5.03125 63.03125 3.859375 63.03125 
Q 2.484375 63.03125 0.4375 62.25 
L -0.25 63.96875 
L 13.1875 69.4375 
L 15.375 69.4375 
z
M 15.375 33.890625 
L 15.375 7.125 
Q 17.875 4.6875 20.53125 3.4375 
Q 23.1875 2.203125 25.984375 2.203125 
Q 30.421875 2.203125 34.25 7.078125 
Q 38.09375 11.96875 38.09375 21.296875 
Q 38.09375 29.890625 34.25 34.5 
Q 30.421875 39.109375 25.53125 39.109375 
Q 22.953125 39.109375 20.359375 37.796875 
Q 18.40625 36.8125 15.375 33.890625 
z
" id="TimesNewRomanPSMT-98"/>
      </defs>
      <use xlink:href="#TimesNewRomanPSMT-83"/>
      <use x="55.615234" xlink:href="#TimesNewRomanPSMT-81"/>
      <use x="127.832031" xlink:href="#TimesNewRomanPSMT-83"/>
      <use x="183.447266" xlink:href="#TimesNewRomanPSMT-110"/>
      <use x="233.447266" xlink:href="#TimesNewRomanPSMT-111"/>
      <use x="283.447266" xlink:href="#TimesNewRomanPSMT-98"/>
      <use x="333.447266" xlink:href="#TimesNewRomanPSMT-102"/>
      <use x="366.748047" xlink:href="#TimesNewRomanPSMT-105"/>
      <use x="394.53125" xlink:href="#TimesNewRomanPSMT-116"/>
     </g>
    </g>
    <g id="patch_37">
     <path d="M 65.25 92.108047 
L 90.25 92.108047 
L 90.25 83.358047 
L 65.25 83.358047 
z
" style="fill:#d98b5f;stroke:#545454;stroke-linejoin:miter;stroke-width:0.75;"/>
    </g>
    <g id="text_17">
     <!-- CUATRO_l -->
     <g transform="translate(100.25 92.108047)scale(0.125 -0.125)">
      <defs>
       <path d="M 60.203125 67.71875 
L 61.71875 45.21875 
L 60.203125 45.21875 
Q 57.171875 55.328125 51.5625 59.765625 
Q 45.953125 64.203125 38.09375 64.203125 
Q 31.5 64.203125 26.171875 60.859375 
Q 20.84375 57.515625 17.796875 50.1875 
Q 14.75 42.875 14.75 31.984375 
Q 14.75 23 17.625 16.40625 
Q 20.515625 9.8125 26.296875 6.296875 
Q 32.078125 2.78125 39.5 2.78125 
Q 45.953125 2.78125 50.875 5.53125 
Q 55.8125 8.296875 61.71875 16.5 
L 63.234375 15.53125 
Q 58.25 6.6875 51.609375 2.578125 
Q 44.96875 -1.515625 35.84375 -1.515625 
Q 19.390625 -1.515625 10.359375 10.6875 
Q 3.609375 19.78125 3.609375 32.078125 
Q 3.609375 42 8.046875 50.296875 
Q 12.5 58.59375 20.28125 63.15625 
Q 28.078125 67.71875 37.3125 67.71875 
Q 44.484375 67.71875 51.46875 64.203125 
Q 53.515625 63.140625 54.390625 63.140625 
Q 55.71875 63.140625 56.6875 64.0625 
Q 57.953125 65.375 58.5 67.71875 
z
" id="TimesNewRomanPSMT-67"/>
       <path d="M 47.703125 64.40625 
L 47.703125 66.21875 
L 71.140625 66.21875 
L 71.140625 64.40625 
L 68.65625 64.40625 
Q 64.75 64.40625 62.640625 61.140625 
Q 61.625 59.625 61.625 54.109375 
L 61.625 27.25 
Q 61.625 17.28125 59.640625 11.78125 
Q 57.671875 6.296875 51.875 2.359375 
Q 46.09375 -1.5625 36.140625 -1.5625 
Q 25.296875 -1.5625 19.671875 2.1875 
Q 14.0625 5.953125 11.71875 12.3125 
Q 10.15625 16.65625 10.15625 28.609375 
L 10.15625 54.5 
Q 10.15625 60.59375 8.46875 62.5 
Q 6.78125 64.40625 3.03125 64.40625 
L 0.53125 64.40625 
L 0.53125 66.21875 
L 29.15625 66.21875 
L 29.15625 64.40625 
L 26.609375 64.40625 
Q 22.515625 64.40625 20.75 61.8125 
Q 19.53125 60.0625 19.53125 54.5 
L 19.53125 25.640625 
Q 19.53125 21.78125 20.234375 16.796875 
Q 20.953125 11.8125 22.796875 9.03125 
Q 24.65625 6.25 28.140625 4.4375 
Q 31.640625 2.640625 36.71875 2.640625 
Q 43.21875 2.640625 48.34375 5.46875 
Q 53.46875 8.296875 55.34375 12.71875 
Q 57.234375 17.140625 57.234375 27.6875 
L 57.234375 54.5 
Q 57.234375 60.6875 55.859375 62.25 
Q 53.953125 64.40625 50.203125 64.40625 
z
" id="TimesNewRomanPSMT-85"/>
       <path d="M 45.75 22.171875 
L 20.125 22.171875 
L 15.625 11.71875 
Q 13.96875 7.859375 13.96875 5.953125 
Q 13.96875 4.4375 15.40625 3.296875 
Q 16.84375 2.15625 21.625 1.8125 
L 21.625 0 
L 0.78125 0 
L 0.78125 1.8125 
Q 4.9375 2.546875 6.15625 3.71875 
Q 8.640625 6.0625 11.671875 13.234375 
L 34.96875 67.71875 
L 36.671875 67.71875 
L 59.71875 12.640625 
Q 62.5 6 64.765625 4.015625 
Q 67.046875 2.046875 71.09375 1.8125 
L 71.09375 0 
L 44.96875 0 
L 44.96875 1.8125 
Q 48.921875 2 50.3125 3.125 
Q 51.703125 4.25 51.703125 5.859375 
Q 51.703125 8.015625 49.75 12.640625 
z
M 44.390625 25.78125 
L 33.15625 52.546875 
L 21.625 25.78125 
z
" id="TimesNewRomanPSMT-65"/>
       <path d="M 57.859375 66.21875 
L 58.59375 50.6875 
L 56.734375 50.6875 
Q 56.203125 54.78125 55.28125 56.546875 
Q 53.765625 59.375 51.25 60.71875 
Q 48.734375 62.0625 44.625 62.0625 
L 35.296875 62.0625 
L 35.296875 11.46875 
Q 35.296875 5.375 36.625 3.859375 
Q 38.484375 1.8125 42.328125 1.8125 
L 44.625 1.8125 
L 44.625 0 
L 16.546875 0 
L 16.546875 1.8125 
L 18.890625 1.8125 
Q 23.09375 1.8125 24.859375 4.34375 
Q 25.921875 5.90625 25.921875 11.46875 
L 25.921875 62.0625 
L 17.96875 62.0625 
Q 13.328125 62.0625 11.375 61.375 
Q 8.84375 60.453125 7.03125 57.8125 
Q 5.21875 55.171875 4.890625 50.6875 
L 3.03125 50.6875 
L 3.8125 66.21875 
z
" id="TimesNewRomanPSMT-84"/>
       <path d="M 67.578125 0 
L 49.90625 0 
L 27.484375 30.953125 
Q 25 30.859375 23.4375 30.859375 
Q 22.796875 30.859375 22.0625 30.875 
Q 21.34375 30.90625 20.5625 30.953125 
L 20.5625 11.71875 
Q 20.5625 5.46875 21.921875 3.953125 
Q 23.78125 1.8125 27.484375 1.8125 
L 30.078125 1.8125 
L 30.078125 0 
L 1.703125 0 
L 1.703125 1.8125 
L 4.203125 1.8125 
Q 8.40625 1.8125 10.203125 4.546875 
Q 11.234375 6.0625 11.234375 11.71875 
L 11.234375 54.5 
Q 11.234375 60.75 9.859375 62.25 
Q 7.953125 64.40625 4.203125 64.40625 
L 1.703125 64.40625 
L 1.703125 66.21875 
L 25.828125 66.21875 
Q 36.375 66.21875 41.375 64.671875 
Q 46.390625 63.140625 49.875 59.015625 
Q 53.375 54.890625 53.375 49.171875 
Q 53.375 43.0625 49.390625 38.5625 
Q 45.40625 34.078125 37.0625 32.234375 
L 50.734375 13.234375 
Q 55.421875 6.6875 58.78125 4.53125 
Q 62.15625 2.390625 67.578125 1.8125 
z
M 20.5625 34.03125 
Q 21.484375 34.03125 22.171875 34 
Q 22.859375 33.984375 23.296875 33.984375 
Q 32.765625 33.984375 37.578125 38.078125 
Q 42.390625 42.1875 42.390625 48.53125 
Q 42.390625 54.734375 38.5 58.609375 
Q 34.625 62.5 28.21875 62.5 
Q 25.390625 62.5 20.5625 61.578125 
z
" id="TimesNewRomanPSMT-82"/>
       <path d="M 36.578125 67.71875 
Q 49.46875 67.71875 58.90625 57.921875 
Q 68.359375 48.140625 68.359375 33.5 
Q 68.359375 18.40625 58.828125 8.4375 
Q 49.3125 -1.515625 35.796875 -1.515625 
Q 22.125 -1.515625 12.8125 8.203125 
Q 3.515625 17.921875 3.515625 33.34375 
Q 3.515625 49.125 14.265625 59.078125 
Q 23.578125 67.71875 36.578125 67.71875 
z
M 35.640625 64.15625 
Q 26.765625 64.15625 21.390625 57.5625 
Q 14.703125 49.359375 14.703125 33.546875 
Q 14.703125 17.328125 21.625 8.59375 
Q 26.953125 1.953125 35.6875 1.953125 
Q 45.015625 1.953125 51.09375 9.21875 
Q 57.171875 16.5 57.171875 32.171875 
Q 57.171875 49.171875 50.484375 57.515625 
Q 45.125 64.15625 35.640625 64.15625 
z
" id="TimesNewRomanPSMT-79"/>
       <path d="M 50.875 -21.578125 
L -0.828125 -21.578125 
L -0.828125 -17.484375 
L 50.875 -17.484375 
z
" id="TimesNewRomanPSMT-95"/>
      </defs>
      <use xlink:href="#TimesNewRomanPSMT-67"/>
      <use x="66.699219" xlink:href="#TimesNewRomanPSMT-85"/>
      <use x="138.916016" xlink:href="#TimesNewRomanPSMT-65"/>
      <use x="200.007812" xlink:href="#TimesNewRomanPSMT-84"/>
      <use x="261.091797" xlink:href="#TimesNewRomanPSMT-82"/>
      <use x="327.791016" xlink:href="#TimesNewRomanPSMT-79"/>
      <use x="400.007812" xlink:href="#TimesNewRomanPSMT-95"/>
      <use x="450.007812" xlink:href="#TimesNewRomanPSMT-108"/>
     </g>
    </g>
    <g id="patch_38">
     <path d="M 65.25 109.805313 
L 90.25 109.805313 
L 90.25 101.055313 
L 65.25 101.055313 
z
" style="fill:#75bf71;stroke:#545454;stroke-linejoin:miter;stroke-width:0.75;"/>
    </g>
    <g id="text_18">
     <!-- CUATRO_g -->
     <g transform="translate(100.25 109.805313)scale(0.125 -0.125)">
      <defs>
       <path d="M 15.09375 16.3125 
Q 10.984375 18.3125 8.78125 21.890625 
Q 6.59375 25.484375 6.59375 29.828125 
Q 6.59375 36.46875 11.59375 41.25 
Q 16.609375 46.046875 24.421875 46.046875 
Q 30.8125 46.046875 35.5 42.921875 
L 44.96875 42.921875 
Q 47.078125 42.921875 47.40625 42.796875 
Q 47.75 42.671875 47.90625 42.390625 
Q 48.1875 41.9375 48.1875 40.828125 
Q 48.1875 39.546875 47.953125 39.0625 
Q 47.796875 38.8125 47.4375 38.671875 
Q 47.078125 38.53125 44.96875 38.53125 
L 39.15625 38.53125 
Q 41.890625 35.015625 41.890625 29.546875 
Q 41.890625 23.296875 37.109375 18.84375 
Q 32.328125 14.40625 24.265625 14.40625 
Q 20.953125 14.40625 17.484375 15.375 
Q 15.328125 13.53125 14.5625 12.140625 
Q 13.8125 10.75 13.8125 9.765625 
Q 13.8125 8.9375 14.625 8.15625 
Q 15.4375 7.375 17.78125 7.03125 
Q 19.140625 6.84375 24.609375 6.6875 
Q 34.671875 6.453125 37.640625 6 
Q 42.1875 5.375 44.890625 2.640625 
Q 47.609375 -0.09375 47.609375 -4.109375 
Q 47.609375 -9.625 42.4375 -14.453125 
Q 34.8125 -21.578125 22.5625 -21.578125 
Q 13.140625 -21.578125 6.640625 -17.328125 
Q 2.984375 -14.890625 2.984375 -12.25 
Q 2.984375 -11.078125 3.515625 -9.90625 
Q 4.34375 -8.109375 6.9375 -4.890625 
Q 7.28125 -4.4375 11.921875 0.390625 
Q 9.375 1.90625 8.328125 3.09375 
Q 7.28125 4.296875 7.28125 5.8125 
Q 7.28125 7.515625 8.671875 9.8125 
Q 10.0625 12.109375 15.09375 16.3125 
z
M 23.578125 43.703125 
Q 19.96875 43.703125 17.53125 40.8125 
Q 15.09375 37.9375 15.09375 31.984375 
Q 15.09375 24.265625 18.40625 20.015625 
Q 20.953125 16.796875 24.859375 16.796875 
Q 28.5625 16.796875 30.953125 19.578125 
Q 33.34375 22.359375 33.34375 28.328125 
Q 33.34375 36.078125 29.984375 40.484375 
Q 27.484375 43.703125 23.578125 43.703125 
z
M 14.59375 0 
Q 12.3125 -2.484375 11.140625 -4.625 
Q 9.96875 -6.78125 9.96875 -8.59375 
Q 9.96875 -10.9375 12.796875 -12.703125 
Q 17.671875 -15.71875 26.90625 -15.71875 
Q 35.6875 -15.71875 39.859375 -12.609375 
Q 44.046875 -9.515625 44.046875 -6 
Q 44.046875 -3.46875 41.546875 -2.390625 
Q 39.015625 -1.3125 31.5 -1.125 
Q 20.515625 -0.828125 14.59375 0 
z
" id="TimesNewRomanPSMT-103"/>
      </defs>
      <use xlink:href="#TimesNewRomanPSMT-67"/>
      <use x="66.699219" xlink:href="#TimesNewRomanPSMT-85"/>
      <use x="138.916016" xlink:href="#TimesNewRomanPSMT-65"/>
      <use x="200.007812" xlink:href="#TimesNewRomanPSMT-84"/>
      <use x="261.091797" xlink:href="#TimesNewRomanPSMT-82"/>
      <use x="327.791016" xlink:href="#TimesNewRomanPSMT-79"/>
      <use x="400.007812" xlink:href="#TimesNewRomanPSMT-95"/>
      <use x="450.007812" xlink:href="#TimesNewRomanPSMT-103"/>
     </g>
    </g>
    <g id="patch_39">
     <path d="M 65.25 127.502578 
L 90.25 127.502578 
L 90.25 118.752578 
L 65.25 118.752578 
z
" style="fill:#c76e6e;stroke:#545454;stroke-linejoin:miter;stroke-width:0.75;"/>
    </g>
    <g id="text_19">
     <!-- Bayes Opt. -->
     <g transform="translate(100.25 127.502578)scale(0.125 -0.125)">
      <defs>
       <path d="M 0.59375 44.734375 
L 21.4375 44.734375 
L 21.4375 42.921875 
L 20.40625 42.921875 
Q 18.21875 42.921875 17.109375 41.96875 
Q 16.015625 41.015625 16.015625 39.59375 
Q 16.015625 37.703125 17.625 34.328125 
L 28.515625 11.765625 
L 38.53125 36.46875 
Q 39.359375 38.484375 39.359375 40.4375 
Q 39.359375 41.3125 39.015625 41.75 
Q 38.625 42.28125 37.796875 42.59375 
Q 36.96875 42.921875 34.859375 42.921875 
L 34.859375 44.734375 
L 49.421875 44.734375 
L 49.421875 42.921875 
Q 47.609375 42.71875 46.625 42.125 
Q 45.65625 41.546875 44.484375 39.9375 
Q 44.046875 39.265625 42.828125 36.1875 
L 24.609375 -8.453125 
Q 21.96875 -14.9375 17.6875 -18.25 
Q 13.421875 -21.578125 9.46875 -21.578125 
Q 6.59375 -21.578125 4.734375 -19.921875 
Q 2.875 -18.265625 2.875 -16.109375 
Q 2.875 -14.0625 4.21875 -12.8125 
Q 5.5625 -11.578125 7.90625 -11.578125 
Q 9.515625 -11.578125 12.3125 -12.640625 
Q 14.265625 -13.375 14.75 -13.375 
Q 16.21875 -13.375 17.9375 -11.859375 
Q 19.671875 -10.359375 21.4375 -6 
L 24.609375 1.765625 
L 8.546875 35.5 
Q 7.8125 37.015625 6.203125 39.265625 
Q 4.984375 40.96875 4.203125 41.546875 
Q 3.078125 42.328125 0.59375 42.921875 
z
" id="TimesNewRomanPSMT-121"/>
       <path d="M -0.09375 40.28125 
L 13.671875 45.84375 
L 15.53125 45.84375 
L 15.53125 35.40625 
Q 19 41.3125 22.484375 43.671875 
Q 25.984375 46.046875 29.828125 46.046875 
Q 36.578125 46.046875 41.0625 40.765625 
Q 46.578125 34.328125 46.578125 23.96875 
Q 46.578125 12.40625 39.9375 4.828125 
Q 34.46875 -1.375 26.171875 -1.375 
Q 22.5625 -1.375 19.921875 -0.34375 
Q 17.96875 0.390625 15.53125 2.59375 
L 15.53125 -11.03125 
Q 15.53125 -15.625 16.09375 -16.859375 
Q 16.65625 -18.109375 18.046875 -18.84375 
Q 19.4375 -19.578125 23.09375 -19.578125 
L 23.09375 -21.390625 
L -0.34375 -21.390625 
L -0.34375 -19.578125 
L 0.875 -19.578125 
Q 3.5625 -19.625 5.46875 -18.5625 
Q 6.390625 -18.015625 6.90625 -16.8125 
Q 7.421875 -15.625 7.421875 -10.75 
L 7.421875 31.546875 
Q 7.421875 35.890625 7.03125 37.0625 
Q 6.640625 38.234375 5.78125 38.8125 
Q 4.9375 39.40625 3.46875 39.40625 
Q 2.296875 39.40625 0.484375 38.71875 
z
M 15.53125 32.515625 
L 15.53125 15.828125 
Q 15.53125 10.40625 15.96875 8.6875 
Q 16.65625 5.859375 19.3125 3.703125 
Q 21.96875 1.5625 26.03125 1.5625 
Q 30.90625 1.5625 33.9375 5.375 
Q 37.890625 10.359375 37.890625 19.390625 
Q 37.890625 29.640625 33.40625 35.15625 
Q 30.28125 38.96875 25.984375 38.96875 
Q 23.640625 38.96875 21.34375 37.796875 
Q 19.578125 36.921875 15.53125 32.515625 
z
" id="TimesNewRomanPSMT-112"/>
      </defs>
      <use xlink:href="#TimesNewRomanPSMT-66"/>
      <use x="66.699219" xlink:href="#TimesNewRomanPSMT-97"/>
      <use x="111.083984" xlink:href="#TimesNewRomanPSMT-121"/>
      <use x="161.083984" xlink:href="#TimesNewRomanPSMT-101"/>
      <use x="205.46875" xlink:href="#TimesNewRomanPSMT-115"/>
      <use x="244.384766" xlink:href="#TimesNewRomanPSMT-32"/>
      <use x="269.384766" xlink:href="#TimesNewRomanPSMT-79"/>
      <use x="341.601562" xlink:href="#TimesNewRomanPSMT-112"/>
      <use x="391.601562" xlink:href="#TimesNewRomanPSMT-116"/>
      <use x="419.384766" xlink:href="#TimesNewRomanPSMT-46"/>
     </g>
    </g>
   </g>
  </g>
 </g>
 <defs>
  <clipPath id="pb14cd18652">
   <rect height="217.44" width="334.8" x="54" y="34.56"/>
  </clipPath>
 </defs>
</svg>
