<?xml version="1.0" encoding="utf-8" standalone="no"?>
<!DOCTYPE svg PUBLIC "-//W3C//DTD SVG 1.1//EN"
  "http://www.w3.org/Graphics/SVG/1.1/DTD/svg11.dtd">
<!-- Created with matplotlib (https://matplotlib.org/) -->
<svg height="288pt" version="1.1" viewBox="0 0 432 288" width="432pt" xmlns="http://www.w3.org/2000/svg" xmlns:xlink="http://www.w3.org/1999/xlink">
 <metadata>
  <rdf:RDF xmlns:cc="http://creativecommons.org/ns#" xmlns:dc="http://purl.org/dc/elements/1.1/" xmlns:rdf="http://www.w3.org/1999/02/22-rdf-syntax-ns#">
   <cc:Work>
    <dc:type rdf:resource="http://purl.org/dc/dcmitype/StillImage"/>
    <dc:date>2021-04-05T21:55:44.756067</dc:date>
    <dc:format>image/svg+xml</dc:format>
    <dc:creator>
     <cc:Agent>
      <dc:title>Matplotlib v3.3.4, https://matplotlib.org/</dc:title>
     </cc:Agent>
    </dc:creator>
   </cc:Work>
  </rdf:RDF>
 </metadata>
 <defs>
  <style type="text/css">*{stroke-linecap:butt;stroke-linejoin:round;}</style>
 </defs>
 <g id="figure_1">
  <g id="patch_1">
   <path d="M 0 288 
L 432 288 
L 432 0 
L 0 0 
z
" style="fill:#ffffff;"/>
  </g>
  <g id="axes_1">
   <g id="patch_2">
    <path d="M 54 252 
L 388.8 252 
L 388.8 34.56 
L 54 34.56 
z
" style="fill:#ffffff;"/>
   </g>
   <g id="matplotlib.axis_1">
    <g id="xtick_1">
     <g id="line2d_1">
      <defs>
       <path d="M 0 0 
L 0 3.5 
" id="m68438df421" style="stroke:#000000;stroke-width:0.8;"/>
      </defs>
      <g>
       <use style="stroke:#000000;stroke-width:0.8;" x="69.218182" xlink:href="#m68438df421" y="252"/>
      </g>
     </g>
     <g id="text_1">
      <!-- 0 -->
      <g transform="translate(66.036932 266.598437)scale(0.1 -0.1)">
       <defs>
        <path d="M 31.78125 66.40625 
Q 24.171875 66.40625 20.328125 58.90625 
Q 16.5 51.421875 16.5 36.375 
Q 16.5 21.390625 20.328125 13.890625 
Q 24.171875 6.390625 31.78125 6.390625 
Q 39.453125 6.390625 43.28125 13.890625 
Q 47.125 21.390625 47.125 36.375 
Q 47.125 51.421875 43.28125 58.90625 
Q 39.453125 66.40625 31.78125 66.40625 
z
M 31.78125 74.21875 
Q 44.046875 74.21875 50.515625 64.515625 
Q 56.984375 54.828125 56.984375 36.375 
Q 56.984375 17.96875 50.515625 8.265625 
Q 44.046875 -1.421875 31.78125 -1.421875 
Q 19.53125 -1.421875 13.0625 8.265625 
Q 6.59375 17.96875 6.59375 36.375 
Q 6.59375 54.828125 13.0625 64.515625 
Q 19.53125 74.21875 31.78125 74.21875 
z
" id="DejaVuSans-48"/>
       </defs>
       <use xlink:href="#DejaVuSans-48"/>
      </g>
     </g>
    </g>
    <g id="xtick_2">
     <g id="line2d_2">
      <g>
       <use style="stroke:#000000;stroke-width:0.8;" x="131.33321" xlink:href="#m68438df421" y="252"/>
      </g>
     </g>
     <g id="text_2">
      <!-- 10 -->
      <g transform="translate(124.97071 266.598437)scale(0.1 -0.1)">
       <defs>
        <path d="M 12.40625 8.296875 
L 28.515625 8.296875 
L 28.515625 63.921875 
L 10.984375 60.40625 
L 10.984375 69.390625 
L 28.421875 72.90625 
L 38.28125 72.90625 
L 38.28125 8.296875 
L 54.390625 8.296875 
L 54.390625 0 
L 12.40625 0 
z
" id="DejaVuSans-49"/>
       </defs>
       <use xlink:href="#DejaVuSans-49"/>
       <use x="63.623047" xlink:href="#DejaVuSans-48"/>
      </g>
     </g>
    </g>
    <g id="xtick_3">
     <g id="line2d_3">
      <g>
       <use style="stroke:#000000;stroke-width:0.8;" x="193.448237" xlink:href="#m68438df421" y="252"/>
      </g>
     </g>
     <g id="text_3">
      <!-- 20 -->
      <g transform="translate(187.085737 266.598437)scale(0.1 -0.1)">
       <defs>
        <path d="M 19.1875 8.296875 
L 53.609375 8.296875 
L 53.609375 0 
L 7.328125 0 
L 7.328125 8.296875 
Q 12.9375 14.109375 22.625 23.890625 
Q 32.328125 33.6875 34.8125 36.53125 
Q 39.546875 41.84375 41.421875 45.53125 
Q 43.3125 49.21875 43.3125 52.78125 
Q 43.3125 58.59375 39.234375 62.25 
Q 35.15625 65.921875 28.609375 65.921875 
Q 23.96875 65.921875 18.8125 64.3125 
Q 13.671875 62.703125 7.8125 59.421875 
L 7.8125 69.390625 
Q 13.765625 71.78125 18.9375 73 
Q 24.125 74.21875 28.421875 74.21875 
Q 39.75 74.21875 46.484375 68.546875 
Q 53.21875 62.890625 53.21875 53.421875 
Q 53.21875 48.921875 51.53125 44.890625 
Q 49.859375 40.875 45.40625 35.40625 
Q 44.1875 33.984375 37.640625 27.21875 
Q 31.109375 20.453125 19.1875 8.296875 
z
" id="DejaVuSans-50"/>
       </defs>
       <use xlink:href="#DejaVuSans-50"/>
       <use x="63.623047" xlink:href="#DejaVuSans-48"/>
      </g>
     </g>
    </g>
    <g id="xtick_4">
     <g id="line2d_4">
      <g>
       <use style="stroke:#000000;stroke-width:0.8;" x="255.563265" xlink:href="#m68438df421" y="252"/>
      </g>
     </g>
     <g id="text_4">
      <!-- 30 -->
      <g transform="translate(249.200765 266.598437)scale(0.1 -0.1)">
       <defs>
        <path d="M 40.578125 39.3125 
Q 47.65625 37.796875 51.625 33 
Q 55.609375 28.21875 55.609375 21.1875 
Q 55.609375 10.40625 48.1875 4.484375 
Q 40.765625 -1.421875 27.09375 -1.421875 
Q 22.515625 -1.421875 17.65625 -0.515625 
Q 12.796875 0.390625 7.625 2.203125 
L 7.625 11.71875 
Q 11.71875 9.328125 16.59375 8.109375 
Q 21.484375 6.890625 26.8125 6.890625 
Q 36.078125 6.890625 40.9375 10.546875 
Q 45.796875 14.203125 45.796875 21.1875 
Q 45.796875 27.640625 41.28125 31.265625 
Q 36.765625 34.90625 28.71875 34.90625 
L 20.21875 34.90625 
L 20.21875 43.015625 
L 29.109375 43.015625 
Q 36.375 43.015625 40.234375 45.921875 
Q 44.09375 48.828125 44.09375 54.296875 
Q 44.09375 59.90625 40.109375 62.90625 
Q 36.140625 65.921875 28.71875 65.921875 
Q 24.65625 65.921875 20.015625 65.03125 
Q 15.375 64.15625 9.8125 62.3125 
L 9.8125 71.09375 
Q 15.4375 72.65625 20.34375 73.4375 
Q 25.25 74.21875 29.59375 74.21875 
Q 40.828125 74.21875 47.359375 69.109375 
Q 53.90625 64.015625 53.90625 55.328125 
Q 53.90625 49.265625 50.4375 45.09375 
Q 46.96875 40.921875 40.578125 39.3125 
z
" id="DejaVuSans-51"/>
       </defs>
       <use xlink:href="#DejaVuSans-51"/>
       <use x="63.623047" xlink:href="#DejaVuSans-48"/>
      </g>
     </g>
    </g>
    <g id="xtick_5">
     <g id="line2d_5">
      <g>
       <use style="stroke:#000000;stroke-width:0.8;" x="317.678293" xlink:href="#m68438df421" y="252"/>
      </g>
     </g>
     <g id="text_5">
      <!-- 40 -->
      <g transform="translate(311.315793 266.598437)scale(0.1 -0.1)">
       <defs>
        <path d="M 37.796875 64.3125 
L 12.890625 25.390625 
L 37.796875 25.390625 
z
M 35.203125 72.90625 
L 47.609375 72.90625 
L 47.609375 25.390625 
L 58.015625 25.390625 
L 58.015625 17.1875 
L 47.609375 17.1875 
L 47.609375 0 
L 37.796875 0 
L 37.796875 17.1875 
L 4.890625 17.1875 
L 4.890625 26.703125 
z
" id="DejaVuSans-52"/>
       </defs>
       <use xlink:href="#DejaVuSans-52"/>
       <use x="63.623047" xlink:href="#DejaVuSans-48"/>
      </g>
     </g>
    </g>
    <g id="xtick_6">
     <g id="line2d_6">
      <g>
       <use style="stroke:#000000;stroke-width:0.8;" x="379.793321" xlink:href="#m68438df421" y="252"/>
      </g>
     </g>
     <g id="text_6">
      <!-- 50 -->
      <g transform="translate(373.430821 266.598437)scale(0.1 -0.1)">
       <defs>
        <path d="M 10.796875 72.90625 
L 49.515625 72.90625 
L 49.515625 64.59375 
L 19.828125 64.59375 
L 19.828125 46.734375 
Q 21.96875 47.46875 24.109375 47.828125 
Q 26.265625 48.1875 28.421875 48.1875 
Q 40.625 48.1875 47.75 41.5 
Q 54.890625 34.8125 54.890625 23.390625 
Q 54.890625 11.625 47.5625 5.09375 
Q 40.234375 -1.421875 26.90625 -1.421875 
Q 22.3125 -1.421875 17.546875 -0.640625 
Q 12.796875 0.140625 7.71875 1.703125 
L 7.71875 11.625 
Q 12.109375 9.234375 16.796875 8.0625 
Q 21.484375 6.890625 26.703125 6.890625 
Q 35.15625 6.890625 40.078125 11.328125 
Q 45.015625 15.765625 45.015625 23.390625 
Q 45.015625 31 40.078125 35.4375 
Q 35.15625 39.890625 26.703125 39.890625 
Q 22.75 39.890625 18.8125 39.015625 
Q 14.890625 38.140625 10.796875 36.28125 
z
" id="DejaVuSans-53"/>
       </defs>
       <use xlink:href="#DejaVuSans-53"/>
       <use x="63.623047" xlink:href="#DejaVuSans-48"/>
      </g>
     </g>
    </g>
   </g>
   <g id="matplotlib.axis_2">
    <g id="ytick_1">
     <g id="line2d_7">
      <defs>
       <path d="M 0 0 
L -3.5 0 
" id="m3faf5bb783" style="stroke:#000000;stroke-width:0.8;"/>
      </defs>
      <g>
       <use style="stroke:#000000;stroke-width:0.8;" x="54" xlink:href="#m3faf5bb783" y="221.715786"/>
      </g>
     </g>
     <g id="text_7">
      <!-- $\mathdefault{10^{0}}$ -->
      <g transform="translate(29.4 225.515004)scale(0.1 -0.1)">
       <use transform="translate(0 0.765625)" xlink:href="#DejaVuSans-49"/>
       <use transform="translate(63.623047 0.765625)" xlink:href="#DejaVuSans-48"/>
       <use transform="translate(128.203125 39.046875)scale(0.7)" xlink:href="#DejaVuSans-48"/>
      </g>
     </g>
    </g>
    <g id="ytick_2">
     <g id="line2d_8">
      <g>
       <use style="stroke:#000000;stroke-width:0.8;" x="54" xlink:href="#m3faf5bb783" y="119.892488"/>
      </g>
     </g>
     <g id="text_8">
      <!-- $\mathdefault{10^{1}}$ -->
      <g transform="translate(29.4 123.691707)scale(0.1 -0.1)">
       <use transform="translate(0 0.684375)" xlink:href="#DejaVuSans-49"/>
       <use transform="translate(63.623047 0.684375)" xlink:href="#DejaVuSans-48"/>
       <use transform="translate(128.203125 38.965625)scale(0.7)" xlink:href="#DejaVuSans-49"/>
      </g>
     </g>
    </g>
    <g id="ytick_3">
     <g id="line2d_9">
      <defs>
       <path d="M 0 0 
L -2 0 
" id="mba703b87ae" style="stroke:#000000;stroke-width:0.6;"/>
      </defs>
      <g>
       <use style="stroke:#000000;stroke-width:0.6;" x="54" xlink:href="#mba703b87ae" y="244.305157"/>
      </g>
     </g>
    </g>
    <g id="ytick_4">
     <g id="line2d_10">
      <g>
       <use style="stroke:#000000;stroke-width:0.6;" x="54" xlink:href="#mba703b87ae" y="237.488414"/>
      </g>
     </g>
    </g>
    <g id="ytick_5">
     <g id="line2d_11">
      <g>
       <use style="stroke:#000000;stroke-width:0.6;" x="54" xlink:href="#mba703b87ae" y="231.583483"/>
      </g>
     </g>
    </g>
    <g id="ytick_6">
     <g id="line2d_12">
      <g>
       <use style="stroke:#000000;stroke-width:0.6;" x="54" xlink:href="#mba703b87ae" y="226.374964"/>
      </g>
     </g>
    </g>
    <g id="ytick_7">
     <g id="line2d_13">
      <g>
       <use style="stroke:#000000;stroke-width:0.6;" x="54" xlink:href="#mba703b87ae" y="191.063919"/>
      </g>
     </g>
    </g>
    <g id="ytick_8">
     <g id="line2d_14">
      <g>
       <use style="stroke:#000000;stroke-width:0.6;" x="54" xlink:href="#mba703b87ae" y="173.133726"/>
      </g>
     </g>
    </g>
    <g id="ytick_9">
     <g id="line2d_15">
      <g>
       <use style="stroke:#000000;stroke-width:0.6;" x="54" xlink:href="#mba703b87ae" y="160.412052"/>
      </g>
     </g>
    </g>
    <g id="ytick_10">
     <g id="line2d_16">
      <g>
       <use style="stroke:#000000;stroke-width:0.6;" x="54" xlink:href="#mba703b87ae" y="150.544355"/>
      </g>
     </g>
    </g>
    <g id="ytick_11">
     <g id="line2d_17">
      <g>
       <use style="stroke:#000000;stroke-width:0.6;" x="54" xlink:href="#mba703b87ae" y="142.481859"/>
      </g>
     </g>
    </g>
    <g id="ytick_12">
     <g id="line2d_18">
      <g>
       <use style="stroke:#000000;stroke-width:0.6;" x="54" xlink:href="#mba703b87ae" y="135.665116"/>
      </g>
     </g>
    </g>
    <g id="ytick_13">
     <g id="line2d_19">
      <g>
       <use style="stroke:#000000;stroke-width:0.6;" x="54" xlink:href="#mba703b87ae" y="129.760185"/>
      </g>
     </g>
    </g>
    <g id="ytick_14">
     <g id="line2d_20">
      <g>
       <use style="stroke:#000000;stroke-width:0.6;" x="54" xlink:href="#mba703b87ae" y="124.551667"/>
      </g>
     </g>
    </g>
    <g id="ytick_15">
     <g id="line2d_21">
      <g>
       <use style="stroke:#000000;stroke-width:0.6;" x="54" xlink:href="#mba703b87ae" y="89.240621"/>
      </g>
     </g>
    </g>
    <g id="ytick_16">
     <g id="line2d_22">
      <g>
       <use style="stroke:#000000;stroke-width:0.6;" x="54" xlink:href="#mba703b87ae" y="71.310428"/>
      </g>
     </g>
    </g>
    <g id="ytick_17">
     <g id="line2d_23">
      <g>
       <use style="stroke:#000000;stroke-width:0.6;" x="54" xlink:href="#mba703b87ae" y="58.588754"/>
      </g>
     </g>
    </g>
    <g id="ytick_18">
     <g id="line2d_24">
      <g>
       <use style="stroke:#000000;stroke-width:0.6;" x="54" xlink:href="#mba703b87ae" y="48.721057"/>
      </g>
     </g>
    </g>
    <g id="ytick_19">
     <g id="line2d_25">
      <g>
       <use style="stroke:#000000;stroke-width:0.6;" x="54" xlink:href="#mba703b87ae" y="40.658561"/>
      </g>
     </g>
    </g>
   </g>
   <g id="line2d_26">
    <path clip-path="url(#pef6482eca5)" d="M 69.218182 181.310721 
L 75.429685 181.310721 
L 75.429685 204.135588 
L 81.641187 204.135588 
L 81.641187 204.135588 
L 87.85269 204.135588 
L 87.85269 204.135588 
L 94.064193 204.135588 
L 94.064193 204.135588 
L 100.275696 204.135588 
L 100.275696 204.135588 
L 106.487199 204.135588 
L 106.487199 204.135588 
L 112.698701 204.135588 
L 112.698701 204.135588 
L 118.910204 204.135588 
L 118.910204 204.135588 
L 125.121707 204.135588 
L 125.121707 204.135588 
L 131.33321 204.135588 
L 131.33321 204.135588 
L 137.544712 204.135588 
L 137.544712 204.135588 
L 143.756215 204.135588 
L 143.756215 204.135588 
L 149.967718 204.135588 
L 149.967718 204.135588 
L 156.179221 204.135588 
L 156.179221 204.135588 
L 162.390724 204.135588 
L 162.390724 204.135588 
L 168.602226 204.135588 
L 168.602226 204.135588 
L 174.813729 204.135588 
L 174.813729 206.358161 
L 181.025232 206.358161 
L 181.025232 206.358161 
L 187.236735 206.358161 
L 187.236735 206.358161 
L 193.448237 206.358161 
L 193.448237 216.244531 
L 199.65974 216.244531 
L 199.65974 216.244531 
L 205.871243 216.244531 
L 205.871243 216.244531 
L 212.082746 216.244531 
L 212.082746 216.244531 
L 218.294249 216.244531 
L 218.294249 216.244531 
L 224.505751 216.244531 
L 224.505751 216.244531 
L 230.717254 216.244531 
L 230.717254 216.244531 
L 236.928757 216.244531 
L 236.928757 216.244531 
L 243.14026 216.244531 
L 243.14026 216.244531 
L 249.351763 216.244531 
L 249.351763 216.244531 
L 255.563265 216.244531 
L 255.563265 216.244531 
L 261.774768 216.244531 
L 261.774768 216.244531 
L 267.986271 216.244531 
L 267.986271 216.244531 
L 274.197774 216.244531 
L 274.197774 216.244531 
L 280.409276 216.244531 
L 280.409276 216.244531 
L 286.620779 216.244531 
L 286.620779 216.244531 
L 292.832282 216.244531 
L 292.832282 216.244531 
L 299.043785 216.244531 
L 299.043785 216.244531 
L 305.255288 216.244531 
L 305.255288 216.244531 
L 311.46679 216.244531 
L 311.46679 216.244531 
L 317.678293 216.244531 
L 317.678293 216.244531 
L 323.889796 216.244531 
L 323.889796 216.244531 
L 330.101299 216.244531 
L 330.101299 216.244531 
L 336.312801 216.244531 
L 336.312801 216.244531 
L 342.524304 216.244531 
L 342.524304 216.244531 
L 348.735807 216.244531 
L 348.735807 216.244531 
L 354.94731 216.244531 
L 354.94731 216.244531 
L 361.158813 216.244531 
L 361.158813 216.244531 
L 367.370315 216.244531 
L 367.370315 216.244531 
L 373.581818 216.244531 
L 373.581818 216.244531 
" style="fill:none;stroke:#1f77b4;stroke-linecap:square;stroke-width:1.5;"/>
   </g>
   <g id="line2d_27">
    <path clip-path="url(#pef6482eca5)" d="M 69.218182 134.09599 
L 75.429685 134.09599 
L 75.429685 153.952655 
L 81.641187 153.952655 
L 81.641187 153.952655 
L 87.85269 153.952655 
L 87.85269 153.952655 
L 94.064193 153.952655 
L 94.064193 153.952655 
L 100.275696 153.952655 
L 100.275696 153.952655 
L 106.487199 153.952655 
L 106.487199 153.952655 
L 112.698701 153.952655 
L 112.698701 153.952655 
L 118.910204 153.952655 
L 118.910204 153.952655 
L 125.121707 153.952655 
L 125.121707 153.952655 
L 131.33321 153.952655 
L 131.33321 153.952655 
L 137.544712 153.952655 
L 137.544712 153.952655 
L 143.756215 153.952655 
L 143.756215 200.653977 
L 149.967718 200.653977 
L 149.967718 200.653977 
L 156.179221 200.653977 
L 156.179221 200.653977 
L 162.390724 200.653977 
L 162.390724 200.653977 
L 168.602226 200.653977 
L 168.602226 200.653977 
L 174.813729 200.653977 
L 174.813729 200.653977 
L 181.025232 200.653977 
L 181.025232 200.653977 
L 187.236735 200.653977 
L 187.236735 200.653977 
L 193.448237 200.653977 
L 193.448237 200.653977 
L 199.65974 200.653977 
L 199.65974 200.653977 
L 205.871243 200.653977 
L 205.871243 200.653977 
L 212.082746 200.653977 
L 212.082746 200.653977 
L 218.294249 200.653977 
L 218.294249 200.653977 
L 224.505751 200.653977 
L 224.505751 200.653977 
L 230.717254 200.653977 
L 230.717254 200.653977 
L 236.928757 200.653977 
L 236.928757 200.653977 
L 243.14026 200.653977 
L 243.14026 200.653977 
L 249.351763 200.653977 
L 249.351763 200.653977 
L 255.563265 200.653977 
L 255.563265 200.653977 
L 261.774768 200.653977 
L 261.774768 200.653977 
L 267.986271 200.653977 
L 267.986271 200.653977 
L 274.197774 200.653977 
L 274.197774 200.653977 
L 280.409276 200.653977 
L 280.409276 200.653977 
L 286.620779 200.653977 
L 286.620779 200.653977 
L 292.832282 200.653977 
L 292.832282 200.653977 
L 299.043785 200.653977 
L 299.043785 200.653977 
L 305.255288 200.653977 
L 305.255288 200.653977 
L 311.46679 200.653977 
L 311.46679 200.653977 
L 317.678293 200.653977 
L 317.678293 200.653977 
L 323.889796 200.653977 
L 323.889796 200.653977 
L 330.101299 200.653977 
L 330.101299 200.653977 
L 336.312801 200.653977 
L 336.312801 200.653977 
L 342.524304 200.653977 
L 342.524304 200.653977 
L 348.735807 200.653977 
L 348.735807 200.653977 
L 354.94731 200.653977 
L 354.94731 200.653977 
L 361.158813 200.653977 
L 361.158813 200.653977 
L 367.370315 200.653977 
L 367.370315 200.653977 
L 373.581818 200.653977 
L 373.581818 200.653977 
" style="fill:none;stroke:#ff7f0e;stroke-linecap:square;stroke-width:1.5;"/>
   </g>
   <g id="line2d_28">
    <path clip-path="url(#pef6482eca5)" d="M 69.218182 85.334062 
L 75.429685 85.334062 
L 75.429685 207.822895 
L 81.641187 207.822895 
L 81.641187 213.341255 
L 87.85269 213.341255 
L 87.85269 213.341255 
L 94.064193 213.341255 
L 94.064193 213.341255 
L 100.275696 213.341255 
L 100.275696 213.341255 
L 106.487199 213.341255 
L 106.487199 213.341255 
L 112.698701 213.341255 
L 112.698701 216.724441 
L 118.910204 216.724441 
L 118.910204 219.063325 
L 125.121707 219.063325 
L 125.121707 220.51357 
L 131.33321 220.51357 
L 131.33321 220.51357 
L 137.544712 220.51357 
L 137.544712 220.51357 
L 143.756215 220.51357 
L 143.756215 220.51357 
L 149.967718 220.51357 
L 149.967718 220.51357 
L 156.179221 220.51357 
L 156.179221 220.51357 
L 162.390724 220.51357 
L 162.390724 220.51357 
L 168.602226 220.51357 
L 168.602226 220.51357 
L 174.813729 220.51357 
L 174.813729 220.51357 
L 181.025232 220.51357 
L 181.025232 220.51357 
L 187.236735 220.51357 
L 187.236735 220.51357 
L 193.448237 220.51357 
L 193.448237 220.51357 
L 199.65974 220.51357 
L 199.65974 220.51357 
L 205.871243 220.51357 
L 205.871243 220.51357 
L 212.082746 220.51357 
L 212.082746 220.51357 
L 218.294249 220.51357 
L 218.294249 220.51357 
L 224.505751 220.51357 
L 224.505751 220.51357 
L 230.717254 220.51357 
L 230.717254 220.51357 
L 236.928757 220.51357 
L 236.928757 220.51357 
L 243.14026 220.51357 
L 243.14026 220.51357 
L 249.351763 220.51357 
L 249.351763 220.51357 
L 255.563265 220.51357 
L 255.563265 220.51357 
L 261.774768 220.51357 
L 261.774768 220.51357 
L 267.986271 220.51357 
L 267.986271 220.51357 
L 274.197774 220.51357 
L 274.197774 220.51357 
L 280.409276 220.51357 
L 280.409276 220.51357 
L 286.620779 220.51357 
L 286.620779 220.51357 
L 292.832282 220.51357 
L 292.832282 220.51357 
L 299.043785 220.51357 
L 299.043785 220.51357 
L 305.255288 220.51357 
L 305.255288 220.51357 
L 311.46679 220.51357 
L 311.46679 220.51357 
L 317.678293 220.51357 
L 317.678293 220.51357 
L 323.889796 220.51357 
L 323.889796 220.51357 
L 330.101299 220.51357 
L 330.101299 220.51357 
L 336.312801 220.51357 
L 336.312801 220.51357 
L 342.524304 220.51357 
L 342.524304 220.51357 
L 348.735807 220.51357 
L 348.735807 220.51357 
L 354.94731 220.51357 
L 354.94731 220.51357 
L 361.158813 220.51357 
L 361.158813 220.51357 
L 367.370315 220.51357 
L 367.370315 220.51357 
L 373.581818 220.51357 
L 373.581818 220.51357 
" style="fill:none;stroke:#2ca02c;stroke-linecap:square;stroke-width:1.5;"/>
   </g>
   <g id="line2d_29">
    <path clip-path="url(#pef6482eca5)" d="M 69.218182 242.116364 
L 75.429685 242.116364 
L 75.429685 242.116364 
L 81.641187 242.116364 
L 81.641187 44.443636 
L 87.85269 44.443636 
L 87.85269 44.443636 
L 94.064193 44.443636 
L 94.064193 164.110311 
L 100.275696 164.110311 
L 100.275696 164.110311 
L 106.487199 164.110311 
L 106.487199 164.110311 
L 112.698701 164.110311 
L 112.698701 164.110311 
L 118.910204 164.110311 
L 118.910204 164.110311 
L 125.121707 164.110311 
L 125.121707 201.289252 
L 131.33321 201.289252 
L 131.33321 201.289252 
L 137.544712 201.289252 
L 137.544712 201.289252 
L 143.756215 201.289252 
L 143.756215 201.289252 
L 149.967718 201.289252 
L 149.967718 201.289252 
L 156.179221 201.289252 
L 156.179221 201.289252 
L 162.390724 201.289252 
L 162.390724 202.912408 
L 168.602226 202.912408 
L 168.602226 202.912408 
L 174.813729 202.912408 
L 174.813729 202.912408 
L 181.025232 202.912408 
L 181.025232 202.912408 
L 187.236735 202.912408 
L 187.236735 202.912408 
L 193.448237 202.912408 
L 193.448237 202.912408 
L 199.65974 202.912408 
L 199.65974 211.154871 
L 205.871243 211.154871 
L 205.871243 211.154871 
L 212.082746 211.154871 
L 212.082746 211.154871 
L 218.294249 211.154871 
L 218.294249 211.154871 
L 224.505751 211.154871 
L 224.505751 211.154871 
L 230.717254 211.154871 
L 230.717254 211.154871 
L 236.928757 211.154871 
L 236.928757 211.154871 
L 243.14026 211.154871 
L 243.14026 211.154871 
L 249.351763 211.154871 
L 249.351763 211.154871 
L 255.563265 211.154871 
L 255.563265 211.154871 
L 261.774768 211.154871 
L 261.774768 211.154871 
L 267.986271 211.154871 
L 267.986271 211.154871 
L 274.197774 211.154871 
L 274.197774 211.154871 
L 280.409276 211.154871 
L 280.409276 211.154871 
L 286.620779 211.154871 
L 286.620779 211.154871 
L 292.832282 211.154871 
L 292.832282 211.154871 
L 299.043785 211.154871 
L 299.043785 211.154871 
L 305.255288 211.154871 
L 305.255288 211.154871 
L 311.46679 211.154871 
L 311.46679 211.154871 
L 317.678293 211.154871 
L 317.678293 211.154871 
L 323.889796 211.154871 
L 323.889796 211.154871 
L 330.101299 211.154871 
L 330.101299 211.154871 
L 336.312801 211.154871 
L 336.312801 211.154871 
L 342.524304 211.154871 
L 342.524304 211.154871 
L 348.735807 211.154871 
L 348.735807 211.154871 
L 354.94731 211.154871 
L 354.94731 211.154871 
L 361.158813 211.154871 
L 361.158813 211.154871 
L 367.370315 211.154871 
L 367.370315 211.154871 
L 373.581818 211.154871 
L 373.581818 211.154871 
" style="fill:none;stroke:#d62728;stroke-linecap:square;stroke-width:1.5;"/>
   </g>
   <g id="line2d_30">
    <path clip-path="url(#pef6482eca5)" d="M 69.218182 45.429038 
L 75.429685 45.429038 
L 75.429685 45.429038 
L 81.641187 45.429038 
L 81.641187 192.550094 
L 87.85269 192.550094 
L 87.85269 192.550094 
L 94.064193 192.550094 
L 94.064193 192.550094 
L 100.275696 192.550094 
L 100.275696 192.550094 
L 106.487199 192.550094 
L 106.487199 192.550094 
L 112.698701 192.550094 
L 112.698701 192.550094 
L 118.910204 192.550094 
L 118.910204 193.024794 
L 125.121707 193.024794 
L 125.121707 193.024794 
L 131.33321 193.024794 
L 131.33321 193.024794 
L 137.544712 193.024794 
L 137.544712 193.024794 
L 143.756215 193.024794 
L 143.756215 199.559654 
L 149.967718 199.559654 
L 149.967718 199.559654 
L 156.179221 199.559654 
L 156.179221 199.559654 
L 162.390724 199.559654 
L 162.390724 199.559654 
L 168.602226 199.559654 
L 168.602226 199.559654 
L 174.813729 199.559654 
L 174.813729 199.559654 
L 181.025232 199.559654 
L 181.025232 209.852458 
L 187.236735 209.852458 
L 187.236735 209.852458 
L 193.448237 209.852458 
L 193.448237 209.852458 
L 199.65974 209.852458 
L 199.65974 209.852458 
L 205.871243 209.852458 
L 205.871243 209.852458 
L 212.082746 209.852458 
L 212.082746 209.852458 
L 218.294249 209.852458 
L 218.294249 209.852458 
L 224.505751 209.852458 
L 224.505751 209.852458 
L 230.717254 209.852458 
L 230.717254 209.852458 
L 236.928757 209.852458 
L 236.928757 209.852458 
L 243.14026 209.852458 
L 243.14026 209.852458 
L 249.351763 209.852458 
L 249.351763 209.852458 
L 255.563265 209.852458 
L 255.563265 209.852458 
L 261.774768 209.852458 
L 261.774768 209.852458 
L 267.986271 209.852458 
L 267.986271 209.852458 
L 274.197774 209.852458 
L 274.197774 209.852458 
L 280.409276 209.852458 
L 280.409276 209.852458 
L 286.620779 209.852458 
L 286.620779 209.852458 
L 292.832282 209.852458 
L 292.832282 209.852458 
L 299.043785 209.852458 
L 299.043785 209.852458 
L 305.255288 209.852458 
L 305.255288 209.852458 
L 311.46679 209.852458 
L 311.46679 209.852458 
L 317.678293 209.852458 
L 317.678293 209.852458 
L 323.889796 209.852458 
L 323.889796 209.852458 
L 330.101299 209.852458 
L 330.101299 209.852458 
L 336.312801 209.852458 
L 336.312801 209.852458 
L 342.524304 209.852458 
L 342.524304 209.852458 
L 348.735807 209.852458 
L 348.735807 209.852458 
L 354.94731 209.852458 
L 354.94731 209.852458 
L 361.158813 209.852458 
L 361.158813 209.852458 
L 367.370315 209.852458 
L 367.370315 209.852458 
L 373.581818 209.852458 
L 373.581818 209.852458 
" style="fill:none;stroke:#9467bd;stroke-linecap:square;stroke-width:1.5;"/>
   </g>
   <g id="line2d_31">
    <path clip-path="url(#pef6482eca5)" d="M 69.218182 101.661781 
L 75.429685 101.661781 
L 75.429685 207.332887 
L 81.641187 207.332887 
L 81.641187 207.332887 
L 87.85269 207.332887 
L 87.85269 207.332887 
L 94.064193 207.332887 
L 94.064193 207.332887 
L 100.275696 207.332887 
L 100.275696 207.332887 
L 106.487199 207.332887 
L 106.487199 207.332887 
L 112.698701 207.332887 
L 112.698701 207.332887 
L 118.910204 207.332887 
L 118.910204 207.332887 
L 125.121707 207.332887 
L 125.121707 207.332887 
L 131.33321 207.332887 
L 131.33321 207.332887 
L 137.544712 207.332887 
L 137.544712 207.332887 
L 143.756215 207.332887 
L 143.756215 207.332887 
L 149.967718 207.332887 
L 149.967718 207.332887 
L 156.179221 207.332887 
L 156.179221 207.332887 
L 162.390724 207.332887 
L 162.390724 207.332887 
L 168.602226 207.332887 
L 168.602226 207.332887 
L 174.813729 207.332887 
L 174.813729 207.332887 
L 181.025232 207.332887 
L 181.025232 207.332887 
L 187.236735 207.332887 
L 187.236735 207.332887 
L 193.448237 207.332887 
L 193.448237 208.142727 
L 199.65974 208.142727 
L 199.65974 208.142727 
L 205.871243 208.142727 
L 205.871243 208.142727 
L 212.082746 208.142727 
L 212.082746 208.142727 
L 218.294249 208.142727 
L 218.294249 208.142727 
L 224.505751 208.142727 
L 224.505751 208.142727 
L 230.717254 208.142727 
L 230.717254 208.142727 
L 236.928757 208.142727 
L 236.928757 208.142727 
L 243.14026 208.142727 
L 243.14026 208.142727 
L 249.351763 208.142727 
L 249.351763 208.142727 
L 255.563265 208.142727 
L 255.563265 208.142727 
L 261.774768 208.142727 
L 261.774768 208.142727 
L 267.986271 208.142727 
L 267.986271 208.142727 
L 274.197774 208.142727 
L 274.197774 208.142727 
L 280.409276 208.142727 
L 280.409276 208.142727 
L 286.620779 208.142727 
L 286.620779 208.142727 
L 292.832282 208.142727 
L 292.832282 208.142727 
L 299.043785 208.142727 
L 299.043785 208.142727 
L 305.255288 208.142727 
L 305.255288 208.142727 
L 311.46679 208.142727 
L 311.46679 208.142727 
L 317.678293 208.142727 
L 317.678293 208.142727 
L 323.889796 208.142727 
L 323.889796 208.142727 
L 330.101299 208.142727 
L 330.101299 208.142727 
L 336.312801 208.142727 
L 336.312801 208.142727 
L 342.524304 208.142727 
L 342.524304 208.142727 
L 348.735807 208.142727 
L 348.735807 208.142727 
L 354.94731 208.142727 
L 354.94731 208.142727 
L 361.158813 208.142727 
L 361.158813 208.142727 
L 367.370315 208.142727 
L 367.370315 208.142727 
L 373.581818 208.142727 
L 373.581818 208.142727 
" style="fill:none;stroke:#8c564b;stroke-linecap:square;stroke-width:1.5;"/>
   </g>
   <g id="line2d_32">
    <path clip-path="url(#pef6482eca5)" d="M 69.218182 80.486113 
L 75.429685 80.486113 
L 75.429685 80.486113 
L 81.641187 80.486113 
L 81.641187 178.095534 
L 87.85269 178.095534 
L 87.85269 178.095534 
L 94.064193 178.095534 
L 94.064193 178.095534 
L 100.275696 178.095534 
L 100.275696 178.095534 
L 106.487199 178.095534 
L 106.487199 178.095534 
L 112.698701 178.095534 
L 112.698701 178.095534 
L 118.910204 178.095534 
L 118.910204 178.095534 
L 125.121707 178.095534 
L 125.121707 178.095534 
L 131.33321 178.095534 
L 131.33321 207.108622 
L 137.544712 207.108622 
L 137.544712 207.108622 
L 143.756215 207.108622 
L 143.756215 207.108622 
L 149.967718 207.108622 
L 149.967718 207.108622 
L 156.179221 207.108622 
L 156.179221 207.108622 
L 162.390724 207.108622 
L 162.390724 207.108622 
L 168.602226 207.108622 
L 168.602226 212.934416 
L 174.813729 212.934416 
L 174.813729 212.934416 
L 181.025232 212.934416 
L 181.025232 212.934416 
L 187.236735 212.934416 
L 187.236735 212.934416 
L 193.448237 212.934416 
L 193.448237 212.934416 
L 199.65974 212.934416 
L 199.65974 212.934416 
L 205.871243 212.934416 
L 205.871243 212.934416 
L 212.082746 212.934416 
L 212.082746 212.934416 
L 218.294249 212.934416 
L 218.294249 212.934416 
L 224.505751 212.934416 
L 224.505751 212.934416 
L 230.717254 212.934416 
L 230.717254 212.934416 
L 236.928757 212.934416 
L 236.928757 212.934416 
L 243.14026 212.934416 
L 243.14026 212.934416 
L 249.351763 212.934416 
L 249.351763 212.934416 
L 255.563265 212.934416 
L 255.563265 212.934416 
L 261.774768 212.934416 
L 261.774768 212.934416 
L 267.986271 212.934416 
L 267.986271 212.934416 
L 274.197774 212.934416 
L 274.197774 212.934416 
L 280.409276 212.934416 
L 280.409276 212.934416 
L 286.620779 212.934416 
L 286.620779 212.934416 
L 292.832282 212.934416 
L 292.832282 212.934416 
L 299.043785 212.934416 
L 299.043785 212.934416 
L 305.255288 212.934416 
L 305.255288 212.934416 
L 311.46679 212.934416 
L 311.46679 212.934416 
L 317.678293 212.934416 
L 317.678293 212.934416 
L 323.889796 212.934416 
L 323.889796 212.934416 
L 330.101299 212.934416 
L 330.101299 212.934416 
L 336.312801 212.934416 
L 336.312801 212.934416 
L 342.524304 212.934416 
L 342.524304 212.934416 
L 348.735807 212.934416 
L 348.735807 212.934416 
L 354.94731 212.934416 
L 354.94731 212.934416 
L 361.158813 212.934416 
L 361.158813 212.934416 
L 367.370315 212.934416 
L 367.370315 212.934416 
L 373.581818 212.934416 
L 373.581818 212.934416 
" style="fill:none;stroke:#e377c2;stroke-linecap:square;stroke-width:1.5;"/>
   </g>
   <g id="line2d_33">
    <path clip-path="url(#pef6482eca5)" d="M 69.218182 98.697561 
L 75.429685 98.697561 
L 75.429685 98.697561 
L 81.641187 98.697561 
L 81.641187 98.697561 
L 87.85269 98.697561 
L 87.85269 98.697561 
L 94.064193 98.697561 
L 94.064193 98.697561 
L 100.275696 98.697561 
L 100.275696 133.004226 
L 106.487199 133.004226 
L 106.487199 133.004226 
L 112.698701 133.004226 
L 112.698701 142.119262 
L 118.910204 142.119262 
L 118.910204 142.119262 
L 125.121707 142.119262 
L 125.121707 154.190568 
L 131.33321 154.190568 
L 131.33321 154.190568 
L 137.544712 154.190568 
L 137.544712 154.190568 
L 143.756215 154.190568 
L 143.756215 154.190568 
L 149.967718 154.190568 
L 149.967718 154.190568 
L 156.179221 154.190568 
L 156.179221 204.350562 
L 162.390724 204.350562 
L 162.390724 204.350562 
L 168.602226 204.350562 
L 168.602226 220.196075 
L 174.813729 220.196075 
L 174.813729 220.196075 
L 181.025232 220.196075 
L 181.025232 220.196075 
L 187.236735 220.196075 
L 187.236735 220.196075 
L 193.448237 220.196075 
L 193.448237 220.196075 
L 199.65974 220.196075 
L 199.65974 220.196075 
L 205.871243 220.196075 
L 205.871243 220.196075 
L 212.082746 220.196075 
L 212.082746 220.196075 
L 218.294249 220.196075 
L 218.294249 220.196075 
L 224.505751 220.196075 
L 224.505751 220.196075 
L 230.717254 220.196075 
L 230.717254 220.196075 
L 236.928757 220.196075 
L 236.928757 220.196075 
L 243.14026 220.196075 
L 243.14026 220.196075 
L 249.351763 220.196075 
L 249.351763 220.196075 
L 255.563265 220.196075 
L 255.563265 220.196075 
L 261.774768 220.196075 
L 261.774768 220.196075 
L 267.986271 220.196075 
L 267.986271 220.196075 
L 274.197774 220.196075 
L 274.197774 220.196075 
L 280.409276 220.196075 
L 280.409276 220.196075 
L 286.620779 220.196075 
L 286.620779 220.196075 
L 292.832282 220.196075 
L 292.832282 220.196075 
L 299.043785 220.196075 
L 299.043785 220.196075 
L 305.255288 220.196075 
L 305.255288 220.196075 
L 311.46679 220.196075 
L 311.46679 220.196075 
L 317.678293 220.196075 
L 317.678293 220.196075 
L 323.889796 220.196075 
L 323.889796 220.196075 
L 330.101299 220.196075 
L 330.101299 220.196075 
L 336.312801 220.196075 
L 336.312801 220.196075 
L 342.524304 220.196075 
L 342.524304 220.196075 
L 348.735807 220.196075 
L 348.735807 220.196075 
L 354.94731 220.196075 
L 354.94731 220.196075 
L 361.158813 220.196075 
L 361.158813 220.196075 
L 367.370315 220.196075 
L 367.370315 220.196075 
L 373.581818 220.196075 
L 373.581818 220.196075 
" style="fill:none;stroke:#7f7f7f;stroke-linecap:square;stroke-width:1.5;"/>
   </g>
   <g id="line2d_34">
    <path clip-path="url(#pef6482eca5)" d="M 69.218182 205.201814 
L 75.429685 205.201814 
L 75.429685 181.215085 
L 81.641187 181.215085 
L 81.641187 181.215085 
L 87.85269 181.215085 
L 87.85269 181.215085 
L 94.064193 181.215085 
L 94.064193 181.215085 
L 100.275696 181.215085 
L 100.275696 181.215085 
L 106.487199 181.215085 
L 106.487199 181.215085 
L 112.698701 181.215085 
L 112.698701 181.215085 
L 118.910204 181.215085 
L 118.910204 219.697965 
L 125.121707 219.697965 
L 125.121707 219.697965 
L 131.33321 219.697965 
L 131.33321 219.697965 
L 137.544712 219.697965 
L 137.544712 219.697965 
L 143.756215 219.697965 
L 143.756215 219.697965 
L 149.967718 219.697965 
L 149.967718 219.697965 
L 156.179221 219.697965 
L 156.179221 219.697965 
L 162.390724 219.697965 
L 162.390724 219.697965 
L 168.602226 219.697965 
L 168.602226 219.697965 
L 174.813729 219.697965 
L 174.813729 219.697965 
L 181.025232 219.697965 
L 181.025232 219.697965 
L 187.236735 219.697965 
L 187.236735 219.697965 
L 193.448237 219.697965 
L 193.448237 219.697965 
L 199.65974 219.697965 
L 199.65974 219.697965 
L 205.871243 219.697965 
L 205.871243 219.697965 
L 212.082746 219.697965 
L 212.082746 219.697965 
L 218.294249 219.697965 
L 218.294249 219.697965 
L 224.505751 219.697965 
L 224.505751 219.697965 
L 230.717254 219.697965 
L 230.717254 219.697965 
L 236.928757 219.697965 
L 236.928757 219.697965 
L 243.14026 219.697965 
L 243.14026 219.697965 
L 249.351763 219.697965 
L 249.351763 219.697965 
L 255.563265 219.697965 
L 255.563265 219.697965 
L 261.774768 219.697965 
L 261.774768 219.697965 
L 267.986271 219.697965 
L 267.986271 219.697965 
L 274.197774 219.697965 
L 274.197774 219.697965 
L 280.409276 219.697965 
L 280.409276 219.697965 
L 286.620779 219.697965 
L 286.620779 219.697965 
L 292.832282 219.697965 
L 292.832282 219.697965 
L 299.043785 219.697965 
L 299.043785 219.697965 
L 305.255288 219.697965 
L 305.255288 219.697965 
L 311.46679 219.697965 
L 311.46679 219.697965 
L 317.678293 219.697965 
L 317.678293 219.697965 
L 323.889796 219.697965 
L 323.889796 219.697965 
L 330.101299 219.697965 
L 330.101299 219.697965 
L 336.312801 219.697965 
L 336.312801 219.697965 
L 342.524304 219.697965 
L 342.524304 219.697965 
L 348.735807 219.697965 
L 348.735807 219.697965 
L 354.94731 219.697965 
L 354.94731 219.697965 
L 361.158813 219.697965 
L 361.158813 219.697965 
L 367.370315 219.697965 
L 367.370315 219.697965 
L 373.581818 219.697965 
L 373.581818 219.697965 
" style="fill:none;stroke:#bcbd22;stroke-linecap:square;stroke-width:1.5;"/>
   </g>
   <g id="line2d_35">
    <path clip-path="url(#pef6482eca5)" d="M 69.218182 191.530991 
L 75.429685 191.530991 
L 75.429685 191.530991 
L 81.641187 191.530991 
L 81.641187 191.530991 
L 87.85269 191.530991 
L 87.85269 200.975886 
L 94.064193 200.975886 
L 94.064193 200.975886 
L 100.275696 200.975886 
L 100.275696 200.975886 
L 106.487199 200.975886 
L 106.487199 200.975886 
L 112.698701 200.975886 
L 112.698701 200.975886 
L 118.910204 200.975886 
L 118.910204 214.298925 
L 125.121707 214.298925 
L 125.121707 214.298925 
L 131.33321 214.298925 
L 131.33321 214.298925 
L 137.544712 214.298925 
L 137.544712 214.298925 
L 143.756215 214.298925 
L 143.756215 214.298925 
L 149.967718 214.298925 
L 149.967718 214.298925 
L 156.179221 214.298925 
L 156.179221 214.298925 
L 162.390724 214.298925 
L 162.390724 214.298925 
L 168.602226 214.298925 
L 168.602226 214.298925 
L 174.813729 214.298925 
L 174.813729 214.298925 
L 181.025232 214.298925 
L 181.025232 214.298925 
L 187.236735 214.298925 
L 187.236735 214.298925 
L 193.448237 214.298925 
L 193.448237 214.298925 
L 199.65974 214.298925 
L 199.65974 214.298925 
L 205.871243 214.298925 
L 205.871243 214.298925 
L 212.082746 214.298925 
L 212.082746 214.298925 
L 218.294249 214.298925 
L 218.294249 214.298925 
L 224.505751 214.298925 
L 224.505751 214.298925 
L 230.717254 214.298925 
L 230.717254 214.298925 
L 236.928757 214.298925 
L 236.928757 214.298925 
L 243.14026 214.298925 
L 243.14026 214.298925 
L 249.351763 214.298925 
L 249.351763 214.298925 
L 255.563265 214.298925 
L 255.563265 214.298925 
L 261.774768 214.298925 
L 261.774768 214.298925 
L 267.986271 214.298925 
L 267.986271 214.298925 
L 274.197774 214.298925 
L 274.197774 214.298925 
L 280.409276 214.298925 
L 280.409276 214.298925 
L 286.620779 214.298925 
L 286.620779 214.298925 
L 292.832282 214.298925 
L 292.832282 214.298925 
L 299.043785 214.298925 
L 299.043785 214.298925 
L 305.255288 214.298925 
L 305.255288 214.298925 
L 311.46679 214.298925 
L 311.46679 214.298925 
L 317.678293 214.298925 
L 317.678293 214.298925 
L 323.889796 214.298925 
L 323.889796 214.298925 
L 330.101299 214.298925 
L 330.101299 214.298925 
L 336.312801 214.298925 
L 336.312801 214.298925 
L 342.524304 214.298925 
L 342.524304 214.298925 
L 348.735807 214.298925 
L 348.735807 214.298925 
L 354.94731 214.298925 
L 354.94731 214.298925 
L 361.158813 214.298925 
L 361.158813 214.298925 
L 367.370315 214.298925 
L 367.370315 214.298925 
L 373.581818 214.298925 
L 373.581818 214.298925 
" style="fill:none;stroke:#17becf;stroke-linecap:square;stroke-width:1.5;"/>
   </g>
   <g id="patch_3">
    <path d="M 54 252 
L 54 34.56 
" style="fill:none;stroke:#000000;stroke-linecap:square;stroke-linejoin:miter;stroke-width:0.8;"/>
   </g>
   <g id="patch_4">
    <path d="M 388.8 252 
L 388.8 34.56 
" style="fill:none;stroke:#000000;stroke-linecap:square;stroke-linejoin:miter;stroke-width:0.8;"/>
   </g>
   <g id="patch_5">
    <path d="M 54 252 
L 388.8 252 
" style="fill:none;stroke:#000000;stroke-linecap:square;stroke-linejoin:miter;stroke-width:0.8;"/>
   </g>
   <g id="patch_6">
    <path d="M 54 34.56 
L 388.8 34.56 
" style="fill:none;stroke:#000000;stroke-linecap:square;stroke-linejoin:miter;stroke-width:0.8;"/>
   </g>
   <g id="legend_1">
    <g id="patch_7">
     <path d="M 265.182813 192.1225 
L 381.8 192.1225 
Q 383.8 192.1225 383.8 190.1225 
L 383.8 41.56 
Q 383.8 39.56 381.8 39.56 
L 265.182813 39.56 
Q 263.182813 39.56 263.182813 41.56 
L 263.182813 190.1225 
Q 263.182813 192.1225 265.182813 192.1225 
z
" style="fill:#ffffff;opacity:0.8;stroke:#cccccc;stroke-linejoin:miter;"/>
    </g>
    <g id="line2d_36">
     <path d="M 267.182813 47.658437 
L 287.182813 47.658437 
" style="fill:none;stroke:#1f77b4;stroke-linecap:square;stroke-width:1.5;"/>
    </g>
    <g id="line2d_37"/>
    <g id="text_9">
     <!-- BO0; #f_eval: 50 -->
     <g transform="translate(295.182813 51.158437)scale(0.1 -0.1)">
      <defs>
       <path d="M 19.671875 34.8125 
L 19.671875 8.109375 
L 35.5 8.109375 
Q 43.453125 8.109375 47.28125 11.40625 
Q 51.125 14.703125 51.125 21.484375 
Q 51.125 28.328125 47.28125 31.5625 
Q 43.453125 34.8125 35.5 34.8125 
z
M 19.671875 64.796875 
L 19.671875 42.828125 
L 34.28125 42.828125 
Q 41.5 42.828125 45.03125 45.53125 
Q 48.578125 48.25 48.578125 53.8125 
Q 48.578125 59.328125 45.03125 62.0625 
Q 41.5 64.796875 34.28125 64.796875 
z
M 9.8125 72.90625 
L 35.015625 72.90625 
Q 46.296875 72.90625 52.390625 68.21875 
Q 58.5 63.53125 58.5 54.890625 
Q 58.5 48.1875 55.375 44.234375 
Q 52.25 40.28125 46.1875 39.3125 
Q 53.46875 37.75 57.5 32.78125 
Q 61.53125 27.828125 61.53125 20.40625 
Q 61.53125 10.640625 54.890625 5.3125 
Q 48.25 0 35.984375 0 
L 9.8125 0 
z
" id="DejaVuSans-66"/>
       <path d="M 39.40625 66.21875 
Q 28.65625 66.21875 22.328125 58.203125 
Q 16.015625 50.203125 16.015625 36.375 
Q 16.015625 22.609375 22.328125 14.59375 
Q 28.65625 6.59375 39.40625 6.59375 
Q 50.140625 6.59375 56.421875 14.59375 
Q 62.703125 22.609375 62.703125 36.375 
Q 62.703125 50.203125 56.421875 58.203125 
Q 50.140625 66.21875 39.40625 66.21875 
z
M 39.40625 74.21875 
Q 54.734375 74.21875 63.90625 63.9375 
Q 73.09375 53.65625 73.09375 36.375 
Q 73.09375 19.140625 63.90625 8.859375 
Q 54.734375 -1.421875 39.40625 -1.421875 
Q 24.03125 -1.421875 14.8125 8.828125 
Q 5.609375 19.09375 5.609375 36.375 
Q 5.609375 53.65625 14.8125 63.9375 
Q 24.03125 74.21875 39.40625 74.21875 
z
" id="DejaVuSans-79"/>
       <path d="M 11.71875 51.703125 
L 22.015625 51.703125 
L 22.015625 39.3125 
L 11.71875 39.3125 
z
M 11.71875 12.40625 
L 22.015625 12.40625 
L 22.015625 4 
L 14.015625 -11.625 
L 7.71875 -11.625 
L 11.71875 4 
z
" id="DejaVuSans-59"/>
       <path id="DejaVuSans-32"/>
       <path d="M 51.125 44 
L 36.921875 44 
L 32.8125 27.6875 
L 47.125 27.6875 
z
M 43.796875 71.78125 
L 38.71875 51.515625 
L 52.984375 51.515625 
L 58.109375 71.78125 
L 65.921875 71.78125 
L 60.890625 51.515625 
L 76.125 51.515625 
L 76.125 44 
L 58.984375 44 
L 54.984375 27.6875 
L 70.515625 27.6875 
L 70.515625 20.21875 
L 53.078125 20.21875 
L 48 0 
L 40.1875 0 
L 45.21875 20.21875 
L 30.90625 20.21875 
L 25.875 0 
L 18.015625 0 
L 23.09375 20.21875 
L 7.71875 20.21875 
L 7.71875 27.6875 
L 24.90625 27.6875 
L 29 44 
L 13.28125 44 
L 13.28125 51.515625 
L 30.90625 51.515625 
L 35.890625 71.78125 
z
" id="DejaVuSans-35"/>
       <path d="M 37.109375 75.984375 
L 37.109375 68.5 
L 28.515625 68.5 
Q 23.6875 68.5 21.796875 66.546875 
Q 19.921875 64.59375 19.921875 59.515625 
L 19.921875 54.6875 
L 34.71875 54.6875 
L 34.71875 47.703125 
L 19.921875 47.703125 
L 19.921875 0 
L 10.890625 0 
L 10.890625 47.703125 
L 2.296875 47.703125 
L 2.296875 54.6875 
L 10.890625 54.6875 
L 10.890625 58.5 
Q 10.890625 67.625 15.140625 71.796875 
Q 19.390625 75.984375 28.609375 75.984375 
z
" id="DejaVuSans-102"/>
       <path d="M 50.984375 -16.609375 
L 50.984375 -23.578125 
L -0.984375 -23.578125 
L -0.984375 -16.609375 
z
" id="DejaVuSans-95"/>
       <path d="M 56.203125 29.59375 
L 56.203125 25.203125 
L 14.890625 25.203125 
Q 15.484375 15.921875 20.484375 11.0625 
Q 25.484375 6.203125 34.421875 6.203125 
Q 39.59375 6.203125 44.453125 7.46875 
Q 49.3125 8.734375 54.109375 11.28125 
L 54.109375 2.78125 
Q 49.265625 0.734375 44.1875 -0.34375 
Q 39.109375 -1.421875 33.890625 -1.421875 
Q 20.796875 -1.421875 13.15625 6.1875 
Q 5.515625 13.8125 5.515625 26.8125 
Q 5.515625 40.234375 12.765625 48.109375 
Q 20.015625 56 32.328125 56 
Q 43.359375 56 49.78125 48.890625 
Q 56.203125 41.796875 56.203125 29.59375 
z
M 47.21875 32.234375 
Q 47.125 39.59375 43.09375 43.984375 
Q 39.0625 48.390625 32.421875 48.390625 
Q 24.90625 48.390625 20.390625 44.140625 
Q 15.875 39.890625 15.1875 32.171875 
z
" id="DejaVuSans-101"/>
       <path d="M 2.984375 54.6875 
L 12.5 54.6875 
L 29.59375 8.796875 
L 46.6875 54.6875 
L 56.203125 54.6875 
L 35.6875 0 
L 23.484375 0 
z
" id="DejaVuSans-118"/>
       <path d="M 34.28125 27.484375 
Q 23.390625 27.484375 19.1875 25 
Q 14.984375 22.515625 14.984375 16.5 
Q 14.984375 11.71875 18.140625 8.90625 
Q 21.296875 6.109375 26.703125 6.109375 
Q 34.1875 6.109375 38.703125 11.40625 
Q 43.21875 16.703125 43.21875 25.484375 
L 43.21875 27.484375 
z
M 52.203125 31.203125 
L 52.203125 0 
L 43.21875 0 
L 43.21875 8.296875 
Q 40.140625 3.328125 35.546875 0.953125 
Q 30.953125 -1.421875 24.3125 -1.421875 
Q 15.921875 -1.421875 10.953125 3.296875 
Q 6 8.015625 6 15.921875 
Q 6 25.140625 12.171875 29.828125 
Q 18.359375 34.515625 30.609375 34.515625 
L 43.21875 34.515625 
L 43.21875 35.40625 
Q 43.21875 41.609375 39.140625 45 
Q 35.0625 48.390625 27.6875 48.390625 
Q 23 48.390625 18.546875 47.265625 
Q 14.109375 46.140625 10.015625 43.890625 
L 10.015625 52.203125 
Q 14.9375 54.109375 19.578125 55.046875 
Q 24.21875 56 28.609375 56 
Q 40.484375 56 46.34375 49.84375 
Q 52.203125 43.703125 52.203125 31.203125 
z
" id="DejaVuSans-97"/>
       <path d="M 9.421875 75.984375 
L 18.40625 75.984375 
L 18.40625 0 
L 9.421875 0 
z
" id="DejaVuSans-108"/>
       <path d="M 11.71875 12.40625 
L 22.015625 12.40625 
L 22.015625 0 
L 11.71875 0 
z
M 11.71875 51.703125 
L 22.015625 51.703125 
L 22.015625 39.3125 
L 11.71875 39.3125 
z
" id="DejaVuSans-58"/>
      </defs>
      <use xlink:href="#DejaVuSans-66"/>
      <use x="66.853516" xlink:href="#DejaVuSans-79"/>
      <use x="145.564453" xlink:href="#DejaVuSans-48"/>
      <use x="209.1875" xlink:href="#DejaVuSans-59"/>
      <use x="242.878906" xlink:href="#DejaVuSans-32"/>
      <use x="274.666016" xlink:href="#DejaVuSans-35"/>
      <use x="358.455078" xlink:href="#DejaVuSans-102"/>
      <use x="393.660156" xlink:href="#DejaVuSans-95"/>
      <use x="443.660156" xlink:href="#DejaVuSans-101"/>
      <use x="505.183594" xlink:href="#DejaVuSans-118"/>
      <use x="564.363281" xlink:href="#DejaVuSans-97"/>
      <use x="625.642578" xlink:href="#DejaVuSans-108"/>
      <use x="653.425781" xlink:href="#DejaVuSans-58"/>
      <use x="687.117188" xlink:href="#DejaVuSans-32"/>
      <use x="718.904297" xlink:href="#DejaVuSans-53"/>
      <use x="782.527344" xlink:href="#DejaVuSans-48"/>
     </g>
    </g>
    <g id="line2d_38">
     <path d="M 267.182813 62.614688 
L 287.182813 62.614688 
" style="fill:none;stroke:#ff7f0e;stroke-linecap:square;stroke-width:1.5;"/>
    </g>
    <g id="line2d_39"/>
    <g id="text_10">
     <!-- BO1; #f_eval: 50 -->
     <g transform="translate(295.182813 66.114688)scale(0.1 -0.1)">
      <use xlink:href="#DejaVuSans-66"/>
      <use x="66.853516" xlink:href="#DejaVuSans-79"/>
      <use x="145.564453" xlink:href="#DejaVuSans-49"/>
      <use x="209.1875" xlink:href="#DejaVuSans-59"/>
      <use x="242.878906" xlink:href="#DejaVuSans-32"/>
      <use x="274.666016" xlink:href="#DejaVuSans-35"/>
      <use x="358.455078" xlink:href="#DejaVuSans-102"/>
      <use x="393.660156" xlink:href="#DejaVuSans-95"/>
      <use x="443.660156" xlink:href="#DejaVuSans-101"/>
      <use x="505.183594" xlink:href="#DejaVuSans-118"/>
      <use x="564.363281" xlink:href="#DejaVuSans-97"/>
      <use x="625.642578" xlink:href="#DejaVuSans-108"/>
      <use x="653.425781" xlink:href="#DejaVuSans-58"/>
      <use x="687.117188" xlink:href="#DejaVuSans-32"/>
      <use x="718.904297" xlink:href="#DejaVuSans-53"/>
      <use x="782.527344" xlink:href="#DejaVuSans-48"/>
     </g>
    </g>
    <g id="line2d_40">
     <path d="M 267.182813 77.570938 
L 287.182813 77.570938 
" style="fill:none;stroke:#2ca02c;stroke-linecap:square;stroke-width:1.5;"/>
    </g>
    <g id="line2d_41"/>
    <g id="text_11">
     <!-- BO2; #f_eval: 50 -->
     <g transform="translate(295.182813 81.070938)scale(0.1 -0.1)">
      <use xlink:href="#DejaVuSans-66"/>
      <use x="66.853516" xlink:href="#DejaVuSans-79"/>
      <use x="145.564453" xlink:href="#DejaVuSans-50"/>
      <use x="209.1875" xlink:href="#DejaVuSans-59"/>
      <use x="242.878906" xlink:href="#DejaVuSans-32"/>
      <use x="274.666016" xlink:href="#DejaVuSans-35"/>
      <use x="358.455078" xlink:href="#DejaVuSans-102"/>
      <use x="393.660156" xlink:href="#DejaVuSans-95"/>
      <use x="443.660156" xlink:href="#DejaVuSans-101"/>
      <use x="505.183594" xlink:href="#DejaVuSans-118"/>
      <use x="564.363281" xlink:href="#DejaVuSans-97"/>
      <use x="625.642578" xlink:href="#DejaVuSans-108"/>
      <use x="653.425781" xlink:href="#DejaVuSans-58"/>
      <use x="687.117188" xlink:href="#DejaVuSans-32"/>
      <use x="718.904297" xlink:href="#DejaVuSans-53"/>
      <use x="782.527344" xlink:href="#DejaVuSans-48"/>
     </g>
    </g>
    <g id="line2d_42">
     <path d="M 267.182813 92.527188 
L 287.182813 92.527188 
" style="fill:none;stroke:#d62728;stroke-linecap:square;stroke-width:1.5;"/>
    </g>
    <g id="line2d_43"/>
    <g id="text_12">
     <!-- BO3; #f_eval: 50 -->
     <g transform="translate(295.182813 96.027188)scale(0.1 -0.1)">
      <use xlink:href="#DejaVuSans-66"/>
      <use x="66.853516" xlink:href="#DejaVuSans-79"/>
      <use x="145.564453" xlink:href="#DejaVuSans-51"/>
      <use x="209.1875" xlink:href="#DejaVuSans-59"/>
      <use x="242.878906" xlink:href="#DejaVuSans-32"/>
      <use x="274.666016" xlink:href="#DejaVuSans-35"/>
      <use x="358.455078" xlink:href="#DejaVuSans-102"/>
      <use x="393.660156" xlink:href="#DejaVuSans-95"/>
      <use x="443.660156" xlink:href="#DejaVuSans-101"/>
      <use x="505.183594" xlink:href="#DejaVuSans-118"/>
      <use x="564.363281" xlink:href="#DejaVuSans-97"/>
      <use x="625.642578" xlink:href="#DejaVuSans-108"/>
      <use x="653.425781" xlink:href="#DejaVuSans-58"/>
      <use x="687.117188" xlink:href="#DejaVuSans-32"/>
      <use x="718.904297" xlink:href="#DejaVuSans-53"/>
      <use x="782.527344" xlink:href="#DejaVuSans-48"/>
     </g>
    </g>
    <g id="line2d_44">
     <path d="M 267.182813 107.483438 
L 287.182813 107.483438 
" style="fill:none;stroke:#9467bd;stroke-linecap:square;stroke-width:1.5;"/>
    </g>
    <g id="line2d_45"/>
    <g id="text_13">
     <!-- BO4; #f_eval: 50 -->
     <g transform="translate(295.182813 110.983438)scale(0.1 -0.1)">
      <use xlink:href="#DejaVuSans-66"/>
      <use x="66.853516" xlink:href="#DejaVuSans-79"/>
      <use x="145.564453" xlink:href="#DejaVuSans-52"/>
      <use x="209.1875" xlink:href="#DejaVuSans-59"/>
      <use x="242.878906" xlink:href="#DejaVuSans-32"/>
      <use x="274.666016" xlink:href="#DejaVuSans-35"/>
      <use x="358.455078" xlink:href="#DejaVuSans-102"/>
      <use x="393.660156" xlink:href="#DejaVuSans-95"/>
      <use x="443.660156" xlink:href="#DejaVuSans-101"/>
      <use x="505.183594" xlink:href="#DejaVuSans-118"/>
      <use x="564.363281" xlink:href="#DejaVuSans-97"/>
      <use x="625.642578" xlink:href="#DejaVuSans-108"/>
      <use x="653.425781" xlink:href="#DejaVuSans-58"/>
      <use x="687.117188" xlink:href="#DejaVuSans-32"/>
      <use x="718.904297" xlink:href="#DejaVuSans-53"/>
      <use x="782.527344" xlink:href="#DejaVuSans-48"/>
     </g>
    </g>
    <g id="line2d_46">
     <path d="M 267.182813 122.439687 
L 287.182813 122.439687 
" style="fill:none;stroke:#8c564b;stroke-linecap:square;stroke-width:1.5;"/>
    </g>
    <g id="line2d_47"/>
    <g id="text_14">
     <!-- BO5; #f_eval: 50 -->
     <g transform="translate(295.182813 125.939687)scale(0.1 -0.1)">
      <use xlink:href="#DejaVuSans-66"/>
      <use x="66.853516" xlink:href="#DejaVuSans-79"/>
      <use x="145.564453" xlink:href="#DejaVuSans-53"/>
      <use x="209.1875" xlink:href="#DejaVuSans-59"/>
      <use x="242.878906" xlink:href="#DejaVuSans-32"/>
      <use x="274.666016" xlink:href="#DejaVuSans-35"/>
      <use x="358.455078" xlink:href="#DejaVuSans-102"/>
      <use x="393.660156" xlink:href="#DejaVuSans-95"/>
      <use x="443.660156" xlink:href="#DejaVuSans-101"/>
      <use x="505.183594" xlink:href="#DejaVuSans-118"/>
      <use x="564.363281" xlink:href="#DejaVuSans-97"/>
      <use x="625.642578" xlink:href="#DejaVuSans-108"/>
      <use x="653.425781" xlink:href="#DejaVuSans-58"/>
      <use x="687.117188" xlink:href="#DejaVuSans-32"/>
      <use x="718.904297" xlink:href="#DejaVuSans-53"/>
      <use x="782.527344" xlink:href="#DejaVuSans-48"/>
     </g>
    </g>
    <g id="line2d_48">
     <path d="M 267.182813 137.395938 
L 287.182813 137.395938 
" style="fill:none;stroke:#e377c2;stroke-linecap:square;stroke-width:1.5;"/>
    </g>
    <g id="line2d_49"/>
    <g id="text_15">
     <!-- BO6; #f_eval: 50 -->
     <g transform="translate(295.182813 140.895938)scale(0.1 -0.1)">
      <defs>
       <path d="M 33.015625 40.375 
Q 26.375 40.375 22.484375 35.828125 
Q 18.609375 31.296875 18.609375 23.390625 
Q 18.609375 15.53125 22.484375 10.953125 
Q 26.375 6.390625 33.015625 6.390625 
Q 39.65625 6.390625 43.53125 10.953125 
Q 47.40625 15.53125 47.40625 23.390625 
Q 47.40625 31.296875 43.53125 35.828125 
Q 39.65625 40.375 33.015625 40.375 
z
M 52.59375 71.296875 
L 52.59375 62.3125 
Q 48.875 64.0625 45.09375 64.984375 
Q 41.3125 65.921875 37.59375 65.921875 
Q 27.828125 65.921875 22.671875 59.328125 
Q 17.53125 52.734375 16.796875 39.40625 
Q 19.671875 43.65625 24.015625 45.921875 
Q 28.375 48.1875 33.59375 48.1875 
Q 44.578125 48.1875 50.953125 41.515625 
Q 57.328125 34.859375 57.328125 23.390625 
Q 57.328125 12.15625 50.6875 5.359375 
Q 44.046875 -1.421875 33.015625 -1.421875 
Q 20.359375 -1.421875 13.671875 8.265625 
Q 6.984375 17.96875 6.984375 36.375 
Q 6.984375 53.65625 15.1875 63.9375 
Q 23.390625 74.21875 37.203125 74.21875 
Q 40.921875 74.21875 44.703125 73.484375 
Q 48.484375 72.75 52.59375 71.296875 
z
" id="DejaVuSans-54"/>
      </defs>
      <use xlink:href="#DejaVuSans-66"/>
      <use x="66.853516" xlink:href="#DejaVuSans-79"/>
      <use x="145.564453" xlink:href="#DejaVuSans-54"/>
      <use x="209.1875" xlink:href="#DejaVuSans-59"/>
      <use x="242.878906" xlink:href="#DejaVuSans-32"/>
      <use x="274.666016" xlink:href="#DejaVuSans-35"/>
      <use x="358.455078" xlink:href="#DejaVuSans-102"/>
      <use x="393.660156" xlink:href="#DejaVuSans-95"/>
      <use x="443.660156" xlink:href="#DejaVuSans-101"/>
      <use x="505.183594" xlink:href="#DejaVuSans-118"/>
      <use x="564.363281" xlink:href="#DejaVuSans-97"/>
      <use x="625.642578" xlink:href="#DejaVuSans-108"/>
      <use x="653.425781" xlink:href="#DejaVuSans-58"/>
      <use x="687.117188" xlink:href="#DejaVuSans-32"/>
      <use x="718.904297" xlink:href="#DejaVuSans-53"/>
      <use x="782.527344" xlink:href="#DejaVuSans-48"/>
     </g>
    </g>
    <g id="line2d_50">
     <path d="M 267.182813 152.352188 
L 287.182813 152.352188 
" style="fill:none;stroke:#7f7f7f;stroke-linecap:square;stroke-width:1.5;"/>
    </g>
    <g id="line2d_51"/>
    <g id="text_16">
     <!-- BO7; #f_eval: 50 -->
     <g transform="translate(295.182813 155.852188)scale(0.1 -0.1)">
      <defs>
       <path d="M 8.203125 72.90625 
L 55.078125 72.90625 
L 55.078125 68.703125 
L 28.609375 0 
L 18.3125 0 
L 43.21875 64.59375 
L 8.203125 64.59375 
z
" id="DejaVuSans-55"/>
      </defs>
      <use xlink:href="#DejaVuSans-66"/>
      <use x="66.853516" xlink:href="#DejaVuSans-79"/>
      <use x="145.564453" xlink:href="#DejaVuSans-55"/>
      <use x="209.1875" xlink:href="#DejaVuSans-59"/>
      <use x="242.878906" xlink:href="#DejaVuSans-32"/>
      <use x="274.666016" xlink:href="#DejaVuSans-35"/>
      <use x="358.455078" xlink:href="#DejaVuSans-102"/>
      <use x="393.660156" xlink:href="#DejaVuSans-95"/>
      <use x="443.660156" xlink:href="#DejaVuSans-101"/>
      <use x="505.183594" xlink:href="#DejaVuSans-118"/>
      <use x="564.363281" xlink:href="#DejaVuSans-97"/>
      <use x="625.642578" xlink:href="#DejaVuSans-108"/>
      <use x="653.425781" xlink:href="#DejaVuSans-58"/>
      <use x="687.117188" xlink:href="#DejaVuSans-32"/>
      <use x="718.904297" xlink:href="#DejaVuSans-53"/>
      <use x="782.527344" xlink:href="#DejaVuSans-48"/>
     </g>
    </g>
    <g id="line2d_52">
     <path d="M 267.182813 167.308437 
L 287.182813 167.308437 
" style="fill:none;stroke:#bcbd22;stroke-linecap:square;stroke-width:1.5;"/>
    </g>
    <g id="line2d_53"/>
    <g id="text_17">
     <!-- BO8; #f_eval: 50 -->
     <g transform="translate(295.182813 170.808437)scale(0.1 -0.1)">
      <defs>
       <path d="M 31.78125 34.625 
Q 24.75 34.625 20.71875 30.859375 
Q 16.703125 27.09375 16.703125 20.515625 
Q 16.703125 13.921875 20.71875 10.15625 
Q 24.75 6.390625 31.78125 6.390625 
Q 38.8125 6.390625 42.859375 10.171875 
Q 46.921875 13.96875 46.921875 20.515625 
Q 46.921875 27.09375 42.890625 30.859375 
Q 38.875 34.625 31.78125 34.625 
z
M 21.921875 38.8125 
Q 15.578125 40.375 12.03125 44.71875 
Q 8.5 49.078125 8.5 55.328125 
Q 8.5 64.0625 14.71875 69.140625 
Q 20.953125 74.21875 31.78125 74.21875 
Q 42.671875 74.21875 48.875 69.140625 
Q 55.078125 64.0625 55.078125 55.328125 
Q 55.078125 49.078125 51.53125 44.71875 
Q 48 40.375 41.703125 38.8125 
Q 48.828125 37.15625 52.796875 32.3125 
Q 56.78125 27.484375 56.78125 20.515625 
Q 56.78125 9.90625 50.3125 4.234375 
Q 43.84375 -1.421875 31.78125 -1.421875 
Q 19.734375 -1.421875 13.25 4.234375 
Q 6.78125 9.90625 6.78125 20.515625 
Q 6.78125 27.484375 10.78125 32.3125 
Q 14.796875 37.15625 21.921875 38.8125 
z
M 18.3125 54.390625 
Q 18.3125 48.734375 21.84375 45.5625 
Q 25.390625 42.390625 31.78125 42.390625 
Q 38.140625 42.390625 41.71875 45.5625 
Q 45.3125 48.734375 45.3125 54.390625 
Q 45.3125 60.0625 41.71875 63.234375 
Q 38.140625 66.40625 31.78125 66.40625 
Q 25.390625 66.40625 21.84375 63.234375 
Q 18.3125 60.0625 18.3125 54.390625 
z
" id="DejaVuSans-56"/>
      </defs>
      <use xlink:href="#DejaVuSans-66"/>
      <use x="66.853516" xlink:href="#DejaVuSans-79"/>
      <use x="145.564453" xlink:href="#DejaVuSans-56"/>
      <use x="209.1875" xlink:href="#DejaVuSans-59"/>
      <use x="242.878906" xlink:href="#DejaVuSans-32"/>
      <use x="274.666016" xlink:href="#DejaVuSans-35"/>
      <use x="358.455078" xlink:href="#DejaVuSans-102"/>
      <use x="393.660156" xlink:href="#DejaVuSans-95"/>
      <use x="443.660156" xlink:href="#DejaVuSans-101"/>
      <use x="505.183594" xlink:href="#DejaVuSans-118"/>
      <use x="564.363281" xlink:href="#DejaVuSans-97"/>
      <use x="625.642578" xlink:href="#DejaVuSans-108"/>
      <use x="653.425781" xlink:href="#DejaVuSans-58"/>
      <use x="687.117188" xlink:href="#DejaVuSans-32"/>
      <use x="718.904297" xlink:href="#DejaVuSans-53"/>
      <use x="782.527344" xlink:href="#DejaVuSans-48"/>
     </g>
    </g>
    <g id="line2d_54">
     <path d="M 267.182813 182.264687 
L 287.182813 182.264687 
" style="fill:none;stroke:#17becf;stroke-linecap:square;stroke-width:1.5;"/>
    </g>
    <g id="line2d_55"/>
    <g id="text_18">
     <!-- BO9; #f_eval: 50 -->
     <g transform="translate(295.182813 185.764687)scale(0.1 -0.1)">
      <defs>
       <path d="M 10.984375 1.515625 
L 10.984375 10.5 
Q 14.703125 8.734375 18.5 7.8125 
Q 22.3125 6.890625 25.984375 6.890625 
Q 35.75 6.890625 40.890625 13.453125 
Q 46.046875 20.015625 46.78125 33.40625 
Q 43.953125 29.203125 39.59375 26.953125 
Q 35.25 24.703125 29.984375 24.703125 
Q 19.046875 24.703125 12.671875 31.3125 
Q 6.296875 37.9375 6.296875 49.421875 
Q 6.296875 60.640625 12.9375 67.421875 
Q 19.578125 74.21875 30.609375 74.21875 
Q 43.265625 74.21875 49.921875 64.515625 
Q 56.59375 54.828125 56.59375 36.375 
Q 56.59375 19.140625 48.40625 8.859375 
Q 40.234375 -1.421875 26.421875 -1.421875 
Q 22.703125 -1.421875 18.890625 -0.6875 
Q 15.09375 0.046875 10.984375 1.515625 
z
M 30.609375 32.421875 
Q 37.25 32.421875 41.125 36.953125 
Q 45.015625 41.5 45.015625 49.421875 
Q 45.015625 57.28125 41.125 61.84375 
Q 37.25 66.40625 30.609375 66.40625 
Q 23.96875 66.40625 20.09375 61.84375 
Q 16.21875 57.28125 16.21875 49.421875 
Q 16.21875 41.5 20.09375 36.953125 
Q 23.96875 32.421875 30.609375 32.421875 
z
" id="DejaVuSans-57"/>
      </defs>
      <use xlink:href="#DejaVuSans-66"/>
      <use x="66.853516" xlink:href="#DejaVuSans-79"/>
      <use x="145.564453" xlink:href="#DejaVuSans-57"/>
      <use x="209.1875" xlink:href="#DejaVuSans-59"/>
      <use x="242.878906" xlink:href="#DejaVuSans-32"/>
      <use x="274.666016" xlink:href="#DejaVuSans-35"/>
      <use x="358.455078" xlink:href="#DejaVuSans-102"/>
      <use x="393.660156" xlink:href="#DejaVuSans-95"/>
      <use x="443.660156" xlink:href="#DejaVuSans-101"/>
      <use x="505.183594" xlink:href="#DejaVuSans-118"/>
      <use x="564.363281" xlink:href="#DejaVuSans-97"/>
      <use x="625.642578" xlink:href="#DejaVuSans-108"/>
      <use x="653.425781" xlink:href="#DejaVuSans-58"/>
      <use x="687.117188" xlink:href="#DejaVuSans-32"/>
      <use x="718.904297" xlink:href="#DejaVuSans-53"/>
      <use x="782.527344" xlink:href="#DejaVuSans-48"/>
     </g>
    </g>
   </g>
  </g>
 </g>
 <defs>
  <clipPath id="pef6482eca5">
   <rect height="217.44" width="334.8" x="54" y="34.56"/>
  </clipPath>
 </defs>
</svg>
