<?xml version="1.0" encoding="utf-8" standalone="no"?>
<!DOCTYPE svg PUBLIC "-//W3C//DTD SVG 1.1//EN"
  "http://www.w3.org/Graphics/SVG/1.1/DTD/svg11.dtd">
<!-- Created with matplotlib (https://matplotlib.org/) -->
<svg height="288pt" version="1.1" viewBox="0 0 432 288" width="432pt" xmlns="http://www.w3.org/2000/svg" xmlns:xlink="http://www.w3.org/1999/xlink">
 <metadata>
  <rdf:RDF xmlns:cc="http://creativecommons.org/ns#" xmlns:dc="http://purl.org/dc/elements/1.1/" xmlns:rdf="http://www.w3.org/1999/02/22-rdf-syntax-ns#">
   <cc:Work>
    <dc:type rdf:resource="http://purl.org/dc/dcmitype/StillImage"/>
    <dc:date>2021-04-24T20:05:05.546035</dc:date>
    <dc:format>image/svg+xml</dc:format>
    <dc:creator>
     <cc:Agent>
      <dc:title>Matplotlib v3.3.4, https://matplotlib.org/</dc:title>
     </cc:Agent>
    </dc:creator>
   </cc:Work>
  </rdf:RDF>
 </metadata>
 <defs>
  <style type="text/css">*{stroke-linecap:butt;stroke-linejoin:round;}</style>
 </defs>
 <g id="figure_1">
  <g id="patch_1">
   <path d="M 0 288 
L 432 288 
L 432 0 
L 0 0 
z
" style="fill:#ffffff;"/>
  </g>
  <g id="axes_1">
   <g id="patch_2">
    <path d="M 54 252 
L 388.8 252 
L 388.8 34.56 
L 54 34.56 
z
" style="fill:#ffffff;"/>
   </g>
   <g id="matplotlib.axis_1">
    <g id="xtick_1">
     <g id="line2d_1">
      <defs>
       <path d="M 0 0 
L 0 3.5 
" id="m20b4b357e2" style="stroke:#000000;stroke-width:0.8;"/>
      </defs>
      <g>
       <use style="stroke:#000000;stroke-width:0.8;" x="54" xlink:href="#m20b4b357e2" y="252"/>
      </g>
     </g>
     <g id="text_1">
      <!-- −1.5 -->
      <g transform="translate(40.395703 269.415625)scale(0.15 -0.15)">
       <defs>
        <path d="M 54.4375 31.25 
L 1.8125 31.25 
L 1.8125 35.25 
L 54.4375 35.25 
z
" id="TimesNewRomanPSMT-8722"/>
        <path d="M 11.71875 59.71875 
L 27.828125 67.578125 
L 29.4375 67.578125 
L 29.4375 11.671875 
Q 29.4375 6.109375 29.90625 4.734375 
Q 30.375 3.375 31.828125 2.640625 
Q 33.296875 1.90625 37.796875 1.8125 
L 37.796875 0 
L 12.890625 0 
L 12.890625 1.8125 
Q 17.578125 1.90625 18.9375 2.609375 
Q 20.3125 3.328125 20.84375 4.515625 
Q 21.390625 5.71875 21.390625 11.671875 
L 21.390625 47.40625 
Q 21.390625 54.640625 20.90625 56.6875 
Q 20.5625 58.25 19.65625 58.984375 
Q 18.75 59.71875 17.484375 59.71875 
Q 15.671875 59.71875 12.453125 58.203125 
z
" id="TimesNewRomanPSMT-49"/>
        <path d="M 12.5 9.46875 
Q 14.796875 9.46875 16.359375 7.875 
Q 17.921875 6.296875 17.921875 4.046875 
Q 17.921875 1.8125 16.328125 0.21875 
Q 14.75 -1.375 12.5 -1.375 
Q 10.25 -1.375 8.65625 0.21875 
Q 7.078125 1.8125 7.078125 4.046875 
Q 7.078125 6.34375 8.65625 7.90625 
Q 10.25 9.46875 12.5 9.46875 
z
" id="TimesNewRomanPSMT-46"/>
        <path d="M 43.40625 66.21875 
L 39.59375 57.90625 
L 19.671875 57.90625 
L 15.328125 49.03125 
Q 28.265625 47.125 35.84375 39.40625 
Q 42.328125 32.765625 42.328125 23.78125 
Q 42.328125 18.5625 40.203125 14.109375 
Q 38.09375 9.671875 34.859375 6.546875 
Q 31.640625 3.421875 27.6875 1.515625 
Q 22.078125 -1.171875 16.15625 -1.171875 
Q 10.203125 -1.171875 7.484375 0.84375 
Q 4.78125 2.875 4.78125 5.328125 
Q 4.78125 6.6875 5.90625 7.734375 
Q 7.03125 8.796875 8.734375 8.796875 
Q 10.015625 8.796875 10.96875 8.40625 
Q 11.921875 8.015625 14.203125 6.390625 
Q 17.875 3.859375 21.625 3.859375 
Q 27.34375 3.859375 31.65625 8.171875 
Q 35.984375 12.5 35.984375 18.703125 
Q 35.984375 24.703125 32.125 29.90625 
Q 28.265625 35.109375 21.484375 37.9375 
Q 16.15625 40.140625 6.984375 40.484375 
L 19.671875 66.21875 
z
" id="TimesNewRomanPSMT-53"/>
       </defs>
       <use xlink:href="#TimesNewRomanPSMT-8722"/>
       <use x="56.396484" xlink:href="#TimesNewRomanPSMT-49"/>
       <use x="106.396484" xlink:href="#TimesNewRomanPSMT-46"/>
       <use x="131.396484" xlink:href="#TimesNewRomanPSMT-53"/>
      </g>
     </g>
    </g>
    <g id="xtick_2">
     <g id="line2d_2">
      <g>
       <use style="stroke:#000000;stroke-width:0.8;" x="109.8" xlink:href="#m20b4b357e2" y="252"/>
      </g>
     </g>
     <g id="text_2">
      <!-- −1.0 -->
      <g transform="translate(96.195703 269.415625)scale(0.15 -0.15)">
       <defs>
        <path d="M 3.609375 32.71875 
Q 3.609375 44.046875 7.03125 52.21875 
Q 10.453125 60.40625 16.109375 64.40625 
Q 20.515625 67.578125 25.203125 67.578125 
Q 32.8125 67.578125 38.875 59.8125 
Q 46.4375 50.203125 46.4375 33.734375 
Q 46.4375 22.21875 43.109375 14.15625 
Q 39.796875 6.109375 34.640625 2.46875 
Q 29.5 -1.171875 24.703125 -1.171875 
Q 15.234375 -1.171875 8.9375 10.015625 
Q 3.609375 19.4375 3.609375 32.71875 
z
M 13.1875 31.5 
Q 13.1875 17.828125 16.546875 9.1875 
Q 19.34375 1.90625 24.859375 1.90625 
Q 27.484375 1.90625 30.3125 4.265625 
Q 33.15625 6.640625 34.625 12.203125 
Q 36.859375 20.609375 36.859375 35.890625 
Q 36.859375 47.21875 34.515625 54.78125 
Q 32.765625 60.40625 29.984375 62.75 
Q 27.984375 64.359375 25.140625 64.359375 
Q 21.828125 64.359375 19.234375 61.375 
Q 15.71875 57.328125 14.453125 48.625 
Q 13.1875 39.9375 13.1875 31.5 
z
" id="TimesNewRomanPSMT-48"/>
       </defs>
       <use xlink:href="#TimesNewRomanPSMT-8722"/>
       <use x="56.396484" xlink:href="#TimesNewRomanPSMT-49"/>
       <use x="106.396484" xlink:href="#TimesNewRomanPSMT-46"/>
       <use x="131.396484" xlink:href="#TimesNewRomanPSMT-48"/>
      </g>
     </g>
    </g>
    <g id="xtick_3">
     <g id="line2d_3">
      <g>
       <use style="stroke:#000000;stroke-width:0.8;" x="165.6" xlink:href="#m20b4b357e2" y="252"/>
      </g>
     </g>
     <g id="text_3">
      <!-- −0.5 -->
      <g transform="translate(151.995703 269.415625)scale(0.15 -0.15)">
       <use xlink:href="#TimesNewRomanPSMT-8722"/>
       <use x="56.396484" xlink:href="#TimesNewRomanPSMT-48"/>
       <use x="106.396484" xlink:href="#TimesNewRomanPSMT-46"/>
       <use x="131.396484" xlink:href="#TimesNewRomanPSMT-53"/>
      </g>
     </g>
    </g>
    <g id="xtick_4">
     <g id="line2d_4">
      <g>
       <use style="stroke:#000000;stroke-width:0.8;" x="221.4" xlink:href="#m20b4b357e2" y="252"/>
      </g>
     </g>
     <g id="text_4">
      <!-- 0.0 -->
      <g transform="translate(212.025 269.415625)scale(0.15 -0.15)">
       <use xlink:href="#TimesNewRomanPSMT-48"/>
       <use x="50" xlink:href="#TimesNewRomanPSMT-46"/>
       <use x="75" xlink:href="#TimesNewRomanPSMT-48"/>
      </g>
     </g>
    </g>
    <g id="xtick_5">
     <g id="line2d_5">
      <g>
       <use style="stroke:#000000;stroke-width:0.8;" x="277.2" xlink:href="#m20b4b357e2" y="252"/>
      </g>
     </g>
     <g id="text_5">
      <!-- 0.5 -->
      <g transform="translate(267.825 269.415625)scale(0.15 -0.15)">
       <use xlink:href="#TimesNewRomanPSMT-48"/>
       <use x="50" xlink:href="#TimesNewRomanPSMT-46"/>
       <use x="75" xlink:href="#TimesNewRomanPSMT-53"/>
      </g>
     </g>
    </g>
    <g id="xtick_6">
     <g id="line2d_6">
      <g>
       <use style="stroke:#000000;stroke-width:0.8;" x="333" xlink:href="#m20b4b357e2" y="252"/>
      </g>
     </g>
     <g id="text_6">
      <!-- 1.0 -->
      <g transform="translate(323.625 269.415625)scale(0.15 -0.15)">
       <use xlink:href="#TimesNewRomanPSMT-49"/>
       <use x="50" xlink:href="#TimesNewRomanPSMT-46"/>
       <use x="75" xlink:href="#TimesNewRomanPSMT-48"/>
      </g>
     </g>
    </g>
    <g id="xtick_7">
     <g id="line2d_7">
      <g>
       <use style="stroke:#000000;stroke-width:0.8;" x="388.8" xlink:href="#m20b4b357e2" y="252"/>
      </g>
     </g>
     <g id="text_7">
      <!-- 1.5 -->
      <g transform="translate(379.425 269.415625)scale(0.15 -0.15)">
       <use xlink:href="#TimesNewRomanPSMT-49"/>
       <use x="50" xlink:href="#TimesNewRomanPSMT-46"/>
       <use x="75" xlink:href="#TimesNewRomanPSMT-53"/>
      </g>
     </g>
    </g>
    <g id="text_8">
     <!-- $x_1$ -->
     <g transform="translate(213.375 287.039844)scale(0.15 -0.15)">
      <defs>
       <path d="M 60.015625 54.6875 
L 34.90625 27.875 
L 50.296875 0 
L 39.984375 0 
L 28.421875 21.6875 
L 8.296875 0 
L -2.59375 0 
L 24.3125 28.8125 
L 10.015625 54.6875 
L 20.3125 54.6875 
L 30.8125 34.90625 
L 49.125 54.6875 
z
" id="DejaVuSans-Oblique-120"/>
       <path d="M 12.40625 8.296875 
L 28.515625 8.296875 
L 28.515625 63.921875 
L 10.984375 60.40625 
L 10.984375 69.390625 
L 28.421875 72.90625 
L 38.28125 72.90625 
L 38.28125 8.296875 
L 54.390625 8.296875 
L 54.390625 0 
L 12.40625 0 
z
" id="DejaVuSans-49"/>
      </defs>
      <use transform="translate(0 0.3125)" xlink:href="#DejaVuSans-Oblique-120"/>
      <use transform="translate(59.179688 -16.09375)scale(0.7)" xlink:href="#DejaVuSans-49"/>
     </g>
    </g>
   </g>
   <g id="matplotlib.axis_2">
    <g id="ytick_1">
     <g id="line2d_8">
      <defs>
       <path d="M 0 0 
L -3.5 0 
" id="mad7e20322a" style="stroke:#000000;stroke-width:0.8;"/>
      </defs>
      <g>
       <use style="stroke:#000000;stroke-width:0.8;" x="54" xlink:href="#mad7e20322a" y="252"/>
      </g>
     </g>
     <g id="text_9">
      <!-- −1.5 -->
      <g transform="translate(19.791406 257.207812)scale(0.15 -0.15)">
       <use xlink:href="#TimesNewRomanPSMT-8722"/>
       <use x="56.396484" xlink:href="#TimesNewRomanPSMT-49"/>
       <use x="106.396484" xlink:href="#TimesNewRomanPSMT-46"/>
       <use x="131.396484" xlink:href="#TimesNewRomanPSMT-53"/>
      </g>
     </g>
    </g>
    <g id="ytick_2">
     <g id="line2d_9">
      <g>
       <use style="stroke:#000000;stroke-width:0.8;" x="54" xlink:href="#mad7e20322a" y="215.76"/>
      </g>
     </g>
     <g id="text_10">
      <!-- −1.0 -->
      <g transform="translate(19.791406 220.967812)scale(0.15 -0.15)">
       <use xlink:href="#TimesNewRomanPSMT-8722"/>
       <use x="56.396484" xlink:href="#TimesNewRomanPSMT-49"/>
       <use x="106.396484" xlink:href="#TimesNewRomanPSMT-46"/>
       <use x="131.396484" xlink:href="#TimesNewRomanPSMT-48"/>
      </g>
     </g>
    </g>
    <g id="ytick_3">
     <g id="line2d_10">
      <g>
       <use style="stroke:#000000;stroke-width:0.8;" x="54" xlink:href="#mad7e20322a" y="179.52"/>
      </g>
     </g>
     <g id="text_11">
      <!-- −0.5 -->
      <g transform="translate(19.791406 184.727812)scale(0.15 -0.15)">
       <use xlink:href="#TimesNewRomanPSMT-8722"/>
       <use x="56.396484" xlink:href="#TimesNewRomanPSMT-48"/>
       <use x="106.396484" xlink:href="#TimesNewRomanPSMT-46"/>
       <use x="131.396484" xlink:href="#TimesNewRomanPSMT-53"/>
      </g>
     </g>
    </g>
    <g id="ytick_4">
     <g id="line2d_11">
      <g>
       <use style="stroke:#000000;stroke-width:0.8;" x="54" xlink:href="#mad7e20322a" y="143.28"/>
      </g>
     </g>
     <g id="text_12">
      <!-- 0.0 -->
      <g transform="translate(28.25 148.487812)scale(0.15 -0.15)">
       <use xlink:href="#TimesNewRomanPSMT-48"/>
       <use x="50" xlink:href="#TimesNewRomanPSMT-46"/>
       <use x="75" xlink:href="#TimesNewRomanPSMT-48"/>
      </g>
     </g>
    </g>
    <g id="ytick_5">
     <g id="line2d_12">
      <g>
       <use style="stroke:#000000;stroke-width:0.8;" x="54" xlink:href="#mad7e20322a" y="107.04"/>
      </g>
     </g>
     <g id="text_13">
      <!-- 0.5 -->
      <g transform="translate(28.25 112.247813)scale(0.15 -0.15)">
       <use xlink:href="#TimesNewRomanPSMT-48"/>
       <use x="50" xlink:href="#TimesNewRomanPSMT-46"/>
       <use x="75" xlink:href="#TimesNewRomanPSMT-53"/>
      </g>
     </g>
    </g>
    <g id="ytick_6">
     <g id="line2d_13">
      <g>
       <use style="stroke:#000000;stroke-width:0.8;" x="54" xlink:href="#mad7e20322a" y="70.8"/>
      </g>
     </g>
     <g id="text_14">
      <!-- 1.0 -->
      <g transform="translate(28.25 76.007812)scale(0.15 -0.15)">
       <use xlink:href="#TimesNewRomanPSMT-49"/>
       <use x="50" xlink:href="#TimesNewRomanPSMT-46"/>
       <use x="75" xlink:href="#TimesNewRomanPSMT-48"/>
      </g>
     </g>
    </g>
    <g id="ytick_7">
     <g id="line2d_14">
      <g>
       <use style="stroke:#000000;stroke-width:0.8;" x="54" xlink:href="#mad7e20322a" y="34.56"/>
      </g>
     </g>
     <g id="text_15">
      <!-- 1.5 -->
      <g transform="translate(28.25 39.767812)scale(0.15 -0.15)">
       <use xlink:href="#TimesNewRomanPSMT-49"/>
       <use x="50" xlink:href="#TimesNewRomanPSMT-46"/>
       <use x="75" xlink:href="#TimesNewRomanPSMT-53"/>
      </g>
     </g>
    </g>
    <g id="text_16">
     <!-- $x_2$ -->
     <g transform="translate(12.582813 151.305)rotate(-90)scale(0.15 -0.15)">
      <defs>
       <path d="M 19.1875 8.296875 
L 53.609375 8.296875 
L 53.609375 0 
L 7.328125 0 
L 7.328125 8.296875 
Q 12.9375 14.109375 22.625 23.890625 
Q 32.328125 33.6875 34.8125 36.53125 
Q 39.546875 41.84375 41.421875 45.53125 
Q 43.3125 49.21875 43.3125 52.78125 
Q 43.3125 58.59375 39.234375 62.25 
Q 35.15625 65.921875 28.609375 65.921875 
Q 23.96875 65.921875 18.8125 64.3125 
Q 13.671875 62.703125 7.8125 59.421875 
L 7.8125 69.390625 
Q 13.765625 71.78125 18.9375 73 
Q 24.125 74.21875 28.421875 74.21875 
Q 39.75 74.21875 46.484375 68.546875 
Q 53.21875 62.890625 53.21875 53.421875 
Q 53.21875 48.921875 51.53125 44.890625 
Q 49.859375 40.875 45.40625 35.40625 
Q 44.1875 33.984375 37.640625 27.21875 
Q 31.109375 20.453125 19.1875 8.296875 
z
" id="DejaVuSans-50"/>
      </defs>
      <use transform="translate(0 0.3125)" xlink:href="#DejaVuSans-Oblique-120"/>
      <use transform="translate(59.179688 -16.09375)scale(0.7)" xlink:href="#DejaVuSans-50"/>
     </g>
    </g>
   </g>
   <g id="LineCollection_1">
    <path clip-path="url(#p8e34559b3b)" d="M 173.169401 288.24 
L 173.170854 283.868313 
L 175.412479 282.412462 
L 175.41407 275.126858 
L 177.655466 273.671156 
L 177.657286 266.385369 
L 179.898401 264.929849 
L 179.900503 259.100757 
L 182.141325 257.645427 
L 182.143719 250.359175 
L 184.384117 248.904121 
L 184.386935 243.074459 
L 186.626881 241.619698 
L 186.630151 234.332709 
L 188.869414 232.878392 
L 188.873367 227.047796 
L 191.111875 225.59397 
L 191.116583 219.762734 
L 193.354104 218.309548 
L 193.359799 213.934514 
L 195.596271 212.48201 
L 195.603015 206.648982 
L 197.837777 205.197588 
L 197.846231 200.820204 
L 200.079083 199.37005 
L 200.089447 193.533619 
L 202.31897 192.085628 
L 202.332663 187.70348 
L 204.55818 186.25809 
L 204.575879 181.872069 
L 206.795432 180.430553 
L 206.819095 176.038431 
L 209.029255 174.603015 
L 209.062312 170.200548 
L 211.256543 168.775477 
L 211.305528 165.816396 
L 213.478975 164.404824 
L 213.548744 159.954895 
L 215.669896 158.577286 
L 215.624512 155.663518 
L 215.79196 155.530075 
L 217.829709 154.206633 
L 217.737334 151.292864 
L 218.035176 151.049862 
L 219.904233 149.83598 
L 219.74219 146.922211 
L 220.278392 146.507801 
L 221.883526 145.465327 
L 221.832969 142.551558 
L 224.102049 141.094673 
L 224.283413 138.180905 
L 224.764824 137.916496 
L 226.600921 136.72402 
L 226.737698 133.810251 
L 227.00804 133.661597 
L 229.022369 132.353367 
L 229.091941 129.439598 
L 229.251256 129.349479 
L 231.355713 127.982714 
L 231.375872 126.525829 
L 231.494472 126.457432 
L 233.632376 125.068945 
L 233.737688 122.10793 
L 235.908159 120.698291 
L 235.980905 119.202878 
L 238.164796 117.784523 
L 238.224121 116.295543 
L 240.417919 114.870754 
L 240.467337 113.38665 
L 242.668643 111.956985 
L 242.710553 110.476661 
L 244.917678 109.043216 
L 244.953769 107.56588 
L 247.165495 106.129447 
L 247.196985 104.654513 
L 249.412409 103.215678 
L 249.440201 101.742704 
L 251.658643 100.30191 
L 251.683417 98.830555 
L 256.148223 95.931256 
L 256.169849 94.46159 
L 265.124181 88.646834 
L 265.142714 87.178814 
L 271.872362 82.80846 
L 274.115578 82.807811 
L 280.845226 78.43713 
L 283.088442 78.436289 
L 285.331658 76.979296 
L 287.574874 76.978273 
L 289.81809 75.521189 
L 292.061307 75.519922 
L 294.304523 74.062716 
L 298.790955 74.059182 
L 301.034171 72.601651 
L 310.007035 72.586556 
L 312.197055 71.164221 
L 201.134596 -1 
L 201.134596 -1 
" style="fill:none;stroke:#440154;stroke-width:1.5;"/>
   </g>
   <g id="LineCollection_2">
    <path clip-path="url(#p8e34559b3b)" d="M 173.166259 288.24 
L 173.170854 283.866078 
L 175.409038 282.412462 
L 175.41407 275.124301 
L 177.651529 273.671156 
L 177.657286 266.382418 
L 179.893857 264.929849 
L 179.900503 259.097396 
L 182.136151 257.645427 
L 182.143719 250.355219 
L 184.378026 248.904121 
L 184.386935 243.069867 
L 186.619809 241.619698 
L 186.630151 234.327159 
L 188.860868 232.878392 
L 188.873367 227.041184 
L 191.101694 225.59397 
L 191.116583 219.754736 
L 193.34179 218.309548 
L 193.359799 213.925043 
L 195.581687 212.48201 
L 195.603015 206.63711 
L 197.819497 205.197588 
L 197.846231 200.80565 
L 200.056674 199.37005 
L 200.089447 193.51439 
L 202.289362 192.085628 
L 202.332663 187.678624 
L 204.519909 186.25809 
L 204.575879 181.838838 
L 206.744266 180.430553 
L 206.819095 175.992009 
L 208.957778 174.603015 
L 208.925572 170.232362 
L 209.062312 170.131759 
L 211.150626 168.775477 
L 211.114072 165.861709 
L 211.305528 165.718419 
L 213.328116 164.404824 
L 213.224454 160.034171 
L 213.548744 159.783479 
L 215.405961 158.577286 
L 215.262443 155.663518 
L 215.79196 155.241535 
L 217.385434 154.206633 
L 217.093317 151.292864 
L 218.035176 150.524425 
L 219.095199 149.83598 
L 218.582773 146.922211 
L 220.503816 145.465327 
L 220.344798 144.008442 
L 220.34394 142.551558 
L 222.668947 141.094673 
L 223.242469 138.180905 
L 225.720616 136.72402 
L 226.153144 133.810251 
L 227.00804 133.340166 
L 228.52745 132.353367 
L 228.747456 129.439598 
L 229.251256 129.154617 
L 231.055677 127.982714 
L 231.119427 126.525829 
L 231.494472 126.30954 
L 233.40466 125.068945 
L 233.484269 122.155176 
L 235.750862 120.698291 
L 235.776884 119.241407 
L 238.03652 117.784523 
L 238.056005 116.327638 
L 240.311064 114.870754 
L 240.32607 113.413869 
L 242.578021 111.956985 
L 242.589861 110.500101 
L 244.839641 109.043216 
L 244.953769 107.521658 
L 247.097404 106.129447 
L 247.196985 104.615484 
L 249.352315 103.215678 
L 249.440201 101.707913 
L 251.605074 100.30191 
L 251.683417 98.799266 
L 256.10146 95.931256 
L 256.169849 94.433951 
L 265.084109 88.646834 
L 265.142714 87.154736 
L 271.872362 82.785029 
L 274.115578 82.782977 
L 280.845226 78.412234 
L 283.088442 78.409575 
L 285.331658 76.952348 
L 287.574874 76.949113 
L 289.81809 75.491599 
L 292.061307 75.487592 
L 294.304523 74.02969 
L 298.790955 74.018514 
L 301.034171 72.559586 
L 310.007035 72.511851 
L 312.082029 71.164221 
L 201.13055 -1 
L 201.13055 -1 
" style="fill:none;stroke:#440154;stroke-width:1.5;"/>
   </g>
   <g id="LineCollection_3">
    <path clip-path="url(#p8e34559b3b)" d="M 173.156321 288.24 
L 173.170854 283.859011 
L 175.398156 282.412462 
L 175.41407 275.116215 
L 177.639079 273.671156 
L 177.657286 266.373086 
L 179.879489 264.929849 
L 179.900503 259.086768 
L 182.119786 257.645427 
L 182.143719 250.342708 
L 184.358762 248.904121 
L 184.386935 243.055344 
L 186.597449 241.619698 
L 186.630151 234.309607 
L 188.833842 232.878392 
L 188.873367 227.020275 
L 191.069499 225.59397 
L 191.116583 219.729446 
L 193.30285 218.309548 
L 193.359799 213.895092 
L 195.535571 212.48201 
L 195.603015 206.599566 
L 197.761691 205.197588 
L 197.846231 200.759626 
L 199.985809 199.37005 
L 199.962622 193.542513 
L 202.195731 192.085628 
L 202.169991 187.714975 
L 204.398886 186.25809 
L 204.360521 181.887437 
L 206.582464 180.430553 
L 206.52211 176.059899 
L 206.819095 175.84521 
L 208.731747 174.603015 
L 208.629902 170.232362 
L 209.062312 169.914227 
L 210.815685 168.775477 
L 210.700093 165.861709 
L 211.305528 165.408588 
L 212.851058 164.404824 
L 212.52325 160.034171 
L 214.571323 158.577286 
L 214.11748 155.663518 
L 215.980511 154.206633 
L 215.79196 153.472379 
L 210.657243 152.749749 
L 206.819095 151.964466 
L 202.332663 150.841703 
L 197.846231 149.468246 
L 193.359799 147.835647 
L 188.873367 145.956617 
L 184.386935 143.836543 
L 179.29434 141.094673 
L 174.463224 138.180905 
L 170.066966 135.267136 
L 166.000399 132.353367 
L 161.954774 129.231479 
L 155.225126 123.512563 
L 147.830912 116.327638 
L 146.252261 114.760439 
L 142.473957 110.500101 
L 141.214884 109.043216 
L 138.873797 106.129447 
L 136.736751 103.215678 
L 135.891413 101.758794 
L 134.905065 100.30191 
L 135.036181 99.236612 
L 137.279397 100.041071 
L 137.615157 100.30191 
L 139.905683 101.758794 
L 144.21222 104.672563 
L 155.225126 112.081101 
L 161.954774 116.192735 
L 167.412983 119.241407 
L 170.927638 121.04235 
L 177.657286 124.154531 
L 184.386935 126.783423 
L 188.873367 128.282186 
L 193.359799 129.554339 
L 197.846231 130.630177 
L 204.575879 131.831198 
L 209.380765 132.353367 
L 213.548744 132.64506 
L 218.035176 132.727386 
L 222.521608 132.578505 
L 227.00804 132.208928 
L 227.658101 129.439598 
L 230.106878 127.982714 
L 230.308474 126.525829 
L 232.68456 125.068945 
L 232.936305 122.155176 
L 235.253446 120.698291 
L 235.335736 119.241407 
L 237.630875 117.784523 
L 237.692492 116.327638 
L 239.97316 114.870754 
L 240.020612 113.413869 
L 242.291452 111.956985 
L 242.328892 110.500101 
L 244.592864 109.043216 
L 244.623031 107.586332 
L 246.882082 106.129447 
L 246.906837 104.672563 
L 249.162282 103.215678 
L 249.182923 101.758794 
L 251.435674 100.30191 
L 251.453129 98.845025 
L 255.953583 95.931256 
L 255.967899 94.474372 
L 262.899497 89.983358 
L 264.95739 88.646834 
L 264.968815 87.18995 
L 271.872362 82.710933 
L 274.115578 82.704444 
L 280.845226 78.333509 
L 283.088442 78.3251 
L 285.331658 76.867131 
L 287.574874 76.8569 
L 289.81809 75.398024 
L 292.061307 75.385354 
L 294.304523 73.925253 
L 298.790955 73.88991 
L 301.034171 72.426565 
L 310.007035 72.275613 
L 311.718284 71.164221 
L 307.763819 68.51563 
L 307.439467 68.250452 
L 292.061307 58.132919 
L 291.950735 58.052261 
L 201.117756 -1 
L 201.117756 -1 
" style="fill:none;stroke:#440154;stroke-width:1.5;"/>
   </g>
   <g id="LineCollection_4">
    <path clip-path="url(#p8e34559b3b)" d="M 173.124897 288.24 
L 173.170854 283.836661 
L 175.363743 282.412462 
L 175.41407 275.090646 
L 177.59971 273.671156 
L 177.657286 266.343576 
L 179.83405 264.929849 
L 179.900503 259.05316 
L 182.068038 257.645427 
L 182.143719 250.303144 
L 184.297844 248.904121 
L 184.386935 243.00942 
L 186.526738 241.619698 
L 186.511113 234.335276 
L 188.74838 232.878392 
L 188.732002 227.050854 
L 190.967691 225.59397 
L 190.946228 219.766432 
L 193.179711 218.309548 
L 193.15871 213.938894 
L 195.389738 212.48201 
L 195.352255 206.654472 
L 197.57889 205.197588 
L 197.540303 200.826935 
L 199.761716 199.37005 
L 199.688392 193.542513 
L 201.899646 192.085628 
L 201.818249 187.714975 
L 204.016177 186.25809 
L 203.894857 181.887437 
L 206.070801 180.430553 
L 205.879945 176.059899 
L 208.016973 174.603015 
L 207.694914 170.232362 
L 209.756508 168.775477 
L 209.390975 165.861709 
L 211.342468 164.404824 
L 211.305528 164.195293 
L 206.819095 163.436769 
L 202.332663 162.444184 
L 197.846231 161.216538 
L 193.359799 159.745973 
L 188.873367 158.032813 
L 184.386935 156.08575 
L 179.900503 153.900053 
L 175.096921 151.292864 
L 170.255003 148.379095 
L 165.811496 145.465327 
L 161.677998 142.551558 
L 157.468342 139.369943 
L 150.695463 133.810251 
L 144.009045 127.774467 
L 136.842064 120.698291 
L 131.361033 114.870754 
L 128.306533 111.50417 
L 118.883803 100.30191 
L 112.60402 92.282679 
L 100.60117 75.534874 
L 96.654959 69.707337 
L 84.732069 50.767839 
L 81.194876 44.940302 
L 79.540155 42.026533 
L 78.673783 40.569648 
L 75.379928 34.742111 
L 73.738248 31.828342 
L 67.34652 20.173266 
L 64.291756 14.345729 
L 62.748376 11.43196 
L 58.980534 4.147538 
L 58.272658 2.690653 
L 56.384364 -1 
L 56.384364 -1 
" style="fill:none;stroke:#440154;stroke-width:1.5;"/>
    <path clip-path="url(#p8e34559b3b)" d="M 72.597292 -1 
L 73.926841 1.233769 
L 74.8293 2.690653 
L 77.502317 7.061307 
L 84.958 18.716382 
L 87.928643 23.115714 
L 90.171859 26.444143 
L 92.415075 29.706351 
L 94.913929 33.285226 
L 98.017576 37.655879 
L 111.451129 55.138492 
L 121.576884 66.943621 
L 125.421667 71.164221 
L 132.792965 78.723084 
L 137.279397 83.033782 
L 141.851458 87.18995 
L 146.9491 91.560603 
L 152.98191 96.335194 
L 158.441289 100.30191 
L 162.786944 103.215678 
L 167.491676 106.129447 
L 170.927638 108.10667 
L 175.483419 110.500101 
L 179.900503 112.619179 
L 185.282031 114.870754 
L 189.241912 116.327638 
L 193.807717 117.784523 
L 197.846231 118.887863 
L 202.332663 119.885281 
L 207.274778 120.698291 
L 211.305528 121.183586 
L 215.79196 121.489973 
L 220.278392 121.564875 
L 224.764824 121.410642 
L 229.251256 121.022271 
L 233.737688 120.406992 
L 233.940704 119.241407 
L 236.348115 117.784523 
L 236.542964 116.327638 
L 238.904613 114.870754 
L 239.054668 113.413869 
L 241.38524 111.956985 
L 241.503635 110.500101 
L 243.812489 109.043216 
L 243.907884 107.586332 
L 246.201176 106.129447 
L 246.279456 104.672563 
L 248.561344 103.215678 
L 248.626617 101.758794 
L 250.899984 100.30191 
L 250.955184 98.845025 
L 255.485956 95.931256 
L 255.531225 94.474372 
L 264.55667 88.646834 
L 264.592798 87.18995 
L 271.872362 82.476622 
L 274.115578 82.4561 
L 280.845226 78.084555 
L 283.088442 78.057965 
L 285.331658 76.597651 
L 287.574874 76.565299 
L 289.81809 75.102116 
L 292.061307 75.062049 
L 294.304523 73.594994 
L 298.790955 73.48323 
L 301.034171 72.005914 
L 307.763819 71.695556 
L 310.007035 71.528562 
L 310.568024 71.164221 
L 310.007035 70.79988 
L 308.715865 69.707337 
L 307.763819 69.089019 
L 306.738129 68.250452 
L 303.277387 65.880285 
L 302.579436 65.336683 
L 296.547739 61.297505 
L 296.102455 60.96603 
L 283.088442 52.392552 
L 280.627414 50.767839 
L 201.077297 -1 
L 201.077297 -1 
" style="fill:none;stroke:#440154;stroke-width:1.5;"/>
   </g>
   <g id="LineCollection_5">
    <path clip-path="url(#p8e34559b3b)" d="M 173.025525 288.24 
L 173.017273 283.869347 
L 175.254922 282.412462 
L 175.238657 275.12804 
L 177.475214 273.671156 
L 177.455212 266.386734 
L 179.690363 264.929849 
L 179.670752 259.102312 
L 181.904395 257.645427 
L 181.873915 250.361005 
L 184.105205 248.904121 
L 184.074456 243.076583 
L 186.30313 241.619698 
L 186.253719 234.335276 
L 188.478122 232.878392 
L 188.426332 227.050854 
L 190.645745 225.59397 
L 190.577873 219.766432 
L 192.790312 218.309548 
L 192.7239 213.938894 
L 194.928573 212.48201 
L 194.810041 206.654472 
L 197.000825 205.197588 
L 196.878801 200.826935 
L 199.053069 199.37005 
L 198.821198 193.542513 
L 200.963343 192.085628 
L 200.705942 187.714975 
L 202.805944 186.25809 
L 202.332663 181.023036 
L 197.846231 179.847119 
L 193.359799 178.434849 
L 188.873367 176.785417 
L 183.732306 174.603015 
L 179.900503 172.779502 
L 175.075924 170.232362 
L 170.10749 167.318593 
L 165.564979 164.404824 
L 161.355739 161.491055 
L 157.407209 158.577286 
L 151.936037 154.206633 
L 148.481049 151.292864 
L 141.765829 145.190621 
L 134.688632 138.180905 
L 129.218418 132.353367 
L 125.309589 127.982714 
L 121.533258 123.61206 
L 114.426146 114.870754 
L 107.745808 106.129447 
L 101.38794 97.341874 
L 91.604612 82.819296 
L 86.028117 74.07799 
L 83.320108 69.707337 
L 72.181395 50.767839 
L 58.759116 26.000804 
L 55.049311 18.716382 
L 52.037186 12.797183 
L 48.520976 5.604422 
L 45.289156 -1 
L 45.289156 -1 
" style="fill:none;stroke:#440154;stroke-width:1.5;"/>
    <path clip-path="url(#p8e34559b3b)" d="M 85.914552 -1 
L 89.266763 4.147538 
L 98.258636 17.259497 
L 106.846537 28.914573 
L 113.739848 37.655879 
L 121.115032 46.397186 
L 126.351281 52.224724 
L 131.887711 58.052261 
L 137.803709 63.879799 
L 142.531299 68.250452 
L 148.495477 73.398208 
L 152.98191 76.99281 
L 158.861203 81.362412 
L 163.118953 84.276181 
L 167.719642 87.18995 
L 170.927638 89.084721 
L 175.491768 91.560603 
L 179.900503 93.73718 
L 184.936654 95.931256 
L 188.873367 97.4551 
L 193.359799 98.969733 
L 198.057702 100.30191 
L 202.332663 101.304698 
L 206.819095 102.121565 
L 211.305528 102.70817 
L 215.79196 103.058184 
L 220.278392 103.177709 
L 224.764824 103.068757 
L 229.251256 102.729462 
L 233.737688 102.153932 
L 238.224121 101.347079 
L 242.713281 100.30191 
L 247.779228 98.845025 
L 249.440201 98.314845 
L 251.698613 97.388141 
L 254.007189 95.931256 
L 254.150343 94.474372 
L 263.289481 88.646834 
L 263.403729 87.18995 
L 271.872362 81.735663 
L 274.115578 81.67077 
L 280.845226 77.297297 
L 283.088442 77.21321 
L 285.331658 75.745481 
L 287.741627 75.534874 
L 289.81809 74.166373 
L 291.424018 74.07799 
L 294.896568 71.164221 
L 301.034171 65.673746 
L 301.034171 65.313236 
L 296.547739 62.014245 
L 293.06261 59.509146 
L 289.81809 57.313498 
L 286.677172 55.138492 
L 280.845226 51.253797 
L 277.9649 49.310955 
L 265.142714 40.866951 
L 262.489306 39.112764 
L 215.79196 8.654318 
L 204.386257 1.233769 
L 200.949355 -1 
L 200.949355 -1 
" style="fill:none;stroke:#440154;stroke-width:1.5;"/>
   </g>
   <g id="LineCollection_6">
    <path clip-path="url(#p8e34559b3b)" d="M 172.711281 288.24 
L 172.685189 283.869347 
L 174.910799 282.412462 
L 174.859365 275.12804 
L 177.081522 273.671156 
L 177.018272 266.386734 
L 179.235982 264.929849 
L 179.173968 259.102312 
L 181.386912 257.645427 
L 181.290524 250.361005 
L 183.496027 248.904121 
L 183.39879 243.076583 
L 185.59602 241.619698 
L 185.439769 234.335276 
L 187.623494 232.878392 
L 187.459719 227.050854 
L 189.627663 225.59397 
L 189.413032 219.766432 
L 191.558922 218.309548 
L 191.34891 213.938894 
L 193.470243 212.48201 
L 193.359799 210.611731 
L 188.873367 208.992512 
L 184.386935 207.1386 
L 179.900503 205.0509 
L 174.623397 202.283819 
L 169.62723 199.37005 
L 165.066898 196.456281 
L 160.847211 193.542513 
L 156.89608 190.628744 
L 152.98191 187.567939 
L 147.942983 183.344322 
L 143.061111 178.973668 
L 138.461282 174.603015 
L 134.101322 170.232362 
L 129.945153 165.861709 
L 124.68544 160.034171 
L 120.916726 155.663518 
L 116.105014 149.83598 
L 111.500681 144.008442 
L 107.08049 138.180905 
L 102.823064 132.353367 
L 97.707535 125.068945 
L 93.762923 119.241407 
L 88.996381 111.956985 
L 85.294601 106.129447 
L 78.196935 94.474372 
L 72.226131 84.251589 
L 61.811214 65.336683 
L 58.714325 59.509146 
L 47.550754 37.459529 
L 34.580328 9.975075 
L 31.848241 3.973722 
L 29.626894 -1 
L 29.626894 -1 
" style="fill:none;stroke:#450457;stroke-width:1.5;"/>
    <path clip-path="url(#p8e34559b3b)" d="M 109.188464 -1 
L 114.41977 5.604422 
L 119.333668 11.516197 
L 124.342277 17.259497 
L 129.707199 23.087035 
L 135.036181 28.545889 
L 139.949768 33.285226 
L 144.759942 37.655879 
L 149.895679 42.026533 
L 153.536643 44.940302 
L 157.468342 47.91675 
L 161.954774 51.094167 
L 166.441206 54.036715 
L 170.927638 56.744678 
L 175.975037 59.509146 
L 179.900503 61.466122 
L 185.377847 63.879799 
L 189.114854 65.336683 
L 193.359799 66.793989 
L 198.419194 68.250452 
L 202.332663 69.186139 
L 206.819095 70.030062 
L 211.305528 70.642596 
L 215.79196 71.01914 
L 220.278392 71.163357 
L 224.764824 71.076624 
L 229.251256 70.758109 
L 233.737688 70.204731 
L 238.224121 69.416957 
L 243.253904 68.250452 
L 247.196985 67.144401 
L 252.547939 65.336683 
L 256.304873 63.879799 
L 260.656281 61.987264 
L 265.696713 59.509146 
L 269.629146 57.384009 
L 274.115578 54.731765 
L 278.60201 51.846979 
L 278.60201 50.725563 
L 269.629146 44.545152 
L 261.602359 39.112764 
L 253.926633 34.013563 
L 246.24541 28.914573 
L 229.251256 17.754159 
L 219.601994 11.43196 
L 200.544765 -1 
L 200.544765 -1 
" style="fill:none;stroke:#450457;stroke-width:1.5;"/>
   </g>
   <g id="LineCollection_7">
    <path clip-path="url(#p8e34559b3b)" d="M 171.717557 288.24 
L 171.635045 283.869347 
L 173.822586 282.412462 
L 173.659939 275.12804 
L 175.83656 273.671156 
L 175.636546 266.386734 
L 177.799103 264.929849 
L 177.657286 260.638519 
L 172.192009 257.645427 
L 167.384748 254.731658 
L 162.969964 251.817889 
L 158.86368 248.904121 
L 155.002611 245.990352 
L 149.616074 241.619698 
L 146.22145 238.70593 
L 139.880617 232.878392 
L 136.885694 229.964623 
L 131.194326 224.137085 
L 127.150618 219.766432 
L 123.267828 215.395779 
L 118.323959 209.568241 
L 113.603232 203.740704 
L 109.080136 197.913166 
L 104.732146 192.085628 
L 100.539164 186.25809 
L 94.658291 177.753468 
L 86.889447 165.861709 
L 81.437676 157.120402 
L 77.930446 151.292864 
L 72.226131 141.548689 
L 63.065345 125.068945 
L 54.280402 108.356018 
L 44.493918 88.646834 
L 38.259335 75.534874 
L 29.605025 56.580365 
L 18.255722 30.371457 
L 6.918959 2.690653 
L 5.455928 -1 
L 5.455928 -1 
" style="fill:none;stroke:#470d60;stroke-width:1.5;"/>
    <path clip-path="url(#p8e34559b3b)" d="M 169.25228 -1 
L 170.558243 -0.223116 
L 170.927638 -0.003183 
L 173.102632 1.233769 
L 173.170854 1.272619 
L 175.41407 2.491623 
L 175.799424 2.690653 
L 177.657286 3.652344 
L 178.667153 4.147538 
L 179.900503 4.753938 
L 181.732524 5.604422 
L 182.143719 5.795912 
L 184.386935 6.780889 
L 185.067428 7.061307 
L 186.630151 7.707878 
L 188.729492 8.518191 
L 188.873367 8.573976 
L 191.116583 9.38509 
L 192.883604 9.975075 
L 193.359799 10.134935 
L 195.603015 10.828756 
L 197.743353 11.43196 
L 197.846231 11.461138 
L 200.089447 12.038802 
L 202.332663 12.55567 
L 203.967183 12.888844 
L 204.575879 13.013877 
L 206.819095 13.415747 
L 209.062312 13.758038 
L 211.305528 14.041224 
L 213.548744 14.265694 
L 214.629144 14.345729 
L 215.79196 14.432731 
L 218.035176 14.541828 
L 220.278392 14.592224 
L 222.521608 14.583987 
L 222.529827 14.345729 
L 222.521608 14.340391 
L 220.336399 12.888844 
L 220.278392 12.851171 
L 218.139433 11.43196 
L 218.035176 11.364248 
L 215.939179 9.975075 
L 215.79196 9.879462 
L 213.735859 8.518191 
L 213.548744 8.396667 
L 211.529675 7.061307 
L 211.305528 6.915732 
L 209.320808 5.604422 
L 209.062312 5.436539 
L 207.109421 4.147538 
L 206.819095 3.958982 
L 204.895661 2.690653 
L 204.575879 2.482967 
L 202.67966 1.233769 
L 202.332663 1.008407 
L 200.461538 -0.223116 
L 200.089447 -0.464775 
L 199.275507 -1 
" style="fill:none;stroke:#470d60;stroke-width:1.5;"/>
   </g>
   <g id="LineCollection_8">
    <path clip-path="url(#p8e34559b3b)" d="M 101.439212 288.24 
L 97.352856 282.412462 
L 93.395112 276.584925 
L 88.608615 269.300503 
L 83.988744 262.01608 
L 79.52009 254.731658 
L 74.469347 246.22926 
L 66.888104 232.878392 
L 60.552288 221.223317 
L 53.713769 208.111357 
L 46.42954 193.542513 
L 40.802791 181.887437 
L 31.848241 162.549069 
L 22.390297 141.094673 
L 13.902513 120.98015 
L 3.811148 95.931256 
L -1 83.585175 
L -1 83.585175 
" style="fill:none;stroke:#482475;stroke-width:1.5;"/>
   </g>
   <g id="LineCollection_9">
    <path clip-path="url(#p8e34559b3b)" d="M 9.188616 288.24 
L 8.604184 286.783116 
L 8.01767 285.326231 
L 7.429052 283.869347 
L 7.172864 283.236255 
L 6.84631 282.412462 
L 6.267645 280.955578 
L 5.686915 279.498693 
L 5.1041 278.041809 
L 4.929648 277.6062 
L 4.529013 276.584925 
L 3.956076 275.12804 
L 3.381094 273.671156 
L 2.804045 272.214271 
L 2.686432 271.917554 
L 2.235987 270.757387 
L 1.668743 269.300503 
L 1.099472 267.843618 
L 0.528154 266.386734 
L 0.443216 266.170257 
L -0.033486 264.929849 
L -0.595072 263.472965 
L -1 262.426229 
" style="fill:none;stroke:#33638d;stroke-width:1.5;"/>
   </g>
   <g id="LineCollection_10"/>
   <g id="line2d_15">
    <path clip-path="url(#p8e34559b3b)" d="M 54 252 
L 388.8 252 
" style="fill:none;stroke:#000000;stroke-linecap:square;stroke-width:1.5;"/>
   </g>
   <g id="line2d_16">
    <path clip-path="url(#p8e34559b3b)" d="M 54 34.56 
L 388.8 34.56 
" style="fill:none;stroke:#000000;stroke-linecap:square;stroke-width:1.5;"/>
   </g>
   <g id="line2d_17">
    <path clip-path="url(#p8e34559b3b)" d="M 54 252 
L 54 34.56 
" style="fill:none;stroke:#000000;stroke-linecap:square;stroke-width:1.5;"/>
   </g>
   <g id="line2d_18">
    <path clip-path="url(#p8e34559b3b)" d="M 388.8 252 
L 388.8 34.56 
" style="fill:none;stroke:#000000;stroke-linecap:square;stroke-width:1.5;"/>
   </g>
   <g id="line2d_19">
    <path clip-path="url(#p8e34559b3b)" d="M 165.6 34.56 
L 219.157156 138.414444 
L 219.157156 138.414444 
L 219.157156 138.414444 
L 219.157156 138.414444 
L 219.157156 138.414444 
L 219.157156 138.414444 
L 219.157156 138.414444 
L 219.157156 138.414444 
L 219.157156 138.414444 
L 219.157156 138.414444 
L 219.157156 138.414444 
L 219.157156 138.414444 
L 219.157156 138.414444 
L 219.157156 138.414444 
L 219.157156 138.414444 
L 219.157156 138.414444 
L 217.984289 147.53683 
L 217.984289 147.53683 
L 217.984289 147.53683 
L 216.063086 143.12596 
L 216.063086 143.12596 
L 216.063086 143.12596 
L 216.063086 143.12596 
L 216.063086 143.12596 
L 216.063086 143.12596 
L 216.063086 143.12596 
L 216.063086 143.12596 
L 216.063086 143.12596 
L 216.063086 143.12596 
L 216.063086 143.12596 
L 216.063086 143.12596 
L 216.063086 143.12596 
L 216.063086 143.12596 
L 216.063086 143.12596 
L 216.063086 143.12596 
L 216.063086 143.12596 
L 216.063086 143.12596 
L 216.063086 143.12596 
L 216.063086 143.12596 
L 216.063086 143.12596 
L 216.063086 143.12596 
L 216.063086 143.12596 
L 216.063086 143.12596 
L 216.063086 143.12596 
L 216.063086 143.12596 
L 216.063086 143.12596 
L 216.063086 143.12596 
L 216.063086 143.12596 
L 216.063086 143.12596 
" style="fill:none;stroke:#1f77b4;stroke-dasharray:5.55,2.4;stroke-dashoffset:0;stroke-width:1.5;"/>
   </g>
   <g id="line2d_20">
    <path clip-path="url(#p8e34559b3b)" d="M 165.6 34.56 
L 186.628156 123.871536 
L 186.628156 123.871536 
L 186.628156 123.871536 
L 186.628156 123.871536 
L 186.628156 123.871536 
L 186.628156 123.871536 
L 186.628156 123.871536 
L 186.628156 123.871536 
L 186.628156 123.871536 
L 186.628156 123.871536 
L 186.628156 123.871536 
L 190.012345 137.356639 
L 190.012345 137.356639 
L 190.012345 137.356639 
L 190.012345 137.356639 
L 190.012345 137.356639 
L 190.012345 137.356639 
L 190.012345 137.356639 
L 190.012345 137.356639 
L 190.012345 137.356639 
L 190.012345 137.356639 
L 190.012345 137.356639 
L 190.012345 137.356639 
L 190.012345 137.356639 
L 190.012345 137.356639 
L 190.012345 137.356639 
L 190.012345 137.356639 
L 190.012345 137.356639 
L 190.012345 137.356639 
L 190.012345 137.356639 
L 190.012345 137.356639 
L 190.012345 137.356639 
L 190.012345 137.356639 
L 190.012345 137.356639 
L 190.012345 137.356639 
L 190.012345 137.356639 
L 190.012345 137.356639 
L 190.012345 137.356639 
L 190.012345 137.356639 
L 190.012345 137.356639 
L 190.012345 137.356639 
L 190.012345 137.356639 
L 190.012345 137.356639 
L 190.012345 137.356639 
L 190.012345 137.356639 
L 190.012345 137.356639 
L 190.012345 137.356639 
L 190.012345 137.356639 
L 190.012345 137.356639 
" style="fill:none;stroke:#ff7f0e;stroke-dasharray:5.55,2.4;stroke-dashoffset:0;stroke-width:1.5;"/>
   </g>
   <g id="line2d_21">
    <path clip-path="url(#p8e34559b3b)" d="M 165.6 34.56 
L 217.691798 139.123406 
L 210.378914 142.416675 
L 210.378914 142.416675 
L 210.378914 142.416675 
L 210.378914 142.416675 
L 210.378914 142.416675 
L 220.183015 141.048051 
L 219.742675 142.667898 
L 220.543575 141.907831 
L 220.543575 141.907831 
L 220.543575 141.907831 
L 220.543575 141.907831 
L 220.543575 141.907831 
L 220.543575 141.907831 
L 220.543575 141.907831 
L 220.543575 141.907831 
L 220.543575 141.907831 
L 220.543575 141.907831 
L 220.543575 141.907831 
L 220.543575 141.907831 
L 220.543575 141.907831 
L 220.543575 141.907831 
L 220.543575 141.907831 
L 220.543575 141.907831 
L 220.543575 141.907831 
L 220.543575 141.907831 
L 220.543575 141.907831 
L 220.543575 141.907831 
L 220.543575 141.907831 
L 220.543575 141.907831 
L 220.543575 141.907831 
L 220.543575 141.907831 
L 220.543575 141.907831 
L 220.543575 141.907831 
L 220.543575 141.907831 
L 220.543575 141.907831 
L 220.543575 141.907831 
L 220.543575 141.907831 
L 220.543575 141.907831 
L 220.543575 141.907831 
L 220.543575 141.907831 
L 220.543575 141.907831 
L 220.543575 141.907831 
L 220.543575 141.907831 
L 220.543575 141.907831 
L 220.543575 141.907831 
L 220.543575 141.907831 
L 220.543575 141.907831 
L 220.543575 141.907831 
" style="fill:none;stroke:#2ca02c;stroke-dasharray:5.55,2.4;stroke-dashoffset:0;stroke-width:1.5;"/>
   </g>
   <g id="line2d_22">
    <path clip-path="url(#p8e34559b3b)" d="M 165.6 34.56 
L 165.6 34.56 
L 273.411436 73.871922 
L 273.411436 73.871922 
L 220.92829 131.416669 
L 220.92829 131.416669 
L 220.92829 131.416669 
L 220.92829 131.416669 
L 220.92829 131.416669 
L 218.093488 148.279937 
L 218.093488 148.279937 
L 218.093488 148.279937 
L 218.093488 148.279937 
L 218.093488 148.279937 
L 218.093488 148.279937 
L 197.468551 138.466056 
L 197.468551 138.466056 
L 197.468551 138.466056 
L 197.468551 138.466056 
L 197.468551 138.466056 
L 197.468551 138.466056 
L 207.856213 142.954934 
L 207.856213 142.954934 
L 207.856213 142.954934 
L 207.856213 142.954934 
L 207.856213 142.954934 
L 207.856213 142.954934 
L 207.856213 142.954934 
L 207.856213 142.954934 
L 207.856213 142.954934 
L 207.856213 142.954934 
L 207.856213 142.954934 
L 207.856213 142.954934 
L 207.856213 142.954934 
L 207.856213 142.954934 
L 207.856213 142.954934 
L 207.856213 142.954934 
L 207.856213 142.954934 
L 207.856213 142.954934 
L 207.856213 142.954934 
L 207.856213 142.954934 
L 207.856213 142.954934 
L 207.856213 142.954934 
L 207.856213 142.954934 
L 207.856213 142.954934 
L 207.856213 142.954934 
L 207.856213 142.954934 
L 207.856213 142.954934 
L 207.856213 142.954934 
L 207.856213 142.954934 
" style="fill:none;stroke:#d62728;stroke-dasharray:5.55,2.4;stroke-dashoffset:0;stroke-width:1.5;"/>
   </g>
   <g id="line2d_23">
    <path clip-path="url(#p8e34559b3b)" d="M 165.6 34.56 
L 265.430315 78.993262 
L 222.051514 136.216871 
L 222.051514 136.216871 
L 222.051514 136.216871 
L 222.051514 136.216871 
L 222.051514 136.216871 
L 222.051514 136.216871 
L 217.272775 149.823871 
L 217.272775 149.823871 
L 217.272775 149.823871 
L 217.272775 149.823871 
L 190.812311 137.956939 
L 190.812311 137.956939 
L 190.812311 137.956939 
L 190.812311 137.956939 
L 190.812311 137.956939 
L 190.812311 137.956939 
L 205.696278 141.261088 
L 205.696278 141.261088 
L 205.696278 141.261088 
L 205.696278 141.261088 
L 205.696278 141.261088 
L 205.696278 141.261088 
L 205.696278 141.261088 
L 205.696278 141.261088 
L 205.696278 141.261088 
L 205.696278 141.261088 
L 205.696278 141.261088 
L 205.696278 141.261088 
L 205.696278 141.261088 
L 205.696278 141.261088 
L 205.696278 141.261088 
L 205.696278 141.261088 
L 205.696278 141.261088 
L 205.696278 141.261088 
L 205.696278 141.261088 
L 205.696278 141.261088 
L 205.696278 141.261088 
L 205.696278 141.261088 
L 205.696278 141.261088 
L 205.696278 141.261088 
L 205.696278 141.261088 
L 205.696278 141.261088 
L 205.696278 141.261088 
L 205.696278 141.261088 
L 205.696278 141.261088 
L 205.696278 141.261088 
L 205.696278 141.261088 
L 205.696278 141.261088 
" style="fill:none;stroke:#9467bd;stroke-dasharray:5.55,2.4;stroke-dashoffset:0;stroke-width:1.5;"/>
   </g>
   <g id="line2d_24">
    <path clip-path="url(#p8e34559b3b)" d="M 165.6 34.56 
L 222.170108 138.602465 
L 222.170108 138.602465 
L 222.170108 138.602465 
L 222.170108 138.602465 
L 222.170108 138.602465 
L 222.170108 138.602465 
L 222.170108 138.602465 
L 222.170108 138.602465 
L 222.170108 138.602465 
L 222.170108 138.602465 
L 222.170108 138.602465 
L 222.170108 138.602465 
L 222.170108 138.602465 
L 222.170108 138.602465 
L 222.170108 138.602465 
L 222.170108 138.602465 
L 222.170108 138.602465 
L 222.170108 138.602465 
L 222.170108 138.602465 
L 203.427595 140.690219 
L 203.427595 140.690219 
L 203.427595 140.690219 
L 203.427595 140.690219 
L 203.427595 140.690219 
L 203.427595 140.690219 
L 203.427595 140.690219 
L 203.427595 140.690219 
L 203.427595 140.690219 
L 203.427595 140.690219 
L 203.427595 140.690219 
L 203.427595 140.690219 
L 203.427595 140.690219 
L 203.427595 140.690219 
L 203.427595 140.690219 
L 203.427595 140.690219 
L 203.427595 140.690219 
L 203.427595 140.690219 
L 203.427595 140.690219 
L 203.427595 140.690219 
L 203.427595 140.690219 
L 203.427595 140.690219 
L 203.427595 140.690219 
L 203.427595 140.690219 
L 203.427595 140.690219 
L 203.427595 140.690219 
L 203.427595 140.690219 
L 203.427595 140.690219 
L 203.427595 140.690219 
L 203.427595 140.690219 
" style="fill:none;stroke:#8c564b;stroke-dasharray:5.55,2.4;stroke-dashoffset:0;stroke-width:1.5;"/>
   </g>
   <g id="line2d_25">
    <path clip-path="url(#p8e34559b3b)" d="M 165.6 34.56 
L 241.328639 105.662125 
L 158.097727 123.363423 
L 158.097727 123.363423 
L 158.097727 123.363423 
L 158.097727 123.363423 
L 158.097727 123.363423 
L 158.097727 123.363423 
L 158.097727 123.363423 
L 158.097727 123.363423 
L 214.427945 146.719768 
L 214.427945 146.719768 
L 214.427945 146.719768 
L 214.427945 146.719768 
L 214.427945 146.719768 
L 214.427945 146.719768 
L 214.964726 141.081649 
L 214.964726 141.081649 
L 214.964726 141.081649 
L 214.964726 141.081649 
L 214.964726 141.081649 
L 214.964726 141.081649 
L 214.964726 141.081649 
L 214.964726 141.081649 
L 214.964726 141.081649 
L 214.964726 141.081649 
L 214.964726 141.081649 
L 214.964726 141.081649 
L 214.964726 141.081649 
L 214.964726 141.081649 
L 214.964726 141.081649 
L 214.964726 141.081649 
L 214.964726 141.081649 
L 214.964726 141.081649 
L 214.964726 141.081649 
L 214.964726 141.081649 
L 214.964726 141.081649 
L 214.964726 141.081649 
L 214.964726 141.081649 
L 214.964726 141.081649 
L 214.964726 141.081649 
L 214.964726 141.081649 
L 214.964726 141.081649 
L 214.964726 141.081649 
L 214.964726 141.081649 
L 214.964726 141.081649 
L 214.964726 141.081649 
L 214.964726 141.081649 
L 214.964726 141.081649 
L 214.964726 141.081649 
" style="fill:none;stroke:#e377c2;stroke-dasharray:5.55,2.4;stroke-dashoffset:0;stroke-width:1.5;"/>
   </g>
   <g id="line2d_26">
    <path clip-path="url(#p8e34559b3b)" d="M 165.6 34.56 
L 226.369616 114.824789 
L 226.369616 114.824789 
L 226.369616 114.824789 
L 226.369616 114.824789 
L 231.014203 124.098662 
L 231.014203 124.098662 
L 229.31972 126.421321 
L 229.31972 126.421321 
L 227.757528 128.996628 
L 227.757528 128.996628 
L 227.757528 128.996628 
L 227.757528 128.996628 
L 227.757528 128.996628 
L 223.359772 138.046835 
L 223.359772 138.046835 
L 219.816254 144.254567 
L 219.816254 144.254567 
L 219.816254 144.254567 
L 219.816254 144.254567 
L 219.816254 144.254567 
L 219.816254 144.254567 
L 219.816254 144.254567 
L 219.816254 144.254567 
L 219.816254 144.254567 
L 219.816254 144.254567 
L 219.816254 144.254567 
L 219.816254 144.254567 
L 219.816254 144.254567 
L 219.816254 144.254567 
L 219.816254 144.254567 
L 219.816254 144.254567 
L 219.816254 144.254567 
L 219.816254 144.254567 
L 219.816254 144.254567 
L 219.816254 144.254567 
L 219.816254 144.254567 
L 219.816254 144.254567 
L 219.816254 144.254567 
L 219.816254 144.254567 
L 219.816254 144.254567 
L 219.816254 144.254567 
L 219.816254 144.254567 
L 219.816254 144.254567 
L 219.816254 144.254567 
L 219.816254 144.254567 
L 219.816254 144.254567 
L 219.816254 144.254567 
L 219.816254 144.254567 
L 219.816254 144.254567 
" style="fill:none;stroke:#7f7f7f;stroke-dasharray:5.55,2.4;stroke-dashoffset:0;stroke-width:1.5;"/>
   </g>
   <g id="line2d_27">
    <path clip-path="url(#p8e34559b3b)" d="M 165.6 34.56 
L 216.347781 134.597627 
L 216.347781 134.597627 
L 216.347781 134.597627 
L 216.347781 134.597627 
L 216.347781 134.597627 
L 216.347781 134.597627 
L 216.347781 134.597627 
L 220.458404 142.888788 
L 220.458404 142.888788 
L 220.458404 142.888788 
L 220.458404 142.888788 
L 220.458404 142.888788 
L 220.458404 142.888788 
L 220.458404 142.888788 
L 220.458404 142.888788 
L 220.458404 142.888788 
L 220.458404 142.888788 
L 220.458404 142.888788 
L 220.458404 142.888788 
L 220.458404 142.888788 
L 220.458404 142.888788 
L 220.458404 142.888788 
L 220.458404 142.888788 
L 220.458404 142.888788 
L 220.458404 142.888788 
L 220.458404 142.888788 
L 220.458404 142.888788 
L 220.458404 142.888788 
L 220.458404 142.888788 
L 220.458404 142.888788 
L 220.458404 142.888788 
L 220.458404 142.888788 
L 220.458404 142.888788 
L 220.458404 142.888788 
L 220.458404 142.888788 
L 220.458404 142.888788 
L 220.458404 142.888788 
L 220.458404 142.888788 
L 220.458404 142.888788 
L 220.458404 142.888788 
L 220.458404 142.888788 
L 220.458404 142.888788 
L 220.458404 142.888788 
L 220.458404 142.888788 
L 220.458404 142.888788 
L 220.458404 142.888788 
L 220.458404 142.888788 
L 220.458404 142.888788 
L 220.458404 142.888788 
" style="fill:none;stroke:#bcbd22;stroke-dasharray:5.55,2.4;stroke-dashoffset:0;stroke-width:1.5;"/>
   </g>
   <g id="line2d_28">
    <path clip-path="url(#p8e34559b3b)" d="M 165.6 34.56 
L 221.231455 136.112861 
L 221.231455 136.112861 
L 208.16334 137.958305 
L 208.16334 137.958305 
L 208.16334 137.958305 
L 208.16334 137.958305 
L 208.16334 137.958305 
L 214.631752 142.846175 
L 214.631752 142.846175 
L 214.631752 142.846175 
L 214.631752 142.846175 
L 214.631752 142.846175 
L 214.631752 142.846175 
L 214.631752 142.846175 
L 214.631752 142.846175 
L 214.631752 142.846175 
L 214.631752 142.846175 
L 214.631752 142.846175 
L 214.631752 142.846175 
L 214.631752 142.846175 
L 214.631752 142.846175 
L 214.631752 142.846175 
L 214.631752 142.846175 
L 214.631752 142.846175 
L 214.631752 142.846175 
L 214.631752 142.846175 
L 214.631752 142.846175 
L 214.631752 142.846175 
L 214.631752 142.846175 
L 214.631752 142.846175 
L 214.631752 142.846175 
L 214.631752 142.846175 
L 214.631752 142.846175 
L 214.631752 142.846175 
L 214.631752 142.846175 
L 214.631752 142.846175 
L 214.631752 142.846175 
L 214.631752 142.846175 
L 214.631752 142.846175 
L 214.631752 142.846175 
L 214.631752 142.846175 
L 214.631752 142.846175 
L 214.631752 142.846175 
L 214.631752 142.846175 
L 214.631752 142.846175 
L 214.631752 142.846175 
L 214.631752 142.846175 
L 214.631752 142.846175 
L 214.631752 142.846175 
" style="fill:none;stroke:#17becf;stroke-dasharray:5.55,2.4;stroke-dashoffset:0;stroke-width:1.5;"/>
   </g>
   <g id="patch_3">
    <path d="M 54 252 
L 54 34.56 
" style="fill:none;stroke:#000000;stroke-linecap:square;stroke-linejoin:miter;stroke-width:0.8;"/>
   </g>
   <g id="patch_4">
    <path d="M 388.8 252 
L 388.8 34.56 
" style="fill:none;stroke:#000000;stroke-linecap:square;stroke-linejoin:miter;stroke-width:0.8;"/>
   </g>
   <g id="patch_5">
    <path d="M 54 252 
L 388.8 252 
" style="fill:none;stroke:#000000;stroke-linecap:square;stroke-linejoin:miter;stroke-width:0.8;"/>
   </g>
   <g id="patch_6">
    <path d="M 54 34.56 
L 388.8 34.56 
" style="fill:none;stroke:#000000;stroke-linecap:square;stroke-linejoin:miter;stroke-width:0.8;"/>
   </g>
   <g id="legend_1">
    <g id="patch_7">
     <path d="M 253.257031 221.532656 
L 380.05 221.532656 
Q 382.55 221.532656 382.55 219.032656 
L 382.55 43.31 
Q 382.55 40.81 380.05 40.81 
L 253.257031 40.81 
Q 250.757031 40.81 250.757031 43.31 
L 250.757031 219.032656 
Q 250.757031 221.532656 253.257031 221.532656 
z
" style="fill:#ffffff;opacity:0.8;stroke:#cccccc;stroke-linejoin:miter;"/>
    </g>
    <g id="line2d_29">
     <path d="M 255.757031 50.185 
L 280.757031 50.185 
" style="fill:none;stroke:#1f77b4;stroke-dasharray:5.55,2.4;stroke-dashoffset:0;stroke-width:1.5;"/>
    </g>
    <g id="line2d_30"/>
    <g id="text_17">
     <!-- BO0; #f_eval: 50 -->
     <g transform="translate(290.757031 54.56)scale(0.125 -0.125)">
      <defs>
       <path d="M 46.1875 33.796875 
Q 53.078125 32.328125 56.5 29.109375 
Q 61.234375 24.609375 61.234375 18.109375 
Q 61.234375 13.1875 58.109375 8.671875 
Q 54.984375 4.15625 49.53125 2.078125 
Q 44.09375 0 32.90625 0 
L 1.65625 0 
L 1.65625 1.8125 
L 4.15625 1.8125 
Q 8.296875 1.8125 10.109375 4.4375 
Q 11.234375 6.15625 11.234375 11.71875 
L 11.234375 54.5 
Q 11.234375 60.640625 9.8125 62.25 
Q 7.90625 64.40625 4.15625 64.40625 
L 1.65625 64.40625 
L 1.65625 66.21875 
L 30.28125 66.21875 
Q 38.28125 66.21875 43.109375 65.046875 
Q 50.4375 63.28125 54.296875 58.8125 
Q 58.15625 54.34375 58.15625 48.53125 
Q 58.15625 43.5625 55.125 39.625 
Q 52.09375 35.6875 46.1875 33.796875 
z
M 20.609375 36.421875 
Q 22.40625 36.078125 24.71875 35.90625 
Q 27.046875 35.75 29.828125 35.75 
Q 36.96875 35.75 40.546875 37.28125 
Q 44.140625 38.8125 46.046875 41.984375 
Q 47.953125 45.171875 47.953125 48.921875 
Q 47.953125 54.734375 43.21875 58.828125 
Q 38.484375 62.9375 29.390625 62.9375 
Q 24.515625 62.9375 20.609375 61.859375 
z
M 20.609375 4.78125 
Q 26.265625 3.46875 31.78125 3.46875 
Q 40.625 3.46875 45.265625 7.4375 
Q 49.90625 11.421875 49.90625 17.28125 
Q 49.90625 21.140625 47.796875 24.703125 
Q 45.703125 28.265625 40.96875 30.3125 
Q 36.234375 32.375 29.25 32.375 
Q 26.21875 32.375 24.0625 32.265625 
Q 21.921875 32.171875 20.609375 31.9375 
z
" id="TimesNewRomanPSMT-66"/>
       <path d="M 36.578125 67.71875 
Q 49.46875 67.71875 58.90625 57.921875 
Q 68.359375 48.140625 68.359375 33.5 
Q 68.359375 18.40625 58.828125 8.4375 
Q 49.3125 -1.515625 35.796875 -1.515625 
Q 22.125 -1.515625 12.8125 8.203125 
Q 3.515625 17.921875 3.515625 33.34375 
Q 3.515625 49.125 14.265625 59.078125 
Q 23.578125 67.71875 36.578125 67.71875 
z
M 35.640625 64.15625 
Q 26.765625 64.15625 21.390625 57.5625 
Q 14.703125 49.359375 14.703125 33.546875 
Q 14.703125 17.328125 21.625 8.59375 
Q 26.953125 1.953125 35.6875 1.953125 
Q 45.015625 1.953125 51.09375 9.21875 
Q 57.171875 16.5 57.171875 32.171875 
Q 57.171875 49.171875 50.484375 57.515625 
Q 45.125 64.15625 35.640625 64.15625 
z
" id="TimesNewRomanPSMT-79"/>
       <path d="M 13.765625 46.140625 
Q 16.015625 46.140625 17.59375 44.578125 
Q 19.1875 43.015625 19.1875 40.765625 
Q 19.1875 38.53125 17.59375 36.9375 
Q 16.015625 35.359375 13.765625 35.359375 
Q 11.53125 35.359375 9.9375 36.9375 
Q 8.34375 38.53125 8.34375 40.765625 
Q 8.34375 43.015625 9.9375 44.578125 
Q 11.53125 46.140625 13.765625 46.140625 
z
M 6.9375 -16.65625 
L 6.9375 -14.5 
Q 11.96875 -12.84375 14.71875 -9.34375 
Q 17.484375 -5.859375 17.484375 -1.953125 
Q 17.484375 -1.03125 17.046875 -0.390625 
Q 16.703125 0.046875 16.359375 0.046875 
Q 15.828125 0.046875 14.015625 -0.921875 
Q 13.140625 -1.375 12.15625 -1.375 
Q 9.765625 -1.375 8.34375 0.046875 
Q 6.9375 1.46875 6.9375 3.953125 
Q 6.9375 6.34375 8.765625 8.046875 
Q 10.59375 9.765625 13.234375 9.765625 
Q 16.453125 9.765625 18.96875 6.953125 
Q 21.484375 4.15625 21.484375 -0.484375 
Q 21.484375 -5.515625 17.984375 -9.828125 
Q 14.5 -14.15625 6.9375 -16.65625 
z
" id="TimesNewRomanPSMT-59"/>
       <path id="TimesNewRomanPSMT-32"/>
       <path d="M 5.609375 -1.375 
L 10.15625 20.84375 
L 1.8125 20.84375 
L 1.8125 24.859375 
L 10.9375 24.859375 
L 14.3125 41.609375 
L 1.8125 41.609375 
L 1.8125 45.515625 
L 15.234375 45.515625 
L 19.671875 67.71875 
L 23.734375 67.71875 
L 19.28125 45.515625 
L 35.75 45.515625 
L 40.484375 67.71875 
L 44.53125 67.71875 
L 39.890625 45.515625 
L 48.1875 45.515625 
L 48.1875 41.609375 
L 39.15625 41.609375 
L 35.75 24.859375 
L 48.1875 24.859375 
L 48.1875 20.84375 
L 34.90625 20.84375 
L 30.375 -1.375 
L 26.421875 -1.375 
L 30.859375 20.84375 
L 14.3125 20.84375 
L 9.671875 -1.375 
z
M 15.046875 24.859375 
L 31.59375 24.859375 
L 35.109375 41.609375 
L 18.453125 41.609375 
z
" id="TimesNewRomanPSMT-35"/>
       <path d="M 20.609375 41.21875 
L 20.609375 11.8125 
Q 20.609375 5.5625 21.96875 3.90625 
Q 23.78125 1.765625 26.8125 1.765625 
L 30.859375 1.765625 
L 30.859375 0 
L 4.15625 0 
L 4.15625 1.765625 
L 6.15625 1.765625 
Q 8.109375 1.765625 9.71875 2.734375 
Q 11.328125 3.71875 11.9375 5.375 
Q 12.546875 7.03125 12.546875 11.8125 
L 12.546875 41.21875 
L 3.859375 41.21875 
L 3.859375 44.734375 
L 12.546875 44.734375 
L 12.546875 47.65625 
Q 12.546875 54.34375 14.6875 58.984375 
Q 16.84375 63.625 21.265625 66.484375 
Q 25.6875 69.34375 31.203125 69.34375 
Q 36.328125 69.34375 40.625 66.015625 
Q 43.453125 63.8125 43.453125 61.078125 
Q 43.453125 59.625 42.1875 58.328125 
Q 40.921875 57.03125 39.453125 57.03125 
Q 38.328125 57.03125 37.078125 57.828125 
Q 35.84375 58.640625 34.03125 61.296875 
Q 32.234375 63.96875 30.71875 64.890625 
Q 29.203125 65.828125 27.34375 65.828125 
Q 25.09375 65.828125 23.53125 64.625 
Q 21.96875 63.421875 21.28125 60.90625 
Q 20.609375 58.40625 20.609375 47.953125 
L 20.609375 44.734375 
L 32.125 44.734375 
L 32.125 41.21875 
z
" id="TimesNewRomanPSMT-102"/>
       <path d="M 50.875 -21.578125 
L -0.828125 -21.578125 
L -0.828125 -17.484375 
L 50.875 -17.484375 
z
" id="TimesNewRomanPSMT-95"/>
       <path d="M 10.640625 27.875 
Q 10.59375 17.921875 15.484375 12.25 
Q 20.359375 6.59375 26.953125 6.59375 
Q 31.34375 6.59375 34.59375 9 
Q 37.84375 11.421875 40.046875 17.28125 
L 41.546875 16.3125 
Q 40.53125 9.625 35.59375 4.125 
Q 30.671875 -1.375 23.25 -1.375 
Q 15.1875 -1.375 9.453125 4.90625 
Q 3.71875 11.1875 3.71875 21.78125 
Q 3.71875 33.25 9.59375 39.671875 
Q 15.484375 46.09375 24.359375 46.09375 
Q 31.890625 46.09375 36.71875 41.140625 
Q 41.546875 36.1875 41.546875 27.875 
z
M 10.640625 30.71875 
L 31.34375 30.71875 
Q 31.109375 35.015625 30.328125 36.765625 
Q 29.109375 39.5 26.6875 41.0625 
Q 24.265625 42.625 21.625 42.625 
Q 17.578125 42.625 14.375 39.46875 
Q 11.1875 36.328125 10.640625 30.71875 
z
" id="TimesNewRomanPSMT-101"/>
       <path d="M 0.828125 44.734375 
L 21.875 44.734375 
L 21.875 42.921875 
L 20.515625 42.921875 
Q 18.609375 42.921875 17.609375 41.984375 
Q 16.609375 41.0625 16.609375 39.5 
Q 16.609375 37.796875 17.625 35.453125 
L 28.03125 10.75 
L 38.484375 36.375 
Q 39.59375 39.109375 39.59375 40.53125 
Q 39.59375 41.21875 39.203125 41.65625 
Q 38.671875 42.390625 37.84375 42.65625 
Q 37.015625 42.921875 34.46875 42.921875 
L 34.46875 44.734375 
L 49.078125 44.734375 
L 49.078125 42.921875 
Q 46.53125 42.71875 45.5625 41.890625 
Q 43.84375 40.4375 42.484375 37.015625 
L 26.609375 -1.375 
L 24.609375 -1.375 
L 8.640625 36.375 
Q 7.5625 39.015625 6.578125 40.15625 
Q 5.609375 41.3125 4.109375 42.09375 
Q 3.265625 42.53125 0.828125 42.921875 
z
" id="TimesNewRomanPSMT-118"/>
       <path d="M 28.46875 6.453125 
Q 21.578125 1.125 19.828125 0.296875 
Q 17.1875 -0.921875 14.203125 -0.921875 
Q 9.578125 -0.921875 6.5625 2.25 
Q 3.5625 5.421875 3.5625 10.59375 
Q 3.5625 13.875 5.03125 16.265625 
Q 7.03125 19.578125 11.984375 22.5 
Q 16.9375 25.4375 28.46875 29.640625 
L 28.46875 31.390625 
Q 28.46875 38.09375 26.34375 40.578125 
Q 24.21875 43.0625 20.171875 43.0625 
Q 17.09375 43.0625 15.28125 41.40625 
Q 13.421875 39.75 13.421875 37.59375 
L 13.53125 34.765625 
Q 13.53125 32.515625 12.375 31.296875 
Q 11.234375 30.078125 9.375 30.078125 
Q 7.5625 30.078125 6.421875 31.34375 
Q 5.28125 32.625 5.28125 34.8125 
Q 5.28125 39.015625 9.578125 42.53125 
Q 13.875 46.046875 21.625 46.046875 
Q 27.59375 46.046875 31.390625 44.046875 
Q 34.28125 42.53125 35.640625 39.3125 
Q 36.53125 37.203125 36.53125 30.71875 
L 36.53125 15.53125 
Q 36.53125 9.125 36.765625 7.6875 
Q 37.015625 6.25 37.578125 5.765625 
Q 38.140625 5.28125 38.875 5.28125 
Q 39.65625 5.28125 40.234375 5.609375 
Q 41.265625 6.25 44.1875 9.1875 
L 44.1875 6.453125 
Q 38.71875 -0.875 33.734375 -0.875 
Q 31.34375 -0.875 29.921875 0.78125 
Q 28.515625 2.4375 28.46875 6.453125 
z
M 28.46875 9.625 
L 28.46875 26.65625 
Q 21.09375 23.734375 18.953125 22.515625 
Q 15.09375 20.359375 13.421875 18.015625 
Q 11.765625 15.671875 11.765625 12.890625 
Q 11.765625 9.375 13.859375 7.046875 
Q 15.96875 4.734375 18.703125 4.734375 
Q 22.40625 4.734375 28.46875 9.625 
z
" id="TimesNewRomanPSMT-97"/>
       <path d="M 18.5 69.4375 
L 18.5 10.109375 
Q 18.5 5.90625 19.109375 4.53125 
Q 19.734375 3.171875 21 2.46875 
Q 22.265625 1.765625 25.734375 1.765625 
L 25.734375 0 
L 3.8125 0 
L 3.8125 1.765625 
Q 6.890625 1.765625 8 2.390625 
Q 9.125 3.03125 9.765625 4.484375 
Q 10.40625 5.953125 10.40625 10.109375 
L 10.40625 50.734375 
Q 10.40625 58.296875 10.0625 60.03125 
Q 9.71875 61.765625 8.953125 62.390625 
Q 8.203125 63.03125 7.03125 63.03125 
Q 5.765625 63.03125 3.8125 62.25 
L 2.984375 63.96875 
L 16.3125 69.4375 
z
" id="TimesNewRomanPSMT-108"/>
       <path d="M 14.109375 46.09375 
Q 16.359375 46.09375 17.9375 44.5 
Q 19.53125 42.921875 19.53125 40.671875 
Q 19.53125 38.421875 17.9375 36.828125 
Q 16.359375 35.25 14.109375 35.25 
Q 11.859375 35.25 10.265625 36.828125 
Q 8.6875 38.421875 8.6875 40.671875 
Q 8.6875 42.921875 10.265625 44.5 
Q 11.859375 46.09375 14.109375 46.09375 
z
M 14.015625 9.515625 
Q 16.3125 9.515625 17.890625 7.90625 
Q 19.484375 6.296875 19.484375 4.046875 
Q 19.484375 1.8125 17.875 0.21875 
Q 16.265625 -1.375 14.015625 -1.375 
Q 11.765625 -1.375 10.171875 0.21875 
Q 8.59375 1.8125 8.59375 4.046875 
Q 8.59375 6.296875 10.171875 7.90625 
Q 11.765625 9.515625 14.015625 9.515625 
z
" id="TimesNewRomanPSMT-58"/>
      </defs>
      <use xlink:href="#TimesNewRomanPSMT-66"/>
      <use x="66.699219" xlink:href="#TimesNewRomanPSMT-79"/>
      <use x="138.916016" xlink:href="#TimesNewRomanPSMT-48"/>
      <use x="188.916016" xlink:href="#TimesNewRomanPSMT-59"/>
      <use x="216.699219" xlink:href="#TimesNewRomanPSMT-32"/>
      <use x="241.699219" xlink:href="#TimesNewRomanPSMT-35"/>
      <use x="291.699219" xlink:href="#TimesNewRomanPSMT-102"/>
      <use x="325" xlink:href="#TimesNewRomanPSMT-95"/>
      <use x="375" xlink:href="#TimesNewRomanPSMT-101"/>
      <use x="419.384766" xlink:href="#TimesNewRomanPSMT-118"/>
      <use x="469.384766" xlink:href="#TimesNewRomanPSMT-97"/>
      <use x="513.769531" xlink:href="#TimesNewRomanPSMT-108"/>
      <use x="541.552734" xlink:href="#TimesNewRomanPSMT-58"/>
      <use x="569.335938" xlink:href="#TimesNewRomanPSMT-32"/>
      <use x="594.335938" xlink:href="#TimesNewRomanPSMT-53"/>
      <use x="644.335938" xlink:href="#TimesNewRomanPSMT-48"/>
     </g>
    </g>
    <g id="line2d_31">
     <path d="M 255.757031 67.882266 
L 280.757031 67.882266 
" style="fill:none;stroke:#ff7f0e;stroke-dasharray:5.55,2.4;stroke-dashoffset:0;stroke-width:1.5;"/>
    </g>
    <g id="line2d_32"/>
    <g id="text_18">
     <!-- BO1; #f_eval: 50 -->
     <g transform="translate(290.757031 72.257266)scale(0.125 -0.125)">
      <use xlink:href="#TimesNewRomanPSMT-66"/>
      <use x="66.699219" xlink:href="#TimesNewRomanPSMT-79"/>
      <use x="138.916016" xlink:href="#TimesNewRomanPSMT-49"/>
      <use x="188.916016" xlink:href="#TimesNewRomanPSMT-59"/>
      <use x="216.699219" xlink:href="#TimesNewRomanPSMT-32"/>
      <use x="241.699219" xlink:href="#TimesNewRomanPSMT-35"/>
      <use x="291.699219" xlink:href="#TimesNewRomanPSMT-102"/>
      <use x="325" xlink:href="#TimesNewRomanPSMT-95"/>
      <use x="375" xlink:href="#TimesNewRomanPSMT-101"/>
      <use x="419.384766" xlink:href="#TimesNewRomanPSMT-118"/>
      <use x="469.384766" xlink:href="#TimesNewRomanPSMT-97"/>
      <use x="513.769531" xlink:href="#TimesNewRomanPSMT-108"/>
      <use x="541.552734" xlink:href="#TimesNewRomanPSMT-58"/>
      <use x="569.335938" xlink:href="#TimesNewRomanPSMT-32"/>
      <use x="594.335938" xlink:href="#TimesNewRomanPSMT-53"/>
      <use x="644.335938" xlink:href="#TimesNewRomanPSMT-48"/>
     </g>
    </g>
    <g id="line2d_33">
     <path d="M 255.757031 85.579531 
L 280.757031 85.579531 
" style="fill:none;stroke:#2ca02c;stroke-dasharray:5.55,2.4;stroke-dashoffset:0;stroke-width:1.5;"/>
    </g>
    <g id="line2d_34"/>
    <g id="text_19">
     <!-- BO2; #f_eval: 50 -->
     <g transform="translate(290.757031 89.954531)scale(0.125 -0.125)">
      <defs>
       <path d="M 45.84375 12.75 
L 41.21875 0 
L 2.15625 0 
L 2.15625 1.8125 
Q 19.390625 17.53125 26.421875 27.484375 
Q 33.453125 37.453125 33.453125 45.703125 
Q 33.453125 52 29.59375 56.046875 
Q 25.734375 60.109375 20.359375 60.109375 
Q 15.484375 60.109375 11.59375 57.25 
Q 7.71875 54.390625 5.859375 48.875 
L 4.046875 48.875 
Q 5.28125 57.90625 10.328125 62.734375 
Q 15.375 67.578125 22.953125 67.578125 
Q 31 67.578125 36.390625 62.40625 
Q 41.796875 57.234375 41.796875 50.203125 
Q 41.796875 45.171875 39.453125 40.140625 
Q 35.84375 32.234375 27.734375 23.390625 
Q 15.578125 10.109375 12.546875 7.375 
L 29.828125 7.375 
Q 35.109375 7.375 37.234375 7.765625 
Q 39.359375 8.15625 41.0625 9.34375 
Q 42.78125 10.546875 44.046875 12.75 
z
" id="TimesNewRomanPSMT-50"/>
      </defs>
      <use xlink:href="#TimesNewRomanPSMT-66"/>
      <use x="66.699219" xlink:href="#TimesNewRomanPSMT-79"/>
      <use x="138.916016" xlink:href="#TimesNewRomanPSMT-50"/>
      <use x="188.916016" xlink:href="#TimesNewRomanPSMT-59"/>
      <use x="216.699219" xlink:href="#TimesNewRomanPSMT-32"/>
      <use x="241.699219" xlink:href="#TimesNewRomanPSMT-35"/>
      <use x="291.699219" xlink:href="#TimesNewRomanPSMT-102"/>
      <use x="325" xlink:href="#TimesNewRomanPSMT-95"/>
      <use x="375" xlink:href="#TimesNewRomanPSMT-101"/>
      <use x="419.384766" xlink:href="#TimesNewRomanPSMT-118"/>
      <use x="469.384766" xlink:href="#TimesNewRomanPSMT-97"/>
      <use x="513.769531" xlink:href="#TimesNewRomanPSMT-108"/>
      <use x="541.552734" xlink:href="#TimesNewRomanPSMT-58"/>
      <use x="569.335938" xlink:href="#TimesNewRomanPSMT-32"/>
      <use x="594.335938" xlink:href="#TimesNewRomanPSMT-53"/>
      <use x="644.335938" xlink:href="#TimesNewRomanPSMT-48"/>
     </g>
    </g>
    <g id="line2d_35">
     <path d="M 255.757031 103.276797 
L 280.757031 103.276797 
" style="fill:none;stroke:#d62728;stroke-dasharray:5.55,2.4;stroke-dashoffset:0;stroke-width:1.5;"/>
    </g>
    <g id="line2d_36"/>
    <g id="text_20">
     <!-- BO3; #f_eval: 50 -->
     <g transform="translate(290.757031 107.651797)scale(0.125 -0.125)">
      <defs>
       <path d="M 5.078125 53.609375 
Q 7.90625 60.296875 12.21875 63.9375 
Q 16.546875 67.578125 23 67.578125 
Q 30.953125 67.578125 35.203125 62.40625 
Q 38.421875 58.546875 38.421875 54.15625 
Q 38.421875 46.921875 29.34375 39.203125 
Q 35.453125 36.8125 38.578125 32.375 
Q 41.703125 27.9375 41.703125 21.921875 
Q 41.703125 13.328125 36.234375 7.03125 
Q 29.109375 -1.171875 15.578125 -1.171875 
Q 8.890625 -1.171875 6.46875 0.484375 
Q 4.046875 2.15625 4.046875 4.046875 
Q 4.046875 5.46875 5.1875 6.546875 
Q 6.34375 7.625 7.953125 7.625 
Q 9.1875 7.625 10.453125 7.234375 
Q 11.28125 6.984375 14.203125 5.4375 
Q 17.140625 3.90625 18.265625 3.609375 
Q 20.0625 3.078125 22.125 3.078125 
Q 27.09375 3.078125 30.78125 6.9375 
Q 34.46875 10.796875 34.46875 16.0625 
Q 34.46875 19.921875 32.765625 23.578125 
Q 31.5 26.3125 29.984375 27.734375 
Q 27.875 29.6875 24.21875 31.265625 
Q 20.5625 32.859375 16.75 32.859375 
L 15.1875 32.859375 
L 15.1875 34.328125 
Q 19.046875 34.8125 22.921875 37.109375 
Q 26.8125 39.40625 28.5625 42.625 
Q 30.328125 45.84375 30.328125 49.703125 
Q 30.328125 54.734375 27.171875 57.828125 
Q 24.03125 60.9375 19.34375 60.9375 
Q 11.765625 60.9375 6.6875 52.828125 
z
" id="TimesNewRomanPSMT-51"/>
      </defs>
      <use xlink:href="#TimesNewRomanPSMT-66"/>
      <use x="66.699219" xlink:href="#TimesNewRomanPSMT-79"/>
      <use x="138.916016" xlink:href="#TimesNewRomanPSMT-51"/>
      <use x="188.916016" xlink:href="#TimesNewRomanPSMT-59"/>
      <use x="216.699219" xlink:href="#TimesNewRomanPSMT-32"/>
      <use x="241.699219" xlink:href="#TimesNewRomanPSMT-35"/>
      <use x="291.699219" xlink:href="#TimesNewRomanPSMT-102"/>
      <use x="325" xlink:href="#TimesNewRomanPSMT-95"/>
      <use x="375" xlink:href="#TimesNewRomanPSMT-101"/>
      <use x="419.384766" xlink:href="#TimesNewRomanPSMT-118"/>
      <use x="469.384766" xlink:href="#TimesNewRomanPSMT-97"/>
      <use x="513.769531" xlink:href="#TimesNewRomanPSMT-108"/>
      <use x="541.552734" xlink:href="#TimesNewRomanPSMT-58"/>
      <use x="569.335938" xlink:href="#TimesNewRomanPSMT-32"/>
      <use x="594.335938" xlink:href="#TimesNewRomanPSMT-53"/>
      <use x="644.335938" xlink:href="#TimesNewRomanPSMT-48"/>
     </g>
    </g>
    <g id="line2d_37">
     <path d="M 255.757031 120.974063 
L 280.757031 120.974063 
" style="fill:none;stroke:#9467bd;stroke-dasharray:5.55,2.4;stroke-dashoffset:0;stroke-width:1.5;"/>
    </g>
    <g id="line2d_38"/>
    <g id="text_21">
     <!-- BO4; #f_eval: 50 -->
     <g transform="translate(290.757031 125.349063)scale(0.125 -0.125)">
      <defs>
       <path d="M 46.53125 24.421875 
L 46.53125 17.484375 
L 37.640625 17.484375 
L 37.640625 0 
L 29.59375 0 
L 29.59375 17.484375 
L 1.5625 17.484375 
L 1.5625 23.734375 
L 32.28125 67.578125 
L 37.640625 67.578125 
L 37.640625 24.421875 
z
M 29.59375 24.421875 
L 29.59375 57.28125 
L 6.34375 24.421875 
z
" id="TimesNewRomanPSMT-52"/>
      </defs>
      <use xlink:href="#TimesNewRomanPSMT-66"/>
      <use x="66.699219" xlink:href="#TimesNewRomanPSMT-79"/>
      <use x="138.916016" xlink:href="#TimesNewRomanPSMT-52"/>
      <use x="188.916016" xlink:href="#TimesNewRomanPSMT-59"/>
      <use x="216.699219" xlink:href="#TimesNewRomanPSMT-32"/>
      <use x="241.699219" xlink:href="#TimesNewRomanPSMT-35"/>
      <use x="291.699219" xlink:href="#TimesNewRomanPSMT-102"/>
      <use x="325" xlink:href="#TimesNewRomanPSMT-95"/>
      <use x="375" xlink:href="#TimesNewRomanPSMT-101"/>
      <use x="419.384766" xlink:href="#TimesNewRomanPSMT-118"/>
      <use x="469.384766" xlink:href="#TimesNewRomanPSMT-97"/>
      <use x="513.769531" xlink:href="#TimesNewRomanPSMT-108"/>
      <use x="541.552734" xlink:href="#TimesNewRomanPSMT-58"/>
      <use x="569.335938" xlink:href="#TimesNewRomanPSMT-32"/>
      <use x="594.335938" xlink:href="#TimesNewRomanPSMT-53"/>
      <use x="644.335938" xlink:href="#TimesNewRomanPSMT-48"/>
     </g>
    </g>
    <g id="line2d_39">
     <path d="M 255.757031 138.671328 
L 280.757031 138.671328 
" style="fill:none;stroke:#8c564b;stroke-dasharray:5.55,2.4;stroke-dashoffset:0;stroke-width:1.5;"/>
    </g>
    <g id="line2d_40"/>
    <g id="text_22">
     <!-- BO5; #f_eval: 50 -->
     <g transform="translate(290.757031 143.046328)scale(0.125 -0.125)">
      <use xlink:href="#TimesNewRomanPSMT-66"/>
      <use x="66.699219" xlink:href="#TimesNewRomanPSMT-79"/>
      <use x="138.916016" xlink:href="#TimesNewRomanPSMT-53"/>
      <use x="188.916016" xlink:href="#TimesNewRomanPSMT-59"/>
      <use x="216.699219" xlink:href="#TimesNewRomanPSMT-32"/>
      <use x="241.699219" xlink:href="#TimesNewRomanPSMT-35"/>
      <use x="291.699219" xlink:href="#TimesNewRomanPSMT-102"/>
      <use x="325" xlink:href="#TimesNewRomanPSMT-95"/>
      <use x="375" xlink:href="#TimesNewRomanPSMT-101"/>
      <use x="419.384766" xlink:href="#TimesNewRomanPSMT-118"/>
      <use x="469.384766" xlink:href="#TimesNewRomanPSMT-97"/>
      <use x="513.769531" xlink:href="#TimesNewRomanPSMT-108"/>
      <use x="541.552734" xlink:href="#TimesNewRomanPSMT-58"/>
      <use x="569.335938" xlink:href="#TimesNewRomanPSMT-32"/>
      <use x="594.335938" xlink:href="#TimesNewRomanPSMT-53"/>
      <use x="644.335938" xlink:href="#TimesNewRomanPSMT-48"/>
     </g>
    </g>
    <g id="line2d_41">
     <path d="M 255.757031 156.368594 
L 280.757031 156.368594 
" style="fill:none;stroke:#e377c2;stroke-dasharray:5.55,2.4;stroke-dashoffset:0;stroke-width:1.5;"/>
    </g>
    <g id="line2d_42"/>
    <g id="text_23">
     <!-- BO6; #f_eval: 50 -->
     <g transform="translate(290.757031 160.743594)scale(0.125 -0.125)">
      <defs>
       <path d="M 44.828125 67.578125 
L 44.828125 65.765625 
Q 38.375 65.140625 34.296875 63.203125 
Q 30.21875 61.28125 26.234375 57.328125 
Q 22.265625 53.375 19.65625 48.515625 
Q 17.046875 43.65625 15.28125 36.96875 
Q 22.3125 41.796875 29.390625 41.796875 
Q 36.1875 41.796875 41.15625 36.328125 
Q 46.140625 30.859375 46.140625 22.265625 
Q 46.140625 13.96875 41.109375 7.125 
Q 35.0625 -1.171875 25.09375 -1.171875 
Q 18.3125 -1.171875 13.578125 3.328125 
Q 4.296875 12.0625 4.296875 25.984375 
Q 4.296875 34.859375 7.859375 42.859375 
Q 11.421875 50.875 18.03125 57.078125 
Q 24.65625 63.28125 30.703125 65.421875 
Q 36.765625 67.578125 42 67.578125 
z
M 14.453125 33.40625 
Q 13.578125 26.8125 13.578125 22.75 
Q 13.578125 18.0625 15.3125 12.5625 
Q 17.046875 7.078125 20.453125 3.859375 
Q 22.953125 1.5625 26.515625 1.5625 
Q 30.765625 1.5625 34.109375 5.5625 
Q 37.453125 9.578125 37.453125 17 
Q 37.453125 25.34375 34.125 31.4375 
Q 30.8125 37.546875 24.703125 37.546875 
Q 22.859375 37.546875 20.734375 36.765625 
Q 18.609375 35.984375 14.453125 33.40625 
z
" id="TimesNewRomanPSMT-54"/>
      </defs>
      <use xlink:href="#TimesNewRomanPSMT-66"/>
      <use x="66.699219" xlink:href="#TimesNewRomanPSMT-79"/>
      <use x="138.916016" xlink:href="#TimesNewRomanPSMT-54"/>
      <use x="188.916016" xlink:href="#TimesNewRomanPSMT-59"/>
      <use x="216.699219" xlink:href="#TimesNewRomanPSMT-32"/>
      <use x="241.699219" xlink:href="#TimesNewRomanPSMT-35"/>
      <use x="291.699219" xlink:href="#TimesNewRomanPSMT-102"/>
      <use x="325" xlink:href="#TimesNewRomanPSMT-95"/>
      <use x="375" xlink:href="#TimesNewRomanPSMT-101"/>
      <use x="419.384766" xlink:href="#TimesNewRomanPSMT-118"/>
      <use x="469.384766" xlink:href="#TimesNewRomanPSMT-97"/>
      <use x="513.769531" xlink:href="#TimesNewRomanPSMT-108"/>
      <use x="541.552734" xlink:href="#TimesNewRomanPSMT-58"/>
      <use x="569.335938" xlink:href="#TimesNewRomanPSMT-32"/>
      <use x="594.335938" xlink:href="#TimesNewRomanPSMT-53"/>
      <use x="644.335938" xlink:href="#TimesNewRomanPSMT-48"/>
     </g>
    </g>
    <g id="line2d_43">
     <path d="M 255.757031 174.065859 
L 280.757031 174.065859 
" style="fill:none;stroke:#7f7f7f;stroke-dasharray:5.55,2.4;stroke-dashoffset:0;stroke-width:1.5;"/>
    </g>
    <g id="line2d_44"/>
    <g id="text_24">
     <!-- BO7; #f_eval: 50 -->
     <g transform="translate(290.757031 178.440859)scale(0.125 -0.125)">
      <defs>
       <path d="M 10.0625 66.21875 
L 45.5625 66.21875 
L 45.5625 64.359375 
L 23.484375 -1.375 
L 18.015625 -1.375 
L 37.796875 58.25 
L 19.578125 58.25 
Q 14.0625 58.25 11.71875 56.9375 
Q 7.625 54.6875 5.125 50 
L 3.71875 50.53125 
z
" id="TimesNewRomanPSMT-55"/>
      </defs>
      <use xlink:href="#TimesNewRomanPSMT-66"/>
      <use x="66.699219" xlink:href="#TimesNewRomanPSMT-79"/>
      <use x="138.916016" xlink:href="#TimesNewRomanPSMT-55"/>
      <use x="188.916016" xlink:href="#TimesNewRomanPSMT-59"/>
      <use x="216.699219" xlink:href="#TimesNewRomanPSMT-32"/>
      <use x="241.699219" xlink:href="#TimesNewRomanPSMT-35"/>
      <use x="291.699219" xlink:href="#TimesNewRomanPSMT-102"/>
      <use x="325" xlink:href="#TimesNewRomanPSMT-95"/>
      <use x="375" xlink:href="#TimesNewRomanPSMT-101"/>
      <use x="419.384766" xlink:href="#TimesNewRomanPSMT-118"/>
      <use x="469.384766" xlink:href="#TimesNewRomanPSMT-97"/>
      <use x="513.769531" xlink:href="#TimesNewRomanPSMT-108"/>
      <use x="541.552734" xlink:href="#TimesNewRomanPSMT-58"/>
      <use x="569.335938" xlink:href="#TimesNewRomanPSMT-32"/>
      <use x="594.335938" xlink:href="#TimesNewRomanPSMT-53"/>
      <use x="644.335938" xlink:href="#TimesNewRomanPSMT-48"/>
     </g>
    </g>
    <g id="line2d_45">
     <path d="M 255.757031 191.763125 
L 280.757031 191.763125 
" style="fill:none;stroke:#bcbd22;stroke-dasharray:5.55,2.4;stroke-dashoffset:0;stroke-width:1.5;"/>
    </g>
    <g id="line2d_46"/>
    <g id="text_25">
     <!-- BO8; #f_eval: 50 -->
     <g transform="translate(290.757031 196.138125)scale(0.125 -0.125)">
      <defs>
       <path d="M 19.1875 33.34375 
Q 11.328125 39.796875 9.046875 43.703125 
Q 6.78125 47.609375 6.78125 51.8125 
Q 6.78125 58.25 11.765625 62.90625 
Q 16.75 67.578125 25 67.578125 
Q 33.015625 67.578125 37.890625 63.234375 
Q 42.78125 58.890625 42.78125 53.328125 
Q 42.78125 49.609375 40.140625 45.75 
Q 37.5 41.890625 29.15625 36.671875 
Q 37.75 30.03125 40.53125 26.21875 
Q 44.234375 21.234375 44.234375 15.71875 
Q 44.234375 8.734375 38.90625 3.78125 
Q 33.59375 -1.171875 24.953125 -1.171875 
Q 15.53125 -1.171875 10.25 4.734375 
Q 6.0625 9.46875 6.0625 15.09375 
Q 6.0625 19.484375 9.015625 23.796875 
Q 11.96875 28.125 19.1875 33.34375 
z
M 26.859375 38.578125 
Q 32.71875 43.84375 34.28125 46.890625 
Q 35.84375 49.953125 35.84375 53.8125 
Q 35.84375 58.9375 32.953125 61.84375 
Q 30.078125 64.75 25.09375 64.75 
Q 20.125 64.75 17 61.859375 
Q 13.875 58.984375 13.875 55.125 
Q 13.875 52.59375 15.15625 50.046875 
Q 16.453125 47.515625 18.84375 45.21875 
z
M 21.484375 31.5 
Q 17.4375 28.078125 15.484375 24.046875 
Q 13.53125 20.015625 13.53125 15.328125 
Q 13.53125 9.03125 16.96875 5.25 
Q 20.40625 1.46875 25.734375 1.46875 
Q 31 1.46875 34.171875 4.4375 
Q 37.359375 7.421875 37.359375 11.671875 
Q 37.359375 15.1875 35.5 17.96875 
Q 32.03125 23.140625 21.484375 31.5 
z
" id="TimesNewRomanPSMT-56"/>
      </defs>
      <use xlink:href="#TimesNewRomanPSMT-66"/>
      <use x="66.699219" xlink:href="#TimesNewRomanPSMT-79"/>
      <use x="138.916016" xlink:href="#TimesNewRomanPSMT-56"/>
      <use x="188.916016" xlink:href="#TimesNewRomanPSMT-59"/>
      <use x="216.699219" xlink:href="#TimesNewRomanPSMT-32"/>
      <use x="241.699219" xlink:href="#TimesNewRomanPSMT-35"/>
      <use x="291.699219" xlink:href="#TimesNewRomanPSMT-102"/>
      <use x="325" xlink:href="#TimesNewRomanPSMT-95"/>
      <use x="375" xlink:href="#TimesNewRomanPSMT-101"/>
      <use x="419.384766" xlink:href="#TimesNewRomanPSMT-118"/>
      <use x="469.384766" xlink:href="#TimesNewRomanPSMT-97"/>
      <use x="513.769531" xlink:href="#TimesNewRomanPSMT-108"/>
      <use x="541.552734" xlink:href="#TimesNewRomanPSMT-58"/>
      <use x="569.335938" xlink:href="#TimesNewRomanPSMT-32"/>
      <use x="594.335938" xlink:href="#TimesNewRomanPSMT-53"/>
      <use x="644.335938" xlink:href="#TimesNewRomanPSMT-48"/>
     </g>
    </g>
    <g id="line2d_47">
     <path d="M 255.757031 209.460391 
L 280.757031 209.460391 
" style="fill:none;stroke:#17becf;stroke-dasharray:5.55,2.4;stroke-dashoffset:0;stroke-width:1.5;"/>
    </g>
    <g id="line2d_48"/>
    <g id="text_26">
     <!-- BO9; #f_eval: 50 -->
     <g transform="translate(290.757031 213.835391)scale(0.125 -0.125)">
      <defs>
       <path d="M 5.28125 -1.375 
L 5.28125 0.4375 
Q 11.625 0.53125 17.09375 3.390625 
Q 22.5625 6.25 27.65625 13.375 
Q 32.765625 20.515625 34.765625 29.046875 
Q 27.09375 24.125 20.90625 24.125 
Q 13.921875 24.125 8.9375 29.515625 
Q 3.953125 34.90625 3.953125 43.84375 
Q 3.953125 52.546875 8.9375 59.328125 
Q 14.9375 67.578125 24.609375 67.578125 
Q 32.765625 67.578125 38.578125 60.84375 
Q 45.703125 52.484375 45.703125 40.234375 
Q 45.703125 29.203125 40.28125 19.65625 
Q 34.859375 10.109375 25.203125 3.8125 
Q 17.328125 -1.375 8.0625 -1.375 
z
M 35.546875 32.671875 
Q 36.421875 39.015625 36.421875 42.828125 
Q 36.421875 47.5625 34.8125 53.046875 
Q 33.203125 58.546875 30.25 61.46875 
Q 27.296875 64.40625 23.53125 64.40625 
Q 19.1875 64.40625 15.90625 60.5 
Q 12.640625 56.59375 12.640625 48.875 
Q 12.640625 38.578125 17 32.765625 
Q 20.171875 28.5625 24.8125 28.5625 
Q 27.046875 28.5625 30.125 29.640625 
Q 33.203125 30.71875 35.546875 32.671875 
z
" id="TimesNewRomanPSMT-57"/>
      </defs>
      <use xlink:href="#TimesNewRomanPSMT-66"/>
      <use x="66.699219" xlink:href="#TimesNewRomanPSMT-79"/>
      <use x="138.916016" xlink:href="#TimesNewRomanPSMT-57"/>
      <use x="188.916016" xlink:href="#TimesNewRomanPSMT-59"/>
      <use x="216.699219" xlink:href="#TimesNewRomanPSMT-32"/>
      <use x="241.699219" xlink:href="#TimesNewRomanPSMT-35"/>
      <use x="291.699219" xlink:href="#TimesNewRomanPSMT-102"/>
      <use x="325" xlink:href="#TimesNewRomanPSMT-95"/>
      <use x="375" xlink:href="#TimesNewRomanPSMT-101"/>
      <use x="419.384766" xlink:href="#TimesNewRomanPSMT-118"/>
      <use x="469.384766" xlink:href="#TimesNewRomanPSMT-97"/>
      <use x="513.769531" xlink:href="#TimesNewRomanPSMT-108"/>
      <use x="541.552734" xlink:href="#TimesNewRomanPSMT-58"/>
      <use x="569.335938" xlink:href="#TimesNewRomanPSMT-32"/>
      <use x="594.335938" xlink:href="#TimesNewRomanPSMT-53"/>
      <use x="644.335938" xlink:href="#TimesNewRomanPSMT-48"/>
     </g>
    </g>
   </g>
  </g>
 </g>
 <defs>
  <clipPath id="p8e34559b3b">
   <rect height="217.44" width="334.8" x="54" y="34.56"/>
  </clipPath>
 </defs>
</svg>
