<?xml version="1.0" encoding="utf-8" standalone="no"?>
<!DOCTYPE svg PUBLIC "-//W3C//DTD SVG 1.1//EN"
  "http://www.w3.org/Graphics/SVG/1.1/DTD/svg11.dtd">
<!-- Created with matplotlib (https://matplotlib.org/) -->
<svg height="288pt" version="1.1" viewBox="0 0 432 288" width="432pt" xmlns="http://www.w3.org/2000/svg" xmlns:xlink="http://www.w3.org/1999/xlink">
 <metadata>
  <rdf:RDF xmlns:cc="http://creativecommons.org/ns#" xmlns:dc="http://purl.org/dc/elements/1.1/" xmlns:rdf="http://www.w3.org/1999/02/22-rdf-syntax-ns#">
   <cc:Work>
    <dc:type rdf:resource="http://purl.org/dc/dcmitype/StillImage"/>
    <dc:date>2021-04-19T20:37:04.394141</dc:date>
    <dc:format>image/svg+xml</dc:format>
    <dc:creator>
     <cc:Agent>
      <dc:title>Matplotlib v3.3.4, https://matplotlib.org/</dc:title>
     </cc:Agent>
    </dc:creator>
   </cc:Work>
  </rdf:RDF>
 </metadata>
 <defs>
  <style type="text/css">*{stroke-linecap:butt;stroke-linejoin:round;}</style>
 </defs>
 <g id="figure_1">
  <g id="patch_1">
   <path d="M 0 288 
L 432 288 
L 432 0 
L 0 0 
z
" style="fill:#ffffff;"/>
  </g>
  <g id="axes_1">
   <g id="patch_2">
    <path d="M 54 252 
L 388.8 252 
L 388.8 34.56 
L 54 34.56 
z
" style="fill:#ffffff;"/>
   </g>
   <g id="matplotlib.axis_1">
    <g id="xtick_1">
     <g id="line2d_1">
      <defs>
       <path d="M 0 0 
L 0 3.5 
" id="mb8e23ff6fd" style="stroke:#000000;stroke-width:0.8;"/>
      </defs>
      <g>
       <use style="stroke:#000000;stroke-width:0.8;" x="63.006679" xlink:href="#mb8e23ff6fd" y="252"/>
      </g>
     </g>
     <g id="text_1">
      <!-- 0 -->
      <g transform="translate(59.256679 269.415625)scale(0.15 -0.15)">
       <defs>
        <path d="M 3.609375 32.71875 
Q 3.609375 44.046875 7.03125 52.21875 
Q 10.453125 60.40625 16.109375 64.40625 
Q 20.515625 67.578125 25.203125 67.578125 
Q 32.8125 67.578125 38.875 59.8125 
Q 46.4375 50.203125 46.4375 33.734375 
Q 46.4375 22.21875 43.109375 14.15625 
Q 39.796875 6.109375 34.640625 2.46875 
Q 29.5 -1.171875 24.703125 -1.171875 
Q 15.234375 -1.171875 8.9375 10.015625 
Q 3.609375 19.4375 3.609375 32.71875 
z
M 13.1875 31.5 
Q 13.1875 17.828125 16.546875 9.1875 
Q 19.34375 1.90625 24.859375 1.90625 
Q 27.484375 1.90625 30.3125 4.265625 
Q 33.15625 6.640625 34.625 12.203125 
Q 36.859375 20.609375 36.859375 35.890625 
Q 36.859375 47.21875 34.515625 54.78125 
Q 32.765625 60.40625 29.984375 62.75 
Q 27.984375 64.359375 25.140625 64.359375 
Q 21.828125 64.359375 19.234375 61.375 
Q 15.71875 57.328125 14.453125 48.625 
Q 13.1875 39.9375 13.1875 31.5 
z
" id="TimesNewRomanPSMT-48"/>
       </defs>
       <use xlink:href="#TimesNewRomanPSMT-48"/>
      </g>
     </g>
    </g>
    <g id="xtick_2">
     <g id="line2d_2">
      <g>
       <use style="stroke:#000000;stroke-width:0.8;" x="125.121707" xlink:href="#mb8e23ff6fd" y="252"/>
      </g>
     </g>
     <g id="text_2">
      <!-- 20 -->
      <g transform="translate(117.621707 269.415625)scale(0.15 -0.15)">
       <defs>
        <path d="M 45.84375 12.75 
L 41.21875 0 
L 2.15625 0 
L 2.15625 1.8125 
Q 19.390625 17.53125 26.421875 27.484375 
Q 33.453125 37.453125 33.453125 45.703125 
Q 33.453125 52 29.59375 56.046875 
Q 25.734375 60.109375 20.359375 60.109375 
Q 15.484375 60.109375 11.59375 57.25 
Q 7.71875 54.390625 5.859375 48.875 
L 4.046875 48.875 
Q 5.28125 57.90625 10.328125 62.734375 
Q 15.375 67.578125 22.953125 67.578125 
Q 31 67.578125 36.390625 62.40625 
Q 41.796875 57.234375 41.796875 50.203125 
Q 41.796875 45.171875 39.453125 40.140625 
Q 35.84375 32.234375 27.734375 23.390625 
Q 15.578125 10.109375 12.546875 7.375 
L 29.828125 7.375 
Q 35.109375 7.375 37.234375 7.765625 
Q 39.359375 8.15625 41.0625 9.34375 
Q 42.78125 10.546875 44.046875 12.75 
z
" id="TimesNewRomanPSMT-50"/>
       </defs>
       <use xlink:href="#TimesNewRomanPSMT-50"/>
       <use x="50" xlink:href="#TimesNewRomanPSMT-48"/>
      </g>
     </g>
    </g>
    <g id="xtick_3">
     <g id="line2d_3">
      <g>
       <use style="stroke:#000000;stroke-width:0.8;" x="187.236735" xlink:href="#mb8e23ff6fd" y="252"/>
      </g>
     </g>
     <g id="text_3">
      <!-- 40 -->
      <g transform="translate(179.736735 269.415625)scale(0.15 -0.15)">
       <defs>
        <path d="M 46.53125 24.421875 
L 46.53125 17.484375 
L 37.640625 17.484375 
L 37.640625 0 
L 29.59375 0 
L 29.59375 17.484375 
L 1.5625 17.484375 
L 1.5625 23.734375 
L 32.28125 67.578125 
L 37.640625 67.578125 
L 37.640625 24.421875 
z
M 29.59375 24.421875 
L 29.59375 57.28125 
L 6.34375 24.421875 
z
" id="TimesNewRomanPSMT-52"/>
       </defs>
       <use xlink:href="#TimesNewRomanPSMT-52"/>
       <use x="50" xlink:href="#TimesNewRomanPSMT-48"/>
      </g>
     </g>
    </g>
    <g id="xtick_4">
     <g id="line2d_4">
      <g>
       <use style="stroke:#000000;stroke-width:0.8;" x="249.351763" xlink:href="#mb8e23ff6fd" y="252"/>
      </g>
     </g>
     <g id="text_4">
      <!-- 60 -->
      <g transform="translate(241.851763 269.415625)scale(0.15 -0.15)">
       <defs>
        <path d="M 44.828125 67.578125 
L 44.828125 65.765625 
Q 38.375 65.140625 34.296875 63.203125 
Q 30.21875 61.28125 26.234375 57.328125 
Q 22.265625 53.375 19.65625 48.515625 
Q 17.046875 43.65625 15.28125 36.96875 
Q 22.3125 41.796875 29.390625 41.796875 
Q 36.1875 41.796875 41.15625 36.328125 
Q 46.140625 30.859375 46.140625 22.265625 
Q 46.140625 13.96875 41.109375 7.125 
Q 35.0625 -1.171875 25.09375 -1.171875 
Q 18.3125 -1.171875 13.578125 3.328125 
Q 4.296875 12.0625 4.296875 25.984375 
Q 4.296875 34.859375 7.859375 42.859375 
Q 11.421875 50.875 18.03125 57.078125 
Q 24.65625 63.28125 30.703125 65.421875 
Q 36.765625 67.578125 42 67.578125 
z
M 14.453125 33.40625 
Q 13.578125 26.8125 13.578125 22.75 
Q 13.578125 18.0625 15.3125 12.5625 
Q 17.046875 7.078125 20.453125 3.859375 
Q 22.953125 1.5625 26.515625 1.5625 
Q 30.765625 1.5625 34.109375 5.5625 
Q 37.453125 9.578125 37.453125 17 
Q 37.453125 25.34375 34.125 31.4375 
Q 30.8125 37.546875 24.703125 37.546875 
Q 22.859375 37.546875 20.734375 36.765625 
Q 18.609375 35.984375 14.453125 33.40625 
z
" id="TimesNewRomanPSMT-54"/>
       </defs>
       <use xlink:href="#TimesNewRomanPSMT-54"/>
       <use x="50" xlink:href="#TimesNewRomanPSMT-48"/>
      </g>
     </g>
    </g>
    <g id="xtick_5">
     <g id="line2d_5">
      <g>
       <use style="stroke:#000000;stroke-width:0.8;" x="311.46679" xlink:href="#mb8e23ff6fd" y="252"/>
      </g>
     </g>
     <g id="text_5">
      <!-- 80 -->
      <g transform="translate(303.96679 269.415625)scale(0.15 -0.15)">
       <defs>
        <path d="M 19.1875 33.34375 
Q 11.328125 39.796875 9.046875 43.703125 
Q 6.78125 47.609375 6.78125 51.8125 
Q 6.78125 58.25 11.765625 62.90625 
Q 16.75 67.578125 25 67.578125 
Q 33.015625 67.578125 37.890625 63.234375 
Q 42.78125 58.890625 42.78125 53.328125 
Q 42.78125 49.609375 40.140625 45.75 
Q 37.5 41.890625 29.15625 36.671875 
Q 37.75 30.03125 40.53125 26.21875 
Q 44.234375 21.234375 44.234375 15.71875 
Q 44.234375 8.734375 38.90625 3.78125 
Q 33.59375 -1.171875 24.953125 -1.171875 
Q 15.53125 -1.171875 10.25 4.734375 
Q 6.0625 9.46875 6.0625 15.09375 
Q 6.0625 19.484375 9.015625 23.796875 
Q 11.96875 28.125 19.1875 33.34375 
z
M 26.859375 38.578125 
Q 32.71875 43.84375 34.28125 46.890625 
Q 35.84375 49.953125 35.84375 53.8125 
Q 35.84375 58.9375 32.953125 61.84375 
Q 30.078125 64.75 25.09375 64.75 
Q 20.125 64.75 17 61.859375 
Q 13.875 58.984375 13.875 55.125 
Q 13.875 52.59375 15.15625 50.046875 
Q 16.453125 47.515625 18.84375 45.21875 
z
M 21.484375 31.5 
Q 17.4375 28.078125 15.484375 24.046875 
Q 13.53125 20.015625 13.53125 15.328125 
Q 13.53125 9.03125 16.96875 5.25 
Q 20.40625 1.46875 25.734375 1.46875 
Q 31 1.46875 34.171875 4.4375 
Q 37.359375 7.421875 37.359375 11.671875 
Q 37.359375 15.1875 35.5 17.96875 
Q 32.03125 23.140625 21.484375 31.5 
z
" id="TimesNewRomanPSMT-56"/>
       </defs>
       <use xlink:href="#TimesNewRomanPSMT-56"/>
       <use x="50" xlink:href="#TimesNewRomanPSMT-48"/>
      </g>
     </g>
    </g>
    <g id="xtick_6">
     <g id="line2d_6">
      <g>
       <use style="stroke:#000000;stroke-width:0.8;" x="373.581818" xlink:href="#mb8e23ff6fd" y="252"/>
      </g>
     </g>
     <g id="text_6">
      <!-- 100 -->
      <g transform="translate(362.331818 269.415625)scale(0.15 -0.15)">
       <defs>
        <path d="M 11.71875 59.71875 
L 27.828125 67.578125 
L 29.4375 67.578125 
L 29.4375 11.671875 
Q 29.4375 6.109375 29.90625 4.734375 
Q 30.375 3.375 31.828125 2.640625 
Q 33.296875 1.90625 37.796875 1.8125 
L 37.796875 0 
L 12.890625 0 
L 12.890625 1.8125 
Q 17.578125 1.90625 18.9375 2.609375 
Q 20.3125 3.328125 20.84375 4.515625 
Q 21.390625 5.71875 21.390625 11.671875 
L 21.390625 47.40625 
Q 21.390625 54.640625 20.90625 56.6875 
Q 20.5625 58.25 19.65625 58.984375 
Q 18.75 59.71875 17.484375 59.71875 
Q 15.671875 59.71875 12.453125 58.203125 
z
" id="TimesNewRomanPSMT-49"/>
       </defs>
       <use xlink:href="#TimesNewRomanPSMT-49"/>
       <use x="50" xlink:href="#TimesNewRomanPSMT-48"/>
       <use x="100" xlink:href="#TimesNewRomanPSMT-48"/>
      </g>
     </g>
    </g>
    <g id="text_7">
     <!-- Nbr. of function evaluations -->
     <g transform="translate(137.25 287.039844)scale(0.15 -0.15)">
      <defs>
       <path d="M -1.3125 66.21875 
L 16.65625 66.21875 
L 57.125 16.546875 
L 57.125 54.734375 
Q 57.125 60.84375 55.765625 62.359375 
Q 53.953125 64.40625 50.046875 64.40625 
L 47.75 64.40625 
L 47.75 66.21875 
L 70.796875 66.21875 
L 70.796875 64.40625 
L 68.453125 64.40625 
Q 64.265625 64.40625 62.5 61.859375 
Q 61.421875 60.296875 61.421875 54.734375 
L 61.421875 -1.078125 
L 59.671875 -1.078125 
L 16.015625 52.25 
L 16.015625 11.46875 
Q 16.015625 5.375 17.328125 3.859375 
Q 19.1875 1.8125 23.046875 1.8125 
L 25.390625 1.8125 
L 25.390625 0 
L 2.34375 0 
L 2.34375 1.8125 
L 4.640625 1.8125 
Q 8.890625 1.8125 10.640625 4.34375 
Q 11.71875 5.90625 11.71875 11.46875 
L 11.71875 57.515625 
Q 8.84375 60.890625 7.34375 61.953125 
Q 5.859375 63.03125 2.984375 63.96875 
Q 1.5625 64.40625 -1.3125 64.40625 
z
" id="TimesNewRomanPSMT-78"/>
       <path d="M 15.375 37.015625 
Q 21.875 46.046875 29.390625 46.046875 
Q 36.28125 46.046875 41.40625 40.15625 
Q 46.53125 34.28125 46.53125 24.078125 
Q 46.53125 12.15625 38.625 4.890625 
Q 31.84375 -1.375 23.484375 -1.375 
Q 19.578125 -1.375 15.546875 0.046875 
Q 11.53125 1.46875 7.328125 4.296875 
L 7.328125 50.640625 
Q 7.328125 58.25 6.953125 60 
Q 6.59375 61.765625 5.8125 62.390625 
Q 5.03125 63.03125 3.859375 63.03125 
Q 2.484375 63.03125 0.4375 62.25 
L -0.25 63.96875 
L 13.1875 69.4375 
L 15.375 69.4375 
z
M 15.375 33.890625 
L 15.375 7.125 
Q 17.875 4.6875 20.53125 3.4375 
Q 23.1875 2.203125 25.984375 2.203125 
Q 30.421875 2.203125 34.25 7.078125 
Q 38.09375 11.96875 38.09375 21.296875 
Q 38.09375 29.890625 34.25 34.5 
Q 30.421875 39.109375 25.53125 39.109375 
Q 22.953125 39.109375 20.359375 37.796875 
Q 18.40625 36.8125 15.375 33.890625 
z
" id="TimesNewRomanPSMT-98"/>
       <path d="M 16.21875 46.046875 
L 16.21875 35.984375 
Q 21.828125 46.046875 27.734375 46.046875 
Q 30.421875 46.046875 32.171875 44.40625 
Q 33.9375 42.78125 33.9375 40.625 
Q 33.9375 38.71875 32.65625 37.390625 
Q 31.390625 36.078125 29.640625 36.078125 
Q 27.9375 36.078125 25.8125 37.765625 
Q 23.6875 39.453125 22.65625 39.453125 
Q 21.78125 39.453125 20.75 38.484375 
Q 18.5625 36.46875 16.21875 31.890625 
L 16.21875 10.453125 
Q 16.21875 6.734375 17.140625 4.828125 
Q 17.78125 3.515625 19.390625 2.640625 
Q 21 1.765625 24.03125 1.765625 
L 24.03125 0 
L 1.125 0 
L 1.125 1.765625 
Q 4.546875 1.765625 6.203125 2.828125 
Q 7.421875 3.609375 7.90625 5.328125 
Q 8.15625 6.15625 8.15625 10.0625 
L 8.15625 27.390625 
Q 8.15625 35.203125 7.828125 36.6875 
Q 7.515625 38.1875 6.65625 38.859375 
Q 5.8125 39.546875 4.546875 39.546875 
Q 3.03125 39.546875 1.125 38.8125 
L 0.640625 40.578125 
L 14.15625 46.046875 
z
" id="TimesNewRomanPSMT-114"/>
       <path d="M 12.5 9.46875 
Q 14.796875 9.46875 16.359375 7.875 
Q 17.921875 6.296875 17.921875 4.046875 
Q 17.921875 1.8125 16.328125 0.21875 
Q 14.75 -1.375 12.5 -1.375 
Q 10.25 -1.375 8.65625 0.21875 
Q 7.078125 1.8125 7.078125 4.046875 
Q 7.078125 6.34375 8.65625 7.90625 
Q 10.25 9.46875 12.5 9.46875 
z
" id="TimesNewRomanPSMT-46"/>
       <path id="TimesNewRomanPSMT-32"/>
       <path d="M 25 46.046875 
Q 35.15625 46.046875 41.3125 38.328125 
Q 46.53125 31.734375 46.53125 23.1875 
Q 46.53125 17.1875 43.640625 11.03125 
Q 40.765625 4.890625 35.71875 1.75 
Q 30.671875 -1.375 24.46875 -1.375 
Q 14.359375 -1.375 8.40625 6.6875 
Q 3.375 13.484375 3.375 21.921875 
Q 3.375 28.078125 6.421875 34.15625 
Q 9.46875 40.234375 14.453125 43.140625 
Q 19.4375 46.046875 25 46.046875 
z
M 23.484375 42.875 
Q 20.90625 42.875 18.28125 41.328125 
Q 15.671875 39.796875 14.0625 35.9375 
Q 12.453125 32.078125 12.453125 26.03125 
Q 12.453125 16.265625 16.328125 9.171875 
Q 20.21875 2.09375 26.5625 2.09375 
Q 31.296875 2.09375 34.375 6 
Q 37.453125 9.90625 37.453125 19.4375 
Q 37.453125 31.34375 32.328125 38.1875 
Q 28.859375 42.875 23.484375 42.875 
z
" id="TimesNewRomanPSMT-111"/>
       <path d="M 20.609375 41.21875 
L 20.609375 11.8125 
Q 20.609375 5.5625 21.96875 3.90625 
Q 23.78125 1.765625 26.8125 1.765625 
L 30.859375 1.765625 
L 30.859375 0 
L 4.15625 0 
L 4.15625 1.765625 
L 6.15625 1.765625 
Q 8.109375 1.765625 9.71875 2.734375 
Q 11.328125 3.71875 11.9375 5.375 
Q 12.546875 7.03125 12.546875 11.8125 
L 12.546875 41.21875 
L 3.859375 41.21875 
L 3.859375 44.734375 
L 12.546875 44.734375 
L 12.546875 47.65625 
Q 12.546875 54.34375 14.6875 58.984375 
Q 16.84375 63.625 21.265625 66.484375 
Q 25.6875 69.34375 31.203125 69.34375 
Q 36.328125 69.34375 40.625 66.015625 
Q 43.453125 63.8125 43.453125 61.078125 
Q 43.453125 59.625 42.1875 58.328125 
Q 40.921875 57.03125 39.453125 57.03125 
Q 38.328125 57.03125 37.078125 57.828125 
Q 35.84375 58.640625 34.03125 61.296875 
Q 32.234375 63.96875 30.71875 64.890625 
Q 29.203125 65.828125 27.34375 65.828125 
Q 25.09375 65.828125 23.53125 64.625 
Q 21.96875 63.421875 21.28125 60.90625 
Q 20.609375 58.40625 20.609375 47.953125 
L 20.609375 44.734375 
L 32.125 44.734375 
L 32.125 41.21875 
z
" id="TimesNewRomanPSMT-102"/>
       <path d="M 42.328125 44.734375 
L 42.328125 17.625 
Q 42.328125 9.859375 42.6875 8.125 
Q 43.0625 6.390625 43.859375 5.703125 
Q 44.671875 5.03125 45.75 5.03125 
Q 47.265625 5.03125 49.171875 5.859375 
L 49.859375 4.15625 
L 36.46875 -1.375 
L 34.28125 -1.375 
L 34.28125 8.109375 
Q 28.515625 1.859375 25.484375 0.234375 
Q 22.46875 -1.375 19.09375 -1.375 
Q 15.328125 -1.375 12.5625 0.796875 
Q 9.8125 2.984375 8.734375 6.390625 
Q 7.671875 9.8125 7.671875 16.0625 
L 7.671875 36.03125 
Q 7.671875 39.203125 6.984375 40.421875 
Q 6.296875 41.65625 4.953125 42.3125 
Q 3.609375 42.96875 0.09375 42.921875 
L 0.09375 44.734375 
L 15.765625 44.734375 
L 15.765625 14.796875 
Q 15.765625 8.546875 17.9375 6.59375 
Q 20.125 4.640625 23.1875 4.640625 
Q 25.296875 4.640625 27.953125 5.953125 
Q 30.609375 7.28125 34.28125 10.984375 
L 34.28125 36.328125 
Q 34.28125 40.140625 32.890625 41.484375 
Q 31.5 42.828125 27.09375 42.921875 
L 27.09375 44.734375 
z
" id="TimesNewRomanPSMT-117"/>
       <path d="M 16.15625 36.578125 
Q 24.03125 46.046875 31.15625 46.046875 
Q 34.8125 46.046875 37.453125 44.21875 
Q 40.09375 42.390625 41.65625 38.1875 
Q 42.71875 35.25 42.71875 29.203125 
L 42.71875 10.109375 
Q 42.71875 5.859375 43.40625 4.34375 
Q 43.953125 3.125 45.140625 2.4375 
Q 46.34375 1.765625 49.5625 1.765625 
L 49.5625 0 
L 27.4375 0 
L 27.4375 1.765625 
L 28.375 1.765625 
Q 31.5 1.765625 32.734375 2.703125 
Q 33.984375 3.65625 34.46875 5.515625 
Q 34.671875 6.25 34.671875 10.109375 
L 34.671875 28.421875 
Q 34.671875 34.515625 33.078125 37.28125 
Q 31.5 40.046875 27.734375 40.046875 
Q 21.921875 40.046875 16.15625 33.6875 
L 16.15625 10.109375 
Q 16.15625 5.5625 16.703125 4.5 
Q 17.390625 3.078125 18.578125 2.421875 
Q 19.78125 1.765625 23.4375 1.765625 
L 23.4375 0 
L 1.3125 0 
L 1.3125 1.765625 
L 2.296875 1.765625 
Q 5.71875 1.765625 6.90625 3.484375 
Q 8.109375 5.21875 8.109375 10.109375 
L 8.109375 26.703125 
Q 8.109375 34.765625 7.734375 36.515625 
Q 7.375 38.28125 6.609375 38.90625 
Q 5.859375 39.546875 4.59375 39.546875 
Q 3.21875 39.546875 1.3125 38.8125 
L 0.59375 40.578125 
L 14.0625 46.046875 
L 16.15625 46.046875 
z
" id="TimesNewRomanPSMT-110"/>
       <path d="M 41.109375 17 
Q 39.3125 8.15625 34.03125 3.390625 
Q 28.765625 -1.375 22.359375 -1.375 
Q 14.75 -1.375 9.078125 5.015625 
Q 3.421875 11.421875 3.421875 22.3125 
Q 3.421875 32.859375 9.6875 39.453125 
Q 15.96875 46.046875 24.75 46.046875 
Q 31.34375 46.046875 35.59375 42.546875 
Q 39.84375 39.0625 39.84375 35.296875 
Q 39.84375 33.453125 38.640625 32.296875 
Q 37.453125 31.15625 35.296875 31.15625 
Q 32.421875 31.15625 30.953125 33.015625 
Q 30.125 34.03125 29.859375 36.90625 
Q 29.59375 39.796875 27.875 41.3125 
Q 26.171875 42.78125 23.140625 42.78125 
Q 18.265625 42.78125 15.28125 39.15625 
Q 11.328125 34.375 11.328125 26.515625 
Q 11.328125 18.5 15.25 12.375 
Q 19.1875 6.25 25.875 6.25 
Q 30.671875 6.25 34.46875 9.515625 
Q 37.15625 11.765625 39.703125 17.671875 
z
" id="TimesNewRomanPSMT-99"/>
       <path d="M 16.109375 59.421875 
L 16.109375 44.734375 
L 26.5625 44.734375 
L 26.5625 41.3125 
L 16.109375 41.3125 
L 16.109375 12.3125 
Q 16.109375 7.953125 17.359375 6.4375 
Q 18.609375 4.9375 20.5625 4.9375 
Q 22.171875 4.9375 23.6875 5.9375 
Q 25.203125 6.9375 26.03125 8.890625 
L 27.9375 8.890625 
Q 26.21875 4.109375 23.09375 1.6875 
Q 19.96875 -0.734375 16.65625 -0.734375 
Q 14.40625 -0.734375 12.25 0.515625 
Q 10.109375 1.765625 9.078125 4.078125 
Q 8.0625 6.390625 8.0625 11.234375 
L 8.0625 41.3125 
L 0.984375 41.3125 
L 0.984375 42.921875 
Q 3.65625 44 6.46875 46.5625 
Q 9.28125 49.125 11.46875 52.640625 
Q 12.59375 54.5 14.59375 59.421875 
z
" id="TimesNewRomanPSMT-116"/>
       <path d="M 14.5 69.4375 
Q 16.546875 69.4375 17.984375 67.984375 
Q 19.4375 66.546875 19.4375 64.5 
Q 19.4375 62.453125 17.984375 60.984375 
Q 16.546875 59.515625 14.5 59.515625 
Q 12.453125 59.515625 10.984375 60.984375 
Q 9.515625 62.453125 9.515625 64.5 
Q 9.515625 66.546875 10.953125 67.984375 
Q 12.40625 69.4375 14.5 69.4375 
z
M 18.5625 46.046875 
L 18.5625 10.109375 
Q 18.5625 5.90625 19.171875 4.515625 
Q 19.78125 3.125 20.96875 2.4375 
Q 22.171875 1.765625 25.34375 1.765625 
L 25.34375 0 
L 3.609375 0 
L 3.609375 1.765625 
Q 6.890625 1.765625 8 2.390625 
Q 9.125 3.03125 9.78125 4.484375 
Q 10.453125 5.953125 10.453125 10.109375 
L 10.453125 27.34375 
Q 10.453125 34.625 10.015625 36.765625 
Q 9.671875 38.328125 8.9375 38.9375 
Q 8.203125 39.546875 6.9375 39.546875 
Q 5.5625 39.546875 3.609375 38.8125 
L 2.9375 40.578125 
L 16.40625 46.046875 
z
" id="TimesNewRomanPSMT-105"/>
       <path d="M 10.640625 27.875 
Q 10.59375 17.921875 15.484375 12.25 
Q 20.359375 6.59375 26.953125 6.59375 
Q 31.34375 6.59375 34.59375 9 
Q 37.84375 11.421875 40.046875 17.28125 
L 41.546875 16.3125 
Q 40.53125 9.625 35.59375 4.125 
Q 30.671875 -1.375 23.25 -1.375 
Q 15.1875 -1.375 9.453125 4.90625 
Q 3.71875 11.1875 3.71875 21.78125 
Q 3.71875 33.25 9.59375 39.671875 
Q 15.484375 46.09375 24.359375 46.09375 
Q 31.890625 46.09375 36.71875 41.140625 
Q 41.546875 36.1875 41.546875 27.875 
z
M 10.640625 30.71875 
L 31.34375 30.71875 
Q 31.109375 35.015625 30.328125 36.765625 
Q 29.109375 39.5 26.6875 41.0625 
Q 24.265625 42.625 21.625 42.625 
Q 17.578125 42.625 14.375 39.46875 
Q 11.1875 36.328125 10.640625 30.71875 
z
" id="TimesNewRomanPSMT-101"/>
       <path d="M 0.828125 44.734375 
L 21.875 44.734375 
L 21.875 42.921875 
L 20.515625 42.921875 
Q 18.609375 42.921875 17.609375 41.984375 
Q 16.609375 41.0625 16.609375 39.5 
Q 16.609375 37.796875 17.625 35.453125 
L 28.03125 10.75 
L 38.484375 36.375 
Q 39.59375 39.109375 39.59375 40.53125 
Q 39.59375 41.21875 39.203125 41.65625 
Q 38.671875 42.390625 37.84375 42.65625 
Q 37.015625 42.921875 34.46875 42.921875 
L 34.46875 44.734375 
L 49.078125 44.734375 
L 49.078125 42.921875 
Q 46.53125 42.71875 45.5625 41.890625 
Q 43.84375 40.4375 42.484375 37.015625 
L 26.609375 -1.375 
L 24.609375 -1.375 
L 8.640625 36.375 
Q 7.5625 39.015625 6.578125 40.15625 
Q 5.609375 41.3125 4.109375 42.09375 
Q 3.265625 42.53125 0.828125 42.921875 
z
" id="TimesNewRomanPSMT-118"/>
       <path d="M 28.46875 6.453125 
Q 21.578125 1.125 19.828125 0.296875 
Q 17.1875 -0.921875 14.203125 -0.921875 
Q 9.578125 -0.921875 6.5625 2.25 
Q 3.5625 5.421875 3.5625 10.59375 
Q 3.5625 13.875 5.03125 16.265625 
Q 7.03125 19.578125 11.984375 22.5 
Q 16.9375 25.4375 28.46875 29.640625 
L 28.46875 31.390625 
Q 28.46875 38.09375 26.34375 40.578125 
Q 24.21875 43.0625 20.171875 43.0625 
Q 17.09375 43.0625 15.28125 41.40625 
Q 13.421875 39.75 13.421875 37.59375 
L 13.53125 34.765625 
Q 13.53125 32.515625 12.375 31.296875 
Q 11.234375 30.078125 9.375 30.078125 
Q 7.5625 30.078125 6.421875 31.34375 
Q 5.28125 32.625 5.28125 34.8125 
Q 5.28125 39.015625 9.578125 42.53125 
Q 13.875 46.046875 21.625 46.046875 
Q 27.59375 46.046875 31.390625 44.046875 
Q 34.28125 42.53125 35.640625 39.3125 
Q 36.53125 37.203125 36.53125 30.71875 
L 36.53125 15.53125 
Q 36.53125 9.125 36.765625 7.6875 
Q 37.015625 6.25 37.578125 5.765625 
Q 38.140625 5.28125 38.875 5.28125 
Q 39.65625 5.28125 40.234375 5.609375 
Q 41.265625 6.25 44.1875 9.1875 
L 44.1875 6.453125 
Q 38.71875 -0.875 33.734375 -0.875 
Q 31.34375 -0.875 29.921875 0.78125 
Q 28.515625 2.4375 28.46875 6.453125 
z
M 28.46875 9.625 
L 28.46875 26.65625 
Q 21.09375 23.734375 18.953125 22.515625 
Q 15.09375 20.359375 13.421875 18.015625 
Q 11.765625 15.671875 11.765625 12.890625 
Q 11.765625 9.375 13.859375 7.046875 
Q 15.96875 4.734375 18.703125 4.734375 
Q 22.40625 4.734375 28.46875 9.625 
z
" id="TimesNewRomanPSMT-97"/>
       <path d="M 18.5 69.4375 
L 18.5 10.109375 
Q 18.5 5.90625 19.109375 4.53125 
Q 19.734375 3.171875 21 2.46875 
Q 22.265625 1.765625 25.734375 1.765625 
L 25.734375 0 
L 3.8125 0 
L 3.8125 1.765625 
Q 6.890625 1.765625 8 2.390625 
Q 9.125 3.03125 9.765625 4.484375 
Q 10.40625 5.953125 10.40625 10.109375 
L 10.40625 50.734375 
Q 10.40625 58.296875 10.0625 60.03125 
Q 9.71875 61.765625 8.953125 62.390625 
Q 8.203125 63.03125 7.03125 63.03125 
Q 5.765625 63.03125 3.8125 62.25 
L 2.984375 63.96875 
L 16.3125 69.4375 
z
" id="TimesNewRomanPSMT-108"/>
       <path d="M 32.03125 46.046875 
L 32.03125 30.8125 
L 30.421875 30.8125 
Q 28.5625 37.984375 25.65625 40.578125 
Q 22.75 43.171875 18.265625 43.171875 
Q 14.84375 43.171875 12.734375 41.359375 
Q 10.640625 39.546875 10.640625 37.359375 
Q 10.640625 34.625 12.203125 32.671875 
Q 13.71875 30.671875 18.359375 28.421875 
L 25.484375 24.953125 
Q 35.40625 20.125 35.40625 12.203125 
Q 35.40625 6.109375 30.78125 2.359375 
Q 26.171875 -1.375 20.453125 -1.375 
Q 16.359375 -1.375 11.078125 0.09375 
Q 9.46875 0.59375 8.453125 0.59375 
Q 7.328125 0.59375 6.6875 -0.6875 
L 5.078125 -0.6875 
L 5.078125 15.28125 
L 6.6875 15.28125 
Q 8.0625 8.453125 11.90625 4.984375 
Q 15.765625 1.515625 20.5625 1.515625 
Q 23.921875 1.515625 26.046875 3.484375 
Q 28.171875 5.46875 28.171875 8.25 
Q 28.171875 11.625 25.796875 13.921875 
Q 23.4375 16.21875 16.359375 19.734375 
Q 9.28125 23.25 7.078125 26.078125 
Q 4.890625 28.859375 4.890625 33.109375 
Q 4.890625 38.625 8.671875 42.328125 
Q 12.453125 46.046875 18.453125 46.046875 
Q 21.09375 46.046875 24.859375 44.921875 
Q 27.34375 44.1875 28.171875 44.1875 
Q 28.953125 44.1875 29.390625 44.53125 
Q 29.828125 44.875 30.421875 46.046875 
z
" id="TimesNewRomanPSMT-115"/>
      </defs>
      <use xlink:href="#TimesNewRomanPSMT-78"/>
      <use x="72.216797" xlink:href="#TimesNewRomanPSMT-98"/>
      <use x="122.216797" xlink:href="#TimesNewRomanPSMT-114"/>
      <use x="150.017578" xlink:href="#TimesNewRomanPSMT-46"/>
      <use x="175.017578" xlink:href="#TimesNewRomanPSMT-32"/>
      <use x="200.017578" xlink:href="#TimesNewRomanPSMT-111"/>
      <use x="250.017578" xlink:href="#TimesNewRomanPSMT-102"/>
      <use x="283.318359" xlink:href="#TimesNewRomanPSMT-32"/>
      <use x="308.318359" xlink:href="#TimesNewRomanPSMT-102"/>
      <use x="341.619141" xlink:href="#TimesNewRomanPSMT-117"/>
      <use x="391.619141" xlink:href="#TimesNewRomanPSMT-110"/>
      <use x="441.619141" xlink:href="#TimesNewRomanPSMT-99"/>
      <use x="486.003906" xlink:href="#TimesNewRomanPSMT-116"/>
      <use x="513.787109" xlink:href="#TimesNewRomanPSMT-105"/>
      <use x="541.570312" xlink:href="#TimesNewRomanPSMT-111"/>
      <use x="591.570312" xlink:href="#TimesNewRomanPSMT-110"/>
      <use x="641.570312" xlink:href="#TimesNewRomanPSMT-32"/>
      <use x="666.570312" xlink:href="#TimesNewRomanPSMT-101"/>
      <use x="710.955078" xlink:href="#TimesNewRomanPSMT-118"/>
      <use x="760.955078" xlink:href="#TimesNewRomanPSMT-97"/>
      <use x="805.339844" xlink:href="#TimesNewRomanPSMT-108"/>
      <use x="833.123047" xlink:href="#TimesNewRomanPSMT-117"/>
      <use x="883.123047" xlink:href="#TimesNewRomanPSMT-97"/>
      <use x="927.507812" xlink:href="#TimesNewRomanPSMT-116"/>
      <use x="955.291016" xlink:href="#TimesNewRomanPSMT-105"/>
      <use x="983.074219" xlink:href="#TimesNewRomanPSMT-111"/>
      <use x="1033.074219" xlink:href="#TimesNewRomanPSMT-110"/>
      <use x="1083.074219" xlink:href="#TimesNewRomanPSMT-115"/>
     </g>
    </g>
   </g>
   <g id="matplotlib.axis_2">
    <g id="ytick_1">
     <g id="line2d_7">
      <defs>
       <path d="M 0 0 
L -3.5 0 
" id="m2496f48fcd" style="stroke:#000000;stroke-width:0.8;"/>
      </defs>
      <g>
       <use style="stroke:#000000;stroke-width:0.8;" x="54" xlink:href="#m2496f48fcd" y="240.586542"/>
      </g>
     </g>
     <g id="text_8">
      <!-- $\mathdefault{10^{0}}$ -->
      <g transform="translate(25.85 247.232245)scale(0.15 -0.15)">
       <use transform="translate(0 0.582813)" xlink:href="#TimesNewRomanPSMT-49"/>
       <use transform="translate(50 0.582813)" xlink:href="#TimesNewRomanPSMT-48"/>
       <use transform="translate(101.502813 60.695312)scale(0.7)" xlink:href="#TimesNewRomanPSMT-48"/>
      </g>
     </g>
    </g>
    <g id="ytick_2">
     <g id="line2d_8">
      <g>
       <use style="stroke:#000000;stroke-width:0.8;" x="54" xlink:href="#m2496f48fcd" y="151.435618"/>
      </g>
     </g>
     <g id="text_9">
      <!-- $\mathdefault{10^{1}}$ -->
      <g transform="translate(25.85 158.081321)scale(0.15 -0.15)">
       <use transform="translate(0 0.582813)" xlink:href="#TimesNewRomanPSMT-49"/>
       <use transform="translate(50 0.582813)" xlink:href="#TimesNewRomanPSMT-48"/>
       <use transform="translate(101.502813 60.695312)scale(0.7)" xlink:href="#TimesNewRomanPSMT-49"/>
      </g>
     </g>
    </g>
    <g id="ytick_3">
     <g id="line2d_9">
      <g>
       <use style="stroke:#000000;stroke-width:0.8;" x="54" xlink:href="#m2496f48fcd" y="62.284693"/>
      </g>
     </g>
     <g id="text_10">
      <!-- $\mathdefault{10^{2}}$ -->
      <g transform="translate(25.85 68.930396)scale(0.15 -0.15)">
       <use transform="translate(0 0.582813)" xlink:href="#TimesNewRomanPSMT-49"/>
       <use transform="translate(50 0.582813)" xlink:href="#TimesNewRomanPSMT-48"/>
       <use transform="translate(101.502813 60.695312)scale(0.7)" xlink:href="#TimesNewRomanPSMT-50"/>
      </g>
     </g>
    </g>
    <g id="ytick_4">
     <g id="line2d_10">
      <defs>
       <path d="M 0 0 
L -2 0 
" id="m0b5b26b615" style="stroke:#000000;stroke-width:0.6;"/>
      </defs>
      <g>
       <use style="stroke:#000000;stroke-width:0.6;" x="54" xlink:href="#m0b5b26b615" y="249.226159"/>
      </g>
     </g>
    </g>
    <g id="ytick_5">
     <g id="line2d_11">
      <g>
       <use style="stroke:#000000;stroke-width:0.6;" x="54" xlink:href="#m0b5b26b615" y="244.665865"/>
      </g>
     </g>
    </g>
    <g id="ytick_6">
     <g id="line2d_12">
      <g>
       <use style="stroke:#000000;stroke-width:0.6;" x="54" xlink:href="#m0b5b26b615" y="213.74944"/>
      </g>
     </g>
    </g>
    <g id="ytick_7">
     <g id="line2d_13">
      <g>
       <use style="stroke:#000000;stroke-width:0.6;" x="54" xlink:href="#m0b5b26b615" y="198.050741"/>
      </g>
     </g>
    </g>
    <g id="ytick_8">
     <g id="line2d_14">
      <g>
       <use style="stroke:#000000;stroke-width:0.6;" x="54" xlink:href="#m0b5b26b615" y="186.912337"/>
      </g>
     </g>
    </g>
    <g id="ytick_9">
     <g id="line2d_15">
      <g>
       <use style="stroke:#000000;stroke-width:0.6;" x="54" xlink:href="#m0b5b26b615" y="178.27272"/>
      </g>
     </g>
    </g>
    <g id="ytick_10">
     <g id="line2d_16">
      <g>
       <use style="stroke:#000000;stroke-width:0.6;" x="54" xlink:href="#m0b5b26b615" y="171.213639"/>
      </g>
     </g>
    </g>
    <g id="ytick_11">
     <g id="line2d_17">
      <g>
       <use style="stroke:#000000;stroke-width:0.6;" x="54" xlink:href="#m0b5b26b615" y="165.24527"/>
      </g>
     </g>
    </g>
    <g id="ytick_12">
     <g id="line2d_18">
      <g>
       <use style="stroke:#000000;stroke-width:0.6;" x="54" xlink:href="#m0b5b26b615" y="160.075235"/>
      </g>
     </g>
    </g>
    <g id="ytick_13">
     <g id="line2d_19">
      <g>
       <use style="stroke:#000000;stroke-width:0.6;" x="54" xlink:href="#m0b5b26b615" y="155.51494"/>
      </g>
     </g>
    </g>
    <g id="ytick_14">
     <g id="line2d_20">
      <g>
       <use style="stroke:#000000;stroke-width:0.6;" x="54" xlink:href="#m0b5b26b615" y="124.598515"/>
      </g>
     </g>
    </g>
    <g id="ytick_15">
     <g id="line2d_21">
      <g>
       <use style="stroke:#000000;stroke-width:0.6;" x="54" xlink:href="#m0b5b26b615" y="108.899817"/>
      </g>
     </g>
    </g>
    <g id="ytick_16">
     <g id="line2d_22">
      <g>
       <use style="stroke:#000000;stroke-width:0.6;" x="54" xlink:href="#m0b5b26b615" y="97.761413"/>
      </g>
     </g>
    </g>
    <g id="ytick_17">
     <g id="line2d_23">
      <g>
       <use style="stroke:#000000;stroke-width:0.6;" x="54" xlink:href="#m0b5b26b615" y="89.121796"/>
      </g>
     </g>
    </g>
    <g id="ytick_18">
     <g id="line2d_24">
      <g>
       <use style="stroke:#000000;stroke-width:0.6;" x="54" xlink:href="#m0b5b26b615" y="82.062714"/>
      </g>
     </g>
    </g>
    <g id="ytick_19">
     <g id="line2d_25">
      <g>
       <use style="stroke:#000000;stroke-width:0.6;" x="54" xlink:href="#m0b5b26b615" y="76.094346"/>
      </g>
     </g>
    </g>
    <g id="ytick_20">
     <g id="line2d_26">
      <g>
       <use style="stroke:#000000;stroke-width:0.6;" x="54" xlink:href="#m0b5b26b615" y="70.92431"/>
      </g>
     </g>
    </g>
    <g id="ytick_21">
     <g id="line2d_27">
      <g>
       <use style="stroke:#000000;stroke-width:0.6;" x="54" xlink:href="#m0b5b26b615" y="66.364016"/>
      </g>
     </g>
    </g>
    <g id="ytick_22">
     <g id="line2d_28">
      <g>
       <use style="stroke:#000000;stroke-width:0.6;" x="54" xlink:href="#m0b5b26b615" y="35.447591"/>
      </g>
     </g>
    </g>
    <g id="text_11">
     <!-- Best function evaluation -->
     <g transform="translate(18.641406 216.597188)rotate(-90)scale(0.15 -0.15)">
      <defs>
       <path d="M 46.1875 33.796875 
Q 53.078125 32.328125 56.5 29.109375 
Q 61.234375 24.609375 61.234375 18.109375 
Q 61.234375 13.1875 58.109375 8.671875 
Q 54.984375 4.15625 49.53125 2.078125 
Q 44.09375 0 32.90625 0 
L 1.65625 0 
L 1.65625 1.8125 
L 4.15625 1.8125 
Q 8.296875 1.8125 10.109375 4.4375 
Q 11.234375 6.15625 11.234375 11.71875 
L 11.234375 54.5 
Q 11.234375 60.640625 9.8125 62.25 
Q 7.90625 64.40625 4.15625 64.40625 
L 1.65625 64.40625 
L 1.65625 66.21875 
L 30.28125 66.21875 
Q 38.28125 66.21875 43.109375 65.046875 
Q 50.4375 63.28125 54.296875 58.8125 
Q 58.15625 54.34375 58.15625 48.53125 
Q 58.15625 43.5625 55.125 39.625 
Q 52.09375 35.6875 46.1875 33.796875 
z
M 20.609375 36.421875 
Q 22.40625 36.078125 24.71875 35.90625 
Q 27.046875 35.75 29.828125 35.75 
Q 36.96875 35.75 40.546875 37.28125 
Q 44.140625 38.8125 46.046875 41.984375 
Q 47.953125 45.171875 47.953125 48.921875 
Q 47.953125 54.734375 43.21875 58.828125 
Q 38.484375 62.9375 29.390625 62.9375 
Q 24.515625 62.9375 20.609375 61.859375 
z
M 20.609375 4.78125 
Q 26.265625 3.46875 31.78125 3.46875 
Q 40.625 3.46875 45.265625 7.4375 
Q 49.90625 11.421875 49.90625 17.28125 
Q 49.90625 21.140625 47.796875 24.703125 
Q 45.703125 28.265625 40.96875 30.3125 
Q 36.234375 32.375 29.25 32.375 
Q 26.21875 32.375 24.0625 32.265625 
Q 21.921875 32.171875 20.609375 31.9375 
z
" id="TimesNewRomanPSMT-66"/>
      </defs>
      <use xlink:href="#TimesNewRomanPSMT-66"/>
      <use x="66.699219" xlink:href="#TimesNewRomanPSMT-101"/>
      <use x="111.083984" xlink:href="#TimesNewRomanPSMT-115"/>
      <use x="150" xlink:href="#TimesNewRomanPSMT-116"/>
      <use x="177.783203" xlink:href="#TimesNewRomanPSMT-32"/>
      <use x="202.783203" xlink:href="#TimesNewRomanPSMT-102"/>
      <use x="236.083984" xlink:href="#TimesNewRomanPSMT-117"/>
      <use x="286.083984" xlink:href="#TimesNewRomanPSMT-110"/>
      <use x="336.083984" xlink:href="#TimesNewRomanPSMT-99"/>
      <use x="380.46875" xlink:href="#TimesNewRomanPSMT-116"/>
      <use x="408.251953" xlink:href="#TimesNewRomanPSMT-105"/>
      <use x="436.035156" xlink:href="#TimesNewRomanPSMT-111"/>
      <use x="486.035156" xlink:href="#TimesNewRomanPSMT-110"/>
      <use x="536.035156" xlink:href="#TimesNewRomanPSMT-32"/>
      <use x="561.035156" xlink:href="#TimesNewRomanPSMT-101"/>
      <use x="605.419922" xlink:href="#TimesNewRomanPSMT-118"/>
      <use x="655.419922" xlink:href="#TimesNewRomanPSMT-97"/>
      <use x="699.804688" xlink:href="#TimesNewRomanPSMT-108"/>
      <use x="727.587891" xlink:href="#TimesNewRomanPSMT-117"/>
      <use x="777.587891" xlink:href="#TimesNewRomanPSMT-97"/>
      <use x="821.972656" xlink:href="#TimesNewRomanPSMT-116"/>
      <use x="849.755859" xlink:href="#TimesNewRomanPSMT-105"/>
      <use x="877.539062" xlink:href="#TimesNewRomanPSMT-111"/>
      <use x="927.539062" xlink:href="#TimesNewRomanPSMT-110"/>
     </g>
    </g>
   </g>
   <g id="line2d_29">
    <path clip-path="url(#p98b3fc64d1)" d="M 69.218182 44.443636 
L 75.429685 44.443636 
L 75.429685 54.195324 
L 78.535436 54.195324 
L 78.535436 55.61645 
L 81.641187 55.61645 
L 81.641187 65.298113 
L 84.746939 65.298113 
L 84.746939 66.907591 
L 87.85269 66.907591 
L 87.85269 90.841486 
L 90.958442 90.841486 
L 90.958442 103.142349 
L 97.169944 103.142349 
L 97.169944 164.061017 
L 103.381447 164.061017 
L 103.381447 180.570471 
L 109.59295 180.570471 
L 109.59295 183.374464 
L 112.698701 183.374464 
L 112.698701 184.867727 
L 115.804453 184.867727 
L 115.804453 185.417846 
L 118.910204 185.417846 
L 118.910204 187.082063 
L 122.015955 187.082063 
L 122.015955 189.1603 
L 125.121707 189.1603 
L 125.121707 190.406772 
L 134.438961 190.406772 
L 134.438961 194.495099 
L 137.544712 194.495099 
L 137.544712 196.336169 
L 140.650464 196.336169 
L 140.650464 196.851086 
L 146.861967 196.851086 
L 146.861967 200.924511 
L 156.179221 200.924511 
L 156.179221 212.150601 
L 162.390724 212.150601 
L 162.390724 213.823717 
L 165.496475 213.823717 
L 165.496475 220.362533 
L 168.602226 220.362533 
L 168.602226 224.706014 
L 174.813729 224.706014 
L 174.813729 227.646555 
L 181.025232 227.646555 
L 181.025232 232.654496 
L 184.130983 232.654496 
L 184.130983 234.127163 
L 187.236735 234.127163 
L 187.236735 238.114744 
L 233.823006 238.114744 
L 233.823006 238.699804 
L 246.246011 238.699804 
L 246.246011 238.820602 
L 249.351763 238.820602 
L 249.351763 239.162689 
L 289.726531 239.162689 
L 289.726531 239.516016 
L 373.581818 239.516016 
L 373.581818 239.516016 
" style="fill:none;stroke:#1f77b4;stroke-linecap:square;stroke-width:1.5;"/>
   </g>
   <g id="line2d_30">
    <path clip-path="url(#p98b3fc64d1)" d="M 69.218182 44.448806 
L 75.429685 44.448806 
L 75.429685 54.187645 
L 78.535436 54.187645 
L 78.535436 55.606897 
L 81.641187 55.606897 
L 81.641187 65.294067 
L 84.746939 65.294067 
L 84.746939 66.917062 
L 87.85269 66.917062 
L 87.85269 90.862629 
L 90.958442 90.862629 
L 90.958442 102.754489 
L 97.169944 102.754489 
L 97.169944 165.057127 
L 103.381447 165.057127 
L 103.381447 179.854094 
L 109.59295 179.854094 
L 109.59295 183.11189 
L 112.698701 183.11189 
L 112.698701 184.239186 
L 115.804453 184.239186 
L 115.804453 185.722749 
L 118.910204 185.722749 
L 118.910204 186.57826 
L 122.015955 186.57826 
L 122.015955 187.463601 
L 125.121707 187.463601 
L 125.121707 189.349598 
L 128.227458 189.349598 
L 128.227458 192.949549 
L 140.650464 192.949549 
L 140.650464 197.918816 
L 143.756215 197.918816 
L 143.756215 199.128683 
L 149.967718 199.128683 
L 149.967718 201.464924 
L 153.073469 201.464924 
L 153.073469 204.994507 
L 156.179221 204.994507 
L 156.179221 205.34741 
L 159.284972 205.34741 
L 159.284972 207.051308 
L 162.390724 207.051308 
L 162.390724 211.415369 
L 174.813729 211.415369 
L 174.813729 220.437531 
L 177.919481 220.437531 
L 177.919481 222.690714 
L 181.025232 222.690714 
L 181.025232 226.550475 
L 184.130983 226.550475 
L 184.130983 227.600398 
L 187.236735 227.600398 
L 187.236735 228.649074 
L 190.342486 228.649074 
L 190.342486 229.67481 
L 193.448237 229.67481 
L 193.448237 230.537652 
L 199.65974 230.537652 
L 199.65974 237.262909 
L 233.823006 237.262909 
L 233.823006 239.054413 
L 264.880519 239.054413 
L 264.880519 240.031528 
L 373.581818 240.031528 
L 373.581818 240.031528 
" style="fill:none;stroke:#ff7f0e;stroke-linecap:square;stroke-width:1.5;"/>
   </g>
   <g id="line2d_31">
    <path clip-path="url(#p98b3fc64d1)" d="M 69.218182 44.443855 
L 75.429685 44.443855 
L 75.429685 54.184552 
L 78.535436 54.184552 
L 78.535436 55.622951 
L 81.641187 55.622951 
L 81.641187 65.290495 
L 84.746939 65.290495 
L 84.746939 66.906846 
L 87.85269 66.906846 
L 87.85269 90.867073 
L 90.958442 90.867073 
L 90.958442 103.103332 
L 97.169944 103.103332 
L 97.169944 164.480032 
L 103.381447 164.480032 
L 103.381447 180.218918 
L 109.59295 180.218918 
L 109.59295 183.481098 
L 112.698701 183.481098 
L 112.698701 184.499585 
L 115.804453 184.499585 
L 115.804453 185.143276 
L 118.910204 185.143276 
L 118.910204 186.849455 
L 122.015955 186.849455 
L 122.015955 191.361554 
L 128.227458 191.361554 
L 128.227458 236.866705 
L 202.765492 236.866705 
L 202.765492 241.541839 
L 261.774768 241.541839 
L 261.774768 241.855409 
L 289.726531 241.855409 
L 289.726531 242.116364 
L 373.581818 242.116364 
L 373.581818 242.116364 
" style="fill:none;stroke:#2ca02c;stroke-linecap:square;stroke-width:1.5;"/>
   </g>
   <g id="line2d_32">
    <path clip-path="url(#p98b3fc64d1)" d="M 69.218182 44.453942 
L 75.429685 44.453942 
L 75.429685 54.18794 
L 78.535436 54.18794 
L 78.535436 55.61746 
L 81.641187 55.61746 
L 81.641187 65.312892 
L 84.746939 65.312892 
L 84.746939 66.91525 
L 87.85269 66.91525 
L 87.85269 90.885471 
L 90.958442 90.885471 
L 90.958442 102.696046 
L 97.169944 102.696046 
L 97.169944 165.281003 
L 103.381447 165.281003 
L 103.381447 180.099543 
L 109.59295 180.099543 
L 109.59295 183.851189 
L 112.698701 183.851189 
L 112.698701 185.428383 
L 115.804453 185.428383 
L 115.804453 188.432135 
L 118.910204 188.432135 
L 118.910204 191.474033 
L 134.438961 191.474033 
L 134.438961 193.110756 
L 137.544712 193.110756 
L 137.544712 193.750965 
L 140.650464 193.750965 
L 140.650464 194.964446 
L 146.861967 194.964446 
L 146.861967 198.386605 
L 149.967718 198.386605 
L 149.967718 201.034515 
L 156.179221 201.034515 
L 156.179221 202.399821 
L 162.390724 202.399821 
L 162.390724 203.560104 
L 168.602226 203.560104 
L 168.602226 204.468186 
L 171.707978 204.468186 
L 171.707978 207.695558 
L 177.919481 207.695558 
L 177.919481 209.228616 
L 181.025232 209.228616 
L 181.025232 213.807321 
L 187.236735 213.807321 
L 187.236735 218.259065 
L 193.448237 218.259065 
L 193.448237 220.792425 
L 205.871243 220.792425 
L 205.871243 223.149612 
L 208.976994 223.149612 
L 208.976994 226.3552 
L 212.082746 226.3552 
L 212.082746 228.030592 
L 215.188497 228.030592 
L 215.188497 228.71598 
L 218.294249 228.71598 
L 218.294249 232.828683 
L 236.928757 232.828683 
L 236.928757 235.443628 
L 243.14026 235.443628 
L 243.14026 236.123232 
L 373.581818 236.211192 
L 373.581818 236.211192 
" style="fill:none;stroke:#d62728;stroke-linecap:square;stroke-width:1.5;"/>
   </g>
   <g id="line2d_33">
    <path clip-path="url(#p98b3fc64d1)" d="M 69.218182 44.46219 
L 75.429685 44.46219 
L 75.429685 54.187474 
L 78.535436 54.187474 
L 78.535436 55.609274 
L 81.641187 55.609274 
L 81.641187 65.315297 
L 84.746939 65.315297 
L 84.746939 66.902559 
L 87.85269 66.902559 
L 87.85269 90.90826 
L 90.958442 90.90826 
L 90.958442 102.366305 
L 97.169944 102.366305 
L 97.169944 166.278147 
L 103.381447 166.278147 
L 103.381447 179.842714 
L 109.59295 179.842714 
L 109.59295 183.77228 
L 112.698701 183.77228 
L 112.698701 184.60341 
L 115.804453 184.60341 
L 115.804453 185.286604 
L 118.910204 185.286604 
L 118.910204 187.208501 
L 122.015955 187.208501 
L 122.015955 192.363885 
L 128.227458 192.363885 
L 128.227458 198.085733 
L 146.861967 198.085733 
L 146.861967 203.859632 
L 156.179221 203.859632 
L 156.179221 204.831981 
L 165.496475 204.914609 
L 165.496475 205.618047 
L 168.602226 205.618047 
L 168.602226 208.318503 
L 171.707978 208.318503 
L 171.707978 214.021584 
L 184.130983 214.021584 
L 184.130983 219.710544 
L 187.236735 219.710544 
L 187.236735 233.193221 
L 202.765492 233.193221 
L 202.765492 237.205075 
L 224.505751 237.218435 
L 224.505751 238.755507 
L 227.611503 238.755507 
L 227.611503 238.887521 
L 230.717254 238.887521 
L 230.717254 239.291348 
L 252.457514 239.291348 
L 252.457514 239.76155 
L 271.092022 239.76155 
L 271.092022 240.119366 
L 286.620779 240.119366 
L 286.620779 240.50822 
L 373.581818 240.50822 
L 373.581818 240.50822 
" style="fill:none;stroke:#9467bd;stroke-linecap:square;stroke-width:1.5;"/>
   </g>
   <g id="line2d_34">
    <path clip-path="url(#p98b3fc64d1)" d="M 69.218182 44.455286 
L 75.429685 44.455286 
L 75.429685 54.195028 
L 78.535436 54.195028 
L 78.535436 55.619774 
L 81.641187 55.619774 
L 81.641187 65.301083 
L 84.746939 65.301083 
L 84.746939 66.918837 
L 87.85269 66.918837 
L 87.85269 90.880914 
L 90.958442 90.880914 
L 90.958442 102.796982 
L 97.169944 102.796982 
L 97.169944 165.058512 
L 103.381447 165.058512 
L 103.381447 180.00484 
L 109.59295 180.00484 
L 109.59295 183.123201 
L 112.698701 183.123201 
L 112.698701 184.332052 
L 115.804453 184.332052 
L 115.804453 185.29412 
L 118.910204 185.29412 
L 118.910204 187.255744 
L 122.015955 187.255744 
L 122.015955 191.799984 
L 128.227458 191.799984 
L 128.227458 196.646983 
L 146.861967 196.646983 
L 146.861967 206.764056 
L 159.284972 206.764056 
L 159.284972 209.650427 
L 162.390724 209.650427 
L 162.390724 211.882582 
L 168.602226 211.882582 
L 168.602226 214.244585 
L 171.707978 214.244585 
L 171.707978 215.836478 
L 174.813729 215.836478 
L 174.813729 219.922068 
L 187.236735 219.922068 
L 187.236735 223.891408 
L 190.342486 223.891408 
L 190.342486 230.916498 
L 221.4 230.916498 
L 221.4 234.850344 
L 236.928757 234.850344 
L 236.928757 237.311142 
L 258.669017 237.311142 
L 258.669017 237.458534 
L 261.774768 237.458534 
L 261.774768 238.509837 
L 267.986271 238.509837 
L 267.986271 239.114516 
L 373.581818 239.114516 
L 373.581818 239.114516 
" style="fill:none;stroke:#8c564b;stroke-linecap:square;stroke-width:1.5;"/>
   </g>
   <g id="line2d_35">
    <path clip-path="url(#p98b3fc64d1)" d="M 69.218182 44.454527 
L 75.429685 44.454527 
L 75.429685 54.1764 
L 78.535436 54.1764 
L 78.535436 55.603923 
L 81.641187 55.603923 
L 81.641187 65.305314 
L 84.746939 65.305314 
L 84.746939 66.922006 
L 87.85269 66.922006 
L 87.85269 90.88495 
L 90.958442 90.88495 
L 90.958442 102.4626 
L 97.169944 102.4626 
L 97.169944 166.3115 
L 103.381447 166.3115 
L 103.381447 179.845401 
L 109.59295 179.845401 
L 109.59295 183.719069 
L 112.698701 183.719069 
L 112.698701 185.047903 
L 115.804453 185.047903 
L 115.804453 185.924899 
L 118.910204 185.924899 
L 118.910204 186.445181 
L 122.015955 186.445181 
L 122.015955 188.63099 
L 125.121707 188.63099 
L 125.121707 193.576678 
L 131.33321 193.576678 
L 131.33321 195.822757 
L 143.756215 195.822757 
L 143.756215 198.052653 
L 146.861967 198.052653 
L 146.861967 199.343876 
L 149.967718 199.343876 
L 149.967718 201.169411 
L 153.073469 201.169411 
L 153.073469 204.622264 
L 159.284972 204.622264 
L 159.284972 206.246585 
L 165.496475 206.246585 
L 165.496475 208.628741 
L 168.602226 208.628741 
L 168.602226 211.294769 
L 174.813729 211.294769 
L 174.813729 218.190746 
L 177.919481 218.190746 
L 177.919481 220.740323 
L 181.025232 220.740323 
L 181.025232 226.292962 
L 187.236735 226.292962 
L 187.236735 226.954718 
L 193.448237 226.954718 
L 193.448237 235.353476 
L 221.4 235.353476 
L 221.4 236.757444 
L 354.94731 236.757444 
L 354.94731 238.823998 
L 373.581818 238.823998 
L 373.581818 238.823998 
" style="fill:none;stroke:#e377c2;stroke-linecap:square;stroke-width:1.5;"/>
   </g>
   <g id="line2d_36">
    <path clip-path="url(#p98b3fc64d1)" d="M 69.218182 44.452575 
L 75.429685 44.452575 
L 75.429685 54.178426 
L 78.535436 54.178426 
L 78.535436 55.60017 
L 81.641187 55.60017 
L 81.641187 65.305792 
L 84.746939 65.305792 
L 84.746939 66.914063 
L 87.85269 66.914063 
L 87.85269 90.906211 
L 90.958442 90.906211 
L 90.958442 102.401818 
L 97.169944 102.401818 
L 97.169944 166.239175 
L 103.381447 166.239175 
L 103.381447 179.776018 
L 109.59295 179.776018 
L 109.59295 183.204614 
L 112.698701 183.204614 
L 112.698701 184.181027 
L 115.804453 184.181027 
L 115.804453 185.035914 
L 118.910204 185.035914 
L 118.910204 187.117592 
L 122.015955 187.117592 
L 122.015955 192.021253 
L 128.227458 192.021253 
L 128.227458 196.483555 
L 143.756215 196.483555 
L 143.756215 196.763576 
L 146.861967 196.763576 
L 146.861967 208.121717 
L 156.179221 208.121717 
L 156.179221 208.418609 
L 162.390724 208.418609 
L 162.390724 210.502231 
L 165.496475 210.502231 
L 165.496475 210.720746 
L 168.602226 210.720746 
L 168.602226 215.122943 
L 171.707978 215.122943 
L 171.707978 229.617207 
L 177.919481 229.617207 
L 177.919481 236.215478 
L 205.871243 236.215478 
L 205.871243 238.019373 
L 252.457514 238.019373 
L 252.457514 238.570188 
L 364.264564 238.570188 
L 364.264564 239.762344 
L 373.581818 239.762344 
L 373.581818 239.782156 
" style="fill:none;stroke:#7f7f7f;stroke-linecap:square;stroke-width:1.5;"/>
   </g>
   <g id="line2d_37">
    <path clip-path="url(#p98b3fc64d1)" d="M 69.218182 44.451045 
L 75.429685 44.451045 
L 75.429685 54.18631 
L 78.535436 54.18631 
L 78.535436 55.59942 
L 81.641187 55.59942 
L 81.641187 65.309084 
L 84.746939 65.309084 
L 84.746939 66.911345 
L 87.85269 66.911345 
L 87.85269 90.858339 
L 90.958442 90.858339 
L 90.958442 102.593556 
L 97.169944 102.593556 
L 97.169944 165.713166 
L 103.381447 165.713166 
L 103.381447 179.771991 
L 109.59295 179.771991 
L 109.59295 183.279077 
L 112.698701 183.279077 
L 112.698701 184.531875 
L 115.804453 184.531875 
L 115.804453 185.444453 
L 118.910204 185.444453 
L 118.910204 186.80948 
L 122.015955 186.80948 
L 122.015955 187.997453 
L 128.227458 187.997453 
L 128.227458 192.516173 
L 146.861967 192.516173 
L 146.861967 196.218346 
L 153.073469 196.218346 
L 153.073469 198.98703 
L 159.284972 198.98703 
L 159.284972 199.35236 
L 162.390724 199.35236 
L 162.390724 199.742098 
L 165.496475 199.742098 
L 165.496475 200.372287 
L 174.813729 200.372287 
L 174.813729 201.839989 
L 177.919481 201.839989 
L 177.919481 204.834789 
L 181.025232 204.834789 
L 181.025232 206.114282 
L 184.130983 206.114282 
L 184.130983 207.285133 
L 187.236735 207.285133 
L 187.236735 208.425075 
L 190.342486 208.425075 
L 190.342486 209.74257 
L 193.448237 209.74257 
L 193.448237 211.219488 
L 196.553989 211.219488 
L 196.553989 211.921155 
L 199.65974 211.921155 
L 199.65974 213.188901 
L 202.765492 213.188901 
L 202.765492 213.401016 
L 215.188497 213.401016 
L 215.188497 214.918847 
L 218.294249 214.918847 
L 218.294249 217.031399 
L 221.4 217.031399 
L 221.4 220.240667 
L 224.505751 220.240667 
L 224.505751 223.333396 
L 227.611503 223.333396 
L 227.611503 224.157934 
L 233.823006 224.157934 
L 233.823006 224.81658 
L 240.034508 224.81658 
L 240.034508 226.660327 
L 246.246011 226.660327 
L 246.246011 227.03341 
L 249.351763 227.03341 
L 249.351763 228.462973 
L 252.457514 228.462973 
L 252.457514 230.099409 
L 255.563265 230.099409 
L 255.563265 231.1803 
L 264.880519 231.1803 
L 264.880519 231.392653 
L 274.197774 231.392653 
L 274.197774 232.325426 
L 286.620779 232.325426 
L 286.620779 233.552207 
L 373.581818 233.552207 
L 373.581818 233.552207 
" style="fill:none;stroke:#bcbd22;stroke-linecap:square;stroke-width:1.5;"/>
   </g>
   <g id="line2d_38">
    <path clip-path="url(#p98b3fc64d1)" d="M 69.218182 44.450492 
L 75.429685 44.450492 
L 75.429685 54.184932 
L 78.535436 54.184932 
L 78.535436 55.623552 
L 81.641187 55.623552 
L 81.641187 65.293844 
L 84.746939 65.293844 
L 84.746939 66.912418 
L 87.85269 66.912418 
L 87.85269 90.857965 
L 90.958442 90.857965 
L 90.958442 102.94963 
L 97.169944 102.94963 
L 97.169944 164.855702 
L 103.381447 164.855702 
L 103.381447 180.238475 
L 109.59295 180.238475 
L 109.59295 183.579975 
L 112.698701 183.579975 
L 112.698701 184.878082 
L 115.804453 184.878082 
L 115.804453 185.208556 
L 118.910204 185.208556 
L 118.910204 186.820728 
L 122.015955 186.820728 
L 122.015955 189.028423 
L 134.438961 189.028423 
L 134.438961 190.199874 
L 140.650464 190.199874 
L 140.650464 193.458071 
L 143.756215 193.458071 
L 143.756215 194.227161 
L 146.861967 194.227161 
L 146.861967 194.723861 
L 149.967718 194.723861 
L 149.967718 196.840183 
L 153.073469 196.840183 
L 153.073469 198.580353 
L 156.179221 198.580353 
L 156.179221 200.207811 
L 171.707978 200.207811 
L 171.707978 207.664631 
L 174.813729 207.664631 
L 174.813729 211.768434 
L 184.130983 211.768434 
L 184.130983 213.606923 
L 190.342486 213.606923 
L 190.342486 215.892087 
L 193.448237 215.892087 
L 193.448237 220.407384 
L 218.294249 220.407384 
L 218.294249 222.262164 
L 227.611503 222.262164 
L 227.611503 232.904588 
L 258.669017 232.904588 
L 258.669017 234.022255 
L 261.774768 234.022255 
L 261.774768 235.756774 
L 264.880519 235.756774 
L 264.880519 239.432502 
L 320.784045 239.534968 
L 320.784045 240.038067 
L 361.158813 240.038067 
L 361.158813 240.479886 
L 373.581818 240.479886 
L 373.581818 240.479886 
" style="fill:none;stroke:#17becf;stroke-linecap:square;stroke-width:1.5;"/>
   </g>
   <g id="patch_3">
    <path d="M 54 252 
L 54 34.56 
" style="fill:none;stroke:#000000;stroke-linecap:square;stroke-linejoin:miter;stroke-width:0.8;"/>
   </g>
   <g id="patch_4">
    <path d="M 388.8 252 
L 388.8 34.56 
" style="fill:none;stroke:#000000;stroke-linecap:square;stroke-linejoin:miter;stroke-width:0.8;"/>
   </g>
   <g id="patch_5">
    <path d="M 54 252 
L 388.8 252 
" style="fill:none;stroke:#000000;stroke-linecap:square;stroke-linejoin:miter;stroke-width:0.8;"/>
   </g>
   <g id="patch_6">
    <path d="M 54 34.56 
L 388.8 34.56 
" style="fill:none;stroke:#000000;stroke-linecap:square;stroke-linejoin:miter;stroke-width:0.8;"/>
   </g>
   <g id="legend_1">
    <g id="patch_7">
     <path d="M 263.651563 221.532656 
L 380.05 221.532656 
Q 382.55 221.532656 382.55 219.032656 
L 382.55 43.31 
Q 382.55 40.81 380.05 40.81 
L 263.651563 40.81 
Q 261.151563 40.81 261.151563 43.31 
L 261.151563 219.032656 
Q 261.151563 221.532656 263.651563 221.532656 
z
" style="fill:#ffffff;opacity:0.8;stroke:#cccccc;stroke-linejoin:miter;"/>
    </g>
    <g id="line2d_39">
     <path d="M 266.151563 50.185 
L 291.151563 50.185 
" style="fill:none;stroke:#1f77b4;stroke-linecap:square;stroke-width:1.5;"/>
    </g>
    <g id="line2d_40"/>
    <g id="text_12">
     <!-- Py-BOBYQA0 -->
     <g transform="translate(301.151563 54.56)scale(0.125 -0.125)">
      <defs>
       <path d="M 20.515625 31 
L 20.515625 11.71875 
Q 20.515625 5.46875 21.875 3.953125 
Q 23.734375 1.8125 27.484375 1.8125 
L 30.03125 1.8125 
L 30.03125 0 
L 1.65625 0 
L 1.65625 1.8125 
L 4.15625 1.8125 
Q 8.34375 1.8125 10.15625 4.546875 
Q 11.140625 6.0625 11.140625 11.71875 
L 11.140625 54.5 
Q 11.140625 60.75 9.8125 62.25 
Q 7.90625 64.40625 4.15625 64.40625 
L 1.65625 64.40625 
L 1.65625 66.21875 
L 25.921875 66.21875 
Q 34.8125 66.21875 39.9375 64.375 
Q 45.0625 62.546875 48.578125 58.203125 
Q 52.09375 53.859375 52.09375 47.90625 
Q 52.09375 39.796875 46.75 34.71875 
Q 41.40625 29.640625 31.640625 29.640625 
Q 29.25 29.640625 26.46875 29.984375 
Q 23.6875 30.328125 20.515625 31 
z
M 20.515625 33.796875 
Q 23.09375 33.296875 25.09375 33.046875 
Q 27.09375 32.8125 28.515625 32.8125 
Q 33.59375 32.8125 37.28125 36.734375 
Q 40.96875 40.671875 40.96875 46.921875 
Q 40.96875 51.21875 39.203125 54.90625 
Q 37.453125 58.59375 34.21875 60.421875 
Q 31 62.25 26.90625 62.25 
Q 24.421875 62.25 20.515625 61.328125 
z
" id="TimesNewRomanPSMT-80"/>
       <path d="M 0.59375 44.734375 
L 21.4375 44.734375 
L 21.4375 42.921875 
L 20.40625 42.921875 
Q 18.21875 42.921875 17.109375 41.96875 
Q 16.015625 41.015625 16.015625 39.59375 
Q 16.015625 37.703125 17.625 34.328125 
L 28.515625 11.765625 
L 38.53125 36.46875 
Q 39.359375 38.484375 39.359375 40.4375 
Q 39.359375 41.3125 39.015625 41.75 
Q 38.625 42.28125 37.796875 42.59375 
Q 36.96875 42.921875 34.859375 42.921875 
L 34.859375 44.734375 
L 49.421875 44.734375 
L 49.421875 42.921875 
Q 47.609375 42.71875 46.625 42.125 
Q 45.65625 41.546875 44.484375 39.9375 
Q 44.046875 39.265625 42.828125 36.1875 
L 24.609375 -8.453125 
Q 21.96875 -14.9375 17.6875 -18.25 
Q 13.421875 -21.578125 9.46875 -21.578125 
Q 6.59375 -21.578125 4.734375 -19.921875 
Q 2.875 -18.265625 2.875 -16.109375 
Q 2.875 -14.0625 4.21875 -12.8125 
Q 5.5625 -11.578125 7.90625 -11.578125 
Q 9.515625 -11.578125 12.3125 -12.640625 
Q 14.265625 -13.375 14.75 -13.375 
Q 16.21875 -13.375 17.9375 -11.859375 
Q 19.671875 -10.359375 21.4375 -6 
L 24.609375 1.765625 
L 8.546875 35.5 
Q 7.8125 37.015625 6.203125 39.265625 
Q 4.984375 40.96875 4.203125 41.546875 
Q 3.078125 42.328125 0.59375 42.921875 
z
" id="TimesNewRomanPSMT-121"/>
       <path d="M 4.046875 26.125 
L 29.296875 26.125 
L 29.296875 18.75 
L 4.046875 18.75 
z
" id="TimesNewRomanPSMT-45"/>
       <path d="M 36.578125 67.71875 
Q 49.46875 67.71875 58.90625 57.921875 
Q 68.359375 48.140625 68.359375 33.5 
Q 68.359375 18.40625 58.828125 8.4375 
Q 49.3125 -1.515625 35.796875 -1.515625 
Q 22.125 -1.515625 12.8125 8.203125 
Q 3.515625 17.921875 3.515625 33.34375 
Q 3.515625 49.125 14.265625 59.078125 
Q 23.578125 67.71875 36.578125 67.71875 
z
M 35.640625 64.15625 
Q 26.765625 64.15625 21.390625 57.5625 
Q 14.703125 49.359375 14.703125 33.546875 
Q 14.703125 17.328125 21.625 8.59375 
Q 26.953125 1.953125 35.6875 1.953125 
Q 45.015625 1.953125 51.09375 9.21875 
Q 57.171875 16.5 57.171875 32.171875 
Q 57.171875 49.171875 50.484375 57.515625 
Q 45.125 64.15625 35.640625 64.15625 
z
" id="TimesNewRomanPSMT-79"/>
       <path d="M 47.65625 66.21875 
L 70.75 66.21875 
L 70.75 64.40625 
L 69.484375 64.40625 
Q 68.21875 64.40625 65.765625 63.28125 
Q 63.328125 62.15625 61.328125 60.046875 
Q 59.328125 57.953125 56.390625 53.21875 
L 40.4375 28.078125 
L 40.4375 11.46875 
Q 40.4375 5.375 41.796875 3.859375 
Q 43.65625 1.8125 47.65625 1.8125 
L 49.8125 1.8125 
L 49.8125 0 
L 21.6875 0 
L 21.6875 1.8125 
L 24.03125 1.8125 
Q 28.21875 1.8125 29.984375 4.34375 
Q 31.0625 5.90625 31.0625 11.46875 
L 31.0625 27.15625 
L 12.890625 54.890625 
Q 9.671875 59.765625 8.515625 60.984375 
Q 7.375 62.203125 3.765625 63.921875 
Q 2.78125 64.40625 0.921875 64.40625 
L 0.921875 66.21875 
L 29.25 66.21875 
L 29.25 64.40625 
L 27.78125 64.40625 
Q 25.484375 64.40625 23.546875 63.328125 
Q 21.625 62.25 21.625 60.109375 
Q 21.625 58.34375 24.609375 53.765625 
L 38.421875 32.421875 
L 51.421875 52.828125 
Q 54.34375 57.421875 54.34375 59.671875 
Q 54.34375 61.03125 53.640625 62.109375 
Q 52.9375 63.1875 51.609375 63.796875 
Q 50.296875 64.40625 47.65625 64.40625 
z
" id="TimesNewRomanPSMT-89"/>
       <path d="M 44.046875 -0.734375 
Q 49.03125 -9.328125 54.8125 -13.375 
Q 60.59375 -17.4375 67.96875 -18.015625 
L 67.96875 -19.578125 
Q 61.234375 -19.34375 53.5625 -16.875 
Q 45.90625 -14.40625 39.03125 -10.03125 
Q 32.171875 -5.671875 27.203125 -0.734375 
Q 20.171875 2.09375 16.0625 5.28125 
Q 10.109375 10.015625 6.8125 16.921875 
Q 3.515625 23.828125 3.515625 33.25 
Q 3.515625 48.09375 13.125 57.90625 
Q 22.75 67.71875 36.421875 67.71875 
Q 49.421875 67.71875 58.90625 57.875 
Q 68.40625 48.046875 68.40625 33.0625 
Q 68.40625 20.90625 61.640625 11.71875 
Q 54.890625 2.546875 44.046875 -0.734375 
z
M 35.84375 63.96875 
Q 26.953125 63.96875 21.53125 57.625 
Q 14.703125 49.65625 14.703125 33.25 
Q 14.703125 17.1875 21.625 8.5 
Q 27 1.8125 35.84375 1.8125 
Q 45.015625 1.8125 50.640625 8.5 
Q 57.234375 16.40625 57.234375 31.84375 
Q 57.234375 43.703125 53.609375 51.8125 
Q 50.828125 58.0625 46.21875 61.015625 
Q 41.609375 63.96875 35.84375 63.96875 
z
" id="TimesNewRomanPSMT-81"/>
       <path d="M 45.75 22.171875 
L 20.125 22.171875 
L 15.625 11.71875 
Q 13.96875 7.859375 13.96875 5.953125 
Q 13.96875 4.4375 15.40625 3.296875 
Q 16.84375 2.15625 21.625 1.8125 
L 21.625 0 
L 0.78125 0 
L 0.78125 1.8125 
Q 4.9375 2.546875 6.15625 3.71875 
Q 8.640625 6.0625 11.671875 13.234375 
L 34.96875 67.71875 
L 36.671875 67.71875 
L 59.71875 12.640625 
Q 62.5 6 64.765625 4.015625 
Q 67.046875 2.046875 71.09375 1.8125 
L 71.09375 0 
L 44.96875 0 
L 44.96875 1.8125 
Q 48.921875 2 50.3125 3.125 
Q 51.703125 4.25 51.703125 5.859375 
Q 51.703125 8.015625 49.75 12.640625 
z
M 44.390625 25.78125 
L 33.15625 52.546875 
L 21.625 25.78125 
z
" id="TimesNewRomanPSMT-65"/>
      </defs>
      <use xlink:href="#TimesNewRomanPSMT-80"/>
      <use x="55.615234" xlink:href="#TimesNewRomanPSMT-121"/>
      <use x="105.615234" xlink:href="#TimesNewRomanPSMT-45"/>
      <use x="138.916016" xlink:href="#TimesNewRomanPSMT-66"/>
      <use x="205.615234" xlink:href="#TimesNewRomanPSMT-79"/>
      <use x="277.832031" xlink:href="#TimesNewRomanPSMT-66"/>
      <use x="344.53125" xlink:href="#TimesNewRomanPSMT-89"/>
      <use x="416.748047" xlink:href="#TimesNewRomanPSMT-81"/>
      <use x="488.964844" xlink:href="#TimesNewRomanPSMT-65"/>
      <use x="561.181641" xlink:href="#TimesNewRomanPSMT-48"/>
     </g>
    </g>
    <g id="line2d_41">
     <path d="M 266.151563 67.882266 
L 291.151563 67.882266 
" style="fill:none;stroke:#ff7f0e;stroke-linecap:square;stroke-width:1.5;"/>
    </g>
    <g id="line2d_42"/>
    <g id="text_13">
     <!-- Py-BOBYQA1 -->
     <g transform="translate(301.151563 72.257266)scale(0.125 -0.125)">
      <use xlink:href="#TimesNewRomanPSMT-80"/>
      <use x="55.615234" xlink:href="#TimesNewRomanPSMT-121"/>
      <use x="105.615234" xlink:href="#TimesNewRomanPSMT-45"/>
      <use x="138.916016" xlink:href="#TimesNewRomanPSMT-66"/>
      <use x="205.615234" xlink:href="#TimesNewRomanPSMT-79"/>
      <use x="277.832031" xlink:href="#TimesNewRomanPSMT-66"/>
      <use x="344.53125" xlink:href="#TimesNewRomanPSMT-89"/>
      <use x="416.748047" xlink:href="#TimesNewRomanPSMT-81"/>
      <use x="488.964844" xlink:href="#TimesNewRomanPSMT-65"/>
      <use x="561.181641" xlink:href="#TimesNewRomanPSMT-49"/>
     </g>
    </g>
    <g id="line2d_43">
     <path d="M 266.151563 85.579531 
L 291.151563 85.579531 
" style="fill:none;stroke:#2ca02c;stroke-linecap:square;stroke-width:1.5;"/>
    </g>
    <g id="line2d_44"/>
    <g id="text_14">
     <!-- Py-BOBYQA2 -->
     <g transform="translate(301.151563 89.954531)scale(0.125 -0.125)">
      <use xlink:href="#TimesNewRomanPSMT-80"/>
      <use x="55.615234" xlink:href="#TimesNewRomanPSMT-121"/>
      <use x="105.615234" xlink:href="#TimesNewRomanPSMT-45"/>
      <use x="138.916016" xlink:href="#TimesNewRomanPSMT-66"/>
      <use x="205.615234" xlink:href="#TimesNewRomanPSMT-79"/>
      <use x="277.832031" xlink:href="#TimesNewRomanPSMT-66"/>
      <use x="344.53125" xlink:href="#TimesNewRomanPSMT-89"/>
      <use x="416.748047" xlink:href="#TimesNewRomanPSMT-81"/>
      <use x="488.964844" xlink:href="#TimesNewRomanPSMT-65"/>
      <use x="561.181641" xlink:href="#TimesNewRomanPSMT-50"/>
     </g>
    </g>
    <g id="line2d_45">
     <path d="M 266.151563 103.276797 
L 291.151563 103.276797 
" style="fill:none;stroke:#d62728;stroke-linecap:square;stroke-width:1.5;"/>
    </g>
    <g id="line2d_46"/>
    <g id="text_15">
     <!-- Py-BOBYQA3 -->
     <g transform="translate(301.151563 107.651797)scale(0.125 -0.125)">
      <defs>
       <path d="M 5.078125 53.609375 
Q 7.90625 60.296875 12.21875 63.9375 
Q 16.546875 67.578125 23 67.578125 
Q 30.953125 67.578125 35.203125 62.40625 
Q 38.421875 58.546875 38.421875 54.15625 
Q 38.421875 46.921875 29.34375 39.203125 
Q 35.453125 36.8125 38.578125 32.375 
Q 41.703125 27.9375 41.703125 21.921875 
Q 41.703125 13.328125 36.234375 7.03125 
Q 29.109375 -1.171875 15.578125 -1.171875 
Q 8.890625 -1.171875 6.46875 0.484375 
Q 4.046875 2.15625 4.046875 4.046875 
Q 4.046875 5.46875 5.1875 6.546875 
Q 6.34375 7.625 7.953125 7.625 
Q 9.1875 7.625 10.453125 7.234375 
Q 11.28125 6.984375 14.203125 5.4375 
Q 17.140625 3.90625 18.265625 3.609375 
Q 20.0625 3.078125 22.125 3.078125 
Q 27.09375 3.078125 30.78125 6.9375 
Q 34.46875 10.796875 34.46875 16.0625 
Q 34.46875 19.921875 32.765625 23.578125 
Q 31.5 26.3125 29.984375 27.734375 
Q 27.875 29.6875 24.21875 31.265625 
Q 20.5625 32.859375 16.75 32.859375 
L 15.1875 32.859375 
L 15.1875 34.328125 
Q 19.046875 34.8125 22.921875 37.109375 
Q 26.8125 39.40625 28.5625 42.625 
Q 30.328125 45.84375 30.328125 49.703125 
Q 30.328125 54.734375 27.171875 57.828125 
Q 24.03125 60.9375 19.34375 60.9375 
Q 11.765625 60.9375 6.6875 52.828125 
z
" id="TimesNewRomanPSMT-51"/>
      </defs>
      <use xlink:href="#TimesNewRomanPSMT-80"/>
      <use x="55.615234" xlink:href="#TimesNewRomanPSMT-121"/>
      <use x="105.615234" xlink:href="#TimesNewRomanPSMT-45"/>
      <use x="138.916016" xlink:href="#TimesNewRomanPSMT-66"/>
      <use x="205.615234" xlink:href="#TimesNewRomanPSMT-79"/>
      <use x="277.832031" xlink:href="#TimesNewRomanPSMT-66"/>
      <use x="344.53125" xlink:href="#TimesNewRomanPSMT-89"/>
      <use x="416.748047" xlink:href="#TimesNewRomanPSMT-81"/>
      <use x="488.964844" xlink:href="#TimesNewRomanPSMT-65"/>
      <use x="561.181641" xlink:href="#TimesNewRomanPSMT-51"/>
     </g>
    </g>
    <g id="line2d_47">
     <path d="M 266.151563 120.974063 
L 291.151563 120.974063 
" style="fill:none;stroke:#9467bd;stroke-linecap:square;stroke-width:1.5;"/>
    </g>
    <g id="line2d_48"/>
    <g id="text_16">
     <!-- Py-BOBYQA4 -->
     <g transform="translate(301.151563 125.349063)scale(0.125 -0.125)">
      <use xlink:href="#TimesNewRomanPSMT-80"/>
      <use x="55.615234" xlink:href="#TimesNewRomanPSMT-121"/>
      <use x="105.615234" xlink:href="#TimesNewRomanPSMT-45"/>
      <use x="138.916016" xlink:href="#TimesNewRomanPSMT-66"/>
      <use x="205.615234" xlink:href="#TimesNewRomanPSMT-79"/>
      <use x="277.832031" xlink:href="#TimesNewRomanPSMT-66"/>
      <use x="344.53125" xlink:href="#TimesNewRomanPSMT-89"/>
      <use x="416.748047" xlink:href="#TimesNewRomanPSMT-81"/>
      <use x="488.964844" xlink:href="#TimesNewRomanPSMT-65"/>
      <use x="561.181641" xlink:href="#TimesNewRomanPSMT-52"/>
     </g>
    </g>
    <g id="line2d_49">
     <path d="M 266.151563 138.671328 
L 291.151563 138.671328 
" style="fill:none;stroke:#8c564b;stroke-linecap:square;stroke-width:1.5;"/>
    </g>
    <g id="line2d_50"/>
    <g id="text_17">
     <!-- Py-BOBYQA5 -->
     <g transform="translate(301.151563 143.046328)scale(0.125 -0.125)">
      <defs>
       <path d="M 43.40625 66.21875 
L 39.59375 57.90625 
L 19.671875 57.90625 
L 15.328125 49.03125 
Q 28.265625 47.125 35.84375 39.40625 
Q 42.328125 32.765625 42.328125 23.78125 
Q 42.328125 18.5625 40.203125 14.109375 
Q 38.09375 9.671875 34.859375 6.546875 
Q 31.640625 3.421875 27.6875 1.515625 
Q 22.078125 -1.171875 16.15625 -1.171875 
Q 10.203125 -1.171875 7.484375 0.84375 
Q 4.78125 2.875 4.78125 5.328125 
Q 4.78125 6.6875 5.90625 7.734375 
Q 7.03125 8.796875 8.734375 8.796875 
Q 10.015625 8.796875 10.96875 8.40625 
Q 11.921875 8.015625 14.203125 6.390625 
Q 17.875 3.859375 21.625 3.859375 
Q 27.34375 3.859375 31.65625 8.171875 
Q 35.984375 12.5 35.984375 18.703125 
Q 35.984375 24.703125 32.125 29.90625 
Q 28.265625 35.109375 21.484375 37.9375 
Q 16.15625 40.140625 6.984375 40.484375 
L 19.671875 66.21875 
z
" id="TimesNewRomanPSMT-53"/>
      </defs>
      <use xlink:href="#TimesNewRomanPSMT-80"/>
      <use x="55.615234" xlink:href="#TimesNewRomanPSMT-121"/>
      <use x="105.615234" xlink:href="#TimesNewRomanPSMT-45"/>
      <use x="138.916016" xlink:href="#TimesNewRomanPSMT-66"/>
      <use x="205.615234" xlink:href="#TimesNewRomanPSMT-79"/>
      <use x="277.832031" xlink:href="#TimesNewRomanPSMT-66"/>
      <use x="344.53125" xlink:href="#TimesNewRomanPSMT-89"/>
      <use x="416.748047" xlink:href="#TimesNewRomanPSMT-81"/>
      <use x="488.964844" xlink:href="#TimesNewRomanPSMT-65"/>
      <use x="561.181641" xlink:href="#TimesNewRomanPSMT-53"/>
     </g>
    </g>
    <g id="line2d_51">
     <path d="M 266.151563 156.368594 
L 291.151563 156.368594 
" style="fill:none;stroke:#e377c2;stroke-linecap:square;stroke-width:1.5;"/>
    </g>
    <g id="line2d_52"/>
    <g id="text_18">
     <!-- Py-BOBYQA6 -->
     <g transform="translate(301.151563 160.743594)scale(0.125 -0.125)">
      <use xlink:href="#TimesNewRomanPSMT-80"/>
      <use x="55.615234" xlink:href="#TimesNewRomanPSMT-121"/>
      <use x="105.615234" xlink:href="#TimesNewRomanPSMT-45"/>
      <use x="138.916016" xlink:href="#TimesNewRomanPSMT-66"/>
      <use x="205.615234" xlink:href="#TimesNewRomanPSMT-79"/>
      <use x="277.832031" xlink:href="#TimesNewRomanPSMT-66"/>
      <use x="344.53125" xlink:href="#TimesNewRomanPSMT-89"/>
      <use x="416.748047" xlink:href="#TimesNewRomanPSMT-81"/>
      <use x="488.964844" xlink:href="#TimesNewRomanPSMT-65"/>
      <use x="561.181641" xlink:href="#TimesNewRomanPSMT-54"/>
     </g>
    </g>
    <g id="line2d_53">
     <path d="M 266.151563 174.065859 
L 291.151563 174.065859 
" style="fill:none;stroke:#7f7f7f;stroke-linecap:square;stroke-width:1.5;"/>
    </g>
    <g id="line2d_54"/>
    <g id="text_19">
     <!-- Py-BOBYQA7 -->
     <g transform="translate(301.151563 178.440859)scale(0.125 -0.125)">
      <defs>
       <path d="M 10.0625 66.21875 
L 45.5625 66.21875 
L 45.5625 64.359375 
L 23.484375 -1.375 
L 18.015625 -1.375 
L 37.796875 58.25 
L 19.578125 58.25 
Q 14.0625 58.25 11.71875 56.9375 
Q 7.625 54.6875 5.125 50 
L 3.71875 50.53125 
z
" id="TimesNewRomanPSMT-55"/>
      </defs>
      <use xlink:href="#TimesNewRomanPSMT-80"/>
      <use x="55.615234" xlink:href="#TimesNewRomanPSMT-121"/>
      <use x="105.615234" xlink:href="#TimesNewRomanPSMT-45"/>
      <use x="138.916016" xlink:href="#TimesNewRomanPSMT-66"/>
      <use x="205.615234" xlink:href="#TimesNewRomanPSMT-79"/>
      <use x="277.832031" xlink:href="#TimesNewRomanPSMT-66"/>
      <use x="344.53125" xlink:href="#TimesNewRomanPSMT-89"/>
      <use x="416.748047" xlink:href="#TimesNewRomanPSMT-81"/>
      <use x="488.964844" xlink:href="#TimesNewRomanPSMT-65"/>
      <use x="561.181641" xlink:href="#TimesNewRomanPSMT-55"/>
     </g>
    </g>
    <g id="line2d_55">
     <path d="M 266.151563 191.763125 
L 291.151563 191.763125 
" style="fill:none;stroke:#bcbd22;stroke-linecap:square;stroke-width:1.5;"/>
    </g>
    <g id="line2d_56"/>
    <g id="text_20">
     <!-- Py-BOBYQA8 -->
     <g transform="translate(301.151563 196.138125)scale(0.125 -0.125)">
      <use xlink:href="#TimesNewRomanPSMT-80"/>
      <use x="55.615234" xlink:href="#TimesNewRomanPSMT-121"/>
      <use x="105.615234" xlink:href="#TimesNewRomanPSMT-45"/>
      <use x="138.916016" xlink:href="#TimesNewRomanPSMT-66"/>
      <use x="205.615234" xlink:href="#TimesNewRomanPSMT-79"/>
      <use x="277.832031" xlink:href="#TimesNewRomanPSMT-66"/>
      <use x="344.53125" xlink:href="#TimesNewRomanPSMT-89"/>
      <use x="416.748047" xlink:href="#TimesNewRomanPSMT-81"/>
      <use x="488.964844" xlink:href="#TimesNewRomanPSMT-65"/>
      <use x="561.181641" xlink:href="#TimesNewRomanPSMT-56"/>
     </g>
    </g>
    <g id="line2d_57">
     <path d="M 266.151563 209.460391 
L 291.151563 209.460391 
" style="fill:none;stroke:#17becf;stroke-linecap:square;stroke-width:1.5;"/>
    </g>
    <g id="line2d_58"/>
    <g id="text_21">
     <!-- Py-BOBYQA9 -->
     <g transform="translate(301.151563 213.835391)scale(0.125 -0.125)">
      <defs>
       <path d="M 5.28125 -1.375 
L 5.28125 0.4375 
Q 11.625 0.53125 17.09375 3.390625 
Q 22.5625 6.25 27.65625 13.375 
Q 32.765625 20.515625 34.765625 29.046875 
Q 27.09375 24.125 20.90625 24.125 
Q 13.921875 24.125 8.9375 29.515625 
Q 3.953125 34.90625 3.953125 43.84375 
Q 3.953125 52.546875 8.9375 59.328125 
Q 14.9375 67.578125 24.609375 67.578125 
Q 32.765625 67.578125 38.578125 60.84375 
Q 45.703125 52.484375 45.703125 40.234375 
Q 45.703125 29.203125 40.28125 19.65625 
Q 34.859375 10.109375 25.203125 3.8125 
Q 17.328125 -1.375 8.0625 -1.375 
z
M 35.546875 32.671875 
Q 36.421875 39.015625 36.421875 42.828125 
Q 36.421875 47.5625 34.8125 53.046875 
Q 33.203125 58.546875 30.25 61.46875 
Q 27.296875 64.40625 23.53125 64.40625 
Q 19.1875 64.40625 15.90625 60.5 
Q 12.640625 56.59375 12.640625 48.875 
Q 12.640625 38.578125 17 32.765625 
Q 20.171875 28.5625 24.8125 28.5625 
Q 27.046875 28.5625 30.125 29.640625 
Q 33.203125 30.71875 35.546875 32.671875 
z
" id="TimesNewRomanPSMT-57"/>
      </defs>
      <use xlink:href="#TimesNewRomanPSMT-80"/>
      <use x="55.615234" xlink:href="#TimesNewRomanPSMT-121"/>
      <use x="105.615234" xlink:href="#TimesNewRomanPSMT-45"/>
      <use x="138.916016" xlink:href="#TimesNewRomanPSMT-66"/>
      <use x="205.615234" xlink:href="#TimesNewRomanPSMT-79"/>
      <use x="277.832031" xlink:href="#TimesNewRomanPSMT-66"/>
      <use x="344.53125" xlink:href="#TimesNewRomanPSMT-89"/>
      <use x="416.748047" xlink:href="#TimesNewRomanPSMT-81"/>
      <use x="488.964844" xlink:href="#TimesNewRomanPSMT-65"/>
      <use x="561.181641" xlink:href="#TimesNewRomanPSMT-57"/>
     </g>
    </g>
   </g>
  </g>
 </g>
 <defs>
  <clipPath id="p98b3fc64d1">
   <rect height="217.44" width="334.8" x="54" y="34.56"/>
  </clipPath>
 </defs>
</svg>
