<?xml version="1.0" encoding="utf-8" standalone="no"?>
<!DOCTYPE svg PUBLIC "-//W3C//DTD SVG 1.1//EN"
  "http://www.w3.org/Graphics/SVG/1.1/DTD/svg11.dtd">
<!-- Created with matplotlib (https://matplotlib.org/) -->
<svg height="288pt" version="1.1" viewBox="0 0 432 288" width="432pt" xmlns="http://www.w3.org/2000/svg" xmlns:xlink="http://www.w3.org/1999/xlink">
 <metadata>
  <rdf:RDF xmlns:cc="http://creativecommons.org/ns#" xmlns:dc="http://purl.org/dc/elements/1.1/" xmlns:rdf="http://www.w3.org/1999/02/22-rdf-syntax-ns#">
   <cc:Work>
    <dc:type rdf:resource="http://purl.org/dc/dcmitype/StillImage"/>
    <dc:date>2021-04-09T17:44:47.296226</dc:date>
    <dc:format>image/svg+xml</dc:format>
    <dc:creator>
     <cc:Agent>
      <dc:title>Matplotlib v3.3.4, https://matplotlib.org/</dc:title>
     </cc:Agent>
    </dc:creator>
   </cc:Work>
  </rdf:RDF>
 </metadata>
 <defs>
  <style type="text/css">*{stroke-linecap:butt;stroke-linejoin:round;}</style>
 </defs>
 <g id="figure_1">
  <g id="patch_1">
   <path d="M 0 288 
L 432 288 
L 432 0 
L 0 0 
z
" style="fill:#ffffff;"/>
  </g>
  <g id="axes_1">
   <g id="patch_2">
    <path d="M 54 252 
L 388.8 252 
L 388.8 34.56 
L 54 34.56 
z
" style="fill:#ffffff;"/>
   </g>
   <g id="matplotlib.axis_1">
    <g id="xtick_1">
     <g id="line2d_1">
      <defs>
       <path d="M 0 0 
L 0 3.5 
" id="m6c5e6705ee" style="stroke:#000000;stroke-width:0.8;"/>
      </defs>
      <g>
       <use style="stroke:#000000;stroke-width:0.8;" x="114.07177" xlink:href="#m6c5e6705ee" y="252"/>
      </g>
     </g>
     <g id="text_1">
      <!-- 20 -->
      <g transform="translate(107.70927 266.598437)scale(0.1 -0.1)">
       <defs>
        <path d="M 19.1875 8.296875 
L 53.609375 8.296875 
L 53.609375 0 
L 7.328125 0 
L 7.328125 8.296875 
Q 12.9375 14.109375 22.625 23.890625 
Q 32.328125 33.6875 34.8125 36.53125 
Q 39.546875 41.84375 41.421875 45.53125 
Q 43.3125 49.21875 43.3125 52.78125 
Q 43.3125 58.59375 39.234375 62.25 
Q 35.15625 65.921875 28.609375 65.921875 
Q 23.96875 65.921875 18.8125 64.3125 
Q 13.671875 62.703125 7.8125 59.421875 
L 7.8125 69.390625 
Q 13.765625 71.78125 18.9375 73 
Q 24.125 74.21875 28.421875 74.21875 
Q 39.75 74.21875 46.484375 68.546875 
Q 53.21875 62.890625 53.21875 53.421875 
Q 53.21875 48.921875 51.53125 44.890625 
Q 49.859375 40.875 45.40625 35.40625 
Q 44.1875 33.984375 37.640625 27.21875 
Q 31.109375 20.453125 19.1875 8.296875 
z
" id="DejaVuSans-50"/>
        <path d="M 31.78125 66.40625 
Q 24.171875 66.40625 20.328125 58.90625 
Q 16.5 51.421875 16.5 36.375 
Q 16.5 21.390625 20.328125 13.890625 
Q 24.171875 6.390625 31.78125 6.390625 
Q 39.453125 6.390625 43.28125 13.890625 
Q 47.125 21.390625 47.125 36.375 
Q 47.125 51.421875 43.28125 58.90625 
Q 39.453125 66.40625 31.78125 66.40625 
z
M 31.78125 74.21875 
Q 44.046875 74.21875 50.515625 64.515625 
Q 56.984375 54.828125 56.984375 36.375 
Q 56.984375 17.96875 50.515625 8.265625 
Q 44.046875 -1.421875 31.78125 -1.421875 
Q 19.53125 -1.421875 13.0625 8.265625 
Q 6.59375 17.96875 6.59375 36.375 
Q 6.59375 54.828125 13.0625 64.515625 
Q 19.53125 74.21875 31.78125 74.21875 
z
" id="DejaVuSans-48"/>
       </defs>
       <use xlink:href="#DejaVuSans-50"/>
       <use x="63.623047" xlink:href="#DejaVuSans-48"/>
      </g>
     </g>
    </g>
    <g id="xtick_2">
     <g id="line2d_2">
      <g>
       <use style="stroke:#000000;stroke-width:0.8;" x="178.148325" xlink:href="#m6c5e6705ee" y="252"/>
      </g>
     </g>
     <g id="text_2">
      <!-- 40 -->
      <g transform="translate(171.785825 266.598437)scale(0.1 -0.1)">
       <defs>
        <path d="M 37.796875 64.3125 
L 12.890625 25.390625 
L 37.796875 25.390625 
z
M 35.203125 72.90625 
L 47.609375 72.90625 
L 47.609375 25.390625 
L 58.015625 25.390625 
L 58.015625 17.1875 
L 47.609375 17.1875 
L 47.609375 0 
L 37.796875 0 
L 37.796875 17.1875 
L 4.890625 17.1875 
L 4.890625 26.703125 
z
" id="DejaVuSans-52"/>
       </defs>
       <use xlink:href="#DejaVuSans-52"/>
       <use x="63.623047" xlink:href="#DejaVuSans-48"/>
      </g>
     </g>
    </g>
    <g id="xtick_3">
     <g id="line2d_3">
      <g>
       <use style="stroke:#000000;stroke-width:0.8;" x="242.22488" xlink:href="#m6c5e6705ee" y="252"/>
      </g>
     </g>
     <g id="text_3">
      <!-- 60 -->
      <g transform="translate(235.86238 266.598437)scale(0.1 -0.1)">
       <defs>
        <path d="M 33.015625 40.375 
Q 26.375 40.375 22.484375 35.828125 
Q 18.609375 31.296875 18.609375 23.390625 
Q 18.609375 15.53125 22.484375 10.953125 
Q 26.375 6.390625 33.015625 6.390625 
Q 39.65625 6.390625 43.53125 10.953125 
Q 47.40625 15.53125 47.40625 23.390625 
Q 47.40625 31.296875 43.53125 35.828125 
Q 39.65625 40.375 33.015625 40.375 
z
M 52.59375 71.296875 
L 52.59375 62.3125 
Q 48.875 64.0625 45.09375 64.984375 
Q 41.3125 65.921875 37.59375 65.921875 
Q 27.828125 65.921875 22.671875 59.328125 
Q 17.53125 52.734375 16.796875 39.40625 
Q 19.671875 43.65625 24.015625 45.921875 
Q 28.375 48.1875 33.59375 48.1875 
Q 44.578125 48.1875 50.953125 41.515625 
Q 57.328125 34.859375 57.328125 23.390625 
Q 57.328125 12.15625 50.6875 5.359375 
Q 44.046875 -1.421875 33.015625 -1.421875 
Q 20.359375 -1.421875 13.671875 8.265625 
Q 6.984375 17.96875 6.984375 36.375 
Q 6.984375 53.65625 15.1875 63.9375 
Q 23.390625 74.21875 37.203125 74.21875 
Q 40.921875 74.21875 44.703125 73.484375 
Q 48.484375 72.75 52.59375 71.296875 
z
" id="DejaVuSans-54"/>
       </defs>
       <use xlink:href="#DejaVuSans-54"/>
       <use x="63.623047" xlink:href="#DejaVuSans-48"/>
      </g>
     </g>
    </g>
    <g id="xtick_4">
     <g id="line2d_4">
      <g>
       <use style="stroke:#000000;stroke-width:0.8;" x="306.301435" xlink:href="#m6c5e6705ee" y="252"/>
      </g>
     </g>
     <g id="text_4">
      <!-- 80 -->
      <g transform="translate(299.938935 266.598437)scale(0.1 -0.1)">
       <defs>
        <path d="M 31.78125 34.625 
Q 24.75 34.625 20.71875 30.859375 
Q 16.703125 27.09375 16.703125 20.515625 
Q 16.703125 13.921875 20.71875 10.15625 
Q 24.75 6.390625 31.78125 6.390625 
Q 38.8125 6.390625 42.859375 10.171875 
Q 46.921875 13.96875 46.921875 20.515625 
Q 46.921875 27.09375 42.890625 30.859375 
Q 38.875 34.625 31.78125 34.625 
z
M 21.921875 38.8125 
Q 15.578125 40.375 12.03125 44.71875 
Q 8.5 49.078125 8.5 55.328125 
Q 8.5 64.0625 14.71875 69.140625 
Q 20.953125 74.21875 31.78125 74.21875 
Q 42.671875 74.21875 48.875 69.140625 
Q 55.078125 64.0625 55.078125 55.328125 
Q 55.078125 49.078125 51.53125 44.71875 
Q 48 40.375 41.703125 38.8125 
Q 48.828125 37.15625 52.796875 32.3125 
Q 56.78125 27.484375 56.78125 20.515625 
Q 56.78125 9.90625 50.3125 4.234375 
Q 43.84375 -1.421875 31.78125 -1.421875 
Q 19.734375 -1.421875 13.25 4.234375 
Q 6.78125 9.90625 6.78125 20.515625 
Q 6.78125 27.484375 10.78125 32.3125 
Q 14.796875 37.15625 21.921875 38.8125 
z
M 18.3125 54.390625 
Q 18.3125 48.734375 21.84375 45.5625 
Q 25.390625 42.390625 31.78125 42.390625 
Q 38.140625 42.390625 41.71875 45.5625 
Q 45.3125 48.734375 45.3125 54.390625 
Q 45.3125 60.0625 41.71875 63.234375 
Q 38.140625 66.40625 31.78125 66.40625 
Q 25.390625 66.40625 21.84375 63.234375 
Q 18.3125 60.0625 18.3125 54.390625 
z
" id="DejaVuSans-56"/>
       </defs>
       <use xlink:href="#DejaVuSans-56"/>
       <use x="63.623047" xlink:href="#DejaVuSans-48"/>
      </g>
     </g>
    </g>
    <g id="xtick_5">
     <g id="line2d_5">
      <g>
       <use style="stroke:#000000;stroke-width:0.8;" x="370.37799" xlink:href="#m6c5e6705ee" y="252"/>
      </g>
     </g>
     <g id="text_5">
      <!-- 100 -->
      <g transform="translate(360.83424 266.598437)scale(0.1 -0.1)">
       <defs>
        <path d="M 12.40625 8.296875 
L 28.515625 8.296875 
L 28.515625 63.921875 
L 10.984375 60.40625 
L 10.984375 69.390625 
L 28.421875 72.90625 
L 38.28125 72.90625 
L 38.28125 8.296875 
L 54.390625 8.296875 
L 54.390625 0 
L 12.40625 0 
z
" id="DejaVuSans-49"/>
       </defs>
       <use xlink:href="#DejaVuSans-49"/>
       <use x="63.623047" xlink:href="#DejaVuSans-48"/>
       <use x="127.246094" xlink:href="#DejaVuSans-48"/>
      </g>
     </g>
    </g>
    <g id="text_6">
     <!-- Nbr. of function evaluations -->
     <g transform="translate(152.382031 280.276563)scale(0.1 -0.1)">
      <defs>
       <path d="M 9.8125 72.90625 
L 23.09375 72.90625 
L 55.421875 11.921875 
L 55.421875 72.90625 
L 64.984375 72.90625 
L 64.984375 0 
L 51.703125 0 
L 19.390625 60.984375 
L 19.390625 0 
L 9.8125 0 
z
" id="DejaVuSans-78"/>
       <path d="M 48.6875 27.296875 
Q 48.6875 37.203125 44.609375 42.84375 
Q 40.53125 48.484375 33.40625 48.484375 
Q 26.265625 48.484375 22.1875 42.84375 
Q 18.109375 37.203125 18.109375 27.296875 
Q 18.109375 17.390625 22.1875 11.75 
Q 26.265625 6.109375 33.40625 6.109375 
Q 40.53125 6.109375 44.609375 11.75 
Q 48.6875 17.390625 48.6875 27.296875 
z
M 18.109375 46.390625 
Q 20.953125 51.265625 25.265625 53.625 
Q 29.59375 56 35.59375 56 
Q 45.5625 56 51.78125 48.09375 
Q 58.015625 40.1875 58.015625 27.296875 
Q 58.015625 14.40625 51.78125 6.484375 
Q 45.5625 -1.421875 35.59375 -1.421875 
Q 29.59375 -1.421875 25.265625 0.953125 
Q 20.953125 3.328125 18.109375 8.203125 
L 18.109375 0 
L 9.078125 0 
L 9.078125 75.984375 
L 18.109375 75.984375 
z
" id="DejaVuSans-98"/>
       <path d="M 41.109375 46.296875 
Q 39.59375 47.171875 37.8125 47.578125 
Q 36.03125 48 33.890625 48 
Q 26.265625 48 22.1875 43.046875 
Q 18.109375 38.09375 18.109375 28.8125 
L 18.109375 0 
L 9.078125 0 
L 9.078125 54.6875 
L 18.109375 54.6875 
L 18.109375 46.1875 
Q 20.953125 51.171875 25.484375 53.578125 
Q 30.03125 56 36.53125 56 
Q 37.453125 56 38.578125 55.875 
Q 39.703125 55.765625 41.0625 55.515625 
z
" id="DejaVuSans-114"/>
       <path d="M 10.6875 12.40625 
L 21 12.40625 
L 21 0 
L 10.6875 0 
z
" id="DejaVuSans-46"/>
       <path id="DejaVuSans-32"/>
       <path d="M 30.609375 48.390625 
Q 23.390625 48.390625 19.1875 42.75 
Q 14.984375 37.109375 14.984375 27.296875 
Q 14.984375 17.484375 19.15625 11.84375 
Q 23.34375 6.203125 30.609375 6.203125 
Q 37.796875 6.203125 41.984375 11.859375 
Q 46.1875 17.53125 46.1875 27.296875 
Q 46.1875 37.015625 41.984375 42.703125 
Q 37.796875 48.390625 30.609375 48.390625 
z
M 30.609375 56 
Q 42.328125 56 49.015625 48.375 
Q 55.71875 40.765625 55.71875 27.296875 
Q 55.71875 13.875 49.015625 6.21875 
Q 42.328125 -1.421875 30.609375 -1.421875 
Q 18.84375 -1.421875 12.171875 6.21875 
Q 5.515625 13.875 5.515625 27.296875 
Q 5.515625 40.765625 12.171875 48.375 
Q 18.84375 56 30.609375 56 
z
" id="DejaVuSans-111"/>
       <path d="M 37.109375 75.984375 
L 37.109375 68.5 
L 28.515625 68.5 
Q 23.6875 68.5 21.796875 66.546875 
Q 19.921875 64.59375 19.921875 59.515625 
L 19.921875 54.6875 
L 34.71875 54.6875 
L 34.71875 47.703125 
L 19.921875 47.703125 
L 19.921875 0 
L 10.890625 0 
L 10.890625 47.703125 
L 2.296875 47.703125 
L 2.296875 54.6875 
L 10.890625 54.6875 
L 10.890625 58.5 
Q 10.890625 67.625 15.140625 71.796875 
Q 19.390625 75.984375 28.609375 75.984375 
z
" id="DejaVuSans-102"/>
       <path d="M 8.5 21.578125 
L 8.5 54.6875 
L 17.484375 54.6875 
L 17.484375 21.921875 
Q 17.484375 14.15625 20.5 10.265625 
Q 23.53125 6.390625 29.59375 6.390625 
Q 36.859375 6.390625 41.078125 11.03125 
Q 45.3125 15.671875 45.3125 23.6875 
L 45.3125 54.6875 
L 54.296875 54.6875 
L 54.296875 0 
L 45.3125 0 
L 45.3125 8.40625 
Q 42.046875 3.421875 37.71875 1 
Q 33.40625 -1.421875 27.6875 -1.421875 
Q 18.265625 -1.421875 13.375 4.4375 
Q 8.5 10.296875 8.5 21.578125 
z
M 31.109375 56 
z
" id="DejaVuSans-117"/>
       <path d="M 54.890625 33.015625 
L 54.890625 0 
L 45.90625 0 
L 45.90625 32.71875 
Q 45.90625 40.484375 42.875 44.328125 
Q 39.84375 48.1875 33.796875 48.1875 
Q 26.515625 48.1875 22.3125 43.546875 
Q 18.109375 38.921875 18.109375 30.90625 
L 18.109375 0 
L 9.078125 0 
L 9.078125 54.6875 
L 18.109375 54.6875 
L 18.109375 46.1875 
Q 21.34375 51.125 25.703125 53.5625 
Q 30.078125 56 35.796875 56 
Q 45.21875 56 50.046875 50.171875 
Q 54.890625 44.34375 54.890625 33.015625 
z
" id="DejaVuSans-110"/>
       <path d="M 48.78125 52.59375 
L 48.78125 44.1875 
Q 44.96875 46.296875 41.140625 47.34375 
Q 37.3125 48.390625 33.40625 48.390625 
Q 24.65625 48.390625 19.8125 42.84375 
Q 14.984375 37.3125 14.984375 27.296875 
Q 14.984375 17.28125 19.8125 11.734375 
Q 24.65625 6.203125 33.40625 6.203125 
Q 37.3125 6.203125 41.140625 7.25 
Q 44.96875 8.296875 48.78125 10.40625 
L 48.78125 2.09375 
Q 45.015625 0.34375 40.984375 -0.53125 
Q 36.96875 -1.421875 32.421875 -1.421875 
Q 20.0625 -1.421875 12.78125 6.34375 
Q 5.515625 14.109375 5.515625 27.296875 
Q 5.515625 40.671875 12.859375 48.328125 
Q 20.21875 56 33.015625 56 
Q 37.15625 56 41.109375 55.140625 
Q 45.0625 54.296875 48.78125 52.59375 
z
" id="DejaVuSans-99"/>
       <path d="M 18.3125 70.21875 
L 18.3125 54.6875 
L 36.8125 54.6875 
L 36.8125 47.703125 
L 18.3125 47.703125 
L 18.3125 18.015625 
Q 18.3125 11.328125 20.140625 9.421875 
Q 21.96875 7.515625 27.59375 7.515625 
L 36.8125 7.515625 
L 36.8125 0 
L 27.59375 0 
Q 17.1875 0 13.234375 3.875 
Q 9.28125 7.765625 9.28125 18.015625 
L 9.28125 47.703125 
L 2.6875 47.703125 
L 2.6875 54.6875 
L 9.28125 54.6875 
L 9.28125 70.21875 
z
" id="DejaVuSans-116"/>
       <path d="M 9.421875 54.6875 
L 18.40625 54.6875 
L 18.40625 0 
L 9.421875 0 
z
M 9.421875 75.984375 
L 18.40625 75.984375 
L 18.40625 64.59375 
L 9.421875 64.59375 
z
" id="DejaVuSans-105"/>
       <path d="M 56.203125 29.59375 
L 56.203125 25.203125 
L 14.890625 25.203125 
Q 15.484375 15.921875 20.484375 11.0625 
Q 25.484375 6.203125 34.421875 6.203125 
Q 39.59375 6.203125 44.453125 7.46875 
Q 49.3125 8.734375 54.109375 11.28125 
L 54.109375 2.78125 
Q 49.265625 0.734375 44.1875 -0.34375 
Q 39.109375 -1.421875 33.890625 -1.421875 
Q 20.796875 -1.421875 13.15625 6.1875 
Q 5.515625 13.8125 5.515625 26.8125 
Q 5.515625 40.234375 12.765625 48.109375 
Q 20.015625 56 32.328125 56 
Q 43.359375 56 49.78125 48.890625 
Q 56.203125 41.796875 56.203125 29.59375 
z
M 47.21875 32.234375 
Q 47.125 39.59375 43.09375 43.984375 
Q 39.0625 48.390625 32.421875 48.390625 
Q 24.90625 48.390625 20.390625 44.140625 
Q 15.875 39.890625 15.1875 32.171875 
z
" id="DejaVuSans-101"/>
       <path d="M 2.984375 54.6875 
L 12.5 54.6875 
L 29.59375 8.796875 
L 46.6875 54.6875 
L 56.203125 54.6875 
L 35.6875 0 
L 23.484375 0 
z
" id="DejaVuSans-118"/>
       <path d="M 34.28125 27.484375 
Q 23.390625 27.484375 19.1875 25 
Q 14.984375 22.515625 14.984375 16.5 
Q 14.984375 11.71875 18.140625 8.90625 
Q 21.296875 6.109375 26.703125 6.109375 
Q 34.1875 6.109375 38.703125 11.40625 
Q 43.21875 16.703125 43.21875 25.484375 
L 43.21875 27.484375 
z
M 52.203125 31.203125 
L 52.203125 0 
L 43.21875 0 
L 43.21875 8.296875 
Q 40.140625 3.328125 35.546875 0.953125 
Q 30.953125 -1.421875 24.3125 -1.421875 
Q 15.921875 -1.421875 10.953125 3.296875 
Q 6 8.015625 6 15.921875 
Q 6 25.140625 12.171875 29.828125 
Q 18.359375 34.515625 30.609375 34.515625 
L 43.21875 34.515625 
L 43.21875 35.40625 
Q 43.21875 41.609375 39.140625 45 
Q 35.0625 48.390625 27.6875 48.390625 
Q 23 48.390625 18.546875 47.265625 
Q 14.109375 46.140625 10.015625 43.890625 
L 10.015625 52.203125 
Q 14.9375 54.109375 19.578125 55.046875 
Q 24.21875 56 28.609375 56 
Q 40.484375 56 46.34375 49.84375 
Q 52.203125 43.703125 52.203125 31.203125 
z
" id="DejaVuSans-97"/>
       <path d="M 9.421875 75.984375 
L 18.40625 75.984375 
L 18.40625 0 
L 9.421875 0 
z
" id="DejaVuSans-108"/>
       <path d="M 44.28125 53.078125 
L 44.28125 44.578125 
Q 40.484375 46.53125 36.375 47.5 
Q 32.28125 48.484375 27.875 48.484375 
Q 21.1875 48.484375 17.84375 46.4375 
Q 14.5 44.390625 14.5 40.28125 
Q 14.5 37.15625 16.890625 35.375 
Q 19.28125 33.59375 26.515625 31.984375 
L 29.59375 31.296875 
Q 39.15625 29.25 43.1875 25.515625 
Q 47.21875 21.78125 47.21875 15.09375 
Q 47.21875 7.46875 41.1875 3.015625 
Q 35.15625 -1.421875 24.609375 -1.421875 
Q 20.21875 -1.421875 15.453125 -0.5625 
Q 10.6875 0.296875 5.421875 2 
L 5.421875 11.28125 
Q 10.40625 8.6875 15.234375 7.390625 
Q 20.0625 6.109375 24.8125 6.109375 
Q 31.15625 6.109375 34.5625 8.28125 
Q 37.984375 10.453125 37.984375 14.40625 
Q 37.984375 18.0625 35.515625 20.015625 
Q 33.0625 21.96875 24.703125 23.78125 
L 21.578125 24.515625 
Q 13.234375 26.265625 9.515625 29.90625 
Q 5.8125 33.546875 5.8125 39.890625 
Q 5.8125 47.609375 11.28125 51.796875 
Q 16.75 56 26.8125 56 
Q 31.78125 56 36.171875 55.265625 
Q 40.578125 54.546875 44.28125 53.078125 
z
" id="DejaVuSans-115"/>
      </defs>
      <use xlink:href="#DejaVuSans-78"/>
      <use x="74.804688" xlink:href="#DejaVuSans-98"/>
      <use x="138.28125" xlink:href="#DejaVuSans-114"/>
      <use x="170.269531" xlink:href="#DejaVuSans-46"/>
      <use x="202.056641" xlink:href="#DejaVuSans-32"/>
      <use x="233.84375" xlink:href="#DejaVuSans-111"/>
      <use x="295.025391" xlink:href="#DejaVuSans-102"/>
      <use x="330.230469" xlink:href="#DejaVuSans-32"/>
      <use x="362.017578" xlink:href="#DejaVuSans-102"/>
      <use x="397.222656" xlink:href="#DejaVuSans-117"/>
      <use x="460.601562" xlink:href="#DejaVuSans-110"/>
      <use x="523.980469" xlink:href="#DejaVuSans-99"/>
      <use x="578.960938" xlink:href="#DejaVuSans-116"/>
      <use x="618.169922" xlink:href="#DejaVuSans-105"/>
      <use x="645.953125" xlink:href="#DejaVuSans-111"/>
      <use x="707.134766" xlink:href="#DejaVuSans-110"/>
      <use x="770.513672" xlink:href="#DejaVuSans-32"/>
      <use x="802.300781" xlink:href="#DejaVuSans-101"/>
      <use x="863.824219" xlink:href="#DejaVuSans-118"/>
      <use x="923.003906" xlink:href="#DejaVuSans-97"/>
      <use x="984.283203" xlink:href="#DejaVuSans-108"/>
      <use x="1012.066406" xlink:href="#DejaVuSans-117"/>
      <use x="1075.445312" xlink:href="#DejaVuSans-97"/>
      <use x="1136.724609" xlink:href="#DejaVuSans-116"/>
      <use x="1175.933594" xlink:href="#DejaVuSans-105"/>
      <use x="1203.716797" xlink:href="#DejaVuSans-111"/>
      <use x="1264.898438" xlink:href="#DejaVuSans-110"/>
      <use x="1328.277344" xlink:href="#DejaVuSans-115"/>
     </g>
    </g>
   </g>
   <g id="matplotlib.axis_2">
    <g id="ytick_1">
     <g id="line2d_6">
      <defs>
       <path d="M 0 0 
L -3.5 0 
" id="md5067948f0" style="stroke:#000000;stroke-width:0.8;"/>
      </defs>
      <g>
       <use style="stroke:#000000;stroke-width:0.8;" x="54" xlink:href="#md5067948f0" y="180.335748"/>
      </g>
     </g>
     <g id="text_7">
      <!-- $\mathdefault{10^{0}}$ -->
      <g transform="translate(29.4 184.134967)scale(0.1 -0.1)">
       <use transform="translate(0 0.765625)" xlink:href="#DejaVuSans-49"/>
       <use transform="translate(63.623047 0.765625)" xlink:href="#DejaVuSans-48"/>
       <use transform="translate(128.203125 39.046875)scale(0.7)" xlink:href="#DejaVuSans-48"/>
      </g>
     </g>
    </g>
    <g id="ytick_2">
     <g id="line2d_7">
      <g>
       <use style="stroke:#000000;stroke-width:0.8;" x="54" xlink:href="#md5067948f0" y="73.365563"/>
      </g>
     </g>
     <g id="text_8">
      <!-- $\mathdefault{10^{1}}$ -->
      <g transform="translate(29.4 77.164781)scale(0.1 -0.1)">
       <use transform="translate(0 0.684375)" xlink:href="#DejaVuSans-49"/>
       <use transform="translate(63.623047 0.684375)" xlink:href="#DejaVuSans-48"/>
       <use transform="translate(128.203125 38.965625)scale(0.7)" xlink:href="#DejaVuSans-49"/>
      </g>
     </g>
    </g>
    <g id="ytick_3">
     <g id="line2d_8">
      <defs>
       <path d="M 0 0 
L -2 0 
" id="m555863e51c" style="stroke:#000000;stroke-width:0.6;"/>
      </defs>
      <g>
       <use style="stroke:#000000;stroke-width:0.6;" x="54" xlink:href="#m555863e51c" y="236.268184"/>
      </g>
     </g>
    </g>
    <g id="ytick_4">
     <g id="line2d_9">
      <g>
       <use style="stroke:#000000;stroke-width:0.6;" x="54" xlink:href="#m555863e51c" y="222.903464"/>
      </g>
     </g>
    </g>
    <g id="ytick_5">
     <g id="line2d_10">
      <g>
       <use style="stroke:#000000;stroke-width:0.6;" x="54" xlink:href="#m555863e51c" y="212.536982"/>
      </g>
     </g>
    </g>
    <g id="ytick_6">
     <g id="line2d_11">
      <g>
       <use style="stroke:#000000;stroke-width:0.6;" x="54" xlink:href="#m555863e51c" y="204.06695"/>
      </g>
     </g>
    </g>
    <g id="ytick_7">
     <g id="line2d_12">
      <g>
       <use style="stroke:#000000;stroke-width:0.6;" x="54" xlink:href="#m555863e51c" y="196.905639"/>
      </g>
     </g>
    </g>
    <g id="ytick_8">
     <g id="line2d_13">
      <g>
       <use style="stroke:#000000;stroke-width:0.6;" x="54" xlink:href="#m555863e51c" y="190.70223"/>
      </g>
     </g>
    </g>
    <g id="ytick_9">
     <g id="line2d_14">
      <g>
       <use style="stroke:#000000;stroke-width:0.6;" x="54" xlink:href="#m555863e51c" y="185.230435"/>
      </g>
     </g>
    </g>
    <g id="ytick_10">
     <g id="line2d_15">
      <g>
       <use style="stroke:#000000;stroke-width:0.6;" x="54" xlink:href="#m555863e51c" y="148.134513"/>
      </g>
     </g>
    </g>
    <g id="ytick_11">
     <g id="line2d_16">
      <g>
       <use style="stroke:#000000;stroke-width:0.6;" x="54" xlink:href="#m555863e51c" y="129.297999"/>
      </g>
     </g>
    </g>
    <g id="ytick_12">
     <g id="line2d_17">
      <g>
       <use style="stroke:#000000;stroke-width:0.6;" x="54" xlink:href="#m555863e51c" y="115.933279"/>
      </g>
     </g>
    </g>
    <g id="ytick_13">
     <g id="line2d_18">
      <g>
       <use style="stroke:#000000;stroke-width:0.6;" x="54" xlink:href="#m555863e51c" y="105.566797"/>
      </g>
     </g>
    </g>
    <g id="ytick_14">
     <g id="line2d_19">
      <g>
       <use style="stroke:#000000;stroke-width:0.6;" x="54" xlink:href="#m555863e51c" y="97.096764"/>
      </g>
     </g>
    </g>
    <g id="ytick_15">
     <g id="line2d_20">
      <g>
       <use style="stroke:#000000;stroke-width:0.6;" x="54" xlink:href="#m555863e51c" y="89.935454"/>
      </g>
     </g>
    </g>
    <g id="ytick_16">
     <g id="line2d_21">
      <g>
       <use style="stroke:#000000;stroke-width:0.6;" x="54" xlink:href="#m555863e51c" y="83.732045"/>
      </g>
     </g>
    </g>
    <g id="ytick_17">
     <g id="line2d_22">
      <g>
       <use style="stroke:#000000;stroke-width:0.6;" x="54" xlink:href="#m555863e51c" y="78.26025"/>
      </g>
     </g>
    </g>
    <g id="ytick_18">
     <g id="line2d_23">
      <g>
       <use style="stroke:#000000;stroke-width:0.6;" x="54" xlink:href="#m555863e51c" y="41.164328"/>
      </g>
     </g>
    </g>
    <g id="text_9">
     <!-- Best function evaluation -->
     <g transform="translate(23.320312 204.253438)rotate(-90)scale(0.1 -0.1)">
      <defs>
       <path d="M 19.671875 34.8125 
L 19.671875 8.109375 
L 35.5 8.109375 
Q 43.453125 8.109375 47.28125 11.40625 
Q 51.125 14.703125 51.125 21.484375 
Q 51.125 28.328125 47.28125 31.5625 
Q 43.453125 34.8125 35.5 34.8125 
z
M 19.671875 64.796875 
L 19.671875 42.828125 
L 34.28125 42.828125 
Q 41.5 42.828125 45.03125 45.53125 
Q 48.578125 48.25 48.578125 53.8125 
Q 48.578125 59.328125 45.03125 62.0625 
Q 41.5 64.796875 34.28125 64.796875 
z
M 9.8125 72.90625 
L 35.015625 72.90625 
Q 46.296875 72.90625 52.390625 68.21875 
Q 58.5 63.53125 58.5 54.890625 
Q 58.5 48.1875 55.375 44.234375 
Q 52.25 40.28125 46.1875 39.3125 
Q 53.46875 37.75 57.5 32.78125 
Q 61.53125 27.828125 61.53125 20.40625 
Q 61.53125 10.640625 54.890625 5.3125 
Q 48.25 0 35.984375 0 
L 9.8125 0 
z
" id="DejaVuSans-66"/>
      </defs>
      <use xlink:href="#DejaVuSans-66"/>
      <use x="68.603516" xlink:href="#DejaVuSans-101"/>
      <use x="130.126953" xlink:href="#DejaVuSans-115"/>
      <use x="182.226562" xlink:href="#DejaVuSans-116"/>
      <use x="221.435547" xlink:href="#DejaVuSans-32"/>
      <use x="253.222656" xlink:href="#DejaVuSans-102"/>
      <use x="288.427734" xlink:href="#DejaVuSans-117"/>
      <use x="351.806641" xlink:href="#DejaVuSans-110"/>
      <use x="415.185547" xlink:href="#DejaVuSans-99"/>
      <use x="470.166016" xlink:href="#DejaVuSans-116"/>
      <use x="509.375" xlink:href="#DejaVuSans-105"/>
      <use x="537.158203" xlink:href="#DejaVuSans-111"/>
      <use x="598.339844" xlink:href="#DejaVuSans-110"/>
      <use x="661.71875" xlink:href="#DejaVuSans-32"/>
      <use x="693.505859" xlink:href="#DejaVuSans-101"/>
      <use x="755.029297" xlink:href="#DejaVuSans-118"/>
      <use x="814.208984" xlink:href="#DejaVuSans-97"/>
      <use x="875.488281" xlink:href="#DejaVuSans-108"/>
      <use x="903.271484" xlink:href="#DejaVuSans-117"/>
      <use x="966.650391" xlink:href="#DejaVuSans-97"/>
      <use x="1027.929688" xlink:href="#DejaVuSans-116"/>
      <use x="1067.138672" xlink:href="#DejaVuSans-105"/>
      <use x="1094.921875" xlink:href="#DejaVuSans-111"/>
      <use x="1156.103516" xlink:href="#DejaVuSans-110"/>
     </g>
    </g>
   </g>
   <g id="line2d_24">
    <path clip-path="url(#pa5ba94bda8)" d="M 69.218182 162.313198 
L 75.625837 162.313198 
L 75.625837 162.313198 
L 78.829665 162.313198 
L 78.829665 234.865973 
L 82.033493 234.865973 
L 82.033493 234.865973 
L 85.237321 234.865973 
L 85.237321 234.865973 
L 91.644976 234.865973 
L 91.644976 234.865973 
L 94.848804 234.865973 
L 94.848804 234.865973 
L 101.256459 234.865973 
L 101.256459 234.865973 
L 107.664115 234.865973 
L 107.664115 239.008613 
L 114.07177 239.008613 
L 114.07177 239.008613 
L 117.275598 239.008613 
L 117.275598 239.008613 
L 120.479426 239.008613 
L 120.479426 239.008613 
L 123.683254 239.008613 
L 123.683254 239.008613 
L 130.090909 239.008613 
L 130.090909 239.008613 
L 136.498565 239.008613 
L 136.498565 239.008613 
L 142.90622 239.008613 
L 142.90622 239.008613 
L 146.110048 239.008613 
L 146.110048 239.829111 
L 152.517703 239.829111 
L 152.517703 239.829111 
L 158.925359 239.829111 
L 158.925359 239.935701 
L 165.333014 239.935701 
L 165.333014 239.935701 
L 171.74067 239.935701 
L 171.74067 239.935701 
L 174.944498 239.935701 
L 174.944498 241.345954 
L 181.352153 241.345954 
L 181.352153 241.345954 
L 184.555981 241.345954 
L 184.555981 241.345954 
L 190.963636 241.345954 
L 190.963636 241.345954 
L 197.371292 241.345954 
L 197.371292 242.063677 
L 200.57512 242.063677 
L 200.57512 242.063677 
L 206.982775 242.063677 
L 206.982775 242.063677 
L 210.186603 242.063677 
L 210.186603 242.063677 
L 213.390431 242.063677 
L 213.390431 242.063677 
L 216.594258 242.063677 
L 216.594258 242.063677 
L 223.001914 242.063677 
L 223.001914 242.063677 
L 229.409569 242.063677 
L 229.409569 242.065886 
L 235.817225 242.065886 
L 235.817225 242.065886 
L 239.021053 242.065886 
L 239.021053 242.065886 
L 245.428708 242.065886 
L 245.428708 242.065886 
L 248.632536 242.065886 
L 248.632536 242.10159 
L 255.040191 242.10159 
L 255.040191 242.10159 
L 261.447847 242.10159 
L 261.447847 242.10159 
L 267.855502 242.10159 
L 267.855502 242.10159 
L 274.263158 242.10159 
L 274.263158 242.104698 
L 280.670813 242.104698 
L 280.670813 242.105754 
L 287.078469 242.105754 
L 287.078469 242.113451 
L 293.486124 242.113451 
L 293.486124 242.114862 
L 299.89378 242.114862 
L 299.89378 242.114987 
L 306.301435 242.114987 
L 306.301435 242.114987 
L 312.709091 242.114987 
L 312.709091 242.114987 
L 319.116746 242.114987 
L 319.116746 242.116189 
L 325.524402 242.116189 
L 325.524402 242.116189 
L 331.932057 242.116189 
L 331.932057 242.116364 
" style="fill:none;stroke:#1f77b4;stroke-linecap:square;stroke-width:1.5;"/>
   </g>
   <g id="line2d_25">
    <path clip-path="url(#pa5ba94bda8)" d="M 72.42201 155.261469 
L 78.829665 155.261469 
L 78.829665 172.898085 
L 85.237321 172.898085 
L 85.237321 215.690953 
L 88.441148 215.690953 
L 88.441148 220.343082 
L 94.848804 220.343082 
L 94.848804 220.343082 
L 101.256459 220.343082 
L 101.256459 220.343082 
L 107.664115 220.343082 
L 107.664115 220.343082 
L 110.867943 220.343082 
L 110.867943 220.343082 
L 117.275598 220.343082 
L 117.275598 220.343082 
L 123.683254 220.343082 
L 123.683254 224.662849 
L 130.090909 224.662849 
L 130.090909 227.756783 
L 133.294737 227.756783 
L 133.294737 229.344989 
L 139.702392 229.344989 
L 139.702392 229.344989 
L 146.110048 229.344989 
L 146.110048 229.344989 
L 149.313876 229.344989 
L 149.313876 229.344989 
L 155.721531 229.344989 
L 155.721531 229.344989 
L 162.129187 229.344989 
L 162.129187 229.561814 
L 168.536842 229.561814 
L 168.536842 229.561814 
L 174.944498 229.561814 
L 174.944498 229.662063 
L 178.148325 229.662063 
L 178.148325 230.120021 
L 184.555981 230.120021 
L 184.555981 230.120021 
L 187.759809 230.120021 
L 187.759809 230.259908 
L 194.167464 230.259908 
L 194.167464 230.259908 
L 200.57512 230.259908 
L 200.57512 230.43806 
L 206.982775 230.43806 
L 206.982775 230.506618 
L 213.390431 230.506618 
L 213.390431 230.506618 
L 219.798086 230.506618 
L 219.798086 230.538179 
L 226.205742 230.538179 
L 226.205742 230.584686 
L 232.613397 230.584686 
L 232.613397 230.740255 
L 239.021053 230.740255 
L 239.021053 230.740255 
L 245.428708 230.740255 
L 245.428708 230.781211 
L 251.836364 230.781211 
L 251.836364 231.206609 
L 255.040191 231.206609 
L 255.040191 231.206609 
L 258.244019 231.206609 
L 258.244019 231.206609 
L 264.651675 231.206609 
L 264.651675 231.206609 
L 271.05933 231.206609 
L 271.05933 231.291107 
L 277.466986 231.291107 
L 277.466986 231.540122 
L 283.874641 231.540122 
L 283.874641 231.609794 
L 290.282297 231.609794 
L 290.282297 231.609794 
L 293.486124 231.609794 
L 293.486124 232.131239 
L 299.89378 232.131239 
L 299.89378 232.131239 
L 303.097608 232.131239 
L 303.097608 232.402334 
L 309.505263 232.402334 
L 309.505263 232.402334 
L 312.709091 232.402334 
L 312.709091 233.721932 
L 315.912919 233.721932 
L 315.912919 233.721932 
L 319.116746 233.721932 
L 319.116746 233.721932 
L 325.524402 233.721932 
L 325.524402 233.721932 
L 331.932057 233.721932 
L 331.932057 233.887508 
L 335.135885 233.887508 
L 335.135885 236.121955 
L 338.339713 236.121955 
L 338.339713 236.121955 
" style="fill:none;stroke:#ff7f0e;stroke-linecap:square;stroke-width:1.5;"/>
   </g>
   <g id="line2d_26">
    <path clip-path="url(#pa5ba94bda8)" d="M 72.42201 113.236407 
L 78.829665 113.236407 
L 78.829665 113.236407 
L 85.237321 113.236407 
L 85.237321 113.236407 
L 91.644976 113.236407 
L 91.644976 113.236407 
L 98.052632 113.236407 
L 98.052632 113.236407 
L 104.460287 113.236407 
L 104.460287 113.236407 
L 110.867943 113.236407 
L 110.867943 113.236407 
L 117.275598 113.236407 
L 117.275598 113.236407 
L 123.683254 113.236407 
L 123.683254 113.236407 
L 130.090909 113.236407 
L 130.090909 113.236407 
L 136.498565 113.236407 
L 136.498565 113.236407 
L 142.90622 113.236407 
L 142.90622 113.236407 
L 149.313876 113.236407 
L 149.313876 113.236407 
L 155.721531 113.236407 
L 155.721531 113.236407 
L 162.129187 113.236407 
L 162.129187 113.236407 
L 168.536842 113.236407 
L 168.536842 113.236407 
L 174.944498 113.236407 
L 174.944498 113.236407 
L 181.352153 113.236407 
L 181.352153 113.236407 
L 187.759809 113.236407 
L 187.759809 113.236407 
L 194.167464 113.236407 
L 194.167464 113.236407 
L 200.57512 113.236407 
L 200.57512 113.236407 
L 206.982775 113.236407 
L 206.982775 113.236407 
L 213.390431 113.236407 
L 213.390431 113.236407 
L 219.798086 113.236407 
L 219.798086 113.236407 
L 226.205742 113.236407 
L 226.205742 113.236407 
L 232.613397 113.236407 
L 232.613397 113.236407 
L 239.021053 113.236407 
L 239.021053 113.236407 
L 245.428708 113.236407 
L 245.428708 113.236407 
L 251.836364 113.236407 
L 251.836364 113.236407 
L 258.244019 113.236407 
L 258.244019 113.236407 
L 264.651675 113.236407 
L 264.651675 113.236407 
L 271.05933 113.236407 
L 271.05933 113.236407 
L 277.466986 113.236407 
L 277.466986 113.236407 
L 283.874641 113.236407 
L 283.874641 113.236407 
L 290.282297 113.236407 
L 290.282297 113.236407 
L 296.689952 113.236407 
L 296.689952 113.236407 
L 303.097608 113.236407 
L 303.097608 113.236407 
L 309.505263 113.236407 
L 309.505263 113.236407 
L 315.912919 113.236407 
L 315.912919 113.236407 
L 322.320574 113.236407 
L 322.320574 113.236407 
L 328.72823 113.236407 
L 328.72823 113.236407 
L 335.135885 113.236407 
L 335.135885 113.236407 
L 341.543541 113.236407 
L 341.543541 113.236407 
L 347.951196 113.236407 
L 347.951196 113.236407 
L 354.358852 113.236407 
L 354.358852 113.236407 
L 360.766507 113.236407 
L 360.766507 113.236407 
L 367.174163 113.236407 
L 367.174163 113.236407 
L 373.581818 113.236407 
L 373.581818 113.236407 
" style="fill:none;stroke:#2ca02c;stroke-linecap:square;stroke-width:1.5;"/>
   </g>
   <g id="line2d_27">
    <path clip-path="url(#pa5ba94bda8)" d="M 69.218182 108.895955 
L 75.625837 108.895955 
L 75.625837 108.895955 
L 82.033493 108.895955 
L 82.033493 121.841219 
L 85.237321 121.841219 
L 85.237321 170.18771 
L 91.644976 170.18771 
L 91.644976 170.18771 
L 98.052632 170.18771 
L 98.052632 170.18771 
L 104.460287 170.18771 
L 104.460287 184.751507 
L 107.664115 184.751507 
L 107.664115 198.746595 
L 110.867943 198.746595 
L 110.867943 198.746595 
L 117.275598 198.746595 
L 117.275598 198.746595 
L 120.479426 198.746595 
L 120.479426 198.746595 
L 126.887081 198.746595 
L 126.887081 198.746595 
L 130.090909 198.746595 
L 130.090909 222.825587 
L 133.294737 222.825587 
L 133.294737 222.825587 
L 139.702392 222.825587 
L 139.702392 222.825587 
L 146.110048 222.825587 
L 146.110048 223.728194 
L 152.517703 223.728194 
L 152.517703 223.728194 
L 155.721531 223.728194 
L 155.721531 239.284399 
L 158.925359 239.284399 
L 158.925359 239.284399 
L 162.129187 239.284399 
L 162.129187 239.284399 
L 168.536842 239.284399 
L 168.536842 239.284399 
L 174.944498 239.284399 
L 174.944498 239.284399 
L 181.352153 239.284399 
L 181.352153 239.284399 
L 187.759809 239.284399 
L 187.759809 241.570574 
L 190.963636 241.570574 
L 190.963636 241.570574 
L 197.371292 241.570574 
L 197.371292 241.570574 
L 203.778947 241.570574 
L 203.778947 241.570574 
L 210.186603 241.570574 
L 210.186603 241.570574 
L 216.594258 241.570574 
L 216.594258 241.570574 
L 219.798086 241.570574 
L 219.798086 241.570574 
L 226.205742 241.570574 
L 226.205742 241.570574 
L 232.613397 241.570574 
L 232.613397 241.570574 
L 239.021053 241.570574 
L 239.021053 241.990527 
L 245.428708 241.990527 
L 245.428708 241.990527 
L 251.836364 241.990527 
L 251.836364 241.990527 
L 258.244019 241.990527 
L 258.244019 241.990527 
L 264.651675 241.990527 
L 264.651675 242.038741 
L 267.855502 242.038741 
L 267.855502 242.038741 
L 274.263158 242.038741 
L 274.263158 242.038741 
L 280.670813 242.038741 
L 280.670813 242.071917 
L 287.078469 242.071917 
L 287.078469 242.076558 
L 293.486124 242.076558 
L 293.486124 242.085852 
L 296.689952 242.085852 
L 296.689952 242.085852 
L 303.097608 242.085852 
L 303.097608 242.085852 
L 309.505263 242.085852 
L 309.505263 242.091968 
L 315.912919 242.091968 
L 315.912919 242.097844 
L 322.320574 242.097844 
L 322.320574 242.097844 
L 328.72823 242.097844 
L 328.72823 242.097844 
L 335.135885 242.097844 
L 335.135885 242.097844 
L 341.543541 242.097844 
L 341.543541 242.099292 
" style="fill:none;stroke:#d62728;stroke-linecap:square;stroke-width:1.5;"/>
   </g>
   <g id="line2d_28">
    <path clip-path="url(#pa5ba94bda8)" d="M 72.42201 96.760298 
L 78.829665 96.760298 
L 78.829665 96.760298 
L 85.237321 96.760298 
L 85.237321 96.760298 
L 91.644976 96.760298 
L 91.644976 96.760298 
L 98.052632 96.760298 
L 98.052632 96.760298 
L 104.460287 96.760298 
L 104.460287 96.760298 
L 110.867943 96.760298 
L 110.867943 96.760298 
L 117.275598 96.760298 
L 117.275598 96.760298 
L 123.683254 96.760298 
L 123.683254 96.760298 
L 130.090909 96.760298 
L 130.090909 96.760298 
L 136.498565 96.760298 
L 136.498565 96.760298 
L 142.90622 96.760298 
L 142.90622 96.760298 
L 149.313876 96.760298 
L 149.313876 96.760298 
L 155.721531 96.760298 
L 155.721531 96.760298 
L 162.129187 96.760298 
L 162.129187 96.760298 
L 168.536842 96.760298 
L 168.536842 96.760298 
L 174.944498 96.760298 
L 174.944498 96.760298 
L 181.352153 96.760298 
L 181.352153 96.760298 
L 187.759809 96.760298 
L 187.759809 96.760298 
L 194.167464 96.760298 
L 194.167464 96.760298 
L 200.57512 96.760298 
L 200.57512 96.760298 
L 206.982775 96.760298 
L 206.982775 96.760298 
L 213.390431 96.760298 
L 213.390431 96.760298 
L 219.798086 96.760298 
L 219.798086 96.760298 
L 226.205742 96.760298 
L 226.205742 96.760298 
L 232.613397 96.760298 
L 232.613397 96.760298 
L 239.021053 96.760298 
L 239.021053 96.760298 
L 245.428708 96.760298 
L 245.428708 96.760298 
L 251.836364 96.760298 
L 251.836364 96.760298 
L 258.244019 96.760298 
L 258.244019 96.760298 
L 264.651675 96.760298 
L 264.651675 96.760298 
L 271.05933 96.760298 
L 271.05933 96.760298 
L 277.466986 96.760298 
L 277.466986 96.760298 
L 283.874641 96.760298 
L 283.874641 96.760298 
L 290.282297 96.760298 
L 290.282297 96.760298 
L 296.689952 96.760298 
L 296.689952 96.760298 
L 303.097608 96.760298 
L 303.097608 96.760298 
L 309.505263 96.760298 
L 309.505263 96.760298 
L 315.912919 96.760298 
L 315.912919 96.760298 
L 322.320574 96.760298 
L 322.320574 96.760298 
L 328.72823 96.760298 
L 328.72823 96.760298 
L 335.135885 96.760298 
L 335.135885 96.760298 
L 341.543541 96.760298 
L 341.543541 96.760298 
L 347.951196 96.760298 
L 347.951196 96.760298 
L 354.358852 96.760298 
L 354.358852 96.760298 
L 360.766507 96.760298 
L 360.766507 96.760298 
L 367.174163 96.760298 
L 367.174163 96.760298 
L 373.581818 96.760298 
L 373.581818 96.760298 
" style="fill:none;stroke:#9467bd;stroke-linecap:square;stroke-width:1.5;"/>
   </g>
   <g id="line2d_29">
    <path clip-path="url(#pa5ba94bda8)" d="M 72.42201 81.197733 
L 78.829665 81.197733 
L 78.829665 81.197733 
L 85.237321 81.197733 
L 85.237321 81.197733 
L 91.644976 81.197733 
L 91.644976 81.197733 
L 98.052632 81.197733 
L 98.052632 81.197733 
L 104.460287 81.197733 
L 104.460287 81.197733 
L 110.867943 81.197733 
L 110.867943 81.197733 
L 117.275598 81.197733 
L 117.275598 81.197733 
L 123.683254 81.197733 
L 123.683254 81.197733 
L 130.090909 81.197733 
L 130.090909 81.197733 
L 136.498565 81.197733 
L 136.498565 81.197733 
L 142.90622 81.197733 
L 142.90622 81.197733 
L 149.313876 81.197733 
L 149.313876 81.197733 
L 155.721531 81.197733 
L 155.721531 81.197733 
L 162.129187 81.197733 
L 162.129187 81.197733 
L 168.536842 81.197733 
L 168.536842 81.197733 
L 174.944498 81.197733 
L 174.944498 81.197733 
L 181.352153 81.197733 
L 181.352153 81.197733 
L 187.759809 81.197733 
L 187.759809 81.197733 
L 194.167464 81.197733 
L 194.167464 81.197733 
L 200.57512 81.197733 
L 200.57512 81.197733 
L 206.982775 81.197733 
L 206.982775 81.197733 
L 213.390431 81.197733 
L 213.390431 81.197733 
L 219.798086 81.197733 
L 219.798086 81.197733 
L 226.205742 81.197733 
L 226.205742 81.197733 
L 232.613397 81.197733 
L 232.613397 81.197733 
L 239.021053 81.197733 
L 239.021053 81.197733 
L 245.428708 81.197733 
L 245.428708 81.197733 
L 251.836364 81.197733 
L 251.836364 81.197733 
L 258.244019 81.197733 
L 258.244019 81.197733 
L 264.651675 81.197733 
L 264.651675 81.197733 
L 271.05933 81.197733 
L 271.05933 81.197733 
L 277.466986 81.197733 
L 277.466986 81.197733 
L 283.874641 81.197733 
L 283.874641 81.197733 
L 290.282297 81.197733 
L 290.282297 81.197733 
L 296.689952 81.197733 
L 296.689952 81.197733 
L 303.097608 81.197733 
L 303.097608 81.197733 
L 309.505263 81.197733 
L 309.505263 81.197733 
L 315.912919 81.197733 
L 315.912919 81.197733 
L 322.320574 81.197733 
L 322.320574 81.197733 
L 328.72823 81.197733 
L 328.72823 81.197733 
L 335.135885 81.197733 
L 335.135885 81.197733 
L 341.543541 81.197733 
L 341.543541 81.197733 
L 347.951196 81.197733 
L 347.951196 81.197733 
L 354.358852 81.197733 
L 354.358852 81.197733 
L 360.766507 81.197733 
L 360.766507 81.197733 
L 367.174163 81.197733 
L 367.174163 81.197733 
L 373.581818 81.197733 
L 373.581818 81.197733 
" style="fill:none;stroke:#8c564b;stroke-linecap:square;stroke-width:1.5;"/>
   </g>
   <g id="line2d_30">
    <path clip-path="url(#pa5ba94bda8)" d="M 69.218182 102.846496 
L 72.42201 102.846496 
L 72.42201 102.846496 
L 75.625837 102.846496 
L 75.625837 102.846496 
L 78.829665 102.846496 
L 78.829665 102.846496 
L 82.033493 102.846496 
L 82.033493 102.846496 
L 85.237321 102.846496 
L 85.237321 102.846496 
L 88.441148 102.846496 
L 88.441148 102.846496 
L 91.644976 102.846496 
L 91.644976 102.846496 
L 94.848804 102.846496 
L 94.848804 102.846496 
L 101.256459 102.846496 
L 101.256459 102.846496 
L 104.460287 102.846496 
L 104.460287 159.105109 
L 110.867943 159.105109 
L 110.867943 159.105109 
L 114.07177 159.105109 
L 114.07177 174.03508 
L 120.479426 174.03508 
L 120.479426 174.03508 
L 126.887081 174.03508 
L 126.887081 179.052872 
L 133.294737 179.052872 
L 133.294737 179.052872 
L 136.498565 179.052872 
L 136.498565 189.132275 
L 139.702392 189.132275 
L 139.702392 189.132275 
L 142.90622 189.132275 
L 142.90622 189.132275 
L 146.110048 189.132275 
L 146.110048 189.132275 
L 152.517703 189.132275 
L 152.517703 189.132275 
L 155.721531 189.132275 
L 155.721531 194.741213 
L 158.925359 194.741213 
L 158.925359 194.741213 
L 165.333014 194.741213 
L 165.333014 194.741213 
L 168.536842 194.741213 
L 168.536842 194.741213 
L 174.944498 194.741213 
L 174.944498 194.741213 
L 181.352153 194.741213 
L 181.352153 194.741213 
L 184.555981 194.741213 
L 184.555981 195.079191 
L 190.963636 195.079191 
L 190.963636 195.079191 
L 194.167464 195.079191 
L 194.167464 203.7338 
L 197.371292 203.7338 
L 197.371292 203.7338 
L 200.57512 203.7338 
L 200.57512 203.7338 
L 206.982775 203.7338 
L 206.982775 203.7338 
L 210.186603 203.7338 
L 210.186603 206.795526 
L 216.594258 206.795526 
L 216.594258 206.795526 
L 223.001914 206.795526 
L 223.001914 206.795526 
L 229.409569 206.795526 
L 229.409569 206.795526 
L 235.817225 206.795526 
L 235.817225 206.795526 
L 242.22488 206.795526 
L 242.22488 206.795526 
L 248.632536 206.795526 
L 248.632536 207.054527 
L 251.836364 207.054527 
L 251.836364 207.228162 
L 255.040191 207.228162 
L 255.040191 207.228162 
L 261.447847 207.228162 
L 261.447847 207.228162 
L 267.855502 207.228162 
L 267.855502 207.90516 
L 274.263158 207.90516 
L 274.263158 207.90516 
L 280.670813 207.90516 
L 280.670813 207.90516 
L 287.078469 207.90516 
L 287.078469 208.028966 
L 293.486124 208.028966 
L 293.486124 208.028966 
L 299.89378 208.028966 
L 299.89378 208.063469 
L 303.097608 208.063469 
L 303.097608 208.18134 
" style="fill:none;stroke:#e377c2;stroke-linecap:square;stroke-width:1.5;"/>
   </g>
   <g id="line2d_31">
    <path clip-path="url(#pa5ba94bda8)" d="M 72.42201 86.126391 
L 78.829665 86.126391 
L 78.829665 128.098019 
L 82.033493 128.098019 
L 82.033493 187.825083 
L 85.237321 187.825083 
L 85.237321 187.825083 
L 91.644976 187.825083 
L 91.644976 187.825083 
L 98.052632 187.825083 
L 98.052632 213.976317 
L 104.460287 213.976317 
L 104.460287 213.976317 
L 110.867943 213.976317 
L 110.867943 216.70776 
L 114.07177 216.70776 
L 114.07177 224.259782 
L 117.275598 224.259782 
L 117.275598 224.259782 
L 123.683254 224.259782 
L 123.683254 224.259782 
L 130.090909 224.259782 
L 130.090909 227.637103 
L 136.498565 227.637103 
L 136.498565 227.637103 
L 142.90622 227.637103 
L 142.90622 231.723165 
L 149.313876 231.723165 
L 149.313876 231.723165 
L 155.721531 231.723165 
L 155.721531 233.542963 
L 162.129187 233.542963 
L 162.129187 234.561619 
L 168.536842 234.561619 
L 168.536842 234.561619 
L 174.944498 234.561619 
L 174.944498 236.555412 
L 178.148325 236.555412 
L 178.148325 236.555412 
L 184.555981 236.555412 
L 184.555981 236.555412 
L 190.963636 236.555412 
L 190.963636 236.555412 
L 197.371292 236.555412 
L 197.371292 236.555412 
L 203.778947 236.555412 
L 203.778947 236.983926 
L 206.982775 236.983926 
L 206.982775 236.983926 
L 210.186603 236.983926 
L 210.186603 236.983926 
L 216.594258 236.983926 
L 216.594258 236.983926 
L 223.001914 236.983926 
L 223.001914 236.983926 
L 229.409569 236.983926 
L 229.409569 236.983926 
L 235.817225 236.983926 
L 235.817225 237.02556 
L 242.22488 237.02556 
L 242.22488 237.058423 
L 248.632536 237.058423 
L 248.632536 237.103488 
L 255.040191 237.103488 
L 255.040191 237.109461 
L 261.447847 237.109461 
L 261.447847 237.109461 
L 267.855502 237.109461 
L 267.855502 237.152075 
L 274.263158 237.152075 
L 274.263158 237.157213 
L 280.670813 237.157213 
L 280.670813 237.162832 
L 287.078469 237.162832 
L 287.078469 237.245304 
L 290.282297 237.245304 
L 290.282297 237.312147 
L 293.486124 237.312147 
L 293.486124 237.312147 
L 299.89378 237.312147 
L 299.89378 237.312147 
L 306.301435 237.312147 
L 306.301435 237.471237 
L 312.709091 237.471237 
L 312.709091 237.51782 
L 319.116746 237.51782 
L 319.116746 237.581407 
L 325.524402 237.581407 
L 325.524402 238.005206 
L 331.932057 238.005206 
L 331.932057 238.363683 
L 335.135885 238.363683 
L 335.135885 238.967392 
L 341.543541 238.967392 
L 341.543541 238.967392 
L 344.747368 238.967392 
L 344.747368 239.515755 
L 347.951196 239.515755 
L 347.951196 239.515755 
" style="fill:none;stroke:#7f7f7f;stroke-linecap:square;stroke-width:1.5;"/>
   </g>
   <g id="line2d_32">
    <path clip-path="url(#pa5ba94bda8)" d="M 72.42201 59.340365 
L 78.829665 59.340365 
L 78.829665 59.340365 
L 85.237321 59.340365 
L 85.237321 59.340365 
L 91.644976 59.340365 
L 91.644976 59.340365 
L 98.052632 59.340365 
L 98.052632 59.340365 
L 104.460287 59.340365 
L 104.460287 59.340365 
L 110.867943 59.340365 
L 110.867943 59.340365 
L 117.275598 59.340365 
L 117.275598 59.340365 
L 123.683254 59.340365 
L 123.683254 59.340365 
L 130.090909 59.340365 
L 130.090909 59.340365 
L 136.498565 59.340365 
L 136.498565 59.340365 
L 142.90622 59.340365 
L 142.90622 59.340365 
L 149.313876 59.340365 
L 149.313876 59.340365 
L 155.721531 59.340365 
L 155.721531 59.340365 
L 162.129187 59.340365 
L 162.129187 59.340365 
L 168.536842 59.340365 
L 168.536842 59.340365 
L 174.944498 59.340365 
L 174.944498 59.340365 
L 181.352153 59.340365 
L 181.352153 59.340365 
L 187.759809 59.340365 
L 187.759809 59.340365 
L 194.167464 59.340365 
L 194.167464 59.340365 
L 200.57512 59.340365 
L 200.57512 59.340365 
L 206.982775 59.340365 
L 206.982775 59.340365 
L 213.390431 59.340365 
L 213.390431 59.340365 
L 219.798086 59.340365 
L 219.798086 59.340365 
L 226.205742 59.340365 
L 226.205742 59.340365 
L 232.613397 59.340365 
L 232.613397 59.340365 
L 239.021053 59.340365 
L 239.021053 59.340365 
L 245.428708 59.340365 
L 245.428708 59.340365 
L 251.836364 59.340365 
L 251.836364 59.340365 
L 258.244019 59.340365 
L 258.244019 59.340365 
L 264.651675 59.340365 
L 264.651675 59.340365 
L 271.05933 59.340365 
L 271.05933 59.340365 
L 277.466986 59.340365 
L 277.466986 59.340365 
L 283.874641 59.340365 
L 283.874641 59.340365 
L 290.282297 59.340365 
L 290.282297 59.340365 
L 296.689952 59.340365 
L 296.689952 59.340365 
L 303.097608 59.340365 
L 303.097608 59.340365 
L 309.505263 59.340365 
L 309.505263 59.340365 
L 315.912919 59.340365 
L 315.912919 59.340365 
L 322.320574 59.340365 
L 322.320574 59.340365 
L 328.72823 59.340365 
L 328.72823 59.340365 
L 335.135885 59.340365 
L 335.135885 59.340365 
L 341.543541 59.340365 
L 341.543541 59.340365 
L 347.951196 59.340365 
L 347.951196 59.340365 
L 354.358852 59.340365 
L 354.358852 59.340365 
L 360.766507 59.340365 
L 360.766507 59.340365 
L 367.174163 59.340365 
L 367.174163 59.340365 
L 373.581818 59.340365 
L 373.581818 59.340365 
" style="fill:none;stroke:#bcbd22;stroke-linecap:square;stroke-width:1.5;"/>
   </g>
   <g id="line2d_33">
    <path clip-path="url(#pa5ba94bda8)" d="M 69.218182 44.443636 
L 75.625837 44.443636 
L 75.625837 44.443636 
L 82.033493 44.443636 
L 82.033493 72.54882 
L 88.441148 72.54882 
L 88.441148 98.537853 
L 94.848804 98.537853 
L 94.848804 110.53365 
L 98.052632 110.53365 
L 98.052632 110.53365 
L 104.460287 110.53365 
L 104.460287 110.53365 
L 110.867943 110.53365 
L 110.867943 117.223451 
L 117.275598 117.223451 
L 117.275598 123.667214 
L 123.683254 123.667214 
L 123.683254 123.667214 
L 126.887081 123.667214 
L 126.887081 191.700525 
L 133.294737 191.700525 
L 133.294737 191.700525 
L 139.702392 191.700525 
L 139.702392 191.700525 
L 142.90622 191.700525 
L 142.90622 217.873682 
L 146.110048 217.873682 
L 146.110048 217.873682 
L 149.313876 217.873682 
L 149.313876 217.873682 
L 152.517703 217.873682 
L 152.517703 217.873682 
L 158.925359 217.873682 
L 158.925359 217.873682 
L 162.129187 217.873682 
L 162.129187 220.947339 
L 168.536842 220.947339 
L 168.536842 220.947339 
L 171.74067 220.947339 
L 171.74067 220.947339 
L 178.148325 220.947339 
L 178.148325 220.947339 
L 184.555981 220.947339 
L 184.555981 223.9826 
L 190.963636 223.9826 
L 190.963636 223.9826 
L 197.371292 223.9826 
L 197.371292 224.894151 
L 203.778947 224.894151 
L 203.778947 228.734343 
L 206.982775 228.734343 
L 206.982775 228.734343 
L 213.390431 228.734343 
L 213.390431 228.734343 
L 219.798086 228.734343 
L 219.798086 228.734343 
L 226.205742 228.734343 
L 226.205742 228.734343 
L 232.613397 228.734343 
L 232.613397 231.744152 
L 235.817225 231.744152 
L 235.817225 233.278196 
L 239.021053 233.278196 
L 239.021053 233.278196 
L 245.428708 233.278196 
L 245.428708 233.278196 
L 251.836364 233.278196 
L 251.836364 236.196112 
L 258.244019 236.196112 
L 258.244019 236.558825 
L 264.651675 236.558825 
L 264.651675 237.799201 
L 271.05933 237.799201 
L 271.05933 237.799201 
L 274.263158 237.799201 
L 274.263158 239.189379 
L 277.466986 239.189379 
L 277.466986 239.189379 
L 280.670813 239.189379 
L 280.670813 239.189379 
L 287.078469 239.189379 
L 287.078469 239.189379 
L 293.486124 239.189379 
L 293.486124 240.268058 
L 299.89378 240.268058 
L 299.89378 240.471798 
L 306.301435 240.471798 
L 306.301435 240.471798 
L 309.505263 240.471798 
L 309.505263 240.471798 
L 315.912919 240.471798 
L 315.912919 240.471798 
L 322.320574 240.471798 
L 322.320574 241.173204 
L 328.72823 241.173204 
L 328.72823 241.173204 
L 335.135885 241.173204 
L 335.135885 241.173204 
" style="fill:none;stroke:#17becf;stroke-linecap:square;stroke-width:1.5;"/>
   </g>
   <g id="patch_3">
    <path d="M 54 252 
L 54 34.56 
" style="fill:none;stroke:#000000;stroke-linecap:square;stroke-linejoin:miter;stroke-width:0.8;"/>
   </g>
   <g id="patch_4">
    <path d="M 388.8 252 
L 388.8 34.56 
" style="fill:none;stroke:#000000;stroke-linecap:square;stroke-linejoin:miter;stroke-width:0.8;"/>
   </g>
   <g id="patch_5">
    <path d="M 54 252 
L 388.8 252 
" style="fill:none;stroke:#000000;stroke-linecap:square;stroke-linejoin:miter;stroke-width:0.8;"/>
   </g>
   <g id="patch_6">
    <path d="M 54 34.56 
L 388.8 34.56 
" style="fill:none;stroke:#000000;stroke-linecap:square;stroke-linejoin:miter;stroke-width:0.8;"/>
   </g>
   <g id="legend_1">
    <g id="patch_7">
     <path d="M 303.546875 218.170625 
L 381.8 218.170625 
Q 383.8 218.170625 383.8 216.170625 
L 383.8 70.389375 
Q 383.8 68.389375 381.8 68.389375 
L 303.546875 68.389375 
Q 301.546875 68.389375 301.546875 70.389375 
L 301.546875 216.170625 
Q 301.546875 218.170625 303.546875 218.170625 
z
" style="fill:#ffffff;opacity:0.8;stroke:#cccccc;stroke-linejoin:miter;"/>
    </g>
    <g id="line2d_34">
     <path d="M 305.546875 76.487813 
L 325.546875 76.487813 
" style="fill:none;stroke:#1f77b4;stroke-linecap:square;stroke-width:1.5;"/>
    </g>
    <g id="line2d_35"/>
    <g id="text_10">
     <!-- Simplex0 -->
     <g transform="translate(333.546875 79.987813)scale(0.1 -0.1)">
      <defs>
       <path d="M 53.515625 70.515625 
L 53.515625 60.890625 
Q 47.90625 63.578125 42.921875 64.890625 
Q 37.9375 66.21875 33.296875 66.21875 
Q 25.25 66.21875 20.875 63.09375 
Q 16.5 59.96875 16.5 54.203125 
Q 16.5 49.359375 19.40625 46.890625 
Q 22.3125 44.4375 30.421875 42.921875 
L 36.375 41.703125 
Q 47.40625 39.59375 52.65625 34.296875 
Q 57.90625 29 57.90625 20.125 
Q 57.90625 9.515625 50.796875 4.046875 
Q 43.703125 -1.421875 29.984375 -1.421875 
Q 24.8125 -1.421875 18.96875 -0.25 
Q 13.140625 0.921875 6.890625 3.21875 
L 6.890625 13.375 
Q 12.890625 10.015625 18.65625 8.296875 
Q 24.421875 6.59375 29.984375 6.59375 
Q 38.421875 6.59375 43.015625 9.90625 
Q 47.609375 13.234375 47.609375 19.390625 
Q 47.609375 24.75 44.3125 27.78125 
Q 41.015625 30.8125 33.5 32.328125 
L 27.484375 33.5 
Q 16.453125 35.6875 11.515625 40.375 
Q 6.59375 45.0625 6.59375 53.421875 
Q 6.59375 63.09375 13.40625 68.65625 
Q 20.21875 74.21875 32.171875 74.21875 
Q 37.3125 74.21875 42.625 73.28125 
Q 47.953125 72.359375 53.515625 70.515625 
z
" id="DejaVuSans-83"/>
       <path d="M 52 44.1875 
Q 55.375 50.25 60.0625 53.125 
Q 64.75 56 71.09375 56 
Q 79.640625 56 84.28125 50.015625 
Q 88.921875 44.046875 88.921875 33.015625 
L 88.921875 0 
L 79.890625 0 
L 79.890625 32.71875 
Q 79.890625 40.578125 77.09375 44.375 
Q 74.3125 48.1875 68.609375 48.1875 
Q 61.625 48.1875 57.5625 43.546875 
Q 53.515625 38.921875 53.515625 30.90625 
L 53.515625 0 
L 44.484375 0 
L 44.484375 32.71875 
Q 44.484375 40.625 41.703125 44.40625 
Q 38.921875 48.1875 33.109375 48.1875 
Q 26.21875 48.1875 22.15625 43.53125 
Q 18.109375 38.875 18.109375 30.90625 
L 18.109375 0 
L 9.078125 0 
L 9.078125 54.6875 
L 18.109375 54.6875 
L 18.109375 46.1875 
Q 21.1875 51.21875 25.484375 53.609375 
Q 29.78125 56 35.6875 56 
Q 41.65625 56 45.828125 52.96875 
Q 50 49.953125 52 44.1875 
z
" id="DejaVuSans-109"/>
       <path d="M 18.109375 8.203125 
L 18.109375 -20.796875 
L 9.078125 -20.796875 
L 9.078125 54.6875 
L 18.109375 54.6875 
L 18.109375 46.390625 
Q 20.953125 51.265625 25.265625 53.625 
Q 29.59375 56 35.59375 56 
Q 45.5625 56 51.78125 48.09375 
Q 58.015625 40.1875 58.015625 27.296875 
Q 58.015625 14.40625 51.78125 6.484375 
Q 45.5625 -1.421875 35.59375 -1.421875 
Q 29.59375 -1.421875 25.265625 0.953125 
Q 20.953125 3.328125 18.109375 8.203125 
z
M 48.6875 27.296875 
Q 48.6875 37.203125 44.609375 42.84375 
Q 40.53125 48.484375 33.40625 48.484375 
Q 26.265625 48.484375 22.1875 42.84375 
Q 18.109375 37.203125 18.109375 27.296875 
Q 18.109375 17.390625 22.1875 11.75 
Q 26.265625 6.109375 33.40625 6.109375 
Q 40.53125 6.109375 44.609375 11.75 
Q 48.6875 17.390625 48.6875 27.296875 
z
" id="DejaVuSans-112"/>
       <path d="M 54.890625 54.6875 
L 35.109375 28.078125 
L 55.90625 0 
L 45.3125 0 
L 29.390625 21.484375 
L 13.484375 0 
L 2.875 0 
L 24.125 28.609375 
L 4.6875 54.6875 
L 15.28125 54.6875 
L 29.78125 35.203125 
L 44.28125 54.6875 
z
" id="DejaVuSans-120"/>
      </defs>
      <use xlink:href="#DejaVuSans-83"/>
      <use x="63.476562" xlink:href="#DejaVuSans-105"/>
      <use x="91.259766" xlink:href="#DejaVuSans-109"/>
      <use x="188.671875" xlink:href="#DejaVuSans-112"/>
      <use x="252.148438" xlink:href="#DejaVuSans-108"/>
      <use x="279.931641" xlink:href="#DejaVuSans-101"/>
      <use x="339.705078" xlink:href="#DejaVuSans-120"/>
      <use x="398.884766" xlink:href="#DejaVuSans-48"/>
     </g>
    </g>
    <g id="line2d_36">
     <path d="M 305.546875 91.165938 
L 325.546875 91.165938 
" style="fill:none;stroke:#ff7f0e;stroke-linecap:square;stroke-width:1.5;"/>
    </g>
    <g id="line2d_37"/>
    <g id="text_11">
     <!-- Simplex1 -->
     <g transform="translate(333.546875 94.665938)scale(0.1 -0.1)">
      <use xlink:href="#DejaVuSans-83"/>
      <use x="63.476562" xlink:href="#DejaVuSans-105"/>
      <use x="91.259766" xlink:href="#DejaVuSans-109"/>
      <use x="188.671875" xlink:href="#DejaVuSans-112"/>
      <use x="252.148438" xlink:href="#DejaVuSans-108"/>
      <use x="279.931641" xlink:href="#DejaVuSans-101"/>
      <use x="339.705078" xlink:href="#DejaVuSans-120"/>
      <use x="398.884766" xlink:href="#DejaVuSans-49"/>
     </g>
    </g>
    <g id="line2d_38">
     <path d="M 305.546875 105.844063 
L 325.546875 105.844063 
" style="fill:none;stroke:#2ca02c;stroke-linecap:square;stroke-width:1.5;"/>
    </g>
    <g id="line2d_39"/>
    <g id="text_12">
     <!-- Simplex2 -->
     <g transform="translate(333.546875 109.344063)scale(0.1 -0.1)">
      <use xlink:href="#DejaVuSans-83"/>
      <use x="63.476562" xlink:href="#DejaVuSans-105"/>
      <use x="91.259766" xlink:href="#DejaVuSans-109"/>
      <use x="188.671875" xlink:href="#DejaVuSans-112"/>
      <use x="252.148438" xlink:href="#DejaVuSans-108"/>
      <use x="279.931641" xlink:href="#DejaVuSans-101"/>
      <use x="339.705078" xlink:href="#DejaVuSans-120"/>
      <use x="398.884766" xlink:href="#DejaVuSans-50"/>
     </g>
    </g>
    <g id="line2d_40">
     <path d="M 305.546875 120.522188 
L 325.546875 120.522188 
" style="fill:none;stroke:#d62728;stroke-linecap:square;stroke-width:1.5;"/>
    </g>
    <g id="line2d_41"/>
    <g id="text_13">
     <!-- Simplex3 -->
     <g transform="translate(333.546875 124.022188)scale(0.1 -0.1)">
      <defs>
       <path d="M 40.578125 39.3125 
Q 47.65625 37.796875 51.625 33 
Q 55.609375 28.21875 55.609375 21.1875 
Q 55.609375 10.40625 48.1875 4.484375 
Q 40.765625 -1.421875 27.09375 -1.421875 
Q 22.515625 -1.421875 17.65625 -0.515625 
Q 12.796875 0.390625 7.625 2.203125 
L 7.625 11.71875 
Q 11.71875 9.328125 16.59375 8.109375 
Q 21.484375 6.890625 26.8125 6.890625 
Q 36.078125 6.890625 40.9375 10.546875 
Q 45.796875 14.203125 45.796875 21.1875 
Q 45.796875 27.640625 41.28125 31.265625 
Q 36.765625 34.90625 28.71875 34.90625 
L 20.21875 34.90625 
L 20.21875 43.015625 
L 29.109375 43.015625 
Q 36.375 43.015625 40.234375 45.921875 
Q 44.09375 48.828125 44.09375 54.296875 
Q 44.09375 59.90625 40.109375 62.90625 
Q 36.140625 65.921875 28.71875 65.921875 
Q 24.65625 65.921875 20.015625 65.03125 
Q 15.375 64.15625 9.8125 62.3125 
L 9.8125 71.09375 
Q 15.4375 72.65625 20.34375 73.4375 
Q 25.25 74.21875 29.59375 74.21875 
Q 40.828125 74.21875 47.359375 69.109375 
Q 53.90625 64.015625 53.90625 55.328125 
Q 53.90625 49.265625 50.4375 45.09375 
Q 46.96875 40.921875 40.578125 39.3125 
z
" id="DejaVuSans-51"/>
      </defs>
      <use xlink:href="#DejaVuSans-83"/>
      <use x="63.476562" xlink:href="#DejaVuSans-105"/>
      <use x="91.259766" xlink:href="#DejaVuSans-109"/>
      <use x="188.671875" xlink:href="#DejaVuSans-112"/>
      <use x="252.148438" xlink:href="#DejaVuSans-108"/>
      <use x="279.931641" xlink:href="#DejaVuSans-101"/>
      <use x="339.705078" xlink:href="#DejaVuSans-120"/>
      <use x="398.884766" xlink:href="#DejaVuSans-51"/>
     </g>
    </g>
    <g id="line2d_42">
     <path d="M 305.546875 135.200313 
L 325.546875 135.200313 
" style="fill:none;stroke:#9467bd;stroke-linecap:square;stroke-width:1.5;"/>
    </g>
    <g id="line2d_43"/>
    <g id="text_14">
     <!-- Simplex4 -->
     <g transform="translate(333.546875 138.700313)scale(0.1 -0.1)">
      <use xlink:href="#DejaVuSans-83"/>
      <use x="63.476562" xlink:href="#DejaVuSans-105"/>
      <use x="91.259766" xlink:href="#DejaVuSans-109"/>
      <use x="188.671875" xlink:href="#DejaVuSans-112"/>
      <use x="252.148438" xlink:href="#DejaVuSans-108"/>
      <use x="279.931641" xlink:href="#DejaVuSans-101"/>
      <use x="339.705078" xlink:href="#DejaVuSans-120"/>
      <use x="398.884766" xlink:href="#DejaVuSans-52"/>
     </g>
    </g>
    <g id="line2d_44">
     <path d="M 305.546875 149.878438 
L 325.546875 149.878438 
" style="fill:none;stroke:#8c564b;stroke-linecap:square;stroke-width:1.5;"/>
    </g>
    <g id="line2d_45"/>
    <g id="text_15">
     <!-- Simplex5 -->
     <g transform="translate(333.546875 153.378438)scale(0.1 -0.1)">
      <defs>
       <path d="M 10.796875 72.90625 
L 49.515625 72.90625 
L 49.515625 64.59375 
L 19.828125 64.59375 
L 19.828125 46.734375 
Q 21.96875 47.46875 24.109375 47.828125 
Q 26.265625 48.1875 28.421875 48.1875 
Q 40.625 48.1875 47.75 41.5 
Q 54.890625 34.8125 54.890625 23.390625 
Q 54.890625 11.625 47.5625 5.09375 
Q 40.234375 -1.421875 26.90625 -1.421875 
Q 22.3125 -1.421875 17.546875 -0.640625 
Q 12.796875 0.140625 7.71875 1.703125 
L 7.71875 11.625 
Q 12.109375 9.234375 16.796875 8.0625 
Q 21.484375 6.890625 26.703125 6.890625 
Q 35.15625 6.890625 40.078125 11.328125 
Q 45.015625 15.765625 45.015625 23.390625 
Q 45.015625 31 40.078125 35.4375 
Q 35.15625 39.890625 26.703125 39.890625 
Q 22.75 39.890625 18.8125 39.015625 
Q 14.890625 38.140625 10.796875 36.28125 
z
" id="DejaVuSans-53"/>
      </defs>
      <use xlink:href="#DejaVuSans-83"/>
      <use x="63.476562" xlink:href="#DejaVuSans-105"/>
      <use x="91.259766" xlink:href="#DejaVuSans-109"/>
      <use x="188.671875" xlink:href="#DejaVuSans-112"/>
      <use x="252.148438" xlink:href="#DejaVuSans-108"/>
      <use x="279.931641" xlink:href="#DejaVuSans-101"/>
      <use x="339.705078" xlink:href="#DejaVuSans-120"/>
      <use x="398.884766" xlink:href="#DejaVuSans-53"/>
     </g>
    </g>
    <g id="line2d_46">
     <path d="M 305.546875 164.556563 
L 325.546875 164.556563 
" style="fill:none;stroke:#e377c2;stroke-linecap:square;stroke-width:1.5;"/>
    </g>
    <g id="line2d_47"/>
    <g id="text_16">
     <!-- Simplex6 -->
     <g transform="translate(333.546875 168.056563)scale(0.1 -0.1)">
      <use xlink:href="#DejaVuSans-83"/>
      <use x="63.476562" xlink:href="#DejaVuSans-105"/>
      <use x="91.259766" xlink:href="#DejaVuSans-109"/>
      <use x="188.671875" xlink:href="#DejaVuSans-112"/>
      <use x="252.148438" xlink:href="#DejaVuSans-108"/>
      <use x="279.931641" xlink:href="#DejaVuSans-101"/>
      <use x="339.705078" xlink:href="#DejaVuSans-120"/>
      <use x="398.884766" xlink:href="#DejaVuSans-54"/>
     </g>
    </g>
    <g id="line2d_48">
     <path d="M 305.546875 179.234688 
L 325.546875 179.234688 
" style="fill:none;stroke:#7f7f7f;stroke-linecap:square;stroke-width:1.5;"/>
    </g>
    <g id="line2d_49"/>
    <g id="text_17">
     <!-- Simplex7 -->
     <g transform="translate(333.546875 182.734688)scale(0.1 -0.1)">
      <defs>
       <path d="M 8.203125 72.90625 
L 55.078125 72.90625 
L 55.078125 68.703125 
L 28.609375 0 
L 18.3125 0 
L 43.21875 64.59375 
L 8.203125 64.59375 
z
" id="DejaVuSans-55"/>
      </defs>
      <use xlink:href="#DejaVuSans-83"/>
      <use x="63.476562" xlink:href="#DejaVuSans-105"/>
      <use x="91.259766" xlink:href="#DejaVuSans-109"/>
      <use x="188.671875" xlink:href="#DejaVuSans-112"/>
      <use x="252.148438" xlink:href="#DejaVuSans-108"/>
      <use x="279.931641" xlink:href="#DejaVuSans-101"/>
      <use x="339.705078" xlink:href="#DejaVuSans-120"/>
      <use x="398.884766" xlink:href="#DejaVuSans-55"/>
     </g>
    </g>
    <g id="line2d_50">
     <path d="M 305.546875 193.912813 
L 325.546875 193.912813 
" style="fill:none;stroke:#bcbd22;stroke-linecap:square;stroke-width:1.5;"/>
    </g>
    <g id="line2d_51"/>
    <g id="text_18">
     <!-- Simplex8 -->
     <g transform="translate(333.546875 197.412813)scale(0.1 -0.1)">
      <use xlink:href="#DejaVuSans-83"/>
      <use x="63.476562" xlink:href="#DejaVuSans-105"/>
      <use x="91.259766" xlink:href="#DejaVuSans-109"/>
      <use x="188.671875" xlink:href="#DejaVuSans-112"/>
      <use x="252.148438" xlink:href="#DejaVuSans-108"/>
      <use x="279.931641" xlink:href="#DejaVuSans-101"/>
      <use x="339.705078" xlink:href="#DejaVuSans-120"/>
      <use x="398.884766" xlink:href="#DejaVuSans-56"/>
     </g>
    </g>
    <g id="line2d_52">
     <path d="M 305.546875 208.590937 
L 325.546875 208.590937 
" style="fill:none;stroke:#17becf;stroke-linecap:square;stroke-width:1.5;"/>
    </g>
    <g id="line2d_53"/>
    <g id="text_19">
     <!-- Simplex9 -->
     <g transform="translate(333.546875 212.090937)scale(0.1 -0.1)">
      <defs>
       <path d="M 10.984375 1.515625 
L 10.984375 10.5 
Q 14.703125 8.734375 18.5 7.8125 
Q 22.3125 6.890625 25.984375 6.890625 
Q 35.75 6.890625 40.890625 13.453125 
Q 46.046875 20.015625 46.78125 33.40625 
Q 43.953125 29.203125 39.59375 26.953125 
Q 35.25 24.703125 29.984375 24.703125 
Q 19.046875 24.703125 12.671875 31.3125 
Q 6.296875 37.9375 6.296875 49.421875 
Q 6.296875 60.640625 12.9375 67.421875 
Q 19.578125 74.21875 30.609375 74.21875 
Q 43.265625 74.21875 49.921875 64.515625 
Q 56.59375 54.828125 56.59375 36.375 
Q 56.59375 19.140625 48.40625 8.859375 
Q 40.234375 -1.421875 26.421875 -1.421875 
Q 22.703125 -1.421875 18.890625 -0.6875 
Q 15.09375 0.046875 10.984375 1.515625 
z
M 30.609375 32.421875 
Q 37.25 32.421875 41.125 36.953125 
Q 45.015625 41.5 45.015625 49.421875 
Q 45.015625 57.28125 41.125 61.84375 
Q 37.25 66.40625 30.609375 66.40625 
Q 23.96875 66.40625 20.09375 61.84375 
Q 16.21875 57.28125 16.21875 49.421875 
Q 16.21875 41.5 20.09375 36.953125 
Q 23.96875 32.421875 30.609375 32.421875 
z
" id="DejaVuSans-57"/>
      </defs>
      <use xlink:href="#DejaVuSans-83"/>
      <use x="63.476562" xlink:href="#DejaVuSans-105"/>
      <use x="91.259766" xlink:href="#DejaVuSans-109"/>
      <use x="188.671875" xlink:href="#DejaVuSans-112"/>
      <use x="252.148438" xlink:href="#DejaVuSans-108"/>
      <use x="279.931641" xlink:href="#DejaVuSans-101"/>
      <use x="339.705078" xlink:href="#DejaVuSans-120"/>
      <use x="398.884766" xlink:href="#DejaVuSans-57"/>
     </g>
    </g>
   </g>
  </g>
 </g>
 <defs>
  <clipPath id="pa5ba94bda8">
   <rect height="217.44" width="334.8" x="54" y="34.56"/>
  </clipPath>
 </defs>
</svg>
