<?xml version="1.0" encoding="utf-8" standalone="no"?>
<!DOCTYPE svg PUBLIC "-//W3C//DTD SVG 1.1//EN"
  "http://www.w3.org/Graphics/SVG/1.1/DTD/svg11.dtd">
<!-- Created with matplotlib (https://matplotlib.org/) -->
<svg height="288pt" version="1.1" viewBox="0 0 432 288" width="432pt" xmlns="http://www.w3.org/2000/svg" xmlns:xlink="http://www.w3.org/1999/xlink">
 <metadata>
  <rdf:RDF xmlns:cc="http://creativecommons.org/ns#" xmlns:dc="http://purl.org/dc/elements/1.1/" xmlns:rdf="http://www.w3.org/1999/02/22-rdf-syntax-ns#">
   <cc:Work>
    <dc:type rdf:resource="http://purl.org/dc/dcmitype/StillImage"/>
    <dc:date>2021-04-08T19:37:19.828038</dc:date>
    <dc:format>image/svg+xml</dc:format>
    <dc:creator>
     <cc:Agent>
      <dc:title>Matplotlib v3.3.4, https://matplotlib.org/</dc:title>
     </cc:Agent>
    </dc:creator>
   </cc:Work>
  </rdf:RDF>
 </metadata>
 <defs>
  <style type="text/css">*{stroke-linecap:butt;stroke-linejoin:round;}</style>
 </defs>
 <g id="figure_1">
  <g id="patch_1">
   <path d="M 0 288 
L 432 288 
L 432 0 
L 0 0 
z
" style="fill:#ffffff;"/>
  </g>
  <g id="axes_1">
   <g id="patch_2">
    <path d="M 54 252 
L 388.8 252 
L 388.8 34.56 
L 54 34.56 
z
" style="fill:#ffffff;"/>
   </g>
   <g id="PolyCollection_1">
    <defs>
     <path d="M 57.381818 -243.556364 
L 57.381818 -243.556364 
L 60.763636 -243.556364 
L 64.145455 -243.556364 
L 67.527273 -243.556364 
L 70.909091 -243.556364 
L 74.290909 -243.556364 
L 77.672727 -243.556364 
L 81.054545 -243.556364 
L 84.436364 -243.556364 
L 87.818182 -243.556364 
L 91.2 -243.556364 
L 94.581818 -243.556364 
L 97.963636 -243.556364 
L 101.345455 -243.556364 
L 104.727273 -243.556364 
L 108.109091 -243.556364 
L 111.490909 -83.412561 
L 114.872727 -83.412561 
L 118.254545 -83.412561 
L 121.636364 -83.412561 
L 125.018182 -83.412561 
L 128.4 -83.412561 
L 131.781818 -83.412561 
L 135.163636 -83.412561 
L 138.545455 -83.412561 
L 141.927273 -83.412561 
L 145.309091 -83.412561 
L 148.690909 -83.412561 
L 152.072727 -83.412561 
L 155.454545 -83.412561 
L 158.836364 -83.412561 
L 162.218182 -72.285604 
L 165.6 -72.285604 
L 168.981818 -72.285604 
L 172.363636 -72.285604 
L 175.745455 -72.285604 
L 179.127273 -72.285604 
L 182.509091 -72.285604 
L 185.890909 -72.285604 
L 189.272727 -72.285604 
L 192.654545 -72.285604 
L 196.036364 -72.285604 
L 199.418182 -72.285604 
L 202.8 -72.285604 
L 206.181818 -72.285604 
L 209.563636 -72.285604 
L 212.945455 -72.285604 
L 216.327273 -72.285604 
L 219.709091 -72.285604 
L 223.090909 -72.285604 
L 226.472727 -72.285604 
L 229.854545 -72.285604 
L 233.236364 -72.285604 
L 236.618182 -50.07792 
L 240 -50.07792 
L 243.381818 -50.07792 
L 246.763636 -50.07792 
L 250.145455 -50.07792 
L 253.527273 -50.07792 
L 256.909091 -50.07792 
L 260.290909 -50.07792 
L 263.672727 -50.07792 
L 267.054545 -50.07792 
L 270.436364 -50.07792 
L 273.818182 -50.07792 
L 277.2 -50.07792 
L 280.581818 -50.07792 
L 283.963636 -50.07792 
L 287.345455 -50.07792 
L 290.727273 -50.07792 
L 294.109091 -50.07792 
L 297.490909 -50.07792 
L 300.872727 -50.07792 
L 304.254545 -50.07792 
L 307.636364 -50.07792 
L 311.018182 -50.07792 
L 314.4 -50.07792 
L 317.781818 -50.07792 
L 321.163636 -50.07792 
L 324.545455 -50.07792 
L 327.927273 -50.07792 
L 331.309091 -50.07792 
L 334.690909 -50.07792 
L 338.072727 -50.07792 
L 341.454545 -50.07792 
L 344.836364 -50.07792 
L 348.218182 -50.07792 
L 351.6 -50.07792 
L 354.981818 -50.07792 
L 358.363636 -50.07792 
L 361.745455 -50.07792 
L 365.127273 -50.07792 
L 368.509091 -50.07792 
L 371.890909 -50.07792 
L 375.272727 -50.07792 
L 378.654545 -50.07792 
L 382.036364 -50.07792 
L 385.418182 -50.07792 
L 388.8 -50.07792 
L 392.181818 -50.07792 
L 392.181818 -97.576899 
L 392.181818 -97.576899 
L 388.8 -97.576899 
L 385.418182 -107.875764 
L 382.036364 -107.875764 
L 378.654545 -107.875764 
L 375.272727 -107.875764 
L 371.890909 -107.875764 
L 368.509091 -107.875764 
L 365.127273 -107.875764 
L 361.745455 -107.875764 
L 358.363636 -107.875764 
L 354.981818 -107.875764 
L 351.6 -107.875764 
L 348.218182 -107.875764 
L 344.836364 -107.875764 
L 341.454545 -107.875764 
L 338.072727 -107.875764 
L 334.690909 -107.875764 
L 331.309091 -107.875764 
L 327.927273 -107.875764 
L 324.545455 -107.875764 
L 321.163636 -107.875764 
L 317.781818 -107.875764 
L 314.4 -107.875764 
L 311.018182 -107.875764 
L 307.636364 -107.875764 
L 304.254545 -107.875764 
L 300.872727 -107.875764 
L 297.490909 -107.875764 
L 294.109091 -107.875764 
L 290.727273 -107.875764 
L 287.345455 -107.875764 
L 283.963636 -107.875764 
L 280.581818 -107.875764 
L 277.2 -107.875764 
L 273.818182 -107.875764 
L 270.436364 -114.874283 
L 267.054545 -114.874283 
L 263.672727 -125.698848 
L 260.290909 -125.698848 
L 256.909091 -125.698848 
L 253.527273 -125.698848 
L 250.145455 -125.698848 
L 246.763636 -125.698848 
L 243.381818 -125.698848 
L 240 -125.698848 
L 236.618182 -132.154932 
L 233.236364 -132.154932 
L 229.854545 -132.154932 
L 226.472727 -132.154932 
L 223.090909 -132.154932 
L 219.709091 -132.154932 
L 216.327273 -132.154932 
L 212.945455 -132.154932 
L 209.563636 -132.154932 
L 206.181818 -132.154932 
L 202.8 -132.154932 
L 199.418182 -132.154932 
L 196.036364 -139.502724 
L 192.654545 -139.502724 
L 189.272727 -139.502724 
L 185.890909 -139.502724 
L 182.509091 -139.502724 
L 179.127273 -139.502724 
L 175.745455 -139.502724 
L 172.363636 -171.874865 
L 168.981818 -171.874865 
L 165.6 -171.874865 
L 162.218182 -171.874865 
L 158.836364 -171.874865 
L 155.454545 -215.147489 
L 152.072727 -215.147489 
L 148.690909 -215.147489 
L 145.309091 -215.147489 
L 141.927273 -215.147489 
L 138.545455 -215.147489 
L 135.163636 -215.147489 
L 131.781818 -215.147489 
L 128.4 -215.147489 
L 125.018182 -215.147489 
L 121.636364 -215.147489 
L 118.254545 -215.147489 
L 114.872727 -215.147489 
L 111.490909 -215.147489 
L 108.109091 -243.556364 
L 104.727273 -243.556364 
L 101.345455 -243.556364 
L 97.963636 -243.556364 
L 94.581818 -243.556364 
L 91.2 -243.556364 
L 87.818182 -243.556364 
L 84.436364 -243.556364 
L 81.054545 -243.556364 
L 77.672727 -243.556364 
L 74.290909 -243.556364 
L 70.909091 -243.556364 
L 67.527273 -243.556364 
L 64.145455 -243.556364 
L 60.763636 -243.556364 
L 57.381818 -243.556364 
z
" id="m81b24f4065" style="stroke:#0000ff;stroke-opacity:0.5;"/>
    </defs>
    <g clip-path="url(#pf288fb6158)">
     <use style="fill:#0000ff;fill-opacity:0.5;stroke:#0000ff;stroke-opacity:0.5;" x="0" xlink:href="#m81b24f4065" y="288"/>
    </g>
   </g>
   <g id="PolyCollection_2">
    <defs>
     <path d="M 57.381818 -243.556364 
L 57.381818 -243.556364 
L 60.763636 -243.556364 
L 64.145455 -243.556364 
L 67.527273 -243.556364 
L 70.909091 -243.556364 
L 74.290909 -243.556364 
L 77.672727 -243.556364 
L 81.054545 -155.694578 
L 84.436364 -155.694578 
L 87.818182 -134.298641 
L 91.2 -134.298641 
L 94.581818 -105.757216 
L 97.963636 -105.757216 
L 101.345455 -87.122643 
L 104.727273 -87.122643 
L 108.109091 -87.122643 
L 111.490909 -87.122643 
L 114.872727 -87.122643 
L 118.254545 -87.122643 
L 121.636364 -82.38628 
L 125.018182 -82.38628 
L 128.4 -82.38628 
L 131.781818 -82.38628 
L 135.163636 -65.557622 
L 138.545455 -65.557622 
L 141.927273 -65.557622 
L 145.309091 -63.973562 
L 148.690909 -63.973562 
L 152.072727 -63.973562 
L 155.454545 -60.497893 
L 158.836364 -54.084763 
L 162.218182 -54.084763 
L 165.6 -54.084763 
L 168.981818 -54.084763 
L 172.363636 -54.084763 
L 175.745455 -54.084763 
L 179.127273 -54.084763 
L 182.509091 -53.206721 
L 185.890909 -53.206721 
L 189.272727 -53.049679 
L 192.654545 -53.049679 
L 196.036364 -53.049679 
L 199.418182 -53.049679 
L 202.8 -53.049679 
L 206.181818 -52.66428 
L 209.563636 -52.66428 
L 212.945455 -52.66428 
L 216.327273 -52.66428 
L 219.709091 -52.645901 
L 223.090909 -52.645901 
L 226.472727 -52.645901 
L 229.854545 -52.609252 
L 233.236364 -52.609252 
L 236.618182 -52.568653 
L 240 -52.568653 
L 243.381818 -52.568653 
L 246.763636 -52.568653 
L 250.145455 -52.527633 
L 253.527273 -52.527633 
L 256.909091 -52.527633 
L 260.290909 -52.527633 
L 263.672727 -52.521755 
L 267.054545 -52.520233 
L 270.436364 -52.520233 
L 273.818182 -52.520233 
L 277.2 -52.520233 
L 280.581818 -52.520233 
L 283.963636 -52.520233 
L 287.345455 -52.520233 
L 290.727273 -52.520233 
L 294.109091 -52.519385 
L 297.490909 -52.519225 
L 300.872727 -52.519225 
L 304.254545 -52.519225 
L 307.636364 -52.519225 
L 311.018182 -52.5191 
L 314.4 -52.519057 
L 317.781818 -52.519057 
L 321.163636 -52.519053 
L 324.545455 -52.519053 
L 327.927273 -52.519053 
L 331.309091 -52.519053 
L 334.690909 -52.519053 
L 338.072727 -52.519053 
L 341.454545 -52.519053 
L 344.836364 -52.519053 
L 348.218182 -52.518992 
L 351.6 -52.518992 
L 354.981818 -52.518992 
L 358.363636 -52.518992 
L 361.745455 -52.518992 
L 365.127273 -52.518992 
L 368.509091 -52.518992 
L 371.890909 -52.518992 
L 375.272727 -52.518991 
L 378.654545 -52.518991 
L 382.036364 -52.518991 
L 385.418182 -52.518991 
L 388.8 -52.518991 
L 392.181818 -52.518991 
L 392.181818 -52.592924 
L 392.181818 -52.592924 
L 388.8 -52.592924 
L 385.418182 -52.592924 
L 382.036364 -52.592924 
L 378.654545 -52.592924 
L 375.272727 -52.592924 
L 371.890909 -52.592924 
L 368.509091 -52.592924 
L 365.127273 -52.592924 
L 361.745455 -52.592924 
L 358.363636 -52.613805 
L 354.981818 -52.613805 
L 351.6 -52.650576 
L 348.218182 -52.650576 
L 344.836364 -52.650576 
L 341.454545 -52.987465 
L 338.072727 -52.987465 
L 334.690909 -52.987465 
L 331.309091 -52.987465 
L 327.927273 -52.987465 
L 324.545455 -54.160757 
L 321.163636 -54.160757 
L 317.781818 -54.160757 
L 314.4 -54.160757 
L 311.018182 -54.160757 
L 307.636364 -54.160757 
L 304.254545 -54.160757 
L 300.872727 -54.160757 
L 297.490909 -54.160757 
L 294.109091 -54.160757 
L 290.727273 -54.160757 
L 287.345455 -54.160757 
L 283.963636 -54.160757 
L 280.581818 -54.160757 
L 277.2 -54.160757 
L 273.818182 -54.160757 
L 270.436364 -54.160757 
L 267.054545 -54.160757 
L 263.672727 -57.473874 
L 260.290909 -57.473874 
L 256.909091 -57.473874 
L 253.527273 -57.473874 
L 250.145455 -57.473874 
L 246.763636 -57.473874 
L 243.381818 -57.473874 
L 240 -57.473874 
L 236.618182 -57.473874 
L 233.236364 -59.05719 
L 229.854545 -59.05719 
L 226.472727 -63.385464 
L 223.090909 -63.385464 
L 219.709091 -63.385464 
L 216.327273 -63.385464 
L 212.945455 -64.541893 
L 209.563636 -64.541893 
L 206.181818 -66.358752 
L 202.8 -66.358752 
L 199.418182 -79.406062 
L 196.036364 -79.406062 
L 192.654545 -79.406062 
L 189.272727 -79.406062 
L 185.890909 -79.406062 
L 182.509091 -79.406062 
L 179.127273 -79.406062 
L 175.745455 -79.406062 
L 172.363636 -87.857728 
L 168.981818 -87.857728 
L 165.6 -87.857728 
L 162.218182 -87.857728 
L 158.836364 -87.857728 
L 155.454545 -87.857728 
L 152.072727 -87.857728 
L 148.690909 -87.857728 
L 145.309091 -87.857728 
L 141.927273 -100.896917 
L 138.545455 -100.896917 
L 135.163636 -119.648864 
L 131.781818 -119.648864 
L 128.4 -119.648864 
L 125.018182 -119.648864 
L 121.636364 -155.800202 
L 118.254545 -177.740166 
L 114.872727 -177.740166 
L 111.490909 -177.740166 
L 108.109091 -177.740166 
L 104.727273 -177.740166 
L 101.345455 -177.740166 
L 97.963636 -206.606149 
L 94.581818 -216.331123 
L 91.2 -216.331123 
L 87.818182 -216.331123 
L 84.436364 -216.331123 
L 81.054545 -216.331123 
L 77.672727 -243.556364 
L 74.290909 -243.556364 
L 70.909091 -243.556364 
L 67.527273 -243.556364 
L 64.145455 -243.556364 
L 60.763636 -243.556364 
L 57.381818 -243.556364 
z
" id="md825e27f1a" style="stroke:#00bfbf;stroke-opacity:0.5;"/>
    </defs>
    <g clip-path="url(#pf288fb6158)">
     <use style="fill:#00bfbf;fill-opacity:0.5;stroke:#00bfbf;stroke-opacity:0.5;" x="0" xlink:href="#md825e27f1a" y="288"/>
    </g>
   </g>
   <g id="PolyCollection_3">
    <defs>
     <path d="M 60.763636 -243.556364 
L 60.763636 -243.556364 
L 64.145455 -212.050238 
L 67.527273 -212.050238 
L 70.909091 -212.050238 
L 74.290909 -212.050238 
L 77.672727 -212.050238 
L 81.054545 -191.33992 
L 84.436364 -191.33992 
L 87.818182 -191.33992 
L 91.2 -127.228914 
L 94.581818 -100.8234 
L 97.963636 -100.8234 
L 101.345455 -100.8234 
L 104.727273 -100.8234 
L 108.109091 -89.000318 
L 111.490909 -87.897559 
L 114.872727 -87.897559 
L 118.254545 -83.097487 
L 121.636364 -81.586183 
L 125.018182 -81.586183 
L 128.4 -81.586183 
L 131.781818 -81.586183 
L 135.163636 -80.370212 
L 138.545455 -75.664191 
L 141.927273 -75.664191 
L 145.309091 -75.664191 
L 148.690909 -73.799756 
L 152.072727 -71.663876 
L 155.454545 -64.088975 
L 158.836364 -64.088975 
L 162.218182 -64.088975 
L 165.6 -54.830445 
L 168.981818 -54.830445 
L 172.363636 -54.830445 
L 175.745455 -54.830445 
L 179.127273 -54.830445 
L 182.509091 -54.63574 
L 185.890909 -54.538812 
L 189.272727 -54.396271 
L 192.654545 -54.253407 
L 196.036364 -54.15261 
L 199.418182 -54.100522 
L 202.8 -54.077817 
L 206.181818 -54.06846 
L 209.563636 -54.06846 
L 212.945455 -54.06846 
L 216.327273 -54.06846 
L 219.709091 -54.06846 
L 223.090909 -53.695468 
L 226.472727 -53.695468 
L 229.854545 -53.50918 
L 233.236364 -53.219392 
L 236.618182 -52.878963 
L 240 -52.878963 
L 243.381818 -52.842707 
L 246.763636 -52.526242 
L 250.145455 -52.526242 
L 253.527273 -52.526242 
L 256.909091 -52.526242 
L 260.290909 -52.526242 
L 263.672727 -52.519987 
L 267.054545 -52.519987 
L 270.436364 -52.51959 
L 273.818182 -52.51959 
L 277.2 -52.518994 
L 280.581818 -52.518994 
L 283.963636 -52.518994 
L 287.345455 -52.518994 
L 290.727273 -52.518994 
L 294.109091 -52.518994 
L 297.490909 -52.518994 
L 300.872727 -52.518994 
L 304.254545 -52.518994 
L 307.636364 -52.518994 
L 311.018182 -52.518994 
L 314.4 -52.518994 
L 317.781818 -52.518993 
L 321.163636 -52.518993 
L 324.545455 -52.518993 
L 327.927273 -52.518993 
L 331.309091 -52.518993 
L 334.690909 -52.518993 
L 338.072727 -52.518993 
L 341.454545 -52.518992 
L 344.836364 -52.518992 
L 348.218182 -52.518991 
L 351.6 -52.518991 
L 354.981818 -52.518991 
L 358.363636 -52.518991 
L 361.745455 -52.518991 
L 365.127273 -52.518991 
L 368.509091 -52.518991 
L 371.890909 -52.518991 
L 375.272727 -52.518991 
L 378.654545 -52.518991 
L 382.036364 -52.518991 
L 385.418182 -52.518991 
L 388.8 -52.518991 
L 392.181818 -52.518991 
L 392.181818 -52.518991 
L 392.181818 -52.518991 
L 388.8 -52.518991 
L 385.418182 -52.518991 
L 382.036364 -52.518991 
L 378.654545 -52.518991 
L 375.272727 -52.518991 
L 371.890909 -52.518991 
L 368.509091 -52.518991 
L 365.127273 -52.518991 
L 361.745455 -52.518991 
L 358.363636 -52.518991 
L 354.981818 -52.518991 
L 351.6 -52.518991 
L 348.218182 -52.518991 
L 344.836364 -52.518992 
L 341.454545 -52.518992 
L 338.072727 -52.518993 
L 334.690909 -52.518993 
L 331.309091 -52.518993 
L 327.927273 -52.518993 
L 324.545455 -52.518993 
L 321.163636 -52.518993 
L 317.781818 -52.518993 
L 314.4 -52.518994 
L 311.018182 -52.518994 
L 307.636364 -52.518994 
L 304.254545 -52.518994 
L 300.872727 -52.518994 
L 297.490909 -52.518994 
L 294.109091 -52.518994 
L 290.727273 -52.518994 
L 287.345455 -52.518994 
L 283.963636 -52.518994 
L 280.581818 -52.518994 
L 277.2 -52.518994 
L 273.818182 -52.51959 
L 270.436364 -52.51959 
L 267.054545 -52.519987 
L 263.672727 -52.519987 
L 260.290909 -52.526242 
L 256.909091 -52.526242 
L 253.527273 -52.526242 
L 250.145455 -52.526242 
L 246.763636 -52.526242 
L 243.381818 -52.842707 
L 240 -52.878963 
L 236.618182 -52.878963 
L 233.236364 -53.219392 
L 229.854545 -53.50918 
L 226.472727 -53.695468 
L 223.090909 -53.695468 
L 219.709091 -54.06846 
L 216.327273 -54.06846 
L 212.945455 -54.06846 
L 209.563636 -54.06846 
L 206.181818 -54.06846 
L 202.8 -54.077817 
L 199.418182 -54.100522 
L 196.036364 -54.15261 
L 192.654545 -54.253407 
L 189.272727 -54.396271 
L 185.890909 -54.538812 
L 182.509091 -54.63574 
L 179.127273 -54.830445 
L 175.745455 -54.830445 
L 172.363636 -54.830445 
L 168.981818 -54.830445 
L 165.6 -54.830445 
L 162.218182 -64.088975 
L 158.836364 -64.088975 
L 155.454545 -64.088975 
L 152.072727 -71.663876 
L 148.690909 -73.799756 
L 145.309091 -75.664191 
L 141.927273 -75.664191 
L 138.545455 -75.664191 
L 135.163636 -80.370212 
L 131.781818 -81.586183 
L 128.4 -81.586183 
L 125.018182 -81.586183 
L 121.636364 -81.586183 
L 118.254545 -83.097487 
L 114.872727 -87.897559 
L 111.490909 -87.897559 
L 108.109091 -89.000318 
L 104.727273 -100.8234 
L 101.345455 -100.8234 
L 97.963636 -100.8234 
L 94.581818 -100.8234 
L 91.2 -127.228914 
L 87.818182 -191.33992 
L 84.436364 -191.33992 
L 81.054545 -191.33992 
L 77.672727 -212.050238 
L 74.290909 -212.050238 
L 70.909091 -212.050238 
L 67.527273 -212.050238 
L 64.145455 -212.050238 
L 60.763636 -243.556364 
z
" id="mf0ce585593" style="stroke:#008000;stroke-opacity:0.5;"/>
    </defs>
    <g clip-path="url(#pf288fb6158)">
     <use style="fill:#008000;fill-opacity:0.5;stroke:#008000;stroke-opacity:0.5;" x="0" xlink:href="#mf0ce585593" y="288"/>
    </g>
   </g>
   <g id="PolyCollection_4">
    <defs>
     <path d="M 60.763636 -243.556364 
L 60.763636 -243.556364 
L 64.145455 -209.940427 
L 67.527273 -86.629062 
L 70.909091 -86.629062 
L 74.290909 -86.629062 
L 77.672727 -86.629062 
L 81.054545 -86.629062 
L 84.436364 -86.629062 
L 87.818182 -86.629062 
L 91.2 -77.610719 
L 94.581818 -77.610719 
L 97.963636 -77.610719 
L 101.345455 -77.610719 
L 104.727273 -77.610719 
L 108.109091 -77.610719 
L 111.490909 -64.568743 
L 114.872727 -64.156034 
L 118.254545 -58.843597 
L 121.636364 -58.349203 
L 125.018182 -58.349203 
L 128.4 -58.349203 
L 131.781818 -58.349203 
L 135.163636 -58.349203 
L 138.545455 -58.349203 
L 141.927273 -58.349203 
L 145.309091 -58.349203 
L 148.690909 -58.349203 
L 152.072727 -58.349203 
L 155.454545 -58.349203 
L 158.836364 -50.928307 
L 162.218182 -50.928307 
L 165.6 -50.928307 
L 168.981818 -50.928307 
L 172.363636 -50.928307 
L 175.745455 -50.928307 
L 179.127273 -50.928307 
L 182.509091 -50.928307 
L 185.890909 -50.928307 
L 189.272727 -50.928307 
L 192.654545 -50.928307 
L 196.036364 -50.928307 
L 199.418182 -50.928307 
L 202.8 -50.928307 
L 206.181818 -50.928307 
L 209.563636 -50.928307 
L 212.945455 -50.928307 
L 216.327273 -50.928307 
L 219.709091 -50.928307 
L 223.090909 -50.928307 
L 226.472727 -50.928307 
L 229.854545 -50.928307 
L 233.236364 -50.928307 
L 236.618182 -50.928307 
L 240 -50.928307 
L 243.381818 -50.928307 
L 246.763636 -50.928307 
L 250.145455 -50.928307 
L 253.527273 -50.928307 
L 256.909091 -50.928307 
L 260.290909 -50.928307 
L 263.672727 -50.928307 
L 267.054545 -50.928307 
L 270.436364 -50.928307 
L 273.818182 -50.928307 
L 277.2 -50.928307 
L 280.581818 -50.928307 
L 283.963636 -50.928307 
L 287.345455 -50.928307 
L 290.727273 -50.928307 
L 294.109091 -50.928307 
L 297.490909 -50.928307 
L 300.872727 -50.928307 
L 304.254545 -50.928307 
L 307.636364 -50.928307 
L 311.018182 -50.928307 
L 314.4 -50.928307 
L 317.781818 -49.451865 
L 321.163636 -49.451865 
L 324.545455 -49.451865 
L 327.927273 -49.451865 
L 331.309091 -49.451865 
L 334.690909 -49.451865 
L 338.072727 -49.451865 
L 341.454545 -49.451865 
L 344.836364 -49.451865 
L 348.218182 -49.451865 
L 351.6 -49.451865 
L 354.981818 -49.451865 
L 358.363636 -49.451865 
L 361.745455 -45.883636 
L 365.127273 -45.883636 
L 368.509091 -45.883636 
L 371.890909 -45.883636 
L 375.272727 -45.883636 
L 378.654545 -45.883636 
L 382.036364 -45.883636 
L 385.418182 -45.883636 
L 388.8 -45.883636 
L 392.181818 -45.883636 
L 392.181818 -64.098775 
L 392.181818 -64.098775 
L 388.8 -64.098775 
L 385.418182 -64.098775 
L 382.036364 -64.098775 
L 378.654545 -64.098775 
L 375.272727 -64.098775 
L 371.890909 -64.098775 
L 368.509091 -64.098775 
L 365.127273 -64.098775 
L 361.745455 -64.098775 
L 358.363636 -64.098775 
L 354.981818 -64.098775 
L 351.6 -64.098775 
L 348.218182 -64.098775 
L 344.836364 -64.098775 
L 341.454545 -64.098775 
L 338.072727 -64.098775 
L 334.690909 -64.098775 
L 331.309091 -64.098775 
L 327.927273 -64.098775 
L 324.545455 -64.098775 
L 321.163636 -64.098775 
L 317.781818 -64.098775 
L 314.4 -65.061529 
L 311.018182 -65.061529 
L 307.636364 -65.061529 
L 304.254545 -65.061529 
L 300.872727 -65.061529 
L 297.490909 -77.191385 
L 294.109091 -77.191385 
L 290.727273 -77.191385 
L 287.345455 -77.191385 
L 283.963636 -77.191385 
L 280.581818 -77.191385 
L 277.2 -77.191385 
L 273.818182 -77.191385 
L 270.436364 -77.191385 
L 267.054545 -77.191385 
L 263.672727 -77.191385 
L 260.290909 -77.191385 
L 256.909091 -77.191385 
L 253.527273 -77.191385 
L 250.145455 -77.217026 
L 246.763636 -77.217026 
L 243.381818 -77.217026 
L 240 -77.217026 
L 236.618182 -77.217026 
L 233.236364 -77.217026 
L 229.854545 -77.217026 
L 226.472727 -77.217026 
L 223.090909 -77.217026 
L 219.709091 -77.217026 
L 216.327273 -77.217026 
L 212.945455 -77.217026 
L 209.563636 -77.217026 
L 206.181818 -77.217026 
L 202.8 -77.217026 
L 199.418182 -77.217026 
L 196.036364 -77.217026 
L 192.654545 -77.217026 
L 189.272727 -77.217026 
L 185.890909 -77.217026 
L 182.509091 -77.217026 
L 179.127273 -77.217026 
L 175.745455 -77.217026 
L 172.363636 -77.217026 
L 168.981818 -77.217026 
L 165.6 -77.217026 
L 162.218182 -77.217026 
L 158.836364 -77.217026 
L 155.454545 -200.934323 
L 152.072727 -200.934323 
L 148.690909 -200.934323 
L 145.309091 -200.934323 
L 141.927273 -200.934323 
L 138.545455 -200.934323 
L 135.163636 -200.934323 
L 131.781818 -202.328883 
L 128.4 -202.328883 
L 125.018182 -202.328883 
L 121.636364 -202.328883 
L 118.254545 -202.328883 
L 114.872727 -202.328883 
L 111.490909 -203.05547 
L 108.109091 -203.05547 
L 104.727273 -203.05547 
L 101.345455 -203.05547 
L 97.963636 -203.05547 
L 94.581818 -203.05547 
L 91.2 -215.356229 
L 87.818182 -215.356229 
L 84.436364 -215.356229 
L 81.054545 -215.356229 
L 77.672727 -225.80174 
L 74.290909 -233.854541 
L 70.909091 -233.854541 
L 67.527273 -240.041295 
L 64.145455 -243.556364 
L 60.763636 -243.556364 
z
" id="md5d61dd099" style="stroke:#ffa500;stroke-opacity:0.5;"/>
    </defs>
    <g clip-path="url(#pf288fb6158)">
     <use style="fill:#ffa500;fill-opacity:0.5;stroke:#ffa500;stroke-opacity:0.5;" x="0" xlink:href="#md5d61dd099" y="288"/>
    </g>
   </g>
   <g id="matplotlib.axis_1">
    <g id="xtick_1">
     <g id="line2d_1">
      <defs>
       <path d="M 0 0 
L 0 3.5 
" id="mc0f2f5062c" style="stroke:#000000;stroke-width:0.8;"/>
      </defs>
      <g>
       <use style="stroke:#000000;stroke-width:0.8;" x="54" xlink:href="#mc0f2f5062c" y="252"/>
      </g>
     </g>
     <g id="text_1">
      <!-- 0 -->
      <g transform="translate(50.81875 266.598437)scale(0.1 -0.1)">
       <defs>
        <path d="M 31.78125 66.40625 
Q 24.171875 66.40625 20.328125 58.90625 
Q 16.5 51.421875 16.5 36.375 
Q 16.5 21.390625 20.328125 13.890625 
Q 24.171875 6.390625 31.78125 6.390625 
Q 39.453125 6.390625 43.28125 13.890625 
Q 47.125 21.390625 47.125 36.375 
Q 47.125 51.421875 43.28125 58.90625 
Q 39.453125 66.40625 31.78125 66.40625 
z
M 31.78125 74.21875 
Q 44.046875 74.21875 50.515625 64.515625 
Q 56.984375 54.828125 56.984375 36.375 
Q 56.984375 17.96875 50.515625 8.265625 
Q 44.046875 -1.421875 31.78125 -1.421875 
Q 19.53125 -1.421875 13.0625 8.265625 
Q 6.59375 17.96875 6.59375 36.375 
Q 6.59375 54.828125 13.0625 64.515625 
Q 19.53125 74.21875 31.78125 74.21875 
z
" id="DejaVuSans-48"/>
       </defs>
       <use xlink:href="#DejaVuSans-48"/>
      </g>
     </g>
    </g>
    <g id="xtick_2">
     <g id="line2d_2">
      <g>
       <use style="stroke:#000000;stroke-width:0.8;" x="121.636364" xlink:href="#mc0f2f5062c" y="252"/>
      </g>
     </g>
     <g id="text_2">
      <!-- 20 -->
      <g transform="translate(115.273864 266.598437)scale(0.1 -0.1)">
       <defs>
        <path d="M 19.1875 8.296875 
L 53.609375 8.296875 
L 53.609375 0 
L 7.328125 0 
L 7.328125 8.296875 
Q 12.9375 14.109375 22.625 23.890625 
Q 32.328125 33.6875 34.8125 36.53125 
Q 39.546875 41.84375 41.421875 45.53125 
Q 43.3125 49.21875 43.3125 52.78125 
Q 43.3125 58.59375 39.234375 62.25 
Q 35.15625 65.921875 28.609375 65.921875 
Q 23.96875 65.921875 18.8125 64.3125 
Q 13.671875 62.703125 7.8125 59.421875 
L 7.8125 69.390625 
Q 13.765625 71.78125 18.9375 73 
Q 24.125 74.21875 28.421875 74.21875 
Q 39.75 74.21875 46.484375 68.546875 
Q 53.21875 62.890625 53.21875 53.421875 
Q 53.21875 48.921875 51.53125 44.890625 
Q 49.859375 40.875 45.40625 35.40625 
Q 44.1875 33.984375 37.640625 27.21875 
Q 31.109375 20.453125 19.1875 8.296875 
z
" id="DejaVuSans-50"/>
       </defs>
       <use xlink:href="#DejaVuSans-50"/>
       <use x="63.623047" xlink:href="#DejaVuSans-48"/>
      </g>
     </g>
    </g>
    <g id="xtick_3">
     <g id="line2d_3">
      <g>
       <use style="stroke:#000000;stroke-width:0.8;" x="189.272727" xlink:href="#mc0f2f5062c" y="252"/>
      </g>
     </g>
     <g id="text_3">
      <!-- 40 -->
      <g transform="translate(182.910227 266.598437)scale(0.1 -0.1)">
       <defs>
        <path d="M 37.796875 64.3125 
L 12.890625 25.390625 
L 37.796875 25.390625 
z
M 35.203125 72.90625 
L 47.609375 72.90625 
L 47.609375 25.390625 
L 58.015625 25.390625 
L 58.015625 17.1875 
L 47.609375 17.1875 
L 47.609375 0 
L 37.796875 0 
L 37.796875 17.1875 
L 4.890625 17.1875 
L 4.890625 26.703125 
z
" id="DejaVuSans-52"/>
       </defs>
       <use xlink:href="#DejaVuSans-52"/>
       <use x="63.623047" xlink:href="#DejaVuSans-48"/>
      </g>
     </g>
    </g>
    <g id="xtick_4">
     <g id="line2d_4">
      <g>
       <use style="stroke:#000000;stroke-width:0.8;" x="256.909091" xlink:href="#mc0f2f5062c" y="252"/>
      </g>
     </g>
     <g id="text_4">
      <!-- 60 -->
      <g transform="translate(250.546591 266.598437)scale(0.1 -0.1)">
       <defs>
        <path d="M 33.015625 40.375 
Q 26.375 40.375 22.484375 35.828125 
Q 18.609375 31.296875 18.609375 23.390625 
Q 18.609375 15.53125 22.484375 10.953125 
Q 26.375 6.390625 33.015625 6.390625 
Q 39.65625 6.390625 43.53125 10.953125 
Q 47.40625 15.53125 47.40625 23.390625 
Q 47.40625 31.296875 43.53125 35.828125 
Q 39.65625 40.375 33.015625 40.375 
z
M 52.59375 71.296875 
L 52.59375 62.3125 
Q 48.875 64.0625 45.09375 64.984375 
Q 41.3125 65.921875 37.59375 65.921875 
Q 27.828125 65.921875 22.671875 59.328125 
Q 17.53125 52.734375 16.796875 39.40625 
Q 19.671875 43.65625 24.015625 45.921875 
Q 28.375 48.1875 33.59375 48.1875 
Q 44.578125 48.1875 50.953125 41.515625 
Q 57.328125 34.859375 57.328125 23.390625 
Q 57.328125 12.15625 50.6875 5.359375 
Q 44.046875 -1.421875 33.015625 -1.421875 
Q 20.359375 -1.421875 13.671875 8.265625 
Q 6.984375 17.96875 6.984375 36.375 
Q 6.984375 53.65625 15.1875 63.9375 
Q 23.390625 74.21875 37.203125 74.21875 
Q 40.921875 74.21875 44.703125 73.484375 
Q 48.484375 72.75 52.59375 71.296875 
z
" id="DejaVuSans-54"/>
       </defs>
       <use xlink:href="#DejaVuSans-54"/>
       <use x="63.623047" xlink:href="#DejaVuSans-48"/>
      </g>
     </g>
    </g>
    <g id="xtick_5">
     <g id="line2d_5">
      <g>
       <use style="stroke:#000000;stroke-width:0.8;" x="324.545455" xlink:href="#mc0f2f5062c" y="252"/>
      </g>
     </g>
     <g id="text_5">
      <!-- 80 -->
      <g transform="translate(318.182955 266.598437)scale(0.1 -0.1)">
       <defs>
        <path d="M 31.78125 34.625 
Q 24.75 34.625 20.71875 30.859375 
Q 16.703125 27.09375 16.703125 20.515625 
Q 16.703125 13.921875 20.71875 10.15625 
Q 24.75 6.390625 31.78125 6.390625 
Q 38.8125 6.390625 42.859375 10.171875 
Q 46.921875 13.96875 46.921875 20.515625 
Q 46.921875 27.09375 42.890625 30.859375 
Q 38.875 34.625 31.78125 34.625 
z
M 21.921875 38.8125 
Q 15.578125 40.375 12.03125 44.71875 
Q 8.5 49.078125 8.5 55.328125 
Q 8.5 64.0625 14.71875 69.140625 
Q 20.953125 74.21875 31.78125 74.21875 
Q 42.671875 74.21875 48.875 69.140625 
Q 55.078125 64.0625 55.078125 55.328125 
Q 55.078125 49.078125 51.53125 44.71875 
Q 48 40.375 41.703125 38.8125 
Q 48.828125 37.15625 52.796875 32.3125 
Q 56.78125 27.484375 56.78125 20.515625 
Q 56.78125 9.90625 50.3125 4.234375 
Q 43.84375 -1.421875 31.78125 -1.421875 
Q 19.734375 -1.421875 13.25 4.234375 
Q 6.78125 9.90625 6.78125 20.515625 
Q 6.78125 27.484375 10.78125 32.3125 
Q 14.796875 37.15625 21.921875 38.8125 
z
M 18.3125 54.390625 
Q 18.3125 48.734375 21.84375 45.5625 
Q 25.390625 42.390625 31.78125 42.390625 
Q 38.140625 42.390625 41.71875 45.5625 
Q 45.3125 48.734375 45.3125 54.390625 
Q 45.3125 60.0625 41.71875 63.234375 
Q 38.140625 66.40625 31.78125 66.40625 
Q 25.390625 66.40625 21.84375 63.234375 
Q 18.3125 60.0625 18.3125 54.390625 
z
" id="DejaVuSans-56"/>
       </defs>
       <use xlink:href="#DejaVuSans-56"/>
       <use x="63.623047" xlink:href="#DejaVuSans-48"/>
      </g>
     </g>
    </g>
   </g>
   <g id="matplotlib.axis_2">
    <g id="ytick_1">
     <g id="line2d_6">
      <defs>
       <path d="M 0 0 
L -3.5 0 
" id="m85e8297d38" style="stroke:#000000;stroke-width:0.8;"/>
      </defs>
      <g>
       <use style="stroke:#000000;stroke-width:0.8;" x="54" xlink:href="#m85e8297d38" y="187.063773"/>
      </g>
     </g>
     <g id="text_6">
      <!-- $\mathdefault{10^{0}}$ -->
      <g transform="translate(29.4 190.862991)scale(0.1 -0.1)">
       <defs>
        <path d="M 12.40625 8.296875 
L 28.515625 8.296875 
L 28.515625 63.921875 
L 10.984375 60.40625 
L 10.984375 69.390625 
L 28.421875 72.90625 
L 38.28125 72.90625 
L 38.28125 8.296875 
L 54.390625 8.296875 
L 54.390625 0 
L 12.40625 0 
z
" id="DejaVuSans-49"/>
       </defs>
       <use transform="translate(0 0.765625)" xlink:href="#DejaVuSans-49"/>
       <use transform="translate(63.623047 0.765625)" xlink:href="#DejaVuSans-48"/>
       <use transform="translate(128.203125 39.046875)scale(0.7)" xlink:href="#DejaVuSans-48"/>
      </g>
     </g>
    </g>
    <g id="ytick_2">
     <g id="line2d_7">
      <g>
       <use style="stroke:#000000;stroke-width:0.8;" x="54" xlink:href="#m85e8297d38" y="103.232567"/>
      </g>
     </g>
     <g id="text_7">
      <!-- $\mathdefault{10^{1}}$ -->
      <g transform="translate(29.4 107.031786)scale(0.1 -0.1)">
       <use transform="translate(0 0.684375)" xlink:href="#DejaVuSans-49"/>
       <use transform="translate(63.623047 0.684375)" xlink:href="#DejaVuSans-48"/>
       <use transform="translate(128.203125 38.965625)scale(0.7)" xlink:href="#DejaVuSans-49"/>
      </g>
     </g>
    </g>
    <g id="ytick_3">
     <g id="line2d_8">
      <defs>
       <path d="M 0 0 
L -2 0 
" id="m8374fa95b7" style="stroke:#000000;stroke-width:0.6;"/>
      </defs>
      <g>
       <use style="stroke:#000000;stroke-width:0.6;" x="54" xlink:href="#m8374fa95b7" y="245.659271"/>
      </g>
     </g>
    </g>
    <g id="ytick_4">
     <g id="line2d_9">
      <g>
       <use style="stroke:#000000;stroke-width:0.6;" x="54" xlink:href="#m8374fa95b7" y="230.897328"/>
      </g>
     </g>
    </g>
    <g id="ytick_5">
     <g id="line2d_10">
      <g>
       <use style="stroke:#000000;stroke-width:0.6;" x="54" xlink:href="#m8374fa95b7" y="220.423563"/>
      </g>
     </g>
    </g>
    <g id="ytick_6">
     <g id="line2d_11">
      <g>
       <use style="stroke:#000000;stroke-width:0.6;" x="54" xlink:href="#m8374fa95b7" y="212.29948"/>
      </g>
     </g>
    </g>
    <g id="ytick_7">
     <g id="line2d_12">
      <g>
       <use style="stroke:#000000;stroke-width:0.6;" x="54" xlink:href="#m8374fa95b7" y="205.661621"/>
      </g>
     </g>
    </g>
    <g id="ytick_8">
     <g id="line2d_13">
      <g>
       <use style="stroke:#000000;stroke-width:0.6;" x="54" xlink:href="#m8374fa95b7" y="200.049391"/>
      </g>
     </g>
    </g>
    <g id="ytick_9">
     <g id="line2d_14">
      <g>
       <use style="stroke:#000000;stroke-width:0.6;" x="54" xlink:href="#m8374fa95b7" y="195.187856"/>
      </g>
     </g>
    </g>
    <g id="ytick_10">
     <g id="line2d_15">
      <g>
       <use style="stroke:#000000;stroke-width:0.6;" x="54" xlink:href="#m8374fa95b7" y="190.899678"/>
      </g>
     </g>
    </g>
    <g id="ytick_11">
     <g id="line2d_16">
      <g>
       <use style="stroke:#000000;stroke-width:0.6;" x="54" xlink:href="#m8374fa95b7" y="161.828065"/>
      </g>
     </g>
    </g>
    <g id="ytick_12">
     <g id="line2d_17">
      <g>
       <use style="stroke:#000000;stroke-width:0.6;" x="54" xlink:href="#m8374fa95b7" y="147.066123"/>
      </g>
     </g>
    </g>
    <g id="ytick_13">
     <g id="line2d_18">
      <g>
       <use style="stroke:#000000;stroke-width:0.6;" x="54" xlink:href="#m8374fa95b7" y="136.592358"/>
      </g>
     </g>
    </g>
    <g id="ytick_14">
     <g id="line2d_19">
      <g>
       <use style="stroke:#000000;stroke-width:0.6;" x="54" xlink:href="#m8374fa95b7" y="128.468275"/>
      </g>
     </g>
    </g>
    <g id="ytick_15">
     <g id="line2d_20">
      <g>
       <use style="stroke:#000000;stroke-width:0.6;" x="54" xlink:href="#m8374fa95b7" y="121.830415"/>
      </g>
     </g>
    </g>
    <g id="ytick_16">
     <g id="line2d_21">
      <g>
       <use style="stroke:#000000;stroke-width:0.6;" x="54" xlink:href="#m8374fa95b7" y="116.218185"/>
      </g>
     </g>
    </g>
    <g id="ytick_17">
     <g id="line2d_22">
      <g>
       <use style="stroke:#000000;stroke-width:0.6;" x="54" xlink:href="#m8374fa95b7" y="111.35665"/>
      </g>
     </g>
    </g>
    <g id="ytick_18">
     <g id="line2d_23">
      <g>
       <use style="stroke:#000000;stroke-width:0.6;" x="54" xlink:href="#m8374fa95b7" y="107.068473"/>
      </g>
     </g>
    </g>
    <g id="ytick_19">
     <g id="line2d_24">
      <g>
       <use style="stroke:#000000;stroke-width:0.6;" x="54" xlink:href="#m8374fa95b7" y="77.99686"/>
      </g>
     </g>
    </g>
    <g id="ytick_20">
     <g id="line2d_25">
      <g>
       <use style="stroke:#000000;stroke-width:0.6;" x="54" xlink:href="#m8374fa95b7" y="63.234917"/>
      </g>
     </g>
    </g>
    <g id="ytick_21">
     <g id="line2d_26">
      <g>
       <use style="stroke:#000000;stroke-width:0.6;" x="54" xlink:href="#m8374fa95b7" y="52.761152"/>
      </g>
     </g>
    </g>
    <g id="ytick_22">
     <g id="line2d_27">
      <g>
       <use style="stroke:#000000;stroke-width:0.6;" x="54" xlink:href="#m8374fa95b7" y="44.637069"/>
      </g>
     </g>
    </g>
    <g id="ytick_23">
     <g id="line2d_28">
      <g>
       <use style="stroke:#000000;stroke-width:0.6;" x="54" xlink:href="#m8374fa95b7" y="37.99921"/>
      </g>
     </g>
    </g>
   </g>
   <g id="line2d_29">
    <path clip-path="url(#pf288fb6158)" d="M 57.381818 44.443636 
L 111.490909 44.443636 
L 111.490909 162.755999 
L 155.454545 162.755999 
L 155.454545 172.198119 
L 158.836364 172.198119 
L 158.836364 179.321727 
L 202.8 179.321727 
L 202.8 182.054408 
L 206.181818 182.054408 
L 206.181818 182.865991 
L 212.945455 182.865991 
L 212.945455 198.32206 
L 226.472727 198.32206 
L 226.472727 198.961677 
L 236.618182 198.961677 
L 236.618182 203.196117 
L 240 203.196117 
L 240 205.131154 
L 267.054545 205.131154 
L 267.054545 209.162536 
L 331.309091 209.162536 
L 331.309091 213.492469 
L 392.181818 213.492469 
L 392.181818 213.597968 
" style="fill:none;stroke:#0000ff;stroke-linecap:square;stroke-width:1.5;"/>
   </g>
   <g id="line2d_30">
    <path clip-path="url(#pf288fb6158)" d="M 57.381818 44.443636 
L 81.054545 44.443636 
L 81.054545 116.378958 
L 87.818182 116.378958 
L 87.818182 117.340333 
L 94.581818 117.340333 
L 94.581818 130.776612 
L 101.345455 130.776612 
L 101.345455 145.839603 
L 104.727273 145.839603 
L 104.727273 168.730447 
L 108.109091 168.730447 
L 108.109091 178.216803 
L 114.872727 178.216803 
L 114.872727 179.986177 
L 121.636364 179.986177 
L 121.636364 183.425712 
L 125.018182 183.425712 
L 125.018182 187.421487 
L 131.781818 187.421487 
L 131.781818 193.320785 
L 135.163636 193.320785 
L 135.163636 201.967267 
L 145.309091 201.967267 
L 145.309091 212.360177 
L 152.072727 212.360177 
L 152.072727 213.912481 
L 155.454545 213.912481 
L 155.454545 216.120658 
L 158.836364 216.120658 
L 158.836364 222.568285 
L 165.6 222.568285 
L 165.6 223.521953 
L 172.363636 223.521953 
L 172.363636 224.789881 
L 192.654545 224.789881 
L 192.654545 229.583659 
L 196.036364 229.583659 
L 196.036364 229.702067 
L 199.418182 229.702067 
L 199.418182 230.025259 
L 202.8 230.025259 
L 202.8 231.823548 
L 206.181818 231.823548 
L 206.181818 232.392677 
L 212.945455 232.392677 
L 212.945455 232.832749 
L 219.709091 232.832749 
L 219.709091 233.952024 
L 223.090909 233.952024 
L 223.090909 234.171153 
L 236.618182 234.174407 
L 236.618182 234.295562 
L 246.763636 234.387539 
L 246.763636 234.658286 
L 250.145455 234.658286 
L 250.145455 234.899094 
L 270.436364 234.981415 
L 270.436364 235.087324 
L 283.963636 235.087324 
L 283.963636 235.218107 
L 297.490909 235.304196 
L 297.490909 235.335051 
L 327.927273 235.437444 
L 327.927273 235.447213 
L 392.181818 235.480952 
L 392.181818 235.480952 
" style="fill:none;stroke:#00bfbf;stroke-linecap:square;stroke-width:1.5;"/>
   </g>
   <g id="line2d_31">
    <path clip-path="url(#pf288fb6158)" d="M 60.763636 44.443636 
L 64.145455 44.443636 
L 64.145455 75.949762 
L 81.054545 75.949762 
L 81.054545 96.66008 
L 91.2 96.66008 
L 91.2 160.771086 
L 94.581818 160.771086 
L 94.581818 187.1766 
L 108.109091 187.1766 
L 108.109091 198.999682 
L 111.490909 198.999682 
L 111.490909 200.102441 
L 118.254545 200.102441 
L 118.254545 204.902513 
L 121.636364 204.902513 
L 121.636364 206.413817 
L 135.163636 206.413817 
L 135.163636 207.629788 
L 138.545455 207.629788 
L 138.545455 212.335809 
L 148.690909 212.335809 
L 148.690909 214.200244 
L 152.072727 214.200244 
L 152.072727 216.336124 
L 155.454545 216.336124 
L 155.454545 223.911025 
L 165.6 223.911025 
L 165.6 233.169555 
L 182.509091 233.169555 
L 182.509091 233.36426 
L 189.272727 233.461188 
L 189.272727 233.603729 
L 192.654545 233.603729 
L 192.654545 233.746593 
L 199.418182 233.84739 
L 199.418182 233.899478 
L 223.090909 233.93154 
L 223.090909 234.304532 
L 229.854545 234.304532 
L 229.854545 234.49082 
L 233.236364 234.49082 
L 233.236364 234.780608 
L 236.618182 234.780608 
L 236.618182 235.121037 
L 246.763636 235.157293 
L 246.763636 235.473758 
L 392.181818 235.481009 
L 392.181818 235.481009 
" style="fill:none;stroke:#008000;stroke-linecap:square;stroke-width:1.5;"/>
   </g>
   <g id="line2d_32">
    <path clip-path="url(#pf288fb6158)" d="M 60.763636 44.443636 
L 64.145455 44.443636 
L 64.145455 52.503095 
L 67.527273 52.503095 
L 67.527273 60.912214 
L 70.909091 60.912214 
L 70.909091 73.343608 
L 74.290909 73.343608 
L 74.290909 97.770621 
L 81.054545 97.770621 
L 81.054545 147.984388 
L 84.436364 147.984388 
L 84.436364 165.595438 
L 91.2 165.595438 
L 91.2 177.659888 
L 104.727273 177.659888 
L 104.727273 183.343788 
L 111.490909 183.343788 
L 111.490909 200.292096 
L 114.872727 200.292096 
L 114.872727 212.870268 
L 118.254545 212.870268 
L 118.254545 217.933599 
L 121.636364 217.933599 
L 121.636364 221.884267 
L 158.836364 221.884267 
L 158.836364 223.387538 
L 162.218182 223.387538 
L 162.218182 232.899363 
L 168.981818 232.899363 
L 168.981818 237.071693 
L 392.181818 237.071693 
L 392.181818 237.071693 
" style="fill:none;stroke:#ffa500;stroke-linecap:square;stroke-width:1.5;"/>
   </g>
   <g id="patch_3">
    <path d="M 54 252 
L 54 34.56 
" style="fill:none;stroke:#000000;stroke-linecap:square;stroke-linejoin:miter;stroke-width:0.8;"/>
   </g>
   <g id="patch_4">
    <path d="M 388.8 252 
L 388.8 34.56 
" style="fill:none;stroke:#000000;stroke-linecap:square;stroke-linejoin:miter;stroke-width:0.8;"/>
   </g>
   <g id="patch_5">
    <path d="M 54 252 
L 388.8 252 
" style="fill:none;stroke:#000000;stroke-linecap:square;stroke-linejoin:miter;stroke-width:0.8;"/>
   </g>
   <g id="patch_6">
    <path d="M 54 34.56 
L 388.8 34.56 
" style="fill:none;stroke:#000000;stroke-linecap:square;stroke-linejoin:miter;stroke-width:0.8;"/>
   </g>
   <g id="legend_1">
    <g id="patch_7">
     <path d="M 273.004687 101.82875 
L 381.8 101.82875 
Q 383.8 101.82875 383.8 99.82875 
L 383.8 41.56 
Q 383.8 39.56 381.8 39.56 
L 273.004687 39.56 
Q 271.004687 39.56 271.004687 41.56 
L 271.004687 99.82875 
Q 271.004687 101.82875 273.004687 101.82875 
z
" style="fill:#ffffff;opacity:0.8;stroke:#cccccc;stroke-linejoin:miter;"/>
    </g>
    <g id="line2d_33">
     <path d="M 275.004687 47.658438 
L 295.004687 47.658438 
" style="fill:none;stroke:#0000ff;stroke-linecap:square;stroke-width:1.5;"/>
    </g>
    <g id="line2d_34"/>
    <g id="text_8">
     <!-- CUATRO_global -->
     <g transform="translate(303.004687 51.158438)scale(0.1 -0.1)">
      <defs>
       <path d="M 64.40625 67.28125 
L 64.40625 56.890625 
Q 59.421875 61.53125 53.78125 63.8125 
Q 48.140625 66.109375 41.796875 66.109375 
Q 29.296875 66.109375 22.65625 58.46875 
Q 16.015625 50.828125 16.015625 36.375 
Q 16.015625 21.96875 22.65625 14.328125 
Q 29.296875 6.6875 41.796875 6.6875 
Q 48.140625 6.6875 53.78125 8.984375 
Q 59.421875 11.28125 64.40625 15.921875 
L 64.40625 5.609375 
Q 59.234375 2.09375 53.4375 0.328125 
Q 47.65625 -1.421875 41.21875 -1.421875 
Q 24.65625 -1.421875 15.125 8.703125 
Q 5.609375 18.84375 5.609375 36.375 
Q 5.609375 53.953125 15.125 64.078125 
Q 24.65625 74.21875 41.21875 74.21875 
Q 47.75 74.21875 53.53125 72.484375 
Q 59.328125 70.75 64.40625 67.28125 
z
" id="DejaVuSans-67"/>
       <path d="M 8.6875 72.90625 
L 18.609375 72.90625 
L 18.609375 28.609375 
Q 18.609375 16.890625 22.84375 11.734375 
Q 27.09375 6.59375 36.625 6.59375 
Q 46.09375 6.59375 50.34375 11.734375 
Q 54.59375 16.890625 54.59375 28.609375 
L 54.59375 72.90625 
L 64.5 72.90625 
L 64.5 27.390625 
Q 64.5 13.140625 57.4375 5.859375 
Q 50.390625 -1.421875 36.625 -1.421875 
Q 22.796875 -1.421875 15.734375 5.859375 
Q 8.6875 13.140625 8.6875 27.390625 
z
" id="DejaVuSans-85"/>
       <path d="M 34.1875 63.1875 
L 20.796875 26.90625 
L 47.609375 26.90625 
z
M 28.609375 72.90625 
L 39.796875 72.90625 
L 67.578125 0 
L 57.328125 0 
L 50.6875 18.703125 
L 17.828125 18.703125 
L 11.1875 0 
L 0.78125 0 
z
" id="DejaVuSans-65"/>
       <path d="M -0.296875 72.90625 
L 61.375 72.90625 
L 61.375 64.59375 
L 35.5 64.59375 
L 35.5 0 
L 25.59375 0 
L 25.59375 64.59375 
L -0.296875 64.59375 
z
" id="DejaVuSans-84"/>
       <path d="M 44.390625 34.1875 
Q 47.5625 33.109375 50.5625 29.59375 
Q 53.5625 26.078125 56.59375 19.921875 
L 66.609375 0 
L 56 0 
L 46.6875 18.703125 
Q 43.0625 26.03125 39.671875 28.421875 
Q 36.28125 30.8125 30.421875 30.8125 
L 19.671875 30.8125 
L 19.671875 0 
L 9.8125 0 
L 9.8125 72.90625 
L 32.078125 72.90625 
Q 44.578125 72.90625 50.734375 67.671875 
Q 56.890625 62.453125 56.890625 51.90625 
Q 56.890625 45.015625 53.6875 40.46875 
Q 50.484375 35.9375 44.390625 34.1875 
z
M 19.671875 64.796875 
L 19.671875 38.921875 
L 32.078125 38.921875 
Q 39.203125 38.921875 42.84375 42.21875 
Q 46.484375 45.515625 46.484375 51.90625 
Q 46.484375 58.296875 42.84375 61.546875 
Q 39.203125 64.796875 32.078125 64.796875 
z
" id="DejaVuSans-82"/>
       <path d="M 39.40625 66.21875 
Q 28.65625 66.21875 22.328125 58.203125 
Q 16.015625 50.203125 16.015625 36.375 
Q 16.015625 22.609375 22.328125 14.59375 
Q 28.65625 6.59375 39.40625 6.59375 
Q 50.140625 6.59375 56.421875 14.59375 
Q 62.703125 22.609375 62.703125 36.375 
Q 62.703125 50.203125 56.421875 58.203125 
Q 50.140625 66.21875 39.40625 66.21875 
z
M 39.40625 74.21875 
Q 54.734375 74.21875 63.90625 63.9375 
Q 73.09375 53.65625 73.09375 36.375 
Q 73.09375 19.140625 63.90625 8.859375 
Q 54.734375 -1.421875 39.40625 -1.421875 
Q 24.03125 -1.421875 14.8125 8.828125 
Q 5.609375 19.09375 5.609375 36.375 
Q 5.609375 53.65625 14.8125 63.9375 
Q 24.03125 74.21875 39.40625 74.21875 
z
" id="DejaVuSans-79"/>
       <path d="M 50.984375 -16.609375 
L 50.984375 -23.578125 
L -0.984375 -23.578125 
L -0.984375 -16.609375 
z
" id="DejaVuSans-95"/>
       <path d="M 45.40625 27.984375 
Q 45.40625 37.75 41.375 43.109375 
Q 37.359375 48.484375 30.078125 48.484375 
Q 22.859375 48.484375 18.828125 43.109375 
Q 14.796875 37.75 14.796875 27.984375 
Q 14.796875 18.265625 18.828125 12.890625 
Q 22.859375 7.515625 30.078125 7.515625 
Q 37.359375 7.515625 41.375 12.890625 
Q 45.40625 18.265625 45.40625 27.984375 
z
M 54.390625 6.78125 
Q 54.390625 -7.171875 48.1875 -13.984375 
Q 42 -20.796875 29.203125 -20.796875 
Q 24.46875 -20.796875 20.265625 -20.09375 
Q 16.0625 -19.390625 12.109375 -17.921875 
L 12.109375 -9.1875 
Q 16.0625 -11.328125 19.921875 -12.34375 
Q 23.78125 -13.375 27.78125 -13.375 
Q 36.625 -13.375 41.015625 -8.765625 
Q 45.40625 -4.15625 45.40625 5.171875 
L 45.40625 9.625 
Q 42.625 4.78125 38.28125 2.390625 
Q 33.9375 0 27.875 0 
Q 17.828125 0 11.671875 7.65625 
Q 5.515625 15.328125 5.515625 27.984375 
Q 5.515625 40.671875 11.671875 48.328125 
Q 17.828125 56 27.875 56 
Q 33.9375 56 38.28125 53.609375 
Q 42.625 51.21875 45.40625 46.390625 
L 45.40625 54.6875 
L 54.390625 54.6875 
z
" id="DejaVuSans-103"/>
       <path d="M 9.421875 75.984375 
L 18.40625 75.984375 
L 18.40625 0 
L 9.421875 0 
z
" id="DejaVuSans-108"/>
       <path d="M 30.609375 48.390625 
Q 23.390625 48.390625 19.1875 42.75 
Q 14.984375 37.109375 14.984375 27.296875 
Q 14.984375 17.484375 19.15625 11.84375 
Q 23.34375 6.203125 30.609375 6.203125 
Q 37.796875 6.203125 41.984375 11.859375 
Q 46.1875 17.53125 46.1875 27.296875 
Q 46.1875 37.015625 41.984375 42.703125 
Q 37.796875 48.390625 30.609375 48.390625 
z
M 30.609375 56 
Q 42.328125 56 49.015625 48.375 
Q 55.71875 40.765625 55.71875 27.296875 
Q 55.71875 13.875 49.015625 6.21875 
Q 42.328125 -1.421875 30.609375 -1.421875 
Q 18.84375 -1.421875 12.171875 6.21875 
Q 5.515625 13.875 5.515625 27.296875 
Q 5.515625 40.765625 12.171875 48.375 
Q 18.84375 56 30.609375 56 
z
" id="DejaVuSans-111"/>
       <path d="M 48.6875 27.296875 
Q 48.6875 37.203125 44.609375 42.84375 
Q 40.53125 48.484375 33.40625 48.484375 
Q 26.265625 48.484375 22.1875 42.84375 
Q 18.109375 37.203125 18.109375 27.296875 
Q 18.109375 17.390625 22.1875 11.75 
Q 26.265625 6.109375 33.40625 6.109375 
Q 40.53125 6.109375 44.609375 11.75 
Q 48.6875 17.390625 48.6875 27.296875 
z
M 18.109375 46.390625 
Q 20.953125 51.265625 25.265625 53.625 
Q 29.59375 56 35.59375 56 
Q 45.5625 56 51.78125 48.09375 
Q 58.015625 40.1875 58.015625 27.296875 
Q 58.015625 14.40625 51.78125 6.484375 
Q 45.5625 -1.421875 35.59375 -1.421875 
Q 29.59375 -1.421875 25.265625 0.953125 
Q 20.953125 3.328125 18.109375 8.203125 
L 18.109375 0 
L 9.078125 0 
L 9.078125 75.984375 
L 18.109375 75.984375 
z
" id="DejaVuSans-98"/>
       <path d="M 34.28125 27.484375 
Q 23.390625 27.484375 19.1875 25 
Q 14.984375 22.515625 14.984375 16.5 
Q 14.984375 11.71875 18.140625 8.90625 
Q 21.296875 6.109375 26.703125 6.109375 
Q 34.1875 6.109375 38.703125 11.40625 
Q 43.21875 16.703125 43.21875 25.484375 
L 43.21875 27.484375 
z
M 52.203125 31.203125 
L 52.203125 0 
L 43.21875 0 
L 43.21875 8.296875 
Q 40.140625 3.328125 35.546875 0.953125 
Q 30.953125 -1.421875 24.3125 -1.421875 
Q 15.921875 -1.421875 10.953125 3.296875 
Q 6 8.015625 6 15.921875 
Q 6 25.140625 12.171875 29.828125 
Q 18.359375 34.515625 30.609375 34.515625 
L 43.21875 34.515625 
L 43.21875 35.40625 
Q 43.21875 41.609375 39.140625 45 
Q 35.0625 48.390625 27.6875 48.390625 
Q 23 48.390625 18.546875 47.265625 
Q 14.109375 46.140625 10.015625 43.890625 
L 10.015625 52.203125 
Q 14.9375 54.109375 19.578125 55.046875 
Q 24.21875 56 28.609375 56 
Q 40.484375 56 46.34375 49.84375 
Q 52.203125 43.703125 52.203125 31.203125 
z
" id="DejaVuSans-97"/>
      </defs>
      <use xlink:href="#DejaVuSans-67"/>
      <use x="69.824219" xlink:href="#DejaVuSans-85"/>
      <use x="143.017578" xlink:href="#DejaVuSans-65"/>
      <use x="203.675781" xlink:href="#DejaVuSans-84"/>
      <use x="264.759766" xlink:href="#DejaVuSans-82"/>
      <use x="334.242188" xlink:href="#DejaVuSans-79"/>
      <use x="412.953125" xlink:href="#DejaVuSans-95"/>
      <use x="462.953125" xlink:href="#DejaVuSans-103"/>
      <use x="526.429688" xlink:href="#DejaVuSans-108"/>
      <use x="554.212891" xlink:href="#DejaVuSans-111"/>
      <use x="615.394531" xlink:href="#DejaVuSans-98"/>
      <use x="678.871094" xlink:href="#DejaVuSans-97"/>
      <use x="740.150391" xlink:href="#DejaVuSans-108"/>
     </g>
    </g>
    <g id="line2d_35">
     <path d="M 275.004687 62.614688 
L 295.004687 62.614688 
" style="fill:none;stroke:#00bfbf;stroke-linecap:square;stroke-width:1.5;"/>
    </g>
    <g id="line2d_36"/>
    <g id="text_9">
     <!-- CUATRO_local -->
     <g transform="translate(303.004687 66.114688)scale(0.1 -0.1)">
      <defs>
       <path d="M 48.78125 52.59375 
L 48.78125 44.1875 
Q 44.96875 46.296875 41.140625 47.34375 
Q 37.3125 48.390625 33.40625 48.390625 
Q 24.65625 48.390625 19.8125 42.84375 
Q 14.984375 37.3125 14.984375 27.296875 
Q 14.984375 17.28125 19.8125 11.734375 
Q 24.65625 6.203125 33.40625 6.203125 
Q 37.3125 6.203125 41.140625 7.25 
Q 44.96875 8.296875 48.78125 10.40625 
L 48.78125 2.09375 
Q 45.015625 0.34375 40.984375 -0.53125 
Q 36.96875 -1.421875 32.421875 -1.421875 
Q 20.0625 -1.421875 12.78125 6.34375 
Q 5.515625 14.109375 5.515625 27.296875 
Q 5.515625 40.671875 12.859375 48.328125 
Q 20.21875 56 33.015625 56 
Q 37.15625 56 41.109375 55.140625 
Q 45.0625 54.296875 48.78125 52.59375 
z
" id="DejaVuSans-99"/>
      </defs>
      <use xlink:href="#DejaVuSans-67"/>
      <use x="69.824219" xlink:href="#DejaVuSans-85"/>
      <use x="143.017578" xlink:href="#DejaVuSans-65"/>
      <use x="203.675781" xlink:href="#DejaVuSans-84"/>
      <use x="264.759766" xlink:href="#DejaVuSans-82"/>
      <use x="334.242188" xlink:href="#DejaVuSans-79"/>
      <use x="412.953125" xlink:href="#DejaVuSans-95"/>
      <use x="462.953125" xlink:href="#DejaVuSans-108"/>
      <use x="490.736328" xlink:href="#DejaVuSans-111"/>
      <use x="551.917969" xlink:href="#DejaVuSans-99"/>
      <use x="606.898438" xlink:href="#DejaVuSans-97"/>
      <use x="668.177734" xlink:href="#DejaVuSans-108"/>
     </g>
    </g>
    <g id="line2d_37">
     <path d="M 275.004687 77.570938 
L 295.004687 77.570938 
" style="fill:none;stroke:#008000;stroke-linecap:square;stroke-width:1.5;"/>
    </g>
    <g id="line2d_38"/>
    <g id="text_10">
     <!-- Py-BOBYQA  -->
     <g transform="translate(303.004687 81.070938)scale(0.1 -0.1)">
      <defs>
       <path d="M 19.671875 64.796875 
L 19.671875 37.40625 
L 32.078125 37.40625 
Q 38.96875 37.40625 42.71875 40.96875 
Q 46.484375 44.53125 46.484375 51.125 
Q 46.484375 57.671875 42.71875 61.234375 
Q 38.96875 64.796875 32.078125 64.796875 
z
M 9.8125 72.90625 
L 32.078125 72.90625 
Q 44.34375 72.90625 50.609375 67.359375 
Q 56.890625 61.8125 56.890625 51.125 
Q 56.890625 40.328125 50.609375 34.8125 
Q 44.34375 29.296875 32.078125 29.296875 
L 19.671875 29.296875 
L 19.671875 0 
L 9.8125 0 
z
" id="DejaVuSans-80"/>
       <path d="M 32.171875 -5.078125 
Q 28.375 -14.84375 24.75 -17.8125 
Q 21.140625 -20.796875 15.09375 -20.796875 
L 7.90625 -20.796875 
L 7.90625 -13.28125 
L 13.1875 -13.28125 
Q 16.890625 -13.28125 18.9375 -11.515625 
Q 21 -9.765625 23.484375 -3.21875 
L 25.09375 0.875 
L 2.984375 54.6875 
L 12.5 54.6875 
L 29.59375 11.921875 
L 46.6875 54.6875 
L 56.203125 54.6875 
z
" id="DejaVuSans-121"/>
       <path d="M 4.890625 31.390625 
L 31.203125 31.390625 
L 31.203125 23.390625 
L 4.890625 23.390625 
z
" id="DejaVuSans-45"/>
       <path d="M 19.671875 34.8125 
L 19.671875 8.109375 
L 35.5 8.109375 
Q 43.453125 8.109375 47.28125 11.40625 
Q 51.125 14.703125 51.125 21.484375 
Q 51.125 28.328125 47.28125 31.5625 
Q 43.453125 34.8125 35.5 34.8125 
z
M 19.671875 64.796875 
L 19.671875 42.828125 
L 34.28125 42.828125 
Q 41.5 42.828125 45.03125 45.53125 
Q 48.578125 48.25 48.578125 53.8125 
Q 48.578125 59.328125 45.03125 62.0625 
Q 41.5 64.796875 34.28125 64.796875 
z
M 9.8125 72.90625 
L 35.015625 72.90625 
Q 46.296875 72.90625 52.390625 68.21875 
Q 58.5 63.53125 58.5 54.890625 
Q 58.5 48.1875 55.375 44.234375 
Q 52.25 40.28125 46.1875 39.3125 
Q 53.46875 37.75 57.5 32.78125 
Q 61.53125 27.828125 61.53125 20.40625 
Q 61.53125 10.640625 54.890625 5.3125 
Q 48.25 0 35.984375 0 
L 9.8125 0 
z
" id="DejaVuSans-66"/>
       <path d="M -0.203125 72.90625 
L 10.40625 72.90625 
L 30.609375 42.921875 
L 50.6875 72.90625 
L 61.28125 72.90625 
L 35.5 34.71875 
L 35.5 0 
L 25.59375 0 
L 25.59375 34.71875 
z
" id="DejaVuSans-89"/>
       <path d="M 39.40625 66.21875 
Q 28.65625 66.21875 22.328125 58.203125 
Q 16.015625 50.203125 16.015625 36.375 
Q 16.015625 22.609375 22.328125 14.59375 
Q 28.65625 6.59375 39.40625 6.59375 
Q 50.140625 6.59375 56.421875 14.59375 
Q 62.703125 22.609375 62.703125 36.375 
Q 62.703125 50.203125 56.421875 58.203125 
Q 50.140625 66.21875 39.40625 66.21875 
z
M 53.21875 1.3125 
L 66.21875 -12.890625 
L 54.296875 -12.890625 
L 43.5 -1.21875 
Q 41.890625 -1.3125 41.03125 -1.359375 
Q 40.1875 -1.421875 39.40625 -1.421875 
Q 24.03125 -1.421875 14.8125 8.859375 
Q 5.609375 19.140625 5.609375 36.375 
Q 5.609375 53.65625 14.8125 63.9375 
Q 24.03125 74.21875 39.40625 74.21875 
Q 54.734375 74.21875 63.90625 63.9375 
Q 73.09375 53.65625 73.09375 36.375 
Q 73.09375 23.6875 67.984375 14.640625 
Q 62.890625 5.609375 53.21875 1.3125 
z
" id="DejaVuSans-81"/>
       <path id="DejaVuSans-32"/>
      </defs>
      <use xlink:href="#DejaVuSans-80"/>
      <use x="60.302734" xlink:href="#DejaVuSans-121"/>
      <use x="117.732422" xlink:href="#DejaVuSans-45"/>
      <use x="150.191406" xlink:href="#DejaVuSans-66"/>
      <use x="217.044922" xlink:href="#DejaVuSans-79"/>
      <use x="295.755859" xlink:href="#DejaVuSans-66"/>
      <use x="358.859375" xlink:href="#DejaVuSans-89"/>
      <use x="419.943359" xlink:href="#DejaVuSans-81"/>
      <use x="498.654297" xlink:href="#DejaVuSans-65"/>
      <use x="567.0625" xlink:href="#DejaVuSans-32"/>
     </g>
    </g>
    <g id="line2d_39">
     <path d="M 275.004687 92.249063 
L 295.004687 92.249063 
" style="fill:none;stroke:#ffa500;stroke-linecap:square;stroke-width:1.5;"/>
    </g>
    <g id="line2d_40"/>
    <g id="text_11">
     <!-- Snobfit -->
     <g transform="translate(303.004687 95.749063)scale(0.1 -0.1)">
      <defs>
       <path d="M 53.515625 70.515625 
L 53.515625 60.890625 
Q 47.90625 63.578125 42.921875 64.890625 
Q 37.9375 66.21875 33.296875 66.21875 
Q 25.25 66.21875 20.875 63.09375 
Q 16.5 59.96875 16.5 54.203125 
Q 16.5 49.359375 19.40625 46.890625 
Q 22.3125 44.4375 30.421875 42.921875 
L 36.375 41.703125 
Q 47.40625 39.59375 52.65625 34.296875 
Q 57.90625 29 57.90625 20.125 
Q 57.90625 9.515625 50.796875 4.046875 
Q 43.703125 -1.421875 29.984375 -1.421875 
Q 24.8125 -1.421875 18.96875 -0.25 
Q 13.140625 0.921875 6.890625 3.21875 
L 6.890625 13.375 
Q 12.890625 10.015625 18.65625 8.296875 
Q 24.421875 6.59375 29.984375 6.59375 
Q 38.421875 6.59375 43.015625 9.90625 
Q 47.609375 13.234375 47.609375 19.390625 
Q 47.609375 24.75 44.3125 27.78125 
Q 41.015625 30.8125 33.5 32.328125 
L 27.484375 33.5 
Q 16.453125 35.6875 11.515625 40.375 
Q 6.59375 45.0625 6.59375 53.421875 
Q 6.59375 63.09375 13.40625 68.65625 
Q 20.21875 74.21875 32.171875 74.21875 
Q 37.3125 74.21875 42.625 73.28125 
Q 47.953125 72.359375 53.515625 70.515625 
z
" id="DejaVuSans-83"/>
       <path d="M 54.890625 33.015625 
L 54.890625 0 
L 45.90625 0 
L 45.90625 32.71875 
Q 45.90625 40.484375 42.875 44.328125 
Q 39.84375 48.1875 33.796875 48.1875 
Q 26.515625 48.1875 22.3125 43.546875 
Q 18.109375 38.921875 18.109375 30.90625 
L 18.109375 0 
L 9.078125 0 
L 9.078125 54.6875 
L 18.109375 54.6875 
L 18.109375 46.1875 
Q 21.34375 51.125 25.703125 53.5625 
Q 30.078125 56 35.796875 56 
Q 45.21875 56 50.046875 50.171875 
Q 54.890625 44.34375 54.890625 33.015625 
z
" id="DejaVuSans-110"/>
       <path d="M 37.109375 75.984375 
L 37.109375 68.5 
L 28.515625 68.5 
Q 23.6875 68.5 21.796875 66.546875 
Q 19.921875 64.59375 19.921875 59.515625 
L 19.921875 54.6875 
L 34.71875 54.6875 
L 34.71875 47.703125 
L 19.921875 47.703125 
L 19.921875 0 
L 10.890625 0 
L 10.890625 47.703125 
L 2.296875 47.703125 
L 2.296875 54.6875 
L 10.890625 54.6875 
L 10.890625 58.5 
Q 10.890625 67.625 15.140625 71.796875 
Q 19.390625 75.984375 28.609375 75.984375 
z
" id="DejaVuSans-102"/>
       <path d="M 9.421875 54.6875 
L 18.40625 54.6875 
L 18.40625 0 
L 9.421875 0 
z
M 9.421875 75.984375 
L 18.40625 75.984375 
L 18.40625 64.59375 
L 9.421875 64.59375 
z
" id="DejaVuSans-105"/>
       <path d="M 18.3125 70.21875 
L 18.3125 54.6875 
L 36.8125 54.6875 
L 36.8125 47.703125 
L 18.3125 47.703125 
L 18.3125 18.015625 
Q 18.3125 11.328125 20.140625 9.421875 
Q 21.96875 7.515625 27.59375 7.515625 
L 36.8125 7.515625 
L 36.8125 0 
L 27.59375 0 
Q 17.1875 0 13.234375 3.875 
Q 9.28125 7.765625 9.28125 18.015625 
L 9.28125 47.703125 
L 2.6875 47.703125 
L 2.6875 54.6875 
L 9.28125 54.6875 
L 9.28125 70.21875 
z
" id="DejaVuSans-116"/>
      </defs>
      <use xlink:href="#DejaVuSans-83"/>
      <use x="63.476562" xlink:href="#DejaVuSans-110"/>
      <use x="126.855469" xlink:href="#DejaVuSans-111"/>
      <use x="188.037109" xlink:href="#DejaVuSans-98"/>
      <use x="251.513672" xlink:href="#DejaVuSans-102"/>
      <use x="286.71875" xlink:href="#DejaVuSans-105"/>
      <use x="314.501953" xlink:href="#DejaVuSans-116"/>
     </g>
    </g>
   </g>
  </g>
 </g>
 <defs>
  <clipPath id="pf288fb6158">
   <rect height="217.44" width="334.8" x="54" y="34.56"/>
  </clipPath>
 </defs>
</svg>
