<?xml version="1.0" encoding="utf-8" standalone="no"?>
<!DOCTYPE svg PUBLIC "-//W3C//DTD SVG 1.1//EN"
  "http://www.w3.org/Graphics/SVG/1.1/DTD/svg11.dtd">
<!-- Created with matplotlib (https://matplotlib.org/) -->
<svg height="288pt" version="1.1" viewBox="0 0 432 288" width="432pt" xmlns="http://www.w3.org/2000/svg" xmlns:xlink="http://www.w3.org/1999/xlink">
 <metadata>
  <rdf:RDF xmlns:cc="http://creativecommons.org/ns#" xmlns:dc="http://purl.org/dc/elements/1.1/" xmlns:rdf="http://www.w3.org/1999/02/22-rdf-syntax-ns#">
   <cc:Work>
    <dc:type rdf:resource="http://purl.org/dc/dcmitype/StillImage"/>
    <dc:date>2021-04-08T19:43:06.620315</dc:date>
    <dc:format>image/svg+xml</dc:format>
    <dc:creator>
     <cc:Agent>
      <dc:title>Matplotlib v3.3.4, https://matplotlib.org/</dc:title>
     </cc:Agent>
    </dc:creator>
   </cc:Work>
  </rdf:RDF>
 </metadata>
 <defs>
  <style type="text/css">*{stroke-linecap:butt;stroke-linejoin:round;}</style>
 </defs>
 <g id="figure_1">
  <g id="patch_1">
   <path d="M 0 288 
L 432 288 
L 432 0 
L 0 0 
z
" style="fill:#ffffff;"/>
  </g>
  <g id="axes_1">
   <g id="patch_2">
    <path d="M 54 133.396364 
L 388.8 133.396364 
L 388.8 34.56 
L 54 34.56 
z
" style="fill:#ffffff;"/>
   </g>
   <g id="matplotlib.axis_1">
    <g id="xtick_1">
     <g id="line2d_1">
      <defs>
       <path d="M 0 0 
L 0 3.5 
" id="mc0045e73f5" style="stroke:#000000;stroke-width:0.8;"/>
      </defs>
      <g>
       <use style="stroke:#000000;stroke-width:0.8;" x="69.218182" xlink:href="#mc0045e73f5" y="133.396364"/>
      </g>
     </g>
     <g id="text_1">
      <!-- 0.0 -->
      <g transform="translate(61.266619 147.994801)scale(0.1 -0.1)">
       <defs>
        <path d="M 31.78125 66.40625 
Q 24.171875 66.40625 20.328125 58.90625 
Q 16.5 51.421875 16.5 36.375 
Q 16.5 21.390625 20.328125 13.890625 
Q 24.171875 6.390625 31.78125 6.390625 
Q 39.453125 6.390625 43.28125 13.890625 
Q 47.125 21.390625 47.125 36.375 
Q 47.125 51.421875 43.28125 58.90625 
Q 39.453125 66.40625 31.78125 66.40625 
z
M 31.78125 74.21875 
Q 44.046875 74.21875 50.515625 64.515625 
Q 56.984375 54.828125 56.984375 36.375 
Q 56.984375 17.96875 50.515625 8.265625 
Q 44.046875 -1.421875 31.78125 -1.421875 
Q 19.53125 -1.421875 13.0625 8.265625 
Q 6.59375 17.96875 6.59375 36.375 
Q 6.59375 54.828125 13.0625 64.515625 
Q 19.53125 74.21875 31.78125 74.21875 
z
" id="DejaVuSans-48"/>
        <path d="M 10.6875 12.40625 
L 21 12.40625 
L 21 0 
L 10.6875 0 
z
" id="DejaVuSans-46"/>
       </defs>
       <use xlink:href="#DejaVuSans-48"/>
       <use x="63.623047" xlink:href="#DejaVuSans-46"/>
       <use x="95.410156" xlink:href="#DejaVuSans-48"/>
      </g>
     </g>
    </g>
    <g id="xtick_2">
     <g id="line2d_2">
      <g>
       <use style="stroke:#000000;stroke-width:0.8;" x="107.30172" xlink:href="#mc0045e73f5" y="133.396364"/>
      </g>
     </g>
     <g id="text_2">
      <!-- 2.5 -->
      <g transform="translate(99.350157 147.994801)scale(0.1 -0.1)">
       <defs>
        <path d="M 19.1875 8.296875 
L 53.609375 8.296875 
L 53.609375 0 
L 7.328125 0 
L 7.328125 8.296875 
Q 12.9375 14.109375 22.625 23.890625 
Q 32.328125 33.6875 34.8125 36.53125 
Q 39.546875 41.84375 41.421875 45.53125 
Q 43.3125 49.21875 43.3125 52.78125 
Q 43.3125 58.59375 39.234375 62.25 
Q 35.15625 65.921875 28.609375 65.921875 
Q 23.96875 65.921875 18.8125 64.3125 
Q 13.671875 62.703125 7.8125 59.421875 
L 7.8125 69.390625 
Q 13.765625 71.78125 18.9375 73 
Q 24.125 74.21875 28.421875 74.21875 
Q 39.75 74.21875 46.484375 68.546875 
Q 53.21875 62.890625 53.21875 53.421875 
Q 53.21875 48.921875 51.53125 44.890625 
Q 49.859375 40.875 45.40625 35.40625 
Q 44.1875 33.984375 37.640625 27.21875 
Q 31.109375 20.453125 19.1875 8.296875 
z
" id="DejaVuSans-50"/>
        <path d="M 10.796875 72.90625 
L 49.515625 72.90625 
L 49.515625 64.59375 
L 19.828125 64.59375 
L 19.828125 46.734375 
Q 21.96875 47.46875 24.109375 47.828125 
Q 26.265625 48.1875 28.421875 48.1875 
Q 40.625 48.1875 47.75 41.5 
Q 54.890625 34.8125 54.890625 23.390625 
Q 54.890625 11.625 47.5625 5.09375 
Q 40.234375 -1.421875 26.90625 -1.421875 
Q 22.3125 -1.421875 17.546875 -0.640625 
Q 12.796875 0.140625 7.71875 1.703125 
L 7.71875 11.625 
Q 12.109375 9.234375 16.796875 8.0625 
Q 21.484375 6.890625 26.703125 6.890625 
Q 35.15625 6.890625 40.078125 11.328125 
Q 45.015625 15.765625 45.015625 23.390625 
Q 45.015625 31 40.078125 35.4375 
Q 35.15625 39.890625 26.703125 39.890625 
Q 22.75 39.890625 18.8125 39.015625 
Q 14.890625 38.140625 10.796875 36.28125 
z
" id="DejaVuSans-53"/>
       </defs>
       <use xlink:href="#DejaVuSans-50"/>
       <use x="63.623047" xlink:href="#DejaVuSans-46"/>
       <use x="95.410156" xlink:href="#DejaVuSans-53"/>
      </g>
     </g>
    </g>
    <g id="xtick_3">
     <g id="line2d_3">
      <g>
       <use style="stroke:#000000;stroke-width:0.8;" x="145.385258" xlink:href="#mc0045e73f5" y="133.396364"/>
      </g>
     </g>
     <g id="text_3">
      <!-- 5.0 -->
      <g transform="translate(137.433695 147.994801)scale(0.1 -0.1)">
       <use xlink:href="#DejaVuSans-53"/>
       <use x="63.623047" xlink:href="#DejaVuSans-46"/>
       <use x="95.410156" xlink:href="#DejaVuSans-48"/>
      </g>
     </g>
    </g>
    <g id="xtick_4">
     <g id="line2d_4">
      <g>
       <use style="stroke:#000000;stroke-width:0.8;" x="183.468796" xlink:href="#mc0045e73f5" y="133.396364"/>
      </g>
     </g>
     <g id="text_4">
      <!-- 7.5 -->
      <g transform="translate(175.517234 147.994801)scale(0.1 -0.1)">
       <defs>
        <path d="M 8.203125 72.90625 
L 55.078125 72.90625 
L 55.078125 68.703125 
L 28.609375 0 
L 18.3125 0 
L 43.21875 64.59375 
L 8.203125 64.59375 
z
" id="DejaVuSans-55"/>
       </defs>
       <use xlink:href="#DejaVuSans-55"/>
       <use x="63.623047" xlink:href="#DejaVuSans-46"/>
       <use x="95.410156" xlink:href="#DejaVuSans-53"/>
      </g>
     </g>
    </g>
    <g id="xtick_5">
     <g id="line2d_5">
      <g>
       <use style="stroke:#000000;stroke-width:0.8;" x="221.552334" xlink:href="#mc0045e73f5" y="133.396364"/>
      </g>
     </g>
     <g id="text_5">
      <!-- 10.0 -->
      <g transform="translate(210.419522 147.994801)scale(0.1 -0.1)">
       <defs>
        <path d="M 12.40625 8.296875 
L 28.515625 8.296875 
L 28.515625 63.921875 
L 10.984375 60.40625 
L 10.984375 69.390625 
L 28.421875 72.90625 
L 38.28125 72.90625 
L 38.28125 8.296875 
L 54.390625 8.296875 
L 54.390625 0 
L 12.40625 0 
z
" id="DejaVuSans-49"/>
       </defs>
       <use xlink:href="#DejaVuSans-49"/>
       <use x="63.623047" xlink:href="#DejaVuSans-48"/>
       <use x="127.246094" xlink:href="#DejaVuSans-46"/>
       <use x="159.033203" xlink:href="#DejaVuSans-48"/>
      </g>
     </g>
    </g>
    <g id="xtick_6">
     <g id="line2d_6">
      <g>
       <use style="stroke:#000000;stroke-width:0.8;" x="259.635872" xlink:href="#mc0045e73f5" y="133.396364"/>
      </g>
     </g>
     <g id="text_6">
      <!-- 12.5 -->
      <g transform="translate(248.50306 147.994801)scale(0.1 -0.1)">
       <use xlink:href="#DejaVuSans-49"/>
       <use x="63.623047" xlink:href="#DejaVuSans-50"/>
       <use x="127.246094" xlink:href="#DejaVuSans-46"/>
       <use x="159.033203" xlink:href="#DejaVuSans-53"/>
      </g>
     </g>
    </g>
    <g id="xtick_7">
     <g id="line2d_7">
      <g>
       <use style="stroke:#000000;stroke-width:0.8;" x="297.71941" xlink:href="#mc0045e73f5" y="133.396364"/>
      </g>
     </g>
     <g id="text_7">
      <!-- 15.0 -->
      <g transform="translate(286.586598 147.994801)scale(0.1 -0.1)">
       <use xlink:href="#DejaVuSans-49"/>
       <use x="63.623047" xlink:href="#DejaVuSans-53"/>
       <use x="127.246094" xlink:href="#DejaVuSans-46"/>
       <use x="159.033203" xlink:href="#DejaVuSans-48"/>
      </g>
     </g>
    </g>
    <g id="xtick_8">
     <g id="line2d_8">
      <g>
       <use style="stroke:#000000;stroke-width:0.8;" x="335.802948" xlink:href="#mc0045e73f5" y="133.396364"/>
      </g>
     </g>
     <g id="text_8">
      <!-- 17.5 -->
      <g transform="translate(324.670136 147.994801)scale(0.1 -0.1)">
       <use xlink:href="#DejaVuSans-49"/>
       <use x="63.623047" xlink:href="#DejaVuSans-55"/>
       <use x="127.246094" xlink:href="#DejaVuSans-46"/>
       <use x="159.033203" xlink:href="#DejaVuSans-53"/>
      </g>
     </g>
    </g>
    <g id="xtick_9">
     <g id="line2d_9">
      <g>
       <use style="stroke:#000000;stroke-width:0.8;" x="373.886486" xlink:href="#mc0045e73f5" y="133.396364"/>
      </g>
     </g>
     <g id="text_9">
      <!-- 20.0 -->
      <g transform="translate(362.753674 147.994801)scale(0.1 -0.1)">
       <use xlink:href="#DejaVuSans-50"/>
       <use x="63.623047" xlink:href="#DejaVuSans-48"/>
       <use x="127.246094" xlink:href="#DejaVuSans-46"/>
       <use x="159.033203" xlink:href="#DejaVuSans-48"/>
      </g>
     </g>
    </g>
   </g>
   <g id="matplotlib.axis_2">
    <g id="ytick_1">
     <g id="line2d_10">
      <defs>
       <path d="M 0 0 
L -3.5 0 
" id="mf279dc2608" style="stroke:#000000;stroke-width:0.8;"/>
      </defs>
      <g>
       <use style="stroke:#000000;stroke-width:0.8;" x="54" xlink:href="#mf279dc2608" y="128.932973"/>
      </g>
     </g>
     <g id="text_10">
      <!-- 0 -->
      <g transform="translate(40.6375 132.732192)scale(0.1 -0.1)">
       <use xlink:href="#DejaVuSans-48"/>
      </g>
     </g>
    </g>
    <g id="ytick_2">
     <g id="line2d_11">
      <g>
       <use style="stroke:#000000;stroke-width:0.8;" x="54" xlink:href="#mf279dc2608" y="100.744512"/>
      </g>
     </g>
     <g id="text_11">
      <!-- 1 -->
      <g transform="translate(40.6375 104.543731)scale(0.1 -0.1)">
       <use xlink:href="#DejaVuSans-49"/>
      </g>
     </g>
    </g>
    <g id="ytick_3">
     <g id="line2d_12">
      <g>
       <use style="stroke:#000000;stroke-width:0.8;" x="54" xlink:href="#mf279dc2608" y="72.556051"/>
      </g>
     </g>
     <g id="text_12">
      <!-- 2 -->
      <g transform="translate(40.6375 76.355269)scale(0.1 -0.1)">
       <use xlink:href="#DejaVuSans-50"/>
      </g>
     </g>
    </g>
    <g id="ytick_4">
     <g id="line2d_13">
      <g>
       <use style="stroke:#000000;stroke-width:0.8;" x="54" xlink:href="#mf279dc2608" y="44.367589"/>
      </g>
     </g>
     <g id="text_13">
      <!-- 3 -->
      <g transform="translate(40.6375 48.166808)scale(0.1 -0.1)">
       <defs>
        <path d="M 40.578125 39.3125 
Q 47.65625 37.796875 51.625 33 
Q 55.609375 28.21875 55.609375 21.1875 
Q 55.609375 10.40625 48.1875 4.484375 
Q 40.765625 -1.421875 27.09375 -1.421875 
Q 22.515625 -1.421875 17.65625 -0.515625 
Q 12.796875 0.390625 7.625 2.203125 
L 7.625 11.71875 
Q 11.71875 9.328125 16.59375 8.109375 
Q 21.484375 6.890625 26.8125 6.890625 
Q 36.078125 6.890625 40.9375 10.546875 
Q 45.796875 14.203125 45.796875 21.1875 
Q 45.796875 27.640625 41.28125 31.265625 
Q 36.765625 34.90625 28.71875 34.90625 
L 20.21875 34.90625 
L 20.21875 43.015625 
L 29.109375 43.015625 
Q 36.375 43.015625 40.234375 45.921875 
Q 44.09375 48.828125 44.09375 54.296875 
Q 44.09375 59.90625 40.109375 62.90625 
Q 36.140625 65.921875 28.71875 65.921875 
Q 24.65625 65.921875 20.015625 65.03125 
Q 15.375 64.15625 9.8125 62.3125 
L 9.8125 71.09375 
Q 15.4375 72.65625 20.34375 73.4375 
Q 25.25 74.21875 29.59375 74.21875 
Q 40.828125 74.21875 47.359375 69.109375 
Q 53.90625 64.015625 53.90625 55.328125 
Q 53.90625 49.265625 50.4375 45.09375 
Q 46.96875 40.921875 40.578125 39.3125 
z
" id="DejaVuSans-51"/>
       </defs>
       <use xlink:href="#DejaVuSans-51"/>
      </g>
     </g>
    </g>
   </g>
   <g id="line2d_14">
    <path clip-path="url(#p6f049de489)" d="M 69.218182 93.797429 
L 69.827518 96.052388 
L 70.436855 97.667512 
L 71.35086 99.332743 
L 72.264865 100.420273 
L 73.17887 101.133357 
L 74.092875 101.583735 
L 75.311548 101.884759 
L 76.530221 101.921455 
L 77.748894 101.740294 
L 78.967568 101.363095 
L 80.186241 100.795316 
L 81.404914 100.029726 
L 82.623587 99.047598 
L 83.84226 97.818428 
L 85.060934 96.298847 
L 86.279607 94.431729 
L 87.49828 92.147846 
L 88.716953 89.375632 
L 89.935627 86.0701 
L 91.458968 81.269508 
L 94.200983 72.474664 
L 95.419656 69.451153 
L 96.333661 67.67944 
L 97.247666 66.27446 
L 98.466339 64.835961 
L 99.685012 63.747314 
L 101.208354 62.714321 
L 103.036364 61.798094 
L 104.864373 61.126289 
L 106.997052 60.560733 
L 109.739066 60.072278 
L 113.090418 59.709551 
L 117.660442 59.449918 
L 124.972482 59.289165 
L 140.510565 59.226568 
L 280.962654 59.221472 
L 373.581818 59.221472 
L 373.581818 59.221472 
" style="fill:none;stroke:#1f77b4;stroke-linecap:square;stroke-width:1.5;"/>
   </g>
   <g id="line2d_15">
    <path clip-path="url(#p6f049de489)" d="M 69.218182 50.387137 
L 69.827518 64.518429 
L 70.436855 73.719821 
L 71.35086 83.147727 
L 72.264865 89.796462 
L 73.17887 94.848118 
L 74.092875 98.862991 
L 75.311548 103.119932 
L 76.530221 106.499091 
L 77.748894 109.25047 
L 78.967568 111.533244 
L 80.490909 113.888632 
L 82.014251 115.822128 
L 83.537592 117.432093 
L 85.365602 119.033825 
L 87.193612 120.355303 
L 89.32629 121.623582 
L 91.763636 122.795842 
L 94.505651 123.84693 
L 97.552334 124.765802 
L 101.208354 125.613753 
L 105.47371 126.350326 
L 110.348403 126.958981 
L 116.441769 127.484313 
L 124.058477 127.906501 
L 134.417199 128.238745 
L 149.345946 128.474158 
L 175.54742 128.632921 
L 245.316462 128.765693 
L 373.581818 128.867735 
L 373.581818 128.867735 
" style="fill:none;stroke:#ff7f0e;stroke-linecap:square;stroke-width:1.5;"/>
   </g>
   <g id="line2d_16">
    <path clip-path="url(#p6f049de489)" d="M 69.218182 39.052562 
L 69.827518 59.069063 
L 70.436855 70.981608 
L 71.046192 79.207574 
L 71.960197 87.93072 
L 72.874201 94.18391 
L 73.788206 98.949849 
L 74.702211 102.728443 
L 75.920885 106.712486 
L 77.139558 109.850954 
L 78.358231 112.38644 
L 79.576904 114.474097 
L 81.100246 116.610496 
L 82.623587 118.348571 
L 84.146929 119.783045 
L 85.974939 121.196321 
L 87.802948 122.349591 
L 89.935627 123.442893 
L 92.372973 124.43841 
L 95.114988 125.315048 
L 98.466339 126.129567 
L 102.122359 126.786152 
L 106.692383 127.370512 
L 112.176413 127.840415 
L 119.183784 128.212522 
L 128.93317 128.492695 
L 143.861916 128.677017 
L 174.024079 128.783023 
L 298.328747 128.878001 
L 373.581818 128.903802 
L 373.581818 128.903802 
" style="fill:none;stroke:#2ca02c;stroke-linecap:square;stroke-width:1.5;"/>
   </g>
   <g id="patch_3">
    <path d="M 54 133.396364 
L 54 34.56 
" style="fill:none;stroke:#000000;stroke-linecap:square;stroke-linejoin:miter;stroke-width:0.8;"/>
   </g>
   <g id="patch_4">
    <path d="M 388.8 133.396364 
L 388.8 34.56 
" style="fill:none;stroke:#000000;stroke-linecap:square;stroke-linejoin:miter;stroke-width:0.8;"/>
   </g>
   <g id="patch_5">
    <path d="M 54 133.396364 
L 388.8 133.396364 
" style="fill:none;stroke:#000000;stroke-linecap:square;stroke-linejoin:miter;stroke-width:0.8;"/>
   </g>
   <g id="patch_6">
    <path d="M 54 34.56 
L 388.8 34.56 
" style="fill:none;stroke:#000000;stroke-linecap:square;stroke-linejoin:miter;stroke-width:0.8;"/>
   </g>
   <g id="legend_1">
    <g id="patch_7">
     <path d="M 282.5 128.396364 
L 381.8 128.396364 
Q 383.8 128.396364 383.8 126.396364 
L 383.8 83.361989 
Q 383.8 81.361989 381.8 81.361989 
L 282.5 81.361989 
Q 280.5 81.361989 280.5 83.361989 
L 280.5 126.396364 
Q 280.5 128.396364 282.5 128.396364 
z
" style="fill:#ffffff;opacity:0.8;stroke:#cccccc;stroke-linejoin:miter;"/>
    </g>
    <g id="line2d_17">
     <path d="M 284.5 89.460426 
L 304.5 89.460426 
" style="fill:none;stroke:#1f77b4;stroke-linecap:square;stroke-width:1.5;"/>
    </g>
    <g id="line2d_18"/>
    <g id="text_14">
     <!-- Init: $u_1$ -->
     <g transform="translate(312.5 92.960426)scale(0.1 -0.1)">
      <defs>
       <path d="M 9.8125 72.90625 
L 19.671875 72.90625 
L 19.671875 0 
L 9.8125 0 
z
" id="DejaVuSans-73"/>
       <path d="M 54.890625 33.015625 
L 54.890625 0 
L 45.90625 0 
L 45.90625 32.71875 
Q 45.90625 40.484375 42.875 44.328125 
Q 39.84375 48.1875 33.796875 48.1875 
Q 26.515625 48.1875 22.3125 43.546875 
Q 18.109375 38.921875 18.109375 30.90625 
L 18.109375 0 
L 9.078125 0 
L 9.078125 54.6875 
L 18.109375 54.6875 
L 18.109375 46.1875 
Q 21.34375 51.125 25.703125 53.5625 
Q 30.078125 56 35.796875 56 
Q 45.21875 56 50.046875 50.171875 
Q 54.890625 44.34375 54.890625 33.015625 
z
" id="DejaVuSans-110"/>
       <path d="M 9.421875 54.6875 
L 18.40625 54.6875 
L 18.40625 0 
L 9.421875 0 
z
M 9.421875 75.984375 
L 18.40625 75.984375 
L 18.40625 64.59375 
L 9.421875 64.59375 
z
" id="DejaVuSans-105"/>
       <path d="M 18.3125 70.21875 
L 18.3125 54.6875 
L 36.8125 54.6875 
L 36.8125 47.703125 
L 18.3125 47.703125 
L 18.3125 18.015625 
Q 18.3125 11.328125 20.140625 9.421875 
Q 21.96875 7.515625 27.59375 7.515625 
L 36.8125 7.515625 
L 36.8125 0 
L 27.59375 0 
Q 17.1875 0 13.234375 3.875 
Q 9.28125 7.765625 9.28125 18.015625 
L 9.28125 47.703125 
L 2.6875 47.703125 
L 2.6875 54.6875 
L 9.28125 54.6875 
L 9.28125 70.21875 
z
" id="DejaVuSans-116"/>
       <path d="M 11.71875 12.40625 
L 22.015625 12.40625 
L 22.015625 0 
L 11.71875 0 
z
M 11.71875 51.703125 
L 22.015625 51.703125 
L 22.015625 39.3125 
L 11.71875 39.3125 
z
" id="DejaVuSans-58"/>
       <path id="DejaVuSans-32"/>
       <path d="M 6.6875 21.6875 
L 13.09375 54.6875 
L 22.125 54.6875 
L 15.71875 22.015625 
Q 15.234375 19.625 15.015625 17.921875 
Q 14.796875 16.21875 14.796875 15.09375 
Q 14.796875 10.9375 17.328125 8.65625 
Q 19.875 6.390625 24.515625 6.390625 
Q 31.734375 6.390625 37 11.265625 
Q 42.28125 16.15625 43.890625 24.421875 
L 49.90625 54.6875 
L 58.890625 54.6875 
L 48.296875 0 
L 39.3125 0 
L 41.109375 8.59375 
Q 37.3125 3.8125 32.0625 1.1875 
Q 26.8125 -1.421875 20.90625 -1.421875 
Q 13.71875 -1.421875 9.71875 2.515625 
Q 5.71875 6.453125 5.71875 13.484375 
Q 5.71875 14.9375 5.953125 17.140625 
Q 6.203125 19.34375 6.6875 21.6875 
z
" id="DejaVuSans-Oblique-117"/>
      </defs>
      <use transform="translate(0 0.015625)" xlink:href="#DejaVuSans-73"/>
      <use transform="translate(29.492188 0.015625)" xlink:href="#DejaVuSans-110"/>
      <use transform="translate(92.871094 0.015625)" xlink:href="#DejaVuSans-105"/>
      <use transform="translate(120.654297 0.015625)" xlink:href="#DejaVuSans-116"/>
      <use transform="translate(159.863281 0.015625)" xlink:href="#DejaVuSans-58"/>
      <use transform="translate(193.554688 0.015625)" xlink:href="#DejaVuSans-32"/>
      <use transform="translate(225.341797 0.015625)" xlink:href="#DejaVuSans-Oblique-117"/>
      <use transform="translate(288.720703 -16.390625)scale(0.7)" xlink:href="#DejaVuSans-49"/>
     </g>
    </g>
    <g id="line2d_19">
     <path d="M 284.5 104.138551 
L 304.5 104.138551 
" style="fill:none;stroke:#ff7f0e;stroke-linecap:square;stroke-width:1.5;"/>
    </g>
    <g id="line2d_20"/>
    <g id="text_15">
     <!-- DIRECT: $u_1$ -->
     <g transform="translate(312.5 107.638551)scale(0.1 -0.1)">
      <defs>
       <path d="M 19.671875 64.796875 
L 19.671875 8.109375 
L 31.59375 8.109375 
Q 46.6875 8.109375 53.6875 14.9375 
Q 60.6875 21.78125 60.6875 36.53125 
Q 60.6875 51.171875 53.6875 57.984375 
Q 46.6875 64.796875 31.59375 64.796875 
z
M 9.8125 72.90625 
L 30.078125 72.90625 
Q 51.265625 72.90625 61.171875 64.09375 
Q 71.09375 55.28125 71.09375 36.53125 
Q 71.09375 17.671875 61.125 8.828125 
Q 51.171875 0 30.078125 0 
L 9.8125 0 
z
" id="DejaVuSans-68"/>
       <path d="M 44.390625 34.1875 
Q 47.5625 33.109375 50.5625 29.59375 
Q 53.5625 26.078125 56.59375 19.921875 
L 66.609375 0 
L 56 0 
L 46.6875 18.703125 
Q 43.0625 26.03125 39.671875 28.421875 
Q 36.28125 30.8125 30.421875 30.8125 
L 19.671875 30.8125 
L 19.671875 0 
L 9.8125 0 
L 9.8125 72.90625 
L 32.078125 72.90625 
Q 44.578125 72.90625 50.734375 67.671875 
Q 56.890625 62.453125 56.890625 51.90625 
Q 56.890625 45.015625 53.6875 40.46875 
Q 50.484375 35.9375 44.390625 34.1875 
z
M 19.671875 64.796875 
L 19.671875 38.921875 
L 32.078125 38.921875 
Q 39.203125 38.921875 42.84375 42.21875 
Q 46.484375 45.515625 46.484375 51.90625 
Q 46.484375 58.296875 42.84375 61.546875 
Q 39.203125 64.796875 32.078125 64.796875 
z
" id="DejaVuSans-82"/>
       <path d="M 9.8125 72.90625 
L 55.90625 72.90625 
L 55.90625 64.59375 
L 19.671875 64.59375 
L 19.671875 43.015625 
L 54.390625 43.015625 
L 54.390625 34.71875 
L 19.671875 34.71875 
L 19.671875 8.296875 
L 56.78125 8.296875 
L 56.78125 0 
L 9.8125 0 
z
" id="DejaVuSans-69"/>
       <path d="M 64.40625 67.28125 
L 64.40625 56.890625 
Q 59.421875 61.53125 53.78125 63.8125 
Q 48.140625 66.109375 41.796875 66.109375 
Q 29.296875 66.109375 22.65625 58.46875 
Q 16.015625 50.828125 16.015625 36.375 
Q 16.015625 21.96875 22.65625 14.328125 
Q 29.296875 6.6875 41.796875 6.6875 
Q 48.140625 6.6875 53.78125 8.984375 
Q 59.421875 11.28125 64.40625 15.921875 
L 64.40625 5.609375 
Q 59.234375 2.09375 53.4375 0.328125 
Q 47.65625 -1.421875 41.21875 -1.421875 
Q 24.65625 -1.421875 15.125 8.703125 
Q 5.609375 18.84375 5.609375 36.375 
Q 5.609375 53.953125 15.125 64.078125 
Q 24.65625 74.21875 41.21875 74.21875 
Q 47.75 74.21875 53.53125 72.484375 
Q 59.328125 70.75 64.40625 67.28125 
z
" id="DejaVuSans-67"/>
       <path d="M -0.296875 72.90625 
L 61.375 72.90625 
L 61.375 64.59375 
L 35.5 64.59375 
L 35.5 0 
L 25.59375 0 
L 25.59375 64.59375 
L -0.296875 64.59375 
z
" id="DejaVuSans-84"/>
      </defs>
      <use transform="translate(0 0.78125)" xlink:href="#DejaVuSans-68"/>
      <use transform="translate(77.001953 0.78125)" xlink:href="#DejaVuSans-73"/>
      <use transform="translate(106.494141 0.78125)" xlink:href="#DejaVuSans-82"/>
      <use transform="translate(175.976562 0.78125)" xlink:href="#DejaVuSans-69"/>
      <use transform="translate(239.160156 0.78125)" xlink:href="#DejaVuSans-67"/>
      <use transform="translate(308.984375 0.78125)" xlink:href="#DejaVuSans-84"/>
      <use transform="translate(370.068359 0.78125)" xlink:href="#DejaVuSans-58"/>
      <use transform="translate(403.759766 0.78125)" xlink:href="#DejaVuSans-32"/>
      <use transform="translate(435.546875 0.78125)" xlink:href="#DejaVuSans-Oblique-117"/>
      <use transform="translate(498.925781 -15.625)scale(0.7)" xlink:href="#DejaVuSans-49"/>
     </g>
    </g>
    <g id="line2d_21">
     <path d="M 284.5 118.816676 
L 304.5 118.816676 
" style="fill:none;stroke:#2ca02c;stroke-linecap:square;stroke-width:1.5;"/>
    </g>
    <g id="line2d_22"/>
    <g id="text_16">
     <!-- SQSnobfit: $u_1$ -->
     <g transform="translate(312.5 122.316676)scale(0.1 -0.1)">
      <defs>
       <path d="M 53.515625 70.515625 
L 53.515625 60.890625 
Q 47.90625 63.578125 42.921875 64.890625 
Q 37.9375 66.21875 33.296875 66.21875 
Q 25.25 66.21875 20.875 63.09375 
Q 16.5 59.96875 16.5 54.203125 
Q 16.5 49.359375 19.40625 46.890625 
Q 22.3125 44.4375 30.421875 42.921875 
L 36.375 41.703125 
Q 47.40625 39.59375 52.65625 34.296875 
Q 57.90625 29 57.90625 20.125 
Q 57.90625 9.515625 50.796875 4.046875 
Q 43.703125 -1.421875 29.984375 -1.421875 
Q 24.8125 -1.421875 18.96875 -0.25 
Q 13.140625 0.921875 6.890625 3.21875 
L 6.890625 13.375 
Q 12.890625 10.015625 18.65625 8.296875 
Q 24.421875 6.59375 29.984375 6.59375 
Q 38.421875 6.59375 43.015625 9.90625 
Q 47.609375 13.234375 47.609375 19.390625 
Q 47.609375 24.75 44.3125 27.78125 
Q 41.015625 30.8125 33.5 32.328125 
L 27.484375 33.5 
Q 16.453125 35.6875 11.515625 40.375 
Q 6.59375 45.0625 6.59375 53.421875 
Q 6.59375 63.09375 13.40625 68.65625 
Q 20.21875 74.21875 32.171875 74.21875 
Q 37.3125 74.21875 42.625 73.28125 
Q 47.953125 72.359375 53.515625 70.515625 
z
" id="DejaVuSans-83"/>
       <path d="M 39.40625 66.21875 
Q 28.65625 66.21875 22.328125 58.203125 
Q 16.015625 50.203125 16.015625 36.375 
Q 16.015625 22.609375 22.328125 14.59375 
Q 28.65625 6.59375 39.40625 6.59375 
Q 50.140625 6.59375 56.421875 14.59375 
Q 62.703125 22.609375 62.703125 36.375 
Q 62.703125 50.203125 56.421875 58.203125 
Q 50.140625 66.21875 39.40625 66.21875 
z
M 53.21875 1.3125 
L 66.21875 -12.890625 
L 54.296875 -12.890625 
L 43.5 -1.21875 
Q 41.890625 -1.3125 41.03125 -1.359375 
Q 40.1875 -1.421875 39.40625 -1.421875 
Q 24.03125 -1.421875 14.8125 8.859375 
Q 5.609375 19.140625 5.609375 36.375 
Q 5.609375 53.65625 14.8125 63.9375 
Q 24.03125 74.21875 39.40625 74.21875 
Q 54.734375 74.21875 63.90625 63.9375 
Q 73.09375 53.65625 73.09375 36.375 
Q 73.09375 23.6875 67.984375 14.640625 
Q 62.890625 5.609375 53.21875 1.3125 
z
" id="DejaVuSans-81"/>
       <path d="M 30.609375 48.390625 
Q 23.390625 48.390625 19.1875 42.75 
Q 14.984375 37.109375 14.984375 27.296875 
Q 14.984375 17.484375 19.15625 11.84375 
Q 23.34375 6.203125 30.609375 6.203125 
Q 37.796875 6.203125 41.984375 11.859375 
Q 46.1875 17.53125 46.1875 27.296875 
Q 46.1875 37.015625 41.984375 42.703125 
Q 37.796875 48.390625 30.609375 48.390625 
z
M 30.609375 56 
Q 42.328125 56 49.015625 48.375 
Q 55.71875 40.765625 55.71875 27.296875 
Q 55.71875 13.875 49.015625 6.21875 
Q 42.328125 -1.421875 30.609375 -1.421875 
Q 18.84375 -1.421875 12.171875 6.21875 
Q 5.515625 13.875 5.515625 27.296875 
Q 5.515625 40.765625 12.171875 48.375 
Q 18.84375 56 30.609375 56 
z
" id="DejaVuSans-111"/>
       <path d="M 48.6875 27.296875 
Q 48.6875 37.203125 44.609375 42.84375 
Q 40.53125 48.484375 33.40625 48.484375 
Q 26.265625 48.484375 22.1875 42.84375 
Q 18.109375 37.203125 18.109375 27.296875 
Q 18.109375 17.390625 22.1875 11.75 
Q 26.265625 6.109375 33.40625 6.109375 
Q 40.53125 6.109375 44.609375 11.75 
Q 48.6875 17.390625 48.6875 27.296875 
z
M 18.109375 46.390625 
Q 20.953125 51.265625 25.265625 53.625 
Q 29.59375 56 35.59375 56 
Q 45.5625 56 51.78125 48.09375 
Q 58.015625 40.1875 58.015625 27.296875 
Q 58.015625 14.40625 51.78125 6.484375 
Q 45.5625 -1.421875 35.59375 -1.421875 
Q 29.59375 -1.421875 25.265625 0.953125 
Q 20.953125 3.328125 18.109375 8.203125 
L 18.109375 0 
L 9.078125 0 
L 9.078125 75.984375 
L 18.109375 75.984375 
z
" id="DejaVuSans-98"/>
       <path d="M 37.109375 75.984375 
L 37.109375 68.5 
L 28.515625 68.5 
Q 23.6875 68.5 21.796875 66.546875 
Q 19.921875 64.59375 19.921875 59.515625 
L 19.921875 54.6875 
L 34.71875 54.6875 
L 34.71875 47.703125 
L 19.921875 47.703125 
L 19.921875 0 
L 10.890625 0 
L 10.890625 47.703125 
L 2.296875 47.703125 
L 2.296875 54.6875 
L 10.890625 54.6875 
L 10.890625 58.5 
Q 10.890625 67.625 15.140625 71.796875 
Q 19.390625 75.984375 28.609375 75.984375 
z
" id="DejaVuSans-102"/>
      </defs>
      <use transform="translate(0 0.015625)" xlink:href="#DejaVuSans-83"/>
      <use transform="translate(63.476562 0.015625)" xlink:href="#DejaVuSans-81"/>
      <use transform="translate(142.1875 0.015625)" xlink:href="#DejaVuSans-83"/>
      <use transform="translate(205.664062 0.015625)" xlink:href="#DejaVuSans-110"/>
      <use transform="translate(269.042969 0.015625)" xlink:href="#DejaVuSans-111"/>
      <use transform="translate(330.224609 0.015625)" xlink:href="#DejaVuSans-98"/>
      <use transform="translate(393.701172 0.015625)" xlink:href="#DejaVuSans-102"/>
      <use transform="translate(428.90625 0.015625)" xlink:href="#DejaVuSans-105"/>
      <use transform="translate(456.689453 0.015625)" xlink:href="#DejaVuSans-116"/>
      <use transform="translate(495.898438 0.015625)" xlink:href="#DejaVuSans-58"/>
      <use transform="translate(529.589844 0.015625)" xlink:href="#DejaVuSans-32"/>
      <use transform="translate(561.376953 0.015625)" xlink:href="#DejaVuSans-Oblique-117"/>
      <use transform="translate(624.755859 -16.390625)scale(0.7)" xlink:href="#DejaVuSans-49"/>
     </g>
    </g>
   </g>
  </g>
  <g id="axes_2">
   <g id="patch_8">
    <path d="M 54 252 
L 388.8 252 
L 388.8 153.163636 
L 54 153.163636 
z
" style="fill:#ffffff;"/>
   </g>
   <g id="matplotlib.axis_3">
    <g id="xtick_10">
     <g id="line2d_23">
      <g>
       <use style="stroke:#000000;stroke-width:0.8;" x="69.218182" xlink:href="#mc0045e73f5" y="252"/>
      </g>
     </g>
     <g id="text_17">
      <!-- 0.0 -->
      <g transform="translate(61.266619 266.598437)scale(0.1 -0.1)">
       <use xlink:href="#DejaVuSans-48"/>
       <use x="63.623047" xlink:href="#DejaVuSans-46"/>
       <use x="95.410156" xlink:href="#DejaVuSans-48"/>
      </g>
     </g>
    </g>
    <g id="xtick_11">
     <g id="line2d_24">
      <g>
       <use style="stroke:#000000;stroke-width:0.8;" x="107.30172" xlink:href="#mc0045e73f5" y="252"/>
      </g>
     </g>
     <g id="text_18">
      <!-- 2.5 -->
      <g transform="translate(99.350157 266.598437)scale(0.1 -0.1)">
       <use xlink:href="#DejaVuSans-50"/>
       <use x="63.623047" xlink:href="#DejaVuSans-46"/>
       <use x="95.410156" xlink:href="#DejaVuSans-53"/>
      </g>
     </g>
    </g>
    <g id="xtick_12">
     <g id="line2d_25">
      <g>
       <use style="stroke:#000000;stroke-width:0.8;" x="145.385258" xlink:href="#mc0045e73f5" y="252"/>
      </g>
     </g>
     <g id="text_19">
      <!-- 5.0 -->
      <g transform="translate(137.433695 266.598437)scale(0.1 -0.1)">
       <use xlink:href="#DejaVuSans-53"/>
       <use x="63.623047" xlink:href="#DejaVuSans-46"/>
       <use x="95.410156" xlink:href="#DejaVuSans-48"/>
      </g>
     </g>
    </g>
    <g id="xtick_13">
     <g id="line2d_26">
      <g>
       <use style="stroke:#000000;stroke-width:0.8;" x="183.468796" xlink:href="#mc0045e73f5" y="252"/>
      </g>
     </g>
     <g id="text_20">
      <!-- 7.5 -->
      <g transform="translate(175.517234 266.598437)scale(0.1 -0.1)">
       <use xlink:href="#DejaVuSans-55"/>
       <use x="63.623047" xlink:href="#DejaVuSans-46"/>
       <use x="95.410156" xlink:href="#DejaVuSans-53"/>
      </g>
     </g>
    </g>
    <g id="xtick_14">
     <g id="line2d_27">
      <g>
       <use style="stroke:#000000;stroke-width:0.8;" x="221.552334" xlink:href="#mc0045e73f5" y="252"/>
      </g>
     </g>
     <g id="text_21">
      <!-- 10.0 -->
      <g transform="translate(210.419522 266.598437)scale(0.1 -0.1)">
       <use xlink:href="#DejaVuSans-49"/>
       <use x="63.623047" xlink:href="#DejaVuSans-48"/>
       <use x="127.246094" xlink:href="#DejaVuSans-46"/>
       <use x="159.033203" xlink:href="#DejaVuSans-48"/>
      </g>
     </g>
    </g>
    <g id="xtick_15">
     <g id="line2d_28">
      <g>
       <use style="stroke:#000000;stroke-width:0.8;" x="259.635872" xlink:href="#mc0045e73f5" y="252"/>
      </g>
     </g>
     <g id="text_22">
      <!-- 12.5 -->
      <g transform="translate(248.50306 266.598437)scale(0.1 -0.1)">
       <use xlink:href="#DejaVuSans-49"/>
       <use x="63.623047" xlink:href="#DejaVuSans-50"/>
       <use x="127.246094" xlink:href="#DejaVuSans-46"/>
       <use x="159.033203" xlink:href="#DejaVuSans-53"/>
      </g>
     </g>
    </g>
    <g id="xtick_16">
     <g id="line2d_29">
      <g>
       <use style="stroke:#000000;stroke-width:0.8;" x="297.71941" xlink:href="#mc0045e73f5" y="252"/>
      </g>
     </g>
     <g id="text_23">
      <!-- 15.0 -->
      <g transform="translate(286.586598 266.598437)scale(0.1 -0.1)">
       <use xlink:href="#DejaVuSans-49"/>
       <use x="63.623047" xlink:href="#DejaVuSans-53"/>
       <use x="127.246094" xlink:href="#DejaVuSans-46"/>
       <use x="159.033203" xlink:href="#DejaVuSans-48"/>
      </g>
     </g>
    </g>
    <g id="xtick_17">
     <g id="line2d_30">
      <g>
       <use style="stroke:#000000;stroke-width:0.8;" x="335.802948" xlink:href="#mc0045e73f5" y="252"/>
      </g>
     </g>
     <g id="text_24">
      <!-- 17.5 -->
      <g transform="translate(324.670136 266.598437)scale(0.1 -0.1)">
       <use xlink:href="#DejaVuSans-49"/>
       <use x="63.623047" xlink:href="#DejaVuSans-55"/>
       <use x="127.246094" xlink:href="#DejaVuSans-46"/>
       <use x="159.033203" xlink:href="#DejaVuSans-53"/>
      </g>
     </g>
    </g>
    <g id="xtick_18">
     <g id="line2d_31">
      <g>
       <use style="stroke:#000000;stroke-width:0.8;" x="373.886486" xlink:href="#mc0045e73f5" y="252"/>
      </g>
     </g>
     <g id="text_25">
      <!-- 20.0 -->
      <g transform="translate(362.753674 266.598437)scale(0.1 -0.1)">
       <use xlink:href="#DejaVuSans-50"/>
       <use x="63.623047" xlink:href="#DejaVuSans-48"/>
       <use x="127.246094" xlink:href="#DejaVuSans-46"/>
       <use x="159.033203" xlink:href="#DejaVuSans-48"/>
      </g>
     </g>
    </g>
   </g>
   <g id="matplotlib.axis_4">
    <g id="ytick_5">
     <g id="line2d_32">
      <g>
       <use style="stroke:#000000;stroke-width:0.8;" x="54" xlink:href="#mf279dc2608" y="244.453769"/>
      </g>
     </g>
     <g id="text_26">
      <!-- −15 -->
      <g transform="translate(25.895312 248.252988)scale(0.1 -0.1)">
       <defs>
        <path d="M 10.59375 35.5 
L 73.1875 35.5 
L 73.1875 27.203125 
L 10.59375 27.203125 
z
" id="DejaVuSans-8722"/>
       </defs>
       <use xlink:href="#DejaVuSans-8722"/>
       <use x="83.789062" xlink:href="#DejaVuSans-49"/>
       <use x="147.412109" xlink:href="#DejaVuSans-53"/>
      </g>
     </g>
    </g>
    <g id="ytick_6">
     <g id="line2d_33">
      <g>
       <use style="stroke:#000000;stroke-width:0.8;" x="54" xlink:href="#mf279dc2608" y="215.585883"/>
      </g>
     </g>
     <g id="text_27">
      <!-- −10 -->
      <g transform="translate(25.895312 219.385102)scale(0.1 -0.1)">
       <use xlink:href="#DejaVuSans-8722"/>
       <use x="83.789062" xlink:href="#DejaVuSans-49"/>
       <use x="147.412109" xlink:href="#DejaVuSans-48"/>
      </g>
     </g>
    </g>
    <g id="ytick_7">
     <g id="line2d_34">
      <g>
       <use style="stroke:#000000;stroke-width:0.8;" x="54" xlink:href="#mf279dc2608" y="186.717996"/>
      </g>
     </g>
     <g id="text_28">
      <!-- −5 -->
      <g transform="translate(32.257812 190.517215)scale(0.1 -0.1)">
       <use xlink:href="#DejaVuSans-8722"/>
       <use x="83.789062" xlink:href="#DejaVuSans-53"/>
      </g>
     </g>
    </g>
    <g id="ytick_8">
     <g id="line2d_35">
      <g>
       <use style="stroke:#000000;stroke-width:0.8;" x="54" xlink:href="#mf279dc2608" y="157.85011"/>
      </g>
     </g>
     <g id="text_29">
      <!-- 0 -->
      <g transform="translate(40.6375 161.649328)scale(0.1 -0.1)">
       <use xlink:href="#DejaVuSans-48"/>
      </g>
     </g>
    </g>
   </g>
   <g id="line2d_36">
    <path clip-path="url(#p8442d954e2)" d="M 69.218182 157.85011 
L 373.581818 157.85011 
L 373.581818 157.85011 
" style="fill:none;stroke:#1f77b4;stroke-linecap:square;stroke-width:1.5;"/>
   </g>
   <g id="line2d_37">
    <path clip-path="url(#p8442d954e2)" d="M 69.218182 211.632187 
L 70.132187 204.102639 
L 71.046192 198.561258 
L 71.960197 194.158933 
L 73.17887 189.415871 
L 74.397543 185.558762 
L 75.616216 182.342056 
L 77.139558 178.99677 
L 78.662899 176.226355 
L 80.186241 173.901302 
L 81.709582 171.929613 
L 83.537592 169.935589 
L 85.365602 168.266204 
L 87.49828 166.643746 
L 89.630958 165.299816 
L 92.068305 164.033197 
L 94.810319 162.877963 
L 97.857002 161.853719 
L 101.208354 160.968219 
L 105.169042 160.166282 
L 109.739066 159.482165 
L 115.223096 158.901934 
L 121.925799 158.432509 
L 130.456511 158.073518 
L 142.033907 157.824761 
L 160.009337 157.68519 
L 198.092875 157.663295 
L 373.581818 157.777131 
L 373.581818 157.777131 
" style="fill:none;stroke:#ff7f0e;stroke-linecap:square;stroke-width:1.5;"/>
   </g>
   <g id="line2d_38">
    <path clip-path="url(#p8442d954e2)" d="M 69.218182 247.507438 
L 69.827518 227.393704 
L 70.436855 215.185027 
L 71.046192 206.687966 
L 71.960197 197.667725 
L 72.874201 191.232405 
L 73.788206 186.366984 
L 74.702211 182.545413 
L 75.920885 178.560826 
L 77.139558 175.461226 
L 78.358231 172.986569 
L 79.576904 170.971057 
L 81.100246 168.931058 
L 82.623587 167.289574 
L 84.146929 165.94792 
L 85.974939 164.638339 
L 88.107617 163.422597 
L 90.240295 162.45832 
L 92.677641 161.585837 
L 95.724324 160.748896 
L 99.075676 160.062798 
L 103.341032 159.436179 
L 108.520393 158.922951 
L 114.918428 158.523969 
L 123.44914 158.224239 
L 136.245209 158.018835 
L 159.4 157.908785 
L 237.699754 157.866755 
L 373.581818 157.850575 
L 373.581818 157.850575 
" style="fill:none;stroke:#2ca02c;stroke-linecap:square;stroke-width:1.5;"/>
   </g>
   <g id="patch_9">
    <path d="M 54 252 
L 54 153.163636 
" style="fill:none;stroke:#000000;stroke-linecap:square;stroke-linejoin:miter;stroke-width:0.8;"/>
   </g>
   <g id="patch_10">
    <path d="M 388.8 252 
L 388.8 153.163636 
" style="fill:none;stroke:#000000;stroke-linecap:square;stroke-linejoin:miter;stroke-width:0.8;"/>
   </g>
   <g id="patch_11">
    <path d="M 54 252 
L 388.8 252 
" style="fill:none;stroke:#000000;stroke-linecap:square;stroke-linejoin:miter;stroke-width:0.8;"/>
   </g>
   <g id="patch_12">
    <path d="M 54 153.163636 
L 388.8 153.163636 
" style="fill:none;stroke:#000000;stroke-linecap:square;stroke-linejoin:miter;stroke-width:0.8;"/>
   </g>
   <g id="legend_2">
    <g id="patch_13">
     <path d="M 282.5 205.198011 
L 381.8 205.198011 
Q 383.8 205.198011 383.8 203.198011 
L 383.8 160.163636 
Q 383.8 158.163636 381.8 158.163636 
L 282.5 158.163636 
Q 280.5 158.163636 280.5 160.163636 
L 280.5 203.198011 
Q 280.5 205.198011 282.5 205.198011 
z
" style="fill:#ffffff;opacity:0.8;stroke:#cccccc;stroke-linejoin:miter;"/>
    </g>
    <g id="line2d_39">
     <path d="M 284.5 166.262074 
L 304.5 166.262074 
" style="fill:none;stroke:#1f77b4;stroke-linecap:square;stroke-width:1.5;"/>
    </g>
    <g id="line2d_40"/>
    <g id="text_30">
     <!-- Init: $u_2$ -->
     <g transform="translate(312.5 169.762074)scale(0.1 -0.1)">
      <use transform="translate(0 0.015625)" xlink:href="#DejaVuSans-73"/>
      <use transform="translate(29.492188 0.015625)" xlink:href="#DejaVuSans-110"/>
      <use transform="translate(92.871094 0.015625)" xlink:href="#DejaVuSans-105"/>
      <use transform="translate(120.654297 0.015625)" xlink:href="#DejaVuSans-116"/>
      <use transform="translate(159.863281 0.015625)" xlink:href="#DejaVuSans-58"/>
      <use transform="translate(193.554688 0.015625)" xlink:href="#DejaVuSans-32"/>
      <use transform="translate(225.341797 0.015625)" xlink:href="#DejaVuSans-Oblique-117"/>
      <use transform="translate(288.720703 -16.390625)scale(0.7)" xlink:href="#DejaVuSans-50"/>
     </g>
    </g>
    <g id="line2d_41">
     <path d="M 284.5 180.940199 
L 304.5 180.940199 
" style="fill:none;stroke:#ff7f0e;stroke-linecap:square;stroke-width:1.5;"/>
    </g>
    <g id="line2d_42"/>
    <g id="text_31">
     <!-- DIRECT: $u_2$ -->
     <g transform="translate(312.5 184.440199)scale(0.1 -0.1)">
      <use transform="translate(0 0.78125)" xlink:href="#DejaVuSans-68"/>
      <use transform="translate(77.001953 0.78125)" xlink:href="#DejaVuSans-73"/>
      <use transform="translate(106.494141 0.78125)" xlink:href="#DejaVuSans-82"/>
      <use transform="translate(175.976562 0.78125)" xlink:href="#DejaVuSans-69"/>
      <use transform="translate(239.160156 0.78125)" xlink:href="#DejaVuSans-67"/>
      <use transform="translate(308.984375 0.78125)" xlink:href="#DejaVuSans-84"/>
      <use transform="translate(370.068359 0.78125)" xlink:href="#DejaVuSans-58"/>
      <use transform="translate(403.759766 0.78125)" xlink:href="#DejaVuSans-32"/>
      <use transform="translate(435.546875 0.78125)" xlink:href="#DejaVuSans-Oblique-117"/>
      <use transform="translate(498.925781 -15.625)scale(0.7)" xlink:href="#DejaVuSans-50"/>
     </g>
    </g>
    <g id="line2d_43">
     <path d="M 284.5 195.618324 
L 304.5 195.618324 
" style="fill:none;stroke:#2ca02c;stroke-linecap:square;stroke-width:1.5;"/>
    </g>
    <g id="line2d_44"/>
    <g id="text_32">
     <!-- SQSnobfit: $u_2$ -->
     <g transform="translate(312.5 199.118324)scale(0.1 -0.1)">
      <use transform="translate(0 0.015625)" xlink:href="#DejaVuSans-83"/>
      <use transform="translate(63.476562 0.015625)" xlink:href="#DejaVuSans-81"/>
      <use transform="translate(142.1875 0.015625)" xlink:href="#DejaVuSans-83"/>
      <use transform="translate(205.664062 0.015625)" xlink:href="#DejaVuSans-110"/>
      <use transform="translate(269.042969 0.015625)" xlink:href="#DejaVuSans-111"/>
      <use transform="translate(330.224609 0.015625)" xlink:href="#DejaVuSans-98"/>
      <use transform="translate(393.701172 0.015625)" xlink:href="#DejaVuSans-102"/>
      <use transform="translate(428.90625 0.015625)" xlink:href="#DejaVuSans-105"/>
      <use transform="translate(456.689453 0.015625)" xlink:href="#DejaVuSans-116"/>
      <use transform="translate(495.898438 0.015625)" xlink:href="#DejaVuSans-58"/>
      <use transform="translate(529.589844 0.015625)" xlink:href="#DejaVuSans-32"/>
      <use transform="translate(561.376953 0.015625)" xlink:href="#DejaVuSans-Oblique-117"/>
      <use transform="translate(624.755859 -16.390625)scale(0.7)" xlink:href="#DejaVuSans-50"/>
     </g>
    </g>
   </g>
  </g>
 </g>
 <defs>
  <clipPath id="p6f049de489">
   <rect height="98.836364" width="334.8" x="54" y="34.56"/>
  </clipPath>
  <clipPath id="p8442d954e2">
   <rect height="98.836364" width="334.8" x="54" y="153.163636"/>
  </clipPath>
 </defs>
</svg>
