<?xml version="1.0" encoding="utf-8" standalone="no"?>
<!DOCTYPE svg PUBLIC "-//W3C//DTD SVG 1.1//EN"
  "http://www.w3.org/Graphics/SVG/1.1/DTD/svg11.dtd">
<!-- Created with matplotlib (https://matplotlib.org/) -->
<svg height="288pt" version="1.1" viewBox="0 0 432 288" width="432pt" xmlns="http://www.w3.org/2000/svg" xmlns:xlink="http://www.w3.org/1999/xlink">
 <metadata>
  <rdf:RDF xmlns:cc="http://creativecommons.org/ns#" xmlns:dc="http://purl.org/dc/elements/1.1/" xmlns:rdf="http://www.w3.org/1999/02/22-rdf-syntax-ns#">
   <cc:Work>
    <dc:type rdf:resource="http://purl.org/dc/dcmitype/StillImage"/>
    <dc:date>2021-04-09T12:59:43.622424</dc:date>
    <dc:format>image/svg+xml</dc:format>
    <dc:creator>
     <cc:Agent>
      <dc:title>Matplotlib v3.3.4, https://matplotlib.org/</dc:title>
     </cc:Agent>
    </dc:creator>
   </cc:Work>
  </rdf:RDF>
 </metadata>
 <defs>
  <style type="text/css">*{stroke-linecap:butt;stroke-linejoin:round;}</style>
 </defs>
 <g id="figure_1">
  <g id="patch_1">
   <path d="M 0 288 
L 432 288 
L 432 0 
L 0 0 
z
" style="fill:#ffffff;"/>
  </g>
  <g id="axes_1">
   <g id="patch_2">
    <path d="M 54 252 
L 388.8 252 
L 388.8 34.56 
L 54 34.56 
z
" style="fill:#ffffff;"/>
   </g>
   <g id="PolyCollection_1">
    <defs>
     <path d="M 57.381818 -243.556364 
L 57.381818 -240.008 
L 60.763636 -240.008 
L 64.145455 -240.008 
L 67.527273 -240.008 
L 70.909091 -240.008 
L 74.290909 -240.008 
L 77.672727 -240.008 
L 81.054545 -240.008 
L 84.436364 -240.008 
L 87.818182 -240.008 
L 91.2 -240.008 
L 94.581818 -240.008 
L 97.963636 -240.008 
L 101.345455 -240.008 
L 104.727273 -240.008 
L 108.109091 -240.008 
L 111.490909 -52.933108 
L 114.872727 -52.933108 
L 118.254545 -52.933108 
L 121.636364 -52.933108 
L 125.018182 -52.933108 
L 128.4 -52.933108 
L 131.781818 -52.933108 
L 135.163636 -52.933108 
L 138.545455 -52.933108 
L 141.927273 -52.933108 
L 145.309091 -52.933108 
L 148.690909 -52.933108 
L 152.072727 -52.933108 
L 155.454545 -52.933108 
L 158.836364 -52.933108 
L 162.218182 -48.703358 
L 165.6 -48.703358 
L 168.981818 -48.703358 
L 172.363636 -48.703358 
L 175.745455 -48.703358 
L 179.127273 -48.703358 
L 182.509091 -48.703358 
L 185.890909 -48.703358 
L 189.272727 -48.703358 
L 192.654545 -48.703358 
L 196.036364 -48.703358 
L 199.418182 -48.703358 
L 202.8 -48.703358 
L 206.181818 -48.703358 
L 209.563636 -48.703358 
L 212.945455 -48.703358 
L 216.327273 -48.703358 
L 219.709091 -48.703358 
L 223.090909 -48.703358 
L 226.472727 -48.703358 
L 229.854545 -48.703358 
L 233.236364 -48.703358 
L 236.618182 -48.703358 
L 240 -48.703358 
L 243.381818 -48.703358 
L 246.763636 -48.703358 
L 250.145455 -48.703358 
L 253.527273 -48.703358 
L 256.909091 -48.703358 
L 260.290909 -48.703358 
L 263.672727 -46.822328 
L 267.054545 -46.822328 
L 270.436364 -46.822328 
L 273.818182 -46.822328 
L 277.2 -46.822328 
L 280.581818 -46.822328 
L 283.963636 -46.822328 
L 287.345455 -46.822328 
L 290.727273 -46.822328 
L 294.109091 -46.822328 
L 297.490909 -46.822328 
L 300.872727 -46.822328 
L 304.254545 -46.822328 
L 307.636364 -46.822328 
L 311.018182 -46.822328 
L 314.4 -46.822328 
L 317.781818 -46.822328 
L 321.163636 -46.822328 
L 324.545455 -46.822328 
L 327.927273 -46.822328 
L 331.309091 -46.822328 
L 334.690909 -46.822328 
L 338.072727 -46.822328 
L 341.454545 -46.822328 
L 344.836364 -46.822328 
L 348.218182 -46.822328 
L 351.6 -46.822328 
L 354.981818 -46.822328 
L 358.363636 -46.822328 
L 361.745455 -46.822328 
L 365.127273 -46.822328 
L 368.509091 -46.822328 
L 371.890909 -46.822328 
L 375.272727 -46.822328 
L 378.654545 -46.822328 
L 382.036364 -46.822328 
L 385.418182 -46.822328 
L 388.8 -46.822328 
L 392.181818 -46.822328 
L 392.181818 -61.078951 
L 392.181818 -61.078951 
L 388.8 -61.078951 
L 385.418182 -61.078951 
L 382.036364 -61.078951 
L 378.654545 -61.078951 
L 375.272727 -61.078951 
L 371.890909 -61.078951 
L 368.509091 -61.078951 
L 365.127273 -61.078951 
L 361.745455 -61.078951 
L 358.363636 -61.078951 
L 354.981818 -61.078951 
L 351.6 -61.078951 
L 348.218182 -61.078951 
L 344.836364 -61.078951 
L 341.454545 -61.078951 
L 338.072727 -61.078951 
L 334.690909 -61.078951 
L 331.309091 -61.078951 
L 327.927273 -61.078951 
L 324.545455 -61.078951 
L 321.163636 -61.078951 
L 317.781818 -61.078951 
L 314.4 -61.078951 
L 311.018182 -61.078951 
L 307.636364 -61.078951 
L 304.254545 -61.078951 
L 300.872727 -61.078951 
L 297.490909 -61.078951 
L 294.109091 -61.078951 
L 290.727273 -61.078951 
L 287.345455 -61.078951 
L 283.963636 -61.078951 
L 280.581818 -61.078951 
L 277.2 -61.078951 
L 273.818182 -61.078951 
L 270.436364 -61.078951 
L 267.054545 -61.078951 
L 263.672727 -61.078951 
L 260.290909 -70.869008 
L 256.909091 -70.869008 
L 253.527273 -70.869008 
L 250.145455 -70.869008 
L 246.763636 -70.869008 
L 243.381818 -70.869008 
L 240 -70.869008 
L 236.618182 -70.869008 
L 233.236364 -70.869008 
L 229.854545 -70.869008 
L 226.472727 -70.869008 
L 223.090909 -70.869008 
L 219.709091 -70.869008 
L 216.327273 -70.869008 
L 212.945455 -70.869008 
L 209.563636 -70.986555 
L 206.181818 -70.986555 
L 202.8 -70.986555 
L 199.418182 -70.986555 
L 196.036364 -70.986555 
L 192.654545 -70.986555 
L 189.272727 -70.986555 
L 185.890909 -70.986555 
L 182.509091 -70.986555 
L 179.127273 -70.986555 
L 175.745455 -70.986555 
L 172.363636 -70.986555 
L 168.981818 -70.986555 
L 165.6 -70.986555 
L 162.218182 -70.986555 
L 158.836364 -75.773773 
L 155.454545 -75.773773 
L 152.072727 -75.773773 
L 148.690909 -75.773773 
L 145.309091 -75.773773 
L 141.927273 -75.773773 
L 138.545455 -75.773773 
L 135.163636 -75.773773 
L 131.781818 -75.773773 
L 128.4 -75.773773 
L 125.018182 -75.773773 
L 121.636364 -75.773773 
L 118.254545 -75.773773 
L 114.872727 -75.773773 
L 111.490909 -75.773773 
L 108.109091 -243.556364 
L 104.727273 -243.556364 
L 101.345455 -243.556364 
L 97.963636 -243.556364 
L 94.581818 -243.556364 
L 91.2 -243.556364 
L 87.818182 -243.556364 
L 84.436364 -243.556364 
L 81.054545 -243.556364 
L 77.672727 -243.556364 
L 74.290909 -243.556364 
L 70.909091 -243.556364 
L 67.527273 -243.556364 
L 64.145455 -243.556364 
L 60.763636 -243.556364 
L 57.381818 -243.556364 
z
" id="m48d855124e" style="stroke:#0000ff;stroke-opacity:0.5;"/>
    </defs>
    <g clip-path="url(#p5452d29eb0)">
     <use style="fill:#0000ff;fill-opacity:0.5;stroke:#0000ff;stroke-opacity:0.5;" x="0" xlink:href="#m48d855124e" y="288"/>
    </g>
   </g>
   <g id="PolyCollection_2">
    <defs>
     <path d="M 57.381818 -243.556364 
L 57.381818 -240.008 
L 60.763636 -240.008 
L 64.145455 -240.008 
L 67.527273 -240.008 
L 70.909091 -240.008 
L 74.290909 -240.008 
L 77.672727 -240.008 
L 81.054545 -60.676557 
L 84.436364 -60.676557 
L 87.818182 -60.676557 
L 91.2 -60.676557 
L 94.581818 -60.676557 
L 97.963636 -60.676557 
L 101.345455 -60.676557 
L 104.727273 -60.676557 
L 108.109091 -60.676557 
L 111.490909 -60.676557 
L 114.872727 -60.676557 
L 118.254545 -60.676557 
L 121.636364 -60.676557 
L 125.018182 -60.676557 
L 128.4 -60.676557 
L 131.781818 -60.676557 
L 135.163636 -60.676557 
L 138.545455 -60.676557 
L 141.927273 -60.676557 
L 145.309091 -60.676557 
L 148.690909 -60.676557 
L 152.072727 -60.676557 
L 155.454545 -60.676557 
L 158.836364 -60.676557 
L 162.218182 -60.676557 
L 165.6 -60.676557 
L 168.981818 -60.676557 
L 172.363636 -60.676557 
L 175.745455 -60.676557 
L 179.127273 -60.676557 
L 182.509091 -60.676557 
L 185.890909 -60.676557 
L 189.272727 -60.676557 
L 192.654545 -60.676557 
L 196.036364 -60.676557 
L 199.418182 -60.676557 
L 202.8 -60.676557 
L 206.181818 -60.676557 
L 209.563636 -60.676557 
L 212.945455 -60.676557 
L 216.327273 -60.676557 
L 219.709091 -60.676557 
L 223.090909 -60.676557 
L 226.472727 -60.676557 
L 229.854545 -60.676557 
L 233.236364 -60.676557 
L 236.618182 -60.676557 
L 240 -60.676557 
L 243.381818 -60.676557 
L 246.763636 -60.676557 
L 250.145455 -60.676557 
L 253.527273 -60.676557 
L 256.909091 -60.676557 
L 260.290909 -60.676557 
L 263.672727 -60.676557 
L 267.054545 -60.676557 
L 270.436364 -60.676557 
L 273.818182 -60.676557 
L 277.2 -60.676557 
L 280.581818 -60.676557 
L 283.963636 -60.676557 
L 287.345455 -60.676557 
L 290.727273 -60.676557 
L 294.109091 -60.676557 
L 297.490909 -60.676557 
L 300.872727 -60.676557 
L 304.254545 -60.676557 
L 307.636364 -60.676557 
L 311.018182 -60.676557 
L 314.4 -60.676557 
L 317.781818 -60.676557 
L 321.163636 -60.676557 
L 324.545455 -60.676557 
L 327.927273 -60.676557 
L 331.309091 -60.676557 
L 334.690909 -60.676557 
L 338.072727 -60.676557 
L 341.454545 -60.676557 
L 344.836364 -60.676557 
L 348.218182 -60.676557 
L 351.6 -60.676557 
L 354.981818 -60.676557 
L 358.363636 -60.676557 
L 361.745455 -60.676557 
L 365.127273 -60.676557 
L 368.509091 -60.676557 
L 371.890909 -60.676557 
L 375.272727 -60.676557 
L 378.654545 -60.676557 
L 382.036364 -60.676557 
L 385.418182 -60.676557 
L 388.8 -60.676557 
L 392.181818 -60.676557 
L 392.181818 -71.744961 
L 392.181818 -71.744961 
L 388.8 -71.744961 
L 385.418182 -71.744961 
L 382.036364 -71.744961 
L 378.654545 -71.744961 
L 375.272727 -71.744961 
L 371.890909 -71.744961 
L 368.509091 -71.744961 
L 365.127273 -71.744961 
L 361.745455 -71.744961 
L 358.363636 -71.744961 
L 354.981818 -71.744961 
L 351.6 -71.744961 
L 348.218182 -71.744961 
L 344.836364 -71.744961 
L 341.454545 -71.744961 
L 338.072727 -71.744961 
L 334.690909 -71.744961 
L 331.309091 -71.744961 
L 327.927273 -71.744961 
L 324.545455 -71.744961 
L 321.163636 -71.744961 
L 317.781818 -71.744961 
L 314.4 -71.744961 
L 311.018182 -71.744961 
L 307.636364 -71.744961 
L 304.254545 -71.744961 
L 300.872727 -71.744961 
L 297.490909 -71.744961 
L 294.109091 -71.744961 
L 290.727273 -71.744961 
L 287.345455 -71.744961 
L 283.963636 -71.744961 
L 280.581818 -71.744961 
L 277.2 -71.744961 
L 273.818182 -71.744961 
L 270.436364 -71.744961 
L 267.054545 -71.744961 
L 263.672727 -71.744961 
L 260.290909 -71.744961 
L 256.909091 -71.744961 
L 253.527273 -71.744961 
L 250.145455 -71.744961 
L 246.763636 -71.744961 
L 243.381818 -71.744961 
L 240 -71.744961 
L 236.618182 -71.744961 
L 233.236364 -71.744961 
L 229.854545 -71.744961 
L 226.472727 -71.744961 
L 223.090909 -71.744961 
L 219.709091 -71.744961 
L 216.327273 -71.744961 
L 212.945455 -71.744961 
L 209.563636 -71.744961 
L 206.181818 -71.744961 
L 202.8 -71.744961 
L 199.418182 -71.744961 
L 196.036364 -71.744961 
L 192.654545 -71.744961 
L 189.272727 -71.744961 
L 185.890909 -71.744961 
L 182.509091 -71.744961 
L 179.127273 -71.744961 
L 175.745455 -71.744961 
L 172.363636 -71.744961 
L 168.981818 -71.744961 
L 165.6 -71.744961 
L 162.218182 -71.744961 
L 158.836364 -74.058367 
L 155.454545 -74.058367 
L 152.072727 -82.717952 
L 148.690909 -82.717952 
L 145.309091 -82.717952 
L 141.927273 -82.717952 
L 138.545455 -82.717952 
L 135.163636 -101.439423 
L 131.781818 -101.439423 
L 128.4 -101.439423 
L 125.018182 -101.439423 
L 121.636364 -101.439423 
L 118.254545 -110.024107 
L 114.872727 -110.024107 
L 111.490909 -110.024107 
L 108.109091 -110.024107 
L 104.727273 -110.024107 
L 101.345455 -110.024107 
L 97.963636 -222.320111 
L 94.581818 -222.320111 
L 91.2 -222.320111 
L 87.818182 -222.320111 
L 84.436364 -222.320111 
L 81.054545 -222.320111 
L 77.672727 -243.556364 
L 74.290909 -243.556364 
L 70.909091 -243.556364 
L 67.527273 -243.556364 
L 64.145455 -243.556364 
L 60.763636 -243.556364 
L 57.381818 -243.556364 
z
" id="m4b92248a38" style="stroke:#00bfbf;stroke-opacity:0.5;"/>
    </defs>
    <g clip-path="url(#p5452d29eb0)">
     <use style="fill:#00bfbf;fill-opacity:0.5;stroke:#00bfbf;stroke-opacity:0.5;" x="0" xlink:href="#m4b92248a38" y="288"/>
    </g>
   </g>
   <g id="PolyCollection_3">
    <defs>
     <path d="M 60.763636 -243.348503 
L 60.763636 -241.733731 
L 64.145455 -241.733731 
L 67.527273 -234.779931 
L 70.909091 -234.779931 
L 74.290909 -234.779931 
L 77.672727 -234.779931 
L 81.054545 -234.779931 
L 84.436364 -234.779931 
L 87.818182 -234.779931 
L 91.2 -234.779931 
L 94.581818 -234.779931 
L 97.963636 -234.779931 
L 101.345455 -234.779931 
L 104.727273 -234.779931 
L 108.109091 -234.779931 
L 111.490909 -234.779931 
L 114.872727 -234.779931 
L 118.254545 -234.779931 
L 121.636364 -234.779931 
L 125.018182 -234.779931 
L 128.4 -234.779931 
L 131.781818 -84.882763 
L 135.163636 -71.466309 
L 138.545455 -71.466309 
L 141.927273 -68.958442 
L 145.309091 -67.318862 
L 148.690909 -54.161146 
L 152.072727 -54.161146 
L 155.454545 -54.161146 
L 158.836364 -54.161146 
L 162.218182 -54.161146 
L 165.6 -54.161146 
L 168.981818 -54.161146 
L 172.363636 -54.161146 
L 175.745455 -54.161146 
L 179.127273 -54.161146 
L 182.509091 -54.161146 
L 185.890909 -54.161146 
L 189.272727 -54.161146 
L 192.654545 -53.316525 
L 196.036364 -53.316525 
L 199.418182 -53.316525 
L 202.8 -53.316525 
L 206.181818 -53.316525 
L 209.563636 -53.316525 
L 212.945455 -53.316525 
L 216.327273 -53.316525 
L 219.709091 -53.316525 
L 223.090909 -53.316525 
L 226.472727 -53.316525 
L 229.854545 -53.316525 
L 233.236364 -53.316525 
L 236.618182 -53.316525 
L 240 -53.316525 
L 243.381818 -53.316525 
L 246.763636 -53.316525 
L 250.145455 -53.316525 
L 253.527273 -53.316525 
L 256.909091 -53.316525 
L 260.290909 -53.316525 
L 263.672727 -53.316525 
L 267.054545 -53.316525 
L 270.436364 -53.316525 
L 273.818182 -53.316525 
L 277.2 -53.316525 
L 280.581818 -53.316525 
L 283.963636 -53.316525 
L 287.345455 -53.316525 
L 290.727273 -52.952324 
L 294.109091 -52.952324 
L 297.490909 -52.952324 
L 300.872727 -52.952324 
L 304.254545 -52.952324 
L 307.636364 -52.952324 
L 311.018182 -52.952324 
L 314.4 -52.952324 
L 317.781818 -52.952324 
L 321.163636 -52.952324 
L 324.545455 -52.952324 
L 327.927273 -52.952324 
L 331.309091 -52.952324 
L 334.690909 -52.952324 
L 338.072727 -52.952324 
L 341.454545 -52.952324 
L 344.836364 -52.952324 
L 348.218182 -52.952324 
L 351.6 -52.952324 
L 354.981818 -52.952324 
L 358.363636 -52.952324 
L 361.745455 -52.952324 
L 365.127273 -52.952324 
L 368.509091 -52.952324 
L 371.890909 -52.952324 
L 375.272727 -52.952324 
L 378.654545 -52.952324 
L 382.036364 -52.952324 
L 385.418182 -52.952324 
L 388.8 -52.952324 
L 392.181818 -52.952324 
L 392.181818 -96.555957 
L 392.181818 -96.555957 
L 388.8 -96.555957 
L 385.418182 -96.555957 
L 382.036364 -96.555957 
L 378.654545 -96.555957 
L 375.272727 -96.555957 
L 371.890909 -96.555957 
L 368.509091 -96.555957 
L 365.127273 -96.555957 
L 361.745455 -96.555957 
L 358.363636 -96.555957 
L 354.981818 -96.555957 
L 351.6 -96.555957 
L 348.218182 -96.555957 
L 344.836364 -96.555957 
L 341.454545 -96.555957 
L 338.072727 -96.555957 
L 334.690909 -96.555957 
L 331.309091 -96.555957 
L 327.927273 -96.555957 
L 324.545455 -96.555957 
L 321.163636 -96.555957 
L 317.781818 -96.555957 
L 314.4 -96.555957 
L 311.018182 -96.555957 
L 307.636364 -96.555957 
L 304.254545 -96.555957 
L 300.872727 -96.555957 
L 297.490909 -96.555957 
L 294.109091 -96.555957 
L 290.727273 -96.555957 
L 287.345455 -96.555957 
L 283.963636 -96.555957 
L 280.581818 -96.555957 
L 277.2 -96.555957 
L 273.818182 -96.555957 
L 270.436364 -96.555957 
L 267.054545 -96.555957 
L 263.672727 -96.555957 
L 260.290909 -96.555957 
L 256.909091 -96.555957 
L 253.527273 -96.555957 
L 250.145455 -96.555957 
L 246.763636 -96.555957 
L 243.381818 -96.555957 
L 240 -96.555957 
L 236.618182 -96.555957 
L 233.236364 -96.555957 
L 229.854545 -96.555957 
L 226.472727 -96.555957 
L 223.090909 -96.555957 
L 219.709091 -96.555957 
L 216.327273 -96.555957 
L 212.945455 -96.555957 
L 209.563636 -96.555957 
L 206.181818 -96.555957 
L 202.8 -96.555957 
L 199.418182 -96.555957 
L 196.036364 -96.555957 
L 192.654545 -96.555957 
L 189.272727 -96.555957 
L 185.890909 -104.297342 
L 182.509091 -104.297342 
L 179.127273 -104.297342 
L 175.745455 -104.297342 
L 172.363636 -104.297342 
L 168.981818 -104.297342 
L 165.6 -104.297342 
L 162.218182 -104.297342 
L 158.836364 -104.297342 
L 155.454545 -104.297342 
L 152.072727 -113.903876 
L 148.690909 -113.903876 
L 145.309091 -113.903876 
L 141.927273 -113.903876 
L 138.545455 -113.903876 
L 135.163636 -113.903876 
L 131.781818 -227.25157 
L 128.4 -237.961865 
L 125.018182 -237.961865 
L 121.636364 -237.961865 
L 118.254545 -237.961865 
L 114.872727 -240.029557 
L 111.490909 -240.029557 
L 108.109091 -240.029557 
L 104.727273 -240.029557 
L 101.345455 -240.029557 
L 97.963636 -240.029557 
L 94.581818 -240.029557 
L 91.2 -240.029557 
L 87.818182 -240.029557 
L 84.436364 -240.029557 
L 81.054545 -240.029557 
L 77.672727 -240.029557 
L 74.290909 -240.029557 
L 70.909091 -240.029557 
L 67.527273 -240.029557 
L 64.145455 -243.282399 
L 60.763636 -243.348503 
z
" id="m9ae7af9c12" style="stroke:#008000;stroke-opacity:0.5;"/>
    </defs>
    <g clip-path="url(#p5452d29eb0)">
     <use style="fill:#008000;fill-opacity:0.5;stroke:#008000;stroke-opacity:0.5;" x="0" xlink:href="#m9ae7af9c12" y="288"/>
    </g>
   </g>
   <g id="PolyCollection_4">
    <defs>
     <path d="M 60.763636 -242.369788 
L 60.763636 -241.710286 
L 64.145455 -241.710286 
L 67.527273 -210.319259 
L 70.909091 -210.319259 
L 74.290909 -85.08474 
L 77.672727 -67.441638 
L 81.054545 -67.441638 
L 84.436364 -67.441638 
L 87.818182 -66.582589 
L 91.2 -66.582589 
L 94.581818 -66.582589 
L 97.963636 -66.582589 
L 101.345455 -66.582589 
L 104.727273 -66.582589 
L 108.109091 -66.582589 
L 111.490909 -66.582589 
L 114.872727 -66.582589 
L 118.254545 -66.582589 
L 121.636364 -66.582589 
L 125.018182 -66.582589 
L 128.4 -66.582589 
L 131.781818 -66.582589 
L 135.163636 -66.582589 
L 138.545455 -66.582589 
L 141.927273 -66.582589 
L 145.309091 -66.582589 
L 148.690909 -66.582589 
L 152.072727 -61.992114 
L 155.454545 -61.992114 
L 158.836364 -61.992114 
L 162.218182 -60.320776 
L 165.6 -60.320776 
L 168.981818 -60.320776 
L 172.363636 -60.320776 
L 175.745455 -60.320776 
L 179.127273 -60.320776 
L 182.509091 -60.320776 
L 185.890909 -60.320776 
L 189.272727 -60.320776 
L 192.654545 -60.320776 
L 196.036364 -60.320776 
L 199.418182 -60.320776 
L 202.8 -60.320776 
L 206.181818 -60.320776 
L 209.563636 -60.320776 
L 212.945455 -60.320776 
L 216.327273 -60.320776 
L 219.709091 -60.320776 
L 223.090909 -60.320776 
L 226.472727 -60.320776 
L 229.854545 -60.320776 
L 233.236364 -60.320776 
L 236.618182 -60.320776 
L 240 -60.320776 
L 243.381818 -60.320776 
L 246.763636 -60.320776 
L 250.145455 -60.320776 
L 253.527273 -60.320776 
L 256.909091 -60.320776 
L 260.290909 -54.042901 
L 263.672727 -54.042901 
L 267.054545 -54.042901 
L 270.436364 -54.042901 
L 273.818182 -53.346672 
L 277.2 -53.346672 
L 280.581818 -53.346672 
L 283.963636 -53.346672 
L 287.345455 -53.346672 
L 290.727273 -53.346672 
L 294.109091 -53.346672 
L 297.490909 -53.346672 
L 300.872727 -53.346672 
L 304.254545 -53.346672 
L 307.636364 -53.346672 
L 311.018182 -53.346672 
L 314.4 -53.346672 
L 317.781818 -53.346672 
L 321.163636 -53.346672 
L 324.545455 -53.346672 
L 327.927273 -53.346672 
L 331.309091 -53.346672 
L 334.690909 -53.346672 
L 338.072727 -53.346672 
L 341.454545 -53.346672 
L 344.836364 -53.346672 
L 348.218182 -53.346672 
L 351.6 -53.346672 
L 354.981818 -53.346672 
L 358.363636 -53.346672 
L 361.745455 -53.346672 
L 365.127273 -53.346672 
L 368.509091 -53.346672 
L 371.890909 -53.346672 
L 375.272727 -53.346672 
L 378.654545 -53.346672 
L 382.036364 -53.346672 
L 385.418182 -53.346672 
L 388.8 -53.346672 
L 392.181818 -53.346672 
L 392.181818 -54.042901 
L 392.181818 -54.042901 
L 388.8 -54.042901 
L 385.418182 -54.042901 
L 382.036364 -54.042901 
L 378.654545 -54.042901 
L 375.272727 -54.042901 
L 371.890909 -54.042901 
L 368.509091 -54.042901 
L 365.127273 -54.042901 
L 361.745455 -54.042901 
L 358.363636 -54.042901 
L 354.981818 -54.042901 
L 351.6 -54.042901 
L 348.218182 -54.042901 
L 344.836364 -54.042901 
L 341.454545 -54.042901 
L 338.072727 -54.042901 
L 334.690909 -54.042901 
L 331.309091 -54.042901 
L 327.927273 -54.042901 
L 324.545455 -54.042901 
L 321.163636 -54.042901 
L 317.781818 -54.042901 
L 314.4 -54.042901 
L 311.018182 -54.042901 
L 307.636364 -54.042901 
L 304.254545 -54.042901 
L 300.872727 -54.042901 
L 297.490909 -54.042901 
L 294.109091 -54.042901 
L 290.727273 -54.042901 
L 287.345455 -54.042901 
L 283.963636 -54.042901 
L 280.581818 -54.042901 
L 277.2 -54.042901 
L 273.818182 -54.042901 
L 270.436364 -61.964706 
L 267.054545 -61.964706 
L 263.672727 -61.964706 
L 260.290909 -61.964706 
L 256.909091 -61.964706 
L 253.527273 -61.964706 
L 250.145455 -66.582589 
L 246.763636 -66.582589 
L 243.381818 -66.582589 
L 240 -66.582589 
L 236.618182 -66.582589 
L 233.236364 -66.582589 
L 229.854545 -66.582589 
L 226.472727 -66.582589 
L 223.090909 -66.582589 
L 219.709091 -66.582589 
L 216.327273 -66.582589 
L 212.945455 -66.582589 
L 209.563636 -66.582589 
L 206.181818 -66.582589 
L 202.8 -66.582589 
L 199.418182 -66.582589 
L 196.036364 -66.582589 
L 192.654545 -66.582589 
L 189.272727 -66.582589 
L 185.890909 -66.582589 
L 182.509091 -66.582589 
L 179.127273 -66.582589 
L 175.745455 -66.582589 
L 172.363636 -66.582589 
L 168.981818 -66.582589 
L 165.6 -66.582589 
L 162.218182 -66.582589 
L 158.836364 -66.582589 
L 155.454545 -66.582589 
L 152.072727 -66.582589 
L 148.690909 -66.882847 
L 145.309091 -66.882847 
L 141.927273 -66.882847 
L 138.545455 -66.882847 
L 135.163636 -66.882847 
L 131.781818 -66.882847 
L 128.4 -66.882847 
L 125.018182 -67.035461 
L 121.636364 -67.035461 
L 118.254545 -67.035461 
L 114.872727 -67.035461 
L 111.490909 -67.441638 
L 108.109091 -67.441638 
L 104.727273 -67.441638 
L 101.345455 -67.441638 
L 97.963636 -67.441638 
L 94.581818 -67.441638 
L 91.2 -67.441638 
L 87.818182 -67.441638 
L 84.436364 -208.951602 
L 81.054545 -210.319259 
L 77.672727 -210.319259 
L 74.290909 -210.319259 
L 70.909091 -242.369788 
L 67.527273 -242.369788 
L 64.145455 -242.369788 
L 60.763636 -242.369788 
z
" id="m934ab34580" style="stroke:#ffa500;stroke-opacity:0.5;"/>
    </defs>
    <g clip-path="url(#p5452d29eb0)">
     <use style="fill:#ffa500;fill-opacity:0.5;stroke:#ffa500;stroke-opacity:0.5;" x="0" xlink:href="#m934ab34580" y="288"/>
    </g>
   </g>
   <g id="PolyCollection_5">
    <defs>
     <path d="M 57.381818 -115.028451 
L 57.381818 -62.000961 
L 60.763636 -59.050457 
L 64.145455 -53.547882 
L 67.527273 -53.547882 
L 70.909091 -48.678862 
L 74.290909 -48.678862 
L 77.672727 -48.678862 
L 81.054545 -48.678862 
L 84.436364 -45.883636 
L 87.818182 -45.883636 
L 91.2 -45.883636 
L 94.581818 -45.883636 
L 97.963636 -45.883636 
L 101.345455 -45.883636 
L 104.727273 -45.883636 
L 108.109091 -45.883636 
L 111.490909 -45.883636 
L 114.872727 -45.883636 
L 118.254545 -45.883636 
L 121.636364 -45.883636 
L 125.018182 -45.883636 
L 128.4 -45.883636 
L 131.781818 -45.883636 
L 135.163636 -45.883636 
L 138.545455 -45.883636 
L 141.927273 -45.883636 
L 145.309091 -45.883636 
L 148.690909 -45.883636 
L 152.072727 -45.883636 
L 155.454545 -45.883636 
L 158.836364 -45.883636 
L 162.218182 -45.883636 
L 165.6 -45.883636 
L 168.981818 -45.883636 
L 172.363636 -45.883636 
L 175.745455 -45.883636 
L 179.127273 -45.883636 
L 182.509091 -45.883636 
L 185.890909 -45.883636 
L 189.272727 -45.883636 
L 192.654545 -45.883636 
L 196.036364 -45.883636 
L 199.418182 -45.883636 
L 202.8 -45.883636 
L 206.181818 -45.883636 
L 209.563636 -45.883636 
L 212.945455 -45.883636 
L 216.327273 -45.883636 
L 219.709091 -45.883636 
L 223.090909 -45.883636 
L 226.472727 -45.883636 
L 229.854545 -45.883636 
L 233.236364 -45.883636 
L 236.618182 -45.883636 
L 240 -45.883636 
L 243.381818 -45.883636 
L 246.763636 -45.883636 
L 250.145455 -45.883636 
L 253.527273 -45.883636 
L 256.909091 -45.883636 
L 260.290909 -45.883636 
L 263.672727 -45.883636 
L 267.054545 -45.883636 
L 270.436364 -45.883636 
L 273.818182 -45.883636 
L 277.2 -45.883636 
L 280.581818 -45.883636 
L 283.963636 -45.883636 
L 287.345455 -45.883636 
L 290.727273 -45.883636 
L 294.109091 -45.883636 
L 297.490909 -45.883636 
L 300.872727 -45.883636 
L 304.254545 -45.883636 
L 307.636364 -45.883636 
L 311.018182 -45.883636 
L 314.4 -45.883636 
L 317.781818 -45.883636 
L 321.163636 -45.883636 
L 324.545455 -45.883636 
L 327.927273 -45.883636 
L 331.309091 -45.883636 
L 334.690909 -45.883636 
L 338.072727 -45.883636 
L 341.454545 -45.883636 
L 344.836364 -45.883636 
L 348.218182 -45.883636 
L 351.6 -45.883636 
L 354.981818 -45.883636 
L 358.363636 -45.883636 
L 361.745455 -45.883636 
L 365.127273 -45.883636 
L 368.509091 -45.883636 
L 371.890909 -45.883636 
L 375.272727 -45.883636 
L 378.654545 -45.883636 
L 382.036364 -45.883636 
L 385.418182 -45.883636 
L 388.8 -45.883636 
L 392.181818 -45.883636 
L 392.181818 -65.973277 
L 392.181818 -65.973277 
L 388.8 -65.973277 
L 385.418182 -65.973277 
L 382.036364 -65.973277 
L 378.654545 -65.973277 
L 375.272727 -65.973277 
L 371.890909 -65.973277 
L 368.509091 -65.973277 
L 365.127273 -65.973277 
L 361.745455 -65.973277 
L 358.363636 -65.973277 
L 354.981818 -65.973277 
L 351.6 -65.973277 
L 348.218182 -65.973277 
L 344.836364 -65.973277 
L 341.454545 -65.973277 
L 338.072727 -65.973277 
L 334.690909 -65.973277 
L 331.309091 -65.973277 
L 327.927273 -65.973277 
L 324.545455 -65.973277 
L 321.163636 -65.973277 
L 317.781818 -65.973277 
L 314.4 -65.973277 
L 311.018182 -65.973277 
L 307.636364 -65.973277 
L 304.254545 -65.973277 
L 300.872727 -65.973277 
L 297.490909 -65.973277 
L 294.109091 -65.973277 
L 290.727273 -65.973277 
L 287.345455 -65.973277 
L 283.963636 -65.973277 
L 280.581818 -65.973277 
L 277.2 -65.973277 
L 273.818182 -65.973277 
L 270.436364 -65.973277 
L 267.054545 -65.973277 
L 263.672727 -65.973277 
L 260.290909 -65.973277 
L 256.909091 -65.973277 
L 253.527273 -65.973277 
L 250.145455 -65.973277 
L 246.763636 -65.973277 
L 243.381818 -65.973277 
L 240 -65.973277 
L 236.618182 -65.973277 
L 233.236364 -65.973277 
L 229.854545 -65.973277 
L 226.472727 -65.973277 
L 223.090909 -65.973277 
L 219.709091 -65.973277 
L 216.327273 -65.973277 
L 212.945455 -65.973277 
L 209.563636 -65.973277 
L 206.181818 -65.973277 
L 202.8 -65.973277 
L 199.418182 -65.973277 
L 196.036364 -65.973277 
L 192.654545 -65.973277 
L 189.272727 -65.973277 
L 185.890909 -65.973277 
L 182.509091 -65.973277 
L 179.127273 -65.973277 
L 175.745455 -65.973277 
L 172.363636 -65.973277 
L 168.981818 -65.973277 
L 165.6 -65.973277 
L 162.218182 -65.973277 
L 158.836364 -65.973277 
L 155.454545 -65.973277 
L 152.072727 -65.973277 
L 148.690909 -65.973277 
L 145.309091 -65.973277 
L 141.927273 -65.973277 
L 138.545455 -65.973277 
L 135.163636 -65.973277 
L 131.781818 -65.973277 
L 128.4 -65.973277 
L 125.018182 -65.973277 
L 121.636364 -65.973277 
L 118.254545 -65.973277 
L 114.872727 -65.973277 
L 111.490909 -65.973277 
L 108.109091 -65.973277 
L 104.727273 -65.973277 
L 101.345455 -71.495904 
L 97.963636 -71.495904 
L 94.581818 -71.495904 
L 91.2 -71.495904 
L 87.818182 -71.495904 
L 84.436364 -71.495904 
L 81.054545 -71.495904 
L 77.672727 -71.495904 
L 74.290909 -71.495904 
L 70.909091 -71.495904 
L 67.527273 -86.232945 
L 64.145455 -86.232945 
L 60.763636 -86.232945 
L 57.381818 -115.028451 
z
" id="m36a7e1bb1b" style="stroke:#ff0000;stroke-opacity:0.5;"/>
    </defs>
    <g clip-path="url(#p5452d29eb0)">
     <use style="fill:#ff0000;fill-opacity:0.5;stroke:#ff0000;stroke-opacity:0.5;" x="0" xlink:href="#m36a7e1bb1b" y="288"/>
    </g>
   </g>
   <g id="matplotlib.axis_1">
    <g id="xtick_1">
     <g id="line2d_1">
      <defs>
       <path d="M 0 0 
L 0 3.5 
" id="mc9533495e0" style="stroke:#000000;stroke-width:0.8;"/>
      </defs>
      <g>
       <use style="stroke:#000000;stroke-width:0.8;" x="54" xlink:href="#mc9533495e0" y="252"/>
      </g>
     </g>
     <g id="text_1">
      <!-- 0 -->
      <g transform="translate(50.81875 266.598437)scale(0.1 -0.1)">
       <defs>
        <path d="M 31.78125 66.40625 
Q 24.171875 66.40625 20.328125 58.90625 
Q 16.5 51.421875 16.5 36.375 
Q 16.5 21.390625 20.328125 13.890625 
Q 24.171875 6.390625 31.78125 6.390625 
Q 39.453125 6.390625 43.28125 13.890625 
Q 47.125 21.390625 47.125 36.375 
Q 47.125 51.421875 43.28125 58.90625 
Q 39.453125 66.40625 31.78125 66.40625 
z
M 31.78125 74.21875 
Q 44.046875 74.21875 50.515625 64.515625 
Q 56.984375 54.828125 56.984375 36.375 
Q 56.984375 17.96875 50.515625 8.265625 
Q 44.046875 -1.421875 31.78125 -1.421875 
Q 19.53125 -1.421875 13.0625 8.265625 
Q 6.59375 17.96875 6.59375 36.375 
Q 6.59375 54.828125 13.0625 64.515625 
Q 19.53125 74.21875 31.78125 74.21875 
z
" id="DejaVuSans-48"/>
       </defs>
       <use xlink:href="#DejaVuSans-48"/>
      </g>
     </g>
    </g>
    <g id="xtick_2">
     <g id="line2d_2">
      <g>
       <use style="stroke:#000000;stroke-width:0.8;" x="121.636364" xlink:href="#mc9533495e0" y="252"/>
      </g>
     </g>
     <g id="text_2">
      <!-- 20 -->
      <g transform="translate(115.273864 266.598437)scale(0.1 -0.1)">
       <defs>
        <path d="M 19.1875 8.296875 
L 53.609375 8.296875 
L 53.609375 0 
L 7.328125 0 
L 7.328125 8.296875 
Q 12.9375 14.109375 22.625 23.890625 
Q 32.328125 33.6875 34.8125 36.53125 
Q 39.546875 41.84375 41.421875 45.53125 
Q 43.3125 49.21875 43.3125 52.78125 
Q 43.3125 58.59375 39.234375 62.25 
Q 35.15625 65.921875 28.609375 65.921875 
Q 23.96875 65.921875 18.8125 64.3125 
Q 13.671875 62.703125 7.8125 59.421875 
L 7.8125 69.390625 
Q 13.765625 71.78125 18.9375 73 
Q 24.125 74.21875 28.421875 74.21875 
Q 39.75 74.21875 46.484375 68.546875 
Q 53.21875 62.890625 53.21875 53.421875 
Q 53.21875 48.921875 51.53125 44.890625 
Q 49.859375 40.875 45.40625 35.40625 
Q 44.1875 33.984375 37.640625 27.21875 
Q 31.109375 20.453125 19.1875 8.296875 
z
" id="DejaVuSans-50"/>
       </defs>
       <use xlink:href="#DejaVuSans-50"/>
       <use x="63.623047" xlink:href="#DejaVuSans-48"/>
      </g>
     </g>
    </g>
    <g id="xtick_3">
     <g id="line2d_3">
      <g>
       <use style="stroke:#000000;stroke-width:0.8;" x="189.272727" xlink:href="#mc9533495e0" y="252"/>
      </g>
     </g>
     <g id="text_3">
      <!-- 40 -->
      <g transform="translate(182.910227 266.598437)scale(0.1 -0.1)">
       <defs>
        <path d="M 37.796875 64.3125 
L 12.890625 25.390625 
L 37.796875 25.390625 
z
M 35.203125 72.90625 
L 47.609375 72.90625 
L 47.609375 25.390625 
L 58.015625 25.390625 
L 58.015625 17.1875 
L 47.609375 17.1875 
L 47.609375 0 
L 37.796875 0 
L 37.796875 17.1875 
L 4.890625 17.1875 
L 4.890625 26.703125 
z
" id="DejaVuSans-52"/>
       </defs>
       <use xlink:href="#DejaVuSans-52"/>
       <use x="63.623047" xlink:href="#DejaVuSans-48"/>
      </g>
     </g>
    </g>
    <g id="xtick_4">
     <g id="line2d_4">
      <g>
       <use style="stroke:#000000;stroke-width:0.8;" x="256.909091" xlink:href="#mc9533495e0" y="252"/>
      </g>
     </g>
     <g id="text_4">
      <!-- 60 -->
      <g transform="translate(250.546591 266.598437)scale(0.1 -0.1)">
       <defs>
        <path d="M 33.015625 40.375 
Q 26.375 40.375 22.484375 35.828125 
Q 18.609375 31.296875 18.609375 23.390625 
Q 18.609375 15.53125 22.484375 10.953125 
Q 26.375 6.390625 33.015625 6.390625 
Q 39.65625 6.390625 43.53125 10.953125 
Q 47.40625 15.53125 47.40625 23.390625 
Q 47.40625 31.296875 43.53125 35.828125 
Q 39.65625 40.375 33.015625 40.375 
z
M 52.59375 71.296875 
L 52.59375 62.3125 
Q 48.875 64.0625 45.09375 64.984375 
Q 41.3125 65.921875 37.59375 65.921875 
Q 27.828125 65.921875 22.671875 59.328125 
Q 17.53125 52.734375 16.796875 39.40625 
Q 19.671875 43.65625 24.015625 45.921875 
Q 28.375 48.1875 33.59375 48.1875 
Q 44.578125 48.1875 50.953125 41.515625 
Q 57.328125 34.859375 57.328125 23.390625 
Q 57.328125 12.15625 50.6875 5.359375 
Q 44.046875 -1.421875 33.015625 -1.421875 
Q 20.359375 -1.421875 13.671875 8.265625 
Q 6.984375 17.96875 6.984375 36.375 
Q 6.984375 53.65625 15.1875 63.9375 
Q 23.390625 74.21875 37.203125 74.21875 
Q 40.921875 74.21875 44.703125 73.484375 
Q 48.484375 72.75 52.59375 71.296875 
z
" id="DejaVuSans-54"/>
       </defs>
       <use xlink:href="#DejaVuSans-54"/>
       <use x="63.623047" xlink:href="#DejaVuSans-48"/>
      </g>
     </g>
    </g>
    <g id="xtick_5">
     <g id="line2d_5">
      <g>
       <use style="stroke:#000000;stroke-width:0.8;" x="324.545455" xlink:href="#mc9533495e0" y="252"/>
      </g>
     </g>
     <g id="text_5">
      <!-- 80 -->
      <g transform="translate(318.182955 266.598437)scale(0.1 -0.1)">
       <defs>
        <path d="M 31.78125 34.625 
Q 24.75 34.625 20.71875 30.859375 
Q 16.703125 27.09375 16.703125 20.515625 
Q 16.703125 13.921875 20.71875 10.15625 
Q 24.75 6.390625 31.78125 6.390625 
Q 38.8125 6.390625 42.859375 10.171875 
Q 46.921875 13.96875 46.921875 20.515625 
Q 46.921875 27.09375 42.890625 30.859375 
Q 38.875 34.625 31.78125 34.625 
z
M 21.921875 38.8125 
Q 15.578125 40.375 12.03125 44.71875 
Q 8.5 49.078125 8.5 55.328125 
Q 8.5 64.0625 14.71875 69.140625 
Q 20.953125 74.21875 31.78125 74.21875 
Q 42.671875 74.21875 48.875 69.140625 
Q 55.078125 64.0625 55.078125 55.328125 
Q 55.078125 49.078125 51.53125 44.71875 
Q 48 40.375 41.703125 38.8125 
Q 48.828125 37.15625 52.796875 32.3125 
Q 56.78125 27.484375 56.78125 20.515625 
Q 56.78125 9.90625 50.3125 4.234375 
Q 43.84375 -1.421875 31.78125 -1.421875 
Q 19.734375 -1.421875 13.25 4.234375 
Q 6.78125 9.90625 6.78125 20.515625 
Q 6.78125 27.484375 10.78125 32.3125 
Q 14.796875 37.15625 21.921875 38.8125 
z
M 18.3125 54.390625 
Q 18.3125 48.734375 21.84375 45.5625 
Q 25.390625 42.390625 31.78125 42.390625 
Q 38.140625 42.390625 41.71875 45.5625 
Q 45.3125 48.734375 45.3125 54.390625 
Q 45.3125 60.0625 41.71875 63.234375 
Q 38.140625 66.40625 31.78125 66.40625 
Q 25.390625 66.40625 21.84375 63.234375 
Q 18.3125 60.0625 18.3125 54.390625 
z
" id="DejaVuSans-56"/>
       </defs>
       <use xlink:href="#DejaVuSans-56"/>
       <use x="63.623047" xlink:href="#DejaVuSans-48"/>
      </g>
     </g>
    </g>
   </g>
   <g id="matplotlib.axis_2">
    <g id="ytick_1">
     <g id="line2d_6">
      <defs>
       <path d="M 0 0 
L -3.5 0 
" id="m3d15d2bd64" style="stroke:#000000;stroke-width:0.8;"/>
      </defs>
      <g>
       <use style="stroke:#000000;stroke-width:0.8;" x="54" xlink:href="#m3d15d2bd64" y="155.14371"/>
      </g>
     </g>
     <g id="text_6">
      <!-- $\mathdefault{10^{1}}$ -->
      <g transform="translate(29.4 158.942928)scale(0.1 -0.1)">
       <defs>
        <path d="M 12.40625 8.296875 
L 28.515625 8.296875 
L 28.515625 63.921875 
L 10.984375 60.40625 
L 10.984375 69.390625 
L 28.421875 72.90625 
L 38.28125 72.90625 
L 38.28125 8.296875 
L 54.390625 8.296875 
L 54.390625 0 
L 12.40625 0 
z
" id="DejaVuSans-49"/>
       </defs>
       <use transform="translate(0 0.684375)" xlink:href="#DejaVuSans-49"/>
       <use transform="translate(63.623047 0.684375)" xlink:href="#DejaVuSans-48"/>
       <use transform="translate(128.203125 38.965625)scale(0.7)" xlink:href="#DejaVuSans-49"/>
      </g>
     </g>
    </g>
    <g id="ytick_2">
     <g id="line2d_7">
      <g>
       <use style="stroke:#000000;stroke-width:0.8;" x="54" xlink:href="#m3d15d2bd64" y="54.136571"/>
      </g>
     </g>
     <g id="text_7">
      <!-- $\mathdefault{10^{2}}$ -->
      <g transform="translate(29.4 57.935789)scale(0.1 -0.1)">
       <use transform="translate(0 0.765625)" xlink:href="#DejaVuSans-49"/>
       <use transform="translate(63.623047 0.765625)" xlink:href="#DejaVuSans-48"/>
       <use transform="translate(128.203125 39.046875)scale(0.7)" xlink:href="#DejaVuSans-50"/>
      </g>
     </g>
    </g>
    <g id="ytick_3">
     <g id="line2d_8">
      <defs>
       <path d="M 0 0 
L -2 0 
" id="md614d77d9c" style="stroke:#000000;stroke-width:0.6;"/>
      </defs>
      <g>
       <use style="stroke:#000000;stroke-width:0.6;" x="54" xlink:href="#md614d77d9c" y="225.74467"/>
      </g>
     </g>
    </g>
    <g id="ytick_4">
     <g id="line2d_9">
      <g>
       <use style="stroke:#000000;stroke-width:0.6;" x="54" xlink:href="#md614d77d9c" y="207.958196"/>
      </g>
     </g>
    </g>
    <g id="ytick_5">
     <g id="line2d_10">
      <g>
       <use style="stroke:#000000;stroke-width:0.6;" x="54" xlink:href="#md614d77d9c" y="195.338491"/>
      </g>
     </g>
    </g>
    <g id="ytick_6">
     <g id="line2d_11">
      <g>
       <use style="stroke:#000000;stroke-width:0.6;" x="54" xlink:href="#md614d77d9c" y="185.549888"/>
      </g>
     </g>
    </g>
    <g id="ytick_7">
     <g id="line2d_12">
      <g>
       <use style="stroke:#000000;stroke-width:0.6;" x="54" xlink:href="#md614d77d9c" y="177.552017"/>
      </g>
     </g>
    </g>
    <g id="ytick_8">
     <g id="line2d_13">
      <g>
       <use style="stroke:#000000;stroke-width:0.6;" x="54" xlink:href="#md614d77d9c" y="170.789913"/>
      </g>
     </g>
    </g>
    <g id="ytick_9">
     <g id="line2d_14">
      <g>
       <use style="stroke:#000000;stroke-width:0.6;" x="54" xlink:href="#md614d77d9c" y="164.932313"/>
      </g>
     </g>
    </g>
    <g id="ytick_10">
     <g id="line2d_15">
      <g>
       <use style="stroke:#000000;stroke-width:0.6;" x="54" xlink:href="#md614d77d9c" y="159.765543"/>
      </g>
     </g>
    </g>
    <g id="ytick_11">
     <g id="line2d_16">
      <g>
       <use style="stroke:#000000;stroke-width:0.6;" x="54" xlink:href="#md614d77d9c" y="124.737531"/>
      </g>
     </g>
    </g>
    <g id="ytick_12">
     <g id="line2d_17">
      <g>
       <use style="stroke:#000000;stroke-width:0.6;" x="54" xlink:href="#md614d77d9c" y="106.951057"/>
      </g>
     </g>
    </g>
    <g id="ytick_13">
     <g id="line2d_18">
      <g>
       <use style="stroke:#000000;stroke-width:0.6;" x="54" xlink:href="#md614d77d9c" y="94.331352"/>
      </g>
     </g>
    </g>
    <g id="ytick_14">
     <g id="line2d_19">
      <g>
       <use style="stroke:#000000;stroke-width:0.6;" x="54" xlink:href="#md614d77d9c" y="84.542749"/>
      </g>
     </g>
    </g>
    <g id="ytick_15">
     <g id="line2d_20">
      <g>
       <use style="stroke:#000000;stroke-width:0.6;" x="54" xlink:href="#md614d77d9c" y="76.544878"/>
      </g>
     </g>
    </g>
    <g id="ytick_16">
     <g id="line2d_21">
      <g>
       <use style="stroke:#000000;stroke-width:0.6;" x="54" xlink:href="#md614d77d9c" y="69.782774"/>
      </g>
     </g>
    </g>
    <g id="ytick_17">
     <g id="line2d_22">
      <g>
       <use style="stroke:#000000;stroke-width:0.6;" x="54" xlink:href="#md614d77d9c" y="63.925174"/>
      </g>
     </g>
    </g>
    <g id="ytick_18">
     <g id="line2d_23">
      <g>
       <use style="stroke:#000000;stroke-width:0.6;" x="54" xlink:href="#md614d77d9c" y="58.758404"/>
      </g>
     </g>
    </g>
   </g>
   <g id="line2d_24">
    <path clip-path="url(#p5452d29eb0)" d="M 57.381818 45.029642 
L 111.490909 45.029642 
L 111.490909 225.796613 
L 162.218182 225.796613 
L 162.218182 229.007121 
L 263.672727 229.062825 
L 263.672727 230.515379 
L 314.4 230.515379 
L 314.4 235.035212 
L 365.127273 235.035212 
L 365.127273 236.866302 
L 392.181818 236.866302 
L 392.181818 236.866302 
" style="fill:none;stroke:#0000ff;stroke-linecap:square;stroke-width:1.5;"/>
   </g>
   <g id="line2d_25">
    <path clip-path="url(#p5452d29eb0)" d="M 57.381818 45.029642 
L 81.054545 45.029642 
L 81.054545 216.831419 
L 101.345455 216.831419 
L 101.345455 218.673731 
L 121.636364 218.673731 
L 121.636364 219.355777 
L 135.163636 219.355777 
L 135.163636 221.078442 
L 155.454545 221.078442 
L 155.454545 223.244328 
L 162.218182 223.244328 
L 162.218182 223.491244 
L 182.509091 223.491244 
L 182.509091 224.237828 
L 202.8 224.237828 
L 202.8 224.491442 
L 392.181818 224.491442 
L 392.181818 224.491442 
" style="fill:none;stroke:#00bfbf;stroke-linecap:square;stroke-width:1.5;"/>
   </g>
   <g id="line2d_26">
    <path clip-path="url(#p5452d29eb0)" d="M 60.763636 45.246802 
L 67.527273 45.246802 
L 67.527273 49.559047 
L 118.254545 49.613593 
L 118.254545 51.287001 
L 131.781818 51.287001 
L 131.781818 110.427602 
L 135.163636 110.427602 
L 135.163636 207.176022 
L 138.545455 207.176022 
L 138.545455 213.029359 
L 141.927273 213.029359 
L 141.927273 214.254418 
L 145.309091 214.254418 
L 145.309091 215.054933 
L 168.981818 215.054933 
L 168.981818 215.527879 
L 226.472727 215.55738 
L 226.472727 216.036265 
L 229.854545 216.036265 
L 229.854545 216.678973 
L 250.145455 216.713632 
L 250.145455 216.812559 
L 392.181818 216.812559 
L 392.181818 216.812559 
" style="fill:none;stroke:#008000;stroke-linecap:square;stroke-width:1.5;"/>
   </g>
   <g id="line2d_27">
    <path clip-path="url(#p5452d29eb0)" d="M 60.763636 45.958724 
L 67.527273 45.958724 
L 67.527273 58.791213 
L 74.290909 58.791213 
L 74.290909 105.631823 
L 77.672727 105.631823 
L 77.672727 106.429711 
L 84.436364 106.429711 
L 84.436364 107.745895 
L 87.818182 107.745895 
L 87.818182 220.985783 
L 114.872727 220.985783 
L 114.872727 221.190391 
L 152.072727 221.267025 
L 152.072727 223.652629 
L 162.218182 223.652629 
L 162.218182 224.436681 
L 253.527273 224.436681 
L 253.527273 226.849559 
L 260.290909 226.849559 
L 260.290909 229.817617 
L 273.818182 229.817617 
L 273.818182 234.303832 
L 392.181818 234.303832 
L 392.181818 234.303832 
" style="fill:none;stroke:#ffa500;stroke-linecap:square;stroke-width:1.5;"/>
   </g>
   <g id="line2d_28">
    <path clip-path="url(#p5452d29eb0)" d="M 57.381818 222.386595 
L 64.145455 222.386595 
L 64.145455 223.330138 
L 74.290909 223.330138 
L 74.290909 224.307983 
L 81.054545 224.307983 
L 81.054545 226.6948 
L 84.436364 226.6948 
L 84.436364 227.062631 
L 101.345455 227.071899 
L 101.345455 227.833161 
L 392.181818 227.900884 
L 392.181818 227.900884 
" style="fill:none;stroke:#ff0000;stroke-linecap:square;stroke-width:1.5;"/>
   </g>
   <g id="patch_3">
    <path d="M 54 252 
L 54 34.56 
" style="fill:none;stroke:#000000;stroke-linecap:square;stroke-linejoin:miter;stroke-width:0.8;"/>
   </g>
   <g id="patch_4">
    <path d="M 388.8 252 
L 388.8 34.56 
" style="fill:none;stroke:#000000;stroke-linecap:square;stroke-linejoin:miter;stroke-width:0.8;"/>
   </g>
   <g id="patch_5">
    <path d="M 54 252 
L 388.8 252 
" style="fill:none;stroke:#000000;stroke-linecap:square;stroke-linejoin:miter;stroke-width:0.8;"/>
   </g>
   <g id="patch_6">
    <path d="M 54 34.56 
L 388.8 34.56 
" style="fill:none;stroke:#000000;stroke-linecap:square;stroke-linejoin:miter;stroke-width:0.8;"/>
   </g>
   <g id="legend_1">
    <g id="patch_7">
     <path d="M 273.004687 116.506875 
L 381.8 116.506875 
Q 383.8 116.506875 383.8 114.506875 
L 383.8 41.56 
Q 383.8 39.56 381.8 39.56 
L 273.004687 39.56 
Q 271.004687 39.56 271.004687 41.56 
L 271.004687 114.506875 
Q 271.004687 116.506875 273.004687 116.506875 
z
" style="fill:#ffffff;opacity:0.8;stroke:#cccccc;stroke-linejoin:miter;"/>
    </g>
    <g id="line2d_29">
     <path d="M 275.004687 47.658437 
L 295.004687 47.658437 
" style="fill:none;stroke:#0000ff;stroke-linecap:square;stroke-width:1.5;"/>
    </g>
    <g id="line2d_30"/>
    <g id="text_8">
     <!-- CUATRO_global -->
     <g transform="translate(303.004687 51.158437)scale(0.1 -0.1)">
      <defs>
       <path d="M 64.40625 67.28125 
L 64.40625 56.890625 
Q 59.421875 61.53125 53.78125 63.8125 
Q 48.140625 66.109375 41.796875 66.109375 
Q 29.296875 66.109375 22.65625 58.46875 
Q 16.015625 50.828125 16.015625 36.375 
Q 16.015625 21.96875 22.65625 14.328125 
Q 29.296875 6.6875 41.796875 6.6875 
Q 48.140625 6.6875 53.78125 8.984375 
Q 59.421875 11.28125 64.40625 15.921875 
L 64.40625 5.609375 
Q 59.234375 2.09375 53.4375 0.328125 
Q 47.65625 -1.421875 41.21875 -1.421875 
Q 24.65625 -1.421875 15.125 8.703125 
Q 5.609375 18.84375 5.609375 36.375 
Q 5.609375 53.953125 15.125 64.078125 
Q 24.65625 74.21875 41.21875 74.21875 
Q 47.75 74.21875 53.53125 72.484375 
Q 59.328125 70.75 64.40625 67.28125 
z
" id="DejaVuSans-67"/>
       <path d="M 8.6875 72.90625 
L 18.609375 72.90625 
L 18.609375 28.609375 
Q 18.609375 16.890625 22.84375 11.734375 
Q 27.09375 6.59375 36.625 6.59375 
Q 46.09375 6.59375 50.34375 11.734375 
Q 54.59375 16.890625 54.59375 28.609375 
L 54.59375 72.90625 
L 64.5 72.90625 
L 64.5 27.390625 
Q 64.5 13.140625 57.4375 5.859375 
Q 50.390625 -1.421875 36.625 -1.421875 
Q 22.796875 -1.421875 15.734375 5.859375 
Q 8.6875 13.140625 8.6875 27.390625 
z
" id="DejaVuSans-85"/>
       <path d="M 34.1875 63.1875 
L 20.796875 26.90625 
L 47.609375 26.90625 
z
M 28.609375 72.90625 
L 39.796875 72.90625 
L 67.578125 0 
L 57.328125 0 
L 50.6875 18.703125 
L 17.828125 18.703125 
L 11.1875 0 
L 0.78125 0 
z
" id="DejaVuSans-65"/>
       <path d="M -0.296875 72.90625 
L 61.375 72.90625 
L 61.375 64.59375 
L 35.5 64.59375 
L 35.5 0 
L 25.59375 0 
L 25.59375 64.59375 
L -0.296875 64.59375 
z
" id="DejaVuSans-84"/>
       <path d="M 44.390625 34.1875 
Q 47.5625 33.109375 50.5625 29.59375 
Q 53.5625 26.078125 56.59375 19.921875 
L 66.609375 0 
L 56 0 
L 46.6875 18.703125 
Q 43.0625 26.03125 39.671875 28.421875 
Q 36.28125 30.8125 30.421875 30.8125 
L 19.671875 30.8125 
L 19.671875 0 
L 9.8125 0 
L 9.8125 72.90625 
L 32.078125 72.90625 
Q 44.578125 72.90625 50.734375 67.671875 
Q 56.890625 62.453125 56.890625 51.90625 
Q 56.890625 45.015625 53.6875 40.46875 
Q 50.484375 35.9375 44.390625 34.1875 
z
M 19.671875 64.796875 
L 19.671875 38.921875 
L 32.078125 38.921875 
Q 39.203125 38.921875 42.84375 42.21875 
Q 46.484375 45.515625 46.484375 51.90625 
Q 46.484375 58.296875 42.84375 61.546875 
Q 39.203125 64.796875 32.078125 64.796875 
z
" id="DejaVuSans-82"/>
       <path d="M 39.40625 66.21875 
Q 28.65625 66.21875 22.328125 58.203125 
Q 16.015625 50.203125 16.015625 36.375 
Q 16.015625 22.609375 22.328125 14.59375 
Q 28.65625 6.59375 39.40625 6.59375 
Q 50.140625 6.59375 56.421875 14.59375 
Q 62.703125 22.609375 62.703125 36.375 
Q 62.703125 50.203125 56.421875 58.203125 
Q 50.140625 66.21875 39.40625 66.21875 
z
M 39.40625 74.21875 
Q 54.734375 74.21875 63.90625 63.9375 
Q 73.09375 53.65625 73.09375 36.375 
Q 73.09375 19.140625 63.90625 8.859375 
Q 54.734375 -1.421875 39.40625 -1.421875 
Q 24.03125 -1.421875 14.8125 8.828125 
Q 5.609375 19.09375 5.609375 36.375 
Q 5.609375 53.65625 14.8125 63.9375 
Q 24.03125 74.21875 39.40625 74.21875 
z
" id="DejaVuSans-79"/>
       <path d="M 50.984375 -16.609375 
L 50.984375 -23.578125 
L -0.984375 -23.578125 
L -0.984375 -16.609375 
z
" id="DejaVuSans-95"/>
       <path d="M 45.40625 27.984375 
Q 45.40625 37.75 41.375 43.109375 
Q 37.359375 48.484375 30.078125 48.484375 
Q 22.859375 48.484375 18.828125 43.109375 
Q 14.796875 37.75 14.796875 27.984375 
Q 14.796875 18.265625 18.828125 12.890625 
Q 22.859375 7.515625 30.078125 7.515625 
Q 37.359375 7.515625 41.375 12.890625 
Q 45.40625 18.265625 45.40625 27.984375 
z
M 54.390625 6.78125 
Q 54.390625 -7.171875 48.1875 -13.984375 
Q 42 -20.796875 29.203125 -20.796875 
Q 24.46875 -20.796875 20.265625 -20.09375 
Q 16.0625 -19.390625 12.109375 -17.921875 
L 12.109375 -9.1875 
Q 16.0625 -11.328125 19.921875 -12.34375 
Q 23.78125 -13.375 27.78125 -13.375 
Q 36.625 -13.375 41.015625 -8.765625 
Q 45.40625 -4.15625 45.40625 5.171875 
L 45.40625 9.625 
Q 42.625 4.78125 38.28125 2.390625 
Q 33.9375 0 27.875 0 
Q 17.828125 0 11.671875 7.65625 
Q 5.515625 15.328125 5.515625 27.984375 
Q 5.515625 40.671875 11.671875 48.328125 
Q 17.828125 56 27.875 56 
Q 33.9375 56 38.28125 53.609375 
Q 42.625 51.21875 45.40625 46.390625 
L 45.40625 54.6875 
L 54.390625 54.6875 
z
" id="DejaVuSans-103"/>
       <path d="M 9.421875 75.984375 
L 18.40625 75.984375 
L 18.40625 0 
L 9.421875 0 
z
" id="DejaVuSans-108"/>
       <path d="M 30.609375 48.390625 
Q 23.390625 48.390625 19.1875 42.75 
Q 14.984375 37.109375 14.984375 27.296875 
Q 14.984375 17.484375 19.15625 11.84375 
Q 23.34375 6.203125 30.609375 6.203125 
Q 37.796875 6.203125 41.984375 11.859375 
Q 46.1875 17.53125 46.1875 27.296875 
Q 46.1875 37.015625 41.984375 42.703125 
Q 37.796875 48.390625 30.609375 48.390625 
z
M 30.609375 56 
Q 42.328125 56 49.015625 48.375 
Q 55.71875 40.765625 55.71875 27.296875 
Q 55.71875 13.875 49.015625 6.21875 
Q 42.328125 -1.421875 30.609375 -1.421875 
Q 18.84375 -1.421875 12.171875 6.21875 
Q 5.515625 13.875 5.515625 27.296875 
Q 5.515625 40.765625 12.171875 48.375 
Q 18.84375 56 30.609375 56 
z
" id="DejaVuSans-111"/>
       <path d="M 48.6875 27.296875 
Q 48.6875 37.203125 44.609375 42.84375 
Q 40.53125 48.484375 33.40625 48.484375 
Q 26.265625 48.484375 22.1875 42.84375 
Q 18.109375 37.203125 18.109375 27.296875 
Q 18.109375 17.390625 22.1875 11.75 
Q 26.265625 6.109375 33.40625 6.109375 
Q 40.53125 6.109375 44.609375 11.75 
Q 48.6875 17.390625 48.6875 27.296875 
z
M 18.109375 46.390625 
Q 20.953125 51.265625 25.265625 53.625 
Q 29.59375 56 35.59375 56 
Q 45.5625 56 51.78125 48.09375 
Q 58.015625 40.1875 58.015625 27.296875 
Q 58.015625 14.40625 51.78125 6.484375 
Q 45.5625 -1.421875 35.59375 -1.421875 
Q 29.59375 -1.421875 25.265625 0.953125 
Q 20.953125 3.328125 18.109375 8.203125 
L 18.109375 0 
L 9.078125 0 
L 9.078125 75.984375 
L 18.109375 75.984375 
z
" id="DejaVuSans-98"/>
       <path d="M 34.28125 27.484375 
Q 23.390625 27.484375 19.1875 25 
Q 14.984375 22.515625 14.984375 16.5 
Q 14.984375 11.71875 18.140625 8.90625 
Q 21.296875 6.109375 26.703125 6.109375 
Q 34.1875 6.109375 38.703125 11.40625 
Q 43.21875 16.703125 43.21875 25.484375 
L 43.21875 27.484375 
z
M 52.203125 31.203125 
L 52.203125 0 
L 43.21875 0 
L 43.21875 8.296875 
Q 40.140625 3.328125 35.546875 0.953125 
Q 30.953125 -1.421875 24.3125 -1.421875 
Q 15.921875 -1.421875 10.953125 3.296875 
Q 6 8.015625 6 15.921875 
Q 6 25.140625 12.171875 29.828125 
Q 18.359375 34.515625 30.609375 34.515625 
L 43.21875 34.515625 
L 43.21875 35.40625 
Q 43.21875 41.609375 39.140625 45 
Q 35.0625 48.390625 27.6875 48.390625 
Q 23 48.390625 18.546875 47.265625 
Q 14.109375 46.140625 10.015625 43.890625 
L 10.015625 52.203125 
Q 14.9375 54.109375 19.578125 55.046875 
Q 24.21875 56 28.609375 56 
Q 40.484375 56 46.34375 49.84375 
Q 52.203125 43.703125 52.203125 31.203125 
z
" id="DejaVuSans-97"/>
      </defs>
      <use xlink:href="#DejaVuSans-67"/>
      <use x="69.824219" xlink:href="#DejaVuSans-85"/>
      <use x="143.017578" xlink:href="#DejaVuSans-65"/>
      <use x="203.675781" xlink:href="#DejaVuSans-84"/>
      <use x="264.759766" xlink:href="#DejaVuSans-82"/>
      <use x="334.242188" xlink:href="#DejaVuSans-79"/>
      <use x="412.953125" xlink:href="#DejaVuSans-95"/>
      <use x="462.953125" xlink:href="#DejaVuSans-103"/>
      <use x="526.429688" xlink:href="#DejaVuSans-108"/>
      <use x="554.212891" xlink:href="#DejaVuSans-111"/>
      <use x="615.394531" xlink:href="#DejaVuSans-98"/>
      <use x="678.871094" xlink:href="#DejaVuSans-97"/>
      <use x="740.150391" xlink:href="#DejaVuSans-108"/>
     </g>
    </g>
    <g id="line2d_31">
     <path d="M 275.004687 62.614688 
L 295.004687 62.614688 
" style="fill:none;stroke:#00bfbf;stroke-linecap:square;stroke-width:1.5;"/>
    </g>
    <g id="line2d_32"/>
    <g id="text_9">
     <!-- CUATRO_local -->
     <g transform="translate(303.004687 66.114688)scale(0.1 -0.1)">
      <defs>
       <path d="M 48.78125 52.59375 
L 48.78125 44.1875 
Q 44.96875 46.296875 41.140625 47.34375 
Q 37.3125 48.390625 33.40625 48.390625 
Q 24.65625 48.390625 19.8125 42.84375 
Q 14.984375 37.3125 14.984375 27.296875 
Q 14.984375 17.28125 19.8125 11.734375 
Q 24.65625 6.203125 33.40625 6.203125 
Q 37.3125 6.203125 41.140625 7.25 
Q 44.96875 8.296875 48.78125 10.40625 
L 48.78125 2.09375 
Q 45.015625 0.34375 40.984375 -0.53125 
Q 36.96875 -1.421875 32.421875 -1.421875 
Q 20.0625 -1.421875 12.78125 6.34375 
Q 5.515625 14.109375 5.515625 27.296875 
Q 5.515625 40.671875 12.859375 48.328125 
Q 20.21875 56 33.015625 56 
Q 37.15625 56 41.109375 55.140625 
Q 45.0625 54.296875 48.78125 52.59375 
z
" id="DejaVuSans-99"/>
      </defs>
      <use xlink:href="#DejaVuSans-67"/>
      <use x="69.824219" xlink:href="#DejaVuSans-85"/>
      <use x="143.017578" xlink:href="#DejaVuSans-65"/>
      <use x="203.675781" xlink:href="#DejaVuSans-84"/>
      <use x="264.759766" xlink:href="#DejaVuSans-82"/>
      <use x="334.242188" xlink:href="#DejaVuSans-79"/>
      <use x="412.953125" xlink:href="#DejaVuSans-95"/>
      <use x="462.953125" xlink:href="#DejaVuSans-108"/>
      <use x="490.736328" xlink:href="#DejaVuSans-111"/>
      <use x="551.917969" xlink:href="#DejaVuSans-99"/>
      <use x="606.898438" xlink:href="#DejaVuSans-97"/>
      <use x="668.177734" xlink:href="#DejaVuSans-108"/>
     </g>
    </g>
    <g id="line2d_33">
     <path d="M 275.004687 77.570937 
L 295.004687 77.570937 
" style="fill:none;stroke:#008000;stroke-linecap:square;stroke-width:1.5;"/>
    </g>
    <g id="line2d_34"/>
    <g id="text_10">
     <!-- Py-BOBYQA  -->
     <g transform="translate(303.004687 81.070937)scale(0.1 -0.1)">
      <defs>
       <path d="M 19.671875 64.796875 
L 19.671875 37.40625 
L 32.078125 37.40625 
Q 38.96875 37.40625 42.71875 40.96875 
Q 46.484375 44.53125 46.484375 51.125 
Q 46.484375 57.671875 42.71875 61.234375 
Q 38.96875 64.796875 32.078125 64.796875 
z
M 9.8125 72.90625 
L 32.078125 72.90625 
Q 44.34375 72.90625 50.609375 67.359375 
Q 56.890625 61.8125 56.890625 51.125 
Q 56.890625 40.328125 50.609375 34.8125 
Q 44.34375 29.296875 32.078125 29.296875 
L 19.671875 29.296875 
L 19.671875 0 
L 9.8125 0 
z
" id="DejaVuSans-80"/>
       <path d="M 32.171875 -5.078125 
Q 28.375 -14.84375 24.75 -17.8125 
Q 21.140625 -20.796875 15.09375 -20.796875 
L 7.90625 -20.796875 
L 7.90625 -13.28125 
L 13.1875 -13.28125 
Q 16.890625 -13.28125 18.9375 -11.515625 
Q 21 -9.765625 23.484375 -3.21875 
L 25.09375 0.875 
L 2.984375 54.6875 
L 12.5 54.6875 
L 29.59375 11.921875 
L 46.6875 54.6875 
L 56.203125 54.6875 
z
" id="DejaVuSans-121"/>
       <path d="M 4.890625 31.390625 
L 31.203125 31.390625 
L 31.203125 23.390625 
L 4.890625 23.390625 
z
" id="DejaVuSans-45"/>
       <path d="M 19.671875 34.8125 
L 19.671875 8.109375 
L 35.5 8.109375 
Q 43.453125 8.109375 47.28125 11.40625 
Q 51.125 14.703125 51.125 21.484375 
Q 51.125 28.328125 47.28125 31.5625 
Q 43.453125 34.8125 35.5 34.8125 
z
M 19.671875 64.796875 
L 19.671875 42.828125 
L 34.28125 42.828125 
Q 41.5 42.828125 45.03125 45.53125 
Q 48.578125 48.25 48.578125 53.8125 
Q 48.578125 59.328125 45.03125 62.0625 
Q 41.5 64.796875 34.28125 64.796875 
z
M 9.8125 72.90625 
L 35.015625 72.90625 
Q 46.296875 72.90625 52.390625 68.21875 
Q 58.5 63.53125 58.5 54.890625 
Q 58.5 48.1875 55.375 44.234375 
Q 52.25 40.28125 46.1875 39.3125 
Q 53.46875 37.75 57.5 32.78125 
Q 61.53125 27.828125 61.53125 20.40625 
Q 61.53125 10.640625 54.890625 5.3125 
Q 48.25 0 35.984375 0 
L 9.8125 0 
z
" id="DejaVuSans-66"/>
       <path d="M -0.203125 72.90625 
L 10.40625 72.90625 
L 30.609375 42.921875 
L 50.6875 72.90625 
L 61.28125 72.90625 
L 35.5 34.71875 
L 35.5 0 
L 25.59375 0 
L 25.59375 34.71875 
z
" id="DejaVuSans-89"/>
       <path d="M 39.40625 66.21875 
Q 28.65625 66.21875 22.328125 58.203125 
Q 16.015625 50.203125 16.015625 36.375 
Q 16.015625 22.609375 22.328125 14.59375 
Q 28.65625 6.59375 39.40625 6.59375 
Q 50.140625 6.59375 56.421875 14.59375 
Q 62.703125 22.609375 62.703125 36.375 
Q 62.703125 50.203125 56.421875 58.203125 
Q 50.140625 66.21875 39.40625 66.21875 
z
M 53.21875 1.3125 
L 66.21875 -12.890625 
L 54.296875 -12.890625 
L 43.5 -1.21875 
Q 41.890625 -1.3125 41.03125 -1.359375 
Q 40.1875 -1.421875 39.40625 -1.421875 
Q 24.03125 -1.421875 14.8125 8.859375 
Q 5.609375 19.140625 5.609375 36.375 
Q 5.609375 53.65625 14.8125 63.9375 
Q 24.03125 74.21875 39.40625 74.21875 
Q 54.734375 74.21875 63.90625 63.9375 
Q 73.09375 53.65625 73.09375 36.375 
Q 73.09375 23.6875 67.984375 14.640625 
Q 62.890625 5.609375 53.21875 1.3125 
z
" id="DejaVuSans-81"/>
       <path id="DejaVuSans-32"/>
      </defs>
      <use xlink:href="#DejaVuSans-80"/>
      <use x="60.302734" xlink:href="#DejaVuSans-121"/>
      <use x="117.732422" xlink:href="#DejaVuSans-45"/>
      <use x="150.191406" xlink:href="#DejaVuSans-66"/>
      <use x="217.044922" xlink:href="#DejaVuSans-79"/>
      <use x="295.755859" xlink:href="#DejaVuSans-66"/>
      <use x="358.859375" xlink:href="#DejaVuSans-89"/>
      <use x="419.943359" xlink:href="#DejaVuSans-81"/>
      <use x="498.654297" xlink:href="#DejaVuSans-65"/>
      <use x="567.0625" xlink:href="#DejaVuSans-32"/>
     </g>
    </g>
    <g id="line2d_35">
     <path d="M 275.004687 92.249062 
L 295.004687 92.249062 
" style="fill:none;stroke:#ffa500;stroke-linecap:square;stroke-width:1.5;"/>
    </g>
    <g id="line2d_36"/>
    <g id="text_11">
     <!-- Snobfit -->
     <g transform="translate(303.004687 95.749062)scale(0.1 -0.1)">
      <defs>
       <path d="M 53.515625 70.515625 
L 53.515625 60.890625 
Q 47.90625 63.578125 42.921875 64.890625 
Q 37.9375 66.21875 33.296875 66.21875 
Q 25.25 66.21875 20.875 63.09375 
Q 16.5 59.96875 16.5 54.203125 
Q 16.5 49.359375 19.40625 46.890625 
Q 22.3125 44.4375 30.421875 42.921875 
L 36.375 41.703125 
Q 47.40625 39.59375 52.65625 34.296875 
Q 57.90625 29 57.90625 20.125 
Q 57.90625 9.515625 50.796875 4.046875 
Q 43.703125 -1.421875 29.984375 -1.421875 
Q 24.8125 -1.421875 18.96875 -0.25 
Q 13.140625 0.921875 6.890625 3.21875 
L 6.890625 13.375 
Q 12.890625 10.015625 18.65625 8.296875 
Q 24.421875 6.59375 29.984375 6.59375 
Q 38.421875 6.59375 43.015625 9.90625 
Q 47.609375 13.234375 47.609375 19.390625 
Q 47.609375 24.75 44.3125 27.78125 
Q 41.015625 30.8125 33.5 32.328125 
L 27.484375 33.5 
Q 16.453125 35.6875 11.515625 40.375 
Q 6.59375 45.0625 6.59375 53.421875 
Q 6.59375 63.09375 13.40625 68.65625 
Q 20.21875 74.21875 32.171875 74.21875 
Q 37.3125 74.21875 42.625 73.28125 
Q 47.953125 72.359375 53.515625 70.515625 
z
" id="DejaVuSans-83"/>
       <path d="M 54.890625 33.015625 
L 54.890625 0 
L 45.90625 0 
L 45.90625 32.71875 
Q 45.90625 40.484375 42.875 44.328125 
Q 39.84375 48.1875 33.796875 48.1875 
Q 26.515625 48.1875 22.3125 43.546875 
Q 18.109375 38.921875 18.109375 30.90625 
L 18.109375 0 
L 9.078125 0 
L 9.078125 54.6875 
L 18.109375 54.6875 
L 18.109375 46.1875 
Q 21.34375 51.125 25.703125 53.5625 
Q 30.078125 56 35.796875 56 
Q 45.21875 56 50.046875 50.171875 
Q 54.890625 44.34375 54.890625 33.015625 
z
" id="DejaVuSans-110"/>
       <path d="M 37.109375 75.984375 
L 37.109375 68.5 
L 28.515625 68.5 
Q 23.6875 68.5 21.796875 66.546875 
Q 19.921875 64.59375 19.921875 59.515625 
L 19.921875 54.6875 
L 34.71875 54.6875 
L 34.71875 47.703125 
L 19.921875 47.703125 
L 19.921875 0 
L 10.890625 0 
L 10.890625 47.703125 
L 2.296875 47.703125 
L 2.296875 54.6875 
L 10.890625 54.6875 
L 10.890625 58.5 
Q 10.890625 67.625 15.140625 71.796875 
Q 19.390625 75.984375 28.609375 75.984375 
z
" id="DejaVuSans-102"/>
       <path d="M 9.421875 54.6875 
L 18.40625 54.6875 
L 18.40625 0 
L 9.421875 0 
z
M 9.421875 75.984375 
L 18.40625 75.984375 
L 18.40625 64.59375 
L 9.421875 64.59375 
z
" id="DejaVuSans-105"/>
       <path d="M 18.3125 70.21875 
L 18.3125 54.6875 
L 36.8125 54.6875 
L 36.8125 47.703125 
L 18.3125 47.703125 
L 18.3125 18.015625 
Q 18.3125 11.328125 20.140625 9.421875 
Q 21.96875 7.515625 27.59375 7.515625 
L 36.8125 7.515625 
L 36.8125 0 
L 27.59375 0 
Q 17.1875 0 13.234375 3.875 
Q 9.28125 7.765625 9.28125 18.015625 
L 9.28125 47.703125 
L 2.6875 47.703125 
L 2.6875 54.6875 
L 9.28125 54.6875 
L 9.28125 70.21875 
z
" id="DejaVuSans-116"/>
      </defs>
      <use xlink:href="#DejaVuSans-83"/>
      <use x="63.476562" xlink:href="#DejaVuSans-110"/>
      <use x="126.855469" xlink:href="#DejaVuSans-111"/>
      <use x="188.037109" xlink:href="#DejaVuSans-98"/>
      <use x="251.513672" xlink:href="#DejaVuSans-102"/>
      <use x="286.71875" xlink:href="#DejaVuSans-105"/>
      <use x="314.501953" xlink:href="#DejaVuSans-116"/>
     </g>
    </g>
    <g id="line2d_37">
     <path d="M 275.004687 106.927188 
L 295.004687 106.927188 
" style="fill:none;stroke:#ff0000;stroke-linecap:square;stroke-width:1.5;"/>
    </g>
    <g id="line2d_38"/>
    <g id="text_12">
     <!-- Bayes. Opt -->
     <g transform="translate(303.004687 110.427188)scale(0.1 -0.1)">
      <defs>
       <path d="M 56.203125 29.59375 
L 56.203125 25.203125 
L 14.890625 25.203125 
Q 15.484375 15.921875 20.484375 11.0625 
Q 25.484375 6.203125 34.421875 6.203125 
Q 39.59375 6.203125 44.453125 7.46875 
Q 49.3125 8.734375 54.109375 11.28125 
L 54.109375 2.78125 
Q 49.265625 0.734375 44.1875 -0.34375 
Q 39.109375 -1.421875 33.890625 -1.421875 
Q 20.796875 -1.421875 13.15625 6.1875 
Q 5.515625 13.8125 5.515625 26.8125 
Q 5.515625 40.234375 12.765625 48.109375 
Q 20.015625 56 32.328125 56 
Q 43.359375 56 49.78125 48.890625 
Q 56.203125 41.796875 56.203125 29.59375 
z
M 47.21875 32.234375 
Q 47.125 39.59375 43.09375 43.984375 
Q 39.0625 48.390625 32.421875 48.390625 
Q 24.90625 48.390625 20.390625 44.140625 
Q 15.875 39.890625 15.1875 32.171875 
z
" id="DejaVuSans-101"/>
       <path d="M 44.28125 53.078125 
L 44.28125 44.578125 
Q 40.484375 46.53125 36.375 47.5 
Q 32.28125 48.484375 27.875 48.484375 
Q 21.1875 48.484375 17.84375 46.4375 
Q 14.5 44.390625 14.5 40.28125 
Q 14.5 37.15625 16.890625 35.375 
Q 19.28125 33.59375 26.515625 31.984375 
L 29.59375 31.296875 
Q 39.15625 29.25 43.1875 25.515625 
Q 47.21875 21.78125 47.21875 15.09375 
Q 47.21875 7.46875 41.1875 3.015625 
Q 35.15625 -1.421875 24.609375 -1.421875 
Q 20.21875 -1.421875 15.453125 -0.5625 
Q 10.6875 0.296875 5.421875 2 
L 5.421875 11.28125 
Q 10.40625 8.6875 15.234375 7.390625 
Q 20.0625 6.109375 24.8125 6.109375 
Q 31.15625 6.109375 34.5625 8.28125 
Q 37.984375 10.453125 37.984375 14.40625 
Q 37.984375 18.0625 35.515625 20.015625 
Q 33.0625 21.96875 24.703125 23.78125 
L 21.578125 24.515625 
Q 13.234375 26.265625 9.515625 29.90625 
Q 5.8125 33.546875 5.8125 39.890625 
Q 5.8125 47.609375 11.28125 51.796875 
Q 16.75 56 26.8125 56 
Q 31.78125 56 36.171875 55.265625 
Q 40.578125 54.546875 44.28125 53.078125 
z
" id="DejaVuSans-115"/>
       <path d="M 10.6875 12.40625 
L 21 12.40625 
L 21 0 
L 10.6875 0 
z
" id="DejaVuSans-46"/>
       <path d="M 18.109375 8.203125 
L 18.109375 -20.796875 
L 9.078125 -20.796875 
L 9.078125 54.6875 
L 18.109375 54.6875 
L 18.109375 46.390625 
Q 20.953125 51.265625 25.265625 53.625 
Q 29.59375 56 35.59375 56 
Q 45.5625 56 51.78125 48.09375 
Q 58.015625 40.1875 58.015625 27.296875 
Q 58.015625 14.40625 51.78125 6.484375 
Q 45.5625 -1.421875 35.59375 -1.421875 
Q 29.59375 -1.421875 25.265625 0.953125 
Q 20.953125 3.328125 18.109375 8.203125 
z
M 48.6875 27.296875 
Q 48.6875 37.203125 44.609375 42.84375 
Q 40.53125 48.484375 33.40625 48.484375 
Q 26.265625 48.484375 22.1875 42.84375 
Q 18.109375 37.203125 18.109375 27.296875 
Q 18.109375 17.390625 22.1875 11.75 
Q 26.265625 6.109375 33.40625 6.109375 
Q 40.53125 6.109375 44.609375 11.75 
Q 48.6875 17.390625 48.6875 27.296875 
z
" id="DejaVuSans-112"/>
      </defs>
      <use xlink:href="#DejaVuSans-66"/>
      <use x="68.603516" xlink:href="#DejaVuSans-97"/>
      <use x="129.882812" xlink:href="#DejaVuSans-121"/>
      <use x="189.0625" xlink:href="#DejaVuSans-101"/>
      <use x="250.585938" xlink:href="#DejaVuSans-115"/>
      <use x="302.685547" xlink:href="#DejaVuSans-46"/>
      <use x="334.472656" xlink:href="#DejaVuSans-32"/>
      <use x="366.259766" xlink:href="#DejaVuSans-79"/>
      <use x="444.970703" xlink:href="#DejaVuSans-112"/>
      <use x="508.447266" xlink:href="#DejaVuSans-116"/>
     </g>
    </g>
   </g>
  </g>
 </g>
 <defs>
  <clipPath id="p5452d29eb0">
   <rect height="217.44" width="334.8" x="54" y="34.56"/>
  </clipPath>
 </defs>
</svg>
