<?xml version="1.0" encoding="utf-8" standalone="no"?>
<!DOCTYPE svg PUBLIC "-//W3C//DTD SVG 1.1//EN"
  "http://www.w3.org/Graphics/SVG/1.1/DTD/svg11.dtd">
<!-- Created with matplotlib (https://matplotlib.org/) -->
<svg height="288pt" version="1.1" viewBox="0 0 432 288" width="432pt" xmlns="http://www.w3.org/2000/svg" xmlns:xlink="http://www.w3.org/1999/xlink">
 <metadata>
  <rdf:RDF xmlns:cc="http://creativecommons.org/ns#" xmlns:dc="http://purl.org/dc/elements/1.1/" xmlns:rdf="http://www.w3.org/1999/02/22-rdf-syntax-ns#">
   <cc:Work>
    <dc:type rdf:resource="http://purl.org/dc/dcmitype/StillImage"/>
    <dc:date>2021-04-24T15:18:13.810629</dc:date>
    <dc:format>image/svg+xml</dc:format>
    <dc:creator>
     <cc:Agent>
      <dc:title>Matplotlib v3.3.4, https://matplotlib.org/</dc:title>
     </cc:Agent>
    </dc:creator>
   </cc:Work>
  </rdf:RDF>
 </metadata>
 <defs>
  <style type="text/css">*{stroke-linecap:butt;stroke-linejoin:round;}</style>
 </defs>
 <g id="figure_1">
  <g id="patch_1">
   <path d="M 0 288 
L 432 288 
L 432 0 
L 0 0 
z
" style="fill:#ffffff;"/>
  </g>
  <g id="axes_1">
   <g id="patch_2">
    <path d="M 74.95 232.8 
L 415.8 232.8 
L 415.8 16.2 
L 74.95 16.2 
z
" style="fill:#ffffff;"/>
   </g>
   <g id="patch_3">
    <path clip-path="url(#p541e6809ad)" d="M 80.74445 144.303938 
L 91.878883 144.303938 
L 91.878883 118.267736 
L 80.74445 118.267736 
L 80.74445 144.303938 
z
" style="fill:#597dbf;stroke:#545454;stroke-linejoin:miter;stroke-width:1.5;"/>
   </g>
   <g id="patch_4">
    <path clip-path="url(#p541e6809ad)" d="M 92.106117 148.648795 
L 103.24055 148.648795 
L 103.24055 148.648795 
L 92.106117 148.648795 
L 92.106117 148.648795 
z
" style="fill:#d98b5f;stroke:#545454;stroke-linejoin:miter;stroke-width:1.5;"/>
   </g>
   <g id="patch_5">
    <path clip-path="url(#p541e6809ad)" d="M 103.467783 142.815564 
L 114.602217 142.815564 
L 114.602217 96.84064 
L 103.467783 96.84064 
L 103.467783 142.815564 
z
" style="fill:#75bf71;stroke:#545454;stroke-linejoin:miter;stroke-width:1.5;"/>
   </g>
   <g id="patch_6">
    <path clip-path="url(#p541e6809ad)" d="M 114.82945 151.634607 
L 125.963883 151.634607 
L 125.963883 151.378105 
L 114.82945 151.378105 
L 114.82945 151.634607 
z
" style="fill:#c76e6e;stroke:#545454;stroke-linejoin:miter;stroke-width:1.5;"/>
   </g>
   <g id="patch_7">
    <path clip-path="url(#p541e6809ad)" d="M 137.552783 138.809707 
L 148.687217 138.809707 
L 148.687217 119.017743 
L 137.552783 119.017743 
L 137.552783 138.809707 
z
" style="fill:#597dbf;stroke:#545454;stroke-linejoin:miter;stroke-width:1.5;"/>
   </g>
   <g id="patch_8">
    <path clip-path="url(#p541e6809ad)" d="M 148.91445 152.041088 
L 160.048883 152.041088 
L 160.048883 147.011475 
L 148.91445 147.011475 
L 148.91445 152.041088 
z
" style="fill:#d98b5f;stroke:#545454;stroke-linejoin:miter;stroke-width:1.5;"/>
   </g>
   <g id="patch_9">
    <path clip-path="url(#p541e6809ad)" d="M 160.276117 144.47017 
L 171.41055 144.47017 
L 171.41055 98.18959 
L 160.276117 98.18959 
L 160.276117 144.47017 
z
" style="fill:#75bf71;stroke:#545454;stroke-linejoin:miter;stroke-width:1.5;"/>
   </g>
   <g id="patch_10">
    <path clip-path="url(#p541e6809ad)" d="M 171.637783 157.794802 
L 182.772217 157.794802 
L 182.772217 154.384323 
L 171.637783 154.384323 
L 171.637783 157.794802 
z
" style="fill:#c76e6e;stroke:#545454;stroke-linejoin:miter;stroke-width:1.5;"/>
   </g>
   <g id="patch_11">
    <path clip-path="url(#p541e6809ad)" d="M 194.361117 137.741865 
L 205.49555 137.741865 
L 205.49555 114.341299 
L 194.361117 114.341299 
L 194.361117 137.741865 
z
" style="fill:#597dbf;stroke:#545454;stroke-linejoin:miter;stroke-width:1.5;"/>
   </g>
   <g id="patch_12">
    <path clip-path="url(#p541e6809ad)" d="M 205.722783 156.739033 
L 216.857217 156.739033 
L 216.857217 147.612081 
L 205.722783 147.612081 
L 205.722783 156.739033 
z
" style="fill:#d98b5f;stroke:#545454;stroke-linejoin:miter;stroke-width:1.5;"/>
   </g>
   <g id="patch_13">
    <path clip-path="url(#p541e6809ad)" d="M 217.08445 141.365881 
L 228.218883 141.365881 
L 228.218883 99.329385 
L 217.08445 99.329385 
L 217.08445 141.365881 
z
" style="fill:#75bf71;stroke:#545454;stroke-linejoin:miter;stroke-width:1.5;"/>
   </g>
   <g id="patch_14">
    <path clip-path="url(#p541e6809ad)" d="M 228.446117 167.010023 
L 239.58055 167.010023 
L 239.58055 160.111774 
L 228.446117 160.111774 
L 228.446117 167.010023 
z
" style="fill:#c76e6e;stroke:#545454;stroke-linejoin:miter;stroke-width:1.5;"/>
   </g>
   <g id="patch_15">
    <path clip-path="url(#p541e6809ad)" d="M 251.16945 152.166613 
L 262.303883 152.166613 
L 262.303883 129.157723 
L 251.16945 129.157723 
L 251.16945 152.166613 
z
" style="fill:#597dbf;stroke:#545454;stroke-linejoin:miter;stroke-width:1.5;"/>
   </g>
   <g id="patch_16">
    <path clip-path="url(#p541e6809ad)" d="M 262.531117 162.402144 
L 273.66555 162.402144 
L 273.66555 146.575309 
L 262.531117 146.575309 
L 262.531117 162.402144 
z
" style="fill:#d98b5f;stroke:#545454;stroke-linejoin:miter;stroke-width:1.5;"/>
   </g>
   <g id="patch_17">
    <path clip-path="url(#p541e6809ad)" d="M 273.892783 138.406281 
L 285.027217 138.406281 
L 285.027217 91.071766 
L 273.892783 91.071766 
L 273.892783 138.406281 
z
" style="fill:#75bf71;stroke:#545454;stroke-linejoin:miter;stroke-width:1.5;"/>
   </g>
   <g id="patch_18">
    <path clip-path="url(#p541e6809ad)" d="M 285.25445 174.909801 
L 296.388883 174.909801 
L 296.388883 164.102756 
L 285.25445 164.102756 
L 285.25445 174.909801 
z
" style="fill:#c76e6e;stroke:#545454;stroke-linejoin:miter;stroke-width:1.5;"/>
   </g>
   <g id="patch_19">
    <path clip-path="url(#p541e6809ad)" d="M 307.977783 143.086179 
L 319.112217 143.086179 
L 319.112217 117.673779 
L 307.977783 117.673779 
L 307.977783 143.086179 
z
" style="fill:#597dbf;stroke:#545454;stroke-linejoin:miter;stroke-width:1.5;"/>
   </g>
   <g id="patch_20">
    <path clip-path="url(#p541e6809ad)" d="M 319.33945 165.502831 
L 330.473883 165.502831 
L 330.473883 147.39915 
L 319.33945 147.39915 
L 319.33945 165.502831 
z
" style="fill:#d98b5f;stroke:#545454;stroke-linejoin:miter;stroke-width:1.5;"/>
   </g>
   <g id="patch_21">
    <path clip-path="url(#p541e6809ad)" d="M 330.701117 136.367924 
L 341.83555 136.367924 
L 341.83555 93.222212 
L 330.701117 93.222212 
L 330.701117 136.367924 
z
" style="fill:#75bf71;stroke:#545454;stroke-linejoin:miter;stroke-width:1.5;"/>
   </g>
   <g id="patch_22">
    <path clip-path="url(#p541e6809ad)" d="M 342.062783 182.27996 
L 353.197217 182.27996 
L 353.197217 166.735126 
L 342.062783 166.735126 
L 342.062783 182.27996 
z
" style="fill:#c76e6e;stroke:#545454;stroke-linejoin:miter;stroke-width:1.5;"/>
   </g>
   <g id="patch_23">
    <path clip-path="url(#p541e6809ad)" d="M 364.786117 153.348105 
L 375.92055 153.348105 
L 375.92055 121.574215 
L 364.786117 121.574215 
L 364.786117 153.348105 
z
" style="fill:#597dbf;stroke:#545454;stroke-linejoin:miter;stroke-width:1.5;"/>
   </g>
   <g id="patch_24">
    <path clip-path="url(#p541e6809ad)" d="M 376.147783 176.163863 
L 387.282217 176.163863 
L 387.282217 153.633844 
L 376.147783 153.633844 
L 376.147783 176.163863 
z
" style="fill:#d98b5f;stroke:#545454;stroke-linejoin:miter;stroke-width:1.5;"/>
   </g>
   <g id="patch_25">
    <path clip-path="url(#p541e6809ad)" d="M 387.50945 129.375723 
L 398.643883 129.375723 
L 398.643883 90.165751 
L 387.50945 90.165751 
L 387.50945 129.375723 
z
" style="fill:#75bf71;stroke:#545454;stroke-linejoin:miter;stroke-width:1.5;"/>
   </g>
   <g id="patch_26">
    <path clip-path="url(#p541e6809ad)" d="M 398.871117 191.334812 
L 410.00555 191.334812 
L 410.00555 170.755037 
L 398.871117 170.755037 
L 398.871117 191.334812 
z
" style="fill:#c76e6e;stroke:#545454;stroke-linejoin:miter;stroke-width:1.5;"/>
   </g>
   <g id="patch_27">
    <path clip-path="url(#p541e6809ad)" d="M 103.354167 8255.305294 
L 103.354167 8255.305294 
L 103.354167 8255.305294 
L 103.354167 8255.305294 
z
" style="fill:#597dbf;stroke:#545454;stroke-linejoin:miter;stroke-width:0.75;"/>
   </g>
   <g id="patch_28">
    <path clip-path="url(#p541e6809ad)" d="M 103.354167 8255.305294 
L 103.354167 8255.305294 
L 103.354167 8255.305294 
L 103.354167 8255.305294 
z
" style="fill:#d98b5f;stroke:#545454;stroke-linejoin:miter;stroke-width:0.75;"/>
   </g>
   <g id="patch_29">
    <path clip-path="url(#p541e6809ad)" d="M 103.354167 8255.305294 
L 103.354167 8255.305294 
L 103.354167 8255.305294 
L 103.354167 8255.305294 
z
" style="fill:#75bf71;stroke:#545454;stroke-linejoin:miter;stroke-width:0.75;"/>
   </g>
   <g id="patch_30">
    <path clip-path="url(#p541e6809ad)" d="M 103.354167 8255.305294 
L 103.354167 8255.305294 
L 103.354167 8255.305294 
L 103.354167 8255.305294 
z
" style="fill:#c76e6e;stroke:#545454;stroke-linejoin:miter;stroke-width:0.75;"/>
   </g>
   <g id="matplotlib.axis_1">
    <g id="xtick_1">
     <g id="line2d_1">
      <defs>
       <path d="M 0 0 
L 0 3.5 
" id="m3140270c5e" style="stroke:#000000;stroke-width:0.8;"/>
      </defs>
      <g>
       <use style="stroke:#000000;stroke-width:0.8;" x="103.354167" xlink:href="#m3140270c5e" y="232.8"/>
      </g>
     </g>
     <g id="text_1">
      <!-- 0.00000 -->
      <g transform="translate(78.979167 250.215625)scale(0.15 -0.15)">
       <defs>
        <path d="M 3.609375 32.71875 
Q 3.609375 44.046875 7.03125 52.21875 
Q 10.453125 60.40625 16.109375 64.40625 
Q 20.515625 67.578125 25.203125 67.578125 
Q 32.8125 67.578125 38.875 59.8125 
Q 46.4375 50.203125 46.4375 33.734375 
Q 46.4375 22.21875 43.109375 14.15625 
Q 39.796875 6.109375 34.640625 2.46875 
Q 29.5 -1.171875 24.703125 -1.171875 
Q 15.234375 -1.171875 8.9375 10.015625 
Q 3.609375 19.4375 3.609375 32.71875 
z
M 13.1875 31.5 
Q 13.1875 17.828125 16.546875 9.1875 
Q 19.34375 1.90625 24.859375 1.90625 
Q 27.484375 1.90625 30.3125 4.265625 
Q 33.15625 6.640625 34.625 12.203125 
Q 36.859375 20.609375 36.859375 35.890625 
Q 36.859375 47.21875 34.515625 54.78125 
Q 32.765625 60.40625 29.984375 62.75 
Q 27.984375 64.359375 25.140625 64.359375 
Q 21.828125 64.359375 19.234375 61.375 
Q 15.71875 57.328125 14.453125 48.625 
Q 13.1875 39.9375 13.1875 31.5 
z
" id="TimesNewRomanPSMT-48"/>
        <path d="M 12.5 9.46875 
Q 14.796875 9.46875 16.359375 7.875 
Q 17.921875 6.296875 17.921875 4.046875 
Q 17.921875 1.8125 16.328125 0.21875 
Q 14.75 -1.375 12.5 -1.375 
Q 10.25 -1.375 8.65625 0.21875 
Q 7.078125 1.8125 7.078125 4.046875 
Q 7.078125 6.34375 8.65625 7.90625 
Q 10.25 9.46875 12.5 9.46875 
z
" id="TimesNewRomanPSMT-46"/>
       </defs>
       <use xlink:href="#TimesNewRomanPSMT-48"/>
       <use x="50" xlink:href="#TimesNewRomanPSMT-46"/>
       <use x="75" xlink:href="#TimesNewRomanPSMT-48"/>
       <use x="125" xlink:href="#TimesNewRomanPSMT-48"/>
       <use x="175" xlink:href="#TimesNewRomanPSMT-48"/>
       <use x="225" xlink:href="#TimesNewRomanPSMT-48"/>
       <use x="275" xlink:href="#TimesNewRomanPSMT-48"/>
      </g>
     </g>
    </g>
    <g id="xtick_2">
     <g id="line2d_2">
      <g>
       <use style="stroke:#000000;stroke-width:0.8;" x="160.1625" xlink:href="#m3140270c5e" y="232.8"/>
      </g>
     </g>
     <g id="text_2">
      <!-- 0.00033 -->
      <g transform="translate(135.7875 250.215625)scale(0.15 -0.15)">
       <defs>
        <path d="M 5.078125 53.609375 
Q 7.90625 60.296875 12.21875 63.9375 
Q 16.546875 67.578125 23 67.578125 
Q 30.953125 67.578125 35.203125 62.40625 
Q 38.421875 58.546875 38.421875 54.15625 
Q 38.421875 46.921875 29.34375 39.203125 
Q 35.453125 36.8125 38.578125 32.375 
Q 41.703125 27.9375 41.703125 21.921875 
Q 41.703125 13.328125 36.234375 7.03125 
Q 29.109375 -1.171875 15.578125 -1.171875 
Q 8.890625 -1.171875 6.46875 0.484375 
Q 4.046875 2.15625 4.046875 4.046875 
Q 4.046875 5.46875 5.1875 6.546875 
Q 6.34375 7.625 7.953125 7.625 
Q 9.1875 7.625 10.453125 7.234375 
Q 11.28125 6.984375 14.203125 5.4375 
Q 17.140625 3.90625 18.265625 3.609375 
Q 20.0625 3.078125 22.125 3.078125 
Q 27.09375 3.078125 30.78125 6.9375 
Q 34.46875 10.796875 34.46875 16.0625 
Q 34.46875 19.921875 32.765625 23.578125 
Q 31.5 26.3125 29.984375 27.734375 
Q 27.875 29.6875 24.21875 31.265625 
Q 20.5625 32.859375 16.75 32.859375 
L 15.1875 32.859375 
L 15.1875 34.328125 
Q 19.046875 34.8125 22.921875 37.109375 
Q 26.8125 39.40625 28.5625 42.625 
Q 30.328125 45.84375 30.328125 49.703125 
Q 30.328125 54.734375 27.171875 57.828125 
Q 24.03125 60.9375 19.34375 60.9375 
Q 11.765625 60.9375 6.6875 52.828125 
z
" id="TimesNewRomanPSMT-51"/>
       </defs>
       <use xlink:href="#TimesNewRomanPSMT-48"/>
       <use x="50" xlink:href="#TimesNewRomanPSMT-46"/>
       <use x="75" xlink:href="#TimesNewRomanPSMT-48"/>
       <use x="125" xlink:href="#TimesNewRomanPSMT-48"/>
       <use x="175" xlink:href="#TimesNewRomanPSMT-48"/>
       <use x="225" xlink:href="#TimesNewRomanPSMT-51"/>
       <use x="275" xlink:href="#TimesNewRomanPSMT-51"/>
      </g>
     </g>
    </g>
    <g id="xtick_3">
     <g id="line2d_3">
      <g>
       <use style="stroke:#000000;stroke-width:0.8;" x="216.970833" xlink:href="#m3140270c5e" y="232.8"/>
      </g>
     </g>
     <g id="text_3">
      <!-- 0.00067 -->
      <g transform="translate(192.595833 250.215625)scale(0.15 -0.15)">
       <defs>
        <path d="M 44.828125 67.578125 
L 44.828125 65.765625 
Q 38.375 65.140625 34.296875 63.203125 
Q 30.21875 61.28125 26.234375 57.328125 
Q 22.265625 53.375 19.65625 48.515625 
Q 17.046875 43.65625 15.28125 36.96875 
Q 22.3125 41.796875 29.390625 41.796875 
Q 36.1875 41.796875 41.15625 36.328125 
Q 46.140625 30.859375 46.140625 22.265625 
Q 46.140625 13.96875 41.109375 7.125 
Q 35.0625 -1.171875 25.09375 -1.171875 
Q 18.3125 -1.171875 13.578125 3.328125 
Q 4.296875 12.0625 4.296875 25.984375 
Q 4.296875 34.859375 7.859375 42.859375 
Q 11.421875 50.875 18.03125 57.078125 
Q 24.65625 63.28125 30.703125 65.421875 
Q 36.765625 67.578125 42 67.578125 
z
M 14.453125 33.40625 
Q 13.578125 26.8125 13.578125 22.75 
Q 13.578125 18.0625 15.3125 12.5625 
Q 17.046875 7.078125 20.453125 3.859375 
Q 22.953125 1.5625 26.515625 1.5625 
Q 30.765625 1.5625 34.109375 5.5625 
Q 37.453125 9.578125 37.453125 17 
Q 37.453125 25.34375 34.125 31.4375 
Q 30.8125 37.546875 24.703125 37.546875 
Q 22.859375 37.546875 20.734375 36.765625 
Q 18.609375 35.984375 14.453125 33.40625 
z
" id="TimesNewRomanPSMT-54"/>
        <path d="M 10.0625 66.21875 
L 45.5625 66.21875 
L 45.5625 64.359375 
L 23.484375 -1.375 
L 18.015625 -1.375 
L 37.796875 58.25 
L 19.578125 58.25 
Q 14.0625 58.25 11.71875 56.9375 
Q 7.625 54.6875 5.125 50 
L 3.71875 50.53125 
z
" id="TimesNewRomanPSMT-55"/>
       </defs>
       <use xlink:href="#TimesNewRomanPSMT-48"/>
       <use x="50" xlink:href="#TimesNewRomanPSMT-46"/>
       <use x="75" xlink:href="#TimesNewRomanPSMT-48"/>
       <use x="125" xlink:href="#TimesNewRomanPSMT-48"/>
       <use x="175" xlink:href="#TimesNewRomanPSMT-48"/>
       <use x="225" xlink:href="#TimesNewRomanPSMT-54"/>
       <use x="275" xlink:href="#TimesNewRomanPSMT-55"/>
      </g>
     </g>
    </g>
    <g id="xtick_4">
     <g id="line2d_4">
      <g>
       <use style="stroke:#000000;stroke-width:0.8;" x="273.779167" xlink:href="#m3140270c5e" y="232.8"/>
      </g>
     </g>
     <g id="text_4">
      <!-- 0.00100 -->
      <g transform="translate(249.404167 250.215625)scale(0.15 -0.15)">
       <defs>
        <path d="M 11.71875 59.71875 
L 27.828125 67.578125 
L 29.4375 67.578125 
L 29.4375 11.671875 
Q 29.4375 6.109375 29.90625 4.734375 
Q 30.375 3.375 31.828125 2.640625 
Q 33.296875 1.90625 37.796875 1.8125 
L 37.796875 0 
L 12.890625 0 
L 12.890625 1.8125 
Q 17.578125 1.90625 18.9375 2.609375 
Q 20.3125 3.328125 20.84375 4.515625 
Q 21.390625 5.71875 21.390625 11.671875 
L 21.390625 47.40625 
Q 21.390625 54.640625 20.90625 56.6875 
Q 20.5625 58.25 19.65625 58.984375 
Q 18.75 59.71875 17.484375 59.71875 
Q 15.671875 59.71875 12.453125 58.203125 
z
" id="TimesNewRomanPSMT-49"/>
       </defs>
       <use xlink:href="#TimesNewRomanPSMT-48"/>
       <use x="50" xlink:href="#TimesNewRomanPSMT-46"/>
       <use x="75" xlink:href="#TimesNewRomanPSMT-48"/>
       <use x="125" xlink:href="#TimesNewRomanPSMT-48"/>
       <use x="175" xlink:href="#TimesNewRomanPSMT-49"/>
       <use x="225" xlink:href="#TimesNewRomanPSMT-48"/>
       <use x="275" xlink:href="#TimesNewRomanPSMT-48"/>
      </g>
     </g>
    </g>
    <g id="xtick_5">
     <g id="line2d_5">
      <g>
       <use style="stroke:#000000;stroke-width:0.8;" x="330.5875" xlink:href="#m3140270c5e" y="232.8"/>
      </g>
     </g>
     <g id="text_5">
      <!-- 0.00133 -->
      <g transform="translate(306.2125 250.215625)scale(0.15 -0.15)">
       <use xlink:href="#TimesNewRomanPSMT-48"/>
       <use x="50" xlink:href="#TimesNewRomanPSMT-46"/>
       <use x="75" xlink:href="#TimesNewRomanPSMT-48"/>
       <use x="125" xlink:href="#TimesNewRomanPSMT-48"/>
       <use x="175" xlink:href="#TimesNewRomanPSMT-49"/>
       <use x="225" xlink:href="#TimesNewRomanPSMT-51"/>
       <use x="275" xlink:href="#TimesNewRomanPSMT-51"/>
      </g>
     </g>
    </g>
    <g id="xtick_6">
     <g id="line2d_6">
      <g>
       <use style="stroke:#000000;stroke-width:0.8;" x="387.395833" xlink:href="#m3140270c5e" y="232.8"/>
      </g>
     </g>
     <g id="text_6">
      <!-- 0.00167 -->
      <g transform="translate(363.020833 250.215625)scale(0.15 -0.15)">
       <use xlink:href="#TimesNewRomanPSMT-48"/>
       <use x="50" xlink:href="#TimesNewRomanPSMT-46"/>
       <use x="75" xlink:href="#TimesNewRomanPSMT-48"/>
       <use x="125" xlink:href="#TimesNewRomanPSMT-48"/>
       <use x="175" xlink:href="#TimesNewRomanPSMT-49"/>
       <use x="225" xlink:href="#TimesNewRomanPSMT-54"/>
       <use x="275" xlink:href="#TimesNewRomanPSMT-55"/>
      </g>
     </g>
    </g>
    <g id="text_7">
     <!-- Noise standard deviation -->
     <g transform="translate(170.808594 267.839844)scale(0.15 -0.15)">
      <defs>
       <path d="M -1.3125 66.21875 
L 16.65625 66.21875 
L 57.125 16.546875 
L 57.125 54.734375 
Q 57.125 60.84375 55.765625 62.359375 
Q 53.953125 64.40625 50.046875 64.40625 
L 47.75 64.40625 
L 47.75 66.21875 
L 70.796875 66.21875 
L 70.796875 64.40625 
L 68.453125 64.40625 
Q 64.265625 64.40625 62.5 61.859375 
Q 61.421875 60.296875 61.421875 54.734375 
L 61.421875 -1.078125 
L 59.671875 -1.078125 
L 16.015625 52.25 
L 16.015625 11.46875 
Q 16.015625 5.375 17.328125 3.859375 
Q 19.1875 1.8125 23.046875 1.8125 
L 25.390625 1.8125 
L 25.390625 0 
L 2.34375 0 
L 2.34375 1.8125 
L 4.640625 1.8125 
Q 8.890625 1.8125 10.640625 4.34375 
Q 11.71875 5.90625 11.71875 11.46875 
L 11.71875 57.515625 
Q 8.84375 60.890625 7.34375 61.953125 
Q 5.859375 63.03125 2.984375 63.96875 
Q 1.5625 64.40625 -1.3125 64.40625 
z
" id="TimesNewRomanPSMT-78"/>
       <path d="M 25 46.046875 
Q 35.15625 46.046875 41.3125 38.328125 
Q 46.53125 31.734375 46.53125 23.1875 
Q 46.53125 17.1875 43.640625 11.03125 
Q 40.765625 4.890625 35.71875 1.75 
Q 30.671875 -1.375 24.46875 -1.375 
Q 14.359375 -1.375 8.40625 6.6875 
Q 3.375 13.484375 3.375 21.921875 
Q 3.375 28.078125 6.421875 34.15625 
Q 9.46875 40.234375 14.453125 43.140625 
Q 19.4375 46.046875 25 46.046875 
z
M 23.484375 42.875 
Q 20.90625 42.875 18.28125 41.328125 
Q 15.671875 39.796875 14.0625 35.9375 
Q 12.453125 32.078125 12.453125 26.03125 
Q 12.453125 16.265625 16.328125 9.171875 
Q 20.21875 2.09375 26.5625 2.09375 
Q 31.296875 2.09375 34.375 6 
Q 37.453125 9.90625 37.453125 19.4375 
Q 37.453125 31.34375 32.328125 38.1875 
Q 28.859375 42.875 23.484375 42.875 
z
" id="TimesNewRomanPSMT-111"/>
       <path d="M 14.5 69.4375 
Q 16.546875 69.4375 17.984375 67.984375 
Q 19.4375 66.546875 19.4375 64.5 
Q 19.4375 62.453125 17.984375 60.984375 
Q 16.546875 59.515625 14.5 59.515625 
Q 12.453125 59.515625 10.984375 60.984375 
Q 9.515625 62.453125 9.515625 64.5 
Q 9.515625 66.546875 10.953125 67.984375 
Q 12.40625 69.4375 14.5 69.4375 
z
M 18.5625 46.046875 
L 18.5625 10.109375 
Q 18.5625 5.90625 19.171875 4.515625 
Q 19.78125 3.125 20.96875 2.4375 
Q 22.171875 1.765625 25.34375 1.765625 
L 25.34375 0 
L 3.609375 0 
L 3.609375 1.765625 
Q 6.890625 1.765625 8 2.390625 
Q 9.125 3.03125 9.78125 4.484375 
Q 10.453125 5.953125 10.453125 10.109375 
L 10.453125 27.34375 
Q 10.453125 34.625 10.015625 36.765625 
Q 9.671875 38.328125 8.9375 38.9375 
Q 8.203125 39.546875 6.9375 39.546875 
Q 5.5625 39.546875 3.609375 38.8125 
L 2.9375 40.578125 
L 16.40625 46.046875 
z
" id="TimesNewRomanPSMT-105"/>
       <path d="M 32.03125 46.046875 
L 32.03125 30.8125 
L 30.421875 30.8125 
Q 28.5625 37.984375 25.65625 40.578125 
Q 22.75 43.171875 18.265625 43.171875 
Q 14.84375 43.171875 12.734375 41.359375 
Q 10.640625 39.546875 10.640625 37.359375 
Q 10.640625 34.625 12.203125 32.671875 
Q 13.71875 30.671875 18.359375 28.421875 
L 25.484375 24.953125 
Q 35.40625 20.125 35.40625 12.203125 
Q 35.40625 6.109375 30.78125 2.359375 
Q 26.171875 -1.375 20.453125 -1.375 
Q 16.359375 -1.375 11.078125 0.09375 
Q 9.46875 0.59375 8.453125 0.59375 
Q 7.328125 0.59375 6.6875 -0.6875 
L 5.078125 -0.6875 
L 5.078125 15.28125 
L 6.6875 15.28125 
Q 8.0625 8.453125 11.90625 4.984375 
Q 15.765625 1.515625 20.5625 1.515625 
Q 23.921875 1.515625 26.046875 3.484375 
Q 28.171875 5.46875 28.171875 8.25 
Q 28.171875 11.625 25.796875 13.921875 
Q 23.4375 16.21875 16.359375 19.734375 
Q 9.28125 23.25 7.078125 26.078125 
Q 4.890625 28.859375 4.890625 33.109375 
Q 4.890625 38.625 8.671875 42.328125 
Q 12.453125 46.046875 18.453125 46.046875 
Q 21.09375 46.046875 24.859375 44.921875 
Q 27.34375 44.1875 28.171875 44.1875 
Q 28.953125 44.1875 29.390625 44.53125 
Q 29.828125 44.875 30.421875 46.046875 
z
" id="TimesNewRomanPSMT-115"/>
       <path d="M 10.640625 27.875 
Q 10.59375 17.921875 15.484375 12.25 
Q 20.359375 6.59375 26.953125 6.59375 
Q 31.34375 6.59375 34.59375 9 
Q 37.84375 11.421875 40.046875 17.28125 
L 41.546875 16.3125 
Q 40.53125 9.625 35.59375 4.125 
Q 30.671875 -1.375 23.25 -1.375 
Q 15.1875 -1.375 9.453125 4.90625 
Q 3.71875 11.1875 3.71875 21.78125 
Q 3.71875 33.25 9.59375 39.671875 
Q 15.484375 46.09375 24.359375 46.09375 
Q 31.890625 46.09375 36.71875 41.140625 
Q 41.546875 36.1875 41.546875 27.875 
z
M 10.640625 30.71875 
L 31.34375 30.71875 
Q 31.109375 35.015625 30.328125 36.765625 
Q 29.109375 39.5 26.6875 41.0625 
Q 24.265625 42.625 21.625 42.625 
Q 17.578125 42.625 14.375 39.46875 
Q 11.1875 36.328125 10.640625 30.71875 
z
" id="TimesNewRomanPSMT-101"/>
       <path id="TimesNewRomanPSMT-32"/>
       <path d="M 16.109375 59.421875 
L 16.109375 44.734375 
L 26.5625 44.734375 
L 26.5625 41.3125 
L 16.109375 41.3125 
L 16.109375 12.3125 
Q 16.109375 7.953125 17.359375 6.4375 
Q 18.609375 4.9375 20.5625 4.9375 
Q 22.171875 4.9375 23.6875 5.9375 
Q 25.203125 6.9375 26.03125 8.890625 
L 27.9375 8.890625 
Q 26.21875 4.109375 23.09375 1.6875 
Q 19.96875 -0.734375 16.65625 -0.734375 
Q 14.40625 -0.734375 12.25 0.515625 
Q 10.109375 1.765625 9.078125 4.078125 
Q 8.0625 6.390625 8.0625 11.234375 
L 8.0625 41.3125 
L 0.984375 41.3125 
L 0.984375 42.921875 
Q 3.65625 44 6.46875 46.5625 
Q 9.28125 49.125 11.46875 52.640625 
Q 12.59375 54.5 14.59375 59.421875 
z
" id="TimesNewRomanPSMT-116"/>
       <path d="M 28.46875 6.453125 
Q 21.578125 1.125 19.828125 0.296875 
Q 17.1875 -0.921875 14.203125 -0.921875 
Q 9.578125 -0.921875 6.5625 2.25 
Q 3.5625 5.421875 3.5625 10.59375 
Q 3.5625 13.875 5.03125 16.265625 
Q 7.03125 19.578125 11.984375 22.5 
Q 16.9375 25.4375 28.46875 29.640625 
L 28.46875 31.390625 
Q 28.46875 38.09375 26.34375 40.578125 
Q 24.21875 43.0625 20.171875 43.0625 
Q 17.09375 43.0625 15.28125 41.40625 
Q 13.421875 39.75 13.421875 37.59375 
L 13.53125 34.765625 
Q 13.53125 32.515625 12.375 31.296875 
Q 11.234375 30.078125 9.375 30.078125 
Q 7.5625 30.078125 6.421875 31.34375 
Q 5.28125 32.625 5.28125 34.8125 
Q 5.28125 39.015625 9.578125 42.53125 
Q 13.875 46.046875 21.625 46.046875 
Q 27.59375 46.046875 31.390625 44.046875 
Q 34.28125 42.53125 35.640625 39.3125 
Q 36.53125 37.203125 36.53125 30.71875 
L 36.53125 15.53125 
Q 36.53125 9.125 36.765625 7.6875 
Q 37.015625 6.25 37.578125 5.765625 
Q 38.140625 5.28125 38.875 5.28125 
Q 39.65625 5.28125 40.234375 5.609375 
Q 41.265625 6.25 44.1875 9.1875 
L 44.1875 6.453125 
Q 38.71875 -0.875 33.734375 -0.875 
Q 31.34375 -0.875 29.921875 0.78125 
Q 28.515625 2.4375 28.46875 6.453125 
z
M 28.46875 9.625 
L 28.46875 26.65625 
Q 21.09375 23.734375 18.953125 22.515625 
Q 15.09375 20.359375 13.421875 18.015625 
Q 11.765625 15.671875 11.765625 12.890625 
Q 11.765625 9.375 13.859375 7.046875 
Q 15.96875 4.734375 18.703125 4.734375 
Q 22.40625 4.734375 28.46875 9.625 
z
" id="TimesNewRomanPSMT-97"/>
       <path d="M 16.15625 36.578125 
Q 24.03125 46.046875 31.15625 46.046875 
Q 34.8125 46.046875 37.453125 44.21875 
Q 40.09375 42.390625 41.65625 38.1875 
Q 42.71875 35.25 42.71875 29.203125 
L 42.71875 10.109375 
Q 42.71875 5.859375 43.40625 4.34375 
Q 43.953125 3.125 45.140625 2.4375 
Q 46.34375 1.765625 49.5625 1.765625 
L 49.5625 0 
L 27.4375 0 
L 27.4375 1.765625 
L 28.375 1.765625 
Q 31.5 1.765625 32.734375 2.703125 
Q 33.984375 3.65625 34.46875 5.515625 
Q 34.671875 6.25 34.671875 10.109375 
L 34.671875 28.421875 
Q 34.671875 34.515625 33.078125 37.28125 
Q 31.5 40.046875 27.734375 40.046875 
Q 21.921875 40.046875 16.15625 33.6875 
L 16.15625 10.109375 
Q 16.15625 5.5625 16.703125 4.5 
Q 17.390625 3.078125 18.578125 2.421875 
Q 19.78125 1.765625 23.4375 1.765625 
L 23.4375 0 
L 1.3125 0 
L 1.3125 1.765625 
L 2.296875 1.765625 
Q 5.71875 1.765625 6.90625 3.484375 
Q 8.109375 5.21875 8.109375 10.109375 
L 8.109375 26.703125 
Q 8.109375 34.765625 7.734375 36.515625 
Q 7.375 38.28125 6.609375 38.90625 
Q 5.859375 39.546875 4.59375 39.546875 
Q 3.21875 39.546875 1.3125 38.8125 
L 0.59375 40.578125 
L 14.0625 46.046875 
L 16.15625 46.046875 
z
" id="TimesNewRomanPSMT-110"/>
       <path d="M 34.71875 5.03125 
Q 31.453125 1.609375 28.328125 0.109375 
Q 25.203125 -1.375 21.578125 -1.375 
Q 14.265625 -1.375 8.796875 4.75 
Q 3.328125 10.890625 3.328125 20.515625 
Q 3.328125 30.125 9.375 38.109375 
Q 15.4375 46.09375 24.953125 46.09375 
Q 30.859375 46.09375 34.71875 42.328125 
L 34.71875 50.59375 
Q 34.71875 58.25 34.34375 60 
Q 33.984375 61.765625 33.203125 62.390625 
Q 32.421875 63.03125 31.25 63.03125 
Q 29.984375 63.03125 27.875 62.25 
L 27.25 63.96875 
L 40.578125 69.4375 
L 42.78125 69.4375 
L 42.78125 17.71875 
Q 42.78125 9.859375 43.140625 8.125 
Q 43.5 6.390625 44.3125 5.703125 
Q 45.125 5.03125 46.1875 5.03125 
Q 47.515625 5.03125 49.703125 5.859375 
L 50.25 4.15625 
L 36.96875 -1.375 
L 34.71875 -1.375 
z
M 34.71875 8.453125 
L 34.71875 31.5 
Q 34.421875 34.8125 32.953125 37.546875 
Q 31.5 40.28125 29.078125 41.671875 
Q 26.65625 43.0625 24.359375 43.0625 
Q 20.0625 43.0625 16.703125 39.203125 
Q 12.25 34.125 12.25 24.359375 
Q 12.25 14.5 16.546875 9.25 
Q 20.84375 4 26.125 4 
Q 30.5625 4 34.71875 8.453125 
z
" id="TimesNewRomanPSMT-100"/>
       <path d="M 16.21875 46.046875 
L 16.21875 35.984375 
Q 21.828125 46.046875 27.734375 46.046875 
Q 30.421875 46.046875 32.171875 44.40625 
Q 33.9375 42.78125 33.9375 40.625 
Q 33.9375 38.71875 32.65625 37.390625 
Q 31.390625 36.078125 29.640625 36.078125 
Q 27.9375 36.078125 25.8125 37.765625 
Q 23.6875 39.453125 22.65625 39.453125 
Q 21.78125 39.453125 20.75 38.484375 
Q 18.5625 36.46875 16.21875 31.890625 
L 16.21875 10.453125 
Q 16.21875 6.734375 17.140625 4.828125 
Q 17.78125 3.515625 19.390625 2.640625 
Q 21 1.765625 24.03125 1.765625 
L 24.03125 0 
L 1.125 0 
L 1.125 1.765625 
Q 4.546875 1.765625 6.203125 2.828125 
Q 7.421875 3.609375 7.90625 5.328125 
Q 8.15625 6.15625 8.15625 10.0625 
L 8.15625 27.390625 
Q 8.15625 35.203125 7.828125 36.6875 
Q 7.515625 38.1875 6.65625 38.859375 
Q 5.8125 39.546875 4.546875 39.546875 
Q 3.03125 39.546875 1.125 38.8125 
L 0.640625 40.578125 
L 14.15625 46.046875 
z
" id="TimesNewRomanPSMT-114"/>
       <path d="M 0.828125 44.734375 
L 21.875 44.734375 
L 21.875 42.921875 
L 20.515625 42.921875 
Q 18.609375 42.921875 17.609375 41.984375 
Q 16.609375 41.0625 16.609375 39.5 
Q 16.609375 37.796875 17.625 35.453125 
L 28.03125 10.75 
L 38.484375 36.375 
Q 39.59375 39.109375 39.59375 40.53125 
Q 39.59375 41.21875 39.203125 41.65625 
Q 38.671875 42.390625 37.84375 42.65625 
Q 37.015625 42.921875 34.46875 42.921875 
L 34.46875 44.734375 
L 49.078125 44.734375 
L 49.078125 42.921875 
Q 46.53125 42.71875 45.5625 41.890625 
Q 43.84375 40.4375 42.484375 37.015625 
L 26.609375 -1.375 
L 24.609375 -1.375 
L 8.640625 36.375 
Q 7.5625 39.015625 6.578125 40.15625 
Q 5.609375 41.3125 4.109375 42.09375 
Q 3.265625 42.53125 0.828125 42.921875 
z
" id="TimesNewRomanPSMT-118"/>
      </defs>
      <use xlink:href="#TimesNewRomanPSMT-78"/>
      <use x="72.216797" xlink:href="#TimesNewRomanPSMT-111"/>
      <use x="122.216797" xlink:href="#TimesNewRomanPSMT-105"/>
      <use x="150" xlink:href="#TimesNewRomanPSMT-115"/>
      <use x="188.916016" xlink:href="#TimesNewRomanPSMT-101"/>
      <use x="233.300781" xlink:href="#TimesNewRomanPSMT-32"/>
      <use x="258.300781" xlink:href="#TimesNewRomanPSMT-115"/>
      <use x="297.216797" xlink:href="#TimesNewRomanPSMT-116"/>
      <use x="325" xlink:href="#TimesNewRomanPSMT-97"/>
      <use x="369.384766" xlink:href="#TimesNewRomanPSMT-110"/>
      <use x="419.384766" xlink:href="#TimesNewRomanPSMT-100"/>
      <use x="469.384766" xlink:href="#TimesNewRomanPSMT-97"/>
      <use x="513.769531" xlink:href="#TimesNewRomanPSMT-114"/>
      <use x="547.070312" xlink:href="#TimesNewRomanPSMT-100"/>
      <use x="597.070312" xlink:href="#TimesNewRomanPSMT-32"/>
      <use x="622.070312" xlink:href="#TimesNewRomanPSMT-100"/>
      <use x="672.070312" xlink:href="#TimesNewRomanPSMT-101"/>
      <use x="716.455078" xlink:href="#TimesNewRomanPSMT-118"/>
      <use x="766.455078" xlink:href="#TimesNewRomanPSMT-105"/>
      <use x="794.238281" xlink:href="#TimesNewRomanPSMT-97"/>
      <use x="838.623047" xlink:href="#TimesNewRomanPSMT-116"/>
      <use x="866.40625" xlink:href="#TimesNewRomanPSMT-105"/>
      <use x="894.189453" xlink:href="#TimesNewRomanPSMT-111"/>
      <use x="944.189453" xlink:href="#TimesNewRomanPSMT-110"/>
     </g>
    </g>
   </g>
   <g id="matplotlib.axis_2">
    <g id="ytick_1">
     <g id="line2d_7">
      <defs>
       <path d="M 0 0 
L -3.5 0 
" id="m871b87a9cf" style="stroke:#000000;stroke-width:0.8;"/>
      </defs>
      <g>
       <use style="stroke:#000000;stroke-width:0.8;" x="74.95" xlink:href="#m871b87a9cf" y="191.125807"/>
      </g>
     </g>
     <g id="text_8">
      <!-- 0.810 -->
      <g transform="translate(34.2 196.333619)scale(0.15 -0.15)">
       <defs>
        <path d="M 19.1875 33.34375 
Q 11.328125 39.796875 9.046875 43.703125 
Q 6.78125 47.609375 6.78125 51.8125 
Q 6.78125 58.25 11.765625 62.90625 
Q 16.75 67.578125 25 67.578125 
Q 33.015625 67.578125 37.890625 63.234375 
Q 42.78125 58.890625 42.78125 53.328125 
Q 42.78125 49.609375 40.140625 45.75 
Q 37.5 41.890625 29.15625 36.671875 
Q 37.75 30.03125 40.53125 26.21875 
Q 44.234375 21.234375 44.234375 15.71875 
Q 44.234375 8.734375 38.90625 3.78125 
Q 33.59375 -1.171875 24.953125 -1.171875 
Q 15.53125 -1.171875 10.25 4.734375 
Q 6.0625 9.46875 6.0625 15.09375 
Q 6.0625 19.484375 9.015625 23.796875 
Q 11.96875 28.125 19.1875 33.34375 
z
M 26.859375 38.578125 
Q 32.71875 43.84375 34.28125 46.890625 
Q 35.84375 49.953125 35.84375 53.8125 
Q 35.84375 58.9375 32.953125 61.84375 
Q 30.078125 64.75 25.09375 64.75 
Q 20.125 64.75 17 61.859375 
Q 13.875 58.984375 13.875 55.125 
Q 13.875 52.59375 15.15625 50.046875 
Q 16.453125 47.515625 18.84375 45.21875 
z
M 21.484375 31.5 
Q 17.4375 28.078125 15.484375 24.046875 
Q 13.53125 20.015625 13.53125 15.328125 
Q 13.53125 9.03125 16.96875 5.25 
Q 20.40625 1.46875 25.734375 1.46875 
Q 31 1.46875 34.171875 4.4375 
Q 37.359375 7.421875 37.359375 11.671875 
Q 37.359375 15.1875 35.5 17.96875 
Q 32.03125 23.140625 21.484375 31.5 
z
" id="TimesNewRomanPSMT-56"/>
       </defs>
       <use xlink:href="#TimesNewRomanPSMT-48"/>
       <use x="50" xlink:href="#TimesNewRomanPSMT-46"/>
       <use x="75" xlink:href="#TimesNewRomanPSMT-56"/>
       <use x="125" xlink:href="#TimesNewRomanPSMT-49"/>
       <use x="175" xlink:href="#TimesNewRomanPSMT-48"/>
      </g>
     </g>
    </g>
    <g id="ytick_2">
     <g id="line2d_8">
      <g>
       <use style="stroke:#000000;stroke-width:0.8;" x="74.95" xlink:href="#m871b87a9cf" y="141.346921"/>
      </g>
     </g>
     <g id="text_9">
      <!-- 0.815 -->
      <g transform="translate(34.2 146.554734)scale(0.15 -0.15)">
       <defs>
        <path d="M 43.40625 66.21875 
L 39.59375 57.90625 
L 19.671875 57.90625 
L 15.328125 49.03125 
Q 28.265625 47.125 35.84375 39.40625 
Q 42.328125 32.765625 42.328125 23.78125 
Q 42.328125 18.5625 40.203125 14.109375 
Q 38.09375 9.671875 34.859375 6.546875 
Q 31.640625 3.421875 27.6875 1.515625 
Q 22.078125 -1.171875 16.15625 -1.171875 
Q 10.203125 -1.171875 7.484375 0.84375 
Q 4.78125 2.875 4.78125 5.328125 
Q 4.78125 6.6875 5.90625 7.734375 
Q 7.03125 8.796875 8.734375 8.796875 
Q 10.015625 8.796875 10.96875 8.40625 
Q 11.921875 8.015625 14.203125 6.390625 
Q 17.875 3.859375 21.625 3.859375 
Q 27.34375 3.859375 31.65625 8.171875 
Q 35.984375 12.5 35.984375 18.703125 
Q 35.984375 24.703125 32.125 29.90625 
Q 28.265625 35.109375 21.484375 37.9375 
Q 16.15625 40.140625 6.984375 40.484375 
L 19.671875 66.21875 
z
" id="TimesNewRomanPSMT-53"/>
       </defs>
       <use xlink:href="#TimesNewRomanPSMT-48"/>
       <use x="50" xlink:href="#TimesNewRomanPSMT-46"/>
       <use x="75" xlink:href="#TimesNewRomanPSMT-56"/>
       <use x="125" xlink:href="#TimesNewRomanPSMT-49"/>
       <use x="175" xlink:href="#TimesNewRomanPSMT-53"/>
      </g>
     </g>
    </g>
    <g id="ytick_3">
     <g id="line2d_9">
      <g>
       <use style="stroke:#000000;stroke-width:0.8;" x="74.95" xlink:href="#m871b87a9cf" y="91.568036"/>
      </g>
     </g>
     <g id="text_10">
      <!-- 0.820 -->
      <g transform="translate(34.2 96.775848)scale(0.15 -0.15)">
       <defs>
        <path d="M 45.84375 12.75 
L 41.21875 0 
L 2.15625 0 
L 2.15625 1.8125 
Q 19.390625 17.53125 26.421875 27.484375 
Q 33.453125 37.453125 33.453125 45.703125 
Q 33.453125 52 29.59375 56.046875 
Q 25.734375 60.109375 20.359375 60.109375 
Q 15.484375 60.109375 11.59375 57.25 
Q 7.71875 54.390625 5.859375 48.875 
L 4.046875 48.875 
Q 5.28125 57.90625 10.328125 62.734375 
Q 15.375 67.578125 22.953125 67.578125 
Q 31 67.578125 36.390625 62.40625 
Q 41.796875 57.234375 41.796875 50.203125 
Q 41.796875 45.171875 39.453125 40.140625 
Q 35.84375 32.234375 27.734375 23.390625 
Q 15.578125 10.109375 12.546875 7.375 
L 29.828125 7.375 
Q 35.109375 7.375 37.234375 7.765625 
Q 39.359375 8.15625 41.0625 9.34375 
Q 42.78125 10.546875 44.046875 12.75 
z
" id="TimesNewRomanPSMT-50"/>
       </defs>
       <use xlink:href="#TimesNewRomanPSMT-48"/>
       <use x="50" xlink:href="#TimesNewRomanPSMT-46"/>
       <use x="75" xlink:href="#TimesNewRomanPSMT-56"/>
       <use x="125" xlink:href="#TimesNewRomanPSMT-50"/>
       <use x="175" xlink:href="#TimesNewRomanPSMT-48"/>
      </g>
     </g>
    </g>
    <g id="ytick_4">
     <g id="line2d_10">
      <g>
       <use style="stroke:#000000;stroke-width:0.8;" x="74.95" xlink:href="#m871b87a9cf" y="41.78915"/>
      </g>
     </g>
     <g id="text_11">
      <!-- 0.825 -->
      <g transform="translate(34.2 46.996962)scale(0.15 -0.15)">
       <use xlink:href="#TimesNewRomanPSMT-48"/>
       <use x="50" xlink:href="#TimesNewRomanPSMT-46"/>
       <use x="75" xlink:href="#TimesNewRomanPSMT-56"/>
       <use x="125" xlink:href="#TimesNewRomanPSMT-50"/>
       <use x="175" xlink:href="#TimesNewRomanPSMT-53"/>
      </g>
     </g>
    </g>
    <g id="text_12">
     <!-- Best function evaluation -->
     <g transform="translate(26.991406 197.817187)rotate(-90)scale(0.15 -0.15)">
      <defs>
       <path d="M 46.1875 33.796875 
Q 53.078125 32.328125 56.5 29.109375 
Q 61.234375 24.609375 61.234375 18.109375 
Q 61.234375 13.1875 58.109375 8.671875 
Q 54.984375 4.15625 49.53125 2.078125 
Q 44.09375 0 32.90625 0 
L 1.65625 0 
L 1.65625 1.8125 
L 4.15625 1.8125 
Q 8.296875 1.8125 10.109375 4.4375 
Q 11.234375 6.15625 11.234375 11.71875 
L 11.234375 54.5 
Q 11.234375 60.640625 9.8125 62.25 
Q 7.90625 64.40625 4.15625 64.40625 
L 1.65625 64.40625 
L 1.65625 66.21875 
L 30.28125 66.21875 
Q 38.28125 66.21875 43.109375 65.046875 
Q 50.4375 63.28125 54.296875 58.8125 
Q 58.15625 54.34375 58.15625 48.53125 
Q 58.15625 43.5625 55.125 39.625 
Q 52.09375 35.6875 46.1875 33.796875 
z
M 20.609375 36.421875 
Q 22.40625 36.078125 24.71875 35.90625 
Q 27.046875 35.75 29.828125 35.75 
Q 36.96875 35.75 40.546875 37.28125 
Q 44.140625 38.8125 46.046875 41.984375 
Q 47.953125 45.171875 47.953125 48.921875 
Q 47.953125 54.734375 43.21875 58.828125 
Q 38.484375 62.9375 29.390625 62.9375 
Q 24.515625 62.9375 20.609375 61.859375 
z
M 20.609375 4.78125 
Q 26.265625 3.46875 31.78125 3.46875 
Q 40.625 3.46875 45.265625 7.4375 
Q 49.90625 11.421875 49.90625 17.28125 
Q 49.90625 21.140625 47.796875 24.703125 
Q 45.703125 28.265625 40.96875 30.3125 
Q 36.234375 32.375 29.25 32.375 
Q 26.21875 32.375 24.0625 32.265625 
Q 21.921875 32.171875 20.609375 31.9375 
z
" id="TimesNewRomanPSMT-66"/>
       <path d="M 20.609375 41.21875 
L 20.609375 11.8125 
Q 20.609375 5.5625 21.96875 3.90625 
Q 23.78125 1.765625 26.8125 1.765625 
L 30.859375 1.765625 
L 30.859375 0 
L 4.15625 0 
L 4.15625 1.765625 
L 6.15625 1.765625 
Q 8.109375 1.765625 9.71875 2.734375 
Q 11.328125 3.71875 11.9375 5.375 
Q 12.546875 7.03125 12.546875 11.8125 
L 12.546875 41.21875 
L 3.859375 41.21875 
L 3.859375 44.734375 
L 12.546875 44.734375 
L 12.546875 47.65625 
Q 12.546875 54.34375 14.6875 58.984375 
Q 16.84375 63.625 21.265625 66.484375 
Q 25.6875 69.34375 31.203125 69.34375 
Q 36.328125 69.34375 40.625 66.015625 
Q 43.453125 63.8125 43.453125 61.078125 
Q 43.453125 59.625 42.1875 58.328125 
Q 40.921875 57.03125 39.453125 57.03125 
Q 38.328125 57.03125 37.078125 57.828125 
Q 35.84375 58.640625 34.03125 61.296875 
Q 32.234375 63.96875 30.71875 64.890625 
Q 29.203125 65.828125 27.34375 65.828125 
Q 25.09375 65.828125 23.53125 64.625 
Q 21.96875 63.421875 21.28125 60.90625 
Q 20.609375 58.40625 20.609375 47.953125 
L 20.609375 44.734375 
L 32.125 44.734375 
L 32.125 41.21875 
z
" id="TimesNewRomanPSMT-102"/>
       <path d="M 42.328125 44.734375 
L 42.328125 17.625 
Q 42.328125 9.859375 42.6875 8.125 
Q 43.0625 6.390625 43.859375 5.703125 
Q 44.671875 5.03125 45.75 5.03125 
Q 47.265625 5.03125 49.171875 5.859375 
L 49.859375 4.15625 
L 36.46875 -1.375 
L 34.28125 -1.375 
L 34.28125 8.109375 
Q 28.515625 1.859375 25.484375 0.234375 
Q 22.46875 -1.375 19.09375 -1.375 
Q 15.328125 -1.375 12.5625 0.796875 
Q 9.8125 2.984375 8.734375 6.390625 
Q 7.671875 9.8125 7.671875 16.0625 
L 7.671875 36.03125 
Q 7.671875 39.203125 6.984375 40.421875 
Q 6.296875 41.65625 4.953125 42.3125 
Q 3.609375 42.96875 0.09375 42.921875 
L 0.09375 44.734375 
L 15.765625 44.734375 
L 15.765625 14.796875 
Q 15.765625 8.546875 17.9375 6.59375 
Q 20.125 4.640625 23.1875 4.640625 
Q 25.296875 4.640625 27.953125 5.953125 
Q 30.609375 7.28125 34.28125 10.984375 
L 34.28125 36.328125 
Q 34.28125 40.140625 32.890625 41.484375 
Q 31.5 42.828125 27.09375 42.921875 
L 27.09375 44.734375 
z
" id="TimesNewRomanPSMT-117"/>
       <path d="M 41.109375 17 
Q 39.3125 8.15625 34.03125 3.390625 
Q 28.765625 -1.375 22.359375 -1.375 
Q 14.75 -1.375 9.078125 5.015625 
Q 3.421875 11.421875 3.421875 22.3125 
Q 3.421875 32.859375 9.6875 39.453125 
Q 15.96875 46.046875 24.75 46.046875 
Q 31.34375 46.046875 35.59375 42.546875 
Q 39.84375 39.0625 39.84375 35.296875 
Q 39.84375 33.453125 38.640625 32.296875 
Q 37.453125 31.15625 35.296875 31.15625 
Q 32.421875 31.15625 30.953125 33.015625 
Q 30.125 34.03125 29.859375 36.90625 
Q 29.59375 39.796875 27.875 41.3125 
Q 26.171875 42.78125 23.140625 42.78125 
Q 18.265625 42.78125 15.28125 39.15625 
Q 11.328125 34.375 11.328125 26.515625 
Q 11.328125 18.5 15.25 12.375 
Q 19.1875 6.25 25.875 6.25 
Q 30.671875 6.25 34.46875 9.515625 
Q 37.15625 11.765625 39.703125 17.671875 
z
" id="TimesNewRomanPSMT-99"/>
       <path d="M 18.5 69.4375 
L 18.5 10.109375 
Q 18.5 5.90625 19.109375 4.53125 
Q 19.734375 3.171875 21 2.46875 
Q 22.265625 1.765625 25.734375 1.765625 
L 25.734375 0 
L 3.8125 0 
L 3.8125 1.765625 
Q 6.890625 1.765625 8 2.390625 
Q 9.125 3.03125 9.765625 4.484375 
Q 10.40625 5.953125 10.40625 10.109375 
L 10.40625 50.734375 
Q 10.40625 58.296875 10.0625 60.03125 
Q 9.71875 61.765625 8.953125 62.390625 
Q 8.203125 63.03125 7.03125 63.03125 
Q 5.765625 63.03125 3.8125 62.25 
L 2.984375 63.96875 
L 16.3125 69.4375 
z
" id="TimesNewRomanPSMT-108"/>
      </defs>
      <use xlink:href="#TimesNewRomanPSMT-66"/>
      <use x="66.699219" xlink:href="#TimesNewRomanPSMT-101"/>
      <use x="111.083984" xlink:href="#TimesNewRomanPSMT-115"/>
      <use x="150" xlink:href="#TimesNewRomanPSMT-116"/>
      <use x="177.783203" xlink:href="#TimesNewRomanPSMT-32"/>
      <use x="202.783203" xlink:href="#TimesNewRomanPSMT-102"/>
      <use x="236.083984" xlink:href="#TimesNewRomanPSMT-117"/>
      <use x="286.083984" xlink:href="#TimesNewRomanPSMT-110"/>
      <use x="336.083984" xlink:href="#TimesNewRomanPSMT-99"/>
      <use x="380.46875" xlink:href="#TimesNewRomanPSMT-116"/>
      <use x="408.251953" xlink:href="#TimesNewRomanPSMT-105"/>
      <use x="436.035156" xlink:href="#TimesNewRomanPSMT-111"/>
      <use x="486.035156" xlink:href="#TimesNewRomanPSMT-110"/>
      <use x="536.035156" xlink:href="#TimesNewRomanPSMT-32"/>
      <use x="561.035156" xlink:href="#TimesNewRomanPSMT-101"/>
      <use x="605.419922" xlink:href="#TimesNewRomanPSMT-118"/>
      <use x="655.419922" xlink:href="#TimesNewRomanPSMT-97"/>
      <use x="699.804688" xlink:href="#TimesNewRomanPSMT-108"/>
      <use x="727.587891" xlink:href="#TimesNewRomanPSMT-117"/>
      <use x="777.587891" xlink:href="#TimesNewRomanPSMT-97"/>
      <use x="821.972656" xlink:href="#TimesNewRomanPSMT-116"/>
      <use x="849.755859" xlink:href="#TimesNewRomanPSMT-105"/>
      <use x="877.539062" xlink:href="#TimesNewRomanPSMT-111"/>
      <use x="927.539062" xlink:href="#TimesNewRomanPSMT-110"/>
     </g>
    </g>
   </g>
   <g id="line2d_11">
    <path clip-path="url(#p541e6809ad)" d="M 86.311667 144.303938 
L 86.311667 149.03774 
" style="fill:none;stroke:#545454;stroke-linecap:square;stroke-width:1.5;"/>
   </g>
   <g id="line2d_12">
    <path clip-path="url(#p541e6809ad)" d="M 86.311667 118.267736 
L 86.311667 85.443926 
" style="fill:none;stroke:#545454;stroke-linecap:square;stroke-width:1.5;"/>
   </g>
   <g id="line2d_13">
    <path clip-path="url(#p541e6809ad)" d="M 83.528058 149.03774 
L 89.095275 149.03774 
" style="fill:none;stroke:#545454;stroke-linecap:square;stroke-width:1.5;"/>
   </g>
   <g id="line2d_14">
    <path clip-path="url(#p541e6809ad)" d="M 83.528058 85.443926 
L 89.095275 85.443926 
" style="fill:none;stroke:#545454;stroke-linecap:square;stroke-width:1.5;"/>
   </g>
   <g id="line2d_15">
    <defs>
     <path d="M 0 3.535534 
L 2.12132 0 
L 0 -3.535534 
L -2.12132 0 
z
" id="md3e6aaf27b" style="stroke:#545454;stroke-linejoin:miter;"/>
    </defs>
    <g clip-path="url(#p541e6809ad)">
     <use style="fill:#545454;stroke:#545454;stroke-linejoin:miter;" x="86.311667" xlink:href="#md3e6aaf27b" y="49.318542"/>
    </g>
   </g>
   <g id="line2d_16">
    <path clip-path="url(#p541e6809ad)" d="M 97.673333 148.648795 
L 97.673333 148.648795 
" style="fill:none;stroke:#545454;stroke-linecap:square;stroke-width:1.5;"/>
   </g>
   <g id="line2d_17">
    <path clip-path="url(#p541e6809ad)" d="M 97.673333 148.648795 
L 97.673333 148.648795 
" style="fill:none;stroke:#545454;stroke-linecap:square;stroke-width:1.5;"/>
   </g>
   <g id="line2d_18">
    <path clip-path="url(#p541e6809ad)" d="M 94.889725 148.648795 
L 100.456942 148.648795 
" style="fill:none;stroke:#545454;stroke-linecap:square;stroke-width:1.5;"/>
   </g>
   <g id="line2d_19">
    <path clip-path="url(#p541e6809ad)" d="M 94.889725 148.648795 
L 100.456942 148.648795 
" style="fill:none;stroke:#545454;stroke-linecap:square;stroke-width:1.5;"/>
   </g>
   <g id="line2d_20"/>
   <g id="line2d_21">
    <path clip-path="url(#p541e6809ad)" d="M 109.035 142.815564 
L 109.035 151.075467 
" style="fill:none;stroke:#545454;stroke-linecap:square;stroke-width:1.5;"/>
   </g>
   <g id="line2d_22">
    <path clip-path="url(#p541e6809ad)" d="M 109.035 96.84064 
L 109.035 61.832071 
" style="fill:none;stroke:#545454;stroke-linecap:square;stroke-width:1.5;"/>
   </g>
   <g id="line2d_23">
    <path clip-path="url(#p541e6809ad)" d="M 106.251392 151.075467 
L 111.818608 151.075467 
" style="fill:none;stroke:#545454;stroke-linecap:square;stroke-width:1.5;"/>
   </g>
   <g id="line2d_24">
    <path clip-path="url(#p541e6809ad)" d="M 106.251392 61.832071 
L 111.818608 61.832071 
" style="fill:none;stroke:#545454;stroke-linecap:square;stroke-width:1.5;"/>
   </g>
   <g id="line2d_25">
    <g clip-path="url(#p541e6809ad)">
     <use style="fill:#545454;stroke:#545454;stroke-linejoin:miter;" x="109.035" xlink:href="#md3e6aaf27b" y="26.045455"/>
    </g>
   </g>
   <g id="line2d_26">
    <path clip-path="url(#p541e6809ad)" d="M 120.396667 151.634607 
L 120.396667 151.690091 
" style="fill:none;stroke:#545454;stroke-linecap:square;stroke-width:1.5;"/>
   </g>
   <g id="line2d_27">
    <path clip-path="url(#p541e6809ad)" d="M 120.396667 151.378105 
L 120.396667 151.01301 
" style="fill:none;stroke:#545454;stroke-linecap:square;stroke-width:1.5;"/>
   </g>
   <g id="line2d_28">
    <path clip-path="url(#p541e6809ad)" d="M 117.613058 151.690091 
L 123.180275 151.690091 
" style="fill:none;stroke:#545454;stroke-linecap:square;stroke-width:1.5;"/>
   </g>
   <g id="line2d_29">
    <path clip-path="url(#p541e6809ad)" d="M 117.613058 151.01301 
L 123.180275 151.01301 
" style="fill:none;stroke:#545454;stroke-linecap:square;stroke-width:1.5;"/>
   </g>
   <g id="line2d_30">
    <g clip-path="url(#p541e6809ad)">
     <use style="fill:#545454;stroke:#545454;stroke-linejoin:miter;" x="120.396667" xlink:href="#md3e6aaf27b" y="150.989867"/>
     <use style="fill:#545454;stroke:#545454;stroke-linejoin:miter;" x="120.396667" xlink:href="#md3e6aaf27b" y="150.233268"/>
    </g>
   </g>
   <g id="line2d_31">
    <path clip-path="url(#p541e6809ad)" d="M 143.12 138.809707 
L 143.12 150.842429 
" style="fill:none;stroke:#545454;stroke-linecap:square;stroke-width:1.5;"/>
   </g>
   <g id="line2d_32">
    <path clip-path="url(#p541e6809ad)" d="M 143.12 119.017743 
L 143.12 96.996912 
" style="fill:none;stroke:#545454;stroke-linecap:square;stroke-width:1.5;"/>
   </g>
   <g id="line2d_33">
    <path clip-path="url(#p541e6809ad)" d="M 140.336392 150.842429 
L 145.903608 150.842429 
" style="fill:none;stroke:#545454;stroke-linecap:square;stroke-width:1.5;"/>
   </g>
   <g id="line2d_34">
    <path clip-path="url(#p541e6809ad)" d="M 140.336392 96.996912 
L 145.903608 96.996912 
" style="fill:none;stroke:#545454;stroke-linecap:square;stroke-width:1.5;"/>
   </g>
   <g id="line2d_35"/>
   <g id="line2d_36">
    <path clip-path="url(#p541e6809ad)" d="M 154.481667 152.041088 
L 154.481667 153.98431 
" style="fill:none;stroke:#545454;stroke-linecap:square;stroke-width:1.5;"/>
   </g>
   <g id="line2d_37">
    <path clip-path="url(#p541e6809ad)" d="M 154.481667 147.011475 
L 154.481667 139.689286 
" style="fill:none;stroke:#545454;stroke-linecap:square;stroke-width:1.5;"/>
   </g>
   <g id="line2d_38">
    <path clip-path="url(#p541e6809ad)" d="M 151.698058 153.98431 
L 157.265275 153.98431 
" style="fill:none;stroke:#545454;stroke-linecap:square;stroke-width:1.5;"/>
   </g>
   <g id="line2d_39">
    <path clip-path="url(#p541e6809ad)" d="M 151.698058 139.689286 
L 157.265275 139.689286 
" style="fill:none;stroke:#545454;stroke-linecap:square;stroke-width:1.5;"/>
   </g>
   <g id="line2d_40">
    <g clip-path="url(#p541e6809ad)">
     <use style="fill:#545454;stroke:#545454;stroke-linejoin:miter;" x="154.481667" xlink:href="#md3e6aaf27b" y="160.739369"/>
    </g>
   </g>
   <g id="line2d_41">
    <path clip-path="url(#p541e6809ad)" d="M 165.843333 144.47017 
L 165.843333 150.407517 
" style="fill:none;stroke:#545454;stroke-linecap:square;stroke-width:1.5;"/>
   </g>
   <g id="line2d_42">
    <path clip-path="url(#p541e6809ad)" d="M 165.843333 98.18959 
L 165.843333 30.047322 
" style="fill:none;stroke:#545454;stroke-linecap:square;stroke-width:1.5;"/>
   </g>
   <g id="line2d_43">
    <path clip-path="url(#p541e6809ad)" d="M 163.059725 150.407517 
L 168.626942 150.407517 
" style="fill:none;stroke:#545454;stroke-linecap:square;stroke-width:1.5;"/>
   </g>
   <g id="line2d_44">
    <path clip-path="url(#p541e6809ad)" d="M 163.059725 30.047322 
L 168.626942 30.047322 
" style="fill:none;stroke:#545454;stroke-linecap:square;stroke-width:1.5;"/>
   </g>
   <g id="line2d_45"/>
   <g id="line2d_46">
    <path clip-path="url(#p541e6809ad)" d="M 177.205 157.794802 
L 177.205 162.64623 
" style="fill:none;stroke:#545454;stroke-linecap:square;stroke-width:1.5;"/>
   </g>
   <g id="line2d_47">
    <path clip-path="url(#p541e6809ad)" d="M 177.205 154.384323 
L 177.205 150.137729 
" style="fill:none;stroke:#545454;stroke-linecap:square;stroke-width:1.5;"/>
   </g>
   <g id="line2d_48">
    <path clip-path="url(#p541e6809ad)" d="M 174.421392 162.64623 
L 179.988608 162.64623 
" style="fill:none;stroke:#545454;stroke-linecap:square;stroke-width:1.5;"/>
   </g>
   <g id="line2d_49">
    <path clip-path="url(#p541e6809ad)" d="M 174.421392 150.137729 
L 179.988608 150.137729 
" style="fill:none;stroke:#545454;stroke-linecap:square;stroke-width:1.5;"/>
   </g>
   <g id="line2d_50">
    <g clip-path="url(#p541e6809ad)">
     <use style="fill:#545454;stroke:#545454;stroke-linejoin:miter;" x="177.205" xlink:href="#md3e6aaf27b" y="145.738183"/>
    </g>
   </g>
   <g id="line2d_51">
    <path clip-path="url(#p541e6809ad)" d="M 199.928333 137.741865 
L 199.928333 153.615651 
" style="fill:none;stroke:#545454;stroke-linecap:square;stroke-width:1.5;"/>
   </g>
   <g id="line2d_52">
    <path clip-path="url(#p541e6809ad)" d="M 199.928333 114.341299 
L 199.928333 101.48749 
" style="fill:none;stroke:#545454;stroke-linecap:square;stroke-width:1.5;"/>
   </g>
   <g id="line2d_53">
    <path clip-path="url(#p541e6809ad)" d="M 197.144725 153.615651 
L 202.711942 153.615651 
" style="fill:none;stroke:#545454;stroke-linecap:square;stroke-width:1.5;"/>
   </g>
   <g id="line2d_54">
    <path clip-path="url(#p541e6809ad)" d="M 197.144725 101.48749 
L 202.711942 101.48749 
" style="fill:none;stroke:#545454;stroke-linecap:square;stroke-width:1.5;"/>
   </g>
   <g id="line2d_55">
    <g clip-path="url(#p541e6809ad)">
     <use style="fill:#545454;stroke:#545454;stroke-linejoin:miter;" x="199.928333" xlink:href="#md3e6aaf27b" y="39.827628"/>
     <use style="fill:#545454;stroke:#545454;stroke-linejoin:miter;" x="199.928333" xlink:href="#md3e6aaf27b" y="35.704255"/>
    </g>
   </g>
   <g id="line2d_56">
    <path clip-path="url(#p541e6809ad)" d="M 211.29 156.739033 
L 211.29 169.709631 
" style="fill:none;stroke:#545454;stroke-linecap:square;stroke-width:1.5;"/>
   </g>
   <g id="line2d_57">
    <path clip-path="url(#p541e6809ad)" d="M 211.29 147.612081 
L 211.29 140.011072 
" style="fill:none;stroke:#545454;stroke-linecap:square;stroke-width:1.5;"/>
   </g>
   <g id="line2d_58">
    <path clip-path="url(#p541e6809ad)" d="M 208.506392 169.709631 
L 214.073608 169.709631 
" style="fill:none;stroke:#545454;stroke-linecap:square;stroke-width:1.5;"/>
   </g>
   <g id="line2d_59">
    <path clip-path="url(#p541e6809ad)" d="M 208.506392 140.011072 
L 214.073608 140.011072 
" style="fill:none;stroke:#545454;stroke-linecap:square;stroke-width:1.5;"/>
   </g>
   <g id="line2d_60">
    <g clip-path="url(#p541e6809ad)">
     <use style="fill:#545454;stroke:#545454;stroke-linejoin:miter;" x="211.29" xlink:href="#md3e6aaf27b" y="128.939996"/>
     <use style="fill:#545454;stroke:#545454;stroke-linejoin:miter;" x="211.29" xlink:href="#md3e6aaf27b" y="132.76553"/>
    </g>
   </g>
   <g id="line2d_61">
    <path clip-path="url(#p541e6809ad)" d="M 222.651667 141.365881 
L 222.651667 156.373426 
" style="fill:none;stroke:#545454;stroke-linecap:square;stroke-width:1.5;"/>
   </g>
   <g id="line2d_62">
    <path clip-path="url(#p541e6809ad)" d="M 222.651667 99.329385 
L 222.651667 62.172916 
" style="fill:none;stroke:#545454;stroke-linecap:square;stroke-width:1.5;"/>
   </g>
   <g id="line2d_63">
    <path clip-path="url(#p541e6809ad)" d="M 219.868058 156.373426 
L 225.435275 156.373426 
" style="fill:none;stroke:#545454;stroke-linecap:square;stroke-width:1.5;"/>
   </g>
   <g id="line2d_64">
    <path clip-path="url(#p541e6809ad)" d="M 219.868058 62.172916 
L 225.435275 62.172916 
" style="fill:none;stroke:#545454;stroke-linecap:square;stroke-width:1.5;"/>
   </g>
   <g id="line2d_65">
    <g clip-path="url(#p541e6809ad)">
     <use style="fill:#545454;stroke:#545454;stroke-linejoin:miter;" x="222.651667" xlink:href="#md3e6aaf27b" y="35.338666"/>
    </g>
   </g>
   <g id="line2d_66">
    <path clip-path="url(#p541e6809ad)" d="M 234.013333 167.010023 
L 234.013333 174.112702 
" style="fill:none;stroke:#545454;stroke-linecap:square;stroke-width:1.5;"/>
   </g>
   <g id="line2d_67">
    <path clip-path="url(#p541e6809ad)" d="M 234.013333 160.111774 
L 234.013333 149.98997 
" style="fill:none;stroke:#545454;stroke-linecap:square;stroke-width:1.5;"/>
   </g>
   <g id="line2d_68">
    <path clip-path="url(#p541e6809ad)" d="M 231.229725 174.112702 
L 236.796942 174.112702 
" style="fill:none;stroke:#545454;stroke-linecap:square;stroke-width:1.5;"/>
   </g>
   <g id="line2d_69">
    <path clip-path="url(#p541e6809ad)" d="M 231.229725 149.98997 
L 236.796942 149.98997 
" style="fill:none;stroke:#545454;stroke-linecap:square;stroke-width:1.5;"/>
   </g>
   <g id="line2d_70"/>
   <g id="line2d_71">
    <path clip-path="url(#p541e6809ad)" d="M 256.736667 152.166613 
L 256.736667 173.004703 
" style="fill:none;stroke:#545454;stroke-linecap:square;stroke-width:1.5;"/>
   </g>
   <g id="line2d_72">
    <path clip-path="url(#p541e6809ad)" d="M 256.736667 129.157723 
L 256.736667 102.286963 
" style="fill:none;stroke:#545454;stroke-linecap:square;stroke-width:1.5;"/>
   </g>
   <g id="line2d_73">
    <path clip-path="url(#p541e6809ad)" d="M 253.953058 173.004703 
L 259.520275 173.004703 
" style="fill:none;stroke:#545454;stroke-linecap:square;stroke-width:1.5;"/>
   </g>
   <g id="line2d_74">
    <path clip-path="url(#p541e6809ad)" d="M 253.953058 102.286963 
L 259.520275 102.286963 
" style="fill:none;stroke:#545454;stroke-linecap:square;stroke-width:1.5;"/>
   </g>
   <g id="line2d_75"/>
   <g id="line2d_76">
    <path clip-path="url(#p541e6809ad)" d="M 268.098333 162.402144 
L 268.098333 178.652489 
" style="fill:none;stroke:#545454;stroke-linecap:square;stroke-width:1.5;"/>
   </g>
   <g id="line2d_77">
    <path clip-path="url(#p541e6809ad)" d="M 268.098333 146.575309 
L 268.098333 130.097411 
" style="fill:none;stroke:#545454;stroke-linecap:square;stroke-width:1.5;"/>
   </g>
   <g id="line2d_78">
    <path clip-path="url(#p541e6809ad)" d="M 265.314725 178.652489 
L 270.881942 178.652489 
" style="fill:none;stroke:#545454;stroke-linecap:square;stroke-width:1.5;"/>
   </g>
   <g id="line2d_79">
    <path clip-path="url(#p541e6809ad)" d="M 265.314725 130.097411 
L 270.881942 130.097411 
" style="fill:none;stroke:#545454;stroke-linecap:square;stroke-width:1.5;"/>
   </g>
   <g id="line2d_80">
    <g clip-path="url(#p541e6809ad)">
     <use style="fill:#545454;stroke:#545454;stroke-linejoin:miter;" x="268.098333" xlink:href="#md3e6aaf27b" y="120.471771"/>
     <use style="fill:#545454;stroke:#545454;stroke-linejoin:miter;" x="268.098333" xlink:href="#md3e6aaf27b" y="105.098907"/>
    </g>
   </g>
   <g id="line2d_81">
    <path clip-path="url(#p541e6809ad)" d="M 279.46 138.406281 
L 279.46 149.153254 
" style="fill:none;stroke:#545454;stroke-linecap:square;stroke-width:1.5;"/>
   </g>
   <g id="line2d_82">
    <path clip-path="url(#p541e6809ad)" d="M 279.46 91.071766 
L 279.46 40.624681 
" style="fill:none;stroke:#545454;stroke-linecap:square;stroke-width:1.5;"/>
   </g>
   <g id="line2d_83">
    <path clip-path="url(#p541e6809ad)" d="M 276.676392 149.153254 
L 282.243608 149.153254 
" style="fill:none;stroke:#545454;stroke-linecap:square;stroke-width:1.5;"/>
   </g>
   <g id="line2d_84">
    <path clip-path="url(#p541e6809ad)" d="M 276.676392 40.624681 
L 282.243608 40.624681 
" style="fill:none;stroke:#545454;stroke-linecap:square;stroke-width:1.5;"/>
   </g>
   <g id="line2d_85"/>
   <g id="line2d_86">
    <path clip-path="url(#p541e6809ad)" d="M 290.821667 174.909801 
L 290.821667 183.059553 
" style="fill:none;stroke:#545454;stroke-linecap:square;stroke-width:1.5;"/>
   </g>
   <g id="line2d_87">
    <path clip-path="url(#p541e6809ad)" d="M 290.821667 164.102756 
L 290.821667 153.99015 
" style="fill:none;stroke:#545454;stroke-linecap:square;stroke-width:1.5;"/>
   </g>
   <g id="line2d_88">
    <path clip-path="url(#p541e6809ad)" d="M 288.038058 183.059553 
L 293.605275 183.059553 
" style="fill:none;stroke:#545454;stroke-linecap:square;stroke-width:1.5;"/>
   </g>
   <g id="line2d_89">
    <path clip-path="url(#p541e6809ad)" d="M 288.038058 153.99015 
L 293.605275 153.99015 
" style="fill:none;stroke:#545454;stroke-linecap:square;stroke-width:1.5;"/>
   </g>
   <g id="line2d_90">
    <g clip-path="url(#p541e6809ad)">
     <use style="fill:#545454;stroke:#545454;stroke-linejoin:miter;" x="290.821667" xlink:href="#md3e6aaf27b" y="193.575382"/>
     <use style="fill:#545454;stroke:#545454;stroke-linejoin:miter;" x="290.821667" xlink:href="#md3e6aaf27b" y="142.176533"/>
    </g>
   </g>
   <g id="line2d_91">
    <path clip-path="url(#p541e6809ad)" d="M 313.545 143.086179 
L 313.545 171.127952 
" style="fill:none;stroke:#545454;stroke-linecap:square;stroke-width:1.5;"/>
   </g>
   <g id="line2d_92">
    <path clip-path="url(#p541e6809ad)" d="M 313.545 117.673779 
L 313.545 107.506547 
" style="fill:none;stroke:#545454;stroke-linecap:square;stroke-width:1.5;"/>
   </g>
   <g id="line2d_93">
    <path clip-path="url(#p541e6809ad)" d="M 310.761392 171.127952 
L 316.328608 171.127952 
" style="fill:none;stroke:#545454;stroke-linecap:square;stroke-width:1.5;"/>
   </g>
   <g id="line2d_94">
    <path clip-path="url(#p541e6809ad)" d="M 310.761392 107.506547 
L 316.328608 107.506547 
" style="fill:none;stroke:#545454;stroke-linecap:square;stroke-width:1.5;"/>
   </g>
   <g id="line2d_95">
    <g clip-path="url(#p541e6809ad)">
     <use style="fill:#545454;stroke:#545454;stroke-linejoin:miter;" x="313.545" xlink:href="#md3e6aaf27b" y="68.359241"/>
     <use style="fill:#545454;stroke:#545454;stroke-linejoin:miter;" x="313.545" xlink:href="#md3e6aaf27b" y="48.849422"/>
    </g>
   </g>
   <g id="line2d_96">
    <path clip-path="url(#p541e6809ad)" d="M 324.906667 165.502831 
L 324.906667 174.978089 
" style="fill:none;stroke:#545454;stroke-linecap:square;stroke-width:1.5;"/>
   </g>
   <g id="line2d_97">
    <path clip-path="url(#p541e6809ad)" d="M 324.906667 147.39915 
L 324.906667 120.90148 
" style="fill:none;stroke:#545454;stroke-linecap:square;stroke-width:1.5;"/>
   </g>
   <g id="line2d_98">
    <path clip-path="url(#p541e6809ad)" d="M 322.123058 174.978089 
L 327.690275 174.978089 
" style="fill:none;stroke:#545454;stroke-linecap:square;stroke-width:1.5;"/>
   </g>
   <g id="line2d_99">
    <path clip-path="url(#p541e6809ad)" d="M 322.123058 120.90148 
L 327.690275 120.90148 
" style="fill:none;stroke:#545454;stroke-linecap:square;stroke-width:1.5;"/>
   </g>
   <g id="line2d_100"/>
   <g id="line2d_101">
    <path clip-path="url(#p541e6809ad)" d="M 336.268333 136.367924 
L 336.268333 152.692885 
" style="fill:none;stroke:#545454;stroke-linecap:square;stroke-width:1.5;"/>
   </g>
   <g id="line2d_102">
    <path clip-path="url(#p541e6809ad)" d="M 336.268333 93.222212 
L 336.268333 45.905426 
" style="fill:none;stroke:#545454;stroke-linecap:square;stroke-width:1.5;"/>
   </g>
   <g id="line2d_103">
    <path clip-path="url(#p541e6809ad)" d="M 333.484725 152.692885 
L 339.051942 152.692885 
" style="fill:none;stroke:#545454;stroke-linecap:square;stroke-width:1.5;"/>
   </g>
   <g id="line2d_104">
    <path clip-path="url(#p541e6809ad)" d="M 333.484725 45.905426 
L 339.051942 45.905426 
" style="fill:none;stroke:#545454;stroke-linecap:square;stroke-width:1.5;"/>
   </g>
   <g id="line2d_105"/>
   <g id="line2d_106">
    <path clip-path="url(#p541e6809ad)" d="M 347.63 182.27996 
L 347.63 196.386368 
" style="fill:none;stroke:#545454;stroke-linecap:square;stroke-width:1.5;"/>
   </g>
   <g id="line2d_107">
    <path clip-path="url(#p541e6809ad)" d="M 347.63 166.735126 
L 347.63 143.903358 
" style="fill:none;stroke:#545454;stroke-linecap:square;stroke-width:1.5;"/>
   </g>
   <g id="line2d_108">
    <path clip-path="url(#p541e6809ad)" d="M 344.846392 196.386368 
L 350.413608 196.386368 
" style="fill:none;stroke:#545454;stroke-linecap:square;stroke-width:1.5;"/>
   </g>
   <g id="line2d_109">
    <path clip-path="url(#p541e6809ad)" d="M 344.846392 143.903358 
L 350.413608 143.903358 
" style="fill:none;stroke:#545454;stroke-linecap:square;stroke-width:1.5;"/>
   </g>
   <g id="line2d_110"/>
   <g id="line2d_111">
    <path clip-path="url(#p541e6809ad)" d="M 370.353333 153.348105 
L 370.353333 182.939034 
" style="fill:none;stroke:#545454;stroke-linecap:square;stroke-width:1.5;"/>
   </g>
   <g id="line2d_112">
    <path clip-path="url(#p541e6809ad)" d="M 370.353333 121.574215 
L 370.353333 74.926071 
" style="fill:none;stroke:#545454;stroke-linecap:square;stroke-width:1.5;"/>
   </g>
   <g id="line2d_113">
    <path clip-path="url(#p541e6809ad)" d="M 367.569725 182.939034 
L 373.136942 182.939034 
" style="fill:none;stroke:#545454;stroke-linecap:square;stroke-width:1.5;"/>
   </g>
   <g id="line2d_114">
    <path clip-path="url(#p541e6809ad)" d="M 367.569725 74.926071 
L 373.136942 74.926071 
" style="fill:none;stroke:#545454;stroke-linecap:square;stroke-width:1.5;"/>
   </g>
   <g id="line2d_115">
    <g clip-path="url(#p541e6809ad)">
     <use style="fill:#545454;stroke:#545454;stroke-linejoin:miter;" x="370.353333" xlink:href="#md3e6aaf27b" y="35.695282"/>
    </g>
   </g>
   <g id="line2d_116">
    <path clip-path="url(#p541e6809ad)" d="M 381.715 176.163863 
L 381.715 194.881735 
" style="fill:none;stroke:#545454;stroke-linecap:square;stroke-width:1.5;"/>
   </g>
   <g id="line2d_117">
    <path clip-path="url(#p541e6809ad)" d="M 381.715 153.633844 
L 381.715 125.823263 
" style="fill:none;stroke:#545454;stroke-linecap:square;stroke-width:1.5;"/>
   </g>
   <g id="line2d_118">
    <path clip-path="url(#p541e6809ad)" d="M 378.931392 194.881735 
L 384.498608 194.881735 
" style="fill:none;stroke:#545454;stroke-linecap:square;stroke-width:1.5;"/>
   </g>
   <g id="line2d_119">
    <path clip-path="url(#p541e6809ad)" d="M 378.931392 125.823263 
L 384.498608 125.823263 
" style="fill:none;stroke:#545454;stroke-linecap:square;stroke-width:1.5;"/>
   </g>
   <g id="line2d_120">
    <g clip-path="url(#p541e6809ad)">
     <use style="fill:#545454;stroke:#545454;stroke-linejoin:miter;" x="381.715" xlink:href="#md3e6aaf27b" y="218.571842"/>
    </g>
   </g>
   <g id="line2d_121">
    <path clip-path="url(#p541e6809ad)" d="M 393.076667 129.375723 
L 393.076667 157.797033 
" style="fill:none;stroke:#545454;stroke-linecap:square;stroke-width:1.5;"/>
   </g>
   <g id="line2d_122">
    <path clip-path="url(#p541e6809ad)" d="M 393.076667 90.165751 
L 393.076667 51.180914 
" style="fill:none;stroke:#545454;stroke-linecap:square;stroke-width:1.5;"/>
   </g>
   <g id="line2d_123">
    <path clip-path="url(#p541e6809ad)" d="M 390.293058 157.797033 
L 395.860275 157.797033 
" style="fill:none;stroke:#545454;stroke-linecap:square;stroke-width:1.5;"/>
   </g>
   <g id="line2d_124">
    <path clip-path="url(#p541e6809ad)" d="M 390.293058 51.180914 
L 395.860275 51.180914 
" style="fill:none;stroke:#545454;stroke-linecap:square;stroke-width:1.5;"/>
   </g>
   <g id="line2d_125"/>
   <g id="line2d_126">
    <path clip-path="url(#p541e6809ad)" d="M 404.438333 191.334812 
L 404.438333 207.34132 
" style="fill:none;stroke:#545454;stroke-linecap:square;stroke-width:1.5;"/>
   </g>
   <g id="line2d_127">
    <path clip-path="url(#p541e6809ad)" d="M 404.438333 170.755037 
L 404.438333 161.019098 
" style="fill:none;stroke:#545454;stroke-linecap:square;stroke-width:1.5;"/>
   </g>
   <g id="line2d_128">
    <path clip-path="url(#p541e6809ad)" d="M 401.654725 207.34132 
L 407.221942 207.34132 
" style="fill:none;stroke:#545454;stroke-linecap:square;stroke-width:1.5;"/>
   </g>
   <g id="line2d_129">
    <path clip-path="url(#p541e6809ad)" d="M 401.654725 161.019098 
L 407.221942 161.019098 
" style="fill:none;stroke:#545454;stroke-linecap:square;stroke-width:1.5;"/>
   </g>
   <g id="line2d_130">
    <g clip-path="url(#p541e6809ad)">
     <use style="fill:#545454;stroke:#545454;stroke-linejoin:miter;" x="404.438333" xlink:href="#md3e6aaf27b" y="222.954545"/>
    </g>
   </g>
   <g id="line2d_131">
    <path clip-path="url(#p541e6809ad)" d="M 80.74445 132.387848 
L 91.878883 132.387848 
" style="fill:none;stroke:#545454;stroke-linecap:square;stroke-width:1.5;"/>
   </g>
   <g id="line2d_132">
    <path clip-path="url(#p541e6809ad)" d="M 92.106117 148.648795 
L 103.24055 148.648795 
" style="fill:none;stroke:#545454;stroke-linecap:square;stroke-width:1.5;"/>
   </g>
   <g id="line2d_133">
    <path clip-path="url(#p541e6809ad)" d="M 103.467783 131.372279 
L 114.602217 131.372279 
" style="fill:none;stroke:#545454;stroke-linecap:square;stroke-width:1.5;"/>
   </g>
   <g id="line2d_134">
    <path clip-path="url(#p541e6809ad)" d="M 114.82945 151.547079 
L 125.963883 151.547079 
" style="fill:none;stroke:#545454;stroke-linecap:square;stroke-width:1.5;"/>
   </g>
   <g id="line2d_135">
    <path clip-path="url(#p541e6809ad)" d="M 137.552783 130.573344 
L 148.687217 130.573344 
" style="fill:none;stroke:#545454;stroke-linecap:square;stroke-width:1.5;"/>
   </g>
   <g id="line2d_136">
    <path clip-path="url(#p541e6809ad)" d="M 148.91445 148.903007 
L 160.048883 148.903007 
" style="fill:none;stroke:#545454;stroke-linecap:square;stroke-width:1.5;"/>
   </g>
   <g id="line2d_137">
    <path clip-path="url(#p541e6809ad)" d="M 160.276117 130.111632 
L 171.41055 130.111632 
" style="fill:none;stroke:#545454;stroke-linecap:square;stroke-width:1.5;"/>
   </g>
   <g id="line2d_138">
    <path clip-path="url(#p541e6809ad)" d="M 171.637783 156.683048 
L 182.772217 156.683048 
" style="fill:none;stroke:#545454;stroke-linecap:square;stroke-width:1.5;"/>
   </g>
   <g id="line2d_139">
    <path clip-path="url(#p541e6809ad)" d="M 194.361117 129.793901 
L 205.49555 129.793901 
" style="fill:none;stroke:#545454;stroke-linecap:square;stroke-width:1.5;"/>
   </g>
   <g id="line2d_140">
    <path clip-path="url(#p541e6809ad)" d="M 205.722783 151.061571 
L 216.857217 151.061571 
" style="fill:none;stroke:#545454;stroke-linecap:square;stroke-width:1.5;"/>
   </g>
   <g id="line2d_141">
    <path clip-path="url(#p541e6809ad)" d="M 217.08445 123.225676 
L 228.218883 123.225676 
" style="fill:none;stroke:#545454;stroke-linecap:square;stroke-width:1.5;"/>
   </g>
   <g id="line2d_142">
    <path clip-path="url(#p541e6809ad)" d="M 228.446117 162.349525 
L 239.58055 162.349525 
" style="fill:none;stroke:#545454;stroke-linecap:square;stroke-width:1.5;"/>
   </g>
   <g id="line2d_143">
    <path clip-path="url(#p541e6809ad)" d="M 251.16945 137.356683 
L 262.303883 137.356683 
" style="fill:none;stroke:#545454;stroke-linecap:square;stroke-width:1.5;"/>
   </g>
   <g id="line2d_144">
    <path clip-path="url(#p541e6809ad)" d="M 262.531117 150.914678 
L 273.66555 150.914678 
" style="fill:none;stroke:#545454;stroke-linecap:square;stroke-width:1.5;"/>
   </g>
   <g id="line2d_145">
    <path clip-path="url(#p541e6809ad)" d="M 273.892783 118.170294 
L 285.027217 118.170294 
" style="fill:none;stroke:#545454;stroke-linecap:square;stroke-width:1.5;"/>
   </g>
   <g id="line2d_146">
    <path clip-path="url(#p541e6809ad)" d="M 285.25445 170.344545 
L 296.388883 170.344545 
" style="fill:none;stroke:#545454;stroke-linecap:square;stroke-width:1.5;"/>
   </g>
   <g id="line2d_147">
    <path clip-path="url(#p541e6809ad)" d="M 307.977783 128.977539 
L 319.112217 128.977539 
" style="fill:none;stroke:#545454;stroke-linecap:square;stroke-width:1.5;"/>
   </g>
   <g id="line2d_148">
    <path clip-path="url(#p541e6809ad)" d="M 319.33945 158.129001 
L 330.473883 158.129001 
" style="fill:none;stroke:#545454;stroke-linecap:square;stroke-width:1.5;"/>
   </g>
   <g id="line2d_149">
    <path clip-path="url(#p541e6809ad)" d="M 330.701117 115.889739 
L 341.83555 115.889739 
" style="fill:none;stroke:#545454;stroke-linecap:square;stroke-width:1.5;"/>
   </g>
   <g id="line2d_150">
    <path clip-path="url(#p541e6809ad)" d="M 342.062783 173.140696 
L 353.197217 173.140696 
" style="fill:none;stroke:#545454;stroke-linecap:square;stroke-width:1.5;"/>
   </g>
   <g id="line2d_151">
    <path clip-path="url(#p541e6809ad)" d="M 364.786117 143.156223 
L 375.92055 143.156223 
" style="fill:none;stroke:#545454;stroke-linecap:square;stroke-width:1.5;"/>
   </g>
   <g id="line2d_152">
    <path clip-path="url(#p541e6809ad)" d="M 376.147783 164.43967 
L 387.282217 164.43967 
" style="fill:none;stroke:#545454;stroke-linecap:square;stroke-width:1.5;"/>
   </g>
   <g id="line2d_153">
    <path clip-path="url(#p541e6809ad)" d="M 387.50945 114.008311 
L 398.643883 114.008311 
" style="fill:none;stroke:#545454;stroke-linecap:square;stroke-width:1.5;"/>
   </g>
   <g id="line2d_154">
    <path clip-path="url(#p541e6809ad)" d="M 398.871117 180.778187 
L 410.00555 180.778187 
" style="fill:none;stroke:#545454;stroke-linecap:square;stroke-width:1.5;"/>
   </g>
   <g id="patch_31">
    <path d="M 74.95 232.8 
L 74.95 16.2 
" style="fill:none;stroke:#000000;stroke-linecap:square;stroke-linejoin:miter;stroke-width:0.8;"/>
   </g>
   <g id="patch_32">
    <path d="M 415.8 232.8 
L 415.8 16.2 
" style="fill:none;stroke:#000000;stroke-linecap:square;stroke-linejoin:miter;stroke-width:0.8;"/>
   </g>
   <g id="patch_33">
    <path d="M 74.95 232.8 
L 415.8 232.8 
" style="fill:none;stroke:#000000;stroke-linecap:square;stroke-linejoin:miter;stroke-width:0.8;"/>
   </g>
   <g id="patch_34">
    <path d="M 74.95 16.2 
L 415.8 16.2 
" style="fill:none;stroke:#000000;stroke-linecap:square;stroke-linejoin:miter;stroke-width:0.8;"/>
   </g>
   <g id="legend_1">
    <g id="patch_35">
     <path d="M 402.05 32.45 
L 407.05 32.45 
Q 409.55 32.45 409.55 29.95 
L 409.55 24.95 
Q 409.55 22.45 407.05 22.45 
L 402.05 22.45 
Q 399.55 22.45 399.55 24.95 
L 399.55 29.95 
Q 399.55 32.45 402.05 32.45 
z
" style="fill:#ffffff;opacity:0.8;stroke:#cccccc;stroke-linejoin:miter;"/>
    </g>
   </g>
  </g>
 </g>
 <defs>
  <clipPath id="p541e6809ad">
   <rect height="216.6" width="340.85" x="74.95" y="16.2"/>
  </clipPath>
 </defs>
</svg>
