<?xml version="1.0" encoding="utf-8" standalone="no"?>
<!DOCTYPE svg PUBLIC "-//W3C//DTD SVG 1.1//EN"
  "http://www.w3.org/Graphics/SVG/1.1/DTD/svg11.dtd">
<!-- Created with matplotlib (https://matplotlib.org/) -->
<svg height="288pt" version="1.1" viewBox="0 0 432 288" width="432pt" xmlns="http://www.w3.org/2000/svg" xmlns:xlink="http://www.w3.org/1999/xlink">
 <metadata>
  <rdf:RDF xmlns:cc="http://creativecommons.org/ns#" xmlns:dc="http://purl.org/dc/elements/1.1/" xmlns:rdf="http://www.w3.org/1999/02/22-rdf-syntax-ns#">
   <cc:Work>
    <dc:type rdf:resource="http://purl.org/dc/dcmitype/StillImage"/>
    <dc:date>2021-03-31T02:57:30.804306</dc:date>
    <dc:format>image/svg+xml</dc:format>
    <dc:creator>
     <cc:Agent>
      <dc:title>Matplotlib v3.3.4, https://matplotlib.org/</dc:title>
     </cc:Agent>
    </dc:creator>
   </cc:Work>
  </rdf:RDF>
 </metadata>
 <defs>
  <style type="text/css">*{stroke-linecap:butt;stroke-linejoin:round;}</style>
 </defs>
 <g id="figure_1">
  <g id="patch_1">
   <path d="M 0 288 
L 432 288 
L 432 0 
L 0 0 
z
" style="fill:#ffffff;"/>
  </g>
  <g id="axes_1">
   <g id="patch_2">
    <path d="M 54 252 
L 388.8 252 
L 388.8 34.56 
L 54 34.56 
z
" style="fill:#ffffff;"/>
   </g>
   <g id="matplotlib.axis_1">
    <g id="xtick_1">
     <g id="line2d_1">
      <defs>
       <path d="M 0 0 
L 0 3.5 
" id="m806f7aaa8f" style="stroke:#000000;stroke-width:0.8;"/>
      </defs>
      <g>
       <use style="stroke:#000000;stroke-width:0.8;" x="54" xlink:href="#m806f7aaa8f" y="252"/>
      </g>
     </g>
     <g id="text_1">
      <!-- −1.5 -->
      <g transform="translate(41.858594 266.598437)scale(0.1 -0.1)">
       <defs>
        <path d="M 10.59375 35.5 
L 73.1875 35.5 
L 73.1875 27.203125 
L 10.59375 27.203125 
z
" id="DejaVuSans-8722"/>
        <path d="M 12.40625 8.296875 
L 28.515625 8.296875 
L 28.515625 63.921875 
L 10.984375 60.40625 
L 10.984375 69.390625 
L 28.421875 72.90625 
L 38.28125 72.90625 
L 38.28125 8.296875 
L 54.390625 8.296875 
L 54.390625 0 
L 12.40625 0 
z
" id="DejaVuSans-49"/>
        <path d="M 10.6875 12.40625 
L 21 12.40625 
L 21 0 
L 10.6875 0 
z
" id="DejaVuSans-46"/>
        <path d="M 10.796875 72.90625 
L 49.515625 72.90625 
L 49.515625 64.59375 
L 19.828125 64.59375 
L 19.828125 46.734375 
Q 21.96875 47.46875 24.109375 47.828125 
Q 26.265625 48.1875 28.421875 48.1875 
Q 40.625 48.1875 47.75 41.5 
Q 54.890625 34.8125 54.890625 23.390625 
Q 54.890625 11.625 47.5625 5.09375 
Q 40.234375 -1.421875 26.90625 -1.421875 
Q 22.3125 -1.421875 17.546875 -0.640625 
Q 12.796875 0.140625 7.71875 1.703125 
L 7.71875 11.625 
Q 12.109375 9.234375 16.796875 8.0625 
Q 21.484375 6.890625 26.703125 6.890625 
Q 35.15625 6.890625 40.078125 11.328125 
Q 45.015625 15.765625 45.015625 23.390625 
Q 45.015625 31 40.078125 35.4375 
Q 35.15625 39.890625 26.703125 39.890625 
Q 22.75 39.890625 18.8125 39.015625 
Q 14.890625 38.140625 10.796875 36.28125 
z
" id="DejaVuSans-53"/>
       </defs>
       <use xlink:href="#DejaVuSans-8722"/>
       <use x="83.789062" xlink:href="#DejaVuSans-49"/>
       <use x="147.412109" xlink:href="#DejaVuSans-46"/>
       <use x="179.199219" xlink:href="#DejaVuSans-53"/>
      </g>
     </g>
    </g>
    <g id="xtick_2">
     <g id="line2d_2">
      <g>
       <use style="stroke:#000000;stroke-width:0.8;" x="109.8" xlink:href="#m806f7aaa8f" y="252"/>
      </g>
     </g>
     <g id="text_2">
      <!-- −1.0 -->
      <g transform="translate(97.658594 266.598437)scale(0.1 -0.1)">
       <defs>
        <path d="M 31.78125 66.40625 
Q 24.171875 66.40625 20.328125 58.90625 
Q 16.5 51.421875 16.5 36.375 
Q 16.5 21.390625 20.328125 13.890625 
Q 24.171875 6.390625 31.78125 6.390625 
Q 39.453125 6.390625 43.28125 13.890625 
Q 47.125 21.390625 47.125 36.375 
Q 47.125 51.421875 43.28125 58.90625 
Q 39.453125 66.40625 31.78125 66.40625 
z
M 31.78125 74.21875 
Q 44.046875 74.21875 50.515625 64.515625 
Q 56.984375 54.828125 56.984375 36.375 
Q 56.984375 17.96875 50.515625 8.265625 
Q 44.046875 -1.421875 31.78125 -1.421875 
Q 19.53125 -1.421875 13.0625 8.265625 
Q 6.59375 17.96875 6.59375 36.375 
Q 6.59375 54.828125 13.0625 64.515625 
Q 19.53125 74.21875 31.78125 74.21875 
z
" id="DejaVuSans-48"/>
       </defs>
       <use xlink:href="#DejaVuSans-8722"/>
       <use x="83.789062" xlink:href="#DejaVuSans-49"/>
       <use x="147.412109" xlink:href="#DejaVuSans-46"/>
       <use x="179.199219" xlink:href="#DejaVuSans-48"/>
      </g>
     </g>
    </g>
    <g id="xtick_3">
     <g id="line2d_3">
      <g>
       <use style="stroke:#000000;stroke-width:0.8;" x="165.6" xlink:href="#m806f7aaa8f" y="252"/>
      </g>
     </g>
     <g id="text_3">
      <!-- −0.5 -->
      <g transform="translate(153.458594 266.598437)scale(0.1 -0.1)">
       <use xlink:href="#DejaVuSans-8722"/>
       <use x="83.789062" xlink:href="#DejaVuSans-48"/>
       <use x="147.412109" xlink:href="#DejaVuSans-46"/>
       <use x="179.199219" xlink:href="#DejaVuSans-53"/>
      </g>
     </g>
    </g>
    <g id="xtick_4">
     <g id="line2d_4">
      <g>
       <use style="stroke:#000000;stroke-width:0.8;" x="221.4" xlink:href="#m806f7aaa8f" y="252"/>
      </g>
     </g>
     <g id="text_4">
      <!-- 0.0 -->
      <g transform="translate(213.448438 266.598437)scale(0.1 -0.1)">
       <use xlink:href="#DejaVuSans-48"/>
       <use x="63.623047" xlink:href="#DejaVuSans-46"/>
       <use x="95.410156" xlink:href="#DejaVuSans-48"/>
      </g>
     </g>
    </g>
    <g id="xtick_5">
     <g id="line2d_5">
      <g>
       <use style="stroke:#000000;stroke-width:0.8;" x="277.2" xlink:href="#m806f7aaa8f" y="252"/>
      </g>
     </g>
     <g id="text_5">
      <!-- 0.5 -->
      <g transform="translate(269.248437 266.598437)scale(0.1 -0.1)">
       <use xlink:href="#DejaVuSans-48"/>
       <use x="63.623047" xlink:href="#DejaVuSans-46"/>
       <use x="95.410156" xlink:href="#DejaVuSans-53"/>
      </g>
     </g>
    </g>
    <g id="xtick_6">
     <g id="line2d_6">
      <g>
       <use style="stroke:#000000;stroke-width:0.8;" x="333" xlink:href="#m806f7aaa8f" y="252"/>
      </g>
     </g>
     <g id="text_6">
      <!-- 1.0 -->
      <g transform="translate(325.048437 266.598437)scale(0.1 -0.1)">
       <use xlink:href="#DejaVuSans-49"/>
       <use x="63.623047" xlink:href="#DejaVuSans-46"/>
       <use x="95.410156" xlink:href="#DejaVuSans-48"/>
      </g>
     </g>
    </g>
    <g id="xtick_7">
     <g id="line2d_7">
      <g>
       <use style="stroke:#000000;stroke-width:0.8;" x="388.8" xlink:href="#m806f7aaa8f" y="252"/>
      </g>
     </g>
     <g id="text_7">
      <!-- 1.5 -->
      <g transform="translate(380.848437 266.598437)scale(0.1 -0.1)">
       <use xlink:href="#DejaVuSans-49"/>
       <use x="63.623047" xlink:href="#DejaVuSans-46"/>
       <use x="95.410156" xlink:href="#DejaVuSans-53"/>
      </g>
     </g>
    </g>
    <g id="text_8">
     <!-- $x_1$ -->
     <g transform="translate(216.05 280.276563)scale(0.1 -0.1)">
      <defs>
       <path d="M 60.015625 54.6875 
L 34.90625 27.875 
L 50.296875 0 
L 39.984375 0 
L 28.421875 21.6875 
L 8.296875 0 
L -2.59375 0 
L 24.3125 28.8125 
L 10.015625 54.6875 
L 20.3125 54.6875 
L 30.8125 34.90625 
L 49.125 54.6875 
z
" id="DejaVuSans-Oblique-120"/>
      </defs>
      <use transform="translate(0 0.3125)" xlink:href="#DejaVuSans-Oblique-120"/>
      <use transform="translate(59.179688 -16.09375)scale(0.7)" xlink:href="#DejaVuSans-49"/>
     </g>
    </g>
   </g>
   <g id="matplotlib.axis_2">
    <g id="ytick_1">
     <g id="line2d_8">
      <defs>
       <path d="M 0 0 
L -3.5 0 
" id="m38ff9c515d" style="stroke:#000000;stroke-width:0.8;"/>
      </defs>
      <g>
       <use style="stroke:#000000;stroke-width:0.8;" x="54" xlink:href="#m38ff9c515d" y="252"/>
      </g>
     </g>
     <g id="text_9">
      <!-- −1.5 -->
      <g transform="translate(22.717187 255.799219)scale(0.1 -0.1)">
       <use xlink:href="#DejaVuSans-8722"/>
       <use x="83.789062" xlink:href="#DejaVuSans-49"/>
       <use x="147.412109" xlink:href="#DejaVuSans-46"/>
       <use x="179.199219" xlink:href="#DejaVuSans-53"/>
      </g>
     </g>
    </g>
    <g id="ytick_2">
     <g id="line2d_9">
      <g>
       <use style="stroke:#000000;stroke-width:0.8;" x="54" xlink:href="#m38ff9c515d" y="215.76"/>
      </g>
     </g>
     <g id="text_10">
      <!-- −1.0 -->
      <g transform="translate(22.717187 219.559219)scale(0.1 -0.1)">
       <use xlink:href="#DejaVuSans-8722"/>
       <use x="83.789062" xlink:href="#DejaVuSans-49"/>
       <use x="147.412109" xlink:href="#DejaVuSans-46"/>
       <use x="179.199219" xlink:href="#DejaVuSans-48"/>
      </g>
     </g>
    </g>
    <g id="ytick_3">
     <g id="line2d_10">
      <g>
       <use style="stroke:#000000;stroke-width:0.8;" x="54" xlink:href="#m38ff9c515d" y="179.52"/>
      </g>
     </g>
     <g id="text_11">
      <!-- −0.5 -->
      <g transform="translate(22.717187 183.319219)scale(0.1 -0.1)">
       <use xlink:href="#DejaVuSans-8722"/>
       <use x="83.789062" xlink:href="#DejaVuSans-48"/>
       <use x="147.412109" xlink:href="#DejaVuSans-46"/>
       <use x="179.199219" xlink:href="#DejaVuSans-53"/>
      </g>
     </g>
    </g>
    <g id="ytick_4">
     <g id="line2d_11">
      <g>
       <use style="stroke:#000000;stroke-width:0.8;" x="54" xlink:href="#m38ff9c515d" y="143.28"/>
      </g>
     </g>
     <g id="text_12">
      <!-- 0.0 -->
      <g transform="translate(31.096875 147.079219)scale(0.1 -0.1)">
       <use xlink:href="#DejaVuSans-48"/>
       <use x="63.623047" xlink:href="#DejaVuSans-46"/>
       <use x="95.410156" xlink:href="#DejaVuSans-48"/>
      </g>
     </g>
    </g>
    <g id="ytick_5">
     <g id="line2d_12">
      <g>
       <use style="stroke:#000000;stroke-width:0.8;" x="54" xlink:href="#m38ff9c515d" y="107.04"/>
      </g>
     </g>
     <g id="text_13">
      <!-- 0.5 -->
      <g transform="translate(31.096875 110.839219)scale(0.1 -0.1)">
       <use xlink:href="#DejaVuSans-48"/>
       <use x="63.623047" xlink:href="#DejaVuSans-46"/>
       <use x="95.410156" xlink:href="#DejaVuSans-53"/>
      </g>
     </g>
    </g>
    <g id="ytick_6">
     <g id="line2d_13">
      <g>
       <use style="stroke:#000000;stroke-width:0.8;" x="54" xlink:href="#m38ff9c515d" y="70.8"/>
      </g>
     </g>
     <g id="text_14">
      <!-- 1.0 -->
      <g transform="translate(31.096875 74.599219)scale(0.1 -0.1)">
       <use xlink:href="#DejaVuSans-49"/>
       <use x="63.623047" xlink:href="#DejaVuSans-46"/>
       <use x="95.410156" xlink:href="#DejaVuSans-48"/>
      </g>
     </g>
    </g>
    <g id="ytick_7">
     <g id="line2d_14">
      <g>
       <use style="stroke:#000000;stroke-width:0.8;" x="54" xlink:href="#m38ff9c515d" y="34.56"/>
      </g>
     </g>
     <g id="text_15">
      <!-- 1.5 -->
      <g transform="translate(31.096875 38.359219)scale(0.1 -0.1)">
       <use xlink:href="#DejaVuSans-49"/>
       <use x="63.623047" xlink:href="#DejaVuSans-46"/>
       <use x="95.410156" xlink:href="#DejaVuSans-53"/>
      </g>
     </g>
    </g>
    <g id="text_16">
     <!-- $x_2$ -->
     <g transform="translate(16.6375 148.63)rotate(-90)scale(0.1 -0.1)">
      <defs>
       <path d="M 19.1875 8.296875 
L 53.609375 8.296875 
L 53.609375 0 
L 7.328125 0 
L 7.328125 8.296875 
Q 12.9375 14.109375 22.625 23.890625 
Q 32.328125 33.6875 34.8125 36.53125 
Q 39.546875 41.84375 41.421875 45.53125 
Q 43.3125 49.21875 43.3125 52.78125 
Q 43.3125 58.59375 39.234375 62.25 
Q 35.15625 65.921875 28.609375 65.921875 
Q 23.96875 65.921875 18.8125 64.3125 
Q 13.671875 62.703125 7.8125 59.421875 
L 7.8125 69.390625 
Q 13.765625 71.78125 18.9375 73 
Q 24.125 74.21875 28.421875 74.21875 
Q 39.75 74.21875 46.484375 68.546875 
Q 53.21875 62.890625 53.21875 53.421875 
Q 53.21875 48.921875 51.53125 44.890625 
Q 49.859375 40.875 45.40625 35.40625 
Q 44.1875 33.984375 37.640625 27.21875 
Q 31.109375 20.453125 19.1875 8.296875 
z
" id="DejaVuSans-50"/>
      </defs>
      <use transform="translate(0 0.3125)" xlink:href="#DejaVuSans-Oblique-120"/>
      <use transform="translate(59.179688 -16.09375)scale(0.7)" xlink:href="#DejaVuSans-50"/>
     </g>
    </g>
   </g>
   <g id="LineCollection_1">
    <path clip-path="url(#p20dd5a4a7b)" d="M 109.165183 -1 
L 433 209.31743 
L 433 209.31743 
" style="fill:none;stroke:#440154;stroke-width:1.5;"/>
   </g>
   <g id="LineCollection_2">
    <path clip-path="url(#p20dd5a4a7b)" d="M 109.166016 -1 
L 433 209.3153 
L 433 209.3153 
" style="fill:none;stroke:#440154;stroke-width:1.5;"/>
   </g>
   <g id="LineCollection_3">
    <path clip-path="url(#p20dd5a4a7b)" d="M 109.168056 -1 
L 433 209.310087 
L 433 209.310087 
" style="fill:none;stroke:#440154;stroke-width:1.5;"/>
   </g>
   <g id="LineCollection_4">
    <path clip-path="url(#p20dd5a4a7b)" d="M 109.17305 -1 
L 301.034171 123.475562 
L 303.514459 125.068945 
L 433 209.297321 
L 433 209.297321 
" style="fill:none;stroke:#440256;stroke-width:1.5;"/>
   </g>
   <g id="LineCollection_5">
    <path clip-path="url(#p20dd5a4a7b)" d="M 109.185279 -1 
L 269.629146 103.074783 
L 272.115768 104.672563 
L 294.304523 118.964951 
L 297.03116 120.698291 
L 312.250251 130.453823 
L 317.504853 133.810251 
L 350.384925 155.286533 
L 353.14273 157.120402 
L 370.573869 168.561193 
L 373.10848 170.232362 
L 428.897487 206.597353 
L 433 209.266066 
L 433 209.266066 
" style="fill:none;stroke:#450457;stroke-width:1.5;"/>
   </g>
   <g id="LineCollection_6">
    <path clip-path="url(#p20dd5a4a7b)" d="M 109.215219 -1 
L 235.980905 81.197565 
L 240.7568 84.276181 
L 265.142714 99.993187 
L 270.191496 103.215678 
L 283.088442 111.464108 
L 288.491893 114.870754 
L 296.547739 119.976769 
L 304.698599 125.068945 
L 310.007035 128.4086 
L 320.912805 135.267136 
L 341.41206 148.70179 
L 360.400011 161.491055 
L 368.330653 166.759739 
L 373.530546 170.232362 
L 386.276382 178.628695 
L 391.213187 181.887437 
L 419.924623 200.662088 
L 424.635183 203.740704 
L 433 209.189539 
L 433 209.189539 
" style="fill:none;stroke:#460b5e;stroke-width:1.5;"/>
   </g>
   <g id="LineCollection_7">
    <path clip-path="url(#p20dd5a4a7b)" d="M 109.288527 -1 
L 195.603015 54.929925 
L 202.698602 59.509146 
L 229.251256 76.635359 
L 236.629671 81.362412 
L 249.440201 89.57479 
L 257.162722 94.474372 
L 265.142714 99.546022 
L 275.663509 106.129447 
L 280.845226 109.365579 
L 289.951872 114.870754 
L 303.277387 116.686401 
L 314.493467 118.466717 
L 323.466332 120.08301 
L 332.439196 121.897311 
L 340.010951 123.61206 
L 348.141709 125.701029 
L 354.871357 127.64463 
L 360.422443 129.439598 
L 366.087437 131.5366 
L 370.573869 133.419676 
L 372.817085 134.471789 
L 375.060302 135.605543 
L 377.303518 136.852065 
L 379.546734 138.260609 
L 381.78995 139.914002 
L 383.183064 141.094673 
L 384.605232 142.551558 
L 385.726917 144.008442 
L 386.549863 145.465327 
L 387.068222 146.922211 
L 387.283276 148.379095 
L 387.188683 149.83598 
L 386.777926 151.292864 
L 386.040973 152.749749 
L 384.962206 154.206633 
L 383.534204 155.663518 
L 381.736798 157.120402 
L 379.544317 158.577286 
L 376.928652 160.034171 
L 372.817085 161.925173 
L 368.330653 163.65336 
L 366.181837 164.404824 
L 370.573869 167.490875 
L 381.78995 175.112216 
L 389.683464 180.430553 
L 397.492462 185.613257 
L 402.83345 189.171859 
L 415.438191 197.472954 
L 420.520396 200.826935 
L 433 209.002168 
L 433 209.002168 
" style="fill:none;stroke:#481a6c;stroke-width:1.5;"/>
   </g>
   <g id="LineCollection_8">
    <path clip-path="url(#p20dd5a4a7b)" d="M 433 180.638318 
L 431.140704 181.098183 
L 428.897487 181.643592 
L 427.87839 181.887437 
L 426.654271 182.166624 
L 424.411055 182.669998 
L 422.167839 183.164669 
L 421.339823 183.344322 
L 419.924623 183.637699 
L 417.681407 184.094956 
L 415.438191 184.544128 
L 414.132083 184.801206 
L 413.194975 184.977822 
L 410.951759 185.393508 
L 408.708543 185.801651 
L 406.465327 186.202297 
L 406.147564 186.25809 
L 404.222111 186.582475 
L 401.978894 186.953434 
L 401.933188 187.714975 
L 401.978894 187.744659 
L 404.071219 189.171859 
L 404.222111 189.269858 
L 406.21614 190.628744 
L 406.465327 190.790581 
L 408.367409 192.085628 
L 408.708543 192.307182 
L 410.524529 193.542513 
L 410.951759 193.819983 
L 412.687046 194.999397 
L 413.194975 195.329278 
L 414.854548 196.456281 
L 415.438191 196.835336 
L 417.026655 197.913166 
L 417.681407 198.338402 
L 419.203023 199.37005 
L 419.924623 199.838702 
L 421.383336 200.826935 
L 422.167839 201.33644 
L 423.567305 202.283819 
L 424.411055 202.831803 
L 425.754664 203.740704 
L 426.654271 204.324965 
L 427.945172 205.197588 
L 428.897487 205.816081 
L 430.138607 206.654472 
L 431.140704 207.305297 
L 432.334764 208.111357 
L 433 208.543403 
" style="fill:none;stroke:#443983;stroke-width:1.5;"/>
    <path clip-path="url(#p20dd5a4a7b)" d="M 109.468017 -1 
L 159.711558 31.504235 
L 169.253799 37.655879 
L 193.359799 53.186753 
L 203.228642 59.509146 
L 215.79196 67.557204 
L 228.351649 75.534874 
L 235.980905 80.374179 
L 253.926633 91.590288 
L 256.169849 92.246902 
L 271.872362 93.285124 
L 289.81809 94.724506 
L 305.520603 96.214145 
L 321.223116 97.93308 
L 336.925628 99.895039 
L 350.384925 101.78605 
L 366.087437 104.277439 
L 377.303518 106.254933 
L 391.516272 109.043216 
L 404.222111 111.84818 
L 410.951759 113.47116 
L 422.167839 116.433145 
L 431.672136 119.241407 
L 433 119.666884 
L 433 119.666884 
" style="fill:none;stroke:#443983;stroke-width:1.5;"/>
   </g>
   <g id="LineCollection_9">
    <path clip-path="url(#p20dd5a4a7b)" d="M 109.907486 -1 
L 135.036181 15.193015 
L 151.871926 26.000804 
L 166.441206 35.340965 
L 204.575879 59.541274 
L 206.819095 60.491548 
L 227.00804 61.100153 
L 249.440201 62.018767 
L 269.629146 63.061188 
L 289.81809 64.310552 
L 310.007035 65.773071 
L 330.19598 67.455207 
L 350.384925 69.363686 
L 368.330653 71.25945 
L 388.519598 73.634149 
L 406.465327 75.968435 
L 424.411055 78.528713 
L 433 79.841507 
L 433 79.841507 
" style="fill:none;stroke:#297a8e;stroke-width:1.5;"/>
   </g>
   <g id="LineCollection_10">
    <path clip-path="url(#p20dd5a4a7b)" d="M 110.996201 -1 
L 132.792965 12.772286 
L 159.711558 12.99621 
L 186.630151 13.456201 
L 213.548744 14.146162 
L 240.467337 15.069559 
L 267.38593 16.223129 
L 294.304523 17.610024 
L 321.223116 19.233454 
L 348.141709 21.096688 
L 373.647111 23.087035 
L 399.735678 25.361431 
L 424.411055 27.736028 
L 433 28.616134 
L 433 28.616134 
" style="fill:none;stroke:#fde725;stroke-width:1.5;"/>
   </g>
   <g id="line2d_15">
    <path clip-path="url(#p20dd5a4a7b)" d="M 54 252 
L 388.8 252 
" style="fill:none;stroke:#000000;stroke-linecap:square;stroke-width:1.5;"/>
   </g>
   <g id="line2d_16">
    <path clip-path="url(#p20dd5a4a7b)" d="M 54 34.56 
L 388.8 34.56 
" style="fill:none;stroke:#000000;stroke-linecap:square;stroke-width:1.5;"/>
   </g>
   <g id="line2d_17">
    <path clip-path="url(#p20dd5a4a7b)" d="M 54 252 
L 54 34.56 
" style="fill:none;stroke:#000000;stroke-linecap:square;stroke-width:1.5;"/>
   </g>
   <g id="line2d_18">
    <path clip-path="url(#p20dd5a4a7b)" d="M 388.8 252 
L 388.8 34.56 
" style="fill:none;stroke:#000000;stroke-linecap:square;stroke-width:1.5;"/>
   </g>
   <g id="line2d_19">
    <path clip-path="url(#p20dd5a4a7b)" d="M 166.692272 32.935801 
L 166.692272 32.935801 
L 166.692272 32.935801 
L 166.692272 32.935801 
L 166.692272 32.935801 
L 166.692272 32.935801 
L 165.910875 35.575774 
L 165.910875 35.575774 
L 170.604387 36.224393 
L 170.604387 36.224393 
L 170.604387 36.224393 
L 170.604387 36.224393 
L 170.604387 36.224393 
L 170.604387 36.224393 
L 170.604387 36.224393 
L 169.914334 37.267145 
L 169.914334 37.267145 
L 169.914334 37.267145 
L 181.74199 44.183224 
L 193.900758 44.707783 
L 193.440288 44.993857 
L 192.646727 45.529146 
L 192.046974 45.920471 
L 193.769414 47.476425 
L 203.621676 54.793094 
L 203.416028 55.322783 
L 203.356293 55.546103 
L 203.508289 57.177961 
L 203.508289 57.177961 
L 203.508289 57.177961 
L 203.508289 57.177961 
L 203.508289 57.177961 
L 203.508289 57.177961 
L 203.508289 57.177961 
" style="fill:none;stroke:#1f77b4;stroke-dasharray:5.55,2.4;stroke-dashoffset:0;stroke-width:1.5;"/>
   </g>
   <g id="line2d_20">
    <path clip-path="url(#p20dd5a4a7b)" d="M 165.01056 35.337688 
L 165.01056 35.337688 
L 165.01056 35.337688 
L 167.227535 35.30763 
L 167.227535 35.30763 
L 167.227535 35.30763 
L 167.227535 35.30763 
L 167.227535 35.30763 
L 204.090778 36.357664 
L 205.987954 36.852817 
L 203.757875 38.158043 
L 198.032001 45.24036 
L 198.71636 46.082489 
L 198.665411 47.25893 
L 199.4281 49.617165 
L 199.900971 51.490686 
L 199.451442 54.64827 
L 201.587971 58.074758 
L 201.587971 58.074758 
L 201.587971 58.074758 
L 201.587971 58.074758 
L 201.587971 58.074758 
L 201.587971 58.074758 
L 201.587971 58.074758 
L 201.587971 58.074758 
L 201.587971 58.074758 
L 201.587971 58.074758 
L 201.587971 58.074758 
L 201.587971 58.074758 
L 201.587971 58.074758 
L 201.587971 58.074758 
L 201.587971 58.074758 
L 201.587971 58.074758 
L 201.587971 58.074758 
" style="fill:none;stroke:#ff7f0e;stroke-dasharray:5.55,2.4;stroke-dashoffset:0;stroke-width:1.5;"/>
   </g>
   <g id="line2d_21">
    <path clip-path="url(#p20dd5a4a7b)" d="M 167.983995 35.748868 
L 172.677286 38.221445 
L 173.255936 38.637066 
L 173.255936 38.637066 
L 173.255936 38.637066 
L 173.255936 38.637066 
L 173.255936 38.637066 
L 173.255936 38.637066 
L 173.255936 38.637066 
L 187.64821 43.435822 
L 187.51207 44.299623 
L 187.871712 45.170776 
L 190.234029 46.789344 
L 192.59787 47.178971 
L 194.446804 48.641587 
L 201.521139 54.544124 
L 202.91756 55.876503 
L 206.304203 60.369808 
L 206.304203 60.369808 
L 207.474332 61.447637 
L 206.820052 62.509711 
L 206.820052 62.509711 
L 238.485805 63.839095 
L 237.666185 64.386418 
L 239.03689 64.827599 
L 239.744485 66.203629 
L 238.053469 67.232115 
L 235.240045 68.324333 
L 236.820801 68.274597 
L 236.820801 68.274597 
L 235.798682 68.673673 
L 234.794485 69.092328 
L 236.676515 69.280697 
L 236.10962 69.805198 
" style="fill:none;stroke:#2ca02c;stroke-dasharray:5.55,2.4;stroke-dashoffset:0;stroke-width:1.5;"/>
   </g>
   <g id="line2d_22">
    <path clip-path="url(#p20dd5a4a7b)" d="M 165.492309 33.20934 
L 165.492309 33.20934 
L 165.492309 33.20934 
L 165.492309 33.20934 
L 192.93758 42.80707 
L 191.109214 45.213251 
L 192.566992 50.081926 
L 191.324055 51.829927 
L 191.324055 51.829927 
L 191.324055 51.829927 
L 191.324055 51.829927 
L 191.324055 51.829927 
L 191.324055 51.829927 
L 191.324055 51.829927 
L 201.599528 52.798946 
L 202.095811 53.408621 
L 202.095811 53.408621 
L 202.340656 54.358088 
L 204.305687 54.628285 
L 204.305687 54.628285 
L 200.566089 55.692587 
L 198.980282 56.027379 
L 201.705706 56.455599 
L 203.28742 57.435738 
L 205.401173 58.292294 
L 210.23224 61.019318 
L 211.369946 64.614771 
L 211.369946 64.614771 
L 211.369946 64.614771 
L 211.369946 64.614771 
L 211.369946 64.614771 
L 211.369946 64.614771 
L 211.369946 64.614771 
L 211.369946 64.614771 
" style="fill:none;stroke:#d62728;stroke-dasharray:5.55,2.4;stroke-dashoffset:0;stroke-width:1.5;"/>
   </g>
   <g id="line2d_23">
    <path clip-path="url(#p20dd5a4a7b)" d="M 164.488566 34.05728 
L 169.030202 35.781996 
L 170.556153 36.517085 
L 174.459836 38.629848 
L 175.740066 40.71774 
L 175.740066 40.71774 
L 175.740066 40.71774 
L 175.740066 40.71774 
L 175.740066 40.71774 
L 183.374617 45.884711 
L 183.374617 45.884711 
L 183.374617 45.884711 
L 195.098417 48.297124 
L 195.30539 48.515161 
L 195.30539 48.515161 
L 194.78031 49.394953 
L 194.78031 49.394953 
L 196.626133 50.770777 
L 204.789689 57.991644 
L 205.289096 59.301602 
L 205.289096 59.301602 
L 205.289096 59.301602 
L 204.474774 59.802361 
L 204.604397 59.884886 
L 204.604397 59.884886 
L 209.031466 60.511751 
L 209.031466 60.511751 
L 216.038968 63.460218 
L 216.153869 64.846618 
L 216.153869 64.846618 
L 216.153869 64.846618 
L 216.153869 64.846618 
L 216.153869 64.846618 
L 216.153869 64.846618 
" style="fill:none;stroke:#9467bd;stroke-dasharray:5.55,2.4;stroke-dashoffset:0;stroke-width:1.5;"/>
   </g>
   <g id="line2d_24">
    <path clip-path="url(#p20dd5a4a7b)" d="M 168.312741 34.742716 
L 169.777915 35.474032 
L 167.502944 35.814087 
L 167.502944 35.814087 
L 169.311666 37.371441 
L 169.311666 37.371441 
L 172.259771 38.577132 
L 172.245738 39.04978 
L 172.245738 39.04978 
L 172.245738 39.04978 
L 172.245738 39.04978 
L 175.388608 39.824829 
L 175.388608 39.824829 
L 175.388608 39.824829 
L 182.210045 41.985155 
L 182.742586 42.784452 
L 183.853122 43.442325 
L 184.692223 44.708118 
L 184.440959 45.425782 
L 184.440959 45.425782 
L 184.440959 45.425782 
L 183.518776 45.705884 
L 183.518776 45.705884 
L 183.518776 45.705884 
L 183.518776 45.705884 
L 183.518776 45.705884 
L 183.518776 45.705884 
L 183.518776 45.705884 
L 183.518776 45.705884 
L 183.518776 45.705884 
L 187.083819 48.494403 
L 189.911204 49.095507 
L 189.911204 49.095507 
L 191.693992 49.752315 
" style="fill:none;stroke:#8c564b;stroke-dasharray:5.55,2.4;stroke-dashoffset:0;stroke-width:1.5;"/>
   </g>
   <g id="line2d_25">
    <path clip-path="url(#p20dd5a4a7b)" d="M 165.356912 33.908338 
L 165.356912 33.908338 
L 165.356912 33.908338 
L 165.356912 33.908338 
L 165.356912 33.908338 
L 183.892901 34.567178 
L 184.356646 35.234662 
L 184.668738 36.124953 
L 185.212578 38.314327 
L 185.765468 39.379502 
L 187.694425 42.958122 
L 187.573118 43.098743 
L 187.488571 43.262187 
L 187.399365 43.946162 
L 188.547901 45.5878 
L 189.687957 48.326285 
L 190.255585 50.035035 
L 192.155847 51.025365 
L 196.343773 55.273584 
L 196.343773 55.273584 
L 196.343773 55.273584 
L 196.343773 55.273584 
L 196.343773 55.273584 
L 196.343773 55.273584 
L 196.343773 55.273584 
L 196.343773 55.273584 
L 196.343773 55.273584 
L 196.343773 55.273584 
L 196.343773 55.273584 
L 196.343773 55.273584 
L 196.343773 55.273584 
L 196.343773 55.273584 
L 196.343773 55.273584 
L 196.343773 55.273584 
" style="fill:none;stroke:#e377c2;stroke-dasharray:5.55,2.4;stroke-dashoffset:0;stroke-width:1.5;"/>
   </g>
   <g id="line2d_26">
    <path clip-path="url(#p20dd5a4a7b)" d="M 165.563373 34.855368 
L 165.563373 34.855368 
L 165.563373 34.855368 
L 165.563373 34.855368 
L 165.563373 34.855368 
L 165.563373 34.855368 
L 165.563373 34.855368 
L 165.563373 34.855368 
L 165.563373 34.855368 
L 165.563373 34.855368 
L 165.563373 34.855368 
L 165.563373 34.855368 
L 165.563373 34.855368 
L 169.502171 35.247626 
L 168.646915 36.319929 
L 169.704539 36.481594 
L 169.704539 36.481594 
L 169.704539 36.481594 
L 205.096202 59.018557 
L 204.938882 59.363853 
L 204.968163 59.286062 
L 204.726701 59.288442 
L 204.726701 59.288442 
L 204.726701 59.288442 
L 226.834346 66.85124 
L 226.834346 66.85124 
L 226.834346 66.85124 
L 228.051484 68.189812 
L 230.031208 68.957459 
L 226.900963 70.558988 
L 226.900963 70.558988 
L 226.900963 70.558988 
L 226.900963 70.558988 
L 226.900963 70.558988 
" style="fill:none;stroke:#7f7f7f;stroke-dasharray:5.55,2.4;stroke-dashoffset:0;stroke-width:1.5;"/>
   </g>
   <g id="line2d_27">
    <path clip-path="url(#p20dd5a4a7b)" d="M 167.772819 33.555174 
L 167.772819 33.555174 
L 167.772819 33.555174 
L 174.116951 33.54095 
L 171.626688 35.044231 
L 171.626688 35.044231 
L 171.626688 35.044231 
L 171.626688 35.044231 
L 171.626688 35.044231 
L 171.626688 35.044231 
L 171.626688 35.044231 
L 171.626688 35.044231 
L 171.626688 35.044231 
L 171.626688 35.044231 
L 171.626688 35.044231 
L 171.626688 35.044231 
L 171.626688 35.044231 
L 171.626688 35.044231 
L 208.153872 45.667358 
L 210.412909 46.499317 
L 212.791819 47.691536 
L 215.110262 48.576376 
L 216.856842 50.657152 
L 216.74051 55.334561 
L 216.562763 55.855836 
L 215.046087 57.429974 
L 212.236468 59.124428 
L 208.890049 59.165048 
L 208.890049 59.165048 
L 211.236819 60.374884 
L 212.984586 62.674348 
L 212.984586 62.674348 
L 212.984586 62.674348 
L 212.984586 62.674348 
" style="fill:none;stroke:#bcbd22;stroke-dasharray:5.55,2.4;stroke-dashoffset:0;stroke-width:1.5;"/>
   </g>
   <g id="line2d_28">
    <path clip-path="url(#p20dd5a4a7b)" d="M 166.84553 34.550663 
L 166.84553 34.550663 
L 166.84553 34.550663 
L 166.84553 34.550663 
L 166.84553 34.550663 
L 171.017029 35.411345 
L 171.017029 35.411345 
L 173.41433 36.480309 
L 175.333433 40.40861 
L 175.333433 40.40861 
L 175.333433 40.40861 
L 185.465618 40.437873 
L 185.465618 40.437873 
L 185.694113 40.696078 
L 185.028295 42.022426 
L 185.028295 42.022426 
L 183.194907 45.878175 
L 185.364006 46.372779 
L 185.364006 46.372779 
L 185.364006 46.372779 
L 185.364006 46.372779 
L 185.364006 46.372779 
L 185.364006 46.372779 
L 185.364006 46.372779 
L 204.026231 48.091456 
L 202.547371 49.334555 
L 203.635596 50.114472 
L 204.962173 52.193185 
L 204.227234 56.77464 
L 204.873148 56.967285 
L 206.111909 57.768411 
L 209.430287 60.033629 
L 208.491099 61.067723 
L 208.491099 61.067723 
" style="fill:none;stroke:#17becf;stroke-dasharray:5.55,2.4;stroke-dashoffset:0;stroke-width:1.5;"/>
   </g>
   <g id="patch_3">
    <path d="M 54 252 
L 54 34.56 
" style="fill:none;stroke:#000000;stroke-linecap:square;stroke-linejoin:miter;stroke-width:0.8;"/>
   </g>
   <g id="patch_4">
    <path d="M 388.8 252 
L 388.8 34.56 
" style="fill:none;stroke:#000000;stroke-linecap:square;stroke-linejoin:miter;stroke-width:0.8;"/>
   </g>
   <g id="patch_5">
    <path d="M 54 252 
L 388.8 252 
" style="fill:none;stroke:#000000;stroke-linecap:square;stroke-linejoin:miter;stroke-width:0.8;"/>
   </g>
   <g id="patch_6">
    <path d="M 54 34.56 
L 388.8 34.56 
" style="fill:none;stroke:#000000;stroke-linecap:square;stroke-linejoin:miter;stroke-width:0.8;"/>
   </g>
   <g id="legend_1">
    <g id="patch_7">
     <path d="M 317.495313 189.34125 
L 381.8 189.34125 
Q 383.8 189.34125 383.8 187.34125 
L 383.8 41.56 
Q 383.8 39.56 381.8 39.56 
L 317.495313 39.56 
Q 315.495313 39.56 315.495313 41.56 
L 315.495313 187.34125 
Q 315.495313 189.34125 317.495313 189.34125 
z
" style="fill:#ffffff;opacity:0.8;stroke:#cccccc;stroke-linejoin:miter;"/>
    </g>
    <g id="line2d_29">
     <path d="M 319.495313 47.658437 
L 339.495313 47.658437 
" style="fill:none;stroke:#1f77b4;stroke-dasharray:5.55,2.4;stroke-dashoffset:0;stroke-width:1.5;"/>
    </g>
    <g id="line2d_30"/>
    <g id="text_17">
     <!-- Nest.0 -->
     <g transform="translate(347.495313 51.158437)scale(0.1 -0.1)">
      <defs>
       <path d="M 9.8125 72.90625 
L 23.09375 72.90625 
L 55.421875 11.921875 
L 55.421875 72.90625 
L 64.984375 72.90625 
L 64.984375 0 
L 51.703125 0 
L 19.390625 60.984375 
L 19.390625 0 
L 9.8125 0 
z
" id="DejaVuSans-78"/>
       <path d="M 56.203125 29.59375 
L 56.203125 25.203125 
L 14.890625 25.203125 
Q 15.484375 15.921875 20.484375 11.0625 
Q 25.484375 6.203125 34.421875 6.203125 
Q 39.59375 6.203125 44.453125 7.46875 
Q 49.3125 8.734375 54.109375 11.28125 
L 54.109375 2.78125 
Q 49.265625 0.734375 44.1875 -0.34375 
Q 39.109375 -1.421875 33.890625 -1.421875 
Q 20.796875 -1.421875 13.15625 6.1875 
Q 5.515625 13.8125 5.515625 26.8125 
Q 5.515625 40.234375 12.765625 48.109375 
Q 20.015625 56 32.328125 56 
Q 43.359375 56 49.78125 48.890625 
Q 56.203125 41.796875 56.203125 29.59375 
z
M 47.21875 32.234375 
Q 47.125 39.59375 43.09375 43.984375 
Q 39.0625 48.390625 32.421875 48.390625 
Q 24.90625 48.390625 20.390625 44.140625 
Q 15.875 39.890625 15.1875 32.171875 
z
" id="DejaVuSans-101"/>
       <path d="M 44.28125 53.078125 
L 44.28125 44.578125 
Q 40.484375 46.53125 36.375 47.5 
Q 32.28125 48.484375 27.875 48.484375 
Q 21.1875 48.484375 17.84375 46.4375 
Q 14.5 44.390625 14.5 40.28125 
Q 14.5 37.15625 16.890625 35.375 
Q 19.28125 33.59375 26.515625 31.984375 
L 29.59375 31.296875 
Q 39.15625 29.25 43.1875 25.515625 
Q 47.21875 21.78125 47.21875 15.09375 
Q 47.21875 7.46875 41.1875 3.015625 
Q 35.15625 -1.421875 24.609375 -1.421875 
Q 20.21875 -1.421875 15.453125 -0.5625 
Q 10.6875 0.296875 5.421875 2 
L 5.421875 11.28125 
Q 10.40625 8.6875 15.234375 7.390625 
Q 20.0625 6.109375 24.8125 6.109375 
Q 31.15625 6.109375 34.5625 8.28125 
Q 37.984375 10.453125 37.984375 14.40625 
Q 37.984375 18.0625 35.515625 20.015625 
Q 33.0625 21.96875 24.703125 23.78125 
L 21.578125 24.515625 
Q 13.234375 26.265625 9.515625 29.90625 
Q 5.8125 33.546875 5.8125 39.890625 
Q 5.8125 47.609375 11.28125 51.796875 
Q 16.75 56 26.8125 56 
Q 31.78125 56 36.171875 55.265625 
Q 40.578125 54.546875 44.28125 53.078125 
z
" id="DejaVuSans-115"/>
       <path d="M 18.3125 70.21875 
L 18.3125 54.6875 
L 36.8125 54.6875 
L 36.8125 47.703125 
L 18.3125 47.703125 
L 18.3125 18.015625 
Q 18.3125 11.328125 20.140625 9.421875 
Q 21.96875 7.515625 27.59375 7.515625 
L 36.8125 7.515625 
L 36.8125 0 
L 27.59375 0 
Q 17.1875 0 13.234375 3.875 
Q 9.28125 7.765625 9.28125 18.015625 
L 9.28125 47.703125 
L 2.6875 47.703125 
L 2.6875 54.6875 
L 9.28125 54.6875 
L 9.28125 70.21875 
z
" id="DejaVuSans-116"/>
      </defs>
      <use xlink:href="#DejaVuSans-78"/>
      <use x="74.804688" xlink:href="#DejaVuSans-101"/>
      <use x="136.328125" xlink:href="#DejaVuSans-115"/>
      <use x="188.427734" xlink:href="#DejaVuSans-116"/>
      <use x="227.636719" xlink:href="#DejaVuSans-46"/>
      <use x="259.423828" xlink:href="#DejaVuSans-48"/>
     </g>
    </g>
    <g id="line2d_31">
     <path d="M 319.495313 62.336563 
L 339.495313 62.336563 
" style="fill:none;stroke:#ff7f0e;stroke-dasharray:5.55,2.4;stroke-dashoffset:0;stroke-width:1.5;"/>
    </g>
    <g id="line2d_32"/>
    <g id="text_18">
     <!-- Nest.1 -->
     <g transform="translate(347.495313 65.836563)scale(0.1 -0.1)">
      <use xlink:href="#DejaVuSans-78"/>
      <use x="74.804688" xlink:href="#DejaVuSans-101"/>
      <use x="136.328125" xlink:href="#DejaVuSans-115"/>
      <use x="188.427734" xlink:href="#DejaVuSans-116"/>
      <use x="227.636719" xlink:href="#DejaVuSans-46"/>
      <use x="259.423828" xlink:href="#DejaVuSans-49"/>
     </g>
    </g>
    <g id="line2d_33">
     <path d="M 319.495313 77.014688 
L 339.495313 77.014688 
" style="fill:none;stroke:#2ca02c;stroke-dasharray:5.55,2.4;stroke-dashoffset:0;stroke-width:1.5;"/>
    </g>
    <g id="line2d_34"/>
    <g id="text_19">
     <!-- Nest.2 -->
     <g transform="translate(347.495313 80.514688)scale(0.1 -0.1)">
      <use xlink:href="#DejaVuSans-78"/>
      <use x="74.804688" xlink:href="#DejaVuSans-101"/>
      <use x="136.328125" xlink:href="#DejaVuSans-115"/>
      <use x="188.427734" xlink:href="#DejaVuSans-116"/>
      <use x="227.636719" xlink:href="#DejaVuSans-46"/>
      <use x="259.423828" xlink:href="#DejaVuSans-50"/>
     </g>
    </g>
    <g id="line2d_35">
     <path d="M 319.495313 91.692813 
L 339.495313 91.692813 
" style="fill:none;stroke:#d62728;stroke-dasharray:5.55,2.4;stroke-dashoffset:0;stroke-width:1.5;"/>
    </g>
    <g id="line2d_36"/>
    <g id="text_20">
     <!-- Nest.3 -->
     <g transform="translate(347.495313 95.192813)scale(0.1 -0.1)">
      <defs>
       <path d="M 40.578125 39.3125 
Q 47.65625 37.796875 51.625 33 
Q 55.609375 28.21875 55.609375 21.1875 
Q 55.609375 10.40625 48.1875 4.484375 
Q 40.765625 -1.421875 27.09375 -1.421875 
Q 22.515625 -1.421875 17.65625 -0.515625 
Q 12.796875 0.390625 7.625 2.203125 
L 7.625 11.71875 
Q 11.71875 9.328125 16.59375 8.109375 
Q 21.484375 6.890625 26.8125 6.890625 
Q 36.078125 6.890625 40.9375 10.546875 
Q 45.796875 14.203125 45.796875 21.1875 
Q 45.796875 27.640625 41.28125 31.265625 
Q 36.765625 34.90625 28.71875 34.90625 
L 20.21875 34.90625 
L 20.21875 43.015625 
L 29.109375 43.015625 
Q 36.375 43.015625 40.234375 45.921875 
Q 44.09375 48.828125 44.09375 54.296875 
Q 44.09375 59.90625 40.109375 62.90625 
Q 36.140625 65.921875 28.71875 65.921875 
Q 24.65625 65.921875 20.015625 65.03125 
Q 15.375 64.15625 9.8125 62.3125 
L 9.8125 71.09375 
Q 15.4375 72.65625 20.34375 73.4375 
Q 25.25 74.21875 29.59375 74.21875 
Q 40.828125 74.21875 47.359375 69.109375 
Q 53.90625 64.015625 53.90625 55.328125 
Q 53.90625 49.265625 50.4375 45.09375 
Q 46.96875 40.921875 40.578125 39.3125 
z
" id="DejaVuSans-51"/>
      </defs>
      <use xlink:href="#DejaVuSans-78"/>
      <use x="74.804688" xlink:href="#DejaVuSans-101"/>
      <use x="136.328125" xlink:href="#DejaVuSans-115"/>
      <use x="188.427734" xlink:href="#DejaVuSans-116"/>
      <use x="227.636719" xlink:href="#DejaVuSans-46"/>
      <use x="259.423828" xlink:href="#DejaVuSans-51"/>
     </g>
    </g>
    <g id="line2d_37">
     <path d="M 319.495313 106.370938 
L 339.495313 106.370938 
" style="fill:none;stroke:#9467bd;stroke-dasharray:5.55,2.4;stroke-dashoffset:0;stroke-width:1.5;"/>
    </g>
    <g id="line2d_38"/>
    <g id="text_21">
     <!-- Nest.4 -->
     <g transform="translate(347.495313 109.870938)scale(0.1 -0.1)">
      <defs>
       <path d="M 37.796875 64.3125 
L 12.890625 25.390625 
L 37.796875 25.390625 
z
M 35.203125 72.90625 
L 47.609375 72.90625 
L 47.609375 25.390625 
L 58.015625 25.390625 
L 58.015625 17.1875 
L 47.609375 17.1875 
L 47.609375 0 
L 37.796875 0 
L 37.796875 17.1875 
L 4.890625 17.1875 
L 4.890625 26.703125 
z
" id="DejaVuSans-52"/>
      </defs>
      <use xlink:href="#DejaVuSans-78"/>
      <use x="74.804688" xlink:href="#DejaVuSans-101"/>
      <use x="136.328125" xlink:href="#DejaVuSans-115"/>
      <use x="188.427734" xlink:href="#DejaVuSans-116"/>
      <use x="227.636719" xlink:href="#DejaVuSans-46"/>
      <use x="259.423828" xlink:href="#DejaVuSans-52"/>
     </g>
    </g>
    <g id="line2d_39">
     <path d="M 319.495313 121.049062 
L 339.495313 121.049062 
" style="fill:none;stroke:#8c564b;stroke-dasharray:5.55,2.4;stroke-dashoffset:0;stroke-width:1.5;"/>
    </g>
    <g id="line2d_40"/>
    <g id="text_22">
     <!-- Nest.5 -->
     <g transform="translate(347.495313 124.549062)scale(0.1 -0.1)">
      <use xlink:href="#DejaVuSans-78"/>
      <use x="74.804688" xlink:href="#DejaVuSans-101"/>
      <use x="136.328125" xlink:href="#DejaVuSans-115"/>
      <use x="188.427734" xlink:href="#DejaVuSans-116"/>
      <use x="227.636719" xlink:href="#DejaVuSans-46"/>
      <use x="259.423828" xlink:href="#DejaVuSans-53"/>
     </g>
    </g>
    <g id="line2d_41">
     <path d="M 319.495313 135.727188 
L 339.495313 135.727188 
" style="fill:none;stroke:#e377c2;stroke-dasharray:5.55,2.4;stroke-dashoffset:0;stroke-width:1.5;"/>
    </g>
    <g id="line2d_42"/>
    <g id="text_23">
     <!-- Nest.6 -->
     <g transform="translate(347.495313 139.227188)scale(0.1 -0.1)">
      <defs>
       <path d="M 33.015625 40.375 
Q 26.375 40.375 22.484375 35.828125 
Q 18.609375 31.296875 18.609375 23.390625 
Q 18.609375 15.53125 22.484375 10.953125 
Q 26.375 6.390625 33.015625 6.390625 
Q 39.65625 6.390625 43.53125 10.953125 
Q 47.40625 15.53125 47.40625 23.390625 
Q 47.40625 31.296875 43.53125 35.828125 
Q 39.65625 40.375 33.015625 40.375 
z
M 52.59375 71.296875 
L 52.59375 62.3125 
Q 48.875 64.0625 45.09375 64.984375 
Q 41.3125 65.921875 37.59375 65.921875 
Q 27.828125 65.921875 22.671875 59.328125 
Q 17.53125 52.734375 16.796875 39.40625 
Q 19.671875 43.65625 24.015625 45.921875 
Q 28.375 48.1875 33.59375 48.1875 
Q 44.578125 48.1875 50.953125 41.515625 
Q 57.328125 34.859375 57.328125 23.390625 
Q 57.328125 12.15625 50.6875 5.359375 
Q 44.046875 -1.421875 33.015625 -1.421875 
Q 20.359375 -1.421875 13.671875 8.265625 
Q 6.984375 17.96875 6.984375 36.375 
Q 6.984375 53.65625 15.1875 63.9375 
Q 23.390625 74.21875 37.203125 74.21875 
Q 40.921875 74.21875 44.703125 73.484375 
Q 48.484375 72.75 52.59375 71.296875 
z
" id="DejaVuSans-54"/>
      </defs>
      <use xlink:href="#DejaVuSans-78"/>
      <use x="74.804688" xlink:href="#DejaVuSans-101"/>
      <use x="136.328125" xlink:href="#DejaVuSans-115"/>
      <use x="188.427734" xlink:href="#DejaVuSans-116"/>
      <use x="227.636719" xlink:href="#DejaVuSans-46"/>
      <use x="259.423828" xlink:href="#DejaVuSans-54"/>
     </g>
    </g>
    <g id="line2d_43">
     <path d="M 319.495313 150.405312 
L 339.495313 150.405312 
" style="fill:none;stroke:#7f7f7f;stroke-dasharray:5.55,2.4;stroke-dashoffset:0;stroke-width:1.5;"/>
    </g>
    <g id="line2d_44"/>
    <g id="text_24">
     <!-- Nest.7 -->
     <g transform="translate(347.495313 153.905312)scale(0.1 -0.1)">
      <defs>
       <path d="M 8.203125 72.90625 
L 55.078125 72.90625 
L 55.078125 68.703125 
L 28.609375 0 
L 18.3125 0 
L 43.21875 64.59375 
L 8.203125 64.59375 
z
" id="DejaVuSans-55"/>
      </defs>
      <use xlink:href="#DejaVuSans-78"/>
      <use x="74.804688" xlink:href="#DejaVuSans-101"/>
      <use x="136.328125" xlink:href="#DejaVuSans-115"/>
      <use x="188.427734" xlink:href="#DejaVuSans-116"/>
      <use x="227.636719" xlink:href="#DejaVuSans-46"/>
      <use x="259.423828" xlink:href="#DejaVuSans-55"/>
     </g>
    </g>
    <g id="line2d_45">
     <path d="M 319.495313 165.083438 
L 339.495313 165.083438 
" style="fill:none;stroke:#bcbd22;stroke-dasharray:5.55,2.4;stroke-dashoffset:0;stroke-width:1.5;"/>
    </g>
    <g id="line2d_46"/>
    <g id="text_25">
     <!-- Nest.8 -->
     <g transform="translate(347.495313 168.583438)scale(0.1 -0.1)">
      <defs>
       <path d="M 31.78125 34.625 
Q 24.75 34.625 20.71875 30.859375 
Q 16.703125 27.09375 16.703125 20.515625 
Q 16.703125 13.921875 20.71875 10.15625 
Q 24.75 6.390625 31.78125 6.390625 
Q 38.8125 6.390625 42.859375 10.171875 
Q 46.921875 13.96875 46.921875 20.515625 
Q 46.921875 27.09375 42.890625 30.859375 
Q 38.875 34.625 31.78125 34.625 
z
M 21.921875 38.8125 
Q 15.578125 40.375 12.03125 44.71875 
Q 8.5 49.078125 8.5 55.328125 
Q 8.5 64.0625 14.71875 69.140625 
Q 20.953125 74.21875 31.78125 74.21875 
Q 42.671875 74.21875 48.875 69.140625 
Q 55.078125 64.0625 55.078125 55.328125 
Q 55.078125 49.078125 51.53125 44.71875 
Q 48 40.375 41.703125 38.8125 
Q 48.828125 37.15625 52.796875 32.3125 
Q 56.78125 27.484375 56.78125 20.515625 
Q 56.78125 9.90625 50.3125 4.234375 
Q 43.84375 -1.421875 31.78125 -1.421875 
Q 19.734375 -1.421875 13.25 4.234375 
Q 6.78125 9.90625 6.78125 20.515625 
Q 6.78125 27.484375 10.78125 32.3125 
Q 14.796875 37.15625 21.921875 38.8125 
z
M 18.3125 54.390625 
Q 18.3125 48.734375 21.84375 45.5625 
Q 25.390625 42.390625 31.78125 42.390625 
Q 38.140625 42.390625 41.71875 45.5625 
Q 45.3125 48.734375 45.3125 54.390625 
Q 45.3125 60.0625 41.71875 63.234375 
Q 38.140625 66.40625 31.78125 66.40625 
Q 25.390625 66.40625 21.84375 63.234375 
Q 18.3125 60.0625 18.3125 54.390625 
z
" id="DejaVuSans-56"/>
      </defs>
      <use xlink:href="#DejaVuSans-78"/>
      <use x="74.804688" xlink:href="#DejaVuSans-101"/>
      <use x="136.328125" xlink:href="#DejaVuSans-115"/>
      <use x="188.427734" xlink:href="#DejaVuSans-116"/>
      <use x="227.636719" xlink:href="#DejaVuSans-46"/>
      <use x="259.423828" xlink:href="#DejaVuSans-56"/>
     </g>
    </g>
    <g id="line2d_47">
     <path d="M 319.495313 179.761562 
L 339.495313 179.761562 
" style="fill:none;stroke:#17becf;stroke-dasharray:5.55,2.4;stroke-dashoffset:0;stroke-width:1.5;"/>
    </g>
    <g id="line2d_48"/>
    <g id="text_26">
     <!-- Nest.9 -->
     <g transform="translate(347.495313 183.261562)scale(0.1 -0.1)">
      <defs>
       <path d="M 10.984375 1.515625 
L 10.984375 10.5 
Q 14.703125 8.734375 18.5 7.8125 
Q 22.3125 6.890625 25.984375 6.890625 
Q 35.75 6.890625 40.890625 13.453125 
Q 46.046875 20.015625 46.78125 33.40625 
Q 43.953125 29.203125 39.59375 26.953125 
Q 35.25 24.703125 29.984375 24.703125 
Q 19.046875 24.703125 12.671875 31.3125 
Q 6.296875 37.9375 6.296875 49.421875 
Q 6.296875 60.640625 12.9375 67.421875 
Q 19.578125 74.21875 30.609375 74.21875 
Q 43.265625 74.21875 49.921875 64.515625 
Q 56.59375 54.828125 56.59375 36.375 
Q 56.59375 19.140625 48.40625 8.859375 
Q 40.234375 -1.421875 26.421875 -1.421875 
Q 22.703125 -1.421875 18.890625 -0.6875 
Q 15.09375 0.046875 10.984375 1.515625 
z
M 30.609375 32.421875 
Q 37.25 32.421875 41.125 36.953125 
Q 45.015625 41.5 45.015625 49.421875 
Q 45.015625 57.28125 41.125 61.84375 
Q 37.25 66.40625 30.609375 66.40625 
Q 23.96875 66.40625 20.09375 61.84375 
Q 16.21875 57.28125 16.21875 49.421875 
Q 16.21875 41.5 20.09375 36.953125 
Q 23.96875 32.421875 30.609375 32.421875 
z
" id="DejaVuSans-57"/>
      </defs>
      <use xlink:href="#DejaVuSans-78"/>
      <use x="74.804688" xlink:href="#DejaVuSans-101"/>
      <use x="136.328125" xlink:href="#DejaVuSans-115"/>
      <use x="188.427734" xlink:href="#DejaVuSans-116"/>
      <use x="227.636719" xlink:href="#DejaVuSans-46"/>
      <use x="259.423828" xlink:href="#DejaVuSans-57"/>
     </g>
    </g>
   </g>
  </g>
 </g>
 <defs>
  <clipPath id="p20dd5a4a7b">
   <rect height="217.44" width="334.8" x="54" y="34.56"/>
  </clipPath>
 </defs>
</svg>
