<?xml version="1.0" encoding="utf-8" standalone="no"?>
<!DOCTYPE svg PUBLIC "-//W3C//DTD SVG 1.1//EN"
  "http://www.w3.org/Graphics/SVG/1.1/DTD/svg11.dtd">
<!-- Created with matplotlib (https://matplotlib.org/) -->
<svg height="288pt" version="1.1" viewBox="0 0 432 288" width="432pt" xmlns="http://www.w3.org/2000/svg" xmlns:xlink="http://www.w3.org/1999/xlink">
 <metadata>
  <rdf:RDF xmlns:cc="http://creativecommons.org/ns#" xmlns:dc="http://purl.org/dc/elements/1.1/" xmlns:rdf="http://www.w3.org/1999/02/22-rdf-syntax-ns#">
   <cc:Work>
    <dc:type rdf:resource="http://purl.org/dc/dcmitype/StillImage"/>
    <dc:date>2021-04-24T19:16:33.557860</dc:date>
    <dc:format>image/svg+xml</dc:format>
    <dc:creator>
     <cc:Agent>
      <dc:title>Matplotlib v3.3.4, https://matplotlib.org/</dc:title>
     </cc:Agent>
    </dc:creator>
   </cc:Work>
  </rdf:RDF>
 </metadata>
 <defs>
  <style type="text/css">*{stroke-linecap:butt;stroke-linejoin:round;}</style>
 </defs>
 <g id="figure_1">
  <g id="patch_1">
   <path d="M 0 288 
L 432 288 
L 432 0 
L 0 0 
z
" style="fill:#ffffff;"/>
  </g>
  <g id="axes_1">
   <g id="patch_2">
    <path d="M 54 252 
L 388.8 252 
L 388.8 34.56 
L 54 34.56 
z
" style="fill:#ffffff;"/>
   </g>
   <g id="matplotlib.axis_1">
    <g id="xtick_1">
     <g id="line2d_1">
      <defs>
       <path d="M 0 0 
L 0 3.5 
" id="m901b83fa20" style="stroke:#000000;stroke-width:0.8;"/>
      </defs>
      <g>
       <use style="stroke:#000000;stroke-width:0.8;" x="54" xlink:href="#m901b83fa20" y="252"/>
      </g>
     </g>
     <g id="text_1">
      <!-- −1.5 -->
      <g transform="translate(40.395703 269.415625)scale(0.15 -0.15)">
       <defs>
        <path d="M 54.4375 31.25 
L 1.8125 31.25 
L 1.8125 35.25 
L 54.4375 35.25 
z
" id="TimesNewRomanPSMT-8722"/>
        <path d="M 11.71875 59.71875 
L 27.828125 67.578125 
L 29.4375 67.578125 
L 29.4375 11.671875 
Q 29.4375 6.109375 29.90625 4.734375 
Q 30.375 3.375 31.828125 2.640625 
Q 33.296875 1.90625 37.796875 1.8125 
L 37.796875 0 
L 12.890625 0 
L 12.890625 1.8125 
Q 17.578125 1.90625 18.9375 2.609375 
Q 20.3125 3.328125 20.84375 4.515625 
Q 21.390625 5.71875 21.390625 11.671875 
L 21.390625 47.40625 
Q 21.390625 54.640625 20.90625 56.6875 
Q 20.5625 58.25 19.65625 58.984375 
Q 18.75 59.71875 17.484375 59.71875 
Q 15.671875 59.71875 12.453125 58.203125 
z
" id="TimesNewRomanPSMT-49"/>
        <path d="M 12.5 9.46875 
Q 14.796875 9.46875 16.359375 7.875 
Q 17.921875 6.296875 17.921875 4.046875 
Q 17.921875 1.8125 16.328125 0.21875 
Q 14.75 -1.375 12.5 -1.375 
Q 10.25 -1.375 8.65625 0.21875 
Q 7.078125 1.8125 7.078125 4.046875 
Q 7.078125 6.34375 8.65625 7.90625 
Q 10.25 9.46875 12.5 9.46875 
z
" id="TimesNewRomanPSMT-46"/>
        <path d="M 43.40625 66.21875 
L 39.59375 57.90625 
L 19.671875 57.90625 
L 15.328125 49.03125 
Q 28.265625 47.125 35.84375 39.40625 
Q 42.328125 32.765625 42.328125 23.78125 
Q 42.328125 18.5625 40.203125 14.109375 
Q 38.09375 9.671875 34.859375 6.546875 
Q 31.640625 3.421875 27.6875 1.515625 
Q 22.078125 -1.171875 16.15625 -1.171875 
Q 10.203125 -1.171875 7.484375 0.84375 
Q 4.78125 2.875 4.78125 5.328125 
Q 4.78125 6.6875 5.90625 7.734375 
Q 7.03125 8.796875 8.734375 8.796875 
Q 10.015625 8.796875 10.96875 8.40625 
Q 11.921875 8.015625 14.203125 6.390625 
Q 17.875 3.859375 21.625 3.859375 
Q 27.34375 3.859375 31.65625 8.171875 
Q 35.984375 12.5 35.984375 18.703125 
Q 35.984375 24.703125 32.125 29.90625 
Q 28.265625 35.109375 21.484375 37.9375 
Q 16.15625 40.140625 6.984375 40.484375 
L 19.671875 66.21875 
z
" id="TimesNewRomanPSMT-53"/>
       </defs>
       <use xlink:href="#TimesNewRomanPSMT-8722"/>
       <use x="56.396484" xlink:href="#TimesNewRomanPSMT-49"/>
       <use x="106.396484" xlink:href="#TimesNewRomanPSMT-46"/>
       <use x="131.396484" xlink:href="#TimesNewRomanPSMT-53"/>
      </g>
     </g>
    </g>
    <g id="xtick_2">
     <g id="line2d_2">
      <g>
       <use style="stroke:#000000;stroke-width:0.8;" x="109.8" xlink:href="#m901b83fa20" y="252"/>
      </g>
     </g>
     <g id="text_2">
      <!-- −1.0 -->
      <g transform="translate(96.195703 269.415625)scale(0.15 -0.15)">
       <defs>
        <path d="M 3.609375 32.71875 
Q 3.609375 44.046875 7.03125 52.21875 
Q 10.453125 60.40625 16.109375 64.40625 
Q 20.515625 67.578125 25.203125 67.578125 
Q 32.8125 67.578125 38.875 59.8125 
Q 46.4375 50.203125 46.4375 33.734375 
Q 46.4375 22.21875 43.109375 14.15625 
Q 39.796875 6.109375 34.640625 2.46875 
Q 29.5 -1.171875 24.703125 -1.171875 
Q 15.234375 -1.171875 8.9375 10.015625 
Q 3.609375 19.4375 3.609375 32.71875 
z
M 13.1875 31.5 
Q 13.1875 17.828125 16.546875 9.1875 
Q 19.34375 1.90625 24.859375 1.90625 
Q 27.484375 1.90625 30.3125 4.265625 
Q 33.15625 6.640625 34.625 12.203125 
Q 36.859375 20.609375 36.859375 35.890625 
Q 36.859375 47.21875 34.515625 54.78125 
Q 32.765625 60.40625 29.984375 62.75 
Q 27.984375 64.359375 25.140625 64.359375 
Q 21.828125 64.359375 19.234375 61.375 
Q 15.71875 57.328125 14.453125 48.625 
Q 13.1875 39.9375 13.1875 31.5 
z
" id="TimesNewRomanPSMT-48"/>
       </defs>
       <use xlink:href="#TimesNewRomanPSMT-8722"/>
       <use x="56.396484" xlink:href="#TimesNewRomanPSMT-49"/>
       <use x="106.396484" xlink:href="#TimesNewRomanPSMT-46"/>
       <use x="131.396484" xlink:href="#TimesNewRomanPSMT-48"/>
      </g>
     </g>
    </g>
    <g id="xtick_3">
     <g id="line2d_3">
      <g>
       <use style="stroke:#000000;stroke-width:0.8;" x="165.6" xlink:href="#m901b83fa20" y="252"/>
      </g>
     </g>
     <g id="text_3">
      <!-- −0.5 -->
      <g transform="translate(151.995703 269.415625)scale(0.15 -0.15)">
       <use xlink:href="#TimesNewRomanPSMT-8722"/>
       <use x="56.396484" xlink:href="#TimesNewRomanPSMT-48"/>
       <use x="106.396484" xlink:href="#TimesNewRomanPSMT-46"/>
       <use x="131.396484" xlink:href="#TimesNewRomanPSMT-53"/>
      </g>
     </g>
    </g>
    <g id="xtick_4">
     <g id="line2d_4">
      <g>
       <use style="stroke:#000000;stroke-width:0.8;" x="221.4" xlink:href="#m901b83fa20" y="252"/>
      </g>
     </g>
     <g id="text_4">
      <!-- 0.0 -->
      <g transform="translate(212.025 269.415625)scale(0.15 -0.15)">
       <use xlink:href="#TimesNewRomanPSMT-48"/>
       <use x="50" xlink:href="#TimesNewRomanPSMT-46"/>
       <use x="75" xlink:href="#TimesNewRomanPSMT-48"/>
      </g>
     </g>
    </g>
    <g id="xtick_5">
     <g id="line2d_5">
      <g>
       <use style="stroke:#000000;stroke-width:0.8;" x="277.2" xlink:href="#m901b83fa20" y="252"/>
      </g>
     </g>
     <g id="text_5">
      <!-- 0.5 -->
      <g transform="translate(267.825 269.415625)scale(0.15 -0.15)">
       <use xlink:href="#TimesNewRomanPSMT-48"/>
       <use x="50" xlink:href="#TimesNewRomanPSMT-46"/>
       <use x="75" xlink:href="#TimesNewRomanPSMT-53"/>
      </g>
     </g>
    </g>
    <g id="xtick_6">
     <g id="line2d_6">
      <g>
       <use style="stroke:#000000;stroke-width:0.8;" x="333" xlink:href="#m901b83fa20" y="252"/>
      </g>
     </g>
     <g id="text_6">
      <!-- 1.0 -->
      <g transform="translate(323.625 269.415625)scale(0.15 -0.15)">
       <use xlink:href="#TimesNewRomanPSMT-49"/>
       <use x="50" xlink:href="#TimesNewRomanPSMT-46"/>
       <use x="75" xlink:href="#TimesNewRomanPSMT-48"/>
      </g>
     </g>
    </g>
    <g id="xtick_7">
     <g id="line2d_7">
      <g>
       <use style="stroke:#000000;stroke-width:0.8;" x="388.8" xlink:href="#m901b83fa20" y="252"/>
      </g>
     </g>
     <g id="text_7">
      <!-- 1.5 -->
      <g transform="translate(379.425 269.415625)scale(0.15 -0.15)">
       <use xlink:href="#TimesNewRomanPSMT-49"/>
       <use x="50" xlink:href="#TimesNewRomanPSMT-46"/>
       <use x="75" xlink:href="#TimesNewRomanPSMT-53"/>
      </g>
     </g>
    </g>
    <g id="text_8">
     <!-- $x_1$ -->
     <g transform="translate(213.375 287.039844)scale(0.15 -0.15)">
      <defs>
       <path d="M 60.015625 54.6875 
L 34.90625 27.875 
L 50.296875 0 
L 39.984375 0 
L 28.421875 21.6875 
L 8.296875 0 
L -2.59375 0 
L 24.3125 28.8125 
L 10.015625 54.6875 
L 20.3125 54.6875 
L 30.8125 34.90625 
L 49.125 54.6875 
z
" id="DejaVuSans-Oblique-120"/>
       <path d="M 12.40625 8.296875 
L 28.515625 8.296875 
L 28.515625 63.921875 
L 10.984375 60.40625 
L 10.984375 69.390625 
L 28.421875 72.90625 
L 38.28125 72.90625 
L 38.28125 8.296875 
L 54.390625 8.296875 
L 54.390625 0 
L 12.40625 0 
z
" id="DejaVuSans-49"/>
      </defs>
      <use transform="translate(0 0.3125)" xlink:href="#DejaVuSans-Oblique-120"/>
      <use transform="translate(59.179688 -16.09375)scale(0.7)" xlink:href="#DejaVuSans-49"/>
     </g>
    </g>
   </g>
   <g id="matplotlib.axis_2">
    <g id="ytick_1">
     <g id="line2d_8">
      <defs>
       <path d="M 0 0 
L -3.5 0 
" id="mefa58dffe2" style="stroke:#000000;stroke-width:0.8;"/>
      </defs>
      <g>
       <use style="stroke:#000000;stroke-width:0.8;" x="54" xlink:href="#mefa58dffe2" y="252"/>
      </g>
     </g>
     <g id="text_9">
      <!-- −1.5 -->
      <g transform="translate(19.791406 257.207812)scale(0.15 -0.15)">
       <use xlink:href="#TimesNewRomanPSMT-8722"/>
       <use x="56.396484" xlink:href="#TimesNewRomanPSMT-49"/>
       <use x="106.396484" xlink:href="#TimesNewRomanPSMT-46"/>
       <use x="131.396484" xlink:href="#TimesNewRomanPSMT-53"/>
      </g>
     </g>
    </g>
    <g id="ytick_2">
     <g id="line2d_9">
      <g>
       <use style="stroke:#000000;stroke-width:0.8;" x="54" xlink:href="#mefa58dffe2" y="215.76"/>
      </g>
     </g>
     <g id="text_10">
      <!-- −1.0 -->
      <g transform="translate(19.791406 220.967812)scale(0.15 -0.15)">
       <use xlink:href="#TimesNewRomanPSMT-8722"/>
       <use x="56.396484" xlink:href="#TimesNewRomanPSMT-49"/>
       <use x="106.396484" xlink:href="#TimesNewRomanPSMT-46"/>
       <use x="131.396484" xlink:href="#TimesNewRomanPSMT-48"/>
      </g>
     </g>
    </g>
    <g id="ytick_3">
     <g id="line2d_10">
      <g>
       <use style="stroke:#000000;stroke-width:0.8;" x="54" xlink:href="#mefa58dffe2" y="179.52"/>
      </g>
     </g>
     <g id="text_11">
      <!-- −0.5 -->
      <g transform="translate(19.791406 184.727812)scale(0.15 -0.15)">
       <use xlink:href="#TimesNewRomanPSMT-8722"/>
       <use x="56.396484" xlink:href="#TimesNewRomanPSMT-48"/>
       <use x="106.396484" xlink:href="#TimesNewRomanPSMT-46"/>
       <use x="131.396484" xlink:href="#TimesNewRomanPSMT-53"/>
      </g>
     </g>
    </g>
    <g id="ytick_4">
     <g id="line2d_11">
      <g>
       <use style="stroke:#000000;stroke-width:0.8;" x="54" xlink:href="#mefa58dffe2" y="143.28"/>
      </g>
     </g>
     <g id="text_12">
      <!-- 0.0 -->
      <g transform="translate(28.25 148.487812)scale(0.15 -0.15)">
       <use xlink:href="#TimesNewRomanPSMT-48"/>
       <use x="50" xlink:href="#TimesNewRomanPSMT-46"/>
       <use x="75" xlink:href="#TimesNewRomanPSMT-48"/>
      </g>
     </g>
    </g>
    <g id="ytick_5">
     <g id="line2d_12">
      <g>
       <use style="stroke:#000000;stroke-width:0.8;" x="54" xlink:href="#mefa58dffe2" y="107.04"/>
      </g>
     </g>
     <g id="text_13">
      <!-- 0.5 -->
      <g transform="translate(28.25 112.247813)scale(0.15 -0.15)">
       <use xlink:href="#TimesNewRomanPSMT-48"/>
       <use x="50" xlink:href="#TimesNewRomanPSMT-46"/>
       <use x="75" xlink:href="#TimesNewRomanPSMT-53"/>
      </g>
     </g>
    </g>
    <g id="ytick_6">
     <g id="line2d_13">
      <g>
       <use style="stroke:#000000;stroke-width:0.8;" x="54" xlink:href="#mefa58dffe2" y="70.8"/>
      </g>
     </g>
     <g id="text_14">
      <!-- 1.0 -->
      <g transform="translate(28.25 76.007812)scale(0.15 -0.15)">
       <use xlink:href="#TimesNewRomanPSMT-49"/>
       <use x="50" xlink:href="#TimesNewRomanPSMT-46"/>
       <use x="75" xlink:href="#TimesNewRomanPSMT-48"/>
      </g>
     </g>
    </g>
    <g id="ytick_7">
     <g id="line2d_14">
      <g>
       <use style="stroke:#000000;stroke-width:0.8;" x="54" xlink:href="#mefa58dffe2" y="34.56"/>
      </g>
     </g>
     <g id="text_15">
      <!-- 1.5 -->
      <g transform="translate(28.25 39.767812)scale(0.15 -0.15)">
       <use xlink:href="#TimesNewRomanPSMT-49"/>
       <use x="50" xlink:href="#TimesNewRomanPSMT-46"/>
       <use x="75" xlink:href="#TimesNewRomanPSMT-53"/>
      </g>
     </g>
    </g>
    <g id="text_16">
     <!-- $x_2$ -->
     <g transform="translate(12.582813 151.305)rotate(-90)scale(0.15 -0.15)">
      <defs>
       <path d="M 19.1875 8.296875 
L 53.609375 8.296875 
L 53.609375 0 
L 7.328125 0 
L 7.328125 8.296875 
Q 12.9375 14.109375 22.625 23.890625 
Q 32.328125 33.6875 34.8125 36.53125 
Q 39.546875 41.84375 41.421875 45.53125 
Q 43.3125 49.21875 43.3125 52.78125 
Q 43.3125 58.59375 39.234375 62.25 
Q 35.15625 65.921875 28.609375 65.921875 
Q 23.96875 65.921875 18.8125 64.3125 
Q 13.671875 62.703125 7.8125 59.421875 
L 7.8125 69.390625 
Q 13.765625 71.78125 18.9375 73 
Q 24.125 74.21875 28.421875 74.21875 
Q 39.75 74.21875 46.484375 68.546875 
Q 53.21875 62.890625 53.21875 53.421875 
Q 53.21875 48.921875 51.53125 44.890625 
Q 49.859375 40.875 45.40625 35.40625 
Q 44.1875 33.984375 37.640625 27.21875 
Q 31.109375 20.453125 19.1875 8.296875 
z
" id="DejaVuSans-50"/>
      </defs>
      <use transform="translate(0 0.3125)" xlink:href="#DejaVuSans-Oblique-120"/>
      <use transform="translate(59.179688 -16.09375)scale(0.7)" xlink:href="#DejaVuSans-50"/>
     </g>
    </g>
   </g>
   <g id="LineCollection_1">
    <path clip-path="url(#p98a73f5f7d)" d="M 109.165183 -1 
L 433 209.31743 
L 433 209.31743 
" style="fill:none;stroke:#440154;stroke-width:1.5;"/>
   </g>
   <g id="LineCollection_2">
    <path clip-path="url(#p98a73f5f7d)" d="M 109.166016 -1 
L 433 209.3153 
L 433 209.3153 
" style="fill:none;stroke:#440154;stroke-width:1.5;"/>
   </g>
   <g id="LineCollection_3">
    <path clip-path="url(#p98a73f5f7d)" d="M 109.168056 -1 
L 433 209.310087 
L 433 209.310087 
" style="fill:none;stroke:#440154;stroke-width:1.5;"/>
   </g>
   <g id="LineCollection_4">
    <path clip-path="url(#p98a73f5f7d)" d="M 109.17305 -1 
L 301.034171 123.475562 
L 303.514459 125.068945 
L 433 209.297321 
L 433 209.297321 
" style="fill:none;stroke:#440256;stroke-width:1.5;"/>
   </g>
   <g id="LineCollection_5">
    <path clip-path="url(#p98a73f5f7d)" d="M 109.185279 -1 
L 269.629146 103.074783 
L 272.115768 104.672563 
L 294.304523 118.964951 
L 297.03116 120.698291 
L 312.250251 130.453823 
L 317.504853 133.810251 
L 350.384925 155.286533 
L 353.14273 157.120402 
L 370.573869 168.561193 
L 373.10848 170.232362 
L 428.897487 206.597353 
L 433 209.266066 
L 433 209.266066 
" style="fill:none;stroke:#450457;stroke-width:1.5;"/>
   </g>
   <g id="LineCollection_6">
    <path clip-path="url(#p98a73f5f7d)" d="M 109.215219 -1 
L 235.980905 81.197565 
L 240.7568 84.276181 
L 265.142714 99.993187 
L 270.191496 103.215678 
L 283.088442 111.464108 
L 288.491893 114.870754 
L 296.547739 119.976769 
L 304.698599 125.068945 
L 310.007035 128.4086 
L 320.912805 135.267136 
L 341.41206 148.70179 
L 360.400011 161.491055 
L 368.330653 166.759739 
L 373.530546 170.232362 
L 386.276382 178.628695 
L 391.213187 181.887437 
L 419.924623 200.662088 
L 424.635183 203.740704 
L 433 209.189539 
L 433 209.189539 
" style="fill:none;stroke:#460b5e;stroke-width:1.5;"/>
   </g>
   <g id="LineCollection_7">
    <path clip-path="url(#p98a73f5f7d)" d="M 109.288527 -1 
L 195.603015 54.929925 
L 202.698602 59.509146 
L 229.251256 76.635359 
L 236.629671 81.362412 
L 249.440201 89.57479 
L 257.162722 94.474372 
L 265.142714 99.546022 
L 275.663509 106.129447 
L 280.845226 109.365579 
L 289.951872 114.870754 
L 303.277387 116.686401 
L 314.493467 118.466717 
L 323.466332 120.08301 
L 332.439196 121.897311 
L 340.010951 123.61206 
L 348.141709 125.701029 
L 354.871357 127.64463 
L 360.422443 129.439598 
L 366.087437 131.5366 
L 370.573869 133.419676 
L 372.817085 134.471789 
L 375.060302 135.605543 
L 377.303518 136.852065 
L 379.546734 138.260609 
L 381.78995 139.914002 
L 383.183064 141.094673 
L 384.605232 142.551558 
L 385.726917 144.008442 
L 386.549863 145.465327 
L 387.068222 146.922211 
L 387.283276 148.379095 
L 387.188683 149.83598 
L 386.777926 151.292864 
L 386.040973 152.749749 
L 384.962206 154.206633 
L 383.534204 155.663518 
L 381.736798 157.120402 
L 379.544317 158.577286 
L 376.928652 160.034171 
L 372.817085 161.925173 
L 368.330653 163.65336 
L 366.181837 164.404824 
L 370.573869 167.490875 
L 381.78995 175.112216 
L 389.683464 180.430553 
L 397.492462 185.613257 
L 402.83345 189.171859 
L 415.438191 197.472954 
L 420.520396 200.826935 
L 433 209.002168 
L 433 209.002168 
" style="fill:none;stroke:#481a6c;stroke-width:1.5;"/>
   </g>
   <g id="LineCollection_8">
    <path clip-path="url(#p98a73f5f7d)" d="M 433 180.638318 
L 431.140704 181.098183 
L 428.897487 181.643592 
L 427.87839 181.887437 
L 426.654271 182.166624 
L 424.411055 182.669998 
L 422.167839 183.164669 
L 421.339823 183.344322 
L 419.924623 183.637699 
L 417.681407 184.094956 
L 415.438191 184.544128 
L 414.132083 184.801206 
L 413.194975 184.977822 
L 410.951759 185.393508 
L 408.708543 185.801651 
L 406.465327 186.202297 
L 406.147564 186.25809 
L 404.222111 186.582475 
L 401.978894 186.953434 
L 401.933188 187.714975 
L 401.978894 187.744659 
L 404.071219 189.171859 
L 404.222111 189.269858 
L 406.21614 190.628744 
L 406.465327 190.790581 
L 408.367409 192.085628 
L 408.708543 192.307182 
L 410.524529 193.542513 
L 410.951759 193.819983 
L 412.687046 194.999397 
L 413.194975 195.329278 
L 414.854548 196.456281 
L 415.438191 196.835336 
L 417.026655 197.913166 
L 417.681407 198.338402 
L 419.203023 199.37005 
L 419.924623 199.838702 
L 421.383336 200.826935 
L 422.167839 201.33644 
L 423.567305 202.283819 
L 424.411055 202.831803 
L 425.754664 203.740704 
L 426.654271 204.324965 
L 427.945172 205.197588 
L 428.897487 205.816081 
L 430.138607 206.654472 
L 431.140704 207.305297 
L 432.334764 208.111357 
L 433 208.543403 
" style="fill:none;stroke:#443983;stroke-width:1.5;"/>
    <path clip-path="url(#p98a73f5f7d)" d="M 109.468017 -1 
L 159.711558 31.504235 
L 169.253799 37.655879 
L 193.359799 53.186753 
L 203.228642 59.509146 
L 215.79196 67.557204 
L 228.351649 75.534874 
L 235.980905 80.374179 
L 253.926633 91.590288 
L 256.169849 92.246902 
L 271.872362 93.285124 
L 289.81809 94.724506 
L 305.520603 96.214145 
L 321.223116 97.93308 
L 336.925628 99.895039 
L 350.384925 101.78605 
L 366.087437 104.277439 
L 377.303518 106.254933 
L 391.516272 109.043216 
L 404.222111 111.84818 
L 410.951759 113.47116 
L 422.167839 116.433145 
L 431.672136 119.241407 
L 433 119.666884 
L 433 119.666884 
" style="fill:none;stroke:#443983;stroke-width:1.5;"/>
   </g>
   <g id="LineCollection_9">
    <path clip-path="url(#p98a73f5f7d)" d="M 109.907486 -1 
L 135.036181 15.193015 
L 151.871926 26.000804 
L 166.441206 35.340965 
L 204.575879 59.541274 
L 206.819095 60.491548 
L 227.00804 61.100153 
L 249.440201 62.018767 
L 269.629146 63.061188 
L 289.81809 64.310552 
L 310.007035 65.773071 
L 330.19598 67.455207 
L 350.384925 69.363686 
L 368.330653 71.25945 
L 388.519598 73.634149 
L 406.465327 75.968435 
L 424.411055 78.528713 
L 433 79.841507 
L 433 79.841507 
" style="fill:none;stroke:#297a8e;stroke-width:1.5;"/>
   </g>
   <g id="LineCollection_10">
    <path clip-path="url(#p98a73f5f7d)" d="M 110.996201 -1 
L 132.792965 12.772286 
L 159.711558 12.99621 
L 186.630151 13.456201 
L 213.548744 14.146162 
L 240.467337 15.069559 
L 267.38593 16.223129 
L 294.304523 17.610024 
L 321.223116 19.233454 
L 348.141709 21.096688 
L 373.647111 23.087035 
L 399.735678 25.361431 
L 424.411055 27.736028 
L 433 28.616134 
L 433 28.616134 
" style="fill:none;stroke:#fde725;stroke-width:1.5;"/>
   </g>
   <g id="line2d_15">
    <path clip-path="url(#p98a73f5f7d)" d="M 54 252 
L 388.8 252 
" style="fill:none;stroke:#000000;stroke-linecap:square;stroke-width:1.5;"/>
   </g>
   <g id="line2d_16">
    <path clip-path="url(#p98a73f5f7d)" d="M 54 34.56 
L 388.8 34.56 
" style="fill:none;stroke:#000000;stroke-linecap:square;stroke-width:1.5;"/>
   </g>
   <g id="line2d_17">
    <path clip-path="url(#p98a73f5f7d)" d="M 54 252 
L 54 34.56 
" style="fill:none;stroke:#000000;stroke-linecap:square;stroke-width:1.5;"/>
   </g>
   <g id="line2d_18">
    <path clip-path="url(#p98a73f5f7d)" d="M 388.8 252 
L 388.8 34.56 
" style="fill:none;stroke:#000000;stroke-linecap:square;stroke-width:1.5;"/>
   </g>
   <g id="line2d_19">
    <path clip-path="url(#p98a73f5f7d)" d="M 165.6 34.56 
L 173.897605 35.618495 
L 173.897605 35.618495 
L 173.01976 36.544216 
L 171.694146 37.208138 
L 170.303329 37.813186 
L 170.303329 37.813186 
L 170.303329 37.813186 
L 171.731516 38.380326 
L 171.731516 38.380326 
L 172.111064 38.613984 
L 173.643219 39.538953 
L 179.927359 43.127106 
L 202.809576 58.990831 
L 303.31859 116.428762 
L 303.31859 116.428762 
L 361.958908 137.395452 
L 361.958908 137.395452 
L 356.867473 137.113325 
L 349.116595 135.065945 
L 348.524643 135.904485 
L 348.125354 136.144414 
L 347.583081 136.116491 
L 347.288945 136.413681 
L 345.739452 137.40581 
L 339.228866 141.157256 
L 339.228866 141.157256 
L 338.785381 143.199535 
L 338.785381 143.199535 
L 338.104824 143.551906 
L 337.28668 144.861371 
L 337.28668 144.861371 
L 337.28668 144.861371 
L 336.987364 144.814987 
L 335.925487 144.410714 
L 334.838376 144.035797 
L 334.838376 144.035797 
L 334.606848 143.898482 
L 334.152654 143.843915 
L 333.686502 143.740999 
L 333.686502 143.740999 
L 333.521639 143.722145 
L 333.408152 143.642223 
L 333.408152 143.642223 
L 333.408152 143.642223 
L 333.414517 143.632167 
L 333.418908 143.621676 
L 333.388324 143.587005 
L 333.227696 143.465913 
L 332.562934 142.994381 
L 329.94966 141.153137 
L 328.813208 140.390566 
L 327.834425 139.857102 
L 327.611343 139.743366 
L 327.475379 139.670329 
L 327.405205 139.631987 
L 327.371474 139.613433 
L 327.35577 139.60477 
L 327.348564 139.600789 
L 327.348564 139.600789 
L 327.348564 139.600789 
L 327.348564 139.600789 
L 327.316446 139.652679 
L 327.316446 139.652679 
L 327.316446 139.652679 
L 327.289128 139.642063 
L 327.298566 139.648065 
L 327.298566 139.648065 
L 327.298566 139.648065 
L 327.300991 139.649371 
L 327.305115 139.652051 
L 327.305887 139.65256 
L 327.305887 139.65256 
L 327.307803 139.653769 
L 327.315354 139.658681 
L 327.316592 139.659475 
L 327.316592 139.659475 
L 327.316592 139.659475 
" style="fill:none;stroke:#1f77b4;stroke-dasharray:5.55,2.4;stroke-dashoffset:0;stroke-width:1.5;"/>
    <defs>
     <path d="M -3 3 
L 3 -3 
M -3 -3 
L 3 3 
" id="m70e501f86e" style="stroke:#1f77b4;"/>
    </defs>
    <g clip-path="url(#p98a73f5f7d)">
     <use style="fill:#1f77b4;stroke:#1f77b4;" x="165.6" xlink:href="#m70e501f86e" y="34.56"/>
     <use style="fill:#1f77b4;stroke:#1f77b4;" x="173.897605" xlink:href="#m70e501f86e" y="35.618495"/>
     <use style="fill:#1f77b4;stroke:#1f77b4;" x="173.897605" xlink:href="#m70e501f86e" y="35.618495"/>
     <use style="fill:#1f77b4;stroke:#1f77b4;" x="173.01976" xlink:href="#m70e501f86e" y="36.544216"/>
     <use style="fill:#1f77b4;stroke:#1f77b4;" x="171.694146" xlink:href="#m70e501f86e" y="37.208138"/>
     <use style="fill:#1f77b4;stroke:#1f77b4;" x="170.303329" xlink:href="#m70e501f86e" y="37.813186"/>
     <use style="fill:#1f77b4;stroke:#1f77b4;" x="170.303329" xlink:href="#m70e501f86e" y="37.813186"/>
     <use style="fill:#1f77b4;stroke:#1f77b4;" x="170.303329" xlink:href="#m70e501f86e" y="37.813186"/>
     <use style="fill:#1f77b4;stroke:#1f77b4;" x="171.731516" xlink:href="#m70e501f86e" y="38.380326"/>
     <use style="fill:#1f77b4;stroke:#1f77b4;" x="171.731516" xlink:href="#m70e501f86e" y="38.380326"/>
     <use style="fill:#1f77b4;stroke:#1f77b4;" x="172.111064" xlink:href="#m70e501f86e" y="38.613984"/>
     <use style="fill:#1f77b4;stroke:#1f77b4;" x="173.643219" xlink:href="#m70e501f86e" y="39.538953"/>
     <use style="fill:#1f77b4;stroke:#1f77b4;" x="179.927359" xlink:href="#m70e501f86e" y="43.127106"/>
     <use style="fill:#1f77b4;stroke:#1f77b4;" x="202.809576" xlink:href="#m70e501f86e" y="58.990831"/>
     <use style="fill:#1f77b4;stroke:#1f77b4;" x="303.31859" xlink:href="#m70e501f86e" y="116.428762"/>
     <use style="fill:#1f77b4;stroke:#1f77b4;" x="303.31859" xlink:href="#m70e501f86e" y="116.428762"/>
     <use style="fill:#1f77b4;stroke:#1f77b4;" x="361.958908" xlink:href="#m70e501f86e" y="137.395452"/>
     <use style="fill:#1f77b4;stroke:#1f77b4;" x="361.958908" xlink:href="#m70e501f86e" y="137.395452"/>
     <use style="fill:#1f77b4;stroke:#1f77b4;" x="356.867473" xlink:href="#m70e501f86e" y="137.113325"/>
     <use style="fill:#1f77b4;stroke:#1f77b4;" x="349.116595" xlink:href="#m70e501f86e" y="135.065945"/>
     <use style="fill:#1f77b4;stroke:#1f77b4;" x="348.524643" xlink:href="#m70e501f86e" y="135.904485"/>
     <use style="fill:#1f77b4;stroke:#1f77b4;" x="348.125354" xlink:href="#m70e501f86e" y="136.144414"/>
     <use style="fill:#1f77b4;stroke:#1f77b4;" x="347.583081" xlink:href="#m70e501f86e" y="136.116491"/>
     <use style="fill:#1f77b4;stroke:#1f77b4;" x="347.288945" xlink:href="#m70e501f86e" y="136.413681"/>
     <use style="fill:#1f77b4;stroke:#1f77b4;" x="345.739452" xlink:href="#m70e501f86e" y="137.40581"/>
     <use style="fill:#1f77b4;stroke:#1f77b4;" x="339.228866" xlink:href="#m70e501f86e" y="141.157256"/>
     <use style="fill:#1f77b4;stroke:#1f77b4;" x="339.228866" xlink:href="#m70e501f86e" y="141.157256"/>
     <use style="fill:#1f77b4;stroke:#1f77b4;" x="338.785381" xlink:href="#m70e501f86e" y="143.199535"/>
     <use style="fill:#1f77b4;stroke:#1f77b4;" x="338.785381" xlink:href="#m70e501f86e" y="143.199535"/>
     <use style="fill:#1f77b4;stroke:#1f77b4;" x="338.104824" xlink:href="#m70e501f86e" y="143.551906"/>
     <use style="fill:#1f77b4;stroke:#1f77b4;" x="337.28668" xlink:href="#m70e501f86e" y="144.861371"/>
     <use style="fill:#1f77b4;stroke:#1f77b4;" x="337.28668" xlink:href="#m70e501f86e" y="144.861371"/>
     <use style="fill:#1f77b4;stroke:#1f77b4;" x="337.28668" xlink:href="#m70e501f86e" y="144.861371"/>
     <use style="fill:#1f77b4;stroke:#1f77b4;" x="336.987364" xlink:href="#m70e501f86e" y="144.814987"/>
     <use style="fill:#1f77b4;stroke:#1f77b4;" x="335.925487" xlink:href="#m70e501f86e" y="144.410714"/>
     <use style="fill:#1f77b4;stroke:#1f77b4;" x="334.838376" xlink:href="#m70e501f86e" y="144.035797"/>
     <use style="fill:#1f77b4;stroke:#1f77b4;" x="334.838376" xlink:href="#m70e501f86e" y="144.035797"/>
     <use style="fill:#1f77b4;stroke:#1f77b4;" x="334.606848" xlink:href="#m70e501f86e" y="143.898482"/>
     <use style="fill:#1f77b4;stroke:#1f77b4;" x="334.152654" xlink:href="#m70e501f86e" y="143.843915"/>
     <use style="fill:#1f77b4;stroke:#1f77b4;" x="333.686502" xlink:href="#m70e501f86e" y="143.740999"/>
     <use style="fill:#1f77b4;stroke:#1f77b4;" x="333.686502" xlink:href="#m70e501f86e" y="143.740999"/>
     <use style="fill:#1f77b4;stroke:#1f77b4;" x="333.521639" xlink:href="#m70e501f86e" y="143.722145"/>
     <use style="fill:#1f77b4;stroke:#1f77b4;" x="333.408152" xlink:href="#m70e501f86e" y="143.642223"/>
     <use style="fill:#1f77b4;stroke:#1f77b4;" x="333.408152" xlink:href="#m70e501f86e" y="143.642223"/>
     <use style="fill:#1f77b4;stroke:#1f77b4;" x="333.408152" xlink:href="#m70e501f86e" y="143.642223"/>
     <use style="fill:#1f77b4;stroke:#1f77b4;" x="333.414517" xlink:href="#m70e501f86e" y="143.632167"/>
     <use style="fill:#1f77b4;stroke:#1f77b4;" x="333.418908" xlink:href="#m70e501f86e" y="143.621676"/>
     <use style="fill:#1f77b4;stroke:#1f77b4;" x="333.388324" xlink:href="#m70e501f86e" y="143.587005"/>
     <use style="fill:#1f77b4;stroke:#1f77b4;" x="333.227696" xlink:href="#m70e501f86e" y="143.465913"/>
     <use style="fill:#1f77b4;stroke:#1f77b4;" x="332.562934" xlink:href="#m70e501f86e" y="142.994381"/>
     <use style="fill:#1f77b4;stroke:#1f77b4;" x="329.94966" xlink:href="#m70e501f86e" y="141.153137"/>
     <use style="fill:#1f77b4;stroke:#1f77b4;" x="328.813208" xlink:href="#m70e501f86e" y="140.390566"/>
     <use style="fill:#1f77b4;stroke:#1f77b4;" x="327.834425" xlink:href="#m70e501f86e" y="139.857102"/>
     <use style="fill:#1f77b4;stroke:#1f77b4;" x="327.611343" xlink:href="#m70e501f86e" y="139.743366"/>
     <use style="fill:#1f77b4;stroke:#1f77b4;" x="327.475379" xlink:href="#m70e501f86e" y="139.670329"/>
     <use style="fill:#1f77b4;stroke:#1f77b4;" x="327.405205" xlink:href="#m70e501f86e" y="139.631987"/>
     <use style="fill:#1f77b4;stroke:#1f77b4;" x="327.371474" xlink:href="#m70e501f86e" y="139.613433"/>
     <use style="fill:#1f77b4;stroke:#1f77b4;" x="327.35577" xlink:href="#m70e501f86e" y="139.60477"/>
     <use style="fill:#1f77b4;stroke:#1f77b4;" x="327.348564" xlink:href="#m70e501f86e" y="139.600789"/>
     <use style="fill:#1f77b4;stroke:#1f77b4;" x="327.348564" xlink:href="#m70e501f86e" y="139.600789"/>
     <use style="fill:#1f77b4;stroke:#1f77b4;" x="327.348564" xlink:href="#m70e501f86e" y="139.600789"/>
     <use style="fill:#1f77b4;stroke:#1f77b4;" x="327.348564" xlink:href="#m70e501f86e" y="139.600789"/>
     <use style="fill:#1f77b4;stroke:#1f77b4;" x="327.316446" xlink:href="#m70e501f86e" y="139.652679"/>
     <use style="fill:#1f77b4;stroke:#1f77b4;" x="327.316446" xlink:href="#m70e501f86e" y="139.652679"/>
     <use style="fill:#1f77b4;stroke:#1f77b4;" x="327.316446" xlink:href="#m70e501f86e" y="139.652679"/>
     <use style="fill:#1f77b4;stroke:#1f77b4;" x="327.289128" xlink:href="#m70e501f86e" y="139.642063"/>
     <use style="fill:#1f77b4;stroke:#1f77b4;" x="327.298566" xlink:href="#m70e501f86e" y="139.648065"/>
     <use style="fill:#1f77b4;stroke:#1f77b4;" x="327.298566" xlink:href="#m70e501f86e" y="139.648065"/>
     <use style="fill:#1f77b4;stroke:#1f77b4;" x="327.298566" xlink:href="#m70e501f86e" y="139.648065"/>
     <use style="fill:#1f77b4;stroke:#1f77b4;" x="327.300991" xlink:href="#m70e501f86e" y="139.649371"/>
     <use style="fill:#1f77b4;stroke:#1f77b4;" x="327.305115" xlink:href="#m70e501f86e" y="139.652051"/>
     <use style="fill:#1f77b4;stroke:#1f77b4;" x="327.305887" xlink:href="#m70e501f86e" y="139.65256"/>
     <use style="fill:#1f77b4;stroke:#1f77b4;" x="327.305887" xlink:href="#m70e501f86e" y="139.65256"/>
     <use style="fill:#1f77b4;stroke:#1f77b4;" x="327.307803" xlink:href="#m70e501f86e" y="139.653769"/>
     <use style="fill:#1f77b4;stroke:#1f77b4;" x="327.315354" xlink:href="#m70e501f86e" y="139.658681"/>
     <use style="fill:#1f77b4;stroke:#1f77b4;" x="327.316592" xlink:href="#m70e501f86e" y="139.659475"/>
     <use style="fill:#1f77b4;stroke:#1f77b4;" x="327.316592" xlink:href="#m70e501f86e" y="139.659475"/>
     <use style="fill:#1f77b4;stroke:#1f77b4;" x="327.316592" xlink:href="#m70e501f86e" y="139.659475"/>
    </g>
   </g>
   <g id="line2d_20">
    <path clip-path="url(#p98a73f5f7d)" d="M 165.6 34.56 
L 165.6 34.56 
L 165.867698 34.662699 
L 165.979248 34.738753 
L 166.041819 34.785283 
L 166.078553 34.81587 
L 166.104145 34.839278 
L 166.124457 34.859083 
L 166.142048 34.876892 
L 166.158246 34.893566 
" style="fill:none;stroke:#ff7f0e;stroke-dasharray:5.55,2.4;stroke-dashoffset:0;stroke-width:1.5;"/>
    <defs>
     <path d="M -3 3 
L 3 -3 
M -3 -3 
L 3 3 
" id="m85ca2e4459" style="stroke:#ff7f0e;"/>
    </defs>
    <g clip-path="url(#p98a73f5f7d)">
     <use style="fill:#ff7f0e;stroke:#ff7f0e;" x="165.6" xlink:href="#m85ca2e4459" y="34.56"/>
     <use style="fill:#ff7f0e;stroke:#ff7f0e;" x="165.6" xlink:href="#m85ca2e4459" y="34.56"/>
     <use style="fill:#ff7f0e;stroke:#ff7f0e;" x="165.867698" xlink:href="#m85ca2e4459" y="34.662699"/>
     <use style="fill:#ff7f0e;stroke:#ff7f0e;" x="165.979248" xlink:href="#m85ca2e4459" y="34.738753"/>
     <use style="fill:#ff7f0e;stroke:#ff7f0e;" x="166.041819" xlink:href="#m85ca2e4459" y="34.785283"/>
     <use style="fill:#ff7f0e;stroke:#ff7f0e;" x="166.078553" xlink:href="#m85ca2e4459" y="34.81587"/>
     <use style="fill:#ff7f0e;stroke:#ff7f0e;" x="166.104145" xlink:href="#m85ca2e4459" y="34.839278"/>
     <use style="fill:#ff7f0e;stroke:#ff7f0e;" x="166.124457" xlink:href="#m85ca2e4459" y="34.859083"/>
     <use style="fill:#ff7f0e;stroke:#ff7f0e;" x="166.142048" xlink:href="#m85ca2e4459" y="34.876892"/>
     <use style="fill:#ff7f0e;stroke:#ff7f0e;" x="166.158246" xlink:href="#m85ca2e4459" y="34.893566"/>
    </g>
   </g>
   <g id="line2d_21">
    <path clip-path="url(#p98a73f5f7d)" d="M 165.6 34.56 
L 165.6 34.56 
L 165.867698 34.662699 
L 165.867698 34.662699 
L 165.867698 34.662699 
L 330.036024 140.182813 
L 330.036024 140.182813 
L 330.036024 140.182813 
L 330.036024 140.182813 
L 330.036024 140.182813 
L 330.036024 140.182813 
" style="fill:none;stroke:#2ca02c;stroke-dasharray:5.55,2.4;stroke-dashoffset:0;stroke-width:1.5;"/>
    <defs>
     <path d="M -3 3 
L 3 -3 
M -3 -3 
L 3 3 
" id="m53fbebf529" style="stroke:#2ca02c;"/>
    </defs>
    <g clip-path="url(#p98a73f5f7d)">
     <use style="fill:#2ca02c;stroke:#2ca02c;" x="165.6" xlink:href="#m53fbebf529" y="34.56"/>
     <use style="fill:#2ca02c;stroke:#2ca02c;" x="165.6" xlink:href="#m53fbebf529" y="34.56"/>
     <use style="fill:#2ca02c;stroke:#2ca02c;" x="165.867698" xlink:href="#m53fbebf529" y="34.662699"/>
     <use style="fill:#2ca02c;stroke:#2ca02c;" x="165.867698" xlink:href="#m53fbebf529" y="34.662699"/>
     <use style="fill:#2ca02c;stroke:#2ca02c;" x="165.867698" xlink:href="#m53fbebf529" y="34.662699"/>
     <use style="fill:#2ca02c;stroke:#2ca02c;" x="330.036024" xlink:href="#m53fbebf529" y="140.182813"/>
     <use style="fill:#2ca02c;stroke:#2ca02c;" x="330.036024" xlink:href="#m53fbebf529" y="140.182813"/>
     <use style="fill:#2ca02c;stroke:#2ca02c;" x="330.036024" xlink:href="#m53fbebf529" y="140.182813"/>
     <use style="fill:#2ca02c;stroke:#2ca02c;" x="330.036024" xlink:href="#m53fbebf529" y="140.182813"/>
     <use style="fill:#2ca02c;stroke:#2ca02c;" x="330.036024" xlink:href="#m53fbebf529" y="140.182813"/>
     <use style="fill:#2ca02c;stroke:#2ca02c;" x="330.036024" xlink:href="#m53fbebf529" y="140.182813"/>
    </g>
   </g>
   <g id="line2d_22">
    <path clip-path="url(#p98a73f5f7d)" d="M 165.6 34.56 
L 165.6 34.56 
L 165.668006 34.588312 
L 165.668006 34.588312 
L 165.668006 34.588312 
L 165.668006 34.588312 
L 165.668006 34.588312 
L 165.668006 34.588312 
L 165.668006 34.588312 
L 165.668006 34.588312 
L 165.668006 34.588312 
L 165.668006 34.588312 
L 165.668006 34.588312 
L 165.668006 34.588312 
" style="fill:none;stroke:#d62728;stroke-dasharray:5.55,2.4;stroke-dashoffset:0;stroke-width:1.5;"/>
    <defs>
     <path d="M -3 3 
L 3 -3 
M -3 -3 
L 3 3 
" id="m5fe57780e4" style="stroke:#d62728;"/>
    </defs>
    <g clip-path="url(#p98a73f5f7d)">
     <use style="fill:#d62728;stroke:#d62728;" x="165.6" xlink:href="#m5fe57780e4" y="34.56"/>
     <use style="fill:#d62728;stroke:#d62728;" x="165.6" xlink:href="#m5fe57780e4" y="34.56"/>
     <use style="fill:#d62728;stroke:#d62728;" x="165.668006" xlink:href="#m5fe57780e4" y="34.588312"/>
     <use style="fill:#d62728;stroke:#d62728;" x="165.668006" xlink:href="#m5fe57780e4" y="34.588312"/>
     <use style="fill:#d62728;stroke:#d62728;" x="165.668006" xlink:href="#m5fe57780e4" y="34.588312"/>
     <use style="fill:#d62728;stroke:#d62728;" x="165.668006" xlink:href="#m5fe57780e4" y="34.588312"/>
     <use style="fill:#d62728;stroke:#d62728;" x="165.668006" xlink:href="#m5fe57780e4" y="34.588312"/>
     <use style="fill:#d62728;stroke:#d62728;" x="165.668006" xlink:href="#m5fe57780e4" y="34.588312"/>
     <use style="fill:#d62728;stroke:#d62728;" x="165.668006" xlink:href="#m5fe57780e4" y="34.588312"/>
     <use style="fill:#d62728;stroke:#d62728;" x="165.668006" xlink:href="#m5fe57780e4" y="34.588312"/>
     <use style="fill:#d62728;stroke:#d62728;" x="165.668006" xlink:href="#m5fe57780e4" y="34.588312"/>
     <use style="fill:#d62728;stroke:#d62728;" x="165.668006" xlink:href="#m5fe57780e4" y="34.588312"/>
     <use style="fill:#d62728;stroke:#d62728;" x="165.668006" xlink:href="#m5fe57780e4" y="34.588312"/>
     <use style="fill:#d62728;stroke:#d62728;" x="165.668006" xlink:href="#m5fe57780e4" y="34.588312"/>
    </g>
   </g>
   <g id="patch_3">
    <path d="M 54 252 
L 54 34.56 
" style="fill:none;stroke:#000000;stroke-linecap:square;stroke-linejoin:miter;stroke-width:0.8;"/>
   </g>
   <g id="patch_4">
    <path d="M 388.8 252 
L 388.8 34.56 
" style="fill:none;stroke:#000000;stroke-linecap:square;stroke-linejoin:miter;stroke-width:0.8;"/>
   </g>
   <g id="patch_5">
    <path d="M 54 252 
L 388.8 252 
" style="fill:none;stroke:#000000;stroke-linecap:square;stroke-linejoin:miter;stroke-width:0.8;"/>
   </g>
   <g id="patch_6">
    <path d="M 54 34.56 
L 388.8 34.56 
" style="fill:none;stroke:#000000;stroke-linecap:square;stroke-linejoin:miter;stroke-width:0.8;"/>
   </g>
   <g id="legend_1">
    <g id="patch_7">
     <path d="M 62.75 245.75 
L 192.105469 245.75 
Q 194.605469 245.75 194.605469 243.25 
L 194.605469 173.78125 
Q 194.605469 171.28125 192.105469 171.28125 
L 62.75 171.28125 
Q 60.25 171.28125 60.25 173.78125 
L 60.25 243.25 
Q 60.25 245.75 62.75 245.75 
z
" style="fill:#ffffff;opacity:0.8;stroke:#cccccc;stroke-linejoin:miter;"/>
    </g>
    <g id="line2d_23">
     <path d="M 65.25 180.65625 
L 90.25 180.65625 
" style="fill:none;stroke:#1f77b4;stroke-dasharray:5.55,2.4;stroke-dashoffset:0;stroke-width:1.5;"/>
    </g>
    <g id="line2d_24">
     <g>
      <use style="fill:#1f77b4;stroke:#1f77b4;" x="77.75" xlink:href="#m70e501f86e" y="180.65625"/>
     </g>
    </g>
    <g id="text_17">
     <!-- PyBobyqa -->
     <g transform="translate(100.25 185.03125)scale(0.125 -0.125)">
      <defs>
       <path d="M 20.515625 31 
L 20.515625 11.71875 
Q 20.515625 5.46875 21.875 3.953125 
Q 23.734375 1.8125 27.484375 1.8125 
L 30.03125 1.8125 
L 30.03125 0 
L 1.65625 0 
L 1.65625 1.8125 
L 4.15625 1.8125 
Q 8.34375 1.8125 10.15625 4.546875 
Q 11.140625 6.0625 11.140625 11.71875 
L 11.140625 54.5 
Q 11.140625 60.75 9.8125 62.25 
Q 7.90625 64.40625 4.15625 64.40625 
L 1.65625 64.40625 
L 1.65625 66.21875 
L 25.921875 66.21875 
Q 34.8125 66.21875 39.9375 64.375 
Q 45.0625 62.546875 48.578125 58.203125 
Q 52.09375 53.859375 52.09375 47.90625 
Q 52.09375 39.796875 46.75 34.71875 
Q 41.40625 29.640625 31.640625 29.640625 
Q 29.25 29.640625 26.46875 29.984375 
Q 23.6875 30.328125 20.515625 31 
z
M 20.515625 33.796875 
Q 23.09375 33.296875 25.09375 33.046875 
Q 27.09375 32.8125 28.515625 32.8125 
Q 33.59375 32.8125 37.28125 36.734375 
Q 40.96875 40.671875 40.96875 46.921875 
Q 40.96875 51.21875 39.203125 54.90625 
Q 37.453125 58.59375 34.21875 60.421875 
Q 31 62.25 26.90625 62.25 
Q 24.421875 62.25 20.515625 61.328125 
z
" id="TimesNewRomanPSMT-80"/>
       <path d="M 0.59375 44.734375 
L 21.4375 44.734375 
L 21.4375 42.921875 
L 20.40625 42.921875 
Q 18.21875 42.921875 17.109375 41.96875 
Q 16.015625 41.015625 16.015625 39.59375 
Q 16.015625 37.703125 17.625 34.328125 
L 28.515625 11.765625 
L 38.53125 36.46875 
Q 39.359375 38.484375 39.359375 40.4375 
Q 39.359375 41.3125 39.015625 41.75 
Q 38.625 42.28125 37.796875 42.59375 
Q 36.96875 42.921875 34.859375 42.921875 
L 34.859375 44.734375 
L 49.421875 44.734375 
L 49.421875 42.921875 
Q 47.609375 42.71875 46.625 42.125 
Q 45.65625 41.546875 44.484375 39.9375 
Q 44.046875 39.265625 42.828125 36.1875 
L 24.609375 -8.453125 
Q 21.96875 -14.9375 17.6875 -18.25 
Q 13.421875 -21.578125 9.46875 -21.578125 
Q 6.59375 -21.578125 4.734375 -19.921875 
Q 2.875 -18.265625 2.875 -16.109375 
Q 2.875 -14.0625 4.21875 -12.8125 
Q 5.5625 -11.578125 7.90625 -11.578125 
Q 9.515625 -11.578125 12.3125 -12.640625 
Q 14.265625 -13.375 14.75 -13.375 
Q 16.21875 -13.375 17.9375 -11.859375 
Q 19.671875 -10.359375 21.4375 -6 
L 24.609375 1.765625 
L 8.546875 35.5 
Q 7.8125 37.015625 6.203125 39.265625 
Q 4.984375 40.96875 4.203125 41.546875 
Q 3.078125 42.328125 0.59375 42.921875 
z
" id="TimesNewRomanPSMT-121"/>
       <path d="M 46.1875 33.796875 
Q 53.078125 32.328125 56.5 29.109375 
Q 61.234375 24.609375 61.234375 18.109375 
Q 61.234375 13.1875 58.109375 8.671875 
Q 54.984375 4.15625 49.53125 2.078125 
Q 44.09375 0 32.90625 0 
L 1.65625 0 
L 1.65625 1.8125 
L 4.15625 1.8125 
Q 8.296875 1.8125 10.109375 4.4375 
Q 11.234375 6.15625 11.234375 11.71875 
L 11.234375 54.5 
Q 11.234375 60.640625 9.8125 62.25 
Q 7.90625 64.40625 4.15625 64.40625 
L 1.65625 64.40625 
L 1.65625 66.21875 
L 30.28125 66.21875 
Q 38.28125 66.21875 43.109375 65.046875 
Q 50.4375 63.28125 54.296875 58.8125 
Q 58.15625 54.34375 58.15625 48.53125 
Q 58.15625 43.5625 55.125 39.625 
Q 52.09375 35.6875 46.1875 33.796875 
z
M 20.609375 36.421875 
Q 22.40625 36.078125 24.71875 35.90625 
Q 27.046875 35.75 29.828125 35.75 
Q 36.96875 35.75 40.546875 37.28125 
Q 44.140625 38.8125 46.046875 41.984375 
Q 47.953125 45.171875 47.953125 48.921875 
Q 47.953125 54.734375 43.21875 58.828125 
Q 38.484375 62.9375 29.390625 62.9375 
Q 24.515625 62.9375 20.609375 61.859375 
z
M 20.609375 4.78125 
Q 26.265625 3.46875 31.78125 3.46875 
Q 40.625 3.46875 45.265625 7.4375 
Q 49.90625 11.421875 49.90625 17.28125 
Q 49.90625 21.140625 47.796875 24.703125 
Q 45.703125 28.265625 40.96875 30.3125 
Q 36.234375 32.375 29.25 32.375 
Q 26.21875 32.375 24.0625 32.265625 
Q 21.921875 32.171875 20.609375 31.9375 
z
" id="TimesNewRomanPSMT-66"/>
       <path d="M 25 46.046875 
Q 35.15625 46.046875 41.3125 38.328125 
Q 46.53125 31.734375 46.53125 23.1875 
Q 46.53125 17.1875 43.640625 11.03125 
Q 40.765625 4.890625 35.71875 1.75 
Q 30.671875 -1.375 24.46875 -1.375 
Q 14.359375 -1.375 8.40625 6.6875 
Q 3.375 13.484375 3.375 21.921875 
Q 3.375 28.078125 6.421875 34.15625 
Q 9.46875 40.234375 14.453125 43.140625 
Q 19.4375 46.046875 25 46.046875 
z
M 23.484375 42.875 
Q 20.90625 42.875 18.28125 41.328125 
Q 15.671875 39.796875 14.0625 35.9375 
Q 12.453125 32.078125 12.453125 26.03125 
Q 12.453125 16.265625 16.328125 9.171875 
Q 20.21875 2.09375 26.5625 2.09375 
Q 31.296875 2.09375 34.375 6 
Q 37.453125 9.90625 37.453125 19.4375 
Q 37.453125 31.34375 32.328125 38.1875 
Q 28.859375 42.875 23.484375 42.875 
z
" id="TimesNewRomanPSMT-111"/>
       <path d="M 15.375 37.015625 
Q 21.875 46.046875 29.390625 46.046875 
Q 36.28125 46.046875 41.40625 40.15625 
Q 46.53125 34.28125 46.53125 24.078125 
Q 46.53125 12.15625 38.625 4.890625 
Q 31.84375 -1.375 23.484375 -1.375 
Q 19.578125 -1.375 15.546875 0.046875 
Q 11.53125 1.46875 7.328125 4.296875 
L 7.328125 50.640625 
Q 7.328125 58.25 6.953125 60 
Q 6.59375 61.765625 5.8125 62.390625 
Q 5.03125 63.03125 3.859375 63.03125 
Q 2.484375 63.03125 0.4375 62.25 
L -0.25 63.96875 
L 13.1875 69.4375 
L 15.375 69.4375 
z
M 15.375 33.890625 
L 15.375 7.125 
Q 17.875 4.6875 20.53125 3.4375 
Q 23.1875 2.203125 25.984375 2.203125 
Q 30.421875 2.203125 34.25 7.078125 
Q 38.09375 11.96875 38.09375 21.296875 
Q 38.09375 29.890625 34.25 34.5 
Q 30.421875 39.109375 25.53125 39.109375 
Q 22.953125 39.109375 20.359375 37.796875 
Q 18.40625 36.8125 15.375 33.890625 
z
" id="TimesNewRomanPSMT-98"/>
       <path d="M 42.71875 46.046875 
L 42.71875 -11.46875 
Q 42.71875 -15.765625 43.296875 -16.984375 
Q 43.890625 -18.21875 45.140625 -18.890625 
Q 46.390625 -19.578125 50 -19.578125 
L 50 -21.390625 
L 27.4375 -21.390625 
L 27.4375 -19.578125 
L 28.375 -19.578125 
Q 31.109375 -19.578125 32.515625 -18.796875 
Q 33.5 -18.265625 34.078125 -16.875 
Q 34.671875 -15.484375 34.671875 -11.46875 
L 34.671875 7.765625 
Q 30.21875 2.484375 26.890625 0.546875 
Q 23.578125 -1.375 20.015625 -1.375 
Q 13.53125 -1.375 8.421875 4.53125 
Q 3.328125 10.453125 3.328125 20.359375 
Q 3.328125 31.734375 10.0625 38.890625 
Q 16.796875 46.046875 26.3125 46.046875 
Q 29.109375 46.046875 31.453125 45.265625 
Q 33.796875 44.484375 35.640625 42.921875 
Q 38.484375 44.28125 41.0625 46.046875 
z
M 34.671875 10.84375 
L 34.671875 31.84375 
Q 34.671875 35.5 33.71875 37.59375 
Q 32.765625 39.703125 30.3125 41.15625 
Q 27.875 42.625 24.8125 42.625 
Q 19.34375 42.625 15.4375 37.984375 
Q 11.53125 33.34375 11.53125 23.921875 
Q 11.53125 14.890625 15.5 10.203125 
Q 19.484375 5.515625 25.09375 5.515625 
Q 27.984375 5.515625 30.21875 6.765625 
Q 32.46875 8.015625 34.671875 10.84375 
z
" id="TimesNewRomanPSMT-113"/>
       <path d="M 28.46875 6.453125 
Q 21.578125 1.125 19.828125 0.296875 
Q 17.1875 -0.921875 14.203125 -0.921875 
Q 9.578125 -0.921875 6.5625 2.25 
Q 3.5625 5.421875 3.5625 10.59375 
Q 3.5625 13.875 5.03125 16.265625 
Q 7.03125 19.578125 11.984375 22.5 
Q 16.9375 25.4375 28.46875 29.640625 
L 28.46875 31.390625 
Q 28.46875 38.09375 26.34375 40.578125 
Q 24.21875 43.0625 20.171875 43.0625 
Q 17.09375 43.0625 15.28125 41.40625 
Q 13.421875 39.75 13.421875 37.59375 
L 13.53125 34.765625 
Q 13.53125 32.515625 12.375 31.296875 
Q 11.234375 30.078125 9.375 30.078125 
Q 7.5625 30.078125 6.421875 31.34375 
Q 5.28125 32.625 5.28125 34.8125 
Q 5.28125 39.015625 9.578125 42.53125 
Q 13.875 46.046875 21.625 46.046875 
Q 27.59375 46.046875 31.390625 44.046875 
Q 34.28125 42.53125 35.640625 39.3125 
Q 36.53125 37.203125 36.53125 30.71875 
L 36.53125 15.53125 
Q 36.53125 9.125 36.765625 7.6875 
Q 37.015625 6.25 37.578125 5.765625 
Q 38.140625 5.28125 38.875 5.28125 
Q 39.65625 5.28125 40.234375 5.609375 
Q 41.265625 6.25 44.1875 9.1875 
L 44.1875 6.453125 
Q 38.71875 -0.875 33.734375 -0.875 
Q 31.34375 -0.875 29.921875 0.78125 
Q 28.515625 2.4375 28.46875 6.453125 
z
M 28.46875 9.625 
L 28.46875 26.65625 
Q 21.09375 23.734375 18.953125 22.515625 
Q 15.09375 20.359375 13.421875 18.015625 
Q 11.765625 15.671875 11.765625 12.890625 
Q 11.765625 9.375 13.859375 7.046875 
Q 15.96875 4.734375 18.703125 4.734375 
Q 22.40625 4.734375 28.46875 9.625 
z
" id="TimesNewRomanPSMT-97"/>
      </defs>
      <use xlink:href="#TimesNewRomanPSMT-80"/>
      <use x="55.615234" xlink:href="#TimesNewRomanPSMT-121"/>
      <use x="105.615234" xlink:href="#TimesNewRomanPSMT-66"/>
      <use x="172.314453" xlink:href="#TimesNewRomanPSMT-111"/>
      <use x="222.314453" xlink:href="#TimesNewRomanPSMT-98"/>
      <use x="272.314453" xlink:href="#TimesNewRomanPSMT-121"/>
      <use x="322.314453" xlink:href="#TimesNewRomanPSMT-113"/>
      <use x="372.314453" xlink:href="#TimesNewRomanPSMT-97"/>
     </g>
    </g>
    <g id="line2d_25">
     <path d="M 65.25 198.353516 
L 90.25 198.353516 
" style="fill:none;stroke:#ff7f0e;stroke-dasharray:5.55,2.4;stroke-dashoffset:0;stroke-width:1.5;"/>
    </g>
    <g id="line2d_26">
     <g>
      <use style="fill:#ff7f0e;stroke:#ff7f0e;" x="77.75" xlink:href="#m85ca2e4459" y="198.353516"/>
     </g>
    </g>
    <g id="text_18">
     <!-- Newton Fin. Diff. -->
     <g transform="translate(100.25 202.728516)scale(0.125 -0.125)">
      <defs>
       <path d="M -1.3125 66.21875 
L 16.65625 66.21875 
L 57.125 16.546875 
L 57.125 54.734375 
Q 57.125 60.84375 55.765625 62.359375 
Q 53.953125 64.40625 50.046875 64.40625 
L 47.75 64.40625 
L 47.75 66.21875 
L 70.796875 66.21875 
L 70.796875 64.40625 
L 68.453125 64.40625 
Q 64.265625 64.40625 62.5 61.859375 
Q 61.421875 60.296875 61.421875 54.734375 
L 61.421875 -1.078125 
L 59.671875 -1.078125 
L 16.015625 52.25 
L 16.015625 11.46875 
Q 16.015625 5.375 17.328125 3.859375 
Q 19.1875 1.8125 23.046875 1.8125 
L 25.390625 1.8125 
L 25.390625 0 
L 2.34375 0 
L 2.34375 1.8125 
L 4.640625 1.8125 
Q 8.890625 1.8125 10.640625 4.34375 
Q 11.71875 5.90625 11.71875 11.46875 
L 11.71875 57.515625 
Q 8.84375 60.890625 7.34375 61.953125 
Q 5.859375 63.03125 2.984375 63.96875 
Q 1.5625 64.40625 -1.3125 64.40625 
z
" id="TimesNewRomanPSMT-78"/>
       <path d="M 10.640625 27.875 
Q 10.59375 17.921875 15.484375 12.25 
Q 20.359375 6.59375 26.953125 6.59375 
Q 31.34375 6.59375 34.59375 9 
Q 37.84375 11.421875 40.046875 17.28125 
L 41.546875 16.3125 
Q 40.53125 9.625 35.59375 4.125 
Q 30.671875 -1.375 23.25 -1.375 
Q 15.1875 -1.375 9.453125 4.90625 
Q 3.71875 11.1875 3.71875 21.78125 
Q 3.71875 33.25 9.59375 39.671875 
Q 15.484375 46.09375 24.359375 46.09375 
Q 31.890625 46.09375 36.71875 41.140625 
Q 41.546875 36.1875 41.546875 27.875 
z
M 10.640625 30.71875 
L 31.34375 30.71875 
Q 31.109375 35.015625 30.328125 36.765625 
Q 29.109375 39.5 26.6875 41.0625 
Q 24.265625 42.625 21.625 42.625 
Q 17.578125 42.625 14.375 39.46875 
Q 11.1875 36.328125 10.640625 30.71875 
z
" id="TimesNewRomanPSMT-101"/>
       <path d="M 0.640625 44.734375 
L 19.390625 44.734375 
L 19.390625 42.921875 
Q 16.796875 42.71875 15.984375 41.984375 
Q 15.1875 41.265625 15.1875 39.890625 
Q 15.1875 38.375 16.015625 36.234375 
L 25.59375 10.5 
L 35.203125 31.453125 
L 32.671875 38.03125 
Q 31.5 40.96875 29.59375 42.09375 
Q 28.515625 42.78125 25.59375 42.921875 
L 25.59375 44.734375 
L 46.875 44.734375 
L 46.875 42.921875 
Q 43.359375 42.78125 41.890625 41.65625 
Q 40.921875 40.875 40.921875 39.15625 
Q 40.921875 38.1875 41.3125 37.15625 
L 51.46875 11.46875 
L 60.890625 36.234375 
Q 61.859375 38.875 61.859375 40.4375 
Q 61.859375 41.359375 60.90625 42.09375 
Q 59.96875 42.828125 57.171875 42.921875 
L 57.171875 44.734375 
L 71.296875 44.734375 
L 71.296875 42.921875 
Q 67.046875 42.28125 65.046875 37.15625 
L 50.09375 -1.375 
L 48.09375 -1.375 
L 36.921875 27.203125 
L 23.875 -1.375 
L 22.078125 -1.375 
L 7.71875 36.234375 
Q 6.296875 39.796875 4.921875 41.03125 
Q 3.5625 42.28125 0.640625 42.921875 
z
" id="TimesNewRomanPSMT-119"/>
       <path d="M 16.109375 59.421875 
L 16.109375 44.734375 
L 26.5625 44.734375 
L 26.5625 41.3125 
L 16.109375 41.3125 
L 16.109375 12.3125 
Q 16.109375 7.953125 17.359375 6.4375 
Q 18.609375 4.9375 20.5625 4.9375 
Q 22.171875 4.9375 23.6875 5.9375 
Q 25.203125 6.9375 26.03125 8.890625 
L 27.9375 8.890625 
Q 26.21875 4.109375 23.09375 1.6875 
Q 19.96875 -0.734375 16.65625 -0.734375 
Q 14.40625 -0.734375 12.25 0.515625 
Q 10.109375 1.765625 9.078125 4.078125 
Q 8.0625 6.390625 8.0625 11.234375 
L 8.0625 41.3125 
L 0.984375 41.3125 
L 0.984375 42.921875 
Q 3.65625 44 6.46875 46.5625 
Q 9.28125 49.125 11.46875 52.640625 
Q 12.59375 54.5 14.59375 59.421875 
z
" id="TimesNewRomanPSMT-116"/>
       <path d="M 16.15625 36.578125 
Q 24.03125 46.046875 31.15625 46.046875 
Q 34.8125 46.046875 37.453125 44.21875 
Q 40.09375 42.390625 41.65625 38.1875 
Q 42.71875 35.25 42.71875 29.203125 
L 42.71875 10.109375 
Q 42.71875 5.859375 43.40625 4.34375 
Q 43.953125 3.125 45.140625 2.4375 
Q 46.34375 1.765625 49.5625 1.765625 
L 49.5625 0 
L 27.4375 0 
L 27.4375 1.765625 
L 28.375 1.765625 
Q 31.5 1.765625 32.734375 2.703125 
Q 33.984375 3.65625 34.46875 5.515625 
Q 34.671875 6.25 34.671875 10.109375 
L 34.671875 28.421875 
Q 34.671875 34.515625 33.078125 37.28125 
Q 31.5 40.046875 27.734375 40.046875 
Q 21.921875 40.046875 16.15625 33.6875 
L 16.15625 10.109375 
Q 16.15625 5.5625 16.703125 4.5 
Q 17.390625 3.078125 18.578125 2.421875 
Q 19.78125 1.765625 23.4375 1.765625 
L 23.4375 0 
L 1.3125 0 
L 1.3125 1.765625 
L 2.296875 1.765625 
Q 5.71875 1.765625 6.90625 3.484375 
Q 8.109375 5.21875 8.109375 10.109375 
L 8.109375 26.703125 
Q 8.109375 34.765625 7.734375 36.515625 
Q 7.375 38.28125 6.609375 38.90625 
Q 5.859375 39.546875 4.59375 39.546875 
Q 3.21875 39.546875 1.3125 38.8125 
L 0.59375 40.578125 
L 14.0625 46.046875 
L 16.15625 46.046875 
z
" id="TimesNewRomanPSMT-110"/>
       <path id="TimesNewRomanPSMT-32"/>
       <path d="M 20.453125 62.59375 
L 20.453125 36.578125 
L 32.515625 36.578125 
Q 36.671875 36.578125 38.59375 38.40625 
Q 40.53125 40.234375 41.15625 45.65625 
L 42.96875 45.65625 
L 42.96875 23.25 
L 41.15625 23.25 
Q 41.109375 27.09375 40.15625 28.90625 
Q 39.203125 30.71875 37.515625 31.609375 
Q 35.84375 32.515625 32.515625 32.515625 
L 20.453125 32.515625 
L 20.453125 11.71875 
Q 20.453125 6.6875 21.09375 5.078125 
Q 21.578125 3.859375 23.140625 2.984375 
Q 25.296875 1.8125 27.640625 1.8125 
L 30.03125 1.8125 
L 30.03125 0 
L 1.609375 0 
L 1.609375 1.8125 
L 3.953125 1.8125 
Q 8.0625 1.8125 9.90625 4.203125 
Q 11.078125 5.765625 11.078125 11.71875 
L 11.078125 54.5 
Q 11.078125 59.515625 10.453125 61.140625 
Q 9.96875 62.359375 8.453125 63.234375 
Q 6.34375 64.40625 3.953125 64.40625 
L 1.609375 64.40625 
L 1.609375 66.21875 
L 50.875 66.21875 
L 51.515625 51.65625 
L 49.8125 51.65625 
Q 48.53125 56.296875 46.84375 58.46875 
Q 45.171875 60.640625 42.703125 61.609375 
Q 40.234375 62.59375 35.0625 62.59375 
z
" id="TimesNewRomanPSMT-70"/>
       <path d="M 14.5 69.4375 
Q 16.546875 69.4375 17.984375 67.984375 
Q 19.4375 66.546875 19.4375 64.5 
Q 19.4375 62.453125 17.984375 60.984375 
Q 16.546875 59.515625 14.5 59.515625 
Q 12.453125 59.515625 10.984375 60.984375 
Q 9.515625 62.453125 9.515625 64.5 
Q 9.515625 66.546875 10.953125 67.984375 
Q 12.40625 69.4375 14.5 69.4375 
z
M 18.5625 46.046875 
L 18.5625 10.109375 
Q 18.5625 5.90625 19.171875 4.515625 
Q 19.78125 3.125 20.96875 2.4375 
Q 22.171875 1.765625 25.34375 1.765625 
L 25.34375 0 
L 3.609375 0 
L 3.609375 1.765625 
Q 6.890625 1.765625 8 2.390625 
Q 9.125 3.03125 9.78125 4.484375 
Q 10.453125 5.953125 10.453125 10.109375 
L 10.453125 27.34375 
Q 10.453125 34.625 10.015625 36.765625 
Q 9.671875 38.328125 8.9375 38.9375 
Q 8.203125 39.546875 6.9375 39.546875 
Q 5.5625 39.546875 3.609375 38.8125 
L 2.9375 40.578125 
L 16.40625 46.046875 
z
" id="TimesNewRomanPSMT-105"/>
       <path d="M 1.703125 0 
L 1.703125 1.8125 
L 4.203125 1.8125 
Q 8.40625 1.8125 10.15625 4.5 
Q 11.234375 6.109375 11.234375 11.71875 
L 11.234375 54.5 
Q 11.234375 60.6875 9.859375 62.25 
Q 7.953125 64.40625 4.203125 64.40625 
L 1.703125 64.40625 
L 1.703125 66.21875 
L 28.65625 66.21875 
Q 43.5 66.21875 51.234375 62.84375 
Q 58.984375 59.46875 63.6875 51.609375 
Q 68.40625 43.75 68.40625 33.453125 
Q 68.40625 19.625 60.015625 10.359375 
Q 50.59375 0 31.296875 0 
z
M 20.609375 4.78125 
Q 26.8125 3.421875 31 3.421875 
Q 42.328125 3.421875 49.796875 11.375 
Q 57.28125 19.34375 57.28125 32.953125 
Q 57.28125 46.6875 49.796875 54.59375 
Q 42.328125 62.5 30.609375 62.5 
Q 26.21875 62.5 20.609375 61.078125 
z
" id="TimesNewRomanPSMT-68"/>
       <path d="M 20.609375 41.21875 
L 20.609375 11.8125 
Q 20.609375 5.5625 21.96875 3.90625 
Q 23.78125 1.765625 26.8125 1.765625 
L 30.859375 1.765625 
L 30.859375 0 
L 4.15625 0 
L 4.15625 1.765625 
L 6.15625 1.765625 
Q 8.109375 1.765625 9.71875 2.734375 
Q 11.328125 3.71875 11.9375 5.375 
Q 12.546875 7.03125 12.546875 11.8125 
L 12.546875 41.21875 
L 3.859375 41.21875 
L 3.859375 44.734375 
L 12.546875 44.734375 
L 12.546875 47.65625 
Q 12.546875 54.34375 14.6875 58.984375 
Q 16.84375 63.625 21.265625 66.484375 
Q 25.6875 69.34375 31.203125 69.34375 
Q 36.328125 69.34375 40.625 66.015625 
Q 43.453125 63.8125 43.453125 61.078125 
Q 43.453125 59.625 42.1875 58.328125 
Q 40.921875 57.03125 39.453125 57.03125 
Q 38.328125 57.03125 37.078125 57.828125 
Q 35.84375 58.640625 34.03125 61.296875 
Q 32.234375 63.96875 30.71875 64.890625 
Q 29.203125 65.828125 27.34375 65.828125 
Q 25.09375 65.828125 23.53125 64.625 
Q 21.96875 63.421875 21.28125 60.90625 
Q 20.609375 58.40625 20.609375 47.953125 
L 20.609375 44.734375 
L 32.125 44.734375 
L 32.125 41.21875 
z
" id="TimesNewRomanPSMT-102"/>
      </defs>
      <use xlink:href="#TimesNewRomanPSMT-78"/>
      <use x="72.216797" xlink:href="#TimesNewRomanPSMT-101"/>
      <use x="116.601562" xlink:href="#TimesNewRomanPSMT-119"/>
      <use x="188.818359" xlink:href="#TimesNewRomanPSMT-116"/>
      <use x="216.601562" xlink:href="#TimesNewRomanPSMT-111"/>
      <use x="266.601562" xlink:href="#TimesNewRomanPSMT-110"/>
      <use x="316.601562" xlink:href="#TimesNewRomanPSMT-32"/>
      <use x="341.601562" xlink:href="#TimesNewRomanPSMT-70"/>
      <use x="397.216797" xlink:href="#TimesNewRomanPSMT-105"/>
      <use x="425" xlink:href="#TimesNewRomanPSMT-110"/>
      <use x="475" xlink:href="#TimesNewRomanPSMT-46"/>
      <use x="500" xlink:href="#TimesNewRomanPSMT-32"/>
      <use x="525" xlink:href="#TimesNewRomanPSMT-68"/>
      <use x="597.216797" xlink:href="#TimesNewRomanPSMT-105"/>
      <use x="625" xlink:href="#TimesNewRomanPSMT-102"/>
      <use x="656.550781" xlink:href="#TimesNewRomanPSMT-102"/>
      <use x="689.851562" xlink:href="#TimesNewRomanPSMT-46"/>
     </g>
    </g>
    <g id="line2d_27">
     <path d="M 65.25 216.027344 
L 90.25 216.027344 
" style="fill:none;stroke:#2ca02c;stroke-dasharray:5.55,2.4;stroke-dashoffset:0;stroke-width:1.5;"/>
    </g>
    <g id="line2d_28">
     <g>
      <use style="fill:#2ca02c;stroke:#2ca02c;" x="77.75" xlink:href="#m53fbebf529" y="216.027344"/>
     </g>
    </g>
    <g id="text_19">
     <!-- BFGS -->
     <g transform="translate(100.25 220.402344)scale(0.125 -0.125)">
      <defs>
       <path d="M 61.375 67.71875 
L 63.09375 46.828125 
L 61.375 46.828125 
Q 58.796875 54.640625 54.6875 58.59375 
Q 48.78125 64.3125 39.5 64.3125 
Q 26.859375 64.3125 20.265625 54.296875 
Q 14.75 45.84375 14.75 34.1875 
Q 14.75 24.703125 18.40625 16.890625 
Q 22.078125 9.078125 28 5.4375 
Q 33.9375 1.8125 40.1875 1.8125 
Q 43.84375 1.8125 47.265625 2.734375 
Q 50.6875 3.65625 53.859375 5.46875 
L 53.859375 24.609375 
Q 53.859375 29.59375 53.09375 31.125 
Q 52.34375 32.671875 50.75 33.46875 
Q 49.171875 34.28125 45.171875 34.28125 
L 45.171875 36.140625 
L 70.796875 36.140625 
L 70.796875 34.28125 
L 69.578125 34.28125 
Q 65.765625 34.28125 64.359375 31.734375 
Q 63.375 29.9375 63.375 24.609375 
L 63.375 4.34375 
Q 57.765625 1.3125 52.296875 -0.09375 
Q 46.828125 -1.515625 40.140625 -1.515625 
Q 20.953125 -1.515625 10.984375 10.796875 
Q 3.515625 20.015625 3.515625 32.078125 
Q 3.515625 40.828125 7.71875 48.828125 
Q 12.703125 58.34375 21.390625 63.484375 
Q 28.65625 67.71875 38.578125 67.71875 
Q 42.1875 67.71875 45.140625 67.125 
Q 48.09375 66.546875 53.515625 64.546875 
Q 56.25 63.53125 57.171875 63.53125 
Q 58.109375 63.53125 58.765625 64.375 
Q 59.421875 65.234375 59.578125 67.71875 
z
" id="TimesNewRomanPSMT-71"/>
       <path d="M 45.84375 67.71875 
L 45.84375 44.828125 
L 44.046875 44.828125 
Q 43.171875 51.421875 40.890625 55.328125 
Q 38.625 59.234375 34.421875 61.515625 
Q 30.21875 63.8125 25.734375 63.8125 
Q 20.65625 63.8125 17.328125 60.71875 
Q 14.015625 57.625 14.015625 53.65625 
Q 14.015625 50.640625 16.109375 48.140625 
Q 19.140625 44.484375 30.515625 38.375 
Q 39.796875 33.40625 43.1875 30.734375 
Q 46.578125 28.078125 48.40625 24.453125 
Q 50.25 20.84375 50.25 16.890625 
Q 50.25 9.375 44.40625 3.921875 
Q 38.578125 -1.515625 29.390625 -1.515625 
Q 26.515625 -1.515625 23.96875 -1.078125 
Q 22.46875 -0.828125 17.703125 0.703125 
Q 12.9375 2.25 11.671875 2.25 
Q 10.453125 2.25 9.734375 1.515625 
Q 9.03125 0.78125 8.6875 -1.515625 
L 6.890625 -1.515625 
L 6.890625 21.1875 
L 8.6875 21.1875 
Q 9.96875 14.0625 12.109375 10.515625 
Q 14.265625 6.984375 18.671875 4.640625 
Q 23.09375 2.296875 28.375 2.296875 
Q 34.46875 2.296875 38 5.515625 
Q 41.546875 8.734375 41.546875 13.140625 
Q 41.546875 15.578125 40.203125 18.0625 
Q 38.875 20.5625 36.03125 22.703125 
Q 34.125 24.171875 25.625 28.921875 
Q 17.140625 33.6875 13.546875 36.515625 
Q 9.96875 39.359375 8.109375 42.765625 
Q 6.25 46.1875 6.25 50.296875 
Q 6.25 57.421875 11.71875 62.5625 
Q 17.1875 67.71875 25.640625 67.71875 
Q 30.90625 67.71875 36.8125 65.140625 
Q 39.546875 63.921875 40.671875 63.921875 
Q 41.9375 63.921875 42.75 64.671875 
Q 43.5625 65.4375 44.046875 67.71875 
z
" id="TimesNewRomanPSMT-83"/>
      </defs>
      <use xlink:href="#TimesNewRomanPSMT-66"/>
      <use x="66.699219" xlink:href="#TimesNewRomanPSMT-70"/>
      <use x="122.314453" xlink:href="#TimesNewRomanPSMT-71"/>
      <use x="194.53125" xlink:href="#TimesNewRomanPSMT-83"/>
     </g>
    </g>
    <g id="line2d_29">
     <path d="M 65.25 233.701172 
L 90.25 233.701172 
" style="fill:none;stroke:#d62728;stroke-dasharray:5.55,2.4;stroke-dashoffset:0;stroke-width:1.5;"/>
    </g>
    <g id="line2d_30">
     <g>
      <use style="fill:#d62728;stroke:#d62728;" x="77.75" xlink:href="#m5fe57780e4" y="233.701172"/>
     </g>
    </g>
    <g id="text_20">
     <!-- Adam -->
     <g transform="translate(100.25 238.076172)scale(0.125 -0.125)">
      <defs>
       <path d="M 45.75 22.171875 
L 20.125 22.171875 
L 15.625 11.71875 
Q 13.96875 7.859375 13.96875 5.953125 
Q 13.96875 4.4375 15.40625 3.296875 
Q 16.84375 2.15625 21.625 1.8125 
L 21.625 0 
L 0.78125 0 
L 0.78125 1.8125 
Q 4.9375 2.546875 6.15625 3.71875 
Q 8.640625 6.0625 11.671875 13.234375 
L 34.96875 67.71875 
L 36.671875 67.71875 
L 59.71875 12.640625 
Q 62.5 6 64.765625 4.015625 
Q 67.046875 2.046875 71.09375 1.8125 
L 71.09375 0 
L 44.96875 0 
L 44.96875 1.8125 
Q 48.921875 2 50.3125 3.125 
Q 51.703125 4.25 51.703125 5.859375 
Q 51.703125 8.015625 49.75 12.640625 
z
M 44.390625 25.78125 
L 33.15625 52.546875 
L 21.625 25.78125 
z
" id="TimesNewRomanPSMT-65"/>
       <path d="M 34.71875 5.03125 
Q 31.453125 1.609375 28.328125 0.109375 
Q 25.203125 -1.375 21.578125 -1.375 
Q 14.265625 -1.375 8.796875 4.75 
Q 3.328125 10.890625 3.328125 20.515625 
Q 3.328125 30.125 9.375 38.109375 
Q 15.4375 46.09375 24.953125 46.09375 
Q 30.859375 46.09375 34.71875 42.328125 
L 34.71875 50.59375 
Q 34.71875 58.25 34.34375 60 
Q 33.984375 61.765625 33.203125 62.390625 
Q 32.421875 63.03125 31.25 63.03125 
Q 29.984375 63.03125 27.875 62.25 
L 27.25 63.96875 
L 40.578125 69.4375 
L 42.78125 69.4375 
L 42.78125 17.71875 
Q 42.78125 9.859375 43.140625 8.125 
Q 43.5 6.390625 44.3125 5.703125 
Q 45.125 5.03125 46.1875 5.03125 
Q 47.515625 5.03125 49.703125 5.859375 
L 50.25 4.15625 
L 36.96875 -1.375 
L 34.71875 -1.375 
z
M 34.71875 8.453125 
L 34.71875 31.5 
Q 34.421875 34.8125 32.953125 37.546875 
Q 31.5 40.28125 29.078125 41.671875 
Q 26.65625 43.0625 24.359375 43.0625 
Q 20.0625 43.0625 16.703125 39.203125 
Q 12.25 34.125 12.25 24.359375 
Q 12.25 14.5 16.546875 9.25 
Q 20.84375 4 26.125 4 
Q 30.5625 4 34.71875 8.453125 
z
" id="TimesNewRomanPSMT-100"/>
       <path d="M 16.40625 36.53125 
Q 21.296875 41.40625 22.171875 42.140625 
Q 24.359375 44 26.890625 45.015625 
Q 29.4375 46.046875 31.9375 46.046875 
Q 36.140625 46.046875 39.15625 43.59375 
Q 42.1875 41.15625 43.21875 36.53125 
Q 48.25 42.390625 51.703125 44.21875 
Q 55.171875 46.046875 58.84375 46.046875 
Q 62.40625 46.046875 65.15625 44.21875 
Q 67.921875 42.390625 69.53125 38.234375 
Q 70.609375 35.40625 70.609375 29.34375 
L 70.609375 10.109375 
Q 70.609375 5.90625 71.234375 4.34375 
Q 71.734375 3.265625 73.046875 2.515625 
Q 74.359375 1.765625 77.34375 1.765625 
L 77.34375 0 
L 55.28125 0 
L 55.28125 1.765625 
L 56.203125 1.765625 
Q 59.078125 1.765625 60.6875 2.875 
Q 61.8125 3.65625 62.3125 5.375 
Q 62.5 6.203125 62.5 10.109375 
L 62.5 29.34375 
Q 62.5 34.8125 61.1875 37.0625 
Q 59.28125 40.1875 55.078125 40.1875 
Q 52.484375 40.1875 49.875 38.890625 
Q 47.265625 37.59375 43.5625 34.078125 
L 43.453125 33.546875 
L 43.5625 31.453125 
L 43.5625 10.109375 
Q 43.5625 5.515625 44.0625 4.390625 
Q 44.578125 3.265625 45.984375 2.515625 
Q 47.40625 1.765625 50.828125 1.765625 
L 50.828125 0 
L 28.21875 0 
L 28.21875 1.765625 
Q 31.9375 1.765625 33.328125 2.640625 
Q 34.71875 3.515625 35.25 5.28125 
Q 35.5 6.109375 35.5 10.109375 
L 35.5 29.34375 
Q 35.5 34.8125 33.890625 37.203125 
Q 31.734375 40.328125 27.875 40.328125 
Q 25.25 40.328125 22.65625 38.921875 
Q 18.609375 36.765625 16.40625 34.078125 
L 16.40625 10.109375 
Q 16.40625 5.71875 17.015625 4.390625 
Q 17.625 3.078125 18.8125 2.421875 
Q 20.015625 1.765625 23.6875 1.765625 
L 23.6875 0 
L 1.5625 0 
L 1.5625 1.765625 
Q 4.640625 1.765625 5.859375 2.421875 
Q 7.078125 3.078125 7.703125 4.515625 
Q 8.34375 5.953125 8.34375 10.109375 
L 8.34375 27.203125 
Q 8.34375 34.578125 7.90625 36.71875 
Q 7.5625 38.328125 6.828125 38.9375 
Q 6.109375 39.546875 4.828125 39.546875 
Q 3.46875 39.546875 1.5625 38.8125 
L 0.828125 40.578125 
L 14.3125 46.046875 
L 16.40625 46.046875 
z
" id="TimesNewRomanPSMT-109"/>
      </defs>
      <use xlink:href="#TimesNewRomanPSMT-65"/>
      <use x="72.216797" xlink:href="#TimesNewRomanPSMT-100"/>
      <use x="122.216797" xlink:href="#TimesNewRomanPSMT-97"/>
      <use x="166.601562" xlink:href="#TimesNewRomanPSMT-109"/>
     </g>
    </g>
   </g>
  </g>
 </g>
 <defs>
  <clipPath id="p98a73f5f7d">
   <rect height="217.44" width="334.8" x="54" y="34.56"/>
  </clipPath>
 </defs>
</svg>
