<?xml version="1.0" encoding="utf-8" standalone="no"?>
<!DOCTYPE svg PUBLIC "-//W3C//DTD SVG 1.1//EN"
  "http://www.w3.org/Graphics/SVG/1.1/DTD/svg11.dtd">
<!-- Created with matplotlib (https://matplotlib.org/) -->
<svg height="288pt" version="1.1" viewBox="0 0 432 288" width="432pt" xmlns="http://www.w3.org/2000/svg" xmlns:xlink="http://www.w3.org/1999/xlink">
 <metadata>
  <rdf:RDF xmlns:cc="http://creativecommons.org/ns#" xmlns:dc="http://purl.org/dc/elements/1.1/" xmlns:rdf="http://www.w3.org/1999/02/22-rdf-syntax-ns#">
   <cc:Work>
    <dc:type rdf:resource="http://purl.org/dc/dcmitype/StillImage"/>
    <dc:date>2021-04-05T21:45:57.294837</dc:date>
    <dc:format>image/svg+xml</dc:format>
    <dc:creator>
     <cc:Agent>
      <dc:title>Matplotlib v3.3.4, https://matplotlib.org/</dc:title>
     </cc:Agent>
    </dc:creator>
   </cc:Work>
  </rdf:RDF>
 </metadata>
 <defs>
  <style type="text/css">*{stroke-linecap:butt;stroke-linejoin:round;}</style>
 </defs>
 <g id="figure_1">
  <g id="patch_1">
   <path d="M 0 288 
L 432 288 
L 432 0 
L 0 0 
z
" style="fill:#ffffff;"/>
  </g>
  <g id="axes_1">
   <g id="patch_2">
    <path d="M 54 252 
L 388.8 252 
L 388.8 34.56 
L 54 34.56 
z
" style="fill:#ffffff;"/>
   </g>
   <g id="PolyCollection_1">
    <defs>
     <path d="M 57.381818 -243.556364 
L 57.381818 -243.556364 
L 60.763636 -243.556364 
L 64.145455 -243.556364 
L 67.527273 -243.556364 
L 70.909091 -243.556364 
L 74.290909 -243.556364 
L 77.672727 -243.556364 
L 81.054545 -243.556364 
L 84.436364 -243.556364 
L 87.818182 -243.556364 
L 91.2 -243.556364 
L 94.581818 -243.556364 
L 97.963636 -243.556364 
L 101.345455 -243.556364 
L 104.727273 -243.556364 
L 108.109091 -243.556364 
L 111.490909 -98.622034 
L 114.872727 -98.622034 
L 118.254545 -98.622034 
L 121.636364 -98.622034 
L 125.018182 -98.622034 
L 128.4 -98.622034 
L 131.781818 -98.622034 
L 135.163636 -98.622034 
L 138.545455 -74.117734 
L 141.927273 -74.117734 
L 145.309091 -74.117734 
L 148.690909 -74.117734 
L 152.072727 -74.117734 
L 155.454545 -74.117734 
L 158.836364 -74.117734 
L 162.218182 -72.999685 
L 165.6 -72.999685 
L 168.981818 -72.999685 
L 172.363636 -63.353317 
L 175.745455 -63.353317 
L 179.127273 -63.353317 
L 182.509091 -63.353317 
L 185.890909 -63.353317 
L 189.272727 -63.353317 
L 192.654545 -63.353317 
L 196.036364 -63.353317 
L 199.418182 -63.353317 
L 202.8 -63.353317 
L 206.181818 -63.353317 
L 209.563636 -63.353317 
L 212.945455 -63.353317 
L 216.327273 -63.353317 
L 219.709091 -63.353317 
L 223.090909 -63.353317 
L 226.472727 -63.353317 
L 229.854545 -63.353317 
L 233.236364 -63.353317 
L 236.618182 -63.353317 
L 240 -62.245279 
L 243.381818 -62.245279 
L 246.763636 -62.245279 
L 250.145455 -62.245279 
L 253.527273 -62.245279 
L 256.909091 -62.245279 
L 260.290909 -62.18098 
L 263.672727 -62.18098 
L 267.054545 -62.176064 
L 270.436364 -62.176064 
L 273.818182 -62.176064 
L 277.2 -62.176064 
L 280.581818 -62.176064 
L 283.963636 -62.176064 
L 287.345455 -62.176064 
L 290.727273 -62.171387 
L 294.109091 -62.171387 
L 297.490909 -62.171387 
L 300.872727 -62.171387 
L 304.254545 -62.170517 
L 307.636364 -62.170517 
L 311.018182 -62.170517 
L 314.4 -62.170517 
L 317.781818 -62.170517 
L 321.163636 -62.170517 
L 324.545455 -62.170517 
L 327.927273 -62.170517 
L 331.309091 -62.170517 
L 334.690909 -62.170517 
L 338.072727 -62.170517 
L 341.454545 -62.170517 
L 344.836364 -62.170517 
L 348.218182 -62.170254 
L 351.6 -62.170005 
L 354.981818 -62.169966 
L 358.363636 -62.169966 
L 361.745455 -62.169966 
L 365.127273 -62.169966 
L 368.509091 -62.169966 
L 371.890909 -62.169966 
L 375.272727 -62.169943 
L 378.654545 -62.169934 
L 382.036364 -62.169934 
L 385.418182 -62.169934 
L 388.8 -62.169934 
L 392.181818 -62.169934 
L 392.181818 -63.353317 
L 392.181818 -63.353317 
L 388.8 -63.353317 
L 385.418182 -63.353317 
L 382.036364 -63.353317 
L 378.654545 -63.353317 
L 375.272727 -63.353317 
L 371.890909 -63.353317 
L 368.509091 -63.353317 
L 365.127273 -63.353317 
L 361.745455 -63.353317 
L 358.363636 -63.353317 
L 354.981818 -63.353317 
L 351.6 -63.353317 
L 348.218182 -63.353317 
L 344.836364 -63.353317 
L 341.454545 -63.353317 
L 338.072727 -63.353317 
L 334.690909 -63.353317 
L 331.309091 -63.353317 
L 327.927273 -63.353317 
L 324.545455 -63.353317 
L 321.163636 -63.353317 
L 317.781818 -63.353317 
L 314.4 -63.353317 
L 311.018182 -63.353317 
L 307.636364 -63.353317 
L 304.254545 -63.353317 
L 300.872727 -63.353317 
L 297.490909 -63.353317 
L 294.109091 -63.694154 
L 290.727273 -63.694154 
L 287.345455 -64.274741 
L 283.963636 -64.274741 
L 280.581818 -67.954777 
L 277.2 -67.954777 
L 273.818182 -67.954777 
L 270.436364 -67.954777 
L 267.054545 -67.954777 
L 263.672727 -67.954777 
L 260.290909 -67.954777 
L 256.909091 -67.954777 
L 253.527273 -67.954777 
L 250.145455 -67.954777 
L 246.763636 -72.999685 
L 243.381818 -72.999685 
L 240 -81.05669 
L 236.618182 -81.05669 
L 233.236364 -81.05669 
L 229.854545 -81.05669 
L 226.472727 -81.05669 
L 223.090909 -106.609419 
L 219.709091 -115.284075 
L 216.327273 -115.284075 
L 212.945455 -115.284075 
L 209.563636 -115.284075 
L 206.181818 -115.284075 
L 202.8 -115.284075 
L 199.418182 -115.284075 
L 196.036364 -115.284075 
L 192.654545 -118.036975 
L 189.272727 -118.036975 
L 185.890909 -121.406288 
L 182.509091 -121.406288 
L 179.127273 -121.406288 
L 175.745455 -121.406288 
L 172.363636 -121.406288 
L 168.981818 -121.406288 
L 165.6 -121.406288 
L 162.218182 -121.406288 
L 158.836364 -121.406288 
L 155.454545 -131.603347 
L 152.072727 -131.603347 
L 148.690909 -131.603347 
L 145.309091 -131.603347 
L 141.927273 -131.603347 
L 138.545455 -179.966048 
L 135.163636 -179.966048 
L 131.781818 -179.966048 
L 128.4 -179.966048 
L 125.018182 -179.966048 
L 121.636364 -179.966048 
L 118.254545 -179.966048 
L 114.872727 -179.966048 
L 111.490909 -179.966048 
L 108.109091 -243.556364 
L 104.727273 -243.556364 
L 101.345455 -243.556364 
L 97.963636 -243.556364 
L 94.581818 -243.556364 
L 91.2 -243.556364 
L 87.818182 -243.556364 
L 84.436364 -243.556364 
L 81.054545 -243.556364 
L 77.672727 -243.556364 
L 74.290909 -243.556364 
L 70.909091 -243.556364 
L 67.527273 -243.556364 
L 64.145455 -243.556364 
L 60.763636 -243.556364 
L 57.381818 -243.556364 
z
" id="m0f0c32dd2d" style="stroke:#0000ff;stroke-opacity:0.5;"/>
    </defs>
    <g clip-path="url(#p8e51827426)">
     <use style="fill:#0000ff;fill-opacity:0.5;stroke:#0000ff;stroke-opacity:0.5;" x="0" xlink:href="#m0f0c32dd2d" y="288"/>
    </g>
   </g>
   <g id="PolyCollection_2">
    <defs>
     <path d="M 57.381818 -243.556364 
L 57.381818 -243.556364 
L 60.763636 -243.556364 
L 64.145455 -243.556364 
L 67.527273 -243.556364 
L 70.909091 -243.556364 
L 74.290909 -243.556364 
L 77.672727 -243.556364 
L 81.054545 -233.336293 
L 84.436364 -233.336293 
L 87.818182 -221.629517 
L 91.2 -221.629517 
L 94.581818 -198.044755 
L 97.963636 -198.044755 
L 101.345455 -193.309059 
L 104.727273 -193.309059 
L 108.109091 -155.539787 
L 111.490909 -141.110449 
L 114.872727 -141.110449 
L 118.254545 -118.938701 
L 121.636364 -113.647032 
L 125.018182 -112.95169 
L 128.4 -112.95169 
L 131.781818 -112.477761 
L 135.163636 -112.477761 
L 138.545455 -108.341362 
L 141.927273 -108.341362 
L 145.309091 -108.341362 
L 148.690909 -104.589259 
L 152.072727 -104.589259 
L 155.454545 -103.162448 
L 158.836364 -100.155561 
L 162.218182 -100.155561 
L 165.6 -100.155561 
L 168.981818 -93.750282 
L 172.363636 -93.750282 
L 175.745455 -93.750282 
L 179.127273 -88.862429 
L 182.509091 -79.792924 
L 185.890909 -79.792924 
L 189.272727 -79.792924 
L 192.654545 -79.792924 
L 196.036364 -79.792924 
L 199.418182 -79.792924 
L 202.8 -69.191463 
L 206.181818 -67.530308 
L 209.563636 -67.530308 
L 212.945455 -67.530308 
L 216.327273 -67.530308 
L 219.709091 -63.235732 
L 223.090909 -63.235732 
L 226.472727 -63.235732 
L 229.854545 -63.235732 
L 233.236364 -63.235732 
L 236.618182 -63.235732 
L 240 -63.235732 
L 243.381818 -62.805311 
L 246.763636 -62.805311 
L 250.145455 -62.805311 
L 253.527273 -62.805311 
L 256.909091 -62.805311 
L 260.290909 -62.805311 
L 263.672727 -62.805311 
L 267.054545 -62.805311 
L 270.436364 -62.805311 
L 273.818182 -62.805311 
L 277.2 -62.41871 
L 280.581818 -62.41871 
L 283.963636 -62.31322 
L 287.345455 -62.31322 
L 290.727273 -62.31322 
L 294.109091 -62.31322 
L 297.490909 -62.31322 
L 300.872727 -62.31322 
L 304.254545 -62.31322 
L 307.636364 -62.31322 
L 311.018182 -62.31322 
L 314.4 -62.31322 
L 317.781818 -62.31322 
L 321.163636 -62.31322 
L 324.545455 -62.31322 
L 327.927273 -62.31322 
L 331.309091 -62.31322 
L 334.690909 -62.31322 
L 338.072727 -62.31322 
L 341.454545 -62.31322 
L 344.836364 -62.31322 
L 348.218182 -62.185784 
L 351.6 -62.185784 
L 354.981818 -62.185784 
L 358.363636 -62.185784 
L 361.745455 -62.185784 
L 365.127273 -62.185784 
L 368.509091 -62.185784 
L 371.890909 -62.185784 
L 375.272727 -62.170491 
L 378.654545 -62.170491 
L 382.036364 -62.170491 
L 385.418182 -62.170491 
L 388.8 -62.170491 
L 392.181818 -62.170491 
L 392.181818 -64.853001 
L 392.181818 -64.853001 
L 388.8 -64.853001 
L 385.418182 -64.853001 
L 382.036364 -64.853001 
L 378.654545 -64.853001 
L 375.272727 -64.853001 
L 371.890909 -64.853001 
L 368.509091 -64.853001 
L 365.127273 -64.853001 
L 361.745455 -64.853001 
L 358.363636 -64.853001 
L 354.981818 -64.853001 
L 351.6 -64.853001 
L 348.218182 -64.853001 
L 344.836364 -68.214488 
L 341.454545 -68.214488 
L 338.072727 -68.214488 
L 334.690909 -68.214488 
L 331.309091 -68.214488 
L 327.927273 -68.214488 
L 324.545455 -68.214488 
L 321.163636 -69.191463 
L 317.781818 -69.191463 
L 314.4 -69.191463 
L 311.018182 -69.191463 
L 307.636364 -69.191463 
L 304.254545 -71.657502 
L 300.872727 -71.657502 
L 297.490909 -71.657502 
L 294.109091 -71.657502 
L 290.727273 -73.647491 
L 287.345455 -73.647491 
L 283.963636 -73.647491 
L 280.581818 -80.011973 
L 277.2 -80.011973 
L 273.818182 -80.050814 
L 270.436364 -80.050814 
L 267.054545 -80.050814 
L 263.672727 -80.050814 
L 260.290909 -86.196585 
L 256.909091 -88.093094 
L 253.527273 -88.093094 
L 250.145455 -90.113207 
L 246.763636 -92.582349 
L 243.381818 -92.829353 
L 240 -92.829353 
L 236.618182 -92.829353 
L 233.236364 -92.829353 
L 229.854545 -97.442711 
L 226.472727 -97.442711 
L 223.090909 -98.834637 
L 219.709091 -98.834637 
L 216.327273 -100.07403 
L 212.945455 -102.197356 
L 209.563636 -102.197356 
L 206.181818 -102.197356 
L 202.8 -105.118959 
L 199.418182 -105.118959 
L 196.036364 -105.118959 
L 192.654545 -105.887499 
L 189.272727 -106.789771 
L 185.890909 -106.789771 
L 182.509091 -106.789771 
L 179.127273 -106.789771 
L 175.745455 -111.177951 
L 172.363636 -111.177951 
L 168.981818 -111.177951 
L 165.6 -113.190516 
L 162.218182 -113.190516 
L 158.836364 -116.024312 
L 155.454545 -116.024312 
L 152.072727 -116.024312 
L 148.690909 -116.024312 
L 145.309091 -116.442813 
L 141.927273 -116.442813 
L 138.545455 -116.442813 
L 135.163636 -124.911155 
L 131.781818 -125.968721 
L 128.4 -173.676002 
L 125.018182 -173.676002 
L 121.636364 -173.676002 
L 118.254545 -173.676002 
L 114.872727 -173.676002 
L 111.490909 -204.376069 
L 108.109091 -204.376069 
L 104.727273 -221.836769 
L 101.345455 -221.836769 
L 97.963636 -221.836769 
L 94.581818 -222.477752 
L 91.2 -222.477752 
L 87.818182 -222.477752 
L 84.436364 -234.904942 
L 81.054545 -234.904942 
L 77.672727 -243.556364 
L 74.290909 -243.556364 
L 70.909091 -243.556364 
L 67.527273 -243.556364 
L 64.145455 -243.556364 
L 60.763636 -243.556364 
L 57.381818 -243.556364 
z
" id="md302c22095" style="stroke:#00bfbf;stroke-opacity:0.5;"/>
    </defs>
    <g clip-path="url(#p8e51827426)">
     <use style="fill:#00bfbf;fill-opacity:0.5;stroke:#00bfbf;stroke-opacity:0.5;" x="0" xlink:href="#md302c22095" y="288"/>
    </g>
   </g>
   <g id="PolyCollection_3">
    <defs>
     <path d="M 60.763636 -243.556364 
L 60.763636 -243.556364 
L 64.145455 -243.556364 
L 67.527273 -243.556364 
L 70.909091 -243.556364 
L 74.290909 -117.101567 
L 77.672727 -117.101567 
L 81.054545 -117.101567 
L 84.436364 -117.101567 
L 87.818182 -117.101567 
L 91.2 -117.101567 
L 94.581818 -110.703729 
L 97.963636 -110.703729 
L 101.345455 -105.271325 
L 104.727273 -79.515952 
L 108.109091 -79.515952 
L 111.490909 -79.515952 
L 114.872727 -79.515952 
L 118.254545 -79.515952 
L 121.636364 -79.515952 
L 125.018182 -79.515952 
L 128.4 -79.515952 
L 131.781818 -75.474631 
L 135.163636 -75.474631 
L 138.545455 -75.474631 
L 141.927273 -75.474631 
L 145.309091 -75.474631 
L 148.690909 -75.474631 
L 152.072727 -75.474631 
L 155.454545 -75.474631 
L 158.836364 -75.474631 
L 162.218182 -75.474631 
L 165.6 -75.474631 
L 168.981818 -75.474631 
L 172.363636 -75.474631 
L 175.745455 -75.474631 
L 179.127273 -75.474631 
L 182.509091 -75.474631 
L 185.890909 -75.474631 
L 189.272727 -75.474631 
L 192.654545 -75.474631 
L 196.036364 -75.474631 
L 199.418182 -75.34503 
L 202.8 -75.34503 
L 206.181818 -75.34503 
L 209.563636 -75.34503 
L 212.945455 -75.34503 
L 216.327273 -75.34503 
L 219.709091 -75.34503 
L 223.090909 -75.34503 
L 226.472727 -75.34503 
L 229.854545 -75.34503 
L 233.236364 -75.34503 
L 236.618182 -70.660526 
L 240 -70.660526 
L 243.381818 -70.660526 
L 246.763636 -70.660526 
L 250.145455 -70.660526 
L 253.527273 -70.660526 
L 256.909091 -70.660526 
L 260.290909 -70.660526 
L 263.672727 -70.660526 
L 267.054545 -70.660526 
L 270.436364 -70.660526 
L 273.818182 -70.660526 
L 277.2 -70.660526 
L 280.581818 -70.660526 
L 283.963636 -70.660526 
L 287.345455 -70.660526 
L 290.727273 -70.660526 
L 294.109091 -70.660526 
L 297.490909 -70.660526 
L 300.872727 -70.660526 
L 304.254545 -70.660526 
L 307.636364 -70.660526 
L 311.018182 -70.660526 
L 314.4 -70.660526 
L 317.781818 -70.660526 
L 321.163636 -70.660526 
L 324.545455 -70.660526 
L 327.927273 -70.660526 
L 331.309091 -70.660526 
L 334.690909 -68.500492 
L 338.072727 -68.500492 
L 341.454545 -68.500492 
L 344.836364 -68.500492 
L 348.218182 -68.500492 
L 351.6 -68.500492 
L 354.981818 -68.500492 
L 358.363636 -68.500492 
L 361.745455 -68.500492 
L 365.127273 -68.500492 
L 368.509091 -68.500492 
L 371.890909 -68.500492 
L 375.272727 -68.500492 
L 378.654545 -68.500492 
L 382.036364 -68.500492 
L 385.418182 -68.500492 
L 388.8 -68.500492 
L 392.181818 -68.500492 
L 392.181818 -76.949192 
L 392.181818 -76.949192 
L 388.8 -76.949192 
L 385.418182 -76.949192 
L 382.036364 -76.949192 
L 378.654545 -76.949192 
L 375.272727 -76.949192 
L 371.890909 -76.949192 
L 368.509091 -76.949192 
L 365.127273 -78.401075 
L 361.745455 -78.401075 
L 358.363636 -78.401075 
L 354.981818 -78.401075 
L 351.6 -78.401075 
L 348.218182 -78.401075 
L 344.836364 -78.401075 
L 341.454545 -78.401075 
L 338.072727 -78.401075 
L 334.690909 -78.401075 
L 331.309091 -79.114019 
L 327.927273 -79.114019 
L 324.545455 -79.114019 
L 321.163636 -79.114019 
L 317.781818 -81.273824 
L 314.4 -81.273824 
L 311.018182 -81.273824 
L 307.636364 -81.273824 
L 304.254545 -81.273824 
L 300.872727 -81.273824 
L 297.490909 -83.185014 
L 294.109091 -83.185014 
L 290.727273 -83.185014 
L 287.345455 -83.185014 
L 283.963636 -83.185014 
L 280.581818 -83.185014 
L 277.2 -84.390525 
L 273.818182 -84.390525 
L 270.436364 -84.390525 
L 267.054545 -84.390525 
L 263.672727 -84.40231 
L 260.290909 -84.40231 
L 256.909091 -84.40231 
L 253.527273 -84.40231 
L 250.145455 -84.40231 
L 246.763636 -84.40231 
L 243.381818 -84.40231 
L 240 -84.42091 
L 236.618182 -84.42091 
L 233.236364 -94.35241 
L 229.854545 -94.35241 
L 226.472727 -94.35241 
L 223.090909 -94.35241 
L 219.709091 -94.35241 
L 216.327273 -94.35241 
L 212.945455 -94.35241 
L 209.563636 -94.35241 
L 206.181818 -94.35241 
L 202.8 -94.35241 
L 199.418182 -95.745314 
L 196.036364 -95.745314 
L 192.654545 -95.745314 
L 189.272727 -95.745314 
L 185.890909 -95.745314 
L 182.509091 -95.745314 
L 179.127273 -95.745314 
L 175.745455 -95.745314 
L 172.363636 -95.745314 
L 168.981818 -95.745314 
L 165.6 -103.29714 
L 162.218182 -116.337108 
L 158.836364 -116.337108 
L 155.454545 -116.337108 
L 152.072727 -116.337108 
L 148.690909 -116.337108 
L 145.309091 -116.337108 
L 141.927273 -124.325005 
L 138.545455 -124.325005 
L 135.163636 -148.14046 
L 131.781818 -148.14046 
L 128.4 -148.14046 
L 125.018182 -148.14046 
L 121.636364 -157.197192 
L 118.254545 -187.122969 
L 114.872727 -187.122969 
L 111.490909 -187.122969 
L 108.109091 -187.122969 
L 104.727273 -187.122969 
L 101.345455 -187.122969 
L 97.963636 -203.987986 
L 94.581818 -203.987986 
L 91.2 -229.379079 
L 87.818182 -243.556364 
L 84.436364 -243.556364 
L 81.054545 -243.556364 
L 77.672727 -243.556364 
L 74.290909 -243.556364 
L 70.909091 -243.556364 
L 67.527273 -243.556364 
L 64.145455 -243.556364 
L 60.763636 -243.556364 
z
" id="ma42ae5a3ee" style="stroke:#ffa500;stroke-opacity:0.5;"/>
    </defs>
    <g clip-path="url(#p8e51827426)">
     <use style="fill:#ffa500;fill-opacity:0.5;stroke:#ffa500;stroke-opacity:0.5;" x="0" xlink:href="#ma42ae5a3ee" y="288"/>
    </g>
   </g>
   <g id="PolyCollection_4">
    <defs>
     <path d="M 57.381818 -204.907589 
L 57.381818 -45.883636 
L 60.763636 -45.883636 
L 64.145455 -45.883636 
L 67.527273 -63.893908 
L 70.909091 -63.893908 
L 74.290909 -63.893908 
L 77.672727 -62.878563 
L 81.054545 -62.878563 
L 84.436364 -62.878563 
L 87.818182 -62.160287 
L 91.2 -62.160287 
L 94.581818 -62.160287 
L 97.963636 -62.160287 
L 101.345455 -62.160287 
L 104.727273 -62.160287 
L 108.109091 -62.160287 
L 111.490909 -62.160287 
L 114.872727 -62.160287 
L 118.254545 -62.160287 
L 121.636364 -62.160287 
L 125.018182 -62.160287 
L 128.4 -62.160287 
L 131.781818 -62.160287 
L 135.163636 -62.160287 
L 138.545455 -62.160287 
L 141.927273 -62.160287 
L 145.309091 -62.160287 
L 148.690909 -62.160287 
L 152.072727 -62.160287 
L 155.454545 -62.160287 
L 158.836364 -62.160287 
L 162.218182 -62.160287 
L 165.6 -62.160287 
L 168.981818 -62.160287 
L 172.363636 -62.160287 
L 175.745455 -62.160287 
L 179.127273 -62.160287 
L 182.509091 -62.160287 
L 185.890909 -62.160287 
L 189.272727 -62.160287 
L 192.654545 -62.160287 
L 196.036364 -62.160287 
L 199.418182 -62.160287 
L 202.8 -62.160287 
L 206.181818 -62.160287 
L 209.563636 -62.160287 
L 212.945455 -62.160287 
L 216.327273 -62.160287 
L 219.709091 -62.160287 
L 223.090909 -62.160287 
L 226.472727 -62.160287 
L 229.854545 -62.160287 
L 233.236364 -62.160287 
L 236.618182 -62.160287 
L 240 -62.160287 
L 243.381818 -62.160287 
L 246.763636 -62.160287 
L 250.145455 -62.160287 
L 253.527273 -62.160287 
L 256.909091 -62.160287 
L 260.290909 -62.160287 
L 263.672727 -62.160287 
L 267.054545 -62.160287 
L 270.436364 -62.160287 
L 273.818182 -62.160287 
L 277.2 -62.160287 
L 280.581818 -62.160287 
L 283.963636 -62.160287 
L 287.345455 -62.160287 
L 290.727273 -62.160287 
L 294.109091 -62.160287 
L 297.490909 -62.160287 
L 300.872727 -62.160287 
L 304.254545 -62.160287 
L 307.636364 -62.160287 
L 311.018182 -62.160287 
L 314.4 -62.160287 
L 317.781818 -62.160287 
L 321.163636 -62.160287 
L 324.545455 -62.160287 
L 327.927273 -62.160287 
L 331.309091 -62.160287 
L 334.690909 -62.160287 
L 338.072727 -62.160287 
L 341.454545 -62.160287 
L 344.836364 -62.160287 
L 348.218182 -62.160287 
L 351.6 -62.160287 
L 354.981818 -62.160287 
L 358.363636 -62.160287 
L 361.745455 -62.160287 
L 365.127273 -62.160287 
L 368.509091 -62.160287 
L 371.890909 -62.160287 
L 375.272727 -62.160287 
L 378.654545 -62.160287 
L 382.036364 -62.160287 
L 385.418182 -62.160287 
L 388.8 -62.160287 
L 392.181818 -62.160287 
L 392.181818 -71.510436 
L 392.181818 -71.510436 
L 388.8 -71.510436 
L 385.418182 -71.510436 
L 382.036364 -71.510436 
L 378.654545 -71.510436 
L 375.272727 -71.510436 
L 371.890909 -71.510436 
L 368.509091 -71.510436 
L 365.127273 -71.510436 
L 361.745455 -71.510436 
L 358.363636 -71.510436 
L 354.981818 -71.510436 
L 351.6 -71.510436 
L 348.218182 -71.510436 
L 344.836364 -71.510436 
L 341.454545 -71.510436 
L 338.072727 -71.510436 
L 334.690909 -71.510436 
L 331.309091 -71.510436 
L 327.927273 -71.510436 
L 324.545455 -71.510436 
L 321.163636 -71.510436 
L 317.781818 -71.510436 
L 314.4 -71.510436 
L 311.018182 -71.510436 
L 307.636364 -71.510436 
L 304.254545 -71.510436 
L 300.872727 -71.510436 
L 297.490909 -71.510436 
L 294.109091 -71.510436 
L 290.727273 -71.510436 
L 287.345455 -71.510436 
L 283.963636 -71.510436 
L 280.581818 -71.510436 
L 277.2 -71.510436 
L 273.818182 -71.510436 
L 270.436364 -71.510436 
L 267.054545 -71.510436 
L 263.672727 -71.510436 
L 260.290909 -71.510436 
L 256.909091 -71.510436 
L 253.527273 -71.510436 
L 250.145455 -71.510436 
L 246.763636 -71.510436 
L 243.381818 -71.510436 
L 240 -71.510436 
L 236.618182 -71.510436 
L 233.236364 -71.510436 
L 229.854545 -71.510436 
L 226.472727 -71.510436 
L 223.090909 -71.510436 
L 219.709091 -71.510436 
L 216.327273 -71.510436 
L 212.945455 -71.510436 
L 209.563636 -71.510436 
L 206.181818 -71.510436 
L 202.8 -71.510436 
L 199.418182 -71.510436 
L 196.036364 -71.510436 
L 192.654545 -71.510436 
L 189.272727 -71.510436 
L 185.890909 -71.510436 
L 182.509091 -71.510436 
L 179.127273 -71.510436 
L 175.745455 -71.510436 
L 172.363636 -71.510436 
L 168.981818 -71.510436 
L 165.6 -71.510436 
L 162.218182 -71.510436 
L 158.836364 -71.510436 
L 155.454545 -71.510436 
L 152.072727 -71.510436 
L 148.690909 -71.510436 
L 145.309091 -71.510436 
L 141.927273 -71.510436 
L 138.545455 -71.510436 
L 135.163636 -71.510436 
L 131.781818 -71.510436 
L 128.4 -71.510436 
L 125.018182 -71.510436 
L 121.636364 -71.510436 
L 118.254545 -71.510436 
L 114.872727 -73.299326 
L 111.490909 -79.758687 
L 108.109091 -79.758687 
L 104.727273 -87.016023 
L 101.345455 -87.016023 
L 97.963636 -98.943109 
L 94.581818 -114.628569 
L 91.2 -114.628569 
L 87.818182 -116.067714 
L 84.436364 -162.887095 
L 81.054545 -162.887095 
L 77.672727 -162.887095 
L 74.290909 -176.576415 
L 70.909091 -176.576415 
L 67.527273 -197.952021 
L 64.145455 -197.952021 
L 60.763636 -201.049 
L 57.381818 -204.907589 
z
" id="m3194eb8fed" style="stroke:#ff0000;stroke-opacity:0.5;"/>
    </defs>
    <g clip-path="url(#p8e51827426)">
     <use style="fill:#ff0000;fill-opacity:0.5;stroke:#ff0000;stroke-opacity:0.5;" x="0" xlink:href="#m3194eb8fed" y="288"/>
    </g>
   </g>
   <g id="matplotlib.axis_1">
    <g id="xtick_1">
     <g id="line2d_1">
      <defs>
       <path d="M 0 0 
L 0 3.5 
" id="m5b0f7ef5c2" style="stroke:#000000;stroke-width:0.8;"/>
      </defs>
      <g>
       <use style="stroke:#000000;stroke-width:0.8;" x="54" xlink:href="#m5b0f7ef5c2" y="252"/>
      </g>
     </g>
     <g id="text_1">
      <!-- 0 -->
      <g transform="translate(50.81875 266.598437)scale(0.1 -0.1)">
       <defs>
        <path d="M 31.78125 66.40625 
Q 24.171875 66.40625 20.328125 58.90625 
Q 16.5 51.421875 16.5 36.375 
Q 16.5 21.390625 20.328125 13.890625 
Q 24.171875 6.390625 31.78125 6.390625 
Q 39.453125 6.390625 43.28125 13.890625 
Q 47.125 21.390625 47.125 36.375 
Q 47.125 51.421875 43.28125 58.90625 
Q 39.453125 66.40625 31.78125 66.40625 
z
M 31.78125 74.21875 
Q 44.046875 74.21875 50.515625 64.515625 
Q 56.984375 54.828125 56.984375 36.375 
Q 56.984375 17.96875 50.515625 8.265625 
Q 44.046875 -1.421875 31.78125 -1.421875 
Q 19.53125 -1.421875 13.0625 8.265625 
Q 6.59375 17.96875 6.59375 36.375 
Q 6.59375 54.828125 13.0625 64.515625 
Q 19.53125 74.21875 31.78125 74.21875 
z
" id="DejaVuSans-48"/>
       </defs>
       <use xlink:href="#DejaVuSans-48"/>
      </g>
     </g>
    </g>
    <g id="xtick_2">
     <g id="line2d_2">
      <g>
       <use style="stroke:#000000;stroke-width:0.8;" x="121.636364" xlink:href="#m5b0f7ef5c2" y="252"/>
      </g>
     </g>
     <g id="text_2">
      <!-- 20 -->
      <g transform="translate(115.273864 266.598437)scale(0.1 -0.1)">
       <defs>
        <path d="M 19.1875 8.296875 
L 53.609375 8.296875 
L 53.609375 0 
L 7.328125 0 
L 7.328125 8.296875 
Q 12.9375 14.109375 22.625 23.890625 
Q 32.328125 33.6875 34.8125 36.53125 
Q 39.546875 41.84375 41.421875 45.53125 
Q 43.3125 49.21875 43.3125 52.78125 
Q 43.3125 58.59375 39.234375 62.25 
Q 35.15625 65.921875 28.609375 65.921875 
Q 23.96875 65.921875 18.8125 64.3125 
Q 13.671875 62.703125 7.8125 59.421875 
L 7.8125 69.390625 
Q 13.765625 71.78125 18.9375 73 
Q 24.125 74.21875 28.421875 74.21875 
Q 39.75 74.21875 46.484375 68.546875 
Q 53.21875 62.890625 53.21875 53.421875 
Q 53.21875 48.921875 51.53125 44.890625 
Q 49.859375 40.875 45.40625 35.40625 
Q 44.1875 33.984375 37.640625 27.21875 
Q 31.109375 20.453125 19.1875 8.296875 
z
" id="DejaVuSans-50"/>
       </defs>
       <use xlink:href="#DejaVuSans-50"/>
       <use x="63.623047" xlink:href="#DejaVuSans-48"/>
      </g>
     </g>
    </g>
    <g id="xtick_3">
     <g id="line2d_3">
      <g>
       <use style="stroke:#000000;stroke-width:0.8;" x="189.272727" xlink:href="#m5b0f7ef5c2" y="252"/>
      </g>
     </g>
     <g id="text_3">
      <!-- 40 -->
      <g transform="translate(182.910227 266.598437)scale(0.1 -0.1)">
       <defs>
        <path d="M 37.796875 64.3125 
L 12.890625 25.390625 
L 37.796875 25.390625 
z
M 35.203125 72.90625 
L 47.609375 72.90625 
L 47.609375 25.390625 
L 58.015625 25.390625 
L 58.015625 17.1875 
L 47.609375 17.1875 
L 47.609375 0 
L 37.796875 0 
L 37.796875 17.1875 
L 4.890625 17.1875 
L 4.890625 26.703125 
z
" id="DejaVuSans-52"/>
       </defs>
       <use xlink:href="#DejaVuSans-52"/>
       <use x="63.623047" xlink:href="#DejaVuSans-48"/>
      </g>
     </g>
    </g>
    <g id="xtick_4">
     <g id="line2d_4">
      <g>
       <use style="stroke:#000000;stroke-width:0.8;" x="256.909091" xlink:href="#m5b0f7ef5c2" y="252"/>
      </g>
     </g>
     <g id="text_4">
      <!-- 60 -->
      <g transform="translate(250.546591 266.598437)scale(0.1 -0.1)">
       <defs>
        <path d="M 33.015625 40.375 
Q 26.375 40.375 22.484375 35.828125 
Q 18.609375 31.296875 18.609375 23.390625 
Q 18.609375 15.53125 22.484375 10.953125 
Q 26.375 6.390625 33.015625 6.390625 
Q 39.65625 6.390625 43.53125 10.953125 
Q 47.40625 15.53125 47.40625 23.390625 
Q 47.40625 31.296875 43.53125 35.828125 
Q 39.65625 40.375 33.015625 40.375 
z
M 52.59375 71.296875 
L 52.59375 62.3125 
Q 48.875 64.0625 45.09375 64.984375 
Q 41.3125 65.921875 37.59375 65.921875 
Q 27.828125 65.921875 22.671875 59.328125 
Q 17.53125 52.734375 16.796875 39.40625 
Q 19.671875 43.65625 24.015625 45.921875 
Q 28.375 48.1875 33.59375 48.1875 
Q 44.578125 48.1875 50.953125 41.515625 
Q 57.328125 34.859375 57.328125 23.390625 
Q 57.328125 12.15625 50.6875 5.359375 
Q 44.046875 -1.421875 33.015625 -1.421875 
Q 20.359375 -1.421875 13.671875 8.265625 
Q 6.984375 17.96875 6.984375 36.375 
Q 6.984375 53.65625 15.1875 63.9375 
Q 23.390625 74.21875 37.203125 74.21875 
Q 40.921875 74.21875 44.703125 73.484375 
Q 48.484375 72.75 52.59375 71.296875 
z
" id="DejaVuSans-54"/>
       </defs>
       <use xlink:href="#DejaVuSans-54"/>
       <use x="63.623047" xlink:href="#DejaVuSans-48"/>
      </g>
     </g>
    </g>
    <g id="xtick_5">
     <g id="line2d_5">
      <g>
       <use style="stroke:#000000;stroke-width:0.8;" x="324.545455" xlink:href="#m5b0f7ef5c2" y="252"/>
      </g>
     </g>
     <g id="text_5">
      <!-- 80 -->
      <g transform="translate(318.182955 266.598437)scale(0.1 -0.1)">
       <defs>
        <path d="M 31.78125 34.625 
Q 24.75 34.625 20.71875 30.859375 
Q 16.703125 27.09375 16.703125 20.515625 
Q 16.703125 13.921875 20.71875 10.15625 
Q 24.75 6.390625 31.78125 6.390625 
Q 38.8125 6.390625 42.859375 10.171875 
Q 46.921875 13.96875 46.921875 20.515625 
Q 46.921875 27.09375 42.890625 30.859375 
Q 38.875 34.625 31.78125 34.625 
z
M 21.921875 38.8125 
Q 15.578125 40.375 12.03125 44.71875 
Q 8.5 49.078125 8.5 55.328125 
Q 8.5 64.0625 14.71875 69.140625 
Q 20.953125 74.21875 31.78125 74.21875 
Q 42.671875 74.21875 48.875 69.140625 
Q 55.078125 64.0625 55.078125 55.328125 
Q 55.078125 49.078125 51.53125 44.71875 
Q 48 40.375 41.703125 38.8125 
Q 48.828125 37.15625 52.796875 32.3125 
Q 56.78125 27.484375 56.78125 20.515625 
Q 56.78125 9.90625 50.3125 4.234375 
Q 43.84375 -1.421875 31.78125 -1.421875 
Q 19.734375 -1.421875 13.25 4.234375 
Q 6.78125 9.90625 6.78125 20.515625 
Q 6.78125 27.484375 10.78125 32.3125 
Q 14.796875 37.15625 21.921875 38.8125 
z
M 18.3125 54.390625 
Q 18.3125 48.734375 21.84375 45.5625 
Q 25.390625 42.390625 31.78125 42.390625 
Q 38.140625 42.390625 41.71875 45.5625 
Q 45.3125 48.734375 45.3125 54.390625 
Q 45.3125 60.0625 41.71875 63.234375 
Q 38.140625 66.40625 31.78125 66.40625 
Q 25.390625 66.40625 21.84375 63.234375 
Q 18.3125 60.0625 18.3125 54.390625 
z
" id="DejaVuSans-56"/>
       </defs>
       <use xlink:href="#DejaVuSans-56"/>
       <use x="63.623047" xlink:href="#DejaVuSans-48"/>
      </g>
     </g>
    </g>
    <g id="text_6">
     <!-- Nbr. of function evaluations -->
     <g transform="translate(152.382031 280.276563)scale(0.1 -0.1)">
      <defs>
       <path d="M 9.8125 72.90625 
L 23.09375 72.90625 
L 55.421875 11.921875 
L 55.421875 72.90625 
L 64.984375 72.90625 
L 64.984375 0 
L 51.703125 0 
L 19.390625 60.984375 
L 19.390625 0 
L 9.8125 0 
z
" id="DejaVuSans-78"/>
       <path d="M 48.6875 27.296875 
Q 48.6875 37.203125 44.609375 42.84375 
Q 40.53125 48.484375 33.40625 48.484375 
Q 26.265625 48.484375 22.1875 42.84375 
Q 18.109375 37.203125 18.109375 27.296875 
Q 18.109375 17.390625 22.1875 11.75 
Q 26.265625 6.109375 33.40625 6.109375 
Q 40.53125 6.109375 44.609375 11.75 
Q 48.6875 17.390625 48.6875 27.296875 
z
M 18.109375 46.390625 
Q 20.953125 51.265625 25.265625 53.625 
Q 29.59375 56 35.59375 56 
Q 45.5625 56 51.78125 48.09375 
Q 58.015625 40.1875 58.015625 27.296875 
Q 58.015625 14.40625 51.78125 6.484375 
Q 45.5625 -1.421875 35.59375 -1.421875 
Q 29.59375 -1.421875 25.265625 0.953125 
Q 20.953125 3.328125 18.109375 8.203125 
L 18.109375 0 
L 9.078125 0 
L 9.078125 75.984375 
L 18.109375 75.984375 
z
" id="DejaVuSans-98"/>
       <path d="M 41.109375 46.296875 
Q 39.59375 47.171875 37.8125 47.578125 
Q 36.03125 48 33.890625 48 
Q 26.265625 48 22.1875 43.046875 
Q 18.109375 38.09375 18.109375 28.8125 
L 18.109375 0 
L 9.078125 0 
L 9.078125 54.6875 
L 18.109375 54.6875 
L 18.109375 46.1875 
Q 20.953125 51.171875 25.484375 53.578125 
Q 30.03125 56 36.53125 56 
Q 37.453125 56 38.578125 55.875 
Q 39.703125 55.765625 41.0625 55.515625 
z
" id="DejaVuSans-114"/>
       <path d="M 10.6875 12.40625 
L 21 12.40625 
L 21 0 
L 10.6875 0 
z
" id="DejaVuSans-46"/>
       <path id="DejaVuSans-32"/>
       <path d="M 30.609375 48.390625 
Q 23.390625 48.390625 19.1875 42.75 
Q 14.984375 37.109375 14.984375 27.296875 
Q 14.984375 17.484375 19.15625 11.84375 
Q 23.34375 6.203125 30.609375 6.203125 
Q 37.796875 6.203125 41.984375 11.859375 
Q 46.1875 17.53125 46.1875 27.296875 
Q 46.1875 37.015625 41.984375 42.703125 
Q 37.796875 48.390625 30.609375 48.390625 
z
M 30.609375 56 
Q 42.328125 56 49.015625 48.375 
Q 55.71875 40.765625 55.71875 27.296875 
Q 55.71875 13.875 49.015625 6.21875 
Q 42.328125 -1.421875 30.609375 -1.421875 
Q 18.84375 -1.421875 12.171875 6.21875 
Q 5.515625 13.875 5.515625 27.296875 
Q 5.515625 40.765625 12.171875 48.375 
Q 18.84375 56 30.609375 56 
z
" id="DejaVuSans-111"/>
       <path d="M 37.109375 75.984375 
L 37.109375 68.5 
L 28.515625 68.5 
Q 23.6875 68.5 21.796875 66.546875 
Q 19.921875 64.59375 19.921875 59.515625 
L 19.921875 54.6875 
L 34.71875 54.6875 
L 34.71875 47.703125 
L 19.921875 47.703125 
L 19.921875 0 
L 10.890625 0 
L 10.890625 47.703125 
L 2.296875 47.703125 
L 2.296875 54.6875 
L 10.890625 54.6875 
L 10.890625 58.5 
Q 10.890625 67.625 15.140625 71.796875 
Q 19.390625 75.984375 28.609375 75.984375 
z
" id="DejaVuSans-102"/>
       <path d="M 8.5 21.578125 
L 8.5 54.6875 
L 17.484375 54.6875 
L 17.484375 21.921875 
Q 17.484375 14.15625 20.5 10.265625 
Q 23.53125 6.390625 29.59375 6.390625 
Q 36.859375 6.390625 41.078125 11.03125 
Q 45.3125 15.671875 45.3125 23.6875 
L 45.3125 54.6875 
L 54.296875 54.6875 
L 54.296875 0 
L 45.3125 0 
L 45.3125 8.40625 
Q 42.046875 3.421875 37.71875 1 
Q 33.40625 -1.421875 27.6875 -1.421875 
Q 18.265625 -1.421875 13.375 4.4375 
Q 8.5 10.296875 8.5 21.578125 
z
M 31.109375 56 
z
" id="DejaVuSans-117"/>
       <path d="M 54.890625 33.015625 
L 54.890625 0 
L 45.90625 0 
L 45.90625 32.71875 
Q 45.90625 40.484375 42.875 44.328125 
Q 39.84375 48.1875 33.796875 48.1875 
Q 26.515625 48.1875 22.3125 43.546875 
Q 18.109375 38.921875 18.109375 30.90625 
L 18.109375 0 
L 9.078125 0 
L 9.078125 54.6875 
L 18.109375 54.6875 
L 18.109375 46.1875 
Q 21.34375 51.125 25.703125 53.5625 
Q 30.078125 56 35.796875 56 
Q 45.21875 56 50.046875 50.171875 
Q 54.890625 44.34375 54.890625 33.015625 
z
" id="DejaVuSans-110"/>
       <path d="M 48.78125 52.59375 
L 48.78125 44.1875 
Q 44.96875 46.296875 41.140625 47.34375 
Q 37.3125 48.390625 33.40625 48.390625 
Q 24.65625 48.390625 19.8125 42.84375 
Q 14.984375 37.3125 14.984375 27.296875 
Q 14.984375 17.28125 19.8125 11.734375 
Q 24.65625 6.203125 33.40625 6.203125 
Q 37.3125 6.203125 41.140625 7.25 
Q 44.96875 8.296875 48.78125 10.40625 
L 48.78125 2.09375 
Q 45.015625 0.34375 40.984375 -0.53125 
Q 36.96875 -1.421875 32.421875 -1.421875 
Q 20.0625 -1.421875 12.78125 6.34375 
Q 5.515625 14.109375 5.515625 27.296875 
Q 5.515625 40.671875 12.859375 48.328125 
Q 20.21875 56 33.015625 56 
Q 37.15625 56 41.109375 55.140625 
Q 45.0625 54.296875 48.78125 52.59375 
z
" id="DejaVuSans-99"/>
       <path d="M 18.3125 70.21875 
L 18.3125 54.6875 
L 36.8125 54.6875 
L 36.8125 47.703125 
L 18.3125 47.703125 
L 18.3125 18.015625 
Q 18.3125 11.328125 20.140625 9.421875 
Q 21.96875 7.515625 27.59375 7.515625 
L 36.8125 7.515625 
L 36.8125 0 
L 27.59375 0 
Q 17.1875 0 13.234375 3.875 
Q 9.28125 7.765625 9.28125 18.015625 
L 9.28125 47.703125 
L 2.6875 47.703125 
L 2.6875 54.6875 
L 9.28125 54.6875 
L 9.28125 70.21875 
z
" id="DejaVuSans-116"/>
       <path d="M 9.421875 54.6875 
L 18.40625 54.6875 
L 18.40625 0 
L 9.421875 0 
z
M 9.421875 75.984375 
L 18.40625 75.984375 
L 18.40625 64.59375 
L 9.421875 64.59375 
z
" id="DejaVuSans-105"/>
       <path d="M 56.203125 29.59375 
L 56.203125 25.203125 
L 14.890625 25.203125 
Q 15.484375 15.921875 20.484375 11.0625 
Q 25.484375 6.203125 34.421875 6.203125 
Q 39.59375 6.203125 44.453125 7.46875 
Q 49.3125 8.734375 54.109375 11.28125 
L 54.109375 2.78125 
Q 49.265625 0.734375 44.1875 -0.34375 
Q 39.109375 -1.421875 33.890625 -1.421875 
Q 20.796875 -1.421875 13.15625 6.1875 
Q 5.515625 13.8125 5.515625 26.8125 
Q 5.515625 40.234375 12.765625 48.109375 
Q 20.015625 56 32.328125 56 
Q 43.359375 56 49.78125 48.890625 
Q 56.203125 41.796875 56.203125 29.59375 
z
M 47.21875 32.234375 
Q 47.125 39.59375 43.09375 43.984375 
Q 39.0625 48.390625 32.421875 48.390625 
Q 24.90625 48.390625 20.390625 44.140625 
Q 15.875 39.890625 15.1875 32.171875 
z
" id="DejaVuSans-101"/>
       <path d="M 2.984375 54.6875 
L 12.5 54.6875 
L 29.59375 8.796875 
L 46.6875 54.6875 
L 56.203125 54.6875 
L 35.6875 0 
L 23.484375 0 
z
" id="DejaVuSans-118"/>
       <path d="M 34.28125 27.484375 
Q 23.390625 27.484375 19.1875 25 
Q 14.984375 22.515625 14.984375 16.5 
Q 14.984375 11.71875 18.140625 8.90625 
Q 21.296875 6.109375 26.703125 6.109375 
Q 34.1875 6.109375 38.703125 11.40625 
Q 43.21875 16.703125 43.21875 25.484375 
L 43.21875 27.484375 
z
M 52.203125 31.203125 
L 52.203125 0 
L 43.21875 0 
L 43.21875 8.296875 
Q 40.140625 3.328125 35.546875 0.953125 
Q 30.953125 -1.421875 24.3125 -1.421875 
Q 15.921875 -1.421875 10.953125 3.296875 
Q 6 8.015625 6 15.921875 
Q 6 25.140625 12.171875 29.828125 
Q 18.359375 34.515625 30.609375 34.515625 
L 43.21875 34.515625 
L 43.21875 35.40625 
Q 43.21875 41.609375 39.140625 45 
Q 35.0625 48.390625 27.6875 48.390625 
Q 23 48.390625 18.546875 47.265625 
Q 14.109375 46.140625 10.015625 43.890625 
L 10.015625 52.203125 
Q 14.9375 54.109375 19.578125 55.046875 
Q 24.21875 56 28.609375 56 
Q 40.484375 56 46.34375 49.84375 
Q 52.203125 43.703125 52.203125 31.203125 
z
" id="DejaVuSans-97"/>
       <path d="M 9.421875 75.984375 
L 18.40625 75.984375 
L 18.40625 0 
L 9.421875 0 
z
" id="DejaVuSans-108"/>
       <path d="M 44.28125 53.078125 
L 44.28125 44.578125 
Q 40.484375 46.53125 36.375 47.5 
Q 32.28125 48.484375 27.875 48.484375 
Q 21.1875 48.484375 17.84375 46.4375 
Q 14.5 44.390625 14.5 40.28125 
Q 14.5 37.15625 16.890625 35.375 
Q 19.28125 33.59375 26.515625 31.984375 
L 29.59375 31.296875 
Q 39.15625 29.25 43.1875 25.515625 
Q 47.21875 21.78125 47.21875 15.09375 
Q 47.21875 7.46875 41.1875 3.015625 
Q 35.15625 -1.421875 24.609375 -1.421875 
Q 20.21875 -1.421875 15.453125 -0.5625 
Q 10.6875 0.296875 5.421875 2 
L 5.421875 11.28125 
Q 10.40625 8.6875 15.234375 7.390625 
Q 20.0625 6.109375 24.8125 6.109375 
Q 31.15625 6.109375 34.5625 8.28125 
Q 37.984375 10.453125 37.984375 14.40625 
Q 37.984375 18.0625 35.515625 20.015625 
Q 33.0625 21.96875 24.703125 23.78125 
L 21.578125 24.515625 
Q 13.234375 26.265625 9.515625 29.90625 
Q 5.8125 33.546875 5.8125 39.890625 
Q 5.8125 47.609375 11.28125 51.796875 
Q 16.75 56 26.8125 56 
Q 31.78125 56 36.171875 55.265625 
Q 40.578125 54.546875 44.28125 53.078125 
z
" id="DejaVuSans-115"/>
      </defs>
      <use xlink:href="#DejaVuSans-78"/>
      <use x="74.804688" xlink:href="#DejaVuSans-98"/>
      <use x="138.28125" xlink:href="#DejaVuSans-114"/>
      <use x="170.269531" xlink:href="#DejaVuSans-46"/>
      <use x="202.056641" xlink:href="#DejaVuSans-32"/>
      <use x="233.84375" xlink:href="#DejaVuSans-111"/>
      <use x="295.025391" xlink:href="#DejaVuSans-102"/>
      <use x="330.230469" xlink:href="#DejaVuSans-32"/>
      <use x="362.017578" xlink:href="#DejaVuSans-102"/>
      <use x="397.222656" xlink:href="#DejaVuSans-117"/>
      <use x="460.601562" xlink:href="#DejaVuSans-110"/>
      <use x="523.980469" xlink:href="#DejaVuSans-99"/>
      <use x="578.960938" xlink:href="#DejaVuSans-116"/>
      <use x="618.169922" xlink:href="#DejaVuSans-105"/>
      <use x="645.953125" xlink:href="#DejaVuSans-111"/>
      <use x="707.134766" xlink:href="#DejaVuSans-110"/>
      <use x="770.513672" xlink:href="#DejaVuSans-32"/>
      <use x="802.300781" xlink:href="#DejaVuSans-101"/>
      <use x="863.824219" xlink:href="#DejaVuSans-118"/>
      <use x="923.003906" xlink:href="#DejaVuSans-97"/>
      <use x="984.283203" xlink:href="#DejaVuSans-108"/>
      <use x="1012.066406" xlink:href="#DejaVuSans-117"/>
      <use x="1075.445312" xlink:href="#DejaVuSans-97"/>
      <use x="1136.724609" xlink:href="#DejaVuSans-116"/>
      <use x="1175.933594" xlink:href="#DejaVuSans-105"/>
      <use x="1203.716797" xlink:href="#DejaVuSans-111"/>
      <use x="1264.898438" xlink:href="#DejaVuSans-110"/>
      <use x="1328.277344" xlink:href="#DejaVuSans-115"/>
     </g>
    </g>
   </g>
   <g id="matplotlib.axis_2">
    <g id="ytick_1">
     <g id="line2d_6">
      <defs>
       <path d="M 0 0 
L -3.5 0 
" id="mc8c7093064" style="stroke:#000000;stroke-width:0.8;"/>
      </defs>
      <g>
       <use style="stroke:#000000;stroke-width:0.8;" x="54" xlink:href="#mc8c7093064" y="225.790208"/>
      </g>
     </g>
     <g id="text_7">
      <!-- $\mathdefault{10^{0}}$ -->
      <g transform="translate(29.4 229.589427)scale(0.1 -0.1)">
       <defs>
        <path d="M 12.40625 8.296875 
L 28.515625 8.296875 
L 28.515625 63.921875 
L 10.984375 60.40625 
L 10.984375 69.390625 
L 28.421875 72.90625 
L 38.28125 72.90625 
L 38.28125 8.296875 
L 54.390625 8.296875 
L 54.390625 0 
L 12.40625 0 
z
" id="DejaVuSans-49"/>
       </defs>
       <use transform="translate(0 0.765625)" xlink:href="#DejaVuSans-49"/>
       <use transform="translate(63.623047 0.765625)" xlink:href="#DejaVuSans-48"/>
       <use transform="translate(128.203125 39.046875)scale(0.7)" xlink:href="#DejaVuSans-48"/>
      </g>
     </g>
    </g>
    <g id="ytick_2">
     <g id="line2d_7">
      <g>
       <use style="stroke:#000000;stroke-width:0.8;" x="54" xlink:href="#mc8c7093064" y="143.361045"/>
      </g>
     </g>
     <g id="text_8">
      <!-- $\mathdefault{10^{1}}$ -->
      <g transform="translate(29.4 147.160264)scale(0.1 -0.1)">
       <use transform="translate(0 0.684375)" xlink:href="#DejaVuSans-49"/>
       <use transform="translate(63.623047 0.684375)" xlink:href="#DejaVuSans-48"/>
       <use transform="translate(128.203125 38.965625)scale(0.7)" xlink:href="#DejaVuSans-49"/>
      </g>
     </g>
    </g>
    <g id="ytick_3">
     <g id="line2d_8">
      <g>
       <use style="stroke:#000000;stroke-width:0.8;" x="54" xlink:href="#mc8c7093064" y="60.931881"/>
      </g>
     </g>
     <g id="text_9">
      <!-- $\mathdefault{10^{2}}$ -->
      <g transform="translate(29.4 64.7311)scale(0.1 -0.1)">
       <use transform="translate(0 0.765625)" xlink:href="#DejaVuSans-49"/>
       <use transform="translate(63.623047 0.765625)" xlink:href="#DejaVuSans-48"/>
       <use transform="translate(128.203125 39.046875)scale(0.7)" xlink:href="#DejaVuSans-50"/>
      </g>
     </g>
    </g>
    <g id="ytick_4">
     <g id="line2d_9">
      <defs>
       <path d="M 0 0 
L -2 0 
" id="m58f136446a" style="stroke:#000000;stroke-width:0.6;"/>
      </defs>
      <g>
       <use style="stroke:#000000;stroke-width:0.6;" x="54" xlink:href="#m58f136446a" y="250.603859"/>
      </g>
     </g>
    </g>
    <g id="ytick_5">
     <g id="line2d_10">
      <g>
       <use style="stroke:#000000;stroke-width:0.6;" x="54" xlink:href="#m58f136446a" y="244.077015"/>
      </g>
     </g>
    </g>
    <g id="ytick_6">
     <g id="line2d_11">
      <g>
       <use style="stroke:#000000;stroke-width:0.6;" x="54" xlink:href="#m58f136446a" y="238.558647"/>
      </g>
     </g>
    </g>
    <g id="ytick_7">
     <g id="line2d_12">
      <g>
       <use style="stroke:#000000;stroke-width:0.6;" x="54" xlink:href="#m58f136446a" y="233.778419"/>
      </g>
     </g>
    </g>
    <g id="ytick_8">
     <g id="line2d_13">
      <g>
       <use style="stroke:#000000;stroke-width:0.6;" x="54" xlink:href="#m58f136446a" y="229.56196"/>
      </g>
     </g>
    </g>
    <g id="ytick_9">
     <g id="line2d_14">
      <g>
       <use style="stroke:#000000;stroke-width:0.6;" x="54" xlink:href="#m58f136446a" y="200.976557"/>
      </g>
     </g>
    </g>
    <g id="ytick_10">
     <g id="line2d_15">
      <g>
       <use style="stroke:#000000;stroke-width:0.6;" x="54" xlink:href="#m58f136446a" y="186.461502"/>
      </g>
     </g>
    </g>
    <g id="ytick_11">
     <g id="line2d_16">
      <g>
       <use style="stroke:#000000;stroke-width:0.6;" x="54" xlink:href="#m58f136446a" y="176.162907"/>
      </g>
     </g>
    </g>
    <g id="ytick_12">
     <g id="line2d_17">
      <g>
       <use style="stroke:#000000;stroke-width:0.6;" x="54" xlink:href="#m58f136446a" y="168.174695"/>
      </g>
     </g>
    </g>
    <g id="ytick_13">
     <g id="line2d_18">
      <g>
       <use style="stroke:#000000;stroke-width:0.6;" x="54" xlink:href="#m58f136446a" y="161.647852"/>
      </g>
     </g>
    </g>
    <g id="ytick_14">
     <g id="line2d_19">
      <g>
       <use style="stroke:#000000;stroke-width:0.6;" x="54" xlink:href="#m58f136446a" y="156.129484"/>
      </g>
     </g>
    </g>
    <g id="ytick_15">
     <g id="line2d_20">
      <g>
       <use style="stroke:#000000;stroke-width:0.6;" x="54" xlink:href="#m58f136446a" y="151.349256"/>
      </g>
     </g>
    </g>
    <g id="ytick_16">
     <g id="line2d_21">
      <g>
       <use style="stroke:#000000;stroke-width:0.6;" x="54" xlink:href="#m58f136446a" y="147.132796"/>
      </g>
     </g>
    </g>
    <g id="ytick_17">
     <g id="line2d_22">
      <g>
       <use style="stroke:#000000;stroke-width:0.6;" x="54" xlink:href="#m58f136446a" y="118.547394"/>
      </g>
     </g>
    </g>
    <g id="ytick_18">
     <g id="line2d_23">
      <g>
       <use style="stroke:#000000;stroke-width:0.6;" x="54" xlink:href="#m58f136446a" y="104.032339"/>
      </g>
     </g>
    </g>
    <g id="ytick_19">
     <g id="line2d_24">
      <g>
       <use style="stroke:#000000;stroke-width:0.6;" x="54" xlink:href="#m58f136446a" y="93.733743"/>
      </g>
     </g>
    </g>
    <g id="ytick_20">
     <g id="line2d_25">
      <g>
       <use style="stroke:#000000;stroke-width:0.6;" x="54" xlink:href="#m58f136446a" y="85.745532"/>
      </g>
     </g>
    </g>
    <g id="ytick_21">
     <g id="line2d_26">
      <g>
       <use style="stroke:#000000;stroke-width:0.6;" x="54" xlink:href="#m58f136446a" y="79.218688"/>
      </g>
     </g>
    </g>
    <g id="ytick_22">
     <g id="line2d_27">
      <g>
       <use style="stroke:#000000;stroke-width:0.6;" x="54" xlink:href="#m58f136446a" y="73.70032"/>
      </g>
     </g>
    </g>
    <g id="ytick_23">
     <g id="line2d_28">
      <g>
       <use style="stroke:#000000;stroke-width:0.6;" x="54" xlink:href="#m58f136446a" y="68.920093"/>
      </g>
     </g>
    </g>
    <g id="ytick_24">
     <g id="line2d_29">
      <g>
       <use style="stroke:#000000;stroke-width:0.6;" x="54" xlink:href="#m58f136446a" y="64.703633"/>
      </g>
     </g>
    </g>
    <g id="ytick_25">
     <g id="line2d_30">
      <g>
       <use style="stroke:#000000;stroke-width:0.6;" x="54" xlink:href="#m58f136446a" y="36.118231"/>
      </g>
     </g>
    </g>
    <g id="text_10">
     <!-- Best function evaluation -->
     <g transform="translate(23.320312 204.253438)rotate(-90)scale(0.1 -0.1)">
      <defs>
       <path d="M 19.671875 34.8125 
L 19.671875 8.109375 
L 35.5 8.109375 
Q 43.453125 8.109375 47.28125 11.40625 
Q 51.125 14.703125 51.125 21.484375 
Q 51.125 28.328125 47.28125 31.5625 
Q 43.453125 34.8125 35.5 34.8125 
z
M 19.671875 64.796875 
L 19.671875 42.828125 
L 34.28125 42.828125 
Q 41.5 42.828125 45.03125 45.53125 
Q 48.578125 48.25 48.578125 53.8125 
Q 48.578125 59.328125 45.03125 62.0625 
Q 41.5 64.796875 34.28125 64.796875 
z
M 9.8125 72.90625 
L 35.015625 72.90625 
Q 46.296875 72.90625 52.390625 68.21875 
Q 58.5 63.53125 58.5 54.890625 
Q 58.5 48.1875 55.375 44.234375 
Q 52.25 40.28125 46.1875 39.3125 
Q 53.46875 37.75 57.5 32.78125 
Q 61.53125 27.828125 61.53125 20.40625 
Q 61.53125 10.640625 54.890625 5.3125 
Q 48.25 0 35.984375 0 
L 9.8125 0 
z
" id="DejaVuSans-66"/>
      </defs>
      <use xlink:href="#DejaVuSans-66"/>
      <use x="68.603516" xlink:href="#DejaVuSans-101"/>
      <use x="130.126953" xlink:href="#DejaVuSans-115"/>
      <use x="182.226562" xlink:href="#DejaVuSans-116"/>
      <use x="221.435547" xlink:href="#DejaVuSans-32"/>
      <use x="253.222656" xlink:href="#DejaVuSans-102"/>
      <use x="288.427734" xlink:href="#DejaVuSans-117"/>
      <use x="351.806641" xlink:href="#DejaVuSans-110"/>
      <use x="415.185547" xlink:href="#DejaVuSans-99"/>
      <use x="470.166016" xlink:href="#DejaVuSans-116"/>
      <use x="509.375" xlink:href="#DejaVuSans-105"/>
      <use x="537.158203" xlink:href="#DejaVuSans-111"/>
      <use x="598.339844" xlink:href="#DejaVuSans-110"/>
      <use x="661.71875" xlink:href="#DejaVuSans-32"/>
      <use x="693.505859" xlink:href="#DejaVuSans-101"/>
      <use x="755.029297" xlink:href="#DejaVuSans-118"/>
      <use x="814.208984" xlink:href="#DejaVuSans-97"/>
      <use x="875.488281" xlink:href="#DejaVuSans-108"/>
      <use x="903.271484" xlink:href="#DejaVuSans-117"/>
      <use x="966.650391" xlink:href="#DejaVuSans-97"/>
      <use x="1027.929688" xlink:href="#DejaVuSans-116"/>
      <use x="1067.138672" xlink:href="#DejaVuSans-105"/>
      <use x="1094.921875" xlink:href="#DejaVuSans-111"/>
      <use x="1156.103516" xlink:href="#DejaVuSans-110"/>
     </g>
    </g>
   </g>
   <g id="line2d_31">
    <path clip-path="url(#p8e51827426)" d="M 57.381818 44.443636 
L 111.490909 44.443636 
L 111.490909 159.739748 
L 118.254545 159.739748 
L 118.254545 165.365901 
L 125.018182 165.365901 
L 125.018182 167.01244 
L 131.781818 167.01244 
L 131.781818 168.810608 
L 138.545455 168.810608 
L 138.545455 172.443346 
L 141.927273 172.443346 
L 141.927273 174.527291 
L 148.690909 174.527291 
L 148.690909 176.860862 
L 155.454545 176.860862 
L 155.454545 180.991183 
L 162.218182 180.991183 
L 162.218182 185.356271 
L 172.363636 185.356271 
L 172.363636 190.374845 
L 182.509091 190.374845 
L 182.509091 191.864906 
L 189.272727 191.864906 
L 189.272727 199.654185 
L 196.036364 199.654185 
L 196.036364 210.236565 
L 202.8 210.236565 
L 202.8 217.481529 
L 223.090909 217.481529 
L 223.090909 219.493089 
L 226.472727 219.493089 
L 226.472727 220.844285 
L 240 220.844285 
L 240 222.561266 
L 243.381818 222.561266 
L 243.381818 223.10985 
L 246.763636 223.10985 
L 246.763636 223.878029 
L 250.145455 223.878029 
L 250.145455 224.404082 
L 260.290909 224.404082 
L 260.290909 224.788789 
L 270.436364 224.788789 
L 270.436364 225.226048 
L 277.2 225.226048 
L 277.2 225.353354 
L 283.963636 225.353354 
L 283.963636 225.7075 
L 334.690909 225.816397 
L 334.690909 225.826722 
L 392.181818 225.829996 
L 392.181818 225.83001 
" style="fill:none;stroke:#0000ff;stroke-linecap:square;stroke-width:1.5;"/>
   </g>
   <g id="line2d_32">
    <path clip-path="url(#p8e51827426)" d="M 57.381818 44.443636 
L 81.054545 44.443636 
L 81.054545 53.172147 
L 87.818182 53.172147 
L 87.818182 66.27034 
L 97.963636 66.33331 
L 97.963636 87.636193 
L 101.345455 87.636193 
L 101.345455 88.363055 
L 111.490909 88.4736 
L 111.490909 131.953795 
L 118.254545 131.953795 
L 118.254545 132.204355 
L 121.636364 132.204355 
L 121.636364 162.556157 
L 125.018182 162.556157 
L 125.018182 166.099102 
L 131.781818 166.099102 
L 131.781818 171.28185 
L 135.163636 171.28185 
L 135.163636 172.571156 
L 138.545455 172.571156 
L 138.545455 173.566873 
L 145.309091 173.566873 
L 145.309091 175.073093 
L 148.690909 175.073093 
L 148.690909 176.104119 
L 152.072727 176.104119 
L 152.072727 176.401536 
L 158.836364 176.401536 
L 158.836364 179.583443 
L 165.6 179.583443 
L 165.6 179.944445 
L 168.981818 179.944445 
L 168.981818 181.329632 
L 172.363636 181.329632 
L 172.363636 182.255803 
L 179.127273 182.255803 
L 179.127273 183.845932 
L 189.272727 183.845932 
L 189.272727 186.912861 
L 192.654545 186.912861 
L 192.654545 187.404838 
L 196.036364 187.404838 
L 196.036364 188.164108 
L 199.418182 188.164108 
L 199.418182 189.903631 
L 206.181818 189.928483 
L 206.181818 192.648826 
L 212.945455 192.648826 
L 212.945455 197.640283 
L 216.327273 197.640283 
L 216.327273 198.864753 
L 219.709091 198.864753 
L 219.709091 201.255088 
L 226.472727 201.255088 
L 226.472727 202.00507 
L 236.618182 202.00507 
L 236.618182 202.154042 
L 240 202.154042 
L 240 205.834359 
L 243.381818 205.834359 
L 243.381818 208.441172 
L 246.763636 208.441172 
L 246.763636 210.073769 
L 256.909091 210.073769 
L 256.909091 213.71424 
L 263.672727 213.71424 
L 263.672727 214.341576 
L 277.2 214.341576 
L 277.2 217.608575 
L 283.963636 217.608575 
L 283.963636 220.912086 
L 294.109091 220.912086 
L 294.109091 223.946502 
L 300.872727 223.946502 
L 300.872727 224.789365 
L 307.636364 224.814703 
L 307.636364 225.00408 
L 324.545455 225.00408 
L 324.545455 225.221668 
L 375.272727 225.223643 
L 375.272727 225.410795 
L 392.181818 225.410795 
L 392.181818 225.410795 
" style="fill:none;stroke:#00bfbf;stroke-linecap:square;stroke-width:1.5;"/>
   </g>
   <g id="line2d_33">
    <path clip-path="url(#p8e51827426)" d="M 60.763636 44.443636 
L 84.436364 44.443636 
L 84.436364 59.018459 
L 87.818182 59.018459 
L 87.818182 88.093108 
L 91.2 88.093108 
L 91.2 90.468371 
L 94.581818 90.468371 
L 94.581818 111.233932 
L 101.345455 111.233932 
L 101.345455 161.143067 
L 104.727273 161.143067 
L 104.727273 170.109206 
L 131.781818 170.186913 
L 131.781818 182.199392 
L 135.163636 182.199392 
L 135.163636 187.175751 
L 138.545455 187.175751 
L 138.545455 194.845396 
L 165.6 194.845396 
L 165.6 199.738245 
L 168.981818 199.738245 
L 168.981818 200.076735 
L 172.363636 200.076735 
L 172.363636 201.937806 
L 182.509091 201.937806 
L 182.509091 204.210758 
L 199.418182 204.210758 
L 199.418182 205.583329 
L 236.618182 205.583329 
L 236.618182 207.410662 
L 267.054545 207.410662 
L 267.054545 211.145667 
L 300.872727 211.145667 
L 300.872727 211.382415 
L 321.163636 211.382415 
L 321.163636 211.688101 
L 334.690909 211.688101 
L 334.690909 212.251404 
L 368.509091 212.251404 
L 368.509091 214.487543 
L 392.181818 214.487543 
L 392.181818 214.487543 
" style="fill:none;stroke:#ffa500;stroke-linecap:square;stroke-width:1.5;"/>
   </g>
   <g id="line2d_34">
    <path clip-path="url(#p8e51827426)" d="M 57.381818 44.443636 
L 64.145455 44.443636 
L 64.145455 53.448391 
L 67.527273 53.448391 
L 67.527273 54.757857 
L 70.909091 54.757857 
L 70.909091 63.72279 
L 74.290909 63.72279 
L 74.290909 81.992998 
L 77.672727 81.992998 
L 77.672727 111.488452 
L 81.054545 111.488452 
L 81.054545 119.756597 
L 84.436364 119.756597 
L 84.436364 185.700028 
L 87.818182 185.700028 
L 87.818182 194.880446 
L 94.581818 194.880446 
L 94.581818 196.034933 
L 97.963636 196.034933 
L 97.963636 197.361974 
L 101.345455 197.361974 
L 101.345455 200.922278 
L 108.109091 200.922278 
L 108.109091 201.59916 
L 114.872727 201.669323 
L 114.872727 203.108055 
L 118.254545 203.108055 
L 118.254545 205.774229 
L 121.636364 205.774229 
L 121.636364 206.04241 
L 125.018182 206.04241 
L 125.018182 215.166576 
L 135.163636 215.166576 
L 135.163636 216.555934 
L 148.690909 216.555934 
L 148.690909 216.736979 
L 152.072727 216.736979 
L 152.072727 217.196016 
L 155.454545 217.196016 
L 155.454545 217.650307 
L 158.836364 217.650307 
L 158.836364 219.274357 
L 162.218182 219.274357 
L 162.218182 220.385893 
L 165.6 220.385893 
L 165.6 222.730465 
L 172.363636 222.730465 
L 172.363636 223.694867 
L 175.745455 223.694867 
L 175.745455 224.537748 
L 182.509091 224.537748 
L 182.509091 224.665142 
L 196.036364 224.717308 
L 196.036364 224.83361 
L 202.8 224.920322 
L 202.8 225.07135 
L 206.181818 225.07135 
L 206.181818 225.238184 
L 216.327273 225.293133 
L 216.327273 225.40295 
L 226.472727 225.445138 
L 226.472727 225.608015 
L 240 225.666288 
L 240 225.760598 
L 388.8 225.827156 
L 388.8 225.827156 
" style="fill:none;stroke:#008000;stroke-linecap:square;stroke-width:1.5;"/>
   </g>
   <g id="line2d_35">
    <path clip-path="url(#p8e51827426)" d="M 57.381818 143.463371 
L 60.763636 143.463371 
L 60.763636 148.806509 
L 64.145455 148.806509 
L 64.145455 182.283033 
L 67.527273 182.283033 
L 67.527273 148.511523 
L 70.909091 148.511523 
L 70.909091 202.474143 
L 87.818182 202.474143 
L 87.818182 220.024248 
L 91.2 220.024248 
L 91.2 223.955932 
L 392.181818 224.035628 
L 392.181818 224.035628 
" style="fill:none;stroke:#ff0000;stroke-linecap:square;stroke-width:1.5;"/>
   </g>
   <g id="patch_3">
    <path d="M 54 252 
L 54 34.56 
" style="fill:none;stroke:#000000;stroke-linecap:square;stroke-linejoin:miter;stroke-width:0.8;"/>
   </g>
   <g id="patch_4">
    <path d="M 388.8 252 
L 388.8 34.56 
" style="fill:none;stroke:#000000;stroke-linecap:square;stroke-linejoin:miter;stroke-width:0.8;"/>
   </g>
   <g id="patch_5">
    <path d="M 54 252 
L 388.8 252 
" style="fill:none;stroke:#000000;stroke-linecap:square;stroke-linejoin:miter;stroke-width:0.8;"/>
   </g>
   <g id="patch_6">
    <path d="M 54 34.56 
L 388.8 34.56 
" style="fill:none;stroke:#000000;stroke-linecap:square;stroke-linejoin:miter;stroke-width:0.8;"/>
   </g>
   <g id="legend_1">
    <g id="patch_7">
     <path d="M 273.004687 116.506875 
L 381.8 116.506875 
Q 383.8 116.506875 383.8 114.506875 
L 383.8 41.56 
Q 383.8 39.56 381.8 39.56 
L 273.004687 39.56 
Q 271.004687 39.56 271.004687 41.56 
L 271.004687 114.506875 
Q 271.004687 116.506875 273.004687 116.506875 
z
" style="fill:#ffffff;opacity:0.8;stroke:#cccccc;stroke-linejoin:miter;"/>
    </g>
    <g id="line2d_36">
     <path d="M 275.004687 47.658437 
L 295.004687 47.658437 
" style="fill:none;stroke:#0000ff;stroke-linecap:square;stroke-width:1.5;"/>
    </g>
    <g id="line2d_37"/>
    <g id="text_11">
     <!-- CUATRO_global -->
     <g transform="translate(303.004687 51.158437)scale(0.1 -0.1)">
      <defs>
       <path d="M 64.40625 67.28125 
L 64.40625 56.890625 
Q 59.421875 61.53125 53.78125 63.8125 
Q 48.140625 66.109375 41.796875 66.109375 
Q 29.296875 66.109375 22.65625 58.46875 
Q 16.015625 50.828125 16.015625 36.375 
Q 16.015625 21.96875 22.65625 14.328125 
Q 29.296875 6.6875 41.796875 6.6875 
Q 48.140625 6.6875 53.78125 8.984375 
Q 59.421875 11.28125 64.40625 15.921875 
L 64.40625 5.609375 
Q 59.234375 2.09375 53.4375 0.328125 
Q 47.65625 -1.421875 41.21875 -1.421875 
Q 24.65625 -1.421875 15.125 8.703125 
Q 5.609375 18.84375 5.609375 36.375 
Q 5.609375 53.953125 15.125 64.078125 
Q 24.65625 74.21875 41.21875 74.21875 
Q 47.75 74.21875 53.53125 72.484375 
Q 59.328125 70.75 64.40625 67.28125 
z
" id="DejaVuSans-67"/>
       <path d="M 8.6875 72.90625 
L 18.609375 72.90625 
L 18.609375 28.609375 
Q 18.609375 16.890625 22.84375 11.734375 
Q 27.09375 6.59375 36.625 6.59375 
Q 46.09375 6.59375 50.34375 11.734375 
Q 54.59375 16.890625 54.59375 28.609375 
L 54.59375 72.90625 
L 64.5 72.90625 
L 64.5 27.390625 
Q 64.5 13.140625 57.4375 5.859375 
Q 50.390625 -1.421875 36.625 -1.421875 
Q 22.796875 -1.421875 15.734375 5.859375 
Q 8.6875 13.140625 8.6875 27.390625 
z
" id="DejaVuSans-85"/>
       <path d="M 34.1875 63.1875 
L 20.796875 26.90625 
L 47.609375 26.90625 
z
M 28.609375 72.90625 
L 39.796875 72.90625 
L 67.578125 0 
L 57.328125 0 
L 50.6875 18.703125 
L 17.828125 18.703125 
L 11.1875 0 
L 0.78125 0 
z
" id="DejaVuSans-65"/>
       <path d="M -0.296875 72.90625 
L 61.375 72.90625 
L 61.375 64.59375 
L 35.5 64.59375 
L 35.5 0 
L 25.59375 0 
L 25.59375 64.59375 
L -0.296875 64.59375 
z
" id="DejaVuSans-84"/>
       <path d="M 44.390625 34.1875 
Q 47.5625 33.109375 50.5625 29.59375 
Q 53.5625 26.078125 56.59375 19.921875 
L 66.609375 0 
L 56 0 
L 46.6875 18.703125 
Q 43.0625 26.03125 39.671875 28.421875 
Q 36.28125 30.8125 30.421875 30.8125 
L 19.671875 30.8125 
L 19.671875 0 
L 9.8125 0 
L 9.8125 72.90625 
L 32.078125 72.90625 
Q 44.578125 72.90625 50.734375 67.671875 
Q 56.890625 62.453125 56.890625 51.90625 
Q 56.890625 45.015625 53.6875 40.46875 
Q 50.484375 35.9375 44.390625 34.1875 
z
M 19.671875 64.796875 
L 19.671875 38.921875 
L 32.078125 38.921875 
Q 39.203125 38.921875 42.84375 42.21875 
Q 46.484375 45.515625 46.484375 51.90625 
Q 46.484375 58.296875 42.84375 61.546875 
Q 39.203125 64.796875 32.078125 64.796875 
z
" id="DejaVuSans-82"/>
       <path d="M 39.40625 66.21875 
Q 28.65625 66.21875 22.328125 58.203125 
Q 16.015625 50.203125 16.015625 36.375 
Q 16.015625 22.609375 22.328125 14.59375 
Q 28.65625 6.59375 39.40625 6.59375 
Q 50.140625 6.59375 56.421875 14.59375 
Q 62.703125 22.609375 62.703125 36.375 
Q 62.703125 50.203125 56.421875 58.203125 
Q 50.140625 66.21875 39.40625 66.21875 
z
M 39.40625 74.21875 
Q 54.734375 74.21875 63.90625 63.9375 
Q 73.09375 53.65625 73.09375 36.375 
Q 73.09375 19.140625 63.90625 8.859375 
Q 54.734375 -1.421875 39.40625 -1.421875 
Q 24.03125 -1.421875 14.8125 8.828125 
Q 5.609375 19.09375 5.609375 36.375 
Q 5.609375 53.65625 14.8125 63.9375 
Q 24.03125 74.21875 39.40625 74.21875 
z
" id="DejaVuSans-79"/>
       <path d="M 50.984375 -16.609375 
L 50.984375 -23.578125 
L -0.984375 -23.578125 
L -0.984375 -16.609375 
z
" id="DejaVuSans-95"/>
       <path d="M 45.40625 27.984375 
Q 45.40625 37.75 41.375 43.109375 
Q 37.359375 48.484375 30.078125 48.484375 
Q 22.859375 48.484375 18.828125 43.109375 
Q 14.796875 37.75 14.796875 27.984375 
Q 14.796875 18.265625 18.828125 12.890625 
Q 22.859375 7.515625 30.078125 7.515625 
Q 37.359375 7.515625 41.375 12.890625 
Q 45.40625 18.265625 45.40625 27.984375 
z
M 54.390625 6.78125 
Q 54.390625 -7.171875 48.1875 -13.984375 
Q 42 -20.796875 29.203125 -20.796875 
Q 24.46875 -20.796875 20.265625 -20.09375 
Q 16.0625 -19.390625 12.109375 -17.921875 
L 12.109375 -9.1875 
Q 16.0625 -11.328125 19.921875 -12.34375 
Q 23.78125 -13.375 27.78125 -13.375 
Q 36.625 -13.375 41.015625 -8.765625 
Q 45.40625 -4.15625 45.40625 5.171875 
L 45.40625 9.625 
Q 42.625 4.78125 38.28125 2.390625 
Q 33.9375 0 27.875 0 
Q 17.828125 0 11.671875 7.65625 
Q 5.515625 15.328125 5.515625 27.984375 
Q 5.515625 40.671875 11.671875 48.328125 
Q 17.828125 56 27.875 56 
Q 33.9375 56 38.28125 53.609375 
Q 42.625 51.21875 45.40625 46.390625 
L 45.40625 54.6875 
L 54.390625 54.6875 
z
" id="DejaVuSans-103"/>
      </defs>
      <use xlink:href="#DejaVuSans-67"/>
      <use x="69.824219" xlink:href="#DejaVuSans-85"/>
      <use x="143.017578" xlink:href="#DejaVuSans-65"/>
      <use x="203.675781" xlink:href="#DejaVuSans-84"/>
      <use x="264.759766" xlink:href="#DejaVuSans-82"/>
      <use x="334.242188" xlink:href="#DejaVuSans-79"/>
      <use x="412.953125" xlink:href="#DejaVuSans-95"/>
      <use x="462.953125" xlink:href="#DejaVuSans-103"/>
      <use x="526.429688" xlink:href="#DejaVuSans-108"/>
      <use x="554.212891" xlink:href="#DejaVuSans-111"/>
      <use x="615.394531" xlink:href="#DejaVuSans-98"/>
      <use x="678.871094" xlink:href="#DejaVuSans-97"/>
      <use x="740.150391" xlink:href="#DejaVuSans-108"/>
     </g>
    </g>
    <g id="line2d_38">
     <path d="M 275.004687 62.614688 
L 295.004687 62.614688 
" style="fill:none;stroke:#00bfbf;stroke-linecap:square;stroke-width:1.5;"/>
    </g>
    <g id="line2d_39"/>
    <g id="text_12">
     <!-- CUATRO_local -->
     <g transform="translate(303.004687 66.114688)scale(0.1 -0.1)">
      <use xlink:href="#DejaVuSans-67"/>
      <use x="69.824219" xlink:href="#DejaVuSans-85"/>
      <use x="143.017578" xlink:href="#DejaVuSans-65"/>
      <use x="203.675781" xlink:href="#DejaVuSans-84"/>
      <use x="264.759766" xlink:href="#DejaVuSans-82"/>
      <use x="334.242188" xlink:href="#DejaVuSans-79"/>
      <use x="412.953125" xlink:href="#DejaVuSans-95"/>
      <use x="462.953125" xlink:href="#DejaVuSans-108"/>
      <use x="490.736328" xlink:href="#DejaVuSans-111"/>
      <use x="551.917969" xlink:href="#DejaVuSans-99"/>
      <use x="606.898438" xlink:href="#DejaVuSans-97"/>
      <use x="668.177734" xlink:href="#DejaVuSans-108"/>
     </g>
    </g>
    <g id="line2d_40">
     <path d="M 275.004687 77.570937 
L 295.004687 77.570937 
" style="fill:none;stroke:#ffa500;stroke-linecap:square;stroke-width:1.5;"/>
    </g>
    <g id="line2d_41"/>
    <g id="text_13">
     <!-- Snobfit -->
     <g transform="translate(303.004687 81.070937)scale(0.1 -0.1)">
      <defs>
       <path d="M 53.515625 70.515625 
L 53.515625 60.890625 
Q 47.90625 63.578125 42.921875 64.890625 
Q 37.9375 66.21875 33.296875 66.21875 
Q 25.25 66.21875 20.875 63.09375 
Q 16.5 59.96875 16.5 54.203125 
Q 16.5 49.359375 19.40625 46.890625 
Q 22.3125 44.4375 30.421875 42.921875 
L 36.375 41.703125 
Q 47.40625 39.59375 52.65625 34.296875 
Q 57.90625 29 57.90625 20.125 
Q 57.90625 9.515625 50.796875 4.046875 
Q 43.703125 -1.421875 29.984375 -1.421875 
Q 24.8125 -1.421875 18.96875 -0.25 
Q 13.140625 0.921875 6.890625 3.21875 
L 6.890625 13.375 
Q 12.890625 10.015625 18.65625 8.296875 
Q 24.421875 6.59375 29.984375 6.59375 
Q 38.421875 6.59375 43.015625 9.90625 
Q 47.609375 13.234375 47.609375 19.390625 
Q 47.609375 24.75 44.3125 27.78125 
Q 41.015625 30.8125 33.5 32.328125 
L 27.484375 33.5 
Q 16.453125 35.6875 11.515625 40.375 
Q 6.59375 45.0625 6.59375 53.421875 
Q 6.59375 63.09375 13.40625 68.65625 
Q 20.21875 74.21875 32.171875 74.21875 
Q 37.3125 74.21875 42.625 73.28125 
Q 47.953125 72.359375 53.515625 70.515625 
z
" id="DejaVuSans-83"/>
      </defs>
      <use xlink:href="#DejaVuSans-83"/>
      <use x="63.476562" xlink:href="#DejaVuSans-110"/>
      <use x="126.855469" xlink:href="#DejaVuSans-111"/>
      <use x="188.037109" xlink:href="#DejaVuSans-98"/>
      <use x="251.513672" xlink:href="#DejaVuSans-102"/>
      <use x="286.71875" xlink:href="#DejaVuSans-105"/>
      <use x="314.501953" xlink:href="#DejaVuSans-116"/>
     </g>
    </g>
    <g id="line2d_42">
     <path d="M 275.004687 92.249062 
L 295.004687 92.249062 
" style="fill:none;stroke:#008000;stroke-linecap:square;stroke-width:1.5;"/>
    </g>
    <g id="line2d_43"/>
    <g id="text_14">
     <!-- PyBobyqa -->
     <g transform="translate(303.004687 95.749062)scale(0.1 -0.1)">
      <defs>
       <path d="M 19.671875 64.796875 
L 19.671875 37.40625 
L 32.078125 37.40625 
Q 38.96875 37.40625 42.71875 40.96875 
Q 46.484375 44.53125 46.484375 51.125 
Q 46.484375 57.671875 42.71875 61.234375 
Q 38.96875 64.796875 32.078125 64.796875 
z
M 9.8125 72.90625 
L 32.078125 72.90625 
Q 44.34375 72.90625 50.609375 67.359375 
Q 56.890625 61.8125 56.890625 51.125 
Q 56.890625 40.328125 50.609375 34.8125 
Q 44.34375 29.296875 32.078125 29.296875 
L 19.671875 29.296875 
L 19.671875 0 
L 9.8125 0 
z
" id="DejaVuSans-80"/>
       <path d="M 32.171875 -5.078125 
Q 28.375 -14.84375 24.75 -17.8125 
Q 21.140625 -20.796875 15.09375 -20.796875 
L 7.90625 -20.796875 
L 7.90625 -13.28125 
L 13.1875 -13.28125 
Q 16.890625 -13.28125 18.9375 -11.515625 
Q 21 -9.765625 23.484375 -3.21875 
L 25.09375 0.875 
L 2.984375 54.6875 
L 12.5 54.6875 
L 29.59375 11.921875 
L 46.6875 54.6875 
L 56.203125 54.6875 
z
" id="DejaVuSans-121"/>
       <path d="M 14.796875 27.296875 
Q 14.796875 17.390625 18.875 11.75 
Q 22.953125 6.109375 30.078125 6.109375 
Q 37.203125 6.109375 41.296875 11.75 
Q 45.40625 17.390625 45.40625 27.296875 
Q 45.40625 37.203125 41.296875 42.84375 
Q 37.203125 48.484375 30.078125 48.484375 
Q 22.953125 48.484375 18.875 42.84375 
Q 14.796875 37.203125 14.796875 27.296875 
z
M 45.40625 8.203125 
Q 42.578125 3.328125 38.25 0.953125 
Q 33.9375 -1.421875 27.875 -1.421875 
Q 17.96875 -1.421875 11.734375 6.484375 
Q 5.515625 14.40625 5.515625 27.296875 
Q 5.515625 40.1875 11.734375 48.09375 
Q 17.96875 56 27.875 56 
Q 33.9375 56 38.25 53.625 
Q 42.578125 51.265625 45.40625 46.390625 
L 45.40625 54.6875 
L 54.390625 54.6875 
L 54.390625 -20.796875 
L 45.40625 -20.796875 
z
" id="DejaVuSans-113"/>
      </defs>
      <use xlink:href="#DejaVuSans-80"/>
      <use x="60.302734" xlink:href="#DejaVuSans-121"/>
      <use x="119.482422" xlink:href="#DejaVuSans-66"/>
      <use x="188.085938" xlink:href="#DejaVuSans-111"/>
      <use x="249.267578" xlink:href="#DejaVuSans-98"/>
      <use x="312.744141" xlink:href="#DejaVuSans-121"/>
      <use x="371.923828" xlink:href="#DejaVuSans-113"/>
      <use x="435.400391" xlink:href="#DejaVuSans-97"/>
     </g>
    </g>
    <g id="line2d_44">
     <path d="M 275.004687 106.927188 
L 295.004687 106.927188 
" style="fill:none;stroke:#ff0000;stroke-linecap:square;stroke-width:1.5;"/>
    </g>
    <g id="line2d_45"/>
    <g id="text_15">
     <!-- BO -->
     <g transform="translate(303.004687 110.427188)scale(0.1 -0.1)">
      <use xlink:href="#DejaVuSans-66"/>
      <use x="66.853516" xlink:href="#DejaVuSans-79"/>
     </g>
    </g>
   </g>
  </g>
 </g>
 <defs>
  <clipPath id="p8e51827426">
   <rect height="217.44" width="334.8" x="54" y="34.56"/>
  </clipPath>
 </defs>
</svg>
