<?xml version="1.0" encoding="utf-8" standalone="no"?>
<!DOCTYPE svg PUBLIC "-//W3C//DTD SVG 1.1//EN"
  "http://www.w3.org/Graphics/SVG/1.1/DTD/svg11.dtd">
<!-- Created with matplotlib (https://matplotlib.org/) -->
<svg height="288pt" version="1.1" viewBox="0 0 432 288" width="432pt" xmlns="http://www.w3.org/2000/svg" xmlns:xlink="http://www.w3.org/1999/xlink">
 <metadata>
  <rdf:RDF xmlns:cc="http://creativecommons.org/ns#" xmlns:dc="http://purl.org/dc/elements/1.1/" xmlns:rdf="http://www.w3.org/1999/02/22-rdf-syntax-ns#">
   <cc:Work>
    <dc:type rdf:resource="http://purl.org/dc/dcmitype/StillImage"/>
    <dc:date>2021-03-31T00:36:34.438774</dc:date>
    <dc:format>image/svg+xml</dc:format>
    <dc:creator>
     <cc:Agent>
      <dc:title>Matplotlib v3.3.4, https://matplotlib.org/</dc:title>
     </cc:Agent>
    </dc:creator>
   </cc:Work>
  </rdf:RDF>
 </metadata>
 <defs>
  <style type="text/css">*{stroke-linecap:butt;stroke-linejoin:round;}</style>
 </defs>
 <g id="figure_1">
  <g id="patch_1">
   <path d="M 0 288 
L 432 288 
L 432 0 
L 0 0 
z
" style="fill:#ffffff;"/>
  </g>
  <g id="axes_1">
   <g id="patch_2">
    <path d="M 54 252 
L 388.8 252 
L 388.8 34.56 
L 54 34.56 
z
" style="fill:#ffffff;"/>
   </g>
   <g id="patch_3">
    <path clip-path="url(#p7d2fe588bb)" d="M 59.6916 212.076879 
L 70.6284 212.076879 
L 70.6284 212.076879 
L 59.6916 212.076879 
L 59.6916 212.076879 
z
" style="fill:#597dbf;stroke:#545454;stroke-linejoin:miter;stroke-width:1.5;"/>
   </g>
   <g id="patch_4">
    <path clip-path="url(#p7d2fe588bb)" d="M 70.8516 161.222574 
L 81.7884 161.222574 
L 81.7884 139.406947 
L 70.8516 139.406947 
L 70.8516 161.222574 
z
" style="fill:#d98b5f;stroke:#545454;stroke-linejoin:miter;stroke-width:1.5;"/>
   </g>
   <g id="patch_5">
    <path clip-path="url(#p7d2fe588bb)" d="M 82.0116 174.875537 
L 92.9484 174.875537 
L 92.9484 174.762025 
L 82.0116 174.762025 
L 82.0116 174.875537 
z
" style="fill:#75bf71;stroke:#545454;stroke-linejoin:miter;stroke-width:1.5;"/>
   </g>
   <g id="patch_6">
    <path clip-path="url(#p7d2fe588bb)" d="M 93.1716 212.089357 
L 104.1084 212.089357 
L 104.1084 212.088629 
L 93.1716 212.088629 
L 93.1716 212.089357 
z
" style="fill:#c76e6e;stroke:#545454;stroke-linejoin:miter;stroke-width:1.5;"/>
   </g>
   <g id="patch_7">
    <path clip-path="url(#p7d2fe588bb)" d="M 115.4916 194.014455 
L 126.4284 194.014455 
L 126.4284 87.599388 
L 115.4916 87.599388 
L 115.4916 194.014455 
z
" style="fill:#597dbf;stroke:#545454;stroke-linejoin:miter;stroke-width:1.5;"/>
   </g>
   <g id="patch_8">
    <path clip-path="url(#p7d2fe588bb)" d="M 126.6516 175.378112 
L 137.5884 175.378112 
L 137.5884 116.565239 
L 126.6516 116.565239 
L 126.6516 175.378112 
z
" style="fill:#d98b5f;stroke:#545454;stroke-linejoin:miter;stroke-width:1.5;"/>
   </g>
   <g id="patch_9">
    <path clip-path="url(#p7d2fe588bb)" d="M 137.8116 177.86561 
L 148.7484 177.86561 
L 148.7484 174.908542 
L 137.8116 174.908542 
L 137.8116 177.86561 
z
" style="fill:#75bf71;stroke:#545454;stroke-linejoin:miter;stroke-width:1.5;"/>
   </g>
   <g id="patch_10">
    <path clip-path="url(#p7d2fe588bb)" d="M 148.9716 218.161073 
L 159.9084 218.161073 
L 159.9084 215.64652 
L 148.9716 215.64652 
L 148.9716 218.161073 
z
" style="fill:#c76e6e;stroke:#545454;stroke-linejoin:miter;stroke-width:1.5;"/>
   </g>
   <g id="patch_11">
    <path clip-path="url(#p7d2fe588bb)" d="M 171.2916 167.716391 
L 182.2284 167.716391 
L 182.2284 60.698951 
L 171.2916 60.698951 
L 171.2916 167.716391 
z
" style="fill:#597dbf;stroke:#545454;stroke-linejoin:miter;stroke-width:1.5;"/>
   </g>
   <g id="patch_12">
    <path clip-path="url(#p7d2fe588bb)" d="M 182.4516 160.865082 
L 193.3884 160.865082 
L 193.3884 132.113702 
L 182.4516 132.113702 
L 182.4516 160.865082 
z
" style="fill:#d98b5f;stroke:#545454;stroke-linejoin:miter;stroke-width:1.5;"/>
   </g>
   <g id="patch_13">
    <path clip-path="url(#p7d2fe588bb)" d="M 193.6116 179.155403 
L 204.5484 179.155403 
L 204.5484 176.121474 
L 193.6116 176.121474 
L 193.6116 179.155403 
z
" style="fill:#75bf71;stroke:#545454;stroke-linejoin:miter;stroke-width:1.5;"/>
   </g>
   <g id="patch_14">
    <path clip-path="url(#p7d2fe588bb)" d="M 204.7716 220.362011 
L 215.7084 220.362011 
L 215.7084 218.497248 
L 204.7716 218.497248 
L 204.7716 220.362011 
z
" style="fill:#c76e6e;stroke:#545454;stroke-linejoin:miter;stroke-width:1.5;"/>
   </g>
   <g id="patch_15">
    <path clip-path="url(#p7d2fe588bb)" d="M 227.0916 203.748637 
L 238.0284 203.748637 
L 238.0284 76.752213 
L 227.0916 76.752213 
L 227.0916 203.748637 
z
" style="fill:#597dbf;stroke:#545454;stroke-linejoin:miter;stroke-width:1.5;"/>
   </g>
   <g id="patch_16">
    <path clip-path="url(#p7d2fe588bb)" d="M 238.2516 174.580418 
L 249.1884 174.580418 
L 249.1884 134.873319 
L 238.2516 134.873319 
L 238.2516 174.580418 
z
" style="fill:#d98b5f;stroke:#545454;stroke-linejoin:miter;stroke-width:1.5;"/>
   </g>
   <g id="patch_17">
    <path clip-path="url(#p7d2fe588bb)" d="M 249.4116 184.794343 
L 260.3484 184.794343 
L 260.3484 181.18499 
L 249.4116 181.18499 
L 249.4116 184.794343 
z
" style="fill:#75bf71;stroke:#545454;stroke-linejoin:miter;stroke-width:1.5;"/>
   </g>
   <g id="patch_18">
    <path clip-path="url(#p7d2fe588bb)" d="M 260.5716 225.671155 
L 271.5084 225.671155 
L 271.5084 219.032073 
L 260.5716 219.032073 
L 260.5716 225.671155 
z
" style="fill:#c76e6e;stroke:#545454;stroke-linejoin:miter;stroke-width:1.5;"/>
   </g>
   <g id="patch_19">
    <path clip-path="url(#p7d2fe588bb)" d="M 282.8916 163.55945 
L 293.8284 163.55945 
L 293.8284 69.250568 
L 282.8916 69.250568 
L 282.8916 163.55945 
z
" style="fill:#597dbf;stroke:#545454;stroke-linejoin:miter;stroke-width:1.5;"/>
   </g>
   <g id="patch_20">
    <path clip-path="url(#p7d2fe588bb)" d="M 294.0516 177.615061 
L 304.9884 177.615061 
L 304.9884 105.858402 
L 294.0516 105.858402 
L 294.0516 177.615061 
z
" style="fill:#d98b5f;stroke:#545454;stroke-linejoin:miter;stroke-width:1.5;"/>
   </g>
   <g id="patch_21">
    <path clip-path="url(#p7d2fe588bb)" d="M 305.2116 189.854181 
L 316.1484 189.854181 
L 316.1484 181.612485 
L 305.2116 181.612485 
L 305.2116 189.854181 
z
" style="fill:#75bf71;stroke:#545454;stroke-linejoin:miter;stroke-width:1.5;"/>
   </g>
   <g id="patch_22">
    <path clip-path="url(#p7d2fe588bb)" d="M 316.3716 229.014214 
L 327.3084 229.014214 
L 327.3084 225.497112 
L 316.3716 225.497112 
L 316.3716 229.014214 
z
" style="fill:#c76e6e;stroke:#545454;stroke-linejoin:miter;stroke-width:1.5;"/>
   </g>
   <g id="patch_23">
    <path clip-path="url(#p7d2fe588bb)" d="M 338.6916 176.538769 
L 349.6284 176.538769 
L 349.6284 97.278458 
L 338.6916 97.278458 
L 338.6916 176.538769 
z
" style="fill:#597dbf;stroke:#545454;stroke-linejoin:miter;stroke-width:1.5;"/>
   </g>
   <g id="patch_24">
    <path clip-path="url(#p7d2fe588bb)" d="M 349.8516 167.766689 
L 360.7884 167.766689 
L 360.7884 140.518462 
L 349.8516 140.518462 
L 349.8516 167.766689 
z
" style="fill:#d98b5f;stroke:#545454;stroke-linejoin:miter;stroke-width:1.5;"/>
   </g>
   <g id="patch_25">
    <path clip-path="url(#p7d2fe588bb)" d="M 361.0116 201.26118 
L 371.9484 201.26118 
L 371.9484 186.038484 
L 361.0116 186.038484 
L 361.0116 201.26118 
z
" style="fill:#75bf71;stroke:#545454;stroke-linejoin:miter;stroke-width:1.5;"/>
   </g>
   <g id="patch_26">
    <path clip-path="url(#p7d2fe588bb)" d="M 372.1716 232.831938 
L 383.1084 232.831938 
L 383.1084 224.880892 
L 372.1716 224.880892 
L 372.1716 232.831938 
z
" style="fill:#c76e6e;stroke:#545454;stroke-linejoin:miter;stroke-width:1.5;"/>
   </g>
   <g id="patch_27">
    <path clip-path="url(#p7d2fe588bb)" d="M 81.9 366.591255 
L 81.9 366.591255 
L 81.9 366.591255 
L 81.9 366.591255 
z
" style="fill:#597dbf;stroke:#545454;stroke-linejoin:miter;stroke-width:0.75;"/>
   </g>
   <g id="patch_28">
    <path clip-path="url(#p7d2fe588bb)" d="M 81.9 366.591255 
L 81.9 366.591255 
L 81.9 366.591255 
L 81.9 366.591255 
z
" style="fill:#d98b5f;stroke:#545454;stroke-linejoin:miter;stroke-width:0.75;"/>
   </g>
   <g id="patch_29">
    <path clip-path="url(#p7d2fe588bb)" d="M 81.9 366.591255 
L 81.9 366.591255 
L 81.9 366.591255 
L 81.9 366.591255 
z
" style="fill:#75bf71;stroke:#545454;stroke-linejoin:miter;stroke-width:0.75;"/>
   </g>
   <g id="patch_30">
    <path clip-path="url(#p7d2fe588bb)" d="M 81.9 366.591255 
L 81.9 366.591255 
L 81.9 366.591255 
L 81.9 366.591255 
z
" style="fill:#c76e6e;stroke:#545454;stroke-linejoin:miter;stroke-width:0.75;"/>
   </g>
   <g id="matplotlib.axis_1">
    <g id="xtick_1">
     <g id="line2d_1">
      <defs>
       <path d="M 0 0 
L 0 3.5 
" id="m056cb35abd" style="stroke:#000000;stroke-width:0.8;"/>
      </defs>
      <g>
       <use style="stroke:#000000;stroke-width:0.8;" x="81.9" xlink:href="#m056cb35abd" y="252"/>
      </g>
     </g>
     <g id="text_1">
      <!-- 0.000 -->
      <g transform="translate(67.585938 266.598437)scale(0.1 -0.1)">
       <defs>
        <path d="M 31.78125 66.40625 
Q 24.171875 66.40625 20.328125 58.90625 
Q 16.5 51.421875 16.5 36.375 
Q 16.5 21.390625 20.328125 13.890625 
Q 24.171875 6.390625 31.78125 6.390625 
Q 39.453125 6.390625 43.28125 13.890625 
Q 47.125 21.390625 47.125 36.375 
Q 47.125 51.421875 43.28125 58.90625 
Q 39.453125 66.40625 31.78125 66.40625 
z
M 31.78125 74.21875 
Q 44.046875 74.21875 50.515625 64.515625 
Q 56.984375 54.828125 56.984375 36.375 
Q 56.984375 17.96875 50.515625 8.265625 
Q 44.046875 -1.421875 31.78125 -1.421875 
Q 19.53125 -1.421875 13.0625 8.265625 
Q 6.59375 17.96875 6.59375 36.375 
Q 6.59375 54.828125 13.0625 64.515625 
Q 19.53125 74.21875 31.78125 74.21875 
z
" id="DejaVuSans-48"/>
        <path d="M 10.6875 12.40625 
L 21 12.40625 
L 21 0 
L 10.6875 0 
z
" id="DejaVuSans-46"/>
       </defs>
       <use xlink:href="#DejaVuSans-48"/>
       <use x="63.623047" xlink:href="#DejaVuSans-46"/>
       <use x="95.410156" xlink:href="#DejaVuSans-48"/>
       <use x="159.033203" xlink:href="#DejaVuSans-48"/>
       <use x="222.65625" xlink:href="#DejaVuSans-48"/>
      </g>
     </g>
    </g>
    <g id="xtick_2">
     <g id="line2d_2">
      <g>
       <use style="stroke:#000000;stroke-width:0.8;" x="137.7" xlink:href="#m056cb35abd" y="252"/>
      </g>
     </g>
     <g id="text_2">
      <!-- 0.017 -->
      <g transform="translate(123.385937 266.598437)scale(0.1 -0.1)">
       <defs>
        <path d="M 12.40625 8.296875 
L 28.515625 8.296875 
L 28.515625 63.921875 
L 10.984375 60.40625 
L 10.984375 69.390625 
L 28.421875 72.90625 
L 38.28125 72.90625 
L 38.28125 8.296875 
L 54.390625 8.296875 
L 54.390625 0 
L 12.40625 0 
z
" id="DejaVuSans-49"/>
        <path d="M 8.203125 72.90625 
L 55.078125 72.90625 
L 55.078125 68.703125 
L 28.609375 0 
L 18.3125 0 
L 43.21875 64.59375 
L 8.203125 64.59375 
z
" id="DejaVuSans-55"/>
       </defs>
       <use xlink:href="#DejaVuSans-48"/>
       <use x="63.623047" xlink:href="#DejaVuSans-46"/>
       <use x="95.410156" xlink:href="#DejaVuSans-48"/>
       <use x="159.033203" xlink:href="#DejaVuSans-49"/>
       <use x="222.65625" xlink:href="#DejaVuSans-55"/>
      </g>
     </g>
    </g>
    <g id="xtick_3">
     <g id="line2d_3">
      <g>
       <use style="stroke:#000000;stroke-width:0.8;" x="193.5" xlink:href="#m056cb35abd" y="252"/>
      </g>
     </g>
     <g id="text_3">
      <!-- 0.033 -->
      <g transform="translate(179.185937 266.598437)scale(0.1 -0.1)">
       <defs>
        <path d="M 40.578125 39.3125 
Q 47.65625 37.796875 51.625 33 
Q 55.609375 28.21875 55.609375 21.1875 
Q 55.609375 10.40625 48.1875 4.484375 
Q 40.765625 -1.421875 27.09375 -1.421875 
Q 22.515625 -1.421875 17.65625 -0.515625 
Q 12.796875 0.390625 7.625 2.203125 
L 7.625 11.71875 
Q 11.71875 9.328125 16.59375 8.109375 
Q 21.484375 6.890625 26.8125 6.890625 
Q 36.078125 6.890625 40.9375 10.546875 
Q 45.796875 14.203125 45.796875 21.1875 
Q 45.796875 27.640625 41.28125 31.265625 
Q 36.765625 34.90625 28.71875 34.90625 
L 20.21875 34.90625 
L 20.21875 43.015625 
L 29.109375 43.015625 
Q 36.375 43.015625 40.234375 45.921875 
Q 44.09375 48.828125 44.09375 54.296875 
Q 44.09375 59.90625 40.109375 62.90625 
Q 36.140625 65.921875 28.71875 65.921875 
Q 24.65625 65.921875 20.015625 65.03125 
Q 15.375 64.15625 9.8125 62.3125 
L 9.8125 71.09375 
Q 15.4375 72.65625 20.34375 73.4375 
Q 25.25 74.21875 29.59375 74.21875 
Q 40.828125 74.21875 47.359375 69.109375 
Q 53.90625 64.015625 53.90625 55.328125 
Q 53.90625 49.265625 50.4375 45.09375 
Q 46.96875 40.921875 40.578125 39.3125 
z
" id="DejaVuSans-51"/>
       </defs>
       <use xlink:href="#DejaVuSans-48"/>
       <use x="63.623047" xlink:href="#DejaVuSans-46"/>
       <use x="95.410156" xlink:href="#DejaVuSans-48"/>
       <use x="159.033203" xlink:href="#DejaVuSans-51"/>
       <use x="222.65625" xlink:href="#DejaVuSans-51"/>
      </g>
     </g>
    </g>
    <g id="xtick_4">
     <g id="line2d_4">
      <g>
       <use style="stroke:#000000;stroke-width:0.8;" x="249.3" xlink:href="#m056cb35abd" y="252"/>
      </g>
     </g>
     <g id="text_4">
      <!-- 0.050 -->
      <g transform="translate(234.985937 266.598437)scale(0.1 -0.1)">
       <defs>
        <path d="M 10.796875 72.90625 
L 49.515625 72.90625 
L 49.515625 64.59375 
L 19.828125 64.59375 
L 19.828125 46.734375 
Q 21.96875 47.46875 24.109375 47.828125 
Q 26.265625 48.1875 28.421875 48.1875 
Q 40.625 48.1875 47.75 41.5 
Q 54.890625 34.8125 54.890625 23.390625 
Q 54.890625 11.625 47.5625 5.09375 
Q 40.234375 -1.421875 26.90625 -1.421875 
Q 22.3125 -1.421875 17.546875 -0.640625 
Q 12.796875 0.140625 7.71875 1.703125 
L 7.71875 11.625 
Q 12.109375 9.234375 16.796875 8.0625 
Q 21.484375 6.890625 26.703125 6.890625 
Q 35.15625 6.890625 40.078125 11.328125 
Q 45.015625 15.765625 45.015625 23.390625 
Q 45.015625 31 40.078125 35.4375 
Q 35.15625 39.890625 26.703125 39.890625 
Q 22.75 39.890625 18.8125 39.015625 
Q 14.890625 38.140625 10.796875 36.28125 
z
" id="DejaVuSans-53"/>
       </defs>
       <use xlink:href="#DejaVuSans-48"/>
       <use x="63.623047" xlink:href="#DejaVuSans-46"/>
       <use x="95.410156" xlink:href="#DejaVuSans-48"/>
       <use x="159.033203" xlink:href="#DejaVuSans-53"/>
       <use x="222.65625" xlink:href="#DejaVuSans-48"/>
      </g>
     </g>
    </g>
    <g id="xtick_5">
     <g id="line2d_5">
      <g>
       <use style="stroke:#000000;stroke-width:0.8;" x="305.1" xlink:href="#m056cb35abd" y="252"/>
      </g>
     </g>
     <g id="text_5">
      <!-- 0.067 -->
      <g transform="translate(290.785938 266.598437)scale(0.1 -0.1)">
       <defs>
        <path d="M 33.015625 40.375 
Q 26.375 40.375 22.484375 35.828125 
Q 18.609375 31.296875 18.609375 23.390625 
Q 18.609375 15.53125 22.484375 10.953125 
Q 26.375 6.390625 33.015625 6.390625 
Q 39.65625 6.390625 43.53125 10.953125 
Q 47.40625 15.53125 47.40625 23.390625 
Q 47.40625 31.296875 43.53125 35.828125 
Q 39.65625 40.375 33.015625 40.375 
z
M 52.59375 71.296875 
L 52.59375 62.3125 
Q 48.875 64.0625 45.09375 64.984375 
Q 41.3125 65.921875 37.59375 65.921875 
Q 27.828125 65.921875 22.671875 59.328125 
Q 17.53125 52.734375 16.796875 39.40625 
Q 19.671875 43.65625 24.015625 45.921875 
Q 28.375 48.1875 33.59375 48.1875 
Q 44.578125 48.1875 50.953125 41.515625 
Q 57.328125 34.859375 57.328125 23.390625 
Q 57.328125 12.15625 50.6875 5.359375 
Q 44.046875 -1.421875 33.015625 -1.421875 
Q 20.359375 -1.421875 13.671875 8.265625 
Q 6.984375 17.96875 6.984375 36.375 
Q 6.984375 53.65625 15.1875 63.9375 
Q 23.390625 74.21875 37.203125 74.21875 
Q 40.921875 74.21875 44.703125 73.484375 
Q 48.484375 72.75 52.59375 71.296875 
z
" id="DejaVuSans-54"/>
       </defs>
       <use xlink:href="#DejaVuSans-48"/>
       <use x="63.623047" xlink:href="#DejaVuSans-46"/>
       <use x="95.410156" xlink:href="#DejaVuSans-48"/>
       <use x="159.033203" xlink:href="#DejaVuSans-54"/>
       <use x="222.65625" xlink:href="#DejaVuSans-55"/>
      </g>
     </g>
    </g>
    <g id="xtick_6">
     <g id="line2d_6">
      <g>
       <use style="stroke:#000000;stroke-width:0.8;" x="360.9" xlink:href="#m056cb35abd" y="252"/>
      </g>
     </g>
     <g id="text_6">
      <!-- 0.083 -->
      <g transform="translate(346.585938 266.598437)scale(0.1 -0.1)">
       <defs>
        <path d="M 31.78125 34.625 
Q 24.75 34.625 20.71875 30.859375 
Q 16.703125 27.09375 16.703125 20.515625 
Q 16.703125 13.921875 20.71875 10.15625 
Q 24.75 6.390625 31.78125 6.390625 
Q 38.8125 6.390625 42.859375 10.171875 
Q 46.921875 13.96875 46.921875 20.515625 
Q 46.921875 27.09375 42.890625 30.859375 
Q 38.875 34.625 31.78125 34.625 
z
M 21.921875 38.8125 
Q 15.578125 40.375 12.03125 44.71875 
Q 8.5 49.078125 8.5 55.328125 
Q 8.5 64.0625 14.71875 69.140625 
Q 20.953125 74.21875 31.78125 74.21875 
Q 42.671875 74.21875 48.875 69.140625 
Q 55.078125 64.0625 55.078125 55.328125 
Q 55.078125 49.078125 51.53125 44.71875 
Q 48 40.375 41.703125 38.8125 
Q 48.828125 37.15625 52.796875 32.3125 
Q 56.78125 27.484375 56.78125 20.515625 
Q 56.78125 9.90625 50.3125 4.234375 
Q 43.84375 -1.421875 31.78125 -1.421875 
Q 19.734375 -1.421875 13.25 4.234375 
Q 6.78125 9.90625 6.78125 20.515625 
Q 6.78125 27.484375 10.78125 32.3125 
Q 14.796875 37.15625 21.921875 38.8125 
z
M 18.3125 54.390625 
Q 18.3125 48.734375 21.84375 45.5625 
Q 25.390625 42.390625 31.78125 42.390625 
Q 38.140625 42.390625 41.71875 45.5625 
Q 45.3125 48.734375 45.3125 54.390625 
Q 45.3125 60.0625 41.71875 63.234375 
Q 38.140625 66.40625 31.78125 66.40625 
Q 25.390625 66.40625 21.84375 63.234375 
Q 18.3125 60.0625 18.3125 54.390625 
z
" id="DejaVuSans-56"/>
       </defs>
       <use xlink:href="#DejaVuSans-48"/>
       <use x="63.623047" xlink:href="#DejaVuSans-46"/>
       <use x="95.410156" xlink:href="#DejaVuSans-48"/>
       <use x="159.033203" xlink:href="#DejaVuSans-56"/>
       <use x="222.65625" xlink:href="#DejaVuSans-51"/>
      </g>
     </g>
    </g>
    <g id="text_7">
     <!-- Noise standard deviation -->
     <g transform="translate(158.932813 280.276563)scale(0.1 -0.1)">
      <defs>
       <path d="M 9.8125 72.90625 
L 23.09375 72.90625 
L 55.421875 11.921875 
L 55.421875 72.90625 
L 64.984375 72.90625 
L 64.984375 0 
L 51.703125 0 
L 19.390625 60.984375 
L 19.390625 0 
L 9.8125 0 
z
" id="DejaVuSans-78"/>
       <path d="M 30.609375 48.390625 
Q 23.390625 48.390625 19.1875 42.75 
Q 14.984375 37.109375 14.984375 27.296875 
Q 14.984375 17.484375 19.15625 11.84375 
Q 23.34375 6.203125 30.609375 6.203125 
Q 37.796875 6.203125 41.984375 11.859375 
Q 46.1875 17.53125 46.1875 27.296875 
Q 46.1875 37.015625 41.984375 42.703125 
Q 37.796875 48.390625 30.609375 48.390625 
z
M 30.609375 56 
Q 42.328125 56 49.015625 48.375 
Q 55.71875 40.765625 55.71875 27.296875 
Q 55.71875 13.875 49.015625 6.21875 
Q 42.328125 -1.421875 30.609375 -1.421875 
Q 18.84375 -1.421875 12.171875 6.21875 
Q 5.515625 13.875 5.515625 27.296875 
Q 5.515625 40.765625 12.171875 48.375 
Q 18.84375 56 30.609375 56 
z
" id="DejaVuSans-111"/>
       <path d="M 9.421875 54.6875 
L 18.40625 54.6875 
L 18.40625 0 
L 9.421875 0 
z
M 9.421875 75.984375 
L 18.40625 75.984375 
L 18.40625 64.59375 
L 9.421875 64.59375 
z
" id="DejaVuSans-105"/>
       <path d="M 44.28125 53.078125 
L 44.28125 44.578125 
Q 40.484375 46.53125 36.375 47.5 
Q 32.28125 48.484375 27.875 48.484375 
Q 21.1875 48.484375 17.84375 46.4375 
Q 14.5 44.390625 14.5 40.28125 
Q 14.5 37.15625 16.890625 35.375 
Q 19.28125 33.59375 26.515625 31.984375 
L 29.59375 31.296875 
Q 39.15625 29.25 43.1875 25.515625 
Q 47.21875 21.78125 47.21875 15.09375 
Q 47.21875 7.46875 41.1875 3.015625 
Q 35.15625 -1.421875 24.609375 -1.421875 
Q 20.21875 -1.421875 15.453125 -0.5625 
Q 10.6875 0.296875 5.421875 2 
L 5.421875 11.28125 
Q 10.40625 8.6875 15.234375 7.390625 
Q 20.0625 6.109375 24.8125 6.109375 
Q 31.15625 6.109375 34.5625 8.28125 
Q 37.984375 10.453125 37.984375 14.40625 
Q 37.984375 18.0625 35.515625 20.015625 
Q 33.0625 21.96875 24.703125 23.78125 
L 21.578125 24.515625 
Q 13.234375 26.265625 9.515625 29.90625 
Q 5.8125 33.546875 5.8125 39.890625 
Q 5.8125 47.609375 11.28125 51.796875 
Q 16.75 56 26.8125 56 
Q 31.78125 56 36.171875 55.265625 
Q 40.578125 54.546875 44.28125 53.078125 
z
" id="DejaVuSans-115"/>
       <path d="M 56.203125 29.59375 
L 56.203125 25.203125 
L 14.890625 25.203125 
Q 15.484375 15.921875 20.484375 11.0625 
Q 25.484375 6.203125 34.421875 6.203125 
Q 39.59375 6.203125 44.453125 7.46875 
Q 49.3125 8.734375 54.109375 11.28125 
L 54.109375 2.78125 
Q 49.265625 0.734375 44.1875 -0.34375 
Q 39.109375 -1.421875 33.890625 -1.421875 
Q 20.796875 -1.421875 13.15625 6.1875 
Q 5.515625 13.8125 5.515625 26.8125 
Q 5.515625 40.234375 12.765625 48.109375 
Q 20.015625 56 32.328125 56 
Q 43.359375 56 49.78125 48.890625 
Q 56.203125 41.796875 56.203125 29.59375 
z
M 47.21875 32.234375 
Q 47.125 39.59375 43.09375 43.984375 
Q 39.0625 48.390625 32.421875 48.390625 
Q 24.90625 48.390625 20.390625 44.140625 
Q 15.875 39.890625 15.1875 32.171875 
z
" id="DejaVuSans-101"/>
       <path id="DejaVuSans-32"/>
       <path d="M 18.3125 70.21875 
L 18.3125 54.6875 
L 36.8125 54.6875 
L 36.8125 47.703125 
L 18.3125 47.703125 
L 18.3125 18.015625 
Q 18.3125 11.328125 20.140625 9.421875 
Q 21.96875 7.515625 27.59375 7.515625 
L 36.8125 7.515625 
L 36.8125 0 
L 27.59375 0 
Q 17.1875 0 13.234375 3.875 
Q 9.28125 7.765625 9.28125 18.015625 
L 9.28125 47.703125 
L 2.6875 47.703125 
L 2.6875 54.6875 
L 9.28125 54.6875 
L 9.28125 70.21875 
z
" id="DejaVuSans-116"/>
       <path d="M 34.28125 27.484375 
Q 23.390625 27.484375 19.1875 25 
Q 14.984375 22.515625 14.984375 16.5 
Q 14.984375 11.71875 18.140625 8.90625 
Q 21.296875 6.109375 26.703125 6.109375 
Q 34.1875 6.109375 38.703125 11.40625 
Q 43.21875 16.703125 43.21875 25.484375 
L 43.21875 27.484375 
z
M 52.203125 31.203125 
L 52.203125 0 
L 43.21875 0 
L 43.21875 8.296875 
Q 40.140625 3.328125 35.546875 0.953125 
Q 30.953125 -1.421875 24.3125 -1.421875 
Q 15.921875 -1.421875 10.953125 3.296875 
Q 6 8.015625 6 15.921875 
Q 6 25.140625 12.171875 29.828125 
Q 18.359375 34.515625 30.609375 34.515625 
L 43.21875 34.515625 
L 43.21875 35.40625 
Q 43.21875 41.609375 39.140625 45 
Q 35.0625 48.390625 27.6875 48.390625 
Q 23 48.390625 18.546875 47.265625 
Q 14.109375 46.140625 10.015625 43.890625 
L 10.015625 52.203125 
Q 14.9375 54.109375 19.578125 55.046875 
Q 24.21875 56 28.609375 56 
Q 40.484375 56 46.34375 49.84375 
Q 52.203125 43.703125 52.203125 31.203125 
z
" id="DejaVuSans-97"/>
       <path d="M 54.890625 33.015625 
L 54.890625 0 
L 45.90625 0 
L 45.90625 32.71875 
Q 45.90625 40.484375 42.875 44.328125 
Q 39.84375 48.1875 33.796875 48.1875 
Q 26.515625 48.1875 22.3125 43.546875 
Q 18.109375 38.921875 18.109375 30.90625 
L 18.109375 0 
L 9.078125 0 
L 9.078125 54.6875 
L 18.109375 54.6875 
L 18.109375 46.1875 
Q 21.34375 51.125 25.703125 53.5625 
Q 30.078125 56 35.796875 56 
Q 45.21875 56 50.046875 50.171875 
Q 54.890625 44.34375 54.890625 33.015625 
z
" id="DejaVuSans-110"/>
       <path d="M 45.40625 46.390625 
L 45.40625 75.984375 
L 54.390625 75.984375 
L 54.390625 0 
L 45.40625 0 
L 45.40625 8.203125 
Q 42.578125 3.328125 38.25 0.953125 
Q 33.9375 -1.421875 27.875 -1.421875 
Q 17.96875 -1.421875 11.734375 6.484375 
Q 5.515625 14.40625 5.515625 27.296875 
Q 5.515625 40.1875 11.734375 48.09375 
Q 17.96875 56 27.875 56 
Q 33.9375 56 38.25 53.625 
Q 42.578125 51.265625 45.40625 46.390625 
z
M 14.796875 27.296875 
Q 14.796875 17.390625 18.875 11.75 
Q 22.953125 6.109375 30.078125 6.109375 
Q 37.203125 6.109375 41.296875 11.75 
Q 45.40625 17.390625 45.40625 27.296875 
Q 45.40625 37.203125 41.296875 42.84375 
Q 37.203125 48.484375 30.078125 48.484375 
Q 22.953125 48.484375 18.875 42.84375 
Q 14.796875 37.203125 14.796875 27.296875 
z
" id="DejaVuSans-100"/>
       <path d="M 41.109375 46.296875 
Q 39.59375 47.171875 37.8125 47.578125 
Q 36.03125 48 33.890625 48 
Q 26.265625 48 22.1875 43.046875 
Q 18.109375 38.09375 18.109375 28.8125 
L 18.109375 0 
L 9.078125 0 
L 9.078125 54.6875 
L 18.109375 54.6875 
L 18.109375 46.1875 
Q 20.953125 51.171875 25.484375 53.578125 
Q 30.03125 56 36.53125 56 
Q 37.453125 56 38.578125 55.875 
Q 39.703125 55.765625 41.0625 55.515625 
z
" id="DejaVuSans-114"/>
       <path d="M 2.984375 54.6875 
L 12.5 54.6875 
L 29.59375 8.796875 
L 46.6875 54.6875 
L 56.203125 54.6875 
L 35.6875 0 
L 23.484375 0 
z
" id="DejaVuSans-118"/>
      </defs>
      <use xlink:href="#DejaVuSans-78"/>
      <use x="74.804688" xlink:href="#DejaVuSans-111"/>
      <use x="135.986328" xlink:href="#DejaVuSans-105"/>
      <use x="163.769531" xlink:href="#DejaVuSans-115"/>
      <use x="215.869141" xlink:href="#DejaVuSans-101"/>
      <use x="277.392578" xlink:href="#DejaVuSans-32"/>
      <use x="309.179688" xlink:href="#DejaVuSans-115"/>
      <use x="361.279297" xlink:href="#DejaVuSans-116"/>
      <use x="400.488281" xlink:href="#DejaVuSans-97"/>
      <use x="461.767578" xlink:href="#DejaVuSans-110"/>
      <use x="525.146484" xlink:href="#DejaVuSans-100"/>
      <use x="588.623047" xlink:href="#DejaVuSans-97"/>
      <use x="649.902344" xlink:href="#DejaVuSans-114"/>
      <use x="689.265625" xlink:href="#DejaVuSans-100"/>
      <use x="752.742188" xlink:href="#DejaVuSans-32"/>
      <use x="784.529297" xlink:href="#DejaVuSans-100"/>
      <use x="848.005859" xlink:href="#DejaVuSans-101"/>
      <use x="909.529297" xlink:href="#DejaVuSans-118"/>
      <use x="968.708984" xlink:href="#DejaVuSans-105"/>
      <use x="996.492188" xlink:href="#DejaVuSans-97"/>
      <use x="1057.771484" xlink:href="#DejaVuSans-116"/>
      <use x="1096.980469" xlink:href="#DejaVuSans-105"/>
      <use x="1124.763672" xlink:href="#DejaVuSans-111"/>
      <use x="1185.945312" xlink:href="#DejaVuSans-110"/>
     </g>
    </g>
   </g>
   <g id="matplotlib.axis_2">
    <g id="ytick_1">
     <g id="line2d_7">
      <defs>
       <path d="M 0 0 
L -3.5 0 
" id="me18fd3d1f1" style="stroke:#000000;stroke-width:0.8;"/>
      </defs>
      <g>
       <use style="stroke:#000000;stroke-width:0.8;" x="54" xlink:href="#me18fd3d1f1" y="242.852107"/>
      </g>
     </g>
     <g id="text_8">
      <!-- 0.8 -->
      <g transform="translate(31.096875 246.651325)scale(0.1 -0.1)">
       <use xlink:href="#DejaVuSans-48"/>
       <use x="63.623047" xlink:href="#DejaVuSans-46"/>
       <use x="95.410156" xlink:href="#DejaVuSans-56"/>
      </g>
     </g>
    </g>
    <g id="ytick_2">
     <g id="line2d_8">
      <g>
       <use style="stroke:#000000;stroke-width:0.8;" x="54" xlink:href="#me18fd3d1f1" y="211.917319"/>
      </g>
     </g>
     <g id="text_9">
      <!-- 1.0 -->
      <g transform="translate(31.096875 215.716538)scale(0.1 -0.1)">
       <use xlink:href="#DejaVuSans-49"/>
       <use x="63.623047" xlink:href="#DejaVuSans-46"/>
       <use x="95.410156" xlink:href="#DejaVuSans-48"/>
      </g>
     </g>
    </g>
    <g id="ytick_3">
     <g id="line2d_9">
      <g>
       <use style="stroke:#000000;stroke-width:0.8;" x="54" xlink:href="#me18fd3d1f1" y="180.982532"/>
      </g>
     </g>
     <g id="text_10">
      <!-- 1.2 -->
      <g transform="translate(31.096875 184.781751)scale(0.1 -0.1)">
       <defs>
        <path d="M 19.1875 8.296875 
L 53.609375 8.296875 
L 53.609375 0 
L 7.328125 0 
L 7.328125 8.296875 
Q 12.9375 14.109375 22.625 23.890625 
Q 32.328125 33.6875 34.8125 36.53125 
Q 39.546875 41.84375 41.421875 45.53125 
Q 43.3125 49.21875 43.3125 52.78125 
Q 43.3125 58.59375 39.234375 62.25 
Q 35.15625 65.921875 28.609375 65.921875 
Q 23.96875 65.921875 18.8125 64.3125 
Q 13.671875 62.703125 7.8125 59.421875 
L 7.8125 69.390625 
Q 13.765625 71.78125 18.9375 73 
Q 24.125 74.21875 28.421875 74.21875 
Q 39.75 74.21875 46.484375 68.546875 
Q 53.21875 62.890625 53.21875 53.421875 
Q 53.21875 48.921875 51.53125 44.890625 
Q 49.859375 40.875 45.40625 35.40625 
Q 44.1875 33.984375 37.640625 27.21875 
Q 31.109375 20.453125 19.1875 8.296875 
z
" id="DejaVuSans-50"/>
       </defs>
       <use xlink:href="#DejaVuSans-49"/>
       <use x="63.623047" xlink:href="#DejaVuSans-46"/>
       <use x="95.410156" xlink:href="#DejaVuSans-50"/>
      </g>
     </g>
    </g>
    <g id="ytick_4">
     <g id="line2d_10">
      <g>
       <use style="stroke:#000000;stroke-width:0.8;" x="54" xlink:href="#me18fd3d1f1" y="150.047745"/>
      </g>
     </g>
     <g id="text_11">
      <!-- 1.4 -->
      <g transform="translate(31.096875 153.846964)scale(0.1 -0.1)">
       <defs>
        <path d="M 37.796875 64.3125 
L 12.890625 25.390625 
L 37.796875 25.390625 
z
M 35.203125 72.90625 
L 47.609375 72.90625 
L 47.609375 25.390625 
L 58.015625 25.390625 
L 58.015625 17.1875 
L 47.609375 17.1875 
L 47.609375 0 
L 37.796875 0 
L 37.796875 17.1875 
L 4.890625 17.1875 
L 4.890625 26.703125 
z
" id="DejaVuSans-52"/>
       </defs>
       <use xlink:href="#DejaVuSans-49"/>
       <use x="63.623047" xlink:href="#DejaVuSans-46"/>
       <use x="95.410156" xlink:href="#DejaVuSans-52"/>
      </g>
     </g>
    </g>
    <g id="ytick_5">
     <g id="line2d_11">
      <g>
       <use style="stroke:#000000;stroke-width:0.8;" x="54" xlink:href="#me18fd3d1f1" y="119.112958"/>
      </g>
     </g>
     <g id="text_12">
      <!-- 1.6 -->
      <g transform="translate(31.096875 122.912176)scale(0.1 -0.1)">
       <use xlink:href="#DejaVuSans-49"/>
       <use x="63.623047" xlink:href="#DejaVuSans-46"/>
       <use x="95.410156" xlink:href="#DejaVuSans-54"/>
      </g>
     </g>
    </g>
    <g id="ytick_6">
     <g id="line2d_12">
      <g>
       <use style="stroke:#000000;stroke-width:0.8;" x="54" xlink:href="#me18fd3d1f1" y="88.17817"/>
      </g>
     </g>
     <g id="text_13">
      <!-- 1.8 -->
      <g transform="translate(31.096875 91.977389)scale(0.1 -0.1)">
       <use xlink:href="#DejaVuSans-49"/>
       <use x="63.623047" xlink:href="#DejaVuSans-46"/>
       <use x="95.410156" xlink:href="#DejaVuSans-56"/>
      </g>
     </g>
    </g>
    <g id="ytick_7">
     <g id="line2d_13">
      <g>
       <use style="stroke:#000000;stroke-width:0.8;" x="54" xlink:href="#me18fd3d1f1" y="57.243383"/>
      </g>
     </g>
     <g id="text_14">
      <!-- 2.0 -->
      <g transform="translate(31.096875 61.042602)scale(0.1 -0.1)">
       <use xlink:href="#DejaVuSans-50"/>
       <use x="63.623047" xlink:href="#DejaVuSans-46"/>
       <use x="95.410156" xlink:href="#DejaVuSans-48"/>
      </g>
     </g>
    </g>
    <g id="text_15">
     <!-- Best function evaluation -->
     <g transform="translate(25.017187 204.253438)rotate(-90)scale(0.1 -0.1)">
      <defs>
       <path d="M 19.671875 34.8125 
L 19.671875 8.109375 
L 35.5 8.109375 
Q 43.453125 8.109375 47.28125 11.40625 
Q 51.125 14.703125 51.125 21.484375 
Q 51.125 28.328125 47.28125 31.5625 
Q 43.453125 34.8125 35.5 34.8125 
z
M 19.671875 64.796875 
L 19.671875 42.828125 
L 34.28125 42.828125 
Q 41.5 42.828125 45.03125 45.53125 
Q 48.578125 48.25 48.578125 53.8125 
Q 48.578125 59.328125 45.03125 62.0625 
Q 41.5 64.796875 34.28125 64.796875 
z
M 9.8125 72.90625 
L 35.015625 72.90625 
Q 46.296875 72.90625 52.390625 68.21875 
Q 58.5 63.53125 58.5 54.890625 
Q 58.5 48.1875 55.375 44.234375 
Q 52.25 40.28125 46.1875 39.3125 
Q 53.46875 37.75 57.5 32.78125 
Q 61.53125 27.828125 61.53125 20.40625 
Q 61.53125 10.640625 54.890625 5.3125 
Q 48.25 0 35.984375 0 
L 9.8125 0 
z
" id="DejaVuSans-66"/>
       <path d="M 37.109375 75.984375 
L 37.109375 68.5 
L 28.515625 68.5 
Q 23.6875 68.5 21.796875 66.546875 
Q 19.921875 64.59375 19.921875 59.515625 
L 19.921875 54.6875 
L 34.71875 54.6875 
L 34.71875 47.703125 
L 19.921875 47.703125 
L 19.921875 0 
L 10.890625 0 
L 10.890625 47.703125 
L 2.296875 47.703125 
L 2.296875 54.6875 
L 10.890625 54.6875 
L 10.890625 58.5 
Q 10.890625 67.625 15.140625 71.796875 
Q 19.390625 75.984375 28.609375 75.984375 
z
" id="DejaVuSans-102"/>
       <path d="M 8.5 21.578125 
L 8.5 54.6875 
L 17.484375 54.6875 
L 17.484375 21.921875 
Q 17.484375 14.15625 20.5 10.265625 
Q 23.53125 6.390625 29.59375 6.390625 
Q 36.859375 6.390625 41.078125 11.03125 
Q 45.3125 15.671875 45.3125 23.6875 
L 45.3125 54.6875 
L 54.296875 54.6875 
L 54.296875 0 
L 45.3125 0 
L 45.3125 8.40625 
Q 42.046875 3.421875 37.71875 1 
Q 33.40625 -1.421875 27.6875 -1.421875 
Q 18.265625 -1.421875 13.375 4.4375 
Q 8.5 10.296875 8.5 21.578125 
z
M 31.109375 56 
z
" id="DejaVuSans-117"/>
       <path d="M 48.78125 52.59375 
L 48.78125 44.1875 
Q 44.96875 46.296875 41.140625 47.34375 
Q 37.3125 48.390625 33.40625 48.390625 
Q 24.65625 48.390625 19.8125 42.84375 
Q 14.984375 37.3125 14.984375 27.296875 
Q 14.984375 17.28125 19.8125 11.734375 
Q 24.65625 6.203125 33.40625 6.203125 
Q 37.3125 6.203125 41.140625 7.25 
Q 44.96875 8.296875 48.78125 10.40625 
L 48.78125 2.09375 
Q 45.015625 0.34375 40.984375 -0.53125 
Q 36.96875 -1.421875 32.421875 -1.421875 
Q 20.0625 -1.421875 12.78125 6.34375 
Q 5.515625 14.109375 5.515625 27.296875 
Q 5.515625 40.671875 12.859375 48.328125 
Q 20.21875 56 33.015625 56 
Q 37.15625 56 41.109375 55.140625 
Q 45.0625 54.296875 48.78125 52.59375 
z
" id="DejaVuSans-99"/>
       <path d="M 9.421875 75.984375 
L 18.40625 75.984375 
L 18.40625 0 
L 9.421875 0 
z
" id="DejaVuSans-108"/>
      </defs>
      <use xlink:href="#DejaVuSans-66"/>
      <use x="68.603516" xlink:href="#DejaVuSans-101"/>
      <use x="130.126953" xlink:href="#DejaVuSans-115"/>
      <use x="182.226562" xlink:href="#DejaVuSans-116"/>
      <use x="221.435547" xlink:href="#DejaVuSans-32"/>
      <use x="253.222656" xlink:href="#DejaVuSans-102"/>
      <use x="288.427734" xlink:href="#DejaVuSans-117"/>
      <use x="351.806641" xlink:href="#DejaVuSans-110"/>
      <use x="415.185547" xlink:href="#DejaVuSans-99"/>
      <use x="470.166016" xlink:href="#DejaVuSans-116"/>
      <use x="509.375" xlink:href="#DejaVuSans-105"/>
      <use x="537.158203" xlink:href="#DejaVuSans-111"/>
      <use x="598.339844" xlink:href="#DejaVuSans-110"/>
      <use x="661.71875" xlink:href="#DejaVuSans-32"/>
      <use x="693.505859" xlink:href="#DejaVuSans-101"/>
      <use x="755.029297" xlink:href="#DejaVuSans-118"/>
      <use x="814.208984" xlink:href="#DejaVuSans-97"/>
      <use x="875.488281" xlink:href="#DejaVuSans-108"/>
      <use x="903.271484" xlink:href="#DejaVuSans-117"/>
      <use x="966.650391" xlink:href="#DejaVuSans-97"/>
      <use x="1027.929688" xlink:href="#DejaVuSans-116"/>
      <use x="1067.138672" xlink:href="#DejaVuSans-105"/>
      <use x="1094.921875" xlink:href="#DejaVuSans-111"/>
      <use x="1156.103516" xlink:href="#DejaVuSans-110"/>
     </g>
    </g>
   </g>
   <g id="line2d_14">
    <path clip-path="url(#p7d2fe588bb)" d="M 65.16 212.076879 
L 65.16 212.076879 
" style="fill:none;stroke:#545454;stroke-linecap:square;stroke-width:1.5;"/>
   </g>
   <g id="line2d_15">
    <path clip-path="url(#p7d2fe588bb)" d="M 65.16 212.076879 
L 65.16 212.076879 
" style="fill:none;stroke:#545454;stroke-linecap:square;stroke-width:1.5;"/>
   </g>
   <g id="line2d_16">
    <path clip-path="url(#p7d2fe588bb)" d="M 62.4258 212.076879 
L 67.8942 212.076879 
" style="fill:none;stroke:#545454;stroke-linecap:square;stroke-width:1.5;"/>
   </g>
   <g id="line2d_17">
    <path clip-path="url(#p7d2fe588bb)" d="M 62.4258 212.076879 
L 67.8942 212.076879 
" style="fill:none;stroke:#545454;stroke-linecap:square;stroke-width:1.5;"/>
   </g>
   <g id="line2d_18"/>
   <g id="line2d_19">
    <path clip-path="url(#p7d2fe588bb)" d="M 76.32 161.222574 
L 76.32 192.71148 
" style="fill:none;stroke:#545454;stroke-linecap:square;stroke-width:1.5;"/>
   </g>
   <g id="line2d_20">
    <path clip-path="url(#p7d2fe588bb)" d="M 76.32 139.406947 
L 76.32 117.694235 
" style="fill:none;stroke:#545454;stroke-linecap:square;stroke-width:1.5;"/>
   </g>
   <g id="line2d_21">
    <path clip-path="url(#p7d2fe588bb)" d="M 73.5858 192.71148 
L 79.0542 192.71148 
" style="fill:none;stroke:#545454;stroke-linecap:square;stroke-width:1.5;"/>
   </g>
   <g id="line2d_22">
    <path clip-path="url(#p7d2fe588bb)" d="M 73.5858 117.694235 
L 79.0542 117.694235 
" style="fill:none;stroke:#545454;stroke-linecap:square;stroke-width:1.5;"/>
   </g>
   <g id="line2d_23"/>
   <g id="line2d_24">
    <path clip-path="url(#p7d2fe588bb)" d="M 87.48 174.875537 
L 87.48 174.875537 
" style="fill:none;stroke:#545454;stroke-linecap:square;stroke-width:1.5;"/>
   </g>
   <g id="line2d_25">
    <path clip-path="url(#p7d2fe588bb)" d="M 87.48 174.762025 
L 87.48 174.762025 
" style="fill:none;stroke:#545454;stroke-linecap:square;stroke-width:1.5;"/>
   </g>
   <g id="line2d_26">
    <path clip-path="url(#p7d2fe588bb)" d="M 84.7458 174.875537 
L 90.2142 174.875537 
" style="fill:none;stroke:#545454;stroke-linecap:square;stroke-width:1.5;"/>
   </g>
   <g id="line2d_27">
    <path clip-path="url(#p7d2fe588bb)" d="M 84.7458 174.762025 
L 90.2142 174.762025 
" style="fill:none;stroke:#545454;stroke-linecap:square;stroke-width:1.5;"/>
   </g>
   <g id="line2d_28">
    <defs>
     <path d="M 0 3.535534 
L 2.12132 0 
L 0 -3.535534 
L -2.12132 0 
z
" id="m88cd99c812" style="stroke:#545454;stroke-linejoin:miter;"/>
    </defs>
    <g clip-path="url(#p7d2fe588bb)">
     <use style="fill:#545454;stroke:#545454;stroke-linejoin:miter;" x="87.48" xlink:href="#m88cd99c812" y="174.50782"/>
     <use style="fill:#545454;stroke:#545454;stroke-linejoin:miter;" x="87.48" xlink:href="#m88cd99c812" y="174.420223"/>
     <use style="fill:#545454;stroke:#545454;stroke-linejoin:miter;" x="87.48" xlink:href="#m88cd99c812" y="174.420223"/>
    </g>
   </g>
   <g id="line2d_29">
    <path clip-path="url(#p7d2fe588bb)" d="M 98.64 212.089357 
L 98.64 212.089479 
" style="fill:none;stroke:#545454;stroke-linecap:square;stroke-width:1.5;"/>
   </g>
   <g id="line2d_30">
    <path clip-path="url(#p7d2fe588bb)" d="M 98.64 212.088629 
L 98.64 212.087955 
" style="fill:none;stroke:#545454;stroke-linecap:square;stroke-width:1.5;"/>
   </g>
   <g id="line2d_31">
    <path clip-path="url(#p7d2fe588bb)" d="M 95.9058 212.089479 
L 101.3742 212.089479 
" style="fill:none;stroke:#545454;stroke-linecap:square;stroke-width:1.5;"/>
   </g>
   <g id="line2d_32">
    <path clip-path="url(#p7d2fe588bb)" d="M 95.9058 212.087955 
L 101.3742 212.087955 
" style="fill:none;stroke:#545454;stroke-linecap:square;stroke-width:1.5;"/>
   </g>
   <g id="line2d_33">
    <g clip-path="url(#p7d2fe588bb)">
     <use style="fill:#545454;stroke:#545454;stroke-linejoin:miter;" x="98.64" xlink:href="#m88cd99c812" y="212.085477"/>
     <use style="fill:#545454;stroke:#545454;stroke-linejoin:miter;" x="98.64" xlink:href="#m88cd99c812" y="206.896753"/>
     <use style="fill:#545454;stroke:#545454;stroke-linejoin:miter;" x="98.64" xlink:href="#m88cd99c812" y="212.084412"/>
     <use style="fill:#545454;stroke:#545454;stroke-linejoin:miter;" x="98.64" xlink:href="#m88cd99c812" y="212.072326"/>
    </g>
   </g>
   <g id="line2d_34">
    <path clip-path="url(#p7d2fe588bb)" d="M 120.96 194.014455 
L 120.96 217.032524 
" style="fill:none;stroke:#545454;stroke-linecap:square;stroke-width:1.5;"/>
   </g>
   <g id="line2d_35">
    <path clip-path="url(#p7d2fe588bb)" d="M 120.96 87.599388 
L 120.96 55.17116 
" style="fill:none;stroke:#545454;stroke-linecap:square;stroke-width:1.5;"/>
   </g>
   <g id="line2d_36">
    <path clip-path="url(#p7d2fe588bb)" d="M 118.2258 217.032524 
L 123.6942 217.032524 
" style="fill:none;stroke:#545454;stroke-linecap:square;stroke-width:1.5;"/>
   </g>
   <g id="line2d_37">
    <path clip-path="url(#p7d2fe588bb)" d="M 118.2258 55.17116 
L 123.6942 55.17116 
" style="fill:none;stroke:#545454;stroke-linecap:square;stroke-width:1.5;"/>
   </g>
   <g id="line2d_38"/>
   <g id="line2d_39">
    <path clip-path="url(#p7d2fe588bb)" d="M 132.12 175.378112 
L 132.12 206.152826 
" style="fill:none;stroke:#545454;stroke-linecap:square;stroke-width:1.5;"/>
   </g>
   <g id="line2d_40">
    <path clip-path="url(#p7d2fe588bb)" d="M 132.12 116.565239 
L 132.12 60.109046 
" style="fill:none;stroke:#545454;stroke-linecap:square;stroke-width:1.5;"/>
   </g>
   <g id="line2d_41">
    <path clip-path="url(#p7d2fe588bb)" d="M 129.3858 206.152826 
L 134.8542 206.152826 
" style="fill:none;stroke:#545454;stroke-linecap:square;stroke-width:1.5;"/>
   </g>
   <g id="line2d_42">
    <path clip-path="url(#p7d2fe588bb)" d="M 129.3858 60.109046 
L 134.8542 60.109046 
" style="fill:none;stroke:#545454;stroke-linecap:square;stroke-width:1.5;"/>
   </g>
   <g id="line2d_43"/>
   <g id="line2d_44">
    <path clip-path="url(#p7d2fe588bb)" d="M 143.28 177.86561 
L 143.28 180.562139 
" style="fill:none;stroke:#545454;stroke-linecap:square;stroke-width:1.5;"/>
   </g>
   <g id="line2d_45">
    <path clip-path="url(#p7d2fe588bb)" d="M 143.28 174.908542 
L 143.28 173.137759 
" style="fill:none;stroke:#545454;stroke-linecap:square;stroke-width:1.5;"/>
   </g>
   <g id="line2d_46">
    <path clip-path="url(#p7d2fe588bb)" d="M 140.5458 180.562139 
L 146.0142 180.562139 
" style="fill:none;stroke:#545454;stroke-linecap:square;stroke-width:1.5;"/>
   </g>
   <g id="line2d_47">
    <path clip-path="url(#p7d2fe588bb)" d="M 140.5458 173.137759 
L 146.0142 173.137759 
" style="fill:none;stroke:#545454;stroke-linecap:square;stroke-width:1.5;"/>
   </g>
   <g id="line2d_48"/>
   <g id="line2d_49">
    <path clip-path="url(#p7d2fe588bb)" d="M 154.44 218.161073 
L 154.44 218.482099 
" style="fill:none;stroke:#545454;stroke-linecap:square;stroke-width:1.5;"/>
   </g>
   <g id="line2d_50">
    <path clip-path="url(#p7d2fe588bb)" d="M 154.44 215.64652 
L 154.44 213.198797 
" style="fill:none;stroke:#545454;stroke-linecap:square;stroke-width:1.5;"/>
   </g>
   <g id="line2d_51">
    <path clip-path="url(#p7d2fe588bb)" d="M 151.7058 218.482099 
L 157.1742 218.482099 
" style="fill:none;stroke:#545454;stroke-linecap:square;stroke-width:1.5;"/>
   </g>
   <g id="line2d_52">
    <path clip-path="url(#p7d2fe588bb)" d="M 151.7058 213.198797 
L 157.1742 213.198797 
" style="fill:none;stroke:#545454;stroke-linecap:square;stroke-width:1.5;"/>
   </g>
   <g id="line2d_53"/>
   <g id="line2d_54">
    <path clip-path="url(#p7d2fe588bb)" d="M 176.76 167.716391 
L 176.76 195.95646 
" style="fill:none;stroke:#545454;stroke-linecap:square;stroke-width:1.5;"/>
   </g>
   <g id="line2d_55">
    <path clip-path="url(#p7d2fe588bb)" d="M 176.76 60.698951 
L 176.76 44.443636 
" style="fill:none;stroke:#545454;stroke-linecap:square;stroke-width:1.5;"/>
   </g>
   <g id="line2d_56">
    <path clip-path="url(#p7d2fe588bb)" d="M 174.0258 195.95646 
L 179.4942 195.95646 
" style="fill:none;stroke:#545454;stroke-linecap:square;stroke-width:1.5;"/>
   </g>
   <g id="line2d_57">
    <path clip-path="url(#p7d2fe588bb)" d="M 174.0258 44.443636 
L 179.4942 44.443636 
" style="fill:none;stroke:#545454;stroke-linecap:square;stroke-width:1.5;"/>
   </g>
   <g id="line2d_58"/>
   <g id="line2d_59">
    <path clip-path="url(#p7d2fe588bb)" d="M 187.92 160.865082 
L 187.92 197.080875 
" style="fill:none;stroke:#545454;stroke-linecap:square;stroke-width:1.5;"/>
   </g>
   <g id="line2d_60">
    <path clip-path="url(#p7d2fe588bb)" d="M 187.92 132.113702 
L 187.92 91.620241 
" style="fill:none;stroke:#545454;stroke-linecap:square;stroke-width:1.5;"/>
   </g>
   <g id="line2d_61">
    <path clip-path="url(#p7d2fe588bb)" d="M 185.1858 197.080875 
L 190.6542 197.080875 
" style="fill:none;stroke:#545454;stroke-linecap:square;stroke-width:1.5;"/>
   </g>
   <g id="line2d_62">
    <path clip-path="url(#p7d2fe588bb)" d="M 185.1858 91.620241 
L 190.6542 91.620241 
" style="fill:none;stroke:#545454;stroke-linecap:square;stroke-width:1.5;"/>
   </g>
   <g id="line2d_63">
    <g clip-path="url(#p7d2fe588bb)">
     <use style="fill:#545454;stroke:#545454;stroke-linejoin:miter;" x="187.92" xlink:href="#m88cd99c812" y="70.956836"/>
    </g>
   </g>
   <g id="line2d_64">
    <path clip-path="url(#p7d2fe588bb)" d="M 199.08 179.155403 
L 199.08 180.381837 
" style="fill:none;stroke:#545454;stroke-linecap:square;stroke-width:1.5;"/>
   </g>
   <g id="line2d_65">
    <path clip-path="url(#p7d2fe588bb)" d="M 199.08 176.121474 
L 199.08 173.692651 
" style="fill:none;stroke:#545454;stroke-linecap:square;stroke-width:1.5;"/>
   </g>
   <g id="line2d_66">
    <path clip-path="url(#p7d2fe588bb)" d="M 196.3458 180.381837 
L 201.8142 180.381837 
" style="fill:none;stroke:#545454;stroke-linecap:square;stroke-width:1.5;"/>
   </g>
   <g id="line2d_67">
    <path clip-path="url(#p7d2fe588bb)" d="M 196.3458 173.692651 
L 201.8142 173.692651 
" style="fill:none;stroke:#545454;stroke-linecap:square;stroke-width:1.5;"/>
   </g>
   <g id="line2d_68">
    <g clip-path="url(#p7d2fe588bb)">
     <use style="fill:#545454;stroke:#545454;stroke-linejoin:miter;" x="199.08" xlink:href="#m88cd99c812" y="185.045538"/>
     <use style="fill:#545454;stroke:#545454;stroke-linejoin:miter;" x="199.08" xlink:href="#m88cd99c812" y="168.796842"/>
    </g>
   </g>
   <g id="line2d_69">
    <path clip-path="url(#p7d2fe588bb)" d="M 210.24 220.362011 
L 210.24 222.004997 
" style="fill:none;stroke:#545454;stroke-linecap:square;stroke-width:1.5;"/>
   </g>
   <g id="line2d_70">
    <path clip-path="url(#p7d2fe588bb)" d="M 210.24 218.497248 
L 210.24 215.808207 
" style="fill:none;stroke:#545454;stroke-linecap:square;stroke-width:1.5;"/>
   </g>
   <g id="line2d_71">
    <path clip-path="url(#p7d2fe588bb)" d="M 207.5058 222.004997 
L 212.9742 222.004997 
" style="fill:none;stroke:#545454;stroke-linecap:square;stroke-width:1.5;"/>
   </g>
   <g id="line2d_72">
    <path clip-path="url(#p7d2fe588bb)" d="M 207.5058 215.808207 
L 212.9742 215.808207 
" style="fill:none;stroke:#545454;stroke-linecap:square;stroke-width:1.5;"/>
   </g>
   <g id="line2d_73">
    <g clip-path="url(#p7d2fe588bb)">
     <use style="fill:#545454;stroke:#545454;stroke-linejoin:miter;" x="210.24" xlink:href="#m88cd99c812" y="224.84022"/>
     <use style="fill:#545454;stroke:#545454;stroke-linejoin:miter;" x="210.24" xlink:href="#m88cd99c812" y="215.470379"/>
    </g>
   </g>
   <g id="line2d_74">
    <path clip-path="url(#p7d2fe588bb)" d="M 232.56 203.748637 
L 232.56 224.452089 
" style="fill:none;stroke:#545454;stroke-linecap:square;stroke-width:1.5;"/>
   </g>
   <g id="line2d_75">
    <path clip-path="url(#p7d2fe588bb)" d="M 232.56 76.752213 
L 232.56 58.58264 
" style="fill:none;stroke:#545454;stroke-linecap:square;stroke-width:1.5;"/>
   </g>
   <g id="line2d_76">
    <path clip-path="url(#p7d2fe588bb)" d="M 229.8258 224.452089 
L 235.2942 224.452089 
" style="fill:none;stroke:#545454;stroke-linecap:square;stroke-width:1.5;"/>
   </g>
   <g id="line2d_77">
    <path clip-path="url(#p7d2fe588bb)" d="M 229.8258 58.58264 
L 235.2942 58.58264 
" style="fill:none;stroke:#545454;stroke-linecap:square;stroke-width:1.5;"/>
   </g>
   <g id="line2d_78"/>
   <g id="line2d_79">
    <path clip-path="url(#p7d2fe588bb)" d="M 243.72 174.580418 
L 243.72 205.895954 
" style="fill:none;stroke:#545454;stroke-linecap:square;stroke-width:1.5;"/>
   </g>
   <g id="line2d_80">
    <path clip-path="url(#p7d2fe588bb)" d="M 243.72 134.873319 
L 243.72 90.342928 
" style="fill:none;stroke:#545454;stroke-linecap:square;stroke-width:1.5;"/>
   </g>
   <g id="line2d_81">
    <path clip-path="url(#p7d2fe588bb)" d="M 240.9858 205.895954 
L 246.4542 205.895954 
" style="fill:none;stroke:#545454;stroke-linecap:square;stroke-width:1.5;"/>
   </g>
   <g id="line2d_82">
    <path clip-path="url(#p7d2fe588bb)" d="M 240.9858 90.342928 
L 246.4542 90.342928 
" style="fill:none;stroke:#545454;stroke-linecap:square;stroke-width:1.5;"/>
   </g>
   <g id="line2d_83"/>
   <g id="line2d_84">
    <path clip-path="url(#p7d2fe588bb)" d="M 254.88 184.794343 
L 254.88 189.20271 
" style="fill:none;stroke:#545454;stroke-linecap:square;stroke-width:1.5;"/>
   </g>
   <g id="line2d_85">
    <path clip-path="url(#p7d2fe588bb)" d="M 254.88 181.18499 
L 254.88 176.7308 
" style="fill:none;stroke:#545454;stroke-linecap:square;stroke-width:1.5;"/>
   </g>
   <g id="line2d_86">
    <path clip-path="url(#p7d2fe588bb)" d="M 252.1458 189.20271 
L 257.6142 189.20271 
" style="fill:none;stroke:#545454;stroke-linecap:square;stroke-width:1.5;"/>
   </g>
   <g id="line2d_87">
    <path clip-path="url(#p7d2fe588bb)" d="M 252.1458 176.7308 
L 257.6142 176.7308 
" style="fill:none;stroke:#545454;stroke-linecap:square;stroke-width:1.5;"/>
   </g>
   <g id="line2d_88">
    <g clip-path="url(#p7d2fe588bb)">
     <use style="fill:#545454;stroke:#545454;stroke-linejoin:miter;" x="254.88" xlink:href="#m88cd99c812" y="175.376201"/>
     <use style="fill:#545454;stroke:#545454;stroke-linejoin:miter;" x="254.88" xlink:href="#m88cd99c812" y="173.771473"/>
    </g>
   </g>
   <g id="line2d_89">
    <path clip-path="url(#p7d2fe588bb)" d="M 266.04 225.671155 
L 266.04 231.56958 
" style="fill:none;stroke:#545454;stroke-linecap:square;stroke-width:1.5;"/>
   </g>
   <g id="line2d_90">
    <path clip-path="url(#p7d2fe588bb)" d="M 266.04 219.032073 
L 266.04 215.413906 
" style="fill:none;stroke:#545454;stroke-linecap:square;stroke-width:1.5;"/>
   </g>
   <g id="line2d_91">
    <path clip-path="url(#p7d2fe588bb)" d="M 263.3058 231.56958 
L 268.7742 231.56958 
" style="fill:none;stroke:#545454;stroke-linecap:square;stroke-width:1.5;"/>
   </g>
   <g id="line2d_92">
    <path clip-path="url(#p7d2fe588bb)" d="M 263.3058 215.413906 
L 268.7742 215.413906 
" style="fill:none;stroke:#545454;stroke-linecap:square;stroke-width:1.5;"/>
   </g>
   <g id="line2d_93"/>
   <g id="line2d_94">
    <path clip-path="url(#p7d2fe588bb)" d="M 288.36 163.55945 
L 288.36 217.966306 
" style="fill:none;stroke:#545454;stroke-linecap:square;stroke-width:1.5;"/>
   </g>
   <g id="line2d_95">
    <path clip-path="url(#p7d2fe588bb)" d="M 288.36 69.250568 
L 288.36 57.040247 
" style="fill:none;stroke:#545454;stroke-linecap:square;stroke-width:1.5;"/>
   </g>
   <g id="line2d_96">
    <path clip-path="url(#p7d2fe588bb)" d="M 285.6258 217.966306 
L 291.0942 217.966306 
" style="fill:none;stroke:#545454;stroke-linecap:square;stroke-width:1.5;"/>
   </g>
   <g id="line2d_97">
    <path clip-path="url(#p7d2fe588bb)" d="M 285.6258 57.040247 
L 291.0942 57.040247 
" style="fill:none;stroke:#545454;stroke-linecap:square;stroke-width:1.5;"/>
   </g>
   <g id="line2d_98"/>
   <g id="line2d_99">
    <path clip-path="url(#p7d2fe588bb)" d="M 299.52 177.615061 
L 299.52 216.548139 
" style="fill:none;stroke:#545454;stroke-linecap:square;stroke-width:1.5;"/>
   </g>
   <g id="line2d_100">
    <path clip-path="url(#p7d2fe588bb)" d="M 299.52 105.858402 
L 299.52 84.816983 
" style="fill:none;stroke:#545454;stroke-linecap:square;stroke-width:1.5;"/>
   </g>
   <g id="line2d_101">
    <path clip-path="url(#p7d2fe588bb)" d="M 296.7858 216.548139 
L 302.2542 216.548139 
" style="fill:none;stroke:#545454;stroke-linecap:square;stroke-width:1.5;"/>
   </g>
   <g id="line2d_102">
    <path clip-path="url(#p7d2fe588bb)" d="M 296.7858 84.816983 
L 302.2542 84.816983 
" style="fill:none;stroke:#545454;stroke-linecap:square;stroke-width:1.5;"/>
   </g>
   <g id="line2d_103"/>
   <g id="line2d_104">
    <path clip-path="url(#p7d2fe588bb)" d="M 310.68 189.854181 
L 310.68 198.726646 
" style="fill:none;stroke:#545454;stroke-linecap:square;stroke-width:1.5;"/>
   </g>
   <g id="line2d_105">
    <path clip-path="url(#p7d2fe588bb)" d="M 310.68 181.612485 
L 310.68 175.725522 
" style="fill:none;stroke:#545454;stroke-linecap:square;stroke-width:1.5;"/>
   </g>
   <g id="line2d_106">
    <path clip-path="url(#p7d2fe588bb)" d="M 307.9458 198.726646 
L 313.4142 198.726646 
" style="fill:none;stroke:#545454;stroke-linecap:square;stroke-width:1.5;"/>
   </g>
   <g id="line2d_107">
    <path clip-path="url(#p7d2fe588bb)" d="M 307.9458 175.725522 
L 313.4142 175.725522 
" style="fill:none;stroke:#545454;stroke-linecap:square;stroke-width:1.5;"/>
   </g>
   <g id="line2d_108"/>
   <g id="line2d_109">
    <path clip-path="url(#p7d2fe588bb)" d="M 321.84 229.014214 
L 321.84 231.856323 
" style="fill:none;stroke:#545454;stroke-linecap:square;stroke-width:1.5;"/>
   </g>
   <g id="line2d_110">
    <path clip-path="url(#p7d2fe588bb)" d="M 321.84 225.497112 
L 321.84 221.515431 
" style="fill:none;stroke:#545454;stroke-linecap:square;stroke-width:1.5;"/>
   </g>
   <g id="line2d_111">
    <path clip-path="url(#p7d2fe588bb)" d="M 319.1058 231.856323 
L 324.5742 231.856323 
" style="fill:none;stroke:#545454;stroke-linecap:square;stroke-width:1.5;"/>
   </g>
   <g id="line2d_112">
    <path clip-path="url(#p7d2fe588bb)" d="M 319.1058 221.515431 
L 324.5742 221.515431 
" style="fill:none;stroke:#545454;stroke-linecap:square;stroke-width:1.5;"/>
   </g>
   <g id="line2d_113">
    <g clip-path="url(#p7d2fe588bb)">
     <use style="fill:#545454;stroke:#545454;stroke-linejoin:miter;" x="321.84" xlink:href="#m88cd99c812" y="237.676093"/>
     <use style="fill:#545454;stroke:#545454;stroke-linejoin:miter;" x="321.84" xlink:href="#m88cd99c812" y="235.55291"/>
     <use style="fill:#545454;stroke:#545454;stroke-linejoin:miter;" x="321.84" xlink:href="#m88cd99c812" y="219.518651"/>
     <use style="fill:#545454;stroke:#545454;stroke-linejoin:miter;" x="321.84" xlink:href="#m88cd99c812" y="218.140064"/>
     <use style="fill:#545454;stroke:#545454;stroke-linejoin:miter;" x="321.84" xlink:href="#m88cd99c812" y="219.714185"/>
    </g>
   </g>
   <g id="line2d_114">
    <path clip-path="url(#p7d2fe588bb)" d="M 344.16 176.538769 
L 344.16 214.551488 
" style="fill:none;stroke:#545454;stroke-linecap:square;stroke-width:1.5;"/>
   </g>
   <g id="line2d_115">
    <path clip-path="url(#p7d2fe588bb)" d="M 344.16 97.278458 
L 344.16 69.001746 
" style="fill:none;stroke:#545454;stroke-linecap:square;stroke-width:1.5;"/>
   </g>
   <g id="line2d_116">
    <path clip-path="url(#p7d2fe588bb)" d="M 341.4258 214.551488 
L 346.8942 214.551488 
" style="fill:none;stroke:#545454;stroke-linecap:square;stroke-width:1.5;"/>
   </g>
   <g id="line2d_117">
    <path clip-path="url(#p7d2fe588bb)" d="M 341.4258 69.001746 
L 346.8942 69.001746 
" style="fill:none;stroke:#545454;stroke-linecap:square;stroke-width:1.5;"/>
   </g>
   <g id="line2d_118"/>
   <g id="line2d_119">
    <path clip-path="url(#p7d2fe588bb)" d="M 355.32 167.766689 
L 355.32 181.764221 
" style="fill:none;stroke:#545454;stroke-linecap:square;stroke-width:1.5;"/>
   </g>
   <g id="line2d_120">
    <path clip-path="url(#p7d2fe588bb)" d="M 355.32 140.518462 
L 355.32 117.060364 
" style="fill:none;stroke:#545454;stroke-linecap:square;stroke-width:1.5;"/>
   </g>
   <g id="line2d_121">
    <path clip-path="url(#p7d2fe588bb)" d="M 352.5858 181.764221 
L 358.0542 181.764221 
" style="fill:none;stroke:#545454;stroke-linecap:square;stroke-width:1.5;"/>
   </g>
   <g id="line2d_122">
    <path clip-path="url(#p7d2fe588bb)" d="M 352.5858 117.060364 
L 358.0542 117.060364 
" style="fill:none;stroke:#545454;stroke-linecap:square;stroke-width:1.5;"/>
   </g>
   <g id="line2d_123">
    <g clip-path="url(#p7d2fe588bb)">
     <use style="fill:#545454;stroke:#545454;stroke-linejoin:miter;" x="355.32" xlink:href="#m88cd99c812" y="225.978359"/>
     <use style="fill:#545454;stroke:#545454;stroke-linejoin:miter;" x="355.32" xlink:href="#m88cd99c812" y="59.546073"/>
    </g>
   </g>
   <g id="line2d_124">
    <path clip-path="url(#p7d2fe588bb)" d="M 366.48 201.26118 
L 366.48 220.758944 
" style="fill:none;stroke:#545454;stroke-linecap:square;stroke-width:1.5;"/>
   </g>
   <g id="line2d_125">
    <path clip-path="url(#p7d2fe588bb)" d="M 366.48 186.038484 
L 366.48 172.133879 
" style="fill:none;stroke:#545454;stroke-linecap:square;stroke-width:1.5;"/>
   </g>
   <g id="line2d_126">
    <path clip-path="url(#p7d2fe588bb)" d="M 363.7458 220.758944 
L 369.2142 220.758944 
" style="fill:none;stroke:#545454;stroke-linecap:square;stroke-width:1.5;"/>
   </g>
   <g id="line2d_127">
    <path clip-path="url(#p7d2fe588bb)" d="M 363.7458 172.133879 
L 369.2142 172.133879 
" style="fill:none;stroke:#545454;stroke-linecap:square;stroke-width:1.5;"/>
   </g>
   <g id="line2d_128">
    <g clip-path="url(#p7d2fe588bb)">
     <use style="fill:#545454;stroke:#545454;stroke-linejoin:miter;" x="366.48" xlink:href="#m88cd99c812" y="228.641532"/>
    </g>
   </g>
   <g id="line2d_129">
    <path clip-path="url(#p7d2fe588bb)" d="M 377.64 232.831938 
L 377.64 242.116364 
" style="fill:none;stroke:#545454;stroke-linecap:square;stroke-width:1.5;"/>
   </g>
   <g id="line2d_130">
    <path clip-path="url(#p7d2fe588bb)" d="M 377.64 224.880892 
L 377.64 221.104094 
" style="fill:none;stroke:#545454;stroke-linecap:square;stroke-width:1.5;"/>
   </g>
   <g id="line2d_131">
    <path clip-path="url(#p7d2fe588bb)" d="M 374.9058 242.116364 
L 380.3742 242.116364 
" style="fill:none;stroke:#545454;stroke-linecap:square;stroke-width:1.5;"/>
   </g>
   <g id="line2d_132">
    <path clip-path="url(#p7d2fe588bb)" d="M 374.9058 221.104094 
L 380.3742 221.104094 
" style="fill:none;stroke:#545454;stroke-linecap:square;stroke-width:1.5;"/>
   </g>
   <g id="line2d_133"/>
   <g id="line2d_134">
    <path clip-path="url(#p7d2fe588bb)" d="M 59.6916 212.076879 
L 70.6284 212.076879 
" style="fill:none;stroke:#545454;stroke-linecap:square;stroke-width:1.5;"/>
   </g>
   <g id="line2d_135">
    <path clip-path="url(#p7d2fe588bb)" d="M 70.8516 154.82749 
L 81.7884 154.82749 
" style="fill:none;stroke:#545454;stroke-linecap:square;stroke-width:1.5;"/>
   </g>
   <g id="line2d_136">
    <path clip-path="url(#p7d2fe588bb)" d="M 82.0116 174.837777 
L 92.9484 174.837777 
" style="fill:none;stroke:#545454;stroke-linecap:square;stroke-width:1.5;"/>
   </g>
   <g id="line2d_137">
    <path clip-path="url(#p7d2fe588bb)" d="M 93.1716 212.089135 
L 104.1084 212.089135 
" style="fill:none;stroke:#545454;stroke-linecap:square;stroke-width:1.5;"/>
   </g>
   <g id="line2d_138">
    <path clip-path="url(#p7d2fe588bb)" d="M 115.4916 164.868587 
L 126.4284 164.868587 
" style="fill:none;stroke:#545454;stroke-linecap:square;stroke-width:1.5;"/>
   </g>
   <g id="line2d_139">
    <path clip-path="url(#p7d2fe588bb)" d="M 126.6516 148.255173 
L 137.5884 148.255173 
" style="fill:none;stroke:#545454;stroke-linecap:square;stroke-width:1.5;"/>
   </g>
   <g id="line2d_140">
    <path clip-path="url(#p7d2fe588bb)" d="M 137.8116 175.636114 
L 148.7484 175.636114 
" style="fill:none;stroke:#545454;stroke-linecap:square;stroke-width:1.5;"/>
   </g>
   <g id="line2d_141">
    <path clip-path="url(#p7d2fe588bb)" d="M 148.9716 216.325336 
L 159.9084 216.325336 
" style="fill:none;stroke:#545454;stroke-linecap:square;stroke-width:1.5;"/>
   </g>
   <g id="line2d_142">
    <path clip-path="url(#p7d2fe588bb)" d="M 171.2916 80.194218 
L 182.2284 80.194218 
" style="fill:none;stroke:#545454;stroke-linecap:square;stroke-width:1.5;"/>
   </g>
   <g id="line2d_143">
    <path clip-path="url(#p7d2fe588bb)" d="M 182.4516 151.96178 
L 193.3884 151.96178 
" style="fill:none;stroke:#545454;stroke-linecap:square;stroke-width:1.5;"/>
   </g>
   <g id="line2d_144">
    <path clip-path="url(#p7d2fe588bb)" d="M 193.6116 177.413005 
L 204.5484 177.413005 
" style="fill:none;stroke:#545454;stroke-linecap:square;stroke-width:1.5;"/>
   </g>
   <g id="line2d_145">
    <path clip-path="url(#p7d2fe588bb)" d="M 204.7716 219.647575 
L 215.7084 219.647575 
" style="fill:none;stroke:#545454;stroke-linecap:square;stroke-width:1.5;"/>
   </g>
   <g id="line2d_146">
    <path clip-path="url(#p7d2fe588bb)" d="M 227.0916 117.371727 
L 238.0284 117.371727 
" style="fill:none;stroke:#545454;stroke-linecap:square;stroke-width:1.5;"/>
   </g>
   <g id="line2d_147">
    <path clip-path="url(#p7d2fe588bb)" d="M 238.2516 154.763864 
L 249.1884 154.763864 
" style="fill:none;stroke:#545454;stroke-linecap:square;stroke-width:1.5;"/>
   </g>
   <g id="line2d_148">
    <path clip-path="url(#p7d2fe588bb)" d="M 249.4116 183.631839 
L 260.3484 183.631839 
" style="fill:none;stroke:#545454;stroke-linecap:square;stroke-width:1.5;"/>
   </g>
   <g id="line2d_149">
    <path clip-path="url(#p7d2fe588bb)" d="M 260.5716 223.513781 
L 271.5084 223.513781 
" style="fill:none;stroke:#545454;stroke-linecap:square;stroke-width:1.5;"/>
   </g>
   <g id="line2d_150">
    <path clip-path="url(#p7d2fe588bb)" d="M 282.8916 85.413568 
L 293.8284 85.413568 
" style="fill:none;stroke:#545454;stroke-linecap:square;stroke-width:1.5;"/>
   </g>
   <g id="line2d_151">
    <path clip-path="url(#p7d2fe588bb)" d="M 294.0516 147.726975 
L 304.9884 147.726975 
" style="fill:none;stroke:#545454;stroke-linecap:square;stroke-width:1.5;"/>
   </g>
   <g id="line2d_152">
    <path clip-path="url(#p7d2fe588bb)" d="M 305.2116 183.639507 
L 316.1484 183.639507 
" style="fill:none;stroke:#545454;stroke-linecap:square;stroke-width:1.5;"/>
   </g>
   <g id="line2d_153">
    <path clip-path="url(#p7d2fe588bb)" d="M 316.3716 227.8536 
L 327.3084 227.8536 
" style="fill:none;stroke:#545454;stroke-linecap:square;stroke-width:1.5;"/>
   </g>
   <g id="line2d_154">
    <path clip-path="url(#p7d2fe588bb)" d="M 338.6916 130.071227 
L 349.6284 130.071227 
" style="fill:none;stroke:#545454;stroke-linecap:square;stroke-width:1.5;"/>
   </g>
   <g id="line2d_155">
    <path clip-path="url(#p7d2fe588bb)" d="M 349.8516 153.474507 
L 360.7884 153.474507 
" style="fill:none;stroke:#545454;stroke-linecap:square;stroke-width:1.5;"/>
   </g>
   <g id="line2d_156">
    <path clip-path="url(#p7d2fe588bb)" d="M 361.0116 193.456096 
L 371.9484 193.456096 
" style="fill:none;stroke:#545454;stroke-linecap:square;stroke-width:1.5;"/>
   </g>
   <g id="line2d_157">
    <path clip-path="url(#p7d2fe588bb)" d="M 372.1716 231.961109 
L 383.1084 231.961109 
" style="fill:none;stroke:#545454;stroke-linecap:square;stroke-width:1.5;"/>
   </g>
   <g id="patch_31">
    <path d="M 54 252 
L 54 34.56 
" style="fill:none;stroke:#000000;stroke-linecap:square;stroke-linejoin:miter;stroke-width:0.8;"/>
   </g>
   <g id="patch_32">
    <path d="M 388.8 252 
L 388.8 34.56 
" style="fill:none;stroke:#000000;stroke-linecap:square;stroke-linejoin:miter;stroke-width:0.8;"/>
   </g>
   <g id="patch_33">
    <path d="M 54 252 
L 388.8 252 
" style="fill:none;stroke:#000000;stroke-linecap:square;stroke-linejoin:miter;stroke-width:0.8;"/>
   </g>
   <g id="patch_34">
    <path d="M 54 34.56 
L 388.8 34.56 
" style="fill:none;stroke:#000000;stroke-linecap:square;stroke-linejoin:miter;stroke-width:0.8;"/>
   </g>
   <g id="legend_1">
    <g id="patch_35">
     <path d="M 61 116.22875 
L 149.707812 116.22875 
Q 151.707812 116.22875 151.707812 114.22875 
L 151.707812 41.56 
Q 151.707812 39.56 149.707812 39.56 
L 61 39.56 
Q 59 39.56 59 41.56 
L 59 114.22875 
Q 59 116.22875 61 116.22875 
z
" style="fill:#ffffff;opacity:0.8;stroke:#cccccc;stroke-linejoin:miter;"/>
    </g>
    <g id="text_16">
     <!-- Method -->
     <g transform="translate(86.600781 51.158437)scale(0.1 -0.1)">
      <defs>
       <path d="M 9.8125 72.90625 
L 24.515625 72.90625 
L 43.109375 23.296875 
L 61.8125 72.90625 
L 76.515625 72.90625 
L 76.515625 0 
L 66.890625 0 
L 66.890625 64.015625 
L 48.09375 14.015625 
L 38.1875 14.015625 
L 19.390625 64.015625 
L 19.390625 0 
L 9.8125 0 
z
" id="DejaVuSans-77"/>
       <path d="M 54.890625 33.015625 
L 54.890625 0 
L 45.90625 0 
L 45.90625 32.71875 
Q 45.90625 40.484375 42.875 44.328125 
Q 39.84375 48.1875 33.796875 48.1875 
Q 26.515625 48.1875 22.3125 43.546875 
Q 18.109375 38.921875 18.109375 30.90625 
L 18.109375 0 
L 9.078125 0 
L 9.078125 75.984375 
L 18.109375 75.984375 
L 18.109375 46.1875 
Q 21.34375 51.125 25.703125 53.5625 
Q 30.078125 56 35.796875 56 
Q 45.21875 56 50.046875 50.171875 
Q 54.890625 44.34375 54.890625 33.015625 
z
" id="DejaVuSans-104"/>
      </defs>
      <use xlink:href="#DejaVuSans-77"/>
      <use x="86.279297" xlink:href="#DejaVuSans-101"/>
      <use x="147.802734" xlink:href="#DejaVuSans-116"/>
      <use x="187.011719" xlink:href="#DejaVuSans-104"/>
      <use x="250.390625" xlink:href="#DejaVuSans-111"/>
      <use x="311.572266" xlink:href="#DejaVuSans-100"/>
     </g>
    </g>
    <g id="patch_36">
     <path d="M 63 65.836562 
L 83 65.836562 
L 83 58.836562 
L 63 58.836562 
z
" style="fill:#597dbf;stroke:#545454;stroke-linejoin:miter;stroke-width:0.75;"/>
    </g>
    <g id="text_17">
     <!-- Py-BOBYQA -->
     <g transform="translate(91 65.836562)scale(0.1 -0.1)">
      <defs>
       <path d="M 19.671875 64.796875 
L 19.671875 37.40625 
L 32.078125 37.40625 
Q 38.96875 37.40625 42.71875 40.96875 
Q 46.484375 44.53125 46.484375 51.125 
Q 46.484375 57.671875 42.71875 61.234375 
Q 38.96875 64.796875 32.078125 64.796875 
z
M 9.8125 72.90625 
L 32.078125 72.90625 
Q 44.34375 72.90625 50.609375 67.359375 
Q 56.890625 61.8125 56.890625 51.125 
Q 56.890625 40.328125 50.609375 34.8125 
Q 44.34375 29.296875 32.078125 29.296875 
L 19.671875 29.296875 
L 19.671875 0 
L 9.8125 0 
z
" id="DejaVuSans-80"/>
       <path d="M 32.171875 -5.078125 
Q 28.375 -14.84375 24.75 -17.8125 
Q 21.140625 -20.796875 15.09375 -20.796875 
L 7.90625 -20.796875 
L 7.90625 -13.28125 
L 13.1875 -13.28125 
Q 16.890625 -13.28125 18.9375 -11.515625 
Q 21 -9.765625 23.484375 -3.21875 
L 25.09375 0.875 
L 2.984375 54.6875 
L 12.5 54.6875 
L 29.59375 11.921875 
L 46.6875 54.6875 
L 56.203125 54.6875 
z
" id="DejaVuSans-121"/>
       <path d="M 4.890625 31.390625 
L 31.203125 31.390625 
L 31.203125 23.390625 
L 4.890625 23.390625 
z
" id="DejaVuSans-45"/>
       <path d="M 39.40625 66.21875 
Q 28.65625 66.21875 22.328125 58.203125 
Q 16.015625 50.203125 16.015625 36.375 
Q 16.015625 22.609375 22.328125 14.59375 
Q 28.65625 6.59375 39.40625 6.59375 
Q 50.140625 6.59375 56.421875 14.59375 
Q 62.703125 22.609375 62.703125 36.375 
Q 62.703125 50.203125 56.421875 58.203125 
Q 50.140625 66.21875 39.40625 66.21875 
z
M 39.40625 74.21875 
Q 54.734375 74.21875 63.90625 63.9375 
Q 73.09375 53.65625 73.09375 36.375 
Q 73.09375 19.140625 63.90625 8.859375 
Q 54.734375 -1.421875 39.40625 -1.421875 
Q 24.03125 -1.421875 14.8125 8.828125 
Q 5.609375 19.09375 5.609375 36.375 
Q 5.609375 53.65625 14.8125 63.9375 
Q 24.03125 74.21875 39.40625 74.21875 
z
" id="DejaVuSans-79"/>
       <path d="M -0.203125 72.90625 
L 10.40625 72.90625 
L 30.609375 42.921875 
L 50.6875 72.90625 
L 61.28125 72.90625 
L 35.5 34.71875 
L 35.5 0 
L 25.59375 0 
L 25.59375 34.71875 
z
" id="DejaVuSans-89"/>
       <path d="M 39.40625 66.21875 
Q 28.65625 66.21875 22.328125 58.203125 
Q 16.015625 50.203125 16.015625 36.375 
Q 16.015625 22.609375 22.328125 14.59375 
Q 28.65625 6.59375 39.40625 6.59375 
Q 50.140625 6.59375 56.421875 14.59375 
Q 62.703125 22.609375 62.703125 36.375 
Q 62.703125 50.203125 56.421875 58.203125 
Q 50.140625 66.21875 39.40625 66.21875 
z
M 53.21875 1.3125 
L 66.21875 -12.890625 
L 54.296875 -12.890625 
L 43.5 -1.21875 
Q 41.890625 -1.3125 41.03125 -1.359375 
Q 40.1875 -1.421875 39.40625 -1.421875 
Q 24.03125 -1.421875 14.8125 8.859375 
Q 5.609375 19.140625 5.609375 36.375 
Q 5.609375 53.65625 14.8125 63.9375 
Q 24.03125 74.21875 39.40625 74.21875 
Q 54.734375 74.21875 63.90625 63.9375 
Q 73.09375 53.65625 73.09375 36.375 
Q 73.09375 23.6875 67.984375 14.640625 
Q 62.890625 5.609375 53.21875 1.3125 
z
" id="DejaVuSans-81"/>
       <path d="M 34.1875 63.1875 
L 20.796875 26.90625 
L 47.609375 26.90625 
z
M 28.609375 72.90625 
L 39.796875 72.90625 
L 67.578125 0 
L 57.328125 0 
L 50.6875 18.703125 
L 17.828125 18.703125 
L 11.1875 0 
L 0.78125 0 
z
" id="DejaVuSans-65"/>
      </defs>
      <use xlink:href="#DejaVuSans-80"/>
      <use x="60.302734" xlink:href="#DejaVuSans-121"/>
      <use x="117.732422" xlink:href="#DejaVuSans-45"/>
      <use x="150.191406" xlink:href="#DejaVuSans-66"/>
      <use x="217.044922" xlink:href="#DejaVuSans-79"/>
      <use x="295.755859" xlink:href="#DejaVuSans-66"/>
      <use x="358.859375" xlink:href="#DejaVuSans-89"/>
      <use x="419.943359" xlink:href="#DejaVuSans-81"/>
      <use x="498.654297" xlink:href="#DejaVuSans-65"/>
     </g>
    </g>
    <g id="patch_37">
     <path d="M 63 80.514687 
L 83 80.514687 
L 83 73.514687 
L 63 73.514687 
z
" style="fill:#d98b5f;stroke:#545454;stroke-linejoin:miter;stroke-width:0.75;"/>
    </g>
    <g id="text_18">
     <!-- SQSnobfit -->
     <g transform="translate(91 80.514687)scale(0.1 -0.1)">
      <defs>
       <path d="M 53.515625 70.515625 
L 53.515625 60.890625 
Q 47.90625 63.578125 42.921875 64.890625 
Q 37.9375 66.21875 33.296875 66.21875 
Q 25.25 66.21875 20.875 63.09375 
Q 16.5 59.96875 16.5 54.203125 
Q 16.5 49.359375 19.40625 46.890625 
Q 22.3125 44.4375 30.421875 42.921875 
L 36.375 41.703125 
Q 47.40625 39.59375 52.65625 34.296875 
Q 57.90625 29 57.90625 20.125 
Q 57.90625 9.515625 50.796875 4.046875 
Q 43.703125 -1.421875 29.984375 -1.421875 
Q 24.8125 -1.421875 18.96875 -0.25 
Q 13.140625 0.921875 6.890625 3.21875 
L 6.890625 13.375 
Q 12.890625 10.015625 18.65625 8.296875 
Q 24.421875 6.59375 29.984375 6.59375 
Q 38.421875 6.59375 43.015625 9.90625 
Q 47.609375 13.234375 47.609375 19.390625 
Q 47.609375 24.75 44.3125 27.78125 
Q 41.015625 30.8125 33.5 32.328125 
L 27.484375 33.5 
Q 16.453125 35.6875 11.515625 40.375 
Q 6.59375 45.0625 6.59375 53.421875 
Q 6.59375 63.09375 13.40625 68.65625 
Q 20.21875 74.21875 32.171875 74.21875 
Q 37.3125 74.21875 42.625 73.28125 
Q 47.953125 72.359375 53.515625 70.515625 
z
" id="DejaVuSans-83"/>
       <path d="M 48.6875 27.296875 
Q 48.6875 37.203125 44.609375 42.84375 
Q 40.53125 48.484375 33.40625 48.484375 
Q 26.265625 48.484375 22.1875 42.84375 
Q 18.109375 37.203125 18.109375 27.296875 
Q 18.109375 17.390625 22.1875 11.75 
Q 26.265625 6.109375 33.40625 6.109375 
Q 40.53125 6.109375 44.609375 11.75 
Q 48.6875 17.390625 48.6875 27.296875 
z
M 18.109375 46.390625 
Q 20.953125 51.265625 25.265625 53.625 
Q 29.59375 56 35.59375 56 
Q 45.5625 56 51.78125 48.09375 
Q 58.015625 40.1875 58.015625 27.296875 
Q 58.015625 14.40625 51.78125 6.484375 
Q 45.5625 -1.421875 35.59375 -1.421875 
Q 29.59375 -1.421875 25.265625 0.953125 
Q 20.953125 3.328125 18.109375 8.203125 
L 18.109375 0 
L 9.078125 0 
L 9.078125 75.984375 
L 18.109375 75.984375 
z
" id="DejaVuSans-98"/>
      </defs>
      <use xlink:href="#DejaVuSans-83"/>
      <use x="63.476562" xlink:href="#DejaVuSans-81"/>
      <use x="142.1875" xlink:href="#DejaVuSans-83"/>
      <use x="205.664062" xlink:href="#DejaVuSans-110"/>
      <use x="269.042969" xlink:href="#DejaVuSans-111"/>
      <use x="330.224609" xlink:href="#DejaVuSans-98"/>
      <use x="393.701172" xlink:href="#DejaVuSans-102"/>
      <use x="428.90625" xlink:href="#DejaVuSans-105"/>
      <use x="456.689453" xlink:href="#DejaVuSans-116"/>
     </g>
    </g>
    <g id="patch_38">
     <path d="M 63 95.192813 
L 83 95.192813 
L 83 88.192813 
L 63 88.192813 
z
" style="fill:#75bf71;stroke:#545454;stroke-linejoin:miter;stroke-width:0.75;"/>
    </g>
    <g id="text_19">
     <!-- DIRECT -->
     <g transform="translate(91 95.192813)scale(0.1 -0.1)">
      <defs>
       <path d="M 19.671875 64.796875 
L 19.671875 8.109375 
L 31.59375 8.109375 
Q 46.6875 8.109375 53.6875 14.9375 
Q 60.6875 21.78125 60.6875 36.53125 
Q 60.6875 51.171875 53.6875 57.984375 
Q 46.6875 64.796875 31.59375 64.796875 
z
M 9.8125 72.90625 
L 30.078125 72.90625 
Q 51.265625 72.90625 61.171875 64.09375 
Q 71.09375 55.28125 71.09375 36.53125 
Q 71.09375 17.671875 61.125 8.828125 
Q 51.171875 0 30.078125 0 
L 9.8125 0 
z
" id="DejaVuSans-68"/>
       <path d="M 9.8125 72.90625 
L 19.671875 72.90625 
L 19.671875 0 
L 9.8125 0 
z
" id="DejaVuSans-73"/>
       <path d="M 44.390625 34.1875 
Q 47.5625 33.109375 50.5625 29.59375 
Q 53.5625 26.078125 56.59375 19.921875 
L 66.609375 0 
L 56 0 
L 46.6875 18.703125 
Q 43.0625 26.03125 39.671875 28.421875 
Q 36.28125 30.8125 30.421875 30.8125 
L 19.671875 30.8125 
L 19.671875 0 
L 9.8125 0 
L 9.8125 72.90625 
L 32.078125 72.90625 
Q 44.578125 72.90625 50.734375 67.671875 
Q 56.890625 62.453125 56.890625 51.90625 
Q 56.890625 45.015625 53.6875 40.46875 
Q 50.484375 35.9375 44.390625 34.1875 
z
M 19.671875 64.796875 
L 19.671875 38.921875 
L 32.078125 38.921875 
Q 39.203125 38.921875 42.84375 42.21875 
Q 46.484375 45.515625 46.484375 51.90625 
Q 46.484375 58.296875 42.84375 61.546875 
Q 39.203125 64.796875 32.078125 64.796875 
z
" id="DejaVuSans-82"/>
       <path d="M 9.8125 72.90625 
L 55.90625 72.90625 
L 55.90625 64.59375 
L 19.671875 64.59375 
L 19.671875 43.015625 
L 54.390625 43.015625 
L 54.390625 34.71875 
L 19.671875 34.71875 
L 19.671875 8.296875 
L 56.78125 8.296875 
L 56.78125 0 
L 9.8125 0 
z
" id="DejaVuSans-69"/>
       <path d="M 64.40625 67.28125 
L 64.40625 56.890625 
Q 59.421875 61.53125 53.78125 63.8125 
Q 48.140625 66.109375 41.796875 66.109375 
Q 29.296875 66.109375 22.65625 58.46875 
Q 16.015625 50.828125 16.015625 36.375 
Q 16.015625 21.96875 22.65625 14.328125 
Q 29.296875 6.6875 41.796875 6.6875 
Q 48.140625 6.6875 53.78125 8.984375 
Q 59.421875 11.28125 64.40625 15.921875 
L 64.40625 5.609375 
Q 59.234375 2.09375 53.4375 0.328125 
Q 47.65625 -1.421875 41.21875 -1.421875 
Q 24.65625 -1.421875 15.125 8.703125 
Q 5.609375 18.84375 5.609375 36.375 
Q 5.609375 53.953125 15.125 64.078125 
Q 24.65625 74.21875 41.21875 74.21875 
Q 47.75 74.21875 53.53125 72.484375 
Q 59.328125 70.75 64.40625 67.28125 
z
" id="DejaVuSans-67"/>
       <path d="M -0.296875 72.90625 
L 61.375 72.90625 
L 61.375 64.59375 
L 35.5 64.59375 
L 35.5 0 
L 25.59375 0 
L 25.59375 64.59375 
L -0.296875 64.59375 
z
" id="DejaVuSans-84"/>
      </defs>
      <use xlink:href="#DejaVuSans-68"/>
      <use x="77.001953" xlink:href="#DejaVuSans-73"/>
      <use x="106.494141" xlink:href="#DejaVuSans-82"/>
      <use x="175.976562" xlink:href="#DejaVuSans-69"/>
      <use x="239.160156" xlink:href="#DejaVuSans-67"/>
      <use x="308.984375" xlink:href="#DejaVuSans-84"/>
     </g>
    </g>
    <g id="patch_39">
     <path d="M 63 109.870937 
L 83 109.870937 
L 83 102.870937 
L 63 102.870937 
z
" style="fill:#c76e6e;stroke:#545454;stroke-linejoin:miter;stroke-width:0.75;"/>
    </g>
    <g id="text_20">
     <!-- CUATRO_g -->
     <g transform="translate(91 109.870937)scale(0.1 -0.1)">
      <defs>
       <path d="M 8.6875 72.90625 
L 18.609375 72.90625 
L 18.609375 28.609375 
Q 18.609375 16.890625 22.84375 11.734375 
Q 27.09375 6.59375 36.625 6.59375 
Q 46.09375 6.59375 50.34375 11.734375 
Q 54.59375 16.890625 54.59375 28.609375 
L 54.59375 72.90625 
L 64.5 72.90625 
L 64.5 27.390625 
Q 64.5 13.140625 57.4375 5.859375 
Q 50.390625 -1.421875 36.625 -1.421875 
Q 22.796875 -1.421875 15.734375 5.859375 
Q 8.6875 13.140625 8.6875 27.390625 
z
" id="DejaVuSans-85"/>
       <path d="M 50.984375 -16.609375 
L 50.984375 -23.578125 
L -0.984375 -23.578125 
L -0.984375 -16.609375 
z
" id="DejaVuSans-95"/>
       <path d="M 45.40625 27.984375 
Q 45.40625 37.75 41.375 43.109375 
Q 37.359375 48.484375 30.078125 48.484375 
Q 22.859375 48.484375 18.828125 43.109375 
Q 14.796875 37.75 14.796875 27.984375 
Q 14.796875 18.265625 18.828125 12.890625 
Q 22.859375 7.515625 30.078125 7.515625 
Q 37.359375 7.515625 41.375 12.890625 
Q 45.40625 18.265625 45.40625 27.984375 
z
M 54.390625 6.78125 
Q 54.390625 -7.171875 48.1875 -13.984375 
Q 42 -20.796875 29.203125 -20.796875 
Q 24.46875 -20.796875 20.265625 -20.09375 
Q 16.0625 -19.390625 12.109375 -17.921875 
L 12.109375 -9.1875 
Q 16.0625 -11.328125 19.921875 -12.34375 
Q 23.78125 -13.375 27.78125 -13.375 
Q 36.625 -13.375 41.015625 -8.765625 
Q 45.40625 -4.15625 45.40625 5.171875 
L 45.40625 9.625 
Q 42.625 4.78125 38.28125 2.390625 
Q 33.9375 0 27.875 0 
Q 17.828125 0 11.671875 7.65625 
Q 5.515625 15.328125 5.515625 27.984375 
Q 5.515625 40.671875 11.671875 48.328125 
Q 17.828125 56 27.875 56 
Q 33.9375 56 38.28125 53.609375 
Q 42.625 51.21875 45.40625 46.390625 
L 45.40625 54.6875 
L 54.390625 54.6875 
z
" id="DejaVuSans-103"/>
      </defs>
      <use xlink:href="#DejaVuSans-67"/>
      <use x="69.824219" xlink:href="#DejaVuSans-85"/>
      <use x="143.017578" xlink:href="#DejaVuSans-65"/>
      <use x="203.675781" xlink:href="#DejaVuSans-84"/>
      <use x="264.759766" xlink:href="#DejaVuSans-82"/>
      <use x="334.242188" xlink:href="#DejaVuSans-79"/>
      <use x="412.953125" xlink:href="#DejaVuSans-95"/>
      <use x="462.953125" xlink:href="#DejaVuSans-103"/>
     </g>
    </g>
   </g>
  </g>
 </g>
 <defs>
  <clipPath id="p7d2fe588bb">
   <rect height="217.44" width="334.8" x="54" y="34.56"/>
  </clipPath>
 </defs>
</svg>
