<?xml version="1.0" encoding="utf-8" standalone="no"?>
<!DOCTYPE svg PUBLIC "-//W3C//DTD SVG 1.1//EN"
  "http://www.w3.org/Graphics/SVG/1.1/DTD/svg11.dtd">
<!-- Created with matplotlib (https://matplotlib.org/) -->
<svg height="288pt" version="1.1" viewBox="0 0 432 288" width="432pt" xmlns="http://www.w3.org/2000/svg" xmlns:xlink="http://www.w3.org/1999/xlink">
 <metadata>
  <rdf:RDF xmlns:cc="http://creativecommons.org/ns#" xmlns:dc="http://purl.org/dc/elements/1.1/" xmlns:rdf="http://www.w3.org/1999/02/22-rdf-syntax-ns#">
   <cc:Work>
    <dc:type rdf:resource="http://purl.org/dc/dcmitype/StillImage"/>
    <dc:date>2021-04-26T18:37:16.581350</dc:date>
    <dc:format>image/svg+xml</dc:format>
    <dc:creator>
     <cc:Agent>
      <dc:title>Matplotlib v3.3.4, https://matplotlib.org/</dc:title>
     </cc:Agent>
    </dc:creator>
   </cc:Work>
  </rdf:RDF>
 </metadata>
 <defs>
  <style type="text/css">*{stroke-linecap:butt;stroke-linejoin:round;}</style>
 </defs>
 <g id="figure_1">
  <g id="patch_1">
   <path d="M 0 288 
L 432 288 
L 432 0 
L 0 0 
z
" style="fill:#ffffff;"/>
  </g>
  <g id="axes_1">
   <g id="patch_2">
    <path d="M 54 252 
L 388.8 252 
L 388.8 34.56 
L 54 34.56 
z
" style="fill:#ffffff;"/>
   </g>
   <g id="PolyCollection_1">
    <defs>
     <path d="M 54 -244.286954 
L 54 -244.025947 
L 57.381818 -244.025947 
L 60.763636 -244.025947 
L 64.145455 -244.025947 
L 67.527273 -244.025947 
L 70.909091 -206.7963 
L 74.290909 -206.7963 
L 77.672727 -206.7963 
L 81.054545 -191.337394 
L 84.436364 -191.337394 
L 87.818182 -191.337394 
L 91.2 -187.040678 
L 94.581818 -187.040678 
L 97.963636 -187.040678 
L 101.345455 -186.734221 
L 104.727273 -186.734221 
L 108.109091 -186.734221 
L 111.490909 -184.32382 
L 114.872727 -184.32382 
L 118.254545 -184.32382 
L 121.636364 -163.370584 
L 125.018182 -163.370584 
L 128.4 -163.370584 
L 131.781818 -162.911863 
L 135.163636 -162.911863 
L 138.545455 -162.911863 
L 141.927273 -149.282208 
L 145.309091 -149.282208 
L 148.690909 -149.282208 
L 152.072727 -129.739536 
L 155.454545 -129.739536 
L 158.836364 -129.739536 
L 162.218182 -128.535369 
L 165.6 -128.535369 
L 168.981818 -128.535369 
L 172.363636 -128.535369 
L 175.745455 -128.535369 
L 179.127273 -128.535369 
L 182.509091 -123.138879 
L 185.890909 -123.138879 
L 189.272727 -123.138879 
L 192.654545 -122.825199 
L 196.036364 -122.825199 
L 199.418182 -122.825199 
L 202.8 -121.412966 
L 206.181818 -121.412966 
L 209.563636 -121.412966 
L 212.945455 -104.507718 
L 216.327273 -104.507718 
L 219.709091 -104.507718 
L 223.090909 -103.523711 
L 226.472727 -103.523711 
L 229.854545 -103.523711 
L 233.236364 -103.523711 
L 236.618182 -103.523711 
L 240 -103.523711 
L 243.381818 -103.523711 
L 246.763636 -103.523711 
L 250.145455 -103.523711 
L 253.527273 -103.523711 
L 256.909091 -103.523711 
L 260.290909 -103.523711 
L 263.672727 -103.523711 
L 267.054545 -103.523711 
L 270.436364 -103.523711 
L 273.818182 -103.523711 
L 277.2 -103.523711 
L 280.581818 -103.523711 
L 283.963636 -103.252341 
L 287.345455 -103.252341 
L 290.727273 -103.252341 
L 294.109091 -103.252341 
L 297.490909 -103.252341 
L 300.872727 -103.252341 
L 304.254545 -103.252341 
L 307.636364 -103.252341 
L 311.018182 -103.252341 
L 314.4 -101.840319 
L 317.781818 -101.840319 
L 321.163636 -101.840319 
L 324.545455 -101.840319 
L 327.927273 -101.840319 
L 331.309091 -101.840319 
L 334.690909 -101.574664 
L 338.072727 -101.574664 
L 341.454545 -101.574664 
L 344.836364 -101.574664 
L 348.218182 -101.574664 
L 351.6 -101.574664 
L 354.981818 -101.574664 
L 358.363636 -101.574664 
L 361.745455 -101.574664 
L 365.127273 -101.574664 
L 368.509091 -101.574664 
L 371.890909 -101.574664 
L 375.272727 -101.574664 
L 378.654545 -101.574664 
L 382.036364 -101.574664 
L 385.418182 -100.511096 
L 388.8 -100.511096 
L 388.8 -129.985376 
L 388.8 -129.985376 
L 385.418182 -129.985376 
L 382.036364 -132.266011 
L 378.654545 -132.266011 
L 375.272727 -132.266011 
L 371.890909 -134.593945 
L 368.509091 -134.593945 
L 365.127273 -134.593945 
L 361.745455 -136.816204 
L 358.363636 -136.816204 
L 354.981818 -136.816204 
L 351.6 -136.816204 
L 348.218182 -136.816204 
L 344.836364 -136.816204 
L 341.454545 -141.6776 
L 338.072727 -141.6776 
L 334.690909 -141.6776 
L 331.309091 -141.679805 
L 327.927273 -141.679805 
L 324.545455 -141.679805 
L 321.163636 -142.326199 
L 317.781818 -142.326199 
L 314.4 -142.326199 
L 311.018182 -176.197655 
L 307.636364 -176.197655 
L 304.254545 -176.197655 
L 300.872727 -177.227407 
L 297.490909 -177.227407 
L 294.109091 -177.227407 
L 290.727273 -189.02368 
L 287.345455 -189.02368 
L 283.963636 -189.02368 
L 280.581818 -189.355204 
L 277.2 -189.355204 
L 273.818182 -189.355204 
L 270.436364 -189.735687 
L 267.054545 -189.735687 
L 263.672727 -189.735687 
L 260.290909 -190.012909 
L 256.909091 -190.012909 
L 253.527273 -190.012909 
L 250.145455 -190.181878 
L 246.763636 -190.181878 
L 243.381818 -190.181878 
L 240 -190.379347 
L 236.618182 -190.379347 
L 233.236364 -190.379347 
L 229.854545 -199.987786 
L 226.472727 -199.987786 
L 223.090909 -199.987786 
L 219.709091 -200.168984 
L 216.327273 -200.168984 
L 212.945455 -200.168984 
L 209.563636 -200.202598 
L 206.181818 -200.202598 
L 202.8 -200.202598 
L 199.418182 -201.581088 
L 196.036364 -201.581088 
L 192.654545 -201.581088 
L 189.272727 -210.142576 
L 185.890909 -210.142576 
L 182.509091 -210.142576 
L 179.127273 -215.251082 
L 175.745455 -215.251082 
L 172.363636 -215.251082 
L 168.981818 -223.371969 
L 165.6 -223.371969 
L 162.218182 -223.371969 
L 158.836364 -224.404885 
L 155.454545 -224.404885 
L 152.072727 -224.404885 
L 148.690909 -231.817794 
L 145.309091 -231.817794 
L 141.927273 -231.817794 
L 138.545455 -235.478875 
L 135.163636 -235.478875 
L 131.781818 -235.478875 
L 128.4 -235.797808 
L 125.018182 -235.797808 
L 121.636364 -235.797808 
L 118.254545 -238.042636 
L 114.872727 -238.042636 
L 111.490909 -238.042636 
L 108.109091 -241.377785 
L 104.727273 -241.377785 
L 101.345455 -241.377785 
L 97.963636 -242.006645 
L 94.581818 -242.006645 
L 91.2 -242.006645 
L 87.818182 -243.984852 
L 84.436364 -243.984852 
L 81.054545 -243.984852 
L 77.672727 -244.221638 
L 74.290909 -244.221638 
L 70.909091 -244.221638 
L 67.527273 -244.286954 
L 64.145455 -244.286954 
L 60.763636 -244.286954 
L 57.381818 -244.286954 
L 54 -244.286954 
z
" id="mf4f566f0d2" style="stroke:#a52a2a;stroke-opacity:0.5;"/>
    </defs>
    <g clip-path="url(#pd0ddfd2df6)">
     <use style="fill:#a52a2a;fill-opacity:0.5;stroke:#a52a2a;stroke-opacity:0.5;" x="0" xlink:href="#mf4f566f0d2" y="288"/>
    </g>
   </g>
   <g id="PolyCollection_2">
    <defs>
     <path d="M 54 -244.303382 
L 54 -244.303382 
L 57.381818 -244.303382 
L 60.763636 -244.303382 
L 64.145455 -244.303382 
L 67.527273 -244.303382 
L 70.909091 -244.303382 
L 74.290909 -244.303382 
L 77.672727 -108.209865 
L 81.054545 -85.292203 
L 84.436364 -85.292203 
L 87.818182 -85.292203 
L 91.2 -85.292203 
L 94.581818 -85.292203 
L 97.963636 -85.292203 
L 101.345455 -84.649958 
L 104.727273 -84.649958 
L 108.109091 -84.649958 
L 111.490909 -84.649958 
L 114.872727 -84.649958 
L 118.254545 -76.657958 
L 121.636364 -62.975074 
L 125.018182 -62.975074 
L 128.4 -62.975074 
L 131.781818 -62.551225 
L 135.163636 -62.551225 
L 138.545455 -60.636568 
L 141.927273 -60.636568 
L 145.309091 -60.636568 
L 148.690909 -59.790835 
L 152.072727 -59.790835 
L 155.454545 -59.790835 
L 158.836364 -55.411295 
L 162.218182 -55.411295 
L 165.6 -55.411295 
L 168.981818 -49.572868 
L 172.363636 -49.572868 
L 175.745455 -49.572868 
L 179.127273 -49.572868 
L 182.509091 -49.572868 
L 185.890909 -49.572868 
L 189.272727 -46.957732 
L 192.654545 -46.957732 
L 196.036364 -46.957732 
L 199.418182 -46.957732 
L 202.8 -46.957732 
L 206.181818 -46.957732 
L 209.563636 -43.001298 
L 212.945455 -43.001298 
L 216.327273 -43.001298 
L 219.709091 -43.001298 
L 223.090909 -43.001298 
L 226.472727 -43.001298 
L 229.854545 -43.001298 
L 233.236364 -43.001298 
L 236.618182 -43.001298 
L 240 -43.001298 
L 243.381818 -43.001298 
L 246.763636 -43.001298 
L 250.145455 -43.001298 
L 253.527273 -43.001298 
L 256.909091 -43.001298 
L 260.290909 -43.001298 
L 263.672727 -43.001298 
L 267.054545 -43.001298 
L 270.436364 -43.001298 
L 273.818182 -43.001298 
L 277.2 -43.001298 
L 280.581818 -43.001298 
L 283.963636 -43.001298 
L 287.345455 -43.001298 
L 290.727273 -43.001298 
L 294.109091 -43.001298 
L 297.490909 -43.001298 
L 300.872727 -43.001298 
L 304.254545 -43.001298 
L 307.636364 -43.001298 
L 311.018182 -43.001298 
L 314.4 -43.001298 
L 317.781818 -43.001298 
L 321.163636 -43.001298 
L 324.545455 -41.922804 
L 327.927273 -41.922804 
L 331.309091 -41.922804 
L 334.690909 -41.922804 
L 338.072727 -41.922804 
L 341.454545 -41.922804 
L 344.836364 -41.922804 
L 348.218182 -41.922804 
L 351.6 -41.922804 
L 354.981818 -41.922804 
L 358.363636 -41.922804 
L 361.745455 -40.771959 
L 365.127273 -40.771959 
L 368.509091 -40.771959 
L 371.890909 -40.771959 
L 375.272727 -40.771959 
L 378.654545 -40.771959 
L 382.036364 -40.771959 
L 385.418182 -40.771959 
L 388.8 -40.771959 
L 388.8 -107.066185 
L 388.8 -107.066185 
L 385.418182 -107.066185 
L 382.036364 -107.066185 
L 378.654545 -107.066185 
L 375.272727 -107.066185 
L 371.890909 -107.066185 
L 368.509091 -107.066185 
L 365.127273 -107.066185 
L 361.745455 -107.066185 
L 358.363636 -107.066185 
L 354.981818 -107.066185 
L 351.6 -107.066185 
L 348.218182 -107.066185 
L 344.836364 -107.066185 
L 341.454545 -107.066185 
L 338.072727 -107.066185 
L 334.690909 -107.066185 
L 331.309091 -107.066185 
L 327.927273 -107.066185 
L 324.545455 -107.066185 
L 321.163636 -107.066185 
L 317.781818 -107.066185 
L 314.4 -107.066185 
L 311.018182 -107.066185 
L 307.636364 -107.066185 
L 304.254545 -107.066185 
L 300.872727 -107.066185 
L 297.490909 -107.066185 
L 294.109091 -107.066185 
L 290.727273 -107.066185 
L 287.345455 -107.066185 
L 283.963636 -107.066185 
L 280.581818 -107.066185 
L 277.2 -107.066185 
L 273.818182 -107.066185 
L 270.436364 -107.066185 
L 267.054545 -107.066185 
L 263.672727 -107.066185 
L 260.290909 -107.066185 
L 256.909091 -107.066185 
L 253.527273 -107.066185 
L 250.145455 -107.066185 
L 246.763636 -107.066185 
L 243.381818 -107.066185 
L 240 -107.066185 
L 236.618182 -107.066185 
L 233.236364 -107.240297 
L 229.854545 -107.240297 
L 226.472727 -107.240297 
L 223.090909 -107.240297 
L 219.709091 -107.240297 
L 216.327273 -107.240297 
L 212.945455 -107.240297 
L 209.563636 -107.240297 
L 206.181818 -107.240297 
L 202.8 -107.240297 
L 199.418182 -107.240297 
L 196.036364 -107.240297 
L 192.654545 -107.240297 
L 189.272727 -107.240297 
L 185.890909 -107.240297 
L 182.509091 -107.240297 
L 179.127273 -107.240297 
L 175.745455 -107.240297 
L 172.363636 -107.240297 
L 168.981818 -107.240297 
L 165.6 -107.240297 
L 162.218182 -107.240297 
L 158.836364 -107.240297 
L 155.454545 -107.240297 
L 152.072727 -107.240297 
L 148.690909 -107.240297 
L 145.309091 -107.935552 
L 141.927273 -107.935552 
L 138.545455 -107.935552 
L 135.163636 -108.016243 
L 131.781818 -108.016243 
L 128.4 -108.016243 
L 125.018182 -108.037405 
L 121.636364 -108.037405 
L 118.254545 -108.037405 
L 114.872727 -109.530727 
L 111.490909 -109.530727 
L 108.109091 -109.530727 
L 104.727273 -109.530727 
L 101.345455 -136.607651 
L 97.963636 -136.607651 
L 94.581818 -136.607651 
L 91.2 -154.152138 
L 87.818182 -154.152138 
L 84.436364 -154.152138 
L 81.054545 -154.152138 
L 77.672727 -244.303382 
L 74.290909 -244.303382 
L 70.909091 -244.303382 
L 67.527273 -244.303382 
L 64.145455 -244.303382 
L 60.763636 -244.303382 
L 57.381818 -244.303382 
L 54 -244.303382 
z
" id="mf8cb8af0dc" style="stroke:#008000;stroke-opacity:0.5;"/>
    </defs>
    <g clip-path="url(#pd0ddfd2df6)">
     <use style="fill:#008000;fill-opacity:0.5;stroke:#008000;stroke-opacity:0.5;" x="0" xlink:href="#mf8cb8af0dc" y="288"/>
    </g>
   </g>
   <g id="PolyCollection_3">
    <defs>
     <path d="M 54 -244.311919 
L 54 -244.258585 
L 57.381818 -244.258585 
L 60.763636 -244.258585 
L 64.145455 -244.258585 
L 67.527273 -244.258585 
L 70.909091 -244.258585 
L 74.290909 -244.258585 
L 77.672727 -181.574183 
L 81.054545 -181.574183 
L 84.436364 -181.574183 
L 87.818182 -181.574183 
L 91.2 -181.574183 
L 94.581818 -181.574183 
L 97.963636 -181.574183 
L 101.345455 -181.574183 
L 104.727273 -181.574183 
L 108.109091 -181.063872 
L 111.490909 -181.063872 
L 114.872727 -181.063872 
L 118.254545 -181.063872 
L 121.636364 -181.063872 
L 125.018182 -181.063872 
L 128.4 -181.063872 
L 131.781818 -181.063872 
L 135.163636 -129.262619 
L 138.545455 -129.262619 
L 141.927273 -129.262619 
L 145.309091 -129.262619 
L 148.690909 -129.262619 
L 152.072727 -129.262619 
L 155.454545 -129.262619 
L 158.836364 -128.982385 
L 162.218182 -128.982385 
L 165.6 -128.982385 
L 168.981818 -128.982385 
L 172.363636 -128.982385 
L 175.745455 -128.982385 
L 179.127273 -128.982385 
L 182.509091 -128.462775 
L 185.890909 -128.462775 
L 189.272727 -128.462775 
L 192.654545 -128.462775 
L 196.036364 -128.462775 
L 199.418182 -128.462775 
L 202.8 -128.462775 
L 206.181818 -128.462775 
L 209.563636 -128.116918 
L 212.945455 -128.116918 
L 216.327273 -128.116918 
L 219.709091 -128.116918 
L 223.090909 -128.116918 
L 226.472727 -128.116918 
L 229.854545 -128.116918 
L 233.236364 -128.116918 
L 236.618182 -128.116918 
L 240 -128.116918 
L 243.381818 -128.116918 
L 246.763636 -128.116918 
L 250.145455 -128.116918 
L 253.527273 -128.116918 
L 256.909091 -128.116918 
L 260.290909 -128.116918 
L 263.672727 -128.116918 
L 267.054545 -128.116918 
L 270.436364 -128.116918 
L 273.818182 -128.116918 
L 277.2 -128.116918 
L 280.581818 -128.116918 
L 283.963636 -128.116918 
L 287.345455 -128.116918 
L 290.727273 -127.764628 
L 294.109091 -127.764628 
L 297.490909 -127.764628 
L 300.872727 -127.764628 
L 304.254545 -127.764628 
L 307.636364 -127.764628 
L 311.018182 -127.764628 
L 314.4 -127.764628 
L 317.781818 -127.764628 
L 321.163636 -127.764628 
L 324.545455 -127.687005 
L 327.927273 -127.687005 
L 331.309091 -127.687005 
L 334.690909 -127.687005 
L 338.072727 -127.687005 
L 341.454545 -127.687005 
L 344.836364 -127.687005 
L 348.218182 -127.687005 
L 351.6 -127.687005 
L 354.981818 -127.687005 
L 358.363636 -127.687005 
L 361.745455 -127.687005 
L 365.127273 -127.687005 
L 368.509091 -127.687005 
L 371.890909 -127.687005 
L 375.272727 -127.687005 
L 378.654545 -127.687005 
L 382.036364 -127.687005 
L 385.418182 -127.560399 
L 388.8 -127.560399 
L 388.8 -243.734127 
L 388.8 -243.734127 
L 385.418182 -243.734127 
L 382.036364 -243.734127 
L 378.654545 -243.734127 
L 375.272727 -243.734127 
L 371.890909 -243.734127 
L 368.509091 -243.734127 
L 365.127273 -243.734127 
L 361.745455 -243.734127 
L 358.363636 -243.734127 
L 354.981818 -243.734127 
L 351.6 -243.734127 
L 348.218182 -243.734127 
L 344.836364 -243.734127 
L 341.454545 -243.734127 
L 338.072727 -243.734127 
L 334.690909 -243.734127 
L 331.309091 -243.734127 
L 327.927273 -243.734127 
L 324.545455 -243.734127 
L 321.163636 -243.734127 
L 317.781818 -243.734127 
L 314.4 -243.734127 
L 311.018182 -243.734127 
L 307.636364 -243.734127 
L 304.254545 -243.734127 
L 300.872727 -243.734127 
L 297.490909 -243.734127 
L 294.109091 -243.734127 
L 290.727273 -243.734127 
L 287.345455 -243.734127 
L 283.963636 -243.734127 
L 280.581818 -243.734127 
L 277.2 -243.734127 
L 273.818182 -243.734127 
L 270.436364 -243.734127 
L 267.054545 -243.734127 
L 263.672727 -243.734127 
L 260.290909 -243.734127 
L 256.909091 -243.734127 
L 253.527273 -243.806648 
L 250.145455 -243.806648 
L 246.763636 -243.806648 
L 243.381818 -243.806648 
L 240 -243.806648 
L 236.618182 -243.806648 
L 233.236364 -243.806648 
L 229.854545 -243.806648 
L 226.472727 -243.806648 
L 223.090909 -243.806648 
L 219.709091 -243.806648 
L 216.327273 -243.806648 
L 212.945455 -243.806648 
L 209.563636 -243.806648 
L 206.181818 -243.806648 
L 202.8 -243.806648 
L 199.418182 -243.806648 
L 196.036364 -243.806648 
L 192.654545 -243.806648 
L 189.272727 -243.806648 
L 185.890909 -243.806648 
L 182.509091 -243.806648 
L 179.127273 -243.806648 
L 175.745455 -243.806648 
L 172.363636 -243.806648 
L 168.981818 -243.806648 
L 165.6 -243.806648 
L 162.218182 -243.806648 
L 158.836364 -243.806648 
L 155.454545 -243.806648 
L 152.072727 -243.806648 
L 148.690909 -243.929839 
L 145.309091 -244.161298 
L 141.927273 -244.161298 
L 138.545455 -244.161298 
L 135.163636 -244.161298 
L 131.781818 -244.161298 
L 128.4 -244.161298 
L 125.018182 -244.161298 
L 121.636364 -244.161298 
L 118.254545 -244.161298 
L 114.872727 -244.169747 
L 111.490909 -244.169747 
L 108.109091 -244.169747 
L 104.727273 -244.169747 
L 101.345455 -244.169747 
L 97.963636 -244.169747 
L 94.581818 -244.169747 
L 91.2 -244.2896 
L 87.818182 -244.2896 
L 84.436364 -244.2896 
L 81.054545 -244.311919 
L 77.672727 -244.311919 
L 74.290909 -244.311919 
L 70.909091 -244.311919 
L 67.527273 -244.311919 
L 64.145455 -244.311919 
L 60.763636 -244.311919 
L 57.381818 -244.311919 
L 54 -244.311919 
z
" id="m95ace107d5" style="stroke:#808080;stroke-opacity:0.5;"/>
    </defs>
    <g clip-path="url(#pd0ddfd2df6)">
     <use style="fill:#808080;fill-opacity:0.5;stroke:#808080;stroke-opacity:0.5;" x="0" xlink:href="#m95ace107d5" y="288"/>
    </g>
   </g>
   <g id="PolyCollection_4">
    <defs>
     <path d="M 54 -244.303565 
L 54 -244.265688 
L 57.381818 -244.265688 
L 60.763636 -244.265688 
L 64.145455 -244.265688 
L 67.527273 -244.265688 
L 70.909091 -244.265688 
L 74.290909 -244.265688 
L 77.672727 -242.975478 
L 81.054545 -242.975478 
L 84.436364 -242.975478 
L 87.818182 -231.362461 
L 91.2 -231.362461 
L 94.581818 -231.362461 
L 97.963636 -231.362461 
L 101.345455 -231.362461 
L 104.727273 -231.362461 
L 108.109091 -228.54451 
L 111.490909 -223.089964 
L 114.872727 -223.089964 
L 118.254545 -223.089964 
L 121.636364 -223.089964 
L 125.018182 -165.63486 
L 128.4 -165.63486 
L 131.781818 -165.63486 
L 135.163636 -101.107417 
L 138.545455 -101.107417 
L 141.927273 -101.107417 
L 145.309091 -101.107417 
L 148.690909 -101.107417 
L 152.072727 -101.107417 
L 155.454545 -100.046921 
L 158.836364 -100.046921 
L 162.218182 -100.046921 
L 165.6 -98.529684 
L 168.981818 -98.529684 
L 172.363636 -98.529684 
L 175.745455 -98.529684 
L 179.127273 -97.394391 
L 182.509091 -97.394391 
L 185.890909 -97.394391 
L 189.272727 -97.394391 
L 192.654545 -97.394391 
L 196.036364 -97.394391 
L 199.418182 -97.394391 
L 202.8 -96.797099 
L 206.181818 -96.797099 
L 209.563636 -96.797099 
L 212.945455 -96.273568 
L 216.327273 -82.695667 
L 219.709091 -82.695667 
L 223.090909 -82.695667 
L 226.472727 -82.695667 
L 229.854545 -82.695667 
L 233.236364 -82.695667 
L 236.618182 -82.695667 
L 240 -81.349503 
L 243.381818 -81.349503 
L 246.763636 -81.349503 
L 250.145455 -81.349503 
L 253.527273 -81.349503 
L 256.909091 -81.349503 
L 260.290909 -81.349503 
L 263.672727 -81.349503 
L 267.054545 -80.992128 
L 270.436364 -80.992128 
L 273.818182 -80.992128 
L 277.2 -80.992128 
L 280.581818 -80.992128 
L 283.963636 -80.992128 
L 287.345455 -80.992128 
L 290.727273 -80.992128 
L 294.109091 -80.992128 
L 297.490909 -80.992128 
L 300.872727 -80.992128 
L 304.254545 -80.992128 
L 307.636364 -80.992128 
L 311.018182 -80.992128 
L 314.4 -80.992128 
L 317.781818 -80.992128 
L 321.163636 -80.992128 
L 324.545455 -80.992128 
L 327.927273 -80.992128 
L 331.309091 -80.992128 
L 334.690909 -80.992128 
L 338.072727 -80.992128 
L 341.454545 -80.992128 
L 344.836364 -80.992128 
L 348.218182 -80.992128 
L 351.6 -80.992128 
L 354.981818 -80.992128 
L 358.363636 -80.992128 
L 361.745455 -80.992128 
L 365.127273 -80.992128 
L 368.509091 -80.992128 
L 371.890909 -80.992128 
L 375.272727 -80.992128 
L 378.654545 -80.992128 
L 382.036364 -80.992128 
L 385.418182 -80.992128 
L 388.8 -80.992128 
L 388.8 -103.456992 
L 388.8 -103.456992 
L 385.418182 -103.456992 
L 382.036364 -103.456992 
L 378.654545 -103.456992 
L 375.272727 -103.456992 
L 371.890909 -103.456992 
L 368.509091 -103.456992 
L 365.127273 -103.456992 
L 361.745455 -103.456992 
L 358.363636 -103.456992 
L 354.981818 -103.456992 
L 351.6 -103.456992 
L 348.218182 -103.456992 
L 344.836364 -103.456992 
L 341.454545 -103.456992 
L 338.072727 -103.456992 
L 334.690909 -103.456992 
L 331.309091 -103.456992 
L 327.927273 -103.456992 
L 324.545455 -103.456992 
L 321.163636 -103.456992 
L 317.781818 -103.456992 
L 314.4 -103.456992 
L 311.018182 -103.456992 
L 307.636364 -103.456992 
L 304.254545 -103.783504 
L 300.872727 -103.783504 
L 297.490909 -103.783504 
L 294.109091 -103.783504 
L 290.727273 -103.783504 
L 287.345455 -103.783504 
L 283.963636 -103.783504 
L 280.581818 -103.783504 
L 277.2 -103.783504 
L 273.818182 -103.783504 
L 270.436364 -103.783504 
L 267.054545 -103.783504 
L 263.672727 -103.783504 
L 260.290909 -103.783504 
L 256.909091 -103.783504 
L 253.527273 -106.045905 
L 250.145455 -106.045905 
L 246.763636 -109.329102 
L 243.381818 -109.329102 
L 240 -109.329102 
L 236.618182 -109.329102 
L 233.236364 -109.329102 
L 229.854545 -159.704699 
L 226.472727 -159.704699 
L 223.090909 -159.704699 
L 219.709091 -159.704699 
L 216.327273 -159.704699 
L 212.945455 -159.704699 
L 209.563636 -225.16163 
L 206.181818 -225.16163 
L 202.8 -225.16163 
L 199.418182 -225.16163 
L 196.036364 -225.16163 
L 192.654545 -225.16163 
L 189.272727 -225.16163 
L 185.890909 -237.699729 
L 182.509091 -237.699729 
L 179.127273 -237.699729 
L 175.745455 -237.699729 
L 172.363636 -237.699729 
L 168.981818 -237.699729 
L 165.6 -237.699729 
L 162.218182 -244.144455 
L 158.836364 -244.144455 
L 155.454545 -244.144455 
L 152.072727 -244.144455 
L 148.690909 -244.144455 
L 145.309091 -244.144455 
L 141.927273 -244.177587 
L 138.545455 -244.177587 
L 135.163636 -244.177587 
L 131.781818 -244.177587 
L 128.4 -244.177587 
L 125.018182 -244.177587 
L 121.636364 -244.177587 
L 118.254545 -244.177587 
L 114.872727 -244.177587 
L 111.490909 -244.177587 
L 108.109091 -244.177587 
L 104.727273 -244.177587 
L 101.345455 -244.177587 
L 97.963636 -244.177587 
L 94.581818 -244.177587 
L 91.2 -244.283132 
L 87.818182 -244.298717 
L 84.436364 -244.303565 
L 81.054545 -244.303565 
L 77.672727 -244.303565 
L 74.290909 -244.303565 
L 70.909091 -244.303565 
L 67.527273 -244.303565 
L 64.145455 -244.303565 
L 60.763636 -244.303565 
L 57.381818 -244.303565 
L 54 -244.303565 
z
" id="m23a46874b1" style="stroke:#ffa500;stroke-opacity:0.5;"/>
    </defs>
    <g clip-path="url(#pd0ddfd2df6)">
     <use style="fill:#ffa500;fill-opacity:0.5;stroke:#ffa500;stroke-opacity:0.5;" x="0" xlink:href="#m23a46874b1" y="288"/>
    </g>
   </g>
   <g id="PolyCollection_5">
    <defs>
     <path d="M 54 -244.297414 
L 54 -244.255305 
L 57.381818 -244.255305 
L 60.763636 -244.255305 
L 64.145455 -244.255305 
L 67.527273 -244.255305 
L 70.909091 -142.582478 
L 74.290909 -142.582478 
L 77.672727 -142.582478 
L 81.054545 -110.622123 
L 84.436364 -99.261859 
L 87.818182 -99.261859 
L 91.2 -99.261859 
L 94.581818 -99.261859 
L 97.963636 -99.261859 
L 101.345455 -99.261859 
L 104.727273 -98.607953 
L 108.109091 -98.607953 
L 111.490909 -97.980811 
L 114.872727 -97.980811 
L 118.254545 -97.980811 
L 121.636364 -97.980811 
L 125.018182 -97.980811 
L 128.4 -97.980811 
L 131.781818 -97.980811 
L 135.163636 -97.980811 
L 138.545455 -97.980811 
L 141.927273 -97.980811 
L 145.309091 -92.380138 
L 148.690909 -92.380138 
L 152.072727 -92.380138 
L 155.454545 -92.380138 
L 158.836364 -92.380138 
L 162.218182 -92.380138 
L 165.6 -92.380138 
L 168.981818 -92.380138 
L 172.363636 -92.380138 
L 175.745455 -92.380138 
L 179.127273 -92.380138 
L 182.509091 -92.380138 
L 185.890909 -92.380138 
L 189.272727 -92.380138 
L 192.654545 -92.380138 
L 196.036364 -92.380138 
L 199.418182 -92.380138 
L 202.8 -92.380138 
L 206.181818 -92.380138 
L 209.563636 -92.380138 
L 212.945455 -92.380138 
L 216.327273 -92.380138 
L 219.709091 -92.380138 
L 223.090909 -92.380138 
L 226.472727 -92.380138 
L 229.854545 -92.380138 
L 233.236364 -92.380138 
L 236.618182 -92.380138 
L 240 -92.380138 
L 243.381818 -92.380138 
L 246.763636 -92.380138 
L 250.145455 -92.380138 
L 253.527273 -92.380138 
L 256.909091 -92.380138 
L 260.290909 -92.380138 
L 263.672727 -92.380138 
L 267.054545 -92.380138 
L 270.436364 -92.380138 
L 273.818182 -92.380138 
L 277.2 -92.380138 
L 280.581818 -92.380138 
L 283.963636 -92.380138 
L 287.345455 -92.380138 
L 290.727273 -92.380138 
L 294.109091 -92.380138 
L 297.490909 -92.380138 
L 300.872727 -92.380138 
L 304.254545 -92.380138 
L 307.636364 -92.380138 
L 311.018182 -92.380138 
L 314.4 -92.380138 
L 317.781818 -92.380138 
L 321.163636 -92.380138 
L 324.545455 -92.380138 
L 327.927273 -92.380138 
L 331.309091 -92.380138 
L 334.690909 -92.380138 
L 338.072727 -92.380138 
L 341.454545 -92.380138 
L 344.836364 -92.380138 
L 348.218182 -92.380138 
L 351.6 -92.380138 
L 354.981818 -92.380138 
L 358.363636 -92.380138 
L 361.745455 -92.380138 
L 365.127273 -92.380138 
L 368.509091 -92.380138 
L 371.890909 -92.380138 
L 375.272727 -92.380138 
L 378.654545 -92.380138 
L 382.036364 -92.380138 
L 385.418182 -92.380138 
L 388.8 -92.380138 
L 388.8 -99.559544 
L 388.8 -99.559544 
L 385.418182 -99.559544 
L 382.036364 -99.559544 
L 378.654545 -99.559544 
L 375.272727 -99.559544 
L 371.890909 -99.559544 
L 368.509091 -99.559544 
L 365.127273 -99.559544 
L 361.745455 -99.559544 
L 358.363636 -99.559544 
L 354.981818 -99.559544 
L 351.6 -99.559544 
L 348.218182 -99.559544 
L 344.836364 -99.559544 
L 341.454545 -99.559544 
L 338.072727 -99.559544 
L 334.690909 -99.559544 
L 331.309091 -99.559544 
L 327.927273 -99.559544 
L 324.545455 -99.559544 
L 321.163636 -99.559544 
L 317.781818 -99.559544 
L 314.4 -99.559544 
L 311.018182 -99.718829 
L 307.636364 -99.718829 
L 304.254545 -99.718829 
L 300.872727 -99.718829 
L 297.490909 -99.718829 
L 294.109091 -99.718829 
L 290.727273 -99.718829 
L 287.345455 -99.772947 
L 283.963636 -99.772947 
L 280.581818 -99.772947 
L 277.2 -99.772947 
L 273.818182 -99.772947 
L 270.436364 -100.136526 
L 267.054545 -100.136526 
L 263.672727 -100.136526 
L 260.290909 -100.136526 
L 256.909091 -100.136526 
L 253.527273 -100.136526 
L 250.145455 -100.136526 
L 246.763636 -100.136526 
L 243.381818 -100.136526 
L 240 -100.136526 
L 236.618182 -100.136526 
L 233.236364 -100.136526 
L 229.854545 -100.136526 
L 226.472727 -100.468805 
L 223.090909 -100.468805 
L 219.709091 -100.468805 
L 216.327273 -100.468805 
L 212.945455 -100.468805 
L 209.563636 -100.468805 
L 206.181818 -100.468805 
L 202.8 -100.468805 
L 199.418182 -100.468805 
L 196.036364 -100.468805 
L 192.654545 -100.468805 
L 189.272727 -100.757261 
L 185.890909 -100.757261 
L 182.509091 -100.757261 
L 179.127273 -100.757261 
L 175.745455 -100.757261 
L 172.363636 -101.114687 
L 168.981818 -101.114687 
L 165.6 -101.114687 
L 162.218182 -101.114687 
L 158.836364 -101.114687 
L 155.454545 -101.114687 
L 152.072727 -101.114687 
L 148.690909 -101.114687 
L 145.309091 -101.911868 
L 141.927273 -101.911868 
L 138.545455 -101.911868 
L 135.163636 -101.911868 
L 131.781818 -101.911868 
L 128.4 -101.911868 
L 125.018182 -101.911868 
L 121.636364 -110.774779 
L 118.254545 -110.774779 
L 114.872727 -110.774779 
L 111.490909 -110.774779 
L 108.109091 -110.774779 
L 104.727273 -142.759351 
L 101.345455 -142.759351 
L 97.963636 -142.759351 
L 94.581818 -142.759351 
L 91.2 -143.045308 
L 87.818182 -143.045308 
L 84.436364 -143.045308 
L 81.054545 -143.045308 
L 77.672727 -143.051572 
L 74.290909 -143.051572 
L 70.909091 -143.051572 
L 67.527273 -244.297414 
L 64.145455 -244.297414 
L 60.763636 -244.297414 
L 57.381818 -244.297414 
L 54 -244.297414 
z
" id="m49f89b3e73" style="stroke:#0000ff;stroke-opacity:0.5;"/>
    </defs>
    <g clip-path="url(#pd0ddfd2df6)">
     <use style="fill:#0000ff;fill-opacity:0.5;stroke:#0000ff;stroke-opacity:0.5;" x="0" xlink:href="#m49f89b3e73" y="288"/>
    </g>
   </g>
   <g id="PolyCollection_6">
    <defs>
     <path d="M 54 -244.303382 
L 54 -244.303382 
L 57.381818 -108.247677 
L 60.763636 -108.247677 
L 64.145455 -108.247677 
L 67.527273 -108.247677 
L 70.909091 -77.328085 
L 74.290909 -77.328085 
L 77.672727 -77.328085 
L 81.054545 -77.328085 
L 84.436364 -77.328085 
L 87.818182 -77.328085 
L 91.2 -77.328085 
L 94.581818 -77.328085 
L 97.963636 -77.328085 
L 101.345455 -60.726716 
L 104.727273 -60.726716 
L 108.109091 -60.726716 
L 111.490909 -60.726716 
L 114.872727 -59.420436 
L 118.254545 -59.420436 
L 121.636364 -59.420436 
L 125.018182 -55.388172 
L 128.4 -55.388172 
L 131.781818 -55.388172 
L 135.163636 -55.388172 
L 138.545455 -55.388172 
L 141.927273 -53.556425 
L 145.309091 -53.556425 
L 148.690909 -53.556425 
L 152.072727 -53.556425 
L 155.454545 -53.556425 
L 158.836364 -52.387351 
L 162.218182 -52.387351 
L 165.6 -52.387351 
L 168.981818 -52.387351 
L 172.363636 -52.387351 
L 175.745455 -52.387351 
L 179.127273 -52.387351 
L 182.509091 -52.387351 
L 185.890909 -52.387351 
L 189.272727 -52.387351 
L 192.654545 -52.387351 
L 196.036364 -52.387351 
L 199.418182 -52.387351 
L 202.8 -52.387351 
L 206.181818 -52.387351 
L 209.563636 -52.387351 
L 212.945455 -52.387351 
L 216.327273 -52.387351 
L 219.709091 -52.387351 
L 223.090909 -52.387351 
L 226.472727 -52.387351 
L 229.854545 -52.387351 
L 233.236364 -52.387351 
L 236.618182 -52.387351 
L 240 -51.629693 
L 243.381818 -51.629693 
L 246.763636 -51.629693 
L 250.145455 -51.629693 
L 253.527273 -51.596838 
L 256.909091 -51.596838 
L 260.290909 -51.596838 
L 263.672727 -51.596838 
L 267.054545 -51.328825 
L 270.436364 -51.328825 
L 273.818182 -51.328825 
L 277.2 -51.328825 
L 280.581818 -51.328825 
L 283.963636 -49.260221 
L 287.345455 -49.260221 
L 290.727273 -49.260221 
L 294.109091 -49.260221 
L 297.490909 -49.260221 
L 300.872727 -49.260221 
L 304.254545 -49.260221 
L 307.636364 -49.260221 
L 311.018182 -49.260221 
L 314.4 -49.260221 
L 317.781818 -49.260221 
L 321.163636 -49.260221 
L 324.545455 -49.260221 
L 327.927273 -49.260221 
L 331.309091 -49.260221 
L 334.690909 -49.260221 
L 338.072727 -49.260221 
L 341.454545 -49.260221 
L 344.836364 -49.260221 
L 348.218182 -49.260221 
L 351.6 -49.260221 
L 354.981818 -49.260221 
L 358.363636 -49.260221 
L 361.745455 -49.260221 
L 365.127273 -49.260221 
L 368.509091 -49.260221 
L 371.890909 -49.260221 
L 375.272727 -49.260221 
L 378.654545 -49.260221 
L 382.036364 -49.260221 
L 385.418182 -49.260221 
L 388.8 -49.260221 
L 388.8 -52.422148 
L 388.8 -52.422148 
L 385.418182 -52.422148 
L 382.036364 -52.422148 
L 378.654545 -52.422148 
L 375.272727 -52.422148 
L 371.890909 -52.422148 
L 368.509091 -52.454474 
L 365.127273 -52.454474 
L 361.745455 -52.454474 
L 358.363636 -52.454474 
L 354.981818 -52.454474 
L 351.6 -52.454474 
L 348.218182 -52.454474 
L 344.836364 -52.454474 
L 341.454545 -52.454474 
L 338.072727 -52.454474 
L 334.690909 -52.940907 
L 331.309091 -52.940907 
L 327.927273 -52.940907 
L 324.545455 -52.940907 
L 321.163636 -52.940907 
L 317.781818 -52.940907 
L 314.4 -52.940907 
L 311.018182 -52.940907 
L 307.636364 -52.940907 
L 304.254545 -52.940907 
L 300.872727 -52.940907 
L 297.490909 -52.940907 
L 294.109091 -54.535345 
L 290.727273 -54.535345 
L 287.345455 -54.535345 
L 283.963636 -54.535345 
L 280.581818 -54.535345 
L 277.2 -54.535345 
L 273.818182 -54.535345 
L 270.436364 -54.535345 
L 267.054545 -54.535345 
L 263.672727 -56.337984 
L 260.290909 -56.402123 
L 256.909091 -56.402123 
L 253.527273 -56.402123 
L 250.145455 -56.402123 
L 246.763636 -56.402123 
L 243.381818 -56.402123 
L 240 -56.402123 
L 236.618182 -56.402123 
L 233.236364 -56.402123 
L 229.854545 -56.429639 
L 226.472727 -56.464668 
L 223.090909 -56.464668 
L 219.709091 -56.464668 
L 216.327273 -56.464668 
L 212.945455 -56.464668 
L 209.563636 -56.464668 
L 206.181818 -56.464668 
L 202.8 -57.727947 
L 199.418182 -57.727947 
L 196.036364 -57.727947 
L 192.654545 -57.727947 
L 189.272727 -59.860189 
L 185.890909 -59.860189 
L 182.509091 -59.860189 
L 179.127273 -59.860189 
L 175.745455 -59.860189 
L 172.363636 -60.726716 
L 168.981818 -60.726716 
L 165.6 -60.726716 
L 162.218182 -61.439885 
L 158.836364 -61.439885 
L 155.454545 -61.439885 
L 152.072727 -61.439885 
L 148.690909 -61.439885 
L 145.309091 -63.309168 
L 141.927273 -63.309168 
L 138.545455 -63.309168 
L 135.163636 -63.309168 
L 131.781818 -78.134451 
L 128.4 -78.134451 
L 125.018182 -78.798603 
L 121.636364 -78.798603 
L 118.254545 -78.798603 
L 114.872727 -78.798603 
L 111.490909 -79.801317 
L 108.109091 -79.801317 
L 104.727273 -79.801317 
L 101.345455 -80.355336 
L 97.963636 -80.386644 
L 94.581818 -80.386644 
L 91.2 -80.386644 
L 87.818182 -80.386644 
L 84.436364 -80.386644 
L 81.054545 -80.386644 
L 77.672727 -80.386644 
L 74.290909 -80.386644 
L 70.909091 -80.386644 
L 67.527273 -109.189121 
L 64.145455 -109.189121 
L 60.763636 -109.189121 
L 57.381818 -109.189121 
L 54 -244.303382 
z
" id="m24897f4d95" style="stroke:#ee82ee;stroke-opacity:0.5;"/>
    </defs>
    <g clip-path="url(#pd0ddfd2df6)">
     <use style="fill:#ee82ee;fill-opacity:0.5;stroke:#ee82ee;stroke-opacity:0.5;" x="0" xlink:href="#m24897f4d95" y="288"/>
    </g>
   </g>
   <g id="matplotlib.axis_1">
    <g id="xtick_1">
     <g id="line2d_1">
      <defs>
       <path d="M 0 0 
L 0 3.5 
" id="m7a32b2b341" style="stroke:#000000;stroke-width:0.8;"/>
      </defs>
      <g>
       <use style="stroke:#000000;stroke-width:0.8;" x="118.254545" xlink:href="#m7a32b2b341" y="252"/>
      </g>
     </g>
     <g id="text_1">
      <!-- 20 -->
      <g transform="translate(110.754545 269.415625)scale(0.15 -0.15)">
       <defs>
        <path d="M 45.84375 12.75 
L 41.21875 0 
L 2.15625 0 
L 2.15625 1.8125 
Q 19.390625 17.53125 26.421875 27.484375 
Q 33.453125 37.453125 33.453125 45.703125 
Q 33.453125 52 29.59375 56.046875 
Q 25.734375 60.109375 20.359375 60.109375 
Q 15.484375 60.109375 11.59375 57.25 
Q 7.71875 54.390625 5.859375 48.875 
L 4.046875 48.875 
Q 5.28125 57.90625 10.328125 62.734375 
Q 15.375 67.578125 22.953125 67.578125 
Q 31 67.578125 36.390625 62.40625 
Q 41.796875 57.234375 41.796875 50.203125 
Q 41.796875 45.171875 39.453125 40.140625 
Q 35.84375 32.234375 27.734375 23.390625 
Q 15.578125 10.109375 12.546875 7.375 
L 29.828125 7.375 
Q 35.109375 7.375 37.234375 7.765625 
Q 39.359375 8.15625 41.0625 9.34375 
Q 42.78125 10.546875 44.046875 12.75 
z
" id="TimesNewRomanPSMT-50"/>
        <path d="M 3.609375 32.71875 
Q 3.609375 44.046875 7.03125 52.21875 
Q 10.453125 60.40625 16.109375 64.40625 
Q 20.515625 67.578125 25.203125 67.578125 
Q 32.8125 67.578125 38.875 59.8125 
Q 46.4375 50.203125 46.4375 33.734375 
Q 46.4375 22.21875 43.109375 14.15625 
Q 39.796875 6.109375 34.640625 2.46875 
Q 29.5 -1.171875 24.703125 -1.171875 
Q 15.234375 -1.171875 8.9375 10.015625 
Q 3.609375 19.4375 3.609375 32.71875 
z
M 13.1875 31.5 
Q 13.1875 17.828125 16.546875 9.1875 
Q 19.34375 1.90625 24.859375 1.90625 
Q 27.484375 1.90625 30.3125 4.265625 
Q 33.15625 6.640625 34.625 12.203125 
Q 36.859375 20.609375 36.859375 35.890625 
Q 36.859375 47.21875 34.515625 54.78125 
Q 32.765625 60.40625 29.984375 62.75 
Q 27.984375 64.359375 25.140625 64.359375 
Q 21.828125 64.359375 19.234375 61.375 
Q 15.71875 57.328125 14.453125 48.625 
Q 13.1875 39.9375 13.1875 31.5 
z
" id="TimesNewRomanPSMT-48"/>
       </defs>
       <use xlink:href="#TimesNewRomanPSMT-50"/>
       <use x="50" xlink:href="#TimesNewRomanPSMT-48"/>
      </g>
     </g>
    </g>
    <g id="xtick_2">
     <g id="line2d_2">
      <g>
       <use style="stroke:#000000;stroke-width:0.8;" x="185.890909" xlink:href="#m7a32b2b341" y="252"/>
      </g>
     </g>
     <g id="text_2">
      <!-- 40 -->
      <g transform="translate(178.390909 269.415625)scale(0.15 -0.15)">
       <defs>
        <path d="M 46.53125 24.421875 
L 46.53125 17.484375 
L 37.640625 17.484375 
L 37.640625 0 
L 29.59375 0 
L 29.59375 17.484375 
L 1.5625 17.484375 
L 1.5625 23.734375 
L 32.28125 67.578125 
L 37.640625 67.578125 
L 37.640625 24.421875 
z
M 29.59375 24.421875 
L 29.59375 57.28125 
L 6.34375 24.421875 
z
" id="TimesNewRomanPSMT-52"/>
       </defs>
       <use xlink:href="#TimesNewRomanPSMT-52"/>
       <use x="50" xlink:href="#TimesNewRomanPSMT-48"/>
      </g>
     </g>
    </g>
    <g id="xtick_3">
     <g id="line2d_3">
      <g>
       <use style="stroke:#000000;stroke-width:0.8;" x="253.527273" xlink:href="#m7a32b2b341" y="252"/>
      </g>
     </g>
     <g id="text_3">
      <!-- 60 -->
      <g transform="translate(246.027273 269.415625)scale(0.15 -0.15)">
       <defs>
        <path d="M 44.828125 67.578125 
L 44.828125 65.765625 
Q 38.375 65.140625 34.296875 63.203125 
Q 30.21875 61.28125 26.234375 57.328125 
Q 22.265625 53.375 19.65625 48.515625 
Q 17.046875 43.65625 15.28125 36.96875 
Q 22.3125 41.796875 29.390625 41.796875 
Q 36.1875 41.796875 41.15625 36.328125 
Q 46.140625 30.859375 46.140625 22.265625 
Q 46.140625 13.96875 41.109375 7.125 
Q 35.0625 -1.171875 25.09375 -1.171875 
Q 18.3125 -1.171875 13.578125 3.328125 
Q 4.296875 12.0625 4.296875 25.984375 
Q 4.296875 34.859375 7.859375 42.859375 
Q 11.421875 50.875 18.03125 57.078125 
Q 24.65625 63.28125 30.703125 65.421875 
Q 36.765625 67.578125 42 67.578125 
z
M 14.453125 33.40625 
Q 13.578125 26.8125 13.578125 22.75 
Q 13.578125 18.0625 15.3125 12.5625 
Q 17.046875 7.078125 20.453125 3.859375 
Q 22.953125 1.5625 26.515625 1.5625 
Q 30.765625 1.5625 34.109375 5.5625 
Q 37.453125 9.578125 37.453125 17 
Q 37.453125 25.34375 34.125 31.4375 
Q 30.8125 37.546875 24.703125 37.546875 
Q 22.859375 37.546875 20.734375 36.765625 
Q 18.609375 35.984375 14.453125 33.40625 
z
" id="TimesNewRomanPSMT-54"/>
       </defs>
       <use xlink:href="#TimesNewRomanPSMT-54"/>
       <use x="50" xlink:href="#TimesNewRomanPSMT-48"/>
      </g>
     </g>
    </g>
    <g id="xtick_4">
     <g id="line2d_4">
      <g>
       <use style="stroke:#000000;stroke-width:0.8;" x="321.163636" xlink:href="#m7a32b2b341" y="252"/>
      </g>
     </g>
     <g id="text_4">
      <!-- 80 -->
      <g transform="translate(313.663636 269.415625)scale(0.15 -0.15)">
       <defs>
        <path d="M 19.1875 33.34375 
Q 11.328125 39.796875 9.046875 43.703125 
Q 6.78125 47.609375 6.78125 51.8125 
Q 6.78125 58.25 11.765625 62.90625 
Q 16.75 67.578125 25 67.578125 
Q 33.015625 67.578125 37.890625 63.234375 
Q 42.78125 58.890625 42.78125 53.328125 
Q 42.78125 49.609375 40.140625 45.75 
Q 37.5 41.890625 29.15625 36.671875 
Q 37.75 30.03125 40.53125 26.21875 
Q 44.234375 21.234375 44.234375 15.71875 
Q 44.234375 8.734375 38.90625 3.78125 
Q 33.59375 -1.171875 24.953125 -1.171875 
Q 15.53125 -1.171875 10.25 4.734375 
Q 6.0625 9.46875 6.0625 15.09375 
Q 6.0625 19.484375 9.015625 23.796875 
Q 11.96875 28.125 19.1875 33.34375 
z
M 26.859375 38.578125 
Q 32.71875 43.84375 34.28125 46.890625 
Q 35.84375 49.953125 35.84375 53.8125 
Q 35.84375 58.9375 32.953125 61.84375 
Q 30.078125 64.75 25.09375 64.75 
Q 20.125 64.75 17 61.859375 
Q 13.875 58.984375 13.875 55.125 
Q 13.875 52.59375 15.15625 50.046875 
Q 16.453125 47.515625 18.84375 45.21875 
z
M 21.484375 31.5 
Q 17.4375 28.078125 15.484375 24.046875 
Q 13.53125 20.015625 13.53125 15.328125 
Q 13.53125 9.03125 16.96875 5.25 
Q 20.40625 1.46875 25.734375 1.46875 
Q 31 1.46875 34.171875 4.4375 
Q 37.359375 7.421875 37.359375 11.671875 
Q 37.359375 15.1875 35.5 17.96875 
Q 32.03125 23.140625 21.484375 31.5 
z
" id="TimesNewRomanPSMT-56"/>
       </defs>
       <use xlink:href="#TimesNewRomanPSMT-56"/>
       <use x="50" xlink:href="#TimesNewRomanPSMT-48"/>
      </g>
     </g>
    </g>
    <g id="xtick_5">
     <g id="line2d_5">
      <g>
       <use style="stroke:#000000;stroke-width:0.8;" x="388.8" xlink:href="#m7a32b2b341" y="252"/>
      </g>
     </g>
     <g id="text_5">
      <!-- 100 -->
      <g transform="translate(377.55 269.415625)scale(0.15 -0.15)">
       <defs>
        <path d="M 11.71875 59.71875 
L 27.828125 67.578125 
L 29.4375 67.578125 
L 29.4375 11.671875 
Q 29.4375 6.109375 29.90625 4.734375 
Q 30.375 3.375 31.828125 2.640625 
Q 33.296875 1.90625 37.796875 1.8125 
L 37.796875 0 
L 12.890625 0 
L 12.890625 1.8125 
Q 17.578125 1.90625 18.9375 2.609375 
Q 20.3125 3.328125 20.84375 4.515625 
Q 21.390625 5.71875 21.390625 11.671875 
L 21.390625 47.40625 
Q 21.390625 54.640625 20.90625 56.6875 
Q 20.5625 58.25 19.65625 58.984375 
Q 18.75 59.71875 17.484375 59.71875 
Q 15.671875 59.71875 12.453125 58.203125 
z
" id="TimesNewRomanPSMT-49"/>
       </defs>
       <use xlink:href="#TimesNewRomanPSMT-49"/>
       <use x="50" xlink:href="#TimesNewRomanPSMT-48"/>
       <use x="100" xlink:href="#TimesNewRomanPSMT-48"/>
      </g>
     </g>
    </g>
    <g id="text_6">
     <!-- Number of function evaluations -->
     <g transform="translate(125.799609 287.039844)scale(0.15 -0.15)">
      <defs>
       <path d="M -1.3125 66.21875 
L 16.65625 66.21875 
L 57.125 16.546875 
L 57.125 54.734375 
Q 57.125 60.84375 55.765625 62.359375 
Q 53.953125 64.40625 50.046875 64.40625 
L 47.75 64.40625 
L 47.75 66.21875 
L 70.796875 66.21875 
L 70.796875 64.40625 
L 68.453125 64.40625 
Q 64.265625 64.40625 62.5 61.859375 
Q 61.421875 60.296875 61.421875 54.734375 
L 61.421875 -1.078125 
L 59.671875 -1.078125 
L 16.015625 52.25 
L 16.015625 11.46875 
Q 16.015625 5.375 17.328125 3.859375 
Q 19.1875 1.8125 23.046875 1.8125 
L 25.390625 1.8125 
L 25.390625 0 
L 2.34375 0 
L 2.34375 1.8125 
L 4.640625 1.8125 
Q 8.890625 1.8125 10.640625 4.34375 
Q 11.71875 5.90625 11.71875 11.46875 
L 11.71875 57.515625 
Q 8.84375 60.890625 7.34375 61.953125 
Q 5.859375 63.03125 2.984375 63.96875 
Q 1.5625 64.40625 -1.3125 64.40625 
z
" id="TimesNewRomanPSMT-78"/>
       <path d="M 42.328125 44.734375 
L 42.328125 17.625 
Q 42.328125 9.859375 42.6875 8.125 
Q 43.0625 6.390625 43.859375 5.703125 
Q 44.671875 5.03125 45.75 5.03125 
Q 47.265625 5.03125 49.171875 5.859375 
L 49.859375 4.15625 
L 36.46875 -1.375 
L 34.28125 -1.375 
L 34.28125 8.109375 
Q 28.515625 1.859375 25.484375 0.234375 
Q 22.46875 -1.375 19.09375 -1.375 
Q 15.328125 -1.375 12.5625 0.796875 
Q 9.8125 2.984375 8.734375 6.390625 
Q 7.671875 9.8125 7.671875 16.0625 
L 7.671875 36.03125 
Q 7.671875 39.203125 6.984375 40.421875 
Q 6.296875 41.65625 4.953125 42.3125 
Q 3.609375 42.96875 0.09375 42.921875 
L 0.09375 44.734375 
L 15.765625 44.734375 
L 15.765625 14.796875 
Q 15.765625 8.546875 17.9375 6.59375 
Q 20.125 4.640625 23.1875 4.640625 
Q 25.296875 4.640625 27.953125 5.953125 
Q 30.609375 7.28125 34.28125 10.984375 
L 34.28125 36.328125 
Q 34.28125 40.140625 32.890625 41.484375 
Q 31.5 42.828125 27.09375 42.921875 
L 27.09375 44.734375 
z
" id="TimesNewRomanPSMT-117"/>
       <path d="M 16.40625 36.53125 
Q 21.296875 41.40625 22.171875 42.140625 
Q 24.359375 44 26.890625 45.015625 
Q 29.4375 46.046875 31.9375 46.046875 
Q 36.140625 46.046875 39.15625 43.59375 
Q 42.1875 41.15625 43.21875 36.53125 
Q 48.25 42.390625 51.703125 44.21875 
Q 55.171875 46.046875 58.84375 46.046875 
Q 62.40625 46.046875 65.15625 44.21875 
Q 67.921875 42.390625 69.53125 38.234375 
Q 70.609375 35.40625 70.609375 29.34375 
L 70.609375 10.109375 
Q 70.609375 5.90625 71.234375 4.34375 
Q 71.734375 3.265625 73.046875 2.515625 
Q 74.359375 1.765625 77.34375 1.765625 
L 77.34375 0 
L 55.28125 0 
L 55.28125 1.765625 
L 56.203125 1.765625 
Q 59.078125 1.765625 60.6875 2.875 
Q 61.8125 3.65625 62.3125 5.375 
Q 62.5 6.203125 62.5 10.109375 
L 62.5 29.34375 
Q 62.5 34.8125 61.1875 37.0625 
Q 59.28125 40.1875 55.078125 40.1875 
Q 52.484375 40.1875 49.875 38.890625 
Q 47.265625 37.59375 43.5625 34.078125 
L 43.453125 33.546875 
L 43.5625 31.453125 
L 43.5625 10.109375 
Q 43.5625 5.515625 44.0625 4.390625 
Q 44.578125 3.265625 45.984375 2.515625 
Q 47.40625 1.765625 50.828125 1.765625 
L 50.828125 0 
L 28.21875 0 
L 28.21875 1.765625 
Q 31.9375 1.765625 33.328125 2.640625 
Q 34.71875 3.515625 35.25 5.28125 
Q 35.5 6.109375 35.5 10.109375 
L 35.5 29.34375 
Q 35.5 34.8125 33.890625 37.203125 
Q 31.734375 40.328125 27.875 40.328125 
Q 25.25 40.328125 22.65625 38.921875 
Q 18.609375 36.765625 16.40625 34.078125 
L 16.40625 10.109375 
Q 16.40625 5.71875 17.015625 4.390625 
Q 17.625 3.078125 18.8125 2.421875 
Q 20.015625 1.765625 23.6875 1.765625 
L 23.6875 0 
L 1.5625 0 
L 1.5625 1.765625 
Q 4.640625 1.765625 5.859375 2.421875 
Q 7.078125 3.078125 7.703125 4.515625 
Q 8.34375 5.953125 8.34375 10.109375 
L 8.34375 27.203125 
Q 8.34375 34.578125 7.90625 36.71875 
Q 7.5625 38.328125 6.828125 38.9375 
Q 6.109375 39.546875 4.828125 39.546875 
Q 3.46875 39.546875 1.5625 38.8125 
L 0.828125 40.578125 
L 14.3125 46.046875 
L 16.40625 46.046875 
z
" id="TimesNewRomanPSMT-109"/>
       <path d="M 15.375 37.015625 
Q 21.875 46.046875 29.390625 46.046875 
Q 36.28125 46.046875 41.40625 40.15625 
Q 46.53125 34.28125 46.53125 24.078125 
Q 46.53125 12.15625 38.625 4.890625 
Q 31.84375 -1.375 23.484375 -1.375 
Q 19.578125 -1.375 15.546875 0.046875 
Q 11.53125 1.46875 7.328125 4.296875 
L 7.328125 50.640625 
Q 7.328125 58.25 6.953125 60 
Q 6.59375 61.765625 5.8125 62.390625 
Q 5.03125 63.03125 3.859375 63.03125 
Q 2.484375 63.03125 0.4375 62.25 
L -0.25 63.96875 
L 13.1875 69.4375 
L 15.375 69.4375 
z
M 15.375 33.890625 
L 15.375 7.125 
Q 17.875 4.6875 20.53125 3.4375 
Q 23.1875 2.203125 25.984375 2.203125 
Q 30.421875 2.203125 34.25 7.078125 
Q 38.09375 11.96875 38.09375 21.296875 
Q 38.09375 29.890625 34.25 34.5 
Q 30.421875 39.109375 25.53125 39.109375 
Q 22.953125 39.109375 20.359375 37.796875 
Q 18.40625 36.8125 15.375 33.890625 
z
" id="TimesNewRomanPSMT-98"/>
       <path d="M 10.640625 27.875 
Q 10.59375 17.921875 15.484375 12.25 
Q 20.359375 6.59375 26.953125 6.59375 
Q 31.34375 6.59375 34.59375 9 
Q 37.84375 11.421875 40.046875 17.28125 
L 41.546875 16.3125 
Q 40.53125 9.625 35.59375 4.125 
Q 30.671875 -1.375 23.25 -1.375 
Q 15.1875 -1.375 9.453125 4.90625 
Q 3.71875 11.1875 3.71875 21.78125 
Q 3.71875 33.25 9.59375 39.671875 
Q 15.484375 46.09375 24.359375 46.09375 
Q 31.890625 46.09375 36.71875 41.140625 
Q 41.546875 36.1875 41.546875 27.875 
z
M 10.640625 30.71875 
L 31.34375 30.71875 
Q 31.109375 35.015625 30.328125 36.765625 
Q 29.109375 39.5 26.6875 41.0625 
Q 24.265625 42.625 21.625 42.625 
Q 17.578125 42.625 14.375 39.46875 
Q 11.1875 36.328125 10.640625 30.71875 
z
" id="TimesNewRomanPSMT-101"/>
       <path d="M 16.21875 46.046875 
L 16.21875 35.984375 
Q 21.828125 46.046875 27.734375 46.046875 
Q 30.421875 46.046875 32.171875 44.40625 
Q 33.9375 42.78125 33.9375 40.625 
Q 33.9375 38.71875 32.65625 37.390625 
Q 31.390625 36.078125 29.640625 36.078125 
Q 27.9375 36.078125 25.8125 37.765625 
Q 23.6875 39.453125 22.65625 39.453125 
Q 21.78125 39.453125 20.75 38.484375 
Q 18.5625 36.46875 16.21875 31.890625 
L 16.21875 10.453125 
Q 16.21875 6.734375 17.140625 4.828125 
Q 17.78125 3.515625 19.390625 2.640625 
Q 21 1.765625 24.03125 1.765625 
L 24.03125 0 
L 1.125 0 
L 1.125 1.765625 
Q 4.546875 1.765625 6.203125 2.828125 
Q 7.421875 3.609375 7.90625 5.328125 
Q 8.15625 6.15625 8.15625 10.0625 
L 8.15625 27.390625 
Q 8.15625 35.203125 7.828125 36.6875 
Q 7.515625 38.1875 6.65625 38.859375 
Q 5.8125 39.546875 4.546875 39.546875 
Q 3.03125 39.546875 1.125 38.8125 
L 0.640625 40.578125 
L 14.15625 46.046875 
z
" id="TimesNewRomanPSMT-114"/>
       <path id="TimesNewRomanPSMT-32"/>
       <path d="M 25 46.046875 
Q 35.15625 46.046875 41.3125 38.328125 
Q 46.53125 31.734375 46.53125 23.1875 
Q 46.53125 17.1875 43.640625 11.03125 
Q 40.765625 4.890625 35.71875 1.75 
Q 30.671875 -1.375 24.46875 -1.375 
Q 14.359375 -1.375 8.40625 6.6875 
Q 3.375 13.484375 3.375 21.921875 
Q 3.375 28.078125 6.421875 34.15625 
Q 9.46875 40.234375 14.453125 43.140625 
Q 19.4375 46.046875 25 46.046875 
z
M 23.484375 42.875 
Q 20.90625 42.875 18.28125 41.328125 
Q 15.671875 39.796875 14.0625 35.9375 
Q 12.453125 32.078125 12.453125 26.03125 
Q 12.453125 16.265625 16.328125 9.171875 
Q 20.21875 2.09375 26.5625 2.09375 
Q 31.296875 2.09375 34.375 6 
Q 37.453125 9.90625 37.453125 19.4375 
Q 37.453125 31.34375 32.328125 38.1875 
Q 28.859375 42.875 23.484375 42.875 
z
" id="TimesNewRomanPSMT-111"/>
       <path d="M 20.609375 41.21875 
L 20.609375 11.8125 
Q 20.609375 5.5625 21.96875 3.90625 
Q 23.78125 1.765625 26.8125 1.765625 
L 30.859375 1.765625 
L 30.859375 0 
L 4.15625 0 
L 4.15625 1.765625 
L 6.15625 1.765625 
Q 8.109375 1.765625 9.71875 2.734375 
Q 11.328125 3.71875 11.9375 5.375 
Q 12.546875 7.03125 12.546875 11.8125 
L 12.546875 41.21875 
L 3.859375 41.21875 
L 3.859375 44.734375 
L 12.546875 44.734375 
L 12.546875 47.65625 
Q 12.546875 54.34375 14.6875 58.984375 
Q 16.84375 63.625 21.265625 66.484375 
Q 25.6875 69.34375 31.203125 69.34375 
Q 36.328125 69.34375 40.625 66.015625 
Q 43.453125 63.8125 43.453125 61.078125 
Q 43.453125 59.625 42.1875 58.328125 
Q 40.921875 57.03125 39.453125 57.03125 
Q 38.328125 57.03125 37.078125 57.828125 
Q 35.84375 58.640625 34.03125 61.296875 
Q 32.234375 63.96875 30.71875 64.890625 
Q 29.203125 65.828125 27.34375 65.828125 
Q 25.09375 65.828125 23.53125 64.625 
Q 21.96875 63.421875 21.28125 60.90625 
Q 20.609375 58.40625 20.609375 47.953125 
L 20.609375 44.734375 
L 32.125 44.734375 
L 32.125 41.21875 
z
" id="TimesNewRomanPSMT-102"/>
       <path d="M 16.15625 36.578125 
Q 24.03125 46.046875 31.15625 46.046875 
Q 34.8125 46.046875 37.453125 44.21875 
Q 40.09375 42.390625 41.65625 38.1875 
Q 42.71875 35.25 42.71875 29.203125 
L 42.71875 10.109375 
Q 42.71875 5.859375 43.40625 4.34375 
Q 43.953125 3.125 45.140625 2.4375 
Q 46.34375 1.765625 49.5625 1.765625 
L 49.5625 0 
L 27.4375 0 
L 27.4375 1.765625 
L 28.375 1.765625 
Q 31.5 1.765625 32.734375 2.703125 
Q 33.984375 3.65625 34.46875 5.515625 
Q 34.671875 6.25 34.671875 10.109375 
L 34.671875 28.421875 
Q 34.671875 34.515625 33.078125 37.28125 
Q 31.5 40.046875 27.734375 40.046875 
Q 21.921875 40.046875 16.15625 33.6875 
L 16.15625 10.109375 
Q 16.15625 5.5625 16.703125 4.5 
Q 17.390625 3.078125 18.578125 2.421875 
Q 19.78125 1.765625 23.4375 1.765625 
L 23.4375 0 
L 1.3125 0 
L 1.3125 1.765625 
L 2.296875 1.765625 
Q 5.71875 1.765625 6.90625 3.484375 
Q 8.109375 5.21875 8.109375 10.109375 
L 8.109375 26.703125 
Q 8.109375 34.765625 7.734375 36.515625 
Q 7.375 38.28125 6.609375 38.90625 
Q 5.859375 39.546875 4.59375 39.546875 
Q 3.21875 39.546875 1.3125 38.8125 
L 0.59375 40.578125 
L 14.0625 46.046875 
L 16.15625 46.046875 
z
" id="TimesNewRomanPSMT-110"/>
       <path d="M 41.109375 17 
Q 39.3125 8.15625 34.03125 3.390625 
Q 28.765625 -1.375 22.359375 -1.375 
Q 14.75 -1.375 9.078125 5.015625 
Q 3.421875 11.421875 3.421875 22.3125 
Q 3.421875 32.859375 9.6875 39.453125 
Q 15.96875 46.046875 24.75 46.046875 
Q 31.34375 46.046875 35.59375 42.546875 
Q 39.84375 39.0625 39.84375 35.296875 
Q 39.84375 33.453125 38.640625 32.296875 
Q 37.453125 31.15625 35.296875 31.15625 
Q 32.421875 31.15625 30.953125 33.015625 
Q 30.125 34.03125 29.859375 36.90625 
Q 29.59375 39.796875 27.875 41.3125 
Q 26.171875 42.78125 23.140625 42.78125 
Q 18.265625 42.78125 15.28125 39.15625 
Q 11.328125 34.375 11.328125 26.515625 
Q 11.328125 18.5 15.25 12.375 
Q 19.1875 6.25 25.875 6.25 
Q 30.671875 6.25 34.46875 9.515625 
Q 37.15625 11.765625 39.703125 17.671875 
z
" id="TimesNewRomanPSMT-99"/>
       <path d="M 16.109375 59.421875 
L 16.109375 44.734375 
L 26.5625 44.734375 
L 26.5625 41.3125 
L 16.109375 41.3125 
L 16.109375 12.3125 
Q 16.109375 7.953125 17.359375 6.4375 
Q 18.609375 4.9375 20.5625 4.9375 
Q 22.171875 4.9375 23.6875 5.9375 
Q 25.203125 6.9375 26.03125 8.890625 
L 27.9375 8.890625 
Q 26.21875 4.109375 23.09375 1.6875 
Q 19.96875 -0.734375 16.65625 -0.734375 
Q 14.40625 -0.734375 12.25 0.515625 
Q 10.109375 1.765625 9.078125 4.078125 
Q 8.0625 6.390625 8.0625 11.234375 
L 8.0625 41.3125 
L 0.984375 41.3125 
L 0.984375 42.921875 
Q 3.65625 44 6.46875 46.5625 
Q 9.28125 49.125 11.46875 52.640625 
Q 12.59375 54.5 14.59375 59.421875 
z
" id="TimesNewRomanPSMT-116"/>
       <path d="M 14.5 69.4375 
Q 16.546875 69.4375 17.984375 67.984375 
Q 19.4375 66.546875 19.4375 64.5 
Q 19.4375 62.453125 17.984375 60.984375 
Q 16.546875 59.515625 14.5 59.515625 
Q 12.453125 59.515625 10.984375 60.984375 
Q 9.515625 62.453125 9.515625 64.5 
Q 9.515625 66.546875 10.953125 67.984375 
Q 12.40625 69.4375 14.5 69.4375 
z
M 18.5625 46.046875 
L 18.5625 10.109375 
Q 18.5625 5.90625 19.171875 4.515625 
Q 19.78125 3.125 20.96875 2.4375 
Q 22.171875 1.765625 25.34375 1.765625 
L 25.34375 0 
L 3.609375 0 
L 3.609375 1.765625 
Q 6.890625 1.765625 8 2.390625 
Q 9.125 3.03125 9.78125 4.484375 
Q 10.453125 5.953125 10.453125 10.109375 
L 10.453125 27.34375 
Q 10.453125 34.625 10.015625 36.765625 
Q 9.671875 38.328125 8.9375 38.9375 
Q 8.203125 39.546875 6.9375 39.546875 
Q 5.5625 39.546875 3.609375 38.8125 
L 2.9375 40.578125 
L 16.40625 46.046875 
z
" id="TimesNewRomanPSMT-105"/>
       <path d="M 0.828125 44.734375 
L 21.875 44.734375 
L 21.875 42.921875 
L 20.515625 42.921875 
Q 18.609375 42.921875 17.609375 41.984375 
Q 16.609375 41.0625 16.609375 39.5 
Q 16.609375 37.796875 17.625 35.453125 
L 28.03125 10.75 
L 38.484375 36.375 
Q 39.59375 39.109375 39.59375 40.53125 
Q 39.59375 41.21875 39.203125 41.65625 
Q 38.671875 42.390625 37.84375 42.65625 
Q 37.015625 42.921875 34.46875 42.921875 
L 34.46875 44.734375 
L 49.078125 44.734375 
L 49.078125 42.921875 
Q 46.53125 42.71875 45.5625 41.890625 
Q 43.84375 40.4375 42.484375 37.015625 
L 26.609375 -1.375 
L 24.609375 -1.375 
L 8.640625 36.375 
Q 7.5625 39.015625 6.578125 40.15625 
Q 5.609375 41.3125 4.109375 42.09375 
Q 3.265625 42.53125 0.828125 42.921875 
z
" id="TimesNewRomanPSMT-118"/>
       <path d="M 28.46875 6.453125 
Q 21.578125 1.125 19.828125 0.296875 
Q 17.1875 -0.921875 14.203125 -0.921875 
Q 9.578125 -0.921875 6.5625 2.25 
Q 3.5625 5.421875 3.5625 10.59375 
Q 3.5625 13.875 5.03125 16.265625 
Q 7.03125 19.578125 11.984375 22.5 
Q 16.9375 25.4375 28.46875 29.640625 
L 28.46875 31.390625 
Q 28.46875 38.09375 26.34375 40.578125 
Q 24.21875 43.0625 20.171875 43.0625 
Q 17.09375 43.0625 15.28125 41.40625 
Q 13.421875 39.75 13.421875 37.59375 
L 13.53125 34.765625 
Q 13.53125 32.515625 12.375 31.296875 
Q 11.234375 30.078125 9.375 30.078125 
Q 7.5625 30.078125 6.421875 31.34375 
Q 5.28125 32.625 5.28125 34.8125 
Q 5.28125 39.015625 9.578125 42.53125 
Q 13.875 46.046875 21.625 46.046875 
Q 27.59375 46.046875 31.390625 44.046875 
Q 34.28125 42.53125 35.640625 39.3125 
Q 36.53125 37.203125 36.53125 30.71875 
L 36.53125 15.53125 
Q 36.53125 9.125 36.765625 7.6875 
Q 37.015625 6.25 37.578125 5.765625 
Q 38.140625 5.28125 38.875 5.28125 
Q 39.65625 5.28125 40.234375 5.609375 
Q 41.265625 6.25 44.1875 9.1875 
L 44.1875 6.453125 
Q 38.71875 -0.875 33.734375 -0.875 
Q 31.34375 -0.875 29.921875 0.78125 
Q 28.515625 2.4375 28.46875 6.453125 
z
M 28.46875 9.625 
L 28.46875 26.65625 
Q 21.09375 23.734375 18.953125 22.515625 
Q 15.09375 20.359375 13.421875 18.015625 
Q 11.765625 15.671875 11.765625 12.890625 
Q 11.765625 9.375 13.859375 7.046875 
Q 15.96875 4.734375 18.703125 4.734375 
Q 22.40625 4.734375 28.46875 9.625 
z
" id="TimesNewRomanPSMT-97"/>
       <path d="M 18.5 69.4375 
L 18.5 10.109375 
Q 18.5 5.90625 19.109375 4.53125 
Q 19.734375 3.171875 21 2.46875 
Q 22.265625 1.765625 25.734375 1.765625 
L 25.734375 0 
L 3.8125 0 
L 3.8125 1.765625 
Q 6.890625 1.765625 8 2.390625 
Q 9.125 3.03125 9.765625 4.484375 
Q 10.40625 5.953125 10.40625 10.109375 
L 10.40625 50.734375 
Q 10.40625 58.296875 10.0625 60.03125 
Q 9.71875 61.765625 8.953125 62.390625 
Q 8.203125 63.03125 7.03125 63.03125 
Q 5.765625 63.03125 3.8125 62.25 
L 2.984375 63.96875 
L 16.3125 69.4375 
z
" id="TimesNewRomanPSMT-108"/>
       <path d="M 32.03125 46.046875 
L 32.03125 30.8125 
L 30.421875 30.8125 
Q 28.5625 37.984375 25.65625 40.578125 
Q 22.75 43.171875 18.265625 43.171875 
Q 14.84375 43.171875 12.734375 41.359375 
Q 10.640625 39.546875 10.640625 37.359375 
Q 10.640625 34.625 12.203125 32.671875 
Q 13.71875 30.671875 18.359375 28.421875 
L 25.484375 24.953125 
Q 35.40625 20.125 35.40625 12.203125 
Q 35.40625 6.109375 30.78125 2.359375 
Q 26.171875 -1.375 20.453125 -1.375 
Q 16.359375 -1.375 11.078125 0.09375 
Q 9.46875 0.59375 8.453125 0.59375 
Q 7.328125 0.59375 6.6875 -0.6875 
L 5.078125 -0.6875 
L 5.078125 15.28125 
L 6.6875 15.28125 
Q 8.0625 8.453125 11.90625 4.984375 
Q 15.765625 1.515625 20.5625 1.515625 
Q 23.921875 1.515625 26.046875 3.484375 
Q 28.171875 5.46875 28.171875 8.25 
Q 28.171875 11.625 25.796875 13.921875 
Q 23.4375 16.21875 16.359375 19.734375 
Q 9.28125 23.25 7.078125 26.078125 
Q 4.890625 28.859375 4.890625 33.109375 
Q 4.890625 38.625 8.671875 42.328125 
Q 12.453125 46.046875 18.453125 46.046875 
Q 21.09375 46.046875 24.859375 44.921875 
Q 27.34375 44.1875 28.171875 44.1875 
Q 28.953125 44.1875 29.390625 44.53125 
Q 29.828125 44.875 30.421875 46.046875 
z
" id="TimesNewRomanPSMT-115"/>
      </defs>
      <use xlink:href="#TimesNewRomanPSMT-78"/>
      <use x="72.216797" xlink:href="#TimesNewRomanPSMT-117"/>
      <use x="122.216797" xlink:href="#TimesNewRomanPSMT-109"/>
      <use x="200" xlink:href="#TimesNewRomanPSMT-98"/>
      <use x="250" xlink:href="#TimesNewRomanPSMT-101"/>
      <use x="294.384766" xlink:href="#TimesNewRomanPSMT-114"/>
      <use x="327.685547" xlink:href="#TimesNewRomanPSMT-32"/>
      <use x="352.685547" xlink:href="#TimesNewRomanPSMT-111"/>
      <use x="402.685547" xlink:href="#TimesNewRomanPSMT-102"/>
      <use x="435.986328" xlink:href="#TimesNewRomanPSMT-32"/>
      <use x="460.986328" xlink:href="#TimesNewRomanPSMT-102"/>
      <use x="494.287109" xlink:href="#TimesNewRomanPSMT-117"/>
      <use x="544.287109" xlink:href="#TimesNewRomanPSMT-110"/>
      <use x="594.287109" xlink:href="#TimesNewRomanPSMT-99"/>
      <use x="638.671875" xlink:href="#TimesNewRomanPSMT-116"/>
      <use x="666.455078" xlink:href="#TimesNewRomanPSMT-105"/>
      <use x="694.238281" xlink:href="#TimesNewRomanPSMT-111"/>
      <use x="744.238281" xlink:href="#TimesNewRomanPSMT-110"/>
      <use x="794.238281" xlink:href="#TimesNewRomanPSMT-32"/>
      <use x="819.238281" xlink:href="#TimesNewRomanPSMT-101"/>
      <use x="863.623047" xlink:href="#TimesNewRomanPSMT-118"/>
      <use x="913.623047" xlink:href="#TimesNewRomanPSMT-97"/>
      <use x="958.007812" xlink:href="#TimesNewRomanPSMT-108"/>
      <use x="985.791016" xlink:href="#TimesNewRomanPSMT-117"/>
      <use x="1035.791016" xlink:href="#TimesNewRomanPSMT-97"/>
      <use x="1080.175781" xlink:href="#TimesNewRomanPSMT-116"/>
      <use x="1107.958984" xlink:href="#TimesNewRomanPSMT-105"/>
      <use x="1135.742188" xlink:href="#TimesNewRomanPSMT-111"/>
      <use x="1185.742188" xlink:href="#TimesNewRomanPSMT-110"/>
      <use x="1235.742188" xlink:href="#TimesNewRomanPSMT-115"/>
     </g>
    </g>
   </g>
   <g id="matplotlib.axis_2">
    <g id="ytick_1">
     <g id="line2d_6">
      <defs>
       <path d="M 0 0 
L -3.5 0 
" id="mb8338b52fd" style="stroke:#000000;stroke-width:0.8;"/>
      </defs>
      <g>
       <use style="stroke:#000000;stroke-width:0.8;" x="54" xlink:href="#mb8338b52fd" y="243.21241"/>
      </g>
     </g>
     <g id="text_7">
      <!-- $\mathdefault{10^{0}}$ -->
      <g transform="translate(25.85 249.858113)scale(0.15 -0.15)">
       <use transform="translate(0 0.582813)" xlink:href="#TimesNewRomanPSMT-49"/>
       <use transform="translate(50 0.582813)" xlink:href="#TimesNewRomanPSMT-48"/>
       <use transform="translate(101.502813 60.695312)scale(0.7)" xlink:href="#TimesNewRomanPSMT-48"/>
      </g>
     </g>
    </g>
    <g id="ytick_2">
     <g id="line2d_7">
      <g>
       <use style="stroke:#000000;stroke-width:0.8;" x="54" xlink:href="#mb8338b52fd" y="152.534579"/>
      </g>
     </g>
     <g id="text_8">
      <!-- $\mathdefault{10^{1}}$ -->
      <g transform="translate(25.85 159.180282)scale(0.15 -0.15)">
       <use transform="translate(0 0.582813)" xlink:href="#TimesNewRomanPSMT-49"/>
       <use transform="translate(50 0.582813)" xlink:href="#TimesNewRomanPSMT-48"/>
       <use transform="translate(101.502813 60.695312)scale(0.7)" xlink:href="#TimesNewRomanPSMT-49"/>
      </g>
     </g>
    </g>
    <g id="ytick_3">
     <g id="line2d_8">
      <g>
       <use style="stroke:#000000;stroke-width:0.8;" x="54" xlink:href="#mb8338b52fd" y="61.856747"/>
      </g>
     </g>
     <g id="text_9">
      <!-- $\mathdefault{10^{2}}$ -->
      <g transform="translate(25.85 68.50245)scale(0.15 -0.15)">
       <use transform="translate(0 0.582813)" xlink:href="#TimesNewRomanPSMT-49"/>
       <use transform="translate(50 0.582813)" xlink:href="#TimesNewRomanPSMT-48"/>
       <use transform="translate(101.502813 60.695312)scale(0.7)" xlink:href="#TimesNewRomanPSMT-50"/>
      </g>
     </g>
    </g>
    <g id="ytick_4">
     <g id="line2d_9">
      <defs>
       <path d="M 0 0 
L -2 0 
" id="me80c43b9f4" style="stroke:#000000;stroke-width:0.6;"/>
      </defs>
      <g>
       <use style="stroke:#000000;stroke-width:0.6;" x="54" xlink:href="#me80c43b9f4" y="252"/>
      </g>
     </g>
    </g>
    <g id="ytick_5">
     <g id="line2d_10">
      <g>
       <use style="stroke:#000000;stroke-width:0.6;" x="54" xlink:href="#me80c43b9f4" y="247.3616"/>
      </g>
     </g>
    </g>
    <g id="ytick_6">
     <g id="line2d_11">
      <g>
       <use style="stroke:#000000;stroke-width:0.6;" x="54" xlink:href="#me80c43b9f4" y="215.915663"/>
      </g>
     </g>
    </g>
    <g id="ytick_7">
     <g id="line2d_12">
      <g>
       <use style="stroke:#000000;stroke-width:0.6;" x="54" xlink:href="#me80c43b9f4" y="199.948089"/>
      </g>
     </g>
    </g>
    <g id="ytick_8">
     <g id="line2d_13">
      <g>
       <use style="stroke:#000000;stroke-width:0.6;" x="54" xlink:href="#me80c43b9f4" y="188.618916"/>
      </g>
     </g>
    </g>
    <g id="ytick_9">
     <g id="line2d_14">
      <g>
       <use style="stroke:#000000;stroke-width:0.6;" x="54" xlink:href="#me80c43b9f4" y="179.831326"/>
      </g>
     </g>
    </g>
    <g id="ytick_10">
     <g id="line2d_15">
      <g>
       <use style="stroke:#000000;stroke-width:0.6;" x="54" xlink:href="#me80c43b9f4" y="172.651342"/>
      </g>
     </g>
    </g>
    <g id="ytick_11">
     <g id="line2d_16">
      <g>
       <use style="stroke:#000000;stroke-width:0.6;" x="54" xlink:href="#me80c43b9f4" y="166.580753"/>
      </g>
     </g>
    </g>
    <g id="ytick_12">
     <g id="line2d_17">
      <g>
       <use style="stroke:#000000;stroke-width:0.6;" x="54" xlink:href="#me80c43b9f4" y="161.322169"/>
      </g>
     </g>
    </g>
    <g id="ytick_13">
     <g id="line2d_18">
      <g>
       <use style="stroke:#000000;stroke-width:0.6;" x="54" xlink:href="#me80c43b9f4" y="156.683769"/>
      </g>
     </g>
    </g>
    <g id="ytick_14">
     <g id="line2d_19">
      <g>
       <use style="stroke:#000000;stroke-width:0.6;" x="54" xlink:href="#me80c43b9f4" y="125.237831"/>
      </g>
     </g>
    </g>
    <g id="ytick_15">
     <g id="line2d_20">
      <g>
       <use style="stroke:#000000;stroke-width:0.6;" x="54" xlink:href="#me80c43b9f4" y="109.270258"/>
      </g>
     </g>
    </g>
    <g id="ytick_16">
     <g id="line2d_21">
      <g>
       <use style="stroke:#000000;stroke-width:0.6;" x="54" xlink:href="#me80c43b9f4" y="97.941084"/>
      </g>
     </g>
    </g>
    <g id="ytick_17">
     <g id="line2d_22">
      <g>
       <use style="stroke:#000000;stroke-width:0.6;" x="54" xlink:href="#me80c43b9f4" y="89.153494"/>
      </g>
     </g>
    </g>
    <g id="ytick_18">
     <g id="line2d_23">
      <g>
       <use style="stroke:#000000;stroke-width:0.6;" x="54" xlink:href="#me80c43b9f4" y="81.973511"/>
      </g>
     </g>
    </g>
    <g id="ytick_19">
     <g id="line2d_24">
      <g>
       <use style="stroke:#000000;stroke-width:0.6;" x="54" xlink:href="#me80c43b9f4" y="75.902921"/>
      </g>
     </g>
    </g>
    <g id="ytick_20">
     <g id="line2d_25">
      <g>
       <use style="stroke:#000000;stroke-width:0.6;" x="54" xlink:href="#me80c43b9f4" y="70.644337"/>
      </g>
     </g>
    </g>
    <g id="ytick_21">
     <g id="line2d_26">
      <g>
       <use style="stroke:#000000;stroke-width:0.6;" x="54" xlink:href="#me80c43b9f4" y="66.005937"/>
      </g>
     </g>
    </g>
    <g id="ytick_22">
     <g id="line2d_27">
      <g>
       <use style="stroke:#000000;stroke-width:0.6;" x="54" xlink:href="#me80c43b9f4" y="34.56"/>
      </g>
     </g>
    </g>
    <g id="text_10">
     <!-- Best function evaluation -->
     <g transform="translate(18.641406 216.597188)rotate(-90)scale(0.15 -0.15)">
      <defs>
       <path d="M 46.1875 33.796875 
Q 53.078125 32.328125 56.5 29.109375 
Q 61.234375 24.609375 61.234375 18.109375 
Q 61.234375 13.1875 58.109375 8.671875 
Q 54.984375 4.15625 49.53125 2.078125 
Q 44.09375 0 32.90625 0 
L 1.65625 0 
L 1.65625 1.8125 
L 4.15625 1.8125 
Q 8.296875 1.8125 10.109375 4.4375 
Q 11.234375 6.15625 11.234375 11.71875 
L 11.234375 54.5 
Q 11.234375 60.640625 9.8125 62.25 
Q 7.90625 64.40625 4.15625 64.40625 
L 1.65625 64.40625 
L 1.65625 66.21875 
L 30.28125 66.21875 
Q 38.28125 66.21875 43.109375 65.046875 
Q 50.4375 63.28125 54.296875 58.8125 
Q 58.15625 54.34375 58.15625 48.53125 
Q 58.15625 43.5625 55.125 39.625 
Q 52.09375 35.6875 46.1875 33.796875 
z
M 20.609375 36.421875 
Q 22.40625 36.078125 24.71875 35.90625 
Q 27.046875 35.75 29.828125 35.75 
Q 36.96875 35.75 40.546875 37.28125 
Q 44.140625 38.8125 46.046875 41.984375 
Q 47.953125 45.171875 47.953125 48.921875 
Q 47.953125 54.734375 43.21875 58.828125 
Q 38.484375 62.9375 29.390625 62.9375 
Q 24.515625 62.9375 20.609375 61.859375 
z
M 20.609375 4.78125 
Q 26.265625 3.46875 31.78125 3.46875 
Q 40.625 3.46875 45.265625 7.4375 
Q 49.90625 11.421875 49.90625 17.28125 
Q 49.90625 21.140625 47.796875 24.703125 
Q 45.703125 28.265625 40.96875 30.3125 
Q 36.234375 32.375 29.25 32.375 
Q 26.21875 32.375 24.0625 32.265625 
Q 21.921875 32.171875 20.609375 31.9375 
z
" id="TimesNewRomanPSMT-66"/>
      </defs>
      <use xlink:href="#TimesNewRomanPSMT-66"/>
      <use x="66.699219" xlink:href="#TimesNewRomanPSMT-101"/>
      <use x="111.083984" xlink:href="#TimesNewRomanPSMT-115"/>
      <use x="150" xlink:href="#TimesNewRomanPSMT-116"/>
      <use x="177.783203" xlink:href="#TimesNewRomanPSMT-32"/>
      <use x="202.783203" xlink:href="#TimesNewRomanPSMT-102"/>
      <use x="236.083984" xlink:href="#TimesNewRomanPSMT-117"/>
      <use x="286.083984" xlink:href="#TimesNewRomanPSMT-110"/>
      <use x="336.083984" xlink:href="#TimesNewRomanPSMT-99"/>
      <use x="380.46875" xlink:href="#TimesNewRomanPSMT-116"/>
      <use x="408.251953" xlink:href="#TimesNewRomanPSMT-105"/>
      <use x="436.035156" xlink:href="#TimesNewRomanPSMT-111"/>
      <use x="486.035156" xlink:href="#TimesNewRomanPSMT-110"/>
      <use x="536.035156" xlink:href="#TimesNewRomanPSMT-32"/>
      <use x="561.035156" xlink:href="#TimesNewRomanPSMT-101"/>
      <use x="605.419922" xlink:href="#TimesNewRomanPSMT-118"/>
      <use x="655.419922" xlink:href="#TimesNewRomanPSMT-97"/>
      <use x="699.804688" xlink:href="#TimesNewRomanPSMT-108"/>
      <use x="727.587891" xlink:href="#TimesNewRomanPSMT-117"/>
      <use x="777.587891" xlink:href="#TimesNewRomanPSMT-97"/>
      <use x="821.972656" xlink:href="#TimesNewRomanPSMT-116"/>
      <use x="849.755859" xlink:href="#TimesNewRomanPSMT-105"/>
      <use x="877.539062" xlink:href="#TimesNewRomanPSMT-111"/>
      <use x="927.539062" xlink:href="#TimesNewRomanPSMT-110"/>
     </g>
    </g>
   </g>
   <g id="line2d_28">
    <path clip-path="url(#pd0ddfd2df6)" d="M 54 43.754054 
L 70.909091 43.754054 
L 70.909091 44.042771 
L 81.054545 44.042771 
L 81.054545 49.311664 
L 91.2 49.311664 
L 91.2 55.090686 
L 101.345455 55.090686 
L 101.345455 62.90837 
L 111.490909 62.90837 
L 111.490909 72.937501 
L 121.636364 72.937501 
L 121.636364 82.922281 
L 131.781818 82.922281 
L 131.781818 86.784285 
L 141.927273 86.784285 
L 141.927273 88.488088 
L 152.072727 88.488088 
L 152.072727 99.100738 
L 162.218182 99.100738 
L 162.218182 103.567412 
L 172.363636 103.567412 
L 172.363636 108.876746 
L 182.509091 108.876746 
L 182.509091 113.095594 
L 192.654545 113.095594 
L 192.654545 127.027776 
L 202.8 127.027776 
L 202.8 128.922914 
L 212.945455 128.922914 
L 212.945455 136.032452 
L 223.090909 136.032452 
L 223.090909 147.029858 
L 233.236364 147.029858 
L 233.236364 148.194446 
L 243.381818 148.194446 
L 243.381818 158.712261 
L 253.527273 158.712261 
L 253.527273 162.462326 
L 263.672727 162.462326 
L 263.672727 165.999939 
L 273.818182 165.999939 
L 273.818182 167.18081 
L 294.109091 167.268491 
L 294.109091 168.585014 
L 304.254545 168.585014 
L 304.254545 176.097431 
L 314.4 176.097431 
L 314.4 176.503485 
L 324.545455 176.503485 
L 324.545455 180.149996 
L 334.690909 180.149996 
L 334.690909 180.989403 
L 344.836364 180.989403 
L 344.836364 183.514595 
L 354.981818 183.514595 
L 354.981818 184.114676 
L 365.127273 184.114676 
L 365.127273 184.316266 
L 375.272727 184.316266 
L 375.272727 184.828924 
L 385.418182 184.828924 
L 385.418182 184.952187 
L 388.8 184.952187 
L 388.8 184.952187 
" style="fill:none;stroke:#a52a2a;stroke-linecap:square;stroke-width:1.5;"/>
   </g>
   <g id="line2d_29">
    <path clip-path="url(#pd0ddfd2df6)" d="M 54 43.696618 
L 81.054545 43.696618 
L 81.054545 178.421876 
L 87.818182 178.421876 
L 87.818182 178.709505 
L 101.345455 178.763169 
L 101.345455 181.083341 
L 104.727273 181.083341 
L 104.727273 181.299439 
L 108.109091 181.299439 
L 108.109091 182.845432 
L 111.490909 182.845432 
L 111.490909 183.006101 
L 118.254545 183.006101 
L 118.254545 188.421981 
L 121.636364 188.421981 
L 121.636364 188.751965 
L 131.781818 188.751965 
L 131.781818 189.325197 
L 141.927273 189.325197 
L 141.927273 192.51948 
L 145.309091 192.51948 
L 145.309091 194.671753 
L 152.072727 194.671753 
L 152.072727 194.897654 
L 155.454545 194.897654 
L 155.454545 196.088658 
L 165.6 196.088658 
L 165.6 198.679765 
L 172.363636 198.679765 
L 172.363636 200.830716 
L 175.745455 200.830716 
L 175.745455 201.407868 
L 182.509091 201.407868 
L 182.509091 202.010677 
L 196.036364 202.010677 
L 196.036364 204.792817 
L 202.8 204.792817 
L 202.8 207.378303 
L 206.181818 207.378303 
L 206.181818 207.715721 
L 216.327273 207.715721 
L 216.327273 207.905137 
L 223.090909 207.905137 
L 223.090909 211.498848 
L 233.236364 211.498848 
L 233.236364 211.911981 
L 243.381818 211.911981 
L 243.381818 215.502481 
L 253.527273 215.502481 
L 253.527273 220.766044 
L 260.290909 220.766044 
L 260.290909 223.940547 
L 270.436364 223.940547 
L 270.436364 225.968552 
L 273.818182 225.968552 
L 273.818182 229.411488 
L 283.963636 229.411488 
L 283.963636 230.307641 
L 294.109091 230.307641 
L 294.109091 231.097468 
L 297.490909 231.097468 
L 297.490909 233.575711 
L 300.872727 233.575711 
L 300.872727 236.796383 
L 307.636364 236.796383 
L 307.636364 237.818792 
L 321.163636 237.818792 
L 321.163636 238.178863 
L 327.927273 238.178863 
L 327.927273 240.5487 
L 338.072727 240.5487 
L 338.072727 241.024754 
L 348.218182 241.024754 
L 348.218182 242.783892 
L 368.509091 242.783892 
L 368.509091 243.099307 
L 388.8 243.099307 
L 388.8 243.099307 
" style="fill:none;stroke:#008000;stroke-linecap:square;stroke-width:1.5;"/>
   </g>
   <g id="line2d_30">
    <path clip-path="url(#pd0ddfd2df6)" d="M 54 43.71878 
L 84.436364 43.79875 
L 84.436364 43.864873 
L 108.109091 43.869306 
L 108.109091 44.790632 
L 118.254545 44.872884 
L 118.254545 44.920696 
L 135.163636 44.920696 
L 135.163636 47.557482 
L 165.6 47.615131 
L 165.6 47.671301 
L 189.272727 47.741674 
L 189.272727 47.824352 
L 196.036364 47.824352 
L 196.036364 48.216974 
L 212.945455 48.216974 
L 212.945455 48.381416 
L 219.709091 48.381416 
L 219.709091 48.641787 
L 246.763636 48.703943 
L 246.763636 48.760175 
L 270.436364 48.848066 
L 270.436364 48.879052 
L 273.818182 48.879052 
L 273.818182 49.160931 
L 297.490909 49.160931 
L 297.490909 49.955113 
L 321.163636 50.03586 
L 321.163636 50.260428 
L 344.836364 50.260428 
L 344.836364 50.827914 
L 385.418182 50.932953 
L 385.418182 51.011487 
L 388.8 51.011487 
L 388.8 51.011487 
" style="fill:none;stroke:#808080;stroke-linecap:square;stroke-width:1.5;"/>
   </g>
   <g id="line2d_31">
    <path clip-path="url(#pd0ddfd2df6)" d="M 54 43.713891 
L 87.818182 43.786146 
L 87.818182 43.851167 
L 97.963636 43.85643 
L 97.963636 44.484795 
L 101.345455 44.484795 
L 101.345455 45.711046 
L 108.109091 45.711046 
L 108.109091 47.454828 
L 111.490909 47.454828 
L 111.490909 49.184349 
L 125.018182 49.184349 
L 125.018182 52.350298 
L 128.4 52.350298 
L 128.4 54.490531 
L 135.163636 54.490531 
L 135.163636 55.79965 
L 145.309091 55.79965 
L 145.309091 62.192522 
L 152.072727 62.192522 
L 152.072727 84.963931 
L 165.6 84.963931 
L 165.6 129.488984 
L 172.363636 129.488984 
L 172.363636 146.7719 
L 175.745455 146.7719 
L 175.745455 177.348158 
L 179.127273 177.348158 
L 179.127273 182.946323 
L 196.036364 182.946323 
L 196.036364 187.225278 
L 199.418182 187.225278 
L 199.418182 187.522707 
L 226.472727 187.522707 
L 226.472727 187.88707 
L 256.909091 187.88707 
L 256.909091 188.242879 
L 277.2 188.242879 
L 277.2 189.036881 
L 304.254545 189.060989 
L 304.254545 189.165169 
L 307.636364 189.165169 
L 307.636364 189.647306 
L 324.545455 189.65373 
L 324.545455 189.796612 
L 382.036364 189.873992 
L 382.036364 190.268662 
L 388.8 190.268662 
L 388.8 190.268662 
" style="fill:none;stroke:#ffa500;stroke-linecap:square;stroke-width:1.5;"/>
   </g>
   <g id="line2d_32">
    <path clip-path="url(#pd0ddfd2df6)" d="M 54 43.71521 
L 70.909091 43.71521 
L 70.909091 145.178276 
L 84.436364 145.275923 
L 84.436364 185.621865 
L 94.581818 185.621865 
L 94.581818 186.513632 
L 104.727273 186.585579 
L 104.727273 187.008041 
L 114.872727 187.008041 
L 114.872727 187.942409 
L 131.781818 187.942409 
L 131.781818 188.096635 
L 138.545455 188.096635 
L 138.545455 188.31919 
L 145.309091 188.31919 
L 145.309091 188.7839 
L 158.836364 188.7839 
L 158.836364 189.107387 
L 263.672727 189.19571 
L 263.672727 189.280518 
L 314.4 189.280518 
L 314.4 189.495859 
L 338.072727 189.495859 
L 338.072727 189.790282 
L 348.218182 189.790282 
L 348.218182 190.118522 
L 388.8 190.225739 
L 388.8 190.225739 
" style="fill:none;stroke:#0000ff;stroke-linecap:square;stroke-width:1.5;"/>
   </g>
   <g id="line2d_33">
    <path clip-path="url(#pd0ddfd2df6)" d="M 54 43.696618 
L 57.381818 43.696618 
L 57.381818 179.289614 
L 70.909091 179.289614 
L 70.909091 208.8857 
L 101.345455 208.8857 
L 101.345455 216.289736 
L 114.872727 216.289736 
L 114.872727 225.118486 
L 125.018182 225.118486 
L 125.018182 225.547263 
L 128.4 225.547263 
L 128.4 227.238352 
L 141.927273 227.267121 
L 141.927273 228.148462 
L 145.309091 228.148462 
L 145.309091 228.568909 
L 148.690909 228.568909 
L 148.690909 229.693934 
L 158.836364 229.693934 
L 158.836364 230.401042 
L 165.6 230.401042 
L 165.6 231.455778 
L 172.363636 231.455778 
L 172.363636 231.963015 
L 179.127273 231.963015 
L 179.127273 232.852396 
L 182.509091 232.852396 
L 182.509091 234.295609 
L 240 234.330518 
L 240 234.750132 
L 246.763636 234.750132 
L 246.763636 235.182705 
L 267.054545 235.280516 
L 267.054545 235.540503 
L 280.581818 235.540503 
L 280.581818 235.790111 
L 283.963636 235.790111 
L 283.963636 236.325893 
L 388.8 236.325893 
L 388.8 236.325893 
" style="fill:none;stroke:#ee82ee;stroke-linecap:square;stroke-width:1.5;"/>
   </g>
   <g id="patch_3">
    <path d="M 54 252 
L 54 34.56 
" style="fill:none;stroke:#000000;stroke-linecap:square;stroke-linejoin:miter;stroke-width:0.8;"/>
   </g>
   <g id="patch_4">
    <path d="M 388.8 252 
L 388.8 34.56 
" style="fill:none;stroke:#000000;stroke-linecap:square;stroke-linejoin:miter;stroke-width:0.8;"/>
   </g>
   <g id="patch_5">
    <path d="M 54 252 
L 388.8 252 
" style="fill:none;stroke:#000000;stroke-linecap:square;stroke-linejoin:miter;stroke-width:0.8;"/>
   </g>
   <g id="patch_6">
    <path d="M 54 34.56 
L 388.8 34.56 
" style="fill:none;stroke:#000000;stroke-linecap:square;stroke-linejoin:miter;stroke-width:0.8;"/>
   </g>
   <g id="legend_1">
    <g id="patch_7">
     <path d="M 294.915234 150.602969 
L 380.05 150.602969 
Q 382.55 150.602969 382.55 148.102969 
L 382.55 43.31 
Q 382.55 40.81 380.05 40.81 
L 294.915234 40.81 
Q 292.415234 40.81 292.415234 43.31 
L 292.415234 148.102969 
Q 292.415234 150.602969 294.915234 150.602969 
z
" style="fill:#ffffff;opacity:0.8;stroke:#cccccc;stroke-linejoin:miter;"/>
    </g>
    <g id="line2d_34">
     <path d="M 297.415234 50.185 
L 322.415234 50.185 
" style="fill:none;stroke:#a52a2a;stroke-linecap:square;stroke-width:1.5;"/>
    </g>
    <g id="line2d_35"/>
    <g id="text_11">
     <!-- Nesterov -->
     <g transform="translate(332.415234 54.56)scale(0.125 -0.125)">
      <use xlink:href="#TimesNewRomanPSMT-78"/>
      <use x="72.216797" xlink:href="#TimesNewRomanPSMT-101"/>
      <use x="116.601562" xlink:href="#TimesNewRomanPSMT-115"/>
      <use x="155.517578" xlink:href="#TimesNewRomanPSMT-116"/>
      <use x="183.300781" xlink:href="#TimesNewRomanPSMT-101"/>
      <use x="227.685547" xlink:href="#TimesNewRomanPSMT-114"/>
      <use x="260.986328" xlink:href="#TimesNewRomanPSMT-111"/>
      <use x="310.986328" xlink:href="#TimesNewRomanPSMT-118"/>
     </g>
    </g>
    <g id="line2d_36">
     <path d="M 297.415234 67.858828 
L 322.415234 67.858828 
" style="fill:none;stroke:#008000;stroke-linecap:square;stroke-width:1.5;"/>
    </g>
    <g id="line2d_37"/>
    <g id="text_12">
     <!-- Simplex -->
     <g transform="translate(332.415234 72.233828)scale(0.125 -0.125)">
      <defs>
       <path d="M 45.84375 67.71875 
L 45.84375 44.828125 
L 44.046875 44.828125 
Q 43.171875 51.421875 40.890625 55.328125 
Q 38.625 59.234375 34.421875 61.515625 
Q 30.21875 63.8125 25.734375 63.8125 
Q 20.65625 63.8125 17.328125 60.71875 
Q 14.015625 57.625 14.015625 53.65625 
Q 14.015625 50.640625 16.109375 48.140625 
Q 19.140625 44.484375 30.515625 38.375 
Q 39.796875 33.40625 43.1875 30.734375 
Q 46.578125 28.078125 48.40625 24.453125 
Q 50.25 20.84375 50.25 16.890625 
Q 50.25 9.375 44.40625 3.921875 
Q 38.578125 -1.515625 29.390625 -1.515625 
Q 26.515625 -1.515625 23.96875 -1.078125 
Q 22.46875 -0.828125 17.703125 0.703125 
Q 12.9375 2.25 11.671875 2.25 
Q 10.453125 2.25 9.734375 1.515625 
Q 9.03125 0.78125 8.6875 -1.515625 
L 6.890625 -1.515625 
L 6.890625 21.1875 
L 8.6875 21.1875 
Q 9.96875 14.0625 12.109375 10.515625 
Q 14.265625 6.984375 18.671875 4.640625 
Q 23.09375 2.296875 28.375 2.296875 
Q 34.46875 2.296875 38 5.515625 
Q 41.546875 8.734375 41.546875 13.140625 
Q 41.546875 15.578125 40.203125 18.0625 
Q 38.875 20.5625 36.03125 22.703125 
Q 34.125 24.171875 25.625 28.921875 
Q 17.140625 33.6875 13.546875 36.515625 
Q 9.96875 39.359375 8.109375 42.765625 
Q 6.25 46.1875 6.25 50.296875 
Q 6.25 57.421875 11.71875 62.5625 
Q 17.1875 67.71875 25.640625 67.71875 
Q 30.90625 67.71875 36.8125 65.140625 
Q 39.546875 63.921875 40.671875 63.921875 
Q 41.9375 63.921875 42.75 64.671875 
Q 43.5625 65.4375 44.046875 67.71875 
z
" id="TimesNewRomanPSMT-83"/>
       <path d="M -0.09375 40.28125 
L 13.671875 45.84375 
L 15.53125 45.84375 
L 15.53125 35.40625 
Q 19 41.3125 22.484375 43.671875 
Q 25.984375 46.046875 29.828125 46.046875 
Q 36.578125 46.046875 41.0625 40.765625 
Q 46.578125 34.328125 46.578125 23.96875 
Q 46.578125 12.40625 39.9375 4.828125 
Q 34.46875 -1.375 26.171875 -1.375 
Q 22.5625 -1.375 19.921875 -0.34375 
Q 17.96875 0.390625 15.53125 2.59375 
L 15.53125 -11.03125 
Q 15.53125 -15.625 16.09375 -16.859375 
Q 16.65625 -18.109375 18.046875 -18.84375 
Q 19.4375 -19.578125 23.09375 -19.578125 
L 23.09375 -21.390625 
L -0.34375 -21.390625 
L -0.34375 -19.578125 
L 0.875 -19.578125 
Q 3.5625 -19.625 5.46875 -18.5625 
Q 6.390625 -18.015625 6.90625 -16.8125 
Q 7.421875 -15.625 7.421875 -10.75 
L 7.421875 31.546875 
Q 7.421875 35.890625 7.03125 37.0625 
Q 6.640625 38.234375 5.78125 38.8125 
Q 4.9375 39.40625 3.46875 39.40625 
Q 2.296875 39.40625 0.484375 38.71875 
z
M 15.53125 32.515625 
L 15.53125 15.828125 
Q 15.53125 10.40625 15.96875 8.6875 
Q 16.65625 5.859375 19.3125 3.703125 
Q 21.96875 1.5625 26.03125 1.5625 
Q 30.90625 1.5625 33.9375 5.375 
Q 37.890625 10.359375 37.890625 19.390625 
Q 37.890625 29.640625 33.40625 35.15625 
Q 30.28125 38.96875 25.984375 38.96875 
Q 23.640625 38.96875 21.34375 37.796875 
Q 19.578125 36.921875 15.53125 32.515625 
z
" id="TimesNewRomanPSMT-112"/>
       <path d="M 1.3125 44.734375 
L 22.359375 44.734375 
L 22.359375 42.921875 
Q 20.359375 42.921875 19.546875 42.234375 
Q 18.75 41.546875 18.75 40.4375 
Q 18.75 39.265625 20.453125 36.8125 
Q 21 36.03125 22.078125 34.375 
L 25.25 29.296875 
L 28.90625 34.375 
Q 32.421875 39.203125 32.421875 40.484375 
Q 32.421875 41.5 31.59375 42.203125 
Q 30.765625 42.921875 28.90625 42.921875 
L 28.90625 44.734375 
L 44.046875 44.734375 
L 44.046875 42.921875 
Q 41.65625 42.78125 39.890625 41.609375 
Q 37.5 39.9375 33.34375 34.375 
L 27.25 26.21875 
L 38.375 10.203125 
Q 42.484375 4.296875 44.234375 3.09375 
Q 46 1.90625 48.78125 1.765625 
L 48.78125 0 
L 27.6875 0 
L 27.6875 1.765625 
Q 29.890625 1.765625 31.109375 2.734375 
Q 32.03125 3.421875 32.03125 4.546875 
Q 32.03125 5.671875 28.90625 10.203125 
L 22.359375 19.78125 
L 15.1875 10.203125 
Q 11.859375 5.765625 11.859375 4.9375 
Q 11.859375 3.765625 12.953125 2.8125 
Q 14.0625 1.859375 16.265625 1.765625 
L 16.265625 0 
L 1.65625 0 
L 1.65625 1.765625 
Q 3.421875 2 4.734375 2.984375 
Q 6.59375 4.390625 10.984375 10.203125 
L 20.359375 22.65625 
L 11.859375 34.96875 
Q 8.25 40.234375 6.265625 41.578125 
Q 4.296875 42.921875 1.3125 42.921875 
z
" id="TimesNewRomanPSMT-120"/>
      </defs>
      <use xlink:href="#TimesNewRomanPSMT-83"/>
      <use x="55.615234" xlink:href="#TimesNewRomanPSMT-105"/>
      <use x="83.398438" xlink:href="#TimesNewRomanPSMT-109"/>
      <use x="161.181641" xlink:href="#TimesNewRomanPSMT-112"/>
      <use x="211.181641" xlink:href="#TimesNewRomanPSMT-108"/>
      <use x="238.964844" xlink:href="#TimesNewRomanPSMT-101"/>
      <use x="283.349609" xlink:href="#TimesNewRomanPSMT-120"/>
     </g>
    </g>
    <g id="line2d_38">
     <path d="M 297.415234 85.532656 
L 322.415234 85.532656 
" style="fill:none;stroke:#808080;stroke-linecap:square;stroke-width:1.5;"/>
    </g>
    <g id="line2d_39"/>
    <g id="text_13">
     <!-- Newton -->
     <g transform="translate(332.415234 89.907656)scale(0.125 -0.125)">
      <defs>
       <path d="M 0.640625 44.734375 
L 19.390625 44.734375 
L 19.390625 42.921875 
Q 16.796875 42.71875 15.984375 41.984375 
Q 15.1875 41.265625 15.1875 39.890625 
Q 15.1875 38.375 16.015625 36.234375 
L 25.59375 10.5 
L 35.203125 31.453125 
L 32.671875 38.03125 
Q 31.5 40.96875 29.59375 42.09375 
Q 28.515625 42.78125 25.59375 42.921875 
L 25.59375 44.734375 
L 46.875 44.734375 
L 46.875 42.921875 
Q 43.359375 42.78125 41.890625 41.65625 
Q 40.921875 40.875 40.921875 39.15625 
Q 40.921875 38.1875 41.3125 37.15625 
L 51.46875 11.46875 
L 60.890625 36.234375 
Q 61.859375 38.875 61.859375 40.4375 
Q 61.859375 41.359375 60.90625 42.09375 
Q 59.96875 42.828125 57.171875 42.921875 
L 57.171875 44.734375 
L 71.296875 44.734375 
L 71.296875 42.921875 
Q 67.046875 42.28125 65.046875 37.15625 
L 50.09375 -1.375 
L 48.09375 -1.375 
L 36.921875 27.203125 
L 23.875 -1.375 
L 22.078125 -1.375 
L 7.71875 36.234375 
Q 6.296875 39.796875 4.921875 41.03125 
Q 3.5625 42.28125 0.640625 42.921875 
z
" id="TimesNewRomanPSMT-119"/>
      </defs>
      <use xlink:href="#TimesNewRomanPSMT-78"/>
      <use x="72.216797" xlink:href="#TimesNewRomanPSMT-101"/>
      <use x="116.601562" xlink:href="#TimesNewRomanPSMT-119"/>
      <use x="188.818359" xlink:href="#TimesNewRomanPSMT-116"/>
      <use x="216.601562" xlink:href="#TimesNewRomanPSMT-111"/>
      <use x="266.601562" xlink:href="#TimesNewRomanPSMT-110"/>
     </g>
    </g>
    <g id="line2d_40">
     <path d="M 297.415234 103.206484 
L 322.415234 103.206484 
" style="fill:none;stroke:#ffa500;stroke-linecap:square;stroke-width:1.5;"/>
    </g>
    <g id="line2d_41"/>
    <g id="text_14">
     <!-- BFGS -->
     <g transform="translate(332.415234 107.581484)scale(0.125 -0.125)">
      <defs>
       <path d="M 20.453125 62.59375 
L 20.453125 36.578125 
L 32.515625 36.578125 
Q 36.671875 36.578125 38.59375 38.40625 
Q 40.53125 40.234375 41.15625 45.65625 
L 42.96875 45.65625 
L 42.96875 23.25 
L 41.15625 23.25 
Q 41.109375 27.09375 40.15625 28.90625 
Q 39.203125 30.71875 37.515625 31.609375 
Q 35.84375 32.515625 32.515625 32.515625 
L 20.453125 32.515625 
L 20.453125 11.71875 
Q 20.453125 6.6875 21.09375 5.078125 
Q 21.578125 3.859375 23.140625 2.984375 
Q 25.296875 1.8125 27.640625 1.8125 
L 30.03125 1.8125 
L 30.03125 0 
L 1.609375 0 
L 1.609375 1.8125 
L 3.953125 1.8125 
Q 8.0625 1.8125 9.90625 4.203125 
Q 11.078125 5.765625 11.078125 11.71875 
L 11.078125 54.5 
Q 11.078125 59.515625 10.453125 61.140625 
Q 9.96875 62.359375 8.453125 63.234375 
Q 6.34375 64.40625 3.953125 64.40625 
L 1.609375 64.40625 
L 1.609375 66.21875 
L 50.875 66.21875 
L 51.515625 51.65625 
L 49.8125 51.65625 
Q 48.53125 56.296875 46.84375 58.46875 
Q 45.171875 60.640625 42.703125 61.609375 
Q 40.234375 62.59375 35.0625 62.59375 
z
" id="TimesNewRomanPSMT-70"/>
       <path d="M 61.375 67.71875 
L 63.09375 46.828125 
L 61.375 46.828125 
Q 58.796875 54.640625 54.6875 58.59375 
Q 48.78125 64.3125 39.5 64.3125 
Q 26.859375 64.3125 20.265625 54.296875 
Q 14.75 45.84375 14.75 34.1875 
Q 14.75 24.703125 18.40625 16.890625 
Q 22.078125 9.078125 28 5.4375 
Q 33.9375 1.8125 40.1875 1.8125 
Q 43.84375 1.8125 47.265625 2.734375 
Q 50.6875 3.65625 53.859375 5.46875 
L 53.859375 24.609375 
Q 53.859375 29.59375 53.09375 31.125 
Q 52.34375 32.671875 50.75 33.46875 
Q 49.171875 34.28125 45.171875 34.28125 
L 45.171875 36.140625 
L 70.796875 36.140625 
L 70.796875 34.28125 
L 69.578125 34.28125 
Q 65.765625 34.28125 64.359375 31.734375 
Q 63.375 29.9375 63.375 24.609375 
L 63.375 4.34375 
Q 57.765625 1.3125 52.296875 -0.09375 
Q 46.828125 -1.515625 40.140625 -1.515625 
Q 20.953125 -1.515625 10.984375 10.796875 
Q 3.515625 20.015625 3.515625 32.078125 
Q 3.515625 40.828125 7.71875 48.828125 
Q 12.703125 58.34375 21.390625 63.484375 
Q 28.65625 67.71875 38.578125 67.71875 
Q 42.1875 67.71875 45.140625 67.125 
Q 48.09375 66.546875 53.515625 64.546875 
Q 56.25 63.53125 57.171875 63.53125 
Q 58.109375 63.53125 58.765625 64.375 
Q 59.421875 65.234375 59.578125 67.71875 
z
" id="TimesNewRomanPSMT-71"/>
      </defs>
      <use xlink:href="#TimesNewRomanPSMT-66"/>
      <use x="66.699219" xlink:href="#TimesNewRomanPSMT-70"/>
      <use x="122.314453" xlink:href="#TimesNewRomanPSMT-71"/>
      <use x="194.53125" xlink:href="#TimesNewRomanPSMT-83"/>
     </g>
    </g>
    <g id="line2d_42">
     <path d="M 297.415234 120.880313 
L 322.415234 120.880313 
" style="fill:none;stroke:#0000ff;stroke-linecap:square;stroke-width:1.5;"/>
    </g>
    <g id="line2d_43"/>
    <g id="text_15">
     <!-- Adam  -->
     <g transform="translate(332.415234 125.255313)scale(0.125 -0.125)">
      <defs>
       <path d="M 45.75 22.171875 
L 20.125 22.171875 
L 15.625 11.71875 
Q 13.96875 7.859375 13.96875 5.953125 
Q 13.96875 4.4375 15.40625 3.296875 
Q 16.84375 2.15625 21.625 1.8125 
L 21.625 0 
L 0.78125 0 
L 0.78125 1.8125 
Q 4.9375 2.546875 6.15625 3.71875 
Q 8.640625 6.0625 11.671875 13.234375 
L 34.96875 67.71875 
L 36.671875 67.71875 
L 59.71875 12.640625 
Q 62.5 6 64.765625 4.015625 
Q 67.046875 2.046875 71.09375 1.8125 
L 71.09375 0 
L 44.96875 0 
L 44.96875 1.8125 
Q 48.921875 2 50.3125 3.125 
Q 51.703125 4.25 51.703125 5.859375 
Q 51.703125 8.015625 49.75 12.640625 
z
M 44.390625 25.78125 
L 33.15625 52.546875 
L 21.625 25.78125 
z
" id="TimesNewRomanPSMT-65"/>
       <path d="M 34.71875 5.03125 
Q 31.453125 1.609375 28.328125 0.109375 
Q 25.203125 -1.375 21.578125 -1.375 
Q 14.265625 -1.375 8.796875 4.75 
Q 3.328125 10.890625 3.328125 20.515625 
Q 3.328125 30.125 9.375 38.109375 
Q 15.4375 46.09375 24.953125 46.09375 
Q 30.859375 46.09375 34.71875 42.328125 
L 34.71875 50.59375 
Q 34.71875 58.25 34.34375 60 
Q 33.984375 61.765625 33.203125 62.390625 
Q 32.421875 63.03125 31.25 63.03125 
Q 29.984375 63.03125 27.875 62.25 
L 27.25 63.96875 
L 40.578125 69.4375 
L 42.78125 69.4375 
L 42.78125 17.71875 
Q 42.78125 9.859375 43.140625 8.125 
Q 43.5 6.390625 44.3125 5.703125 
Q 45.125 5.03125 46.1875 5.03125 
Q 47.515625 5.03125 49.703125 5.859375 
L 50.25 4.15625 
L 36.96875 -1.375 
L 34.71875 -1.375 
z
M 34.71875 8.453125 
L 34.71875 31.5 
Q 34.421875 34.8125 32.953125 37.546875 
Q 31.5 40.28125 29.078125 41.671875 
Q 26.65625 43.0625 24.359375 43.0625 
Q 20.0625 43.0625 16.703125 39.203125 
Q 12.25 34.125 12.25 24.359375 
Q 12.25 14.5 16.546875 9.25 
Q 20.84375 4 26.125 4 
Q 30.5625 4 34.71875 8.453125 
z
" id="TimesNewRomanPSMT-100"/>
      </defs>
      <use xlink:href="#TimesNewRomanPSMT-65"/>
      <use x="72.216797" xlink:href="#TimesNewRomanPSMT-100"/>
      <use x="122.216797" xlink:href="#TimesNewRomanPSMT-97"/>
      <use x="166.601562" xlink:href="#TimesNewRomanPSMT-109"/>
      <use x="244.384766" xlink:href="#TimesNewRomanPSMT-32"/>
     </g>
    </g>
    <g id="line2d_44">
     <path d="M 297.415234 138.554141 
L 322.415234 138.554141 
" style="fill:none;stroke:#ee82ee;stroke-linecap:square;stroke-width:1.5;"/>
    </g>
    <g id="line2d_45"/>
    <g id="text_16">
     <!-- DIRECT -->
     <g transform="translate(332.415234 142.929141)scale(0.125 -0.125)">
      <defs>
       <path d="M 1.703125 0 
L 1.703125 1.8125 
L 4.203125 1.8125 
Q 8.40625 1.8125 10.15625 4.5 
Q 11.234375 6.109375 11.234375 11.71875 
L 11.234375 54.5 
Q 11.234375 60.6875 9.859375 62.25 
Q 7.953125 64.40625 4.203125 64.40625 
L 1.703125 64.40625 
L 1.703125 66.21875 
L 28.65625 66.21875 
Q 43.5 66.21875 51.234375 62.84375 
Q 58.984375 59.46875 63.6875 51.609375 
Q 68.40625 43.75 68.40625 33.453125 
Q 68.40625 19.625 60.015625 10.359375 
Q 50.59375 0 31.296875 0 
z
M 20.609375 4.78125 
Q 26.8125 3.421875 31 3.421875 
Q 42.328125 3.421875 49.796875 11.375 
Q 57.28125 19.34375 57.28125 32.953125 
Q 57.28125 46.6875 49.796875 54.59375 
Q 42.328125 62.5 30.609375 62.5 
Q 26.21875 62.5 20.609375 61.078125 
z
" id="TimesNewRomanPSMT-68"/>
       <path d="M 30.859375 1.8125 
L 30.859375 0 
L 2.484375 0 
L 2.484375 1.8125 
L 4.828125 1.8125 
Q 8.9375 1.8125 10.796875 4.203125 
Q 11.96875 5.765625 11.96875 11.71875 
L 11.96875 54.5 
Q 11.96875 59.515625 11.328125 61.140625 
Q 10.84375 62.359375 9.328125 63.234375 
Q 7.171875 64.40625 4.828125 64.40625 
L 2.484375 64.40625 
L 2.484375 66.21875 
L 30.859375 66.21875 
L 30.859375 64.40625 
L 28.46875 64.40625 
Q 24.421875 64.40625 22.5625 62.015625 
Q 21.34375 60.453125 21.34375 54.5 
L 21.34375 11.71875 
Q 21.34375 6.6875 21.96875 5.078125 
Q 22.46875 3.859375 24.03125 2.984375 
Q 26.125 1.8125 28.46875 1.8125 
z
" id="TimesNewRomanPSMT-73"/>
       <path d="M 67.578125 0 
L 49.90625 0 
L 27.484375 30.953125 
Q 25 30.859375 23.4375 30.859375 
Q 22.796875 30.859375 22.0625 30.875 
Q 21.34375 30.90625 20.5625 30.953125 
L 20.5625 11.71875 
Q 20.5625 5.46875 21.921875 3.953125 
Q 23.78125 1.8125 27.484375 1.8125 
L 30.078125 1.8125 
L 30.078125 0 
L 1.703125 0 
L 1.703125 1.8125 
L 4.203125 1.8125 
Q 8.40625 1.8125 10.203125 4.546875 
Q 11.234375 6.0625 11.234375 11.71875 
L 11.234375 54.5 
Q 11.234375 60.75 9.859375 62.25 
Q 7.953125 64.40625 4.203125 64.40625 
L 1.703125 64.40625 
L 1.703125 66.21875 
L 25.828125 66.21875 
Q 36.375 66.21875 41.375 64.671875 
Q 46.390625 63.140625 49.875 59.015625 
Q 53.375 54.890625 53.375 49.171875 
Q 53.375 43.0625 49.390625 38.5625 
Q 45.40625 34.078125 37.0625 32.234375 
L 50.734375 13.234375 
Q 55.421875 6.6875 58.78125 4.53125 
Q 62.15625 2.390625 67.578125 1.8125 
z
M 20.5625 34.03125 
Q 21.484375 34.03125 22.171875 34 
Q 22.859375 33.984375 23.296875 33.984375 
Q 32.765625 33.984375 37.578125 38.078125 
Q 42.390625 42.1875 42.390625 48.53125 
Q 42.390625 54.734375 38.5 58.609375 
Q 34.625 62.5 28.21875 62.5 
Q 25.390625 62.5 20.5625 61.578125 
z
" id="TimesNewRomanPSMT-82"/>
       <path d="M 20.90625 62.59375 
L 20.90625 36.421875 
L 35.453125 36.421875 
Q 41.109375 36.421875 43.015625 38.140625 
Q 45.5625 40.375 45.84375 46.046875 
L 47.65625 46.046875 
L 47.65625 23 
L 45.84375 23 
Q 45.171875 27.828125 44.484375 29.203125 
Q 43.609375 30.90625 41.59375 31.875 
Q 39.59375 32.859375 35.453125 32.859375 
L 20.90625 32.859375 
L 20.90625 11.03125 
Q 20.90625 6.640625 21.296875 5.6875 
Q 21.6875 4.734375 22.65625 4.171875 
Q 23.640625 3.609375 26.375 3.609375 
L 37.59375 3.609375 
Q 43.21875 3.609375 45.75 4.390625 
Q 48.296875 5.171875 50.640625 7.46875 
Q 53.65625 10.5 56.84375 16.609375 
L 58.796875 16.609375 
L 53.078125 0 
L 2.046875 0 
L 2.046875 1.8125 
L 4.390625 1.8125 
Q 6.734375 1.8125 8.84375 2.9375 
Q 10.40625 3.71875 10.96875 5.28125 
Q 11.53125 6.84375 11.53125 11.671875 
L 11.53125 54.6875 
Q 11.53125 60.984375 10.25 62.453125 
Q 8.5 64.40625 4.390625 64.40625 
L 2.046875 64.40625 
L 2.046875 66.21875 
L 53.078125 66.21875 
L 53.8125 51.703125 
L 51.90625 51.703125 
Q 50.875 56.9375 49.625 58.890625 
Q 48.390625 60.84375 45.953125 61.859375 
Q 44 62.59375 39.0625 62.59375 
z
" id="TimesNewRomanPSMT-69"/>
       <path d="M 60.203125 67.71875 
L 61.71875 45.21875 
L 60.203125 45.21875 
Q 57.171875 55.328125 51.5625 59.765625 
Q 45.953125 64.203125 38.09375 64.203125 
Q 31.5 64.203125 26.171875 60.859375 
Q 20.84375 57.515625 17.796875 50.1875 
Q 14.75 42.875 14.75 31.984375 
Q 14.75 23 17.625 16.40625 
Q 20.515625 9.8125 26.296875 6.296875 
Q 32.078125 2.78125 39.5 2.78125 
Q 45.953125 2.78125 50.875 5.53125 
Q 55.8125 8.296875 61.71875 16.5 
L 63.234375 15.53125 
Q 58.25 6.6875 51.609375 2.578125 
Q 44.96875 -1.515625 35.84375 -1.515625 
Q 19.390625 -1.515625 10.359375 10.6875 
Q 3.609375 19.78125 3.609375 32.078125 
Q 3.609375 42 8.046875 50.296875 
Q 12.5 58.59375 20.28125 63.15625 
Q 28.078125 67.71875 37.3125 67.71875 
Q 44.484375 67.71875 51.46875 64.203125 
Q 53.515625 63.140625 54.390625 63.140625 
Q 55.71875 63.140625 56.6875 64.0625 
Q 57.953125 65.375 58.5 67.71875 
z
" id="TimesNewRomanPSMT-67"/>
       <path d="M 57.859375 66.21875 
L 58.59375 50.6875 
L 56.734375 50.6875 
Q 56.203125 54.78125 55.28125 56.546875 
Q 53.765625 59.375 51.25 60.71875 
Q 48.734375 62.0625 44.625 62.0625 
L 35.296875 62.0625 
L 35.296875 11.46875 
Q 35.296875 5.375 36.625 3.859375 
Q 38.484375 1.8125 42.328125 1.8125 
L 44.625 1.8125 
L 44.625 0 
L 16.546875 0 
L 16.546875 1.8125 
L 18.890625 1.8125 
Q 23.09375 1.8125 24.859375 4.34375 
Q 25.921875 5.90625 25.921875 11.46875 
L 25.921875 62.0625 
L 17.96875 62.0625 
Q 13.328125 62.0625 11.375 61.375 
Q 8.84375 60.453125 7.03125 57.8125 
Q 5.21875 55.171875 4.890625 50.6875 
L 3.03125 50.6875 
L 3.8125 66.21875 
z
" id="TimesNewRomanPSMT-84"/>
      </defs>
      <use xlink:href="#TimesNewRomanPSMT-68"/>
      <use x="72.216797" xlink:href="#TimesNewRomanPSMT-73"/>
      <use x="105.517578" xlink:href="#TimesNewRomanPSMT-82"/>
      <use x="172.216797" xlink:href="#TimesNewRomanPSMT-69"/>
      <use x="233.300781" xlink:href="#TimesNewRomanPSMT-67"/>
      <use x="300" xlink:href="#TimesNewRomanPSMT-84"/>
     </g>
    </g>
   </g>
  </g>
 </g>
 <defs>
  <clipPath id="pd0ddfd2df6">
   <rect height="217.44" width="334.8" x="54" y="34.56"/>
  </clipPath>
 </defs>
</svg>
