<?xml version="1.0" encoding="utf-8" standalone="no"?>
<!DOCTYPE svg PUBLIC "-//W3C//DTD SVG 1.1//EN"
  "http://www.w3.org/Graphics/SVG/1.1/DTD/svg11.dtd">
<!-- Created with matplotlib (https://matplotlib.org/) -->
<svg height="288pt" version="1.1" viewBox="0 0 432 288" width="432pt" xmlns="http://www.w3.org/2000/svg" xmlns:xlink="http://www.w3.org/1999/xlink">
 <metadata>
  <rdf:RDF xmlns:cc="http://creativecommons.org/ns#" xmlns:dc="http://purl.org/dc/elements/1.1/" xmlns:rdf="http://www.w3.org/1999/02/22-rdf-syntax-ns#">
   <cc:Work>
    <dc:type rdf:resource="http://purl.org/dc/dcmitype/StillImage"/>
    <dc:date>2021-03-30T20:55:42.820856</dc:date>
    <dc:format>image/svg+xml</dc:format>
    <dc:creator>
     <cc:Agent>
      <dc:title>Matplotlib v3.3.4, https://matplotlib.org/</dc:title>
     </cc:Agent>
    </dc:creator>
   </cc:Work>
  </rdf:RDF>
 </metadata>
 <defs>
  <style type="text/css">*{stroke-linecap:butt;stroke-linejoin:round;}</style>
 </defs>
 <g id="figure_1">
  <g id="patch_1">
   <path d="M 0 288 
L 432 288 
L 432 0 
L 0 0 
z
" style="fill:#ffffff;"/>
  </g>
  <g id="axes_1">
   <g id="patch_2">
    <path d="M 54 252 
L 388.8 252 
L 388.8 34.56 
L 54 34.56 
z
" style="fill:#ffffff;"/>
   </g>
   <g id="PolyCollection_1">
    <defs>
     <path d="M 57.381818 -243.556364 
L 57.381818 -243.539955 
L 60.763636 -243.539955 
L 64.145455 -243.539955 
L 67.527273 -243.539955 
L 70.909091 -243.539955 
L 74.290909 -243.539955 
L 77.672727 -243.539955 
L 81.054545 -243.539955 
L 84.436364 -243.539955 
L 87.818182 -243.539955 
L 91.2 -243.539955 
L 94.581818 -243.539955 
L 97.963636 -243.539955 
L 101.345455 -243.539955 
L 104.727273 -243.539955 
L 108.109091 -243.539955 
L 111.490909 -85.937119 
L 114.872727 -85.937119 
L 118.254545 -85.937119 
L 121.636364 -85.937119 
L 125.018182 -85.937119 
L 128.4 -85.937119 
L 131.781818 -85.937119 
L 135.163636 -85.937119 
L 138.545455 -58.278166 
L 141.927273 -58.278166 
L 145.309091 -58.278166 
L 148.690909 -58.278166 
L 152.072727 -58.278166 
L 155.454545 -58.278166 
L 158.836364 -58.278166 
L 162.218182 -58.278166 
L 165.6 -58.278166 
L 168.981818 -58.278166 
L 172.363636 -47.793805 
L 175.745455 -47.793805 
L 179.127273 -47.793805 
L 182.509091 -47.793805 
L 185.890909 -47.793805 
L 189.272727 -47.793805 
L 192.654545 -47.793805 
L 196.036364 -47.793805 
L 199.418182 -47.793805 
L 202.8 -47.793805 
L 206.181818 -47.793805 
L 209.563636 -47.793805 
L 212.945455 -47.347624 
L 216.327273 -47.347624 
L 219.709091 -47.347624 
L 223.090909 -47.347624 
L 226.472727 -46.556129 
L 229.854545 -46.556129 
L 233.236364 -46.556129 
L 236.618182 -46.556129 
L 240 -46.556129 
L 243.381818 -46.556129 
L 246.763636 -46.556129 
L 250.145455 -46.556129 
L 253.527273 -46.556129 
L 256.909091 -46.556129 
L 260.290909 -45.883636 
L 263.672727 -45.883636 
L 267.054545 -45.883636 
L 270.436364 -45.883636 
L 273.818182 -45.883636 
L 277.2 -45.883636 
L 280.581818 -45.883636 
L 283.963636 -45.883636 
L 287.345455 -45.883636 
L 290.727273 -45.883636 
L 294.109091 -45.883636 
L 297.490909 -45.883636 
L 300.872727 -45.883636 
L 304.254545 -45.883636 
L 307.636364 -45.883636 
L 311.018182 -45.883636 
L 314.4 -45.883636 
L 317.781818 -45.883636 
L 321.163636 -45.883636 
L 324.545455 -45.883636 
L 327.927273 -45.883636 
L 331.309091 -45.883636 
L 334.690909 -45.883636 
L 338.072727 -45.883636 
L 341.454545 -45.883636 
L 344.836364 -45.883636 
L 348.218182 -45.883636 
L 351.6 -45.883636 
L 354.981818 -45.883636 
L 358.363636 -45.883636 
L 361.745455 -45.883636 
L 365.127273 -45.883636 
L 368.509091 -45.883636 
L 371.890909 -45.883636 
L 375.272727 -45.883636 
L 378.654545 -45.883636 
L 382.036364 -45.883636 
L 385.418182 -45.883636 
L 388.8 -45.883636 
L 392.181818 -45.883636 
L 392.181818 -46.699874 
L 392.181818 -46.699874 
L 388.8 -46.699874 
L 385.418182 -46.699874 
L 382.036364 -46.699874 
L 378.654545 -46.699874 
L 375.272727 -46.699874 
L 371.890909 -46.699874 
L 368.509091 -46.965063 
L 365.127273 -46.965063 
L 361.745455 -46.965063 
L 358.363636 -46.965063 
L 354.981818 -46.965063 
L 351.6 -46.965063 
L 348.218182 -47.26697 
L 344.836364 -47.26697 
L 341.454545 -47.26697 
L 338.072727 -47.26697 
L 334.690909 -47.26697 
L 331.309091 -47.26697 
L 327.927273 -47.862534 
L 324.545455 -47.862534 
L 321.163636 -47.862534 
L 317.781818 -47.862534 
L 314.4 -47.862534 
L 311.018182 -47.862534 
L 307.636364 -47.862534 
L 304.254545 -47.862534 
L 300.872727 -47.862534 
L 297.490909 -47.862534 
L 294.109091 -47.862534 
L 290.727273 -47.862534 
L 287.345455 -47.862534 
L 283.963636 -47.862534 
L 280.581818 -49.819077 
L 277.2 -49.819077 
L 273.818182 -49.819077 
L 270.436364 -49.819077 
L 267.054545 -49.913479 
L 263.672727 -49.913479 
L 260.290909 -50.619861 
L 256.909091 -50.619861 
L 253.527273 -51.392308 
L 250.145455 -54.25865 
L 246.763636 -59.367119 
L 243.381818 -59.367119 
L 240 -66.292183 
L 236.618182 -66.292183 
L 233.236364 -66.292183 
L 229.854545 -66.292183 
L 226.472727 -66.292183 
L 223.090909 -94.746127 
L 219.709091 -103.816015 
L 216.327273 -103.816015 
L 212.945455 -103.816015 
L 209.563636 -103.816015 
L 206.181818 -103.816015 
L 202.8 -103.816015 
L 199.418182 -103.816015 
L 196.036364 -103.816015 
L 192.654545 -103.816015 
L 189.272727 -103.816015 
L 185.890909 -110.571619 
L 182.509091 -110.571619 
L 179.127273 -110.571619 
L 175.745455 -110.571619 
L 172.363636 -110.571619 
L 168.981818 -110.571619 
L 165.6 -110.571619 
L 162.218182 -110.571619 
L 158.836364 -110.571619 
L 155.454545 -110.571619 
L 152.072727 -113.594658 
L 148.690909 -132.723021 
L 145.309091 -132.723021 
L 141.927273 -132.723021 
L 138.545455 -174.350139 
L 135.163636 -174.350139 
L 131.781818 -174.350139 
L 128.4 -174.350139 
L 125.018182 -174.350139 
L 121.636364 -174.350139 
L 118.254545 -174.350139 
L 114.872727 -174.350139 
L 111.490909 -174.350139 
L 108.109091 -243.556364 
L 104.727273 -243.556364 
L 101.345455 -243.556364 
L 97.963636 -243.556364 
L 94.581818 -243.556364 
L 91.2 -243.556364 
L 87.818182 -243.556364 
L 84.436364 -243.556364 
L 81.054545 -243.556364 
L 77.672727 -243.556364 
L 74.290909 -243.556364 
L 70.909091 -243.556364 
L 67.527273 -243.556364 
L 64.145455 -243.556364 
L 60.763636 -243.556364 
L 57.381818 -243.556364 
z
" id="mf4d6c2e687" style="stroke:#0000ff;stroke-opacity:0.5;"/>
    </defs>
    <g clip-path="url(#p13d13eb73c)">
     <use style="fill:#0000ff;fill-opacity:0.5;stroke:#0000ff;stroke-opacity:0.5;" x="0" xlink:href="#mf4d6c2e687" y="288"/>
    </g>
   </g>
   <g id="PolyCollection_2">
    <defs>
     <path d="M 57.381818 -243.556364 
L 57.381818 -243.539955 
L 60.763636 -243.539955 
L 64.145455 -243.539955 
L 67.527273 -243.539955 
L 70.909091 -243.539955 
L 74.290909 -243.539955 
L 77.672727 -243.539955 
L 81.054545 -232.125864 
L 84.436364 -232.125864 
L 87.818182 -219.682415 
L 91.2 -219.682415 
L 94.581818 -195.878186 
L 97.963636 -195.701031 
L 101.345455 -195.701031 
L 104.727273 -188.903777 
L 108.109091 -147.339171 
L 111.490909 -147.294814 
L 114.872727 -147.294814 
L 118.254545 -108.526009 
L 121.636364 -103.818774 
L 125.018182 -103.818774 
L 128.4 -103.818774 
L 131.781818 -103.252933 
L 135.163636 -99.105938 
L 138.545455 -99.105938 
L 141.927273 -97.030681 
L 145.309091 -97.013149 
L 148.690909 -97.013149 
L 152.072727 -95.755065 
L 155.454545 -95.755065 
L 158.836364 -91.096854 
L 162.218182 -91.096854 
L 165.6 -91.096854 
L 168.981818 -80.003595 
L 172.363636 -80.003595 
L 175.745455 -80.003595 
L 179.127273 -80.003595 
L 182.509091 -64.919335 
L 185.890909 -64.919335 
L 189.272727 -64.919335 
L 192.654545 -64.919335 
L 196.036364 -48.333679 
L 199.418182 -48.333679 
L 202.8 -48.333679 
L 206.181818 -48.333679 
L 209.563636 -48.333679 
L 212.945455 -47.565681 
L 216.327273 -47.565681 
L 219.709091 -47.565681 
L 223.090909 -47.565681 
L 226.472727 -46.613596 
L 229.854545 -46.613596 
L 233.236364 -46.613596 
L 236.618182 -46.613596 
L 240 -46.613596 
L 243.381818 -46.613596 
L 246.763636 -46.613596 
L 250.145455 -46.613596 
L 253.527273 -46.592788 
L 256.909091 -46.592788 
L 260.290909 -46.592788 
L 263.672727 -46.592788 
L 267.054545 -46.525311 
L 270.436364 -46.525311 
L 273.818182 -46.525311 
L 277.2 -46.525311 
L 280.581818 -46.525311 
L 283.963636 -46.525311 
L 287.345455 -46.525311 
L 290.727273 -46.525311 
L 294.109091 -46.525311 
L 297.490909 -46.525311 
L 300.872727 -46.525311 
L 304.254545 -46.250355 
L 307.636364 -46.250355 
L 311.018182 -46.250355 
L 314.4 -46.250355 
L 317.781818 -46.250355 
L 321.163636 -46.250355 
L 324.545455 -46.250355 
L 327.927273 -46.250355 
L 331.309091 -46.199853 
L 334.690909 -46.199853 
L 338.072727 -46.199853 
L 341.454545 -46.199853 
L 344.836364 -46.199853 
L 348.218182 -46.199853 
L 351.6 -46.199853 
L 354.981818 -46.199853 
L 358.363636 -46.199853 
L 361.745455 -46.199853 
L 365.127273 -46.199853 
L 368.509091 -46.199853 
L 371.890909 -46.199853 
L 375.272727 -46.199853 
L 378.654545 -46.199853 
L 382.036364 -46.199853 
L 385.418182 -46.199853 
L 388.8 -46.199853 
L 392.181818 -46.199853 
L 392.181818 -46.679913 
L 392.181818 -46.679913 
L 388.8 -46.679913 
L 385.418182 -46.679913 
L 382.036364 -46.679913 
L 378.654545 -46.827143 
L 375.272727 -46.827143 
L 371.890909 -46.827143 
L 368.509091 -46.827143 
L 365.127273 -46.827143 
L 361.745455 -47.324017 
L 358.363636 -47.324017 
L 354.981818 -48.442984 
L 351.6 -48.442984 
L 348.218182 -53.93887 
L 344.836364 -53.93887 
L 341.454545 -55.012598 
L 338.072727 -55.012598 
L 334.690909 -65.063244 
L 331.309091 -65.063244 
L 327.927273 -66.991516 
L 324.545455 -66.991516 
L 321.163636 -66.991516 
L 317.781818 -69.343352 
L 314.4 -69.343352 
L 311.018182 -69.343352 
L 307.636364 -77.793779 
L 304.254545 -77.793779 
L 300.872727 -77.793779 
L 297.490909 -77.793779 
L 294.109091 -77.793779 
L 290.727273 -83.204156 
L 287.345455 -83.204156 
L 283.963636 -83.204156 
L 280.581818 -87.840796 
L 277.2 -87.840796 
L 273.818182 -87.840796 
L 270.436364 -87.840796 
L 267.054545 -87.840796 
L 263.672727 -90.95001 
L 260.290909 -90.95001 
L 256.909091 -90.95001 
L 253.527273 -90.95001 
L 250.145455 -90.95001 
L 246.763636 -90.95001 
L 243.381818 -90.95001 
L 240 -90.95001 
L 236.618182 -90.95001 
L 233.236364 -95.383954 
L 229.854545 -95.383954 
L 226.472727 -95.383954 
L 223.090909 -95.383954 
L 219.709091 -95.383954 
L 216.327273 -99.124569 
L 212.945455 -99.124569 
L 209.563636 -102.38172 
L 206.181818 -102.38172 
L 202.8 -102.823995 
L 199.418182 -102.823995 
L 196.036364 -102.879551 
L 192.654545 -102.879551 
L 189.272727 -102.925338 
L 185.890909 -102.925338 
L 182.509091 -102.925338 
L 179.127273 -102.925338 
L 175.745455 -102.925338 
L 172.363636 -102.925338 
L 168.981818 -104.063318 
L 165.6 -104.063318 
L 162.218182 -104.063318 
L 158.836364 -104.606144 
L 155.454545 -104.606144 
L 152.072727 -104.606144 
L 148.690909 -104.606144 
L 145.309091 -106.354764 
L 141.927273 -106.354764 
L 138.545455 -111.239282 
L 135.163636 -112.711921 
L 131.781818 -168.200201 
L 128.4 -168.200201 
L 125.018182 -168.200201 
L 121.636364 -201.141966 
L 118.254545 -201.141966 
L 114.872727 -201.141966 
L 111.490909 -201.141966 
L 108.109091 -201.141966 
L 104.727273 -219.945516 
L 101.345455 -219.945516 
L 97.963636 -219.945516 
L 94.581818 -220.071153 
L 91.2 -220.071153 
L 87.818182 -234.037486 
L 84.436364 -234.077907 
L 81.054545 -234.077907 
L 77.672727 -243.556364 
L 74.290909 -243.556364 
L 70.909091 -243.556364 
L 67.527273 -243.556364 
L 64.145455 -243.556364 
L 60.763636 -243.556364 
L 57.381818 -243.556364 
z
" id="me47fb4374b" style="stroke:#00bfbf;stroke-opacity:0.5;"/>
    </defs>
    <g clip-path="url(#p13d13eb73c)">
     <use style="fill:#00bfbf;fill-opacity:0.5;stroke:#00bfbf;stroke-opacity:0.5;" x="0" xlink:href="#me47fb4374b" y="288"/>
    </g>
   </g>
   <g id="PolyCollection_3">
    <defs>
     <path d="M 60.763636 -243.556364 
L 60.763636 -243.536636 
L 64.145455 -243.536636 
L 67.527273 -233.738112 
L 70.909091 -232.31796 
L 74.290909 -222.54168 
L 77.672727 -202.65895 
L 81.054545 -170.507604 
L 84.436364 -161.362089 
L 87.818182 -89.441736 
L 91.2 -79.565448 
L 94.581818 -79.565448 
L 97.963636 -77.68983 
L 101.345455 -76.736935 
L 104.727273 -71.968592 
L 108.109091 -71.968592 
L 111.490909 -71.968592 
L 114.872727 -70.502342 
L 118.254545 -67.622103 
L 121.636364 -66.871105 
L 125.018182 -65.89828 
L 128.4 -64.188615 
L 131.781818 -60.656482 
L 135.163636 -57.568938 
L 138.545455 -55.278464 
L 141.927273 -53.163524 
L 145.309091 -53.163524 
L 148.690909 -52.602334 
L 152.072727 -51.696684 
L 155.454545 -51.368712 
L 158.836364 -51.007922 
L 162.218182 -50.255754 
L 165.6 -50.255754 
L 168.981818 -49.884304 
L 172.363636 -49.884304 
L 175.745455 -49.884304 
L 179.127273 -49.884304 
L 182.509091 -49.884304 
L 185.890909 -49.884304 
L 189.272727 -49.343022 
L 192.654545 -49.343022 
L 196.036364 -49.343022 
L 199.418182 -49.343022 
L 202.8 -49.343022 
L 206.181818 -49.343022 
L 209.563636 -49.343022 
L 212.945455 -49.343022 
L 216.327273 -49.343022 
L 219.709091 -49.343022 
L 223.090909 -49.343022 
L 226.472727 -49.343022 
L 229.854545 -47.771534 
L 233.236364 -47.771534 
L 236.618182 -47.771534 
L 240 -47.771534 
L 243.381818 -46.836126 
L 246.763636 -46.836126 
L 250.145455 -46.836126 
L 253.527273 -46.836126 
L 256.909091 -46.836126 
L 260.290909 -46.836126 
L 263.672727 -46.836126 
L 267.054545 -46.836126 
L 270.436364 -46.836126 
L 273.818182 -46.836126 
L 277.2 -46.836126 
L 280.581818 -46.836126 
L 283.963636 -46.836126 
L 287.345455 -46.836126 
L 290.727273 -46.757153 
L 294.109091 -46.757153 
L 297.490909 -46.757153 
L 300.872727 -46.556089 
L 304.254545 -46.309636 
L 307.636364 -46.309636 
L 311.018182 -46.309636 
L 314.4 -46.309636 
L 317.781818 -46.309636 
L 321.163636 -46.309636 
L 324.545455 -46.309636 
L 327.927273 -46.309636 
L 331.309091 -46.309636 
L 334.690909 -46.309636 
L 338.072727 -46.309636 
L 341.454545 -46.309636 
L 344.836364 -46.309636 
L 348.218182 -46.309636 
L 351.6 -46.309636 
L 354.981818 -46.309636 
L 358.363636 -46.309636 
L 361.745455 -46.309636 
L 365.127273 -46.309636 
L 368.509091 -46.309636 
L 371.890909 -46.309636 
L 375.272727 -46.309636 
L 378.654545 -46.309636 
L 382.036364 -46.309636 
L 385.418182 -46.309636 
L 388.8 -46.309636 
L 392.181818 -46.309636 
L 392.181818 -73.99792 
L 392.181818 -73.99792 
L 388.8 -73.99792 
L 385.418182 -73.99792 
L 382.036364 -73.99792 
L 378.654545 -73.99792 
L 375.272727 -73.99792 
L 371.890909 -73.99792 
L 368.509091 -73.99792 
L 365.127273 -73.99792 
L 361.745455 -73.99792 
L 358.363636 -73.99792 
L 354.981818 -73.99792 
L 351.6 -73.99792 
L 348.218182 -73.99792 
L 344.836364 -73.99792 
L 341.454545 -73.99792 
L 338.072727 -73.99792 
L 334.690909 -73.99792 
L 331.309091 -73.99792 
L 327.927273 -73.99792 
L 324.545455 -73.99792 
L 321.163636 -73.99792 
L 317.781818 -73.99792 
L 314.4 -73.99792 
L 311.018182 -73.99792 
L 307.636364 -73.99792 
L 304.254545 -73.99792 
L 300.872727 -73.99792 
L 297.490909 -73.99792 
L 294.109091 -73.99792 
L 290.727273 -73.99792 
L 287.345455 -73.99792 
L 283.963636 -73.99792 
L 280.581818 -73.99792 
L 277.2 -73.99792 
L 273.818182 -73.99792 
L 270.436364 -73.99792 
L 267.054545 -73.99792 
L 263.672727 -73.99792 
L 260.290909 -73.99792 
L 256.909091 -73.99792 
L 253.527273 -73.99792 
L 250.145455 -73.99792 
L 246.763636 -73.99792 
L 243.381818 -73.99792 
L 240 -73.99792 
L 236.618182 -73.99792 
L 233.236364 -73.99792 
L 229.854545 -73.99792 
L 226.472727 -73.99792 
L 223.090909 -73.99792 
L 219.709091 -73.99792 
L 216.327273 -73.99792 
L 212.945455 -73.99792 
L 209.563636 -73.99792 
L 206.181818 -73.99792 
L 202.8 -73.99792 
L 199.418182 -73.99792 
L 196.036364 -73.99792 
L 192.654545 -73.99792 
L 189.272727 -73.99792 
L 185.890909 -73.99792 
L 182.509091 -73.99792 
L 179.127273 -73.99792 
L 175.745455 -73.99792 
L 172.363636 -73.99792 
L 168.981818 -73.99792 
L 165.6 -73.99792 
L 162.218182 -73.99792 
L 158.836364 -73.99792 
L 155.454545 -73.99792 
L 152.072727 -73.99792 
L 148.690909 -73.99792 
L 145.309091 -73.99792 
L 141.927273 -73.99792 
L 138.545455 -73.99792 
L 135.163636 -73.99792 
L 131.781818 -73.99792 
L 128.4 -73.99792 
L 125.018182 -73.99792 
L 121.636364 -73.99792 
L 118.254545 -73.99792 
L 114.872727 -73.99792 
L 111.490909 -74.09059 
L 108.109091 -74.528055 
L 104.727273 -74.528055 
L 101.345455 -77.916239 
L 97.963636 -78.816618 
L 94.581818 -80.325244 
L 91.2 -80.325244 
L 87.818182 -90.120463 
L 84.436364 -161.771827 
L 81.054545 -170.656186 
L 77.672727 -202.697107 
L 74.290909 -222.57713 
L 70.909091 -232.327068 
L 67.527273 -233.749433 
L 64.145455 -243.556364 
L 60.763636 -243.556364 
z
" id="mcb766596f1" style="stroke:#008000;stroke-opacity:0.5;"/>
    </defs>
    <g clip-path="url(#p13d13eb73c)">
     <use style="fill:#008000;fill-opacity:0.5;stroke:#008000;stroke-opacity:0.5;" x="0" xlink:href="#mcb766596f1" y="288"/>
    </g>
   </g>
   <g id="PolyCollection_4">
    <defs>
     <path d="M 60.763636 -243.550614 
L 60.763636 -243.539451 
L 64.145455 -243.539451 
L 67.527273 -243.539451 
L 70.909091 -243.539451 
L 74.290909 -93.555273 
L 77.672727 -93.555273 
L 81.054545 -93.555273 
L 84.436364 -93.555273 
L 87.818182 -93.555273 
L 91.2 -93.555273 
L 94.581818 -93.555273 
L 97.963636 -93.555273 
L 101.345455 -93.555273 
L 104.727273 -70.590235 
L 108.109091 -70.590235 
L 111.490909 -50.982959 
L 114.872727 -50.982959 
L 118.254545 -50.982959 
L 121.636364 -50.982959 
L 125.018182 -50.982959 
L 128.4 -50.982959 
L 131.781818 -50.982959 
L 135.163636 -50.982959 
L 138.545455 -50.982959 
L 141.927273 -50.982959 
L 145.309091 -50.982959 
L 148.690909 -50.982959 
L 152.072727 -50.982959 
L 155.454545 -50.982959 
L 158.836364 -50.982959 
L 162.218182 -50.982959 
L 165.6 -50.982959 
L 168.981818 -50.982959 
L 172.363636 -50.982959 
L 175.745455 -50.982959 
L 179.127273 -50.982959 
L 182.509091 -50.982959 
L 185.890909 -50.982959 
L 189.272727 -50.982959 
L 192.654545 -50.982959 
L 196.036364 -50.982959 
L 199.418182 -50.982959 
L 202.8 -50.982959 
L 206.181818 -50.982959 
L 209.563636 -50.982959 
L 212.945455 -50.982959 
L 216.327273 -50.982959 
L 219.709091 -50.982959 
L 223.090909 -50.982959 
L 226.472727 -50.982959 
L 229.854545 -50.982959 
L 233.236364 -50.982959 
L 236.618182 -50.982959 
L 240 -50.982959 
L 243.381818 -50.982959 
L 246.763636 -50.982959 
L 250.145455 -50.982959 
L 253.527273 -50.982959 
L 256.909091 -50.982959 
L 260.290909 -50.982959 
L 263.672727 -50.982959 
L 267.054545 -50.982959 
L 270.436364 -50.982959 
L 273.818182 -50.982959 
L 277.2 -50.982959 
L 280.581818 -50.982959 
L 283.963636 -50.982959 
L 287.345455 -50.982959 
L 290.727273 -50.982959 
L 294.109091 -50.982959 
L 297.490909 -50.982959 
L 300.872727 -50.982959 
L 304.254545 -50.982959 
L 307.636364 -50.982959 
L 311.018182 -50.982959 
L 314.4 -50.982959 
L 317.781818 -50.982959 
L 321.163636 -50.982959 
L 324.545455 -50.982959 
L 327.927273 -50.982959 
L 331.309091 -50.982959 
L 334.690909 -50.982959 
L 338.072727 -50.982959 
L 341.454545 -50.982959 
L 344.836364 -50.982959 
L 348.218182 -50.982959 
L 351.6 -50.982959 
L 354.981818 -50.982959 
L 358.363636 -50.982959 
L 361.745455 -50.982959 
L 365.127273 -50.982959 
L 368.509091 -50.982959 
L 371.890909 -50.982959 
L 375.272727 -50.982959 
L 378.654545 -50.982959 
L 382.036364 -50.982959 
L 385.418182 -50.982959 
L 388.8 -50.982959 
L 392.181818 -50.982959 
L 392.181818 -70.590235 
L 392.181818 -70.590235 
L 388.8 -70.590235 
L 385.418182 -70.590235 
L 382.036364 -70.590235 
L 378.654545 -70.590235 
L 375.272727 -70.590235 
L 371.890909 -70.590235 
L 368.509091 -70.590235 
L 365.127273 -70.590235 
L 361.745455 -70.590235 
L 358.363636 -70.590235 
L 354.981818 -70.590235 
L 351.6 -70.590235 
L 348.218182 -70.590235 
L 344.836364 -70.590235 
L 341.454545 -70.590235 
L 338.072727 -70.590235 
L 334.690909 -70.590235 
L 331.309091 -73.876261 
L 327.927273 -73.876261 
L 324.545455 -73.876261 
L 321.163636 -73.876261 
L 317.781818 -73.876261 
L 314.4 -73.876261 
L 311.018182 -73.876261 
L 307.636364 -73.876261 
L 304.254545 -73.876261 
L 300.872727 -73.876261 
L 297.490909 -73.876261 
L 294.109091 -73.876261 
L 290.727273 -73.876261 
L 287.345455 -73.876261 
L 283.963636 -73.876261 
L 280.581818 -73.876261 
L 277.2 -73.876261 
L 273.818182 -80.105207 
L 270.436364 -80.105207 
L 267.054545 -80.105207 
L 263.672727 -80.105207 
L 260.290909 -80.105207 
L 256.909091 -80.105207 
L 253.527273 -80.105207 
L 250.145455 -80.105207 
L 246.763636 -80.105207 
L 243.381818 -80.105207 
L 240 -80.105207 
L 236.618182 -80.105207 
L 233.236364 -80.105207 
L 229.854545 -83.529262 
L 226.472727 -83.529262 
L 223.090909 -83.529262 
L 219.709091 -83.529262 
L 216.327273 -83.529262 
L 212.945455 -83.529262 
L 209.563636 -83.529262 
L 206.181818 -83.529262 
L 202.8 -83.529262 
L 199.418182 -83.529262 
L 196.036364 -94.159641 
L 192.654545 -94.159641 
L 189.272727 -94.159641 
L 185.890909 -94.159641 
L 182.509091 -94.159641 
L 179.127273 -94.159641 
L 175.745455 -94.159641 
L 172.363636 -94.159641 
L 168.981818 -94.159641 
L 165.6 -107.697232 
L 162.218182 -107.697232 
L 158.836364 -107.697232 
L 155.454545 -107.697232 
L 152.072727 -107.697232 
L 148.690909 -107.697232 
L 145.309091 -107.697232 
L 141.927273 -108.159521 
L 138.545455 -109.536754 
L 135.163636 -119.382708 
L 131.781818 -133.237444 
L 128.4 -149.83505 
L 125.018182 -149.83505 
L 121.636364 -149.83505 
L 118.254545 -149.83505 
L 114.872727 -184.832525 
L 111.490909 -184.832525 
L 108.109091 -184.832525 
L 104.727273 -214.310374 
L 101.345455 -214.310374 
L 97.963636 -214.753101 
L 94.581818 -214.753101 
L 91.2 -214.753101 
L 87.818182 -243.550614 
L 84.436364 -243.550614 
L 81.054545 -243.550614 
L 77.672727 -243.550614 
L 74.290909 -243.550614 
L 70.909091 -243.550614 
L 67.527273 -243.550614 
L 64.145455 -243.550614 
L 60.763636 -243.550614 
z
" id="mf1a1230d2c" style="stroke:#ffa500;stroke-opacity:0.5;"/>
    </defs>
    <g clip-path="url(#p13d13eb73c)">
     <use style="fill:#ffa500;fill-opacity:0.5;stroke:#ffa500;stroke-opacity:0.5;" x="0" xlink:href="#mf1a1230d2c" y="288"/>
    </g>
   </g>
   <g id="matplotlib.axis_1">
    <g id="xtick_1">
     <g id="line2d_1">
      <defs>
       <path d="M 0 0 
L 0 3.5 
" id="mc0c0ce104d" style="stroke:#000000;stroke-width:0.8;"/>
      </defs>
      <g>
       <use style="stroke:#000000;stroke-width:0.8;" x="54" xlink:href="#mc0c0ce104d" y="252"/>
      </g>
     </g>
     <g id="text_1">
      <!-- 0 -->
      <g transform="translate(50.81875 266.598437)scale(0.1 -0.1)">
       <defs>
        <path d="M 31.78125 66.40625 
Q 24.171875 66.40625 20.328125 58.90625 
Q 16.5 51.421875 16.5 36.375 
Q 16.5 21.390625 20.328125 13.890625 
Q 24.171875 6.390625 31.78125 6.390625 
Q 39.453125 6.390625 43.28125 13.890625 
Q 47.125 21.390625 47.125 36.375 
Q 47.125 51.421875 43.28125 58.90625 
Q 39.453125 66.40625 31.78125 66.40625 
z
M 31.78125 74.21875 
Q 44.046875 74.21875 50.515625 64.515625 
Q 56.984375 54.828125 56.984375 36.375 
Q 56.984375 17.96875 50.515625 8.265625 
Q 44.046875 -1.421875 31.78125 -1.421875 
Q 19.53125 -1.421875 13.0625 8.265625 
Q 6.59375 17.96875 6.59375 36.375 
Q 6.59375 54.828125 13.0625 64.515625 
Q 19.53125 74.21875 31.78125 74.21875 
z
" id="DejaVuSans-48"/>
       </defs>
       <use xlink:href="#DejaVuSans-48"/>
      </g>
     </g>
    </g>
    <g id="xtick_2">
     <g id="line2d_2">
      <g>
       <use style="stroke:#000000;stroke-width:0.8;" x="121.636364" xlink:href="#mc0c0ce104d" y="252"/>
      </g>
     </g>
     <g id="text_2">
      <!-- 20 -->
      <g transform="translate(115.273864 266.598437)scale(0.1 -0.1)">
       <defs>
        <path d="M 19.1875 8.296875 
L 53.609375 8.296875 
L 53.609375 0 
L 7.328125 0 
L 7.328125 8.296875 
Q 12.9375 14.109375 22.625 23.890625 
Q 32.328125 33.6875 34.8125 36.53125 
Q 39.546875 41.84375 41.421875 45.53125 
Q 43.3125 49.21875 43.3125 52.78125 
Q 43.3125 58.59375 39.234375 62.25 
Q 35.15625 65.921875 28.609375 65.921875 
Q 23.96875 65.921875 18.8125 64.3125 
Q 13.671875 62.703125 7.8125 59.421875 
L 7.8125 69.390625 
Q 13.765625 71.78125 18.9375 73 
Q 24.125 74.21875 28.421875 74.21875 
Q 39.75 74.21875 46.484375 68.546875 
Q 53.21875 62.890625 53.21875 53.421875 
Q 53.21875 48.921875 51.53125 44.890625 
Q 49.859375 40.875 45.40625 35.40625 
Q 44.1875 33.984375 37.640625 27.21875 
Q 31.109375 20.453125 19.1875 8.296875 
z
" id="DejaVuSans-50"/>
       </defs>
       <use xlink:href="#DejaVuSans-50"/>
       <use x="63.623047" xlink:href="#DejaVuSans-48"/>
      </g>
     </g>
    </g>
    <g id="xtick_3">
     <g id="line2d_3">
      <g>
       <use style="stroke:#000000;stroke-width:0.8;" x="189.272727" xlink:href="#mc0c0ce104d" y="252"/>
      </g>
     </g>
     <g id="text_3">
      <!-- 40 -->
      <g transform="translate(182.910227 266.598437)scale(0.1 -0.1)">
       <defs>
        <path d="M 37.796875 64.3125 
L 12.890625 25.390625 
L 37.796875 25.390625 
z
M 35.203125 72.90625 
L 47.609375 72.90625 
L 47.609375 25.390625 
L 58.015625 25.390625 
L 58.015625 17.1875 
L 47.609375 17.1875 
L 47.609375 0 
L 37.796875 0 
L 37.796875 17.1875 
L 4.890625 17.1875 
L 4.890625 26.703125 
z
" id="DejaVuSans-52"/>
       </defs>
       <use xlink:href="#DejaVuSans-52"/>
       <use x="63.623047" xlink:href="#DejaVuSans-48"/>
      </g>
     </g>
    </g>
    <g id="xtick_4">
     <g id="line2d_4">
      <g>
       <use style="stroke:#000000;stroke-width:0.8;" x="256.909091" xlink:href="#mc0c0ce104d" y="252"/>
      </g>
     </g>
     <g id="text_4">
      <!-- 60 -->
      <g transform="translate(250.546591 266.598437)scale(0.1 -0.1)">
       <defs>
        <path d="M 33.015625 40.375 
Q 26.375 40.375 22.484375 35.828125 
Q 18.609375 31.296875 18.609375 23.390625 
Q 18.609375 15.53125 22.484375 10.953125 
Q 26.375 6.390625 33.015625 6.390625 
Q 39.65625 6.390625 43.53125 10.953125 
Q 47.40625 15.53125 47.40625 23.390625 
Q 47.40625 31.296875 43.53125 35.828125 
Q 39.65625 40.375 33.015625 40.375 
z
M 52.59375 71.296875 
L 52.59375 62.3125 
Q 48.875 64.0625 45.09375 64.984375 
Q 41.3125 65.921875 37.59375 65.921875 
Q 27.828125 65.921875 22.671875 59.328125 
Q 17.53125 52.734375 16.796875 39.40625 
Q 19.671875 43.65625 24.015625 45.921875 
Q 28.375 48.1875 33.59375 48.1875 
Q 44.578125 48.1875 50.953125 41.515625 
Q 57.328125 34.859375 57.328125 23.390625 
Q 57.328125 12.15625 50.6875 5.359375 
Q 44.046875 -1.421875 33.015625 -1.421875 
Q 20.359375 -1.421875 13.671875 8.265625 
Q 6.984375 17.96875 6.984375 36.375 
Q 6.984375 53.65625 15.1875 63.9375 
Q 23.390625 74.21875 37.203125 74.21875 
Q 40.921875 74.21875 44.703125 73.484375 
Q 48.484375 72.75 52.59375 71.296875 
z
" id="DejaVuSans-54"/>
       </defs>
       <use xlink:href="#DejaVuSans-54"/>
       <use x="63.623047" xlink:href="#DejaVuSans-48"/>
      </g>
     </g>
    </g>
    <g id="xtick_5">
     <g id="line2d_5">
      <g>
       <use style="stroke:#000000;stroke-width:0.8;" x="324.545455" xlink:href="#mc0c0ce104d" y="252"/>
      </g>
     </g>
     <g id="text_5">
      <!-- 80 -->
      <g transform="translate(318.182955 266.598437)scale(0.1 -0.1)">
       <defs>
        <path d="M 31.78125 34.625 
Q 24.75 34.625 20.71875 30.859375 
Q 16.703125 27.09375 16.703125 20.515625 
Q 16.703125 13.921875 20.71875 10.15625 
Q 24.75 6.390625 31.78125 6.390625 
Q 38.8125 6.390625 42.859375 10.171875 
Q 46.921875 13.96875 46.921875 20.515625 
Q 46.921875 27.09375 42.890625 30.859375 
Q 38.875 34.625 31.78125 34.625 
z
M 21.921875 38.8125 
Q 15.578125 40.375 12.03125 44.71875 
Q 8.5 49.078125 8.5 55.328125 
Q 8.5 64.0625 14.71875 69.140625 
Q 20.953125 74.21875 31.78125 74.21875 
Q 42.671875 74.21875 48.875 69.140625 
Q 55.078125 64.0625 55.078125 55.328125 
Q 55.078125 49.078125 51.53125 44.71875 
Q 48 40.375 41.703125 38.8125 
Q 48.828125 37.15625 52.796875 32.3125 
Q 56.78125 27.484375 56.78125 20.515625 
Q 56.78125 9.90625 50.3125 4.234375 
Q 43.84375 -1.421875 31.78125 -1.421875 
Q 19.734375 -1.421875 13.25 4.234375 
Q 6.78125 9.90625 6.78125 20.515625 
Q 6.78125 27.484375 10.78125 32.3125 
Q 14.796875 37.15625 21.921875 38.8125 
z
M 18.3125 54.390625 
Q 18.3125 48.734375 21.84375 45.5625 
Q 25.390625 42.390625 31.78125 42.390625 
Q 38.140625 42.390625 41.71875 45.5625 
Q 45.3125 48.734375 45.3125 54.390625 
Q 45.3125 60.0625 41.71875 63.234375 
Q 38.140625 66.40625 31.78125 66.40625 
Q 25.390625 66.40625 21.84375 63.234375 
Q 18.3125 60.0625 18.3125 54.390625 
z
" id="DejaVuSans-56"/>
       </defs>
       <use xlink:href="#DejaVuSans-56"/>
       <use x="63.623047" xlink:href="#DejaVuSans-48"/>
      </g>
     </g>
    </g>
   </g>
   <g id="matplotlib.axis_2">
    <g id="ytick_1">
     <g id="line2d_6">
      <defs>
       <path d="M 0 0 
L -3.5 0 
" id="md3970c7f4d" style="stroke:#000000;stroke-width:0.8;"/>
      </defs>
      <g>
       <use style="stroke:#000000;stroke-width:0.8;" x="54" xlink:href="#md3970c7f4d" y="241.802615"/>
      </g>
     </g>
     <g id="text_6">
      <!-- $\mathdefault{10^{0}}$ -->
      <g transform="translate(29.4 245.601834)scale(0.1 -0.1)">
       <defs>
        <path d="M 12.40625 8.296875 
L 28.515625 8.296875 
L 28.515625 63.921875 
L 10.984375 60.40625 
L 10.984375 69.390625 
L 28.421875 72.90625 
L 38.28125 72.90625 
L 38.28125 8.296875 
L 54.390625 8.296875 
L 54.390625 0 
L 12.40625 0 
z
" id="DejaVuSans-49"/>
       </defs>
       <use transform="translate(0 0.765625)" xlink:href="#DejaVuSans-49"/>
       <use transform="translate(63.623047 0.765625)" xlink:href="#DejaVuSans-48"/>
       <use transform="translate(128.203125 39.046875)scale(0.7)" xlink:href="#DejaVuSans-48"/>
      </g>
     </g>
    </g>
    <g id="ytick_2">
     <g id="line2d_7">
      <g>
       <use style="stroke:#000000;stroke-width:0.8;" x="54" xlink:href="#md3970c7f4d" y="152.100493"/>
      </g>
     </g>
     <g id="text_7">
      <!-- $\mathdefault{10^{1}}$ -->
      <g transform="translate(29.4 155.899712)scale(0.1 -0.1)">
       <use transform="translate(0 0.684375)" xlink:href="#DejaVuSans-49"/>
       <use transform="translate(63.623047 0.684375)" xlink:href="#DejaVuSans-48"/>
       <use transform="translate(128.203125 38.965625)scale(0.7)" xlink:href="#DejaVuSans-49"/>
      </g>
     </g>
    </g>
    <g id="ytick_3">
     <g id="line2d_8">
      <g>
       <use style="stroke:#000000;stroke-width:0.8;" x="54" xlink:href="#md3970c7f4d" y="62.398371"/>
      </g>
     </g>
     <g id="text_8">
      <!-- $\mathdefault{10^{2}}$ -->
      <g transform="translate(29.4 66.19759)scale(0.1 -0.1)">
       <use transform="translate(0 0.765625)" xlink:href="#DejaVuSans-49"/>
       <use transform="translate(63.623047 0.765625)" xlink:href="#DejaVuSans-48"/>
       <use transform="translate(128.203125 39.046875)scale(0.7)" xlink:href="#DejaVuSans-50"/>
      </g>
     </g>
    </g>
    <g id="ytick_4">
     <g id="line2d_9">
      <defs>
       <path d="M 0 0 
L -2 0 
" id="m5a83259aef" style="stroke:#000000;stroke-width:0.6;"/>
      </defs>
      <g>
       <use style="stroke:#000000;stroke-width:0.6;" x="54" xlink:href="#m5a83259aef" y="250.495649"/>
      </g>
     </g>
    </g>
    <g id="ytick_5">
     <g id="line2d_10">
      <g>
       <use style="stroke:#000000;stroke-width:0.6;" x="54" xlink:href="#m5a83259aef" y="245.907159"/>
      </g>
     </g>
    </g>
    <g id="ytick_6">
     <g id="line2d_11">
      <g>
       <use style="stroke:#000000;stroke-width:0.6;" x="54" xlink:href="#m5a83259aef" y="214.799586"/>
      </g>
     </g>
    </g>
    <g id="ytick_7">
     <g id="line2d_12">
      <g>
       <use style="stroke:#000000;stroke-width:0.6;" x="54" xlink:href="#m5a83259aef" y="199.003826"/>
      </g>
     </g>
    </g>
    <g id="ytick_8">
     <g id="line2d_13">
      <g>
       <use style="stroke:#000000;stroke-width:0.6;" x="54" xlink:href="#m5a83259aef" y="187.796556"/>
      </g>
     </g>
    </g>
    <g id="ytick_9">
     <g id="line2d_14">
      <g>
       <use style="stroke:#000000;stroke-width:0.6;" x="54" xlink:href="#m5a83259aef" y="179.103523"/>
      </g>
     </g>
    </g>
    <g id="ytick_10">
     <g id="line2d_15">
      <g>
       <use style="stroke:#000000;stroke-width:0.6;" x="54" xlink:href="#m5a83259aef" y="172.000797"/>
      </g>
     </g>
    </g>
    <g id="ytick_11">
     <g id="line2d_16">
      <g>
       <use style="stroke:#000000;stroke-width:0.6;" x="54" xlink:href="#m5a83259aef" y="165.995528"/>
      </g>
     </g>
    </g>
    <g id="ytick_12">
     <g id="line2d_17">
      <g>
       <use style="stroke:#000000;stroke-width:0.6;" x="54" xlink:href="#m5a83259aef" y="160.793527"/>
      </g>
     </g>
    </g>
    <g id="ytick_13">
     <g id="line2d_18">
      <g>
       <use style="stroke:#000000;stroke-width:0.6;" x="54" xlink:href="#m5a83259aef" y="156.205037"/>
      </g>
     </g>
    </g>
    <g id="ytick_14">
     <g id="line2d_19">
      <g>
       <use style="stroke:#000000;stroke-width:0.6;" x="54" xlink:href="#m5a83259aef" y="125.097464"/>
      </g>
     </g>
    </g>
    <g id="ytick_15">
     <g id="line2d_20">
      <g>
       <use style="stroke:#000000;stroke-width:0.6;" x="54" xlink:href="#m5a83259aef" y="109.301704"/>
      </g>
     </g>
    </g>
    <g id="ytick_16">
     <g id="line2d_21">
      <g>
       <use style="stroke:#000000;stroke-width:0.6;" x="54" xlink:href="#m5a83259aef" y="98.094434"/>
      </g>
     </g>
    </g>
    <g id="ytick_17">
     <g id="line2d_22">
      <g>
       <use style="stroke:#000000;stroke-width:0.6;" x="54" xlink:href="#m5a83259aef" y="89.4014"/>
      </g>
     </g>
    </g>
    <g id="ytick_18">
     <g id="line2d_23">
      <g>
       <use style="stroke:#000000;stroke-width:0.6;" x="54" xlink:href="#m5a83259aef" y="82.298675"/>
      </g>
     </g>
    </g>
    <g id="ytick_19">
     <g id="line2d_24">
      <g>
       <use style="stroke:#000000;stroke-width:0.6;" x="54" xlink:href="#m5a83259aef" y="76.293406"/>
      </g>
     </g>
    </g>
    <g id="ytick_20">
     <g id="line2d_25">
      <g>
       <use style="stroke:#000000;stroke-width:0.6;" x="54" xlink:href="#m5a83259aef" y="71.091405"/>
      </g>
     </g>
    </g>
    <g id="ytick_21">
     <g id="line2d_26">
      <g>
       <use style="stroke:#000000;stroke-width:0.6;" x="54" xlink:href="#m5a83259aef" y="66.502915"/>
      </g>
     </g>
    </g>
    <g id="ytick_22">
     <g id="line2d_27">
      <g>
       <use style="stroke:#000000;stroke-width:0.6;" x="54" xlink:href="#m5a83259aef" y="35.395342"/>
      </g>
     </g>
    </g>
   </g>
   <g id="line2d_28">
    <path clip-path="url(#p13d13eb73c)" d="M 57.381818 44.455764 
L 111.490909 44.455764 
L 111.490909 169.896361 
L 118.254545 169.896361 
L 118.254545 176.09368 
L 125.018182 176.09368 
L 125.018182 177.826711 
L 131.781818 177.826711 
L 131.781818 179.772562 
L 138.545455 179.772562 
L 138.545455 183.6713 
L 141.927273 183.6713 
L 141.927273 186.045706 
L 148.690909 186.045706 
L 148.690909 188.434123 
L 152.072727 188.434123 
L 152.072727 188.716294 
L 155.454545 188.716294 
L 155.454545 192.935047 
L 162.218182 192.935047 
L 162.218182 197.737127 
L 168.981818 197.737127 
L 168.981818 206.977764 
L 172.363636 206.977764 
L 172.363636 212.920459 
L 175.745455 212.920459 
L 175.745455 214.296084 
L 192.654545 214.296084 
L 192.654545 214.899602 
L 196.036364 214.899602 
L 196.036364 221.182764 
L 202.8 221.182764 
L 202.8 229.173553 
L 216.327273 229.273243 
L 216.327273 229.346538 
L 223.090909 229.346538 
L 223.090909 233.925741 
L 226.472727 233.925741 
L 226.472727 237.176253 
L 250.145455 237.176253 
L 250.145455 240.129219 
L 260.290909 240.129219 
L 260.290909 240.241967 
L 270.436364 240.241967 
L 270.436364 240.498309 
L 273.818182 240.498309 
L 273.818182 240.790745 
L 283.963636 240.790745 
L 283.963636 240.972044 
L 287.345455 240.972044 
L 287.345455 241.216028 
L 304.254545 241.295337 
L 304.254545 241.36468 
L 317.781818 241.36468 
L 317.781818 241.503155 
L 324.545455 241.503155 
L 324.545455 241.616044 
L 334.690909 241.616044 
L 334.690909 241.743618 
L 392.181818 241.743618 
L 392.181818 241.743618 
" style="fill:none;stroke:#0000ff;stroke-linecap:square;stroke-width:1.5;"/>
   </g>
   <g id="line2d_29">
    <path clip-path="url(#p13d13eb73c)" d="M 57.381818 44.455764 
L 81.054545 44.455764 
L 81.054545 53.956843 
L 87.818182 53.956843 
L 87.818182 68.122708 
L 97.963636 68.164788 
L 97.963636 68.272566 
L 101.345455 68.272566 
L 101.345455 78.180445 
L 104.727273 78.180445 
L 104.727273 91.97381 
L 111.490909 92.073286 
L 111.490909 139.221582 
L 114.872727 139.221582 
L 114.872727 139.396187 
L 118.254545 139.396187 
L 118.254545 140.15119 
L 121.636364 140.15119 
L 121.636364 159.382116 
L 125.018182 159.382116 
L 125.018182 176.40385 
L 128.4 176.40385 
L 128.4 178.501411 
L 131.781818 178.501411 
L 131.781818 179.852277 
L 135.163636 179.852277 
L 135.163636 183.562143 
L 138.545455 183.562143 
L 138.545455 184.411895 
L 141.927273 184.411895 
L 141.927273 185.063294 
L 145.309091 185.063294 
L 145.309091 186.413662 
L 148.690909 186.413662 
L 148.690909 186.689819 
L 155.454545 186.689819 
L 155.454545 188.011045 
L 162.218182 188.011045 
L 162.218182 190.016196 
L 172.363636 190.119184 
L 172.363636 192.794826 
L 179.127273 192.809257 
L 179.127273 195.03997 
L 185.890909 195.03997 
L 185.890909 195.824634 
L 192.654545 195.824634 
L 192.654545 201.10873 
L 206.181818 201.10873 
L 206.181818 202.67898 
L 212.945455 202.67898 
L 212.945455 205.393617 
L 216.327273 205.393617 
L 216.327273 207.182901 
L 223.090909 207.204624 
L 223.090909 209.340318 
L 226.472727 209.340318 
L 226.472727 212.37728 
L 229.854545 212.37728 
L 229.854545 213.748767 
L 243.381818 213.801072 
L 243.381818 216.887371 
L 250.145455 216.887371 
L 250.145455 218.340836 
L 253.527273 218.340836 
L 253.527273 223.196944 
L 256.909091 223.196944 
L 256.909091 224.305956 
L 263.672727 224.305956 
L 263.672727 228.420252 
L 267.054545 228.420252 
L 267.054545 233.407086 
L 270.436364 233.407086 
L 270.436364 234.289545 
L 277.2 234.289545 
L 277.2 235.928002 
L 287.345455 235.928002 
L 287.345455 238.905626 
L 294.109091 238.905626 
L 294.109091 239.063479 
L 300.872727 239.063479 
L 300.872727 240.927207 
L 304.254545 240.927207 
L 304.254545 241.126178 
L 321.163636 241.183627 
L 321.163636 241.240178 
L 351.6 241.33834 
L 351.6 241.387648 
L 371.890909 241.459531 
L 371.890909 241.50173 
L 382.036364 241.50173 
L 382.036364 241.61681 
L 392.181818 241.61681 
L 392.181818 241.61681 
" style="fill:none;stroke:#00bfbf;stroke-linecap:square;stroke-width:1.5;"/>
   </g>
   <g id="line2d_30">
    <path clip-path="url(#p13d13eb73c)" d="M 60.763636 44.452236 
L 67.527273 44.452236 
L 67.527273 54.25625 
L 70.909091 54.25625 
L 70.909091 55.676273 
L 74.290909 55.676273 
L 74.290909 65.438289 
L 77.672727 65.438289 
L 77.672727 85.315973 
L 81.054545 85.315973 
L 81.054545 117.43576 
L 84.436364 117.43576 
L 84.436364 126.422199 
L 87.818182 126.422199 
L 87.818182 198.183472 
L 91.2 198.183472 
L 91.2 208.246669 
L 97.963636 208.246669 
L 97.963636 209.54509 
L 101.345455 209.54509 
L 101.345455 210.782135 
L 104.727273 210.782135 
L 104.727273 214.154712 
L 111.490909 214.154712 
L 111.490909 214.838852 
L 114.872727 214.838852 
L 114.872727 215.253685 
L 118.254545 215.253685 
L 118.254545 215.731664 
L 121.636364 215.731664 
L 121.636364 216.463486 
L 125.018182 216.463486 
L 125.018182 216.861728 
L 128.4 216.861728 
L 128.4 217.002748 
L 131.781818 217.002748 
L 131.781818 217.447943 
L 138.545455 217.447943 
L 138.545455 217.923421 
L 141.927273 217.923421 
L 141.927273 218.077765 
L 212.945455 218.11366 
L 212.945455 222.788842 
L 216.327273 222.788842 
L 216.327273 226.432586 
L 267.054545 226.453659 
L 267.054545 226.987051 
L 287.345455 226.987051 
L 287.345455 227.145076 
L 290.727273 227.145076 
L 290.727273 227.513703 
L 365.127273 227.540007 
L 365.127273 234.547222 
L 382.036364 234.547222 
L 382.036364 234.898288 
L 388.8 234.898288 
L 388.8 235.159692 
L 392.181818 235.159692 
L 392.181818 235.235632 
" style="fill:none;stroke:#008000;stroke-linecap:square;stroke-width:1.5;"/>
   </g>
   <g id="line2d_31">
    <path clip-path="url(#p13d13eb73c)" d="M 60.763636 44.456469 
L 91.2 44.457016 
L 91.2 83.264962 
L 94.581818 83.264962 
L 94.581818 100.066873 
L 101.345455 100.066873 
L 101.345455 149.809926 
L 108.109091 149.809926 
L 108.109091 163.932257 
L 111.490909 163.932257 
L 111.490909 177.845207 
L 118.254545 177.845207 
L 118.254545 186.214888 
L 131.781818 186.214888 
L 131.781818 194.141371 
L 135.163636 194.141371 
L 135.163636 199.284849 
L 141.927273 199.360318 
L 141.927273 202.701599 
L 148.690909 202.701599 
L 148.690909 206.323317 
L 199.418182 206.323317 
L 199.418182 214.048432 
L 219.709091 214.048432 
L 219.709091 215.308347 
L 233.236364 215.308347 
L 233.236364 219.455962 
L 267.054545 219.455962 
L 267.054545 226.345138 
L 300.872727 226.345138 
L 300.872727 227.685325 
L 304.254545 227.685325 
L 304.254545 228.018467 
L 334.690909 228.018467 
L 334.690909 228.870026 
L 368.509091 228.870026 
L 368.509091 229.718426 
L 392.181818 229.718426 
L 392.181818 229.718426 
" style="fill:none;stroke:#ffa500;stroke-linecap:square;stroke-width:1.5;"/>
   </g>
   <g id="line2d_32">
    <path clip-path="url(#p13d13eb73c)" d="M 54 206.207421 
L 57.381818 206.207421 
L 57.381818 226.315187 
L 60.763636 226.315187 
L 60.763636 226.315187 
L 64.145455 226.315187 
L 64.145455 226.315187 
L 67.527273 226.315187 
L 67.527273 226.315187 
L 70.909091 226.315187 
L 70.909091 226.315187 
L 74.290909 226.315187 
L 74.290909 226.315187 
L 77.672727 226.315187 
L 77.672727 226.315187 
L 81.054545 226.315187 
L 81.054545 226.315187 
L 84.436364 226.315187 
L 84.436364 226.315187 
L 87.818182 226.315187 
L 87.818182 226.315187 
L 91.2 226.315187 
L 91.2 226.315187 
L 94.581818 226.315187 
L 94.581818 226.315187 
L 97.963636 226.315187 
L 97.963636 226.315187 
L 101.345455 226.315187 
L 101.345455 226.315187 
L 104.727273 226.315187 
L 104.727273 226.315187 
L 108.109091 226.315187 
L 108.109091 226.315187 
L 111.490909 226.315187 
L 111.490909 228.273182 
L 114.872727 228.273182 
L 114.872727 228.273182 
L 118.254545 228.273182 
L 118.254545 228.273182 
L 121.636364 228.273182 
L 121.636364 236.982666 
L 125.018182 236.982666 
L 125.018182 236.982666 
L 128.4 236.982666 
L 128.4 236.982666 
L 131.781818 236.982666 
L 131.781818 236.982666 
L 135.163636 236.982666 
L 135.163636 236.982666 
L 138.545455 236.982666 
L 138.545455 236.982666 
L 141.927273 236.982666 
L 141.927273 236.982666 
L 145.309091 236.982666 
L 145.309091 236.982666 
L 148.690909 236.982666 
L 148.690909 236.982666 
L 152.072727 236.982666 
L 152.072727 236.982666 
L 155.454545 236.982666 
L 155.454545 236.982666 
L 158.836364 236.982666 
L 158.836364 236.982666 
L 162.218182 236.982666 
L 162.218182 236.982666 
L 165.6 236.982666 
L 165.6 236.982666 
L 168.981818 236.982666 
L 168.981818 236.982666 
L 172.363636 236.982666 
L 172.363636 236.982666 
L 175.745455 236.982666 
L 175.745455 236.982666 
L 179.127273 236.982666 
L 179.127273 236.982666 
L 182.509091 236.982666 
L 182.509091 236.982666 
L 185.890909 236.982666 
L 185.890909 236.982666 
" style="fill:none;stroke:#ff0000;stroke-linecap:square;stroke-width:1.5;"/>
   </g>
   <g id="line2d_33">
    <path clip-path="url(#p13d13eb73c)" d="M 54 214.725695 
L 57.381818 214.725695 
L 57.381818 94.374175 
L 60.763636 94.374175 
L 60.763636 94.374175 
L 64.145455 94.374175 
L 64.145455 151.610068 
L 67.527273 151.610068 
L 67.527273 186.348533 
L 70.909091 186.348533 
L 70.909091 186.348533 
L 74.290909 186.348533 
L 74.290909 186.348533 
L 77.672727 186.348533 
L 77.672727 186.348533 
L 81.054545 186.348533 
L 81.054545 186.348533 
L 84.436364 186.348533 
L 84.436364 209.984585 
L 87.818182 209.984585 
L 87.818182 216.554909 
L 91.2 216.554909 
L 91.2 234.362807 
L 94.581818 234.362807 
L 94.581818 234.362807 
L 97.963636 234.362807 
L 97.963636 234.362807 
L 101.345455 234.362807 
L 101.345455 234.362807 
L 104.727273 234.362807 
L 104.727273 234.362807 
L 108.109091 234.362807 
L 108.109091 234.362807 
L 111.490909 234.362807 
L 111.490909 234.362807 
L 114.872727 234.362807 
L 114.872727 234.362807 
L 118.254545 234.362807 
L 118.254545 234.362807 
L 121.636364 234.362807 
L 121.636364 236.584699 
L 125.018182 236.584699 
L 125.018182 236.584699 
L 128.4 236.584699 
L 128.4 236.584699 
L 131.781818 236.584699 
L 131.781818 236.584699 
L 135.163636 236.584699 
L 135.163636 236.584699 
L 138.545455 236.584699 
L 138.545455 236.584699 
L 141.927273 236.584699 
L 141.927273 236.584699 
L 145.309091 236.584699 
L 145.309091 236.584699 
L 148.690909 236.584699 
L 148.690909 236.584699 
L 152.072727 236.584699 
L 152.072727 236.584699 
L 155.454545 236.584699 
L 155.454545 236.584699 
L 158.836364 236.584699 
L 158.836364 236.584699 
L 162.218182 236.584699 
L 162.218182 236.584699 
L 165.6 236.584699 
L 165.6 236.584699 
L 168.981818 236.584699 
L 168.981818 236.584699 
L 172.363636 236.584699 
L 172.363636 236.584699 
L 175.745455 236.584699 
L 175.745455 236.584699 
L 179.127273 236.584699 
L 179.127273 236.584699 
L 182.509091 236.584699 
L 182.509091 236.584699 
L 185.890909 236.584699 
L 185.890909 236.584699 
" style="fill:none;stroke:#ff0000;stroke-linecap:square;stroke-width:1.5;"/>
   </g>
   <g id="patch_3">
    <path d="M 54 252 
L 54 34.56 
" style="fill:none;stroke:#000000;stroke-linecap:square;stroke-linejoin:miter;stroke-width:0.8;"/>
   </g>
   <g id="patch_4">
    <path d="M 388.8 252 
L 388.8 34.56 
" style="fill:none;stroke:#000000;stroke-linecap:square;stroke-linejoin:miter;stroke-width:0.8;"/>
   </g>
   <g id="patch_5">
    <path d="M 54 252 
L 388.8 252 
" style="fill:none;stroke:#000000;stroke-linecap:square;stroke-linejoin:miter;stroke-width:0.8;"/>
   </g>
   <g id="patch_6">
    <path d="M 54 34.56 
L 388.8 34.56 
" style="fill:none;stroke:#000000;stroke-linecap:square;stroke-linejoin:miter;stroke-width:0.8;"/>
   </g>
   <g id="legend_1">
    <g id="patch_7">
     <path d="M 273.004687 131.185 
L 381.8 131.185 
Q 383.8 131.185 383.8 129.185 
L 383.8 41.56 
Q 383.8 39.56 381.8 39.56 
L 273.004687 39.56 
Q 271.004687 39.56 271.004687 41.56 
L 271.004687 129.185 
Q 271.004687 131.185 273.004687 131.185 
z
" style="fill:#ffffff;opacity:0.8;stroke:#cccccc;stroke-linejoin:miter;"/>
    </g>
    <g id="line2d_34">
     <path d="M 275.004687 47.658437 
L 295.004687 47.658437 
" style="fill:none;stroke:#0000ff;stroke-linecap:square;stroke-width:1.5;"/>
    </g>
    <g id="line2d_35"/>
    <g id="text_9">
     <!-- CUATRO_global -->
     <g transform="translate(303.004687 51.158437)scale(0.1 -0.1)">
      <defs>
       <path d="M 64.40625 67.28125 
L 64.40625 56.890625 
Q 59.421875 61.53125 53.78125 63.8125 
Q 48.140625 66.109375 41.796875 66.109375 
Q 29.296875 66.109375 22.65625 58.46875 
Q 16.015625 50.828125 16.015625 36.375 
Q 16.015625 21.96875 22.65625 14.328125 
Q 29.296875 6.6875 41.796875 6.6875 
Q 48.140625 6.6875 53.78125 8.984375 
Q 59.421875 11.28125 64.40625 15.921875 
L 64.40625 5.609375 
Q 59.234375 2.09375 53.4375 0.328125 
Q 47.65625 -1.421875 41.21875 -1.421875 
Q 24.65625 -1.421875 15.125 8.703125 
Q 5.609375 18.84375 5.609375 36.375 
Q 5.609375 53.953125 15.125 64.078125 
Q 24.65625 74.21875 41.21875 74.21875 
Q 47.75 74.21875 53.53125 72.484375 
Q 59.328125 70.75 64.40625 67.28125 
z
" id="DejaVuSans-67"/>
       <path d="M 8.6875 72.90625 
L 18.609375 72.90625 
L 18.609375 28.609375 
Q 18.609375 16.890625 22.84375 11.734375 
Q 27.09375 6.59375 36.625 6.59375 
Q 46.09375 6.59375 50.34375 11.734375 
Q 54.59375 16.890625 54.59375 28.609375 
L 54.59375 72.90625 
L 64.5 72.90625 
L 64.5 27.390625 
Q 64.5 13.140625 57.4375 5.859375 
Q 50.390625 -1.421875 36.625 -1.421875 
Q 22.796875 -1.421875 15.734375 5.859375 
Q 8.6875 13.140625 8.6875 27.390625 
z
" id="DejaVuSans-85"/>
       <path d="M 34.1875 63.1875 
L 20.796875 26.90625 
L 47.609375 26.90625 
z
M 28.609375 72.90625 
L 39.796875 72.90625 
L 67.578125 0 
L 57.328125 0 
L 50.6875 18.703125 
L 17.828125 18.703125 
L 11.1875 0 
L 0.78125 0 
z
" id="DejaVuSans-65"/>
       <path d="M -0.296875 72.90625 
L 61.375 72.90625 
L 61.375 64.59375 
L 35.5 64.59375 
L 35.5 0 
L 25.59375 0 
L 25.59375 64.59375 
L -0.296875 64.59375 
z
" id="DejaVuSans-84"/>
       <path d="M 44.390625 34.1875 
Q 47.5625 33.109375 50.5625 29.59375 
Q 53.5625 26.078125 56.59375 19.921875 
L 66.609375 0 
L 56 0 
L 46.6875 18.703125 
Q 43.0625 26.03125 39.671875 28.421875 
Q 36.28125 30.8125 30.421875 30.8125 
L 19.671875 30.8125 
L 19.671875 0 
L 9.8125 0 
L 9.8125 72.90625 
L 32.078125 72.90625 
Q 44.578125 72.90625 50.734375 67.671875 
Q 56.890625 62.453125 56.890625 51.90625 
Q 56.890625 45.015625 53.6875 40.46875 
Q 50.484375 35.9375 44.390625 34.1875 
z
M 19.671875 64.796875 
L 19.671875 38.921875 
L 32.078125 38.921875 
Q 39.203125 38.921875 42.84375 42.21875 
Q 46.484375 45.515625 46.484375 51.90625 
Q 46.484375 58.296875 42.84375 61.546875 
Q 39.203125 64.796875 32.078125 64.796875 
z
" id="DejaVuSans-82"/>
       <path d="M 39.40625 66.21875 
Q 28.65625 66.21875 22.328125 58.203125 
Q 16.015625 50.203125 16.015625 36.375 
Q 16.015625 22.609375 22.328125 14.59375 
Q 28.65625 6.59375 39.40625 6.59375 
Q 50.140625 6.59375 56.421875 14.59375 
Q 62.703125 22.609375 62.703125 36.375 
Q 62.703125 50.203125 56.421875 58.203125 
Q 50.140625 66.21875 39.40625 66.21875 
z
M 39.40625 74.21875 
Q 54.734375 74.21875 63.90625 63.9375 
Q 73.09375 53.65625 73.09375 36.375 
Q 73.09375 19.140625 63.90625 8.859375 
Q 54.734375 -1.421875 39.40625 -1.421875 
Q 24.03125 -1.421875 14.8125 8.828125 
Q 5.609375 19.09375 5.609375 36.375 
Q 5.609375 53.65625 14.8125 63.9375 
Q 24.03125 74.21875 39.40625 74.21875 
z
" id="DejaVuSans-79"/>
       <path d="M 50.984375 -16.609375 
L 50.984375 -23.578125 
L -0.984375 -23.578125 
L -0.984375 -16.609375 
z
" id="DejaVuSans-95"/>
       <path d="M 45.40625 27.984375 
Q 45.40625 37.75 41.375 43.109375 
Q 37.359375 48.484375 30.078125 48.484375 
Q 22.859375 48.484375 18.828125 43.109375 
Q 14.796875 37.75 14.796875 27.984375 
Q 14.796875 18.265625 18.828125 12.890625 
Q 22.859375 7.515625 30.078125 7.515625 
Q 37.359375 7.515625 41.375 12.890625 
Q 45.40625 18.265625 45.40625 27.984375 
z
M 54.390625 6.78125 
Q 54.390625 -7.171875 48.1875 -13.984375 
Q 42 -20.796875 29.203125 -20.796875 
Q 24.46875 -20.796875 20.265625 -20.09375 
Q 16.0625 -19.390625 12.109375 -17.921875 
L 12.109375 -9.1875 
Q 16.0625 -11.328125 19.921875 -12.34375 
Q 23.78125 -13.375 27.78125 -13.375 
Q 36.625 -13.375 41.015625 -8.765625 
Q 45.40625 -4.15625 45.40625 5.171875 
L 45.40625 9.625 
Q 42.625 4.78125 38.28125 2.390625 
Q 33.9375 0 27.875 0 
Q 17.828125 0 11.671875 7.65625 
Q 5.515625 15.328125 5.515625 27.984375 
Q 5.515625 40.671875 11.671875 48.328125 
Q 17.828125 56 27.875 56 
Q 33.9375 56 38.28125 53.609375 
Q 42.625 51.21875 45.40625 46.390625 
L 45.40625 54.6875 
L 54.390625 54.6875 
z
" id="DejaVuSans-103"/>
       <path d="M 9.421875 75.984375 
L 18.40625 75.984375 
L 18.40625 0 
L 9.421875 0 
z
" id="DejaVuSans-108"/>
       <path d="M 30.609375 48.390625 
Q 23.390625 48.390625 19.1875 42.75 
Q 14.984375 37.109375 14.984375 27.296875 
Q 14.984375 17.484375 19.15625 11.84375 
Q 23.34375 6.203125 30.609375 6.203125 
Q 37.796875 6.203125 41.984375 11.859375 
Q 46.1875 17.53125 46.1875 27.296875 
Q 46.1875 37.015625 41.984375 42.703125 
Q 37.796875 48.390625 30.609375 48.390625 
z
M 30.609375 56 
Q 42.328125 56 49.015625 48.375 
Q 55.71875 40.765625 55.71875 27.296875 
Q 55.71875 13.875 49.015625 6.21875 
Q 42.328125 -1.421875 30.609375 -1.421875 
Q 18.84375 -1.421875 12.171875 6.21875 
Q 5.515625 13.875 5.515625 27.296875 
Q 5.515625 40.765625 12.171875 48.375 
Q 18.84375 56 30.609375 56 
z
" id="DejaVuSans-111"/>
       <path d="M 48.6875 27.296875 
Q 48.6875 37.203125 44.609375 42.84375 
Q 40.53125 48.484375 33.40625 48.484375 
Q 26.265625 48.484375 22.1875 42.84375 
Q 18.109375 37.203125 18.109375 27.296875 
Q 18.109375 17.390625 22.1875 11.75 
Q 26.265625 6.109375 33.40625 6.109375 
Q 40.53125 6.109375 44.609375 11.75 
Q 48.6875 17.390625 48.6875 27.296875 
z
M 18.109375 46.390625 
Q 20.953125 51.265625 25.265625 53.625 
Q 29.59375 56 35.59375 56 
Q 45.5625 56 51.78125 48.09375 
Q 58.015625 40.1875 58.015625 27.296875 
Q 58.015625 14.40625 51.78125 6.484375 
Q 45.5625 -1.421875 35.59375 -1.421875 
Q 29.59375 -1.421875 25.265625 0.953125 
Q 20.953125 3.328125 18.109375 8.203125 
L 18.109375 0 
L 9.078125 0 
L 9.078125 75.984375 
L 18.109375 75.984375 
z
" id="DejaVuSans-98"/>
       <path d="M 34.28125 27.484375 
Q 23.390625 27.484375 19.1875 25 
Q 14.984375 22.515625 14.984375 16.5 
Q 14.984375 11.71875 18.140625 8.90625 
Q 21.296875 6.109375 26.703125 6.109375 
Q 34.1875 6.109375 38.703125 11.40625 
Q 43.21875 16.703125 43.21875 25.484375 
L 43.21875 27.484375 
z
M 52.203125 31.203125 
L 52.203125 0 
L 43.21875 0 
L 43.21875 8.296875 
Q 40.140625 3.328125 35.546875 0.953125 
Q 30.953125 -1.421875 24.3125 -1.421875 
Q 15.921875 -1.421875 10.953125 3.296875 
Q 6 8.015625 6 15.921875 
Q 6 25.140625 12.171875 29.828125 
Q 18.359375 34.515625 30.609375 34.515625 
L 43.21875 34.515625 
L 43.21875 35.40625 
Q 43.21875 41.609375 39.140625 45 
Q 35.0625 48.390625 27.6875 48.390625 
Q 23 48.390625 18.546875 47.265625 
Q 14.109375 46.140625 10.015625 43.890625 
L 10.015625 52.203125 
Q 14.9375 54.109375 19.578125 55.046875 
Q 24.21875 56 28.609375 56 
Q 40.484375 56 46.34375 49.84375 
Q 52.203125 43.703125 52.203125 31.203125 
z
" id="DejaVuSans-97"/>
      </defs>
      <use xlink:href="#DejaVuSans-67"/>
      <use x="69.824219" xlink:href="#DejaVuSans-85"/>
      <use x="143.017578" xlink:href="#DejaVuSans-65"/>
      <use x="203.675781" xlink:href="#DejaVuSans-84"/>
      <use x="264.759766" xlink:href="#DejaVuSans-82"/>
      <use x="334.242188" xlink:href="#DejaVuSans-79"/>
      <use x="412.953125" xlink:href="#DejaVuSans-95"/>
      <use x="462.953125" xlink:href="#DejaVuSans-103"/>
      <use x="526.429688" xlink:href="#DejaVuSans-108"/>
      <use x="554.212891" xlink:href="#DejaVuSans-111"/>
      <use x="615.394531" xlink:href="#DejaVuSans-98"/>
      <use x="678.871094" xlink:href="#DejaVuSans-97"/>
      <use x="740.150391" xlink:href="#DejaVuSans-108"/>
     </g>
    </g>
    <g id="line2d_36">
     <path d="M 275.004687 62.614688 
L 295.004687 62.614688 
" style="fill:none;stroke:#00bfbf;stroke-linecap:square;stroke-width:1.5;"/>
    </g>
    <g id="line2d_37"/>
    <g id="text_10">
     <!-- CUATRO_local -->
     <g transform="translate(303.004687 66.114688)scale(0.1 -0.1)">
      <defs>
       <path d="M 48.78125 52.59375 
L 48.78125 44.1875 
Q 44.96875 46.296875 41.140625 47.34375 
Q 37.3125 48.390625 33.40625 48.390625 
Q 24.65625 48.390625 19.8125 42.84375 
Q 14.984375 37.3125 14.984375 27.296875 
Q 14.984375 17.28125 19.8125 11.734375 
Q 24.65625 6.203125 33.40625 6.203125 
Q 37.3125 6.203125 41.140625 7.25 
Q 44.96875 8.296875 48.78125 10.40625 
L 48.78125 2.09375 
Q 45.015625 0.34375 40.984375 -0.53125 
Q 36.96875 -1.421875 32.421875 -1.421875 
Q 20.0625 -1.421875 12.78125 6.34375 
Q 5.515625 14.109375 5.515625 27.296875 
Q 5.515625 40.671875 12.859375 48.328125 
Q 20.21875 56 33.015625 56 
Q 37.15625 56 41.109375 55.140625 
Q 45.0625 54.296875 48.78125 52.59375 
z
" id="DejaVuSans-99"/>
      </defs>
      <use xlink:href="#DejaVuSans-67"/>
      <use x="69.824219" xlink:href="#DejaVuSans-85"/>
      <use x="143.017578" xlink:href="#DejaVuSans-65"/>
      <use x="203.675781" xlink:href="#DejaVuSans-84"/>
      <use x="264.759766" xlink:href="#DejaVuSans-82"/>
      <use x="334.242188" xlink:href="#DejaVuSans-79"/>
      <use x="412.953125" xlink:href="#DejaVuSans-95"/>
      <use x="462.953125" xlink:href="#DejaVuSans-108"/>
      <use x="490.736328" xlink:href="#DejaVuSans-111"/>
      <use x="551.917969" xlink:href="#DejaVuSans-99"/>
      <use x="606.898438" xlink:href="#DejaVuSans-97"/>
      <use x="668.177734" xlink:href="#DejaVuSans-108"/>
     </g>
    </g>
    <g id="line2d_38">
     <path d="M 275.004687 77.570937 
L 295.004687 77.570937 
" style="fill:none;stroke:#008000;stroke-linecap:square;stroke-width:1.5;"/>
    </g>
    <g id="line2d_39"/>
    <g id="text_11">
     <!-- Py-BOBYQA  -->
     <g transform="translate(303.004687 81.070937)scale(0.1 -0.1)">
      <defs>
       <path d="M 19.671875 64.796875 
L 19.671875 37.40625 
L 32.078125 37.40625 
Q 38.96875 37.40625 42.71875 40.96875 
Q 46.484375 44.53125 46.484375 51.125 
Q 46.484375 57.671875 42.71875 61.234375 
Q 38.96875 64.796875 32.078125 64.796875 
z
M 9.8125 72.90625 
L 32.078125 72.90625 
Q 44.34375 72.90625 50.609375 67.359375 
Q 56.890625 61.8125 56.890625 51.125 
Q 56.890625 40.328125 50.609375 34.8125 
Q 44.34375 29.296875 32.078125 29.296875 
L 19.671875 29.296875 
L 19.671875 0 
L 9.8125 0 
z
" id="DejaVuSans-80"/>
       <path d="M 32.171875 -5.078125 
Q 28.375 -14.84375 24.75 -17.8125 
Q 21.140625 -20.796875 15.09375 -20.796875 
L 7.90625 -20.796875 
L 7.90625 -13.28125 
L 13.1875 -13.28125 
Q 16.890625 -13.28125 18.9375 -11.515625 
Q 21 -9.765625 23.484375 -3.21875 
L 25.09375 0.875 
L 2.984375 54.6875 
L 12.5 54.6875 
L 29.59375 11.921875 
L 46.6875 54.6875 
L 56.203125 54.6875 
z
" id="DejaVuSans-121"/>
       <path d="M 4.890625 31.390625 
L 31.203125 31.390625 
L 31.203125 23.390625 
L 4.890625 23.390625 
z
" id="DejaVuSans-45"/>
       <path d="M 19.671875 34.8125 
L 19.671875 8.109375 
L 35.5 8.109375 
Q 43.453125 8.109375 47.28125 11.40625 
Q 51.125 14.703125 51.125 21.484375 
Q 51.125 28.328125 47.28125 31.5625 
Q 43.453125 34.8125 35.5 34.8125 
z
M 19.671875 64.796875 
L 19.671875 42.828125 
L 34.28125 42.828125 
Q 41.5 42.828125 45.03125 45.53125 
Q 48.578125 48.25 48.578125 53.8125 
Q 48.578125 59.328125 45.03125 62.0625 
Q 41.5 64.796875 34.28125 64.796875 
z
M 9.8125 72.90625 
L 35.015625 72.90625 
Q 46.296875 72.90625 52.390625 68.21875 
Q 58.5 63.53125 58.5 54.890625 
Q 58.5 48.1875 55.375 44.234375 
Q 52.25 40.28125 46.1875 39.3125 
Q 53.46875 37.75 57.5 32.78125 
Q 61.53125 27.828125 61.53125 20.40625 
Q 61.53125 10.640625 54.890625 5.3125 
Q 48.25 0 35.984375 0 
L 9.8125 0 
z
" id="DejaVuSans-66"/>
       <path d="M -0.203125 72.90625 
L 10.40625 72.90625 
L 30.609375 42.921875 
L 50.6875 72.90625 
L 61.28125 72.90625 
L 35.5 34.71875 
L 35.5 0 
L 25.59375 0 
L 25.59375 34.71875 
z
" id="DejaVuSans-89"/>
       <path d="M 39.40625 66.21875 
Q 28.65625 66.21875 22.328125 58.203125 
Q 16.015625 50.203125 16.015625 36.375 
Q 16.015625 22.609375 22.328125 14.59375 
Q 28.65625 6.59375 39.40625 6.59375 
Q 50.140625 6.59375 56.421875 14.59375 
Q 62.703125 22.609375 62.703125 36.375 
Q 62.703125 50.203125 56.421875 58.203125 
Q 50.140625 66.21875 39.40625 66.21875 
z
M 53.21875 1.3125 
L 66.21875 -12.890625 
L 54.296875 -12.890625 
L 43.5 -1.21875 
Q 41.890625 -1.3125 41.03125 -1.359375 
Q 40.1875 -1.421875 39.40625 -1.421875 
Q 24.03125 -1.421875 14.8125 8.859375 
Q 5.609375 19.140625 5.609375 36.375 
Q 5.609375 53.65625 14.8125 63.9375 
Q 24.03125 74.21875 39.40625 74.21875 
Q 54.734375 74.21875 63.90625 63.9375 
Q 73.09375 53.65625 73.09375 36.375 
Q 73.09375 23.6875 67.984375 14.640625 
Q 62.890625 5.609375 53.21875 1.3125 
z
" id="DejaVuSans-81"/>
       <path id="DejaVuSans-32"/>
      </defs>
      <use xlink:href="#DejaVuSans-80"/>
      <use x="60.302734" xlink:href="#DejaVuSans-121"/>
      <use x="117.732422" xlink:href="#DejaVuSans-45"/>
      <use x="150.191406" xlink:href="#DejaVuSans-66"/>
      <use x="217.044922" xlink:href="#DejaVuSans-79"/>
      <use x="295.755859" xlink:href="#DejaVuSans-66"/>
      <use x="358.859375" xlink:href="#DejaVuSans-89"/>
      <use x="419.943359" xlink:href="#DejaVuSans-81"/>
      <use x="498.654297" xlink:href="#DejaVuSans-65"/>
      <use x="567.0625" xlink:href="#DejaVuSans-32"/>
     </g>
    </g>
    <g id="line2d_40">
     <path d="M 275.004687 92.249062 
L 295.004687 92.249062 
" style="fill:none;stroke:#ffa500;stroke-linecap:square;stroke-width:1.5;"/>
    </g>
    <g id="line2d_41"/>
    <g id="text_12">
     <!-- Snobfit -->
     <g transform="translate(303.004687 95.749062)scale(0.1 -0.1)">
      <defs>
       <path d="M 53.515625 70.515625 
L 53.515625 60.890625 
Q 47.90625 63.578125 42.921875 64.890625 
Q 37.9375 66.21875 33.296875 66.21875 
Q 25.25 66.21875 20.875 63.09375 
Q 16.5 59.96875 16.5 54.203125 
Q 16.5 49.359375 19.40625 46.890625 
Q 22.3125 44.4375 30.421875 42.921875 
L 36.375 41.703125 
Q 47.40625 39.59375 52.65625 34.296875 
Q 57.90625 29 57.90625 20.125 
Q 57.90625 9.515625 50.796875 4.046875 
Q 43.703125 -1.421875 29.984375 -1.421875 
Q 24.8125 -1.421875 18.96875 -0.25 
Q 13.140625 0.921875 6.890625 3.21875 
L 6.890625 13.375 
Q 12.890625 10.015625 18.65625 8.296875 
Q 24.421875 6.59375 29.984375 6.59375 
Q 38.421875 6.59375 43.015625 9.90625 
Q 47.609375 13.234375 47.609375 19.390625 
Q 47.609375 24.75 44.3125 27.78125 
Q 41.015625 30.8125 33.5 32.328125 
L 27.484375 33.5 
Q 16.453125 35.6875 11.515625 40.375 
Q 6.59375 45.0625 6.59375 53.421875 
Q 6.59375 63.09375 13.40625 68.65625 
Q 20.21875 74.21875 32.171875 74.21875 
Q 37.3125 74.21875 42.625 73.28125 
Q 47.953125 72.359375 53.515625 70.515625 
z
" id="DejaVuSans-83"/>
       <path d="M 54.890625 33.015625 
L 54.890625 0 
L 45.90625 0 
L 45.90625 32.71875 
Q 45.90625 40.484375 42.875 44.328125 
Q 39.84375 48.1875 33.796875 48.1875 
Q 26.515625 48.1875 22.3125 43.546875 
Q 18.109375 38.921875 18.109375 30.90625 
L 18.109375 0 
L 9.078125 0 
L 9.078125 54.6875 
L 18.109375 54.6875 
L 18.109375 46.1875 
Q 21.34375 51.125 25.703125 53.5625 
Q 30.078125 56 35.796875 56 
Q 45.21875 56 50.046875 50.171875 
Q 54.890625 44.34375 54.890625 33.015625 
z
" id="DejaVuSans-110"/>
       <path d="M 37.109375 75.984375 
L 37.109375 68.5 
L 28.515625 68.5 
Q 23.6875 68.5 21.796875 66.546875 
Q 19.921875 64.59375 19.921875 59.515625 
L 19.921875 54.6875 
L 34.71875 54.6875 
L 34.71875 47.703125 
L 19.921875 47.703125 
L 19.921875 0 
L 10.890625 0 
L 10.890625 47.703125 
L 2.296875 47.703125 
L 2.296875 54.6875 
L 10.890625 54.6875 
L 10.890625 58.5 
Q 10.890625 67.625 15.140625 71.796875 
Q 19.390625 75.984375 28.609375 75.984375 
z
" id="DejaVuSans-102"/>
       <path d="M 9.421875 54.6875 
L 18.40625 54.6875 
L 18.40625 0 
L 9.421875 0 
z
M 9.421875 75.984375 
L 18.40625 75.984375 
L 18.40625 64.59375 
L 9.421875 64.59375 
z
" id="DejaVuSans-105"/>
       <path d="M 18.3125 70.21875 
L 18.3125 54.6875 
L 36.8125 54.6875 
L 36.8125 47.703125 
L 18.3125 47.703125 
L 18.3125 18.015625 
Q 18.3125 11.328125 20.140625 9.421875 
Q 21.96875 7.515625 27.59375 7.515625 
L 36.8125 7.515625 
L 36.8125 0 
L 27.59375 0 
Q 17.1875 0 13.234375 3.875 
Q 9.28125 7.765625 9.28125 18.015625 
L 9.28125 47.703125 
L 2.6875 47.703125 
L 2.6875 54.6875 
L 9.28125 54.6875 
L 9.28125 70.21875 
z
" id="DejaVuSans-116"/>
      </defs>
      <use xlink:href="#DejaVuSans-83"/>
      <use x="63.476562" xlink:href="#DejaVuSans-110"/>
      <use x="126.855469" xlink:href="#DejaVuSans-111"/>
      <use x="188.037109" xlink:href="#DejaVuSans-98"/>
      <use x="251.513672" xlink:href="#DejaVuSans-102"/>
      <use x="286.71875" xlink:href="#DejaVuSans-105"/>
      <use x="314.501953" xlink:href="#DejaVuSans-116"/>
     </g>
    </g>
    <g id="line2d_42">
     <path d="M 275.004687 106.927188 
L 295.004687 106.927188 
" style="fill:none;stroke:#ff0000;stroke-linecap:square;stroke-width:1.5;"/>
    </g>
    <g id="line2d_43"/>
    <g id="text_13">
     <!-- BO -->
     <g transform="translate(303.004687 110.427188)scale(0.1 -0.1)">
      <use xlink:href="#DejaVuSans-66"/>
      <use x="66.853516" xlink:href="#DejaVuSans-79"/>
     </g>
    </g>
    <g id="line2d_44">
     <path d="M 275.004687 121.605312 
L 295.004687 121.605312 
" style="fill:none;stroke:#ff0000;stroke-linecap:square;stroke-width:1.5;"/>
    </g>
    <g id="line2d_45"/>
    <g id="text_14">
     <!-- BO -->
     <g transform="translate(303.004687 125.105312)scale(0.1 -0.1)">
      <use xlink:href="#DejaVuSans-66"/>
      <use x="66.853516" xlink:href="#DejaVuSans-79"/>
     </g>
    </g>
   </g>
  </g>
 </g>
 <defs>
  <clipPath id="p13d13eb73c">
   <rect height="217.44" width="334.8" x="54" y="34.56"/>
  </clipPath>
 </defs>
</svg>
