<?xml version="1.0" encoding="utf-8" standalone="no"?>
<!DOCTYPE svg PUBLIC "-//W3C//DTD SVG 1.1//EN"
  "http://www.w3.org/Graphics/SVG/1.1/DTD/svg11.dtd">
<!-- Created with matplotlib (https://matplotlib.org/) -->
<svg height="288pt" version="1.1" viewBox="0 0 432 288" width="432pt" xmlns="http://www.w3.org/2000/svg" xmlns:xlink="http://www.w3.org/1999/xlink">
 <metadata>
  <rdf:RDF xmlns:cc="http://creativecommons.org/ns#" xmlns:dc="http://purl.org/dc/elements/1.1/" xmlns:rdf="http://www.w3.org/1999/02/22-rdf-syntax-ns#">
   <cc:Work>
    <dc:type rdf:resource="http://purl.org/dc/dcmitype/StillImage"/>
    <dc:date>2021-04-20T21:58:28.675297</dc:date>
    <dc:format>image/svg+xml</dc:format>
    <dc:creator>
     <cc:Agent>
      <dc:title>Matplotlib v3.3.4, https://matplotlib.org/</dc:title>
     </cc:Agent>
    </dc:creator>
   </cc:Work>
  </rdf:RDF>
 </metadata>
 <defs>
  <style type="text/css">*{stroke-linecap:butt;stroke-linejoin:round;}</style>
 </defs>
 <g id="figure_1">
  <g id="patch_1">
   <path d="M 0 288 
L 432 288 
L 432 0 
L 0 0 
z
" style="fill:#ffffff;"/>
  </g>
  <g id="axes_1">
   <g id="patch_2">
    <path d="M 54 252 
L 388.8 252 
L 388.8 34.56 
L 54 34.56 
z
" style="fill:#ffffff;"/>
   </g>
   <g id="PolyCollection_1">
    <defs>
     <path d="M 54 -243.556364 
L 54 -242.728787 
L 57.381818 -242.728787 
L 60.763636 -242.728787 
L 64.145455 -242.728787 
L 67.527273 -242.728787 
L 70.909091 -242.728787 
L 74.290909 -242.728787 
L 77.672727 -242.728787 
L 81.054545 -242.728787 
L 84.436364 -242.728787 
L 87.818182 -242.728787 
L 91.2 -242.728787 
L 94.581818 -242.728787 
L 97.963636 -242.728787 
L 101.345455 -242.728787 
L 104.727273 -242.728787 
L 108.109091 -55.76202 
L 111.490909 -55.76202 
L 114.872727 -55.76202 
L 118.254545 -55.76202 
L 121.636364 -55.76202 
L 125.018182 -55.76202 
L 128.4 -55.76202 
L 131.781818 -55.76202 
L 135.163636 -55.76202 
L 138.545455 -55.76202 
L 141.927273 -55.76202 
L 145.309091 -55.76202 
L 148.690909 -55.76202 
L 152.072727 -55.76202 
L 155.454545 -55.76202 
L 158.836364 -50.621724 
L 162.218182 -50.621724 
L 165.6 -50.621724 
L 168.981818 -50.621724 
L 172.363636 -50.621724 
L 175.745455 -50.621724 
L 179.127273 -50.621724 
L 182.509091 -50.621724 
L 185.890909 -50.621724 
L 189.272727 -50.621724 
L 192.654545 -50.621724 
L 196.036364 -50.621724 
L 199.418182 -50.621724 
L 202.8 -50.621724 
L 206.181818 -50.621724 
L 209.563636 -50.621724 
L 212.945455 -50.621724 
L 216.327273 -50.621724 
L 219.709091 -50.621724 
L 223.090909 -50.621724 
L 226.472727 -50.621724 
L 229.854545 -50.621724 
L 233.236364 -50.621724 
L 236.618182 -50.621724 
L 240 -50.621724 
L 243.381818 -50.621724 
L 246.763636 -50.621724 
L 250.145455 -50.621724 
L 253.527273 -50.621724 
L 256.909091 -50.621724 
L 260.290909 -50.430899 
L 263.672727 -50.430899 
L 267.054545 -50.430899 
L 270.436364 -50.430899 
L 273.818182 -50.430899 
L 277.2 -50.430899 
L 280.581818 -50.430899 
L 283.963636 -50.430899 
L 287.345455 -50.430899 
L 290.727273 -50.430899 
L 294.109091 -50.430899 
L 297.490909 -50.430899 
L 300.872727 -50.430899 
L 304.254545 -50.430899 
L 307.636364 -50.430899 
L 311.018182 -48.730173 
L 314.4 -48.730173 
L 317.781818 -48.730173 
L 321.163636 -48.730173 
L 324.545455 -48.730173 
L 327.927273 -48.730173 
L 331.309091 -48.730173 
L 334.690909 -48.730173 
L 338.072727 -48.730173 
L 341.454545 -48.730173 
L 344.836364 -48.730173 
L 348.218182 -48.730173 
L 351.6 -48.730173 
L 354.981818 -48.730173 
L 358.363636 -48.730173 
L 361.745455 -48.730173 
L 365.127273 -48.730173 
L 368.509091 -48.730173 
L 371.890909 -48.730173 
L 375.272727 -48.730173 
L 378.654545 -48.730173 
L 382.036364 -48.730173 
L 385.418182 -48.730173 
L 388.8 -48.730173 
L 388.8 -54.263657 
L 388.8 -54.263657 
L 385.418182 -54.498877 
L 382.036364 -54.498877 
L 378.654545 -54.498877 
L 375.272727 -54.498877 
L 371.890909 -54.498877 
L 368.509091 -54.498877 
L 365.127273 -54.498877 
L 361.745455 -54.498877 
L 358.363636 -54.498877 
L 354.981818 -54.498877 
L 351.6 -54.498877 
L 348.218182 -54.498877 
L 344.836364 -54.498877 
L 341.454545 -54.498877 
L 338.072727 -54.498877 
L 334.690909 -54.498877 
L 331.309091 -54.498877 
L 327.927273 -54.498877 
L 324.545455 -54.498877 
L 321.163636 -54.498877 
L 317.781818 -54.498877 
L 314.4 -54.498877 
L 311.018182 -54.498877 
L 307.636364 -55.071469 
L 304.254545 -55.522604 
L 300.872727 -55.522604 
L 297.490909 -55.522604 
L 294.109091 -55.522604 
L 290.727273 -55.522604 
L 287.345455 -55.522604 
L 283.963636 -55.522604 
L 280.581818 -55.522604 
L 277.2 -55.522604 
L 273.818182 -55.522604 
L 270.436364 -55.522604 
L 267.054545 -55.522604 
L 263.672727 -55.522604 
L 260.290909 -55.522604 
L 256.909091 -60.424097 
L 253.527273 -60.424097 
L 250.145455 -60.424097 
L 246.763636 -60.424097 
L 243.381818 -60.424097 
L 240 -60.424097 
L 236.618182 -60.424097 
L 233.236364 -60.424097 
L 229.854545 -60.424097 
L 226.472727 -60.424097 
L 223.090909 -60.424097 
L 219.709091 -60.424097 
L 216.327273 -60.424097 
L 212.945455 -60.424097 
L 209.563636 -60.424097 
L 206.181818 -62.182867 
L 202.8 -62.182867 
L 199.418182 -62.182867 
L 196.036364 -62.182867 
L 192.654545 -62.182867 
L 189.272727 -62.182867 
L 185.890909 -62.182867 
L 182.509091 -62.182867 
L 179.127273 -62.182867 
L 175.745455 -62.182867 
L 172.363636 -62.182867 
L 168.981818 -62.182867 
L 165.6 -62.182867 
L 162.218182 -62.182867 
L 158.836364 -62.182867 
L 155.454545 -66.09648 
L 152.072727 -66.09648 
L 148.690909 -66.09648 
L 145.309091 -66.09648 
L 141.927273 -66.09648 
L 138.545455 -66.09648 
L 135.163636 -66.09648 
L 131.781818 -66.09648 
L 128.4 -66.09648 
L 125.018182 -66.09648 
L 121.636364 -66.09648 
L 118.254545 -66.09648 
L 114.872727 -66.09648 
L 111.490909 -66.09648 
L 108.109091 -66.09648 
L 104.727273 -243.556364 
L 101.345455 -243.556364 
L 97.963636 -243.556364 
L 94.581818 -243.556364 
L 91.2 -243.556364 
L 87.818182 -243.556364 
L 84.436364 -243.556364 
L 81.054545 -243.556364 
L 77.672727 -243.556364 
L 74.290909 -243.556364 
L 70.909091 -243.556364 
L 67.527273 -243.556364 
L 64.145455 -243.556364 
L 60.763636 -243.556364 
L 57.381818 -243.556364 
L 54 -243.556364 
z
" id="mb3eccffc85" style="stroke:#0000ff;stroke-opacity:0.5;"/>
    </defs>
    <g clip-path="url(#p5202a3c3f7)">
     <use style="fill:#0000ff;fill-opacity:0.5;stroke:#0000ff;stroke-opacity:0.5;" x="0" xlink:href="#mb3eccffc85" y="288"/>
    </g>
   </g>
   <g id="PolyCollection_2">
    <defs>
     <path d="M 54 -243.556364 
L 54 -242.728787 
L 57.381818 -242.728787 
L 60.763636 -242.728787 
L 64.145455 -242.728787 
L 67.527273 -242.728787 
L 70.909091 -242.728787 
L 74.290909 -242.728787 
L 77.672727 -61.730175 
L 81.054545 -61.730175 
L 84.436364 -61.730175 
L 87.818182 -61.730175 
L 91.2 -61.730175 
L 94.581818 -61.730175 
L 97.963636 -61.730175 
L 101.345455 -61.730175 
L 104.727273 -61.730175 
L 108.109091 -61.730175 
L 111.490909 -61.730175 
L 114.872727 -61.730175 
L 118.254545 -61.730175 
L 121.636364 -61.730175 
L 125.018182 -61.730175 
L 128.4 -61.730175 
L 131.781818 -61.730175 
L 135.163636 -61.730175 
L 138.545455 -61.730175 
L 141.927273 -61.730175 
L 145.309091 -61.730175 
L 148.690909 -61.730175 
L 152.072727 -61.730175 
L 155.454545 -61.730175 
L 158.836364 -61.730175 
L 162.218182 -61.730175 
L 165.6 -61.730175 
L 168.981818 -61.730175 
L 172.363636 -61.730175 
L 175.745455 -61.730175 
L 179.127273 -60.529319 
L 182.509091 -60.529319 
L 185.890909 -60.529319 
L 189.272727 -60.529319 
L 192.654545 -60.529319 
L 196.036364 -60.529319 
L 199.418182 -60.261673 
L 202.8 -60.261673 
L 206.181818 -60.261673 
L 209.563636 -60.261673 
L 212.945455 -60.261673 
L 216.327273 -60.261673 
L 219.709091 -60.261673 
L 223.090909 -60.261673 
L 226.472727 -60.261673 
L 229.854545 -60.261673 
L 233.236364 -60.261673 
L 236.618182 -60.261673 
L 240 -60.261673 
L 243.381818 -60.261673 
L 246.763636 -60.261673 
L 250.145455 -60.261673 
L 253.527273 -60.261673 
L 256.909091 -60.261673 
L 260.290909 -60.261673 
L 263.672727 -60.261673 
L 267.054545 -60.261673 
L 270.436364 -60.261673 
L 273.818182 -60.261673 
L 277.2 -60.261673 
L 280.581818 -60.261673 
L 283.963636 -60.261673 
L 287.345455 -60.261673 
L 290.727273 -60.261673 
L 294.109091 -60.261673 
L 297.490909 -60.261673 
L 300.872727 -60.261673 
L 304.254545 -60.261673 
L 307.636364 -60.261673 
L 311.018182 -60.261673 
L 314.4 -60.261673 
L 317.781818 -60.261673 
L 321.163636 -60.261673 
L 324.545455 -60.261673 
L 327.927273 -60.261673 
L 331.309091 -60.261673 
L 334.690909 -60.261673 
L 338.072727 -60.261673 
L 341.454545 -60.261673 
L 344.836364 -60.261673 
L 348.218182 -60.261673 
L 351.6 -60.261673 
L 354.981818 -60.261673 
L 358.363636 -60.261673 
L 361.745455 -60.261673 
L 365.127273 -60.261673 
L 368.509091 -60.261673 
L 371.890909 -60.261673 
L 375.272727 -60.261673 
L 378.654545 -60.261673 
L 382.036364 -60.261673 
L 385.418182 -60.261673 
L 388.8 -60.261673 
L 388.8 -72.612608 
L 388.8 -72.612608 
L 385.418182 -72.612608 
L 382.036364 -72.612608 
L 378.654545 -72.612608 
L 375.272727 -72.612608 
L 371.890909 -72.612608 
L 368.509091 -72.612608 
L 365.127273 -72.612608 
L 361.745455 -72.612608 
L 358.363636 -72.612608 
L 354.981818 -72.612608 
L 351.6 -72.612608 
L 348.218182 -72.612608 
L 344.836364 -72.612608 
L 341.454545 -72.612608 
L 338.072727 -72.612608 
L 334.690909 -72.612608 
L 331.309091 -72.612608 
L 327.927273 -72.612608 
L 324.545455 -72.612608 
L 321.163636 -72.612608 
L 317.781818 -72.612608 
L 314.4 -72.612608 
L 311.018182 -72.612608 
L 307.636364 -72.612608 
L 304.254545 -72.612608 
L 300.872727 -72.612608 
L 297.490909 -72.612608 
L 294.109091 -72.612608 
L 290.727273 -72.612608 
L 287.345455 -72.612608 
L 283.963636 -72.612608 
L 280.581818 -72.612608 
L 277.2 -72.612608 
L 273.818182 -72.612608 
L 270.436364 -72.612608 
L 267.054545 -72.612608 
L 263.672727 -72.612608 
L 260.290909 -72.612608 
L 256.909091 -72.612608 
L 253.527273 -72.612608 
L 250.145455 -72.612608 
L 246.763636 -72.612608 
L 243.381818 -72.612608 
L 240 -72.612608 
L 236.618182 -72.612608 
L 233.236364 -72.612608 
L 229.854545 -72.612608 
L 226.472727 -72.612608 
L 223.090909 -72.612608 
L 219.709091 -72.612608 
L 216.327273 -72.612608 
L 212.945455 -72.612608 
L 209.563636 -72.612608 
L 206.181818 -72.612608 
L 202.8 -72.612608 
L 199.418182 -72.612608 
L 196.036364 -72.612608 
L 192.654545 -72.612608 
L 189.272727 -72.612608 
L 185.890909 -72.612608 
L 182.509091 -72.612608 
L 179.127273 -72.612608 
L 175.745455 -72.612608 
L 172.363636 -72.612608 
L 168.981818 -72.612608 
L 165.6 -72.612608 
L 162.218182 -72.612608 
L 158.836364 -72.612608 
L 155.454545 -73.278367 
L 152.072727 -84.356202 
L 148.690909 -84.356202 
L 145.309091 -84.356202 
L 141.927273 -84.356202 
L 138.545455 -84.356202 
L 135.163636 -84.356202 
L 131.781818 -86.700125 
L 128.4 -86.700125 
L 125.018182 -86.700125 
L 121.636364 -86.700125 
L 118.254545 -86.700125 
L 114.872727 -86.971192 
L 111.490909 -86.971192 
L 108.109091 -86.971192 
L 104.727273 -86.971192 
L 101.345455 -86.971192 
L 97.963636 -86.971192 
L 94.581818 -86.971192 
L 91.2 -86.971192 
L 87.818182 -86.971192 
L 84.436364 -86.971192 
L 81.054545 -86.971192 
L 77.672727 -86.971192 
L 74.290909 -243.556364 
L 70.909091 -243.556364 
L 67.527273 -243.556364 
L 64.145455 -243.556364 
L 60.763636 -243.556364 
L 57.381818 -243.556364 
L 54 -243.556364 
z
" id="mb6a9dda9b7" style="stroke:#00bfbf;stroke-opacity:0.5;"/>
    </defs>
    <g clip-path="url(#p5202a3c3f7)">
     <use style="fill:#00bfbf;fill-opacity:0.5;stroke:#00bfbf;stroke-opacity:0.5;" x="0" xlink:href="#mb6a9dda9b7" y="288"/>
    </g>
   </g>
   <g id="PolyCollection_3">
    <defs>
     <path d="M 57.381818 -243.457291 
L 57.381818 -243.010393 
L 60.763636 -243.010393 
L 64.145455 -236.869796 
L 67.527273 -236.869796 
L 70.909091 -236.869796 
L 74.290909 -236.869796 
L 77.672727 -236.869796 
L 81.054545 -236.869796 
L 84.436364 -236.869796 
L 87.818182 -236.869796 
L 91.2 -236.869796 
L 94.581818 -236.869796 
L 97.963636 -236.869796 
L 101.345455 -236.869796 
L 104.727273 -236.869796 
L 108.109091 -236.869796 
L 111.490909 -236.869796 
L 114.872727 -236.869796 
L 118.254545 -236.869796 
L 121.636364 -236.869796 
L 125.018182 -236.869796 
L 128.4 -234.417973 
L 131.781818 -234.417973 
L 135.163636 -234.417973 
L 138.545455 -234.417973 
L 141.927273 -234.417973 
L 145.309091 -234.417973 
L 148.690909 -234.417973 
L 152.072727 -234.417973 
L 155.454545 -234.417973 
L 158.836364 -234.417973 
L 162.218182 -234.417973 
L 165.6 -234.417973 
L 168.981818 -234.417973 
L 172.363636 -234.417973 
L 175.745455 -234.133606 
L 179.127273 -234.133606 
L 182.509091 -234.133606 
L 185.890909 -234.133606 
L 189.272727 -234.133606 
L 192.654545 -233.678505 
L 196.036364 -233.678505 
L 199.418182 -231.702867 
L 202.8 -231.702867 
L 206.181818 -231.702867 
L 209.563636 -231.702867 
L 212.945455 -231.702867 
L 216.327273 -231.702867 
L 219.709091 -231.702867 
L 223.090909 -231.702867 
L 226.472727 -231.702867 
L 229.854545 -231.702867 
L 233.236364 -231.702867 
L 236.618182 -231.702867 
L 240 -231.702867 
L 243.381818 -231.702867 
L 246.763636 -231.702867 
L 250.145455 -231.702867 
L 253.527273 -231.702867 
L 256.909091 -231.702867 
L 260.290909 -231.702867 
L 263.672727 -231.702867 
L 267.054545 -99.808094 
L 270.436364 -99.808094 
L 273.818182 -99.808094 
L 277.2 -99.808094 
L 280.581818 -84.546419 
L 283.963636 -62.809997 
L 287.345455 -56.360033 
L 290.727273 -53.256298 
L 294.109091 -53.256298 
L 297.490909 -51.9776 
L 300.872727 -51.9776 
L 304.254545 -51.9776 
L 307.636364 -51.9776 
L 311.018182 -51.9776 
L 314.4 -51.9776 
L 317.781818 -51.584407 
L 321.163636 -50.627068 
L 324.545455 -50.627068 
L 327.927273 -50.627068 
L 331.309091 -49.529506 
L 334.690909 -49.529506 
L 338.072727 -49.529506 
L 341.454545 -49.529506 
L 344.836364 -49.529506 
L 348.218182 -49.529506 
L 351.6 -49.529506 
L 354.981818 -49.529506 
L 358.363636 -49.529506 
L 361.745455 -49.529506 
L 365.127273 -49.336665 
L 368.509091 -49.336665 
L 371.890909 -49.336665 
L 375.272727 -49.336665 
L 378.654545 -49.336665 
L 382.036364 -49.336665 
L 385.418182 -49.336665 
L 388.8 -49.336665 
L 388.8 -75.295456 
L 388.8 -75.295456 
L 385.418182 -75.295456 
L 382.036364 -75.295456 
L 378.654545 -75.295456 
L 375.272727 -75.295456 
L 371.890909 -75.295456 
L 368.509091 -75.295456 
L 365.127273 -75.295456 
L 361.745455 -75.295456 
L 358.363636 -75.295456 
L 354.981818 -75.295456 
L 351.6 -75.295456 
L 348.218182 -75.295456 
L 344.836364 -75.295456 
L 341.454545 -75.295456 
L 338.072727 -75.295456 
L 334.690909 -75.295456 
L 331.309091 -75.295456 
L 327.927273 -75.33112 
L 324.545455 -76.390708 
L 321.163636 -76.390708 
L 317.781818 -76.390708 
L 314.4 -76.390708 
L 311.018182 -76.390708 
L 307.636364 -76.637096 
L 304.254545 -77.574588 
L 300.872727 -78.010494 
L 297.490909 -78.010494 
L 294.109091 -78.010494 
L 290.727273 -78.010494 
L 287.345455 -78.010494 
L 283.963636 -78.010494 
L 280.581818 -89.19294 
L 277.2 -230.62038 
L 273.818182 -230.62038 
L 270.436364 -230.62038 
L 267.054545 -230.62038 
L 263.672727 -234.217998 
L 260.290909 -234.217998 
L 256.909091 -234.217998 
L 253.527273 -234.217998 
L 250.145455 -234.217998 
L 246.763636 -234.217998 
L 243.381818 -234.217998 
L 240 -234.217998 
L 236.618182 -234.217998 
L 233.236364 -234.217998 
L 229.854545 -234.217998 
L 226.472727 -234.217998 
L 223.090909 -234.217998 
L 219.709091 -234.217998 
L 216.327273 -234.217998 
L 212.945455 -235.419452 
L 209.563636 -235.419452 
L 206.181818 -235.419452 
L 202.8 -235.419452 
L 199.418182 -235.419452 
L 196.036364 -235.419452 
L 192.654545 -235.419452 
L 189.272727 -235.493545 
L 185.890909 -235.493545 
L 182.509091 -235.493545 
L 179.127273 -235.493545 
L 175.745455 -235.493545 
L 172.363636 -236.381417 
L 168.981818 -236.381417 
L 165.6 -236.381417 
L 162.218182 -236.381417 
L 158.836364 -236.381417 
L 155.454545 -236.381417 
L 152.072727 -236.381417 
L 148.690909 -236.381417 
L 145.309091 -236.381417 
L 141.927273 -237.240808 
L 138.545455 -237.240808 
L 135.163636 -237.240808 
L 131.781818 -237.240808 
L 128.4 -237.421449 
L 125.018182 -237.743832 
L 121.636364 -237.743832 
L 118.254545 -237.743832 
L 114.872727 -237.743832 
L 111.490909 -239.814188 
L 108.109091 -239.814188 
L 104.727273 -239.814188 
L 101.345455 -239.814188 
L 97.963636 -239.814188 
L 94.581818 -239.814188 
L 91.2 -239.814188 
L 87.818182 -239.814188 
L 84.436364 -239.814188 
L 81.054545 -239.814188 
L 77.672727 -239.814188 
L 74.290909 -239.814188 
L 70.909091 -239.814188 
L 67.527273 -239.814188 
L 64.145455 -239.814188 
L 60.763636 -243.457291 
L 57.381818 -243.457291 
z
" id="m4609a81846" style="stroke:#008000;stroke-opacity:0.5;"/>
    </defs>
    <g clip-path="url(#p5202a3c3f7)">
     <use style="fill:#008000;fill-opacity:0.5;stroke:#008000;stroke-opacity:0.5;" x="0" xlink:href="#m4609a81846" y="288"/>
    </g>
   </g>
   <g id="PolyCollection_4">
    <defs>
     <path d="M 57.381818 -243.479918 
L 57.381818 -242.851753 
L 60.763636 -242.851753 
L 64.145455 -59.824784 
L 67.527273 -59.824784 
L 70.909091 -59.824784 
L 74.290909 -59.824784 
L 77.672727 -59.824784 
L 81.054545 -51.046788 
L 84.436364 -51.046788 
L 87.818182 -51.046788 
L 91.2 -51.046788 
L 94.581818 -51.046788 
L 97.963636 -51.046788 
L 101.345455 -51.046788 
L 104.727273 -51.046788 
L 108.109091 -51.046788 
L 111.490909 -51.046788 
L 114.872727 -51.046788 
L 118.254545 -51.046788 
L 121.636364 -51.046788 
L 125.018182 -51.046788 
L 128.4 -51.046788 
L 131.781818 -51.046788 
L 135.163636 -51.046788 
L 138.545455 -51.046788 
L 141.927273 -51.046788 
L 145.309091 -51.046788 
L 148.690909 -45.883636 
L 152.072727 -45.883636 
L 155.454545 -45.883636 
L 158.836364 -45.883636 
L 162.218182 -45.883636 
L 165.6 -45.883636 
L 168.981818 -45.883636 
L 172.363636 -45.883636 
L 175.745455 -45.883636 
L 179.127273 -45.883636 
L 182.509091 -45.883636 
L 185.890909 -45.883636 
L 189.272727 -45.883636 
L 192.654545 -45.883636 
L 196.036364 -45.883636 
L 199.418182 -45.883636 
L 202.8 -45.883636 
L 206.181818 -45.883636 
L 209.563636 -45.883636 
L 212.945455 -45.883636 
L 216.327273 -45.883636 
L 219.709091 -45.883636 
L 223.090909 -45.883636 
L 226.472727 -45.883636 
L 229.854545 -45.883636 
L 233.236364 -45.883636 
L 236.618182 -45.883636 
L 240 -45.883636 
L 243.381818 -45.883636 
L 246.763636 -45.883636 
L 250.145455 -45.883636 
L 253.527273 -45.883636 
L 256.909091 -45.883636 
L 260.290909 -45.883636 
L 263.672727 -45.883636 
L 267.054545 -45.883636 
L 270.436364 -45.883636 
L 273.818182 -45.883636 
L 277.2 -45.883636 
L 280.581818 -45.883636 
L 283.963636 -45.883636 
L 287.345455 -45.883636 
L 290.727273 -45.883636 
L 294.109091 -45.883636 
L 297.490909 -45.883636 
L 300.872727 -45.883636 
L 304.254545 -45.883636 
L 307.636364 -45.883636 
L 311.018182 -45.883636 
L 314.4 -45.883636 
L 317.781818 -45.883636 
L 321.163636 -45.883636 
L 324.545455 -45.883636 
L 327.927273 -45.883636 
L 331.309091 -45.883636 
L 334.690909 -45.883636 
L 338.072727 -45.883636 
L 341.454545 -45.883636 
L 344.836364 -45.883636 
L 348.218182 -45.883636 
L 351.6 -45.883636 
L 354.981818 -45.883636 
L 358.363636 -45.883636 
L 361.745455 -45.883636 
L 365.127273 -45.883636 
L 368.509091 -45.883636 
L 371.890909 -45.883636 
L 375.272727 -45.883636 
L 378.654545 -45.883636 
L 382.036364 -45.883636 
L 385.418182 -45.883636 
L 388.8 -45.883636 
L 388.8 -51.046788 
L 388.8 -51.046788 
L 385.418182 -51.046788 
L 382.036364 -51.046788 
L 378.654545 -51.046788 
L 375.272727 -51.046788 
L 371.890909 -51.046788 
L 368.509091 -51.046788 
L 365.127273 -51.046788 
L 361.745455 -51.046788 
L 358.363636 -51.046788 
L 354.981818 -51.046788 
L 351.6 -51.046788 
L 348.218182 -51.046788 
L 344.836364 -51.046788 
L 341.454545 -51.046788 
L 338.072727 -51.046788 
L 334.690909 -51.046788 
L 331.309091 -51.046788 
L 327.927273 -51.046788 
L 324.545455 -51.046788 
L 321.163636 -51.046788 
L 317.781818 -51.046788 
L 314.4 -51.046788 
L 311.018182 -51.046788 
L 307.636364 -51.046788 
L 304.254545 -51.046788 
L 300.872727 -51.046788 
L 297.490909 -51.046788 
L 294.109091 -51.046788 
L 290.727273 -51.046788 
L 287.345455 -51.046788 
L 283.963636 -51.046788 
L 280.581818 -51.046788 
L 277.2 -51.046788 
L 273.818182 -51.046788 
L 270.436364 -51.046788 
L 267.054545 -51.046788 
L 263.672727 -51.046788 
L 260.290909 -51.046788 
L 256.909091 -51.046788 
L 253.527273 -51.046788 
L 250.145455 -51.046788 
L 246.763636 -51.046788 
L 243.381818 -51.046788 
L 240 -51.046788 
L 236.618182 -51.046788 
L 233.236364 -51.046788 
L 229.854545 -51.046788 
L 226.472727 -51.046788 
L 223.090909 -51.046788 
L 219.709091 -51.046788 
L 216.327273 -51.046788 
L 212.945455 -51.046788 
L 209.563636 -51.046788 
L 206.181818 -51.046788 
L 202.8 -51.046788 
L 199.418182 -51.046788 
L 196.036364 -51.046788 
L 192.654545 -51.046788 
L 189.272727 -51.046788 
L 185.890909 -51.046788 
L 182.509091 -51.046788 
L 179.127273 -51.046788 
L 175.745455 -51.046788 
L 172.363636 -51.046788 
L 168.981818 -51.046788 
L 165.6 -51.046788 
L 162.218182 -51.046788 
L 158.836364 -51.046788 
L 155.454545 -51.046788 
L 152.072727 -51.046788 
L 148.690909 -51.046788 
L 145.309091 -60.454604 
L 141.927273 -60.454604 
L 138.545455 -60.454604 
L 135.163636 -60.454604 
L 131.781818 -60.454604 
L 128.4 -60.454604 
L 125.018182 -60.454604 
L 121.636364 -60.454604 
L 118.254545 -68.931051 
L 114.872727 -68.931051 
L 111.490909 -68.931051 
L 108.109091 -73.143053 
L 104.727273 -73.143053 
L 101.345455 -73.143053 
L 97.963636 -73.143053 
L 94.581818 -73.143053 
L 91.2 -73.143053 
L 87.818182 -78.743748 
L 84.436364 -78.743748 
L 81.054545 -78.743748 
L 77.672727 -78.743748 
L 74.290909 -78.743748 
L 70.909091 -78.743748 
L 67.527273 -106.319819 
L 64.145455 -106.319819 
L 60.763636 -243.479918 
L 57.381818 -243.479918 
z
" id="m7ee70cdc55" style="stroke:#ffa500;stroke-opacity:0.5;"/>
    </defs>
    <g clip-path="url(#p5202a3c3f7)">
     <use style="fill:#ffa500;fill-opacity:0.5;stroke:#ffa500;stroke-opacity:0.5;" x="0" xlink:href="#m7ee70cdc55" y="288"/>
    </g>
   </g>
   <g id="PolyCollection_5">
    <defs>
     <path d="M 54 -118.355673 
L 54 -66.520465 
L 57.381818 -63.636301 
L 60.763636 -58.257447 
L 64.145455 -58.257447 
L 67.527273 -53.497903 
L 70.909091 -53.497903 
L 74.290909 -53.497903 
L 77.672727 -53.497903 
L 81.054545 -50.765526 
L 84.436364 -50.765526 
L 87.818182 -50.765526 
L 91.2 -50.765526 
L 94.581818 -50.765526 
L 97.963636 -50.765526 
L 101.345455 -50.765526 
L 104.727273 -50.765526 
L 108.109091 -50.765526 
L 111.490909 -50.765526 
L 114.872727 -50.765526 
L 118.254545 -50.765526 
L 121.636364 -50.765526 
L 125.018182 -50.765526 
L 128.4 -50.765526 
L 131.781818 -50.765526 
L 135.163636 -50.765526 
L 138.545455 -50.765526 
L 141.927273 -50.765526 
L 145.309091 -50.765526 
L 148.690909 -50.765526 
L 152.072727 -50.765526 
L 155.454545 -50.765526 
L 158.836364 -50.765526 
L 162.218182 -50.765526 
L 165.6 -50.765526 
L 168.981818 -50.765526 
L 172.363636 -50.765526 
L 175.745455 -50.765526 
L 179.127273 -50.765526 
L 182.509091 -50.765526 
L 185.890909 -50.765526 
L 189.272727 -50.765526 
L 192.654545 -50.765526 
L 196.036364 -50.765526 
L 199.418182 -50.765526 
L 202.8 -50.765526 
L 206.181818 -50.765526 
L 209.563636 -50.765526 
L 212.945455 -50.765526 
L 216.327273 -50.765526 
L 219.709091 -50.765526 
L 223.090909 -50.765526 
L 226.472727 -50.765526 
L 229.854545 -50.765526 
L 233.236364 -50.765526 
L 236.618182 -50.765526 
L 240 -50.765526 
L 243.381818 -50.765526 
L 246.763636 -50.765526 
L 250.145455 -50.765526 
L 253.527273 -50.765526 
L 256.909091 -50.765526 
L 260.290909 -50.765526 
L 263.672727 -50.765526 
L 267.054545 -50.765526 
L 270.436364 -50.765526 
L 273.818182 -50.765526 
L 277.2 -50.765526 
L 280.581818 -50.765526 
L 283.963636 -50.765526 
L 287.345455 -50.765526 
L 290.727273 -50.765526 
L 294.109091 -50.765526 
L 297.490909 -50.765526 
L 300.872727 -50.765526 
L 304.254545 -50.765526 
L 307.636364 -50.765526 
L 311.018182 -50.765526 
L 314.4 -50.765526 
L 317.781818 -50.765526 
L 321.163636 -50.765526 
L 324.545455 -50.765526 
L 327.927273 -50.765526 
L 331.309091 -50.765526 
L 334.690909 -50.765526 
L 338.072727 -50.765526 
L 341.454545 -50.765526 
L 344.836364 -50.765526 
L 348.218182 -50.765526 
L 351.6 -50.765526 
L 354.981818 -50.765526 
L 358.363636 -50.765526 
L 361.745455 -50.765526 
L 365.127273 -50.765526 
L 368.509091 -50.765526 
L 371.890909 -50.765526 
L 375.272727 -50.765526 
L 378.654545 -50.765526 
L 382.036364 -50.765526 
L 385.418182 -50.765526 
L 388.8 -50.765526 
L 388.8 -70.403466 
L 388.8 -70.403466 
L 385.418182 -70.403466 
L 382.036364 -70.403466 
L 378.654545 -70.403466 
L 375.272727 -70.403466 
L 371.890909 -70.403466 
L 368.509091 -70.403466 
L 365.127273 -70.403466 
L 361.745455 -70.403466 
L 358.363636 -70.403466 
L 354.981818 -70.403466 
L 351.6 -70.403466 
L 348.218182 -70.403466 
L 344.836364 -70.403466 
L 341.454545 -70.403466 
L 338.072727 -70.403466 
L 334.690909 -70.403466 
L 331.309091 -70.403466 
L 327.927273 -70.403466 
L 324.545455 -70.403466 
L 321.163636 -70.403466 
L 317.781818 -70.403466 
L 314.4 -70.403466 
L 311.018182 -70.403466 
L 307.636364 -70.403466 
L 304.254545 -70.403466 
L 300.872727 -70.403466 
L 297.490909 -70.403466 
L 294.109091 -70.403466 
L 290.727273 -70.403466 
L 287.345455 -70.403466 
L 283.963636 -70.403466 
L 280.581818 -70.403466 
L 277.2 -70.403466 
L 273.818182 -70.403466 
L 270.436364 -70.403466 
L 267.054545 -70.403466 
L 263.672727 -70.403466 
L 260.290909 -70.403466 
L 256.909091 -70.403466 
L 253.527273 -70.403466 
L 250.145455 -70.403466 
L 246.763636 -70.403466 
L 243.381818 -70.403466 
L 240 -70.403466 
L 236.618182 -70.403466 
L 233.236364 -70.403466 
L 229.854545 -70.403466 
L 226.472727 -70.403466 
L 223.090909 -70.403466 
L 219.709091 -70.403466 
L 216.327273 -70.403466 
L 212.945455 -70.403466 
L 209.563636 -70.403466 
L 206.181818 -70.403466 
L 202.8 -70.403466 
L 199.418182 -70.403466 
L 196.036364 -70.403466 
L 192.654545 -70.403466 
L 189.272727 -70.403466 
L 185.890909 -70.403466 
L 182.509091 -70.403466 
L 179.127273 -70.403466 
L 175.745455 -70.403466 
L 172.363636 -70.403466 
L 168.981818 -70.403466 
L 165.6 -70.403466 
L 162.218182 -70.403466 
L 158.836364 -70.403466 
L 155.454545 -70.403466 
L 152.072727 -70.403466 
L 148.690909 -70.403466 
L 145.309091 -70.403466 
L 141.927273 -70.403466 
L 138.545455 -70.403466 
L 135.163636 -70.403466 
L 131.781818 -70.403466 
L 128.4 -70.403466 
L 125.018182 -70.403466 
L 121.636364 -70.403466 
L 118.254545 -70.403466 
L 114.872727 -70.403466 
L 111.490909 -70.403466 
L 108.109091 -70.403466 
L 104.727273 -70.403466 
L 101.345455 -70.403466 
L 97.963636 -75.801921 
L 94.581818 -75.801921 
L 91.2 -75.801921 
L 87.818182 -75.801921 
L 84.436364 -75.801921 
L 81.054545 -75.801921 
L 77.672727 -75.801921 
L 74.290909 -75.801921 
L 70.909091 -75.801921 
L 67.527273 -75.801921 
L 64.145455 -90.207612 
L 60.763636 -90.207612 
L 57.381818 -90.207612 
L 54 -118.355673 
z
" id="m2b4e783a3b" style="stroke:#ff0000;stroke-opacity:0.5;"/>
    </defs>
    <g clip-path="url(#p5202a3c3f7)">
     <use style="fill:#ff0000;fill-opacity:0.5;stroke:#ff0000;stroke-opacity:0.5;" x="0" xlink:href="#m2b4e783a3b" y="288"/>
    </g>
   </g>
   <g id="matplotlib.axis_1">
    <g id="xtick_1">
     <g id="line2d_1">
      <defs>
       <path d="M 0 0 
L 0 3.5 
" id="m3272ccf044" style="stroke:#000000;stroke-width:0.8;"/>
      </defs>
      <g>
       <use style="stroke:#000000;stroke-width:0.8;" x="118.254545" xlink:href="#m3272ccf044" y="252"/>
      </g>
     </g>
     <g id="text_1">
      <!-- 20 -->
      <g transform="translate(110.754545 269.415625)scale(0.15 -0.15)">
       <defs>
        <path d="M 45.84375 12.75 
L 41.21875 0 
L 2.15625 0 
L 2.15625 1.8125 
Q 19.390625 17.53125 26.421875 27.484375 
Q 33.453125 37.453125 33.453125 45.703125 
Q 33.453125 52 29.59375 56.046875 
Q 25.734375 60.109375 20.359375 60.109375 
Q 15.484375 60.109375 11.59375 57.25 
Q 7.71875 54.390625 5.859375 48.875 
L 4.046875 48.875 
Q 5.28125 57.90625 10.328125 62.734375 
Q 15.375 67.578125 22.953125 67.578125 
Q 31 67.578125 36.390625 62.40625 
Q 41.796875 57.234375 41.796875 50.203125 
Q 41.796875 45.171875 39.453125 40.140625 
Q 35.84375 32.234375 27.734375 23.390625 
Q 15.578125 10.109375 12.546875 7.375 
L 29.828125 7.375 
Q 35.109375 7.375 37.234375 7.765625 
Q 39.359375 8.15625 41.0625 9.34375 
Q 42.78125 10.546875 44.046875 12.75 
z
" id="TimesNewRomanPSMT-50"/>
        <path d="M 3.609375 32.71875 
Q 3.609375 44.046875 7.03125 52.21875 
Q 10.453125 60.40625 16.109375 64.40625 
Q 20.515625 67.578125 25.203125 67.578125 
Q 32.8125 67.578125 38.875 59.8125 
Q 46.4375 50.203125 46.4375 33.734375 
Q 46.4375 22.21875 43.109375 14.15625 
Q 39.796875 6.109375 34.640625 2.46875 
Q 29.5 -1.171875 24.703125 -1.171875 
Q 15.234375 -1.171875 8.9375 10.015625 
Q 3.609375 19.4375 3.609375 32.71875 
z
M 13.1875 31.5 
Q 13.1875 17.828125 16.546875 9.1875 
Q 19.34375 1.90625 24.859375 1.90625 
Q 27.484375 1.90625 30.3125 4.265625 
Q 33.15625 6.640625 34.625 12.203125 
Q 36.859375 20.609375 36.859375 35.890625 
Q 36.859375 47.21875 34.515625 54.78125 
Q 32.765625 60.40625 29.984375 62.75 
Q 27.984375 64.359375 25.140625 64.359375 
Q 21.828125 64.359375 19.234375 61.375 
Q 15.71875 57.328125 14.453125 48.625 
Q 13.1875 39.9375 13.1875 31.5 
z
" id="TimesNewRomanPSMT-48"/>
       </defs>
       <use xlink:href="#TimesNewRomanPSMT-50"/>
       <use x="50" xlink:href="#TimesNewRomanPSMT-48"/>
      </g>
     </g>
    </g>
    <g id="xtick_2">
     <g id="line2d_2">
      <g>
       <use style="stroke:#000000;stroke-width:0.8;" x="185.890909" xlink:href="#m3272ccf044" y="252"/>
      </g>
     </g>
     <g id="text_2">
      <!-- 40 -->
      <g transform="translate(178.390909 269.415625)scale(0.15 -0.15)">
       <defs>
        <path d="M 46.53125 24.421875 
L 46.53125 17.484375 
L 37.640625 17.484375 
L 37.640625 0 
L 29.59375 0 
L 29.59375 17.484375 
L 1.5625 17.484375 
L 1.5625 23.734375 
L 32.28125 67.578125 
L 37.640625 67.578125 
L 37.640625 24.421875 
z
M 29.59375 24.421875 
L 29.59375 57.28125 
L 6.34375 24.421875 
z
" id="TimesNewRomanPSMT-52"/>
       </defs>
       <use xlink:href="#TimesNewRomanPSMT-52"/>
       <use x="50" xlink:href="#TimesNewRomanPSMT-48"/>
      </g>
     </g>
    </g>
    <g id="xtick_3">
     <g id="line2d_3">
      <g>
       <use style="stroke:#000000;stroke-width:0.8;" x="253.527273" xlink:href="#m3272ccf044" y="252"/>
      </g>
     </g>
     <g id="text_3">
      <!-- 60 -->
      <g transform="translate(246.027273 269.415625)scale(0.15 -0.15)">
       <defs>
        <path d="M 44.828125 67.578125 
L 44.828125 65.765625 
Q 38.375 65.140625 34.296875 63.203125 
Q 30.21875 61.28125 26.234375 57.328125 
Q 22.265625 53.375 19.65625 48.515625 
Q 17.046875 43.65625 15.28125 36.96875 
Q 22.3125 41.796875 29.390625 41.796875 
Q 36.1875 41.796875 41.15625 36.328125 
Q 46.140625 30.859375 46.140625 22.265625 
Q 46.140625 13.96875 41.109375 7.125 
Q 35.0625 -1.171875 25.09375 -1.171875 
Q 18.3125 -1.171875 13.578125 3.328125 
Q 4.296875 12.0625 4.296875 25.984375 
Q 4.296875 34.859375 7.859375 42.859375 
Q 11.421875 50.875 18.03125 57.078125 
Q 24.65625 63.28125 30.703125 65.421875 
Q 36.765625 67.578125 42 67.578125 
z
M 14.453125 33.40625 
Q 13.578125 26.8125 13.578125 22.75 
Q 13.578125 18.0625 15.3125 12.5625 
Q 17.046875 7.078125 20.453125 3.859375 
Q 22.953125 1.5625 26.515625 1.5625 
Q 30.765625 1.5625 34.109375 5.5625 
Q 37.453125 9.578125 37.453125 17 
Q 37.453125 25.34375 34.125 31.4375 
Q 30.8125 37.546875 24.703125 37.546875 
Q 22.859375 37.546875 20.734375 36.765625 
Q 18.609375 35.984375 14.453125 33.40625 
z
" id="TimesNewRomanPSMT-54"/>
       </defs>
       <use xlink:href="#TimesNewRomanPSMT-54"/>
       <use x="50" xlink:href="#TimesNewRomanPSMT-48"/>
      </g>
     </g>
    </g>
    <g id="xtick_4">
     <g id="line2d_4">
      <g>
       <use style="stroke:#000000;stroke-width:0.8;" x="321.163636" xlink:href="#m3272ccf044" y="252"/>
      </g>
     </g>
     <g id="text_4">
      <!-- 80 -->
      <g transform="translate(313.663636 269.415625)scale(0.15 -0.15)">
       <defs>
        <path d="M 19.1875 33.34375 
Q 11.328125 39.796875 9.046875 43.703125 
Q 6.78125 47.609375 6.78125 51.8125 
Q 6.78125 58.25 11.765625 62.90625 
Q 16.75 67.578125 25 67.578125 
Q 33.015625 67.578125 37.890625 63.234375 
Q 42.78125 58.890625 42.78125 53.328125 
Q 42.78125 49.609375 40.140625 45.75 
Q 37.5 41.890625 29.15625 36.671875 
Q 37.75 30.03125 40.53125 26.21875 
Q 44.234375 21.234375 44.234375 15.71875 
Q 44.234375 8.734375 38.90625 3.78125 
Q 33.59375 -1.171875 24.953125 -1.171875 
Q 15.53125 -1.171875 10.25 4.734375 
Q 6.0625 9.46875 6.0625 15.09375 
Q 6.0625 19.484375 9.015625 23.796875 
Q 11.96875 28.125 19.1875 33.34375 
z
M 26.859375 38.578125 
Q 32.71875 43.84375 34.28125 46.890625 
Q 35.84375 49.953125 35.84375 53.8125 
Q 35.84375 58.9375 32.953125 61.84375 
Q 30.078125 64.75 25.09375 64.75 
Q 20.125 64.75 17 61.859375 
Q 13.875 58.984375 13.875 55.125 
Q 13.875 52.59375 15.15625 50.046875 
Q 16.453125 47.515625 18.84375 45.21875 
z
M 21.484375 31.5 
Q 17.4375 28.078125 15.484375 24.046875 
Q 13.53125 20.015625 13.53125 15.328125 
Q 13.53125 9.03125 16.96875 5.25 
Q 20.40625 1.46875 25.734375 1.46875 
Q 31 1.46875 34.171875 4.4375 
Q 37.359375 7.421875 37.359375 11.671875 
Q 37.359375 15.1875 35.5 17.96875 
Q 32.03125 23.140625 21.484375 31.5 
z
" id="TimesNewRomanPSMT-56"/>
       </defs>
       <use xlink:href="#TimesNewRomanPSMT-56"/>
       <use x="50" xlink:href="#TimesNewRomanPSMT-48"/>
      </g>
     </g>
    </g>
    <g id="xtick_5">
     <g id="line2d_5">
      <g>
       <use style="stroke:#000000;stroke-width:0.8;" x="388.8" xlink:href="#m3272ccf044" y="252"/>
      </g>
     </g>
     <g id="text_5">
      <!-- 100 -->
      <g transform="translate(377.55 269.415625)scale(0.15 -0.15)">
       <defs>
        <path d="M 11.71875 59.71875 
L 27.828125 67.578125 
L 29.4375 67.578125 
L 29.4375 11.671875 
Q 29.4375 6.109375 29.90625 4.734375 
Q 30.375 3.375 31.828125 2.640625 
Q 33.296875 1.90625 37.796875 1.8125 
L 37.796875 0 
L 12.890625 0 
L 12.890625 1.8125 
Q 17.578125 1.90625 18.9375 2.609375 
Q 20.3125 3.328125 20.84375 4.515625 
Q 21.390625 5.71875 21.390625 11.671875 
L 21.390625 47.40625 
Q 21.390625 54.640625 20.90625 56.6875 
Q 20.5625 58.25 19.65625 58.984375 
Q 18.75 59.71875 17.484375 59.71875 
Q 15.671875 59.71875 12.453125 58.203125 
z
" id="TimesNewRomanPSMT-49"/>
       </defs>
       <use xlink:href="#TimesNewRomanPSMT-49"/>
       <use x="50" xlink:href="#TimesNewRomanPSMT-48"/>
       <use x="100" xlink:href="#TimesNewRomanPSMT-48"/>
      </g>
     </g>
    </g>
    <g id="text_6">
     <!-- Nbr. of function evaluations -->
     <g transform="translate(137.25 287.039844)scale(0.15 -0.15)">
      <defs>
       <path d="M -1.3125 66.21875 
L 16.65625 66.21875 
L 57.125 16.546875 
L 57.125 54.734375 
Q 57.125 60.84375 55.765625 62.359375 
Q 53.953125 64.40625 50.046875 64.40625 
L 47.75 64.40625 
L 47.75 66.21875 
L 70.796875 66.21875 
L 70.796875 64.40625 
L 68.453125 64.40625 
Q 64.265625 64.40625 62.5 61.859375 
Q 61.421875 60.296875 61.421875 54.734375 
L 61.421875 -1.078125 
L 59.671875 -1.078125 
L 16.015625 52.25 
L 16.015625 11.46875 
Q 16.015625 5.375 17.328125 3.859375 
Q 19.1875 1.8125 23.046875 1.8125 
L 25.390625 1.8125 
L 25.390625 0 
L 2.34375 0 
L 2.34375 1.8125 
L 4.640625 1.8125 
Q 8.890625 1.8125 10.640625 4.34375 
Q 11.71875 5.90625 11.71875 11.46875 
L 11.71875 57.515625 
Q 8.84375 60.890625 7.34375 61.953125 
Q 5.859375 63.03125 2.984375 63.96875 
Q 1.5625 64.40625 -1.3125 64.40625 
z
" id="TimesNewRomanPSMT-78"/>
       <path d="M 15.375 37.015625 
Q 21.875 46.046875 29.390625 46.046875 
Q 36.28125 46.046875 41.40625 40.15625 
Q 46.53125 34.28125 46.53125 24.078125 
Q 46.53125 12.15625 38.625 4.890625 
Q 31.84375 -1.375 23.484375 -1.375 
Q 19.578125 -1.375 15.546875 0.046875 
Q 11.53125 1.46875 7.328125 4.296875 
L 7.328125 50.640625 
Q 7.328125 58.25 6.953125 60 
Q 6.59375 61.765625 5.8125 62.390625 
Q 5.03125 63.03125 3.859375 63.03125 
Q 2.484375 63.03125 0.4375 62.25 
L -0.25 63.96875 
L 13.1875 69.4375 
L 15.375 69.4375 
z
M 15.375 33.890625 
L 15.375 7.125 
Q 17.875 4.6875 20.53125 3.4375 
Q 23.1875 2.203125 25.984375 2.203125 
Q 30.421875 2.203125 34.25 7.078125 
Q 38.09375 11.96875 38.09375 21.296875 
Q 38.09375 29.890625 34.25 34.5 
Q 30.421875 39.109375 25.53125 39.109375 
Q 22.953125 39.109375 20.359375 37.796875 
Q 18.40625 36.8125 15.375 33.890625 
z
" id="TimesNewRomanPSMT-98"/>
       <path d="M 16.21875 46.046875 
L 16.21875 35.984375 
Q 21.828125 46.046875 27.734375 46.046875 
Q 30.421875 46.046875 32.171875 44.40625 
Q 33.9375 42.78125 33.9375 40.625 
Q 33.9375 38.71875 32.65625 37.390625 
Q 31.390625 36.078125 29.640625 36.078125 
Q 27.9375 36.078125 25.8125 37.765625 
Q 23.6875 39.453125 22.65625 39.453125 
Q 21.78125 39.453125 20.75 38.484375 
Q 18.5625 36.46875 16.21875 31.890625 
L 16.21875 10.453125 
Q 16.21875 6.734375 17.140625 4.828125 
Q 17.78125 3.515625 19.390625 2.640625 
Q 21 1.765625 24.03125 1.765625 
L 24.03125 0 
L 1.125 0 
L 1.125 1.765625 
Q 4.546875 1.765625 6.203125 2.828125 
Q 7.421875 3.609375 7.90625 5.328125 
Q 8.15625 6.15625 8.15625 10.0625 
L 8.15625 27.390625 
Q 8.15625 35.203125 7.828125 36.6875 
Q 7.515625 38.1875 6.65625 38.859375 
Q 5.8125 39.546875 4.546875 39.546875 
Q 3.03125 39.546875 1.125 38.8125 
L 0.640625 40.578125 
L 14.15625 46.046875 
z
" id="TimesNewRomanPSMT-114"/>
       <path d="M 12.5 9.46875 
Q 14.796875 9.46875 16.359375 7.875 
Q 17.921875 6.296875 17.921875 4.046875 
Q 17.921875 1.8125 16.328125 0.21875 
Q 14.75 -1.375 12.5 -1.375 
Q 10.25 -1.375 8.65625 0.21875 
Q 7.078125 1.8125 7.078125 4.046875 
Q 7.078125 6.34375 8.65625 7.90625 
Q 10.25 9.46875 12.5 9.46875 
z
" id="TimesNewRomanPSMT-46"/>
       <path id="TimesNewRomanPSMT-32"/>
       <path d="M 25 46.046875 
Q 35.15625 46.046875 41.3125 38.328125 
Q 46.53125 31.734375 46.53125 23.1875 
Q 46.53125 17.1875 43.640625 11.03125 
Q 40.765625 4.890625 35.71875 1.75 
Q 30.671875 -1.375 24.46875 -1.375 
Q 14.359375 -1.375 8.40625 6.6875 
Q 3.375 13.484375 3.375 21.921875 
Q 3.375 28.078125 6.421875 34.15625 
Q 9.46875 40.234375 14.453125 43.140625 
Q 19.4375 46.046875 25 46.046875 
z
M 23.484375 42.875 
Q 20.90625 42.875 18.28125 41.328125 
Q 15.671875 39.796875 14.0625 35.9375 
Q 12.453125 32.078125 12.453125 26.03125 
Q 12.453125 16.265625 16.328125 9.171875 
Q 20.21875 2.09375 26.5625 2.09375 
Q 31.296875 2.09375 34.375 6 
Q 37.453125 9.90625 37.453125 19.4375 
Q 37.453125 31.34375 32.328125 38.1875 
Q 28.859375 42.875 23.484375 42.875 
z
" id="TimesNewRomanPSMT-111"/>
       <path d="M 20.609375 41.21875 
L 20.609375 11.8125 
Q 20.609375 5.5625 21.96875 3.90625 
Q 23.78125 1.765625 26.8125 1.765625 
L 30.859375 1.765625 
L 30.859375 0 
L 4.15625 0 
L 4.15625 1.765625 
L 6.15625 1.765625 
Q 8.109375 1.765625 9.71875 2.734375 
Q 11.328125 3.71875 11.9375 5.375 
Q 12.546875 7.03125 12.546875 11.8125 
L 12.546875 41.21875 
L 3.859375 41.21875 
L 3.859375 44.734375 
L 12.546875 44.734375 
L 12.546875 47.65625 
Q 12.546875 54.34375 14.6875 58.984375 
Q 16.84375 63.625 21.265625 66.484375 
Q 25.6875 69.34375 31.203125 69.34375 
Q 36.328125 69.34375 40.625 66.015625 
Q 43.453125 63.8125 43.453125 61.078125 
Q 43.453125 59.625 42.1875 58.328125 
Q 40.921875 57.03125 39.453125 57.03125 
Q 38.328125 57.03125 37.078125 57.828125 
Q 35.84375 58.640625 34.03125 61.296875 
Q 32.234375 63.96875 30.71875 64.890625 
Q 29.203125 65.828125 27.34375 65.828125 
Q 25.09375 65.828125 23.53125 64.625 
Q 21.96875 63.421875 21.28125 60.90625 
Q 20.609375 58.40625 20.609375 47.953125 
L 20.609375 44.734375 
L 32.125 44.734375 
L 32.125 41.21875 
z
" id="TimesNewRomanPSMT-102"/>
       <path d="M 42.328125 44.734375 
L 42.328125 17.625 
Q 42.328125 9.859375 42.6875 8.125 
Q 43.0625 6.390625 43.859375 5.703125 
Q 44.671875 5.03125 45.75 5.03125 
Q 47.265625 5.03125 49.171875 5.859375 
L 49.859375 4.15625 
L 36.46875 -1.375 
L 34.28125 -1.375 
L 34.28125 8.109375 
Q 28.515625 1.859375 25.484375 0.234375 
Q 22.46875 -1.375 19.09375 -1.375 
Q 15.328125 -1.375 12.5625 0.796875 
Q 9.8125 2.984375 8.734375 6.390625 
Q 7.671875 9.8125 7.671875 16.0625 
L 7.671875 36.03125 
Q 7.671875 39.203125 6.984375 40.421875 
Q 6.296875 41.65625 4.953125 42.3125 
Q 3.609375 42.96875 0.09375 42.921875 
L 0.09375 44.734375 
L 15.765625 44.734375 
L 15.765625 14.796875 
Q 15.765625 8.546875 17.9375 6.59375 
Q 20.125 4.640625 23.1875 4.640625 
Q 25.296875 4.640625 27.953125 5.953125 
Q 30.609375 7.28125 34.28125 10.984375 
L 34.28125 36.328125 
Q 34.28125 40.140625 32.890625 41.484375 
Q 31.5 42.828125 27.09375 42.921875 
L 27.09375 44.734375 
z
" id="TimesNewRomanPSMT-117"/>
       <path d="M 16.15625 36.578125 
Q 24.03125 46.046875 31.15625 46.046875 
Q 34.8125 46.046875 37.453125 44.21875 
Q 40.09375 42.390625 41.65625 38.1875 
Q 42.71875 35.25 42.71875 29.203125 
L 42.71875 10.109375 
Q 42.71875 5.859375 43.40625 4.34375 
Q 43.953125 3.125 45.140625 2.4375 
Q 46.34375 1.765625 49.5625 1.765625 
L 49.5625 0 
L 27.4375 0 
L 27.4375 1.765625 
L 28.375 1.765625 
Q 31.5 1.765625 32.734375 2.703125 
Q 33.984375 3.65625 34.46875 5.515625 
Q 34.671875 6.25 34.671875 10.109375 
L 34.671875 28.421875 
Q 34.671875 34.515625 33.078125 37.28125 
Q 31.5 40.046875 27.734375 40.046875 
Q 21.921875 40.046875 16.15625 33.6875 
L 16.15625 10.109375 
Q 16.15625 5.5625 16.703125 4.5 
Q 17.390625 3.078125 18.578125 2.421875 
Q 19.78125 1.765625 23.4375 1.765625 
L 23.4375 0 
L 1.3125 0 
L 1.3125 1.765625 
L 2.296875 1.765625 
Q 5.71875 1.765625 6.90625 3.484375 
Q 8.109375 5.21875 8.109375 10.109375 
L 8.109375 26.703125 
Q 8.109375 34.765625 7.734375 36.515625 
Q 7.375 38.28125 6.609375 38.90625 
Q 5.859375 39.546875 4.59375 39.546875 
Q 3.21875 39.546875 1.3125 38.8125 
L 0.59375 40.578125 
L 14.0625 46.046875 
L 16.15625 46.046875 
z
" id="TimesNewRomanPSMT-110"/>
       <path d="M 41.109375 17 
Q 39.3125 8.15625 34.03125 3.390625 
Q 28.765625 -1.375 22.359375 -1.375 
Q 14.75 -1.375 9.078125 5.015625 
Q 3.421875 11.421875 3.421875 22.3125 
Q 3.421875 32.859375 9.6875 39.453125 
Q 15.96875 46.046875 24.75 46.046875 
Q 31.34375 46.046875 35.59375 42.546875 
Q 39.84375 39.0625 39.84375 35.296875 
Q 39.84375 33.453125 38.640625 32.296875 
Q 37.453125 31.15625 35.296875 31.15625 
Q 32.421875 31.15625 30.953125 33.015625 
Q 30.125 34.03125 29.859375 36.90625 
Q 29.59375 39.796875 27.875 41.3125 
Q 26.171875 42.78125 23.140625 42.78125 
Q 18.265625 42.78125 15.28125 39.15625 
Q 11.328125 34.375 11.328125 26.515625 
Q 11.328125 18.5 15.25 12.375 
Q 19.1875 6.25 25.875 6.25 
Q 30.671875 6.25 34.46875 9.515625 
Q 37.15625 11.765625 39.703125 17.671875 
z
" id="TimesNewRomanPSMT-99"/>
       <path d="M 16.109375 59.421875 
L 16.109375 44.734375 
L 26.5625 44.734375 
L 26.5625 41.3125 
L 16.109375 41.3125 
L 16.109375 12.3125 
Q 16.109375 7.953125 17.359375 6.4375 
Q 18.609375 4.9375 20.5625 4.9375 
Q 22.171875 4.9375 23.6875 5.9375 
Q 25.203125 6.9375 26.03125 8.890625 
L 27.9375 8.890625 
Q 26.21875 4.109375 23.09375 1.6875 
Q 19.96875 -0.734375 16.65625 -0.734375 
Q 14.40625 -0.734375 12.25 0.515625 
Q 10.109375 1.765625 9.078125 4.078125 
Q 8.0625 6.390625 8.0625 11.234375 
L 8.0625 41.3125 
L 0.984375 41.3125 
L 0.984375 42.921875 
Q 3.65625 44 6.46875 46.5625 
Q 9.28125 49.125 11.46875 52.640625 
Q 12.59375 54.5 14.59375 59.421875 
z
" id="TimesNewRomanPSMT-116"/>
       <path d="M 14.5 69.4375 
Q 16.546875 69.4375 17.984375 67.984375 
Q 19.4375 66.546875 19.4375 64.5 
Q 19.4375 62.453125 17.984375 60.984375 
Q 16.546875 59.515625 14.5 59.515625 
Q 12.453125 59.515625 10.984375 60.984375 
Q 9.515625 62.453125 9.515625 64.5 
Q 9.515625 66.546875 10.953125 67.984375 
Q 12.40625 69.4375 14.5 69.4375 
z
M 18.5625 46.046875 
L 18.5625 10.109375 
Q 18.5625 5.90625 19.171875 4.515625 
Q 19.78125 3.125 20.96875 2.4375 
Q 22.171875 1.765625 25.34375 1.765625 
L 25.34375 0 
L 3.609375 0 
L 3.609375 1.765625 
Q 6.890625 1.765625 8 2.390625 
Q 9.125 3.03125 9.78125 4.484375 
Q 10.453125 5.953125 10.453125 10.109375 
L 10.453125 27.34375 
Q 10.453125 34.625 10.015625 36.765625 
Q 9.671875 38.328125 8.9375 38.9375 
Q 8.203125 39.546875 6.9375 39.546875 
Q 5.5625 39.546875 3.609375 38.8125 
L 2.9375 40.578125 
L 16.40625 46.046875 
z
" id="TimesNewRomanPSMT-105"/>
       <path d="M 10.640625 27.875 
Q 10.59375 17.921875 15.484375 12.25 
Q 20.359375 6.59375 26.953125 6.59375 
Q 31.34375 6.59375 34.59375 9 
Q 37.84375 11.421875 40.046875 17.28125 
L 41.546875 16.3125 
Q 40.53125 9.625 35.59375 4.125 
Q 30.671875 -1.375 23.25 -1.375 
Q 15.1875 -1.375 9.453125 4.90625 
Q 3.71875 11.1875 3.71875 21.78125 
Q 3.71875 33.25 9.59375 39.671875 
Q 15.484375 46.09375 24.359375 46.09375 
Q 31.890625 46.09375 36.71875 41.140625 
Q 41.546875 36.1875 41.546875 27.875 
z
M 10.640625 30.71875 
L 31.34375 30.71875 
Q 31.109375 35.015625 30.328125 36.765625 
Q 29.109375 39.5 26.6875 41.0625 
Q 24.265625 42.625 21.625 42.625 
Q 17.578125 42.625 14.375 39.46875 
Q 11.1875 36.328125 10.640625 30.71875 
z
" id="TimesNewRomanPSMT-101"/>
       <path d="M 0.828125 44.734375 
L 21.875 44.734375 
L 21.875 42.921875 
L 20.515625 42.921875 
Q 18.609375 42.921875 17.609375 41.984375 
Q 16.609375 41.0625 16.609375 39.5 
Q 16.609375 37.796875 17.625 35.453125 
L 28.03125 10.75 
L 38.484375 36.375 
Q 39.59375 39.109375 39.59375 40.53125 
Q 39.59375 41.21875 39.203125 41.65625 
Q 38.671875 42.390625 37.84375 42.65625 
Q 37.015625 42.921875 34.46875 42.921875 
L 34.46875 44.734375 
L 49.078125 44.734375 
L 49.078125 42.921875 
Q 46.53125 42.71875 45.5625 41.890625 
Q 43.84375 40.4375 42.484375 37.015625 
L 26.609375 -1.375 
L 24.609375 -1.375 
L 8.640625 36.375 
Q 7.5625 39.015625 6.578125 40.15625 
Q 5.609375 41.3125 4.109375 42.09375 
Q 3.265625 42.53125 0.828125 42.921875 
z
" id="TimesNewRomanPSMT-118"/>
       <path d="M 28.46875 6.453125 
Q 21.578125 1.125 19.828125 0.296875 
Q 17.1875 -0.921875 14.203125 -0.921875 
Q 9.578125 -0.921875 6.5625 2.25 
Q 3.5625 5.421875 3.5625 10.59375 
Q 3.5625 13.875 5.03125 16.265625 
Q 7.03125 19.578125 11.984375 22.5 
Q 16.9375 25.4375 28.46875 29.640625 
L 28.46875 31.390625 
Q 28.46875 38.09375 26.34375 40.578125 
Q 24.21875 43.0625 20.171875 43.0625 
Q 17.09375 43.0625 15.28125 41.40625 
Q 13.421875 39.75 13.421875 37.59375 
L 13.53125 34.765625 
Q 13.53125 32.515625 12.375 31.296875 
Q 11.234375 30.078125 9.375 30.078125 
Q 7.5625 30.078125 6.421875 31.34375 
Q 5.28125 32.625 5.28125 34.8125 
Q 5.28125 39.015625 9.578125 42.53125 
Q 13.875 46.046875 21.625 46.046875 
Q 27.59375 46.046875 31.390625 44.046875 
Q 34.28125 42.53125 35.640625 39.3125 
Q 36.53125 37.203125 36.53125 30.71875 
L 36.53125 15.53125 
Q 36.53125 9.125 36.765625 7.6875 
Q 37.015625 6.25 37.578125 5.765625 
Q 38.140625 5.28125 38.875 5.28125 
Q 39.65625 5.28125 40.234375 5.609375 
Q 41.265625 6.25 44.1875 9.1875 
L 44.1875 6.453125 
Q 38.71875 -0.875 33.734375 -0.875 
Q 31.34375 -0.875 29.921875 0.78125 
Q 28.515625 2.4375 28.46875 6.453125 
z
M 28.46875 9.625 
L 28.46875 26.65625 
Q 21.09375 23.734375 18.953125 22.515625 
Q 15.09375 20.359375 13.421875 18.015625 
Q 11.765625 15.671875 11.765625 12.890625 
Q 11.765625 9.375 13.859375 7.046875 
Q 15.96875 4.734375 18.703125 4.734375 
Q 22.40625 4.734375 28.46875 9.625 
z
" id="TimesNewRomanPSMT-97"/>
       <path d="M 18.5 69.4375 
L 18.5 10.109375 
Q 18.5 5.90625 19.109375 4.53125 
Q 19.734375 3.171875 21 2.46875 
Q 22.265625 1.765625 25.734375 1.765625 
L 25.734375 0 
L 3.8125 0 
L 3.8125 1.765625 
Q 6.890625 1.765625 8 2.390625 
Q 9.125 3.03125 9.765625 4.484375 
Q 10.40625 5.953125 10.40625 10.109375 
L 10.40625 50.734375 
Q 10.40625 58.296875 10.0625 60.03125 
Q 9.71875 61.765625 8.953125 62.390625 
Q 8.203125 63.03125 7.03125 63.03125 
Q 5.765625 63.03125 3.8125 62.25 
L 2.984375 63.96875 
L 16.3125 69.4375 
z
" id="TimesNewRomanPSMT-108"/>
       <path d="M 32.03125 46.046875 
L 32.03125 30.8125 
L 30.421875 30.8125 
Q 28.5625 37.984375 25.65625 40.578125 
Q 22.75 43.171875 18.265625 43.171875 
Q 14.84375 43.171875 12.734375 41.359375 
Q 10.640625 39.546875 10.640625 37.359375 
Q 10.640625 34.625 12.203125 32.671875 
Q 13.71875 30.671875 18.359375 28.421875 
L 25.484375 24.953125 
Q 35.40625 20.125 35.40625 12.203125 
Q 35.40625 6.109375 30.78125 2.359375 
Q 26.171875 -1.375 20.453125 -1.375 
Q 16.359375 -1.375 11.078125 0.09375 
Q 9.46875 0.59375 8.453125 0.59375 
Q 7.328125 0.59375 6.6875 -0.6875 
L 5.078125 -0.6875 
L 5.078125 15.28125 
L 6.6875 15.28125 
Q 8.0625 8.453125 11.90625 4.984375 
Q 15.765625 1.515625 20.5625 1.515625 
Q 23.921875 1.515625 26.046875 3.484375 
Q 28.171875 5.46875 28.171875 8.25 
Q 28.171875 11.625 25.796875 13.921875 
Q 23.4375 16.21875 16.359375 19.734375 
Q 9.28125 23.25 7.078125 26.078125 
Q 4.890625 28.859375 4.890625 33.109375 
Q 4.890625 38.625 8.671875 42.328125 
Q 12.453125 46.046875 18.453125 46.046875 
Q 21.09375 46.046875 24.859375 44.921875 
Q 27.34375 44.1875 28.171875 44.1875 
Q 28.953125 44.1875 29.390625 44.53125 
Q 29.828125 44.875 30.421875 46.046875 
z
" id="TimesNewRomanPSMT-115"/>
      </defs>
      <use xlink:href="#TimesNewRomanPSMT-78"/>
      <use x="72.216797" xlink:href="#TimesNewRomanPSMT-98"/>
      <use x="122.216797" xlink:href="#TimesNewRomanPSMT-114"/>
      <use x="150.017578" xlink:href="#TimesNewRomanPSMT-46"/>
      <use x="175.017578" xlink:href="#TimesNewRomanPSMT-32"/>
      <use x="200.017578" xlink:href="#TimesNewRomanPSMT-111"/>
      <use x="250.017578" xlink:href="#TimesNewRomanPSMT-102"/>
      <use x="283.318359" xlink:href="#TimesNewRomanPSMT-32"/>
      <use x="308.318359" xlink:href="#TimesNewRomanPSMT-102"/>
      <use x="341.619141" xlink:href="#TimesNewRomanPSMT-117"/>
      <use x="391.619141" xlink:href="#TimesNewRomanPSMT-110"/>
      <use x="441.619141" xlink:href="#TimesNewRomanPSMT-99"/>
      <use x="486.003906" xlink:href="#TimesNewRomanPSMT-116"/>
      <use x="513.787109" xlink:href="#TimesNewRomanPSMT-105"/>
      <use x="541.570312" xlink:href="#TimesNewRomanPSMT-111"/>
      <use x="591.570312" xlink:href="#TimesNewRomanPSMT-110"/>
      <use x="641.570312" xlink:href="#TimesNewRomanPSMT-32"/>
      <use x="666.570312" xlink:href="#TimesNewRomanPSMT-101"/>
      <use x="710.955078" xlink:href="#TimesNewRomanPSMT-118"/>
      <use x="760.955078" xlink:href="#TimesNewRomanPSMT-97"/>
      <use x="805.339844" xlink:href="#TimesNewRomanPSMT-108"/>
      <use x="833.123047" xlink:href="#TimesNewRomanPSMT-117"/>
      <use x="883.123047" xlink:href="#TimesNewRomanPSMT-97"/>
      <use x="927.507812" xlink:href="#TimesNewRomanPSMT-116"/>
      <use x="955.291016" xlink:href="#TimesNewRomanPSMT-105"/>
      <use x="983.074219" xlink:href="#TimesNewRomanPSMT-111"/>
      <use x="1033.074219" xlink:href="#TimesNewRomanPSMT-110"/>
      <use x="1083.074219" xlink:href="#TimesNewRomanPSMT-115"/>
     </g>
    </g>
   </g>
   <g id="matplotlib.axis_2">
    <g id="ytick_1">
     <g id="line2d_6">
      <defs>
       <path d="M 0 0 
L -3.5 0 
" id="m6578872c7e" style="stroke:#000000;stroke-width:0.8;"/>
      </defs>
      <g>
       <use style="stroke:#000000;stroke-width:0.8;" x="54" xlink:href="#m6578872c7e" y="250.953405"/>
      </g>
     </g>
     <g id="text_7">
      <!-- $\mathdefault{10^{0}}$ -->
      <g transform="translate(25.85 257.599108)scale(0.15 -0.15)">
       <use transform="translate(0 0.582813)" xlink:href="#TimesNewRomanPSMT-49"/>
       <use transform="translate(50 0.582813)" xlink:href="#TimesNewRomanPSMT-48"/>
       <use transform="translate(101.502813 60.695312)scale(0.7)" xlink:href="#TimesNewRomanPSMT-48"/>
      </g>
     </g>
    </g>
    <g id="ytick_2">
     <g id="line2d_7">
      <g>
       <use style="stroke:#000000;stroke-width:0.8;" x="54" xlink:href="#m6578872c7e" y="152.217333"/>
      </g>
     </g>
     <g id="text_8">
      <!-- $\mathdefault{10^{1}}$ -->
      <g transform="translate(25.85 158.863036)scale(0.15 -0.15)">
       <use transform="translate(0 0.582813)" xlink:href="#TimesNewRomanPSMT-49"/>
       <use transform="translate(50 0.582813)" xlink:href="#TimesNewRomanPSMT-48"/>
       <use transform="translate(101.502813 60.695312)scale(0.7)" xlink:href="#TimesNewRomanPSMT-49"/>
      </g>
     </g>
    </g>
    <g id="ytick_3">
     <g id="line2d_8">
      <g>
       <use style="stroke:#000000;stroke-width:0.8;" x="54" xlink:href="#m6578872c7e" y="53.481261"/>
      </g>
     </g>
     <g id="text_9">
      <!-- $\mathdefault{10^{2}}$ -->
      <g transform="translate(25.85 60.126964)scale(0.15 -0.15)">
       <use transform="translate(0 0.582813)" xlink:href="#TimesNewRomanPSMT-49"/>
       <use transform="translate(50 0.582813)" xlink:href="#TimesNewRomanPSMT-48"/>
       <use transform="translate(101.502813 60.695312)scale(0.7)" xlink:href="#TimesNewRomanPSMT-50"/>
      </g>
     </g>
    </g>
    <g id="ytick_4">
     <g id="line2d_9">
      <defs>
       <path d="M 0 0 
L -2 0 
" id="m9eaac5e7d9" style="stroke:#000000;stroke-width:0.6;"/>
      </defs>
      <g>
       <use style="stroke:#000000;stroke-width:0.6;" x="54" xlink:href="#m9eaac5e7d9" y="221.230885"/>
      </g>
     </g>
    </g>
    <g id="ytick_5">
     <g id="line2d_10">
      <g>
       <use style="stroke:#000000;stroke-width:0.6;" x="54" xlink:href="#m9eaac5e7d9" y="203.844326"/>
      </g>
     </g>
    </g>
    <g id="ytick_6">
     <g id="line2d_11">
      <g>
       <use style="stroke:#000000;stroke-width:0.6;" x="54" xlink:href="#m9eaac5e7d9" y="191.508366"/>
      </g>
     </g>
    </g>
    <g id="ytick_7">
     <g id="line2d_12">
      <g>
       <use style="stroke:#000000;stroke-width:0.6;" x="54" xlink:href="#m9eaac5e7d9" y="181.939852"/>
      </g>
     </g>
    </g>
    <g id="ytick_8">
     <g id="line2d_13">
      <g>
       <use style="stroke:#000000;stroke-width:0.6;" x="54" xlink:href="#m9eaac5e7d9" y="174.121807"/>
      </g>
     </g>
    </g>
    <g id="ytick_9">
     <g id="line2d_14">
      <g>
       <use style="stroke:#000000;stroke-width:0.6;" x="54" xlink:href="#m9eaac5e7d9" y="167.511744"/>
      </g>
     </g>
    </g>
    <g id="ytick_10">
     <g id="line2d_15">
      <g>
       <use style="stroke:#000000;stroke-width:0.6;" x="54" xlink:href="#m9eaac5e7d9" y="161.785847"/>
      </g>
     </g>
    </g>
    <g id="ytick_11">
     <g id="line2d_16">
      <g>
       <use style="stroke:#000000;stroke-width:0.6;" x="54" xlink:href="#m9eaac5e7d9" y="156.735248"/>
      </g>
     </g>
    </g>
    <g id="ytick_12">
     <g id="line2d_17">
      <g>
       <use style="stroke:#000000;stroke-width:0.6;" x="54" xlink:href="#m9eaac5e7d9" y="122.494813"/>
      </g>
     </g>
    </g>
    <g id="ytick_13">
     <g id="line2d_18">
      <g>
       <use style="stroke:#000000;stroke-width:0.6;" x="54" xlink:href="#m9eaac5e7d9" y="105.108254"/>
      </g>
     </g>
    </g>
    <g id="ytick_14">
     <g id="line2d_19">
      <g>
       <use style="stroke:#000000;stroke-width:0.6;" x="54" xlink:href="#m9eaac5e7d9" y="92.772294"/>
      </g>
     </g>
    </g>
    <g id="ytick_15">
     <g id="line2d_20">
      <g>
       <use style="stroke:#000000;stroke-width:0.6;" x="54" xlink:href="#m9eaac5e7d9" y="83.20378"/>
      </g>
     </g>
    </g>
    <g id="ytick_16">
     <g id="line2d_21">
      <g>
       <use style="stroke:#000000;stroke-width:0.6;" x="54" xlink:href="#m9eaac5e7d9" y="75.385735"/>
      </g>
     </g>
    </g>
    <g id="ytick_17">
     <g id="line2d_22">
      <g>
       <use style="stroke:#000000;stroke-width:0.6;" x="54" xlink:href="#m9eaac5e7d9" y="68.775672"/>
      </g>
     </g>
    </g>
    <g id="ytick_18">
     <g id="line2d_23">
      <g>
       <use style="stroke:#000000;stroke-width:0.6;" x="54" xlink:href="#m9eaac5e7d9" y="63.049775"/>
      </g>
     </g>
    </g>
    <g id="ytick_19">
     <g id="line2d_24">
      <g>
       <use style="stroke:#000000;stroke-width:0.6;" x="54" xlink:href="#m9eaac5e7d9" y="57.999176"/>
      </g>
     </g>
    </g>
    <g id="text_10">
     <!-- Best function evaluation -->
     <g transform="translate(18.641406 216.597188)rotate(-90)scale(0.15 -0.15)">
      <defs>
       <path d="M 46.1875 33.796875 
Q 53.078125 32.328125 56.5 29.109375 
Q 61.234375 24.609375 61.234375 18.109375 
Q 61.234375 13.1875 58.109375 8.671875 
Q 54.984375 4.15625 49.53125 2.078125 
Q 44.09375 0 32.90625 0 
L 1.65625 0 
L 1.65625 1.8125 
L 4.15625 1.8125 
Q 8.296875 1.8125 10.109375 4.4375 
Q 11.234375 6.15625 11.234375 11.71875 
L 11.234375 54.5 
Q 11.234375 60.640625 9.8125 62.25 
Q 7.90625 64.40625 4.15625 64.40625 
L 1.65625 64.40625 
L 1.65625 66.21875 
L 30.28125 66.21875 
Q 38.28125 66.21875 43.109375 65.046875 
Q 50.4375 63.28125 54.296875 58.8125 
Q 58.15625 54.34375 58.15625 48.53125 
Q 58.15625 43.5625 55.125 39.625 
Q 52.09375 35.6875 46.1875 33.796875 
z
M 20.609375 36.421875 
Q 22.40625 36.078125 24.71875 35.90625 
Q 27.046875 35.75 29.828125 35.75 
Q 36.96875 35.75 40.546875 37.28125 
Q 44.140625 38.8125 46.046875 41.984375 
Q 47.953125 45.171875 47.953125 48.921875 
Q 47.953125 54.734375 43.21875 58.828125 
Q 38.484375 62.9375 29.390625 62.9375 
Q 24.515625 62.9375 20.609375 61.859375 
z
M 20.609375 4.78125 
Q 26.265625 3.46875 31.78125 3.46875 
Q 40.625 3.46875 45.265625 7.4375 
Q 49.90625 11.421875 49.90625 17.28125 
Q 49.90625 21.140625 47.796875 24.703125 
Q 45.703125 28.265625 40.96875 30.3125 
Q 36.234375 32.375 29.25 32.375 
Q 26.21875 32.375 24.0625 32.265625 
Q 21.921875 32.171875 20.609375 31.9375 
z
" id="TimesNewRomanPSMT-66"/>
      </defs>
      <use xlink:href="#TimesNewRomanPSMT-66"/>
      <use x="66.699219" xlink:href="#TimesNewRomanPSMT-101"/>
      <use x="111.083984" xlink:href="#TimesNewRomanPSMT-115"/>
      <use x="150" xlink:href="#TimesNewRomanPSMT-116"/>
      <use x="177.783203" xlink:href="#TimesNewRomanPSMT-32"/>
      <use x="202.783203" xlink:href="#TimesNewRomanPSMT-102"/>
      <use x="236.083984" xlink:href="#TimesNewRomanPSMT-117"/>
      <use x="286.083984" xlink:href="#TimesNewRomanPSMT-110"/>
      <use x="336.083984" xlink:href="#TimesNewRomanPSMT-99"/>
      <use x="380.46875" xlink:href="#TimesNewRomanPSMT-116"/>
      <use x="408.251953" xlink:href="#TimesNewRomanPSMT-105"/>
      <use x="436.035156" xlink:href="#TimesNewRomanPSMT-111"/>
      <use x="486.035156" xlink:href="#TimesNewRomanPSMT-110"/>
      <use x="536.035156" xlink:href="#TimesNewRomanPSMT-32"/>
      <use x="561.035156" xlink:href="#TimesNewRomanPSMT-101"/>
      <use x="605.419922" xlink:href="#TimesNewRomanPSMT-118"/>
      <use x="655.419922" xlink:href="#TimesNewRomanPSMT-97"/>
      <use x="699.804688" xlink:href="#TimesNewRomanPSMT-108"/>
      <use x="727.587891" xlink:href="#TimesNewRomanPSMT-117"/>
      <use x="777.587891" xlink:href="#TimesNewRomanPSMT-97"/>
      <use x="821.972656" xlink:href="#TimesNewRomanPSMT-116"/>
      <use x="849.755859" xlink:href="#TimesNewRomanPSMT-105"/>
      <use x="877.539062" xlink:href="#TimesNewRomanPSMT-111"/>
      <use x="927.539062" xlink:href="#TimesNewRomanPSMT-110"/>
     </g>
    </g>
   </g>
   <g id="line2d_25">
    <path clip-path="url(#p5202a3c3f7)" d="M 54 44.687153 
L 108.109091 44.687153 
L 108.109091 227.426652 
L 158.836364 227.426652 
L 158.836364 230.901868 
L 209.563636 230.901868 
L 209.563636 233.330535 
L 260.290909 233.330535 
L 260.290909 236.541499 
L 311.018182 236.541499 
L 311.018182 237.270235 
L 361.745455 237.270235 
L 361.745455 237.473582 
L 388.8 237.473582 
L 388.8 237.473582 
" style="fill:none;stroke:#0000ff;stroke-linecap:square;stroke-width:1.5;"/>
   </g>
   <g id="line2d_26">
    <path clip-path="url(#p5202a3c3f7)" d="M 54 44.687153 
L 77.672727 44.687153 
L 77.672727 216.913665 
L 97.963636 216.913665 
L 97.963636 219.951929 
L 118.254545 219.951929 
L 118.254545 220.092492 
L 155.454545 220.092492 
L 155.454545 221.3262 
L 179.127273 221.3262 
L 179.127273 222.879302 
L 219.709091 222.879302 
L 219.709091 223.567018 
L 388.8 223.567018 
L 388.8 223.567018 
" style="fill:none;stroke:#00bfbf;stroke-linecap:square;stroke-width:1.5;"/>
   </g>
   <g id="line2d_27">
    <path clip-path="url(#p5202a3c3f7)" d="M 57.381818 44.768359 
L 64.145455 44.768359 
L 64.145455 49.000479 
L 114.872727 49.000479 
L 114.872727 50.583531 
L 128.4 50.583531 
L 128.4 51.137675 
L 131.781818 51.137675 
L 131.781818 51.491075 
L 145.309091 51.491075 
L 145.309091 52.184131 
L 175.745455 52.245941 
L 175.745455 53.246789 
L 192.654545 53.246789 
L 192.654545 53.490575 
L 199.418182 53.490575 
L 199.418182 53.643697 
L 216.327273 53.643697 
L 216.327273 54.156268 
L 267.054545 54.156268 
L 267.054545 62.836004 
L 280.581818 62.836004 
L 280.581818 201.443659 
L 283.963636 201.443659 
L 283.963636 222.18004 
L 287.345455 222.18004 
L 287.345455 223.836669 
L 290.727273 223.836669 
L 290.727273 228.254086 
L 294.109091 228.254086 
L 294.109091 228.727912 
L 297.490909 228.727912 
L 297.490909 229.618695 
L 351.6 229.664422 
L 351.6 229.951107 
L 365.127273 229.951107 
L 365.127273 231.481755 
L 382.036364 231.481755 
L 382.036364 232.013705 
L 388.8 232.013705 
L 388.8 232.013705 
" style="fill:none;stroke:#008000;stroke-linecap:square;stroke-width:1.5;"/>
   </g>
   <g id="line2d_28">
    <path clip-path="url(#p5202a3c3f7)" d="M 57.381818 44.833014 
L 64.145455 44.833014 
L 64.145455 198.912403 
L 70.909091 198.912403 
L 70.909091 217.680703 
L 81.054545 217.680703 
L 81.054545 220.906339 
L 91.2 220.906339 
L 91.2 224.497282 
L 111.490909 224.497282 
L 111.490909 227.085383 
L 121.636364 227.085383 
L 121.636364 231.991815 
L 148.690909 231.991815 
L 148.690909 239.457124 
L 388.8 239.457124 
L 388.8 239.457124 
" style="fill:none;stroke:#ffa500;stroke-linecap:square;stroke-width:1.5;"/>
   </g>
   <g id="line2d_29">
    <path clip-path="url(#p5202a3c3f7)" d="M 54 217.948314 
L 60.763636 217.948314 
L 60.763636 218.870642 
L 70.909091 218.870642 
L 70.909091 219.826501 
L 77.672727 219.826501 
L 77.672727 222.159652 
L 81.054545 222.159652 
L 81.054545 222.519213 
L 97.963636 222.528273 
L 97.963636 223.272418 
L 388.8 223.338619 
L 388.8 223.338619 
" style="fill:none;stroke:#ff0000;stroke-linecap:square;stroke-width:1.5;"/>
   </g>
   <g id="patch_3">
    <path d="M 54 252 
L 54 34.56 
" style="fill:none;stroke:#000000;stroke-linecap:square;stroke-linejoin:miter;stroke-width:0.8;"/>
   </g>
   <g id="patch_4">
    <path d="M 388.8 252 
L 388.8 34.56 
" style="fill:none;stroke:#000000;stroke-linecap:square;stroke-linejoin:miter;stroke-width:0.8;"/>
   </g>
   <g id="patch_5">
    <path d="M 54 252 
L 388.8 252 
" style="fill:none;stroke:#000000;stroke-linecap:square;stroke-linejoin:miter;stroke-width:0.8;"/>
   </g>
   <g id="patch_6">
    <path d="M 54 34.56 
L 388.8 34.56 
" style="fill:none;stroke:#000000;stroke-linecap:square;stroke-linejoin:miter;stroke-width:0.8;"/>
   </g>
   <g id="legend_1">
    <g id="patch_7">
     <path d="M 252.553906 133.022891 
L 380.05 133.022891 
Q 382.55 133.022891 382.55 130.522891 
L 382.55 43.31 
Q 382.55 40.81 380.05 40.81 
L 252.553906 40.81 
Q 250.053906 40.81 250.053906 43.31 
L 250.053906 130.522891 
Q 250.053906 133.022891 252.553906 133.022891 
z
" style="fill:#ffffff;opacity:0.8;stroke:#cccccc;stroke-linejoin:miter;"/>
    </g>
    <g id="line2d_30">
     <path d="M 255.053906 50.185 
L 280.053906 50.185 
" style="fill:none;stroke:#0000ff;stroke-linecap:square;stroke-width:1.5;"/>
    </g>
    <g id="line2d_31"/>
    <g id="text_11">
     <!-- CUATRO_global -->
     <g transform="translate(290.053906 54.56)scale(0.125 -0.125)">
      <defs>
       <path d="M 60.203125 67.71875 
L 61.71875 45.21875 
L 60.203125 45.21875 
Q 57.171875 55.328125 51.5625 59.765625 
Q 45.953125 64.203125 38.09375 64.203125 
Q 31.5 64.203125 26.171875 60.859375 
Q 20.84375 57.515625 17.796875 50.1875 
Q 14.75 42.875 14.75 31.984375 
Q 14.75 23 17.625 16.40625 
Q 20.515625 9.8125 26.296875 6.296875 
Q 32.078125 2.78125 39.5 2.78125 
Q 45.953125 2.78125 50.875 5.53125 
Q 55.8125 8.296875 61.71875 16.5 
L 63.234375 15.53125 
Q 58.25 6.6875 51.609375 2.578125 
Q 44.96875 -1.515625 35.84375 -1.515625 
Q 19.390625 -1.515625 10.359375 10.6875 
Q 3.609375 19.78125 3.609375 32.078125 
Q 3.609375 42 8.046875 50.296875 
Q 12.5 58.59375 20.28125 63.15625 
Q 28.078125 67.71875 37.3125 67.71875 
Q 44.484375 67.71875 51.46875 64.203125 
Q 53.515625 63.140625 54.390625 63.140625 
Q 55.71875 63.140625 56.6875 64.0625 
Q 57.953125 65.375 58.5 67.71875 
z
" id="TimesNewRomanPSMT-67"/>
       <path d="M 47.703125 64.40625 
L 47.703125 66.21875 
L 71.140625 66.21875 
L 71.140625 64.40625 
L 68.65625 64.40625 
Q 64.75 64.40625 62.640625 61.140625 
Q 61.625 59.625 61.625 54.109375 
L 61.625 27.25 
Q 61.625 17.28125 59.640625 11.78125 
Q 57.671875 6.296875 51.875 2.359375 
Q 46.09375 -1.5625 36.140625 -1.5625 
Q 25.296875 -1.5625 19.671875 2.1875 
Q 14.0625 5.953125 11.71875 12.3125 
Q 10.15625 16.65625 10.15625 28.609375 
L 10.15625 54.5 
Q 10.15625 60.59375 8.46875 62.5 
Q 6.78125 64.40625 3.03125 64.40625 
L 0.53125 64.40625 
L 0.53125 66.21875 
L 29.15625 66.21875 
L 29.15625 64.40625 
L 26.609375 64.40625 
Q 22.515625 64.40625 20.75 61.8125 
Q 19.53125 60.0625 19.53125 54.5 
L 19.53125 25.640625 
Q 19.53125 21.78125 20.234375 16.796875 
Q 20.953125 11.8125 22.796875 9.03125 
Q 24.65625 6.25 28.140625 4.4375 
Q 31.640625 2.640625 36.71875 2.640625 
Q 43.21875 2.640625 48.34375 5.46875 
Q 53.46875 8.296875 55.34375 12.71875 
Q 57.234375 17.140625 57.234375 27.6875 
L 57.234375 54.5 
Q 57.234375 60.6875 55.859375 62.25 
Q 53.953125 64.40625 50.203125 64.40625 
z
" id="TimesNewRomanPSMT-85"/>
       <path d="M 45.75 22.171875 
L 20.125 22.171875 
L 15.625 11.71875 
Q 13.96875 7.859375 13.96875 5.953125 
Q 13.96875 4.4375 15.40625 3.296875 
Q 16.84375 2.15625 21.625 1.8125 
L 21.625 0 
L 0.78125 0 
L 0.78125 1.8125 
Q 4.9375 2.546875 6.15625 3.71875 
Q 8.640625 6.0625 11.671875 13.234375 
L 34.96875 67.71875 
L 36.671875 67.71875 
L 59.71875 12.640625 
Q 62.5 6 64.765625 4.015625 
Q 67.046875 2.046875 71.09375 1.8125 
L 71.09375 0 
L 44.96875 0 
L 44.96875 1.8125 
Q 48.921875 2 50.3125 3.125 
Q 51.703125 4.25 51.703125 5.859375 
Q 51.703125 8.015625 49.75 12.640625 
z
M 44.390625 25.78125 
L 33.15625 52.546875 
L 21.625 25.78125 
z
" id="TimesNewRomanPSMT-65"/>
       <path d="M 57.859375 66.21875 
L 58.59375 50.6875 
L 56.734375 50.6875 
Q 56.203125 54.78125 55.28125 56.546875 
Q 53.765625 59.375 51.25 60.71875 
Q 48.734375 62.0625 44.625 62.0625 
L 35.296875 62.0625 
L 35.296875 11.46875 
Q 35.296875 5.375 36.625 3.859375 
Q 38.484375 1.8125 42.328125 1.8125 
L 44.625 1.8125 
L 44.625 0 
L 16.546875 0 
L 16.546875 1.8125 
L 18.890625 1.8125 
Q 23.09375 1.8125 24.859375 4.34375 
Q 25.921875 5.90625 25.921875 11.46875 
L 25.921875 62.0625 
L 17.96875 62.0625 
Q 13.328125 62.0625 11.375 61.375 
Q 8.84375 60.453125 7.03125 57.8125 
Q 5.21875 55.171875 4.890625 50.6875 
L 3.03125 50.6875 
L 3.8125 66.21875 
z
" id="TimesNewRomanPSMT-84"/>
       <path d="M 67.578125 0 
L 49.90625 0 
L 27.484375 30.953125 
Q 25 30.859375 23.4375 30.859375 
Q 22.796875 30.859375 22.0625 30.875 
Q 21.34375 30.90625 20.5625 30.953125 
L 20.5625 11.71875 
Q 20.5625 5.46875 21.921875 3.953125 
Q 23.78125 1.8125 27.484375 1.8125 
L 30.078125 1.8125 
L 30.078125 0 
L 1.703125 0 
L 1.703125 1.8125 
L 4.203125 1.8125 
Q 8.40625 1.8125 10.203125 4.546875 
Q 11.234375 6.0625 11.234375 11.71875 
L 11.234375 54.5 
Q 11.234375 60.75 9.859375 62.25 
Q 7.953125 64.40625 4.203125 64.40625 
L 1.703125 64.40625 
L 1.703125 66.21875 
L 25.828125 66.21875 
Q 36.375 66.21875 41.375 64.671875 
Q 46.390625 63.140625 49.875 59.015625 
Q 53.375 54.890625 53.375 49.171875 
Q 53.375 43.0625 49.390625 38.5625 
Q 45.40625 34.078125 37.0625 32.234375 
L 50.734375 13.234375 
Q 55.421875 6.6875 58.78125 4.53125 
Q 62.15625 2.390625 67.578125 1.8125 
z
M 20.5625 34.03125 
Q 21.484375 34.03125 22.171875 34 
Q 22.859375 33.984375 23.296875 33.984375 
Q 32.765625 33.984375 37.578125 38.078125 
Q 42.390625 42.1875 42.390625 48.53125 
Q 42.390625 54.734375 38.5 58.609375 
Q 34.625 62.5 28.21875 62.5 
Q 25.390625 62.5 20.5625 61.578125 
z
" id="TimesNewRomanPSMT-82"/>
       <path d="M 36.578125 67.71875 
Q 49.46875 67.71875 58.90625 57.921875 
Q 68.359375 48.140625 68.359375 33.5 
Q 68.359375 18.40625 58.828125 8.4375 
Q 49.3125 -1.515625 35.796875 -1.515625 
Q 22.125 -1.515625 12.8125 8.203125 
Q 3.515625 17.921875 3.515625 33.34375 
Q 3.515625 49.125 14.265625 59.078125 
Q 23.578125 67.71875 36.578125 67.71875 
z
M 35.640625 64.15625 
Q 26.765625 64.15625 21.390625 57.5625 
Q 14.703125 49.359375 14.703125 33.546875 
Q 14.703125 17.328125 21.625 8.59375 
Q 26.953125 1.953125 35.6875 1.953125 
Q 45.015625 1.953125 51.09375 9.21875 
Q 57.171875 16.5 57.171875 32.171875 
Q 57.171875 49.171875 50.484375 57.515625 
Q 45.125 64.15625 35.640625 64.15625 
z
" id="TimesNewRomanPSMT-79"/>
       <path d="M 50.875 -21.578125 
L -0.828125 -21.578125 
L -0.828125 -17.484375 
L 50.875 -17.484375 
z
" id="TimesNewRomanPSMT-95"/>
       <path d="M 15.09375 16.3125 
Q 10.984375 18.3125 8.78125 21.890625 
Q 6.59375 25.484375 6.59375 29.828125 
Q 6.59375 36.46875 11.59375 41.25 
Q 16.609375 46.046875 24.421875 46.046875 
Q 30.8125 46.046875 35.5 42.921875 
L 44.96875 42.921875 
Q 47.078125 42.921875 47.40625 42.796875 
Q 47.75 42.671875 47.90625 42.390625 
Q 48.1875 41.9375 48.1875 40.828125 
Q 48.1875 39.546875 47.953125 39.0625 
Q 47.796875 38.8125 47.4375 38.671875 
Q 47.078125 38.53125 44.96875 38.53125 
L 39.15625 38.53125 
Q 41.890625 35.015625 41.890625 29.546875 
Q 41.890625 23.296875 37.109375 18.84375 
Q 32.328125 14.40625 24.265625 14.40625 
Q 20.953125 14.40625 17.484375 15.375 
Q 15.328125 13.53125 14.5625 12.140625 
Q 13.8125 10.75 13.8125 9.765625 
Q 13.8125 8.9375 14.625 8.15625 
Q 15.4375 7.375 17.78125 7.03125 
Q 19.140625 6.84375 24.609375 6.6875 
Q 34.671875 6.453125 37.640625 6 
Q 42.1875 5.375 44.890625 2.640625 
Q 47.609375 -0.09375 47.609375 -4.109375 
Q 47.609375 -9.625 42.4375 -14.453125 
Q 34.8125 -21.578125 22.5625 -21.578125 
Q 13.140625 -21.578125 6.640625 -17.328125 
Q 2.984375 -14.890625 2.984375 -12.25 
Q 2.984375 -11.078125 3.515625 -9.90625 
Q 4.34375 -8.109375 6.9375 -4.890625 
Q 7.28125 -4.4375 11.921875 0.390625 
Q 9.375 1.90625 8.328125 3.09375 
Q 7.28125 4.296875 7.28125 5.8125 
Q 7.28125 7.515625 8.671875 9.8125 
Q 10.0625 12.109375 15.09375 16.3125 
z
M 23.578125 43.703125 
Q 19.96875 43.703125 17.53125 40.8125 
Q 15.09375 37.9375 15.09375 31.984375 
Q 15.09375 24.265625 18.40625 20.015625 
Q 20.953125 16.796875 24.859375 16.796875 
Q 28.5625 16.796875 30.953125 19.578125 
Q 33.34375 22.359375 33.34375 28.328125 
Q 33.34375 36.078125 29.984375 40.484375 
Q 27.484375 43.703125 23.578125 43.703125 
z
M 14.59375 0 
Q 12.3125 -2.484375 11.140625 -4.625 
Q 9.96875 -6.78125 9.96875 -8.59375 
Q 9.96875 -10.9375 12.796875 -12.703125 
Q 17.671875 -15.71875 26.90625 -15.71875 
Q 35.6875 -15.71875 39.859375 -12.609375 
Q 44.046875 -9.515625 44.046875 -6 
Q 44.046875 -3.46875 41.546875 -2.390625 
Q 39.015625 -1.3125 31.5 -1.125 
Q 20.515625 -0.828125 14.59375 0 
z
" id="TimesNewRomanPSMT-103"/>
      </defs>
      <use xlink:href="#TimesNewRomanPSMT-67"/>
      <use x="66.699219" xlink:href="#TimesNewRomanPSMT-85"/>
      <use x="138.916016" xlink:href="#TimesNewRomanPSMT-65"/>
      <use x="200.007812" xlink:href="#TimesNewRomanPSMT-84"/>
      <use x="261.091797" xlink:href="#TimesNewRomanPSMT-82"/>
      <use x="327.791016" xlink:href="#TimesNewRomanPSMT-79"/>
      <use x="400.007812" xlink:href="#TimesNewRomanPSMT-95"/>
      <use x="450.007812" xlink:href="#TimesNewRomanPSMT-103"/>
      <use x="500.007812" xlink:href="#TimesNewRomanPSMT-108"/>
      <use x="527.791016" xlink:href="#TimesNewRomanPSMT-111"/>
      <use x="577.791016" xlink:href="#TimesNewRomanPSMT-98"/>
      <use x="627.791016" xlink:href="#TimesNewRomanPSMT-97"/>
      <use x="672.175781" xlink:href="#TimesNewRomanPSMT-108"/>
     </g>
    </g>
    <g id="line2d_32">
     <path d="M 255.053906 67.882266 
L 280.053906 67.882266 
" style="fill:none;stroke:#00bfbf;stroke-linecap:square;stroke-width:1.5;"/>
    </g>
    <g id="line2d_33"/>
    <g id="text_12">
     <!-- CUATRO_local -->
     <g transform="translate(290.053906 72.257266)scale(0.125 -0.125)">
      <use xlink:href="#TimesNewRomanPSMT-67"/>
      <use x="66.699219" xlink:href="#TimesNewRomanPSMT-85"/>
      <use x="138.916016" xlink:href="#TimesNewRomanPSMT-65"/>
      <use x="200.007812" xlink:href="#TimesNewRomanPSMT-84"/>
      <use x="261.091797" xlink:href="#TimesNewRomanPSMT-82"/>
      <use x="327.791016" xlink:href="#TimesNewRomanPSMT-79"/>
      <use x="400.007812" xlink:href="#TimesNewRomanPSMT-95"/>
      <use x="450.007812" xlink:href="#TimesNewRomanPSMT-108"/>
      <use x="477.791016" xlink:href="#TimesNewRomanPSMT-111"/>
      <use x="527.791016" xlink:href="#TimesNewRomanPSMT-99"/>
      <use x="572.175781" xlink:href="#TimesNewRomanPSMT-97"/>
      <use x="616.560547" xlink:href="#TimesNewRomanPSMT-108"/>
     </g>
    </g>
    <g id="line2d_34">
     <path d="M 255.053906 85.579531 
L 280.053906 85.579531 
" style="fill:none;stroke:#008000;stroke-linecap:square;stroke-width:1.5;"/>
    </g>
    <g id="line2d_35"/>
    <g id="text_13">
     <!-- Py-BOBYQA  -->
     <g transform="translate(290.053906 89.954531)scale(0.125 -0.125)">
      <defs>
       <path d="M 20.515625 31 
L 20.515625 11.71875 
Q 20.515625 5.46875 21.875 3.953125 
Q 23.734375 1.8125 27.484375 1.8125 
L 30.03125 1.8125 
L 30.03125 0 
L 1.65625 0 
L 1.65625 1.8125 
L 4.15625 1.8125 
Q 8.34375 1.8125 10.15625 4.546875 
Q 11.140625 6.0625 11.140625 11.71875 
L 11.140625 54.5 
Q 11.140625 60.75 9.8125 62.25 
Q 7.90625 64.40625 4.15625 64.40625 
L 1.65625 64.40625 
L 1.65625 66.21875 
L 25.921875 66.21875 
Q 34.8125 66.21875 39.9375 64.375 
Q 45.0625 62.546875 48.578125 58.203125 
Q 52.09375 53.859375 52.09375 47.90625 
Q 52.09375 39.796875 46.75 34.71875 
Q 41.40625 29.640625 31.640625 29.640625 
Q 29.25 29.640625 26.46875 29.984375 
Q 23.6875 30.328125 20.515625 31 
z
M 20.515625 33.796875 
Q 23.09375 33.296875 25.09375 33.046875 
Q 27.09375 32.8125 28.515625 32.8125 
Q 33.59375 32.8125 37.28125 36.734375 
Q 40.96875 40.671875 40.96875 46.921875 
Q 40.96875 51.21875 39.203125 54.90625 
Q 37.453125 58.59375 34.21875 60.421875 
Q 31 62.25 26.90625 62.25 
Q 24.421875 62.25 20.515625 61.328125 
z
" id="TimesNewRomanPSMT-80"/>
       <path d="M 0.59375 44.734375 
L 21.4375 44.734375 
L 21.4375 42.921875 
L 20.40625 42.921875 
Q 18.21875 42.921875 17.109375 41.96875 
Q 16.015625 41.015625 16.015625 39.59375 
Q 16.015625 37.703125 17.625 34.328125 
L 28.515625 11.765625 
L 38.53125 36.46875 
Q 39.359375 38.484375 39.359375 40.4375 
Q 39.359375 41.3125 39.015625 41.75 
Q 38.625 42.28125 37.796875 42.59375 
Q 36.96875 42.921875 34.859375 42.921875 
L 34.859375 44.734375 
L 49.421875 44.734375 
L 49.421875 42.921875 
Q 47.609375 42.71875 46.625 42.125 
Q 45.65625 41.546875 44.484375 39.9375 
Q 44.046875 39.265625 42.828125 36.1875 
L 24.609375 -8.453125 
Q 21.96875 -14.9375 17.6875 -18.25 
Q 13.421875 -21.578125 9.46875 -21.578125 
Q 6.59375 -21.578125 4.734375 -19.921875 
Q 2.875 -18.265625 2.875 -16.109375 
Q 2.875 -14.0625 4.21875 -12.8125 
Q 5.5625 -11.578125 7.90625 -11.578125 
Q 9.515625 -11.578125 12.3125 -12.640625 
Q 14.265625 -13.375 14.75 -13.375 
Q 16.21875 -13.375 17.9375 -11.859375 
Q 19.671875 -10.359375 21.4375 -6 
L 24.609375 1.765625 
L 8.546875 35.5 
Q 7.8125 37.015625 6.203125 39.265625 
Q 4.984375 40.96875 4.203125 41.546875 
Q 3.078125 42.328125 0.59375 42.921875 
z
" id="TimesNewRomanPSMT-121"/>
       <path d="M 4.046875 26.125 
L 29.296875 26.125 
L 29.296875 18.75 
L 4.046875 18.75 
z
" id="TimesNewRomanPSMT-45"/>
       <path d="M 47.65625 66.21875 
L 70.75 66.21875 
L 70.75 64.40625 
L 69.484375 64.40625 
Q 68.21875 64.40625 65.765625 63.28125 
Q 63.328125 62.15625 61.328125 60.046875 
Q 59.328125 57.953125 56.390625 53.21875 
L 40.4375 28.078125 
L 40.4375 11.46875 
Q 40.4375 5.375 41.796875 3.859375 
Q 43.65625 1.8125 47.65625 1.8125 
L 49.8125 1.8125 
L 49.8125 0 
L 21.6875 0 
L 21.6875 1.8125 
L 24.03125 1.8125 
Q 28.21875 1.8125 29.984375 4.34375 
Q 31.0625 5.90625 31.0625 11.46875 
L 31.0625 27.15625 
L 12.890625 54.890625 
Q 9.671875 59.765625 8.515625 60.984375 
Q 7.375 62.203125 3.765625 63.921875 
Q 2.78125 64.40625 0.921875 64.40625 
L 0.921875 66.21875 
L 29.25 66.21875 
L 29.25 64.40625 
L 27.78125 64.40625 
Q 25.484375 64.40625 23.546875 63.328125 
Q 21.625 62.25 21.625 60.109375 
Q 21.625 58.34375 24.609375 53.765625 
L 38.421875 32.421875 
L 51.421875 52.828125 
Q 54.34375 57.421875 54.34375 59.671875 
Q 54.34375 61.03125 53.640625 62.109375 
Q 52.9375 63.1875 51.609375 63.796875 
Q 50.296875 64.40625 47.65625 64.40625 
z
" id="TimesNewRomanPSMT-89"/>
       <path d="M 44.046875 -0.734375 
Q 49.03125 -9.328125 54.8125 -13.375 
Q 60.59375 -17.4375 67.96875 -18.015625 
L 67.96875 -19.578125 
Q 61.234375 -19.34375 53.5625 -16.875 
Q 45.90625 -14.40625 39.03125 -10.03125 
Q 32.171875 -5.671875 27.203125 -0.734375 
Q 20.171875 2.09375 16.0625 5.28125 
Q 10.109375 10.015625 6.8125 16.921875 
Q 3.515625 23.828125 3.515625 33.25 
Q 3.515625 48.09375 13.125 57.90625 
Q 22.75 67.71875 36.421875 67.71875 
Q 49.421875 67.71875 58.90625 57.875 
Q 68.40625 48.046875 68.40625 33.0625 
Q 68.40625 20.90625 61.640625 11.71875 
Q 54.890625 2.546875 44.046875 -0.734375 
z
M 35.84375 63.96875 
Q 26.953125 63.96875 21.53125 57.625 
Q 14.703125 49.65625 14.703125 33.25 
Q 14.703125 17.1875 21.625 8.5 
Q 27 1.8125 35.84375 1.8125 
Q 45.015625 1.8125 50.640625 8.5 
Q 57.234375 16.40625 57.234375 31.84375 
Q 57.234375 43.703125 53.609375 51.8125 
Q 50.828125 58.0625 46.21875 61.015625 
Q 41.609375 63.96875 35.84375 63.96875 
z
" id="TimesNewRomanPSMT-81"/>
      </defs>
      <use xlink:href="#TimesNewRomanPSMT-80"/>
      <use x="55.615234" xlink:href="#TimesNewRomanPSMT-121"/>
      <use x="105.615234" xlink:href="#TimesNewRomanPSMT-45"/>
      <use x="138.916016" xlink:href="#TimesNewRomanPSMT-66"/>
      <use x="205.615234" xlink:href="#TimesNewRomanPSMT-79"/>
      <use x="277.832031" xlink:href="#TimesNewRomanPSMT-66"/>
      <use x="344.53125" xlink:href="#TimesNewRomanPSMT-89"/>
      <use x="416.748047" xlink:href="#TimesNewRomanPSMT-81"/>
      <use x="488.964844" xlink:href="#TimesNewRomanPSMT-65"/>
      <use x="555.681641" xlink:href="#TimesNewRomanPSMT-32"/>
     </g>
    </g>
    <g id="line2d_36">
     <path d="M 255.053906 103.276797 
L 280.053906 103.276797 
" style="fill:none;stroke:#ffa500;stroke-linecap:square;stroke-width:1.5;"/>
    </g>
    <g id="line2d_37"/>
    <g id="text_14">
     <!-- Snobfit* -->
     <g transform="translate(290.053906 107.651797)scale(0.125 -0.125)">
      <defs>
       <path d="M 45.84375 67.71875 
L 45.84375 44.828125 
L 44.046875 44.828125 
Q 43.171875 51.421875 40.890625 55.328125 
Q 38.625 59.234375 34.421875 61.515625 
Q 30.21875 63.8125 25.734375 63.8125 
Q 20.65625 63.8125 17.328125 60.71875 
Q 14.015625 57.625 14.015625 53.65625 
Q 14.015625 50.640625 16.109375 48.140625 
Q 19.140625 44.484375 30.515625 38.375 
Q 39.796875 33.40625 43.1875 30.734375 
Q 46.578125 28.078125 48.40625 24.453125 
Q 50.25 20.84375 50.25 16.890625 
Q 50.25 9.375 44.40625 3.921875 
Q 38.578125 -1.515625 29.390625 -1.515625 
Q 26.515625 -1.515625 23.96875 -1.078125 
Q 22.46875 -0.828125 17.703125 0.703125 
Q 12.9375 2.25 11.671875 2.25 
Q 10.453125 2.25 9.734375 1.515625 
Q 9.03125 0.78125 8.6875 -1.515625 
L 6.890625 -1.515625 
L 6.890625 21.1875 
L 8.6875 21.1875 
Q 9.96875 14.0625 12.109375 10.515625 
Q 14.265625 6.984375 18.671875 4.640625 
Q 23.09375 2.296875 28.375 2.296875 
Q 34.46875 2.296875 38 5.515625 
Q 41.546875 8.734375 41.546875 13.140625 
Q 41.546875 15.578125 40.203125 18.0625 
Q 38.875 20.5625 36.03125 22.703125 
Q 34.125 24.171875 25.625 28.921875 
Q 17.140625 33.6875 13.546875 36.515625 
Q 9.96875 39.359375 8.109375 42.765625 
Q 6.25 46.1875 6.25 50.296875 
Q 6.25 57.421875 11.71875 62.5625 
Q 17.1875 67.71875 25.640625 67.71875 
Q 30.90625 67.71875 36.8125 65.140625 
Q 39.546875 63.921875 40.671875 63.921875 
Q 41.9375 63.921875 42.75 64.671875 
Q 43.5625 65.4375 44.046875 67.71875 
z
" id="TimesNewRomanPSMT-83"/>
       <path d="M 24.125 50.984375 
Q 23.921875 54.34375 22.75 57.671875 
Q 21.09375 62.453125 21.09375 64.265625 
Q 21.09375 66.796875 22.28125 68.109375 
Q 23.484375 69.4375 25.25 69.4375 
Q 26.765625 69.4375 27.875 68.109375 
Q 29 66.796875 29 64.359375 
Q 29 62.15625 27.703125 58.21875 
Q 26.421875 54.296875 26.125 50.984375 
Q 28.8125 52.6875 30.953125 55.125 
Q 34.28125 58.984375 35.890625 59.90625 
Q 37.5 60.84375 39.15625 60.84375 
Q 40.765625 60.84375 41.859375 59.734375 
Q 42.96875 58.640625 42.96875 57.125 
Q 42.96875 55.328125 41.359375 53.90625 
Q 39.75 52.484375 33.296875 51.078125 
Q 29.546875 50.25 27.046875 49.171875 
Q 29.59375 47.859375 33.25 47.171875 
Q 39.15625 46.09375 40.984375 44.484375 
Q 42.828125 42.875 42.828125 40.96875 
Q 42.828125 39.5 41.71875 38.421875 
Q 40.625 37.359375 39.15625 37.359375 
Q 37.703125 37.359375 35.90625 38.375 
Q 34.125 39.40625 31.109375 42.96875 
Q 29.109375 45.359375 26.125 47.46875 
Q 26.21875 44.671875 27.25 41.40625 
Q 29 35.640625 29 33.546875 
Q 29 31.59375 27.828125 30.25 
Q 26.65625 28.90625 25.34375 28.90625 
Q 23.53125 28.90625 22.078125 30.328125 
Q 21.046875 31.34375 21.046875 33.59375 
Q 21.046875 35.9375 22.171875 39.234375 
Q 23.296875 42.53125 23.578125 43.765625 
Q 23.875 45.015625 24.125 47.46875 
Q 21.234375 45.5625 19.09375 43.21875 
Q 15.53125 39.203125 13.71875 38.140625 
Q 12.453125 37.359375 11.078125 37.359375 
Q 9.421875 37.359375 8.25 38.46875 
Q 7.078125 39.59375 7.078125 40.96875 
Q 7.078125 42.1875 8.078125 43.53125 
Q 9.078125 44.875 11.078125 45.75 
Q 12.40625 46.34375 17.09375 47.3125 
Q 20.125 47.953125 23 49.171875 
Q 20.359375 50.484375 16.703125 51.21875 
Q 10.6875 52.484375 9.28125 53.515625 
Q 7.078125 55.125 7.078125 57.421875 
Q 7.078125 58.734375 8.171875 59.828125 
Q 9.28125 60.9375 10.75 60.9375 
Q 12.359375 60.9375 14.15625 59.90625 
Q 15.96875 58.890625 18.65625 55.78125 
Q 21.34375 52.6875 24.125 50.984375 
z
" id="TimesNewRomanPSMT-42"/>
      </defs>
      <use xlink:href="#TimesNewRomanPSMT-83"/>
      <use x="55.615234" xlink:href="#TimesNewRomanPSMT-110"/>
      <use x="105.615234" xlink:href="#TimesNewRomanPSMT-111"/>
      <use x="155.615234" xlink:href="#TimesNewRomanPSMT-98"/>
      <use x="205.615234" xlink:href="#TimesNewRomanPSMT-102"/>
      <use x="238.916016" xlink:href="#TimesNewRomanPSMT-105"/>
      <use x="266.699219" xlink:href="#TimesNewRomanPSMT-116"/>
      <use x="294.482422" xlink:href="#TimesNewRomanPSMT-42"/>
     </g>
    </g>
    <g id="line2d_38">
     <path d="M 255.053906 120.950625 
L 280.053906 120.950625 
" style="fill:none;stroke:#ff0000;stroke-linecap:square;stroke-width:1.5;"/>
    </g>
    <g id="line2d_39"/>
    <g id="text_15">
     <!-- Bayes. Opt -->
     <g transform="translate(290.053906 125.325625)scale(0.125 -0.125)">
      <defs>
       <path d="M -0.09375 40.28125 
L 13.671875 45.84375 
L 15.53125 45.84375 
L 15.53125 35.40625 
Q 19 41.3125 22.484375 43.671875 
Q 25.984375 46.046875 29.828125 46.046875 
Q 36.578125 46.046875 41.0625 40.765625 
Q 46.578125 34.328125 46.578125 23.96875 
Q 46.578125 12.40625 39.9375 4.828125 
Q 34.46875 -1.375 26.171875 -1.375 
Q 22.5625 -1.375 19.921875 -0.34375 
Q 17.96875 0.390625 15.53125 2.59375 
L 15.53125 -11.03125 
Q 15.53125 -15.625 16.09375 -16.859375 
Q 16.65625 -18.109375 18.046875 -18.84375 
Q 19.4375 -19.578125 23.09375 -19.578125 
L 23.09375 -21.390625 
L -0.34375 -21.390625 
L -0.34375 -19.578125 
L 0.875 -19.578125 
Q 3.5625 -19.625 5.46875 -18.5625 
Q 6.390625 -18.015625 6.90625 -16.8125 
Q 7.421875 -15.625 7.421875 -10.75 
L 7.421875 31.546875 
Q 7.421875 35.890625 7.03125 37.0625 
Q 6.640625 38.234375 5.78125 38.8125 
Q 4.9375 39.40625 3.46875 39.40625 
Q 2.296875 39.40625 0.484375 38.71875 
z
M 15.53125 32.515625 
L 15.53125 15.828125 
Q 15.53125 10.40625 15.96875 8.6875 
Q 16.65625 5.859375 19.3125 3.703125 
Q 21.96875 1.5625 26.03125 1.5625 
Q 30.90625 1.5625 33.9375 5.375 
Q 37.890625 10.359375 37.890625 19.390625 
Q 37.890625 29.640625 33.40625 35.15625 
Q 30.28125 38.96875 25.984375 38.96875 
Q 23.640625 38.96875 21.34375 37.796875 
Q 19.578125 36.921875 15.53125 32.515625 
z
" id="TimesNewRomanPSMT-112"/>
      </defs>
      <use xlink:href="#TimesNewRomanPSMT-66"/>
      <use x="66.699219" xlink:href="#TimesNewRomanPSMT-97"/>
      <use x="111.083984" xlink:href="#TimesNewRomanPSMT-121"/>
      <use x="161.083984" xlink:href="#TimesNewRomanPSMT-101"/>
      <use x="205.46875" xlink:href="#TimesNewRomanPSMT-115"/>
      <use x="244.384766" xlink:href="#TimesNewRomanPSMT-46"/>
      <use x="269.384766" xlink:href="#TimesNewRomanPSMT-32"/>
      <use x="294.384766" xlink:href="#TimesNewRomanPSMT-79"/>
      <use x="366.601562" xlink:href="#TimesNewRomanPSMT-112"/>
      <use x="416.601562" xlink:href="#TimesNewRomanPSMT-116"/>
     </g>
    </g>
   </g>
  </g>
 </g>
 <defs>
  <clipPath id="p5202a3c3f7">
   <rect height="217.44" width="334.8" x="54" y="34.56"/>
  </clipPath>
 </defs>
</svg>
