<?xml version="1.0" encoding="utf-8" standalone="no"?>
<!DOCTYPE svg PUBLIC "-//W3C//DTD SVG 1.1//EN"
  "http://www.w3.org/Graphics/SVG/1.1/DTD/svg11.dtd">
<!-- Created with matplotlib (https://matplotlib.org/) -->
<svg height="288pt" version="1.1" viewBox="0 0 432 288" width="432pt" xmlns="http://www.w3.org/2000/svg" xmlns:xlink="http://www.w3.org/1999/xlink">
 <metadata>
  <rdf:RDF xmlns:cc="http://creativecommons.org/ns#" xmlns:dc="http://purl.org/dc/elements/1.1/" xmlns:rdf="http://www.w3.org/1999/02/22-rdf-syntax-ns#">
   <cc:Work>
    <dc:type rdf:resource="http://purl.org/dc/dcmitype/StillImage"/>
    <dc:date>2021-04-01T00:22:05.726112</dc:date>
    <dc:format>image/svg+xml</dc:format>
    <dc:creator>
     <cc:Agent>
      <dc:title>Matplotlib v3.3.4, https://matplotlib.org/</dc:title>
     </cc:Agent>
    </dc:creator>
   </cc:Work>
  </rdf:RDF>
 </metadata>
 <defs>
  <style type="text/css">*{stroke-linecap:butt;stroke-linejoin:round;}</style>
 </defs>
 <g id="figure_1">
  <g id="patch_1">
   <path d="M 0 288 
L 432 288 
L 432 0 
L 0 0 
z
" style="fill:#ffffff;"/>
  </g>
  <g id="axes_1">
   <g id="patch_2">
    <path d="M 54 252 
L 388.8 252 
L 388.8 34.56 
L 54 34.56 
z
" style="fill:#ffffff;"/>
   </g>
   <g id="matplotlib.axis_1">
    <g id="xtick_1">
     <g id="line2d_1">
      <defs>
       <path d="M 0 0 
L 0 3.5 
" id="m3e4f541bd1" style="stroke:#000000;stroke-width:0.8;"/>
      </defs>
      <g>
       <use style="stroke:#000000;stroke-width:0.8;" x="54" xlink:href="#m3e4f541bd1" y="252"/>
      </g>
     </g>
     <g id="text_1">
      <!-- −1.5 -->
      <g transform="translate(41.858594 266.598437)scale(0.1 -0.1)">
       <defs>
        <path d="M 10.59375 35.5 
L 73.1875 35.5 
L 73.1875 27.203125 
L 10.59375 27.203125 
z
" id="DejaVuSans-8722"/>
        <path d="M 12.40625 8.296875 
L 28.515625 8.296875 
L 28.515625 63.921875 
L 10.984375 60.40625 
L 10.984375 69.390625 
L 28.421875 72.90625 
L 38.28125 72.90625 
L 38.28125 8.296875 
L 54.390625 8.296875 
L 54.390625 0 
L 12.40625 0 
z
" id="DejaVuSans-49"/>
        <path d="M 10.6875 12.40625 
L 21 12.40625 
L 21 0 
L 10.6875 0 
z
" id="DejaVuSans-46"/>
        <path d="M 10.796875 72.90625 
L 49.515625 72.90625 
L 49.515625 64.59375 
L 19.828125 64.59375 
L 19.828125 46.734375 
Q 21.96875 47.46875 24.109375 47.828125 
Q 26.265625 48.1875 28.421875 48.1875 
Q 40.625 48.1875 47.75 41.5 
Q 54.890625 34.8125 54.890625 23.390625 
Q 54.890625 11.625 47.5625 5.09375 
Q 40.234375 -1.421875 26.90625 -1.421875 
Q 22.3125 -1.421875 17.546875 -0.640625 
Q 12.796875 0.140625 7.71875 1.703125 
L 7.71875 11.625 
Q 12.109375 9.234375 16.796875 8.0625 
Q 21.484375 6.890625 26.703125 6.890625 
Q 35.15625 6.890625 40.078125 11.328125 
Q 45.015625 15.765625 45.015625 23.390625 
Q 45.015625 31 40.078125 35.4375 
Q 35.15625 39.890625 26.703125 39.890625 
Q 22.75 39.890625 18.8125 39.015625 
Q 14.890625 38.140625 10.796875 36.28125 
z
" id="DejaVuSans-53"/>
       </defs>
       <use xlink:href="#DejaVuSans-8722"/>
       <use x="83.789062" xlink:href="#DejaVuSans-49"/>
       <use x="147.412109" xlink:href="#DejaVuSans-46"/>
       <use x="179.199219" xlink:href="#DejaVuSans-53"/>
      </g>
     </g>
    </g>
    <g id="xtick_2">
     <g id="line2d_2">
      <g>
       <use style="stroke:#000000;stroke-width:0.8;" x="109.8" xlink:href="#m3e4f541bd1" y="252"/>
      </g>
     </g>
     <g id="text_2">
      <!-- −1.0 -->
      <g transform="translate(97.658594 266.598437)scale(0.1 -0.1)">
       <defs>
        <path d="M 31.78125 66.40625 
Q 24.171875 66.40625 20.328125 58.90625 
Q 16.5 51.421875 16.5 36.375 
Q 16.5 21.390625 20.328125 13.890625 
Q 24.171875 6.390625 31.78125 6.390625 
Q 39.453125 6.390625 43.28125 13.890625 
Q 47.125 21.390625 47.125 36.375 
Q 47.125 51.421875 43.28125 58.90625 
Q 39.453125 66.40625 31.78125 66.40625 
z
M 31.78125 74.21875 
Q 44.046875 74.21875 50.515625 64.515625 
Q 56.984375 54.828125 56.984375 36.375 
Q 56.984375 17.96875 50.515625 8.265625 
Q 44.046875 -1.421875 31.78125 -1.421875 
Q 19.53125 -1.421875 13.0625 8.265625 
Q 6.59375 17.96875 6.59375 36.375 
Q 6.59375 54.828125 13.0625 64.515625 
Q 19.53125 74.21875 31.78125 74.21875 
z
" id="DejaVuSans-48"/>
       </defs>
       <use xlink:href="#DejaVuSans-8722"/>
       <use x="83.789062" xlink:href="#DejaVuSans-49"/>
       <use x="147.412109" xlink:href="#DejaVuSans-46"/>
       <use x="179.199219" xlink:href="#DejaVuSans-48"/>
      </g>
     </g>
    </g>
    <g id="xtick_3">
     <g id="line2d_3">
      <g>
       <use style="stroke:#000000;stroke-width:0.8;" x="165.6" xlink:href="#m3e4f541bd1" y="252"/>
      </g>
     </g>
     <g id="text_3">
      <!-- −0.5 -->
      <g transform="translate(153.458594 266.598437)scale(0.1 -0.1)">
       <use xlink:href="#DejaVuSans-8722"/>
       <use x="83.789062" xlink:href="#DejaVuSans-48"/>
       <use x="147.412109" xlink:href="#DejaVuSans-46"/>
       <use x="179.199219" xlink:href="#DejaVuSans-53"/>
      </g>
     </g>
    </g>
    <g id="xtick_4">
     <g id="line2d_4">
      <g>
       <use style="stroke:#000000;stroke-width:0.8;" x="221.4" xlink:href="#m3e4f541bd1" y="252"/>
      </g>
     </g>
     <g id="text_4">
      <!-- 0.0 -->
      <g transform="translate(213.448438 266.598437)scale(0.1 -0.1)">
       <use xlink:href="#DejaVuSans-48"/>
       <use x="63.623047" xlink:href="#DejaVuSans-46"/>
       <use x="95.410156" xlink:href="#DejaVuSans-48"/>
      </g>
     </g>
    </g>
    <g id="xtick_5">
     <g id="line2d_5">
      <g>
       <use style="stroke:#000000;stroke-width:0.8;" x="277.2" xlink:href="#m3e4f541bd1" y="252"/>
      </g>
     </g>
     <g id="text_5">
      <!-- 0.5 -->
      <g transform="translate(269.248437 266.598437)scale(0.1 -0.1)">
       <use xlink:href="#DejaVuSans-48"/>
       <use x="63.623047" xlink:href="#DejaVuSans-46"/>
       <use x="95.410156" xlink:href="#DejaVuSans-53"/>
      </g>
     </g>
    </g>
    <g id="xtick_6">
     <g id="line2d_6">
      <g>
       <use style="stroke:#000000;stroke-width:0.8;" x="333" xlink:href="#m3e4f541bd1" y="252"/>
      </g>
     </g>
     <g id="text_6">
      <!-- 1.0 -->
      <g transform="translate(325.048437 266.598437)scale(0.1 -0.1)">
       <use xlink:href="#DejaVuSans-49"/>
       <use x="63.623047" xlink:href="#DejaVuSans-46"/>
       <use x="95.410156" xlink:href="#DejaVuSans-48"/>
      </g>
     </g>
    </g>
    <g id="xtick_7">
     <g id="line2d_7">
      <g>
       <use style="stroke:#000000;stroke-width:0.8;" x="388.8" xlink:href="#m3e4f541bd1" y="252"/>
      </g>
     </g>
     <g id="text_7">
      <!-- 1.5 -->
      <g transform="translate(380.848437 266.598437)scale(0.1 -0.1)">
       <use xlink:href="#DejaVuSans-49"/>
       <use x="63.623047" xlink:href="#DejaVuSans-46"/>
       <use x="95.410156" xlink:href="#DejaVuSans-53"/>
      </g>
     </g>
    </g>
    <g id="text_8">
     <!-- $x_1$ -->
     <g transform="translate(216.05 280.276563)scale(0.1 -0.1)">
      <defs>
       <path d="M 60.015625 54.6875 
L 34.90625 27.875 
L 50.296875 0 
L 39.984375 0 
L 28.421875 21.6875 
L 8.296875 0 
L -2.59375 0 
L 24.3125 28.8125 
L 10.015625 54.6875 
L 20.3125 54.6875 
L 30.8125 34.90625 
L 49.125 54.6875 
z
" id="DejaVuSans-Oblique-120"/>
      </defs>
      <use transform="translate(0 0.3125)" xlink:href="#DejaVuSans-Oblique-120"/>
      <use transform="translate(59.179688 -16.09375)scale(0.7)" xlink:href="#DejaVuSans-49"/>
     </g>
    </g>
   </g>
   <g id="matplotlib.axis_2">
    <g id="ytick_1">
     <g id="line2d_8">
      <defs>
       <path d="M 0 0 
L -3.5 0 
" id="m9420be295c" style="stroke:#000000;stroke-width:0.8;"/>
      </defs>
      <g>
       <use style="stroke:#000000;stroke-width:0.8;" x="54" xlink:href="#m9420be295c" y="252"/>
      </g>
     </g>
     <g id="text_9">
      <!-- −1.5 -->
      <g transform="translate(22.717187 255.799219)scale(0.1 -0.1)">
       <use xlink:href="#DejaVuSans-8722"/>
       <use x="83.789062" xlink:href="#DejaVuSans-49"/>
       <use x="147.412109" xlink:href="#DejaVuSans-46"/>
       <use x="179.199219" xlink:href="#DejaVuSans-53"/>
      </g>
     </g>
    </g>
    <g id="ytick_2">
     <g id="line2d_9">
      <g>
       <use style="stroke:#000000;stroke-width:0.8;" x="54" xlink:href="#m9420be295c" y="215.76"/>
      </g>
     </g>
     <g id="text_10">
      <!-- −1.0 -->
      <g transform="translate(22.717187 219.559219)scale(0.1 -0.1)">
       <use xlink:href="#DejaVuSans-8722"/>
       <use x="83.789062" xlink:href="#DejaVuSans-49"/>
       <use x="147.412109" xlink:href="#DejaVuSans-46"/>
       <use x="179.199219" xlink:href="#DejaVuSans-48"/>
      </g>
     </g>
    </g>
    <g id="ytick_3">
     <g id="line2d_10">
      <g>
       <use style="stroke:#000000;stroke-width:0.8;" x="54" xlink:href="#m9420be295c" y="179.52"/>
      </g>
     </g>
     <g id="text_11">
      <!-- −0.5 -->
      <g transform="translate(22.717187 183.319219)scale(0.1 -0.1)">
       <use xlink:href="#DejaVuSans-8722"/>
       <use x="83.789062" xlink:href="#DejaVuSans-48"/>
       <use x="147.412109" xlink:href="#DejaVuSans-46"/>
       <use x="179.199219" xlink:href="#DejaVuSans-53"/>
      </g>
     </g>
    </g>
    <g id="ytick_4">
     <g id="line2d_11">
      <g>
       <use style="stroke:#000000;stroke-width:0.8;" x="54" xlink:href="#m9420be295c" y="143.28"/>
      </g>
     </g>
     <g id="text_12">
      <!-- 0.0 -->
      <g transform="translate(31.096875 147.079219)scale(0.1 -0.1)">
       <use xlink:href="#DejaVuSans-48"/>
       <use x="63.623047" xlink:href="#DejaVuSans-46"/>
       <use x="95.410156" xlink:href="#DejaVuSans-48"/>
      </g>
     </g>
    </g>
    <g id="ytick_5">
     <g id="line2d_12">
      <g>
       <use style="stroke:#000000;stroke-width:0.8;" x="54" xlink:href="#m9420be295c" y="107.04"/>
      </g>
     </g>
     <g id="text_13">
      <!-- 0.5 -->
      <g transform="translate(31.096875 110.839219)scale(0.1 -0.1)">
       <use xlink:href="#DejaVuSans-48"/>
       <use x="63.623047" xlink:href="#DejaVuSans-46"/>
       <use x="95.410156" xlink:href="#DejaVuSans-53"/>
      </g>
     </g>
    </g>
    <g id="ytick_6">
     <g id="line2d_13">
      <g>
       <use style="stroke:#000000;stroke-width:0.8;" x="54" xlink:href="#m9420be295c" y="70.8"/>
      </g>
     </g>
     <g id="text_14">
      <!-- 1.0 -->
      <g transform="translate(31.096875 74.599219)scale(0.1 -0.1)">
       <use xlink:href="#DejaVuSans-49"/>
       <use x="63.623047" xlink:href="#DejaVuSans-46"/>
       <use x="95.410156" xlink:href="#DejaVuSans-48"/>
      </g>
     </g>
    </g>
    <g id="ytick_7">
     <g id="line2d_14">
      <g>
       <use style="stroke:#000000;stroke-width:0.8;" x="54" xlink:href="#m9420be295c" y="34.56"/>
      </g>
     </g>
     <g id="text_15">
      <!-- 1.5 -->
      <g transform="translate(31.096875 38.359219)scale(0.1 -0.1)">
       <use xlink:href="#DejaVuSans-49"/>
       <use x="63.623047" xlink:href="#DejaVuSans-46"/>
       <use x="95.410156" xlink:href="#DejaVuSans-53"/>
      </g>
     </g>
    </g>
    <g id="text_16">
     <!-- $x_2$ -->
     <g transform="translate(16.6375 148.63)rotate(-90)scale(0.1 -0.1)">
      <defs>
       <path d="M 19.1875 8.296875 
L 53.609375 8.296875 
L 53.609375 0 
L 7.328125 0 
L 7.328125 8.296875 
Q 12.9375 14.109375 22.625 23.890625 
Q 32.328125 33.6875 34.8125 36.53125 
Q 39.546875 41.84375 41.421875 45.53125 
Q 43.3125 49.21875 43.3125 52.78125 
Q 43.3125 58.59375 39.234375 62.25 
Q 35.15625 65.921875 28.609375 65.921875 
Q 23.96875 65.921875 18.8125 64.3125 
Q 13.671875 62.703125 7.8125 59.421875 
L 7.8125 69.390625 
Q 13.765625 71.78125 18.9375 73 
Q 24.125 74.21875 28.421875 74.21875 
Q 39.75 74.21875 46.484375 68.546875 
Q 53.21875 62.890625 53.21875 53.421875 
Q 53.21875 48.921875 51.53125 44.890625 
Q 49.859375 40.875 45.40625 35.40625 
Q 44.1875 33.984375 37.640625 27.21875 
Q 31.109375 20.453125 19.1875 8.296875 
z
" id="DejaVuSans-50"/>
      </defs>
      <use transform="translate(0 0.3125)" xlink:href="#DejaVuSans-Oblique-120"/>
      <use transform="translate(59.179688 -16.09375)scale(0.7)" xlink:href="#DejaVuSans-50"/>
     </g>
    </g>
   </g>
   <g id="LineCollection_1">
    <path clip-path="url(#pda2952dc5b)" d="M 109.165183 -1 
L 433 209.31743 
L 433 209.31743 
" style="fill:none;stroke:#440154;stroke-width:1.5;"/>
   </g>
   <g id="LineCollection_2">
    <path clip-path="url(#pda2952dc5b)" d="M 109.166016 -1 
L 433 209.3153 
L 433 209.3153 
" style="fill:none;stroke:#440154;stroke-width:1.5;"/>
   </g>
   <g id="LineCollection_3">
    <path clip-path="url(#pda2952dc5b)" d="M 109.168056 -1 
L 433 209.310087 
L 433 209.310087 
" style="fill:none;stroke:#440154;stroke-width:1.5;"/>
   </g>
   <g id="LineCollection_4">
    <path clip-path="url(#pda2952dc5b)" d="M 109.17305 -1 
L 301.034171 123.475562 
L 303.514459 125.068945 
L 433 209.297321 
L 433 209.297321 
" style="fill:none;stroke:#440256;stroke-width:1.5;"/>
   </g>
   <g id="LineCollection_5">
    <path clip-path="url(#pda2952dc5b)" d="M 109.185279 -1 
L 269.629146 103.074783 
L 272.115768 104.672563 
L 294.304523 118.964951 
L 297.03116 120.698291 
L 312.250251 130.453823 
L 317.504853 133.810251 
L 350.384925 155.286533 
L 353.14273 157.120402 
L 370.573869 168.561193 
L 373.10848 170.232362 
L 428.897487 206.597353 
L 433 209.266066 
L 433 209.266066 
" style="fill:none;stroke:#450457;stroke-width:1.5;"/>
   </g>
   <g id="LineCollection_6">
    <path clip-path="url(#pda2952dc5b)" d="M 109.215219 -1 
L 235.980905 81.197565 
L 240.7568 84.276181 
L 265.142714 99.993187 
L 270.191496 103.215678 
L 283.088442 111.464108 
L 288.491893 114.870754 
L 296.547739 119.976769 
L 304.698599 125.068945 
L 310.007035 128.4086 
L 320.912805 135.267136 
L 341.41206 148.70179 
L 360.400011 161.491055 
L 368.330653 166.759739 
L 373.530546 170.232362 
L 386.276382 178.628695 
L 391.213187 181.887437 
L 419.924623 200.662088 
L 424.635183 203.740704 
L 433 209.189539 
L 433 209.189539 
" style="fill:none;stroke:#460b5e;stroke-width:1.5;"/>
   </g>
   <g id="LineCollection_7">
    <path clip-path="url(#pda2952dc5b)" d="M 109.288527 -1 
L 195.603015 54.929925 
L 202.698602 59.509146 
L 229.251256 76.635359 
L 236.629671 81.362412 
L 249.440201 89.57479 
L 257.162722 94.474372 
L 265.142714 99.546022 
L 275.663509 106.129447 
L 280.845226 109.365579 
L 289.951872 114.870754 
L 303.277387 116.686401 
L 314.493467 118.466717 
L 323.466332 120.08301 
L 332.439196 121.897311 
L 340.010951 123.61206 
L 348.141709 125.701029 
L 354.871357 127.64463 
L 360.422443 129.439598 
L 366.087437 131.5366 
L 370.573869 133.419676 
L 372.817085 134.471789 
L 375.060302 135.605543 
L 377.303518 136.852065 
L 379.546734 138.260609 
L 381.78995 139.914002 
L 383.183064 141.094673 
L 384.605232 142.551558 
L 385.726917 144.008442 
L 386.549863 145.465327 
L 387.068222 146.922211 
L 387.283276 148.379095 
L 387.188683 149.83598 
L 386.777926 151.292864 
L 386.040973 152.749749 
L 384.962206 154.206633 
L 383.534204 155.663518 
L 381.736798 157.120402 
L 379.544317 158.577286 
L 376.928652 160.034171 
L 372.817085 161.925173 
L 368.330653 163.65336 
L 366.181837 164.404824 
L 370.573869 167.490875 
L 381.78995 175.112216 
L 389.683464 180.430553 
L 397.492462 185.613257 
L 402.83345 189.171859 
L 415.438191 197.472954 
L 420.520396 200.826935 
L 433 209.002168 
L 433 209.002168 
" style="fill:none;stroke:#481a6c;stroke-width:1.5;"/>
   </g>
   <g id="LineCollection_8">
    <path clip-path="url(#pda2952dc5b)" d="M 433 180.638318 
L 431.140704 181.098183 
L 428.897487 181.643592 
L 427.87839 181.887437 
L 426.654271 182.166624 
L 424.411055 182.669998 
L 422.167839 183.164669 
L 421.339823 183.344322 
L 419.924623 183.637699 
L 417.681407 184.094956 
L 415.438191 184.544128 
L 414.132083 184.801206 
L 413.194975 184.977822 
L 410.951759 185.393508 
L 408.708543 185.801651 
L 406.465327 186.202297 
L 406.147564 186.25809 
L 404.222111 186.582475 
L 401.978894 186.953434 
L 401.933188 187.714975 
L 401.978894 187.744659 
L 404.071219 189.171859 
L 404.222111 189.269858 
L 406.21614 190.628744 
L 406.465327 190.790581 
L 408.367409 192.085628 
L 408.708543 192.307182 
L 410.524529 193.542513 
L 410.951759 193.819983 
L 412.687046 194.999397 
L 413.194975 195.329278 
L 414.854548 196.456281 
L 415.438191 196.835336 
L 417.026655 197.913166 
L 417.681407 198.338402 
L 419.203023 199.37005 
L 419.924623 199.838702 
L 421.383336 200.826935 
L 422.167839 201.33644 
L 423.567305 202.283819 
L 424.411055 202.831803 
L 425.754664 203.740704 
L 426.654271 204.324965 
L 427.945172 205.197588 
L 428.897487 205.816081 
L 430.138607 206.654472 
L 431.140704 207.305297 
L 432.334764 208.111357 
L 433 208.543403 
" style="fill:none;stroke:#443983;stroke-width:1.5;"/>
    <path clip-path="url(#pda2952dc5b)" d="M 109.468017 -1 
L 159.711558 31.504235 
L 169.253799 37.655879 
L 193.359799 53.186753 
L 203.228642 59.509146 
L 215.79196 67.557204 
L 228.351649 75.534874 
L 235.980905 80.374179 
L 253.926633 91.590288 
L 256.169849 92.246902 
L 271.872362 93.285124 
L 289.81809 94.724506 
L 305.520603 96.214145 
L 321.223116 97.93308 
L 336.925628 99.895039 
L 350.384925 101.78605 
L 366.087437 104.277439 
L 377.303518 106.254933 
L 391.516272 109.043216 
L 404.222111 111.84818 
L 410.951759 113.47116 
L 422.167839 116.433145 
L 431.672136 119.241407 
L 433 119.666884 
L 433 119.666884 
" style="fill:none;stroke:#443983;stroke-width:1.5;"/>
   </g>
   <g id="LineCollection_9">
    <path clip-path="url(#pda2952dc5b)" d="M 109.907486 -1 
L 135.036181 15.193015 
L 151.871926 26.000804 
L 166.441206 35.340965 
L 204.575879 59.541274 
L 206.819095 60.491548 
L 227.00804 61.100153 
L 249.440201 62.018767 
L 269.629146 63.061188 
L 289.81809 64.310552 
L 310.007035 65.773071 
L 330.19598 67.455207 
L 350.384925 69.363686 
L 368.330653 71.25945 
L 388.519598 73.634149 
L 406.465327 75.968435 
L 424.411055 78.528713 
L 433 79.841507 
L 433 79.841507 
" style="fill:none;stroke:#297a8e;stroke-width:1.5;"/>
   </g>
   <g id="LineCollection_10">
    <path clip-path="url(#pda2952dc5b)" d="M 110.996201 -1 
L 132.792965 12.772286 
L 159.711558 12.99621 
L 186.630151 13.456201 
L 213.548744 14.146162 
L 240.467337 15.069559 
L 267.38593 16.223129 
L 294.304523 17.610024 
L 321.223116 19.233454 
L 348.141709 21.096688 
L 373.647111 23.087035 
L 399.735678 25.361431 
L 424.411055 27.736028 
L 433 28.616134 
L 433 28.616134 
" style="fill:none;stroke:#fde725;stroke-width:1.5;"/>
   </g>
   <g id="line2d_15">
    <path clip-path="url(#pda2952dc5b)" d="M 54 252 
L 388.8 252 
" style="fill:none;stroke:#000000;stroke-linecap:square;stroke-width:1.5;"/>
   </g>
   <g id="line2d_16">
    <path clip-path="url(#pda2952dc5b)" d="M 54 34.56 
L 388.8 34.56 
" style="fill:none;stroke:#000000;stroke-linecap:square;stroke-width:1.5;"/>
   </g>
   <g id="line2d_17">
    <path clip-path="url(#pda2952dc5b)" d="M 54 252 
L 54 34.56 
" style="fill:none;stroke:#000000;stroke-linecap:square;stroke-width:1.5;"/>
   </g>
   <g id="line2d_18">
    <path clip-path="url(#pda2952dc5b)" d="M 388.8 252 
L 388.8 34.56 
" style="fill:none;stroke:#000000;stroke-linecap:square;stroke-width:1.5;"/>
   </g>
   <g id="line2d_19">
    <path clip-path="url(#pda2952dc5b)" d="M 333 70.8 
L 333.1116 70.8 
L 333.149971 70.825446 
L 334.932975 73.62413 
L 335.044575 73.62413 
L 335.044575 73.62413 
L 335.044575 73.62413 
L 335.044575 73.62413 
L 335.044575 73.62413 
L 335.044575 73.62413 
L 335.044575 73.62413 
L 335.044575 73.62413 
L 335.044575 73.62413 
L 335.044575 73.62413 
L 333.148481 74.239635 
L 333.148481 74.167155 
L 333.308802 74.190469 
L 333.237522 74.263115 
L 332.958141 74.437401 
L 332.909113 74.486369 
L 332.061343 75.373819 
L 332.057825 75.377322 
" style="fill:none;stroke:#1f77b4;stroke-dasharray:5.55,2.4;stroke-dashoffset:0;stroke-width:1.5;"/>
   </g>
   <g id="line2d_20">
    <path clip-path="url(#pda2952dc5b)" d="M 333 70.8 
L 332.171213 71.184142 
L 332.315376 71.102926 
L 332.315376 71.030446 
L 328.158262 73.142957 
L 326.600019 73.918765 
L 326.600019 73.918765 
L 326.600019 73.918765 
L 326.600019 73.918765 
L 326.600019 73.918765 
L 326.600019 73.918765 
L 326.600019 73.918765 
L 326.600019 73.918765 
L 326.600019 73.918765 
L 326.600019 73.918765 
L 326.600019 73.918765 
L 326.600019 73.918765 
L 326.600019 73.918765 
L 326.600019 73.918765 
L 326.600019 73.918765 
L 326.600019 73.918765 
" style="fill:none;stroke:#ff7f0e;stroke-dasharray:5.55,2.4;stroke-dashoffset:0;stroke-width:1.5;"/>
   </g>
   <g id="line2d_21">
    <path clip-path="url(#pda2952dc5b)" d="M 333 70.8 
L 332.8884 70.8 
L 332.981849 70.824511 
L 332.981849 70.824511 
L 332.981849 70.824511 
L 332.981849 70.824511 
L 332.981849 70.824511 
L 332.981849 70.824511 
L 332.981849 70.824511 
L 332.981849 70.824511 
L 332.981849 70.824511 
L 332.981849 70.824511 
L 332.981849 70.824511 
L 332.981849 70.824511 
L 332.981849 70.824511 
L 332.981849 70.824511 
L 332.981849 70.824511 
L 332.981849 70.824511 
L 332.981849 70.824511 
L 332.981849 70.824511 
" style="fill:none;stroke:#2ca02c;stroke-dasharray:5.55,2.4;stroke-dashoffset:0;stroke-width:1.5;"/>
   </g>
   <g id="line2d_22">
    <path clip-path="url(#pda2952dc5b)" d="M 333 70.8 
L 333 70.87248 
L 333 70.87248 
L 333 70.87248 
L 332.124818 71.368791 
L 330.393102 72.730242 
L 330.504702 72.730242 
L 329.922445 73.08179 
L 329.922445 73.08179 
L 329.922445 73.08179 
L 330.141339 72.930632 
L 326.147883 76.285386 
L 322.977915 78.979749 
L 322.977915 78.979749 
L 321.510217 80.211534 
L 321.621817 80.211534 
L 321.282345 80.411507 
L 321.282345 80.411507 
L 321.282345 80.411507 
L 318.914673 82.380956 
" style="fill:none;stroke:#d62728;stroke-dasharray:5.55,2.4;stroke-dashoffset:0;stroke-width:1.5;"/>
   </g>
   <g id="line2d_23">
    <path clip-path="url(#pda2952dc5b)" d="M 333 70.8 
L 332.8884 70.87248 
L 332.8884 70.87248 
L 332.8884 70.87248 
L 332.8884 70.87248 
L 332.8884 70.87248 
L 333.036409 70.798181 
L 333.036409 70.798181 
L 333.036409 70.798181 
L 333.036409 70.798181 
L 333.216822 70.856158 
L 333.216822 70.856158 
L 333.216271 70.855971 
L 333.216395 70.856011 
L 333.216395 70.856011 
L 333.216395 70.856011 
L 333.216395 70.856011 
" style="fill:none;stroke:#9467bd;stroke-dasharray:5.55,2.4;stroke-dashoffset:0;stroke-width:1.5;"/>
   </g>
   <g id="line2d_24">
    <path clip-path="url(#pda2952dc5b)" d="M 333 70.8 
L 332.8884 70.8 
L 332.8884 70.8 
L 332.8884 70.8 
L 332.8884 70.8 
L 332.8884 70.8 
L 332.8884 70.8 
L 332.8884 70.8 
L 332.8884 70.8 
L 332.8884 70.8 
L 332.8884 70.8 
L 332.8884 70.8 
L 332.8884 70.8 
L 332.8884 70.8 
L 332.8884 70.8 
L 332.8884 70.8 
L 332.8884 70.8 
L 332.8884 70.8 
L 332.8884 70.8 
L 332.8884 70.8 
" style="fill:none;stroke:#8c564b;stroke-dasharray:5.55,2.4;stroke-dashoffset:0;stroke-width:1.5;"/>
   </g>
   <g id="line2d_25">
    <path clip-path="url(#pda2952dc5b)" d="M 333 70.8 
L 333 70.87248 
L 332.911155 70.755123 
L 333.943554 71.58263 
L 333.756866 71.43635 
L 333.856669 71.515523 
L 333.856541 71.51541 
L 334.246528 71.892931 
L 334.246528 71.892931 
L 334.246528 71.892931 
L 398.201774 135.078117 
L 398.313374 135.078117 
L 398.313374 135.078117 
L 398.313374 135.078117 
L 398.313374 135.078117 
L 398.313374 135.078117 
L 398.313374 135.078117 
L 398.313374 135.078117 
L 398.313374 135.078117 
L 398.313374 135.078117 
L 398.313374 135.078117 
L 398.313374 135.078117 
" style="fill:none;stroke:#e377c2;stroke-dasharray:5.55,2.4;stroke-dashoffset:0;stroke-width:1.5;"/>
   </g>
   <g id="line2d_26">
    <path clip-path="url(#pda2952dc5b)" d="M 333 70.8 
L 333 70.87248 
L 333 70.87248 
L 333.027978 70.790377 
L 333.027978 70.790377 
L 333.027978 70.790377 
L 333.186301 71.083498 
L 336.197957 76.17441 
L 337.082291 77.69338 
L 337.082291 77.69338 
L 370.466094 134.877739 
L 370.466094 134.805259 
L 370.466094 134.805259 
L 370.466094 134.805259 
L 370.466094 134.805259 
L 370.466094 134.805259 
L 370.466094 134.805259 
" style="fill:none;stroke:#7f7f7f;stroke-dasharray:5.55,2.4;stroke-dashoffset:0;stroke-width:1.5;"/>
   </g>
   <g id="line2d_27">
    <path clip-path="url(#pda2952dc5b)" d="M 333 70.8 
L 333 70.87248 
L 333.109359 70.957911 
L 333.44707 71.315424 
L 333.408523 71.279659 
L 333.408523 71.279659 
L 334.948248 72.724498 
L 334.946842 72.723301 
L 335.520945 73.242275 
L 335.520945 73.169795 
L 335.631619 73.241419 
L 339.343938 76.796658 
L 424.208155 155.456491 
L 424.208155 155.456491 
L 424.208155 155.456491 
L 424.208155 155.456491 
L 397.229209 130.450272 
L 397.340809 130.450272 
L 397.340809 130.450272 
L 397.340809 130.450272 
" style="fill:none;stroke:#bcbd22;stroke-dasharray:5.55,2.4;stroke-dashoffset:0;stroke-width:1.5;"/>
   </g>
   <g id="line2d_28">
    <path clip-path="url(#pda2952dc5b)" d="M 333 70.8 
L 332.8884 70.8 
L 332.996474 70.810423 
L 332.996474 70.810423 
L 332.996474 70.810423 
L 332.996474 70.810423 
L 332.996474 70.810423 
L 332.996474 70.810423 
L 332.996474 70.810423 
L 332.996474 70.810423 
L 332.996474 70.810423 
L 332.996474 70.810423 
L 332.996474 70.810423 
L 332.996474 70.810423 
L 316.388198 77.068093 
L 316.388198 77.068093 
L 316.388198 77.068093 
L 301.684053 82.635945 
L 301.710376 82.625981 
" style="fill:none;stroke:#17becf;stroke-dasharray:5.55,2.4;stroke-dashoffset:0;stroke-width:1.5;"/>
   </g>
   <g id="patch_3">
    <path d="M 54 252 
L 54 34.56 
" style="fill:none;stroke:#000000;stroke-linecap:square;stroke-linejoin:miter;stroke-width:0.8;"/>
   </g>
   <g id="patch_4">
    <path d="M 388.8 252 
L 388.8 34.56 
" style="fill:none;stroke:#000000;stroke-linecap:square;stroke-linejoin:miter;stroke-width:0.8;"/>
   </g>
   <g id="patch_5">
    <path d="M 54 252 
L 388.8 252 
" style="fill:none;stroke:#000000;stroke-linecap:square;stroke-linejoin:miter;stroke-width:0.8;"/>
   </g>
   <g id="patch_6">
    <path d="M 54 34.56 
L 388.8 34.56 
" style="fill:none;stroke:#000000;stroke-linecap:square;stroke-linejoin:miter;stroke-width:0.8;"/>
   </g>
   <g id="legend_1">
    <g id="patch_7">
     <path d="M 61 189.34125 
L 126.071875 189.34125 
Q 128.071875 189.34125 128.071875 187.34125 
L 128.071875 41.56 
Q 128.071875 39.56 126.071875 39.56 
L 61 39.56 
Q 59 39.56 59 41.56 
L 59 187.34125 
Q 59 189.34125 61 189.34125 
z
" style="fill:#ffffff;opacity:0.8;stroke:#cccccc;stroke-linejoin:miter;"/>
    </g>
    <g id="line2d_29">
     <path d="M 63 47.658437 
L 83 47.658437 
" style="fill:none;stroke:#1f77b4;stroke-dasharray:5.55,2.4;stroke-dashoffset:0;stroke-width:1.5;"/>
    </g>
    <g id="line2d_30"/>
    <g id="text_17">
     <!-- BFGS0 -->
     <g transform="translate(91 51.158437)scale(0.1 -0.1)">
      <defs>
       <path d="M 19.671875 34.8125 
L 19.671875 8.109375 
L 35.5 8.109375 
Q 43.453125 8.109375 47.28125 11.40625 
Q 51.125 14.703125 51.125 21.484375 
Q 51.125 28.328125 47.28125 31.5625 
Q 43.453125 34.8125 35.5 34.8125 
z
M 19.671875 64.796875 
L 19.671875 42.828125 
L 34.28125 42.828125 
Q 41.5 42.828125 45.03125 45.53125 
Q 48.578125 48.25 48.578125 53.8125 
Q 48.578125 59.328125 45.03125 62.0625 
Q 41.5 64.796875 34.28125 64.796875 
z
M 9.8125 72.90625 
L 35.015625 72.90625 
Q 46.296875 72.90625 52.390625 68.21875 
Q 58.5 63.53125 58.5 54.890625 
Q 58.5 48.1875 55.375 44.234375 
Q 52.25 40.28125 46.1875 39.3125 
Q 53.46875 37.75 57.5 32.78125 
Q 61.53125 27.828125 61.53125 20.40625 
Q 61.53125 10.640625 54.890625 5.3125 
Q 48.25 0 35.984375 0 
L 9.8125 0 
z
" id="DejaVuSans-66"/>
       <path d="M 9.8125 72.90625 
L 51.703125 72.90625 
L 51.703125 64.59375 
L 19.671875 64.59375 
L 19.671875 43.109375 
L 48.578125 43.109375 
L 48.578125 34.8125 
L 19.671875 34.8125 
L 19.671875 0 
L 9.8125 0 
z
" id="DejaVuSans-70"/>
       <path d="M 59.515625 10.40625 
L 59.515625 29.984375 
L 43.40625 29.984375 
L 43.40625 38.09375 
L 69.28125 38.09375 
L 69.28125 6.78125 
Q 63.578125 2.734375 56.6875 0.65625 
Q 49.8125 -1.421875 42 -1.421875 
Q 24.90625 -1.421875 15.25 8.5625 
Q 5.609375 18.5625 5.609375 36.375 
Q 5.609375 54.25 15.25 64.234375 
Q 24.90625 74.21875 42 74.21875 
Q 49.125 74.21875 55.546875 72.453125 
Q 61.96875 70.703125 67.390625 67.28125 
L 67.390625 56.78125 
Q 61.921875 61.421875 55.765625 63.765625 
Q 49.609375 66.109375 42.828125 66.109375 
Q 29.4375 66.109375 22.71875 58.640625 
Q 16.015625 51.171875 16.015625 36.375 
Q 16.015625 21.625 22.71875 14.15625 
Q 29.4375 6.6875 42.828125 6.6875 
Q 48.046875 6.6875 52.140625 7.59375 
Q 56.25 8.5 59.515625 10.40625 
z
" id="DejaVuSans-71"/>
       <path d="M 53.515625 70.515625 
L 53.515625 60.890625 
Q 47.90625 63.578125 42.921875 64.890625 
Q 37.9375 66.21875 33.296875 66.21875 
Q 25.25 66.21875 20.875 63.09375 
Q 16.5 59.96875 16.5 54.203125 
Q 16.5 49.359375 19.40625 46.890625 
Q 22.3125 44.4375 30.421875 42.921875 
L 36.375 41.703125 
Q 47.40625 39.59375 52.65625 34.296875 
Q 57.90625 29 57.90625 20.125 
Q 57.90625 9.515625 50.796875 4.046875 
Q 43.703125 -1.421875 29.984375 -1.421875 
Q 24.8125 -1.421875 18.96875 -0.25 
Q 13.140625 0.921875 6.890625 3.21875 
L 6.890625 13.375 
Q 12.890625 10.015625 18.65625 8.296875 
Q 24.421875 6.59375 29.984375 6.59375 
Q 38.421875 6.59375 43.015625 9.90625 
Q 47.609375 13.234375 47.609375 19.390625 
Q 47.609375 24.75 44.3125 27.78125 
Q 41.015625 30.8125 33.5 32.328125 
L 27.484375 33.5 
Q 16.453125 35.6875 11.515625 40.375 
Q 6.59375 45.0625 6.59375 53.421875 
Q 6.59375 63.09375 13.40625 68.65625 
Q 20.21875 74.21875 32.171875 74.21875 
Q 37.3125 74.21875 42.625 73.28125 
Q 47.953125 72.359375 53.515625 70.515625 
z
" id="DejaVuSans-83"/>
      </defs>
      <use xlink:href="#DejaVuSans-66"/>
      <use x="68.603516" xlink:href="#DejaVuSans-70"/>
      <use x="126.123047" xlink:href="#DejaVuSans-71"/>
      <use x="203.613281" xlink:href="#DejaVuSans-83"/>
      <use x="267.089844" xlink:href="#DejaVuSans-48"/>
     </g>
    </g>
    <g id="line2d_31">
     <path d="M 63 62.336563 
L 83 62.336563 
" style="fill:none;stroke:#ff7f0e;stroke-dasharray:5.55,2.4;stroke-dashoffset:0;stroke-width:1.5;"/>
    </g>
    <g id="line2d_32"/>
    <g id="text_18">
     <!-- BFGS1 -->
     <g transform="translate(91 65.836563)scale(0.1 -0.1)">
      <use xlink:href="#DejaVuSans-66"/>
      <use x="68.603516" xlink:href="#DejaVuSans-70"/>
      <use x="126.123047" xlink:href="#DejaVuSans-71"/>
      <use x="203.613281" xlink:href="#DejaVuSans-83"/>
      <use x="267.089844" xlink:href="#DejaVuSans-49"/>
     </g>
    </g>
    <g id="line2d_33">
     <path d="M 63 77.014688 
L 83 77.014688 
" style="fill:none;stroke:#2ca02c;stroke-dasharray:5.55,2.4;stroke-dashoffset:0;stroke-width:1.5;"/>
    </g>
    <g id="line2d_34"/>
    <g id="text_19">
     <!-- BFGS2 -->
     <g transform="translate(91 80.514688)scale(0.1 -0.1)">
      <use xlink:href="#DejaVuSans-66"/>
      <use x="68.603516" xlink:href="#DejaVuSans-70"/>
      <use x="126.123047" xlink:href="#DejaVuSans-71"/>
      <use x="203.613281" xlink:href="#DejaVuSans-83"/>
      <use x="267.089844" xlink:href="#DejaVuSans-50"/>
     </g>
    </g>
    <g id="line2d_35">
     <path d="M 63 91.692813 
L 83 91.692813 
" style="fill:none;stroke:#d62728;stroke-dasharray:5.55,2.4;stroke-dashoffset:0;stroke-width:1.5;"/>
    </g>
    <g id="line2d_36"/>
    <g id="text_20">
     <!-- BFGS3 -->
     <g transform="translate(91 95.192813)scale(0.1 -0.1)">
      <defs>
       <path d="M 40.578125 39.3125 
Q 47.65625 37.796875 51.625 33 
Q 55.609375 28.21875 55.609375 21.1875 
Q 55.609375 10.40625 48.1875 4.484375 
Q 40.765625 -1.421875 27.09375 -1.421875 
Q 22.515625 -1.421875 17.65625 -0.515625 
Q 12.796875 0.390625 7.625 2.203125 
L 7.625 11.71875 
Q 11.71875 9.328125 16.59375 8.109375 
Q 21.484375 6.890625 26.8125 6.890625 
Q 36.078125 6.890625 40.9375 10.546875 
Q 45.796875 14.203125 45.796875 21.1875 
Q 45.796875 27.640625 41.28125 31.265625 
Q 36.765625 34.90625 28.71875 34.90625 
L 20.21875 34.90625 
L 20.21875 43.015625 
L 29.109375 43.015625 
Q 36.375 43.015625 40.234375 45.921875 
Q 44.09375 48.828125 44.09375 54.296875 
Q 44.09375 59.90625 40.109375 62.90625 
Q 36.140625 65.921875 28.71875 65.921875 
Q 24.65625 65.921875 20.015625 65.03125 
Q 15.375 64.15625 9.8125 62.3125 
L 9.8125 71.09375 
Q 15.4375 72.65625 20.34375 73.4375 
Q 25.25 74.21875 29.59375 74.21875 
Q 40.828125 74.21875 47.359375 69.109375 
Q 53.90625 64.015625 53.90625 55.328125 
Q 53.90625 49.265625 50.4375 45.09375 
Q 46.96875 40.921875 40.578125 39.3125 
z
" id="DejaVuSans-51"/>
      </defs>
      <use xlink:href="#DejaVuSans-66"/>
      <use x="68.603516" xlink:href="#DejaVuSans-70"/>
      <use x="126.123047" xlink:href="#DejaVuSans-71"/>
      <use x="203.613281" xlink:href="#DejaVuSans-83"/>
      <use x="267.089844" xlink:href="#DejaVuSans-51"/>
     </g>
    </g>
    <g id="line2d_37">
     <path d="M 63 106.370938 
L 83 106.370938 
" style="fill:none;stroke:#9467bd;stroke-dasharray:5.55,2.4;stroke-dashoffset:0;stroke-width:1.5;"/>
    </g>
    <g id="line2d_38"/>
    <g id="text_21">
     <!-- BFGS4 -->
     <g transform="translate(91 109.870938)scale(0.1 -0.1)">
      <defs>
       <path d="M 37.796875 64.3125 
L 12.890625 25.390625 
L 37.796875 25.390625 
z
M 35.203125 72.90625 
L 47.609375 72.90625 
L 47.609375 25.390625 
L 58.015625 25.390625 
L 58.015625 17.1875 
L 47.609375 17.1875 
L 47.609375 0 
L 37.796875 0 
L 37.796875 17.1875 
L 4.890625 17.1875 
L 4.890625 26.703125 
z
" id="DejaVuSans-52"/>
      </defs>
      <use xlink:href="#DejaVuSans-66"/>
      <use x="68.603516" xlink:href="#DejaVuSans-70"/>
      <use x="126.123047" xlink:href="#DejaVuSans-71"/>
      <use x="203.613281" xlink:href="#DejaVuSans-83"/>
      <use x="267.089844" xlink:href="#DejaVuSans-52"/>
     </g>
    </g>
    <g id="line2d_39">
     <path d="M 63 121.049062 
L 83 121.049062 
" style="fill:none;stroke:#8c564b;stroke-dasharray:5.55,2.4;stroke-dashoffset:0;stroke-width:1.5;"/>
    </g>
    <g id="line2d_40"/>
    <g id="text_22">
     <!-- BFGS5 -->
     <g transform="translate(91 124.549062)scale(0.1 -0.1)">
      <use xlink:href="#DejaVuSans-66"/>
      <use x="68.603516" xlink:href="#DejaVuSans-70"/>
      <use x="126.123047" xlink:href="#DejaVuSans-71"/>
      <use x="203.613281" xlink:href="#DejaVuSans-83"/>
      <use x="267.089844" xlink:href="#DejaVuSans-53"/>
     </g>
    </g>
    <g id="line2d_41">
     <path d="M 63 135.727188 
L 83 135.727188 
" style="fill:none;stroke:#e377c2;stroke-dasharray:5.55,2.4;stroke-dashoffset:0;stroke-width:1.5;"/>
    </g>
    <g id="line2d_42"/>
    <g id="text_23">
     <!-- BFGS6 -->
     <g transform="translate(91 139.227188)scale(0.1 -0.1)">
      <defs>
       <path d="M 33.015625 40.375 
Q 26.375 40.375 22.484375 35.828125 
Q 18.609375 31.296875 18.609375 23.390625 
Q 18.609375 15.53125 22.484375 10.953125 
Q 26.375 6.390625 33.015625 6.390625 
Q 39.65625 6.390625 43.53125 10.953125 
Q 47.40625 15.53125 47.40625 23.390625 
Q 47.40625 31.296875 43.53125 35.828125 
Q 39.65625 40.375 33.015625 40.375 
z
M 52.59375 71.296875 
L 52.59375 62.3125 
Q 48.875 64.0625 45.09375 64.984375 
Q 41.3125 65.921875 37.59375 65.921875 
Q 27.828125 65.921875 22.671875 59.328125 
Q 17.53125 52.734375 16.796875 39.40625 
Q 19.671875 43.65625 24.015625 45.921875 
Q 28.375 48.1875 33.59375 48.1875 
Q 44.578125 48.1875 50.953125 41.515625 
Q 57.328125 34.859375 57.328125 23.390625 
Q 57.328125 12.15625 50.6875 5.359375 
Q 44.046875 -1.421875 33.015625 -1.421875 
Q 20.359375 -1.421875 13.671875 8.265625 
Q 6.984375 17.96875 6.984375 36.375 
Q 6.984375 53.65625 15.1875 63.9375 
Q 23.390625 74.21875 37.203125 74.21875 
Q 40.921875 74.21875 44.703125 73.484375 
Q 48.484375 72.75 52.59375 71.296875 
z
" id="DejaVuSans-54"/>
      </defs>
      <use xlink:href="#DejaVuSans-66"/>
      <use x="68.603516" xlink:href="#DejaVuSans-70"/>
      <use x="126.123047" xlink:href="#DejaVuSans-71"/>
      <use x="203.613281" xlink:href="#DejaVuSans-83"/>
      <use x="267.089844" xlink:href="#DejaVuSans-54"/>
     </g>
    </g>
    <g id="line2d_43">
     <path d="M 63 150.405312 
L 83 150.405312 
" style="fill:none;stroke:#7f7f7f;stroke-dasharray:5.55,2.4;stroke-dashoffset:0;stroke-width:1.5;"/>
    </g>
    <g id="line2d_44"/>
    <g id="text_24">
     <!-- BFGS7 -->
     <g transform="translate(91 153.905312)scale(0.1 -0.1)">
      <defs>
       <path d="M 8.203125 72.90625 
L 55.078125 72.90625 
L 55.078125 68.703125 
L 28.609375 0 
L 18.3125 0 
L 43.21875 64.59375 
L 8.203125 64.59375 
z
" id="DejaVuSans-55"/>
      </defs>
      <use xlink:href="#DejaVuSans-66"/>
      <use x="68.603516" xlink:href="#DejaVuSans-70"/>
      <use x="126.123047" xlink:href="#DejaVuSans-71"/>
      <use x="203.613281" xlink:href="#DejaVuSans-83"/>
      <use x="267.089844" xlink:href="#DejaVuSans-55"/>
     </g>
    </g>
    <g id="line2d_45">
     <path d="M 63 165.083438 
L 83 165.083438 
" style="fill:none;stroke:#bcbd22;stroke-dasharray:5.55,2.4;stroke-dashoffset:0;stroke-width:1.5;"/>
    </g>
    <g id="line2d_46"/>
    <g id="text_25">
     <!-- BFGS8 -->
     <g transform="translate(91 168.583438)scale(0.1 -0.1)">
      <defs>
       <path d="M 31.78125 34.625 
Q 24.75 34.625 20.71875 30.859375 
Q 16.703125 27.09375 16.703125 20.515625 
Q 16.703125 13.921875 20.71875 10.15625 
Q 24.75 6.390625 31.78125 6.390625 
Q 38.8125 6.390625 42.859375 10.171875 
Q 46.921875 13.96875 46.921875 20.515625 
Q 46.921875 27.09375 42.890625 30.859375 
Q 38.875 34.625 31.78125 34.625 
z
M 21.921875 38.8125 
Q 15.578125 40.375 12.03125 44.71875 
Q 8.5 49.078125 8.5 55.328125 
Q 8.5 64.0625 14.71875 69.140625 
Q 20.953125 74.21875 31.78125 74.21875 
Q 42.671875 74.21875 48.875 69.140625 
Q 55.078125 64.0625 55.078125 55.328125 
Q 55.078125 49.078125 51.53125 44.71875 
Q 48 40.375 41.703125 38.8125 
Q 48.828125 37.15625 52.796875 32.3125 
Q 56.78125 27.484375 56.78125 20.515625 
Q 56.78125 9.90625 50.3125 4.234375 
Q 43.84375 -1.421875 31.78125 -1.421875 
Q 19.734375 -1.421875 13.25 4.234375 
Q 6.78125 9.90625 6.78125 20.515625 
Q 6.78125 27.484375 10.78125 32.3125 
Q 14.796875 37.15625 21.921875 38.8125 
z
M 18.3125 54.390625 
Q 18.3125 48.734375 21.84375 45.5625 
Q 25.390625 42.390625 31.78125 42.390625 
Q 38.140625 42.390625 41.71875 45.5625 
Q 45.3125 48.734375 45.3125 54.390625 
Q 45.3125 60.0625 41.71875 63.234375 
Q 38.140625 66.40625 31.78125 66.40625 
Q 25.390625 66.40625 21.84375 63.234375 
Q 18.3125 60.0625 18.3125 54.390625 
z
" id="DejaVuSans-56"/>
      </defs>
      <use xlink:href="#DejaVuSans-66"/>
      <use x="68.603516" xlink:href="#DejaVuSans-70"/>
      <use x="126.123047" xlink:href="#DejaVuSans-71"/>
      <use x="203.613281" xlink:href="#DejaVuSans-83"/>
      <use x="267.089844" xlink:href="#DejaVuSans-56"/>
     </g>
    </g>
    <g id="line2d_47">
     <path d="M 63 179.761562 
L 83 179.761562 
" style="fill:none;stroke:#17becf;stroke-dasharray:5.55,2.4;stroke-dashoffset:0;stroke-width:1.5;"/>
    </g>
    <g id="line2d_48"/>
    <g id="text_26">
     <!-- BFGS9 -->
     <g transform="translate(91 183.261562)scale(0.1 -0.1)">
      <defs>
       <path d="M 10.984375 1.515625 
L 10.984375 10.5 
Q 14.703125 8.734375 18.5 7.8125 
Q 22.3125 6.890625 25.984375 6.890625 
Q 35.75 6.890625 40.890625 13.453125 
Q 46.046875 20.015625 46.78125 33.40625 
Q 43.953125 29.203125 39.59375 26.953125 
Q 35.25 24.703125 29.984375 24.703125 
Q 19.046875 24.703125 12.671875 31.3125 
Q 6.296875 37.9375 6.296875 49.421875 
Q 6.296875 60.640625 12.9375 67.421875 
Q 19.578125 74.21875 30.609375 74.21875 
Q 43.265625 74.21875 49.921875 64.515625 
Q 56.59375 54.828125 56.59375 36.375 
Q 56.59375 19.140625 48.40625 8.859375 
Q 40.234375 -1.421875 26.421875 -1.421875 
Q 22.703125 -1.421875 18.890625 -0.6875 
Q 15.09375 0.046875 10.984375 1.515625 
z
M 30.609375 32.421875 
Q 37.25 32.421875 41.125 36.953125 
Q 45.015625 41.5 45.015625 49.421875 
Q 45.015625 57.28125 41.125 61.84375 
Q 37.25 66.40625 30.609375 66.40625 
Q 23.96875 66.40625 20.09375 61.84375 
Q 16.21875 57.28125 16.21875 49.421875 
Q 16.21875 41.5 20.09375 36.953125 
Q 23.96875 32.421875 30.609375 32.421875 
z
" id="DejaVuSans-57"/>
      </defs>
      <use xlink:href="#DejaVuSans-66"/>
      <use x="68.603516" xlink:href="#DejaVuSans-70"/>
      <use x="126.123047" xlink:href="#DejaVuSans-71"/>
      <use x="203.613281" xlink:href="#DejaVuSans-83"/>
      <use x="267.089844" xlink:href="#DejaVuSans-57"/>
     </g>
    </g>
   </g>
  </g>
 </g>
 <defs>
  <clipPath id="pda2952dc5b">
   <rect height="217.44" width="334.8" x="54" y="34.56"/>
  </clipPath>
 </defs>
</svg>
