<?xml version="1.0" encoding="utf-8" standalone="no"?>
<!DOCTYPE svg PUBLIC "-//W3C//DTD SVG 1.1//EN"
  "http://www.w3.org/Graphics/SVG/1.1/DTD/svg11.dtd">
<!-- Created with matplotlib (https://matplotlib.org/) -->
<svg height="288pt" version="1.1" viewBox="0 0 432 288" width="432pt" xmlns="http://www.w3.org/2000/svg" xmlns:xlink="http://www.w3.org/1999/xlink">
 <metadata>
  <rdf:RDF xmlns:cc="http://creativecommons.org/ns#" xmlns:dc="http://purl.org/dc/elements/1.1/" xmlns:rdf="http://www.w3.org/1999/02/22-rdf-syntax-ns#">
   <cc:Work>
    <dc:type rdf:resource="http://purl.org/dc/dcmitype/StillImage"/>
    <dc:date>2021-04-24T19:20:50.832170</dc:date>
    <dc:format>image/svg+xml</dc:format>
    <dc:creator>
     <cc:Agent>
      <dc:title>Matplotlib v3.3.4, https://matplotlib.org/</dc:title>
     </cc:Agent>
    </dc:creator>
   </cc:Work>
  </rdf:RDF>
 </metadata>
 <defs>
  <style type="text/css">*{stroke-linecap:butt;stroke-linejoin:round;}</style>
 </defs>
 <g id="figure_1">
  <g id="patch_1">
   <path d="M 0 288 
L 432 288 
L 432 0 
L 0 0 
z
" style="fill:#ffffff;"/>
  </g>
  <g id="axes_1">
   <g id="patch_2">
    <path d="M 54 252 
L 388.8 252 
L 388.8 34.56 
L 54 34.56 
z
" style="fill:#ffffff;"/>
   </g>
   <g id="matplotlib.axis_1">
    <g id="xtick_1">
     <g id="line2d_1">
      <defs>
       <path d="M 0 0 
L 0 3.5 
" id="m3c8979b525" style="stroke:#000000;stroke-width:0.8;"/>
      </defs>
      <g>
       <use style="stroke:#000000;stroke-width:0.8;" x="59.995041" xlink:href="#m3c8979b525" y="252"/>
      </g>
     </g>
     <g id="text_1">
      <!-- 0 -->
      <g transform="translate(56.245041 269.415625)scale(0.15 -0.15)">
       <defs>
        <path d="M 3.609375 32.71875 
Q 3.609375 44.046875 7.03125 52.21875 
Q 10.453125 60.40625 16.109375 64.40625 
Q 20.515625 67.578125 25.203125 67.578125 
Q 32.8125 67.578125 38.875 59.8125 
Q 46.4375 50.203125 46.4375 33.734375 
Q 46.4375 22.21875 43.109375 14.15625 
Q 39.796875 6.109375 34.640625 2.46875 
Q 29.5 -1.171875 24.703125 -1.171875 
Q 15.234375 -1.171875 8.9375 10.015625 
Q 3.609375 19.4375 3.609375 32.71875 
z
M 13.1875 31.5 
Q 13.1875 17.828125 16.546875 9.1875 
Q 19.34375 1.90625 24.859375 1.90625 
Q 27.484375 1.90625 30.3125 4.265625 
Q 33.15625 6.640625 34.625 12.203125 
Q 36.859375 20.609375 36.859375 35.890625 
Q 36.859375 47.21875 34.515625 54.78125 
Q 32.765625 60.40625 29.984375 62.75 
Q 27.984375 64.359375 25.140625 64.359375 
Q 21.828125 64.359375 19.234375 61.375 
Q 15.71875 57.328125 14.453125 48.625 
Q 13.1875 39.9375 13.1875 31.5 
z
" id="TimesNewRomanPSMT-48"/>
       </defs>
       <use xlink:href="#TimesNewRomanPSMT-48"/>
      </g>
     </g>
    </g>
    <g id="xtick_2">
     <g id="line2d_2">
      <g>
       <use style="stroke:#000000;stroke-width:0.8;" x="121.482645" xlink:href="#m3c8979b525" y="252"/>
      </g>
     </g>
     <g id="text_2">
      <!-- 20 -->
      <g transform="translate(113.982645 269.415625)scale(0.15 -0.15)">
       <defs>
        <path d="M 45.84375 12.75 
L 41.21875 0 
L 2.15625 0 
L 2.15625 1.8125 
Q 19.390625 17.53125 26.421875 27.484375 
Q 33.453125 37.453125 33.453125 45.703125 
Q 33.453125 52 29.59375 56.046875 
Q 25.734375 60.109375 20.359375 60.109375 
Q 15.484375 60.109375 11.59375 57.25 
Q 7.71875 54.390625 5.859375 48.875 
L 4.046875 48.875 
Q 5.28125 57.90625 10.328125 62.734375 
Q 15.375 67.578125 22.953125 67.578125 
Q 31 67.578125 36.390625 62.40625 
Q 41.796875 57.234375 41.796875 50.203125 
Q 41.796875 45.171875 39.453125 40.140625 
Q 35.84375 32.234375 27.734375 23.390625 
Q 15.578125 10.109375 12.546875 7.375 
L 29.828125 7.375 
Q 35.109375 7.375 37.234375 7.765625 
Q 39.359375 8.15625 41.0625 9.34375 
Q 42.78125 10.546875 44.046875 12.75 
z
" id="TimesNewRomanPSMT-50"/>
       </defs>
       <use xlink:href="#TimesNewRomanPSMT-50"/>
       <use x="50" xlink:href="#TimesNewRomanPSMT-48"/>
      </g>
     </g>
    </g>
    <g id="xtick_3">
     <g id="line2d_3">
      <g>
       <use style="stroke:#000000;stroke-width:0.8;" x="182.970248" xlink:href="#m3c8979b525" y="252"/>
      </g>
     </g>
     <g id="text_3">
      <!-- 40 -->
      <g transform="translate(175.470248 269.415625)scale(0.15 -0.15)">
       <defs>
        <path d="M 46.53125 24.421875 
L 46.53125 17.484375 
L 37.640625 17.484375 
L 37.640625 0 
L 29.59375 0 
L 29.59375 17.484375 
L 1.5625 17.484375 
L 1.5625 23.734375 
L 32.28125 67.578125 
L 37.640625 67.578125 
L 37.640625 24.421875 
z
M 29.59375 24.421875 
L 29.59375 57.28125 
L 6.34375 24.421875 
z
" id="TimesNewRomanPSMT-52"/>
       </defs>
       <use xlink:href="#TimesNewRomanPSMT-52"/>
       <use x="50" xlink:href="#TimesNewRomanPSMT-48"/>
      </g>
     </g>
    </g>
    <g id="xtick_4">
     <g id="line2d_4">
      <g>
       <use style="stroke:#000000;stroke-width:0.8;" x="244.457851" xlink:href="#m3c8979b525" y="252"/>
      </g>
     </g>
     <g id="text_4">
      <!-- 60 -->
      <g transform="translate(236.957851 269.415625)scale(0.15 -0.15)">
       <defs>
        <path d="M 44.828125 67.578125 
L 44.828125 65.765625 
Q 38.375 65.140625 34.296875 63.203125 
Q 30.21875 61.28125 26.234375 57.328125 
Q 22.265625 53.375 19.65625 48.515625 
Q 17.046875 43.65625 15.28125 36.96875 
Q 22.3125 41.796875 29.390625 41.796875 
Q 36.1875 41.796875 41.15625 36.328125 
Q 46.140625 30.859375 46.140625 22.265625 
Q 46.140625 13.96875 41.109375 7.125 
Q 35.0625 -1.171875 25.09375 -1.171875 
Q 18.3125 -1.171875 13.578125 3.328125 
Q 4.296875 12.0625 4.296875 25.984375 
Q 4.296875 34.859375 7.859375 42.859375 
Q 11.421875 50.875 18.03125 57.078125 
Q 24.65625 63.28125 30.703125 65.421875 
Q 36.765625 67.578125 42 67.578125 
z
M 14.453125 33.40625 
Q 13.578125 26.8125 13.578125 22.75 
Q 13.578125 18.0625 15.3125 12.5625 
Q 17.046875 7.078125 20.453125 3.859375 
Q 22.953125 1.5625 26.515625 1.5625 
Q 30.765625 1.5625 34.109375 5.5625 
Q 37.453125 9.578125 37.453125 17 
Q 37.453125 25.34375 34.125 31.4375 
Q 30.8125 37.546875 24.703125 37.546875 
Q 22.859375 37.546875 20.734375 36.765625 
Q 18.609375 35.984375 14.453125 33.40625 
z
" id="TimesNewRomanPSMT-54"/>
       </defs>
       <use xlink:href="#TimesNewRomanPSMT-54"/>
       <use x="50" xlink:href="#TimesNewRomanPSMT-48"/>
      </g>
     </g>
    </g>
    <g id="xtick_5">
     <g id="line2d_5">
      <g>
       <use style="stroke:#000000;stroke-width:0.8;" x="305.945455" xlink:href="#m3c8979b525" y="252"/>
      </g>
     </g>
     <g id="text_5">
      <!-- 80 -->
      <g transform="translate(298.445455 269.415625)scale(0.15 -0.15)">
       <defs>
        <path d="M 19.1875 33.34375 
Q 11.328125 39.796875 9.046875 43.703125 
Q 6.78125 47.609375 6.78125 51.8125 
Q 6.78125 58.25 11.765625 62.90625 
Q 16.75 67.578125 25 67.578125 
Q 33.015625 67.578125 37.890625 63.234375 
Q 42.78125 58.890625 42.78125 53.328125 
Q 42.78125 49.609375 40.140625 45.75 
Q 37.5 41.890625 29.15625 36.671875 
Q 37.75 30.03125 40.53125 26.21875 
Q 44.234375 21.234375 44.234375 15.71875 
Q 44.234375 8.734375 38.90625 3.78125 
Q 33.59375 -1.171875 24.953125 -1.171875 
Q 15.53125 -1.171875 10.25 4.734375 
Q 6.0625 9.46875 6.0625 15.09375 
Q 6.0625 19.484375 9.015625 23.796875 
Q 11.96875 28.125 19.1875 33.34375 
z
M 26.859375 38.578125 
Q 32.71875 43.84375 34.28125 46.890625 
Q 35.84375 49.953125 35.84375 53.8125 
Q 35.84375 58.9375 32.953125 61.84375 
Q 30.078125 64.75 25.09375 64.75 
Q 20.125 64.75 17 61.859375 
Q 13.875 58.984375 13.875 55.125 
Q 13.875 52.59375 15.15625 50.046875 
Q 16.453125 47.515625 18.84375 45.21875 
z
M 21.484375 31.5 
Q 17.4375 28.078125 15.484375 24.046875 
Q 13.53125 20.015625 13.53125 15.328125 
Q 13.53125 9.03125 16.96875 5.25 
Q 20.40625 1.46875 25.734375 1.46875 
Q 31 1.46875 34.171875 4.4375 
Q 37.359375 7.421875 37.359375 11.671875 
Q 37.359375 15.1875 35.5 17.96875 
Q 32.03125 23.140625 21.484375 31.5 
z
" id="TimesNewRomanPSMT-56"/>
       </defs>
       <use xlink:href="#TimesNewRomanPSMT-56"/>
       <use x="50" xlink:href="#TimesNewRomanPSMT-48"/>
      </g>
     </g>
    </g>
    <g id="xtick_6">
     <g id="line2d_6">
      <g>
       <use style="stroke:#000000;stroke-width:0.8;" x="367.433058" xlink:href="#m3c8979b525" y="252"/>
      </g>
     </g>
     <g id="text_6">
      <!-- 100 -->
      <g transform="translate(356.183058 269.415625)scale(0.15 -0.15)">
       <defs>
        <path d="M 11.71875 59.71875 
L 27.828125 67.578125 
L 29.4375 67.578125 
L 29.4375 11.671875 
Q 29.4375 6.109375 29.90625 4.734375 
Q 30.375 3.375 31.828125 2.640625 
Q 33.296875 1.90625 37.796875 1.8125 
L 37.796875 0 
L 12.890625 0 
L 12.890625 1.8125 
Q 17.578125 1.90625 18.9375 2.609375 
Q 20.3125 3.328125 20.84375 4.515625 
Q 21.390625 5.71875 21.390625 11.671875 
L 21.390625 47.40625 
Q 21.390625 54.640625 20.90625 56.6875 
Q 20.5625 58.25 19.65625 58.984375 
Q 18.75 59.71875 17.484375 59.71875 
Q 15.671875 59.71875 12.453125 58.203125 
z
" id="TimesNewRomanPSMT-49"/>
       </defs>
       <use xlink:href="#TimesNewRomanPSMT-49"/>
       <use x="50" xlink:href="#TimesNewRomanPSMT-48"/>
       <use x="100" xlink:href="#TimesNewRomanPSMT-48"/>
      </g>
     </g>
    </g>
    <g id="text_7">
     <!-- Nbr. of function evaluations -->
     <g transform="translate(137.25 287.039844)scale(0.15 -0.15)">
      <defs>
       <path d="M -1.3125 66.21875 
L 16.65625 66.21875 
L 57.125 16.546875 
L 57.125 54.734375 
Q 57.125 60.84375 55.765625 62.359375 
Q 53.953125 64.40625 50.046875 64.40625 
L 47.75 64.40625 
L 47.75 66.21875 
L 70.796875 66.21875 
L 70.796875 64.40625 
L 68.453125 64.40625 
Q 64.265625 64.40625 62.5 61.859375 
Q 61.421875 60.296875 61.421875 54.734375 
L 61.421875 -1.078125 
L 59.671875 -1.078125 
L 16.015625 52.25 
L 16.015625 11.46875 
Q 16.015625 5.375 17.328125 3.859375 
Q 19.1875 1.8125 23.046875 1.8125 
L 25.390625 1.8125 
L 25.390625 0 
L 2.34375 0 
L 2.34375 1.8125 
L 4.640625 1.8125 
Q 8.890625 1.8125 10.640625 4.34375 
Q 11.71875 5.90625 11.71875 11.46875 
L 11.71875 57.515625 
Q 8.84375 60.890625 7.34375 61.953125 
Q 5.859375 63.03125 2.984375 63.96875 
Q 1.5625 64.40625 -1.3125 64.40625 
z
" id="TimesNewRomanPSMT-78"/>
       <path d="M 15.375 37.015625 
Q 21.875 46.046875 29.390625 46.046875 
Q 36.28125 46.046875 41.40625 40.15625 
Q 46.53125 34.28125 46.53125 24.078125 
Q 46.53125 12.15625 38.625 4.890625 
Q 31.84375 -1.375 23.484375 -1.375 
Q 19.578125 -1.375 15.546875 0.046875 
Q 11.53125 1.46875 7.328125 4.296875 
L 7.328125 50.640625 
Q 7.328125 58.25 6.953125 60 
Q 6.59375 61.765625 5.8125 62.390625 
Q 5.03125 63.03125 3.859375 63.03125 
Q 2.484375 63.03125 0.4375 62.25 
L -0.25 63.96875 
L 13.1875 69.4375 
L 15.375 69.4375 
z
M 15.375 33.890625 
L 15.375 7.125 
Q 17.875 4.6875 20.53125 3.4375 
Q 23.1875 2.203125 25.984375 2.203125 
Q 30.421875 2.203125 34.25 7.078125 
Q 38.09375 11.96875 38.09375 21.296875 
Q 38.09375 29.890625 34.25 34.5 
Q 30.421875 39.109375 25.53125 39.109375 
Q 22.953125 39.109375 20.359375 37.796875 
Q 18.40625 36.8125 15.375 33.890625 
z
" id="TimesNewRomanPSMT-98"/>
       <path d="M 16.21875 46.046875 
L 16.21875 35.984375 
Q 21.828125 46.046875 27.734375 46.046875 
Q 30.421875 46.046875 32.171875 44.40625 
Q 33.9375 42.78125 33.9375 40.625 
Q 33.9375 38.71875 32.65625 37.390625 
Q 31.390625 36.078125 29.640625 36.078125 
Q 27.9375 36.078125 25.8125 37.765625 
Q 23.6875 39.453125 22.65625 39.453125 
Q 21.78125 39.453125 20.75 38.484375 
Q 18.5625 36.46875 16.21875 31.890625 
L 16.21875 10.453125 
Q 16.21875 6.734375 17.140625 4.828125 
Q 17.78125 3.515625 19.390625 2.640625 
Q 21 1.765625 24.03125 1.765625 
L 24.03125 0 
L 1.125 0 
L 1.125 1.765625 
Q 4.546875 1.765625 6.203125 2.828125 
Q 7.421875 3.609375 7.90625 5.328125 
Q 8.15625 6.15625 8.15625 10.0625 
L 8.15625 27.390625 
Q 8.15625 35.203125 7.828125 36.6875 
Q 7.515625 38.1875 6.65625 38.859375 
Q 5.8125 39.546875 4.546875 39.546875 
Q 3.03125 39.546875 1.125 38.8125 
L 0.640625 40.578125 
L 14.15625 46.046875 
z
" id="TimesNewRomanPSMT-114"/>
       <path d="M 12.5 9.46875 
Q 14.796875 9.46875 16.359375 7.875 
Q 17.921875 6.296875 17.921875 4.046875 
Q 17.921875 1.8125 16.328125 0.21875 
Q 14.75 -1.375 12.5 -1.375 
Q 10.25 -1.375 8.65625 0.21875 
Q 7.078125 1.8125 7.078125 4.046875 
Q 7.078125 6.34375 8.65625 7.90625 
Q 10.25 9.46875 12.5 9.46875 
z
" id="TimesNewRomanPSMT-46"/>
       <path id="TimesNewRomanPSMT-32"/>
       <path d="M 25 46.046875 
Q 35.15625 46.046875 41.3125 38.328125 
Q 46.53125 31.734375 46.53125 23.1875 
Q 46.53125 17.1875 43.640625 11.03125 
Q 40.765625 4.890625 35.71875 1.75 
Q 30.671875 -1.375 24.46875 -1.375 
Q 14.359375 -1.375 8.40625 6.6875 
Q 3.375 13.484375 3.375 21.921875 
Q 3.375 28.078125 6.421875 34.15625 
Q 9.46875 40.234375 14.453125 43.140625 
Q 19.4375 46.046875 25 46.046875 
z
M 23.484375 42.875 
Q 20.90625 42.875 18.28125 41.328125 
Q 15.671875 39.796875 14.0625 35.9375 
Q 12.453125 32.078125 12.453125 26.03125 
Q 12.453125 16.265625 16.328125 9.171875 
Q 20.21875 2.09375 26.5625 2.09375 
Q 31.296875 2.09375 34.375 6 
Q 37.453125 9.90625 37.453125 19.4375 
Q 37.453125 31.34375 32.328125 38.1875 
Q 28.859375 42.875 23.484375 42.875 
z
" id="TimesNewRomanPSMT-111"/>
       <path d="M 20.609375 41.21875 
L 20.609375 11.8125 
Q 20.609375 5.5625 21.96875 3.90625 
Q 23.78125 1.765625 26.8125 1.765625 
L 30.859375 1.765625 
L 30.859375 0 
L 4.15625 0 
L 4.15625 1.765625 
L 6.15625 1.765625 
Q 8.109375 1.765625 9.71875 2.734375 
Q 11.328125 3.71875 11.9375 5.375 
Q 12.546875 7.03125 12.546875 11.8125 
L 12.546875 41.21875 
L 3.859375 41.21875 
L 3.859375 44.734375 
L 12.546875 44.734375 
L 12.546875 47.65625 
Q 12.546875 54.34375 14.6875 58.984375 
Q 16.84375 63.625 21.265625 66.484375 
Q 25.6875 69.34375 31.203125 69.34375 
Q 36.328125 69.34375 40.625 66.015625 
Q 43.453125 63.8125 43.453125 61.078125 
Q 43.453125 59.625 42.1875 58.328125 
Q 40.921875 57.03125 39.453125 57.03125 
Q 38.328125 57.03125 37.078125 57.828125 
Q 35.84375 58.640625 34.03125 61.296875 
Q 32.234375 63.96875 30.71875 64.890625 
Q 29.203125 65.828125 27.34375 65.828125 
Q 25.09375 65.828125 23.53125 64.625 
Q 21.96875 63.421875 21.28125 60.90625 
Q 20.609375 58.40625 20.609375 47.953125 
L 20.609375 44.734375 
L 32.125 44.734375 
L 32.125 41.21875 
z
" id="TimesNewRomanPSMT-102"/>
       <path d="M 42.328125 44.734375 
L 42.328125 17.625 
Q 42.328125 9.859375 42.6875 8.125 
Q 43.0625 6.390625 43.859375 5.703125 
Q 44.671875 5.03125 45.75 5.03125 
Q 47.265625 5.03125 49.171875 5.859375 
L 49.859375 4.15625 
L 36.46875 -1.375 
L 34.28125 -1.375 
L 34.28125 8.109375 
Q 28.515625 1.859375 25.484375 0.234375 
Q 22.46875 -1.375 19.09375 -1.375 
Q 15.328125 -1.375 12.5625 0.796875 
Q 9.8125 2.984375 8.734375 6.390625 
Q 7.671875 9.8125 7.671875 16.0625 
L 7.671875 36.03125 
Q 7.671875 39.203125 6.984375 40.421875 
Q 6.296875 41.65625 4.953125 42.3125 
Q 3.609375 42.96875 0.09375 42.921875 
L 0.09375 44.734375 
L 15.765625 44.734375 
L 15.765625 14.796875 
Q 15.765625 8.546875 17.9375 6.59375 
Q 20.125 4.640625 23.1875 4.640625 
Q 25.296875 4.640625 27.953125 5.953125 
Q 30.609375 7.28125 34.28125 10.984375 
L 34.28125 36.328125 
Q 34.28125 40.140625 32.890625 41.484375 
Q 31.5 42.828125 27.09375 42.921875 
L 27.09375 44.734375 
z
" id="TimesNewRomanPSMT-117"/>
       <path d="M 16.15625 36.578125 
Q 24.03125 46.046875 31.15625 46.046875 
Q 34.8125 46.046875 37.453125 44.21875 
Q 40.09375 42.390625 41.65625 38.1875 
Q 42.71875 35.25 42.71875 29.203125 
L 42.71875 10.109375 
Q 42.71875 5.859375 43.40625 4.34375 
Q 43.953125 3.125 45.140625 2.4375 
Q 46.34375 1.765625 49.5625 1.765625 
L 49.5625 0 
L 27.4375 0 
L 27.4375 1.765625 
L 28.375 1.765625 
Q 31.5 1.765625 32.734375 2.703125 
Q 33.984375 3.65625 34.46875 5.515625 
Q 34.671875 6.25 34.671875 10.109375 
L 34.671875 28.421875 
Q 34.671875 34.515625 33.078125 37.28125 
Q 31.5 40.046875 27.734375 40.046875 
Q 21.921875 40.046875 16.15625 33.6875 
L 16.15625 10.109375 
Q 16.15625 5.5625 16.703125 4.5 
Q 17.390625 3.078125 18.578125 2.421875 
Q 19.78125 1.765625 23.4375 1.765625 
L 23.4375 0 
L 1.3125 0 
L 1.3125 1.765625 
L 2.296875 1.765625 
Q 5.71875 1.765625 6.90625 3.484375 
Q 8.109375 5.21875 8.109375 10.109375 
L 8.109375 26.703125 
Q 8.109375 34.765625 7.734375 36.515625 
Q 7.375 38.28125 6.609375 38.90625 
Q 5.859375 39.546875 4.59375 39.546875 
Q 3.21875 39.546875 1.3125 38.8125 
L 0.59375 40.578125 
L 14.0625 46.046875 
L 16.15625 46.046875 
z
" id="TimesNewRomanPSMT-110"/>
       <path d="M 41.109375 17 
Q 39.3125 8.15625 34.03125 3.390625 
Q 28.765625 -1.375 22.359375 -1.375 
Q 14.75 -1.375 9.078125 5.015625 
Q 3.421875 11.421875 3.421875 22.3125 
Q 3.421875 32.859375 9.6875 39.453125 
Q 15.96875 46.046875 24.75 46.046875 
Q 31.34375 46.046875 35.59375 42.546875 
Q 39.84375 39.0625 39.84375 35.296875 
Q 39.84375 33.453125 38.640625 32.296875 
Q 37.453125 31.15625 35.296875 31.15625 
Q 32.421875 31.15625 30.953125 33.015625 
Q 30.125 34.03125 29.859375 36.90625 
Q 29.59375 39.796875 27.875 41.3125 
Q 26.171875 42.78125 23.140625 42.78125 
Q 18.265625 42.78125 15.28125 39.15625 
Q 11.328125 34.375 11.328125 26.515625 
Q 11.328125 18.5 15.25 12.375 
Q 19.1875 6.25 25.875 6.25 
Q 30.671875 6.25 34.46875 9.515625 
Q 37.15625 11.765625 39.703125 17.671875 
z
" id="TimesNewRomanPSMT-99"/>
       <path d="M 16.109375 59.421875 
L 16.109375 44.734375 
L 26.5625 44.734375 
L 26.5625 41.3125 
L 16.109375 41.3125 
L 16.109375 12.3125 
Q 16.109375 7.953125 17.359375 6.4375 
Q 18.609375 4.9375 20.5625 4.9375 
Q 22.171875 4.9375 23.6875 5.9375 
Q 25.203125 6.9375 26.03125 8.890625 
L 27.9375 8.890625 
Q 26.21875 4.109375 23.09375 1.6875 
Q 19.96875 -0.734375 16.65625 -0.734375 
Q 14.40625 -0.734375 12.25 0.515625 
Q 10.109375 1.765625 9.078125 4.078125 
Q 8.0625 6.390625 8.0625 11.234375 
L 8.0625 41.3125 
L 0.984375 41.3125 
L 0.984375 42.921875 
Q 3.65625 44 6.46875 46.5625 
Q 9.28125 49.125 11.46875 52.640625 
Q 12.59375 54.5 14.59375 59.421875 
z
" id="TimesNewRomanPSMT-116"/>
       <path d="M 14.5 69.4375 
Q 16.546875 69.4375 17.984375 67.984375 
Q 19.4375 66.546875 19.4375 64.5 
Q 19.4375 62.453125 17.984375 60.984375 
Q 16.546875 59.515625 14.5 59.515625 
Q 12.453125 59.515625 10.984375 60.984375 
Q 9.515625 62.453125 9.515625 64.5 
Q 9.515625 66.546875 10.953125 67.984375 
Q 12.40625 69.4375 14.5 69.4375 
z
M 18.5625 46.046875 
L 18.5625 10.109375 
Q 18.5625 5.90625 19.171875 4.515625 
Q 19.78125 3.125 20.96875 2.4375 
Q 22.171875 1.765625 25.34375 1.765625 
L 25.34375 0 
L 3.609375 0 
L 3.609375 1.765625 
Q 6.890625 1.765625 8 2.390625 
Q 9.125 3.03125 9.78125 4.484375 
Q 10.453125 5.953125 10.453125 10.109375 
L 10.453125 27.34375 
Q 10.453125 34.625 10.015625 36.765625 
Q 9.671875 38.328125 8.9375 38.9375 
Q 8.203125 39.546875 6.9375 39.546875 
Q 5.5625 39.546875 3.609375 38.8125 
L 2.9375 40.578125 
L 16.40625 46.046875 
z
" id="TimesNewRomanPSMT-105"/>
       <path d="M 10.640625 27.875 
Q 10.59375 17.921875 15.484375 12.25 
Q 20.359375 6.59375 26.953125 6.59375 
Q 31.34375 6.59375 34.59375 9 
Q 37.84375 11.421875 40.046875 17.28125 
L 41.546875 16.3125 
Q 40.53125 9.625 35.59375 4.125 
Q 30.671875 -1.375 23.25 -1.375 
Q 15.1875 -1.375 9.453125 4.90625 
Q 3.71875 11.1875 3.71875 21.78125 
Q 3.71875 33.25 9.59375 39.671875 
Q 15.484375 46.09375 24.359375 46.09375 
Q 31.890625 46.09375 36.71875 41.140625 
Q 41.546875 36.1875 41.546875 27.875 
z
M 10.640625 30.71875 
L 31.34375 30.71875 
Q 31.109375 35.015625 30.328125 36.765625 
Q 29.109375 39.5 26.6875 41.0625 
Q 24.265625 42.625 21.625 42.625 
Q 17.578125 42.625 14.375 39.46875 
Q 11.1875 36.328125 10.640625 30.71875 
z
" id="TimesNewRomanPSMT-101"/>
       <path d="M 0.828125 44.734375 
L 21.875 44.734375 
L 21.875 42.921875 
L 20.515625 42.921875 
Q 18.609375 42.921875 17.609375 41.984375 
Q 16.609375 41.0625 16.609375 39.5 
Q 16.609375 37.796875 17.625 35.453125 
L 28.03125 10.75 
L 38.484375 36.375 
Q 39.59375 39.109375 39.59375 40.53125 
Q 39.59375 41.21875 39.203125 41.65625 
Q 38.671875 42.390625 37.84375 42.65625 
Q 37.015625 42.921875 34.46875 42.921875 
L 34.46875 44.734375 
L 49.078125 44.734375 
L 49.078125 42.921875 
Q 46.53125 42.71875 45.5625 41.890625 
Q 43.84375 40.4375 42.484375 37.015625 
L 26.609375 -1.375 
L 24.609375 -1.375 
L 8.640625 36.375 
Q 7.5625 39.015625 6.578125 40.15625 
Q 5.609375 41.3125 4.109375 42.09375 
Q 3.265625 42.53125 0.828125 42.921875 
z
" id="TimesNewRomanPSMT-118"/>
       <path d="M 28.46875 6.453125 
Q 21.578125 1.125 19.828125 0.296875 
Q 17.1875 -0.921875 14.203125 -0.921875 
Q 9.578125 -0.921875 6.5625 2.25 
Q 3.5625 5.421875 3.5625 10.59375 
Q 3.5625 13.875 5.03125 16.265625 
Q 7.03125 19.578125 11.984375 22.5 
Q 16.9375 25.4375 28.46875 29.640625 
L 28.46875 31.390625 
Q 28.46875 38.09375 26.34375 40.578125 
Q 24.21875 43.0625 20.171875 43.0625 
Q 17.09375 43.0625 15.28125 41.40625 
Q 13.421875 39.75 13.421875 37.59375 
L 13.53125 34.765625 
Q 13.53125 32.515625 12.375 31.296875 
Q 11.234375 30.078125 9.375 30.078125 
Q 7.5625 30.078125 6.421875 31.34375 
Q 5.28125 32.625 5.28125 34.8125 
Q 5.28125 39.015625 9.578125 42.53125 
Q 13.875 46.046875 21.625 46.046875 
Q 27.59375 46.046875 31.390625 44.046875 
Q 34.28125 42.53125 35.640625 39.3125 
Q 36.53125 37.203125 36.53125 30.71875 
L 36.53125 15.53125 
Q 36.53125 9.125 36.765625 7.6875 
Q 37.015625 6.25 37.578125 5.765625 
Q 38.140625 5.28125 38.875 5.28125 
Q 39.65625 5.28125 40.234375 5.609375 
Q 41.265625 6.25 44.1875 9.1875 
L 44.1875 6.453125 
Q 38.71875 -0.875 33.734375 -0.875 
Q 31.34375 -0.875 29.921875 0.78125 
Q 28.515625 2.4375 28.46875 6.453125 
z
M 28.46875 9.625 
L 28.46875 26.65625 
Q 21.09375 23.734375 18.953125 22.515625 
Q 15.09375 20.359375 13.421875 18.015625 
Q 11.765625 15.671875 11.765625 12.890625 
Q 11.765625 9.375 13.859375 7.046875 
Q 15.96875 4.734375 18.703125 4.734375 
Q 22.40625 4.734375 28.46875 9.625 
z
" id="TimesNewRomanPSMT-97"/>
       <path d="M 18.5 69.4375 
L 18.5 10.109375 
Q 18.5 5.90625 19.109375 4.53125 
Q 19.734375 3.171875 21 2.46875 
Q 22.265625 1.765625 25.734375 1.765625 
L 25.734375 0 
L 3.8125 0 
L 3.8125 1.765625 
Q 6.890625 1.765625 8 2.390625 
Q 9.125 3.03125 9.765625 4.484375 
Q 10.40625 5.953125 10.40625 10.109375 
L 10.40625 50.734375 
Q 10.40625 58.296875 10.0625 60.03125 
Q 9.71875 61.765625 8.953125 62.390625 
Q 8.203125 63.03125 7.03125 63.03125 
Q 5.765625 63.03125 3.8125 62.25 
L 2.984375 63.96875 
L 16.3125 69.4375 
z
" id="TimesNewRomanPSMT-108"/>
       <path d="M 32.03125 46.046875 
L 32.03125 30.8125 
L 30.421875 30.8125 
Q 28.5625 37.984375 25.65625 40.578125 
Q 22.75 43.171875 18.265625 43.171875 
Q 14.84375 43.171875 12.734375 41.359375 
Q 10.640625 39.546875 10.640625 37.359375 
Q 10.640625 34.625 12.203125 32.671875 
Q 13.71875 30.671875 18.359375 28.421875 
L 25.484375 24.953125 
Q 35.40625 20.125 35.40625 12.203125 
Q 35.40625 6.109375 30.78125 2.359375 
Q 26.171875 -1.375 20.453125 -1.375 
Q 16.359375 -1.375 11.078125 0.09375 
Q 9.46875 0.59375 8.453125 0.59375 
Q 7.328125 0.59375 6.6875 -0.6875 
L 5.078125 -0.6875 
L 5.078125 15.28125 
L 6.6875 15.28125 
Q 8.0625 8.453125 11.90625 4.984375 
Q 15.765625 1.515625 20.5625 1.515625 
Q 23.921875 1.515625 26.046875 3.484375 
Q 28.171875 5.46875 28.171875 8.25 
Q 28.171875 11.625 25.796875 13.921875 
Q 23.4375 16.21875 16.359375 19.734375 
Q 9.28125 23.25 7.078125 26.078125 
Q 4.890625 28.859375 4.890625 33.109375 
Q 4.890625 38.625 8.671875 42.328125 
Q 12.453125 46.046875 18.453125 46.046875 
Q 21.09375 46.046875 24.859375 44.921875 
Q 27.34375 44.1875 28.171875 44.1875 
Q 28.953125 44.1875 29.390625 44.53125 
Q 29.828125 44.875 30.421875 46.046875 
z
" id="TimesNewRomanPSMT-115"/>
      </defs>
      <use xlink:href="#TimesNewRomanPSMT-78"/>
      <use x="72.216797" xlink:href="#TimesNewRomanPSMT-98"/>
      <use x="122.216797" xlink:href="#TimesNewRomanPSMT-114"/>
      <use x="150.017578" xlink:href="#TimesNewRomanPSMT-46"/>
      <use x="175.017578" xlink:href="#TimesNewRomanPSMT-32"/>
      <use x="200.017578" xlink:href="#TimesNewRomanPSMT-111"/>
      <use x="250.017578" xlink:href="#TimesNewRomanPSMT-102"/>
      <use x="283.318359" xlink:href="#TimesNewRomanPSMT-32"/>
      <use x="308.318359" xlink:href="#TimesNewRomanPSMT-102"/>
      <use x="341.619141" xlink:href="#TimesNewRomanPSMT-117"/>
      <use x="391.619141" xlink:href="#TimesNewRomanPSMT-110"/>
      <use x="441.619141" xlink:href="#TimesNewRomanPSMT-99"/>
      <use x="486.003906" xlink:href="#TimesNewRomanPSMT-116"/>
      <use x="513.787109" xlink:href="#TimesNewRomanPSMT-105"/>
      <use x="541.570312" xlink:href="#TimesNewRomanPSMT-111"/>
      <use x="591.570312" xlink:href="#TimesNewRomanPSMT-110"/>
      <use x="641.570312" xlink:href="#TimesNewRomanPSMT-32"/>
      <use x="666.570312" xlink:href="#TimesNewRomanPSMT-101"/>
      <use x="710.955078" xlink:href="#TimesNewRomanPSMT-118"/>
      <use x="760.955078" xlink:href="#TimesNewRomanPSMT-97"/>
      <use x="805.339844" xlink:href="#TimesNewRomanPSMT-108"/>
      <use x="833.123047" xlink:href="#TimesNewRomanPSMT-117"/>
      <use x="883.123047" xlink:href="#TimesNewRomanPSMT-97"/>
      <use x="927.507812" xlink:href="#TimesNewRomanPSMT-116"/>
      <use x="955.291016" xlink:href="#TimesNewRomanPSMT-105"/>
      <use x="983.074219" xlink:href="#TimesNewRomanPSMT-111"/>
      <use x="1033.074219" xlink:href="#TimesNewRomanPSMT-110"/>
      <use x="1083.074219" xlink:href="#TimesNewRomanPSMT-115"/>
     </g>
    </g>
   </g>
   <g id="matplotlib.axis_2">
    <g id="ytick_1">
     <g id="line2d_7">
      <defs>
       <path d="M 0 0 
L -3.5 0 
" id="m14f3147210" style="stroke:#000000;stroke-width:0.8;"/>
      </defs>
      <g>
       <use style="stroke:#000000;stroke-width:0.8;" x="54" xlink:href="#m14f3147210" y="67.919197"/>
      </g>
     </g>
     <g id="text_8">
      <!-- $\mathdefault{10^{1}}$ -->
      <g transform="translate(25.85 74.5649)scale(0.15 -0.15)">
       <use transform="translate(0 0.582813)" xlink:href="#TimesNewRomanPSMT-49"/>
       <use transform="translate(50 0.582813)" xlink:href="#TimesNewRomanPSMT-48"/>
       <use transform="translate(101.502813 60.695312)scale(0.7)" xlink:href="#TimesNewRomanPSMT-49"/>
      </g>
     </g>
    </g>
    <g id="ytick_2">
     <g id="line2d_8">
      <defs>
       <path d="M 0 0 
L -2 0 
" id="m4ce929f332" style="stroke:#000000;stroke-width:0.6;"/>
      </defs>
      <g>
       <use style="stroke:#000000;stroke-width:0.6;" x="54" xlink:href="#m4ce929f332" y="226.947096"/>
      </g>
     </g>
     <g id="text_9">
      <!-- $\mathdefault{3\times10^{0}}$ -->
      <g transform="translate(6.75 233.592799)scale(0.15 -0.15)">
       <defs>
        <path d="M 5.078125 53.609375 
Q 7.90625 60.296875 12.21875 63.9375 
Q 16.546875 67.578125 23 67.578125 
Q 30.953125 67.578125 35.203125 62.40625 
Q 38.421875 58.546875 38.421875 54.15625 
Q 38.421875 46.921875 29.34375 39.203125 
Q 35.453125 36.8125 38.578125 32.375 
Q 41.703125 27.9375 41.703125 21.921875 
Q 41.703125 13.328125 36.234375 7.03125 
Q 29.109375 -1.171875 15.578125 -1.171875 
Q 8.890625 -1.171875 6.46875 0.484375 
Q 4.046875 2.15625 4.046875 4.046875 
Q 4.046875 5.46875 5.1875 6.546875 
Q 6.34375 7.625 7.953125 7.625 
Q 9.1875 7.625 10.453125 7.234375 
Q 11.28125 6.984375 14.203125 5.4375 
Q 17.140625 3.90625 18.265625 3.609375 
Q 20.0625 3.078125 22.125 3.078125 
Q 27.09375 3.078125 30.78125 6.9375 
Q 34.46875 10.796875 34.46875 16.0625 
Q 34.46875 19.921875 32.765625 23.578125 
Q 31.5 26.3125 29.984375 27.734375 
Q 27.875 29.6875 24.21875 31.265625 
Q 20.5625 32.859375 16.75 32.859375 
L 15.1875 32.859375 
L 15.1875 34.328125 
Q 19.046875 34.8125 22.921875 37.109375 
Q 26.8125 39.40625 28.5625 42.625 
Q 30.328125 45.84375 30.328125 49.703125 
Q 30.328125 54.734375 27.171875 57.828125 
Q 24.03125 60.9375 19.34375 60.9375 
Q 11.765625 60.9375 6.6875 52.828125 
z
" id="TimesNewRomanPSMT-51"/>
        <path d="M 8.0625 16.015625 
L 25.296875 33.25 
L 8.109375 50.4375 
L 10.9375 53.265625 
L 28.125 36.078125 
L 45.3125 53.265625 
L 48.046875 50.484375 
L 30.859375 33.296875 
L 48.140625 16.015625 
L 45.359375 13.1875 
L 28.078125 30.46875 
L 10.84375 13.234375 
z
" id="TimesNewRomanPSMT-215"/>
       </defs>
       <use transform="translate(0 0.582813)" xlink:href="#TimesNewRomanPSMT-51"/>
       <use transform="translate(65.556641 0.582813)" xlink:href="#TimesNewRomanPSMT-215"/>
       <use transform="translate(137.509766 0.582813)" xlink:href="#TimesNewRomanPSMT-49"/>
       <use transform="translate(187.509766 0.582813)" xlink:href="#TimesNewRomanPSMT-48"/>
       <use transform="translate(239.012578 60.695312)scale(0.7)" xlink:href="#TimesNewRomanPSMT-48"/>
      </g>
     </g>
    </g>
    <g id="ytick_3">
     <g id="line2d_9">
      <g>
       <use style="stroke:#000000;stroke-width:0.6;" x="54" xlink:href="#m4ce929f332" y="188.948334"/>
      </g>
     </g>
     <g id="text_10">
      <!-- $\mathdefault{4\times10^{0}}$ -->
      <g transform="translate(6.75 195.594037)scale(0.15 -0.15)">
       <use transform="translate(0 0.582813)" xlink:href="#TimesNewRomanPSMT-52"/>
       <use transform="translate(65.556641 0.582813)" xlink:href="#TimesNewRomanPSMT-215"/>
       <use transform="translate(137.509766 0.582813)" xlink:href="#TimesNewRomanPSMT-49"/>
       <use transform="translate(187.509766 0.582813)" xlink:href="#TimesNewRomanPSMT-48"/>
       <use transform="translate(239.012578 60.695312)scale(0.7)" xlink:href="#TimesNewRomanPSMT-48"/>
      </g>
     </g>
    </g>
    <g id="ytick_4">
     <g id="line2d_10">
      <g>
       <use style="stroke:#000000;stroke-width:0.6;" x="54" xlink:href="#m4ce929f332" y="159.474205"/>
      </g>
     </g>
    </g>
    <g id="ytick_5">
     <g id="line2d_11">
      <g>
       <use style="stroke:#000000;stroke-width:0.6;" x="54" xlink:href="#m4ce929f332" y="135.392088"/>
      </g>
     </g>
     <g id="text_11">
      <!-- $\mathdefault{6\times10^{0}}$ -->
      <g transform="translate(6.75 142.037791)scale(0.15 -0.15)">
       <use transform="translate(0 0.582813)" xlink:href="#TimesNewRomanPSMT-54"/>
       <use transform="translate(65.556641 0.582813)" xlink:href="#TimesNewRomanPSMT-215"/>
       <use transform="translate(137.509766 0.582813)" xlink:href="#TimesNewRomanPSMT-49"/>
       <use transform="translate(187.509766 0.582813)" xlink:href="#TimesNewRomanPSMT-48"/>
       <use transform="translate(239.012578 60.695312)scale(0.7)" xlink:href="#TimesNewRomanPSMT-48"/>
      </g>
     </g>
    </g>
    <g id="ytick_6">
     <g id="line2d_12">
      <g>
       <use style="stroke:#000000;stroke-width:0.6;" x="54" xlink:href="#m4ce929f332" y="115.030948"/>
      </g>
     </g>
    </g>
    <g id="ytick_7">
     <g id="line2d_13">
      <g>
       <use style="stroke:#000000;stroke-width:0.6;" x="54" xlink:href="#m4ce929f332" y="97.393326"/>
      </g>
     </g>
    </g>
    <g id="ytick_8">
     <g id="line2d_14">
      <g>
       <use style="stroke:#000000;stroke-width:0.6;" x="54" xlink:href="#m4ce929f332" y="81.835841"/>
      </g>
     </g>
    </g>
    <g id="text_12">
     <!-- Best function evaluation -->
     <g transform="translate(-0.458594 216.597188)rotate(-90)scale(0.15 -0.15)">
      <defs>
       <path d="M 46.1875 33.796875 
Q 53.078125 32.328125 56.5 29.109375 
Q 61.234375 24.609375 61.234375 18.109375 
Q 61.234375 13.1875 58.109375 8.671875 
Q 54.984375 4.15625 49.53125 2.078125 
Q 44.09375 0 32.90625 0 
L 1.65625 0 
L 1.65625 1.8125 
L 4.15625 1.8125 
Q 8.296875 1.8125 10.109375 4.4375 
Q 11.234375 6.15625 11.234375 11.71875 
L 11.234375 54.5 
Q 11.234375 60.640625 9.8125 62.25 
Q 7.90625 64.40625 4.15625 64.40625 
L 1.65625 64.40625 
L 1.65625 66.21875 
L 30.28125 66.21875 
Q 38.28125 66.21875 43.109375 65.046875 
Q 50.4375 63.28125 54.296875 58.8125 
Q 58.15625 54.34375 58.15625 48.53125 
Q 58.15625 43.5625 55.125 39.625 
Q 52.09375 35.6875 46.1875 33.796875 
z
M 20.609375 36.421875 
Q 22.40625 36.078125 24.71875 35.90625 
Q 27.046875 35.75 29.828125 35.75 
Q 36.96875 35.75 40.546875 37.28125 
Q 44.140625 38.8125 46.046875 41.984375 
Q 47.953125 45.171875 47.953125 48.921875 
Q 47.953125 54.734375 43.21875 58.828125 
Q 38.484375 62.9375 29.390625 62.9375 
Q 24.515625 62.9375 20.609375 61.859375 
z
M 20.609375 4.78125 
Q 26.265625 3.46875 31.78125 3.46875 
Q 40.625 3.46875 45.265625 7.4375 
Q 49.90625 11.421875 49.90625 17.28125 
Q 49.90625 21.140625 47.796875 24.703125 
Q 45.703125 28.265625 40.96875 30.3125 
Q 36.234375 32.375 29.25 32.375 
Q 26.21875 32.375 24.0625 32.265625 
Q 21.921875 32.171875 20.609375 31.9375 
z
" id="TimesNewRomanPSMT-66"/>
      </defs>
      <use xlink:href="#TimesNewRomanPSMT-66"/>
      <use x="66.699219" xlink:href="#TimesNewRomanPSMT-101"/>
      <use x="111.083984" xlink:href="#TimesNewRomanPSMT-115"/>
      <use x="150" xlink:href="#TimesNewRomanPSMT-116"/>
      <use x="177.783203" xlink:href="#TimesNewRomanPSMT-32"/>
      <use x="202.783203" xlink:href="#TimesNewRomanPSMT-102"/>
      <use x="236.083984" xlink:href="#TimesNewRomanPSMT-117"/>
      <use x="286.083984" xlink:href="#TimesNewRomanPSMT-110"/>
      <use x="336.083984" xlink:href="#TimesNewRomanPSMT-99"/>
      <use x="380.46875" xlink:href="#TimesNewRomanPSMT-116"/>
      <use x="408.251953" xlink:href="#TimesNewRomanPSMT-105"/>
      <use x="436.035156" xlink:href="#TimesNewRomanPSMT-111"/>
      <use x="486.035156" xlink:href="#TimesNewRomanPSMT-110"/>
      <use x="536.035156" xlink:href="#TimesNewRomanPSMT-32"/>
      <use x="561.035156" xlink:href="#TimesNewRomanPSMT-101"/>
      <use x="605.419922" xlink:href="#TimesNewRomanPSMT-118"/>
      <use x="655.419922" xlink:href="#TimesNewRomanPSMT-97"/>
      <use x="699.804688" xlink:href="#TimesNewRomanPSMT-108"/>
      <use x="727.587891" xlink:href="#TimesNewRomanPSMT-117"/>
      <use x="777.587891" xlink:href="#TimesNewRomanPSMT-97"/>
      <use x="821.972656" xlink:href="#TimesNewRomanPSMT-116"/>
      <use x="849.755859" xlink:href="#TimesNewRomanPSMT-105"/>
      <use x="877.539062" xlink:href="#TimesNewRomanPSMT-111"/>
      <use x="927.539062" xlink:href="#TimesNewRomanPSMT-110"/>
     </g>
    </g>
   </g>
   <g id="line2d_15">
    <path clip-path="url(#pfa57207d7d)" d="M 69.218182 48.852503 
L 78.441322 48.852503 
L 78.441322 73.278223 
L 87.664463 73.278223 
L 87.664463 73.278223 
L 96.887603 73.278223 
L 96.887603 74.227087 
L 106.110744 74.227087 
L 106.110744 74.227087 
L 115.333884 74.227087 
L 115.333884 78.114888 
L 124.557025 78.114888 
L 124.557025 94.827418 
L 133.780165 94.827418 
L 133.780165 95.814552 
L 143.003306 95.814552 
L 143.003306 97.171723 
L 152.226446 97.171723 
L 152.226446 99.150044 
L 161.449587 99.150044 
L 161.449587 107.080294 
L 170.672727 107.080294 
L 170.672727 114.638597 
L 179.895868 114.638597 
L 179.895868 117.121113 
L 189.119008 117.121113 
L 189.119008 120.52909 
L 198.342149 120.52909 
L 198.342149 122.5421 
L 207.565289 122.5421 
L 207.565289 127.513524 
L 216.78843 127.513524 
L 216.78843 146.553213 
L 226.01157 146.553213 
L 226.01157 148.767241 
L 235.234711 148.767241 
L 235.234711 149.819655 
L 244.457851 149.819655 
L 244.457851 151.308082 
L 253.680992 151.308082 
L 253.680992 151.473492 
L 262.904132 151.473492 
L 262.904132 155.613193 
L 272.127273 155.613193 
L 272.127273 155.952775 
L 281.350413 155.952775 
L 281.350413 160.825097 
L 290.573554 160.825097 
L 290.573554 168.658278 
L 299.796694 168.658278 
L 299.796694 172.859381 
L 309.019835 172.859381 
L 309.019835 174.276536 
L 318.242975 174.276536 
L 318.242975 179.516039 
L 327.466116 179.516039 
L 327.466116 209.701027 
L 336.689256 209.701027 
L 336.689256 215.619781 
L 345.912397 215.619781 
L 345.912397 227.558028 
L 355.135537 227.558028 
L 355.135537 228.298994 
L 364.358678 228.298994 
L 364.358678 230.434378 
L 373.581818 230.434378 
L 373.581818 242.116364 
" style="fill:none;stroke:#1f77b4;stroke-linecap:square;stroke-width:1.5;"/>
   </g>
   <g id="line2d_16">
    <path clip-path="url(#pfa57207d7d)" d="M 69.218182 46.019709 
L 78.441322 46.019709 
L 78.441322 53.42322 
L 87.664463 53.42322 
L 87.664463 58.954215 
L 96.887603 58.954215 
L 96.887603 63.808014 
L 106.110744 63.808014 
L 106.110744 67.071386 
L 115.333884 67.071386 
L 115.333884 67.071386 
L 124.557025 67.071386 
L 124.557025 70.813358 
L 133.780165 70.813358 
L 133.780165 85.335595 
L 143.003306 85.335595 
L 143.003306 86.977003 
L 152.226446 86.977003 
L 152.226446 86.977003 
L 161.449587 86.977003 
L 161.449587 91.190134 
L 170.672727 91.190134 
L 170.672727 109.215388 
L 179.895868 109.215388 
L 179.895868 111.736588 
L 189.119008 111.736588 
L 189.119008 115.517157 
L 198.342149 115.517157 
L 198.342149 120.32148 
L 207.565289 120.32148 
L 207.565289 124.878202 
L 216.78843 124.878202 
L 216.78843 133.206324 
L 226.01157 133.206324 
L 226.01157 144.609474 
L 235.234711 144.609474 
L 235.234711 144.609474 
L 244.457851 144.609474 
L 244.457851 145.035129 
L 253.680992 145.035129 
L 253.680992 150.079931 
L 262.904132 150.079931 
L 262.904132 154.286441 
L 272.127273 154.286441 
L 272.127273 155.565807 
L 281.350413 155.565807 
L 281.350413 160.895766 
L 290.573554 160.895766 
L 290.573554 166.121345 
L 299.796694 166.121345 
L 299.796694 168.519601 
L 309.019835 168.519601 
L 309.019835 175.846519 
L 318.242975 175.846519 
L 318.242975 181.252807 
L 327.466116 181.252807 
L 327.466116 190.986457 
L 336.689256 190.986457 
L 336.689256 217.627238 
L 345.912397 217.627238 
L 345.912397 218.865736 
L 355.135537 218.865736 
L 355.135537 225.416182 
L 364.358678 225.416182 
L 364.358678 226.751471 
L 373.581818 226.751471 
L 373.581818 232.194504 
" style="fill:none;stroke:#ff7f0e;stroke-linecap:square;stroke-width:1.5;"/>
   </g>
   <g id="line2d_17">
    <path clip-path="url(#pfa57207d7d)" d="M 69.218182 46.645264 
L 78.441322 46.645264 
L 78.441322 52.503152 
L 87.664463 52.503152 
L 87.664463 56.813407 
L 96.887603 56.813407 
L 96.887603 65.632197 
L 106.110744 65.632197 
L 106.110744 65.632197 
L 115.333884 65.632197 
L 115.333884 66.368728 
L 124.557025 66.368728 
L 124.557025 68.90645 
L 133.780165 68.90645 
L 133.780165 77.906881 
L 143.003306 77.906881 
L 143.003306 91.060516 
L 152.226446 91.060516 
L 152.226446 114.228518 
L 161.449587 114.228518 
L 161.449587 115.742164 
L 170.672727 115.742164 
L 170.672727 118.070893 
L 179.895868 118.070893 
L 179.895868 119.670594 
L 189.119008 119.670594 
L 189.119008 121.757077 
L 198.342149 121.757077 
L 198.342149 124.860042 
L 207.565289 124.860042 
L 207.565289 134.480402 
L 216.78843 134.480402 
L 216.78843 135.737856 
L 226.01157 135.737856 
L 226.01157 146.150447 
L 235.234711 146.150447 
L 235.234711 147.308381 
L 244.457851 147.308381 
L 244.457851 152.020208 
L 253.680992 152.020208 
L 253.680992 152.994321 
L 262.904132 152.994321 
L 262.904132 152.994321 
L 272.127273 152.994321 
L 272.127273 155.327625 
L 281.350413 155.327625 
L 281.350413 157.999427 
L 290.573554 157.999427 
L 290.573554 157.999427 
L 299.796694 157.999427 
L 299.796694 160.287903 
L 309.019835 160.287903 
L 309.019835 165.224286 
L 318.242975 165.224286 
L 318.242975 167.6564 
L 327.466116 167.6564 
L 327.466116 168.021843 
L 336.689256 168.021843 
L 336.689256 168.021843 
L 345.912397 168.021843 
L 345.912397 169.477088 
L 355.135537 169.477088 
L 355.135537 170.664464 
L 364.358678 170.664464 
L 364.358678 172.93596 
L 373.581818 172.93596 
L 373.581818 173.6232 
" style="fill:none;stroke:#2ca02c;stroke-linecap:square;stroke-width:1.5;"/>
   </g>
   <g id="line2d_18">
    <path clip-path="url(#pfa57207d7d)" d="M 69.218182 48.301932 
L 78.441322 48.301932 
L 78.441322 60.807143 
L 87.664463 60.807143 
L 87.664463 61.548715 
L 96.887603 61.548715 
L 96.887603 61.870137 
L 106.110744 61.870137 
L 106.110744 62.482577 
L 115.333884 62.482577 
L 115.333884 71.047176 
L 124.557025 71.047176 
L 124.557025 86.441746 
L 133.780165 86.441746 
L 133.780165 89.713657 
L 143.003306 89.713657 
L 143.003306 94.899228 
L 152.226446 94.899228 
L 152.226446 114.628105 
L 161.449587 114.628105 
L 161.449587 118.738306 
L 170.672727 118.738306 
L 170.672727 132.308331 
L 179.895868 132.308331 
L 179.895868 132.36173 
L 189.119008 132.36173 
L 189.119008 134.993927 
L 198.342149 134.993927 
L 198.342149 141.165243 
L 207.565289 141.165243 
L 207.565289 144.122371 
L 216.78843 144.122371 
L 216.78843 144.122371 
L 226.01157 144.122371 
L 226.01157 144.410322 
L 235.234711 144.410322 
L 235.234711 144.50332 
L 244.457851 144.50332 
L 244.457851 144.50332 
L 253.680992 144.50332 
L 253.680992 148.525452 
L 262.904132 148.525452 
L 262.904132 151.072186 
L 272.127273 151.072186 
L 272.127273 151.072186 
L 281.350413 151.072186 
L 281.350413 152.738152 
L 290.573554 152.738152 
L 290.573554 155.206498 
L 299.796694 155.206498 
L 299.796694 159.793364 
L 309.019835 159.793364 
L 309.019835 168.952344 
L 318.242975 168.952344 
L 318.242975 184.319037 
L 327.466116 184.319037 
L 327.466116 188.308758 
L 336.689256 188.308758 
L 336.689256 188.308758 
L 345.912397 188.308758 
L 345.912397 188.499255 
L 355.135537 188.499255 
L 355.135537 188.731264 
L 364.358678 188.731264 
L 364.358678 190.248613 
L 373.581818 190.248613 
L 373.581818 191.01144 
" style="fill:none;stroke:#d62728;stroke-linecap:square;stroke-width:1.5;"/>
   </g>
   <g id="line2d_19">
    <path clip-path="url(#pfa57207d7d)" d="M 69.218182 45.472397 
L 78.441322 45.472397 
L 78.441322 45.472397 
L 87.664463 45.472397 
L 87.664463 46.357464 
L 96.887603 46.357464 
L 96.887603 50.881902 
L 106.110744 50.881902 
L 106.110744 55.229852 
L 115.333884 55.229852 
L 115.333884 69.368964 
L 124.557025 69.368964 
L 124.557025 70.910868 
L 133.780165 70.910868 
L 133.780165 74.430618 
L 143.003306 74.430618 
L 143.003306 84.861386 
L 152.226446 84.861386 
L 152.226446 87.79205 
L 161.449587 87.79205 
L 161.449587 90.704292 
L 170.672727 90.704292 
L 170.672727 98.776233 
L 179.895868 98.776233 
L 179.895868 99.348783 
L 189.119008 99.348783 
L 189.119008 100.344399 
L 198.342149 100.344399 
L 198.342149 100.344399 
L 207.565289 100.344399 
L 207.565289 102.330132 
L 216.78843 102.330132 
L 216.78843 102.330132 
L 226.01157 102.330132 
L 226.01157 104.509869 
L 235.234711 104.509869 
L 235.234711 119.986016 
L 244.457851 119.986016 
L 244.457851 124.453572 
L 253.680992 124.453572 
L 253.680992 133.99963 
L 262.904132 133.99963 
L 262.904132 134.371884 
L 272.127273 134.371884 
L 272.127273 134.474934 
L 281.350413 134.474934 
L 281.350413 137.760919 
L 290.573554 137.760919 
L 290.573554 137.760919 
L 299.796694 137.760919 
L 299.796694 139.867033 
L 309.019835 139.867033 
L 309.019835 154.036342 
L 318.242975 154.036342 
L 318.242975 155.602974 
L 327.466116 155.602974 
L 327.466116 162.441318 
L 336.689256 162.441318 
L 336.689256 171.075274 
L 345.912397 171.075274 
L 345.912397 173.709355 
L 355.135537 173.709355 
L 355.135537 176.028317 
L 364.358678 176.028317 
L 364.358678 184.882497 
L 373.581818 184.882497 
L 373.581818 201.29111 
" style="fill:none;stroke:#9467bd;stroke-linecap:square;stroke-width:1.5;"/>
   </g>
   <g id="line2d_20">
    <path clip-path="url(#pfa57207d7d)" d="M 69.218182 44.552855 
L 78.441322 44.552855 
L 78.441322 45.486554 
L 87.664463 45.486554 
L 87.664463 49.143275 
L 96.887603 49.143275 
L 96.887603 52.536659 
L 106.110744 52.536659 
L 106.110744 61.442226 
L 115.333884 61.442226 
L 115.333884 62.473661 
L 124.557025 62.473661 
L 124.557025 68.19719 
L 133.780165 68.19719 
L 133.780165 76.962796 
L 143.003306 76.962796 
L 143.003306 78.726164 
L 152.226446 78.726164 
L 152.226446 78.954072 
L 161.449587 78.954072 
L 161.449587 83.807206 
L 170.672727 83.807206 
L 170.672727 94.928667 
L 179.895868 94.928667 
L 179.895868 108.34058 
L 189.119008 108.34058 
L 189.119008 108.34058 
L 198.342149 108.34058 
L 198.342149 108.34058 
L 207.565289 108.34058 
L 207.565289 111.299188 
L 216.78843 111.299188 
L 216.78843 111.5702 
L 226.01157 111.5702 
L 226.01157 115.552143 
L 235.234711 115.552143 
L 235.234711 117.701058 
L 244.457851 117.701058 
L 244.457851 123.925817 
L 253.680992 123.925817 
L 253.680992 128.306916 
L 262.904132 128.306916 
L 262.904132 132.445248 
L 272.127273 132.445248 
L 272.127273 135.987081 
L 281.350413 135.987081 
L 281.350413 139.68094 
L 290.573554 139.68094 
L 290.573554 143.629523 
L 299.796694 143.629523 
L 299.796694 143.629523 
L 309.019835 143.629523 
L 309.019835 143.629523 
L 318.242975 143.629523 
L 318.242975 146.532574 
L 327.466116 146.532574 
L 327.466116 146.748188 
L 336.689256 146.748188 
L 336.689256 151.727595 
L 345.912397 151.727595 
L 345.912397 153.814758 
L 355.135537 153.814758 
L 355.135537 155.012495 
L 364.358678 155.012495 
L 364.358678 156.333643 
L 373.581818 156.333643 
L 373.581818 157.383537 
" style="fill:none;stroke:#8c564b;stroke-linecap:square;stroke-width:1.5;"/>
   </g>
   <g id="line2d_21">
    <path clip-path="url(#pfa57207d7d)" d="M 69.218182 47.246929 
L 78.441322 47.246929 
L 78.441322 48.210687 
L 87.664463 48.210687 
L 87.664463 50.820376 
L 96.887603 50.820376 
L 96.887603 54.245053 
L 106.110744 54.245053 
L 106.110744 55.973959 
L 115.333884 55.973959 
L 115.333884 61.313774 
L 124.557025 61.313774 
L 124.557025 62.419385 
L 133.780165 62.419385 
L 133.780165 63.726817 
L 143.003306 63.726817 
L 143.003306 69.646492 
L 152.226446 69.646492 
L 152.226446 71.887506 
L 161.449587 71.887506 
L 161.449587 80.093749 
L 170.672727 80.093749 
L 170.672727 80.093749 
L 179.895868 80.093749 
L 179.895868 81.45298 
L 189.119008 81.45298 
L 189.119008 82.524494 
L 198.342149 82.524494 
L 198.342149 87.306544 
L 207.565289 87.306544 
L 207.565289 93.807526 
L 216.78843 93.807526 
L 216.78843 97.733063 
L 226.01157 97.733063 
L 226.01157 99.85219 
L 235.234711 99.85219 
L 235.234711 109.45309 
L 244.457851 109.45309 
L 244.457851 123.385847 
L 253.680992 123.385847 
L 253.680992 123.793672 
L 262.904132 123.793672 
L 262.904132 123.793672 
L 272.127273 123.793672 
L 272.127273 125.060937 
L 281.350413 125.060937 
L 281.350413 125.273746 
L 290.573554 125.273746 
L 290.573554 125.273746 
L 299.796694 125.273746 
L 299.796694 127.729318 
L 309.019835 127.729318 
L 309.019835 132.211179 
L 318.242975 132.211179 
L 318.242975 136.496358 
L 327.466116 136.496358 
L 327.466116 137.800915 
L 336.689256 137.800915 
L 336.689256 142.160597 
L 345.912397 142.160597 
L 345.912397 146.020809 
L 355.135537 146.020809 
L 355.135537 155.010371 
L 364.358678 155.010371 
L 364.358678 157.918834 
L 373.581818 157.918834 
L 373.581818 162.038908 
" style="fill:none;stroke:#e377c2;stroke-linecap:square;stroke-width:1.5;"/>
   </g>
   <g id="line2d_22">
    <path clip-path="url(#pfa57207d7d)" d="M 69.218182 44.791983 
L 78.441322 44.791983 
L 78.441322 48.215571 
L 87.664463 48.215571 
L 87.664463 59.215559 
L 96.887603 59.215559 
L 96.887603 82.35222 
L 106.110744 82.35222 
L 106.110744 83.068344 
L 115.333884 83.068344 
L 115.333884 87.845094 
L 124.557025 87.845094 
L 124.557025 94.339345 
L 133.780165 94.339345 
L 133.780165 97.109549 
L 143.003306 97.109549 
L 143.003306 104.327046 
L 152.226446 104.327046 
L 152.226446 105.528838 
L 161.449587 105.528838 
L 161.449587 105.528838 
L 170.672727 105.528838 
L 170.672727 110.379689 
L 179.895868 110.379689 
L 179.895868 127.3573 
L 189.119008 127.3573 
L 189.119008 130.480589 
L 198.342149 130.480589 
L 198.342149 137.627005 
L 207.565289 137.627005 
L 207.565289 142.174826 
L 216.78843 142.174826 
L 216.78843 147.847158 
L 226.01157 147.847158 
L 226.01157 160.697399 
L 235.234711 160.697399 
L 235.234711 161.839277 
L 244.457851 161.839277 
L 244.457851 161.839277 
L 253.680992 161.839277 
L 253.680992 161.839277 
L 262.904132 161.839277 
L 262.904132 164.436616 
L 272.127273 164.436616 
L 272.127273 168.602903 
L 281.350413 168.602903 
L 281.350413 172.094611 
L 290.573554 172.094611 
L 290.573554 172.094611 
L 299.796694 172.094611 
L 299.796694 172.094611 
L 309.019835 172.094611 
L 309.019835 172.094611 
L 318.242975 172.094611 
L 318.242975 173.966424 
L 327.466116 173.966424 
L 327.466116 174.436318 
L 336.689256 174.436318 
L 336.689256 182.394563 
L 345.912397 182.394563 
L 345.912397 197.161741 
L 355.135537 197.161741 
L 355.135537 203.693359 
L 364.358678 203.693359 
L 364.358678 206.705002 
L 373.581818 206.705002 
L 373.581818 209.266883 
" style="fill:none;stroke:#7f7f7f;stroke-linecap:square;stroke-width:1.5;"/>
   </g>
   <g id="line2d_23">
    <path clip-path="url(#pfa57207d7d)" d="M 69.218182 49.020535 
L 78.441322 49.020535 
L 78.441322 57.168826 
L 87.664463 57.168826 
L 87.664463 60.50118 
L 96.887603 60.50118 
L 96.887603 67.859197 
L 106.110744 67.859197 
L 106.110744 72.860223 
L 115.333884 72.860223 
L 115.333884 93.078661 
L 124.557025 93.078661 
L 124.557025 97.471905 
L 133.780165 97.471905 
L 133.780165 104.462034 
L 143.003306 104.462034 
L 143.003306 110.867501 
L 152.226446 110.867501 
L 152.226446 111.854382 
L 161.449587 111.854382 
L 161.449587 113.252551 
L 170.672727 113.252551 
L 170.672727 114.839362 
L 179.895868 114.839362 
L 179.895868 116.964678 
L 189.119008 116.964678 
L 189.119008 117.539392 
L 198.342149 117.539392 
L 198.342149 119.734205 
L 207.565289 119.734205 
L 207.565289 123.740976 
L 216.78843 123.740976 
L 216.78843 128.813103 
L 226.01157 128.813103 
L 226.01157 139.196459 
L 235.234711 139.196459 
L 235.234711 163.766989 
L 244.457851 163.766989 
L 244.457851 167.704801 
L 253.680992 167.704801 
L 253.680992 167.730873 
L 262.904132 167.730873 
L 262.904132 168.547945 
L 272.127273 168.547945 
L 272.127273 173.043414 
L 281.350413 173.043414 
L 281.350413 182.972155 
L 290.573554 182.972155 
L 290.573554 185.619162 
L 299.796694 185.619162 
L 299.796694 194.722436 
L 309.019835 194.722436 
L 309.019835 198.881799 
L 318.242975 198.881799 
L 318.242975 202.470945 
L 327.466116 202.470945 
L 327.466116 202.470945 
L 336.689256 202.470945 
L 336.689256 204.336611 
L 345.912397 204.336611 
L 345.912397 205.790597 
L 355.135537 205.790597 
L 355.135537 213.429129 
L 364.358678 213.429129 
L 364.358678 236.935057 
L 373.581818 236.935057 
L 373.581818 237.370204 
" style="fill:none;stroke:#bcbd22;stroke-linecap:square;stroke-width:1.5;"/>
   </g>
   <g id="line2d_24">
    <path clip-path="url(#pfa57207d7d)" d="M 69.218182 44.443636 
L 78.441322 44.443636 
L 78.441322 45.745313 
L 87.664463 45.745313 
L 87.664463 47.175723 
L 96.887603 47.175723 
L 96.887603 50.396761 
L 106.110744 50.396761 
L 106.110744 58.614223 
L 115.333884 58.614223 
L 115.333884 60.613049 
L 124.557025 60.613049 
L 124.557025 60.974017 
L 133.780165 60.974017 
L 133.780165 63.691975 
L 143.003306 63.691975 
L 143.003306 74.093439 
L 152.226446 74.093439 
L 152.226446 79.833853 
L 161.449587 79.833853 
L 161.449587 90.921819 
L 170.672727 90.921819 
L 170.672727 91.447585 
L 179.895868 91.447585 
L 179.895868 91.640033 
L 189.119008 91.640033 
L 189.119008 91.640033 
L 198.342149 91.640033 
L 198.342149 94.634016 
L 207.565289 94.634016 
L 207.565289 107.888662 
L 216.78843 107.888662 
L 216.78843 109.183567 
L 226.01157 109.183567 
L 226.01157 115.63363 
L 235.234711 115.63363 
L 235.234711 119.591027 
L 244.457851 119.591027 
L 244.457851 121.634596 
L 253.680992 121.634596 
L 253.680992 130.158793 
L 262.904132 130.158793 
L 262.904132 130.683416 
L 272.127273 130.683416 
L 272.127273 135.885423 
L 281.350413 135.885423 
L 281.350413 137.113491 
L 290.573554 137.113491 
L 290.573554 142.070804 
L 299.796694 142.070804 
L 299.796694 146.530981 
L 309.019835 146.530981 
L 309.019835 149.957172 
L 318.242975 149.957172 
L 318.242975 154.363786 
L 327.466116 154.363786 
L 327.466116 164.719662 
L 336.689256 164.719662 
L 336.689256 164.719662 
L 345.912397 164.719662 
L 345.912397 169.388275 
L 355.135537 169.388275 
L 355.135537 170.610222 
L 364.358678 170.610222 
L 364.358678 176.03948 
L 373.581818 176.03948 
L 373.581818 187.05661 
" style="fill:none;stroke:#17becf;stroke-linecap:square;stroke-width:1.5;"/>
   </g>
   <g id="patch_3">
    <path d="M 54 252 
L 54 34.56 
" style="fill:none;stroke:#000000;stroke-linecap:square;stroke-linejoin:miter;stroke-width:0.8;"/>
   </g>
   <g id="patch_4">
    <path d="M 388.8 252 
L 388.8 34.56 
" style="fill:none;stroke:#000000;stroke-linecap:square;stroke-linejoin:miter;stroke-width:0.8;"/>
   </g>
   <g id="patch_5">
    <path d="M 54 252 
L 388.8 252 
" style="fill:none;stroke:#000000;stroke-linecap:square;stroke-linejoin:miter;stroke-width:0.8;"/>
   </g>
   <g id="patch_6">
    <path d="M 54 34.56 
L 388.8 34.56 
" style="fill:none;stroke:#000000;stroke-linecap:square;stroke-linejoin:miter;stroke-width:0.8;"/>
   </g>
   <g id="legend_1">
    <g id="patch_7">
     <path d="M 62.75 245.75 
L 135.039062 245.75 
Q 137.539062 245.75 137.539062 243.25 
L 137.539062 67.761719 
Q 137.539062 65.261719 135.039062 65.261719 
L 62.75 65.261719 
Q 60.25 65.261719 60.25 67.761719 
L 60.25 243.25 
Q 60.25 245.75 62.75 245.75 
z
" style="fill:#ffffff;opacity:0.8;stroke:#cccccc;stroke-linejoin:miter;"/>
    </g>
    <g id="line2d_25">
     <path d="M 65.25 74.636719 
L 90.25 74.636719 
" style="fill:none;stroke:#1f77b4;stroke-linecap:square;stroke-width:1.5;"/>
    </g>
    <g id="line2d_26"/>
    <g id="text_13">
     <!-- Nest.0 -->
     <g transform="translate(100.25 79.011719)scale(0.125 -0.125)">
      <use xlink:href="#TimesNewRomanPSMT-78"/>
      <use x="72.216797" xlink:href="#TimesNewRomanPSMT-101"/>
      <use x="116.601562" xlink:href="#TimesNewRomanPSMT-115"/>
      <use x="155.517578" xlink:href="#TimesNewRomanPSMT-116"/>
      <use x="183.300781" xlink:href="#TimesNewRomanPSMT-46"/>
      <use x="208.300781" xlink:href="#TimesNewRomanPSMT-48"/>
     </g>
    </g>
    <g id="line2d_27">
     <path d="M 65.25 92.310547 
L 90.25 92.310547 
" style="fill:none;stroke:#ff7f0e;stroke-linecap:square;stroke-width:1.5;"/>
    </g>
    <g id="line2d_28"/>
    <g id="text_14">
     <!-- Nest.1 -->
     <g transform="translate(100.25 96.685547)scale(0.125 -0.125)">
      <use xlink:href="#TimesNewRomanPSMT-78"/>
      <use x="72.216797" xlink:href="#TimesNewRomanPSMT-101"/>
      <use x="116.601562" xlink:href="#TimesNewRomanPSMT-115"/>
      <use x="155.517578" xlink:href="#TimesNewRomanPSMT-116"/>
      <use x="183.300781" xlink:href="#TimesNewRomanPSMT-46"/>
      <use x="208.300781" xlink:href="#TimesNewRomanPSMT-49"/>
     </g>
    </g>
    <g id="line2d_29">
     <path d="M 65.25 109.984375 
L 90.25 109.984375 
" style="fill:none;stroke:#2ca02c;stroke-linecap:square;stroke-width:1.5;"/>
    </g>
    <g id="line2d_30"/>
    <g id="text_15">
     <!-- Nest.2 -->
     <g transform="translate(100.25 114.359375)scale(0.125 -0.125)">
      <use xlink:href="#TimesNewRomanPSMT-78"/>
      <use x="72.216797" xlink:href="#TimesNewRomanPSMT-101"/>
      <use x="116.601562" xlink:href="#TimesNewRomanPSMT-115"/>
      <use x="155.517578" xlink:href="#TimesNewRomanPSMT-116"/>
      <use x="183.300781" xlink:href="#TimesNewRomanPSMT-46"/>
      <use x="208.300781" xlink:href="#TimesNewRomanPSMT-50"/>
     </g>
    </g>
    <g id="line2d_31">
     <path d="M 65.25 127.658203 
L 90.25 127.658203 
" style="fill:none;stroke:#d62728;stroke-linecap:square;stroke-width:1.5;"/>
    </g>
    <g id="line2d_32"/>
    <g id="text_16">
     <!-- Nest.3 -->
     <g transform="translate(100.25 132.033203)scale(0.125 -0.125)">
      <use xlink:href="#TimesNewRomanPSMT-78"/>
      <use x="72.216797" xlink:href="#TimesNewRomanPSMT-101"/>
      <use x="116.601562" xlink:href="#TimesNewRomanPSMT-115"/>
      <use x="155.517578" xlink:href="#TimesNewRomanPSMT-116"/>
      <use x="183.300781" xlink:href="#TimesNewRomanPSMT-46"/>
      <use x="208.300781" xlink:href="#TimesNewRomanPSMT-51"/>
     </g>
    </g>
    <g id="line2d_33">
     <path d="M 65.25 145.332031 
L 90.25 145.332031 
" style="fill:none;stroke:#9467bd;stroke-linecap:square;stroke-width:1.5;"/>
    </g>
    <g id="line2d_34"/>
    <g id="text_17">
     <!-- Nest.4 -->
     <g transform="translate(100.25 149.707031)scale(0.125 -0.125)">
      <use xlink:href="#TimesNewRomanPSMT-78"/>
      <use x="72.216797" xlink:href="#TimesNewRomanPSMT-101"/>
      <use x="116.601562" xlink:href="#TimesNewRomanPSMT-115"/>
      <use x="155.517578" xlink:href="#TimesNewRomanPSMT-116"/>
      <use x="183.300781" xlink:href="#TimesNewRomanPSMT-46"/>
      <use x="208.300781" xlink:href="#TimesNewRomanPSMT-52"/>
     </g>
    </g>
    <g id="line2d_35">
     <path d="M 65.25 163.005859 
L 90.25 163.005859 
" style="fill:none;stroke:#8c564b;stroke-linecap:square;stroke-width:1.5;"/>
    </g>
    <g id="line2d_36"/>
    <g id="text_18">
     <!-- Nest.5 -->
     <g transform="translate(100.25 167.380859)scale(0.125 -0.125)">
      <defs>
       <path d="M 43.40625 66.21875 
L 39.59375 57.90625 
L 19.671875 57.90625 
L 15.328125 49.03125 
Q 28.265625 47.125 35.84375 39.40625 
Q 42.328125 32.765625 42.328125 23.78125 
Q 42.328125 18.5625 40.203125 14.109375 
Q 38.09375 9.671875 34.859375 6.546875 
Q 31.640625 3.421875 27.6875 1.515625 
Q 22.078125 -1.171875 16.15625 -1.171875 
Q 10.203125 -1.171875 7.484375 0.84375 
Q 4.78125 2.875 4.78125 5.328125 
Q 4.78125 6.6875 5.90625 7.734375 
Q 7.03125 8.796875 8.734375 8.796875 
Q 10.015625 8.796875 10.96875 8.40625 
Q 11.921875 8.015625 14.203125 6.390625 
Q 17.875 3.859375 21.625 3.859375 
Q 27.34375 3.859375 31.65625 8.171875 
Q 35.984375 12.5 35.984375 18.703125 
Q 35.984375 24.703125 32.125 29.90625 
Q 28.265625 35.109375 21.484375 37.9375 
Q 16.15625 40.140625 6.984375 40.484375 
L 19.671875 66.21875 
z
" id="TimesNewRomanPSMT-53"/>
      </defs>
      <use xlink:href="#TimesNewRomanPSMT-78"/>
      <use x="72.216797" xlink:href="#TimesNewRomanPSMT-101"/>
      <use x="116.601562" xlink:href="#TimesNewRomanPSMT-115"/>
      <use x="155.517578" xlink:href="#TimesNewRomanPSMT-116"/>
      <use x="183.300781" xlink:href="#TimesNewRomanPSMT-46"/>
      <use x="208.300781" xlink:href="#TimesNewRomanPSMT-53"/>
     </g>
    </g>
    <g id="line2d_37">
     <path d="M 65.25 180.679688 
L 90.25 180.679688 
" style="fill:none;stroke:#e377c2;stroke-linecap:square;stroke-width:1.5;"/>
    </g>
    <g id="line2d_38"/>
    <g id="text_19">
     <!-- Nest.6 -->
     <g transform="translate(100.25 185.054688)scale(0.125 -0.125)">
      <use xlink:href="#TimesNewRomanPSMT-78"/>
      <use x="72.216797" xlink:href="#TimesNewRomanPSMT-101"/>
      <use x="116.601562" xlink:href="#TimesNewRomanPSMT-115"/>
      <use x="155.517578" xlink:href="#TimesNewRomanPSMT-116"/>
      <use x="183.300781" xlink:href="#TimesNewRomanPSMT-46"/>
      <use x="208.300781" xlink:href="#TimesNewRomanPSMT-54"/>
     </g>
    </g>
    <g id="line2d_39">
     <path d="M 65.25 198.353516 
L 90.25 198.353516 
" style="fill:none;stroke:#7f7f7f;stroke-linecap:square;stroke-width:1.5;"/>
    </g>
    <g id="line2d_40"/>
    <g id="text_20">
     <!-- Nest.7 -->
     <g transform="translate(100.25 202.728516)scale(0.125 -0.125)">
      <defs>
       <path d="M 10.0625 66.21875 
L 45.5625 66.21875 
L 45.5625 64.359375 
L 23.484375 -1.375 
L 18.015625 -1.375 
L 37.796875 58.25 
L 19.578125 58.25 
Q 14.0625 58.25 11.71875 56.9375 
Q 7.625 54.6875 5.125 50 
L 3.71875 50.53125 
z
" id="TimesNewRomanPSMT-55"/>
      </defs>
      <use xlink:href="#TimesNewRomanPSMT-78"/>
      <use x="72.216797" xlink:href="#TimesNewRomanPSMT-101"/>
      <use x="116.601562" xlink:href="#TimesNewRomanPSMT-115"/>
      <use x="155.517578" xlink:href="#TimesNewRomanPSMT-116"/>
      <use x="183.300781" xlink:href="#TimesNewRomanPSMT-46"/>
      <use x="208.300781" xlink:href="#TimesNewRomanPSMT-55"/>
     </g>
    </g>
    <g id="line2d_41">
     <path d="M 65.25 216.027344 
L 90.25 216.027344 
" style="fill:none;stroke:#bcbd22;stroke-linecap:square;stroke-width:1.5;"/>
    </g>
    <g id="line2d_42"/>
    <g id="text_21">
     <!-- Nest.8 -->
     <g transform="translate(100.25 220.402344)scale(0.125 -0.125)">
      <use xlink:href="#TimesNewRomanPSMT-78"/>
      <use x="72.216797" xlink:href="#TimesNewRomanPSMT-101"/>
      <use x="116.601562" xlink:href="#TimesNewRomanPSMT-115"/>
      <use x="155.517578" xlink:href="#TimesNewRomanPSMT-116"/>
      <use x="183.300781" xlink:href="#TimesNewRomanPSMT-46"/>
      <use x="208.300781" xlink:href="#TimesNewRomanPSMT-56"/>
     </g>
    </g>
    <g id="line2d_43">
     <path d="M 65.25 233.701172 
L 90.25 233.701172 
" style="fill:none;stroke:#17becf;stroke-linecap:square;stroke-width:1.5;"/>
    </g>
    <g id="line2d_44"/>
    <g id="text_22">
     <!-- Nest.9 -->
     <g transform="translate(100.25 238.076172)scale(0.125 -0.125)">
      <defs>
       <path d="M 5.28125 -1.375 
L 5.28125 0.4375 
Q 11.625 0.53125 17.09375 3.390625 
Q 22.5625 6.25 27.65625 13.375 
Q 32.765625 20.515625 34.765625 29.046875 
Q 27.09375 24.125 20.90625 24.125 
Q 13.921875 24.125 8.9375 29.515625 
Q 3.953125 34.90625 3.953125 43.84375 
Q 3.953125 52.546875 8.9375 59.328125 
Q 14.9375 67.578125 24.609375 67.578125 
Q 32.765625 67.578125 38.578125 60.84375 
Q 45.703125 52.484375 45.703125 40.234375 
Q 45.703125 29.203125 40.28125 19.65625 
Q 34.859375 10.109375 25.203125 3.8125 
Q 17.328125 -1.375 8.0625 -1.375 
z
M 35.546875 32.671875 
Q 36.421875 39.015625 36.421875 42.828125 
Q 36.421875 47.5625 34.8125 53.046875 
Q 33.203125 58.546875 30.25 61.46875 
Q 27.296875 64.40625 23.53125 64.40625 
Q 19.1875 64.40625 15.90625 60.5 
Q 12.640625 56.59375 12.640625 48.875 
Q 12.640625 38.578125 17 32.765625 
Q 20.171875 28.5625 24.8125 28.5625 
Q 27.046875 28.5625 30.125 29.640625 
Q 33.203125 30.71875 35.546875 32.671875 
z
" id="TimesNewRomanPSMT-57"/>
      </defs>
      <use xlink:href="#TimesNewRomanPSMT-78"/>
      <use x="72.216797" xlink:href="#TimesNewRomanPSMT-101"/>
      <use x="116.601562" xlink:href="#TimesNewRomanPSMT-115"/>
      <use x="155.517578" xlink:href="#TimesNewRomanPSMT-116"/>
      <use x="183.300781" xlink:href="#TimesNewRomanPSMT-46"/>
      <use x="208.300781" xlink:href="#TimesNewRomanPSMT-57"/>
     </g>
    </g>
   </g>
  </g>
 </g>
 <defs>
  <clipPath id="pfa57207d7d">
   <rect height="217.44" width="334.8" x="54" y="34.56"/>
  </clipPath>
 </defs>
</svg>
