<?xml version="1.0" encoding="utf-8" standalone="no"?>
<!DOCTYPE svg PUBLIC "-//W3C//DTD SVG 1.1//EN"
  "http://www.w3.org/Graphics/SVG/1.1/DTD/svg11.dtd">
<!-- Created with matplotlib (https://matplotlib.org/) -->
<svg height="288pt" version="1.1" viewBox="0 0 432 288" width="432pt" xmlns="http://www.w3.org/2000/svg" xmlns:xlink="http://www.w3.org/1999/xlink">
 <metadata>
  <rdf:RDF xmlns:cc="http://creativecommons.org/ns#" xmlns:dc="http://purl.org/dc/elements/1.1/" xmlns:rdf="http://www.w3.org/1999/02/22-rdf-syntax-ns#">
   <cc:Work>
    <dc:type rdf:resource="http://purl.org/dc/dcmitype/StillImage"/>
    <dc:date>2021-03-31T14:47:37.333093</dc:date>
    <dc:format>image/svg+xml</dc:format>
    <dc:creator>
     <cc:Agent>
      <dc:title>Matplotlib v3.3.4, https://matplotlib.org/</dc:title>
     </cc:Agent>
    </dc:creator>
   </cc:Work>
  </rdf:RDF>
 </metadata>
 <defs>
  <style type="text/css">*{stroke-linecap:butt;stroke-linejoin:round;}</style>
 </defs>
 <g id="figure_1">
  <g id="patch_1">
   <path d="M 0 288 
L 432 288 
L 432 0 
L 0 0 
z
" style="fill:#ffffff;"/>
  </g>
  <g id="axes_1">
   <g id="patch_2">
    <path d="M 54 252 
L 388.8 252 
L 388.8 34.56 
L 54 34.56 
z
" style="fill:#ffffff;"/>
   </g>
   <g id="matplotlib.axis_1">
    <g id="xtick_1">
     <g id="line2d_1">
      <defs>
       <path d="M 0 0 
L 0 3.5 
" id="m1a3014797f" style="stroke:#000000;stroke-width:0.8;"/>
      </defs>
      <g>
       <use style="stroke:#000000;stroke-width:0.8;" x="54" xlink:href="#m1a3014797f" y="252"/>
      </g>
     </g>
     <g id="text_1">
      <!-- −1.5 -->
      <g transform="translate(41.858594 266.598437)scale(0.1 -0.1)">
       <defs>
        <path d="M 10.59375 35.5 
L 73.1875 35.5 
L 73.1875 27.203125 
L 10.59375 27.203125 
z
" id="DejaVuSans-8722"/>
        <path d="M 12.40625 8.296875 
L 28.515625 8.296875 
L 28.515625 63.921875 
L 10.984375 60.40625 
L 10.984375 69.390625 
L 28.421875 72.90625 
L 38.28125 72.90625 
L 38.28125 8.296875 
L 54.390625 8.296875 
L 54.390625 0 
L 12.40625 0 
z
" id="DejaVuSans-49"/>
        <path d="M 10.6875 12.40625 
L 21 12.40625 
L 21 0 
L 10.6875 0 
z
" id="DejaVuSans-46"/>
        <path d="M 10.796875 72.90625 
L 49.515625 72.90625 
L 49.515625 64.59375 
L 19.828125 64.59375 
L 19.828125 46.734375 
Q 21.96875 47.46875 24.109375 47.828125 
Q 26.265625 48.1875 28.421875 48.1875 
Q 40.625 48.1875 47.75 41.5 
Q 54.890625 34.8125 54.890625 23.390625 
Q 54.890625 11.625 47.5625 5.09375 
Q 40.234375 -1.421875 26.90625 -1.421875 
Q 22.3125 -1.421875 17.546875 -0.640625 
Q 12.796875 0.140625 7.71875 1.703125 
L 7.71875 11.625 
Q 12.109375 9.234375 16.796875 8.0625 
Q 21.484375 6.890625 26.703125 6.890625 
Q 35.15625 6.890625 40.078125 11.328125 
Q 45.015625 15.765625 45.015625 23.390625 
Q 45.015625 31 40.078125 35.4375 
Q 35.15625 39.890625 26.703125 39.890625 
Q 22.75 39.890625 18.8125 39.015625 
Q 14.890625 38.140625 10.796875 36.28125 
z
" id="DejaVuSans-53"/>
       </defs>
       <use xlink:href="#DejaVuSans-8722"/>
       <use x="83.789062" xlink:href="#DejaVuSans-49"/>
       <use x="147.412109" xlink:href="#DejaVuSans-46"/>
       <use x="179.199219" xlink:href="#DejaVuSans-53"/>
      </g>
     </g>
    </g>
    <g id="xtick_2">
     <g id="line2d_2">
      <g>
       <use style="stroke:#000000;stroke-width:0.8;" x="109.8" xlink:href="#m1a3014797f" y="252"/>
      </g>
     </g>
     <g id="text_2">
      <!-- −1.0 -->
      <g transform="translate(97.658594 266.598437)scale(0.1 -0.1)">
       <defs>
        <path d="M 31.78125 66.40625 
Q 24.171875 66.40625 20.328125 58.90625 
Q 16.5 51.421875 16.5 36.375 
Q 16.5 21.390625 20.328125 13.890625 
Q 24.171875 6.390625 31.78125 6.390625 
Q 39.453125 6.390625 43.28125 13.890625 
Q 47.125 21.390625 47.125 36.375 
Q 47.125 51.421875 43.28125 58.90625 
Q 39.453125 66.40625 31.78125 66.40625 
z
M 31.78125 74.21875 
Q 44.046875 74.21875 50.515625 64.515625 
Q 56.984375 54.828125 56.984375 36.375 
Q 56.984375 17.96875 50.515625 8.265625 
Q 44.046875 -1.421875 31.78125 -1.421875 
Q 19.53125 -1.421875 13.0625 8.265625 
Q 6.59375 17.96875 6.59375 36.375 
Q 6.59375 54.828125 13.0625 64.515625 
Q 19.53125 74.21875 31.78125 74.21875 
z
" id="DejaVuSans-48"/>
       </defs>
       <use xlink:href="#DejaVuSans-8722"/>
       <use x="83.789062" xlink:href="#DejaVuSans-49"/>
       <use x="147.412109" xlink:href="#DejaVuSans-46"/>
       <use x="179.199219" xlink:href="#DejaVuSans-48"/>
      </g>
     </g>
    </g>
    <g id="xtick_3">
     <g id="line2d_3">
      <g>
       <use style="stroke:#000000;stroke-width:0.8;" x="165.6" xlink:href="#m1a3014797f" y="252"/>
      </g>
     </g>
     <g id="text_3">
      <!-- −0.5 -->
      <g transform="translate(153.458594 266.598437)scale(0.1 -0.1)">
       <use xlink:href="#DejaVuSans-8722"/>
       <use x="83.789062" xlink:href="#DejaVuSans-48"/>
       <use x="147.412109" xlink:href="#DejaVuSans-46"/>
       <use x="179.199219" xlink:href="#DejaVuSans-53"/>
      </g>
     </g>
    </g>
    <g id="xtick_4">
     <g id="line2d_4">
      <g>
       <use style="stroke:#000000;stroke-width:0.8;" x="221.4" xlink:href="#m1a3014797f" y="252"/>
      </g>
     </g>
     <g id="text_4">
      <!-- 0.0 -->
      <g transform="translate(213.448438 266.598437)scale(0.1 -0.1)">
       <use xlink:href="#DejaVuSans-48"/>
       <use x="63.623047" xlink:href="#DejaVuSans-46"/>
       <use x="95.410156" xlink:href="#DejaVuSans-48"/>
      </g>
     </g>
    </g>
    <g id="xtick_5">
     <g id="line2d_5">
      <g>
       <use style="stroke:#000000;stroke-width:0.8;" x="277.2" xlink:href="#m1a3014797f" y="252"/>
      </g>
     </g>
     <g id="text_5">
      <!-- 0.5 -->
      <g transform="translate(269.248437 266.598437)scale(0.1 -0.1)">
       <use xlink:href="#DejaVuSans-48"/>
       <use x="63.623047" xlink:href="#DejaVuSans-46"/>
       <use x="95.410156" xlink:href="#DejaVuSans-53"/>
      </g>
     </g>
    </g>
    <g id="xtick_6">
     <g id="line2d_6">
      <g>
       <use style="stroke:#000000;stroke-width:0.8;" x="333" xlink:href="#m1a3014797f" y="252"/>
      </g>
     </g>
     <g id="text_6">
      <!-- 1.0 -->
      <g transform="translate(325.048437 266.598437)scale(0.1 -0.1)">
       <use xlink:href="#DejaVuSans-49"/>
       <use x="63.623047" xlink:href="#DejaVuSans-46"/>
       <use x="95.410156" xlink:href="#DejaVuSans-48"/>
      </g>
     </g>
    </g>
    <g id="xtick_7">
     <g id="line2d_7">
      <g>
       <use style="stroke:#000000;stroke-width:0.8;" x="388.8" xlink:href="#m1a3014797f" y="252"/>
      </g>
     </g>
     <g id="text_7">
      <!-- 1.5 -->
      <g transform="translate(380.848437 266.598437)scale(0.1 -0.1)">
       <use xlink:href="#DejaVuSans-49"/>
       <use x="63.623047" xlink:href="#DejaVuSans-46"/>
       <use x="95.410156" xlink:href="#DejaVuSans-53"/>
      </g>
     </g>
    </g>
    <g id="text_8">
     <!-- $x_1$ -->
     <g transform="translate(216.05 280.276563)scale(0.1 -0.1)">
      <defs>
       <path d="M 60.015625 54.6875 
L 34.90625 27.875 
L 50.296875 0 
L 39.984375 0 
L 28.421875 21.6875 
L 8.296875 0 
L -2.59375 0 
L 24.3125 28.8125 
L 10.015625 54.6875 
L 20.3125 54.6875 
L 30.8125 34.90625 
L 49.125 54.6875 
z
" id="DejaVuSans-Oblique-120"/>
      </defs>
      <use transform="translate(0 0.3125)" xlink:href="#DejaVuSans-Oblique-120"/>
      <use transform="translate(59.179688 -16.09375)scale(0.7)" xlink:href="#DejaVuSans-49"/>
     </g>
    </g>
   </g>
   <g id="matplotlib.axis_2">
    <g id="ytick_1">
     <g id="line2d_8">
      <defs>
       <path d="M 0 0 
L -3.5 0 
" id="m7beeb9ffa9" style="stroke:#000000;stroke-width:0.8;"/>
      </defs>
      <g>
       <use style="stroke:#000000;stroke-width:0.8;" x="54" xlink:href="#m7beeb9ffa9" y="252"/>
      </g>
     </g>
     <g id="text_9">
      <!-- −1.5 -->
      <g transform="translate(22.717187 255.799219)scale(0.1 -0.1)">
       <use xlink:href="#DejaVuSans-8722"/>
       <use x="83.789062" xlink:href="#DejaVuSans-49"/>
       <use x="147.412109" xlink:href="#DejaVuSans-46"/>
       <use x="179.199219" xlink:href="#DejaVuSans-53"/>
      </g>
     </g>
    </g>
    <g id="ytick_2">
     <g id="line2d_9">
      <g>
       <use style="stroke:#000000;stroke-width:0.8;" x="54" xlink:href="#m7beeb9ffa9" y="215.76"/>
      </g>
     </g>
     <g id="text_10">
      <!-- −1.0 -->
      <g transform="translate(22.717187 219.559219)scale(0.1 -0.1)">
       <use xlink:href="#DejaVuSans-8722"/>
       <use x="83.789062" xlink:href="#DejaVuSans-49"/>
       <use x="147.412109" xlink:href="#DejaVuSans-46"/>
       <use x="179.199219" xlink:href="#DejaVuSans-48"/>
      </g>
     </g>
    </g>
    <g id="ytick_3">
     <g id="line2d_10">
      <g>
       <use style="stroke:#000000;stroke-width:0.8;" x="54" xlink:href="#m7beeb9ffa9" y="179.52"/>
      </g>
     </g>
     <g id="text_11">
      <!-- −0.5 -->
      <g transform="translate(22.717187 183.319219)scale(0.1 -0.1)">
       <use xlink:href="#DejaVuSans-8722"/>
       <use x="83.789062" xlink:href="#DejaVuSans-48"/>
       <use x="147.412109" xlink:href="#DejaVuSans-46"/>
       <use x="179.199219" xlink:href="#DejaVuSans-53"/>
      </g>
     </g>
    </g>
    <g id="ytick_4">
     <g id="line2d_11">
      <g>
       <use style="stroke:#000000;stroke-width:0.8;" x="54" xlink:href="#m7beeb9ffa9" y="143.28"/>
      </g>
     </g>
     <g id="text_12">
      <!-- 0.0 -->
      <g transform="translate(31.096875 147.079219)scale(0.1 -0.1)">
       <use xlink:href="#DejaVuSans-48"/>
       <use x="63.623047" xlink:href="#DejaVuSans-46"/>
       <use x="95.410156" xlink:href="#DejaVuSans-48"/>
      </g>
     </g>
    </g>
    <g id="ytick_5">
     <g id="line2d_12">
      <g>
       <use style="stroke:#000000;stroke-width:0.8;" x="54" xlink:href="#m7beeb9ffa9" y="107.04"/>
      </g>
     </g>
     <g id="text_13">
      <!-- 0.5 -->
      <g transform="translate(31.096875 110.839219)scale(0.1 -0.1)">
       <use xlink:href="#DejaVuSans-48"/>
       <use x="63.623047" xlink:href="#DejaVuSans-46"/>
       <use x="95.410156" xlink:href="#DejaVuSans-53"/>
      </g>
     </g>
    </g>
    <g id="ytick_6">
     <g id="line2d_13">
      <g>
       <use style="stroke:#000000;stroke-width:0.8;" x="54" xlink:href="#m7beeb9ffa9" y="70.8"/>
      </g>
     </g>
     <g id="text_14">
      <!-- 1.0 -->
      <g transform="translate(31.096875 74.599219)scale(0.1 -0.1)">
       <use xlink:href="#DejaVuSans-49"/>
       <use x="63.623047" xlink:href="#DejaVuSans-46"/>
       <use x="95.410156" xlink:href="#DejaVuSans-48"/>
      </g>
     </g>
    </g>
    <g id="ytick_7">
     <g id="line2d_14">
      <g>
       <use style="stroke:#000000;stroke-width:0.8;" x="54" xlink:href="#m7beeb9ffa9" y="34.56"/>
      </g>
     </g>
     <g id="text_15">
      <!-- 1.5 -->
      <g transform="translate(31.096875 38.359219)scale(0.1 -0.1)">
       <use xlink:href="#DejaVuSans-49"/>
       <use x="63.623047" xlink:href="#DejaVuSans-46"/>
       <use x="95.410156" xlink:href="#DejaVuSans-53"/>
      </g>
     </g>
    </g>
    <g id="text_16">
     <!-- $x_2$ -->
     <g transform="translate(16.6375 148.63)rotate(-90)scale(0.1 -0.1)">
      <defs>
       <path d="M 19.1875 8.296875 
L 53.609375 8.296875 
L 53.609375 0 
L 7.328125 0 
L 7.328125 8.296875 
Q 12.9375 14.109375 22.625 23.890625 
Q 32.328125 33.6875 34.8125 36.53125 
Q 39.546875 41.84375 41.421875 45.53125 
Q 43.3125 49.21875 43.3125 52.78125 
Q 43.3125 58.59375 39.234375 62.25 
Q 35.15625 65.921875 28.609375 65.921875 
Q 23.96875 65.921875 18.8125 64.3125 
Q 13.671875 62.703125 7.8125 59.421875 
L 7.8125 69.390625 
Q 13.765625 71.78125 18.9375 73 
Q 24.125 74.21875 28.421875 74.21875 
Q 39.75 74.21875 46.484375 68.546875 
Q 53.21875 62.890625 53.21875 53.421875 
Q 53.21875 48.921875 51.53125 44.890625 
Q 49.859375 40.875 45.40625 35.40625 
Q 44.1875 33.984375 37.640625 27.21875 
Q 31.109375 20.453125 19.1875 8.296875 
z
" id="DejaVuSans-50"/>
      </defs>
      <use transform="translate(0 0.3125)" xlink:href="#DejaVuSans-Oblique-120"/>
      <use transform="translate(59.179688 -16.09375)scale(0.7)" xlink:href="#DejaVuSans-50"/>
     </g>
    </g>
   </g>
   <g id="LineCollection_1">
    <path clip-path="url(#p8f1ce4676c)" d="M 109.165183 -1 
L 433 209.31743 
L 433 209.31743 
" style="fill:none;stroke:#440154;stroke-width:1.5;"/>
   </g>
   <g id="LineCollection_2">
    <path clip-path="url(#p8f1ce4676c)" d="M 109.166016 -1 
L 433 209.3153 
L 433 209.3153 
" style="fill:none;stroke:#440154;stroke-width:1.5;"/>
   </g>
   <g id="LineCollection_3">
    <path clip-path="url(#p8f1ce4676c)" d="M 109.168056 -1 
L 433 209.310087 
L 433 209.310087 
" style="fill:none;stroke:#440154;stroke-width:1.5;"/>
   </g>
   <g id="LineCollection_4">
    <path clip-path="url(#p8f1ce4676c)" d="M 109.17305 -1 
L 301.034171 123.475562 
L 303.514459 125.068945 
L 433 209.297321 
L 433 209.297321 
" style="fill:none;stroke:#440256;stroke-width:1.5;"/>
   </g>
   <g id="LineCollection_5">
    <path clip-path="url(#p8f1ce4676c)" d="M 109.185279 -1 
L 269.629146 103.074783 
L 272.115768 104.672563 
L 294.304523 118.964951 
L 297.03116 120.698291 
L 312.250251 130.453823 
L 317.504853 133.810251 
L 350.384925 155.286533 
L 353.14273 157.120402 
L 370.573869 168.561193 
L 373.10848 170.232362 
L 428.897487 206.597353 
L 433 209.266066 
L 433 209.266066 
" style="fill:none;stroke:#450457;stroke-width:1.5;"/>
   </g>
   <g id="LineCollection_6">
    <path clip-path="url(#p8f1ce4676c)" d="M 109.215219 -1 
L 235.980905 81.197565 
L 240.7568 84.276181 
L 265.142714 99.993187 
L 270.191496 103.215678 
L 283.088442 111.464108 
L 288.491893 114.870754 
L 296.547739 119.976769 
L 304.698599 125.068945 
L 310.007035 128.4086 
L 320.912805 135.267136 
L 341.41206 148.70179 
L 360.400011 161.491055 
L 368.330653 166.759739 
L 373.530546 170.232362 
L 386.276382 178.628695 
L 391.213187 181.887437 
L 419.924623 200.662088 
L 424.635183 203.740704 
L 433 209.189539 
L 433 209.189539 
" style="fill:none;stroke:#460b5e;stroke-width:1.5;"/>
   </g>
   <g id="LineCollection_7">
    <path clip-path="url(#p8f1ce4676c)" d="M 109.288527 -1 
L 195.603015 54.929925 
L 202.698602 59.509146 
L 229.251256 76.635359 
L 236.629671 81.362412 
L 249.440201 89.57479 
L 257.162722 94.474372 
L 265.142714 99.546022 
L 275.663509 106.129447 
L 280.845226 109.365579 
L 289.951872 114.870754 
L 303.277387 116.686401 
L 314.493467 118.466717 
L 323.466332 120.08301 
L 332.439196 121.897311 
L 340.010951 123.61206 
L 348.141709 125.701029 
L 354.871357 127.64463 
L 360.422443 129.439598 
L 366.087437 131.5366 
L 370.573869 133.419676 
L 372.817085 134.471789 
L 375.060302 135.605543 
L 377.303518 136.852065 
L 379.546734 138.260609 
L 381.78995 139.914002 
L 383.183064 141.094673 
L 384.605232 142.551558 
L 385.726917 144.008442 
L 386.549863 145.465327 
L 387.068222 146.922211 
L 387.283276 148.379095 
L 387.188683 149.83598 
L 386.777926 151.292864 
L 386.040973 152.749749 
L 384.962206 154.206633 
L 383.534204 155.663518 
L 381.736798 157.120402 
L 379.544317 158.577286 
L 376.928652 160.034171 
L 372.817085 161.925173 
L 368.330653 163.65336 
L 366.181837 164.404824 
L 370.573869 167.490875 
L 381.78995 175.112216 
L 389.683464 180.430553 
L 397.492462 185.613257 
L 402.83345 189.171859 
L 415.438191 197.472954 
L 420.520396 200.826935 
L 433 209.002168 
L 433 209.002168 
" style="fill:none;stroke:#481a6c;stroke-width:1.5;"/>
   </g>
   <g id="LineCollection_8">
    <path clip-path="url(#p8f1ce4676c)" d="M 433 180.638318 
L 431.140704 181.098183 
L 428.897487 181.643592 
L 427.87839 181.887437 
L 426.654271 182.166624 
L 424.411055 182.669998 
L 422.167839 183.164669 
L 421.339823 183.344322 
L 419.924623 183.637699 
L 417.681407 184.094956 
L 415.438191 184.544128 
L 414.132083 184.801206 
L 413.194975 184.977822 
L 410.951759 185.393508 
L 408.708543 185.801651 
L 406.465327 186.202297 
L 406.147564 186.25809 
L 404.222111 186.582475 
L 401.978894 186.953434 
L 401.933188 187.714975 
L 401.978894 187.744659 
L 404.071219 189.171859 
L 404.222111 189.269858 
L 406.21614 190.628744 
L 406.465327 190.790581 
L 408.367409 192.085628 
L 408.708543 192.307182 
L 410.524529 193.542513 
L 410.951759 193.819983 
L 412.687046 194.999397 
L 413.194975 195.329278 
L 414.854548 196.456281 
L 415.438191 196.835336 
L 417.026655 197.913166 
L 417.681407 198.338402 
L 419.203023 199.37005 
L 419.924623 199.838702 
L 421.383336 200.826935 
L 422.167839 201.33644 
L 423.567305 202.283819 
L 424.411055 202.831803 
L 425.754664 203.740704 
L 426.654271 204.324965 
L 427.945172 205.197588 
L 428.897487 205.816081 
L 430.138607 206.654472 
L 431.140704 207.305297 
L 432.334764 208.111357 
L 433 208.543403 
" style="fill:none;stroke:#443983;stroke-width:1.5;"/>
    <path clip-path="url(#p8f1ce4676c)" d="M 109.468017 -1 
L 159.711558 31.504235 
L 169.253799 37.655879 
L 193.359799 53.186753 
L 203.228642 59.509146 
L 215.79196 67.557204 
L 228.351649 75.534874 
L 235.980905 80.374179 
L 253.926633 91.590288 
L 256.169849 92.246902 
L 271.872362 93.285124 
L 289.81809 94.724506 
L 305.520603 96.214145 
L 321.223116 97.93308 
L 336.925628 99.895039 
L 350.384925 101.78605 
L 366.087437 104.277439 
L 377.303518 106.254933 
L 391.516272 109.043216 
L 404.222111 111.84818 
L 410.951759 113.47116 
L 422.167839 116.433145 
L 431.672136 119.241407 
L 433 119.666884 
L 433 119.666884 
" style="fill:none;stroke:#443983;stroke-width:1.5;"/>
   </g>
   <g id="LineCollection_9">
    <path clip-path="url(#p8f1ce4676c)" d="M 109.907486 -1 
L 135.036181 15.193015 
L 151.871926 26.000804 
L 166.441206 35.340965 
L 204.575879 59.541274 
L 206.819095 60.491548 
L 227.00804 61.100153 
L 249.440201 62.018767 
L 269.629146 63.061188 
L 289.81809 64.310552 
L 310.007035 65.773071 
L 330.19598 67.455207 
L 350.384925 69.363686 
L 368.330653 71.25945 
L 388.519598 73.634149 
L 406.465327 75.968435 
L 424.411055 78.528713 
L 433 79.841507 
L 433 79.841507 
" style="fill:none;stroke:#297a8e;stroke-width:1.5;"/>
   </g>
   <g id="LineCollection_10">
    <path clip-path="url(#p8f1ce4676c)" d="M 110.996201 -1 
L 132.792965 12.772286 
L 159.711558 12.99621 
L 186.630151 13.456201 
L 213.548744 14.146162 
L 240.467337 15.069559 
L 267.38593 16.223129 
L 294.304523 17.610024 
L 321.223116 19.233454 
L 348.141709 21.096688 
L 373.647111 23.087035 
L 399.735678 25.361431 
L 424.411055 27.736028 
L 433 28.616134 
L 433 28.616134 
" style="fill:none;stroke:#fde725;stroke-width:1.5;"/>
   </g>
   <g id="line2d_15">
    <path clip-path="url(#p8f1ce4676c)" d="M 54 252 
L 388.8 252 
" style="fill:none;stroke:#000000;stroke-linecap:square;stroke-width:1.5;"/>
   </g>
   <g id="line2d_16">
    <path clip-path="url(#p8f1ce4676c)" d="M 54 34.56 
L 388.8 34.56 
" style="fill:none;stroke:#000000;stroke-linecap:square;stroke-width:1.5;"/>
   </g>
   <g id="line2d_17">
    <path clip-path="url(#p8f1ce4676c)" d="M 54 252 
L 54 34.56 
" style="fill:none;stroke:#000000;stroke-linecap:square;stroke-width:1.5;"/>
   </g>
   <g id="line2d_18">
    <path clip-path="url(#p8f1ce4676c)" d="M 388.8 252 
L 388.8 34.56 
" style="fill:none;stroke:#000000;stroke-linecap:square;stroke-width:1.5;"/>
   </g>
   <g id="line2d_19">
    <path clip-path="url(#p8f1ce4676c)" d="M 331.031318 71.090034 
L 329.211528 72.821414 
L 326.965678 79.968487 
L 328.663186 80.294752 
L 327.733333 80.484228 
L 327.540936 81.456532 
L 326.41807 83.33838 
L 326.414889 83.529122 
L 326.414889 83.529122 
L 326.832406 84.069752 
L 329.823275 84.794621 
L 329.176821 85.064645 
L 331.747209 86.139591 
L 333.9644 87.176692 
L 332.217897 88.146249 
L 328.872356 90.395582 
L 327.945147 91.730518 
L 326.031953 95.178793 
L 324.322891 95.952195 
L 322.485632 97.063099 
L 321.527194 97.984994 
L 322.025514 100.635448 
L 323.624884 102.562872 
L 325.216884 103.018164 
L 322.921826 102.973268 
L 324.558493 103.199133 
L 323.241439 103.845239 
L 322.963305 104.620417 
L 322.873123 104.682224 
L 322.212197 104.806403 
L 321.766105 104.953963 
L 321.179029 106.093913 
L 320.309356 107.857228 
L 320.309356 107.857228 
" style="fill:none;stroke:#1f77b4;stroke-dasharray:5.55,2.4;stroke-dashoffset:0;stroke-width:1.5;"/>
   </g>
   <g id="line2d_20">
    <path clip-path="url(#p8f1ce4676c)" d="M 334.812769 71.243401 
L 333.856035 71.931249 
L 333.994423 74.691058 
L 339.25924 80.97307 
L 339.392561 81.090706 
L 340.796669 82.468355 
L 344.230561 86.218364 
L 345.586974 86.945068 
L 346.047422 87.99269 
L 345.903184 88.736269 
L 347.133282 89.54976 
L 346.769113 90.347635 
L 347.707672 90.86738 
L 347.376408 91.44994 
L 347.607037 92.172287 
L 346.755595 92.357572 
L 346.134836 92.915739 
L 345.012375 93.223158 
L 345.012375 93.223158 
L 343.778176 93.757872 
L 342.467891 94.719511 
L 343.225432 96.175451 
L 344.306734 98.144492 
L 344.085576 99.60083 
L 343.545628 102.947866 
L 343.908076 103.111575 
L 342.414953 103.198575 
L 342.978232 103.558197 
L 341.961883 104.087074 
L 341.311242 104.967867 
L 342.113737 105.955282 
L 342.900414 106.402426 
L 342.900414 106.402426 
L 341.154777 107.328652 
" style="fill:none;stroke:#ff7f0e;stroke-dasharray:5.55,2.4;stroke-dashoffset:0;stroke-width:1.5;"/>
   </g>
   <g id="line2d_21">
    <path clip-path="url(#p8f1ce4676c)" d="M 332.534898 70.840782 
L 335.270888 71.998786 
L 337.569084 74.753076 
L 335.636754 76.415755 
L 335.189027 78.25338 
L 333.327886 80.609918 
L 331.244671 87.169177 
L 331.88587 88.293606 
L 331.800727 89.068757 
L 330.985238 89.825515 
L 330.682201 89.944204 
L 331.47376 90.602416 
L 331.234423 91.120977 
L 330.728592 91.888592 
L 328.430062 92.861628 
L 329.357335 94.434942 
L 327.316239 97.99486 
L 328.331317 99.023276 
L 328.509997 100.544291 
L 328.490128 100.915692 
L 328.840007 101.353422 
L 330.889572 102.551924 
L 333.995925 103.679017 
L 331.724727 103.477764 
L 331.724727 103.477764 
L 333.280933 103.71992 
L 331.972106 103.553801 
L 331.830222 104.436353 
L 332.228946 105.397762 
L 332.064998 106.534119 
L 331.858346 108.089533 
L 332.255454 108.253481 
L 329.949299 108.063958 
L 330.434489 109.125543 
" style="fill:none;stroke:#2ca02c;stroke-dasharray:5.55,2.4;stroke-dashoffset:0;stroke-width:1.5;"/>
   </g>
   <g id="line2d_22">
    <path clip-path="url(#p8f1ce4676c)" d="M 331.003891 71.116382 
L 330.206827 72.610445 
L 330.204877 76.725682 
L 330.184194 77.120613 
L 330.113369 77.5744 
L 331.583123 78.190956 
L 331.062216 79.63236 
L 328.674819 83.003709 
L 328.049527 84.037025 
L 328.004805 86.936516 
L 327.314884 87.546058 
L 326.111298 87.666353 
L 325.325955 88.146179 
L 325.528563 88.486484 
L 324.038931 88.547902 
L 323.575851 89.908601 
L 320.221262 93.749451 
L 319.005652 95.606988 
L 315.544259 101.099821 
L 313.761785 101.38436 
L 316.714621 101.94006 
L 315.292712 102.93847 
L 314.138153 104.917995 
L 313.288711 104.815852 
L 311.601022 105.028064 
L 310.974373 105.607183 
L 309.524388 106.53509 
L 310.585197 107.738785 
L 311.36566 109.007735 
L 311.448978 111.475759 
L 309.583075 113.878219 
L 309.293163 115.586145 
L 308.654651 116.14537 
L 309.572778 117.02506 
" style="fill:none;stroke:#d62728;stroke-dasharray:5.55,2.4;stroke-dashoffset:0;stroke-width:1.5;"/>
   </g>
   <g id="line2d_23">
    <path clip-path="url(#p8f1ce4676c)" d="M 332.943573 71.162365 
L 334.051336 71.688663 
L 333.752336 72.913074 
L 333.348722 76.118273 
L 333.70984 76.944159 
L 333.443737 77.832171 
L 333.6507 78.135922 
L 335.05687 78.331862 
L 334.868966 79.282621 
L 335.252978 81.288199 
L 335.252978 81.288199 
L 335.796058 82.133469 
L 333.519346 83.423754 
L 334.574414 84.326332 
L 337.285611 85.691004 
L 339.604751 86.94463 
L 339.453491 88.54295 
L 340.843135 94.120872 
L 338.425686 94.74094 
L 336.571106 95.933736 
L 337.86613 96.338059 
L 335.606122 96.125882 
L 336.683957 96.70303 
L 337.03534 97.627154 
L 337.452782 98.743336 
L 338.347266 100.123541 
L 339.393492 101.80346 
L 339.393492 101.80346 
L 341.070602 102.183941 
L 339.371887 102.12132 
L 336.885455 102.270505 
L 336.672319 102.827901 
L 336.99534 103.464461 
L 338.446695 104.001154 
" style="fill:none;stroke:#9467bd;stroke-dasharray:5.55,2.4;stroke-dashoffset:0;stroke-width:1.5;"/>
   </g>
   <g id="line2d_24">
    <path clip-path="url(#p8f1ce4676c)" d="M 333.49241 71.039815 
L 333.49241 71.039815 
L 332.608106 72.045057 
L 331.305773 75.170844 
L 331.064165 75.600517 
L 329.648497 75.652466 
L 330.383001 76.052597 
L 328.557995 76.596019 
L 325.700964 78.371629 
L 323.668216 82.735498 
L 322.14237 83.236963 
L 320.322801 84.023615 
L 319.24972 84.52772 
L 318.77472 85.04226 
L 318.77472 85.04226 
L 319.634225 85.40924 
L 319.511754 85.422725 
L 319.575854 85.542706 
L 319.320638 86.403057 
L 319.131147 88.791194 
L 318.936347 90.84801 
L 318.887559 91.041077 
L 318.634915 91.866942 
L 317.048744 93.2046 
L 316.662958 93.280467 
L 315.375181 93.384571 
L 314.442048 93.830516 
L 314.616776 94.826141 
L 315.076395 96.904852 
L 314.601783 100.531616 
L 315.59557 101.173597 
L 315.390722 101.863357 
L 314.73529 101.920181 
L 313.951197 101.858922 
" style="fill:none;stroke:#8c564b;stroke-dasharray:5.55,2.4;stroke-dashoffset:0;stroke-width:1.5;"/>
   </g>
   <g id="line2d_25">
    <path clip-path="url(#p8f1ce4676c)" d="M 333.347951 71.328382 
L 333.743223 72.211144 
L 336.713995 73.397226 
L 338.32217 74.578208 
L 342.32881 76.789363 
L 338.179991 77.019086 
L 335.680481 78.343166 
L 336.034667 79.581262 
L 336.209755 79.62567 
L 335.439647 80.130766 
L 334.551566 81.853052 
L 332.077365 85.37549 
L 332.735131 86.286448 
L 331.693401 87.4555 
L 330.821088 88.160538 
L 330.130308 89.165353 
L 328.151322 91.526111 
L 327.625499 92.008983 
L 325.124311 92.5979 
L 323.70873 93.26028 
L 324.853283 93.506106 
L 324.823949 93.979442 
L 324.864379 95.116093 
L 326.080564 96.745024 
L 325.30479 97.425939 
L 324.549022 98.628995 
L 324.754031 99.332324 
L 325.040537 100.861622 
L 327.740577 104.585926 
L 326.03688 104.980415 
L 326.378435 105.684941 
L 326.448661 106.083546 
L 326.90546 106.591779 
L 327.333012 107.237951 
" style="fill:none;stroke:#e377c2;stroke-dasharray:5.55,2.4;stroke-dashoffset:0;stroke-width:1.5;"/>
   </g>
   <g id="line2d_26">
    <path clip-path="url(#p8f1ce4676c)" d="M 334.886627 71.137711 
L 333.85256 71.254535 
L 332.977096 71.21293 
L 333.65129 72.485902 
L 332.512934 76.312036 
L 331.273649 76.643822 
L 332.17639 76.772894 
L 331.544866 77.705065 
L 330.415034 79.781349 
L 331.100629 80.832747 
L 329.794104 82.879538 
L 330.710887 84.320775 
L 331.728952 89.010085 
L 331.207305 92.109591 
L 331.170292 96.842307 
L 331.185935 97.410069 
L 333.270829 98.025424 
L 329.672701 98.23277 
L 330.01159 99.501771 
L 328.90517 99.94474 
L 328.90517 99.94474 
L 331.471827 100.724795 
L 329.453742 101.935643 
L 325.714724 105.834659 
L 325.277026 109.028114 
L 322.989014 109.005103 
L 323.528977 109.135523 
L 323.462094 109.22908 
L 323.462094 109.22908 
L 323.966075 110.017034 
L 323.576814 111.581422 
L 323.276361 114.195041 
L 322.910092 115.522934 
L 321.636344 116.19611 
" style="fill:none;stroke:#7f7f7f;stroke-dasharray:5.55,2.4;stroke-dashoffset:0;stroke-width:1.5;"/>
   </g>
   <g id="line2d_27">
    <path clip-path="url(#p8f1ce4676c)" d="M 332.898216 71.590962 
L 330.591137 73.63911 
L 327.897515 77.816644 
L 333.793636 84.746955 
L 326.387021 90.85714 
L 327.057346 92.765022 
L 327.940358 95.493416 
L 327.216767 96.18287 
L 328.085835 96.472695 
L 327.151573 96.473775 
L 328.705472 96.808873 
L 328.149376 96.896558 
L 326.223452 97.106361 
L 325.465589 97.98216 
L 325.210572 99.085737 
L 325.210572 99.085737 
L 325.043912 99.134972 
L 324.99996 99.428195 
L 325.548693 100.16514 
L 325.203557 100.802177 
L 325.203557 100.802177 
L 325.203557 100.802177 
L 325.428366 101.095626 
L 323.469916 101.689265 
L 325.667115 103.014803 
L 322.359791 104.016142 
L 319.153108 107.065083 
L 317.486728 108.036202 
L 316.411739 109.276574 
L 315.213236 111.255361 
L 315.000117 112.87021 
L 314.316057 114.568787 
L 314.762974 114.740419 
L 314.260473 115.906899 
" style="fill:none;stroke:#bcbd22;stroke-dasharray:5.55,2.4;stroke-dashoffset:0;stroke-width:1.5;"/>
   </g>
   <g id="line2d_28">
    <path clip-path="url(#p8f1ce4676c)" d="M 333.001237 71.009862 
L 331.755222 70.936872 
L 332.128075 71.279639 
L 330.383393 71.677823 
L 329.310541 72.316435 
L 328.490662 73.770395 
L 326.207169 77.753098 
L 324.027601 78.290367 
L 325.092747 79.043977 
L 325.719295 80.164014 
L 325.176409 81.482178 
L 324.723287 81.740404 
L 325.366541 81.979851 
L 324.843565 82.088319 
L 324.370567 83.519623 
L 322.869469 89.643564 
L 320.159845 95.565798 
L 317.527049 96.401723 
L 316.092732 97.024349 
L 313.742501 98.567481 
L 311.306003 99.787518 
L 312.436637 100.071957 
L 311.709522 100.566527 
L 309.459303 100.633965 
L 311.811377 101.31522 
L 310.38507 101.617183 
L 309.749311 103.008286 
L 305.546232 105.313935 
L 305.943572 105.777605 
L 306.890962 106.371049 
L 308.646592 107.499226 
L 306.507711 108.30004 
L 306.643109 109.472552 
L 305.732363 110.720803 
" style="fill:none;stroke:#17becf;stroke-dasharray:5.55,2.4;stroke-dashoffset:0;stroke-width:1.5;"/>
   </g>
   <g id="patch_3">
    <path d="M 54 252 
L 54 34.56 
" style="fill:none;stroke:#000000;stroke-linecap:square;stroke-linejoin:miter;stroke-width:0.8;"/>
   </g>
   <g id="patch_4">
    <path d="M 388.8 252 
L 388.8 34.56 
" style="fill:none;stroke:#000000;stroke-linecap:square;stroke-linejoin:miter;stroke-width:0.8;"/>
   </g>
   <g id="patch_5">
    <path d="M 54 252 
L 388.8 252 
" style="fill:none;stroke:#000000;stroke-linecap:square;stroke-linejoin:miter;stroke-width:0.8;"/>
   </g>
   <g id="patch_6">
    <path d="M 54 34.56 
L 388.8 34.56 
" style="fill:none;stroke:#000000;stroke-linecap:square;stroke-linejoin:miter;stroke-width:0.8;"/>
   </g>
   <g id="legend_1">
    <g id="patch_7">
     <path d="M 61 189.34125 
L 125.304688 189.34125 
Q 127.304688 189.34125 127.304688 187.34125 
L 127.304688 41.56 
Q 127.304688 39.56 125.304688 39.56 
L 61 39.56 
Q 59 39.56 59 41.56 
L 59 187.34125 
Q 59 189.34125 61 189.34125 
z
" style="fill:#ffffff;opacity:0.8;stroke:#cccccc;stroke-linejoin:miter;"/>
    </g>
    <g id="line2d_29">
     <path d="M 63 47.658437 
L 83 47.658437 
" style="fill:none;stroke:#1f77b4;stroke-dasharray:5.55,2.4;stroke-dashoffset:0;stroke-width:1.5;"/>
    </g>
    <g id="line2d_30"/>
    <g id="text_17">
     <!-- Nest.0 -->
     <g transform="translate(91 51.158437)scale(0.1 -0.1)">
      <defs>
       <path d="M 9.8125 72.90625 
L 23.09375 72.90625 
L 55.421875 11.921875 
L 55.421875 72.90625 
L 64.984375 72.90625 
L 64.984375 0 
L 51.703125 0 
L 19.390625 60.984375 
L 19.390625 0 
L 9.8125 0 
z
" id="DejaVuSans-78"/>
       <path d="M 56.203125 29.59375 
L 56.203125 25.203125 
L 14.890625 25.203125 
Q 15.484375 15.921875 20.484375 11.0625 
Q 25.484375 6.203125 34.421875 6.203125 
Q 39.59375 6.203125 44.453125 7.46875 
Q 49.3125 8.734375 54.109375 11.28125 
L 54.109375 2.78125 
Q 49.265625 0.734375 44.1875 -0.34375 
Q 39.109375 -1.421875 33.890625 -1.421875 
Q 20.796875 -1.421875 13.15625 6.1875 
Q 5.515625 13.8125 5.515625 26.8125 
Q 5.515625 40.234375 12.765625 48.109375 
Q 20.015625 56 32.328125 56 
Q 43.359375 56 49.78125 48.890625 
Q 56.203125 41.796875 56.203125 29.59375 
z
M 47.21875 32.234375 
Q 47.125 39.59375 43.09375 43.984375 
Q 39.0625 48.390625 32.421875 48.390625 
Q 24.90625 48.390625 20.390625 44.140625 
Q 15.875 39.890625 15.1875 32.171875 
z
" id="DejaVuSans-101"/>
       <path d="M 44.28125 53.078125 
L 44.28125 44.578125 
Q 40.484375 46.53125 36.375 47.5 
Q 32.28125 48.484375 27.875 48.484375 
Q 21.1875 48.484375 17.84375 46.4375 
Q 14.5 44.390625 14.5 40.28125 
Q 14.5 37.15625 16.890625 35.375 
Q 19.28125 33.59375 26.515625 31.984375 
L 29.59375 31.296875 
Q 39.15625 29.25 43.1875 25.515625 
Q 47.21875 21.78125 47.21875 15.09375 
Q 47.21875 7.46875 41.1875 3.015625 
Q 35.15625 -1.421875 24.609375 -1.421875 
Q 20.21875 -1.421875 15.453125 -0.5625 
Q 10.6875 0.296875 5.421875 2 
L 5.421875 11.28125 
Q 10.40625 8.6875 15.234375 7.390625 
Q 20.0625 6.109375 24.8125 6.109375 
Q 31.15625 6.109375 34.5625 8.28125 
Q 37.984375 10.453125 37.984375 14.40625 
Q 37.984375 18.0625 35.515625 20.015625 
Q 33.0625 21.96875 24.703125 23.78125 
L 21.578125 24.515625 
Q 13.234375 26.265625 9.515625 29.90625 
Q 5.8125 33.546875 5.8125 39.890625 
Q 5.8125 47.609375 11.28125 51.796875 
Q 16.75 56 26.8125 56 
Q 31.78125 56 36.171875 55.265625 
Q 40.578125 54.546875 44.28125 53.078125 
z
" id="DejaVuSans-115"/>
       <path d="M 18.3125 70.21875 
L 18.3125 54.6875 
L 36.8125 54.6875 
L 36.8125 47.703125 
L 18.3125 47.703125 
L 18.3125 18.015625 
Q 18.3125 11.328125 20.140625 9.421875 
Q 21.96875 7.515625 27.59375 7.515625 
L 36.8125 7.515625 
L 36.8125 0 
L 27.59375 0 
Q 17.1875 0 13.234375 3.875 
Q 9.28125 7.765625 9.28125 18.015625 
L 9.28125 47.703125 
L 2.6875 47.703125 
L 2.6875 54.6875 
L 9.28125 54.6875 
L 9.28125 70.21875 
z
" id="DejaVuSans-116"/>
      </defs>
      <use xlink:href="#DejaVuSans-78"/>
      <use x="74.804688" xlink:href="#DejaVuSans-101"/>
      <use x="136.328125" xlink:href="#DejaVuSans-115"/>
      <use x="188.427734" xlink:href="#DejaVuSans-116"/>
      <use x="227.636719" xlink:href="#DejaVuSans-46"/>
      <use x="259.423828" xlink:href="#DejaVuSans-48"/>
     </g>
    </g>
    <g id="line2d_31">
     <path d="M 63 62.336563 
L 83 62.336563 
" style="fill:none;stroke:#ff7f0e;stroke-dasharray:5.55,2.4;stroke-dashoffset:0;stroke-width:1.5;"/>
    </g>
    <g id="line2d_32"/>
    <g id="text_18">
     <!-- Nest.1 -->
     <g transform="translate(91 65.836563)scale(0.1 -0.1)">
      <use xlink:href="#DejaVuSans-78"/>
      <use x="74.804688" xlink:href="#DejaVuSans-101"/>
      <use x="136.328125" xlink:href="#DejaVuSans-115"/>
      <use x="188.427734" xlink:href="#DejaVuSans-116"/>
      <use x="227.636719" xlink:href="#DejaVuSans-46"/>
      <use x="259.423828" xlink:href="#DejaVuSans-49"/>
     </g>
    </g>
    <g id="line2d_33">
     <path d="M 63 77.014688 
L 83 77.014688 
" style="fill:none;stroke:#2ca02c;stroke-dasharray:5.55,2.4;stroke-dashoffset:0;stroke-width:1.5;"/>
    </g>
    <g id="line2d_34"/>
    <g id="text_19">
     <!-- Nest.2 -->
     <g transform="translate(91 80.514688)scale(0.1 -0.1)">
      <use xlink:href="#DejaVuSans-78"/>
      <use x="74.804688" xlink:href="#DejaVuSans-101"/>
      <use x="136.328125" xlink:href="#DejaVuSans-115"/>
      <use x="188.427734" xlink:href="#DejaVuSans-116"/>
      <use x="227.636719" xlink:href="#DejaVuSans-46"/>
      <use x="259.423828" xlink:href="#DejaVuSans-50"/>
     </g>
    </g>
    <g id="line2d_35">
     <path d="M 63 91.692813 
L 83 91.692813 
" style="fill:none;stroke:#d62728;stroke-dasharray:5.55,2.4;stroke-dashoffset:0;stroke-width:1.5;"/>
    </g>
    <g id="line2d_36"/>
    <g id="text_20">
     <!-- Nest.3 -->
     <g transform="translate(91 95.192813)scale(0.1 -0.1)">
      <defs>
       <path d="M 40.578125 39.3125 
Q 47.65625 37.796875 51.625 33 
Q 55.609375 28.21875 55.609375 21.1875 
Q 55.609375 10.40625 48.1875 4.484375 
Q 40.765625 -1.421875 27.09375 -1.421875 
Q 22.515625 -1.421875 17.65625 -0.515625 
Q 12.796875 0.390625 7.625 2.203125 
L 7.625 11.71875 
Q 11.71875 9.328125 16.59375 8.109375 
Q 21.484375 6.890625 26.8125 6.890625 
Q 36.078125 6.890625 40.9375 10.546875 
Q 45.796875 14.203125 45.796875 21.1875 
Q 45.796875 27.640625 41.28125 31.265625 
Q 36.765625 34.90625 28.71875 34.90625 
L 20.21875 34.90625 
L 20.21875 43.015625 
L 29.109375 43.015625 
Q 36.375 43.015625 40.234375 45.921875 
Q 44.09375 48.828125 44.09375 54.296875 
Q 44.09375 59.90625 40.109375 62.90625 
Q 36.140625 65.921875 28.71875 65.921875 
Q 24.65625 65.921875 20.015625 65.03125 
Q 15.375 64.15625 9.8125 62.3125 
L 9.8125 71.09375 
Q 15.4375 72.65625 20.34375 73.4375 
Q 25.25 74.21875 29.59375 74.21875 
Q 40.828125 74.21875 47.359375 69.109375 
Q 53.90625 64.015625 53.90625 55.328125 
Q 53.90625 49.265625 50.4375 45.09375 
Q 46.96875 40.921875 40.578125 39.3125 
z
" id="DejaVuSans-51"/>
      </defs>
      <use xlink:href="#DejaVuSans-78"/>
      <use x="74.804688" xlink:href="#DejaVuSans-101"/>
      <use x="136.328125" xlink:href="#DejaVuSans-115"/>
      <use x="188.427734" xlink:href="#DejaVuSans-116"/>
      <use x="227.636719" xlink:href="#DejaVuSans-46"/>
      <use x="259.423828" xlink:href="#DejaVuSans-51"/>
     </g>
    </g>
    <g id="line2d_37">
     <path d="M 63 106.370938 
L 83 106.370938 
" style="fill:none;stroke:#9467bd;stroke-dasharray:5.55,2.4;stroke-dashoffset:0;stroke-width:1.5;"/>
    </g>
    <g id="line2d_38"/>
    <g id="text_21">
     <!-- Nest.4 -->
     <g transform="translate(91 109.870938)scale(0.1 -0.1)">
      <defs>
       <path d="M 37.796875 64.3125 
L 12.890625 25.390625 
L 37.796875 25.390625 
z
M 35.203125 72.90625 
L 47.609375 72.90625 
L 47.609375 25.390625 
L 58.015625 25.390625 
L 58.015625 17.1875 
L 47.609375 17.1875 
L 47.609375 0 
L 37.796875 0 
L 37.796875 17.1875 
L 4.890625 17.1875 
L 4.890625 26.703125 
z
" id="DejaVuSans-52"/>
      </defs>
      <use xlink:href="#DejaVuSans-78"/>
      <use x="74.804688" xlink:href="#DejaVuSans-101"/>
      <use x="136.328125" xlink:href="#DejaVuSans-115"/>
      <use x="188.427734" xlink:href="#DejaVuSans-116"/>
      <use x="227.636719" xlink:href="#DejaVuSans-46"/>
      <use x="259.423828" xlink:href="#DejaVuSans-52"/>
     </g>
    </g>
    <g id="line2d_39">
     <path d="M 63 121.049062 
L 83 121.049062 
" style="fill:none;stroke:#8c564b;stroke-dasharray:5.55,2.4;stroke-dashoffset:0;stroke-width:1.5;"/>
    </g>
    <g id="line2d_40"/>
    <g id="text_22">
     <!-- Nest.5 -->
     <g transform="translate(91 124.549062)scale(0.1 -0.1)">
      <use xlink:href="#DejaVuSans-78"/>
      <use x="74.804688" xlink:href="#DejaVuSans-101"/>
      <use x="136.328125" xlink:href="#DejaVuSans-115"/>
      <use x="188.427734" xlink:href="#DejaVuSans-116"/>
      <use x="227.636719" xlink:href="#DejaVuSans-46"/>
      <use x="259.423828" xlink:href="#DejaVuSans-53"/>
     </g>
    </g>
    <g id="line2d_41">
     <path d="M 63 135.727188 
L 83 135.727188 
" style="fill:none;stroke:#e377c2;stroke-dasharray:5.55,2.4;stroke-dashoffset:0;stroke-width:1.5;"/>
    </g>
    <g id="line2d_42"/>
    <g id="text_23">
     <!-- Nest.6 -->
     <g transform="translate(91 139.227188)scale(0.1 -0.1)">
      <defs>
       <path d="M 33.015625 40.375 
Q 26.375 40.375 22.484375 35.828125 
Q 18.609375 31.296875 18.609375 23.390625 
Q 18.609375 15.53125 22.484375 10.953125 
Q 26.375 6.390625 33.015625 6.390625 
Q 39.65625 6.390625 43.53125 10.953125 
Q 47.40625 15.53125 47.40625 23.390625 
Q 47.40625 31.296875 43.53125 35.828125 
Q 39.65625 40.375 33.015625 40.375 
z
M 52.59375 71.296875 
L 52.59375 62.3125 
Q 48.875 64.0625 45.09375 64.984375 
Q 41.3125 65.921875 37.59375 65.921875 
Q 27.828125 65.921875 22.671875 59.328125 
Q 17.53125 52.734375 16.796875 39.40625 
Q 19.671875 43.65625 24.015625 45.921875 
Q 28.375 48.1875 33.59375 48.1875 
Q 44.578125 48.1875 50.953125 41.515625 
Q 57.328125 34.859375 57.328125 23.390625 
Q 57.328125 12.15625 50.6875 5.359375 
Q 44.046875 -1.421875 33.015625 -1.421875 
Q 20.359375 -1.421875 13.671875 8.265625 
Q 6.984375 17.96875 6.984375 36.375 
Q 6.984375 53.65625 15.1875 63.9375 
Q 23.390625 74.21875 37.203125 74.21875 
Q 40.921875 74.21875 44.703125 73.484375 
Q 48.484375 72.75 52.59375 71.296875 
z
" id="DejaVuSans-54"/>
      </defs>
      <use xlink:href="#DejaVuSans-78"/>
      <use x="74.804688" xlink:href="#DejaVuSans-101"/>
      <use x="136.328125" xlink:href="#DejaVuSans-115"/>
      <use x="188.427734" xlink:href="#DejaVuSans-116"/>
      <use x="227.636719" xlink:href="#DejaVuSans-46"/>
      <use x="259.423828" xlink:href="#DejaVuSans-54"/>
     </g>
    </g>
    <g id="line2d_43">
     <path d="M 63 150.405312 
L 83 150.405312 
" style="fill:none;stroke:#7f7f7f;stroke-dasharray:5.55,2.4;stroke-dashoffset:0;stroke-width:1.5;"/>
    </g>
    <g id="line2d_44"/>
    <g id="text_24">
     <!-- Nest.7 -->
     <g transform="translate(91 153.905312)scale(0.1 -0.1)">
      <defs>
       <path d="M 8.203125 72.90625 
L 55.078125 72.90625 
L 55.078125 68.703125 
L 28.609375 0 
L 18.3125 0 
L 43.21875 64.59375 
L 8.203125 64.59375 
z
" id="DejaVuSans-55"/>
      </defs>
      <use xlink:href="#DejaVuSans-78"/>
      <use x="74.804688" xlink:href="#DejaVuSans-101"/>
      <use x="136.328125" xlink:href="#DejaVuSans-115"/>
      <use x="188.427734" xlink:href="#DejaVuSans-116"/>
      <use x="227.636719" xlink:href="#DejaVuSans-46"/>
      <use x="259.423828" xlink:href="#DejaVuSans-55"/>
     </g>
    </g>
    <g id="line2d_45">
     <path d="M 63 165.083438 
L 83 165.083438 
" style="fill:none;stroke:#bcbd22;stroke-dasharray:5.55,2.4;stroke-dashoffset:0;stroke-width:1.5;"/>
    </g>
    <g id="line2d_46"/>
    <g id="text_25">
     <!-- Nest.8 -->
     <g transform="translate(91 168.583438)scale(0.1 -0.1)">
      <defs>
       <path d="M 31.78125 34.625 
Q 24.75 34.625 20.71875 30.859375 
Q 16.703125 27.09375 16.703125 20.515625 
Q 16.703125 13.921875 20.71875 10.15625 
Q 24.75 6.390625 31.78125 6.390625 
Q 38.8125 6.390625 42.859375 10.171875 
Q 46.921875 13.96875 46.921875 20.515625 
Q 46.921875 27.09375 42.890625 30.859375 
Q 38.875 34.625 31.78125 34.625 
z
M 21.921875 38.8125 
Q 15.578125 40.375 12.03125 44.71875 
Q 8.5 49.078125 8.5 55.328125 
Q 8.5 64.0625 14.71875 69.140625 
Q 20.953125 74.21875 31.78125 74.21875 
Q 42.671875 74.21875 48.875 69.140625 
Q 55.078125 64.0625 55.078125 55.328125 
Q 55.078125 49.078125 51.53125 44.71875 
Q 48 40.375 41.703125 38.8125 
Q 48.828125 37.15625 52.796875 32.3125 
Q 56.78125 27.484375 56.78125 20.515625 
Q 56.78125 9.90625 50.3125 4.234375 
Q 43.84375 -1.421875 31.78125 -1.421875 
Q 19.734375 -1.421875 13.25 4.234375 
Q 6.78125 9.90625 6.78125 20.515625 
Q 6.78125 27.484375 10.78125 32.3125 
Q 14.796875 37.15625 21.921875 38.8125 
z
M 18.3125 54.390625 
Q 18.3125 48.734375 21.84375 45.5625 
Q 25.390625 42.390625 31.78125 42.390625 
Q 38.140625 42.390625 41.71875 45.5625 
Q 45.3125 48.734375 45.3125 54.390625 
Q 45.3125 60.0625 41.71875 63.234375 
Q 38.140625 66.40625 31.78125 66.40625 
Q 25.390625 66.40625 21.84375 63.234375 
Q 18.3125 60.0625 18.3125 54.390625 
z
" id="DejaVuSans-56"/>
      </defs>
      <use xlink:href="#DejaVuSans-78"/>
      <use x="74.804688" xlink:href="#DejaVuSans-101"/>
      <use x="136.328125" xlink:href="#DejaVuSans-115"/>
      <use x="188.427734" xlink:href="#DejaVuSans-116"/>
      <use x="227.636719" xlink:href="#DejaVuSans-46"/>
      <use x="259.423828" xlink:href="#DejaVuSans-56"/>
     </g>
    </g>
    <g id="line2d_47">
     <path d="M 63 179.761562 
L 83 179.761562 
" style="fill:none;stroke:#17becf;stroke-dasharray:5.55,2.4;stroke-dashoffset:0;stroke-width:1.5;"/>
    </g>
    <g id="line2d_48"/>
    <g id="text_26">
     <!-- Nest.9 -->
     <g transform="translate(91 183.261562)scale(0.1 -0.1)">
      <defs>
       <path d="M 10.984375 1.515625 
L 10.984375 10.5 
Q 14.703125 8.734375 18.5 7.8125 
Q 22.3125 6.890625 25.984375 6.890625 
Q 35.75 6.890625 40.890625 13.453125 
Q 46.046875 20.015625 46.78125 33.40625 
Q 43.953125 29.203125 39.59375 26.953125 
Q 35.25 24.703125 29.984375 24.703125 
Q 19.046875 24.703125 12.671875 31.3125 
Q 6.296875 37.9375 6.296875 49.421875 
Q 6.296875 60.640625 12.9375 67.421875 
Q 19.578125 74.21875 30.609375 74.21875 
Q 43.265625 74.21875 49.921875 64.515625 
Q 56.59375 54.828125 56.59375 36.375 
Q 56.59375 19.140625 48.40625 8.859375 
Q 40.234375 -1.421875 26.421875 -1.421875 
Q 22.703125 -1.421875 18.890625 -0.6875 
Q 15.09375 0.046875 10.984375 1.515625 
z
M 30.609375 32.421875 
Q 37.25 32.421875 41.125 36.953125 
Q 45.015625 41.5 45.015625 49.421875 
Q 45.015625 57.28125 41.125 61.84375 
Q 37.25 66.40625 30.609375 66.40625 
Q 23.96875 66.40625 20.09375 61.84375 
Q 16.21875 57.28125 16.21875 49.421875 
Q 16.21875 41.5 20.09375 36.953125 
Q 23.96875 32.421875 30.609375 32.421875 
z
" id="DejaVuSans-57"/>
      </defs>
      <use xlink:href="#DejaVuSans-78"/>
      <use x="74.804688" xlink:href="#DejaVuSans-101"/>
      <use x="136.328125" xlink:href="#DejaVuSans-115"/>
      <use x="188.427734" xlink:href="#DejaVuSans-116"/>
      <use x="227.636719" xlink:href="#DejaVuSans-46"/>
      <use x="259.423828" xlink:href="#DejaVuSans-57"/>
     </g>
    </g>
   </g>
  </g>
 </g>
 <defs>
  <clipPath id="p8f1ce4676c">
   <rect height="217.44" width="334.8" x="54" y="34.56"/>
  </clipPath>
 </defs>
</svg>
