<?xml version="1.0" encoding="utf-8" standalone="no"?>
<!DOCTYPE svg PUBLIC "-//W3C//DTD SVG 1.1//EN"
  "http://www.w3.org/Graphics/SVG/1.1/DTD/svg11.dtd">
<!-- Created with matplotlib (https://matplotlib.org/) -->
<svg height="288pt" version="1.1" viewBox="0 0 432 288" width="432pt" xmlns="http://www.w3.org/2000/svg" xmlns:xlink="http://www.w3.org/1999/xlink">
 <metadata>
  <rdf:RDF xmlns:cc="http://creativecommons.org/ns#" xmlns:dc="http://purl.org/dc/elements/1.1/" xmlns:rdf="http://www.w3.org/1999/02/22-rdf-syntax-ns#">
   <cc:Work>
    <dc:type rdf:resource="http://purl.org/dc/dcmitype/StillImage"/>
    <dc:date>2021-04-05T21:45:54.494380</dc:date>
    <dc:format>image/svg+xml</dc:format>
    <dc:creator>
     <cc:Agent>
      <dc:title>Matplotlib v3.3.4, https://matplotlib.org/</dc:title>
     </cc:Agent>
    </dc:creator>
   </cc:Work>
  </rdf:RDF>
 </metadata>
 <defs>
  <style type="text/css">*{stroke-linecap:butt;stroke-linejoin:round;}</style>
 </defs>
 <g id="figure_1">
  <g id="patch_1">
   <path d="M 0 288 
L 432 288 
L 432 0 
L 0 0 
z
" style="fill:#ffffff;"/>
  </g>
  <g id="axes_1">
   <g id="patch_2">
    <path d="M 54 252 
L 388.8 252 
L 388.8 34.56 
L 54 34.56 
z
" style="fill:#ffffff;"/>
   </g>
   <g id="matplotlib.axis_1">
    <g id="xtick_1">
     <g id="line2d_1">
      <defs>
       <path d="M 0 0 
L 0 3.5 
" id="m70df5d8520" style="stroke:#000000;stroke-width:0.8;"/>
      </defs>
      <g>
       <use style="stroke:#000000;stroke-width:0.8;" x="69.218182" xlink:href="#m70df5d8520" y="252"/>
      </g>
     </g>
     <g id="text_1">
      <!-- 0 -->
      <g transform="translate(66.036932 266.598437)scale(0.1 -0.1)">
       <defs>
        <path d="M 31.78125 66.40625 
Q 24.171875 66.40625 20.328125 58.90625 
Q 16.5 51.421875 16.5 36.375 
Q 16.5 21.390625 20.328125 13.890625 
Q 24.171875 6.390625 31.78125 6.390625 
Q 39.453125 6.390625 43.28125 13.890625 
Q 47.125 21.390625 47.125 36.375 
Q 47.125 51.421875 43.28125 58.90625 
Q 39.453125 66.40625 31.78125 66.40625 
z
M 31.78125 74.21875 
Q 44.046875 74.21875 50.515625 64.515625 
Q 56.984375 54.828125 56.984375 36.375 
Q 56.984375 17.96875 50.515625 8.265625 
Q 44.046875 -1.421875 31.78125 -1.421875 
Q 19.53125 -1.421875 13.0625 8.265625 
Q 6.59375 17.96875 6.59375 36.375 
Q 6.59375 54.828125 13.0625 64.515625 
Q 19.53125 74.21875 31.78125 74.21875 
z
" id="DejaVuSans-48"/>
       </defs>
       <use xlink:href="#DejaVuSans-48"/>
      </g>
     </g>
    </g>
    <g id="xtick_2">
     <g id="line2d_2">
      <g>
       <use style="stroke:#000000;stroke-width:0.8;" x="131.33321" xlink:href="#m70df5d8520" y="252"/>
      </g>
     </g>
     <g id="text_2">
      <!-- 10 -->
      <g transform="translate(124.97071 266.598437)scale(0.1 -0.1)">
       <defs>
        <path d="M 12.40625 8.296875 
L 28.515625 8.296875 
L 28.515625 63.921875 
L 10.984375 60.40625 
L 10.984375 69.390625 
L 28.421875 72.90625 
L 38.28125 72.90625 
L 38.28125 8.296875 
L 54.390625 8.296875 
L 54.390625 0 
L 12.40625 0 
z
" id="DejaVuSans-49"/>
       </defs>
       <use xlink:href="#DejaVuSans-49"/>
       <use x="63.623047" xlink:href="#DejaVuSans-48"/>
      </g>
     </g>
    </g>
    <g id="xtick_3">
     <g id="line2d_3">
      <g>
       <use style="stroke:#000000;stroke-width:0.8;" x="193.448237" xlink:href="#m70df5d8520" y="252"/>
      </g>
     </g>
     <g id="text_3">
      <!-- 20 -->
      <g transform="translate(187.085737 266.598437)scale(0.1 -0.1)">
       <defs>
        <path d="M 19.1875 8.296875 
L 53.609375 8.296875 
L 53.609375 0 
L 7.328125 0 
L 7.328125 8.296875 
Q 12.9375 14.109375 22.625 23.890625 
Q 32.328125 33.6875 34.8125 36.53125 
Q 39.546875 41.84375 41.421875 45.53125 
Q 43.3125 49.21875 43.3125 52.78125 
Q 43.3125 58.59375 39.234375 62.25 
Q 35.15625 65.921875 28.609375 65.921875 
Q 23.96875 65.921875 18.8125 64.3125 
Q 13.671875 62.703125 7.8125 59.421875 
L 7.8125 69.390625 
Q 13.765625 71.78125 18.9375 73 
Q 24.125 74.21875 28.421875 74.21875 
Q 39.75 74.21875 46.484375 68.546875 
Q 53.21875 62.890625 53.21875 53.421875 
Q 53.21875 48.921875 51.53125 44.890625 
Q 49.859375 40.875 45.40625 35.40625 
Q 44.1875 33.984375 37.640625 27.21875 
Q 31.109375 20.453125 19.1875 8.296875 
z
" id="DejaVuSans-50"/>
       </defs>
       <use xlink:href="#DejaVuSans-50"/>
       <use x="63.623047" xlink:href="#DejaVuSans-48"/>
      </g>
     </g>
    </g>
    <g id="xtick_4">
     <g id="line2d_4">
      <g>
       <use style="stroke:#000000;stroke-width:0.8;" x="255.563265" xlink:href="#m70df5d8520" y="252"/>
      </g>
     </g>
     <g id="text_4">
      <!-- 30 -->
      <g transform="translate(249.200765 266.598437)scale(0.1 -0.1)">
       <defs>
        <path d="M 40.578125 39.3125 
Q 47.65625 37.796875 51.625 33 
Q 55.609375 28.21875 55.609375 21.1875 
Q 55.609375 10.40625 48.1875 4.484375 
Q 40.765625 -1.421875 27.09375 -1.421875 
Q 22.515625 -1.421875 17.65625 -0.515625 
Q 12.796875 0.390625 7.625 2.203125 
L 7.625 11.71875 
Q 11.71875 9.328125 16.59375 8.109375 
Q 21.484375 6.890625 26.8125 6.890625 
Q 36.078125 6.890625 40.9375 10.546875 
Q 45.796875 14.203125 45.796875 21.1875 
Q 45.796875 27.640625 41.28125 31.265625 
Q 36.765625 34.90625 28.71875 34.90625 
L 20.21875 34.90625 
L 20.21875 43.015625 
L 29.109375 43.015625 
Q 36.375 43.015625 40.234375 45.921875 
Q 44.09375 48.828125 44.09375 54.296875 
Q 44.09375 59.90625 40.109375 62.90625 
Q 36.140625 65.921875 28.71875 65.921875 
Q 24.65625 65.921875 20.015625 65.03125 
Q 15.375 64.15625 9.8125 62.3125 
L 9.8125 71.09375 
Q 15.4375 72.65625 20.34375 73.4375 
Q 25.25 74.21875 29.59375 74.21875 
Q 40.828125 74.21875 47.359375 69.109375 
Q 53.90625 64.015625 53.90625 55.328125 
Q 53.90625 49.265625 50.4375 45.09375 
Q 46.96875 40.921875 40.578125 39.3125 
z
" id="DejaVuSans-51"/>
       </defs>
       <use xlink:href="#DejaVuSans-51"/>
       <use x="63.623047" xlink:href="#DejaVuSans-48"/>
      </g>
     </g>
    </g>
    <g id="xtick_5">
     <g id="line2d_5">
      <g>
       <use style="stroke:#000000;stroke-width:0.8;" x="317.678293" xlink:href="#m70df5d8520" y="252"/>
      </g>
     </g>
     <g id="text_5">
      <!-- 40 -->
      <g transform="translate(311.315793 266.598437)scale(0.1 -0.1)">
       <defs>
        <path d="M 37.796875 64.3125 
L 12.890625 25.390625 
L 37.796875 25.390625 
z
M 35.203125 72.90625 
L 47.609375 72.90625 
L 47.609375 25.390625 
L 58.015625 25.390625 
L 58.015625 17.1875 
L 47.609375 17.1875 
L 47.609375 0 
L 37.796875 0 
L 37.796875 17.1875 
L 4.890625 17.1875 
L 4.890625 26.703125 
z
" id="DejaVuSans-52"/>
       </defs>
       <use xlink:href="#DejaVuSans-52"/>
       <use x="63.623047" xlink:href="#DejaVuSans-48"/>
      </g>
     </g>
    </g>
    <g id="xtick_6">
     <g id="line2d_6">
      <g>
       <use style="stroke:#000000;stroke-width:0.8;" x="379.793321" xlink:href="#m70df5d8520" y="252"/>
      </g>
     </g>
     <g id="text_6">
      <!-- 50 -->
      <g transform="translate(373.430821 266.598437)scale(0.1 -0.1)">
       <defs>
        <path d="M 10.796875 72.90625 
L 49.515625 72.90625 
L 49.515625 64.59375 
L 19.828125 64.59375 
L 19.828125 46.734375 
Q 21.96875 47.46875 24.109375 47.828125 
Q 26.265625 48.1875 28.421875 48.1875 
Q 40.625 48.1875 47.75 41.5 
Q 54.890625 34.8125 54.890625 23.390625 
Q 54.890625 11.625 47.5625 5.09375 
Q 40.234375 -1.421875 26.90625 -1.421875 
Q 22.3125 -1.421875 17.546875 -0.640625 
Q 12.796875 0.140625 7.71875 1.703125 
L 7.71875 11.625 
Q 12.109375 9.234375 16.796875 8.0625 
Q 21.484375 6.890625 26.703125 6.890625 
Q 35.15625 6.890625 40.078125 11.328125 
Q 45.015625 15.765625 45.015625 23.390625 
Q 45.015625 31 40.078125 35.4375 
Q 35.15625 39.890625 26.703125 39.890625 
Q 22.75 39.890625 18.8125 39.015625 
Q 14.890625 38.140625 10.796875 36.28125 
z
" id="DejaVuSans-53"/>
       </defs>
       <use xlink:href="#DejaVuSans-53"/>
       <use x="63.623047" xlink:href="#DejaVuSans-48"/>
      </g>
     </g>
    </g>
    <g id="text_7">
     <!-- Nbr. of function evaluations -->
     <g transform="translate(152.382031 280.276563)scale(0.1 -0.1)">
      <defs>
       <path d="M 9.8125 72.90625 
L 23.09375 72.90625 
L 55.421875 11.921875 
L 55.421875 72.90625 
L 64.984375 72.90625 
L 64.984375 0 
L 51.703125 0 
L 19.390625 60.984375 
L 19.390625 0 
L 9.8125 0 
z
" id="DejaVuSans-78"/>
       <path d="M 48.6875 27.296875 
Q 48.6875 37.203125 44.609375 42.84375 
Q 40.53125 48.484375 33.40625 48.484375 
Q 26.265625 48.484375 22.1875 42.84375 
Q 18.109375 37.203125 18.109375 27.296875 
Q 18.109375 17.390625 22.1875 11.75 
Q 26.265625 6.109375 33.40625 6.109375 
Q 40.53125 6.109375 44.609375 11.75 
Q 48.6875 17.390625 48.6875 27.296875 
z
M 18.109375 46.390625 
Q 20.953125 51.265625 25.265625 53.625 
Q 29.59375 56 35.59375 56 
Q 45.5625 56 51.78125 48.09375 
Q 58.015625 40.1875 58.015625 27.296875 
Q 58.015625 14.40625 51.78125 6.484375 
Q 45.5625 -1.421875 35.59375 -1.421875 
Q 29.59375 -1.421875 25.265625 0.953125 
Q 20.953125 3.328125 18.109375 8.203125 
L 18.109375 0 
L 9.078125 0 
L 9.078125 75.984375 
L 18.109375 75.984375 
z
" id="DejaVuSans-98"/>
       <path d="M 41.109375 46.296875 
Q 39.59375 47.171875 37.8125 47.578125 
Q 36.03125 48 33.890625 48 
Q 26.265625 48 22.1875 43.046875 
Q 18.109375 38.09375 18.109375 28.8125 
L 18.109375 0 
L 9.078125 0 
L 9.078125 54.6875 
L 18.109375 54.6875 
L 18.109375 46.1875 
Q 20.953125 51.171875 25.484375 53.578125 
Q 30.03125 56 36.53125 56 
Q 37.453125 56 38.578125 55.875 
Q 39.703125 55.765625 41.0625 55.515625 
z
" id="DejaVuSans-114"/>
       <path d="M 10.6875 12.40625 
L 21 12.40625 
L 21 0 
L 10.6875 0 
z
" id="DejaVuSans-46"/>
       <path id="DejaVuSans-32"/>
       <path d="M 30.609375 48.390625 
Q 23.390625 48.390625 19.1875 42.75 
Q 14.984375 37.109375 14.984375 27.296875 
Q 14.984375 17.484375 19.15625 11.84375 
Q 23.34375 6.203125 30.609375 6.203125 
Q 37.796875 6.203125 41.984375 11.859375 
Q 46.1875 17.53125 46.1875 27.296875 
Q 46.1875 37.015625 41.984375 42.703125 
Q 37.796875 48.390625 30.609375 48.390625 
z
M 30.609375 56 
Q 42.328125 56 49.015625 48.375 
Q 55.71875 40.765625 55.71875 27.296875 
Q 55.71875 13.875 49.015625 6.21875 
Q 42.328125 -1.421875 30.609375 -1.421875 
Q 18.84375 -1.421875 12.171875 6.21875 
Q 5.515625 13.875 5.515625 27.296875 
Q 5.515625 40.765625 12.171875 48.375 
Q 18.84375 56 30.609375 56 
z
" id="DejaVuSans-111"/>
       <path d="M 37.109375 75.984375 
L 37.109375 68.5 
L 28.515625 68.5 
Q 23.6875 68.5 21.796875 66.546875 
Q 19.921875 64.59375 19.921875 59.515625 
L 19.921875 54.6875 
L 34.71875 54.6875 
L 34.71875 47.703125 
L 19.921875 47.703125 
L 19.921875 0 
L 10.890625 0 
L 10.890625 47.703125 
L 2.296875 47.703125 
L 2.296875 54.6875 
L 10.890625 54.6875 
L 10.890625 58.5 
Q 10.890625 67.625 15.140625 71.796875 
Q 19.390625 75.984375 28.609375 75.984375 
z
" id="DejaVuSans-102"/>
       <path d="M 8.5 21.578125 
L 8.5 54.6875 
L 17.484375 54.6875 
L 17.484375 21.921875 
Q 17.484375 14.15625 20.5 10.265625 
Q 23.53125 6.390625 29.59375 6.390625 
Q 36.859375 6.390625 41.078125 11.03125 
Q 45.3125 15.671875 45.3125 23.6875 
L 45.3125 54.6875 
L 54.296875 54.6875 
L 54.296875 0 
L 45.3125 0 
L 45.3125 8.40625 
Q 42.046875 3.421875 37.71875 1 
Q 33.40625 -1.421875 27.6875 -1.421875 
Q 18.265625 -1.421875 13.375 4.4375 
Q 8.5 10.296875 8.5 21.578125 
z
M 31.109375 56 
z
" id="DejaVuSans-117"/>
       <path d="M 54.890625 33.015625 
L 54.890625 0 
L 45.90625 0 
L 45.90625 32.71875 
Q 45.90625 40.484375 42.875 44.328125 
Q 39.84375 48.1875 33.796875 48.1875 
Q 26.515625 48.1875 22.3125 43.546875 
Q 18.109375 38.921875 18.109375 30.90625 
L 18.109375 0 
L 9.078125 0 
L 9.078125 54.6875 
L 18.109375 54.6875 
L 18.109375 46.1875 
Q 21.34375 51.125 25.703125 53.5625 
Q 30.078125 56 35.796875 56 
Q 45.21875 56 50.046875 50.171875 
Q 54.890625 44.34375 54.890625 33.015625 
z
" id="DejaVuSans-110"/>
       <path d="M 48.78125 52.59375 
L 48.78125 44.1875 
Q 44.96875 46.296875 41.140625 47.34375 
Q 37.3125 48.390625 33.40625 48.390625 
Q 24.65625 48.390625 19.8125 42.84375 
Q 14.984375 37.3125 14.984375 27.296875 
Q 14.984375 17.28125 19.8125 11.734375 
Q 24.65625 6.203125 33.40625 6.203125 
Q 37.3125 6.203125 41.140625 7.25 
Q 44.96875 8.296875 48.78125 10.40625 
L 48.78125 2.09375 
Q 45.015625 0.34375 40.984375 -0.53125 
Q 36.96875 -1.421875 32.421875 -1.421875 
Q 20.0625 -1.421875 12.78125 6.34375 
Q 5.515625 14.109375 5.515625 27.296875 
Q 5.515625 40.671875 12.859375 48.328125 
Q 20.21875 56 33.015625 56 
Q 37.15625 56 41.109375 55.140625 
Q 45.0625 54.296875 48.78125 52.59375 
z
" id="DejaVuSans-99"/>
       <path d="M 18.3125 70.21875 
L 18.3125 54.6875 
L 36.8125 54.6875 
L 36.8125 47.703125 
L 18.3125 47.703125 
L 18.3125 18.015625 
Q 18.3125 11.328125 20.140625 9.421875 
Q 21.96875 7.515625 27.59375 7.515625 
L 36.8125 7.515625 
L 36.8125 0 
L 27.59375 0 
Q 17.1875 0 13.234375 3.875 
Q 9.28125 7.765625 9.28125 18.015625 
L 9.28125 47.703125 
L 2.6875 47.703125 
L 2.6875 54.6875 
L 9.28125 54.6875 
L 9.28125 70.21875 
z
" id="DejaVuSans-116"/>
       <path d="M 9.421875 54.6875 
L 18.40625 54.6875 
L 18.40625 0 
L 9.421875 0 
z
M 9.421875 75.984375 
L 18.40625 75.984375 
L 18.40625 64.59375 
L 9.421875 64.59375 
z
" id="DejaVuSans-105"/>
       <path d="M 56.203125 29.59375 
L 56.203125 25.203125 
L 14.890625 25.203125 
Q 15.484375 15.921875 20.484375 11.0625 
Q 25.484375 6.203125 34.421875 6.203125 
Q 39.59375 6.203125 44.453125 7.46875 
Q 49.3125 8.734375 54.109375 11.28125 
L 54.109375 2.78125 
Q 49.265625 0.734375 44.1875 -0.34375 
Q 39.109375 -1.421875 33.890625 -1.421875 
Q 20.796875 -1.421875 13.15625 6.1875 
Q 5.515625 13.8125 5.515625 26.8125 
Q 5.515625 40.234375 12.765625 48.109375 
Q 20.015625 56 32.328125 56 
Q 43.359375 56 49.78125 48.890625 
Q 56.203125 41.796875 56.203125 29.59375 
z
M 47.21875 32.234375 
Q 47.125 39.59375 43.09375 43.984375 
Q 39.0625 48.390625 32.421875 48.390625 
Q 24.90625 48.390625 20.390625 44.140625 
Q 15.875 39.890625 15.1875 32.171875 
z
" id="DejaVuSans-101"/>
       <path d="M 2.984375 54.6875 
L 12.5 54.6875 
L 29.59375 8.796875 
L 46.6875 54.6875 
L 56.203125 54.6875 
L 35.6875 0 
L 23.484375 0 
z
" id="DejaVuSans-118"/>
       <path d="M 34.28125 27.484375 
Q 23.390625 27.484375 19.1875 25 
Q 14.984375 22.515625 14.984375 16.5 
Q 14.984375 11.71875 18.140625 8.90625 
Q 21.296875 6.109375 26.703125 6.109375 
Q 34.1875 6.109375 38.703125 11.40625 
Q 43.21875 16.703125 43.21875 25.484375 
L 43.21875 27.484375 
z
M 52.203125 31.203125 
L 52.203125 0 
L 43.21875 0 
L 43.21875 8.296875 
Q 40.140625 3.328125 35.546875 0.953125 
Q 30.953125 -1.421875 24.3125 -1.421875 
Q 15.921875 -1.421875 10.953125 3.296875 
Q 6 8.015625 6 15.921875 
Q 6 25.140625 12.171875 29.828125 
Q 18.359375 34.515625 30.609375 34.515625 
L 43.21875 34.515625 
L 43.21875 35.40625 
Q 43.21875 41.609375 39.140625 45 
Q 35.0625 48.390625 27.6875 48.390625 
Q 23 48.390625 18.546875 47.265625 
Q 14.109375 46.140625 10.015625 43.890625 
L 10.015625 52.203125 
Q 14.9375 54.109375 19.578125 55.046875 
Q 24.21875 56 28.609375 56 
Q 40.484375 56 46.34375 49.84375 
Q 52.203125 43.703125 52.203125 31.203125 
z
" id="DejaVuSans-97"/>
       <path d="M 9.421875 75.984375 
L 18.40625 75.984375 
L 18.40625 0 
L 9.421875 0 
z
" id="DejaVuSans-108"/>
       <path d="M 44.28125 53.078125 
L 44.28125 44.578125 
Q 40.484375 46.53125 36.375 47.5 
Q 32.28125 48.484375 27.875 48.484375 
Q 21.1875 48.484375 17.84375 46.4375 
Q 14.5 44.390625 14.5 40.28125 
Q 14.5 37.15625 16.890625 35.375 
Q 19.28125 33.59375 26.515625 31.984375 
L 29.59375 31.296875 
Q 39.15625 29.25 43.1875 25.515625 
Q 47.21875 21.78125 47.21875 15.09375 
Q 47.21875 7.46875 41.1875 3.015625 
Q 35.15625 -1.421875 24.609375 -1.421875 
Q 20.21875 -1.421875 15.453125 -0.5625 
Q 10.6875 0.296875 5.421875 2 
L 5.421875 11.28125 
Q 10.40625 8.6875 15.234375 7.390625 
Q 20.0625 6.109375 24.8125 6.109375 
Q 31.15625 6.109375 34.5625 8.28125 
Q 37.984375 10.453125 37.984375 14.40625 
Q 37.984375 18.0625 35.515625 20.015625 
Q 33.0625 21.96875 24.703125 23.78125 
L 21.578125 24.515625 
Q 13.234375 26.265625 9.515625 29.90625 
Q 5.8125 33.546875 5.8125 39.890625 
Q 5.8125 47.609375 11.28125 51.796875 
Q 16.75 56 26.8125 56 
Q 31.78125 56 36.171875 55.265625 
Q 40.578125 54.546875 44.28125 53.078125 
z
" id="DejaVuSans-115"/>
      </defs>
      <use xlink:href="#DejaVuSans-78"/>
      <use x="74.804688" xlink:href="#DejaVuSans-98"/>
      <use x="138.28125" xlink:href="#DejaVuSans-114"/>
      <use x="170.269531" xlink:href="#DejaVuSans-46"/>
      <use x="202.056641" xlink:href="#DejaVuSans-32"/>
      <use x="233.84375" xlink:href="#DejaVuSans-111"/>
      <use x="295.025391" xlink:href="#DejaVuSans-102"/>
      <use x="330.230469" xlink:href="#DejaVuSans-32"/>
      <use x="362.017578" xlink:href="#DejaVuSans-102"/>
      <use x="397.222656" xlink:href="#DejaVuSans-117"/>
      <use x="460.601562" xlink:href="#DejaVuSans-110"/>
      <use x="523.980469" xlink:href="#DejaVuSans-99"/>
      <use x="578.960938" xlink:href="#DejaVuSans-116"/>
      <use x="618.169922" xlink:href="#DejaVuSans-105"/>
      <use x="645.953125" xlink:href="#DejaVuSans-111"/>
      <use x="707.134766" xlink:href="#DejaVuSans-110"/>
      <use x="770.513672" xlink:href="#DejaVuSans-32"/>
      <use x="802.300781" xlink:href="#DejaVuSans-101"/>
      <use x="863.824219" xlink:href="#DejaVuSans-118"/>
      <use x="923.003906" xlink:href="#DejaVuSans-97"/>
      <use x="984.283203" xlink:href="#DejaVuSans-108"/>
      <use x="1012.066406" xlink:href="#DejaVuSans-117"/>
      <use x="1075.445312" xlink:href="#DejaVuSans-97"/>
      <use x="1136.724609" xlink:href="#DejaVuSans-116"/>
      <use x="1175.933594" xlink:href="#DejaVuSans-105"/>
      <use x="1203.716797" xlink:href="#DejaVuSans-111"/>
      <use x="1264.898438" xlink:href="#DejaVuSans-110"/>
      <use x="1328.277344" xlink:href="#DejaVuSans-115"/>
     </g>
    </g>
   </g>
   <g id="matplotlib.axis_2">
    <g id="ytick_1">
     <g id="line2d_7">
      <defs>
       <path d="M 0 0 
L -3.5 0 
" id="m0d278ffffa" style="stroke:#000000;stroke-width:0.8;"/>
      </defs>
      <g>
       <use style="stroke:#000000;stroke-width:0.8;" x="54" xlink:href="#m0d278ffffa" y="221.822341"/>
      </g>
     </g>
     <g id="text_8">
      <!-- $\mathdefault{10^{0}}$ -->
      <g transform="translate(29.4 225.62156)scale(0.1 -0.1)">
       <use transform="translate(0 0.765625)" xlink:href="#DejaVuSans-49"/>
       <use transform="translate(63.623047 0.765625)" xlink:href="#DejaVuSans-48"/>
       <use transform="translate(128.203125 39.046875)scale(0.7)" xlink:href="#DejaVuSans-48"/>
      </g>
     </g>
    </g>
    <g id="ytick_2">
     <g id="line2d_8">
      <g>
       <use style="stroke:#000000;stroke-width:0.8;" x="54" xlink:href="#m0d278ffffa" y="119.359805"/>
      </g>
     </g>
     <g id="text_9">
      <!-- $\mathdefault{10^{1}}$ -->
      <g transform="translate(29.4 123.159023)scale(0.1 -0.1)">
       <use transform="translate(0 0.684375)" xlink:href="#DejaVuSans-49"/>
       <use transform="translate(63.623047 0.684375)" xlink:href="#DejaVuSans-48"/>
       <use transform="translate(128.203125 38.965625)scale(0.7)" xlink:href="#DejaVuSans-49"/>
      </g>
     </g>
    </g>
    <g id="ytick_3">
     <g id="line2d_9">
      <defs>
       <path d="M 0 0 
L -2 0 
" id="ma41dec036c" style="stroke:#000000;stroke-width:0.6;"/>
      </defs>
      <g>
       <use style="stroke:#000000;stroke-width:0.6;" x="54" xlink:href="#ma41dec036c" y="244.553527"/>
      </g>
     </g>
    </g>
    <g id="ytick_4">
     <g id="line2d_10">
      <g>
       <use style="stroke:#000000;stroke-width:0.6;" x="54" xlink:href="#ma41dec036c" y="237.693989"/>
      </g>
     </g>
    </g>
    <g id="ytick_5">
     <g id="line2d_11">
      <g>
       <use style="stroke:#000000;stroke-width:0.6;" x="54" xlink:href="#ma41dec036c" y="231.751987"/>
      </g>
     </g>
    </g>
    <g id="ytick_6">
     <g id="line2d_12">
      <g>
       <use style="stroke:#000000;stroke-width:0.6;" x="54" xlink:href="#ma41dec036c" y="226.51077"/>
      </g>
     </g>
    </g>
    <g id="ytick_7">
     <g id="line2d_13">
      <g>
       <use style="stroke:#000000;stroke-width:0.6;" x="54" xlink:href="#ma41dec036c" y="190.978044"/>
      </g>
     </g>
    </g>
    <g id="ytick_8">
     <g id="line2d_14">
      <g>
       <use style="stroke:#000000;stroke-width:0.6;" x="54" xlink:href="#ma41dec036c" y="172.935287"/>
      </g>
     </g>
    </g>
    <g id="ytick_9">
     <g id="line2d_15">
      <g>
       <use style="stroke:#000000;stroke-width:0.6;" x="54" xlink:href="#ma41dec036c" y="160.133747"/>
      </g>
     </g>
    </g>
    <g id="ytick_10">
     <g id="line2d_16">
      <g>
       <use style="stroke:#000000;stroke-width:0.6;" x="54" xlink:href="#ma41dec036c" y="150.204101"/>
      </g>
     </g>
    </g>
    <g id="ytick_11">
     <g id="line2d_17">
      <g>
       <use style="stroke:#000000;stroke-width:0.6;" x="54" xlink:href="#ma41dec036c" y="142.09099"/>
      </g>
     </g>
    </g>
    <g id="ytick_12">
     <g id="line2d_18">
      <g>
       <use style="stroke:#000000;stroke-width:0.6;" x="54" xlink:href="#ma41dec036c" y="135.231452"/>
      </g>
     </g>
    </g>
    <g id="ytick_13">
     <g id="line2d_19">
      <g>
       <use style="stroke:#000000;stroke-width:0.6;" x="54" xlink:href="#ma41dec036c" y="129.28945"/>
      </g>
     </g>
    </g>
    <g id="ytick_14">
     <g id="line2d_20">
      <g>
       <use style="stroke:#000000;stroke-width:0.6;" x="54" xlink:href="#ma41dec036c" y="124.048233"/>
      </g>
     </g>
    </g>
    <g id="ytick_15">
     <g id="line2d_21">
      <g>
       <use style="stroke:#000000;stroke-width:0.6;" x="54" xlink:href="#ma41dec036c" y="88.515508"/>
      </g>
     </g>
    </g>
    <g id="ytick_16">
     <g id="line2d_22">
      <g>
       <use style="stroke:#000000;stroke-width:0.6;" x="54" xlink:href="#ma41dec036c" y="70.472751"/>
      </g>
     </g>
    </g>
    <g id="ytick_17">
     <g id="line2d_23">
      <g>
       <use style="stroke:#000000;stroke-width:0.6;" x="54" xlink:href="#ma41dec036c" y="57.671211"/>
      </g>
     </g>
    </g>
    <g id="ytick_18">
     <g id="line2d_24">
      <g>
       <use style="stroke:#000000;stroke-width:0.6;" x="54" xlink:href="#ma41dec036c" y="47.741565"/>
      </g>
     </g>
    </g>
    <g id="ytick_19">
     <g id="line2d_25">
      <g>
       <use style="stroke:#000000;stroke-width:0.6;" x="54" xlink:href="#ma41dec036c" y="39.628454"/>
      </g>
     </g>
    </g>
    <g id="text_10">
     <!-- Best function evaluation -->
     <g transform="translate(23.320312 204.253438)rotate(-90)scale(0.1 -0.1)">
      <defs>
       <path d="M 19.671875 34.8125 
L 19.671875 8.109375 
L 35.5 8.109375 
Q 43.453125 8.109375 47.28125 11.40625 
Q 51.125 14.703125 51.125 21.484375 
Q 51.125 28.328125 47.28125 31.5625 
Q 43.453125 34.8125 35.5 34.8125 
z
M 19.671875 64.796875 
L 19.671875 42.828125 
L 34.28125 42.828125 
Q 41.5 42.828125 45.03125 45.53125 
Q 48.578125 48.25 48.578125 53.8125 
Q 48.578125 59.328125 45.03125 62.0625 
Q 41.5 64.796875 34.28125 64.796875 
z
M 9.8125 72.90625 
L 35.015625 72.90625 
Q 46.296875 72.90625 52.390625 68.21875 
Q 58.5 63.53125 58.5 54.890625 
Q 58.5 48.1875 55.375 44.234375 
Q 52.25 40.28125 46.1875 39.3125 
Q 53.46875 37.75 57.5 32.78125 
Q 61.53125 27.828125 61.53125 20.40625 
Q 61.53125 10.640625 54.890625 5.3125 
Q 48.25 0 35.984375 0 
L 9.8125 0 
z
" id="DejaVuSans-66"/>
      </defs>
      <use xlink:href="#DejaVuSans-66"/>
      <use x="68.603516" xlink:href="#DejaVuSans-101"/>
      <use x="130.126953" xlink:href="#DejaVuSans-115"/>
      <use x="182.226562" xlink:href="#DejaVuSans-116"/>
      <use x="221.435547" xlink:href="#DejaVuSans-32"/>
      <use x="253.222656" xlink:href="#DejaVuSans-102"/>
      <use x="288.427734" xlink:href="#DejaVuSans-117"/>
      <use x="351.806641" xlink:href="#DejaVuSans-110"/>
      <use x="415.185547" xlink:href="#DejaVuSans-99"/>
      <use x="470.166016" xlink:href="#DejaVuSans-116"/>
      <use x="509.375" xlink:href="#DejaVuSans-105"/>
      <use x="537.158203" xlink:href="#DejaVuSans-111"/>
      <use x="598.339844" xlink:href="#DejaVuSans-110"/>
      <use x="661.71875" xlink:href="#DejaVuSans-32"/>
      <use x="693.505859" xlink:href="#DejaVuSans-101"/>
      <use x="755.029297" xlink:href="#DejaVuSans-118"/>
      <use x="814.208984" xlink:href="#DejaVuSans-97"/>
      <use x="875.488281" xlink:href="#DejaVuSans-108"/>
      <use x="903.271484" xlink:href="#DejaVuSans-117"/>
      <use x="966.650391" xlink:href="#DejaVuSans-97"/>
      <use x="1027.929688" xlink:href="#DejaVuSans-116"/>
      <use x="1067.138672" xlink:href="#DejaVuSans-105"/>
      <use x="1094.921875" xlink:href="#DejaVuSans-111"/>
      <use x="1156.103516" xlink:href="#DejaVuSans-110"/>
     </g>
    </g>
   </g>
   <g id="line2d_26">
    <path clip-path="url(#p0c133a1576)" d="M 69.218182 180.899823 
L 75.429685 180.899823 
L 75.429685 49.240007 
L 81.641187 49.240007 
L 81.641187 108.311724 
L 87.85269 108.311724 
L 87.85269 108.311724 
L 94.064193 108.311724 
L 94.064193 108.311724 
L 100.275696 108.311724 
L 100.275696 108.311724 
L 106.487199 108.311724 
L 106.487199 108.311724 
L 112.698701 108.311724 
L 112.698701 108.311724 
L 118.910204 108.311724 
L 118.910204 108.311724 
L 125.121707 108.311724 
L 125.121707 221.883878 
L 131.33321 221.883878 
L 131.33321 221.883878 
L 137.544712 221.883878 
L 137.544712 221.883878 
L 143.756215 221.883878 
L 143.756215 221.883878 
L 149.967718 221.883878 
L 149.967718 221.883878 
L 156.179221 221.883878 
L 156.179221 221.883878 
L 162.390724 221.883878 
L 162.390724 221.883878 
L 168.602226 221.883878 
L 168.602226 221.883878 
L 174.813729 221.883878 
L 174.813729 221.883878 
L 181.025232 221.883878 
L 181.025232 221.883878 
L 187.236735 221.883878 
L 187.236735 221.883878 
L 193.448237 221.883878 
L 193.448237 221.883878 
L 199.65974 221.883878 
L 199.65974 221.883878 
L 205.871243 221.883878 
L 205.871243 221.883878 
L 212.082746 221.883878 
L 212.082746 221.883878 
L 218.294249 221.883878 
L 218.294249 221.883878 
L 224.505751 221.883878 
L 224.505751 221.883878 
L 230.717254 221.883878 
L 230.717254 221.883878 
L 236.928757 221.883878 
L 236.928757 221.883878 
L 243.14026 221.883878 
L 243.14026 221.883878 
L 249.351763 221.883878 
L 249.351763 221.883878 
L 255.563265 221.883878 
L 255.563265 221.883878 
L 261.774768 221.883878 
L 261.774768 221.883878 
L 267.986271 221.883878 
L 267.986271 221.883878 
L 274.197774 221.883878 
L 274.197774 221.883878 
L 280.409276 221.883878 
L 280.409276 221.883878 
L 286.620779 221.883878 
L 286.620779 221.883878 
L 292.832282 221.883878 
L 292.832282 221.883878 
L 299.043785 221.883878 
L 299.043785 221.883878 
L 305.255288 221.883878 
L 305.255288 221.883878 
L 311.46679 221.883878 
L 311.46679 221.883878 
L 317.678293 221.883878 
L 317.678293 221.883878 
L 323.889796 221.883878 
L 323.889796 221.883878 
L 330.101299 221.883878 
L 330.101299 221.883878 
L 336.312801 221.883878 
L 336.312801 221.883878 
L 342.524304 221.883878 
L 342.524304 221.883878 
L 348.735807 221.883878 
L 348.735807 221.883878 
L 354.94731 221.883878 
L 354.94731 221.883878 
L 361.158813 221.883878 
L 361.158813 221.883878 
L 367.370315 221.883878 
L 367.370315 221.883878 
L 373.581818 221.883878 
L 373.581818 221.883878 
" style="fill:none;stroke:#1f77b4;stroke-linecap:square;stroke-width:1.5;"/>
   </g>
   <g id="line2d_27">
    <path clip-path="url(#p0c133a1576)" d="M 69.218182 133.566377 
L 75.429685 133.566377 
L 75.429685 154.874927 
L 81.641187 154.874927 
L 81.641187 154.874927 
L 87.85269 154.874927 
L 87.85269 154.874927 
L 94.064193 154.874927 
L 94.064193 154.874927 
L 100.275696 154.874927 
L 100.275696 154.874927 
L 106.487199 154.874927 
L 106.487199 154.874927 
L 112.698701 154.874927 
L 112.698701 154.874927 
L 118.910204 154.874927 
L 118.910204 154.874927 
L 125.121707 154.874927 
L 125.121707 154.874927 
L 131.33321 154.874927 
L 131.33321 156.663839 
L 137.544712 156.663839 
L 137.544712 156.663839 
L 143.756215 156.663839 
L 143.756215 176.161452 
L 149.967718 176.161452 
L 149.967718 200.008407 
L 156.179221 200.008407 
L 156.179221 200.008407 
L 162.390724 200.008407 
L 162.390724 200.008407 
L 168.602226 200.008407 
L 168.602226 200.008407 
L 174.813729 200.008407 
L 174.813729 208.037634 
L 181.025232 208.037634 
L 181.025232 216.179124 
L 187.236735 216.179124 
L 187.236735 216.179124 
L 193.448237 216.179124 
L 193.448237 216.179124 
L 199.65974 216.179124 
L 199.65974 221.779977 
L 205.871243 221.779977 
L 205.871243 221.779977 
L 212.082746 221.779977 
L 212.082746 221.779977 
L 218.294249 221.779977 
L 218.294249 221.779977 
L 224.505751 221.779977 
L 224.505751 221.779977 
L 230.717254 221.779977 
L 230.717254 221.779977 
L 236.928757 221.779977 
L 236.928757 221.779977 
L 243.14026 221.779977 
L 243.14026 221.779977 
L 249.351763 221.779977 
L 249.351763 221.779977 
L 255.563265 221.779977 
L 255.563265 221.779977 
L 261.774768 221.779977 
L 261.774768 221.779977 
L 267.986271 221.779977 
L 267.986271 221.779977 
L 274.197774 221.779977 
L 274.197774 221.779977 
L 280.409276 221.779977 
L 280.409276 221.779977 
L 286.620779 221.779977 
L 286.620779 221.779977 
L 292.832282 221.779977 
L 292.832282 221.779977 
L 299.043785 221.779977 
L 299.043785 221.779977 
L 305.255288 221.779977 
L 305.255288 221.779977 
L 311.46679 221.779977 
L 311.46679 221.779977 
L 317.678293 221.779977 
L 317.678293 221.779977 
L 323.889796 221.779977 
L 323.889796 221.779977 
L 330.101299 221.779977 
L 330.101299 221.779977 
L 336.312801 221.779977 
L 336.312801 221.779977 
L 342.524304 221.779977 
L 342.524304 221.779977 
L 348.735807 221.779977 
L 348.735807 221.779977 
L 354.94731 221.779977 
L 354.94731 221.779977 
L 361.158813 221.779977 
L 361.158813 221.779977 
L 367.370315 221.779977 
L 367.370315 221.779977 
L 373.581818 221.779977 
L 373.581818 221.779977 
" style="fill:none;stroke:#ff7f0e;stroke-linecap:square;stroke-width:1.5;"/>
   </g>
   <g id="line2d_28">
    <path clip-path="url(#p0c133a1576)" d="M 69.218182 84.574542 
L 75.429685 84.574542 
L 75.429685 210.619343 
L 81.641187 210.619343 
L 81.641187 215.519918 
L 87.85269 215.519918 
L 87.85269 215.519918 
L 94.064193 215.519918 
L 94.064193 215.519918 
L 100.275696 215.519918 
L 100.275696 215.519918 
L 106.487199 215.519918 
L 106.487199 215.519918 
L 112.698701 215.519918 
L 112.698701 219.530622 
L 118.910204 219.530622 
L 118.910204 219.530622 
L 125.121707 219.530622 
L 125.121707 219.530622 
L 131.33321 219.530622 
L 131.33321 219.530622 
L 137.544712 219.530622 
L 137.544712 219.530622 
L 143.756215 219.530622 
L 143.756215 219.530622 
L 149.967718 219.530622 
L 149.967718 219.530622 
L 156.179221 219.530622 
L 156.179221 219.530622 
L 162.390724 219.530622 
L 162.390724 219.530622 
L 168.602226 219.530622 
L 168.602226 219.530622 
L 174.813729 219.530622 
L 174.813729 219.530622 
L 181.025232 219.530622 
L 181.025232 219.530622 
L 187.236735 219.530622 
L 187.236735 219.530622 
L 193.448237 219.530622 
L 193.448237 219.530622 
L 199.65974 219.530622 
L 199.65974 219.530622 
L 205.871243 219.530622 
L 205.871243 219.530622 
L 212.082746 219.530622 
L 212.082746 219.530622 
L 218.294249 219.530622 
L 218.294249 219.530622 
L 224.505751 219.530622 
L 224.505751 219.530622 
L 230.717254 219.530622 
L 230.717254 219.530622 
L 236.928757 219.530622 
L 236.928757 219.530622 
L 243.14026 219.530622 
L 243.14026 219.530622 
L 249.351763 219.530622 
L 249.351763 219.530622 
L 255.563265 219.530622 
L 255.563265 219.530622 
L 261.774768 219.530622 
L 261.774768 219.530622 
L 267.986271 219.530622 
L 267.986271 219.530622 
L 274.197774 219.530622 
L 274.197774 219.530622 
L 280.409276 219.530622 
L 280.409276 219.530622 
L 286.620779 219.530622 
L 286.620779 219.530622 
L 292.832282 219.530622 
L 292.832282 219.530622 
L 299.043785 219.530622 
L 299.043785 219.530622 
L 305.255288 219.530622 
L 305.255288 219.530622 
L 311.46679 219.530622 
L 311.46679 219.530622 
L 317.678293 219.530622 
L 317.678293 219.530622 
L 323.889796 219.530622 
L 323.889796 219.530622 
L 330.101299 219.530622 
L 330.101299 219.530622 
L 336.312801 219.530622 
L 336.312801 219.530622 
L 342.524304 219.530622 
L 342.524304 219.530622 
L 348.735807 219.530622 
L 348.735807 219.530622 
L 354.94731 219.530622 
L 354.94731 219.530622 
L 361.158813 219.530622 
L 361.158813 219.530622 
L 367.370315 219.530622 
L 367.370315 219.530622 
L 373.581818 219.530622 
L 373.581818 219.530622 
" style="fill:none;stroke:#2ca02c;stroke-linecap:square;stroke-width:1.5;"/>
   </g>
   <g id="line2d_29">
    <path clip-path="url(#p0c133a1576)" d="M 69.218182 242.116364 
L 75.429685 242.116364 
L 75.429685 242.116364 
L 81.641187 242.116364 
L 81.641187 242.116364 
L 87.85269 242.116364 
L 87.85269 57.570307 
L 94.064193 57.570307 
L 94.064193 201.045379 
L 100.275696 201.045379 
L 100.275696 201.045379 
L 106.487199 201.045379 
L 106.487199 201.045379 
L 112.698701 201.045379 
L 112.698701 201.045379 
L 118.910204 201.045379 
L 118.910204 201.045379 
L 125.121707 201.045379 
L 125.121707 201.045379 
L 131.33321 201.045379 
L 131.33321 201.045379 
L 137.544712 201.045379 
L 137.544712 201.045379 
L 143.756215 201.045379 
L 143.756215 201.045379 
L 149.967718 201.045379 
L 149.967718 214.503552 
L 156.179221 214.503552 
L 156.179221 214.503552 
L 162.390724 214.503552 
L 162.390724 214.503552 
L 168.602226 214.503552 
L 168.602226 216.129153 
L 174.813729 216.129153 
L 174.813729 216.129153 
L 181.025232 216.129153 
L 181.025232 216.129153 
L 187.236735 216.129153 
L 187.236735 216.129153 
L 193.448237 216.129153 
L 193.448237 216.129153 
L 199.65974 216.129153 
L 199.65974 216.129153 
L 205.871243 216.129153 
L 205.871243 216.129153 
L 212.082746 216.129153 
L 212.082746 216.129153 
L 218.294249 216.129153 
L 218.294249 216.129153 
L 224.505751 216.129153 
L 224.505751 216.129153 
L 230.717254 216.129153 
L 230.717254 216.129153 
L 236.928757 216.129153 
L 236.928757 216.129153 
L 243.14026 216.129153 
L 243.14026 216.129153 
L 249.351763 216.129153 
L 249.351763 216.129153 
L 255.563265 216.129153 
L 255.563265 216.129153 
L 261.774768 216.129153 
L 261.774768 216.129153 
L 267.986271 216.129153 
L 267.986271 216.129153 
L 274.197774 216.129153 
L 274.197774 216.129153 
L 280.409276 216.129153 
L 280.409276 216.129153 
L 286.620779 216.129153 
L 286.620779 216.129153 
L 292.832282 216.129153 
L 292.832282 216.129153 
L 299.043785 216.129153 
L 299.043785 216.129153 
L 305.255288 216.129153 
L 305.255288 216.129153 
L 311.46679 216.129153 
L 311.46679 216.129153 
L 317.678293 216.129153 
L 317.678293 216.129153 
L 323.889796 216.129153 
L 323.889796 216.129153 
L 330.101299 216.129153 
L 330.101299 216.129153 
L 336.312801 216.129153 
L 336.312801 216.129153 
L 342.524304 216.129153 
L 342.524304 216.129153 
L 348.735807 216.129153 
L 348.735807 216.129153 
L 354.94731 216.129153 
L 354.94731 216.129153 
L 361.158813 216.129153 
L 361.158813 216.129153 
L 367.370315 216.129153 
L 367.370315 216.129153 
L 373.581818 216.129153 
L 373.581818 216.129153 
" style="fill:none;stroke:#d62728;stroke-linecap:square;stroke-width:1.5;"/>
   </g>
   <g id="line2d_30">
    <path clip-path="url(#p0c133a1576)" d="M 69.218182 44.443636 
L 75.429685 44.443636 
L 75.429685 53.089668 
L 81.641187 53.089668 
L 81.641187 53.089668 
L 87.85269 53.089668 
L 87.85269 53.089668 
L 94.064193 53.089668 
L 94.064193 219.553916 
L 100.275696 219.553916 
L 100.275696 219.553916 
L 106.487199 219.553916 
L 106.487199 219.553916 
L 112.698701 219.553916 
L 112.698701 219.553916 
L 118.910204 219.553916 
L 118.910204 219.553916 
L 125.121707 219.553916 
L 125.121707 219.553916 
L 131.33321 219.553916 
L 131.33321 219.553916 
L 137.544712 219.553916 
L 137.544712 219.553916 
L 143.756215 219.553916 
L 143.756215 219.553916 
L 149.967718 219.553916 
L 149.967718 219.553916 
L 156.179221 219.553916 
L 156.179221 219.553916 
L 162.390724 219.553916 
L 162.390724 219.553916 
L 168.602226 219.553916 
L 168.602226 219.553916 
L 174.813729 219.553916 
L 174.813729 219.553916 
L 181.025232 219.553916 
L 181.025232 219.553916 
L 187.236735 219.553916 
L 187.236735 219.553916 
L 193.448237 219.553916 
L 193.448237 219.553916 
L 199.65974 219.553916 
L 199.65974 219.553916 
L 205.871243 219.553916 
L 205.871243 219.553916 
L 212.082746 219.553916 
L 212.082746 219.553916 
L 218.294249 219.553916 
L 218.294249 219.553916 
L 224.505751 219.553916 
L 224.505751 219.553916 
L 230.717254 219.553916 
L 230.717254 219.553916 
L 236.928757 219.553916 
L 236.928757 219.553916 
L 243.14026 219.553916 
L 243.14026 219.553916 
L 249.351763 219.553916 
L 249.351763 219.553916 
L 255.563265 219.553916 
L 255.563265 219.553916 
L 261.774768 219.553916 
L 261.774768 219.553916 
L 267.986271 219.553916 
L 267.986271 219.553916 
L 274.197774 219.553916 
L 274.197774 219.553916 
L 280.409276 219.553916 
L 280.409276 219.553916 
L 286.620779 219.553916 
L 286.620779 219.553916 
L 292.832282 219.553916 
L 292.832282 219.553916 
L 299.043785 219.553916 
L 299.043785 219.553916 
L 305.255288 219.553916 
L 305.255288 219.553916 
L 311.46679 219.553916 
L 311.46679 219.553916 
L 317.678293 219.553916 
L 317.678293 219.553916 
L 323.889796 219.553916 
L 323.889796 219.553916 
L 330.101299 219.553916 
L 330.101299 219.553916 
L 336.312801 219.553916 
L 336.312801 219.553916 
L 342.524304 219.553916 
L 342.524304 219.553916 
L 348.735807 219.553916 
L 348.735807 219.553916 
L 354.94731 219.553916 
L 354.94731 219.553916 
L 361.158813 219.553916 
L 361.158813 219.553916 
L 367.370315 219.553916 
L 367.370315 219.553916 
L 373.581818 219.553916 
L 373.581818 219.553916 
" style="fill:none;stroke:#9467bd;stroke-linecap:square;stroke-width:1.5;"/>
   </g>
   <g id="line2d_31">
    <path clip-path="url(#p0c133a1576)" d="M 69.218182 108.807902 
L 75.429685 108.807902 
L 75.429685 108.807902 
L 81.641187 108.807902 
L 81.641187 219.728922 
L 87.85269 219.728922 
L 87.85269 219.728922 
L 94.064193 219.728922 
L 94.064193 219.728922 
L 100.275696 219.728922 
L 100.275696 219.728922 
L 106.487199 219.728922 
L 106.487199 219.728922 
L 112.698701 219.728922 
L 112.698701 219.728922 
L 118.910204 219.728922 
L 118.910204 219.728922 
L 125.121707 219.728922 
L 125.121707 219.728922 
L 131.33321 219.728922 
L 131.33321 219.728922 
L 137.544712 219.728922 
L 137.544712 219.728922 
L 143.756215 219.728922 
L 143.756215 219.728922 
L 149.967718 219.728922 
L 149.967718 219.728922 
L 156.179221 219.728922 
L 156.179221 219.728922 
L 162.390724 219.728922 
L 162.390724 219.728922 
L 168.602226 219.728922 
L 168.602226 219.728922 
L 174.813729 219.728922 
L 174.813729 219.728922 
L 181.025232 219.728922 
L 181.025232 219.728922 
L 187.236735 219.728922 
L 187.236735 219.728922 
L 193.448237 219.728922 
L 193.448237 219.728922 
L 199.65974 219.728922 
L 199.65974 219.728922 
L 205.871243 219.728922 
L 205.871243 219.728922 
L 212.082746 219.728922 
L 212.082746 219.728922 
L 218.294249 219.728922 
L 218.294249 219.728922 
L 224.505751 219.728922 
L 224.505751 219.728922 
L 230.717254 219.728922 
L 230.717254 219.728922 
L 236.928757 219.728922 
L 236.928757 219.728922 
L 243.14026 219.728922 
L 243.14026 219.728922 
L 249.351763 219.728922 
L 249.351763 219.728922 
L 255.563265 219.728922 
L 255.563265 219.728922 
L 261.774768 219.728922 
L 261.774768 219.728922 
L 267.986271 219.728922 
L 267.986271 219.728922 
L 274.197774 219.728922 
L 274.197774 219.728922 
L 280.409276 219.728922 
L 280.409276 219.728922 
L 286.620779 219.728922 
L 286.620779 219.728922 
L 292.832282 219.728922 
L 292.832282 219.728922 
L 299.043785 219.728922 
L 299.043785 219.728922 
L 305.255288 219.728922 
L 305.255288 219.728922 
L 311.46679 219.728922 
L 311.46679 219.728922 
L 317.678293 219.728922 
L 317.678293 219.728922 
L 323.889796 219.728922 
L 323.889796 219.728922 
L 330.101299 219.728922 
L 330.101299 219.728922 
L 336.312801 219.728922 
L 336.312801 219.728922 
L 342.524304 219.728922 
L 342.524304 219.728922 
L 348.735807 219.728922 
L 348.735807 219.728922 
L 354.94731 219.728922 
L 354.94731 219.728922 
L 361.158813 219.728922 
L 361.158813 219.728922 
L 367.370315 219.728922 
L 367.370315 219.728922 
L 373.581818 219.728922 
L 373.581818 219.728922 
" style="fill:none;stroke:#8c564b;stroke-linecap:square;stroke-width:1.5;"/>
   </g>
   <g id="line2d_32">
    <path clip-path="url(#p0c133a1576)" d="M 69.218182 79.660346 
L 75.429685 79.660346 
L 75.429685 79.660346 
L 81.641187 79.660346 
L 81.641187 79.660346 
L 87.85269 79.660346 
L 87.85269 79.660346 
L 94.064193 79.660346 
L 94.064193 79.660346 
L 100.275696 79.660346 
L 100.275696 79.660346 
L 106.487199 79.660346 
L 106.487199 182.410158 
L 112.698701 182.410158 
L 112.698701 182.410158 
L 118.910204 182.410158 
L 118.910204 182.410158 
L 125.121707 182.410158 
L 125.121707 182.410158 
L 131.33321 182.410158 
L 131.33321 220.050446 
L 137.544712 220.050446 
L 137.544712 220.050446 
L 143.756215 220.050446 
L 143.756215 220.050446 
L 149.967718 220.050446 
L 149.967718 220.050446 
L 156.179221 220.050446 
L 156.179221 220.050446 
L 162.390724 220.050446 
L 162.390724 220.050446 
L 168.602226 220.050446 
L 168.602226 220.050446 
L 174.813729 220.050446 
L 174.813729 220.050446 
L 181.025232 220.050446 
L 181.025232 220.050446 
L 187.236735 220.050446 
L 187.236735 220.050446 
L 193.448237 220.050446 
L 193.448237 220.050446 
L 199.65974 220.050446 
L 199.65974 220.050446 
L 205.871243 220.050446 
L 205.871243 220.050446 
L 212.082746 220.050446 
L 212.082746 220.050446 
L 218.294249 220.050446 
L 218.294249 220.050446 
L 224.505751 220.050446 
L 224.505751 220.050446 
L 230.717254 220.050446 
L 230.717254 220.050446 
L 236.928757 220.050446 
L 236.928757 220.050446 
L 243.14026 220.050446 
L 243.14026 220.050446 
L 249.351763 220.050446 
L 249.351763 220.050446 
L 255.563265 220.050446 
L 255.563265 220.050446 
L 261.774768 220.050446 
L 261.774768 220.050446 
L 267.986271 220.050446 
L 267.986271 220.050446 
L 274.197774 220.050446 
L 274.197774 220.050446 
L 280.409276 220.050446 
L 280.409276 220.050446 
L 286.620779 220.050446 
L 286.620779 220.050446 
L 292.832282 220.050446 
L 292.832282 220.050446 
L 299.043785 220.050446 
L 299.043785 220.050446 
L 305.255288 220.050446 
L 305.255288 220.050446 
L 311.46679 220.050446 
L 311.46679 220.050446 
L 317.678293 220.050446 
L 317.678293 220.050446 
L 323.889796 220.050446 
L 323.889796 220.050446 
L 330.101299 220.050446 
L 330.101299 220.050446 
L 336.312801 220.050446 
L 336.312801 220.050446 
L 342.524304 220.050446 
L 342.524304 220.050446 
L 348.735807 220.050446 
L 348.735807 220.050446 
L 354.94731 220.050446 
L 354.94731 220.050446 
L 361.158813 220.050446 
L 361.158813 220.050446 
L 367.370315 220.050446 
L 367.370315 220.050446 
L 373.581818 220.050446 
L 373.581818 220.050446 
" style="fill:none;stroke:#e377c2;stroke-linecap:square;stroke-width:1.5;"/>
   </g>
   <g id="line2d_33">
    <path clip-path="url(#p0c133a1576)" d="M 69.218182 96.676684 
L 75.429685 96.676684 
L 75.429685 96.676684 
L 81.641187 96.676684 
L 81.641187 96.676684 
L 87.85269 96.676684 
L 87.85269 96.676684 
L 94.064193 96.676684 
L 94.064193 96.676684 
L 100.275696 96.676684 
L 100.275696 96.676684 
L 106.487199 96.676684 
L 106.487199 96.676684 
L 112.698701 96.676684 
L 112.698701 96.676684 
L 118.910204 96.676684 
L 118.910204 96.676684 
L 125.121707 96.676684 
L 125.121707 210.261292 
L 131.33321 210.261292 
L 131.33321 210.261292 
L 137.544712 210.261292 
L 137.544712 210.261292 
L 143.756215 210.261292 
L 143.756215 210.261292 
L 149.967718 210.261292 
L 149.967718 210.261292 
L 156.179221 210.261292 
L 156.179221 210.261292 
L 162.390724 210.261292 
L 162.390724 210.261292 
L 168.602226 210.261292 
L 168.602226 210.261292 
L 174.813729 210.261292 
L 174.813729 210.261292 
L 181.025232 210.261292 
L 181.025232 210.261292 
L 187.236735 210.261292 
L 187.236735 210.261292 
L 193.448237 210.261292 
L 193.448237 210.261292 
L 199.65974 210.261292 
L 199.65974 210.261292 
L 205.871243 210.261292 
L 205.871243 210.261292 
L 212.082746 210.261292 
L 212.082746 210.261292 
L 218.294249 210.261292 
L 218.294249 210.261292 
L 224.505751 210.261292 
L 224.505751 210.261292 
L 230.717254 210.261292 
L 230.717254 210.261292 
L 236.928757 210.261292 
L 236.928757 210.261292 
L 243.14026 210.261292 
L 243.14026 210.261292 
L 249.351763 210.261292 
L 249.351763 210.261292 
L 255.563265 210.261292 
L 255.563265 210.261292 
L 261.774768 210.261292 
L 261.774768 210.261292 
L 267.986271 210.261292 
L 267.986271 210.261292 
L 274.197774 210.261292 
L 274.197774 210.261292 
L 280.409276 210.261292 
L 280.409276 210.261292 
L 286.620779 210.261292 
L 286.620779 210.261292 
L 292.832282 210.261292 
L 292.832282 210.261292 
L 299.043785 210.261292 
L 299.043785 210.261292 
L 305.255288 210.261292 
L 305.255288 210.261292 
L 311.46679 210.261292 
L 311.46679 210.261292 
L 317.678293 210.261292 
L 317.678293 210.261292 
L 323.889796 210.261292 
L 323.889796 210.261292 
L 330.101299 210.261292 
L 330.101299 210.261292 
L 336.312801 210.261292 
L 336.312801 210.261292 
L 342.524304 210.261292 
L 342.524304 210.261292 
L 348.735807 210.261292 
L 348.735807 210.261292 
L 354.94731 210.261292 
L 354.94731 210.261292 
L 361.158813 210.261292 
L 361.158813 210.261292 
L 367.370315 210.261292 
L 367.370315 210.261292 
L 373.581818 210.261292 
L 373.581818 210.261292 
" style="fill:none;stroke:#7f7f7f;stroke-linecap:square;stroke-width:1.5;"/>
   </g>
   <g id="line2d_34">
    <path clip-path="url(#p0c133a1576)" d="M 69.218182 205.403257 
L 75.429685 205.403257 
L 75.429685 185.913988 
L 81.641187 185.913988 
L 81.641187 185.913988 
L 87.85269 185.913988 
L 87.85269 185.913988 
L 94.064193 185.913988 
L 94.064193 185.913988 
L 100.275696 185.913988 
L 100.275696 185.913988 
L 106.487199 185.913988 
L 106.487199 185.913988 
L 112.698701 185.913988 
L 112.698701 185.913988 
L 118.910204 185.913988 
L 118.910204 185.913988 
L 125.121707 185.913988 
L 125.121707 185.913988 
L 131.33321 185.913988 
L 131.33321 185.913988 
L 137.544712 185.913988 
L 137.544712 185.913988 
L 143.756215 185.913988 
L 143.756215 190.987267 
L 149.967718 190.987267 
L 149.967718 190.987267 
L 156.179221 190.987267 
L 156.179221 190.987267 
L 162.390724 190.987267 
L 162.390724 203.147518 
L 168.602226 203.147518 
L 168.602226 203.147518 
L 174.813729 203.147518 
L 174.813729 211.713089 
L 181.025232 211.713089 
L 181.025232 211.713089 
L 187.236735 211.713089 
L 187.236735 211.713089 
L 193.448237 211.713089 
L 193.448237 211.713089 
L 199.65974 211.713089 
L 199.65974 211.713089 
L 205.871243 211.713089 
L 205.871243 211.713089 
L 212.082746 211.713089 
L 212.082746 211.713089 
L 218.294249 211.713089 
L 218.294249 211.713089 
L 224.505751 211.713089 
L 224.505751 211.713089 
L 230.717254 211.713089 
L 230.717254 211.713089 
L 236.928757 211.713089 
L 236.928757 211.713089 
L 243.14026 211.713089 
L 243.14026 211.713089 
L 249.351763 211.713089 
L 249.351763 211.713089 
L 255.563265 211.713089 
L 255.563265 211.713089 
L 261.774768 211.713089 
L 261.774768 211.713089 
L 267.986271 211.713089 
L 267.986271 211.713089 
L 274.197774 211.713089 
L 274.197774 211.713089 
L 280.409276 211.713089 
L 280.409276 211.713089 
L 286.620779 211.713089 
L 286.620779 211.713089 
L 292.832282 211.713089 
L 292.832282 211.713089 
L 299.043785 211.713089 
L 299.043785 211.713089 
L 305.255288 211.713089 
L 305.255288 211.713089 
L 311.46679 211.713089 
L 311.46679 211.713089 
L 317.678293 211.713089 
L 317.678293 211.713089 
L 323.889796 211.713089 
L 323.889796 211.713089 
L 330.101299 211.713089 
L 330.101299 211.713089 
L 336.312801 211.713089 
L 336.312801 211.713089 
L 342.524304 211.713089 
L 342.524304 211.713089 
L 348.735807 211.713089 
L 348.735807 211.713089 
L 354.94731 211.713089 
L 354.94731 211.713089 
L 361.158813 211.713089 
L 361.158813 211.713089 
L 367.370315 211.713089 
L 367.370315 211.713089 
L 373.581818 211.713089 
L 373.581818 211.713089 
" style="fill:none;stroke:#bcbd22;stroke-linecap:square;stroke-width:1.5;"/>
   </g>
   <g id="line2d_35">
    <path clip-path="url(#p0c133a1576)" d="M 69.218182 191.437188 
L 75.429685 191.437188 
L 75.429685 191.437188 
L 81.641187 191.437188 
L 81.641187 204.77329 
L 87.85269 204.77329 
L 87.85269 204.77329 
L 94.064193 204.77329 
L 94.064193 204.77329 
L 100.275696 204.77329 
L 100.275696 204.77329 
L 106.487199 204.77329 
L 106.487199 220.991033 
L 112.698701 220.991033 
L 112.698701 220.991033 
L 118.910204 220.991033 
L 118.910204 220.991033 
L 125.121707 220.991033 
L 125.121707 220.991033 
L 131.33321 220.991033 
L 131.33321 220.991033 
L 137.544712 220.991033 
L 137.544712 220.991033 
L 143.756215 220.991033 
L 143.756215 220.991033 
L 149.967718 220.991033 
L 149.967718 220.991033 
L 156.179221 220.991033 
L 156.179221 220.991033 
L 162.390724 220.991033 
L 162.390724 220.991033 
L 168.602226 220.991033 
L 168.602226 220.991033 
L 174.813729 220.991033 
L 174.813729 220.991033 
L 181.025232 220.991033 
L 181.025232 220.991033 
L 187.236735 220.991033 
L 187.236735 220.991033 
L 193.448237 220.991033 
L 193.448237 220.991033 
L 199.65974 220.991033 
L 199.65974 220.991033 
L 205.871243 220.991033 
L 205.871243 220.991033 
L 212.082746 220.991033 
L 212.082746 220.991033 
L 218.294249 220.991033 
L 218.294249 220.991033 
L 224.505751 220.991033 
L 224.505751 220.991033 
L 230.717254 220.991033 
L 230.717254 220.991033 
L 236.928757 220.991033 
L 236.928757 220.991033 
L 243.14026 220.991033 
L 243.14026 220.991033 
L 249.351763 220.991033 
L 249.351763 220.991033 
L 255.563265 220.991033 
L 255.563265 220.991033 
L 261.774768 220.991033 
L 261.774768 220.991033 
L 267.986271 220.991033 
L 267.986271 220.991033 
L 274.197774 220.991033 
L 274.197774 220.991033 
L 280.409276 220.991033 
L 280.409276 220.991033 
L 286.620779 220.991033 
L 286.620779 220.991033 
L 292.832282 220.991033 
L 292.832282 220.991033 
L 299.043785 220.991033 
L 299.043785 220.991033 
L 305.255288 220.991033 
L 305.255288 220.991033 
L 311.46679 220.991033 
L 311.46679 220.991033 
L 317.678293 220.991033 
L 317.678293 220.991033 
L 323.889796 220.991033 
L 323.889796 220.991033 
L 330.101299 220.991033 
L 330.101299 220.991033 
L 336.312801 220.991033 
L 336.312801 220.991033 
L 342.524304 220.991033 
L 342.524304 220.991033 
L 348.735807 220.991033 
L 348.735807 220.991033 
L 354.94731 220.991033 
L 354.94731 220.991033 
L 361.158813 220.991033 
L 361.158813 220.991033 
L 367.370315 220.991033 
L 367.370315 220.991033 
L 373.581818 220.991033 
L 373.581818 220.991033 
" style="fill:none;stroke:#17becf;stroke-linecap:square;stroke-width:1.5;"/>
   </g>
   <g id="patch_3">
    <path d="M 54 252 
L 54 34.56 
" style="fill:none;stroke:#000000;stroke-linecap:square;stroke-linejoin:miter;stroke-width:0.8;"/>
   </g>
   <g id="patch_4">
    <path d="M 388.8 252 
L 388.8 34.56 
" style="fill:none;stroke:#000000;stroke-linecap:square;stroke-linejoin:miter;stroke-width:0.8;"/>
   </g>
   <g id="patch_5">
    <path d="M 54 252 
L 388.8 252 
" style="fill:none;stroke:#000000;stroke-linecap:square;stroke-linejoin:miter;stroke-width:0.8;"/>
   </g>
   <g id="patch_6">
    <path d="M 54 34.56 
L 388.8 34.56 
" style="fill:none;stroke:#000000;stroke-linecap:square;stroke-linejoin:miter;stroke-width:0.8;"/>
   </g>
   <g id="legend_1">
    <g id="patch_7">
     <path d="M 265.182813 192.1225 
L 381.8 192.1225 
Q 383.8 192.1225 383.8 190.1225 
L 383.8 41.56 
Q 383.8 39.56 381.8 39.56 
L 265.182813 39.56 
Q 263.182813 39.56 263.182813 41.56 
L 263.182813 190.1225 
Q 263.182813 192.1225 265.182813 192.1225 
z
" style="fill:#ffffff;opacity:0.8;stroke:#cccccc;stroke-linejoin:miter;"/>
    </g>
    <g id="line2d_36">
     <path d="M 267.182813 47.658437 
L 287.182813 47.658437 
" style="fill:none;stroke:#1f77b4;stroke-linecap:square;stroke-width:1.5;"/>
    </g>
    <g id="line2d_37"/>
    <g id="text_11">
     <!-- BO0; #f_eval: 50 -->
     <g transform="translate(295.182813 51.158437)scale(0.1 -0.1)">
      <defs>
       <path d="M 39.40625 66.21875 
Q 28.65625 66.21875 22.328125 58.203125 
Q 16.015625 50.203125 16.015625 36.375 
Q 16.015625 22.609375 22.328125 14.59375 
Q 28.65625 6.59375 39.40625 6.59375 
Q 50.140625 6.59375 56.421875 14.59375 
Q 62.703125 22.609375 62.703125 36.375 
Q 62.703125 50.203125 56.421875 58.203125 
Q 50.140625 66.21875 39.40625 66.21875 
z
M 39.40625 74.21875 
Q 54.734375 74.21875 63.90625 63.9375 
Q 73.09375 53.65625 73.09375 36.375 
Q 73.09375 19.140625 63.90625 8.859375 
Q 54.734375 -1.421875 39.40625 -1.421875 
Q 24.03125 -1.421875 14.8125 8.828125 
Q 5.609375 19.09375 5.609375 36.375 
Q 5.609375 53.65625 14.8125 63.9375 
Q 24.03125 74.21875 39.40625 74.21875 
z
" id="DejaVuSans-79"/>
       <path d="M 11.71875 51.703125 
L 22.015625 51.703125 
L 22.015625 39.3125 
L 11.71875 39.3125 
z
M 11.71875 12.40625 
L 22.015625 12.40625 
L 22.015625 4 
L 14.015625 -11.625 
L 7.71875 -11.625 
L 11.71875 4 
z
" id="DejaVuSans-59"/>
       <path d="M 51.125 44 
L 36.921875 44 
L 32.8125 27.6875 
L 47.125 27.6875 
z
M 43.796875 71.78125 
L 38.71875 51.515625 
L 52.984375 51.515625 
L 58.109375 71.78125 
L 65.921875 71.78125 
L 60.890625 51.515625 
L 76.125 51.515625 
L 76.125 44 
L 58.984375 44 
L 54.984375 27.6875 
L 70.515625 27.6875 
L 70.515625 20.21875 
L 53.078125 20.21875 
L 48 0 
L 40.1875 0 
L 45.21875 20.21875 
L 30.90625 20.21875 
L 25.875 0 
L 18.015625 0 
L 23.09375 20.21875 
L 7.71875 20.21875 
L 7.71875 27.6875 
L 24.90625 27.6875 
L 29 44 
L 13.28125 44 
L 13.28125 51.515625 
L 30.90625 51.515625 
L 35.890625 71.78125 
z
" id="DejaVuSans-35"/>
       <path d="M 50.984375 -16.609375 
L 50.984375 -23.578125 
L -0.984375 -23.578125 
L -0.984375 -16.609375 
z
" id="DejaVuSans-95"/>
       <path d="M 11.71875 12.40625 
L 22.015625 12.40625 
L 22.015625 0 
L 11.71875 0 
z
M 11.71875 51.703125 
L 22.015625 51.703125 
L 22.015625 39.3125 
L 11.71875 39.3125 
z
" id="DejaVuSans-58"/>
      </defs>
      <use xlink:href="#DejaVuSans-66"/>
      <use x="66.853516" xlink:href="#DejaVuSans-79"/>
      <use x="145.564453" xlink:href="#DejaVuSans-48"/>
      <use x="209.1875" xlink:href="#DejaVuSans-59"/>
      <use x="242.878906" xlink:href="#DejaVuSans-32"/>
      <use x="274.666016" xlink:href="#DejaVuSans-35"/>
      <use x="358.455078" xlink:href="#DejaVuSans-102"/>
      <use x="393.660156" xlink:href="#DejaVuSans-95"/>
      <use x="443.660156" xlink:href="#DejaVuSans-101"/>
      <use x="505.183594" xlink:href="#DejaVuSans-118"/>
      <use x="564.363281" xlink:href="#DejaVuSans-97"/>
      <use x="625.642578" xlink:href="#DejaVuSans-108"/>
      <use x="653.425781" xlink:href="#DejaVuSans-58"/>
      <use x="687.117188" xlink:href="#DejaVuSans-32"/>
      <use x="718.904297" xlink:href="#DejaVuSans-53"/>
      <use x="782.527344" xlink:href="#DejaVuSans-48"/>
     </g>
    </g>
    <g id="line2d_38">
     <path d="M 267.182813 62.614688 
L 287.182813 62.614688 
" style="fill:none;stroke:#ff7f0e;stroke-linecap:square;stroke-width:1.5;"/>
    </g>
    <g id="line2d_39"/>
    <g id="text_12">
     <!-- BO1; #f_eval: 50 -->
     <g transform="translate(295.182813 66.114688)scale(0.1 -0.1)">
      <use xlink:href="#DejaVuSans-66"/>
      <use x="66.853516" xlink:href="#DejaVuSans-79"/>
      <use x="145.564453" xlink:href="#DejaVuSans-49"/>
      <use x="209.1875" xlink:href="#DejaVuSans-59"/>
      <use x="242.878906" xlink:href="#DejaVuSans-32"/>
      <use x="274.666016" xlink:href="#DejaVuSans-35"/>
      <use x="358.455078" xlink:href="#DejaVuSans-102"/>
      <use x="393.660156" xlink:href="#DejaVuSans-95"/>
      <use x="443.660156" xlink:href="#DejaVuSans-101"/>
      <use x="505.183594" xlink:href="#DejaVuSans-118"/>
      <use x="564.363281" xlink:href="#DejaVuSans-97"/>
      <use x="625.642578" xlink:href="#DejaVuSans-108"/>
      <use x="653.425781" xlink:href="#DejaVuSans-58"/>
      <use x="687.117188" xlink:href="#DejaVuSans-32"/>
      <use x="718.904297" xlink:href="#DejaVuSans-53"/>
      <use x="782.527344" xlink:href="#DejaVuSans-48"/>
     </g>
    </g>
    <g id="line2d_40">
     <path d="M 267.182813 77.570938 
L 287.182813 77.570938 
" style="fill:none;stroke:#2ca02c;stroke-linecap:square;stroke-width:1.5;"/>
    </g>
    <g id="line2d_41"/>
    <g id="text_13">
     <!-- BO2; #f_eval: 50 -->
     <g transform="translate(295.182813 81.070938)scale(0.1 -0.1)">
      <use xlink:href="#DejaVuSans-66"/>
      <use x="66.853516" xlink:href="#DejaVuSans-79"/>
      <use x="145.564453" xlink:href="#DejaVuSans-50"/>
      <use x="209.1875" xlink:href="#DejaVuSans-59"/>
      <use x="242.878906" xlink:href="#DejaVuSans-32"/>
      <use x="274.666016" xlink:href="#DejaVuSans-35"/>
      <use x="358.455078" xlink:href="#DejaVuSans-102"/>
      <use x="393.660156" xlink:href="#DejaVuSans-95"/>
      <use x="443.660156" xlink:href="#DejaVuSans-101"/>
      <use x="505.183594" xlink:href="#DejaVuSans-118"/>
      <use x="564.363281" xlink:href="#DejaVuSans-97"/>
      <use x="625.642578" xlink:href="#DejaVuSans-108"/>
      <use x="653.425781" xlink:href="#DejaVuSans-58"/>
      <use x="687.117188" xlink:href="#DejaVuSans-32"/>
      <use x="718.904297" xlink:href="#DejaVuSans-53"/>
      <use x="782.527344" xlink:href="#DejaVuSans-48"/>
     </g>
    </g>
    <g id="line2d_42">
     <path d="M 267.182813 92.527188 
L 287.182813 92.527188 
" style="fill:none;stroke:#d62728;stroke-linecap:square;stroke-width:1.5;"/>
    </g>
    <g id="line2d_43"/>
    <g id="text_14">
     <!-- BO3; #f_eval: 50 -->
     <g transform="translate(295.182813 96.027188)scale(0.1 -0.1)">
      <use xlink:href="#DejaVuSans-66"/>
      <use x="66.853516" xlink:href="#DejaVuSans-79"/>
      <use x="145.564453" xlink:href="#DejaVuSans-51"/>
      <use x="209.1875" xlink:href="#DejaVuSans-59"/>
      <use x="242.878906" xlink:href="#DejaVuSans-32"/>
      <use x="274.666016" xlink:href="#DejaVuSans-35"/>
      <use x="358.455078" xlink:href="#DejaVuSans-102"/>
      <use x="393.660156" xlink:href="#DejaVuSans-95"/>
      <use x="443.660156" xlink:href="#DejaVuSans-101"/>
      <use x="505.183594" xlink:href="#DejaVuSans-118"/>
      <use x="564.363281" xlink:href="#DejaVuSans-97"/>
      <use x="625.642578" xlink:href="#DejaVuSans-108"/>
      <use x="653.425781" xlink:href="#DejaVuSans-58"/>
      <use x="687.117188" xlink:href="#DejaVuSans-32"/>
      <use x="718.904297" xlink:href="#DejaVuSans-53"/>
      <use x="782.527344" xlink:href="#DejaVuSans-48"/>
     </g>
    </g>
    <g id="line2d_44">
     <path d="M 267.182813 107.483438 
L 287.182813 107.483438 
" style="fill:none;stroke:#9467bd;stroke-linecap:square;stroke-width:1.5;"/>
    </g>
    <g id="line2d_45"/>
    <g id="text_15">
     <!-- BO4; #f_eval: 50 -->
     <g transform="translate(295.182813 110.983438)scale(0.1 -0.1)">
      <use xlink:href="#DejaVuSans-66"/>
      <use x="66.853516" xlink:href="#DejaVuSans-79"/>
      <use x="145.564453" xlink:href="#DejaVuSans-52"/>
      <use x="209.1875" xlink:href="#DejaVuSans-59"/>
      <use x="242.878906" xlink:href="#DejaVuSans-32"/>
      <use x="274.666016" xlink:href="#DejaVuSans-35"/>
      <use x="358.455078" xlink:href="#DejaVuSans-102"/>
      <use x="393.660156" xlink:href="#DejaVuSans-95"/>
      <use x="443.660156" xlink:href="#DejaVuSans-101"/>
      <use x="505.183594" xlink:href="#DejaVuSans-118"/>
      <use x="564.363281" xlink:href="#DejaVuSans-97"/>
      <use x="625.642578" xlink:href="#DejaVuSans-108"/>
      <use x="653.425781" xlink:href="#DejaVuSans-58"/>
      <use x="687.117188" xlink:href="#DejaVuSans-32"/>
      <use x="718.904297" xlink:href="#DejaVuSans-53"/>
      <use x="782.527344" xlink:href="#DejaVuSans-48"/>
     </g>
    </g>
    <g id="line2d_46">
     <path d="M 267.182813 122.439687 
L 287.182813 122.439687 
" style="fill:none;stroke:#8c564b;stroke-linecap:square;stroke-width:1.5;"/>
    </g>
    <g id="line2d_47"/>
    <g id="text_16">
     <!-- BO5; #f_eval: 50 -->
     <g transform="translate(295.182813 125.939687)scale(0.1 -0.1)">
      <use xlink:href="#DejaVuSans-66"/>
      <use x="66.853516" xlink:href="#DejaVuSans-79"/>
      <use x="145.564453" xlink:href="#DejaVuSans-53"/>
      <use x="209.1875" xlink:href="#DejaVuSans-59"/>
      <use x="242.878906" xlink:href="#DejaVuSans-32"/>
      <use x="274.666016" xlink:href="#DejaVuSans-35"/>
      <use x="358.455078" xlink:href="#DejaVuSans-102"/>
      <use x="393.660156" xlink:href="#DejaVuSans-95"/>
      <use x="443.660156" xlink:href="#DejaVuSans-101"/>
      <use x="505.183594" xlink:href="#DejaVuSans-118"/>
      <use x="564.363281" xlink:href="#DejaVuSans-97"/>
      <use x="625.642578" xlink:href="#DejaVuSans-108"/>
      <use x="653.425781" xlink:href="#DejaVuSans-58"/>
      <use x="687.117188" xlink:href="#DejaVuSans-32"/>
      <use x="718.904297" xlink:href="#DejaVuSans-53"/>
      <use x="782.527344" xlink:href="#DejaVuSans-48"/>
     </g>
    </g>
    <g id="line2d_48">
     <path d="M 267.182813 137.395938 
L 287.182813 137.395938 
" style="fill:none;stroke:#e377c2;stroke-linecap:square;stroke-width:1.5;"/>
    </g>
    <g id="line2d_49"/>
    <g id="text_17">
     <!-- BO6; #f_eval: 50 -->
     <g transform="translate(295.182813 140.895938)scale(0.1 -0.1)">
      <defs>
       <path d="M 33.015625 40.375 
Q 26.375 40.375 22.484375 35.828125 
Q 18.609375 31.296875 18.609375 23.390625 
Q 18.609375 15.53125 22.484375 10.953125 
Q 26.375 6.390625 33.015625 6.390625 
Q 39.65625 6.390625 43.53125 10.953125 
Q 47.40625 15.53125 47.40625 23.390625 
Q 47.40625 31.296875 43.53125 35.828125 
Q 39.65625 40.375 33.015625 40.375 
z
M 52.59375 71.296875 
L 52.59375 62.3125 
Q 48.875 64.0625 45.09375 64.984375 
Q 41.3125 65.921875 37.59375 65.921875 
Q 27.828125 65.921875 22.671875 59.328125 
Q 17.53125 52.734375 16.796875 39.40625 
Q 19.671875 43.65625 24.015625 45.921875 
Q 28.375 48.1875 33.59375 48.1875 
Q 44.578125 48.1875 50.953125 41.515625 
Q 57.328125 34.859375 57.328125 23.390625 
Q 57.328125 12.15625 50.6875 5.359375 
Q 44.046875 -1.421875 33.015625 -1.421875 
Q 20.359375 -1.421875 13.671875 8.265625 
Q 6.984375 17.96875 6.984375 36.375 
Q 6.984375 53.65625 15.1875 63.9375 
Q 23.390625 74.21875 37.203125 74.21875 
Q 40.921875 74.21875 44.703125 73.484375 
Q 48.484375 72.75 52.59375 71.296875 
z
" id="DejaVuSans-54"/>
      </defs>
      <use xlink:href="#DejaVuSans-66"/>
      <use x="66.853516" xlink:href="#DejaVuSans-79"/>
      <use x="145.564453" xlink:href="#DejaVuSans-54"/>
      <use x="209.1875" xlink:href="#DejaVuSans-59"/>
      <use x="242.878906" xlink:href="#DejaVuSans-32"/>
      <use x="274.666016" xlink:href="#DejaVuSans-35"/>
      <use x="358.455078" xlink:href="#DejaVuSans-102"/>
      <use x="393.660156" xlink:href="#DejaVuSans-95"/>
      <use x="443.660156" xlink:href="#DejaVuSans-101"/>
      <use x="505.183594" xlink:href="#DejaVuSans-118"/>
      <use x="564.363281" xlink:href="#DejaVuSans-97"/>
      <use x="625.642578" xlink:href="#DejaVuSans-108"/>
      <use x="653.425781" xlink:href="#DejaVuSans-58"/>
      <use x="687.117188" xlink:href="#DejaVuSans-32"/>
      <use x="718.904297" xlink:href="#DejaVuSans-53"/>
      <use x="782.527344" xlink:href="#DejaVuSans-48"/>
     </g>
    </g>
    <g id="line2d_50">
     <path d="M 267.182813 152.352188 
L 287.182813 152.352188 
" style="fill:none;stroke:#7f7f7f;stroke-linecap:square;stroke-width:1.5;"/>
    </g>
    <g id="line2d_51"/>
    <g id="text_18">
     <!-- BO7; #f_eval: 50 -->
     <g transform="translate(295.182813 155.852188)scale(0.1 -0.1)">
      <defs>
       <path d="M 8.203125 72.90625 
L 55.078125 72.90625 
L 55.078125 68.703125 
L 28.609375 0 
L 18.3125 0 
L 43.21875 64.59375 
L 8.203125 64.59375 
z
" id="DejaVuSans-55"/>
      </defs>
      <use xlink:href="#DejaVuSans-66"/>
      <use x="66.853516" xlink:href="#DejaVuSans-79"/>
      <use x="145.564453" xlink:href="#DejaVuSans-55"/>
      <use x="209.1875" xlink:href="#DejaVuSans-59"/>
      <use x="242.878906" xlink:href="#DejaVuSans-32"/>
      <use x="274.666016" xlink:href="#DejaVuSans-35"/>
      <use x="358.455078" xlink:href="#DejaVuSans-102"/>
      <use x="393.660156" xlink:href="#DejaVuSans-95"/>
      <use x="443.660156" xlink:href="#DejaVuSans-101"/>
      <use x="505.183594" xlink:href="#DejaVuSans-118"/>
      <use x="564.363281" xlink:href="#DejaVuSans-97"/>
      <use x="625.642578" xlink:href="#DejaVuSans-108"/>
      <use x="653.425781" xlink:href="#DejaVuSans-58"/>
      <use x="687.117188" xlink:href="#DejaVuSans-32"/>
      <use x="718.904297" xlink:href="#DejaVuSans-53"/>
      <use x="782.527344" xlink:href="#DejaVuSans-48"/>
     </g>
    </g>
    <g id="line2d_52">
     <path d="M 267.182813 167.308437 
L 287.182813 167.308437 
" style="fill:none;stroke:#bcbd22;stroke-linecap:square;stroke-width:1.5;"/>
    </g>
    <g id="line2d_53"/>
    <g id="text_19">
     <!-- BO8; #f_eval: 50 -->
     <g transform="translate(295.182813 170.808437)scale(0.1 -0.1)">
      <defs>
       <path d="M 31.78125 34.625 
Q 24.75 34.625 20.71875 30.859375 
Q 16.703125 27.09375 16.703125 20.515625 
Q 16.703125 13.921875 20.71875 10.15625 
Q 24.75 6.390625 31.78125 6.390625 
Q 38.8125 6.390625 42.859375 10.171875 
Q 46.921875 13.96875 46.921875 20.515625 
Q 46.921875 27.09375 42.890625 30.859375 
Q 38.875 34.625 31.78125 34.625 
z
M 21.921875 38.8125 
Q 15.578125 40.375 12.03125 44.71875 
Q 8.5 49.078125 8.5 55.328125 
Q 8.5 64.0625 14.71875 69.140625 
Q 20.953125 74.21875 31.78125 74.21875 
Q 42.671875 74.21875 48.875 69.140625 
Q 55.078125 64.0625 55.078125 55.328125 
Q 55.078125 49.078125 51.53125 44.71875 
Q 48 40.375 41.703125 38.8125 
Q 48.828125 37.15625 52.796875 32.3125 
Q 56.78125 27.484375 56.78125 20.515625 
Q 56.78125 9.90625 50.3125 4.234375 
Q 43.84375 -1.421875 31.78125 -1.421875 
Q 19.734375 -1.421875 13.25 4.234375 
Q 6.78125 9.90625 6.78125 20.515625 
Q 6.78125 27.484375 10.78125 32.3125 
Q 14.796875 37.15625 21.921875 38.8125 
z
M 18.3125 54.390625 
Q 18.3125 48.734375 21.84375 45.5625 
Q 25.390625 42.390625 31.78125 42.390625 
Q 38.140625 42.390625 41.71875 45.5625 
Q 45.3125 48.734375 45.3125 54.390625 
Q 45.3125 60.0625 41.71875 63.234375 
Q 38.140625 66.40625 31.78125 66.40625 
Q 25.390625 66.40625 21.84375 63.234375 
Q 18.3125 60.0625 18.3125 54.390625 
z
" id="DejaVuSans-56"/>
      </defs>
      <use xlink:href="#DejaVuSans-66"/>
      <use x="66.853516" xlink:href="#DejaVuSans-79"/>
      <use x="145.564453" xlink:href="#DejaVuSans-56"/>
      <use x="209.1875" xlink:href="#DejaVuSans-59"/>
      <use x="242.878906" xlink:href="#DejaVuSans-32"/>
      <use x="274.666016" xlink:href="#DejaVuSans-35"/>
      <use x="358.455078" xlink:href="#DejaVuSans-102"/>
      <use x="393.660156" xlink:href="#DejaVuSans-95"/>
      <use x="443.660156" xlink:href="#DejaVuSans-101"/>
      <use x="505.183594" xlink:href="#DejaVuSans-118"/>
      <use x="564.363281" xlink:href="#DejaVuSans-97"/>
      <use x="625.642578" xlink:href="#DejaVuSans-108"/>
      <use x="653.425781" xlink:href="#DejaVuSans-58"/>
      <use x="687.117188" xlink:href="#DejaVuSans-32"/>
      <use x="718.904297" xlink:href="#DejaVuSans-53"/>
      <use x="782.527344" xlink:href="#DejaVuSans-48"/>
     </g>
    </g>
    <g id="line2d_54">
     <path d="M 267.182813 182.264687 
L 287.182813 182.264687 
" style="fill:none;stroke:#17becf;stroke-linecap:square;stroke-width:1.5;"/>
    </g>
    <g id="line2d_55"/>
    <g id="text_20">
     <!-- BO9; #f_eval: 50 -->
     <g transform="translate(295.182813 185.764687)scale(0.1 -0.1)">
      <defs>
       <path d="M 10.984375 1.515625 
L 10.984375 10.5 
Q 14.703125 8.734375 18.5 7.8125 
Q 22.3125 6.890625 25.984375 6.890625 
Q 35.75 6.890625 40.890625 13.453125 
Q 46.046875 20.015625 46.78125 33.40625 
Q 43.953125 29.203125 39.59375 26.953125 
Q 35.25 24.703125 29.984375 24.703125 
Q 19.046875 24.703125 12.671875 31.3125 
Q 6.296875 37.9375 6.296875 49.421875 
Q 6.296875 60.640625 12.9375 67.421875 
Q 19.578125 74.21875 30.609375 74.21875 
Q 43.265625 74.21875 49.921875 64.515625 
Q 56.59375 54.828125 56.59375 36.375 
Q 56.59375 19.140625 48.40625 8.859375 
Q 40.234375 -1.421875 26.421875 -1.421875 
Q 22.703125 -1.421875 18.890625 -0.6875 
Q 15.09375 0.046875 10.984375 1.515625 
z
M 30.609375 32.421875 
Q 37.25 32.421875 41.125 36.953125 
Q 45.015625 41.5 45.015625 49.421875 
Q 45.015625 57.28125 41.125 61.84375 
Q 37.25 66.40625 30.609375 66.40625 
Q 23.96875 66.40625 20.09375 61.84375 
Q 16.21875 57.28125 16.21875 49.421875 
Q 16.21875 41.5 20.09375 36.953125 
Q 23.96875 32.421875 30.609375 32.421875 
z
" id="DejaVuSans-57"/>
      </defs>
      <use xlink:href="#DejaVuSans-66"/>
      <use x="66.853516" xlink:href="#DejaVuSans-79"/>
      <use x="145.564453" xlink:href="#DejaVuSans-57"/>
      <use x="209.1875" xlink:href="#DejaVuSans-59"/>
      <use x="242.878906" xlink:href="#DejaVuSans-32"/>
      <use x="274.666016" xlink:href="#DejaVuSans-35"/>
      <use x="358.455078" xlink:href="#DejaVuSans-102"/>
      <use x="393.660156" xlink:href="#DejaVuSans-95"/>
      <use x="443.660156" xlink:href="#DejaVuSans-101"/>
      <use x="505.183594" xlink:href="#DejaVuSans-118"/>
      <use x="564.363281" xlink:href="#DejaVuSans-97"/>
      <use x="625.642578" xlink:href="#DejaVuSans-108"/>
      <use x="653.425781" xlink:href="#DejaVuSans-58"/>
      <use x="687.117188" xlink:href="#DejaVuSans-32"/>
      <use x="718.904297" xlink:href="#DejaVuSans-53"/>
      <use x="782.527344" xlink:href="#DejaVuSans-48"/>
     </g>
    </g>
   </g>
  </g>
 </g>
 <defs>
  <clipPath id="p0c133a1576">
   <rect height="217.44" width="334.8" x="54" y="34.56"/>
  </clipPath>
 </defs>
</svg>
