<?xml version="1.0" encoding="utf-8" standalone="no"?>
<!DOCTYPE svg PUBLIC "-//W3C//DTD SVG 1.1//EN"
  "http://www.w3.org/Graphics/SVG/1.1/DTD/svg11.dtd">
<!-- Created with matplotlib (https://matplotlib.org/) -->
<svg height="288pt" version="1.1" viewBox="0 0 432 288" width="432pt" xmlns="http://www.w3.org/2000/svg" xmlns:xlink="http://www.w3.org/1999/xlink">
 <metadata>
  <rdf:RDF xmlns:cc="http://creativecommons.org/ns#" xmlns:dc="http://purl.org/dc/elements/1.1/" xmlns:rdf="http://www.w3.org/1999/02/22-rdf-syntax-ns#">
   <cc:Work>
    <dc:type rdf:resource="http://purl.org/dc/dcmitype/StillImage"/>
    <dc:date>2021-03-30T16:57:47.888246</dc:date>
    <dc:format>image/svg+xml</dc:format>
    <dc:creator>
     <cc:Agent>
      <dc:title>Matplotlib v3.3.4, https://matplotlib.org/</dc:title>
     </cc:Agent>
    </dc:creator>
   </cc:Work>
  </rdf:RDF>
 </metadata>
 <defs>
  <style type="text/css">*{stroke-linecap:butt;stroke-linejoin:round;}</style>
 </defs>
 <g id="figure_1">
  <g id="patch_1">
   <path d="M 0 288 
L 432 288 
L 432 0 
L 0 0 
z
" style="fill:#ffffff;"/>
  </g>
  <g id="axes_1">
   <g id="patch_2">
    <path d="M 54 252 
L 388.8 252 
L 388.8 34.56 
L 54 34.56 
z
" style="fill:#ffffff;"/>
   </g>
   <g id="matplotlib.axis_1">
    <g id="xtick_1">
     <g id="line2d_1">
      <defs>
       <path d="M 0 0 
L 0 3.5 
" id="m0c0b61420d" style="stroke:#000000;stroke-width:0.8;"/>
      </defs>
      <g>
       <use style="stroke:#000000;stroke-width:0.8;" x="54" xlink:href="#m0c0b61420d" y="252"/>
      </g>
     </g>
     <g id="text_1">
      <!-- −1.5 -->
      <g transform="translate(41.858594 266.598437)scale(0.1 -0.1)">
       <defs>
        <path d="M 10.59375 35.5 
L 73.1875 35.5 
L 73.1875 27.203125 
L 10.59375 27.203125 
z
" id="DejaVuSans-8722"/>
        <path d="M 12.40625 8.296875 
L 28.515625 8.296875 
L 28.515625 63.921875 
L 10.984375 60.40625 
L 10.984375 69.390625 
L 28.421875 72.90625 
L 38.28125 72.90625 
L 38.28125 8.296875 
L 54.390625 8.296875 
L 54.390625 0 
L 12.40625 0 
z
" id="DejaVuSans-49"/>
        <path d="M 10.6875 12.40625 
L 21 12.40625 
L 21 0 
L 10.6875 0 
z
" id="DejaVuSans-46"/>
        <path d="M 10.796875 72.90625 
L 49.515625 72.90625 
L 49.515625 64.59375 
L 19.828125 64.59375 
L 19.828125 46.734375 
Q 21.96875 47.46875 24.109375 47.828125 
Q 26.265625 48.1875 28.421875 48.1875 
Q 40.625 48.1875 47.75 41.5 
Q 54.890625 34.8125 54.890625 23.390625 
Q 54.890625 11.625 47.5625 5.09375 
Q 40.234375 -1.421875 26.90625 -1.421875 
Q 22.3125 -1.421875 17.546875 -0.640625 
Q 12.796875 0.140625 7.71875 1.703125 
L 7.71875 11.625 
Q 12.109375 9.234375 16.796875 8.0625 
Q 21.484375 6.890625 26.703125 6.890625 
Q 35.15625 6.890625 40.078125 11.328125 
Q 45.015625 15.765625 45.015625 23.390625 
Q 45.015625 31 40.078125 35.4375 
Q 35.15625 39.890625 26.703125 39.890625 
Q 22.75 39.890625 18.8125 39.015625 
Q 14.890625 38.140625 10.796875 36.28125 
z
" id="DejaVuSans-53"/>
       </defs>
       <use xlink:href="#DejaVuSans-8722"/>
       <use x="83.789062" xlink:href="#DejaVuSans-49"/>
       <use x="147.412109" xlink:href="#DejaVuSans-46"/>
       <use x="179.199219" xlink:href="#DejaVuSans-53"/>
      </g>
     </g>
    </g>
    <g id="xtick_2">
     <g id="line2d_2">
      <g>
       <use style="stroke:#000000;stroke-width:0.8;" x="120.96" xlink:href="#m0c0b61420d" y="252"/>
      </g>
     </g>
     <g id="text_2">
      <!-- −1.0 -->
      <g transform="translate(108.818594 266.598437)scale(0.1 -0.1)">
       <defs>
        <path d="M 31.78125 66.40625 
Q 24.171875 66.40625 20.328125 58.90625 
Q 16.5 51.421875 16.5 36.375 
Q 16.5 21.390625 20.328125 13.890625 
Q 24.171875 6.390625 31.78125 6.390625 
Q 39.453125 6.390625 43.28125 13.890625 
Q 47.125 21.390625 47.125 36.375 
Q 47.125 51.421875 43.28125 58.90625 
Q 39.453125 66.40625 31.78125 66.40625 
z
M 31.78125 74.21875 
Q 44.046875 74.21875 50.515625 64.515625 
Q 56.984375 54.828125 56.984375 36.375 
Q 56.984375 17.96875 50.515625 8.265625 
Q 44.046875 -1.421875 31.78125 -1.421875 
Q 19.53125 -1.421875 13.0625 8.265625 
Q 6.59375 17.96875 6.59375 36.375 
Q 6.59375 54.828125 13.0625 64.515625 
Q 19.53125 74.21875 31.78125 74.21875 
z
" id="DejaVuSans-48"/>
       </defs>
       <use xlink:href="#DejaVuSans-8722"/>
       <use x="83.789062" xlink:href="#DejaVuSans-49"/>
       <use x="147.412109" xlink:href="#DejaVuSans-46"/>
       <use x="179.199219" xlink:href="#DejaVuSans-48"/>
      </g>
     </g>
    </g>
    <g id="xtick_3">
     <g id="line2d_3">
      <g>
       <use style="stroke:#000000;stroke-width:0.8;" x="187.92" xlink:href="#m0c0b61420d" y="252"/>
      </g>
     </g>
     <g id="text_3">
      <!-- −0.5 -->
      <g transform="translate(175.778594 266.598437)scale(0.1 -0.1)">
       <use xlink:href="#DejaVuSans-8722"/>
       <use x="83.789062" xlink:href="#DejaVuSans-48"/>
       <use x="147.412109" xlink:href="#DejaVuSans-46"/>
       <use x="179.199219" xlink:href="#DejaVuSans-53"/>
      </g>
     </g>
    </g>
    <g id="xtick_4">
     <g id="line2d_4">
      <g>
       <use style="stroke:#000000;stroke-width:0.8;" x="254.88" xlink:href="#m0c0b61420d" y="252"/>
      </g>
     </g>
     <g id="text_4">
      <!-- 0.0 -->
      <g transform="translate(246.928438 266.598437)scale(0.1 -0.1)">
       <use xlink:href="#DejaVuSans-48"/>
       <use x="63.623047" xlink:href="#DejaVuSans-46"/>
       <use x="95.410156" xlink:href="#DejaVuSans-48"/>
      </g>
     </g>
    </g>
    <g id="xtick_5">
     <g id="line2d_5">
      <g>
       <use style="stroke:#000000;stroke-width:0.8;" x="321.84" xlink:href="#m0c0b61420d" y="252"/>
      </g>
     </g>
     <g id="text_5">
      <!-- 0.5 -->
      <g transform="translate(313.888438 266.598437)scale(0.1 -0.1)">
       <use xlink:href="#DejaVuSans-48"/>
       <use x="63.623047" xlink:href="#DejaVuSans-46"/>
       <use x="95.410156" xlink:href="#DejaVuSans-53"/>
      </g>
     </g>
    </g>
    <g id="xtick_6">
     <g id="line2d_6">
      <g>
       <use style="stroke:#000000;stroke-width:0.8;" x="388.8" xlink:href="#m0c0b61420d" y="252"/>
      </g>
     </g>
     <g id="text_6">
      <!-- 1.0 -->
      <g transform="translate(380.848438 266.598437)scale(0.1 -0.1)">
       <use xlink:href="#DejaVuSans-49"/>
       <use x="63.623047" xlink:href="#DejaVuSans-46"/>
       <use x="95.410156" xlink:href="#DejaVuSans-48"/>
      </g>
     </g>
    </g>
    <g id="text_7">
     <!-- $x_1$ -->
     <g transform="translate(216.05 280.276563)scale(0.1 -0.1)">
      <defs>
       <path d="M 60.015625 54.6875 
L 34.90625 27.875 
L 50.296875 0 
L 39.984375 0 
L 28.421875 21.6875 
L 8.296875 0 
L -2.59375 0 
L 24.3125 28.8125 
L 10.015625 54.6875 
L 20.3125 54.6875 
L 30.8125 34.90625 
L 49.125 54.6875 
z
" id="DejaVuSans-Oblique-120"/>
      </defs>
      <use transform="translate(0 0.3125)" xlink:href="#DejaVuSans-Oblique-120"/>
      <use transform="translate(59.179688 -16.09375)scale(0.7)" xlink:href="#DejaVuSans-49"/>
     </g>
    </g>
   </g>
   <g id="matplotlib.axis_2">
    <g id="ytick_1">
     <g id="line2d_7">
      <defs>
       <path d="M 0 0 
L -3.5 0 
" id="m7a86d69de5" style="stroke:#000000;stroke-width:0.8;"/>
      </defs>
      <g>
       <use style="stroke:#000000;stroke-width:0.8;" x="54" xlink:href="#m7a86d69de5" y="252"/>
      </g>
     </g>
     <g id="text_8">
      <!-- −1.0 -->
      <g transform="translate(22.717187 255.799219)scale(0.1 -0.1)">
       <use xlink:href="#DejaVuSans-8722"/>
       <use x="83.789062" xlink:href="#DejaVuSans-49"/>
       <use x="147.412109" xlink:href="#DejaVuSans-46"/>
       <use x="179.199219" xlink:href="#DejaVuSans-48"/>
      </g>
     </g>
    </g>
    <g id="ytick_2">
     <g id="line2d_8">
      <g>
       <use style="stroke:#000000;stroke-width:0.8;" x="54" xlink:href="#m7a86d69de5" y="208.512"/>
      </g>
     </g>
     <g id="text_9">
      <!-- −0.5 -->
      <g transform="translate(22.717187 212.311219)scale(0.1 -0.1)">
       <use xlink:href="#DejaVuSans-8722"/>
       <use x="83.789062" xlink:href="#DejaVuSans-48"/>
       <use x="147.412109" xlink:href="#DejaVuSans-46"/>
       <use x="179.199219" xlink:href="#DejaVuSans-53"/>
      </g>
     </g>
    </g>
    <g id="ytick_3">
     <g id="line2d_9">
      <g>
       <use style="stroke:#000000;stroke-width:0.8;" x="54" xlink:href="#m7a86d69de5" y="165.024"/>
      </g>
     </g>
     <g id="text_10">
      <!-- 0.0 -->
      <g transform="translate(31.096875 168.823219)scale(0.1 -0.1)">
       <use xlink:href="#DejaVuSans-48"/>
       <use x="63.623047" xlink:href="#DejaVuSans-46"/>
       <use x="95.410156" xlink:href="#DejaVuSans-48"/>
      </g>
     </g>
    </g>
    <g id="ytick_4">
     <g id="line2d_10">
      <g>
       <use style="stroke:#000000;stroke-width:0.8;" x="54" xlink:href="#m7a86d69de5" y="121.536"/>
      </g>
     </g>
     <g id="text_11">
      <!-- 0.5 -->
      <g transform="translate(31.096875 125.335219)scale(0.1 -0.1)">
       <use xlink:href="#DejaVuSans-48"/>
       <use x="63.623047" xlink:href="#DejaVuSans-46"/>
       <use x="95.410156" xlink:href="#DejaVuSans-53"/>
      </g>
     </g>
    </g>
    <g id="ytick_5">
     <g id="line2d_11">
      <g>
       <use style="stroke:#000000;stroke-width:0.8;" x="54" xlink:href="#m7a86d69de5" y="78.048"/>
      </g>
     </g>
     <g id="text_12">
      <!-- 1.0 -->
      <g transform="translate(31.096875 81.847219)scale(0.1 -0.1)">
       <use xlink:href="#DejaVuSans-49"/>
       <use x="63.623047" xlink:href="#DejaVuSans-46"/>
       <use x="95.410156" xlink:href="#DejaVuSans-48"/>
      </g>
     </g>
    </g>
    <g id="ytick_6">
     <g id="line2d_12">
      <g>
       <use style="stroke:#000000;stroke-width:0.8;" x="54" xlink:href="#m7a86d69de5" y="34.56"/>
      </g>
     </g>
     <g id="text_13">
      <!-- 1.5 -->
      <g transform="translate(31.096875 38.359219)scale(0.1 -0.1)">
       <use xlink:href="#DejaVuSans-49"/>
       <use x="63.623047" xlink:href="#DejaVuSans-46"/>
       <use x="95.410156" xlink:href="#DejaVuSans-53"/>
      </g>
     </g>
    </g>
    <g id="text_14">
     <!-- $x_2$ -->
     <g transform="translate(16.6375 148.63)rotate(-90)scale(0.1 -0.1)">
      <defs>
       <path d="M 19.1875 8.296875 
L 53.609375 8.296875 
L 53.609375 0 
L 7.328125 0 
L 7.328125 8.296875 
Q 12.9375 14.109375 22.625 23.890625 
Q 32.328125 33.6875 34.8125 36.53125 
Q 39.546875 41.84375 41.421875 45.53125 
Q 43.3125 49.21875 43.3125 52.78125 
Q 43.3125 58.59375 39.234375 62.25 
Q 35.15625 65.921875 28.609375 65.921875 
Q 23.96875 65.921875 18.8125 64.3125 
Q 13.671875 62.703125 7.8125 59.421875 
L 7.8125 69.390625 
Q 13.765625 71.78125 18.9375 73 
Q 24.125 74.21875 28.421875 74.21875 
Q 39.75 74.21875 46.484375 68.546875 
Q 53.21875 62.890625 53.21875 53.421875 
Q 53.21875 48.921875 51.53125 44.890625 
Q 49.859375 40.875 45.40625 35.40625 
Q 44.1875 33.984375 37.640625 27.21875 
Q 31.109375 20.453125 19.1875 8.296875 
z
" id="DejaVuSans-50"/>
      </defs>
      <use transform="translate(0 0.3125)" xlink:href="#DejaVuSans-Oblique-120"/>
      <use transform="translate(59.179688 -16.09375)scale(0.7)" xlink:href="#DejaVuSans-50"/>
     </g>
    </g>
   </g>
   <g id="LineCollection_1">
    <path clip-path="url(#pb72534ef8c)" d="M 210.460801 289 
L 210.464322 284.777351 
L 213.152257 283.031638 
L 213.156181 274.287251 
L 215.843297 272.54207 
L 215.84804 265.545356 
L 218.534249 263.800764 
L 218.539899 256.80328 
L 221.224925 255.059457 
L 221.231759 249.809417 
L 223.915525 248.066412 
L 223.923618 241.066778 
L 226.605333 239.325106 
L 226.615477 234.072245 
L 229.2949 232.33206 
L 229.307337 225.328343 
L 231.982764 223.590754 
L 231.999196 218.332176 
L 234.669816 216.597709 
L 234.691055 211.334483 
L 237.354519 209.604663 
L 237.382915 204.334117 
L 240.035106 202.611618 
L 240.074774 197.328658 
L 242.707852 195.618573 
L 242.766633 192.067676 
L 245.37477 190.373789 
L 245.335433 185.129005 
L 245.458492 185.033874 
L 248.003875 183.380744 
L 247.949414 179.884221 
L 248.150352 179.72409 
L 250.595651 178.13596 
L 250.484801 174.639437 
L 250.842211 174.347835 
L 253.08508 172.891176 
L 252.890628 169.394653 
L 253.53407 168.897361 
L 255.460232 167.646392 
L 255.399563 164.149869 
L 258.122459 162.401608 
L 258.340096 158.905085 
L 258.917789 158.587795 
L 261.121105 157.156824 
L 261.285238 153.660302 
L 261.609648 153.481917 
L 264.026842 151.91204 
L 264.110329 148.415518 
L 264.301508 148.307375 
L 266.826856 146.667256 
L 266.851047 144.918995 
L 266.993367 144.836919 
L 269.558851 143.170734 
L 269.685226 139.617516 
L 272.28979 137.92595 
L 272.377085 136.131454 
L 274.997755 134.429427 
L 275.068945 132.642652 
L 277.701503 130.932905 
L 277.760804 129.15198 
L 280.402371 127.436382 
L 280.452663 125.659993 
L 283.101214 123.939859 
L 283.144523 122.167056 
L 285.798594 120.443337 
L 285.836382 118.673416 
L 288.494891 116.946814 
L 288.528241 115.179245 
L 291.190371 113.450291 
L 291.220101 111.684666 
L 296.577867 108.205508 
L 296.603819 106.441908 
L 307.349017 99.464201 
L 307.371256 97.702577 
L 315.446834 92.458152 
L 318.138693 92.457373 
L 326.214271 87.212556 
L 328.906131 87.211547 
L 331.59799 85.463155 
L 334.289849 85.461928 
L 336.981709 83.713427 
L 339.673568 83.711907 
L 342.365427 81.96326 
L 347.749146 81.959018 
L 350.441005 80.209982 
L 361.208442 80.191868 
L 363.836465 78.485065 
L 241.511975 -1 
L 241.511975 -1 
" style="fill:none;stroke:#440154;stroke-width:1.5;"/>
   </g>
   <g id="LineCollection_2">
    <path clip-path="url(#pb72534ef8c)" d="M 210.453188 289 
L 210.464322 284.77184 
L 213.143771 283.031638 
L 213.156181 274.280591 
L 215.833042 272.54207 
L 215.84804 265.537421 
L 218.522032 263.800764 
L 218.539899 256.793683 
L 221.210148 255.059457 
L 221.231759 249.798052 
L 223.898025 248.066412 
L 223.923618 241.052531 
L 226.583396 239.325106 
L 226.615477 234.05478 
L 229.268009 232.33206 
L 229.307337 225.305268 
L 231.947234 223.590754 
L 231.999196 218.302349 
L 234.623891 216.597709 
L 234.691055 211.294606 
L 237.293119 209.604663 
L 237.382915 204.27841 
L 239.949333 202.611618 
L 239.910686 197.366834 
L 240.074774 197.246111 
L 242.580751 195.618573 
L 242.536887 192.12205 
L 242.766633 191.950103 
L 245.193739 190.373789 
L 245.069345 185.129005 
L 245.458492 184.828175 
L 247.687153 183.380744 
L 247.514932 179.884221 
L 248.150352 179.377841 
L 250.062521 178.13596 
L 249.71198 174.639437 
L 250.842211 173.71731 
L 252.114238 172.891176 
L 251.499328 169.394653 
L 253.80458 167.646392 
L 253.613758 165.898131 
L 253.612728 164.149869 
L 256.402736 162.401608 
L 257.090963 158.905085 
L 260.064739 157.156824 
L 260.583773 153.660302 
L 261.609648 153.0962 
L 263.43294 151.91204 
L 263.696948 148.415518 
L 264.301508 148.07354 
L 266.466812 146.667256 
L 266.543312 144.918995 
L 266.993367 144.659448 
L 269.285592 143.170734 
L 269.381123 139.674211 
L 269.685226 139.494926 
L 272.101034 137.92595 
L 272.132261 136.177688 
L 274.843824 134.429427 
L 274.867206 132.681166 
L 277.573277 130.932905 
L 277.591284 129.184643 
L 280.293626 127.436382 
L 280.307833 125.688121 
L 283.007569 123.939859 
L 283.019016 122.191598 
L 285.716885 120.443337 
L 285.836382 118.626581 
L 288.422778 116.946814 
L 288.528241 115.137495 
L 291.126088 113.450291 
L 291.220101 111.64712 
L 296.521752 108.205508 
L 296.603819 106.408742 
L 307.300931 99.464201 
L 307.371256 97.673684 
L 315.446834 92.430035 
L 318.138693 92.427572 
L 326.214271 87.182681 
L 328.906131 87.17949 
L 331.59799 85.430818 
L 334.289849 85.426935 
L 336.981709 83.677918 
L 339.673568 83.67311 
L 342.365427 81.923628 
L 347.749146 81.910217 
L 350.441005 80.159504 
L 361.208442 80.102221 
L 363.698434 78.485065 
L 241.506825 -1 
L 241.506825 -1 
" style="fill:none;stroke:#440154;stroke-width:1.5;"/>
   </g>
   <g id="LineCollection_3">
    <path clip-path="url(#pb72534ef8c)" d="M 210.429115 289 
L 210.464322 284.754413 
L 213.116938 283.031638 
L 213.156181 274.259528 
L 215.800611 272.54207 
L 215.84804 265.51233 
L 218.483399 263.800764 
L 218.539899 256.763335 
L 221.16342 255.059457 
L 221.231759 249.76211 
L 223.842685 248.066412 
L 223.923618 241.00748 
L 226.514029 239.325106 
L 226.499386 234.080322 
L 229.182971 232.33206 
L 229.155147 225.339015 
L 231.834877 223.590754 
L 231.803989 218.34597 
L 231.999196 218.208029 
L 234.478663 216.597709 
L 234.432625 211.352925 
L 234.691055 211.168505 
L 237.098957 209.604663 
L 237.026532 204.359879 
L 237.382915 204.102252 
L 239.678096 202.611618 
L 239.555883 197.366834 
L 240.074774 196.985073 
L 242.178822 195.618573 
L 242.040111 192.12205 
L 242.766633 191.578306 
L 244.62127 190.373789 
L 244.2279 185.129005 
L 245.458492 184.177696 
L 246.685588 183.380744 
L 246.140977 179.884221 
L 248.376613 178.13596 
L 248.150352 177.254855 
L 241.988692 176.387698 
L 237.382915 175.445359 
L 231.999196 174.098044 
L 226.615477 172.449896 
L 221.231759 170.490777 
L 218.452715 169.394653 
L 213.156181 166.991768 
L 207.772462 164.299665 
L 204.353209 162.401608 
L 198.555869 158.905085 
L 193.280359 155.408563 
L 188.400479 151.91204 
L 183.545729 148.165775 
L 175.470151 141.303076 
L 166.597094 132.681166 
L 164.702714 130.800527 
L 163.314519 129.184643 
L 161.649576 127.436382 
L 155.848557 120.443337 
L 153.935276 118.020525 
L 151.086078 113.450291 
L 151.243417 112.171934 
L 153.935276 113.137286 
L 154.338188 113.450291 
L 157.086819 115.198553 
L 162.254664 118.695075 
L 175.470151 127.585321 
L 180.887269 130.932905 
L 186.883764 134.429427 
L 191.621307 136.98801 
L 197.129374 139.674211 
L 202.388744 142.073437 
L 210.464322 145.228107 
L 215.84804 147.026623 
L 221.231759 148.553206 
L 226.615477 149.844213 
L 234.691055 151.285438 
L 240.456917 151.91204 
L 245.458492 152.262072 
L 250.842211 152.360863 
L 256.22593 152.182206 
L 261.609648 151.738714 
L 262.389721 148.415518 
L 265.328254 146.667256 
L 265.570168 144.918995 
L 268.421472 143.170734 
L 268.723567 139.674211 
L 271.504136 137.92595 
L 271.602884 136.177688 
L 274.357051 134.429427 
L 274.430991 132.681166 
L 277.167792 130.932905 
L 277.224734 129.184643 
L 279.949742 127.436382 
L 279.99467 125.688121 
L 282.711437 123.939859 
L 282.747637 122.191598 
L 285.458499 120.443337 
L 285.488204 118.695075 
L 288.194738 116.946814 
L 288.219508 115.198553 
L 290.922808 113.450291 
L 290.943755 111.70203 
L 296.3443 108.205508 
L 296.361478 106.457246 
L 304.679397 101.06803 
L 307.148868 99.464201 
L 307.162578 97.71594 
L 315.446834 92.34112 
L 318.138693 92.333333 
L 326.214271 87.08821 
L 328.906131 87.07812 
L 331.59799 85.328557 
L 334.289849 85.31628 
L 336.981709 83.565629 
L 339.673568 83.550425 
L 342.365427 81.798304 
L 347.749146 81.755892 
L 350.441005 79.999878 
L 361.208442 79.818736 
L 363.261941 78.485065 
L 358.516583 75.306756 
L 358.127361 74.988543 
L 345.057286 66.373022 
L 344.888313 66.247236 
L 241.49054 -1 
L 241.49054 -1 
" style="fill:none;stroke:#440154;stroke-width:1.5;"/>
   </g>
   <g id="LineCollection_4">
    <path clip-path="url(#pb72534ef8c)" d="M 210.352987 289 
L 210.345744 284.779899 
L 213.032085 283.031638 
L 213.013335 274.290332 
L 215.698055 272.54207 
L 215.678402 265.549025 
L 218.361229 263.800764 
L 218.335473 256.807719 
L 221.015653 255.059457 
L 220.990452 249.814673 
L 223.667685 248.066412 
L 223.622706 241.073367 
L 226.294668 239.325106 
L 226.248363 234.080322 
L 228.914059 232.33206 
L 228.82607 225.339015 
L 231.479575 223.590754 
L 231.381899 218.34597 
L 234.019412 216.597709 
L 233.873828 211.352925 
L 236.484961 209.604663 
L 236.255934 204.359879 
L 238.820368 202.611618 
L 238.433896 197.366834 
L 240.90781 195.618573 
L 240.46917 192.12205 
L 242.810962 190.373789 
L 242.766633 190.122352 
L 237.382915 189.212123 
L 231.999196 188.021021 
L 226.615477 186.547846 
L 221.231759 184.783167 
L 215.84804 182.727376 
L 210.464322 180.3909 
L 205.080603 177.768064 
L 199.316305 174.639437 
L 193.506003 171.142915 
L 188.173795 167.646392 
L 183.213597 164.149869 
L 178.16201 160.331932 
L 172.113596 155.408563 
L 167.394573 151.337991 
L 159.318995 143.838162 
L 151.243417 135.692317 
L 142.141287 125.688121 
L 137.59757 120.443337 
L 127.016683 107.339493 
L 113.496433 88.974633 
L 109.921404 83.729849 
L 105.185951 76.736804 
L 100.644764 69.743759 
L 99.528497 67.995497 
L 89.330653 51.540609 
L 87.74177 48.764623 
L 86.633852 47.016362 
L 84.648186 43.519839 
L 83.608539 41.771578 
L 79.655913 34.778533 
L 78.563216 32.980318 
L 76.709827 29.533749 
L 75.68966 27.785487 
L 73.808464 24.288965 
L 72.832815 22.540704 
L 70.952203 19.044181 
L 70.015824 17.29592 
L 68.14122 13.799397 
L 67.237905 12.051136 
L 63.620043 5.05809 
L 61.794994 1.561568 
L 60.486317 -1 
L 60.486317 -1 
" style="fill:none;stroke:#440154;stroke-width:1.5;"/>
    <path clip-path="url(#pb72534ef8c)" d="M 80.645283 -1 
L 82.202781 1.561568 
L 91.1496 15.547658 
L 92.335641 17.29592 
L 95.804082 22.540704 
L 106.821091 38.275055 
L 110.865528 43.696423 
L 113.557387 47.273049 
L 116.249246 50.779683 
L 118.941106 54.216421 
L 121.632965 57.582645 
L 124.417349 61.002452 
L 128.778778 66.247236 
L 139.706001 78.485065 
L 148.551558 87.5557 
L 151.802463 90.722894 
L 157.444027 95.967678 
L 164.702714 102.264929 
L 170.086432 106.608225 
L 175.470151 110.698662 
L 180.853869 114.503799 
L 186.237588 118.034587 
L 191.621307 121.292023 
L 197.005025 124.267745 
L 203.384842 127.436382 
L 207.772462 129.404123 
L 213.156181 131.568467 
L 218.539899 133.451027 
L 223.923618 135.056342 
L 229.307337 136.379548 
L 234.691055 137.440807 
L 240.074774 138.216872 
L 245.458492 138.727387 
L 250.842211 138.955248 
L 256.22593 138.907847 
L 261.609648 138.583599 
L 267.291621 137.92595 
L 269.685226 137.57639 
L 269.928845 136.177688 
L 272.817738 134.429427 
L 273.051557 132.681166 
L 275.885536 130.932905 
L 276.065602 129.184643 
L 278.862288 127.436382 
L 279.004362 125.688121 
L 281.774987 123.939859 
L 281.889461 122.191598 
L 284.641411 120.443337 
L 284.735347 118.695075 
L 287.473613 116.946814 
L 287.55194 115.198553 
L 290.27998 113.450291 
L 290.34622 111.70203 
L 295.783147 108.205508 
L 295.837471 106.457246 
L 304.679397 100.755726 
L 306.668004 99.464201 
L 306.711358 97.71594 
L 315.446834 92.059946 
L 318.138693 92.03532 
L 326.214271 86.789467 
L 328.906131 86.757558 
L 331.59799 85.005181 
L 334.289849 84.966359 
L 336.981709 83.21054 
L 339.673568 83.162459 
L 342.365427 81.401993 
L 347.749146 81.267876 
L 350.441005 79.495097 
L 358.516583 79.122667 
L 361.208442 78.922275 
L 361.881629 78.485065 
L 361.208442 78.047856 
L 359.659038 76.736804 
L 358.516583 75.994822 
L 357.285755 74.988543 
L 355.824724 74.039658 
L 354.82032 73.240281 
L 350.441005 70.28771 
L 349.730093 69.743759 
L 342.365427 64.846009 
L 341.894154 64.498975 
L 326.214271 54.193815 
L 325.952897 54.009407 
L 241.439042 -1 
L 241.439042 -1 
" style="fill:none;stroke:#440154;stroke-width:1.5;"/>
   </g>
   <g id="LineCollection_5">
    <path clip-path="url(#pb72534ef8c)" d="M 210.112251 289 
L 210.089347 284.779899 
L 212.763756 283.031638 
L 212.704463 274.290332 
L 215.373747 272.54207 
L 215.311598 265.549025 
L 217.974894 263.800764 
L 217.893448 256.807719 
L 220.548374 255.059457 
L 220.46868 249.814673 
L 223.114288 248.066412 
L 222.972049 241.073367 
L 225.60099 239.325106 
L 225.454561 234.080322 
L 228.063683 232.33206 
L 227.785437 225.339015 
L 230.356011 223.590754 
L 230.04713 218.34597 
L 232.567133 216.597709 
L 231.999196 210.315643 
L 226.615477 208.904543 
L 221.231759 207.209819 
L 215.84804 205.2305 
L 210.464322 202.970676 
L 205.080603 200.423403 
L 199.291108 197.366834 
L 193.328988 193.870312 
L 187.877974 190.373789 
L 182.826887 186.877266 
L 178.088651 183.380744 
L 171.523244 178.13596 
L 167.377258 174.639437 
L 161.547163 169.394653 
L 156.046553 164.149869 
L 150.826359 158.905085 
L 144.262102 151.91204 
L 140.47598 147.717472 
L 132.134536 137.92595 
L 123.786787 127.436382 
L 116.249246 117.409645 
L 105.481809 102.089722 
L 93.544761 83.729849 
L 89.184129 76.736804 
L 75.817674 54.009407 
L 68.079314 40.023317 
L 66.216073 36.526794 
L 62.41206 29.451175 
L 57.940565 20.792442 
L 56.148433 17.29592 
L 48.952764 3.012345 
L 47.015593 -1 
L 47.015593 -1 
" style="fill:none;stroke:#440154;stroke-width:1.5;"/>
    <path clip-path="url(#pb72534ef8c)" d="M 96.954768 -1 
L 107.110363 13.799397 
L 116.249246 26.230052 
L 120.116368 31.28201 
L 128.567008 41.771578 
L 136.072796 50.512884 
L 143.167839 58.275268 
L 148.551558 63.84849 
L 153.935276 69.143673 
L 159.318995 74.161697 
L 164.702714 78.898453 
L 170.553969 83.729849 
L 175.470151 87.540614 
L 180.853869 91.447904 
L 186.237588 95.07401 
L 191.621307 98.421256 
L 197.005025 101.486954 
L 203.287974 104.708985 
L 207.772462 106.790971 
L 213.156181 109.028082 
L 218.539899 110.98351 
L 223.923618 112.66092 
L 229.307337 114.059054 
L 234.846157 115.198553 
L 240.074774 116.021995 
L 245.458492 116.582723 
L 250.842211 116.863848 
L 256.22593 116.870182 
L 261.609648 116.601807 
L 266.993367 116.054114 
L 272.473688 115.198553 
L 277.760804 114.1169 
L 283.144523 112.7309 
L 288.528241 111.065814 
L 291.238335 109.953769 
L 294.008627 108.205508 
L 294.180412 106.457246 
L 305.147377 99.464201 
L 305.284474 97.71594 
L 315.446834 91.170796 
L 318.138693 91.092924 
L 326.214271 85.844756 
L 328.906131 85.743853 
L 331.59799 83.982577 
L 334.289849 83.859809 
L 336.981709 82.087648 
L 338.908822 81.981588 
L 343.075881 78.485065 
L 348.986692 73.240281 
L 350.441005 71.896495 
L 350.441005 71.463883 
L 345.812378 67.995497 
L 345.057286 67.505094 
L 340.875132 64.498975 
L 336.981709 61.864197 
L 333.212606 59.254191 
L 326.214271 54.592556 
L 322.75788 52.261146 
L 310.063116 43.898367 
L 306.851982 41.771578 
L 275.068945 21.0037 
L 269.388153 17.29592 
L 241.27619 -1 
L 241.27619 -1 
" style="fill:none;stroke:#440154;stroke-width:1.5;"/>
   </g>
   <g id="LineCollection_6">
    <path clip-path="url(#pb72534ef8c)" d="M 209.350977 289 
L 209.278548 284.779899 
L 211.915224 283.031638 
L 211.727722 274.290332 
L 214.348193 272.54207 
L 214.151663 265.549025 
L 216.753195 263.800764 
L 216.495639 256.807719 
L 219.070706 255.059457 
L 218.818692 249.814673 
L 221.364291 248.066412 
L 221.231759 245.822078 
L 215.84804 243.879015 
L 210.464322 241.65432 
L 205.080603 239.14908 
L 198.748077 235.828583 
L 194.313166 233.283422 
L 188.929447 229.928366 
L 183.545729 226.290242 
L 177.475296 221.842492 
L 172.778291 218.169527 
L 166.731579 213.101186 
L 162.010854 208.913009 
L 155.353538 202.611618 
L 151.243417 198.52904 
L 143.515406 190.373789 
L 140.353713 186.877266 
L 132.400402 177.636863 
L 124.324824 167.626589 
L 116.249246 156.975503 
L 107.650291 144.918995 
L 100.09809 133.765963 
L 89.330653 116.885094 
L 78.563216 98.866569 
L 67.137661 78.485065 
L 58.764562 62.750714 
L 51.585583 48.764623 
L 37.979851 20.792442 
L 27.946905 -1 
L 27.946905 -1 
" style="fill:none;stroke:#450457;stroke-width:1.5;"/>
    <path clip-path="url(#pb72534ef8c)" d="M 125.84671 -1 
L 130.832366 5.05809 
L 137.784121 13.098382 
L 143.206974 19.044181 
L 148.551558 24.633219 
L 153.935276 29.98248 
L 159.318995 35.050443 
L 164.918475 40.023317 
L 171.231004 45.268101 
L 175.718398 48.764623 
L 180.853869 52.529911 
L 186.237588 56.201673 
L 191.621307 59.592111 
L 197.097044 62.750714 
L 202.388744 65.536666 
L 207.772462 68.085252 
L 213.156181 70.360758 
L 218.539899 72.353774 
L 223.923618 74.066709 
L 229.307337 75.499215 
L 235.19 76.736804 
L 240.074774 77.52738 
L 245.458492 78.120099 
L 250.842211 78.432181 
L 256.22593 78.466631 
L 261.609648 78.223773 
L 266.993367 77.701273 
L 272.377085 76.894029 
L 277.760804 75.812949 
L 283.144523 74.448581 
L 288.528241 72.80467 
L 293.91196 70.882219 
L 299.295678 68.679546 
L 304.679397 66.193299 
L 310.063116 63.434672 
L 315.446834 60.392471 
L 320.830553 57.070044 
L 323.522412 55.304375 
L 323.522412 53.958676 
L 313.485086 47.016362 
L 310.063116 44.716848 
L 301.987538 39.285986 
L 295.258084 34.778533 
L 283.144523 26.778841 
L 274.07239 20.792442 
L 248.150352 3.826395 
L 240.761208 -1 
L 240.761208 -1 
" style="fill:none;stroke:#450457;stroke-width:1.5;"/>
   </g>
   <g id="LineCollection_7">
    <path clip-path="url(#pb72534ef8c)" d="M 176.142682 289 
L 172.778291 286.363301 
L 166.683072 281.283377 
L 160.794911 276.038593 
L 156.627136 272.136578 
L 149.996873 265.549025 
L 144.991963 260.304241 
L 140.198891 255.059457 
L 134.119525 248.066412 
L 128.32485 241.073367 
L 124.135547 235.828583 
L 116.152323 225.339015 
L 108.173668 214.234428 
L 100.09809 202.364993 
L 91.258141 188.625528 
L 83.946935 176.720599 
L 74.576006 160.653347 
L 68.70185 150.163779 
L 63.947188 141.422472 
L 57.473888 129.184643 
L 53.872341 122.191598 
L 45.14393 104.708985 
L 38.185327 90.282297 
L 26.315185 64.498975 
L 19.339485 48.764623 
L 5.883015 17.003208 
L -1 0.034623 
L -1 0.034623 
" style="fill:none;stroke:#470d60;stroke-width:1.5;"/>
    <path clip-path="url(#pb72534ef8c)" d="M 205.527091 -1 
L 207.279029 -0.186693 
L 207.772462 0.043095 
L 210.464322 1.225067 
L 211.280914 1.561568 
L 213.156181 2.337453 
L 215.67539 3.309829 
L 215.84804 3.376771 
L 218.539899 4.350108 
L 220.660324 5.05809 
L 221.231759 5.249922 
L 223.923618 6.082507 
L 226.492023 6.806352 
L 226.615477 6.841366 
L 229.307337 7.534562 
L 231.999196 8.154803 
L 233.960619 8.554613 
L 234.691055 8.704652 
L 237.382915 9.186896 
L 240.074774 9.597646 
L 242.766633 9.937469 
L 245.458492 10.206832 
L 246.754973 10.302874 
L 248.150352 10.407277 
L 250.842211 10.538194 
L 253.53407 10.598669 
L 256.22593 10.588785 
L 256.235792 10.302874 
L 256.22593 10.296469 
L 253.603679 8.554613 
L 253.53407 8.509405 
L 250.96732 6.806352 
L 250.842211 6.725098 
L 248.327014 5.05809 
L 248.150352 4.943355 
L 245.68303 3.309829 
L 245.458492 3.164 
L 243.035609 1.561568 
L 242.766633 1.386878 
L 240.384969 -0.186693 
L 240.074774 -0.388154 
L 239.147801 -1 
" style="fill:none;stroke:#470d60;stroke-width:1.5;"/>
   </g>
   <g id="LineCollection_8">
    <path clip-path="url(#pb72534ef8c)" d="M 78.821253 289 
L 74.378309 281.283377 
L 68.496914 270.793809 
L 63.738166 262.052503 
L 57.25731 249.814673 
L 52.767475 241.073367 
L 46.629013 228.835538 
L 42.362293 220.094231 
L 35.493467 205.691577 
L 24.72603 182.157831 
L 13.814853 157.156824 
L 2.877442 130.932905 
L -1 121.34389 
L -1 121.34389 
" style="fill:none;stroke:#482475;stroke-width:1.5;"/>
   </g>
   <g id="LineCollection_9">
    <path clip-path="url(#pb72534ef8c)" style="fill:none;stroke:#33638d;stroke-width:1.5;"/>
   </g>
   <g id="LineCollection_10"/>
   <g id="line2d_13">
    <path clip-path="url(#pb72534ef8c)" d="M 54 252 
L 388.8 252 
" style="fill:none;stroke:#000000;stroke-linecap:square;stroke-width:1.5;"/>
   </g>
   <g id="line2d_14">
    <path clip-path="url(#pb72534ef8c)" d="M 54 34.56 
L 388.8 34.56 
" style="fill:none;stroke:#000000;stroke-linecap:square;stroke-width:1.5;"/>
   </g>
   <g id="line2d_15">
    <path clip-path="url(#pb72534ef8c)" d="M 54 252 
L 54 34.56 
" style="fill:none;stroke:#000000;stroke-linecap:square;stroke-width:1.5;"/>
   </g>
   <g id="line2d_16">
    <path clip-path="url(#pb72534ef8c)" d="M 388.8 252 
L 388.8 34.56 
" style="fill:none;stroke:#000000;stroke-linecap:square;stroke-width:1.5;"/>
   </g>
   <g id="line2d_17">
    <path clip-path="url(#pb72534ef8c)" d="M 262.95101 60.059916 
L 294.5018 108.089872 
L 294.5018 108.089872 
L 288.693324 114.052952 
L 288.693324 114.052952 
L 288.693324 114.052952 
L 288.693324 114.052952 
L 288.693324 114.052952 
L 288.693324 114.052952 
L 284.118343 126.28913 
L 272.441557 131.993862 
L 257.453203 159.318584 
L 245.776417 165.023316 
L 245.776417 165.023316 
L 245.776417 165.023316 
L 245.776417 165.023316 
L 249.011467 165.943086 
L 249.011467 165.943086 
L 255.658622 163.320663 
L 255.658622 163.320663 
L 255.658622 163.320663 
L 255.658622 163.320663 
L 255.658622 163.320663 
L 253.589557 164.900419 
L 253.589557 164.900419 
L 254.665057 164.024143 
L 254.875063 164.277188 
L 254.875063 164.277188 
L 254.875063 164.277188 
L 255.085068 164.530233 
L 255.085068 164.530233 
L 255.085068 164.530233 
L 255.085068 164.530233 
L 255.085068 164.530233 
L 255.066274 164.711229 
L 255.066274 164.711229 
L 255.066274 164.711229 
L 255.066274 164.711229 
L 255.066274 164.711229 
L 255.066274 164.711229 
L 255.066274 164.711229 
L 255.066274 164.711229 
L 255.066274 164.711229 
L 255.066274 164.711229 
L 255.066274 164.711229 
L 255.066274 164.711229 
L 255.066274 164.711229 
L 255.066274 164.711229 
L 255.066274 164.711229 
L 255.066274 164.711229 
L 255.066274 164.711229 
" style="fill:none;stroke:#1f77b4;stroke-dasharray:5.55,2.4;stroke-dashoffset:0;stroke-width:1.5;"/>
   </g>
   <g id="line2d_18">
    <path clip-path="url(#pb72534ef8c)" d="M 222.688617 94.613589 
L 136.209089 106.647907 
L 192.197535 138.70474 
L 192.197535 138.70474 
L 192.197535 138.70474 
L 192.197535 138.70474 
L 227.50242 151.225315 
L 248.18598 170.761573 
L 248.18598 170.761573 
L 248.18598 170.761573 
L 228.483035 159.961277 
L 240.964588 161.3375 
L 241.454896 165.705481 
L 253.936449 167.081704 
L 253.936449 167.081704 
L 253.936449 167.081704 
L 253.936449 167.081704 
L 253.936449 167.081704 
L 253.936449 167.081704 
L 253.936449 167.081704 
L 253.936449 167.081704 
L 253.936449 167.081704 
L 253.936449 167.081704 
L 253.936449 167.081704 
L 253.936449 167.081704 
L 253.936449 167.081704 
L 253.936449 167.081704 
L 253.936449 167.081704 
L 253.936449 167.081704 
L 253.936449 167.081704 
L 253.936449 167.081704 
L 253.936449 167.081704 
L 253.936449 167.081704 
L 253.936449 167.081704 
L 253.936449 167.081704 
L 253.936449 167.081704 
L 253.936449 167.081704 
L 253.936449 167.081704 
L 253.936449 167.081704 
L 253.936449 167.081704 
L 253.855929 167.05838 
L 253.855929 167.05838 
L 253.818991 167.045777 
L 253.846956 167.044197 
L 253.787064 167.018202 
L 253.813047 167.002044 
L 253.706253 166.941974 
L 253.704823 166.879622 
L 253.490521 166.728307 
" style="fill:none;stroke:#ff7f0e;stroke-dasharray:5.55,2.4;stroke-dashoffset:0;stroke-width:1.5;"/>
   </g>
   <g id="line2d_19">
    <path clip-path="url(#pb72534ef8c)" d="M 115.866932 56.523546 
L 115.866932 56.523546 
L 115.866932 56.523546 
L 115.866932 56.523546 
L 93.644494 26.550474 
L 90.021858 32.532392 
L 90.021858 32.532392 
L 90.021858 32.532392 
L 90.021858 32.532392 
L 90.021858 32.532392 
L 106.790489 53.281559 
L 124.942741 82.944165 
L 141.711371 103.693333 
L 141.711371 103.693333 
L 141.711371 103.693333 
L 141.711371 103.693333 
L 141.711371 103.693333 
L 149.525848 114.488024 
L 152.130779 114.223149 
L 159.945256 125.017841 
L 169.062356 129.885436 
L 169.062356 129.885436 
L 185.993934 145.547723 
L 185.993934 145.547723 
L 195.111034 150.415319 
L 195.111034 150.415319 
L 197.22764 146.578446 
L 219.77607 162.756095 
L 235.283497 163.171174 
L 235.283497 163.171174 
L 235.283497 163.171174 
L 235.283497 163.171174 
L 235.283497 163.171174 
L 235.283497 163.171174 
L 249.475724 167.140395 
L 249.33883 162.847768 
L 249.33883 162.847768 
L 249.33883 162.847768 
L 248.541653 165.416728 
L 255.06806 163.320035 
L 254.270883 165.888995 
L 254.270883 165.888995 
L 254.270883 165.888995 
L 254.38613 164.334158 
L 254.38613 164.334158 
L 254.165227 165.26793 
L 254.818345 164.642516 
L 254.818345 164.642516 
L 254.818345 164.642516 
L 254.818345 164.642516 
L 254.994232 164.699789 
L 254.994232 164.699789 
L 254.994232 164.699789 
" style="fill:none;stroke:#2ca02c;stroke-dasharray:5.55,2.4;stroke-dashoffset:0;stroke-width:1.5;"/>
   </g>
   <g id="line2d_20">
    <path clip-path="url(#pb72534ef8c)" d="M 191.796882 83.183742 
L 108.792596 103.830162 
L 108.792596 103.830162 
L 163.980389 84.714863 
L 149.960844 81.467158 
L 132.881606 93.460586 
L 132.881606 93.460586 
L 132.881606 93.460586 
L 132.881606 93.460586 
L 132.881606 93.460586 
L 132.881606 93.460586 
L 132.881606 93.460586 
L 135.375638 93.384146 
L 136.845883 98.94273 
L 142.569069 101.569142 
L 144.039314 107.127726 
L 156.220808 115.159842 
L 157.691053 120.718426 
L 182.789163 139.56195 
L 182.789163 139.56195 
L 182.789163 139.56195 
L 196.440902 153.15265 
L 200.326281 148.830831 
L 200.326281 148.830831 
L 228.574649 160.573245 
L 228.574649 160.573245 
L 228.574649 160.573245 
L 228.574649 160.573245 
L 234.591576 165.795473 
L 245.016465 165.552571 
L 245.016465 165.552571 
L 245.016465 165.552571 
L 245.016465 165.552571 
L 250.12835 164.76316 
L 250.12835 164.76316 
L 250.12835 164.76316 
L 250.12835 164.76316 
L 254.420026 165.040208 
L 254.420026 165.040208 
L 254.420026 165.040208 
L 254.420026 165.040208 
L 254.420026 165.040208 
L 254.420026 165.040208 
L 254.420026 165.040208 
L 254.420026 165.040208 
L 254.420026 165.040208 
L 254.861719 164.648944 
L 254.861719 164.648944 
L 254.861719 164.648944 
L 255.008438 164.88977 
L 255.008438 164.88977 
L 255.008438 164.88977 
L 255.008438 164.88977 
L 255.008438 164.88977 
" style="fill:none;stroke:#d62728;stroke-dasharray:5.55,2.4;stroke-dashoffset:0;stroke-width:1.5;"/>
   </g>
   <g id="line2d_21">
    <path clip-path="url(#pb72534ef8c)" d="M 171.114318 75.906057 
L 129.071314 70.85326 
L 152.277269 130.297244 
L 152.277269 130.297244 
L 148.284298 94.407953 
L 139.676049 91.602929 
L 148.128721 111.651343 
L 148.128721 111.651343 
L 148.128721 111.651343 
L 148.128721 111.651343 
L 148.128721 111.651343 
L 148.128721 111.651343 
L 150.72886 111.282615 
L 160.679309 124.185367 
L 170.854812 129.899288 
L 170.854812 129.899288 
L 190.980764 148.51596 
L 190.980764 148.51596 
L 201.156266 154.229882 
L 201.156266 154.229882 
L 202.596994 149.552499 
L 215.203846 160.289316 
L 216.644574 155.611933 
L 229.251425 166.34875 
L 238.436307 162.362393 
L 238.436307 162.362393 
L 238.436307 162.362393 
L 243.737931 166.139552 
L 251.628394 164.741034 
L 251.628394 164.741034 
L 251.628394 164.741034 
L 251.628394 164.741034 
L 251.628394 164.741034 
L 251.628394 164.741034 
L 251.628394 164.741034 
L 251.628394 164.741034 
L 254.929265 164.487634 
L 254.929265 164.487634 
L 254.929265 164.487634 
L 254.929265 164.487634 
L 254.929265 164.487634 
L 254.929265 164.487634 
L 255.002731 164.944454 
L 255.002731 164.944454 
L 255.002731 164.944454 
L 255.002731 164.944454 
L 255.002731 164.944454 
L 255.002731 164.944454 
L 255.002731 164.944454 
L 255.002731 164.944454 
L 255.002731 164.944454 
L 255.002731 164.944454 
L 255.002731 164.944454 
" style="fill:none;stroke:#9467bd;stroke-dasharray:5.55,2.4;stroke-dashoffset:0;stroke-width:1.5;"/>
   </g>
   <g id="line2d_22">
    <path clip-path="url(#pb72534ef8c)" d="M 205.646756 43.193329 
L 298.901734 91.062482 
L 298.901734 91.062482 
L 298.901734 91.062482 
L 285.580292 116.538712 
L 285.580292 116.538712 
L 285.580292 116.538712 
L 285.580292 116.538712 
L 285.580292 116.538712 
L 285.580292 116.538712 
L 285.580292 116.538712 
L 285.580292 116.538712 
L 285.580292 116.538712 
L 285.580292 116.538712 
L 285.580292 116.538712 
L 285.580292 116.538712 
L 285.580292 116.538712 
L 285.580292 116.538712 
L 285.580292 116.538712 
L 285.580292 116.538712 
L 285.580292 116.538712 
L 285.580292 116.538712 
L 285.580292 116.538712 
L 285.580292 116.538712 
L 285.580292 116.538712 
L 285.580292 116.538712 
L 285.580292 116.538712 
L 285.580292 116.538712 
L 285.580292 116.538712 
L 285.580292 116.538712 
L 285.580292 116.538712 
L 285.580292 116.538712 
L 285.580292 116.538712 
L 285.580292 116.538712 
L 285.580292 116.538712 
L 285.580292 116.538712 
L 285.580292 116.538712 
L 285.580292 116.538712 
L 285.580292 116.538712 
L 285.580292 116.538712 
L 285.580292 116.538712 
L 285.580292 116.538712 
L 285.580292 116.538712 
L 285.580292 116.538712 
L 285.580292 116.538712 
L 285.580292 116.538712 
L 285.580292 116.538712 
L 285.580292 116.538712 
L 285.580292 116.538712 
" style="fill:none;stroke:#8c564b;stroke-dasharray:5.55,2.4;stroke-dashoffset:0;stroke-width:1.5;"/>
   </g>
   <g id="line2d_23">
    <path clip-path="url(#pb72534ef8c)" d="M 88.011101 10.730711 
L 109.288489 53.212287 
L 109.288489 53.212287 
L 109.288489 53.212287 
L 109.288489 53.212287 
L 86.397123 28.715458 
L 86.397123 28.715458 
L 102.758659 56.080453 
L 102.758659 56.080453 
L 134.243528 98.397445 
L 134.243528 98.397445 
L 141.70201 104.839027 
L 141.70201 104.839027 
L 141.70201 104.839027 
L 141.70201 104.839027 
L 158.223808 120.998821 
L 158.223808 120.998821 
L 158.223808 120.998821 
L 158.223808 120.998821 
L 167.8067 127.384564 
L 167.8067 127.384564 
L 184.192841 142.718221 
L 196.0921 146.968823 
L 196.0921 146.968823 
L 224.3775 166.553081 
L 207.991359 151.219424 
L 206.138265 152.927538 
L 215.721156 159.313281 
L 215.721156 159.313281 
L 225.496007 163.619721 
L 225.496007 163.619721 
L 229.353535 163.155334 
L 229.353535 163.155334 
L 229.353535 163.155334 
L 239.201763 163.797485 
L 239.201763 163.797485 
L 253.316333 167.58149 
L 251.840934 163.189786 
L 251.840934 163.189786 
L 249.234416 164.9886 
L 251.927004 165.835341 
L 251.927004 165.835341 
L 253.90341 165.14762 
L 253.90341 165.14762 
L 253.90341 165.14762 
L 253.90341 165.14762 
L 254.925615 164.568968 
L 254.925615 164.568968 
L 254.925615 164.568968 
L 254.925615 164.568968 
L 254.925615 164.568968 
L 254.925615 164.568968 
L 254.925615 164.568968 
L 254.978944 164.808208 
" style="fill:none;stroke:#e377c2;stroke-dasharray:5.55,2.4;stroke-dashoffset:0;stroke-width:1.5;"/>
   </g>
   <g id="line2d_24">
    <path clip-path="url(#pb72534ef8c)" d="M 156.224228 34.506103 
L 156.224228 34.506103 
L 123.209874 45.085448 
L 123.209874 45.085448 
L 123.209874 45.085448 
L 89.874181 30.943176 
L 89.874181 30.943176 
L 89.874181 30.943176 
L 89.874181 30.943176 
L 92.042459 38.350828 
L 92.042459 38.350828 
L 100.230313 50.574401 
L 100.230313 50.574401 
L 109.320333 59.974163 
L 123.579592 84.737224 
L 148.889262 115.918277 
L 148.889262 115.918277 
L 160.340779 124.629404 
L 160.340779 124.629404 
L 160.340779 124.629404 
L 171.792295 133.34053 
L 171.792295 133.34053 
L 171.792295 133.34053 
L 183.243812 142.051656 
L 183.243812 142.051656 
L 191.58865 145.417523 
L 201.294113 154.788446 
L 209.638951 158.154313 
L 209.638951 158.154313 
L 209.661587 154.071254 
L 231.895626 166.449449 
L 243.057917 164.472428 
L 243.057917 164.472428 
L 243.057917 164.472428 
L 243.057917 164.472428 
L 243.057917 164.472428 
L 243.057917 164.472428 
L 247.769357 167.14339 
L 248.575186 165.184213 
L 248.575186 165.184213 
L 254.092456 165.895997 
L 254.092456 165.895997 
L 254.092456 165.895997 
L 254.092456 165.895997 
L 254.092456 165.895997 
L 254.628082 165.255895 
L 254.628082 165.255895 
L 254.628082 165.255895 
L 255.163707 164.615793 
L 255.163707 164.615793 
L 255.163707 164.615793 
L 255.163707 164.615793 
L 255.163707 164.615793 
" style="fill:none;stroke:#7f7f7f;stroke-dasharray:5.55,2.4;stroke-dashoffset:0;stroke-width:1.5;"/>
   </g>
   <g id="line2d_25">
    <path clip-path="url(#pb72534ef8c)" d="M 109.698521 70.733741 
L 109.698521 70.733741 
L 109.698521 70.733741 
L 109.698521 70.733741 
L 109.698521 70.733741 
L 109.698521 70.733741 
L 109.698521 70.733741 
L 111.836636 59.473044 
L 111.836636 59.473044 
L 131.597116 87.218138 
L 131.597116 87.218138 
L 131.597116 87.218138 
L 136.970473 100.111242 
L 151.675506 109.169643 
L 157.048863 122.062747 
L 189.145609 146.626102 
L 189.145609 146.626102 
L 213.200244 158.44921 
L 213.200244 158.44921 
L 213.200244 158.44921 
L 228.723579 161.685362 
L 228.723579 161.685362 
L 228.723579 161.685362 
L 228.723579 161.685362 
L 248.518009 163.542431 
L 248.518009 163.542431 
L 248.518009 163.542431 
L 248.518009 163.542431 
L 248.518009 163.542431 
L 251.443369 164.595539 
L 251.443369 164.595539 
L 251.443369 164.595539 
L 255.43418 163.774153 
L 255.43418 163.774153 
L 255.43418 163.774153 
L 255.43418 163.774153 
L 255.43418 163.774153 
L 255.43418 163.774153 
L 255.43418 163.774153 
L 255.43418 163.774153 
L 255.325753 164.25553 
L 255.325753 164.25553 
L 255.325753 164.25553 
L 255.325753 164.25553 
L 255.103292 164.608569 
L 255.103292 164.608569 
L 255.103292 164.608569 
L 255.103292 164.608569 
L 255.103292 164.608569 
L 255.103292 164.608569 
L 255.103292 164.608569 
L 255.043376 164.708487 
L 255.053904 164.726818 
L 255.053904 164.726818 
" style="fill:none;stroke:#bcbd22;stroke-dasharray:5.55,2.4;stroke-dashoffset:0;stroke-width:1.5;"/>
   </g>
   <g id="line2d_26">
    <path clip-path="url(#pb72534ef8c)" d="M 143.08092 34.896147 
L 97.77073 38.785443 
L 97.77073 38.785443 
L 97.77073 38.785443 
L 97.77073 38.785443 
L 97.77073 38.785443 
L 94.18595 34.134019 
L 89.491689 33.873821 
L 89.491689 33.873821 
L 90.942625 32.841064 
L 94.527405 37.492488 
L 94.527405 37.492488 
L 96.575885 42.337052 
L 96.575885 42.337052 
L 105.793927 56.484463 
L 105.793927 56.484463 
L 119.108929 80.321002 
L 132.594537 98.18365 
L 132.594537 98.18365 
L 134.408191 95.936063 
L 134.408191 95.936063 
L 163.19306 129.413772 
L 163.19306 129.413772 
L 175.206222 137.576226 
L 175.206222 137.576226 
L 175.206222 137.576226 
L 187.219384 145.73868 
L 187.219384 145.73868 
L 193.693979 144.918066 
L 205.395132 156.348413 
L 224.194897 160.42236 
L 224.194897 160.42236 
L 224.194897 160.42236 
L 242.994663 164.496306 
L 242.994663 164.496306 
L 242.994663 164.496306 
L 242.994663 164.496306 
L 250.404149 167.491751 
L 252.106887 165.359107 
L 252.106887 165.359107 
L 252.106887 165.359107 
L 252.106887 165.359107 
L 252.106887 165.359107 
L 255.02347 164.775067 
L 255.02347 164.775067 
L 255.02347 164.775067 
L 255.02347 164.775067 
L 255.02347 164.775067 
L 255.02347 164.775067 
L 255.02347 164.775067 
L 255.02347 164.775067 
L 255.02347 164.775067 
L 255.02347 164.775067 
L 255.02347 164.775067 
L 255.02347 164.775067 
L 255.02347 164.775067 
" style="fill:none;stroke:#17becf;stroke-dasharray:5.55,2.4;stroke-dashoffset:0;stroke-width:1.5;"/>
   </g>
   <g id="patch_3">
    <path d="M 54 252 
L 54 34.56 
" style="fill:none;stroke:#000000;stroke-linecap:square;stroke-linejoin:miter;stroke-width:0.8;"/>
   </g>
   <g id="patch_4">
    <path d="M 388.8 252 
L 388.8 34.56 
" style="fill:none;stroke:#000000;stroke-linecap:square;stroke-linejoin:miter;stroke-width:0.8;"/>
   </g>
   <g id="patch_5">
    <path d="M 54 252 
L 388.8 252 
" style="fill:none;stroke:#000000;stroke-linecap:square;stroke-linejoin:miter;stroke-width:0.8;"/>
   </g>
   <g id="patch_6">
    <path d="M 54 34.56 
L 388.8 34.56 
" style="fill:none;stroke:#000000;stroke-linecap:square;stroke-linejoin:miter;stroke-width:0.8;"/>
   </g>
   <g id="legend_1">
    <g id="patch_7">
     <path d="M 303.546875 189.34125 
L 381.8 189.34125 
Q 383.8 189.34125 383.8 187.34125 
L 383.8 41.56 
Q 383.8 39.56 381.8 39.56 
L 303.546875 39.56 
Q 301.546875 39.56 301.546875 41.56 
L 301.546875 187.34125 
Q 301.546875 189.34125 303.546875 189.34125 
z
" style="fill:#ffffff;opacity:0.8;stroke:#cccccc;stroke-linejoin:miter;"/>
    </g>
    <g id="line2d_27">
     <path d="M 305.546875 47.658437 
L 325.546875 47.658437 
" style="fill:none;stroke:#1f77b4;stroke-dasharray:5.55,2.4;stroke-dashoffset:0;stroke-width:1.5;"/>
    </g>
    <g id="line2d_28"/>
    <g id="text_15">
     <!-- Simplex0 -->
     <g transform="translate(333.546875 51.158437)scale(0.1 -0.1)">
      <defs>
       <path d="M 53.515625 70.515625 
L 53.515625 60.890625 
Q 47.90625 63.578125 42.921875 64.890625 
Q 37.9375 66.21875 33.296875 66.21875 
Q 25.25 66.21875 20.875 63.09375 
Q 16.5 59.96875 16.5 54.203125 
Q 16.5 49.359375 19.40625 46.890625 
Q 22.3125 44.4375 30.421875 42.921875 
L 36.375 41.703125 
Q 47.40625 39.59375 52.65625 34.296875 
Q 57.90625 29 57.90625 20.125 
Q 57.90625 9.515625 50.796875 4.046875 
Q 43.703125 -1.421875 29.984375 -1.421875 
Q 24.8125 -1.421875 18.96875 -0.25 
Q 13.140625 0.921875 6.890625 3.21875 
L 6.890625 13.375 
Q 12.890625 10.015625 18.65625 8.296875 
Q 24.421875 6.59375 29.984375 6.59375 
Q 38.421875 6.59375 43.015625 9.90625 
Q 47.609375 13.234375 47.609375 19.390625 
Q 47.609375 24.75 44.3125 27.78125 
Q 41.015625 30.8125 33.5 32.328125 
L 27.484375 33.5 
Q 16.453125 35.6875 11.515625 40.375 
Q 6.59375 45.0625 6.59375 53.421875 
Q 6.59375 63.09375 13.40625 68.65625 
Q 20.21875 74.21875 32.171875 74.21875 
Q 37.3125 74.21875 42.625 73.28125 
Q 47.953125 72.359375 53.515625 70.515625 
z
" id="DejaVuSans-83"/>
       <path d="M 9.421875 54.6875 
L 18.40625 54.6875 
L 18.40625 0 
L 9.421875 0 
z
M 9.421875 75.984375 
L 18.40625 75.984375 
L 18.40625 64.59375 
L 9.421875 64.59375 
z
" id="DejaVuSans-105"/>
       <path d="M 52 44.1875 
Q 55.375 50.25 60.0625 53.125 
Q 64.75 56 71.09375 56 
Q 79.640625 56 84.28125 50.015625 
Q 88.921875 44.046875 88.921875 33.015625 
L 88.921875 0 
L 79.890625 0 
L 79.890625 32.71875 
Q 79.890625 40.578125 77.09375 44.375 
Q 74.3125 48.1875 68.609375 48.1875 
Q 61.625 48.1875 57.5625 43.546875 
Q 53.515625 38.921875 53.515625 30.90625 
L 53.515625 0 
L 44.484375 0 
L 44.484375 32.71875 
Q 44.484375 40.625 41.703125 44.40625 
Q 38.921875 48.1875 33.109375 48.1875 
Q 26.21875 48.1875 22.15625 43.53125 
Q 18.109375 38.875 18.109375 30.90625 
L 18.109375 0 
L 9.078125 0 
L 9.078125 54.6875 
L 18.109375 54.6875 
L 18.109375 46.1875 
Q 21.1875 51.21875 25.484375 53.609375 
Q 29.78125 56 35.6875 56 
Q 41.65625 56 45.828125 52.96875 
Q 50 49.953125 52 44.1875 
z
" id="DejaVuSans-109"/>
       <path d="M 18.109375 8.203125 
L 18.109375 -20.796875 
L 9.078125 -20.796875 
L 9.078125 54.6875 
L 18.109375 54.6875 
L 18.109375 46.390625 
Q 20.953125 51.265625 25.265625 53.625 
Q 29.59375 56 35.59375 56 
Q 45.5625 56 51.78125 48.09375 
Q 58.015625 40.1875 58.015625 27.296875 
Q 58.015625 14.40625 51.78125 6.484375 
Q 45.5625 -1.421875 35.59375 -1.421875 
Q 29.59375 -1.421875 25.265625 0.953125 
Q 20.953125 3.328125 18.109375 8.203125 
z
M 48.6875 27.296875 
Q 48.6875 37.203125 44.609375 42.84375 
Q 40.53125 48.484375 33.40625 48.484375 
Q 26.265625 48.484375 22.1875 42.84375 
Q 18.109375 37.203125 18.109375 27.296875 
Q 18.109375 17.390625 22.1875 11.75 
Q 26.265625 6.109375 33.40625 6.109375 
Q 40.53125 6.109375 44.609375 11.75 
Q 48.6875 17.390625 48.6875 27.296875 
z
" id="DejaVuSans-112"/>
       <path d="M 9.421875 75.984375 
L 18.40625 75.984375 
L 18.40625 0 
L 9.421875 0 
z
" id="DejaVuSans-108"/>
       <path d="M 56.203125 29.59375 
L 56.203125 25.203125 
L 14.890625 25.203125 
Q 15.484375 15.921875 20.484375 11.0625 
Q 25.484375 6.203125 34.421875 6.203125 
Q 39.59375 6.203125 44.453125 7.46875 
Q 49.3125 8.734375 54.109375 11.28125 
L 54.109375 2.78125 
Q 49.265625 0.734375 44.1875 -0.34375 
Q 39.109375 -1.421875 33.890625 -1.421875 
Q 20.796875 -1.421875 13.15625 6.1875 
Q 5.515625 13.8125 5.515625 26.8125 
Q 5.515625 40.234375 12.765625 48.109375 
Q 20.015625 56 32.328125 56 
Q 43.359375 56 49.78125 48.890625 
Q 56.203125 41.796875 56.203125 29.59375 
z
M 47.21875 32.234375 
Q 47.125 39.59375 43.09375 43.984375 
Q 39.0625 48.390625 32.421875 48.390625 
Q 24.90625 48.390625 20.390625 44.140625 
Q 15.875 39.890625 15.1875 32.171875 
z
" id="DejaVuSans-101"/>
       <path d="M 54.890625 54.6875 
L 35.109375 28.078125 
L 55.90625 0 
L 45.3125 0 
L 29.390625 21.484375 
L 13.484375 0 
L 2.875 0 
L 24.125 28.609375 
L 4.6875 54.6875 
L 15.28125 54.6875 
L 29.78125 35.203125 
L 44.28125 54.6875 
z
" id="DejaVuSans-120"/>
      </defs>
      <use xlink:href="#DejaVuSans-83"/>
      <use x="63.476562" xlink:href="#DejaVuSans-105"/>
      <use x="91.259766" xlink:href="#DejaVuSans-109"/>
      <use x="188.671875" xlink:href="#DejaVuSans-112"/>
      <use x="252.148438" xlink:href="#DejaVuSans-108"/>
      <use x="279.931641" xlink:href="#DejaVuSans-101"/>
      <use x="339.705078" xlink:href="#DejaVuSans-120"/>
      <use x="398.884766" xlink:href="#DejaVuSans-48"/>
     </g>
    </g>
    <g id="line2d_29">
     <path d="M 305.546875 62.336563 
L 325.546875 62.336563 
" style="fill:none;stroke:#ff7f0e;stroke-dasharray:5.55,2.4;stroke-dashoffset:0;stroke-width:1.5;"/>
    </g>
    <g id="line2d_30"/>
    <g id="text_16">
     <!-- Simplex1 -->
     <g transform="translate(333.546875 65.836563)scale(0.1 -0.1)">
      <use xlink:href="#DejaVuSans-83"/>
      <use x="63.476562" xlink:href="#DejaVuSans-105"/>
      <use x="91.259766" xlink:href="#DejaVuSans-109"/>
      <use x="188.671875" xlink:href="#DejaVuSans-112"/>
      <use x="252.148438" xlink:href="#DejaVuSans-108"/>
      <use x="279.931641" xlink:href="#DejaVuSans-101"/>
      <use x="339.705078" xlink:href="#DejaVuSans-120"/>
      <use x="398.884766" xlink:href="#DejaVuSans-49"/>
     </g>
    </g>
    <g id="line2d_31">
     <path d="M 305.546875 77.014688 
L 325.546875 77.014688 
" style="fill:none;stroke:#2ca02c;stroke-dasharray:5.55,2.4;stroke-dashoffset:0;stroke-width:1.5;"/>
    </g>
    <g id="line2d_32"/>
    <g id="text_17">
     <!-- Simplex2 -->
     <g transform="translate(333.546875 80.514688)scale(0.1 -0.1)">
      <use xlink:href="#DejaVuSans-83"/>
      <use x="63.476562" xlink:href="#DejaVuSans-105"/>
      <use x="91.259766" xlink:href="#DejaVuSans-109"/>
      <use x="188.671875" xlink:href="#DejaVuSans-112"/>
      <use x="252.148438" xlink:href="#DejaVuSans-108"/>
      <use x="279.931641" xlink:href="#DejaVuSans-101"/>
      <use x="339.705078" xlink:href="#DejaVuSans-120"/>
      <use x="398.884766" xlink:href="#DejaVuSans-50"/>
     </g>
    </g>
    <g id="line2d_33">
     <path d="M 305.546875 91.692813 
L 325.546875 91.692813 
" style="fill:none;stroke:#d62728;stroke-dasharray:5.55,2.4;stroke-dashoffset:0;stroke-width:1.5;"/>
    </g>
    <g id="line2d_34"/>
    <g id="text_18">
     <!-- Simplex3 -->
     <g transform="translate(333.546875 95.192813)scale(0.1 -0.1)">
      <defs>
       <path d="M 40.578125 39.3125 
Q 47.65625 37.796875 51.625 33 
Q 55.609375 28.21875 55.609375 21.1875 
Q 55.609375 10.40625 48.1875 4.484375 
Q 40.765625 -1.421875 27.09375 -1.421875 
Q 22.515625 -1.421875 17.65625 -0.515625 
Q 12.796875 0.390625 7.625 2.203125 
L 7.625 11.71875 
Q 11.71875 9.328125 16.59375 8.109375 
Q 21.484375 6.890625 26.8125 6.890625 
Q 36.078125 6.890625 40.9375 10.546875 
Q 45.796875 14.203125 45.796875 21.1875 
Q 45.796875 27.640625 41.28125 31.265625 
Q 36.765625 34.90625 28.71875 34.90625 
L 20.21875 34.90625 
L 20.21875 43.015625 
L 29.109375 43.015625 
Q 36.375 43.015625 40.234375 45.921875 
Q 44.09375 48.828125 44.09375 54.296875 
Q 44.09375 59.90625 40.109375 62.90625 
Q 36.140625 65.921875 28.71875 65.921875 
Q 24.65625 65.921875 20.015625 65.03125 
Q 15.375 64.15625 9.8125 62.3125 
L 9.8125 71.09375 
Q 15.4375 72.65625 20.34375 73.4375 
Q 25.25 74.21875 29.59375 74.21875 
Q 40.828125 74.21875 47.359375 69.109375 
Q 53.90625 64.015625 53.90625 55.328125 
Q 53.90625 49.265625 50.4375 45.09375 
Q 46.96875 40.921875 40.578125 39.3125 
z
" id="DejaVuSans-51"/>
      </defs>
      <use xlink:href="#DejaVuSans-83"/>
      <use x="63.476562" xlink:href="#DejaVuSans-105"/>
      <use x="91.259766" xlink:href="#DejaVuSans-109"/>
      <use x="188.671875" xlink:href="#DejaVuSans-112"/>
      <use x="252.148438" xlink:href="#DejaVuSans-108"/>
      <use x="279.931641" xlink:href="#DejaVuSans-101"/>
      <use x="339.705078" xlink:href="#DejaVuSans-120"/>
      <use x="398.884766" xlink:href="#DejaVuSans-51"/>
     </g>
    </g>
    <g id="line2d_35">
     <path d="M 305.546875 106.370938 
L 325.546875 106.370938 
" style="fill:none;stroke:#9467bd;stroke-dasharray:5.55,2.4;stroke-dashoffset:0;stroke-width:1.5;"/>
    </g>
    <g id="line2d_36"/>
    <g id="text_19">
     <!-- Simplex4 -->
     <g transform="translate(333.546875 109.870938)scale(0.1 -0.1)">
      <defs>
       <path d="M 37.796875 64.3125 
L 12.890625 25.390625 
L 37.796875 25.390625 
z
M 35.203125 72.90625 
L 47.609375 72.90625 
L 47.609375 25.390625 
L 58.015625 25.390625 
L 58.015625 17.1875 
L 47.609375 17.1875 
L 47.609375 0 
L 37.796875 0 
L 37.796875 17.1875 
L 4.890625 17.1875 
L 4.890625 26.703125 
z
" id="DejaVuSans-52"/>
      </defs>
      <use xlink:href="#DejaVuSans-83"/>
      <use x="63.476562" xlink:href="#DejaVuSans-105"/>
      <use x="91.259766" xlink:href="#DejaVuSans-109"/>
      <use x="188.671875" xlink:href="#DejaVuSans-112"/>
      <use x="252.148438" xlink:href="#DejaVuSans-108"/>
      <use x="279.931641" xlink:href="#DejaVuSans-101"/>
      <use x="339.705078" xlink:href="#DejaVuSans-120"/>
      <use x="398.884766" xlink:href="#DejaVuSans-52"/>
     </g>
    </g>
    <g id="line2d_37">
     <path d="M 305.546875 121.049062 
L 325.546875 121.049062 
" style="fill:none;stroke:#8c564b;stroke-dasharray:5.55,2.4;stroke-dashoffset:0;stroke-width:1.5;"/>
    </g>
    <g id="line2d_38"/>
    <g id="text_20">
     <!-- Simplex5 -->
     <g transform="translate(333.546875 124.549062)scale(0.1 -0.1)">
      <use xlink:href="#DejaVuSans-83"/>
      <use x="63.476562" xlink:href="#DejaVuSans-105"/>
      <use x="91.259766" xlink:href="#DejaVuSans-109"/>
      <use x="188.671875" xlink:href="#DejaVuSans-112"/>
      <use x="252.148438" xlink:href="#DejaVuSans-108"/>
      <use x="279.931641" xlink:href="#DejaVuSans-101"/>
      <use x="339.705078" xlink:href="#DejaVuSans-120"/>
      <use x="398.884766" xlink:href="#DejaVuSans-53"/>
     </g>
    </g>
    <g id="line2d_39">
     <path d="M 305.546875 135.727188 
L 325.546875 135.727188 
" style="fill:none;stroke:#e377c2;stroke-dasharray:5.55,2.4;stroke-dashoffset:0;stroke-width:1.5;"/>
    </g>
    <g id="line2d_40"/>
    <g id="text_21">
     <!-- Simplex6 -->
     <g transform="translate(333.546875 139.227188)scale(0.1 -0.1)">
      <defs>
       <path d="M 33.015625 40.375 
Q 26.375 40.375 22.484375 35.828125 
Q 18.609375 31.296875 18.609375 23.390625 
Q 18.609375 15.53125 22.484375 10.953125 
Q 26.375 6.390625 33.015625 6.390625 
Q 39.65625 6.390625 43.53125 10.953125 
Q 47.40625 15.53125 47.40625 23.390625 
Q 47.40625 31.296875 43.53125 35.828125 
Q 39.65625 40.375 33.015625 40.375 
z
M 52.59375 71.296875 
L 52.59375 62.3125 
Q 48.875 64.0625 45.09375 64.984375 
Q 41.3125 65.921875 37.59375 65.921875 
Q 27.828125 65.921875 22.671875 59.328125 
Q 17.53125 52.734375 16.796875 39.40625 
Q 19.671875 43.65625 24.015625 45.921875 
Q 28.375 48.1875 33.59375 48.1875 
Q 44.578125 48.1875 50.953125 41.515625 
Q 57.328125 34.859375 57.328125 23.390625 
Q 57.328125 12.15625 50.6875 5.359375 
Q 44.046875 -1.421875 33.015625 -1.421875 
Q 20.359375 -1.421875 13.671875 8.265625 
Q 6.984375 17.96875 6.984375 36.375 
Q 6.984375 53.65625 15.1875 63.9375 
Q 23.390625 74.21875 37.203125 74.21875 
Q 40.921875 74.21875 44.703125 73.484375 
Q 48.484375 72.75 52.59375 71.296875 
z
" id="DejaVuSans-54"/>
      </defs>
      <use xlink:href="#DejaVuSans-83"/>
      <use x="63.476562" xlink:href="#DejaVuSans-105"/>
      <use x="91.259766" xlink:href="#DejaVuSans-109"/>
      <use x="188.671875" xlink:href="#DejaVuSans-112"/>
      <use x="252.148438" xlink:href="#DejaVuSans-108"/>
      <use x="279.931641" xlink:href="#DejaVuSans-101"/>
      <use x="339.705078" xlink:href="#DejaVuSans-120"/>
      <use x="398.884766" xlink:href="#DejaVuSans-54"/>
     </g>
    </g>
    <g id="line2d_41">
     <path d="M 305.546875 150.405312 
L 325.546875 150.405312 
" style="fill:none;stroke:#7f7f7f;stroke-dasharray:5.55,2.4;stroke-dashoffset:0;stroke-width:1.5;"/>
    </g>
    <g id="line2d_42"/>
    <g id="text_22">
     <!-- Simplex7 -->
     <g transform="translate(333.546875 153.905312)scale(0.1 -0.1)">
      <defs>
       <path d="M 8.203125 72.90625 
L 55.078125 72.90625 
L 55.078125 68.703125 
L 28.609375 0 
L 18.3125 0 
L 43.21875 64.59375 
L 8.203125 64.59375 
z
" id="DejaVuSans-55"/>
      </defs>
      <use xlink:href="#DejaVuSans-83"/>
      <use x="63.476562" xlink:href="#DejaVuSans-105"/>
      <use x="91.259766" xlink:href="#DejaVuSans-109"/>
      <use x="188.671875" xlink:href="#DejaVuSans-112"/>
      <use x="252.148438" xlink:href="#DejaVuSans-108"/>
      <use x="279.931641" xlink:href="#DejaVuSans-101"/>
      <use x="339.705078" xlink:href="#DejaVuSans-120"/>
      <use x="398.884766" xlink:href="#DejaVuSans-55"/>
     </g>
    </g>
    <g id="line2d_43">
     <path d="M 305.546875 165.083438 
L 325.546875 165.083438 
" style="fill:none;stroke:#bcbd22;stroke-dasharray:5.55,2.4;stroke-dashoffset:0;stroke-width:1.5;"/>
    </g>
    <g id="line2d_44"/>
    <g id="text_23">
     <!-- Simplex8 -->
     <g transform="translate(333.546875 168.583438)scale(0.1 -0.1)">
      <defs>
       <path d="M 31.78125 34.625 
Q 24.75 34.625 20.71875 30.859375 
Q 16.703125 27.09375 16.703125 20.515625 
Q 16.703125 13.921875 20.71875 10.15625 
Q 24.75 6.390625 31.78125 6.390625 
Q 38.8125 6.390625 42.859375 10.171875 
Q 46.921875 13.96875 46.921875 20.515625 
Q 46.921875 27.09375 42.890625 30.859375 
Q 38.875 34.625 31.78125 34.625 
z
M 21.921875 38.8125 
Q 15.578125 40.375 12.03125 44.71875 
Q 8.5 49.078125 8.5 55.328125 
Q 8.5 64.0625 14.71875 69.140625 
Q 20.953125 74.21875 31.78125 74.21875 
Q 42.671875 74.21875 48.875 69.140625 
Q 55.078125 64.0625 55.078125 55.328125 
Q 55.078125 49.078125 51.53125 44.71875 
Q 48 40.375 41.703125 38.8125 
Q 48.828125 37.15625 52.796875 32.3125 
Q 56.78125 27.484375 56.78125 20.515625 
Q 56.78125 9.90625 50.3125 4.234375 
Q 43.84375 -1.421875 31.78125 -1.421875 
Q 19.734375 -1.421875 13.25 4.234375 
Q 6.78125 9.90625 6.78125 20.515625 
Q 6.78125 27.484375 10.78125 32.3125 
Q 14.796875 37.15625 21.921875 38.8125 
z
M 18.3125 54.390625 
Q 18.3125 48.734375 21.84375 45.5625 
Q 25.390625 42.390625 31.78125 42.390625 
Q 38.140625 42.390625 41.71875 45.5625 
Q 45.3125 48.734375 45.3125 54.390625 
Q 45.3125 60.0625 41.71875 63.234375 
Q 38.140625 66.40625 31.78125 66.40625 
Q 25.390625 66.40625 21.84375 63.234375 
Q 18.3125 60.0625 18.3125 54.390625 
z
" id="DejaVuSans-56"/>
      </defs>
      <use xlink:href="#DejaVuSans-83"/>
      <use x="63.476562" xlink:href="#DejaVuSans-105"/>
      <use x="91.259766" xlink:href="#DejaVuSans-109"/>
      <use x="188.671875" xlink:href="#DejaVuSans-112"/>
      <use x="252.148438" xlink:href="#DejaVuSans-108"/>
      <use x="279.931641" xlink:href="#DejaVuSans-101"/>
      <use x="339.705078" xlink:href="#DejaVuSans-120"/>
      <use x="398.884766" xlink:href="#DejaVuSans-56"/>
     </g>
    </g>
    <g id="line2d_45">
     <path d="M 305.546875 179.761562 
L 325.546875 179.761562 
" style="fill:none;stroke:#17becf;stroke-dasharray:5.55,2.4;stroke-dashoffset:0;stroke-width:1.5;"/>
    </g>
    <g id="line2d_46"/>
    <g id="text_24">
     <!-- Simplex9 -->
     <g transform="translate(333.546875 183.261562)scale(0.1 -0.1)">
      <defs>
       <path d="M 10.984375 1.515625 
L 10.984375 10.5 
Q 14.703125 8.734375 18.5 7.8125 
Q 22.3125 6.890625 25.984375 6.890625 
Q 35.75 6.890625 40.890625 13.453125 
Q 46.046875 20.015625 46.78125 33.40625 
Q 43.953125 29.203125 39.59375 26.953125 
Q 35.25 24.703125 29.984375 24.703125 
Q 19.046875 24.703125 12.671875 31.3125 
Q 6.296875 37.9375 6.296875 49.421875 
Q 6.296875 60.640625 12.9375 67.421875 
Q 19.578125 74.21875 30.609375 74.21875 
Q 43.265625 74.21875 49.921875 64.515625 
Q 56.59375 54.828125 56.59375 36.375 
Q 56.59375 19.140625 48.40625 8.859375 
Q 40.234375 -1.421875 26.421875 -1.421875 
Q 22.703125 -1.421875 18.890625 -0.6875 
Q 15.09375 0.046875 10.984375 1.515625 
z
M 30.609375 32.421875 
Q 37.25 32.421875 41.125 36.953125 
Q 45.015625 41.5 45.015625 49.421875 
Q 45.015625 57.28125 41.125 61.84375 
Q 37.25 66.40625 30.609375 66.40625 
Q 23.96875 66.40625 20.09375 61.84375 
Q 16.21875 57.28125 16.21875 49.421875 
Q 16.21875 41.5 20.09375 36.953125 
Q 23.96875 32.421875 30.609375 32.421875 
z
" id="DejaVuSans-57"/>
      </defs>
      <use xlink:href="#DejaVuSans-83"/>
      <use x="63.476562" xlink:href="#DejaVuSans-105"/>
      <use x="91.259766" xlink:href="#DejaVuSans-109"/>
      <use x="188.671875" xlink:href="#DejaVuSans-112"/>
      <use x="252.148438" xlink:href="#DejaVuSans-108"/>
      <use x="279.931641" xlink:href="#DejaVuSans-101"/>
      <use x="339.705078" xlink:href="#DejaVuSans-120"/>
      <use x="398.884766" xlink:href="#DejaVuSans-57"/>
     </g>
    </g>
   </g>
  </g>
 </g>
 <defs>
  <clipPath id="pb72534ef8c">
   <rect height="217.44" width="334.8" x="54" y="34.56"/>
  </clipPath>
 </defs>
</svg>
