<?xml version="1.0" encoding="utf-8" standalone="no"?>
<!DOCTYPE svg PUBLIC "-//W3C//DTD SVG 1.1//EN"
  "http://www.w3.org/Graphics/SVG/1.1/DTD/svg11.dtd">
<!-- Created with matplotlib (https://matplotlib.org/) -->
<svg height="269.678664pt" version="1.1" viewBox="0 0 541.362812 269.678664" width="541.362812pt" xmlns="http://www.w3.org/2000/svg" xmlns:xlink="http://www.w3.org/1999/xlink">
 <metadata>
  <rdf:RDF xmlns:cc="http://creativecommons.org/ns#" xmlns:dc="http://purl.org/dc/elements/1.1/" xmlns:rdf="http://www.w3.org/1999/02/22-rdf-syntax-ns#">
   <cc:Work>
    <dc:type rdf:resource="http://purl.org/dc/dcmitype/StillImage"/>
    <dc:date>2021-04-24T16:06:11.623553</dc:date>
    <dc:format>image/svg+xml</dc:format>
    <dc:creator>
     <cc:Agent>
      <dc:title>Matplotlib v3.3.4, https://matplotlib.org/</dc:title>
     </cc:Agent>
    </dc:creator>
   </cc:Work>
  </rdf:RDF>
 </metadata>
 <defs>
  <style type="text/css">*{stroke-linecap:butt;stroke-linejoin:round;}</style>
 </defs>
 <g id="figure_1">
  <g id="patch_1">
   <path d="M 0 269.678664 
L 541.362812 269.678664 
L 541.362812 0 
L 0 0 
z
" style="fill:#ffffff;"/>
  </g>
  <g id="axes_1">
   <g id="patch_2">
    <path d="M 62.782812 89.202071 
L 404.682812 89.202071 
L 404.682812 9.373915 
L 62.782812 9.373915 
z
" style="fill:#ffffff;"/>
   </g>
   <g id="matplotlib.axis_1">
    <g id="xtick_1">
     <g id="line2d_1">
      <defs>
       <path d="M 0 0 
L 0 3.5 
" id="m865a94d855" style="stroke:#000000;stroke-width:0.8;"/>
      </defs>
      <g>
       <use style="stroke:#000000;stroke-width:0.8;" x="78.323722" xlink:href="#m865a94d855" y="89.202071"/>
      </g>
     </g>
     <g id="text_1">
      <!-- 0.0 -->
      <g transform="translate(68.948722 106.617696)scale(0.15 -0.15)">
       <defs>
        <path d="M 3.609375 32.71875 
Q 3.609375 44.046875 7.03125 52.21875 
Q 10.453125 60.40625 16.109375 64.40625 
Q 20.515625 67.578125 25.203125 67.578125 
Q 32.8125 67.578125 38.875 59.8125 
Q 46.4375 50.203125 46.4375 33.734375 
Q 46.4375 22.21875 43.109375 14.15625 
Q 39.796875 6.109375 34.640625 2.46875 
Q 29.5 -1.171875 24.703125 -1.171875 
Q 15.234375 -1.171875 8.9375 10.015625 
Q 3.609375 19.4375 3.609375 32.71875 
z
M 13.1875 31.5 
Q 13.1875 17.828125 16.546875 9.1875 
Q 19.34375 1.90625 24.859375 1.90625 
Q 27.484375 1.90625 30.3125 4.265625 
Q 33.15625 6.640625 34.625 12.203125 
Q 36.859375 20.609375 36.859375 35.890625 
Q 36.859375 47.21875 34.515625 54.78125 
Q 32.765625 60.40625 29.984375 62.75 
Q 27.984375 64.359375 25.140625 64.359375 
Q 21.828125 64.359375 19.234375 61.375 
Q 15.71875 57.328125 14.453125 48.625 
Q 13.1875 39.9375 13.1875 31.5 
z
" id="TimesNewRomanPSMT-48"/>
        <path d="M 12.5 9.46875 
Q 14.796875 9.46875 16.359375 7.875 
Q 17.921875 6.296875 17.921875 4.046875 
Q 17.921875 1.8125 16.328125 0.21875 
Q 14.75 -1.375 12.5 -1.375 
Q 10.25 -1.375 8.65625 0.21875 
Q 7.078125 1.8125 7.078125 4.046875 
Q 7.078125 6.34375 8.65625 7.90625 
Q 10.25 9.46875 12.5 9.46875 
z
" id="TimesNewRomanPSMT-46"/>
       </defs>
       <use xlink:href="#TimesNewRomanPSMT-48"/>
       <use x="50" xlink:href="#TimesNewRomanPSMT-46"/>
       <use x="75" xlink:href="#TimesNewRomanPSMT-48"/>
      </g>
     </g>
    </g>
    <g id="xtick_2">
     <g id="line2d_2">
      <g>
       <use style="stroke:#000000;stroke-width:0.8;" x="130.387069" xlink:href="#m865a94d855" y="89.202071"/>
      </g>
     </g>
     <g id="text_2">
      <!-- 0.5 -->
      <g transform="translate(121.012069 106.617696)scale(0.15 -0.15)">
       <defs>
        <path d="M 43.40625 66.21875 
L 39.59375 57.90625 
L 19.671875 57.90625 
L 15.328125 49.03125 
Q 28.265625 47.125 35.84375 39.40625 
Q 42.328125 32.765625 42.328125 23.78125 
Q 42.328125 18.5625 40.203125 14.109375 
Q 38.09375 9.671875 34.859375 6.546875 
Q 31.640625 3.421875 27.6875 1.515625 
Q 22.078125 -1.171875 16.15625 -1.171875 
Q 10.203125 -1.171875 7.484375 0.84375 
Q 4.78125 2.875 4.78125 5.328125 
Q 4.78125 6.6875 5.90625 7.734375 
Q 7.03125 8.796875 8.734375 8.796875 
Q 10.015625 8.796875 10.96875 8.40625 
Q 11.921875 8.015625 14.203125 6.390625 
Q 17.875 3.859375 21.625 3.859375 
Q 27.34375 3.859375 31.65625 8.171875 
Q 35.984375 12.5 35.984375 18.703125 
Q 35.984375 24.703125 32.125 29.90625 
Q 28.265625 35.109375 21.484375 37.9375 
Q 16.15625 40.140625 6.984375 40.484375 
L 19.671875 66.21875 
z
" id="TimesNewRomanPSMT-53"/>
       </defs>
       <use xlink:href="#TimesNewRomanPSMT-48"/>
       <use x="50" xlink:href="#TimesNewRomanPSMT-46"/>
       <use x="75" xlink:href="#TimesNewRomanPSMT-53"/>
      </g>
     </g>
    </g>
    <g id="xtick_3">
     <g id="line2d_3">
      <g>
       <use style="stroke:#000000;stroke-width:0.8;" x="182.450416" xlink:href="#m865a94d855" y="89.202071"/>
      </g>
     </g>
     <g id="text_3">
      <!-- 1.0 -->
      <g transform="translate(173.075416 106.617696)scale(0.15 -0.15)">
       <defs>
        <path d="M 11.71875 59.71875 
L 27.828125 67.578125 
L 29.4375 67.578125 
L 29.4375 11.671875 
Q 29.4375 6.109375 29.90625 4.734375 
Q 30.375 3.375 31.828125 2.640625 
Q 33.296875 1.90625 37.796875 1.8125 
L 37.796875 0 
L 12.890625 0 
L 12.890625 1.8125 
Q 17.578125 1.90625 18.9375 2.609375 
Q 20.3125 3.328125 20.84375 4.515625 
Q 21.390625 5.71875 21.390625 11.671875 
L 21.390625 47.40625 
Q 21.390625 54.640625 20.90625 56.6875 
Q 20.5625 58.25 19.65625 58.984375 
Q 18.75 59.71875 17.484375 59.71875 
Q 15.671875 59.71875 12.453125 58.203125 
z
" id="TimesNewRomanPSMT-49"/>
       </defs>
       <use xlink:href="#TimesNewRomanPSMT-49"/>
       <use x="50" xlink:href="#TimesNewRomanPSMT-46"/>
       <use x="75" xlink:href="#TimesNewRomanPSMT-48"/>
      </g>
     </g>
    </g>
    <g id="xtick_4">
     <g id="line2d_4">
      <g>
       <use style="stroke:#000000;stroke-width:0.8;" x="234.513763" xlink:href="#m865a94d855" y="89.202071"/>
      </g>
     </g>
     <g id="text_4">
      <!-- 1.5 -->
      <g transform="translate(225.138763 106.617696)scale(0.15 -0.15)">
       <use xlink:href="#TimesNewRomanPSMT-49"/>
       <use x="50" xlink:href="#TimesNewRomanPSMT-46"/>
       <use x="75" xlink:href="#TimesNewRomanPSMT-53"/>
      </g>
     </g>
    </g>
    <g id="xtick_5">
     <g id="line2d_5">
      <g>
       <use style="stroke:#000000;stroke-width:0.8;" x="286.57711" xlink:href="#m865a94d855" y="89.202071"/>
      </g>
     </g>
     <g id="text_5">
      <!-- 2.0 -->
      <g transform="translate(277.20211 106.617696)scale(0.15 -0.15)">
       <defs>
        <path d="M 45.84375 12.75 
L 41.21875 0 
L 2.15625 0 
L 2.15625 1.8125 
Q 19.390625 17.53125 26.421875 27.484375 
Q 33.453125 37.453125 33.453125 45.703125 
Q 33.453125 52 29.59375 56.046875 
Q 25.734375 60.109375 20.359375 60.109375 
Q 15.484375 60.109375 11.59375 57.25 
Q 7.71875 54.390625 5.859375 48.875 
L 4.046875 48.875 
Q 5.28125 57.90625 10.328125 62.734375 
Q 15.375 67.578125 22.953125 67.578125 
Q 31 67.578125 36.390625 62.40625 
Q 41.796875 57.234375 41.796875 50.203125 
Q 41.796875 45.171875 39.453125 40.140625 
Q 35.84375 32.234375 27.734375 23.390625 
Q 15.578125 10.109375 12.546875 7.375 
L 29.828125 7.375 
Q 35.109375 7.375 37.234375 7.765625 
Q 39.359375 8.15625 41.0625 9.34375 
Q 42.78125 10.546875 44.046875 12.75 
z
" id="TimesNewRomanPSMT-50"/>
       </defs>
       <use xlink:href="#TimesNewRomanPSMT-50"/>
       <use x="50" xlink:href="#TimesNewRomanPSMT-46"/>
       <use x="75" xlink:href="#TimesNewRomanPSMT-48"/>
      </g>
     </g>
    </g>
    <g id="xtick_6">
     <g id="line2d_6">
      <g>
       <use style="stroke:#000000;stroke-width:0.8;" x="338.640457" xlink:href="#m865a94d855" y="89.202071"/>
      </g>
     </g>
     <g id="text_6">
      <!-- 2.5 -->
      <g transform="translate(329.265457 106.617696)scale(0.15 -0.15)">
       <use xlink:href="#TimesNewRomanPSMT-50"/>
       <use x="50" xlink:href="#TimesNewRomanPSMT-46"/>
       <use x="75" xlink:href="#TimesNewRomanPSMT-53"/>
      </g>
     </g>
    </g>
    <g id="xtick_7">
     <g id="line2d_7">
      <g>
       <use style="stroke:#000000;stroke-width:0.8;" x="390.703804" xlink:href="#m865a94d855" y="89.202071"/>
      </g>
     </g>
     <g id="text_7">
      <!-- 3.0 -->
      <g transform="translate(381.328804 106.617696)scale(0.15 -0.15)">
       <defs>
        <path d="M 5.078125 53.609375 
Q 7.90625 60.296875 12.21875 63.9375 
Q 16.546875 67.578125 23 67.578125 
Q 30.953125 67.578125 35.203125 62.40625 
Q 38.421875 58.546875 38.421875 54.15625 
Q 38.421875 46.921875 29.34375 39.203125 
Q 35.453125 36.8125 38.578125 32.375 
Q 41.703125 27.9375 41.703125 21.921875 
Q 41.703125 13.328125 36.234375 7.03125 
Q 29.109375 -1.171875 15.578125 -1.171875 
Q 8.890625 -1.171875 6.46875 0.484375 
Q 4.046875 2.15625 4.046875 4.046875 
Q 4.046875 5.46875 5.1875 6.546875 
Q 6.34375 7.625 7.953125 7.625 
Q 9.1875 7.625 10.453125 7.234375 
Q 11.28125 6.984375 14.203125 5.4375 
Q 17.140625 3.90625 18.265625 3.609375 
Q 20.0625 3.078125 22.125 3.078125 
Q 27.09375 3.078125 30.78125 6.9375 
Q 34.46875 10.796875 34.46875 16.0625 
Q 34.46875 19.921875 32.765625 23.578125 
Q 31.5 26.3125 29.984375 27.734375 
Q 27.875 29.6875 24.21875 31.265625 
Q 20.5625 32.859375 16.75 32.859375 
L 15.1875 32.859375 
L 15.1875 34.328125 
Q 19.046875 34.8125 22.921875 37.109375 
Q 26.8125 39.40625 28.5625 42.625 
Q 30.328125 45.84375 30.328125 49.703125 
Q 30.328125 54.734375 27.171875 57.828125 
Q 24.03125 60.9375 19.34375 60.9375 
Q 11.765625 60.9375 6.6875 52.828125 
z
" id="TimesNewRomanPSMT-51"/>
       </defs>
       <use xlink:href="#TimesNewRomanPSMT-51"/>
       <use x="50" xlink:href="#TimesNewRomanPSMT-46"/>
       <use x="75" xlink:href="#TimesNewRomanPSMT-48"/>
      </g>
     </g>
    </g>
    <g id="text_8">
     <!-- Time -->
     <g transform="translate(218.167969 124.241914)scale(0.15 -0.15)">
      <defs>
       <path d="M 57.859375 66.21875 
L 58.59375 50.6875 
L 56.734375 50.6875 
Q 56.203125 54.78125 55.28125 56.546875 
Q 53.765625 59.375 51.25 60.71875 
Q 48.734375 62.0625 44.625 62.0625 
L 35.296875 62.0625 
L 35.296875 11.46875 
Q 35.296875 5.375 36.625 3.859375 
Q 38.484375 1.8125 42.328125 1.8125 
L 44.625 1.8125 
L 44.625 0 
L 16.546875 0 
L 16.546875 1.8125 
L 18.890625 1.8125 
Q 23.09375 1.8125 24.859375 4.34375 
Q 25.921875 5.90625 25.921875 11.46875 
L 25.921875 62.0625 
L 17.96875 62.0625 
Q 13.328125 62.0625 11.375 61.375 
Q 8.84375 60.453125 7.03125 57.8125 
Q 5.21875 55.171875 4.890625 50.6875 
L 3.03125 50.6875 
L 3.8125 66.21875 
z
" id="TimesNewRomanPSMT-84"/>
       <path d="M 14.5 69.4375 
Q 16.546875 69.4375 17.984375 67.984375 
Q 19.4375 66.546875 19.4375 64.5 
Q 19.4375 62.453125 17.984375 60.984375 
Q 16.546875 59.515625 14.5 59.515625 
Q 12.453125 59.515625 10.984375 60.984375 
Q 9.515625 62.453125 9.515625 64.5 
Q 9.515625 66.546875 10.953125 67.984375 
Q 12.40625 69.4375 14.5 69.4375 
z
M 18.5625 46.046875 
L 18.5625 10.109375 
Q 18.5625 5.90625 19.171875 4.515625 
Q 19.78125 3.125 20.96875 2.4375 
Q 22.171875 1.765625 25.34375 1.765625 
L 25.34375 0 
L 3.609375 0 
L 3.609375 1.765625 
Q 6.890625 1.765625 8 2.390625 
Q 9.125 3.03125 9.78125 4.484375 
Q 10.453125 5.953125 10.453125 10.109375 
L 10.453125 27.34375 
Q 10.453125 34.625 10.015625 36.765625 
Q 9.671875 38.328125 8.9375 38.9375 
Q 8.203125 39.546875 6.9375 39.546875 
Q 5.5625 39.546875 3.609375 38.8125 
L 2.9375 40.578125 
L 16.40625 46.046875 
z
" id="TimesNewRomanPSMT-105"/>
       <path d="M 16.40625 36.53125 
Q 21.296875 41.40625 22.171875 42.140625 
Q 24.359375 44 26.890625 45.015625 
Q 29.4375 46.046875 31.9375 46.046875 
Q 36.140625 46.046875 39.15625 43.59375 
Q 42.1875 41.15625 43.21875 36.53125 
Q 48.25 42.390625 51.703125 44.21875 
Q 55.171875 46.046875 58.84375 46.046875 
Q 62.40625 46.046875 65.15625 44.21875 
Q 67.921875 42.390625 69.53125 38.234375 
Q 70.609375 35.40625 70.609375 29.34375 
L 70.609375 10.109375 
Q 70.609375 5.90625 71.234375 4.34375 
Q 71.734375 3.265625 73.046875 2.515625 
Q 74.359375 1.765625 77.34375 1.765625 
L 77.34375 0 
L 55.28125 0 
L 55.28125 1.765625 
L 56.203125 1.765625 
Q 59.078125 1.765625 60.6875 2.875 
Q 61.8125 3.65625 62.3125 5.375 
Q 62.5 6.203125 62.5 10.109375 
L 62.5 29.34375 
Q 62.5 34.8125 61.1875 37.0625 
Q 59.28125 40.1875 55.078125 40.1875 
Q 52.484375 40.1875 49.875 38.890625 
Q 47.265625 37.59375 43.5625 34.078125 
L 43.453125 33.546875 
L 43.5625 31.453125 
L 43.5625 10.109375 
Q 43.5625 5.515625 44.0625 4.390625 
Q 44.578125 3.265625 45.984375 2.515625 
Q 47.40625 1.765625 50.828125 1.765625 
L 50.828125 0 
L 28.21875 0 
L 28.21875 1.765625 
Q 31.9375 1.765625 33.328125 2.640625 
Q 34.71875 3.515625 35.25 5.28125 
Q 35.5 6.109375 35.5 10.109375 
L 35.5 29.34375 
Q 35.5 34.8125 33.890625 37.203125 
Q 31.734375 40.328125 27.875 40.328125 
Q 25.25 40.328125 22.65625 38.921875 
Q 18.609375 36.765625 16.40625 34.078125 
L 16.40625 10.109375 
Q 16.40625 5.71875 17.015625 4.390625 
Q 17.625 3.078125 18.8125 2.421875 
Q 20.015625 1.765625 23.6875 1.765625 
L 23.6875 0 
L 1.5625 0 
L 1.5625 1.765625 
Q 4.640625 1.765625 5.859375 2.421875 
Q 7.078125 3.078125 7.703125 4.515625 
Q 8.34375 5.953125 8.34375 10.109375 
L 8.34375 27.203125 
Q 8.34375 34.578125 7.90625 36.71875 
Q 7.5625 38.328125 6.828125 38.9375 
Q 6.109375 39.546875 4.828125 39.546875 
Q 3.46875 39.546875 1.5625 38.8125 
L 0.828125 40.578125 
L 14.3125 46.046875 
L 16.40625 46.046875 
z
" id="TimesNewRomanPSMT-109"/>
       <path d="M 10.640625 27.875 
Q 10.59375 17.921875 15.484375 12.25 
Q 20.359375 6.59375 26.953125 6.59375 
Q 31.34375 6.59375 34.59375 9 
Q 37.84375 11.421875 40.046875 17.28125 
L 41.546875 16.3125 
Q 40.53125 9.625 35.59375 4.125 
Q 30.671875 -1.375 23.25 -1.375 
Q 15.1875 -1.375 9.453125 4.90625 
Q 3.71875 11.1875 3.71875 21.78125 
Q 3.71875 33.25 9.59375 39.671875 
Q 15.484375 46.09375 24.359375 46.09375 
Q 31.890625 46.09375 36.71875 41.140625 
Q 41.546875 36.1875 41.546875 27.875 
z
M 10.640625 30.71875 
L 31.34375 30.71875 
Q 31.109375 35.015625 30.328125 36.765625 
Q 29.109375 39.5 26.6875 41.0625 
Q 24.265625 42.625 21.625 42.625 
Q 17.578125 42.625 14.375 39.46875 
Q 11.1875 36.328125 10.640625 30.71875 
z
" id="TimesNewRomanPSMT-101"/>
      </defs>
      <use xlink:href="#TimesNewRomanPSMT-84"/>
      <use x="57.583984" xlink:href="#TimesNewRomanPSMT-105"/>
      <use x="85.367188" xlink:href="#TimesNewRomanPSMT-109"/>
      <use x="163.150391" xlink:href="#TimesNewRomanPSMT-101"/>
     </g>
    </g>
   </g>
   <g id="matplotlib.axis_2">
    <g id="ytick_1">
     <g id="line2d_8">
      <defs>
       <path d="M 0 0 
L -3.5 0 
" id="ma3232da63f" style="stroke:#000000;stroke-width:0.8;"/>
      </defs>
      <g>
       <use style="stroke:#000000;stroke-width:0.8;" x="62.782812" xlink:href="#ma3232da63f" y="77.602735"/>
      </g>
     </g>
     <g id="text_9">
      <!-- −250 -->
      <g transform="translate(24.824219 82.810548)scale(0.15 -0.15)">
       <defs>
        <path d="M 54.4375 31.25 
L 1.8125 31.25 
L 1.8125 35.25 
L 54.4375 35.25 
z
" id="TimesNewRomanPSMT-8722"/>
       </defs>
       <use xlink:href="#TimesNewRomanPSMT-8722"/>
       <use x="56.396484" xlink:href="#TimesNewRomanPSMT-50"/>
       <use x="106.396484" xlink:href="#TimesNewRomanPSMT-53"/>
       <use x="156.396484" xlink:href="#TimesNewRomanPSMT-48"/>
      </g>
     </g>
    </g>
    <g id="ytick_2">
     <g id="line2d_9">
      <g>
       <use style="stroke:#000000;stroke-width:0.8;" x="62.782812" xlink:href="#ma3232da63f" y="45.005274"/>
      </g>
     </g>
     <g id="text_10">
      <!-- 0 -->
      <g transform="translate(48.282812 50.213086)scale(0.15 -0.15)">
       <use xlink:href="#TimesNewRomanPSMT-48"/>
      </g>
     </g>
    </g>
    <g id="ytick_3">
     <g id="line2d_10">
      <g>
       <use style="stroke:#000000;stroke-width:0.8;" x="62.782812" xlink:href="#ma3232da63f" y="12.407813"/>
      </g>
     </g>
     <g id="text_11">
      <!-- 250 -->
      <g transform="translate(33.282812 17.615625)scale(0.15 -0.15)">
       <use xlink:href="#TimesNewRomanPSMT-50"/>
       <use x="50" xlink:href="#TimesNewRomanPSMT-53"/>
       <use x="100" xlink:href="#TimesNewRomanPSMT-48"/>
      </g>
     </g>
    </g>
    <g id="text_12">
     <!-- $u_1$ -->
     <g transform="translate(17.615625 57.612993)rotate(-90)scale(0.15 -0.15)">
      <defs>
       <path d="M 6.6875 21.6875 
L 13.09375 54.6875 
L 22.125 54.6875 
L 15.71875 22.015625 
Q 15.234375 19.625 15.015625 17.921875 
Q 14.796875 16.21875 14.796875 15.09375 
Q 14.796875 10.9375 17.328125 8.65625 
Q 19.875 6.390625 24.515625 6.390625 
Q 31.734375 6.390625 37 11.265625 
Q 42.28125 16.15625 43.890625 24.421875 
L 49.90625 54.6875 
L 58.890625 54.6875 
L 48.296875 0 
L 39.3125 0 
L 41.109375 8.59375 
Q 37.3125 3.8125 32.0625 1.1875 
Q 26.8125 -1.421875 20.90625 -1.421875 
Q 13.71875 -1.421875 9.71875 2.515625 
Q 5.71875 6.453125 5.71875 13.484375 
Q 5.71875 14.9375 5.953125 17.140625 
Q 6.203125 19.34375 6.6875 21.6875 
z
" id="DejaVuSans-Oblique-117"/>
       <path d="M 12.40625 8.296875 
L 28.515625 8.296875 
L 28.515625 63.921875 
L 10.984375 60.40625 
L 10.984375 69.390625 
L 28.421875 72.90625 
L 38.28125 72.90625 
L 38.28125 8.296875 
L 54.390625 8.296875 
L 54.390625 0 
L 12.40625 0 
z
" id="DejaVuSans-49"/>
      </defs>
      <use transform="translate(0 0.3125)" xlink:href="#DejaVuSans-Oblique-117"/>
      <use transform="translate(63.378906 -16.09375)scale(0.7)" xlink:href="#DejaVuSans-49"/>
     </g>
    </g>
   </g>
   <g id="line2d_11">
    <path clip-path="url(#p2e24555d85)" d="M 78.323722 50.220868 
L 81.447522 55.409778 
L 83.009423 57.655589 
L 84.571323 59.621566 
L 86.133224 61.290215 
L 87.695124 62.644625 
L 89.257024 63.661423 
L 90.818925 64.308979 
L 92.380825 64.550536 
L 93.942726 64.350887 
L 95.504626 63.684636 
L 97.066527 62.544028 
L 98.628427 60.944685 
L 100.190327 58.92824 
L 101.752228 56.561558 
L 104.876029 51.146246 
L 107.999829 45.548832 
L 109.56173 42.96036 
L 111.12363 40.646957 
L 112.685531 38.693886 
L 114.247431 37.170849 
L 115.809331 36.130914 
L 117.371232 35.610128 
L 118.933132 35.627449 
L 120.495033 36.184782 
L 122.056933 37.267025 
L 123.618834 38.842165 
L 125.180734 40.861609 
L 126.742634 43.260914 
L 129.866435 48.870839 
L 134.552136 57.819555 
L 136.114037 60.515222 
L 137.675937 62.894428 
L 139.237838 64.866685 
L 140.799738 66.35559 
L 142.361638 67.301852 
L 143.923539 67.665587 
L 145.485439 67.427841 
L 147.04734 66.591307 
L 148.60924 65.180268 
L 150.171141 63.239792 
L 151.733041 60.834234 
L 153.294941 58.045096 
L 156.418742 51.711079 
L 159.542543 45.117851 
L 161.104443 42.018168 
L 162.666344 39.202266 
L 164.228244 36.774519 
L 165.790145 34.826602 
L 167.352045 33.434018 
L 168.913945 32.65315 
L 170.475846 32.518982 
L 172.037746 33.043574 
L 173.599647 34.215362 
L 175.161547 35.999315 
L 176.723447 38.337955 
L 178.285348 41.153194 
L 179.847248 44.348948 
L 182.971049 51.427863 
L 186.09485 58.583388 
L 187.65675 61.867187 
L 189.218651 64.791727 
L 190.780551 67.247927 
L 192.342452 69.142341 
L 193.904352 70.400678 
L 195.466252 70.970689 
L 197.028153 70.824288 
L 198.590053 69.958836 
L 200.151954 68.397518 
L 201.713854 66.188802 
L 203.275754 63.404976 
L 204.837655 60.139815 
L 207.961456 52.628492 
L 212.647157 40.931297 
L 214.209057 37.479426 
L 215.770958 34.471219 
L 217.332858 32.019734 
L 218.894759 30.219252 
L 220.456659 29.141679 
L 222.018559 28.833715 
L 223.58046 29.314902 
L 225.14236 30.576617 
L 226.704261 32.58208 
L 228.266161 35.267358 
L 229.828061 38.54337 
L 231.389962 42.298812 
L 234.513763 50.714903 
L 237.637564 59.339907 
L 239.199464 63.343208 
L 240.761364 66.942122 
L 242.323265 70.002777 
L 243.885165 72.409186 
L 245.447066 74.06761 
L 247.008966 74.910179 
L 248.570866 74.897615 
L 250.132767 74.02096 
L 251.694667 72.30223 
L 253.256568 69.793965 
L 254.818468 66.577675 
L 256.380368 62.76123 
L 259.504169 53.868745 
L 264.189871 39.778483 
L 265.751771 35.555603 
L 267.313671 31.837069 
L 268.875572 28.762152 
L 270.437472 26.448512 
L 271.999373 24.987728 
L 273.561273 24.441718 
L 275.123173 24.840183 
L 276.685074 26.17919 
L 278.246974 28.420937 
L 279.808875 31.494744 
L 281.370775 35.299231 
L 282.932675 39.705628 
L 286.056476 49.698959 
L 289.180277 60.081723 
L 290.742178 64.954369 
L 292.304078 69.374255 
L 293.865978 73.177457 
L 295.427879 76.220421 
L 296.989779 78.385352 
L 298.55168 79.584735 
L 300.11358 79.764813 
L 301.67548 78.907892 
L 303.237381 77.033374 
L 304.799281 74.197472 
L 306.361182 70.491585 
L 307.923082 66.039405 
L 309.484982 60.992824 
L 312.608783 49.833219 
L 315.732584 38.575649 
L 317.294484 33.418175 
L 318.856385 28.831626 
L 320.418285 24.987219 
L 321.980186 22.031372 
L 323.542086 20.080157 
L 325.103987 19.214798 
L 326.665887 19.478365 
L 328.227787 20.873804 
L 329.789688 23.363391 
L 331.351588 26.869638 
L 332.913489 31.277648 
L 334.475389 36.438828 
L 337.59919 48.288795 
L 342.284891 66.693299 
L 343.846791 72.11143 
L 345.408692 76.825431 
L 346.970592 80.658033 
L 348.532493 83.461712 
L 350.094393 85.124323 
L 351.656294 85.573518 
L 353.218194 84.77979 
L 354.780094 82.758003 
L 356.341995 79.567347 
L 357.903895 75.309698 
L 359.465796 70.12642 
L 361.027696 64.193722 
L 364.151497 50.922288 
L 367.275298 37.350041 
L 368.837198 31.061302 
L 370.399098 25.415793 
L 371.960999 20.623609 
L 373.522899 16.866472 
L 375.0848 14.290884 
L 376.6467 13.002468 
L 378.208601 13.061722 
L 379.770501 14.481348 
L 381.332401 17.225265 
L 382.894302 21.209374 
L 384.456202 26.304053 
L 386.018103 32.338314 
L 387.580003 39.105501 
L 389.141903 46.370326 
L 389.141903 46.370326 
" style="fill:none;stroke:#ff0000;stroke-linecap:square;stroke-width:1.5;"/>
   </g>
   <g id="line2d_12">
    <path clip-path="url(#p2e24555d85)" d="M 78.323722 51.186718 
L 79.885622 52.744062 
L 83.009423 56.47172 
L 84.571323 58.079919 
L 86.133224 59.287922 
L 87.695124 60.049573 
L 89.257024 60.394468 
L 90.818925 60.394278 
L 92.380825 60.132019 
L 93.942726 59.680809 
L 97.066527 58.403667 
L 100.190327 56.775188 
L 103.314128 54.878505 
L 111.12363 49.890098 
L 114.247431 48.280193 
L 117.371232 47.092854 
L 118.933132 46.675296 
L 120.495033 46.3778 
L 122.056933 46.198964 
L 125.180734 46.180476 
L 128.304535 46.566898 
L 131.428336 47.278691 
L 134.552136 48.217338 
L 145.485439 51.77853 
L 148.60924 52.512715 
L 151.733041 53.019033 
L 154.856842 53.280623 
L 157.980643 53.303677 
L 161.104443 53.114231 
L 165.790145 52.524894 
L 181.409149 50.042837 
L 186.09485 49.687596 
L 190.780551 49.614232 
L 195.466252 49.788206 
L 201.713854 50.272475 
L 212.647157 51.198406 
L 218.894759 51.481314 
L 225.14236 51.508422 
L 232.951862 51.261653 
L 250.132767 50.58556 
L 257.942269 50.543116 
L 268.875572 50.74237 
L 284.494576 51.033033 
L 296.989779 50.997895 
L 325.103987 50.787623 
L 378.208601 50.859138 
L 389.141903 50.849008 
L 389.141903 50.849008 
" style="fill:none;stroke:#008000;stroke-linecap:square;stroke-width:1.5;"/>
   </g>
   <g id="line2d_13">
    <path clip-path="url(#p2e24555d85)" d="M 78.323722 51.426246 
L 79.885622 52.82084 
L 81.447522 54.67639 
L 84.571323 58.692656 
L 86.133224 60.291 
L 87.695124 61.364234 
L 89.257024 61.857893 
L 90.818925 61.81308 
L 92.380825 61.332777 
L 93.942726 60.543281 
L 97.066527 58.476349 
L 101.752228 54.9872 
L 109.56173 48.933544 
L 112.685531 46.946506 
L 114.247431 46.179507 
L 115.809331 45.591006 
L 117.371232 45.188674 
L 118.933132 44.970944 
L 120.495033 44.929143 
L 122.056933 45.049842 
L 123.618834 45.316862 
L 126.742634 46.218891 
L 129.866435 47.487207 
L 140.799738 52.497431 
L 143.923539 53.479202 
L 147.04734 54.084763 
L 150.171141 54.293743 
L 153.294941 54.129037 
L 156.418742 53.648319 
L 159.542543 52.934546 
L 172.037746 49.699455 
L 175.161547 49.211434 
L 178.285348 48.94684 
L 181.409149 48.908702 
L 184.53295 49.076512 
L 189.218651 49.624449 
L 203.275754 51.670092 
L 207.961456 51.973129 
L 212.647157 51.983852 
L 217.332858 51.745843 
L 225.14236 51.056498 
L 232.951862 50.434669 
L 237.637564 50.245501 
L 243.885165 50.253684 
L 251.694667 50.57548 
L 264.189871 51.162074 
L 271.999373 51.249237 
L 281.370775 51.056593 
L 296.989779 50.670242 
L 306.361182 50.68941 
L 336.037289 50.981389 
L 370.399098 50.830639 
L 389.141903 50.914427 
L 389.141903 50.914427 
" style="fill:none;stroke:#0000ff;stroke-linecap:square;stroke-width:1.5;"/>
   </g>
   <g id="line2d_14">
    <path clip-path="url(#p2e24555d85)" d="M 78.323722 51.262156 
L 79.885622 52.782026 
L 84.571323 58.247929 
L 86.133224 59.528073 
L 87.695124 60.33749 
L 89.257024 60.693939 
L 90.818925 60.668523 
L 92.380825 60.352062 
L 93.942726 59.829344 
L 97.066527 58.39944 
L 100.190327 56.640547 
L 103.314128 54.636795 
L 109.56173 50.413199 
L 112.685531 48.59542 
L 115.809331 47.203015 
L 117.371232 46.694198 
L 118.933132 46.315894 
L 120.495033 46.067716 
L 122.056933 45.946426 
L 123.618834 45.946429 
L 126.742634 46.278011 
L 129.866435 46.980873 
L 132.990236 47.951006 
L 143.923539 51.779842 
L 147.04734 52.584236 
L 150.171141 53.140942 
L 153.294941 53.429031 
L 156.418742 53.454019 
L 159.542543 53.244333 
L 162.666344 52.846164 
L 167.352045 52.023387 
L 176.723447 50.317449 
L 181.409149 49.761427 
L 186.09485 49.515559 
L 190.780551 49.574862 
L 195.466252 49.875976 
L 214.209057 51.480426 
L 218.894759 51.591431 
L 225.14236 51.498765 
L 234.513763 51.051973 
L 245.447066 50.578079 
L 253.256568 50.496074 
L 262.62797 50.661614 
L 279.808875 51.052007 
L 290.742178 51.036186 
L 321.980186 50.781399 
L 362.589596 50.890997 
L 389.141903 50.851534 
L 389.141903 50.851534 
" style="fill:none;stroke:#ffa500;stroke-linecap:square;stroke-width:1.5;"/>
   </g>
   <g id="patch_3">
    <path d="M 62.782812 89.202071 
L 62.782812 9.373915 
" style="fill:none;stroke:#000000;stroke-linecap:square;stroke-linejoin:miter;stroke-width:0.8;"/>
   </g>
   <g id="patch_4">
    <path d="M 404.682812 89.202071 
L 404.682812 9.373915 
" style="fill:none;stroke:#000000;stroke-linecap:square;stroke-linejoin:miter;stroke-width:0.8;"/>
   </g>
   <g id="patch_5">
    <path d="M 62.782812 89.202071 
L 404.682813 89.202071 
" style="fill:none;stroke:#000000;stroke-linecap:square;stroke-linejoin:miter;stroke-width:0.8;"/>
   </g>
   <g id="patch_6">
    <path d="M 62.782812 9.373915 
L 404.682813 9.373915 
" style="fill:none;stroke:#000000;stroke-linecap:square;stroke-linejoin:miter;stroke-width:0.8;"/>
   </g>
  </g>
  <g id="axes_2">
   <g id="patch_7">
    <path d="M 62.782812 224.230226 
L 404.682812 224.230226 
L 404.682812 144.402071 
L 62.782812 144.402071 
z
" style="fill:#ffffff;"/>
   </g>
   <g id="matplotlib.axis_3">
    <g id="xtick_8">
     <g id="line2d_15">
      <g>
       <use style="stroke:#000000;stroke-width:0.8;" x="78.323722" xlink:href="#m865a94d855" y="224.230226"/>
      </g>
     </g>
     <g id="text_13">
      <!-- 0.0 -->
      <g transform="translate(68.948722 241.645851)scale(0.15 -0.15)">
       <use xlink:href="#TimesNewRomanPSMT-48"/>
       <use x="50" xlink:href="#TimesNewRomanPSMT-46"/>
       <use x="75" xlink:href="#TimesNewRomanPSMT-48"/>
      </g>
     </g>
    </g>
    <g id="xtick_9">
     <g id="line2d_16">
      <g>
       <use style="stroke:#000000;stroke-width:0.8;" x="130.387069" xlink:href="#m865a94d855" y="224.230226"/>
      </g>
     </g>
     <g id="text_14">
      <!-- 0.5 -->
      <g transform="translate(121.012069 241.645851)scale(0.15 -0.15)">
       <use xlink:href="#TimesNewRomanPSMT-48"/>
       <use x="50" xlink:href="#TimesNewRomanPSMT-46"/>
       <use x="75" xlink:href="#TimesNewRomanPSMT-53"/>
      </g>
     </g>
    </g>
    <g id="xtick_10">
     <g id="line2d_17">
      <g>
       <use style="stroke:#000000;stroke-width:0.8;" x="182.450416" xlink:href="#m865a94d855" y="224.230226"/>
      </g>
     </g>
     <g id="text_15">
      <!-- 1.0 -->
      <g transform="translate(173.075416 241.645851)scale(0.15 -0.15)">
       <use xlink:href="#TimesNewRomanPSMT-49"/>
       <use x="50" xlink:href="#TimesNewRomanPSMT-46"/>
       <use x="75" xlink:href="#TimesNewRomanPSMT-48"/>
      </g>
     </g>
    </g>
    <g id="xtick_11">
     <g id="line2d_18">
      <g>
       <use style="stroke:#000000;stroke-width:0.8;" x="234.513763" xlink:href="#m865a94d855" y="224.230226"/>
      </g>
     </g>
     <g id="text_16">
      <!-- 1.5 -->
      <g transform="translate(225.138763 241.645851)scale(0.15 -0.15)">
       <use xlink:href="#TimesNewRomanPSMT-49"/>
       <use x="50" xlink:href="#TimesNewRomanPSMT-46"/>
       <use x="75" xlink:href="#TimesNewRomanPSMT-53"/>
      </g>
     </g>
    </g>
    <g id="xtick_12">
     <g id="line2d_19">
      <g>
       <use style="stroke:#000000;stroke-width:0.8;" x="286.57711" xlink:href="#m865a94d855" y="224.230226"/>
      </g>
     </g>
     <g id="text_17">
      <!-- 2.0 -->
      <g transform="translate(277.20211 241.645851)scale(0.15 -0.15)">
       <use xlink:href="#TimesNewRomanPSMT-50"/>
       <use x="50" xlink:href="#TimesNewRomanPSMT-46"/>
       <use x="75" xlink:href="#TimesNewRomanPSMT-48"/>
      </g>
     </g>
    </g>
    <g id="xtick_13">
     <g id="line2d_20">
      <g>
       <use style="stroke:#000000;stroke-width:0.8;" x="338.640457" xlink:href="#m865a94d855" y="224.230226"/>
      </g>
     </g>
     <g id="text_18">
      <!-- 2.5 -->
      <g transform="translate(329.265457 241.645851)scale(0.15 -0.15)">
       <use xlink:href="#TimesNewRomanPSMT-50"/>
       <use x="50" xlink:href="#TimesNewRomanPSMT-46"/>
       <use x="75" xlink:href="#TimesNewRomanPSMT-53"/>
      </g>
     </g>
    </g>
    <g id="xtick_14">
     <g id="line2d_21">
      <g>
       <use style="stroke:#000000;stroke-width:0.8;" x="390.703804" xlink:href="#m865a94d855" y="224.230226"/>
      </g>
     </g>
     <g id="text_19">
      <!-- 3.0 -->
      <g transform="translate(381.328804 241.645851)scale(0.15 -0.15)">
       <use xlink:href="#TimesNewRomanPSMT-51"/>
       <use x="50" xlink:href="#TimesNewRomanPSMT-46"/>
       <use x="75" xlink:href="#TimesNewRomanPSMT-48"/>
      </g>
     </g>
    </g>
    <g id="text_20">
     <!-- Time -->
     <g transform="translate(218.167969 259.27007)scale(0.15 -0.15)">
      <use xlink:href="#TimesNewRomanPSMT-84"/>
      <use x="57.583984" xlink:href="#TimesNewRomanPSMT-105"/>
      <use x="85.367188" xlink:href="#TimesNewRomanPSMT-109"/>
      <use x="163.150391" xlink:href="#TimesNewRomanPSMT-101"/>
     </g>
    </g>
   </g>
   <g id="matplotlib.axis_4">
    <g id="ytick_4">
     <g id="line2d_22">
      <g>
       <use style="stroke:#000000;stroke-width:0.8;" x="62.782812" xlink:href="#ma3232da63f" y="203.450406"/>
      </g>
     </g>
     <g id="text_21">
      <!-- −250 -->
      <g transform="translate(24.824219 208.658218)scale(0.15 -0.15)">
       <use xlink:href="#TimesNewRomanPSMT-8722"/>
       <use x="56.396484" xlink:href="#TimesNewRomanPSMT-50"/>
       <use x="106.396484" xlink:href="#TimesNewRomanPSMT-53"/>
       <use x="156.396484" xlink:href="#TimesNewRomanPSMT-48"/>
      </g>
     </g>
    </g>
    <g id="ytick_5">
     <g id="line2d_23">
      <g>
       <use style="stroke:#000000;stroke-width:0.8;" x="62.782812" xlink:href="#ma3232da63f" y="180.341844"/>
      </g>
     </g>
     <g id="text_22">
      <!-- 0 -->
      <g transform="translate(48.282812 185.549656)scale(0.15 -0.15)">
       <use xlink:href="#TimesNewRomanPSMT-48"/>
      </g>
     </g>
    </g>
    <g id="ytick_6">
     <g id="line2d_24">
      <g>
       <use style="stroke:#000000;stroke-width:0.8;" x="62.782812" xlink:href="#ma3232da63f" y="157.233282"/>
      </g>
     </g>
     <g id="text_23">
      <!-- 250 -->
      <g transform="translate(33.282812 162.441095)scale(0.15 -0.15)">
       <use xlink:href="#TimesNewRomanPSMT-50"/>
       <use x="50" xlink:href="#TimesNewRomanPSMT-53"/>
       <use x="100" xlink:href="#TimesNewRomanPSMT-48"/>
      </g>
     </g>
    </g>
    <g id="text_24">
     <!-- $u_2$ -->
     <g transform="translate(17.615625 192.641148)rotate(-90)scale(0.15 -0.15)">
      <defs>
       <path d="M 19.1875 8.296875 
L 53.609375 8.296875 
L 53.609375 0 
L 7.328125 0 
L 7.328125 8.296875 
Q 12.9375 14.109375 22.625 23.890625 
Q 32.328125 33.6875 34.8125 36.53125 
Q 39.546875 41.84375 41.421875 45.53125 
Q 43.3125 49.21875 43.3125 52.78125 
Q 43.3125 58.59375 39.234375 62.25 
Q 35.15625 65.921875 28.609375 65.921875 
Q 23.96875 65.921875 18.8125 64.3125 
Q 13.671875 62.703125 7.8125 59.421875 
L 7.8125 69.390625 
Q 13.765625 71.78125 18.9375 73 
Q 24.125 74.21875 28.421875 74.21875 
Q 39.75 74.21875 46.484375 68.546875 
Q 53.21875 62.890625 53.21875 53.421875 
Q 53.21875 48.921875 51.53125 44.890625 
Q 49.859375 40.875 45.40625 35.40625 
Q 44.1875 33.984375 37.640625 27.21875 
Q 31.109375 20.453125 19.1875 8.296875 
z
" id="DejaVuSans-50"/>
      </defs>
      <use transform="translate(0 0.3125)" xlink:href="#DejaVuSans-Oblique-117"/>
      <use transform="translate(63.378906 -16.09375)scale(0.7)" xlink:href="#DejaVuSans-50"/>
     </g>
    </g>
   </g>
   <g id="line2d_25">
    <path clip-path="url(#p813dee933f)" d="M 78.323722 184.039214 
L 81.447522 188.910636 
L 84.571323 193.902152 
L 86.133224 196.088793 
L 87.695124 197.893064 
L 89.257024 199.21642 
L 90.818925 199.99643 
L 92.380825 200.207569 
L 93.942726 199.85732 
L 95.504626 198.979397 
L 97.066527 197.626049 
L 98.628427 195.861071 
L 100.190327 193.754615 
L 103.314128 188.81357 
L 109.56173 178.240176 
L 111.12363 175.948799 
L 112.685531 173.971618 
L 114.247431 172.387499 
L 115.809331 171.26404 
L 117.371232 170.65333 
L 118.933132 170.588482 
L 120.495033 171.081308 
L 122.056933 172.121335 
L 123.618834 173.676159 
L 125.180734 175.692996 
L 126.742634 178.101162 
L 129.866435 183.738557 
L 134.552136 192.707466 
L 136.114037 195.406807 
L 137.675937 197.792853 
L 139.237838 199.777799 
L 140.799738 201.286865 
L 142.361638 202.261003 
L 143.923539 202.659202 
L 145.485439 202.460292 
L 147.04734 201.664105 
L 148.60924 200.291915 
L 150.171141 198.386077 
L 151.733041 196.008844 
L 153.294941 193.240386 
L 156.418742 186.923157 
L 161.104443 177.200752 
L 162.666344 174.363598 
L 164.228244 171.910179 
L 165.790145 169.932849 
L 167.352045 168.507787 
L 168.913945 167.692127 
L 170.475846 167.521735 
L 172.037746 168.00972 
L 173.599647 169.145726 
L 175.161547 170.896045 
L 176.723447 173.204555 
L 178.285348 175.994473 
L 179.847248 179.170861 
L 182.971049 186.232285 
L 186.09485 193.401118 
L 187.65675 196.702812 
L 189.218651 199.651963 
L 190.780551 202.138594 
L 192.342452 204.06816 
L 193.904352 205.365122 
L 195.466252 205.975877 
L 197.028153 205.87092 
L 198.590053 205.04617 
L 200.151954 203.523387 
L 201.713854 201.349668 
L 203.275754 198.596033 
L 204.837655 195.35513 
L 207.961456 187.870985 
L 212.647157 176.1545 
L 214.209057 172.680388 
L 215.770958 169.64298 
L 217.332858 167.156312 
L 218.894759 165.315871 
L 220.456659 164.194959 
L 222.018559 163.841809 
L 223.58046 164.277574 
L 225.14236 165.495267 
L 226.704261 167.459705 
L 228.266161 170.108462 
L 229.828061 173.353816 
L 231.389962 177.085623 
L 234.513763 185.47893 
L 237.637564 194.116605 
L 239.199464 198.139415 
L 240.761364 201.765921 
L 242.323265 204.861351 
L 243.885165 207.308546 
L 245.447066 209.012371 
L 247.008966 209.903373 
L 248.570866 209.940565 
L 250.132767 209.113214 
L 251.694667 207.441556 
L 253.256568 204.976412 
L 254.818468 201.797699 
L 256.380368 198.011873 
L 257.942269 193.748392 
L 265.751771 170.799144 
L 267.313671 167.047053 
L 268.875572 163.931202 
L 270.437472 161.570642 
L 271.999373 160.058572 
L 273.561273 159.458706 
L 275.123173 159.802655 
L 276.685074 161.088436 
L 278.246974 163.280177 
L 279.808875 166.309031 
L 281.370775 170.075292 
L 282.932675 174.451637 
L 286.056476 184.413747 
L 289.180277 194.807645 
L 290.742178 199.701775 
L 292.304078 204.153008 
L 293.865978 207.996399 
L 295.427879 211.087048 
L 296.989779 213.305528 
L 298.55168 214.562462 
L 300.11358 214.802067 
L 301.67548 214.004531 
L 303.237381 212.187119 
L 304.799281 209.403964 
L 306.361182 205.744522 
L 307.923082 201.330745 
L 309.484982 196.313055 
L 312.608783 185.178493 
L 315.732584 173.899189 
L 317.294484 168.713697 
L 318.856385 164.088736 
L 320.418285 160.196792 
L 321.980186 157.185889 
L 323.542086 155.174 
L 325.103987 154.244466 
L 326.665887 154.442627 
L 328.227787 155.773768 
L 329.789688 158.202488 
L 331.351588 161.653529 
L 332.913489 166.014037 
L 334.475389 171.137216 
L 337.59919 182.945183 
L 342.284891 201.381606 
L 343.846791 206.835178 
L 345.408692 211.595487 
L 346.970592 215.483718 
L 348.532493 218.35045 
L 350.094393 220.08135 
L 351.656294 220.601674 
L 353.218194 219.879387 
L 354.780094 217.926789 
L 356.341995 214.800555 
L 357.903895 210.600193 
L 359.465796 205.464929 
L 361.027696 199.569143 
L 364.151497 186.332862 
L 367.275298 172.739856 
L 368.837198 166.42 
L 370.399098 160.730674 
L 371.960999 155.883411 
L 373.522899 152.061788 
L 375.0848 149.414523 
L 376.6467 148.049737 
L 378.208601 148.030623 
L 379.770501 149.372679 
L 381.332401 152.042623 
L 382.894302 155.959056 
L 384.456202 160.994857 
L 386.018103 166.981254 
L 387.580003 173.713433 
L 389.141903 180.957505 
L 389.141903 180.957505 
" style="fill:none;stroke:#ff0000;stroke-linecap:square;stroke-width:1.5;"/>
   </g>
   <g id="line2d_26">
    <path clip-path="url(#p813dee933f)" d="M 78.323722 187.706153 
L 79.885622 190.963006 
L 81.447522 192.957198 
L 83.009423 193.852695 
L 84.571323 193.986472 
L 86.133224 193.717925 
L 89.257024 192.986275 
L 92.380825 192.554072 
L 95.504626 192.095809 
L 97.066527 191.696556 
L 98.628427 191.146279 
L 101.752228 189.652462 
L 109.56173 185.367509 
L 112.685531 184.017338 
L 115.809331 183.001651 
L 118.933132 182.345773 
L 122.056933 182.061571 
L 125.180734 182.137383 
L 128.304535 182.530051 
L 131.428336 183.16909 
L 136.114037 184.4004 
L 142.361638 186.098428 
L 147.04734 187.102885 
L 150.171141 187.556128 
L 153.294941 187.812161 
L 156.418742 187.871989 
L 159.542543 187.753508 
L 164.228244 187.312336 
L 172.037746 186.229026 
L 178.285348 185.430464 
L 182.971049 185.035717 
L 187.65675 184.867479 
L 192.342452 184.918382 
L 198.590053 185.242119 
L 214.209057 186.266068 
L 220.456659 186.414187 
L 226.704261 186.36244 
L 237.637564 185.991831 
L 248.570866 185.665879 
L 257.942269 185.626262 
L 271.999373 185.861483 
L 286.056476 186.027774 
L 300.11358 185.95133 
L 323.542086 185.817365 
L 389.141903 185.868903 
L 389.141903 185.868903 
" style="fill:none;stroke:#008000;stroke-linecap:square;stroke-width:1.5;"/>
   </g>
   <g id="line2d_27">
    <path clip-path="url(#p813dee933f)" d="M 78.323722 186.161373 
L 79.885622 190.143442 
L 81.447522 193.189816 
L 83.009423 195.039373 
L 84.571323 195.75586 
L 86.133224 195.618127 
L 87.695124 194.98772 
L 90.818925 193.461122 
L 92.380825 192.883942 
L 97.066527 191.604903 
L 98.628427 191.003968 
L 100.190327 190.206594 
L 101.752228 189.218504 
L 109.56173 183.628517 
L 111.12363 182.816158 
L 112.685531 182.170621 
L 114.247431 181.685731 
L 115.809331 181.348695 
L 117.371232 181.145858 
L 118.933132 181.066151 
L 122.056933 181.248504 
L 125.180734 181.853264 
L 128.304535 182.814763 
L 132.990236 184.648865 
L 137.675937 186.479458 
L 140.799738 187.475881 
L 143.923539 188.197202 
L 147.04734 188.60477 
L 150.171141 188.692417 
L 153.294941 188.48394 
L 156.418742 188.03052 
L 161.104443 187.052791 
L 168.913945 185.319117 
L 172.037746 184.797525 
L 175.161547 184.444137 
L 178.285348 184.277072 
L 181.409149 184.293517 
L 186.09485 184.611448 
L 192.342452 185.371765 
L 200.151954 186.33902 
L 204.837655 186.701846 
L 209.523356 186.82664 
L 214.209057 186.723067 
L 220.456659 186.336166 
L 232.951862 185.489467 
L 239.199464 185.34644 
L 245.447066 185.437488 
L 257.942269 185.952298 
L 265.751771 186.171866 
L 273.561273 186.176926 
L 286.056476 185.89742 
L 296.989779 185.71545 
L 307.923082 185.764122 
L 332.913489 185.987209 
L 379.770501 185.901538 
L 389.141903 185.922574 
L 389.141903 185.922574 
" style="fill:none;stroke:#0000ff;stroke-linecap:square;stroke-width:1.5;"/>
   </g>
   <g id="line2d_28">
    <path clip-path="url(#p813dee933f)" d="M 78.323722 187.382787 
L 79.885622 190.840351 
L 81.447522 193.07094 
L 83.009423 194.14954 
L 84.571323 194.371128 
L 86.133224 194.096925 
L 89.257024 193.200671 
L 92.380825 192.614108 
L 95.504626 192.094918 
L 97.066527 191.679532 
L 98.628427 191.107334 
L 100.190327 190.381505 
L 103.314128 188.605991 
L 107.999829 185.824644 
L 111.12363 184.280275 
L 114.247431 183.104492 
L 117.371232 182.317687 
L 120.495033 181.926101 
L 123.618834 181.924133 
L 126.742634 182.277889 
L 129.866435 182.919184 
L 134.552136 184.214947 
L 142.361638 186.457442 
L 145.485439 187.151409 
L 148.60924 187.65124 
L 151.733041 187.934606 
L 154.856842 188.001109 
L 157.980643 187.869997 
L 162.666344 187.38213 
L 170.475846 186.193445 
L 176.723447 185.33464 
L 181.409149 184.92681 
L 186.09485 184.77479 
L 190.780551 184.864618 
L 197.028153 185.255339 
L 211.085257 186.290268 
L 217.332858 186.467778 
L 223.58046 186.414811 
L 232.951862 186.06412 
L 243.885165 185.663562 
L 251.694667 185.579505 
L 261.06607 185.701201 
L 281.370775 186.047061 
L 293.865978 185.980385 
L 317.294484 185.803332 
L 389.141903 185.871877 
L 389.141903 185.871877 
" style="fill:none;stroke:#ffa500;stroke-linecap:square;stroke-width:1.5;"/>
   </g>
   <g id="patch_8">
    <path d="M 62.782812 224.230226 
L 62.782812 144.402071 
" style="fill:none;stroke:#000000;stroke-linecap:square;stroke-linejoin:miter;stroke-width:0.8;"/>
   </g>
   <g id="patch_9">
    <path d="M 404.682812 224.230226 
L 404.682812 144.402071 
" style="fill:none;stroke:#000000;stroke-linecap:square;stroke-linejoin:miter;stroke-width:0.8;"/>
   </g>
   <g id="patch_10">
    <path d="M 62.782812 224.230226 
L 404.682813 224.230226 
" style="fill:none;stroke:#000000;stroke-linecap:square;stroke-linejoin:miter;stroke-width:0.8;"/>
   </g>
   <g id="patch_11">
    <path d="M 62.782812 144.402071 
L 404.682813 144.402071 
" style="fill:none;stroke:#000000;stroke-linecap:square;stroke-linejoin:miter;stroke-width:0.8;"/>
   </g>
  </g>
  <g id="legend_1">
   <g id="patch_12">
    <path d="M 427.602812 171.237101 
L 531.762812 171.237101 
Q 534.162812 171.237101 534.162812 168.837101 
L 534.162812 102.023351 
Q 534.162812 99.623351 531.762812 99.623351 
L 427.602812 99.623351 
Q 425.202812 99.623351 425.202812 102.023351 
L 425.202812 168.837101 
Q 425.202812 171.237101 427.602812 171.237101 
z
" style="fill:#ffffff;opacity:0.8;stroke:#cccccc;stroke-linejoin:miter;"/>
   </g>
   <g id="line2d_29">
    <path d="M 430.002813 108.623351 
L 444.402812 108.623351 
" style="fill:none;stroke:#ff0000;stroke-linecap:square;stroke-width:1.5;"/>
   </g>
   <g id="line2d_30"/>
   <g id="text_25">
    <!-- Initial: $u$ -->
    <g transform="translate(454.002813 112.823351)scale(0.12 -0.12)">
     <defs>
      <path d="M 30.859375 1.8125 
L 30.859375 0 
L 2.484375 0 
L 2.484375 1.8125 
L 4.828125 1.8125 
Q 8.9375 1.8125 10.796875 4.203125 
Q 11.96875 5.765625 11.96875 11.71875 
L 11.96875 54.5 
Q 11.96875 59.515625 11.328125 61.140625 
Q 10.84375 62.359375 9.328125 63.234375 
Q 7.171875 64.40625 4.828125 64.40625 
L 2.484375 64.40625 
L 2.484375 66.21875 
L 30.859375 66.21875 
L 30.859375 64.40625 
L 28.46875 64.40625 
Q 24.421875 64.40625 22.5625 62.015625 
Q 21.34375 60.453125 21.34375 54.5 
L 21.34375 11.71875 
Q 21.34375 6.6875 21.96875 5.078125 
Q 22.46875 3.859375 24.03125 2.984375 
Q 26.125 1.8125 28.46875 1.8125 
z
" id="TimesNewRomanPSMT-73"/>
      <path d="M 16.15625 36.578125 
Q 24.03125 46.046875 31.15625 46.046875 
Q 34.8125 46.046875 37.453125 44.21875 
Q 40.09375 42.390625 41.65625 38.1875 
Q 42.71875 35.25 42.71875 29.203125 
L 42.71875 10.109375 
Q 42.71875 5.859375 43.40625 4.34375 
Q 43.953125 3.125 45.140625 2.4375 
Q 46.34375 1.765625 49.5625 1.765625 
L 49.5625 0 
L 27.4375 0 
L 27.4375 1.765625 
L 28.375 1.765625 
Q 31.5 1.765625 32.734375 2.703125 
Q 33.984375 3.65625 34.46875 5.515625 
Q 34.671875 6.25 34.671875 10.109375 
L 34.671875 28.421875 
Q 34.671875 34.515625 33.078125 37.28125 
Q 31.5 40.046875 27.734375 40.046875 
Q 21.921875 40.046875 16.15625 33.6875 
L 16.15625 10.109375 
Q 16.15625 5.5625 16.703125 4.5 
Q 17.390625 3.078125 18.578125 2.421875 
Q 19.78125 1.765625 23.4375 1.765625 
L 23.4375 0 
L 1.3125 0 
L 1.3125 1.765625 
L 2.296875 1.765625 
Q 5.71875 1.765625 6.90625 3.484375 
Q 8.109375 5.21875 8.109375 10.109375 
L 8.109375 26.703125 
Q 8.109375 34.765625 7.734375 36.515625 
Q 7.375 38.28125 6.609375 38.90625 
Q 5.859375 39.546875 4.59375 39.546875 
Q 3.21875 39.546875 1.3125 38.8125 
L 0.59375 40.578125 
L 14.0625 46.046875 
L 16.15625 46.046875 
z
" id="TimesNewRomanPSMT-110"/>
      <path d="M 16.109375 59.421875 
L 16.109375 44.734375 
L 26.5625 44.734375 
L 26.5625 41.3125 
L 16.109375 41.3125 
L 16.109375 12.3125 
Q 16.109375 7.953125 17.359375 6.4375 
Q 18.609375 4.9375 20.5625 4.9375 
Q 22.171875 4.9375 23.6875 5.9375 
Q 25.203125 6.9375 26.03125 8.890625 
L 27.9375 8.890625 
Q 26.21875 4.109375 23.09375 1.6875 
Q 19.96875 -0.734375 16.65625 -0.734375 
Q 14.40625 -0.734375 12.25 0.515625 
Q 10.109375 1.765625 9.078125 4.078125 
Q 8.0625 6.390625 8.0625 11.234375 
L 8.0625 41.3125 
L 0.984375 41.3125 
L 0.984375 42.921875 
Q 3.65625 44 6.46875 46.5625 
Q 9.28125 49.125 11.46875 52.640625 
Q 12.59375 54.5 14.59375 59.421875 
z
" id="TimesNewRomanPSMT-116"/>
      <path d="M 28.46875 6.453125 
Q 21.578125 1.125 19.828125 0.296875 
Q 17.1875 -0.921875 14.203125 -0.921875 
Q 9.578125 -0.921875 6.5625 2.25 
Q 3.5625 5.421875 3.5625 10.59375 
Q 3.5625 13.875 5.03125 16.265625 
Q 7.03125 19.578125 11.984375 22.5 
Q 16.9375 25.4375 28.46875 29.640625 
L 28.46875 31.390625 
Q 28.46875 38.09375 26.34375 40.578125 
Q 24.21875 43.0625 20.171875 43.0625 
Q 17.09375 43.0625 15.28125 41.40625 
Q 13.421875 39.75 13.421875 37.59375 
L 13.53125 34.765625 
Q 13.53125 32.515625 12.375 31.296875 
Q 11.234375 30.078125 9.375 30.078125 
Q 7.5625 30.078125 6.421875 31.34375 
Q 5.28125 32.625 5.28125 34.8125 
Q 5.28125 39.015625 9.578125 42.53125 
Q 13.875 46.046875 21.625 46.046875 
Q 27.59375 46.046875 31.390625 44.046875 
Q 34.28125 42.53125 35.640625 39.3125 
Q 36.53125 37.203125 36.53125 30.71875 
L 36.53125 15.53125 
Q 36.53125 9.125 36.765625 7.6875 
Q 37.015625 6.25 37.578125 5.765625 
Q 38.140625 5.28125 38.875 5.28125 
Q 39.65625 5.28125 40.234375 5.609375 
Q 41.265625 6.25 44.1875 9.1875 
L 44.1875 6.453125 
Q 38.71875 -0.875 33.734375 -0.875 
Q 31.34375 -0.875 29.921875 0.78125 
Q 28.515625 2.4375 28.46875 6.453125 
z
M 28.46875 9.625 
L 28.46875 26.65625 
Q 21.09375 23.734375 18.953125 22.515625 
Q 15.09375 20.359375 13.421875 18.015625 
Q 11.765625 15.671875 11.765625 12.890625 
Q 11.765625 9.375 13.859375 7.046875 
Q 15.96875 4.734375 18.703125 4.734375 
Q 22.40625 4.734375 28.46875 9.625 
z
" id="TimesNewRomanPSMT-97"/>
      <path d="M 18.5 69.4375 
L 18.5 10.109375 
Q 18.5 5.90625 19.109375 4.53125 
Q 19.734375 3.171875 21 2.46875 
Q 22.265625 1.765625 25.734375 1.765625 
L 25.734375 0 
L 3.8125 0 
L 3.8125 1.765625 
Q 6.890625 1.765625 8 2.390625 
Q 9.125 3.03125 9.765625 4.484375 
Q 10.40625 5.953125 10.40625 10.109375 
L 10.40625 50.734375 
Q 10.40625 58.296875 10.0625 60.03125 
Q 9.71875 61.765625 8.953125 62.390625 
Q 8.203125 63.03125 7.03125 63.03125 
Q 5.765625 63.03125 3.8125 62.25 
L 2.984375 63.96875 
L 16.3125 69.4375 
z
" id="TimesNewRomanPSMT-108"/>
      <path d="M 14.109375 46.09375 
Q 16.359375 46.09375 17.9375 44.5 
Q 19.53125 42.921875 19.53125 40.671875 
Q 19.53125 38.421875 17.9375 36.828125 
Q 16.359375 35.25 14.109375 35.25 
Q 11.859375 35.25 10.265625 36.828125 
Q 8.6875 38.421875 8.6875 40.671875 
Q 8.6875 42.921875 10.265625 44.5 
Q 11.859375 46.09375 14.109375 46.09375 
z
M 14.015625 9.515625 
Q 16.3125 9.515625 17.890625 7.90625 
Q 19.484375 6.296875 19.484375 4.046875 
Q 19.484375 1.8125 17.875 0.21875 
Q 16.265625 -1.375 14.015625 -1.375 
Q 11.765625 -1.375 10.171875 0.21875 
Q 8.59375 1.8125 8.59375 4.046875 
Q 8.59375 6.296875 10.171875 7.90625 
Q 11.765625 9.515625 14.015625 9.515625 
z
" id="TimesNewRomanPSMT-58"/>
      <path id="TimesNewRomanPSMT-32"/>
     </defs>
     <use transform="translate(0 0.5625)" xlink:href="#TimesNewRomanPSMT-73"/>
     <use transform="translate(33.300781 0.5625)" xlink:href="#TimesNewRomanPSMT-110"/>
     <use transform="translate(83.300781 0.5625)" xlink:href="#TimesNewRomanPSMT-105"/>
     <use transform="translate(111.083984 0.5625)" xlink:href="#TimesNewRomanPSMT-116"/>
     <use transform="translate(138.867188 0.5625)" xlink:href="#TimesNewRomanPSMT-105"/>
     <use transform="translate(166.650391 0.5625)" xlink:href="#TimesNewRomanPSMT-97"/>
     <use transform="translate(211.035156 0.5625)" xlink:href="#TimesNewRomanPSMT-108"/>
     <use transform="translate(238.818359 0.5625)" xlink:href="#TimesNewRomanPSMT-58"/>
     <use transform="translate(266.601562 0.5625)" xlink:href="#TimesNewRomanPSMT-32"/>
     <use transform="translate(291.601562 0.5625)" xlink:href="#DejaVuSans-Oblique-117"/>
    </g>
   </g>
   <g id="line2d_31">
    <path d="M 430.002813 125.590226 
L 444.402812 125.590226 
" style="fill:none;stroke:#008000;stroke-linecap:square;stroke-width:1.5;"/>
   </g>
   <g id="line2d_32"/>
   <g id="text_26">
    <!-- DIRECT: $u$ -->
    <g transform="translate(454.002813 129.790226)scale(0.12 -0.12)">
     <defs>
      <path d="M 1.703125 0 
L 1.703125 1.8125 
L 4.203125 1.8125 
Q 8.40625 1.8125 10.15625 4.5 
Q 11.234375 6.109375 11.234375 11.71875 
L 11.234375 54.5 
Q 11.234375 60.6875 9.859375 62.25 
Q 7.953125 64.40625 4.203125 64.40625 
L 1.703125 64.40625 
L 1.703125 66.21875 
L 28.65625 66.21875 
Q 43.5 66.21875 51.234375 62.84375 
Q 58.984375 59.46875 63.6875 51.609375 
Q 68.40625 43.75 68.40625 33.453125 
Q 68.40625 19.625 60.015625 10.359375 
Q 50.59375 0 31.296875 0 
z
M 20.609375 4.78125 
Q 26.8125 3.421875 31 3.421875 
Q 42.328125 3.421875 49.796875 11.375 
Q 57.28125 19.34375 57.28125 32.953125 
Q 57.28125 46.6875 49.796875 54.59375 
Q 42.328125 62.5 30.609375 62.5 
Q 26.21875 62.5 20.609375 61.078125 
z
" id="TimesNewRomanPSMT-68"/>
      <path d="M 67.578125 0 
L 49.90625 0 
L 27.484375 30.953125 
Q 25 30.859375 23.4375 30.859375 
Q 22.796875 30.859375 22.0625 30.875 
Q 21.34375 30.90625 20.5625 30.953125 
L 20.5625 11.71875 
Q 20.5625 5.46875 21.921875 3.953125 
Q 23.78125 1.8125 27.484375 1.8125 
L 30.078125 1.8125 
L 30.078125 0 
L 1.703125 0 
L 1.703125 1.8125 
L 4.203125 1.8125 
Q 8.40625 1.8125 10.203125 4.546875 
Q 11.234375 6.0625 11.234375 11.71875 
L 11.234375 54.5 
Q 11.234375 60.75 9.859375 62.25 
Q 7.953125 64.40625 4.203125 64.40625 
L 1.703125 64.40625 
L 1.703125 66.21875 
L 25.828125 66.21875 
Q 36.375 66.21875 41.375 64.671875 
Q 46.390625 63.140625 49.875 59.015625 
Q 53.375 54.890625 53.375 49.171875 
Q 53.375 43.0625 49.390625 38.5625 
Q 45.40625 34.078125 37.0625 32.234375 
L 50.734375 13.234375 
Q 55.421875 6.6875 58.78125 4.53125 
Q 62.15625 2.390625 67.578125 1.8125 
z
M 20.5625 34.03125 
Q 21.484375 34.03125 22.171875 34 
Q 22.859375 33.984375 23.296875 33.984375 
Q 32.765625 33.984375 37.578125 38.078125 
Q 42.390625 42.1875 42.390625 48.53125 
Q 42.390625 54.734375 38.5 58.609375 
Q 34.625 62.5 28.21875 62.5 
Q 25.390625 62.5 20.5625 61.578125 
z
" id="TimesNewRomanPSMT-82"/>
      <path d="M 20.90625 62.59375 
L 20.90625 36.421875 
L 35.453125 36.421875 
Q 41.109375 36.421875 43.015625 38.140625 
Q 45.5625 40.375 45.84375 46.046875 
L 47.65625 46.046875 
L 47.65625 23 
L 45.84375 23 
Q 45.171875 27.828125 44.484375 29.203125 
Q 43.609375 30.90625 41.59375 31.875 
Q 39.59375 32.859375 35.453125 32.859375 
L 20.90625 32.859375 
L 20.90625 11.03125 
Q 20.90625 6.640625 21.296875 5.6875 
Q 21.6875 4.734375 22.65625 4.171875 
Q 23.640625 3.609375 26.375 3.609375 
L 37.59375 3.609375 
Q 43.21875 3.609375 45.75 4.390625 
Q 48.296875 5.171875 50.640625 7.46875 
Q 53.65625 10.5 56.84375 16.609375 
L 58.796875 16.609375 
L 53.078125 0 
L 2.046875 0 
L 2.046875 1.8125 
L 4.390625 1.8125 
Q 6.734375 1.8125 8.84375 2.9375 
Q 10.40625 3.71875 10.96875 5.28125 
Q 11.53125 6.84375 11.53125 11.671875 
L 11.53125 54.6875 
Q 11.53125 60.984375 10.25 62.453125 
Q 8.5 64.40625 4.390625 64.40625 
L 2.046875 64.40625 
L 2.046875 66.21875 
L 53.078125 66.21875 
L 53.8125 51.703125 
L 51.90625 51.703125 
Q 50.875 56.9375 49.625 58.890625 
Q 48.390625 60.84375 45.953125 61.859375 
Q 44 62.59375 39.0625 62.59375 
z
" id="TimesNewRomanPSMT-69"/>
      <path d="M 60.203125 67.71875 
L 61.71875 45.21875 
L 60.203125 45.21875 
Q 57.171875 55.328125 51.5625 59.765625 
Q 45.953125 64.203125 38.09375 64.203125 
Q 31.5 64.203125 26.171875 60.859375 
Q 20.84375 57.515625 17.796875 50.1875 
Q 14.75 42.875 14.75 31.984375 
Q 14.75 23 17.625 16.40625 
Q 20.515625 9.8125 26.296875 6.296875 
Q 32.078125 2.78125 39.5 2.78125 
Q 45.953125 2.78125 50.875 5.53125 
Q 55.8125 8.296875 61.71875 16.5 
L 63.234375 15.53125 
Q 58.25 6.6875 51.609375 2.578125 
Q 44.96875 -1.515625 35.84375 -1.515625 
Q 19.390625 -1.515625 10.359375 10.6875 
Q 3.609375 19.78125 3.609375 32.078125 
Q 3.609375 42 8.046875 50.296875 
Q 12.5 58.59375 20.28125 63.15625 
Q 28.078125 67.71875 37.3125 67.71875 
Q 44.484375 67.71875 51.46875 64.203125 
Q 53.515625 63.140625 54.390625 63.140625 
Q 55.71875 63.140625 56.6875 64.0625 
Q 57.953125 65.375 58.5 67.71875 
z
" id="TimesNewRomanPSMT-67"/>
     </defs>
     <use transform="translate(0 0.28125)" xlink:href="#TimesNewRomanPSMT-68"/>
     <use transform="translate(72.216797 0.28125)" xlink:href="#TimesNewRomanPSMT-73"/>
     <use transform="translate(105.517578 0.28125)" xlink:href="#TimesNewRomanPSMT-82"/>
     <use transform="translate(172.216797 0.28125)" xlink:href="#TimesNewRomanPSMT-69"/>
     <use transform="translate(233.300781 0.28125)" xlink:href="#TimesNewRomanPSMT-67"/>
     <use transform="translate(300 0.28125)" xlink:href="#TimesNewRomanPSMT-84"/>
     <use transform="translate(361.083984 0.28125)" xlink:href="#TimesNewRomanPSMT-58"/>
     <use transform="translate(388.867188 0.28125)" xlink:href="#TimesNewRomanPSMT-32"/>
     <use transform="translate(413.867188 0.28125)" xlink:href="#DejaVuSans-Oblique-117"/>
    </g>
   </g>
   <g id="line2d_33">
    <path d="M 430.002813 142.557101 
L 444.402812 142.557101 
" style="fill:none;stroke:#0000ff;stroke-linecap:square;stroke-width:1.5;"/>
   </g>
   <g id="line2d_34"/>
   <g id="text_27">
    <!-- CUATRO_g: $u$ -->
    <g transform="translate(454.002813 146.757101)scale(0.12 -0.12)">
     <defs>
      <path d="M 47.703125 64.40625 
L 47.703125 66.21875 
L 71.140625 66.21875 
L 71.140625 64.40625 
L 68.65625 64.40625 
Q 64.75 64.40625 62.640625 61.140625 
Q 61.625 59.625 61.625 54.109375 
L 61.625 27.25 
Q 61.625 17.28125 59.640625 11.78125 
Q 57.671875 6.296875 51.875 2.359375 
Q 46.09375 -1.5625 36.140625 -1.5625 
Q 25.296875 -1.5625 19.671875 2.1875 
Q 14.0625 5.953125 11.71875 12.3125 
Q 10.15625 16.65625 10.15625 28.609375 
L 10.15625 54.5 
Q 10.15625 60.59375 8.46875 62.5 
Q 6.78125 64.40625 3.03125 64.40625 
L 0.53125 64.40625 
L 0.53125 66.21875 
L 29.15625 66.21875 
L 29.15625 64.40625 
L 26.609375 64.40625 
Q 22.515625 64.40625 20.75 61.8125 
Q 19.53125 60.0625 19.53125 54.5 
L 19.53125 25.640625 
Q 19.53125 21.78125 20.234375 16.796875 
Q 20.953125 11.8125 22.796875 9.03125 
Q 24.65625 6.25 28.140625 4.4375 
Q 31.640625 2.640625 36.71875 2.640625 
Q 43.21875 2.640625 48.34375 5.46875 
Q 53.46875 8.296875 55.34375 12.71875 
Q 57.234375 17.140625 57.234375 27.6875 
L 57.234375 54.5 
Q 57.234375 60.6875 55.859375 62.25 
Q 53.953125 64.40625 50.203125 64.40625 
z
" id="TimesNewRomanPSMT-85"/>
      <path d="M 45.75 22.171875 
L 20.125 22.171875 
L 15.625 11.71875 
Q 13.96875 7.859375 13.96875 5.953125 
Q 13.96875 4.4375 15.40625 3.296875 
Q 16.84375 2.15625 21.625 1.8125 
L 21.625 0 
L 0.78125 0 
L 0.78125 1.8125 
Q 4.9375 2.546875 6.15625 3.71875 
Q 8.640625 6.0625 11.671875 13.234375 
L 34.96875 67.71875 
L 36.671875 67.71875 
L 59.71875 12.640625 
Q 62.5 6 64.765625 4.015625 
Q 67.046875 2.046875 71.09375 1.8125 
L 71.09375 0 
L 44.96875 0 
L 44.96875 1.8125 
Q 48.921875 2 50.3125 3.125 
Q 51.703125 4.25 51.703125 5.859375 
Q 51.703125 8.015625 49.75 12.640625 
z
M 44.390625 25.78125 
L 33.15625 52.546875 
L 21.625 25.78125 
z
" id="TimesNewRomanPSMT-65"/>
      <path d="M 36.578125 67.71875 
Q 49.46875 67.71875 58.90625 57.921875 
Q 68.359375 48.140625 68.359375 33.5 
Q 68.359375 18.40625 58.828125 8.4375 
Q 49.3125 -1.515625 35.796875 -1.515625 
Q 22.125 -1.515625 12.8125 8.203125 
Q 3.515625 17.921875 3.515625 33.34375 
Q 3.515625 49.125 14.265625 59.078125 
Q 23.578125 67.71875 36.578125 67.71875 
z
M 35.640625 64.15625 
Q 26.765625 64.15625 21.390625 57.5625 
Q 14.703125 49.359375 14.703125 33.546875 
Q 14.703125 17.328125 21.625 8.59375 
Q 26.953125 1.953125 35.6875 1.953125 
Q 45.015625 1.953125 51.09375 9.21875 
Q 57.171875 16.5 57.171875 32.171875 
Q 57.171875 49.171875 50.484375 57.515625 
Q 45.125 64.15625 35.640625 64.15625 
z
" id="TimesNewRomanPSMT-79"/>
      <path d="M 50.875 -21.578125 
L -0.828125 -21.578125 
L -0.828125 -17.484375 
L 50.875 -17.484375 
z
" id="TimesNewRomanPSMT-95"/>
      <path d="M 15.09375 16.3125 
Q 10.984375 18.3125 8.78125 21.890625 
Q 6.59375 25.484375 6.59375 29.828125 
Q 6.59375 36.46875 11.59375 41.25 
Q 16.609375 46.046875 24.421875 46.046875 
Q 30.8125 46.046875 35.5 42.921875 
L 44.96875 42.921875 
Q 47.078125 42.921875 47.40625 42.796875 
Q 47.75 42.671875 47.90625 42.390625 
Q 48.1875 41.9375 48.1875 40.828125 
Q 48.1875 39.546875 47.953125 39.0625 
Q 47.796875 38.8125 47.4375 38.671875 
Q 47.078125 38.53125 44.96875 38.53125 
L 39.15625 38.53125 
Q 41.890625 35.015625 41.890625 29.546875 
Q 41.890625 23.296875 37.109375 18.84375 
Q 32.328125 14.40625 24.265625 14.40625 
Q 20.953125 14.40625 17.484375 15.375 
Q 15.328125 13.53125 14.5625 12.140625 
Q 13.8125 10.75 13.8125 9.765625 
Q 13.8125 8.9375 14.625 8.15625 
Q 15.4375 7.375 17.78125 7.03125 
Q 19.140625 6.84375 24.609375 6.6875 
Q 34.671875 6.453125 37.640625 6 
Q 42.1875 5.375 44.890625 2.640625 
Q 47.609375 -0.09375 47.609375 -4.109375 
Q 47.609375 -9.625 42.4375 -14.453125 
Q 34.8125 -21.578125 22.5625 -21.578125 
Q 13.140625 -21.578125 6.640625 -17.328125 
Q 2.984375 -14.890625 2.984375 -12.25 
Q 2.984375 -11.078125 3.515625 -9.90625 
Q 4.34375 -8.109375 6.9375 -4.890625 
Q 7.28125 -4.4375 11.921875 0.390625 
Q 9.375 1.90625 8.328125 3.09375 
Q 7.28125 4.296875 7.28125 5.8125 
Q 7.28125 7.515625 8.671875 9.8125 
Q 10.0625 12.109375 15.09375 16.3125 
z
M 23.578125 43.703125 
Q 19.96875 43.703125 17.53125 40.8125 
Q 15.09375 37.9375 15.09375 31.984375 
Q 15.09375 24.265625 18.40625 20.015625 
Q 20.953125 16.796875 24.859375 16.796875 
Q 28.5625 16.796875 30.953125 19.578125 
Q 33.34375 22.359375 33.34375 28.328125 
Q 33.34375 36.078125 29.984375 40.484375 
Q 27.484375 43.703125 23.578125 43.703125 
z
M 14.59375 0 
Q 12.3125 -2.484375 11.140625 -4.625 
Q 9.96875 -6.78125 9.96875 -8.59375 
Q 9.96875 -10.9375 12.796875 -12.703125 
Q 17.671875 -15.71875 26.90625 -15.71875 
Q 35.6875 -15.71875 39.859375 -12.609375 
Q 44.046875 -9.515625 44.046875 -6 
Q 44.046875 -3.46875 41.546875 -2.390625 
Q 39.015625 -1.3125 31.5 -1.125 
Q 20.515625 -0.828125 14.59375 0 
z
" id="TimesNewRomanPSMT-103"/>
     </defs>
     <use transform="translate(0 0.28125)" xlink:href="#TimesNewRomanPSMT-67"/>
     <use transform="translate(66.699219 0.28125)" xlink:href="#TimesNewRomanPSMT-85"/>
     <use transform="translate(138.916016 0.28125)" xlink:href="#TimesNewRomanPSMT-65"/>
     <use transform="translate(211.132812 0.28125)" xlink:href="#TimesNewRomanPSMT-84"/>
     <use transform="translate(272.216797 0.28125)" xlink:href="#TimesNewRomanPSMT-82"/>
     <use transform="translate(338.916016 0.28125)" xlink:href="#TimesNewRomanPSMT-79"/>
     <use transform="translate(411.132812 0.28125)" xlink:href="#TimesNewRomanPSMT-95"/>
     <use transform="translate(461.132812 0.28125)" xlink:href="#TimesNewRomanPSMT-103"/>
     <use transform="translate(511.132812 0.28125)" xlink:href="#TimesNewRomanPSMT-58"/>
     <use transform="translate(538.916016 0.28125)" xlink:href="#TimesNewRomanPSMT-32"/>
     <use transform="translate(563.916016 0.28125)" xlink:href="#DejaVuSans-Oblique-117"/>
    </g>
   </g>
   <g id="line2d_35">
    <path d="M 430.002813 159.597101 
L 444.402812 159.597101 
" style="fill:none;stroke:#ffa500;stroke-linecap:square;stroke-width:1.5;"/>
   </g>
   <g id="line2d_36"/>
   <g id="text_28">
    <!-- CUATRO_l: $u$ -->
    <g transform="translate(454.002813 163.797101)scale(0.12 -0.12)">
     <use transform="translate(0 0.5625)" xlink:href="#TimesNewRomanPSMT-67"/>
     <use transform="translate(66.699219 0.5625)" xlink:href="#TimesNewRomanPSMT-85"/>
     <use transform="translate(138.916016 0.5625)" xlink:href="#TimesNewRomanPSMT-65"/>
     <use transform="translate(211.132812 0.5625)" xlink:href="#TimesNewRomanPSMT-84"/>
     <use transform="translate(272.216797 0.5625)" xlink:href="#TimesNewRomanPSMT-82"/>
     <use transform="translate(338.916016 0.5625)" xlink:href="#TimesNewRomanPSMT-79"/>
     <use transform="translate(411.132812 0.5625)" xlink:href="#TimesNewRomanPSMT-95"/>
     <use transform="translate(461.132812 0.5625)" xlink:href="#TimesNewRomanPSMT-108"/>
     <use transform="translate(488.916016 0.5625)" xlink:href="#TimesNewRomanPSMT-58"/>
     <use transform="translate(516.699219 0.5625)" xlink:href="#TimesNewRomanPSMT-32"/>
     <use transform="translate(541.699219 0.5625)" xlink:href="#DejaVuSans-Oblique-117"/>
    </g>
   </g>
  </g>
 </g>
 <defs>
  <clipPath id="p2e24555d85">
   <rect height="79.828156" width="341.9" x="62.782812" y="9.373915"/>
  </clipPath>
  <clipPath id="p813dee933f">
   <rect height="79.828156" width="341.9" x="62.782812" y="144.402071"/>
  </clipPath>
 </defs>
</svg>
