<?xml version="1.0" encoding="utf-8" standalone="no"?>
<!DOCTYPE svg PUBLIC "-//W3C//DTD SVG 1.1//EN"
  "http://www.w3.org/Graphics/SVG/1.1/DTD/svg11.dtd">
<!-- Created with matplotlib (https://matplotlib.org/) -->
<svg height="288pt" version="1.1" viewBox="0 0 432 288" width="432pt" xmlns="http://www.w3.org/2000/svg" xmlns:xlink="http://www.w3.org/1999/xlink">
 <metadata>
  <rdf:RDF xmlns:cc="http://creativecommons.org/ns#" xmlns:dc="http://purl.org/dc/elements/1.1/" xmlns:rdf="http://www.w3.org/1999/02/22-rdf-syntax-ns#">
   <cc:Work>
    <dc:type rdf:resource="http://purl.org/dc/dcmitype/StillImage"/>
    <dc:date>2021-04-09T16:09:21.310989</dc:date>
    <dc:format>image/svg+xml</dc:format>
    <dc:creator>
     <cc:Agent>
      <dc:title>Matplotlib v3.3.4, https://matplotlib.org/</dc:title>
     </cc:Agent>
    </dc:creator>
   </cc:Work>
  </rdf:RDF>
 </metadata>
 <defs>
  <style type="text/css">*{stroke-linecap:butt;stroke-linejoin:round;}</style>
 </defs>
 <g id="figure_1">
  <g id="patch_1">
   <path d="M 0 288 
L 432 288 
L 432 0 
L 0 0 
z
" style="fill:#ffffff;"/>
  </g>
  <g id="axes_1">
   <g id="patch_2">
    <path d="M 54 252 
L 388.8 252 
L 388.8 34.56 
L 54 34.56 
z
" style="fill:#ffffff;"/>
   </g>
   <g id="PolyCollection_1">
    <defs>
     <path d="M 57.381818 -241.592997 
L 57.381818 -232.263907 
L 60.763636 -232.263907 
L 64.145455 -232.263907 
L 67.527273 -232.263907 
L 70.909091 -232.263907 
L 74.290909 -217.248135 
L 77.672727 -217.248135 
L 81.054545 -217.248135 
L 84.436364 -182.228947 
L 87.818182 -182.228947 
L 91.2 -182.228947 
L 94.581818 -181.597892 
L 97.963636 -181.597892 
L 101.345455 -181.597892 
L 104.727273 -178.174368 
L 108.109091 -178.174368 
L 111.490909 -178.174368 
L 114.872727 -173.940214 
L 118.254545 -173.940214 
L 121.636364 -173.940214 
L 125.018182 -164.529673 
L 128.4 -164.529673 
L 131.781818 -164.529673 
L 135.163636 -163.654568 
L 138.545455 -163.654568 
L 141.927273 -163.654568 
L 145.309091 -163.654568 
L 148.690909 -163.654568 
L 152.072727 -163.654568 
L 155.454545 -163.145233 
L 158.836364 -163.145233 
L 162.218182 -163.145233 
L 165.6 -163.145233 
L 168.981818 -163.145233 
L 172.363636 -163.145233 
L 175.745455 -163.145233 
L 179.127273 -163.145233 
L 182.509091 -163.145233 
L 185.890909 -163.031079 
L 189.272727 -163.031079 
L 192.654545 -163.031079 
L 196.036364 -162.399618 
L 199.418182 -162.399618 
L 202.8 -162.399618 
L 206.181818 -162.12637 
L 209.563636 -162.12637 
L 212.945455 -162.12637 
L 216.327273 -159.833015 
L 219.709091 -159.833015 
L 223.090909 -159.833015 
L 226.472727 -159.833015 
L 229.854545 -159.833015 
L 233.236364 -159.833015 
L 236.618182 -158.513619 
L 240 -158.513619 
L 243.381818 -158.513619 
L 246.763636 -158.513619 
L 250.145455 -158.513619 
L 253.527273 -158.513619 
L 256.909091 -156.168392 
L 260.290909 -156.168392 
L 263.672727 -156.168392 
L 267.054545 -156.168392 
L 270.436364 -156.168392 
L 273.818182 -156.168392 
L 277.2 -156.168392 
L 280.581818 -156.168392 
L 283.963636 -156.168392 
L 287.345455 -154.26628 
L 290.727273 -154.26628 
L 294.109091 -154.26628 
L 297.490909 -154.26628 
L 300.872727 -154.26628 
L 304.254545 -154.26628 
L 307.636364 -154.26628 
L 311.018182 -154.26628 
L 314.4 -154.26628 
L 317.781818 -154.26628 
L 321.163636 -154.26628 
L 324.545455 -154.26628 
L 327.927273 -154.26628 
L 331.309091 -154.26628 
L 334.690909 -154.26628 
L 338.072727 -154.26628 
L 341.454545 -154.26628 
L 344.836364 -154.26628 
L 348.218182 -154.129828 
L 351.6 -154.129828 
L 354.981818 -154.129828 
L 358.363636 -151.788204 
L 361.745455 -151.788204 
L 365.127273 -151.788204 
L 368.509091 -148.613748 
L 371.890909 -148.613748 
L 375.272727 -148.613748 
L 378.654545 -148.613748 
L 382.036364 -148.613748 
L 385.418182 -148.613748 
L 388.8 -148.613748 
L 392.181818 -148.613748 
L 392.181818 -178.564184 
L 392.181818 -178.564184 
L 388.8 -178.564184 
L 385.418182 -178.564184 
L 382.036364 -178.564184 
L 378.654545 -178.564184 
L 375.272727 -178.564184 
L 371.890909 -178.564184 
L 368.509091 -178.564184 
L 365.127273 -178.564184 
L 361.745455 -178.564184 
L 358.363636 -178.564184 
L 354.981818 -182.486137 
L 351.6 -182.486137 
L 348.218182 -182.486137 
L 344.836364 -182.642902 
L 341.454545 -182.642902 
L 338.072727 -182.642902 
L 334.690909 -182.642902 
L 331.309091 -182.642902 
L 327.927273 -182.642902 
L 324.545455 -182.642902 
L 321.163636 -182.642902 
L 317.781818 -182.642902 
L 314.4 -185.746505 
L 311.018182 -185.746505 
L 307.636364 -185.746505 
L 304.254545 -190.799464 
L 300.872727 -190.799464 
L 297.490909 -190.799464 
L 294.109091 -191.375234 
L 290.727273 -191.375234 
L 287.345455 -191.375234 
L 283.963636 -191.375234 
L 280.581818 -191.375234 
L 277.2 -191.375234 
L 273.818182 -191.375234 
L 270.436364 -191.375234 
L 267.054545 -191.375234 
L 263.672727 -192.192635 
L 260.290909 -192.192635 
L 256.909091 -192.192635 
L 253.527273 -192.192635 
L 250.145455 -192.192635 
L 246.763636 -192.192635 
L 243.381818 -192.192635 
L 240 -192.192635 
L 236.618182 -192.192635 
L 233.236364 -193.379252 
L 229.854545 -193.379252 
L 226.472727 -193.379252 
L 223.090909 -199.235121 
L 219.709091 -199.235121 
L 216.327273 -199.235121 
L 212.945455 -199.379239 
L 209.563636 -199.379239 
L 206.181818 -199.379239 
L 202.8 -199.867672 
L 199.418182 -199.867672 
L 196.036364 -199.867672 
L 192.654545 -199.921022 
L 189.272727 -199.921022 
L 185.890909 -199.921022 
L 182.509091 -203.826446 
L 179.127273 -203.826446 
L 175.745455 -203.826446 
L 172.363636 -203.826446 
L 168.981818 -203.826446 
L 165.6 -203.826446 
L 162.218182 -203.826446 
L 158.836364 -203.826446 
L 155.454545 -203.826446 
L 152.072727 -203.826446 
L 148.690909 -203.826446 
L 145.309091 -203.826446 
L 141.927273 -206.509927 
L 138.545455 -206.509927 
L 135.163636 -206.509927 
L 131.781818 -212.103078 
L 128.4 -212.103078 
L 125.018182 -212.103078 
L 121.636364 -219.676565 
L 118.254545 -219.676565 
L 114.872727 -219.676565 
L 111.490909 -219.676565 
L 108.109091 -219.676565 
L 104.727273 -219.676565 
L 101.345455 -226.187676 
L 97.963636 -226.187676 
L 94.581818 -226.187676 
L 91.2 -232.263907 
L 87.818182 -232.263907 
L 84.436364 -232.263907 
L 81.054545 -236.619777 
L 77.672727 -236.619777 
L 74.290909 -236.619777 
L 70.909091 -241.592997 
L 67.527273 -241.592997 
L 64.145455 -241.592997 
L 60.763636 -241.592997 
L 57.381818 -241.592997 
z
" id="mfb9874c900" style="stroke:#a52a2a;stroke-opacity:0.5;"/>
    </defs>
    <g clip-path="url(#pea633ed699)">
     <use style="fill:#a52a2a;fill-opacity:0.5;stroke:#a52a2a;stroke-opacity:0.5;" x="0" xlink:href="#mfb9874c900" y="288"/>
    </g>
   </g>
   <g id="PolyCollection_2">
    <defs>
     <path d="M 57.381818 -226.999415 
L 57.381818 -166.390035 
L 60.763636 -166.390035 
L 64.145455 -166.390035 
L 67.527273 -166.390035 
L 70.909091 -166.390035 
L 74.290909 -166.390035 
L 77.672727 -164.524739 
L 81.054545 -164.524739 
L 84.436364 -140.731402 
L 87.818182 -92.490344 
L 91.2 -92.490344 
L 94.581818 -92.490344 
L 97.963636 -92.490344 
L 101.345455 -92.490344 
L 104.727273 -92.490344 
L 108.109091 -92.490344 
L 111.490909 -92.490344 
L 114.872727 -91.540132 
L 118.254545 -91.540132 
L 121.636364 -91.42389 
L 125.018182 -91.42389 
L 128.4 -90.734551 
L 131.781818 -90.734551 
L 135.163636 -90.734551 
L 138.545455 -90.734551 
L 141.927273 -90.734551 
L 145.309091 -90.734551 
L 148.690909 -90.734551 
L 152.072727 -90.734551 
L 155.454545 -90.734551 
L 158.836364 -90.734551 
L 162.218182 -90.734551 
L 165.6 -90.734551 
L 168.981818 -90.734551 
L 172.363636 -90.734551 
L 175.745455 -90.734551 
L 179.127273 -90.734551 
L 182.509091 -90.267383 
L 185.890909 -90.267383 
L 189.272727 -90.267383 
L 192.654545 -90.267383 
L 196.036364 -90.267383 
L 199.418182 -89.536272 
L 202.8 -89.536272 
L 206.181818 -89.536272 
L 209.563636 -89.536272 
L 212.945455 -89.536272 
L 216.327273 -89.536272 
L 219.709091 -89.536272 
L 223.090909 -89.536272 
L 226.472727 -89.536272 
L 229.854545 -89.536272 
L 233.236364 -89.536272 
L 236.618182 -89.536272 
L 240 -89.536272 
L 243.381818 -89.536272 
L 246.763636 -89.536272 
L 250.145455 -89.536272 
L 253.527273 -89.536272 
L 256.909091 -89.536272 
L 260.290909 -89.536272 
L 263.672727 -89.536272 
L 267.054545 -89.536272 
L 270.436364 -89.536272 
L 273.818182 -89.536272 
L 277.2 -89.536272 
L 280.581818 -89.536272 
L 283.963636 -89.536272 
L 287.345455 -89.536272 
L 290.727273 -89.536272 
L 294.109091 -89.536272 
L 297.490909 -89.536272 
L 300.872727 -89.536272 
L 304.254545 -89.536272 
L 307.636364 -89.536272 
L 311.018182 -89.536272 
L 314.4 -89.536272 
L 317.781818 -89.536272 
L 321.163636 -89.536272 
L 324.545455 -89.536272 
L 327.927273 -89.536272 
L 331.309091 -89.536272 
L 334.690909 -89.536272 
L 338.072727 -89.536272 
L 341.454545 -89.536272 
L 344.836364 -89.294056 
L 348.218182 -89.294056 
L 351.6 -89.294056 
L 354.981818 -89.294056 
L 358.363636 -89.294056 
L 361.745455 -89.294056 
L 365.127273 -89.294056 
L 368.509091 -89.294056 
L 371.890909 -89.294056 
L 375.272727 -89.294056 
L 378.654545 -89.294056 
L 382.036364 -89.294056 
L 385.418182 -89.294056 
L 388.8 -89.294056 
L 392.181818 -89.294056 
L 392.181818 -150.954697 
L 392.181818 -150.954697 
L 388.8 -150.954697 
L 385.418182 -150.954697 
L 382.036364 -150.954697 
L 378.654545 -150.954697 
L 375.272727 -150.954697 
L 371.890909 -150.954697 
L 368.509091 -150.954697 
L 365.127273 -150.954697 
L 361.745455 -150.954697 
L 358.363636 -150.954697 
L 354.981818 -150.954697 
L 351.6 -150.954697 
L 348.218182 -150.954697 
L 344.836364 -150.954697 
L 341.454545 -150.954697 
L 338.072727 -150.954697 
L 334.690909 -150.954697 
L 331.309091 -150.954697 
L 327.927273 -150.954697 
L 324.545455 -150.954697 
L 321.163636 -150.954697 
L 317.781818 -150.954697 
L 314.4 -150.954697 
L 311.018182 -150.954697 
L 307.636364 -150.954697 
L 304.254545 -150.954697 
L 300.872727 -150.954697 
L 297.490909 -150.954697 
L 294.109091 -150.954697 
L 290.727273 -150.954697 
L 287.345455 -150.954697 
L 283.963636 -150.954697 
L 280.581818 -150.954697 
L 277.2 -150.954697 
L 273.818182 -150.954697 
L 270.436364 -150.954697 
L 267.054545 -150.954697 
L 263.672727 -150.954697 
L 260.290909 -150.954697 
L 256.909091 -150.954697 
L 253.527273 -150.954697 
L 250.145455 -150.954697 
L 246.763636 -150.954697 
L 243.381818 -150.954697 
L 240 -150.954697 
L 236.618182 -150.954697 
L 233.236364 -150.954697 
L 229.854545 -150.954697 
L 226.472727 -150.954697 
L 223.090909 -150.954697 
L 219.709091 -150.954697 
L 216.327273 -150.954697 
L 212.945455 -150.954697 
L 209.563636 -150.954697 
L 206.181818 -150.954697 
L 202.8 -150.954697 
L 199.418182 -150.954697 
L 196.036364 -150.954697 
L 192.654545 -150.954697 
L 189.272727 -150.954697 
L 185.890909 -150.954697 
L 182.509091 -150.954697 
L 179.127273 -150.954697 
L 175.745455 -150.954697 
L 172.363636 -150.954697 
L 168.981818 -150.954697 
L 165.6 -150.954697 
L 162.218182 -150.954697 
L 158.836364 -154.151301 
L 155.454545 -154.151301 
L 152.072727 -154.151301 
L 148.690909 -154.151301 
L 145.309091 -154.151301 
L 141.927273 -154.151301 
L 138.545455 -154.151301 
L 135.163636 -154.151301 
L 131.781818 -154.151301 
L 128.4 -154.151301 
L 125.018182 -154.151301 
L 121.636364 -154.151301 
L 118.254545 -154.151301 
L 114.872727 -154.151301 
L 111.490909 -154.151301 
L 108.109091 -154.151301 
L 104.727273 -154.151301 
L 101.345455 -154.151301 
L 97.963636 -154.151301 
L 94.581818 -154.151301 
L 91.2 -164.149076 
L 87.818182 -222.03514 
L 84.436364 -222.03514 
L 81.054545 -226.999415 
L 77.672727 -226.999415 
L 74.290909 -226.999415 
L 70.909091 -226.999415 
L 67.527273 -226.999415 
L 64.145455 -226.999415 
L 60.763636 -226.999415 
L 57.381818 -226.999415 
z
" id="ma166d9559c" style="stroke:#008000;stroke-opacity:0.5;"/>
    </defs>
    <g clip-path="url(#pea633ed699)">
     <use style="fill:#008000;fill-opacity:0.5;stroke:#008000;stroke-opacity:0.5;" x="0" xlink:href="#ma166d9559c" y="288"/>
    </g>
   </g>
   <g id="PolyCollection_3">
    <defs>
     <path d="M 57.381818 -243.556364 
L 57.381818 -235.544345 
L 60.763636 -235.544345 
L 64.145455 -235.544345 
L 67.527273 -235.544345 
L 70.909091 -235.544345 
L 74.290909 -235.544345 
L 77.672727 -235.544345 
L 81.054545 -235.544345 
L 84.436364 -235.544345 
L 87.818182 -235.544345 
L 91.2 -235.544345 
L 94.581818 -235.544345 
L 97.963636 -235.544345 
L 101.345455 -235.544345 
L 104.727273 -235.544345 
L 108.109091 -235.544345 
L 111.490909 -235.544345 
L 114.872727 -235.544345 
L 118.254545 -235.544345 
L 121.636364 -235.544345 
L 125.018182 -235.544345 
L 128.4 -230.002339 
L 131.781818 -230.002339 
L 135.163636 -230.002339 
L 138.545455 -230.002339 
L 141.927273 -230.002339 
L 145.309091 -230.002339 
L 148.690909 -230.002339 
L 152.072727 -230.002339 
L 155.454545 -230.002339 
L 158.836364 -230.002339 
L 162.218182 -230.002339 
L 165.6 -230.002339 
L 168.981818 -230.002339 
L 172.363636 -230.002339 
L 175.745455 -230.002339 
L 179.127273 -230.002339 
L 182.509091 -230.002339 
L 185.890909 -230.002339 
L 189.272727 -230.002339 
L 192.654545 -230.002339 
L 196.036364 -230.002339 
L 199.418182 -230.002339 
L 202.8 -230.002339 
L 206.181818 -230.002339 
L 209.563636 -230.002339 
L 212.945455 -230.002339 
L 216.327273 -230.002339 
L 219.709091 -230.002339 
L 223.090909 -230.002339 
L 226.472727 -230.002339 
L 229.854545 -230.002339 
L 233.236364 -230.002339 
L 236.618182 -230.002339 
L 240 -230.002339 
L 243.381818 -230.002339 
L 246.763636 -230.002339 
L 250.145455 -230.002339 
L 253.527273 -230.002339 
L 256.909091 -230.002339 
L 260.290909 -230.002339 
L 263.672727 -230.002339 
L 267.054545 -230.002339 
L 270.436364 -230.002339 
L 273.818182 -230.002339 
L 277.2 -230.002339 
L 280.581818 -230.002339 
L 283.963636 -230.002339 
L 287.345455 -230.002339 
L 290.727273 -230.002339 
L 294.109091 -230.002339 
L 297.490909 -230.002339 
L 300.872727 -230.002339 
L 304.254545 -230.002339 
L 307.636364 -230.002339 
L 311.018182 -230.002339 
L 314.4 -230.002339 
L 317.781818 -230.002339 
L 321.163636 -230.002339 
L 324.545455 -230.002339 
L 327.927273 -230.002339 
L 331.309091 -230.002339 
L 334.690909 -230.002339 
L 338.072727 -230.002339 
L 341.454545 -230.002339 
L 344.836364 -230.002339 
L 348.218182 -230.002339 
L 351.6 -230.002339 
L 354.981818 -230.002339 
L 358.363636 -230.002339 
L 361.745455 -230.002339 
L 365.127273 -230.002339 
L 368.509091 -230.002339 
L 371.890909 -230.002339 
L 375.272727 -230.002339 
L 378.654545 -230.002339 
L 382.036364 -230.002339 
L 385.418182 -230.002339 
L 388.8 -230.002339 
L 392.181818 -230.002339 
L 392.181818 -235.239622 
L 392.181818 -235.239622 
L 388.8 -235.239622 
L 385.418182 -235.239622 
L 382.036364 -235.239622 
L 378.654545 -235.239622 
L 375.272727 -235.239622 
L 371.890909 -235.239622 
L 368.509091 -235.239622 
L 365.127273 -235.239622 
L 361.745455 -235.239622 
L 358.363636 -235.239622 
L 354.981818 -235.239622 
L 351.6 -235.239622 
L 348.218182 -235.239622 
L 344.836364 -235.239622 
L 341.454545 -235.239622 
L 338.072727 -235.239622 
L 334.690909 -235.239622 
L 331.309091 -235.239622 
L 327.927273 -235.239622 
L 324.545455 -235.239622 
L 321.163636 -235.239622 
L 317.781818 -235.239622 
L 314.4 -235.239622 
L 311.018182 -235.239622 
L 307.636364 -235.239622 
L 304.254545 -235.239622 
L 300.872727 -235.239622 
L 297.490909 -235.239622 
L 294.109091 -235.239622 
L 290.727273 -235.239622 
L 287.345455 -235.239622 
L 283.963636 -235.239622 
L 280.581818 -235.239622 
L 277.2 -235.239622 
L 273.818182 -235.239622 
L 270.436364 -235.239622 
L 267.054545 -235.239622 
L 263.672727 -235.239622 
L 260.290909 -235.239622 
L 256.909091 -235.239622 
L 253.527273 -235.239622 
L 250.145455 -235.239622 
L 246.763636 -235.239622 
L 243.381818 -235.239622 
L 240 -235.239622 
L 236.618182 -235.239622 
L 233.236364 -235.239622 
L 229.854545 -235.239622 
L 226.472727 -236.86701 
L 223.090909 -236.86701 
L 219.709091 -236.86701 
L 216.327273 -236.86701 
L 212.945455 -236.86701 
L 209.563636 -236.86701 
L 206.181818 -236.86701 
L 202.8 -236.86701 
L 199.418182 -236.86701 
L 196.036364 -236.86701 
L 192.654545 -236.86701 
L 189.272727 -236.86701 
L 185.890909 -236.86701 
L 182.509091 -236.86701 
L 179.127273 -236.86701 
L 175.745455 -236.86701 
L 172.363636 -236.86701 
L 168.981818 -236.86701 
L 165.6 -236.86701 
L 162.218182 -236.86701 
L 158.836364 -236.86701 
L 155.454545 -236.86701 
L 152.072727 -236.86701 
L 148.690909 -236.86701 
L 145.309091 -236.86701 
L 141.927273 -236.86701 
L 138.545455 -238.485924 
L 135.163636 -238.485924 
L 131.781818 -239.605968 
L 128.4 -239.605968 
L 125.018182 -243.556364 
L 121.636364 -243.556364 
L 118.254545 -243.556364 
L 114.872727 -243.556364 
L 111.490909 -243.556364 
L 108.109091 -243.556364 
L 104.727273 -243.556364 
L 101.345455 -243.556364 
L 97.963636 -243.556364 
L 94.581818 -243.556364 
L 91.2 -243.556364 
L 87.818182 -243.556364 
L 84.436364 -243.556364 
L 81.054545 -243.556364 
L 77.672727 -243.556364 
L 74.290909 -243.556364 
L 70.909091 -243.556364 
L 67.527273 -243.556364 
L 64.145455 -243.556364 
L 60.763636 -243.556364 
L 57.381818 -243.556364 
z
" id="mde800fc4d8" style="stroke:#808080;stroke-opacity:0.5;"/>
    </defs>
    <g clip-path="url(#pea633ed699)">
     <use style="fill:#808080;fill-opacity:0.5;stroke:#808080;stroke-opacity:0.5;" x="0" xlink:href="#mde800fc4d8" y="288"/>
    </g>
   </g>
   <g id="PolyCollection_4">
    <defs>
     <path d="M 57.381818 -242.002284 
L 57.381818 -235.60215 
L 60.763636 -235.60215 
L 64.145455 -235.60215 
L 67.527273 -235.60215 
L 70.909091 -235.60215 
L 74.290909 -235.60215 
L 77.672727 -235.60215 
L 81.054545 -235.60215 
L 84.436364 -235.60215 
L 87.818182 -235.60215 
L 91.2 -235.60215 
L 94.581818 -235.60215 
L 97.963636 -235.60215 
L 101.345455 -235.60215 
L 104.727273 -235.60215 
L 108.109091 -235.60215 
L 111.490909 -235.60215 
L 114.872727 -235.60215 
L 118.254545 -235.60215 
L 121.636364 -235.60215 
L 125.018182 -235.60215 
L 128.4 -234.439029 
L 131.781818 -234.439029 
L 135.163636 -234.439029 
L 138.545455 -234.439029 
L 141.927273 -234.439029 
L 145.309091 -233.08954 
L 148.690909 -233.08954 
L 152.072727 -233.08954 
L 155.454545 -233.08954 
L 158.836364 -233.08954 
L 162.218182 -233.08954 
L 165.6 -233.08954 
L 168.981818 -233.08954 
L 172.363636 -233.08954 
L 175.745455 -233.08954 
L 179.127273 -232.479162 
L 182.509091 -232.479162 
L 185.890909 -232.479162 
L 189.272727 -232.479162 
L 192.654545 -232.479162 
L 196.036364 -230.84021 
L 199.418182 -230.84021 
L 202.8 -230.84021 
L 206.181818 -230.84021 
L 209.563636 -230.84021 
L 212.945455 -230.84021 
L 216.327273 -230.84021 
L 219.709091 -230.84021 
L 223.090909 -230.84021 
L 226.472727 -230.84021 
L 229.854545 -230.84021 
L 233.236364 -230.84021 
L 236.618182 -230.84021 
L 240 -230.84021 
L 243.381818 -230.781549 
L 246.763636 -230.781549 
L 250.145455 -230.781549 
L 253.527273 -230.781549 
L 256.909091 -230.781549 
L 260.290909 -230.781549 
L 263.672727 -230.781549 
L 267.054545 -230.781549 
L 270.436364 -230.124768 
L 273.818182 -230.124768 
L 277.2 -230.124768 
L 280.581818 -227.916127 
L 283.963636 -227.916127 
L 287.345455 -227.916127 
L 290.727273 -227.916127 
L 294.109091 -227.916127 
L 297.490909 -227.916127 
L 300.872727 -225.598592 
L 304.254545 -225.598592 
L 307.636364 -225.598592 
L 311.018182 -225.598592 
L 314.4 -225.598592 
L 317.781818 -221.311598 
L 321.163636 -221.311598 
L 324.545455 -221.311598 
L 327.927273 -46.107724 
L 331.309091 -46.107724 
L 334.690909 -46.107724 
L 338.072727 -46.107724 
L 341.454545 -46.107724 
L 344.836364 -46.107724 
L 348.218182 -46.107724 
L 351.6 -46.107724 
L 354.981818 -46.107724 
L 358.363636 -46.107724 
L 361.745455 -46.107724 
L 365.127273 -46.107724 
L 368.509091 -46.107724 
L 371.890909 -46.107724 
L 375.272727 -46.107724 
L 378.654545 -45.883636 
L 382.036364 -45.883636 
L 385.418182 -45.883636 
L 388.8 -45.883636 
L 392.181818 -45.883636 
L 392.181818 -233.095105 
L 392.181818 -233.095105 
L 388.8 -233.095105 
L 385.418182 -233.095105 
L 382.036364 -233.095105 
L 378.654545 -233.095105 
L 375.272727 -233.095105 
L 371.890909 -233.095105 
L 368.509091 -233.095105 
L 365.127273 -233.095105 
L 361.745455 -233.095105 
L 358.363636 -233.095105 
L 354.981818 -233.095105 
L 351.6 -233.095105 
L 348.218182 -233.095105 
L 344.836364 -233.095105 
L 341.454545 -233.095105 
L 338.072727 -233.095105 
L 334.690909 -233.095105 
L 331.309091 -233.095105 
L 327.927273 -233.095105 
L 324.545455 -235.60215 
L 321.163636 -235.60215 
L 317.781818 -235.60215 
L 314.4 -235.60215 
L 311.018182 -235.60215 
L 307.636364 -235.60215 
L 304.254545 -235.60215 
L 300.872727 -235.60215 
L 297.490909 -235.60215 
L 294.109091 -235.60215 
L 290.727273 -235.60215 
L 287.345455 -235.60215 
L 283.963636 -235.60215 
L 280.581818 -235.60215 
L 277.2 -235.60215 
L 273.818182 -235.60215 
L 270.436364 -235.60215 
L 267.054545 -235.60215 
L 263.672727 -235.60215 
L 260.290909 -235.60215 
L 256.909091 -235.60215 
L 253.527273 -235.60215 
L 250.145455 -235.60215 
L 246.763636 -235.60215 
L 243.381818 -235.60215 
L 240 -236.562723 
L 236.618182 -236.562723 
L 233.236364 -236.562723 
L 229.854545 -236.562723 
L 226.472727 -236.562723 
L 223.090909 -236.562723 
L 219.709091 -236.562723 
L 216.327273 -236.562723 
L 212.945455 -236.562723 
L 209.563636 -236.992578 
L 206.181818 -236.992578 
L 202.8 -236.992578 
L 199.418182 -236.992578 
L 196.036364 -236.992578 
L 192.654545 -236.992578 
L 189.272727 -236.992578 
L 185.890909 -236.992578 
L 182.509091 -236.992578 
L 179.127273 -236.992578 
L 175.745455 -236.992578 
L 172.363636 -236.992578 
L 168.981818 -236.992578 
L 165.6 -236.992578 
L 162.218182 -236.992578 
L 158.836364 -236.992578 
L 155.454545 -236.992578 
L 152.072727 -236.992578 
L 148.690909 -236.992578 
L 145.309091 -236.992578 
L 141.927273 -239.285838 
L 138.545455 -239.285838 
L 135.163636 -239.285838 
L 131.781818 -239.285838 
L 128.4 -239.285838 
L 125.018182 -242.002284 
L 121.636364 -242.002284 
L 118.254545 -242.002284 
L 114.872727 -242.002284 
L 111.490909 -242.002284 
L 108.109091 -242.002284 
L 104.727273 -242.002284 
L 101.345455 -242.002284 
L 97.963636 -242.002284 
L 94.581818 -242.002284 
L 91.2 -242.002284 
L 87.818182 -242.002284 
L 84.436364 -242.002284 
L 81.054545 -242.002284 
L 77.672727 -242.002284 
L 74.290909 -242.002284 
L 70.909091 -242.002284 
L 67.527273 -242.002284 
L 64.145455 -242.002284 
L 60.763636 -242.002284 
L 57.381818 -242.002284 
z
" id="mbcd5dd0370" style="stroke:#ffa500;stroke-opacity:0.5;"/>
    </defs>
    <g clip-path="url(#pea633ed699)">
     <use style="fill:#ffa500;fill-opacity:0.5;stroke:#ffa500;stroke-opacity:0.5;" x="0" xlink:href="#mbcd5dd0370" y="288"/>
    </g>
   </g>
   <g id="PolyCollection_5">
    <defs>
     <path d="M 57.381818 -242.978655 
L 57.381818 -237.034413 
L 60.763636 -237.034413 
L 64.145455 -237.034413 
L 67.527273 -237.034413 
L 70.909091 -237.034413 
L 74.290909 -237.034413 
L 77.672727 -237.034413 
L 81.054545 -237.034413 
L 84.436364 -237.034413 
L 87.818182 -237.034413 
L 91.2 -237.034413 
L 94.581818 -237.034413 
L 97.963636 -237.034413 
L 101.345455 -217.638514 
L 104.727273 -217.638514 
L 108.109091 -217.638514 
L 111.490909 -217.638514 
L 114.872727 -217.638514 
L 118.254545 -217.638514 
L 121.636364 -217.638514 
L 125.018182 -217.638514 
L 128.4 -217.638514 
L 131.781818 -217.638514 
L 135.163636 -217.638514 
L 138.545455 -217.638514 
L 141.927273 -217.638514 
L 145.309091 -217.638514 
L 148.690909 -217.638514 
L 152.072727 -217.638514 
L 155.454545 -217.638514 
L 158.836364 -217.638514 
L 162.218182 -217.638514 
L 165.6 -217.638514 
L 168.981818 -217.638514 
L 172.363636 -217.638514 
L 175.745455 -217.638514 
L 179.127273 -217.638514 
L 182.509091 -217.638514 
L 185.890909 -217.638514 
L 189.272727 -217.638514 
L 192.654545 -217.638514 
L 196.036364 -217.638514 
L 199.418182 -217.638514 
L 202.8 -217.638514 
L 206.181818 -217.638514 
L 209.563636 -217.638514 
L 212.945455 -217.638514 
L 216.327273 -217.638514 
L 219.709091 -217.638514 
L 223.090909 -217.638514 
L 226.472727 -217.638514 
L 229.854545 -217.638514 
L 233.236364 -217.638514 
L 236.618182 -215.922439 
L 240 -215.922439 
L 243.381818 -215.922439 
L 246.763636 -215.922439 
L 250.145455 -215.922439 
L 253.527273 -215.922439 
L 256.909091 -215.922439 
L 260.290909 -215.922439 
L 263.672727 -215.922439 
L 267.054545 -215.922439 
L 270.436364 -215.922439 
L 273.818182 -215.922439 
L 277.2 -215.922439 
L 280.581818 -215.922439 
L 283.963636 -215.922439 
L 287.345455 -215.922439 
L 290.727273 -215.922439 
L 294.109091 -215.922439 
L 297.490909 -215.922439 
L 300.872727 -215.922439 
L 304.254545 -215.922439 
L 307.636364 -215.922439 
L 311.018182 -215.922439 
L 314.4 -215.922439 
L 317.781818 -215.922439 
L 321.163636 -215.922439 
L 324.545455 -215.922439 
L 327.927273 -215.922439 
L 331.309091 -215.922439 
L 334.690909 -215.922439 
L 338.072727 -215.922439 
L 341.454545 -215.922439 
L 344.836364 -215.922439 
L 348.218182 -215.922439 
L 351.6 -215.922439 
L 354.981818 -215.922439 
L 358.363636 -215.922439 
L 361.745455 -215.922439 
L 365.127273 -215.922439 
L 368.509091 -215.922439 
L 371.890909 -215.922439 
L 375.272727 -215.922439 
L 378.654545 -215.922439 
L 382.036364 -215.922439 
L 385.418182 -215.922439 
L 388.8 -215.922439 
L 392.181818 -215.922439 
L 392.181818 -228.486713 
L 392.181818 -228.486713 
L 388.8 -228.486713 
L 385.418182 -228.486713 
L 382.036364 -228.486713 
L 378.654545 -228.486713 
L 375.272727 -228.486713 
L 371.890909 -228.486713 
L 368.509091 -228.486713 
L 365.127273 -228.486713 
L 361.745455 -228.486713 
L 358.363636 -228.486713 
L 354.981818 -228.98721 
L 351.6 -228.98721 
L 348.218182 -228.98721 
L 344.836364 -228.98721 
L 341.454545 -228.98721 
L 338.072727 -228.98721 
L 334.690909 -228.98721 
L 331.309091 -228.98721 
L 327.927273 -228.98721 
L 324.545455 -228.98721 
L 321.163636 -228.98721 
L 317.781818 -228.98721 
L 314.4 -228.98721 
L 311.018182 -228.98721 
L 307.636364 -228.98721 
L 304.254545 -228.98721 
L 300.872727 -228.98721 
L 297.490909 -228.98721 
L 294.109091 -234.018237 
L 290.727273 -234.018237 
L 287.345455 -234.018237 
L 283.963636 -234.018237 
L 280.581818 -234.018237 
L 277.2 -234.018237 
L 273.818182 -234.018237 
L 270.436364 -234.018237 
L 267.054545 -234.018237 
L 263.672727 -234.018237 
L 260.290909 -234.018237 
L 256.909091 -234.018237 
L 253.527273 -234.018237 
L 250.145455 -234.018237 
L 246.763636 -234.018237 
L 243.381818 -234.018237 
L 240 -234.018237 
L 236.618182 -234.018237 
L 233.236364 -234.149551 
L 229.854545 -234.149551 
L 226.472727 -234.149551 
L 223.090909 -234.149551 
L 219.709091 -234.149551 
L 216.327273 -234.149551 
L 212.945455 -234.149551 
L 209.563636 -234.149551 
L 206.181818 -234.149551 
L 202.8 -234.149551 
L 199.418182 -234.149551 
L 196.036364 -236.468262 
L 192.654545 -236.468262 
L 189.272727 -236.468262 
L 185.890909 -236.468262 
L 182.509091 -236.468262 
L 179.127273 -236.468262 
L 175.745455 -236.468262 
L 172.363636 -236.468262 
L 168.981818 -236.468262 
L 165.6 -236.829189 
L 162.218182 -236.829189 
L 158.836364 -236.829189 
L 155.454545 -236.829189 
L 152.072727 -236.829189 
L 148.690909 -236.829189 
L 145.309091 -236.829189 
L 141.927273 -236.829189 
L 138.545455 -236.829189 
L 135.163636 -236.829189 
L 131.781818 -238.07082 
L 128.4 -238.07082 
L 125.018182 -238.07082 
L 121.636364 -238.07082 
L 118.254545 -238.07082 
L 114.872727 -238.07082 
L 111.490909 -238.07082 
L 108.109091 -238.07082 
L 104.727273 -238.07082 
L 101.345455 -242.409208 
L 97.963636 -242.978655 
L 94.581818 -242.978655 
L 91.2 -242.978655 
L 87.818182 -242.978655 
L 84.436364 -242.978655 
L 81.054545 -242.978655 
L 77.672727 -242.978655 
L 74.290909 -242.978655 
L 70.909091 -242.978655 
L 67.527273 -242.978655 
L 64.145455 -242.978655 
L 60.763636 -242.978655 
L 57.381818 -242.978655 
z
" id="m51d693b497" style="stroke:#0000ff;stroke-opacity:0.5;"/>
    </defs>
    <g clip-path="url(#pea633ed699)">
     <use style="fill:#0000ff;fill-opacity:0.5;stroke:#0000ff;stroke-opacity:0.5;" x="0" xlink:href="#m51d693b497" y="288"/>
    </g>
   </g>
   <g id="PolyCollection_6">
    <defs>
     <path d="M 57.381818 -243.123318 
L 57.381818 -236.244845 
L 60.763636 -180.626852 
L 64.145455 -180.626852 
L 67.527273 -122.36845 
L 70.909091 -122.36845 
L 74.290909 -107.895288 
L 77.672727 -107.326411 
L 81.054545 -102.355356 
L 84.436364 -102.355356 
L 87.818182 -102.355356 
L 91.2 -96.615929 
L 94.581818 -96.615929 
L 97.963636 -96.615929 
L 101.345455 -96.615929 
L 104.727273 -94.422908 
L 108.109091 -94.422908 
L 111.490909 -94.422908 
L 114.872727 -94.422908 
L 118.254545 -94.422908 
L 121.636364 -94.422908 
L 125.018182 -94.422908 
L 128.4 -94.422908 
L 131.781818 -94.422908 
L 135.163636 -94.422908 
L 138.545455 -94.422908 
L 141.927273 -94.422908 
L 145.309091 -93.412504 
L 148.690909 -93.412504 
L 152.072727 -93.412504 
L 155.454545 -93.412504 
L 158.836364 -93.412504 
L 162.218182 -93.370933 
L 165.6 -92.447613 
L 168.981818 -92.447613 
L 172.363636 -92.447613 
L 175.745455 -92.447613 
L 179.127273 -92.447613 
L 182.509091 -92.447613 
L 185.890909 -92.212126 
L 189.272727 -92.212126 
L 192.654545 -92.212126 
L 196.036364 -92.212126 
L 199.418182 -92.212126 
L 202.8 -92.212126 
L 206.181818 -92.212126 
L 209.563636 -92.212126 
L 212.945455 -92.212126 
L 216.327273 -92.212126 
L 219.709091 -92.212126 
L 223.090909 -92.212126 
L 226.472727 -91.937135 
L 229.854545 -91.937135 
L 233.236364 -91.937135 
L 236.618182 -91.937135 
L 240 -91.937135 
L 243.381818 -91.937135 
L 246.763636 -91.937135 
L 250.145455 -91.937135 
L 253.527273 -91.66728 
L 256.909091 -91.66728 
L 260.290909 -91.656177 
L 263.672727 -91.656177 
L 267.054545 -91.656177 
L 270.436364 -91.656177 
L 273.818182 -91.656177 
L 277.2 -91.656177 
L 280.581818 -91.656177 
L 283.963636 -90.019201 
L 287.345455 -90.019201 
L 290.727273 -90.019201 
L 294.109091 -90.019201 
L 297.490909 -90.019201 
L 300.872727 -90.019201 
L 304.254545 -90.019201 
L 307.636364 -90.019201 
L 311.018182 -90.019201 
L 314.4 -89.034855 
L 317.781818 -89.034855 
L 321.163636 -89.034855 
L 324.545455 -89.034855 
L 327.927273 -89.034855 
L 331.309091 -89.034855 
L 334.690909 -89.034855 
L 338.072727 -89.034855 
L 341.454545 -89.034855 
L 344.836364 -89.034855 
L 348.218182 -89.034855 
L 351.6 -89.034855 
L 354.981818 -89.034855 
L 358.363636 -89.034855 
L 361.745455 -89.034855 
L 365.127273 -89.034855 
L 368.509091 -89.034855 
L 371.890909 -89.034855 
L 375.272727 -89.034855 
L 378.654545 -89.034855 
L 382.036364 -89.034855 
L 385.418182 -89.034855 
L 388.8 -89.034855 
L 392.181818 -89.034855 
L 392.181818 -93.043155 
L 392.181818 -93.043155 
L 388.8 -93.043155 
L 385.418182 -93.141446 
L 382.036364 -93.141446 
L 378.654545 -93.141446 
L 375.272727 -93.141446 
L 371.890909 -93.329554 
L 368.509091 -93.329554 
L 365.127273 -93.329554 
L 361.745455 -93.329554 
L 358.363636 -93.329554 
L 354.981818 -93.329554 
L 351.6 -93.329554 
L 348.218182 -93.329554 
L 344.836364 -93.329554 
L 341.454545 -93.329554 
L 338.072727 -93.329554 
L 334.690909 -93.329554 
L 331.309091 -93.329554 
L 327.927273 -93.329554 
L 324.545455 -93.329554 
L 321.163636 -93.329554 
L 317.781818 -93.329554 
L 314.4 -93.329554 
L 311.018182 -94.286983 
L 307.636364 -94.286983 
L 304.254545 -94.286983 
L 300.872727 -94.286983 
L 297.490909 -94.286983 
L 294.109091 -94.286983 
L 290.727273 -94.286983 
L 287.345455 -94.286983 
L 283.963636 -94.286983 
L 280.581818 -94.286983 
L 277.2 -94.959758 
L 273.818182 -94.959758 
L 270.436364 -94.959758 
L 267.054545 -94.959758 
L 263.672727 -94.959758 
L 260.290909 -94.959758 
L 256.909091 -94.959758 
L 253.527273 -94.959758 
L 250.145455 -95.055001 
L 246.763636 -95.308896 
L 243.381818 -95.308896 
L 240 -95.308896 
L 236.618182 -95.308896 
L 233.236364 -95.308896 
L 229.854545 -95.308896 
L 226.472727 -95.308896 
L 223.090909 -95.308896 
L 219.709091 -95.308896 
L 216.327273 -95.308896 
L 212.945455 -95.308896 
L 209.563636 -95.308896 
L 206.181818 -95.308896 
L 202.8 -96.49678 
L 199.418182 -96.49678 
L 196.036364 -96.49678 
L 192.654545 -96.49678 
L 189.272727 -96.49678 
L 185.890909 -96.49678 
L 182.509091 -96.49678 
L 179.127273 -96.49678 
L 175.745455 -96.49678 
L 172.363636 -96.49678 
L 168.981818 -96.49678 
L 165.6 -96.49678 
L 162.218182 -96.615929 
L 158.836364 -96.615929 
L 155.454545 -96.615929 
L 152.072727 -96.615929 
L 148.690909 -97.283497 
L 145.309091 -97.283497 
L 141.927273 -97.283497 
L 138.545455 -97.283497 
L 135.163636 -97.283497 
L 131.781818 -97.283497 
L 128.4 -104.723415 
L 125.018182 -104.723415 
L 121.636364 -104.723415 
L 118.254545 -104.723415 
L 114.872727 -104.723415 
L 111.490909 -104.723415 
L 108.109091 -104.723415 
L 104.727273 -104.723415 
L 101.345455 -107.826984 
L 97.963636 -108.586065 
L 94.581818 -108.586065 
L 91.2 -108.586065 
L 87.818182 -108.586065 
L 84.436364 -108.586065 
L 81.054545 -162.400666 
L 77.672727 -162.400666 
L 74.290909 -173.456877 
L 70.909091 -173.456877 
L 67.527273 -215.773485 
L 64.145455 -215.773485 
L 60.763636 -243.123318 
L 57.381818 -243.123318 
z
" id="m0e866a28b6" style="stroke:#ee82ee;stroke-opacity:0.5;"/>
    </defs>
    <g clip-path="url(#pea633ed699)">
     <use style="fill:#ee82ee;fill-opacity:0.5;stroke:#ee82ee;stroke-opacity:0.5;" x="0" xlink:href="#m0e866a28b6" y="288"/>
    </g>
   </g>
   <g id="matplotlib.axis_1">
    <g id="xtick_1">
     <g id="line2d_1">
      <defs>
       <path d="M 0 0 
L 0 3.5 
" id="m9dd324bc86" style="stroke:#000000;stroke-width:0.8;"/>
      </defs>
      <g>
       <use style="stroke:#000000;stroke-width:0.8;" x="54" xlink:href="#m9dd324bc86" y="252"/>
      </g>
     </g>
     <g id="text_1">
      <!-- 0 -->
      <g transform="translate(50.81875 266.598437)scale(0.1 -0.1)">
       <defs>
        <path d="M 31.78125 66.40625 
Q 24.171875 66.40625 20.328125 58.90625 
Q 16.5 51.421875 16.5 36.375 
Q 16.5 21.390625 20.328125 13.890625 
Q 24.171875 6.390625 31.78125 6.390625 
Q 39.453125 6.390625 43.28125 13.890625 
Q 47.125 21.390625 47.125 36.375 
Q 47.125 51.421875 43.28125 58.90625 
Q 39.453125 66.40625 31.78125 66.40625 
z
M 31.78125 74.21875 
Q 44.046875 74.21875 50.515625 64.515625 
Q 56.984375 54.828125 56.984375 36.375 
Q 56.984375 17.96875 50.515625 8.265625 
Q 44.046875 -1.421875 31.78125 -1.421875 
Q 19.53125 -1.421875 13.0625 8.265625 
Q 6.59375 17.96875 6.59375 36.375 
Q 6.59375 54.828125 13.0625 64.515625 
Q 19.53125 74.21875 31.78125 74.21875 
z
" id="DejaVuSans-48"/>
       </defs>
       <use xlink:href="#DejaVuSans-48"/>
      </g>
     </g>
    </g>
    <g id="xtick_2">
     <g id="line2d_2">
      <g>
       <use style="stroke:#000000;stroke-width:0.8;" x="121.636364" xlink:href="#m9dd324bc86" y="252"/>
      </g>
     </g>
     <g id="text_2">
      <!-- 20 -->
      <g transform="translate(115.273864 266.598437)scale(0.1 -0.1)">
       <defs>
        <path d="M 19.1875 8.296875 
L 53.609375 8.296875 
L 53.609375 0 
L 7.328125 0 
L 7.328125 8.296875 
Q 12.9375 14.109375 22.625 23.890625 
Q 32.328125 33.6875 34.8125 36.53125 
Q 39.546875 41.84375 41.421875 45.53125 
Q 43.3125 49.21875 43.3125 52.78125 
Q 43.3125 58.59375 39.234375 62.25 
Q 35.15625 65.921875 28.609375 65.921875 
Q 23.96875 65.921875 18.8125 64.3125 
Q 13.671875 62.703125 7.8125 59.421875 
L 7.8125 69.390625 
Q 13.765625 71.78125 18.9375 73 
Q 24.125 74.21875 28.421875 74.21875 
Q 39.75 74.21875 46.484375 68.546875 
Q 53.21875 62.890625 53.21875 53.421875 
Q 53.21875 48.921875 51.53125 44.890625 
Q 49.859375 40.875 45.40625 35.40625 
Q 44.1875 33.984375 37.640625 27.21875 
Q 31.109375 20.453125 19.1875 8.296875 
z
" id="DejaVuSans-50"/>
       </defs>
       <use xlink:href="#DejaVuSans-50"/>
       <use x="63.623047" xlink:href="#DejaVuSans-48"/>
      </g>
     </g>
    </g>
    <g id="xtick_3">
     <g id="line2d_3">
      <g>
       <use style="stroke:#000000;stroke-width:0.8;" x="189.272727" xlink:href="#m9dd324bc86" y="252"/>
      </g>
     </g>
     <g id="text_3">
      <!-- 40 -->
      <g transform="translate(182.910227 266.598437)scale(0.1 -0.1)">
       <defs>
        <path d="M 37.796875 64.3125 
L 12.890625 25.390625 
L 37.796875 25.390625 
z
M 35.203125 72.90625 
L 47.609375 72.90625 
L 47.609375 25.390625 
L 58.015625 25.390625 
L 58.015625 17.1875 
L 47.609375 17.1875 
L 47.609375 0 
L 37.796875 0 
L 37.796875 17.1875 
L 4.890625 17.1875 
L 4.890625 26.703125 
z
" id="DejaVuSans-52"/>
       </defs>
       <use xlink:href="#DejaVuSans-52"/>
       <use x="63.623047" xlink:href="#DejaVuSans-48"/>
      </g>
     </g>
    </g>
    <g id="xtick_4">
     <g id="line2d_4">
      <g>
       <use style="stroke:#000000;stroke-width:0.8;" x="256.909091" xlink:href="#m9dd324bc86" y="252"/>
      </g>
     </g>
     <g id="text_4">
      <!-- 60 -->
      <g transform="translate(250.546591 266.598437)scale(0.1 -0.1)">
       <defs>
        <path d="M 33.015625 40.375 
Q 26.375 40.375 22.484375 35.828125 
Q 18.609375 31.296875 18.609375 23.390625 
Q 18.609375 15.53125 22.484375 10.953125 
Q 26.375 6.390625 33.015625 6.390625 
Q 39.65625 6.390625 43.53125 10.953125 
Q 47.40625 15.53125 47.40625 23.390625 
Q 47.40625 31.296875 43.53125 35.828125 
Q 39.65625 40.375 33.015625 40.375 
z
M 52.59375 71.296875 
L 52.59375 62.3125 
Q 48.875 64.0625 45.09375 64.984375 
Q 41.3125 65.921875 37.59375 65.921875 
Q 27.828125 65.921875 22.671875 59.328125 
Q 17.53125 52.734375 16.796875 39.40625 
Q 19.671875 43.65625 24.015625 45.921875 
Q 28.375 48.1875 33.59375 48.1875 
Q 44.578125 48.1875 50.953125 41.515625 
Q 57.328125 34.859375 57.328125 23.390625 
Q 57.328125 12.15625 50.6875 5.359375 
Q 44.046875 -1.421875 33.015625 -1.421875 
Q 20.359375 -1.421875 13.671875 8.265625 
Q 6.984375 17.96875 6.984375 36.375 
Q 6.984375 53.65625 15.1875 63.9375 
Q 23.390625 74.21875 37.203125 74.21875 
Q 40.921875 74.21875 44.703125 73.484375 
Q 48.484375 72.75 52.59375 71.296875 
z
" id="DejaVuSans-54"/>
       </defs>
       <use xlink:href="#DejaVuSans-54"/>
       <use x="63.623047" xlink:href="#DejaVuSans-48"/>
      </g>
     </g>
    </g>
    <g id="xtick_5">
     <g id="line2d_5">
      <g>
       <use style="stroke:#000000;stroke-width:0.8;" x="324.545455" xlink:href="#m9dd324bc86" y="252"/>
      </g>
     </g>
     <g id="text_5">
      <!-- 80 -->
      <g transform="translate(318.182955 266.598437)scale(0.1 -0.1)">
       <defs>
        <path d="M 31.78125 34.625 
Q 24.75 34.625 20.71875 30.859375 
Q 16.703125 27.09375 16.703125 20.515625 
Q 16.703125 13.921875 20.71875 10.15625 
Q 24.75 6.390625 31.78125 6.390625 
Q 38.8125 6.390625 42.859375 10.171875 
Q 46.921875 13.96875 46.921875 20.515625 
Q 46.921875 27.09375 42.890625 30.859375 
Q 38.875 34.625 31.78125 34.625 
z
M 21.921875 38.8125 
Q 15.578125 40.375 12.03125 44.71875 
Q 8.5 49.078125 8.5 55.328125 
Q 8.5 64.0625 14.71875 69.140625 
Q 20.953125 74.21875 31.78125 74.21875 
Q 42.671875 74.21875 48.875 69.140625 
Q 55.078125 64.0625 55.078125 55.328125 
Q 55.078125 49.078125 51.53125 44.71875 
Q 48 40.375 41.703125 38.8125 
Q 48.828125 37.15625 52.796875 32.3125 
Q 56.78125 27.484375 56.78125 20.515625 
Q 56.78125 9.90625 50.3125 4.234375 
Q 43.84375 -1.421875 31.78125 -1.421875 
Q 19.734375 -1.421875 13.25 4.234375 
Q 6.78125 9.90625 6.78125 20.515625 
Q 6.78125 27.484375 10.78125 32.3125 
Q 14.796875 37.15625 21.921875 38.8125 
z
M 18.3125 54.390625 
Q 18.3125 48.734375 21.84375 45.5625 
Q 25.390625 42.390625 31.78125 42.390625 
Q 38.140625 42.390625 41.71875 45.5625 
Q 45.3125 48.734375 45.3125 54.390625 
Q 45.3125 60.0625 41.71875 63.234375 
Q 38.140625 66.40625 31.78125 66.40625 
Q 25.390625 66.40625 21.84375 63.234375 
Q 18.3125 60.0625 18.3125 54.390625 
z
" id="DejaVuSans-56"/>
       </defs>
       <use xlink:href="#DejaVuSans-56"/>
       <use x="63.623047" xlink:href="#DejaVuSans-48"/>
      </g>
     </g>
    </g>
   </g>
   <g id="matplotlib.axis_2">
    <g id="ytick_1">
     <g id="line2d_6">
      <defs>
       <path d="M 0 0 
L -3.5 0 
" id="mca0efa88ee" style="stroke:#000000;stroke-width:0.8;"/>
      </defs>
      <g>
       <use style="stroke:#000000;stroke-width:0.8;" x="54" xlink:href="#mca0efa88ee" y="178.510868"/>
      </g>
     </g>
     <g id="text_6">
      <!-- $\mathdefault{10^{3}}$ -->
      <g transform="translate(29.4 182.310087)scale(0.1 -0.1)">
       <defs>
        <path d="M 12.40625 8.296875 
L 28.515625 8.296875 
L 28.515625 63.921875 
L 10.984375 60.40625 
L 10.984375 69.390625 
L 28.421875 72.90625 
L 38.28125 72.90625 
L 38.28125 8.296875 
L 54.390625 8.296875 
L 54.390625 0 
L 12.40625 0 
z
" id="DejaVuSans-49"/>
        <path d="M 40.578125 39.3125 
Q 47.65625 37.796875 51.625 33 
Q 55.609375 28.21875 55.609375 21.1875 
Q 55.609375 10.40625 48.1875 4.484375 
Q 40.765625 -1.421875 27.09375 -1.421875 
Q 22.515625 -1.421875 17.65625 -0.515625 
Q 12.796875 0.390625 7.625 2.203125 
L 7.625 11.71875 
Q 11.71875 9.328125 16.59375 8.109375 
Q 21.484375 6.890625 26.8125 6.890625 
Q 36.078125 6.890625 40.9375 10.546875 
Q 45.796875 14.203125 45.796875 21.1875 
Q 45.796875 27.640625 41.28125 31.265625 
Q 36.765625 34.90625 28.71875 34.90625 
L 20.21875 34.90625 
L 20.21875 43.015625 
L 29.109375 43.015625 
Q 36.375 43.015625 40.234375 45.921875 
Q 44.09375 48.828125 44.09375 54.296875 
Q 44.09375 59.90625 40.109375 62.90625 
Q 36.140625 65.921875 28.71875 65.921875 
Q 24.65625 65.921875 20.015625 65.03125 
Q 15.375 64.15625 9.8125 62.3125 
L 9.8125 71.09375 
Q 15.4375 72.65625 20.34375 73.4375 
Q 25.25 74.21875 29.59375 74.21875 
Q 40.828125 74.21875 47.359375 69.109375 
Q 53.90625 64.015625 53.90625 55.328125 
Q 53.90625 49.265625 50.4375 45.09375 
Q 46.96875 40.921875 40.578125 39.3125 
z
" id="DejaVuSans-51"/>
       </defs>
       <use transform="translate(0 0.765625)" xlink:href="#DejaVuSans-49"/>
       <use transform="translate(63.623047 0.765625)" xlink:href="#DejaVuSans-48"/>
       <use transform="translate(128.203125 39.046875)scale(0.7)" xlink:href="#DejaVuSans-51"/>
      </g>
     </g>
    </g>
    <g id="ytick_2">
     <g id="line2d_7">
      <g>
       <use style="stroke:#000000;stroke-width:0.8;" x="54" xlink:href="#mca0efa88ee" y="82.705547"/>
      </g>
     </g>
     <g id="text_7">
      <!-- $\mathdefault{10^{4}}$ -->
      <g transform="translate(29.4 86.504766)scale(0.1 -0.1)">
       <use transform="translate(0 0.684375)" xlink:href="#DejaVuSans-49"/>
       <use transform="translate(63.623047 0.684375)" xlink:href="#DejaVuSans-48"/>
       <use transform="translate(128.203125 38.965625)scale(0.7)" xlink:href="#DejaVuSans-52"/>
      </g>
     </g>
    </g>
    <g id="ytick_3">
     <g id="line2d_8">
      <defs>
       <path d="M 0 0 
L -2 0 
" id="m764762e27e" style="stroke:#000000;stroke-width:0.6;"/>
      </defs>
      <g>
       <use style="stroke:#000000;stroke-width:0.6;" x="54" xlink:href="#m764762e27e" y="245.475913"/>
      </g>
     </g>
    </g>
    <g id="ytick_4">
     <g id="line2d_9">
      <g>
       <use style="stroke:#000000;stroke-width:0.6;" x="54" xlink:href="#m764762e27e" y="228.605434"/>
      </g>
     </g>
    </g>
    <g id="ytick_5">
     <g id="line2d_10">
      <g>
       <use style="stroke:#000000;stroke-width:0.6;" x="54" xlink:href="#m764762e27e" y="216.635638"/>
      </g>
     </g>
    </g>
    <g id="ytick_6">
     <g id="line2d_11">
      <g>
       <use style="stroke:#000000;stroke-width:0.6;" x="54" xlink:href="#m764762e27e" y="207.351143"/>
      </g>
     </g>
    </g>
    <g id="ytick_7">
     <g id="line2d_12">
      <g>
       <use style="stroke:#000000;stroke-width:0.6;" x="54" xlink:href="#m764762e27e" y="199.765159"/>
      </g>
     </g>
    </g>
    <g id="ytick_8">
     <g id="line2d_13">
      <g>
       <use style="stroke:#000000;stroke-width:0.6;" x="54" xlink:href="#m764762e27e" y="193.3513"/>
      </g>
     </g>
    </g>
    <g id="ytick_9">
     <g id="line2d_14">
      <g>
       <use style="stroke:#000000;stroke-width:0.6;" x="54" xlink:href="#m764762e27e" y="187.795363"/>
      </g>
     </g>
    </g>
    <g id="ytick_10">
     <g id="line2d_15">
      <g>
       <use style="stroke:#000000;stroke-width:0.6;" x="54" xlink:href="#m764762e27e" y="182.894679"/>
      </g>
     </g>
    </g>
    <g id="ytick_11">
     <g id="line2d_16">
      <g>
       <use style="stroke:#000000;stroke-width:0.6;" x="54" xlink:href="#m764762e27e" y="149.670593"/>
      </g>
     </g>
    </g>
    <g id="ytick_12">
     <g id="line2d_17">
      <g>
       <use style="stroke:#000000;stroke-width:0.6;" x="54" xlink:href="#m764762e27e" y="132.800113"/>
      </g>
     </g>
    </g>
    <g id="ytick_13">
     <g id="line2d_18">
      <g>
       <use style="stroke:#000000;stroke-width:0.6;" x="54" xlink:href="#m764762e27e" y="120.830317"/>
      </g>
     </g>
    </g>
    <g id="ytick_14">
     <g id="line2d_19">
      <g>
       <use style="stroke:#000000;stroke-width:0.6;" x="54" xlink:href="#m764762e27e" y="111.545822"/>
      </g>
     </g>
    </g>
    <g id="ytick_15">
     <g id="line2d_20">
      <g>
       <use style="stroke:#000000;stroke-width:0.6;" x="54" xlink:href="#m764762e27e" y="103.959838"/>
      </g>
     </g>
    </g>
    <g id="ytick_16">
     <g id="line2d_21">
      <g>
       <use style="stroke:#000000;stroke-width:0.6;" x="54" xlink:href="#m764762e27e" y="97.545979"/>
      </g>
     </g>
    </g>
    <g id="ytick_17">
     <g id="line2d_22">
      <g>
       <use style="stroke:#000000;stroke-width:0.6;" x="54" xlink:href="#m764762e27e" y="91.990042"/>
      </g>
     </g>
    </g>
    <g id="ytick_18">
     <g id="line2d_23">
      <g>
       <use style="stroke:#000000;stroke-width:0.6;" x="54" xlink:href="#m764762e27e" y="87.089358"/>
      </g>
     </g>
    </g>
    <g id="ytick_19">
     <g id="line2d_24">
      <g>
       <use style="stroke:#000000;stroke-width:0.6;" x="54" xlink:href="#m764762e27e" y="53.865272"/>
      </g>
     </g>
    </g>
    <g id="ytick_20">
     <g id="line2d_25">
      <g>
       <use style="stroke:#000000;stroke-width:0.6;" x="54" xlink:href="#m764762e27e" y="36.994792"/>
      </g>
     </g>
    </g>
   </g>
   <g id="line2d_26">
    <path clip-path="url(#pea633ed699)" d="M 57.381818 52.376007 
L 74.290909 52.376007 
L 74.290909 54.817186 
L 84.436364 54.817186 
L 84.436364 66.923868 
L 94.581818 66.923868 
L 94.581818 77.30077 
L 104.727273 77.30077 
L 104.727273 82.627382 
L 125.018182 82.627382 
L 125.018182 86.388352 
L 135.163636 86.388352 
L 135.163636 92.51467 
L 145.309091 92.51467 
L 145.309091 93.727341 
L 155.454545 93.727341 
L 155.454545 97.439605 
L 165.6 97.439605 
L 165.6 98.851143 
L 175.745455 98.851143 
L 175.745455 100.056901 
L 185.890909 100.056901 
L 185.890909 101.328686 
L 196.036364 101.328686 
L 196.036364 104.829632 
L 206.181818 104.829632 
L 206.181818 105.681534 
L 216.327273 105.681534 
L 216.327273 105.908958 
L 226.472727 105.908958 
L 226.472727 108.723693 
L 236.618182 108.723693 
L 236.618182 109.875329 
L 277.2 109.875329 
L 277.2 110.317539 
L 287.345455 110.317539 
L 287.345455 111.548891 
L 297.490909 111.548891 
L 297.490909 112.956793 
L 307.636364 112.956793 
L 307.636364 116.066802 
L 317.781818 116.066802 
L 317.781818 121.166374 
L 327.927273 121.166374 
L 327.927273 122.897019 
L 338.072727 122.897019 
L 338.072727 123.111697 
L 348.218182 123.111697 
L 348.218182 124.709131 
L 378.654545 124.709131 
L 378.654545 128.172975 
L 392.181818 128.172975 
L 392.181818 128.172975 
" style="fill:none;stroke:#a52a2a;stroke-linecap:square;stroke-width:1.5;"/>
   </g>
   <g id="line2d_27">
    <path clip-path="url(#pea633ed699)" d="M 57.381818 93.530173 
L 81.054545 93.530173 
L 81.054545 101.591622 
L 84.436364 101.591622 
L 84.436364 125.647708 
L 87.818182 125.647708 
L 87.818182 134.498883 
L 91.2 134.498883 
L 91.2 144.944679 
L 94.581818 144.944679 
L 94.581818 169.461944 
L 97.963636 169.461944 
L 97.963636 174.622051 
L 101.345455 174.622051 
L 101.345455 175.326449 
L 108.109091 175.326449 
L 108.109091 176.173049 
L 111.490909 176.173049 
L 111.490909 188.044489 
L 114.872727 188.044489 
L 114.872727 189.05807 
L 118.254545 189.05807 
L 118.254545 189.701606 
L 121.636364 189.701606 
L 121.636364 191.843027 
L 125.018182 191.843027 
L 125.018182 192.059984 
L 128.4 192.059984 
L 128.4 193.121364 
L 131.781818 193.121364 
L 131.781818 194.005281 
L 135.163636 194.005281 
L 135.163636 194.243674 
L 138.545455 194.243674 
L 138.545455 196.073868 
L 155.454545 196.073868 
L 155.454545 196.228884 
L 162.218182 196.228884 
L 162.218182 196.489567 
L 189.272727 196.577073 
L 189.272727 196.751743 
L 229.854545 196.751743 
L 229.854545 196.979562 
L 392.181818 197.06669 
L 392.181818 197.06669 
" style="fill:none;stroke:#008000;stroke-linecap:square;stroke-width:1.5;"/>
   </g>
   <g id="line2d_28">
    <path clip-path="url(#pea633ed699)" d="M 57.381818 48.907726 
L 128.4 48.907726 
L 128.4 51.893735 
L 131.781818 51.893735 
L 131.781818 52.285069 
L 135.163636 52.285069 
L 135.163636 52.57672 
L 145.309091 52.57672 
L 145.309091 53.469358 
L 199.418182 53.469358 
L 199.418182 53.704977 
L 219.709091 53.704977 
L 219.709091 54.266355 
L 358.363636 54.372842 
L 358.363636 54.429415 
L 378.654545 54.429415 
L 378.654545 54.595522 
L 392.181818 54.595522 
L 392.181818 54.595522 
" style="fill:none;stroke:#808080;stroke-linecap:square;stroke-width:1.5;"/>
   </g>
   <g id="line2d_29">
    <path clip-path="url(#pea633ed699)" d="M 57.381818 49.171435 
L 128.4 49.171435 
L 128.4 50.252315 
L 135.163636 50.252315 
L 135.163636 52.111731 
L 145.309091 52.111731 
L 145.309091 52.463205 
L 162.218182 52.463205 
L 162.218182 52.752846 
L 182.509091 52.752846 
L 182.509091 53.021882 
L 185.890909 53.021882 
L 185.890909 53.717934 
L 243.381818 53.717934 
L 243.381818 54.131907 
L 246.763636 54.131907 
L 246.763636 54.654148 
L 270.436364 54.654148 
L 270.436364 54.907678 
L 280.581818 54.907678 
L 280.581818 56.159785 
L 297.490909 56.159785 
L 297.490909 56.320468 
L 300.872727 56.320468 
L 300.872727 56.886313 
L 327.927273 56.886313 
L 327.927273 57.061817 
L 392.181818 57.061817 
L 392.181818 57.061817 
" style="fill:none;stroke:#ffa500;stroke-linecap:square;stroke-width:1.5;"/>
   </g>
   <g id="line2d_30">
    <path clip-path="url(#pea633ed699)" d="M 57.381818 47.658035 
L 101.345455 47.658035 
L 101.345455 48.842718 
L 104.727273 48.842718 
L 104.727273 54.482408 
L 135.163636 54.482408 
L 135.163636 56.055838 
L 168.981818 56.055838 
L 168.981818 56.540596 
L 199.418182 56.540596 
L 199.418182 57.998786 
L 206.181818 57.998786 
L 206.181818 59.696566 
L 233.236364 59.696566 
L 233.236364 60.574215 
L 236.618182 60.574215 
L 236.618182 63.498583 
L 260.290909 63.498583 
L 260.290909 64.066317 
L 294.109091 64.066317 
L 294.109091 64.690849 
L 297.490909 64.690849 
L 297.490909 65.189804 
L 388.8 65.189804 
L 388.8 66.135341 
L 392.181818 66.135341 
L 392.181818 66.135341 
" style="fill:none;stroke:#0000ff;stroke-linecap:square;stroke-width:1.5;"/>
   </g>
   <g id="line2d_31">
    <path clip-path="url(#pea633ed699)" d="M 57.381818 47.615775 
L 60.763636 47.615775 
L 60.763636 50.250571 
L 64.145455 50.250571 
L 64.145455 102.783848 
L 67.527273 102.783848 
L 67.527273 106.068157 
L 70.909091 106.068157 
L 70.909091 144.448545 
L 74.290909 144.448545 
L 74.290909 146.122592 
L 77.672727 146.122592 
L 77.672727 168.384329 
L 81.054545 168.384329 
L 81.054545 179.608452 
L 84.436364 179.608452 
L 84.436364 181.77688 
L 91.2 181.77688 
L 91.2 182.928001 
L 101.345455 182.928001 
L 101.345455 183.892332 
L 104.727273 183.892332 
L 104.727273 185.267953 
L 118.254545 185.267953 
L 118.254545 187.873237 
L 131.781818 187.873237 
L 131.781818 191.503414 
L 145.309091 191.542501 
L 145.309091 192.11749 
L 152.072727 192.11749 
L 152.072727 192.692477 
L 165.6 192.692477 
L 165.6 193.19455 
L 182.509091 193.19455 
L 182.509091 193.413381 
L 206.181818 193.413381 
L 206.181818 194.395367 
L 226.472727 194.395367 
L 226.472727 195.077488 
L 277.2 195.077488 
L 277.2 195.508401 
L 287.345455 195.592148 
L 287.345455 195.849788 
L 314.4 195.849788 
L 314.4 196.338271 
L 382.036364 196.398425 
L 382.036364 196.483599 
L 392.181818 196.483599 
L 392.181818 196.483599 
" style="fill:none;stroke:#ee82ee;stroke-linecap:square;stroke-width:1.5;"/>
   </g>
   <g id="patch_3">
    <path d="M 54 252 
L 54 34.56 
" style="fill:none;stroke:#000000;stroke-linecap:square;stroke-linejoin:miter;stroke-width:0.8;"/>
   </g>
   <g id="patch_4">
    <path d="M 388.8 252 
L 388.8 34.56 
" style="fill:none;stroke:#000000;stroke-linecap:square;stroke-linejoin:miter;stroke-width:0.8;"/>
   </g>
   <g id="patch_5">
    <path d="M 54 252 
L 388.8 252 
" style="fill:none;stroke:#000000;stroke-linecap:square;stroke-linejoin:miter;stroke-width:0.8;"/>
   </g>
   <g id="patch_6">
    <path d="M 54 34.56 
L 388.8 34.56 
" style="fill:none;stroke:#000000;stroke-linecap:square;stroke-linejoin:miter;stroke-width:0.8;"/>
   </g>
   <g id="legend_1">
    <g id="patch_7">
     <path d="M 61 188.814375 
L 172.69375 188.814375 
Q 174.69375 188.814375 174.69375 186.814375 
L 174.69375 99.745625 
Q 174.69375 97.745625 172.69375 97.745625 
L 61 97.745625 
Q 59 97.745625 59 99.745625 
L 59 186.814375 
Q 59 188.814375 61 188.814375 
z
" style="fill:#ffffff;opacity:0.8;stroke:#cccccc;stroke-linejoin:miter;"/>
    </g>
    <g id="line2d_32">
     <path d="M 63 105.844063 
L 83 105.844063 
" style="fill:none;stroke:#a52a2a;stroke-linecap:square;stroke-width:1.5;"/>
    </g>
    <g id="line2d_33"/>
    <g id="text_8">
     <!-- Nesterov -->
     <g transform="translate(91 109.344063)scale(0.1 -0.1)">
      <defs>
       <path d="M 9.8125 72.90625 
L 23.09375 72.90625 
L 55.421875 11.921875 
L 55.421875 72.90625 
L 64.984375 72.90625 
L 64.984375 0 
L 51.703125 0 
L 19.390625 60.984375 
L 19.390625 0 
L 9.8125 0 
z
" id="DejaVuSans-78"/>
       <path d="M 56.203125 29.59375 
L 56.203125 25.203125 
L 14.890625 25.203125 
Q 15.484375 15.921875 20.484375 11.0625 
Q 25.484375 6.203125 34.421875 6.203125 
Q 39.59375 6.203125 44.453125 7.46875 
Q 49.3125 8.734375 54.109375 11.28125 
L 54.109375 2.78125 
Q 49.265625 0.734375 44.1875 -0.34375 
Q 39.109375 -1.421875 33.890625 -1.421875 
Q 20.796875 -1.421875 13.15625 6.1875 
Q 5.515625 13.8125 5.515625 26.8125 
Q 5.515625 40.234375 12.765625 48.109375 
Q 20.015625 56 32.328125 56 
Q 43.359375 56 49.78125 48.890625 
Q 56.203125 41.796875 56.203125 29.59375 
z
M 47.21875 32.234375 
Q 47.125 39.59375 43.09375 43.984375 
Q 39.0625 48.390625 32.421875 48.390625 
Q 24.90625 48.390625 20.390625 44.140625 
Q 15.875 39.890625 15.1875 32.171875 
z
" id="DejaVuSans-101"/>
       <path d="M 44.28125 53.078125 
L 44.28125 44.578125 
Q 40.484375 46.53125 36.375 47.5 
Q 32.28125 48.484375 27.875 48.484375 
Q 21.1875 48.484375 17.84375 46.4375 
Q 14.5 44.390625 14.5 40.28125 
Q 14.5 37.15625 16.890625 35.375 
Q 19.28125 33.59375 26.515625 31.984375 
L 29.59375 31.296875 
Q 39.15625 29.25 43.1875 25.515625 
Q 47.21875 21.78125 47.21875 15.09375 
Q 47.21875 7.46875 41.1875 3.015625 
Q 35.15625 -1.421875 24.609375 -1.421875 
Q 20.21875 -1.421875 15.453125 -0.5625 
Q 10.6875 0.296875 5.421875 2 
L 5.421875 11.28125 
Q 10.40625 8.6875 15.234375 7.390625 
Q 20.0625 6.109375 24.8125 6.109375 
Q 31.15625 6.109375 34.5625 8.28125 
Q 37.984375 10.453125 37.984375 14.40625 
Q 37.984375 18.0625 35.515625 20.015625 
Q 33.0625 21.96875 24.703125 23.78125 
L 21.578125 24.515625 
Q 13.234375 26.265625 9.515625 29.90625 
Q 5.8125 33.546875 5.8125 39.890625 
Q 5.8125 47.609375 11.28125 51.796875 
Q 16.75 56 26.8125 56 
Q 31.78125 56 36.171875 55.265625 
Q 40.578125 54.546875 44.28125 53.078125 
z
" id="DejaVuSans-115"/>
       <path d="M 18.3125 70.21875 
L 18.3125 54.6875 
L 36.8125 54.6875 
L 36.8125 47.703125 
L 18.3125 47.703125 
L 18.3125 18.015625 
Q 18.3125 11.328125 20.140625 9.421875 
Q 21.96875 7.515625 27.59375 7.515625 
L 36.8125 7.515625 
L 36.8125 0 
L 27.59375 0 
Q 17.1875 0 13.234375 3.875 
Q 9.28125 7.765625 9.28125 18.015625 
L 9.28125 47.703125 
L 2.6875 47.703125 
L 2.6875 54.6875 
L 9.28125 54.6875 
L 9.28125 70.21875 
z
" id="DejaVuSans-116"/>
       <path d="M 41.109375 46.296875 
Q 39.59375 47.171875 37.8125 47.578125 
Q 36.03125 48 33.890625 48 
Q 26.265625 48 22.1875 43.046875 
Q 18.109375 38.09375 18.109375 28.8125 
L 18.109375 0 
L 9.078125 0 
L 9.078125 54.6875 
L 18.109375 54.6875 
L 18.109375 46.1875 
Q 20.953125 51.171875 25.484375 53.578125 
Q 30.03125 56 36.53125 56 
Q 37.453125 56 38.578125 55.875 
Q 39.703125 55.765625 41.0625 55.515625 
z
" id="DejaVuSans-114"/>
       <path d="M 30.609375 48.390625 
Q 23.390625 48.390625 19.1875 42.75 
Q 14.984375 37.109375 14.984375 27.296875 
Q 14.984375 17.484375 19.15625 11.84375 
Q 23.34375 6.203125 30.609375 6.203125 
Q 37.796875 6.203125 41.984375 11.859375 
Q 46.1875 17.53125 46.1875 27.296875 
Q 46.1875 37.015625 41.984375 42.703125 
Q 37.796875 48.390625 30.609375 48.390625 
z
M 30.609375 56 
Q 42.328125 56 49.015625 48.375 
Q 55.71875 40.765625 55.71875 27.296875 
Q 55.71875 13.875 49.015625 6.21875 
Q 42.328125 -1.421875 30.609375 -1.421875 
Q 18.84375 -1.421875 12.171875 6.21875 
Q 5.515625 13.875 5.515625 27.296875 
Q 5.515625 40.765625 12.171875 48.375 
Q 18.84375 56 30.609375 56 
z
" id="DejaVuSans-111"/>
       <path d="M 2.984375 54.6875 
L 12.5 54.6875 
L 29.59375 8.796875 
L 46.6875 54.6875 
L 56.203125 54.6875 
L 35.6875 0 
L 23.484375 0 
z
" id="DejaVuSans-118"/>
      </defs>
      <use xlink:href="#DejaVuSans-78"/>
      <use x="74.804688" xlink:href="#DejaVuSans-101"/>
      <use x="136.328125" xlink:href="#DejaVuSans-115"/>
      <use x="188.427734" xlink:href="#DejaVuSans-116"/>
      <use x="227.636719" xlink:href="#DejaVuSans-101"/>
      <use x="289.160156" xlink:href="#DejaVuSans-114"/>
      <use x="328.023438" xlink:href="#DejaVuSans-111"/>
      <use x="389.205078" xlink:href="#DejaVuSans-118"/>
     </g>
    </g>
    <g id="line2d_34">
     <path d="M 63 120.522188 
L 83 120.522188 
" style="fill:none;stroke:#008000;stroke-linecap:square;stroke-width:1.5;"/>
    </g>
    <g id="line2d_35"/>
    <g id="text_9">
     <!-- Simplex -->
     <g transform="translate(91 124.022188)scale(0.1 -0.1)">
      <defs>
       <path d="M 53.515625 70.515625 
L 53.515625 60.890625 
Q 47.90625 63.578125 42.921875 64.890625 
Q 37.9375 66.21875 33.296875 66.21875 
Q 25.25 66.21875 20.875 63.09375 
Q 16.5 59.96875 16.5 54.203125 
Q 16.5 49.359375 19.40625 46.890625 
Q 22.3125 44.4375 30.421875 42.921875 
L 36.375 41.703125 
Q 47.40625 39.59375 52.65625 34.296875 
Q 57.90625 29 57.90625 20.125 
Q 57.90625 9.515625 50.796875 4.046875 
Q 43.703125 -1.421875 29.984375 -1.421875 
Q 24.8125 -1.421875 18.96875 -0.25 
Q 13.140625 0.921875 6.890625 3.21875 
L 6.890625 13.375 
Q 12.890625 10.015625 18.65625 8.296875 
Q 24.421875 6.59375 29.984375 6.59375 
Q 38.421875 6.59375 43.015625 9.90625 
Q 47.609375 13.234375 47.609375 19.390625 
Q 47.609375 24.75 44.3125 27.78125 
Q 41.015625 30.8125 33.5 32.328125 
L 27.484375 33.5 
Q 16.453125 35.6875 11.515625 40.375 
Q 6.59375 45.0625 6.59375 53.421875 
Q 6.59375 63.09375 13.40625 68.65625 
Q 20.21875 74.21875 32.171875 74.21875 
Q 37.3125 74.21875 42.625 73.28125 
Q 47.953125 72.359375 53.515625 70.515625 
z
" id="DejaVuSans-83"/>
       <path d="M 9.421875 54.6875 
L 18.40625 54.6875 
L 18.40625 0 
L 9.421875 0 
z
M 9.421875 75.984375 
L 18.40625 75.984375 
L 18.40625 64.59375 
L 9.421875 64.59375 
z
" id="DejaVuSans-105"/>
       <path d="M 52 44.1875 
Q 55.375 50.25 60.0625 53.125 
Q 64.75 56 71.09375 56 
Q 79.640625 56 84.28125 50.015625 
Q 88.921875 44.046875 88.921875 33.015625 
L 88.921875 0 
L 79.890625 0 
L 79.890625 32.71875 
Q 79.890625 40.578125 77.09375 44.375 
Q 74.3125 48.1875 68.609375 48.1875 
Q 61.625 48.1875 57.5625 43.546875 
Q 53.515625 38.921875 53.515625 30.90625 
L 53.515625 0 
L 44.484375 0 
L 44.484375 32.71875 
Q 44.484375 40.625 41.703125 44.40625 
Q 38.921875 48.1875 33.109375 48.1875 
Q 26.21875 48.1875 22.15625 43.53125 
Q 18.109375 38.875 18.109375 30.90625 
L 18.109375 0 
L 9.078125 0 
L 9.078125 54.6875 
L 18.109375 54.6875 
L 18.109375 46.1875 
Q 21.1875 51.21875 25.484375 53.609375 
Q 29.78125 56 35.6875 56 
Q 41.65625 56 45.828125 52.96875 
Q 50 49.953125 52 44.1875 
z
" id="DejaVuSans-109"/>
       <path d="M 18.109375 8.203125 
L 18.109375 -20.796875 
L 9.078125 -20.796875 
L 9.078125 54.6875 
L 18.109375 54.6875 
L 18.109375 46.390625 
Q 20.953125 51.265625 25.265625 53.625 
Q 29.59375 56 35.59375 56 
Q 45.5625 56 51.78125 48.09375 
Q 58.015625 40.1875 58.015625 27.296875 
Q 58.015625 14.40625 51.78125 6.484375 
Q 45.5625 -1.421875 35.59375 -1.421875 
Q 29.59375 -1.421875 25.265625 0.953125 
Q 20.953125 3.328125 18.109375 8.203125 
z
M 48.6875 27.296875 
Q 48.6875 37.203125 44.609375 42.84375 
Q 40.53125 48.484375 33.40625 48.484375 
Q 26.265625 48.484375 22.1875 42.84375 
Q 18.109375 37.203125 18.109375 27.296875 
Q 18.109375 17.390625 22.1875 11.75 
Q 26.265625 6.109375 33.40625 6.109375 
Q 40.53125 6.109375 44.609375 11.75 
Q 48.6875 17.390625 48.6875 27.296875 
z
" id="DejaVuSans-112"/>
       <path d="M 9.421875 75.984375 
L 18.40625 75.984375 
L 18.40625 0 
L 9.421875 0 
z
" id="DejaVuSans-108"/>
       <path d="M 54.890625 54.6875 
L 35.109375 28.078125 
L 55.90625 0 
L 45.3125 0 
L 29.390625 21.484375 
L 13.484375 0 
L 2.875 0 
L 24.125 28.609375 
L 4.6875 54.6875 
L 15.28125 54.6875 
L 29.78125 35.203125 
L 44.28125 54.6875 
z
" id="DejaVuSans-120"/>
      </defs>
      <use xlink:href="#DejaVuSans-83"/>
      <use x="63.476562" xlink:href="#DejaVuSans-105"/>
      <use x="91.259766" xlink:href="#DejaVuSans-109"/>
      <use x="188.671875" xlink:href="#DejaVuSans-112"/>
      <use x="252.148438" xlink:href="#DejaVuSans-108"/>
      <use x="279.931641" xlink:href="#DejaVuSans-101"/>
      <use x="339.705078" xlink:href="#DejaVuSans-120"/>
     </g>
    </g>
    <g id="line2d_36">
     <path d="M 63 135.200312 
L 83 135.200312 
" style="fill:none;stroke:#808080;stroke-linecap:square;stroke-width:1.5;"/>
    </g>
    <g id="line2d_37"/>
    <g id="text_10">
     <!-- Approx. Newton -->
     <g transform="translate(91 138.700312)scale(0.1 -0.1)">
      <defs>
       <path d="M 34.1875 63.1875 
L 20.796875 26.90625 
L 47.609375 26.90625 
z
M 28.609375 72.90625 
L 39.796875 72.90625 
L 67.578125 0 
L 57.328125 0 
L 50.6875 18.703125 
L 17.828125 18.703125 
L 11.1875 0 
L 0.78125 0 
z
" id="DejaVuSans-65"/>
       <path d="M 10.6875 12.40625 
L 21 12.40625 
L 21 0 
L 10.6875 0 
z
" id="DejaVuSans-46"/>
       <path id="DejaVuSans-32"/>
       <path d="M 4.203125 54.6875 
L 13.1875 54.6875 
L 24.421875 12.015625 
L 35.59375 54.6875 
L 46.1875 54.6875 
L 57.421875 12.015625 
L 68.609375 54.6875 
L 77.59375 54.6875 
L 63.28125 0 
L 52.6875 0 
L 40.921875 44.828125 
L 29.109375 0 
L 18.5 0 
z
" id="DejaVuSans-119"/>
       <path d="M 54.890625 33.015625 
L 54.890625 0 
L 45.90625 0 
L 45.90625 32.71875 
Q 45.90625 40.484375 42.875 44.328125 
Q 39.84375 48.1875 33.796875 48.1875 
Q 26.515625 48.1875 22.3125 43.546875 
Q 18.109375 38.921875 18.109375 30.90625 
L 18.109375 0 
L 9.078125 0 
L 9.078125 54.6875 
L 18.109375 54.6875 
L 18.109375 46.1875 
Q 21.34375 51.125 25.703125 53.5625 
Q 30.078125 56 35.796875 56 
Q 45.21875 56 50.046875 50.171875 
Q 54.890625 44.34375 54.890625 33.015625 
z
" id="DejaVuSans-110"/>
      </defs>
      <use xlink:href="#DejaVuSans-65"/>
      <use x="68.408203" xlink:href="#DejaVuSans-112"/>
      <use x="131.884766" xlink:href="#DejaVuSans-112"/>
      <use x="195.361328" xlink:href="#DejaVuSans-114"/>
      <use x="234.224609" xlink:href="#DejaVuSans-111"/>
      <use x="292.28125" xlink:href="#DejaVuSans-120"/>
      <use x="351.460938" xlink:href="#DejaVuSans-46"/>
      <use x="383.248047" xlink:href="#DejaVuSans-32"/>
      <use x="415.035156" xlink:href="#DejaVuSans-78"/>
      <use x="489.839844" xlink:href="#DejaVuSans-101"/>
      <use x="551.363281" xlink:href="#DejaVuSans-119"/>
      <use x="633.150391" xlink:href="#DejaVuSans-116"/>
      <use x="672.359375" xlink:href="#DejaVuSans-111"/>
      <use x="733.541016" xlink:href="#DejaVuSans-110"/>
     </g>
    </g>
    <g id="line2d_38">
     <path d="M 63 149.878438 
L 83 149.878438 
" style="fill:none;stroke:#ffa500;stroke-linecap:square;stroke-width:1.5;"/>
    </g>
    <g id="line2d_39"/>
    <g id="text_11">
     <!-- Approx. BFGS -->
     <g transform="translate(91 153.378438)scale(0.1 -0.1)">
      <defs>
       <path d="M 19.671875 34.8125 
L 19.671875 8.109375 
L 35.5 8.109375 
Q 43.453125 8.109375 47.28125 11.40625 
Q 51.125 14.703125 51.125 21.484375 
Q 51.125 28.328125 47.28125 31.5625 
Q 43.453125 34.8125 35.5 34.8125 
z
M 19.671875 64.796875 
L 19.671875 42.828125 
L 34.28125 42.828125 
Q 41.5 42.828125 45.03125 45.53125 
Q 48.578125 48.25 48.578125 53.8125 
Q 48.578125 59.328125 45.03125 62.0625 
Q 41.5 64.796875 34.28125 64.796875 
z
M 9.8125 72.90625 
L 35.015625 72.90625 
Q 46.296875 72.90625 52.390625 68.21875 
Q 58.5 63.53125 58.5 54.890625 
Q 58.5 48.1875 55.375 44.234375 
Q 52.25 40.28125 46.1875 39.3125 
Q 53.46875 37.75 57.5 32.78125 
Q 61.53125 27.828125 61.53125 20.40625 
Q 61.53125 10.640625 54.890625 5.3125 
Q 48.25 0 35.984375 0 
L 9.8125 0 
z
" id="DejaVuSans-66"/>
       <path d="M 9.8125 72.90625 
L 51.703125 72.90625 
L 51.703125 64.59375 
L 19.671875 64.59375 
L 19.671875 43.109375 
L 48.578125 43.109375 
L 48.578125 34.8125 
L 19.671875 34.8125 
L 19.671875 0 
L 9.8125 0 
z
" id="DejaVuSans-70"/>
       <path d="M 59.515625 10.40625 
L 59.515625 29.984375 
L 43.40625 29.984375 
L 43.40625 38.09375 
L 69.28125 38.09375 
L 69.28125 6.78125 
Q 63.578125 2.734375 56.6875 0.65625 
Q 49.8125 -1.421875 42 -1.421875 
Q 24.90625 -1.421875 15.25 8.5625 
Q 5.609375 18.5625 5.609375 36.375 
Q 5.609375 54.25 15.25 64.234375 
Q 24.90625 74.21875 42 74.21875 
Q 49.125 74.21875 55.546875 72.453125 
Q 61.96875 70.703125 67.390625 67.28125 
L 67.390625 56.78125 
Q 61.921875 61.421875 55.765625 63.765625 
Q 49.609375 66.109375 42.828125 66.109375 
Q 29.4375 66.109375 22.71875 58.640625 
Q 16.015625 51.171875 16.015625 36.375 
Q 16.015625 21.625 22.71875 14.15625 
Q 29.4375 6.6875 42.828125 6.6875 
Q 48.046875 6.6875 52.140625 7.59375 
Q 56.25 8.5 59.515625 10.40625 
z
" id="DejaVuSans-71"/>
      </defs>
      <use xlink:href="#DejaVuSans-65"/>
      <use x="68.408203" xlink:href="#DejaVuSans-112"/>
      <use x="131.884766" xlink:href="#DejaVuSans-112"/>
      <use x="195.361328" xlink:href="#DejaVuSans-114"/>
      <use x="234.224609" xlink:href="#DejaVuSans-111"/>
      <use x="292.28125" xlink:href="#DejaVuSans-120"/>
      <use x="351.460938" xlink:href="#DejaVuSans-46"/>
      <use x="383.248047" xlink:href="#DejaVuSans-32"/>
      <use x="415.035156" xlink:href="#DejaVuSans-66"/>
      <use x="483.638672" xlink:href="#DejaVuSans-70"/>
      <use x="541.158203" xlink:href="#DejaVuSans-71"/>
      <use x="618.648438" xlink:href="#DejaVuSans-83"/>
     </g>
    </g>
    <g id="line2d_40">
     <path d="M 63 164.556563 
L 83 164.556563 
" style="fill:none;stroke:#0000ff;stroke-linecap:square;stroke-width:1.5;"/>
    </g>
    <g id="line2d_41"/>
    <g id="text_12">
     <!-- Adam  -->
     <g transform="translate(91 168.056563)scale(0.1 -0.1)">
      <defs>
       <path d="M 45.40625 46.390625 
L 45.40625 75.984375 
L 54.390625 75.984375 
L 54.390625 0 
L 45.40625 0 
L 45.40625 8.203125 
Q 42.578125 3.328125 38.25 0.953125 
Q 33.9375 -1.421875 27.875 -1.421875 
Q 17.96875 -1.421875 11.734375 6.484375 
Q 5.515625 14.40625 5.515625 27.296875 
Q 5.515625 40.1875 11.734375 48.09375 
Q 17.96875 56 27.875 56 
Q 33.9375 56 38.25 53.625 
Q 42.578125 51.265625 45.40625 46.390625 
z
M 14.796875 27.296875 
Q 14.796875 17.390625 18.875 11.75 
Q 22.953125 6.109375 30.078125 6.109375 
Q 37.203125 6.109375 41.296875 11.75 
Q 45.40625 17.390625 45.40625 27.296875 
Q 45.40625 37.203125 41.296875 42.84375 
Q 37.203125 48.484375 30.078125 48.484375 
Q 22.953125 48.484375 18.875 42.84375 
Q 14.796875 37.203125 14.796875 27.296875 
z
" id="DejaVuSans-100"/>
       <path d="M 34.28125 27.484375 
Q 23.390625 27.484375 19.1875 25 
Q 14.984375 22.515625 14.984375 16.5 
Q 14.984375 11.71875 18.140625 8.90625 
Q 21.296875 6.109375 26.703125 6.109375 
Q 34.1875 6.109375 38.703125 11.40625 
Q 43.21875 16.703125 43.21875 25.484375 
L 43.21875 27.484375 
z
M 52.203125 31.203125 
L 52.203125 0 
L 43.21875 0 
L 43.21875 8.296875 
Q 40.140625 3.328125 35.546875 0.953125 
Q 30.953125 -1.421875 24.3125 -1.421875 
Q 15.921875 -1.421875 10.953125 3.296875 
Q 6 8.015625 6 15.921875 
Q 6 25.140625 12.171875 29.828125 
Q 18.359375 34.515625 30.609375 34.515625 
L 43.21875 34.515625 
L 43.21875 35.40625 
Q 43.21875 41.609375 39.140625 45 
Q 35.0625 48.390625 27.6875 48.390625 
Q 23 48.390625 18.546875 47.265625 
Q 14.109375 46.140625 10.015625 43.890625 
L 10.015625 52.203125 
Q 14.9375 54.109375 19.578125 55.046875 
Q 24.21875 56 28.609375 56 
Q 40.484375 56 46.34375 49.84375 
Q 52.203125 43.703125 52.203125 31.203125 
z
" id="DejaVuSans-97"/>
      </defs>
      <use xlink:href="#DejaVuSans-65"/>
      <use x="66.658203" xlink:href="#DejaVuSans-100"/>
      <use x="130.134766" xlink:href="#DejaVuSans-97"/>
      <use x="191.414062" xlink:href="#DejaVuSans-109"/>
      <use x="288.826172" xlink:href="#DejaVuSans-32"/>
     </g>
    </g>
    <g id="line2d_42">
     <path d="M 63 179.234688 
L 83 179.234688 
" style="fill:none;stroke:#ee82ee;stroke-linecap:square;stroke-width:1.5;"/>
    </g>
    <g id="line2d_43"/>
    <g id="text_13">
     <!-- DIRECT -->
     <g transform="translate(91 182.734688)scale(0.1 -0.1)">
      <defs>
       <path d="M 19.671875 64.796875 
L 19.671875 8.109375 
L 31.59375 8.109375 
Q 46.6875 8.109375 53.6875 14.9375 
Q 60.6875 21.78125 60.6875 36.53125 
Q 60.6875 51.171875 53.6875 57.984375 
Q 46.6875 64.796875 31.59375 64.796875 
z
M 9.8125 72.90625 
L 30.078125 72.90625 
Q 51.265625 72.90625 61.171875 64.09375 
Q 71.09375 55.28125 71.09375 36.53125 
Q 71.09375 17.671875 61.125 8.828125 
Q 51.171875 0 30.078125 0 
L 9.8125 0 
z
" id="DejaVuSans-68"/>
       <path d="M 9.8125 72.90625 
L 19.671875 72.90625 
L 19.671875 0 
L 9.8125 0 
z
" id="DejaVuSans-73"/>
       <path d="M 44.390625 34.1875 
Q 47.5625 33.109375 50.5625 29.59375 
Q 53.5625 26.078125 56.59375 19.921875 
L 66.609375 0 
L 56 0 
L 46.6875 18.703125 
Q 43.0625 26.03125 39.671875 28.421875 
Q 36.28125 30.8125 30.421875 30.8125 
L 19.671875 30.8125 
L 19.671875 0 
L 9.8125 0 
L 9.8125 72.90625 
L 32.078125 72.90625 
Q 44.578125 72.90625 50.734375 67.671875 
Q 56.890625 62.453125 56.890625 51.90625 
Q 56.890625 45.015625 53.6875 40.46875 
Q 50.484375 35.9375 44.390625 34.1875 
z
M 19.671875 64.796875 
L 19.671875 38.921875 
L 32.078125 38.921875 
Q 39.203125 38.921875 42.84375 42.21875 
Q 46.484375 45.515625 46.484375 51.90625 
Q 46.484375 58.296875 42.84375 61.546875 
Q 39.203125 64.796875 32.078125 64.796875 
z
" id="DejaVuSans-82"/>
       <path d="M 9.8125 72.90625 
L 55.90625 72.90625 
L 55.90625 64.59375 
L 19.671875 64.59375 
L 19.671875 43.015625 
L 54.390625 43.015625 
L 54.390625 34.71875 
L 19.671875 34.71875 
L 19.671875 8.296875 
L 56.78125 8.296875 
L 56.78125 0 
L 9.8125 0 
z
" id="DejaVuSans-69"/>
       <path d="M 64.40625 67.28125 
L 64.40625 56.890625 
Q 59.421875 61.53125 53.78125 63.8125 
Q 48.140625 66.109375 41.796875 66.109375 
Q 29.296875 66.109375 22.65625 58.46875 
Q 16.015625 50.828125 16.015625 36.375 
Q 16.015625 21.96875 22.65625 14.328125 
Q 29.296875 6.6875 41.796875 6.6875 
Q 48.140625 6.6875 53.78125 8.984375 
Q 59.421875 11.28125 64.40625 15.921875 
L 64.40625 5.609375 
Q 59.234375 2.09375 53.4375 0.328125 
Q 47.65625 -1.421875 41.21875 -1.421875 
Q 24.65625 -1.421875 15.125 8.703125 
Q 5.609375 18.84375 5.609375 36.375 
Q 5.609375 53.953125 15.125 64.078125 
Q 24.65625 74.21875 41.21875 74.21875 
Q 47.75 74.21875 53.53125 72.484375 
Q 59.328125 70.75 64.40625 67.28125 
z
" id="DejaVuSans-67"/>
       <path d="M -0.296875 72.90625 
L 61.375 72.90625 
L 61.375 64.59375 
L 35.5 64.59375 
L 35.5 0 
L 25.59375 0 
L 25.59375 64.59375 
L -0.296875 64.59375 
z
" id="DejaVuSans-84"/>
      </defs>
      <use xlink:href="#DejaVuSans-68"/>
      <use x="77.001953" xlink:href="#DejaVuSans-73"/>
      <use x="106.494141" xlink:href="#DejaVuSans-82"/>
      <use x="175.976562" xlink:href="#DejaVuSans-69"/>
      <use x="239.160156" xlink:href="#DejaVuSans-67"/>
      <use x="308.984375" xlink:href="#DejaVuSans-84"/>
     </g>
    </g>
   </g>
  </g>
 </g>
 <defs>
  <clipPath id="pea633ed699">
   <rect height="217.44" width="334.8" x="54" y="34.56"/>
  </clipPath>
 </defs>
</svg>
