<?xml version="1.0" encoding="utf-8" standalone="no"?>
<!DOCTYPE svg PUBLIC "-//W3C//DTD SVG 1.1//EN"
  "http://www.w3.org/Graphics/SVG/1.1/DTD/svg11.dtd">
<!-- Created with matplotlib (https://matplotlib.org/) -->
<svg height="288pt" version="1.1" viewBox="0 0 432 288" width="432pt" xmlns="http://www.w3.org/2000/svg" xmlns:xlink="http://www.w3.org/1999/xlink">
 <metadata>
  <rdf:RDF xmlns:cc="http://creativecommons.org/ns#" xmlns:dc="http://purl.org/dc/elements/1.1/" xmlns:rdf="http://www.w3.org/1999/02/22-rdf-syntax-ns#">
   <cc:Work>
    <dc:type rdf:resource="http://purl.org/dc/dcmitype/StillImage"/>
    <dc:date>2021-04-01T22:57:26.286696</dc:date>
    <dc:format>image/svg+xml</dc:format>
    <dc:creator>
     <cc:Agent>
      <dc:title>Matplotlib v3.3.4, https://matplotlib.org/</dc:title>
     </cc:Agent>
    </dc:creator>
   </cc:Work>
  </rdf:RDF>
 </metadata>
 <defs>
  <style type="text/css">*{stroke-linecap:butt;stroke-linejoin:round;}</style>
 </defs>
 <g id="figure_1">
  <g id="patch_1">
   <path d="M 0 288 
L 432 288 
L 432 0 
L 0 0 
z
" style="fill:#ffffff;"/>
  </g>
  <g id="axes_1">
   <g id="patch_2">
    <path d="M 54 252 
L 388.8 252 
L 388.8 34.56 
L 54 34.56 
z
" style="fill:#ffffff;"/>
   </g>
   <g id="PolyCollection_1">
    <defs>
     <path d="M 57.381818 -233.037583 
L 57.381818 -222.789409 
L 60.763636 -222.789409 
L 64.145455 -222.789409 
L 67.527273 -222.789409 
L 70.909091 -222.789409 
L 74.290909 -206.963156 
L 77.672727 -206.963156 
L 81.054545 -206.963156 
L 84.436364 -195.240355 
L 87.818182 -195.240355 
L 91.2 -195.240355 
L 94.581818 -194.258824 
L 97.963636 -194.258824 
L 101.345455 -194.258824 
L 104.727273 -185.858056 
L 108.109091 -185.858056 
L 111.490909 -185.858056 
L 114.872727 -185.858056 
L 118.254545 -185.858056 
L 121.636364 -185.858056 
L 125.018182 -185.858056 
L 128.4 -185.858056 
L 131.781818 -185.858056 
L 135.163636 -185.858056 
L 138.545455 -185.858056 
L 141.927273 -185.858056 
L 145.309091 -181.202784 
L 148.690909 -181.202784 
L 152.072727 -181.202784 
L 155.454545 -180.250748 
L 158.836364 -180.250748 
L 162.218182 -180.250748 
L 165.6 -174.762089 
L 168.981818 -174.762089 
L 172.363636 -174.762089 
L 175.745455 -174.762089 
L 179.127273 -174.762089 
L 182.509091 -174.762089 
L 185.890909 -174.762089 
L 189.272727 -174.762089 
L 192.654545 -174.762089 
L 196.036364 -171.415812 
L 199.418182 -171.415812 
L 202.8 -171.415812 
L 206.181818 -162.16963 
L 209.563636 -162.16963 
L 212.945455 -162.16963 
L 216.327273 -162.16963 
L 219.709091 -162.16963 
L 223.090909 -162.16963 
L 226.472727 -149.466177 
L 229.854545 -149.466177 
L 233.236364 -149.466177 
L 236.618182 -149.466177 
L 240 -149.466177 
L 243.381818 -149.466177 
L 246.763636 -149.466177 
L 250.145455 -149.466177 
L 253.527273 -149.466177 
L 256.909091 -149.466177 
L 260.290909 -149.466177 
L 263.672727 -149.466177 
L 267.054545 -149.466177 
L 270.436364 -149.466177 
L 273.818182 -149.466177 
L 277.2 -149.466177 
L 280.581818 -149.466177 
L 283.963636 -149.466177 
L 287.345455 -149.466177 
L 290.727273 -149.466177 
L 294.109091 -149.466177 
L 297.490909 -149.466177 
L 300.872727 -149.466177 
L 304.254545 -149.466177 
L 307.636364 -149.466177 
L 311.018182 -149.466177 
L 314.4 -149.466177 
L 317.781818 -149.466177 
L 321.163636 -149.466177 
L 324.545455 -149.466177 
L 327.927273 -149.466177 
L 331.309091 -149.466177 
L 334.690909 -149.466177 
L 338.072727 -149.466177 
L 341.454545 -149.466177 
L 344.836364 -149.466177 
L 348.218182 -149.466177 
L 351.6 -149.466177 
L 354.981818 -149.466177 
L 358.363636 -149.466177 
L 361.745455 -149.466177 
L 365.127273 -149.466177 
L 368.509091 -149.466177 
L 371.890909 -149.466177 
L 375.272727 -149.466177 
L 378.654545 -149.466177 
L 382.036364 -149.466177 
L 385.418182 -149.466177 
L 388.8 -149.466177 
L 392.181818 -149.466177 
L 392.181818 -174.844247 
L 392.181818 -174.844247 
L 388.8 -174.844247 
L 385.418182 -174.844247 
L 382.036364 -174.844247 
L 378.654545 -174.844247 
L 375.272727 -180.726517 
L 371.890909 -180.726517 
L 368.509091 -180.726517 
L 365.127273 -180.726517 
L 361.745455 -180.726517 
L 358.363636 -180.726517 
L 354.981818 -183.24196 
L 351.6 -183.24196 
L 348.218182 -183.24196 
L 344.836364 -183.24196 
L 341.454545 -183.24196 
L 338.072727 -183.24196 
L 334.690909 -184.70865 
L 331.309091 -184.70865 
L 327.927273 -184.70865 
L 324.545455 -184.70865 
L 321.163636 -184.70865 
L 317.781818 -184.70865 
L 314.4 -184.70865 
L 311.018182 -184.70865 
L 307.636364 -184.70865 
L 304.254545 -188.009256 
L 300.872727 -188.009256 
L 297.490909 -188.009256 
L 294.109091 -190.252184 
L 290.727273 -190.252184 
L 287.345455 -190.252184 
L 283.963636 -190.252184 
L 280.581818 -190.252184 
L 277.2 -190.252184 
L 273.818182 -190.252184 
L 270.436364 -190.252184 
L 267.054545 -190.252184 
L 263.672727 -190.252184 
L 260.290909 -190.252184 
L 256.909091 -190.252184 
L 253.527273 -193.718633 
L 250.145455 -193.718633 
L 246.763636 -193.718633 
L 243.381818 -195.836738 
L 240 -195.836738 
L 236.618182 -195.836738 
L 233.236364 -195.836738 
L 229.854545 -195.836738 
L 226.472727 -195.836738 
L 223.090909 -200.771176 
L 219.709091 -200.771176 
L 216.327273 -200.771176 
L 212.945455 -200.771176 
L 209.563636 -200.771176 
L 206.181818 -200.771176 
L 202.8 -200.771176 
L 199.418182 -200.771176 
L 196.036364 -200.771176 
L 192.654545 -201.691439 
L 189.272727 -201.691439 
L 185.890909 -201.691439 
L 182.509091 -201.899545 
L 179.127273 -201.899545 
L 175.745455 -201.899545 
L 172.363636 -201.899545 
L 168.981818 -201.899545 
L 165.6 -201.899545 
L 162.218182 -201.899545 
L 158.836364 -201.899545 
L 155.454545 -201.899545 
L 152.072727 -215.756858 
L 148.690909 -215.756858 
L 145.309091 -215.756858 
L 141.927273 -219.09002 
L 138.545455 -219.09002 
L 135.163636 -219.09002 
L 131.781818 -219.09002 
L 128.4 -219.09002 
L 125.018182 -219.09002 
L 121.636364 -219.09002 
L 118.254545 -219.09002 
L 114.872727 -219.09002 
L 111.490909 -219.09002 
L 108.109091 -219.09002 
L 104.727273 -219.09002 
L 101.345455 -227.002975 
L 97.963636 -227.002975 
L 94.581818 -227.002975 
L 91.2 -227.015869 
L 87.818182 -227.015869 
L 84.436364 -227.015869 
L 81.054545 -228.024312 
L 77.672727 -228.024312 
L 74.290909 -228.024312 
L 70.909091 -233.037583 
L 67.527273 -233.037583 
L 64.145455 -233.037583 
L 60.763636 -233.037583 
L 57.381818 -233.037583 
z
" id="mb37e5b1ae1" style="stroke:#a52a2a;stroke-opacity:0.5;"/>
    </defs>
    <g clip-path="url(#pb19ce5a6d1)">
     <use style="fill:#a52a2a;fill-opacity:0.5;stroke:#a52a2a;stroke-opacity:0.5;" x="0" xlink:href="#mb37e5b1ae1" y="288"/>
    </g>
   </g>
   <g id="PolyCollection_2">
    <defs>
     <path d="M 57.381818 -220.418522 
L 57.381818 -168.838729 
L 60.763636 -168.838729 
L 64.145455 -168.838729 
L 67.527273 -168.838729 
L 70.909091 -168.838729 
L 74.290909 -168.838729 
L 77.672727 -159.266808 
L 81.054545 -156.537926 
L 84.436364 -146.551098 
L 87.818182 -103.645619 
L 91.2 -103.645619 
L 94.581818 -102.815243 
L 97.963636 -95.420827 
L 101.345455 -95.420827 
L 104.727273 -92.094992 
L 108.109091 -77.858599 
L 111.490909 -77.858599 
L 114.872727 -77.003619 
L 118.254545 -59.39739 
L 121.636364 -59.39739 
L 125.018182 -59.39739 
L 128.4 -49.963476 
L 131.781818 -49.2293 
L 135.163636 -49.2293 
L 138.545455 -49.2293 
L 141.927273 -49.2293 
L 145.309091 -49.2293 
L 148.690909 -48.246203 
L 152.072727 -47.523597 
L 155.454545 -47.523597 
L 158.836364 -47.523597 
L 162.218182 -47.523597 
L 165.6 -47.523597 
L 168.981818 -47.523597 
L 172.363636 -47.523597 
L 175.745455 -47.523597 
L 179.127273 -47.523597 
L 182.509091 -47.523597 
L 185.890909 -47.523597 
L 189.272727 -46.980253 
L 192.654545 -46.980253 
L 196.036364 -46.980253 
L 199.418182 -46.980253 
L 202.8 -46.980253 
L 206.181818 -46.980253 
L 209.563636 -46.980253 
L 212.945455 -46.980253 
L 216.327273 -46.980253 
L 219.709091 -46.249807 
L 223.090909 -46.249807 
L 226.472727 -46.249807 
L 229.854545 -46.249807 
L 233.236364 -46.249807 
L 236.618182 -46.249807 
L 240 -46.249807 
L 243.381818 -46.249807 
L 246.763636 -46.249807 
L 250.145455 -46.249807 
L 253.527273 -46.249807 
L 256.909091 -46.249807 
L 260.290909 -46.249807 
L 263.672727 -46.249807 
L 267.054545 -46.249807 
L 270.436364 -46.249807 
L 273.818182 -45.883636 
L 277.2 -45.883636 
L 280.581818 -45.883636 
L 283.963636 -45.883636 
L 287.345455 -45.883636 
L 290.727273 -45.883636 
L 294.109091 -45.883636 
L 297.490909 -45.883636 
L 300.872727 -45.883636 
L 304.254545 -45.883636 
L 307.636364 -45.883636 
L 311.018182 -45.883636 
L 314.4 -45.883636 
L 317.781818 -45.883636 
L 321.163636 -45.883636 
L 324.545455 -45.883636 
L 327.927273 -45.883636 
L 331.309091 -45.883636 
L 334.690909 -45.883636 
L 338.072727 -45.883636 
L 341.454545 -45.883636 
L 344.836364 -45.883636 
L 348.218182 -45.883636 
L 351.6 -45.883636 
L 354.981818 -45.883636 
L 358.363636 -45.883636 
L 361.745455 -45.883636 
L 365.127273 -45.883636 
L 368.509091 -45.883636 
L 371.890909 -45.883636 
L 375.272727 -45.883636 
L 378.654545 -45.883636 
L 382.036364 -45.883636 
L 385.418182 -45.883636 
L 388.8 -45.883636 
L 392.181818 -45.883636 
L 392.181818 -146.933747 
L 392.181818 -146.933747 
L 388.8 -146.933747 
L 385.418182 -146.933747 
L 382.036364 -146.933747 
L 378.654545 -146.933747 
L 375.272727 -146.933747 
L 371.890909 -146.933747 
L 368.509091 -146.933747 
L 365.127273 -146.933747 
L 361.745455 -146.933747 
L 358.363636 -146.933747 
L 354.981818 -146.933747 
L 351.6 -146.933747 
L 348.218182 -146.933747 
L 344.836364 -147.883608 
L 341.454545 -147.883608 
L 338.072727 -147.883608 
L 334.690909 -147.883608 
L 331.309091 -147.883608 
L 327.927273 -147.883608 
L 324.545455 -147.883608 
L 321.163636 -147.883608 
L 317.781818 -147.883608 
L 314.4 -147.883608 
L 311.018182 -147.883608 
L 307.636364 -147.883608 
L 304.254545 -147.883608 
L 300.872727 -147.883608 
L 297.490909 -147.883608 
L 294.109091 -147.883608 
L 290.727273 -147.883608 
L 287.345455 -147.883608 
L 283.963636 -147.883608 
L 280.581818 -147.883608 
L 277.2 -147.883608 
L 273.818182 -147.883608 
L 270.436364 -147.883608 
L 267.054545 -148.223292 
L 263.672727 -148.223292 
L 260.290909 -148.223292 
L 256.909091 -148.223292 
L 253.527273 -148.223292 
L 250.145455 -148.223292 
L 246.763636 -148.223292 
L 243.381818 -148.223292 
L 240 -148.223292 
L 236.618182 -148.223292 
L 233.236364 -148.223292 
L 229.854545 -148.223292 
L 226.472727 -148.223292 
L 223.090909 -148.223292 
L 219.709091 -148.223292 
L 216.327273 -148.223292 
L 212.945455 -148.223292 
L 209.563636 -148.223292 
L 206.181818 -148.223292 
L 202.8 -148.223292 
L 199.418182 -148.223292 
L 196.036364 -148.223292 
L 192.654545 -148.223292 
L 189.272727 -148.223292 
L 185.890909 -148.223292 
L 182.509091 -148.223292 
L 179.127273 -148.223292 
L 175.745455 -148.223292 
L 172.363636 -148.223292 
L 168.981818 -148.223292 
L 165.6 -148.223292 
L 162.218182 -148.223292 
L 158.836364 -148.223292 
L 155.454545 -148.223292 
L 152.072727 -148.223292 
L 148.690909 -148.223292 
L 145.309091 -148.223292 
L 141.927273 -150.398539 
L 138.545455 -152.851262 
L 135.163636 -152.851262 
L 131.781818 -152.851262 
L 128.4 -152.851262 
L 125.018182 -152.851262 
L 121.636364 -152.851262 
L 118.254545 -152.851262 
L 114.872727 -157.665014 
L 111.490909 -157.665014 
L 108.109091 -160.05992 
L 104.727273 -168.322699 
L 101.345455 -168.322699 
L 97.963636 -168.322699 
L 94.581818 -168.322699 
L 91.2 -175.616275 
L 87.818182 -210.326344 
L 84.436364 -210.326344 
L 81.054545 -220.418522 
L 77.672727 -220.418522 
L 74.290909 -220.418522 
L 70.909091 -220.418522 
L 67.527273 -220.418522 
L 64.145455 -220.418522 
L 60.763636 -220.418522 
L 57.381818 -220.418522 
z
" id="m91f2d715b7" style="stroke:#008000;stroke-opacity:0.5;"/>
    </defs>
    <g clip-path="url(#pb19ce5a6d1)">
     <use style="fill:#008000;fill-opacity:0.5;stroke:#008000;stroke-opacity:0.5;" x="0" xlink:href="#m91f2d715b7" y="288"/>
    </g>
   </g>
   <g id="PolyCollection_3">
    <defs>
     <path d="M 57.381818 -239.730741 
L 57.381818 -228.658318 
L 60.763636 -228.658318 
L 64.145455 -228.658318 
L 67.527273 -228.658318 
L 70.909091 -228.658318 
L 74.290909 -228.658318 
L 77.672727 -228.658318 
L 81.054545 -228.658318 
L 84.436364 -228.658318 
L 87.818182 -228.658318 
L 91.2 -228.658318 
L 94.581818 -228.658318 
L 97.963636 -228.658318 
L 101.345455 -228.658318 
L 104.727273 -228.658318 
L 108.109091 -228.658318 
L 111.490909 -228.658318 
L 114.872727 -228.658318 
L 118.254545 -228.658318 
L 121.636364 -228.658318 
L 125.018182 -228.658318 
L 128.4 -218.756436 
L 131.781818 -217.153732 
L 135.163636 -217.153732 
L 138.545455 -217.153732 
L 141.927273 -217.153732 
L 145.309091 -217.153732 
L 148.690909 -217.153732 
L 152.072727 -217.153732 
L 155.454545 -217.153732 
L 158.836364 -217.153732 
L 162.218182 -217.153732 
L 165.6 -217.153732 
L 168.981818 -217.153732 
L 172.363636 -217.153732 
L 175.745455 -217.153732 
L 179.127273 -217.153732 
L 182.509091 -217.153732 
L 185.890909 -217.153732 
L 189.272727 -217.153732 
L 192.654545 -217.153732 
L 196.036364 -217.153732 
L 199.418182 -215.750781 
L 202.8 -215.750781 
L 206.181818 -215.750781 
L 209.563636 -215.750781 
L 212.945455 -215.750781 
L 216.327273 -215.750781 
L 219.709091 -215.750781 
L 223.090909 -215.750781 
L 226.472727 -215.750781 
L 229.854545 -215.750781 
L 233.236364 -215.750781 
L 236.618182 -215.750781 
L 240 -215.750781 
L 243.381818 -215.750781 
L 246.763636 -215.750781 
L 250.145455 -215.750781 
L 253.527273 -215.750781 
L 256.909091 -215.750781 
L 260.290909 -215.750781 
L 263.672727 -215.750781 
L 267.054545 -215.750781 
L 270.436364 -215.750781 
L 273.818182 -215.750781 
L 277.2 -215.750781 
L 280.581818 -215.750781 
L 283.963636 -214.026091 
L 287.345455 -214.026091 
L 290.727273 -214.026091 
L 294.109091 -214.026091 
L 297.490909 -214.026091 
L 300.872727 -214.026091 
L 304.254545 -214.026091 
L 307.636364 -214.026091 
L 311.018182 -214.026091 
L 314.4 -214.026091 
L 317.781818 -214.026091 
L 321.163636 -214.026091 
L 324.545455 -214.026091 
L 327.927273 -214.026091 
L 331.309091 -214.026091 
L 334.690909 -214.026091 
L 338.072727 -214.026091 
L 341.454545 -214.026091 
L 344.836364 -214.026091 
L 348.218182 -214.026091 
L 351.6 -214.026091 
L 354.981818 -214.026091 
L 358.363636 -214.026091 
L 361.745455 -214.026091 
L 365.127273 -214.026091 
L 368.509091 -214.026091 
L 371.890909 -214.026091 
L 375.272727 -214.026091 
L 378.654545 -214.026091 
L 382.036364 -214.026091 
L 385.418182 -214.026091 
L 388.8 -214.026091 
L 392.181818 -214.026091 
L 392.181818 -221.684999 
L 392.181818 -221.684999 
L 388.8 -221.684999 
L 385.418182 -221.684999 
L 382.036364 -221.684999 
L 378.654545 -221.684999 
L 375.272727 -221.684999 
L 371.890909 -222.689426 
L 368.509091 -222.689426 
L 365.127273 -222.689426 
L 361.745455 -222.689426 
L 358.363636 -222.689426 
L 354.981818 -222.689426 
L 351.6 -222.689426 
L 348.218182 -222.689426 
L 344.836364 -222.689426 
L 341.454545 -222.689426 
L 338.072727 -222.689426 
L 334.690909 -222.689426 
L 331.309091 -222.689426 
L 327.927273 -222.689426 
L 324.545455 -222.689426 
L 321.163636 -222.689426 
L 317.781818 -222.689426 
L 314.4 -222.689426 
L 311.018182 -222.689426 
L 307.636364 -222.689426 
L 304.254545 -222.689426 
L 300.872727 -222.689426 
L 297.490909 -222.689426 
L 294.109091 -222.689426 
L 290.727273 -222.689426 
L 287.345455 -222.689426 
L 283.963636 -223.003491 
L 280.581818 -224.602163 
L 277.2 -224.602163 
L 273.818182 -224.602163 
L 270.436364 -224.602163 
L 267.054545 -224.602163 
L 263.672727 -224.602163 
L 260.290909 -224.602163 
L 256.909091 -224.602163 
L 253.527273 -224.602163 
L 250.145455 -224.602163 
L 246.763636 -224.602163 
L 243.381818 -224.602163 
L 240 -224.602163 
L 236.618182 -224.602163 
L 233.236364 -224.602163 
L 229.854545 -224.602163 
L 226.472727 -224.602163 
L 223.090909 -224.602163 
L 219.709091 -224.602163 
L 216.327273 -224.602163 
L 212.945455 -225.832429 
L 209.563636 -225.832429 
L 206.181818 -225.832429 
L 202.8 -225.832429 
L 199.418182 -225.832429 
L 196.036364 -225.832429 
L 192.654545 -225.832429 
L 189.272727 -225.832429 
L 185.890909 -225.832429 
L 182.509091 -225.832429 
L 179.127273 -225.832429 
L 175.745455 -225.832429 
L 172.363636 -225.832429 
L 168.981818 -225.832429 
L 165.6 -225.832429 
L 162.218182 -225.832429 
L 158.836364 -225.832429 
L 155.454545 -225.832429 
L 152.072727 -225.832429 
L 148.690909 -225.832429 
L 145.309091 -225.832429 
L 141.927273 -231.43894 
L 138.545455 -231.43894 
L 135.163636 -231.43894 
L 131.781818 -234.141633 
L 128.4 -234.141633 
L 125.018182 -239.730741 
L 121.636364 -239.730741 
L 118.254545 -239.730741 
L 114.872727 -239.730741 
L 111.490909 -239.730741 
L 108.109091 -239.730741 
L 104.727273 -239.730741 
L 101.345455 -239.730741 
L 97.963636 -239.730741 
L 94.581818 -239.730741 
L 91.2 -239.730741 
L 87.818182 -239.730741 
L 84.436364 -239.730741 
L 81.054545 -239.730741 
L 77.672727 -239.730741 
L 74.290909 -239.730741 
L 70.909091 -239.730741 
L 67.527273 -239.730741 
L 64.145455 -239.730741 
L 60.763636 -239.730741 
L 57.381818 -239.730741 
z
" id="m86b8c05b84" style="stroke:#808080;stroke-opacity:0.5;"/>
    </defs>
    <g clip-path="url(#pb19ce5a6d1)">
     <use style="fill:#808080;fill-opacity:0.5;stroke:#808080;stroke-opacity:0.5;" x="0" xlink:href="#m86b8c05b84" y="288"/>
    </g>
   </g>
   <g id="PolyCollection_4">
    <defs>
     <path d="M 57.381818 -243.556364 
L 57.381818 -226.004062 
L 60.763636 -226.004062 
L 64.145455 -226.004062 
L 67.527273 -226.004062 
L 70.909091 -226.004062 
L 74.290909 -226.004062 
L 77.672727 -226.004062 
L 81.054545 -226.004062 
L 84.436364 -226.004062 
L 87.818182 -226.004062 
L 91.2 -226.004062 
L 94.581818 -226.004062 
L 97.963636 -226.004062 
L 101.345455 -226.004062 
L 104.727273 -226.004062 
L 108.109091 -226.004062 
L 111.490909 -226.004062 
L 114.872727 -226.004062 
L 118.254545 -226.004062 
L 121.636364 -226.004062 
L 125.018182 -226.004062 
L 128.4 -216.32745 
L 131.781818 -216.32745 
L 135.163636 -216.32745 
L 138.545455 -216.32745 
L 141.927273 -216.32745 
L 145.309091 -216.32745 
L 148.690909 -216.32745 
L 152.072727 -216.32745 
L 155.454545 -216.32745 
L 158.836364 -216.32745 
L 162.218182 -216.32745 
L 165.6 -216.32745 
L 168.981818 -216.32745 
L 172.363636 -216.32745 
L 175.745455 -216.32745 
L 179.127273 -216.32745 
L 182.509091 -216.32745 
L 185.890909 -216.32745 
L 189.272727 -216.32745 
L 192.654545 -216.32745 
L 196.036364 -216.32745 
L 199.418182 -216.32745 
L 202.8 -216.32745 
L 206.181818 -216.32745 
L 209.563636 -189.899254 
L 212.945455 -189.899254 
L 216.327273 -189.899254 
L 219.709091 -189.899254 
L 223.090909 -189.899254 
L 226.472727 -160.164843 
L 229.854545 -160.164843 
L 233.236364 -160.164843 
L 236.618182 -160.164843 
L 240 -160.164843 
L 243.381818 -151.625571 
L 246.763636 -151.625571 
L 250.145455 -151.625571 
L 253.527273 -151.625571 
L 256.909091 -151.625571 
L 260.290909 -151.625571 
L 263.672727 -151.625571 
L 267.054545 -151.625571 
L 270.436364 -151.625571 
L 273.818182 -151.625571 
L 277.2 -151.625571 
L 280.581818 -151.625571 
L 283.963636 -151.625571 
L 287.345455 -151.625571 
L 290.727273 -151.625571 
L 294.109091 -151.625571 
L 297.490909 -151.625571 
L 300.872727 -151.625571 
L 304.254545 -151.141176 
L 307.636364 -151.141176 
L 311.018182 -150.892796 
L 314.4 -150.892796 
L 317.781818 -150.892796 
L 321.163636 -150.892796 
L 324.545455 -150.892796 
L 327.927273 -140.684518 
L 331.309091 -140.684518 
L 334.690909 -140.684518 
L 338.072727 -140.684518 
L 341.454545 -140.684518 
L 344.836364 -140.684518 
L 348.218182 -140.684518 
L 351.6 -136.221915 
L 354.981818 -136.221915 
L 358.363636 -136.221915 
L 361.745455 -136.221915 
L 365.127273 -136.221915 
L 368.509091 -133.303414 
L 371.890909 -133.303414 
L 375.272727 -133.303414 
L 378.654545 -133.303414 
L 382.036364 -133.303414 
L 385.418182 -133.303414 
L 388.8 -133.303414 
L 392.181818 -133.303414 
L 392.181818 -221.473623 
L 392.181818 -221.473623 
L 388.8 -221.473623 
L 385.418182 -221.473623 
L 382.036364 -221.473623 
L 378.654545 -221.473623 
L 375.272727 -221.473623 
L 371.890909 -222.30853 
L 368.509091 -222.30853 
L 365.127273 -222.30853 
L 361.745455 -222.30853 
L 358.363636 -222.30853 
L 354.981818 -222.429891 
L 351.6 -222.429891 
L 348.218182 -222.429891 
L 344.836364 -222.429891 
L 341.454545 -222.429891 
L 338.072727 -222.429891 
L 334.690909 -222.429891 
L 331.309091 -222.429891 
L 327.927273 -222.429891 
L 324.545455 -222.429891 
L 321.163636 -222.429891 
L 317.781818 -222.429891 
L 314.4 -222.429891 
L 311.018182 -222.429891 
L 307.636364 -222.429891 
L 304.254545 -222.429891 
L 300.872727 -222.429891 
L 297.490909 -222.429891 
L 294.109091 -222.429891 
L 290.727273 -222.429891 
L 287.345455 -222.429891 
L 283.963636 -222.429891 
L 280.581818 -222.429891 
L 277.2 -222.429891 
L 273.818182 -222.429891 
L 270.436364 -222.429891 
L 267.054545 -222.429891 
L 263.672727 -222.429891 
L 260.290909 -222.429891 
L 256.909091 -222.429891 
L 253.527273 -222.429891 
L 250.145455 -222.429891 
L 246.763636 -222.429891 
L 243.381818 -222.429891 
L 240 -222.429891 
L 236.618182 -222.429891 
L 233.236364 -222.429891 
L 229.854545 -222.429891 
L 226.472727 -222.429891 
L 223.090909 -222.429891 
L 219.709091 -222.429891 
L 216.327273 -222.429891 
L 212.945455 -222.429891 
L 209.563636 -222.429891 
L 206.181818 -222.429891 
L 202.8 -222.429891 
L 199.418182 -223.446641 
L 196.036364 -223.446641 
L 192.654545 -223.446641 
L 189.272727 -223.446641 
L 185.890909 -223.446641 
L 182.509091 -223.446641 
L 179.127273 -223.446641 
L 175.745455 -223.446641 
L 172.363636 -223.446641 
L 168.981818 -223.446641 
L 165.6 -225.138253 
L 162.218182 -225.138253 
L 158.836364 -225.138253 
L 155.454545 -225.138253 
L 152.072727 -225.138253 
L 148.690909 -225.138253 
L 145.309091 -225.138253 
L 141.927273 -229.448997 
L 138.545455 -234.902359 
L 135.163636 -234.902359 
L 131.781818 -234.902359 
L 128.4 -238.807097 
L 125.018182 -243.556364 
L 121.636364 -243.556364 
L 118.254545 -243.556364 
L 114.872727 -243.556364 
L 111.490909 -243.556364 
L 108.109091 -243.556364 
L 104.727273 -243.556364 
L 101.345455 -243.556364 
L 97.963636 -243.556364 
L 94.581818 -243.556364 
L 91.2 -243.556364 
L 87.818182 -243.556364 
L 84.436364 -243.556364 
L 81.054545 -243.556364 
L 77.672727 -243.556364 
L 74.290909 -243.556364 
L 70.909091 -243.556364 
L 67.527273 -243.556364 
L 64.145455 -243.556364 
L 60.763636 -243.556364 
L 57.381818 -243.556364 
z
" id="m3264d25102" style="stroke:#ffa500;stroke-opacity:0.5;"/>
    </defs>
    <g clip-path="url(#pb19ce5a6d1)">
     <use style="fill:#ffa500;fill-opacity:0.5;stroke:#ffa500;stroke-opacity:0.5;" x="0" xlink:href="#m3264d25102" y="288"/>
    </g>
   </g>
   <g id="PolyCollection_5">
    <defs>
     <path d="M 57.381818 -238.890234 
L 57.381818 -230.681475 
L 60.763636 -230.681475 
L 64.145455 -230.681475 
L 67.527273 -230.681475 
L 70.909091 -230.681475 
L 74.290909 -230.681475 
L 77.672727 -230.681475 
L 81.054545 -230.681475 
L 84.436364 -230.681475 
L 87.818182 -230.681475 
L 91.2 -230.681475 
L 94.581818 -230.681475 
L 97.963636 -221.6944 
L 101.345455 -221.6944 
L 104.727273 -205.284045 
L 108.109091 -205.284045 
L 111.490909 -205.284045 
L 114.872727 -205.284045 
L 118.254545 -205.284045 
L 121.636364 -205.284045 
L 125.018182 -205.284045 
L 128.4 -205.284045 
L 131.781818 -205.284045 
L 135.163636 -205.284045 
L 138.545455 -205.284045 
L 141.927273 -205.284045 
L 145.309091 -205.284045 
L 148.690909 -205.284045 
L 152.072727 -205.284045 
L 155.454545 -205.284045 
L 158.836364 -205.284045 
L 162.218182 -205.284045 
L 165.6 -205.284045 
L 168.981818 -205.284045 
L 172.363636 -205.284045 
L 175.745455 -205.284045 
L 179.127273 -205.284045 
L 182.509091 -205.284045 
L 185.890909 -205.284045 
L 189.272727 -205.284045 
L 192.654545 -205.284045 
L 196.036364 -205.284045 
L 199.418182 -205.284045 
L 202.8 -205.284045 
L 206.181818 -205.284045 
L 209.563636 -205.284045 
L 212.945455 -205.284045 
L 216.327273 -205.284045 
L 219.709091 -205.284045 
L 223.090909 -205.284045 
L 226.472727 -205.284045 
L 229.854545 -205.284045 
L 233.236364 -205.284045 
L 236.618182 -205.284045 
L 240 -205.284045 
L 243.381818 -205.284045 
L 246.763636 -205.284045 
L 250.145455 -205.284045 
L 253.527273 -205.284045 
L 256.909091 -205.284045 
L 260.290909 -205.284045 
L 263.672727 -205.284045 
L 267.054545 -205.284045 
L 270.436364 -205.284045 
L 273.818182 -205.284045 
L 277.2 -205.284045 
L 280.581818 -205.284045 
L 283.963636 -205.284045 
L 287.345455 -205.284045 
L 290.727273 -205.284045 
L 294.109091 -205.284045 
L 297.490909 -205.284045 
L 300.872727 -205.284045 
L 304.254545 -205.284045 
L 307.636364 -205.284045 
L 311.018182 -205.284045 
L 314.4 -205.284045 
L 317.781818 -205.284045 
L 321.163636 -205.284045 
L 324.545455 -205.284045 
L 327.927273 -205.284045 
L 331.309091 -205.284045 
L 334.690909 -205.284045 
L 338.072727 -205.284045 
L 341.454545 -205.284045 
L 344.836364 -205.284045 
L 348.218182 -205.284045 
L 351.6 -205.284045 
L 354.981818 -205.284045 
L 358.363636 -205.284045 
L 361.745455 -205.284045 
L 365.127273 -205.284045 
L 368.509091 -205.284045 
L 371.890909 -205.284045 
L 375.272727 -205.284045 
L 378.654545 -205.284045 
L 382.036364 -205.284045 
L 385.418182 -205.284045 
L 388.8 -205.284045 
L 392.181818 -205.284045 
L 392.181818 -218.590737 
L 392.181818 -218.590737 
L 388.8 -218.590737 
L 385.418182 -218.590737 
L 382.036364 -218.590737 
L 378.654545 -218.590737 
L 375.272727 -218.590737 
L 371.890909 -218.590737 
L 368.509091 -218.590737 
L 365.127273 -218.590737 
L 361.745455 -221.928786 
L 358.363636 -221.928786 
L 354.981818 -221.928786 
L 351.6 -221.928786 
L 348.218182 -221.928786 
L 344.836364 -221.928786 
L 341.454545 -221.928786 
L 338.072727 -221.928786 
L 334.690909 -221.928786 
L 331.309091 -221.928786 
L 327.927273 -221.928786 
L 324.545455 -221.928786 
L 321.163636 -221.928786 
L 317.781818 -221.928786 
L 314.4 -221.928786 
L 311.018182 -221.928786 
L 307.636364 -221.928786 
L 304.254545 -221.928786 
L 300.872727 -221.928786 
L 297.490909 -221.928786 
L 294.109091 -222.230539 
L 290.727273 -222.230539 
L 287.345455 -222.230539 
L 283.963636 -222.230539 
L 280.581818 -222.230539 
L 277.2 -222.230539 
L 273.818182 -222.230539 
L 270.436364 -222.230539 
L 267.054545 -222.230539 
L 263.672727 -222.946168 
L 260.290909 -222.946168 
L 256.909091 -222.946168 
L 253.527273 -222.946168 
L 250.145455 -222.946168 
L 246.763636 -222.946168 
L 243.381818 -222.946168 
L 240 -222.946168 
L 236.618182 -226.663688 
L 233.236364 -226.663688 
L 229.854545 -228.534137 
L 226.472727 -228.534137 
L 223.090909 -228.534137 
L 219.709091 -228.534137 
L 216.327273 -228.534137 
L 212.945455 -228.534137 
L 209.563636 -228.534137 
L 206.181818 -228.534137 
L 202.8 -228.534137 
L 199.418182 -228.603257 
L 196.036364 -228.603257 
L 192.654545 -228.603257 
L 189.272727 -228.603257 
L 185.890909 -228.603257 
L 182.509091 -228.603257 
L 179.127273 -228.603257 
L 175.745455 -228.603257 
L 172.363636 -228.603257 
L 168.981818 -229.273507 
L 165.6 -229.273507 
L 162.218182 -229.273507 
L 158.836364 -229.273507 
L 155.454545 -229.273507 
L 152.072727 -229.273507 
L 148.690909 -229.273507 
L 145.309091 -229.273507 
L 141.927273 -229.273507 
L 138.545455 -229.273507 
L 135.163636 -229.273507 
L 131.781818 -230.10694 
L 128.4 -230.10694 
L 125.018182 -230.10694 
L 121.636364 -230.10694 
L 118.254545 -230.10694 
L 114.872727 -230.10694 
L 111.490909 -230.10694 
L 108.109091 -230.10694 
L 104.727273 -230.10694 
L 101.345455 -238.129787 
L 97.963636 -238.890234 
L 94.581818 -238.890234 
L 91.2 -238.890234 
L 87.818182 -238.890234 
L 84.436364 -238.890234 
L 81.054545 -238.890234 
L 77.672727 -238.890234 
L 74.290909 -238.890234 
L 70.909091 -238.890234 
L 67.527273 -238.890234 
L 64.145455 -238.890234 
L 60.763636 -238.890234 
L 57.381818 -238.890234 
z
" id="mcb35635cac" style="stroke:#0000ff;stroke-opacity:0.5;"/>
    </defs>
    <g clip-path="url(#pb19ce5a6d1)">
     <use style="fill:#0000ff;fill-opacity:0.5;stroke:#0000ff;stroke-opacity:0.5;" x="0" xlink:href="#mcb35635cac" y="288"/>
    </g>
   </g>
   <g id="PolyCollection_6">
    <defs>
     <path d="M 57.381818 -232.659952 
L 57.381818 -232.659952 
L 60.763636 -186.055794 
L 64.145455 -184.076938 
L 67.527273 -164.300703 
L 70.909091 -131.952208 
L 74.290909 -118.733055 
L 77.672727 -118.733055 
L 81.054545 -116.897947 
L 84.436364 -116.897947 
L 87.818182 -116.897947 
L 91.2 -109.75279 
L 94.581818 -109.75279 
L 97.963636 -109.75279 
L 101.345455 -109.75279 
L 104.727273 -108.141174 
L 108.109091 -108.141174 
L 111.490909 -108.141174 
L 114.872727 -108.141174 
L 118.254545 -107.671964 
L 121.636364 -107.671964 
L 125.018182 -107.671964 
L 128.4 -107.671964 
L 131.781818 -107.671964 
L 135.163636 -107.671964 
L 138.545455 -107.671964 
L 141.927273 -107.671964 
L 145.309091 -107.248348 
L 148.690909 -107.248348 
L 152.072727 -107.248348 
L 155.454545 -107.248348 
L 158.836364 -107.248348 
L 162.218182 -107.248348 
L 165.6 -105.258244 
L 168.981818 -105.258244 
L 172.363636 -105.258244 
L 175.745455 -105.258244 
L 179.127273 -105.258244 
L 182.509091 -105.258244 
L 185.890909 -105.080798 
L 189.272727 -105.080798 
L 192.654545 -105.080798 
L 196.036364 -105.080798 
L 199.418182 -105.080798 
L 202.8 -105.080798 
L 206.181818 -104.906273 
L 209.563636 -104.906273 
L 212.945455 -104.906273 
L 216.327273 -104.906273 
L 219.709091 -104.906273 
L 223.090909 -104.899611 
L 226.472727 -104.260682 
L 229.854545 -104.260682 
L 233.236364 -104.260682 
L 236.618182 -104.260682 
L 240 -104.260682 
L 243.381818 -104.260682 
L 246.763636 -104.260682 
L 250.145455 -104.258916 
L 253.527273 -104.104621 
L 256.909091 -104.104621 
L 260.290909 -104.104621 
L 263.672727 -104.104621 
L 267.054545 -104.104621 
L 270.436364 -104.104621 
L 273.818182 -104.104621 
L 277.2 -104.104621 
L 280.581818 -104.047957 
L 283.963636 -104.047957 
L 287.345455 -104.047957 
L 290.727273 -104.047957 
L 294.109091 -104.047957 
L 297.490909 -104.047957 
L 300.872727 -104.047957 
L 304.254545 -104.047957 
L 307.636364 -104.047957 
L 311.018182 -104.047957 
L 314.4 -104.047957 
L 317.781818 -104.047957 
L 321.163636 -104.047957 
L 324.545455 -104.047957 
L 327.927273 -103.836458 
L 331.309091 -103.836458 
L 334.690909 -103.836458 
L 338.072727 -103.836458 
L 341.454545 -103.836458 
L 344.836364 -103.836458 
L 348.218182 -103.836458 
L 351.6 -103.836458 
L 354.981818 -103.836458 
L 358.363636 -103.836458 
L 361.745455 -103.800507 
L 365.127273 -103.800507 
L 368.509091 -103.800507 
L 371.890909 -103.800507 
L 375.272727 -103.800507 
L 378.654545 -103.800507 
L 382.036364 -103.800507 
L 385.418182 -103.800507 
L 388.8 -103.800507 
L 392.181818 -103.800507 
L 392.181818 -104.040616 
L 392.181818 -104.040616 
L 388.8 -104.040616 
L 385.418182 -104.040616 
L 382.036364 -104.040616 
L 378.654545 -104.040616 
L 375.272727 -104.040616 
L 371.890909 -104.040616 
L 368.509091 -104.040616 
L 365.127273 -104.058314 
L 361.745455 -104.058314 
L 358.363636 -104.058314 
L 354.981818 -104.058314 
L 351.6 -104.058314 
L 348.218182 -104.058314 
L 344.836364 -104.058314 
L 341.454545 -104.058314 
L 338.072727 -104.204607 
L 334.690909 -104.204607 
L 331.309091 -104.204607 
L 327.927273 -104.204607 
L 324.545455 -104.204607 
L 321.163636 -104.204607 
L 317.781818 -104.204607 
L 314.4 -104.204607 
L 311.018182 -104.845716 
L 307.636364 -104.845716 
L 304.254545 -104.845716 
L 300.872727 -104.845716 
L 297.490909 -104.845716 
L 294.109091 -104.845716 
L 290.727273 -104.845716 
L 287.345455 -104.845716 
L 283.963636 -104.845716 
L 280.581818 -104.848917 
L 277.2 -104.848917 
L 273.818182 -104.848917 
L 270.436364 -104.848917 
L 267.054545 -104.848917 
L 263.672727 -104.848917 
L 260.290909 -104.848917 
L 256.909091 -104.906273 
L 253.527273 -104.906273 
L 250.145455 -104.906273 
L 246.763636 -104.906273 
L 243.381818 -104.906273 
L 240 -104.906273 
L 236.618182 -105.112674 
L 233.236364 -105.112674 
L 229.854545 -105.112674 
L 226.472727 -105.112674 
L 223.090909 -105.112674 
L 219.709091 -105.112674 
L 216.327273 -105.258244 
L 212.945455 -105.258244 
L 209.563636 -105.258244 
L 206.181818 -105.258244 
L 202.8 -106.948598 
L 199.418182 -106.948598 
L 196.036364 -107.248348 
L 192.654545 -107.248348 
L 189.272727 -107.248348 
L 185.890909 -107.248348 
L 182.509091 -107.450672 
L 179.127273 -107.450672 
L 175.745455 -107.671964 
L 172.363636 -107.671964 
L 168.981818 -107.671964 
L 165.6 -107.671964 
L 162.218182 -107.671964 
L 158.836364 -107.671964 
L 155.454545 -107.671964 
L 152.072727 -107.671964 
L 148.690909 -108.141174 
L 145.309091 -108.141174 
L 141.927273 -108.141174 
L 138.545455 -108.141174 
L 135.163636 -109.75279 
L 131.781818 -109.75279 
L 128.4 -114.759503 
L 125.018182 -114.759503 
L 121.636364 -116.897947 
L 118.254545 -116.897947 
L 114.872727 -127.266424 
L 111.490909 -127.266424 
L 108.109091 -132.297906 
L 104.727273 -132.297906 
L 101.345455 -132.297906 
L 97.963636 -132.297906 
L 94.581818 -132.297906 
L 91.2 -132.297906 
L 87.818182 -141.184903 
L 84.436364 -141.184903 
L 81.054545 -161.703264 
L 77.672727 -161.703264 
L 74.290909 -184.292588 
L 70.909091 -184.292588 
L 67.527273 -209.508602 
L 64.145455 -209.508602 
L 60.763636 -232.659952 
L 57.381818 -232.659952 
z
" id="m0014c880bd" style="stroke:#ee82ee;stroke-opacity:0.5;"/>
    </defs>
    <g clip-path="url(#pb19ce5a6d1)">
     <use style="fill:#ee82ee;fill-opacity:0.5;stroke:#ee82ee;stroke-opacity:0.5;" x="0" xlink:href="#m0014c880bd" y="288"/>
    </g>
   </g>
   <g id="matplotlib.axis_1">
    <g id="xtick_1">
     <g id="line2d_1">
      <defs>
       <path d="M 0 0 
L 0 3.5 
" id="m32959438a4" style="stroke:#000000;stroke-width:0.8;"/>
      </defs>
      <g>
       <use style="stroke:#000000;stroke-width:0.8;" x="54" xlink:href="#m32959438a4" y="252"/>
      </g>
     </g>
     <g id="text_1">
      <!-- 0 -->
      <g transform="translate(50.81875 266.598437)scale(0.1 -0.1)">
       <defs>
        <path d="M 31.78125 66.40625 
Q 24.171875 66.40625 20.328125 58.90625 
Q 16.5 51.421875 16.5 36.375 
Q 16.5 21.390625 20.328125 13.890625 
Q 24.171875 6.390625 31.78125 6.390625 
Q 39.453125 6.390625 43.28125 13.890625 
Q 47.125 21.390625 47.125 36.375 
Q 47.125 51.421875 43.28125 58.90625 
Q 39.453125 66.40625 31.78125 66.40625 
z
M 31.78125 74.21875 
Q 44.046875 74.21875 50.515625 64.515625 
Q 56.984375 54.828125 56.984375 36.375 
Q 56.984375 17.96875 50.515625 8.265625 
Q 44.046875 -1.421875 31.78125 -1.421875 
Q 19.53125 -1.421875 13.0625 8.265625 
Q 6.59375 17.96875 6.59375 36.375 
Q 6.59375 54.828125 13.0625 64.515625 
Q 19.53125 74.21875 31.78125 74.21875 
z
" id="DejaVuSans-48"/>
       </defs>
       <use xlink:href="#DejaVuSans-48"/>
      </g>
     </g>
    </g>
    <g id="xtick_2">
     <g id="line2d_2">
      <g>
       <use style="stroke:#000000;stroke-width:0.8;" x="121.636364" xlink:href="#m32959438a4" y="252"/>
      </g>
     </g>
     <g id="text_2">
      <!-- 20 -->
      <g transform="translate(115.273864 266.598437)scale(0.1 -0.1)">
       <defs>
        <path d="M 19.1875 8.296875 
L 53.609375 8.296875 
L 53.609375 0 
L 7.328125 0 
L 7.328125 8.296875 
Q 12.9375 14.109375 22.625 23.890625 
Q 32.328125 33.6875 34.8125 36.53125 
Q 39.546875 41.84375 41.421875 45.53125 
Q 43.3125 49.21875 43.3125 52.78125 
Q 43.3125 58.59375 39.234375 62.25 
Q 35.15625 65.921875 28.609375 65.921875 
Q 23.96875 65.921875 18.8125 64.3125 
Q 13.671875 62.703125 7.8125 59.421875 
L 7.8125 69.390625 
Q 13.765625 71.78125 18.9375 73 
Q 24.125 74.21875 28.421875 74.21875 
Q 39.75 74.21875 46.484375 68.546875 
Q 53.21875 62.890625 53.21875 53.421875 
Q 53.21875 48.921875 51.53125 44.890625 
Q 49.859375 40.875 45.40625 35.40625 
Q 44.1875 33.984375 37.640625 27.21875 
Q 31.109375 20.453125 19.1875 8.296875 
z
" id="DejaVuSans-50"/>
       </defs>
       <use xlink:href="#DejaVuSans-50"/>
       <use x="63.623047" xlink:href="#DejaVuSans-48"/>
      </g>
     </g>
    </g>
    <g id="xtick_3">
     <g id="line2d_3">
      <g>
       <use style="stroke:#000000;stroke-width:0.8;" x="189.272727" xlink:href="#m32959438a4" y="252"/>
      </g>
     </g>
     <g id="text_3">
      <!-- 40 -->
      <g transform="translate(182.910227 266.598437)scale(0.1 -0.1)">
       <defs>
        <path d="M 37.796875 64.3125 
L 12.890625 25.390625 
L 37.796875 25.390625 
z
M 35.203125 72.90625 
L 47.609375 72.90625 
L 47.609375 25.390625 
L 58.015625 25.390625 
L 58.015625 17.1875 
L 47.609375 17.1875 
L 47.609375 0 
L 37.796875 0 
L 37.796875 17.1875 
L 4.890625 17.1875 
L 4.890625 26.703125 
z
" id="DejaVuSans-52"/>
       </defs>
       <use xlink:href="#DejaVuSans-52"/>
       <use x="63.623047" xlink:href="#DejaVuSans-48"/>
      </g>
     </g>
    </g>
    <g id="xtick_4">
     <g id="line2d_4">
      <g>
       <use style="stroke:#000000;stroke-width:0.8;" x="256.909091" xlink:href="#m32959438a4" y="252"/>
      </g>
     </g>
     <g id="text_4">
      <!-- 60 -->
      <g transform="translate(250.546591 266.598437)scale(0.1 -0.1)">
       <defs>
        <path d="M 33.015625 40.375 
Q 26.375 40.375 22.484375 35.828125 
Q 18.609375 31.296875 18.609375 23.390625 
Q 18.609375 15.53125 22.484375 10.953125 
Q 26.375 6.390625 33.015625 6.390625 
Q 39.65625 6.390625 43.53125 10.953125 
Q 47.40625 15.53125 47.40625 23.390625 
Q 47.40625 31.296875 43.53125 35.828125 
Q 39.65625 40.375 33.015625 40.375 
z
M 52.59375 71.296875 
L 52.59375 62.3125 
Q 48.875 64.0625 45.09375 64.984375 
Q 41.3125 65.921875 37.59375 65.921875 
Q 27.828125 65.921875 22.671875 59.328125 
Q 17.53125 52.734375 16.796875 39.40625 
Q 19.671875 43.65625 24.015625 45.921875 
Q 28.375 48.1875 33.59375 48.1875 
Q 44.578125 48.1875 50.953125 41.515625 
Q 57.328125 34.859375 57.328125 23.390625 
Q 57.328125 12.15625 50.6875 5.359375 
Q 44.046875 -1.421875 33.015625 -1.421875 
Q 20.359375 -1.421875 13.671875 8.265625 
Q 6.984375 17.96875 6.984375 36.375 
Q 6.984375 53.65625 15.1875 63.9375 
Q 23.390625 74.21875 37.203125 74.21875 
Q 40.921875 74.21875 44.703125 73.484375 
Q 48.484375 72.75 52.59375 71.296875 
z
" id="DejaVuSans-54"/>
       </defs>
       <use xlink:href="#DejaVuSans-54"/>
       <use x="63.623047" xlink:href="#DejaVuSans-48"/>
      </g>
     </g>
    </g>
    <g id="xtick_5">
     <g id="line2d_5">
      <g>
       <use style="stroke:#000000;stroke-width:0.8;" x="324.545455" xlink:href="#m32959438a4" y="252"/>
      </g>
     </g>
     <g id="text_5">
      <!-- 80 -->
      <g transform="translate(318.182955 266.598437)scale(0.1 -0.1)">
       <defs>
        <path d="M 31.78125 34.625 
Q 24.75 34.625 20.71875 30.859375 
Q 16.703125 27.09375 16.703125 20.515625 
Q 16.703125 13.921875 20.71875 10.15625 
Q 24.75 6.390625 31.78125 6.390625 
Q 38.8125 6.390625 42.859375 10.171875 
Q 46.921875 13.96875 46.921875 20.515625 
Q 46.921875 27.09375 42.890625 30.859375 
Q 38.875 34.625 31.78125 34.625 
z
M 21.921875 38.8125 
Q 15.578125 40.375 12.03125 44.71875 
Q 8.5 49.078125 8.5 55.328125 
Q 8.5 64.0625 14.71875 69.140625 
Q 20.953125 74.21875 31.78125 74.21875 
Q 42.671875 74.21875 48.875 69.140625 
Q 55.078125 64.0625 55.078125 55.328125 
Q 55.078125 49.078125 51.53125 44.71875 
Q 48 40.375 41.703125 38.8125 
Q 48.828125 37.15625 52.796875 32.3125 
Q 56.78125 27.484375 56.78125 20.515625 
Q 56.78125 9.90625 50.3125 4.234375 
Q 43.84375 -1.421875 31.78125 -1.421875 
Q 19.734375 -1.421875 13.25 4.234375 
Q 6.78125 9.90625 6.78125 20.515625 
Q 6.78125 27.484375 10.78125 32.3125 
Q 14.796875 37.15625 21.921875 38.8125 
z
M 18.3125 54.390625 
Q 18.3125 48.734375 21.84375 45.5625 
Q 25.390625 42.390625 31.78125 42.390625 
Q 38.140625 42.390625 41.71875 45.5625 
Q 45.3125 48.734375 45.3125 54.390625 
Q 45.3125 60.0625 41.71875 63.234375 
Q 38.140625 66.40625 31.78125 66.40625 
Q 25.390625 66.40625 21.84375 63.234375 
Q 18.3125 60.0625 18.3125 54.390625 
z
" id="DejaVuSans-56"/>
       </defs>
       <use xlink:href="#DejaVuSans-56"/>
       <use x="63.623047" xlink:href="#DejaVuSans-48"/>
      </g>
     </g>
    </g>
   </g>
   <g id="matplotlib.axis_2">
    <g id="ytick_1">
     <g id="line2d_6">
      <defs>
       <path d="M 0 0 
L -3.5 0 
" id="m1417e44e8a" style="stroke:#000000;stroke-width:0.8;"/>
      </defs>
      <g>
       <use style="stroke:#000000;stroke-width:0.8;" x="54" xlink:href="#m1417e44e8a" y="249.957888"/>
      </g>
     </g>
     <g id="text_6">
      <!-- $\mathdefault{10^{2}}$ -->
      <g transform="translate(29.4 253.757107)scale(0.1 -0.1)">
       <defs>
        <path d="M 12.40625 8.296875 
L 28.515625 8.296875 
L 28.515625 63.921875 
L 10.984375 60.40625 
L 10.984375 69.390625 
L 28.421875 72.90625 
L 38.28125 72.90625 
L 38.28125 8.296875 
L 54.390625 8.296875 
L 54.390625 0 
L 12.40625 0 
z
" id="DejaVuSans-49"/>
       </defs>
       <use transform="translate(0 0.765625)" xlink:href="#DejaVuSans-49"/>
       <use transform="translate(63.623047 0.765625)" xlink:href="#DejaVuSans-48"/>
       <use transform="translate(128.203125 39.046875)scale(0.7)" xlink:href="#DejaVuSans-50"/>
      </g>
     </g>
    </g>
    <g id="ytick_2">
     <g id="line2d_7">
      <g>
       <use style="stroke:#000000;stroke-width:0.8;" x="54" xlink:href="#m1417e44e8a" y="167.39644"/>
      </g>
     </g>
     <g id="text_7">
      <!-- $\mathdefault{10^{3}}$ -->
      <g transform="translate(29.4 171.195659)scale(0.1 -0.1)">
       <defs>
        <path d="M 40.578125 39.3125 
Q 47.65625 37.796875 51.625 33 
Q 55.609375 28.21875 55.609375 21.1875 
Q 55.609375 10.40625 48.1875 4.484375 
Q 40.765625 -1.421875 27.09375 -1.421875 
Q 22.515625 -1.421875 17.65625 -0.515625 
Q 12.796875 0.390625 7.625 2.203125 
L 7.625 11.71875 
Q 11.71875 9.328125 16.59375 8.109375 
Q 21.484375 6.890625 26.8125 6.890625 
Q 36.078125 6.890625 40.9375 10.546875 
Q 45.796875 14.203125 45.796875 21.1875 
Q 45.796875 27.640625 41.28125 31.265625 
Q 36.765625 34.90625 28.71875 34.90625 
L 20.21875 34.90625 
L 20.21875 43.015625 
L 29.109375 43.015625 
Q 36.375 43.015625 40.234375 45.921875 
Q 44.09375 48.828125 44.09375 54.296875 
Q 44.09375 59.90625 40.109375 62.90625 
Q 36.140625 65.921875 28.71875 65.921875 
Q 24.65625 65.921875 20.015625 65.03125 
Q 15.375 64.15625 9.8125 62.3125 
L 9.8125 71.09375 
Q 15.4375 72.65625 20.34375 73.4375 
Q 25.25 74.21875 29.59375 74.21875 
Q 40.828125 74.21875 47.359375 69.109375 
Q 53.90625 64.015625 53.90625 55.328125 
Q 53.90625 49.265625 50.4375 45.09375 
Q 46.96875 40.921875 40.578125 39.3125 
z
" id="DejaVuSans-51"/>
       </defs>
       <use transform="translate(0 0.765625)" xlink:href="#DejaVuSans-49"/>
       <use transform="translate(63.623047 0.765625)" xlink:href="#DejaVuSans-48"/>
       <use transform="translate(128.203125 39.046875)scale(0.7)" xlink:href="#DejaVuSans-51"/>
      </g>
     </g>
    </g>
    <g id="ytick_3">
     <g id="line2d_8">
      <g>
       <use style="stroke:#000000;stroke-width:0.8;" x="54" xlink:href="#m1417e44e8a" y="84.834993"/>
      </g>
     </g>
     <g id="text_8">
      <!-- $\mathdefault{10^{4}}$ -->
      <g transform="translate(29.4 88.634212)scale(0.1 -0.1)">
       <use transform="translate(0 0.684375)" xlink:href="#DejaVuSans-49"/>
       <use transform="translate(63.623047 0.684375)" xlink:href="#DejaVuSans-48"/>
       <use transform="translate(128.203125 38.965625)scale(0.7)" xlink:href="#DejaVuSans-52"/>
      </g>
     </g>
    </g>
    <g id="ytick_4">
     <g id="line2d_9">
      <defs>
       <path d="M 0 0 
L -2 0 
" id="m913fe2d64f" style="stroke:#000000;stroke-width:0.6;"/>
      </defs>
      <g>
       <use style="stroke:#000000;stroke-width:0.6;" x="54" xlink:href="#m913fe2d64f" y="225.104416"/>
      </g>
     </g>
    </g>
    <g id="ytick_5">
     <g id="line2d_10">
      <g>
       <use style="stroke:#000000;stroke-width:0.6;" x="54" xlink:href="#m913fe2d64f" y="210.566066"/>
      </g>
     </g>
    </g>
    <g id="ytick_6">
     <g id="line2d_11">
      <g>
       <use style="stroke:#000000;stroke-width:0.6;" x="54" xlink:href="#m913fe2d64f" y="200.250944"/>
      </g>
     </g>
    </g>
    <g id="ytick_7">
     <g id="line2d_12">
      <g>
       <use style="stroke:#000000;stroke-width:0.6;" x="54" xlink:href="#m913fe2d64f" y="192.249913"/>
      </g>
     </g>
    </g>
    <g id="ytick_8">
     <g id="line2d_13">
      <g>
       <use style="stroke:#000000;stroke-width:0.6;" x="54" xlink:href="#m913fe2d64f" y="185.712594"/>
      </g>
     </g>
    </g>
    <g id="ytick_9">
     <g id="line2d_14">
      <g>
       <use style="stroke:#000000;stroke-width:0.6;" x="54" xlink:href="#m913fe2d64f" y="180.18537"/>
      </g>
     </g>
    </g>
    <g id="ytick_10">
     <g id="line2d_15">
      <g>
       <use style="stroke:#000000;stroke-width:0.6;" x="54" xlink:href="#m913fe2d64f" y="175.397471"/>
      </g>
     </g>
    </g>
    <g id="ytick_11">
     <g id="line2d_16">
      <g>
       <use style="stroke:#000000;stroke-width:0.6;" x="54" xlink:href="#m913fe2d64f" y="171.174245"/>
      </g>
     </g>
    </g>
    <g id="ytick_12">
     <g id="line2d_17">
      <g>
       <use style="stroke:#000000;stroke-width:0.6;" x="54" xlink:href="#m913fe2d64f" y="142.542968"/>
      </g>
     </g>
    </g>
    <g id="ytick_13">
     <g id="line2d_18">
      <g>
       <use style="stroke:#000000;stroke-width:0.6;" x="54" xlink:href="#m913fe2d64f" y="128.004619"/>
      </g>
     </g>
    </g>
    <g id="ytick_14">
     <g id="line2d_19">
      <g>
       <use style="stroke:#000000;stroke-width:0.6;" x="54" xlink:href="#m913fe2d64f" y="117.689496"/>
      </g>
     </g>
    </g>
    <g id="ytick_15">
     <g id="line2d_20">
      <g>
       <use style="stroke:#000000;stroke-width:0.6;" x="54" xlink:href="#m913fe2d64f" y="109.688465"/>
      </g>
     </g>
    </g>
    <g id="ytick_16">
     <g id="line2d_21">
      <g>
       <use style="stroke:#000000;stroke-width:0.6;" x="54" xlink:href="#m913fe2d64f" y="103.151147"/>
      </g>
     </g>
    </g>
    <g id="ytick_17">
     <g id="line2d_22">
      <g>
       <use style="stroke:#000000;stroke-width:0.6;" x="54" xlink:href="#m913fe2d64f" y="97.623923"/>
      </g>
     </g>
    </g>
    <g id="ytick_18">
     <g id="line2d_23">
      <g>
       <use style="stroke:#000000;stroke-width:0.6;" x="54" xlink:href="#m913fe2d64f" y="92.836024"/>
      </g>
     </g>
    </g>
    <g id="ytick_19">
     <g id="line2d_24">
      <g>
       <use style="stroke:#000000;stroke-width:0.6;" x="54" xlink:href="#m913fe2d64f" y="88.612798"/>
      </g>
     </g>
    </g>
    <g id="ytick_20">
     <g id="line2d_25">
      <g>
       <use style="stroke:#000000;stroke-width:0.6;" x="54" xlink:href="#m913fe2d64f" y="59.981521"/>
      </g>
     </g>
    </g>
    <g id="ytick_21">
     <g id="line2d_26">
      <g>
       <use style="stroke:#000000;stroke-width:0.6;" x="54" xlink:href="#m913fe2d64f" y="45.443171"/>
      </g>
     </g>
    </g>
    <g id="ytick_22">
     <g id="line2d_27">
      <g>
       <use style="stroke:#000000;stroke-width:0.6;" x="54" xlink:href="#m913fe2d64f" y="35.128049"/>
      </g>
     </g>
    </g>
   </g>
   <g id="line2d_28">
    <path clip-path="url(#pb19ce5a6d1)" d="M 57.381818 59.712722 
L 74.290909 59.712722 
L 74.290909 64.011564 
L 84.436364 64.011564 
L 84.436364 69.785311 
L 94.581818 69.785311 
L 94.581818 72.382338 
L 104.727273 72.382338 
L 104.727273 82.972362 
L 114.872727 82.972362 
L 114.872727 91.397603 
L 125.018182 91.397603 
L 125.018182 95.663761 
L 135.163636 95.663761 
L 135.163636 96.036328 
L 165.6 96.036328 
L 165.6 96.646129 
L 175.745455 96.646129 
L 175.745455 100.338282 
L 185.890909 100.338282 
L 185.890909 102.657824 
L 206.181818 102.657824 
L 206.181818 106.4791 
L 226.472727 106.4791 
L 226.472727 107.857286 
L 236.618182 107.857286 
L 236.618182 109.99139 
L 267.054545 109.99139 
L 267.054545 110.624986 
L 277.2 110.624986 
L 277.2 112.272535 
L 287.345455 112.272535 
L 287.345455 116.096836 
L 297.490909 116.096836 
L 297.490909 117.174967 
L 307.636364 117.174967 
L 307.636364 122.32854 
L 317.781818 122.32854 
L 317.781818 123.531175 
L 358.363636 123.531175 
L 358.363636 125.513157 
L 388.8 125.559082 
L 388.8 126.874444 
L 392.181818 126.874444 
L 392.181818 126.874444 
" style="fill:none;stroke:#a52a2a;stroke-linecap:square;stroke-width:1.5;"/>
   </g>
   <g id="line2d_29">
    <path clip-path="url(#pb19ce5a6d1)" d="M 57.381818 95.036146 
L 81.054545 95.036146 
L 81.054545 110.407234 
L 84.436364 110.407234 
L 84.436364 118.074941 
L 87.818182 118.074941 
L 87.818182 132.753796 
L 91.2 132.753796 
L 91.2 134.348018 
L 94.581818 134.348018 
L 94.581818 163.580401 
L 97.963636 163.580401 
L 97.963636 172.908867 
L 101.345455 172.908867 
L 101.345455 175.599393 
L 108.109091 175.599393 
L 108.109091 190.775464 
L 111.490909 190.775464 
L 111.490909 196.99595 
L 114.872727 196.99595 
L 114.872727 198.882118 
L 125.018182 198.882118 
L 125.018182 199.784489 
L 128.4 199.784489 
L 128.4 201.402658 
L 131.781818 201.402658 
L 131.781818 205.870892 
L 135.163636 205.870892 
L 135.163636 206.598821 
L 141.927273 206.598821 
L 141.927273 210.679031 
L 145.309091 210.679031 
L 145.309091 221.450692 
L 155.454545 221.450692 
L 155.454545 222.014969 
L 168.981818 222.014969 
L 168.981818 223.506288 
L 179.127273 223.506288 
L 179.127273 227.744244 
L 189.272727 227.833408 
L 189.272727 228.116181 
L 196.036364 228.116181 
L 196.036364 228.405681 
L 236.618182 228.42778 
L 236.618182 229.070179 
L 256.909091 229.085902 
L 256.909091 229.66253 
L 297.490909 229.66253 
L 297.490909 229.821436 
L 331.309091 229.927309 
L 331.309091 230.243547 
L 338.072727 230.243547 
L 338.072727 230.540043 
L 392.181818 230.540043 
L 392.181818 230.540043 
" style="fill:none;stroke:#008000;stroke-linecap:square;stroke-width:1.5;"/>
   </g>
   <g id="line2d_30">
    <path clip-path="url(#pb19ce5a6d1)" d="M 57.381818 55.285988 
L 128.4 55.285988 
L 128.4 59.70803 
L 131.781818 59.70803 
L 131.781818 63.413798 
L 135.163636 63.413798 
L 135.163636 63.766517 
L 138.545455 63.766517 
L 138.545455 64.274282 
L 199.418182 64.274282 
L 199.418182 66.195805 
L 206.181818 66.195805 
L 206.181818 68.250266 
L 283.963636 68.250266 
L 283.963636 69.163101 
L 287.345455 69.163101 
L 287.345455 69.545801 
L 365.127273 69.545801 
L 365.127273 70.428145 
L 392.181818 70.428145 
L 392.181818 70.428145 
" style="fill:none;stroke:#808080;stroke-linecap:square;stroke-width:1.5;"/>
   </g>
   <g id="line2d_31">
    <path clip-path="url(#pb19ce5a6d1)" d="M 57.381818 52.787573 
L 128.4 52.787573 
L 128.4 63.196038 
L 131.781818 63.196038 
L 131.781818 63.841066 
L 141.927273 63.841066 
L 141.927273 64.787368 
L 145.309091 64.787368 
L 145.309091 66.065213 
L 148.690909 66.065213 
L 148.690909 68.023682 
L 168.981818 68.023682 
L 168.981818 69.003977 
L 196.036364 69.003977 
L 196.036364 69.722659 
L 219.709091 69.722659 
L 219.709091 70.460053 
L 294.109091 70.460053 
L 294.109091 70.659647 
L 392.181818 70.659647 
L 392.181818 70.659647 
" style="fill:none;stroke:#ffa500;stroke-linecap:square;stroke-width:1.5;"/>
   </g>
   <g id="line2d_32">
    <path clip-path="url(#pb19ce5a6d1)" d="M 57.381818 53.801976 
L 97.963636 53.801976 
L 97.963636 55.913009 
L 101.345455 55.913009 
L 101.345455 57.083152 
L 104.727273 57.083152 
L 104.727273 64.84664 
L 135.163636 64.84664 
L 135.163636 66.036528 
L 138.545455 66.036528 
L 138.545455 66.483302 
L 229.854545 66.483302 
L 229.854545 69.139076 
L 240 69.139076 
L 240 69.521499 
L 267.054545 69.521499 
L 267.054545 70.584802 
L 270.436364 70.584802 
L 270.436364 73.58052 
L 297.490909 73.58052 
L 297.490909 73.715748 
L 392.181818 73.715748 
L 392.181818 73.715748 
" style="fill:none;stroke:#0000ff;stroke-linecap:square;stroke-width:1.5;"/>
   </g>
   <g id="line2d_33">
    <path clip-path="url(#pb19ce5a6d1)" d="M 57.381818 55.340048 
L 60.763636 55.340048 
L 60.763636 66.653833 
L 64.145455 66.653833 
L 64.145455 88.2201 
L 67.527273 88.2201 
L 67.527273 101.613619 
L 70.909091 101.613619 
L 70.909091 138.874047 
L 74.290909 138.874047 
L 74.290909 150.152401 
L 77.672727 150.152401 
L 77.672727 157.092609 
L 81.054545 157.092609 
L 81.054545 164.747 
L 84.436364 164.747 
L 84.436364 171.102053 
L 91.2 171.102053 
L 91.2 171.633162 
L 104.727273 171.633162 
L 104.727273 175.04 
L 118.254545 175.04 
L 118.254545 179.327966 
L 131.781818 179.327966 
L 131.781818 180.328036 
L 145.309091 180.328036 
L 145.309091 180.476648 
L 165.6 180.476648 
L 165.6 180.714161 
L 185.890909 180.815647 
L 185.890909 181.051402 
L 206.181818 181.051402 
L 206.181818 183.093727 
L 253.527273 183.152683 
L 253.527273 183.741084 
L 307.636364 183.796213 
L 307.636364 183.941686 
L 368.509091 183.988076 
L 368.509091 184.08498 
L 392.181818 184.08498 
L 392.181818 184.08498 
" style="fill:none;stroke:#ee82ee;stroke-linecap:square;stroke-width:1.5;"/>
   </g>
   <g id="patch_3">
    <path d="M 54 252 
L 54 34.56 
" style="fill:none;stroke:#000000;stroke-linecap:square;stroke-linejoin:miter;stroke-width:0.8;"/>
   </g>
   <g id="patch_4">
    <path d="M 388.8 252 
L 388.8 34.56 
" style="fill:none;stroke:#000000;stroke-linecap:square;stroke-linejoin:miter;stroke-width:0.8;"/>
   </g>
   <g id="patch_5">
    <path d="M 54 252 
L 388.8 252 
" style="fill:none;stroke:#000000;stroke-linecap:square;stroke-linejoin:miter;stroke-width:0.8;"/>
   </g>
   <g id="patch_6">
    <path d="M 54 34.56 
L 388.8 34.56 
" style="fill:none;stroke:#000000;stroke-linecap:square;stroke-linejoin:miter;stroke-width:0.8;"/>
   </g>
   <g id="legend_1">
    <g id="patch_7">
     <path d="M 61 188.814375 
L 172.69375 188.814375 
Q 174.69375 188.814375 174.69375 186.814375 
L 174.69375 99.745625 
Q 174.69375 97.745625 172.69375 97.745625 
L 61 97.745625 
Q 59 97.745625 59 99.745625 
L 59 186.814375 
Q 59 188.814375 61 188.814375 
z
" style="fill:#ffffff;opacity:0.8;stroke:#cccccc;stroke-linejoin:miter;"/>
    </g>
    <g id="line2d_34">
     <path d="M 63 105.844063 
L 83 105.844063 
" style="fill:none;stroke:#a52a2a;stroke-linecap:square;stroke-width:1.5;"/>
    </g>
    <g id="line2d_35"/>
    <g id="text_9">
     <!-- Nesterov -->
     <g transform="translate(91 109.344063)scale(0.1 -0.1)">
      <defs>
       <path d="M 9.8125 72.90625 
L 23.09375 72.90625 
L 55.421875 11.921875 
L 55.421875 72.90625 
L 64.984375 72.90625 
L 64.984375 0 
L 51.703125 0 
L 19.390625 60.984375 
L 19.390625 0 
L 9.8125 0 
z
" id="DejaVuSans-78"/>
       <path d="M 56.203125 29.59375 
L 56.203125 25.203125 
L 14.890625 25.203125 
Q 15.484375 15.921875 20.484375 11.0625 
Q 25.484375 6.203125 34.421875 6.203125 
Q 39.59375 6.203125 44.453125 7.46875 
Q 49.3125 8.734375 54.109375 11.28125 
L 54.109375 2.78125 
Q 49.265625 0.734375 44.1875 -0.34375 
Q 39.109375 -1.421875 33.890625 -1.421875 
Q 20.796875 -1.421875 13.15625 6.1875 
Q 5.515625 13.8125 5.515625 26.8125 
Q 5.515625 40.234375 12.765625 48.109375 
Q 20.015625 56 32.328125 56 
Q 43.359375 56 49.78125 48.890625 
Q 56.203125 41.796875 56.203125 29.59375 
z
M 47.21875 32.234375 
Q 47.125 39.59375 43.09375 43.984375 
Q 39.0625 48.390625 32.421875 48.390625 
Q 24.90625 48.390625 20.390625 44.140625 
Q 15.875 39.890625 15.1875 32.171875 
z
" id="DejaVuSans-101"/>
       <path d="M 44.28125 53.078125 
L 44.28125 44.578125 
Q 40.484375 46.53125 36.375 47.5 
Q 32.28125 48.484375 27.875 48.484375 
Q 21.1875 48.484375 17.84375 46.4375 
Q 14.5 44.390625 14.5 40.28125 
Q 14.5 37.15625 16.890625 35.375 
Q 19.28125 33.59375 26.515625 31.984375 
L 29.59375 31.296875 
Q 39.15625 29.25 43.1875 25.515625 
Q 47.21875 21.78125 47.21875 15.09375 
Q 47.21875 7.46875 41.1875 3.015625 
Q 35.15625 -1.421875 24.609375 -1.421875 
Q 20.21875 -1.421875 15.453125 -0.5625 
Q 10.6875 0.296875 5.421875 2 
L 5.421875 11.28125 
Q 10.40625 8.6875 15.234375 7.390625 
Q 20.0625 6.109375 24.8125 6.109375 
Q 31.15625 6.109375 34.5625 8.28125 
Q 37.984375 10.453125 37.984375 14.40625 
Q 37.984375 18.0625 35.515625 20.015625 
Q 33.0625 21.96875 24.703125 23.78125 
L 21.578125 24.515625 
Q 13.234375 26.265625 9.515625 29.90625 
Q 5.8125 33.546875 5.8125 39.890625 
Q 5.8125 47.609375 11.28125 51.796875 
Q 16.75 56 26.8125 56 
Q 31.78125 56 36.171875 55.265625 
Q 40.578125 54.546875 44.28125 53.078125 
z
" id="DejaVuSans-115"/>
       <path d="M 18.3125 70.21875 
L 18.3125 54.6875 
L 36.8125 54.6875 
L 36.8125 47.703125 
L 18.3125 47.703125 
L 18.3125 18.015625 
Q 18.3125 11.328125 20.140625 9.421875 
Q 21.96875 7.515625 27.59375 7.515625 
L 36.8125 7.515625 
L 36.8125 0 
L 27.59375 0 
Q 17.1875 0 13.234375 3.875 
Q 9.28125 7.765625 9.28125 18.015625 
L 9.28125 47.703125 
L 2.6875 47.703125 
L 2.6875 54.6875 
L 9.28125 54.6875 
L 9.28125 70.21875 
z
" id="DejaVuSans-116"/>
       <path d="M 41.109375 46.296875 
Q 39.59375 47.171875 37.8125 47.578125 
Q 36.03125 48 33.890625 48 
Q 26.265625 48 22.1875 43.046875 
Q 18.109375 38.09375 18.109375 28.8125 
L 18.109375 0 
L 9.078125 0 
L 9.078125 54.6875 
L 18.109375 54.6875 
L 18.109375 46.1875 
Q 20.953125 51.171875 25.484375 53.578125 
Q 30.03125 56 36.53125 56 
Q 37.453125 56 38.578125 55.875 
Q 39.703125 55.765625 41.0625 55.515625 
z
" id="DejaVuSans-114"/>
       <path d="M 30.609375 48.390625 
Q 23.390625 48.390625 19.1875 42.75 
Q 14.984375 37.109375 14.984375 27.296875 
Q 14.984375 17.484375 19.15625 11.84375 
Q 23.34375 6.203125 30.609375 6.203125 
Q 37.796875 6.203125 41.984375 11.859375 
Q 46.1875 17.53125 46.1875 27.296875 
Q 46.1875 37.015625 41.984375 42.703125 
Q 37.796875 48.390625 30.609375 48.390625 
z
M 30.609375 56 
Q 42.328125 56 49.015625 48.375 
Q 55.71875 40.765625 55.71875 27.296875 
Q 55.71875 13.875 49.015625 6.21875 
Q 42.328125 -1.421875 30.609375 -1.421875 
Q 18.84375 -1.421875 12.171875 6.21875 
Q 5.515625 13.875 5.515625 27.296875 
Q 5.515625 40.765625 12.171875 48.375 
Q 18.84375 56 30.609375 56 
z
" id="DejaVuSans-111"/>
       <path d="M 2.984375 54.6875 
L 12.5 54.6875 
L 29.59375 8.796875 
L 46.6875 54.6875 
L 56.203125 54.6875 
L 35.6875 0 
L 23.484375 0 
z
" id="DejaVuSans-118"/>
      </defs>
      <use xlink:href="#DejaVuSans-78"/>
      <use x="74.804688" xlink:href="#DejaVuSans-101"/>
      <use x="136.328125" xlink:href="#DejaVuSans-115"/>
      <use x="188.427734" xlink:href="#DejaVuSans-116"/>
      <use x="227.636719" xlink:href="#DejaVuSans-101"/>
      <use x="289.160156" xlink:href="#DejaVuSans-114"/>
      <use x="328.023438" xlink:href="#DejaVuSans-111"/>
      <use x="389.205078" xlink:href="#DejaVuSans-118"/>
     </g>
    </g>
    <g id="line2d_36">
     <path d="M 63 120.522188 
L 83 120.522188 
" style="fill:none;stroke:#008000;stroke-linecap:square;stroke-width:1.5;"/>
    </g>
    <g id="line2d_37"/>
    <g id="text_10">
     <!-- Simplex -->
     <g transform="translate(91 124.022188)scale(0.1 -0.1)">
      <defs>
       <path d="M 53.515625 70.515625 
L 53.515625 60.890625 
Q 47.90625 63.578125 42.921875 64.890625 
Q 37.9375 66.21875 33.296875 66.21875 
Q 25.25 66.21875 20.875 63.09375 
Q 16.5 59.96875 16.5 54.203125 
Q 16.5 49.359375 19.40625 46.890625 
Q 22.3125 44.4375 30.421875 42.921875 
L 36.375 41.703125 
Q 47.40625 39.59375 52.65625 34.296875 
Q 57.90625 29 57.90625 20.125 
Q 57.90625 9.515625 50.796875 4.046875 
Q 43.703125 -1.421875 29.984375 -1.421875 
Q 24.8125 -1.421875 18.96875 -0.25 
Q 13.140625 0.921875 6.890625 3.21875 
L 6.890625 13.375 
Q 12.890625 10.015625 18.65625 8.296875 
Q 24.421875 6.59375 29.984375 6.59375 
Q 38.421875 6.59375 43.015625 9.90625 
Q 47.609375 13.234375 47.609375 19.390625 
Q 47.609375 24.75 44.3125 27.78125 
Q 41.015625 30.8125 33.5 32.328125 
L 27.484375 33.5 
Q 16.453125 35.6875 11.515625 40.375 
Q 6.59375 45.0625 6.59375 53.421875 
Q 6.59375 63.09375 13.40625 68.65625 
Q 20.21875 74.21875 32.171875 74.21875 
Q 37.3125 74.21875 42.625 73.28125 
Q 47.953125 72.359375 53.515625 70.515625 
z
" id="DejaVuSans-83"/>
       <path d="M 9.421875 54.6875 
L 18.40625 54.6875 
L 18.40625 0 
L 9.421875 0 
z
M 9.421875 75.984375 
L 18.40625 75.984375 
L 18.40625 64.59375 
L 9.421875 64.59375 
z
" id="DejaVuSans-105"/>
       <path d="M 52 44.1875 
Q 55.375 50.25 60.0625 53.125 
Q 64.75 56 71.09375 56 
Q 79.640625 56 84.28125 50.015625 
Q 88.921875 44.046875 88.921875 33.015625 
L 88.921875 0 
L 79.890625 0 
L 79.890625 32.71875 
Q 79.890625 40.578125 77.09375 44.375 
Q 74.3125 48.1875 68.609375 48.1875 
Q 61.625 48.1875 57.5625 43.546875 
Q 53.515625 38.921875 53.515625 30.90625 
L 53.515625 0 
L 44.484375 0 
L 44.484375 32.71875 
Q 44.484375 40.625 41.703125 44.40625 
Q 38.921875 48.1875 33.109375 48.1875 
Q 26.21875 48.1875 22.15625 43.53125 
Q 18.109375 38.875 18.109375 30.90625 
L 18.109375 0 
L 9.078125 0 
L 9.078125 54.6875 
L 18.109375 54.6875 
L 18.109375 46.1875 
Q 21.1875 51.21875 25.484375 53.609375 
Q 29.78125 56 35.6875 56 
Q 41.65625 56 45.828125 52.96875 
Q 50 49.953125 52 44.1875 
z
" id="DejaVuSans-109"/>
       <path d="M 18.109375 8.203125 
L 18.109375 -20.796875 
L 9.078125 -20.796875 
L 9.078125 54.6875 
L 18.109375 54.6875 
L 18.109375 46.390625 
Q 20.953125 51.265625 25.265625 53.625 
Q 29.59375 56 35.59375 56 
Q 45.5625 56 51.78125 48.09375 
Q 58.015625 40.1875 58.015625 27.296875 
Q 58.015625 14.40625 51.78125 6.484375 
Q 45.5625 -1.421875 35.59375 -1.421875 
Q 29.59375 -1.421875 25.265625 0.953125 
Q 20.953125 3.328125 18.109375 8.203125 
z
M 48.6875 27.296875 
Q 48.6875 37.203125 44.609375 42.84375 
Q 40.53125 48.484375 33.40625 48.484375 
Q 26.265625 48.484375 22.1875 42.84375 
Q 18.109375 37.203125 18.109375 27.296875 
Q 18.109375 17.390625 22.1875 11.75 
Q 26.265625 6.109375 33.40625 6.109375 
Q 40.53125 6.109375 44.609375 11.75 
Q 48.6875 17.390625 48.6875 27.296875 
z
" id="DejaVuSans-112"/>
       <path d="M 9.421875 75.984375 
L 18.40625 75.984375 
L 18.40625 0 
L 9.421875 0 
z
" id="DejaVuSans-108"/>
       <path d="M 54.890625 54.6875 
L 35.109375 28.078125 
L 55.90625 0 
L 45.3125 0 
L 29.390625 21.484375 
L 13.484375 0 
L 2.875 0 
L 24.125 28.609375 
L 4.6875 54.6875 
L 15.28125 54.6875 
L 29.78125 35.203125 
L 44.28125 54.6875 
z
" id="DejaVuSans-120"/>
      </defs>
      <use xlink:href="#DejaVuSans-83"/>
      <use x="63.476562" xlink:href="#DejaVuSans-105"/>
      <use x="91.259766" xlink:href="#DejaVuSans-109"/>
      <use x="188.671875" xlink:href="#DejaVuSans-112"/>
      <use x="252.148438" xlink:href="#DejaVuSans-108"/>
      <use x="279.931641" xlink:href="#DejaVuSans-101"/>
      <use x="339.705078" xlink:href="#DejaVuSans-120"/>
     </g>
    </g>
    <g id="line2d_38">
     <path d="M 63 135.200312 
L 83 135.200312 
" style="fill:none;stroke:#808080;stroke-linecap:square;stroke-width:1.5;"/>
    </g>
    <g id="line2d_39"/>
    <g id="text_11">
     <!-- Approx. Newton -->
     <g transform="translate(91 138.700312)scale(0.1 -0.1)">
      <defs>
       <path d="M 34.1875 63.1875 
L 20.796875 26.90625 
L 47.609375 26.90625 
z
M 28.609375 72.90625 
L 39.796875 72.90625 
L 67.578125 0 
L 57.328125 0 
L 50.6875 18.703125 
L 17.828125 18.703125 
L 11.1875 0 
L 0.78125 0 
z
" id="DejaVuSans-65"/>
       <path d="M 10.6875 12.40625 
L 21 12.40625 
L 21 0 
L 10.6875 0 
z
" id="DejaVuSans-46"/>
       <path id="DejaVuSans-32"/>
       <path d="M 4.203125 54.6875 
L 13.1875 54.6875 
L 24.421875 12.015625 
L 35.59375 54.6875 
L 46.1875 54.6875 
L 57.421875 12.015625 
L 68.609375 54.6875 
L 77.59375 54.6875 
L 63.28125 0 
L 52.6875 0 
L 40.921875 44.828125 
L 29.109375 0 
L 18.5 0 
z
" id="DejaVuSans-119"/>
       <path d="M 54.890625 33.015625 
L 54.890625 0 
L 45.90625 0 
L 45.90625 32.71875 
Q 45.90625 40.484375 42.875 44.328125 
Q 39.84375 48.1875 33.796875 48.1875 
Q 26.515625 48.1875 22.3125 43.546875 
Q 18.109375 38.921875 18.109375 30.90625 
L 18.109375 0 
L 9.078125 0 
L 9.078125 54.6875 
L 18.109375 54.6875 
L 18.109375 46.1875 
Q 21.34375 51.125 25.703125 53.5625 
Q 30.078125 56 35.796875 56 
Q 45.21875 56 50.046875 50.171875 
Q 54.890625 44.34375 54.890625 33.015625 
z
" id="DejaVuSans-110"/>
      </defs>
      <use xlink:href="#DejaVuSans-65"/>
      <use x="68.408203" xlink:href="#DejaVuSans-112"/>
      <use x="131.884766" xlink:href="#DejaVuSans-112"/>
      <use x="195.361328" xlink:href="#DejaVuSans-114"/>
      <use x="234.224609" xlink:href="#DejaVuSans-111"/>
      <use x="292.28125" xlink:href="#DejaVuSans-120"/>
      <use x="351.460938" xlink:href="#DejaVuSans-46"/>
      <use x="383.248047" xlink:href="#DejaVuSans-32"/>
      <use x="415.035156" xlink:href="#DejaVuSans-78"/>
      <use x="489.839844" xlink:href="#DejaVuSans-101"/>
      <use x="551.363281" xlink:href="#DejaVuSans-119"/>
      <use x="633.150391" xlink:href="#DejaVuSans-116"/>
      <use x="672.359375" xlink:href="#DejaVuSans-111"/>
      <use x="733.541016" xlink:href="#DejaVuSans-110"/>
     </g>
    </g>
    <g id="line2d_40">
     <path d="M 63 149.878438 
L 83 149.878438 
" style="fill:none;stroke:#ffa500;stroke-linecap:square;stroke-width:1.5;"/>
    </g>
    <g id="line2d_41"/>
    <g id="text_12">
     <!-- Approx. BFGS -->
     <g transform="translate(91 153.378438)scale(0.1 -0.1)">
      <defs>
       <path d="M 19.671875 34.8125 
L 19.671875 8.109375 
L 35.5 8.109375 
Q 43.453125 8.109375 47.28125 11.40625 
Q 51.125 14.703125 51.125 21.484375 
Q 51.125 28.328125 47.28125 31.5625 
Q 43.453125 34.8125 35.5 34.8125 
z
M 19.671875 64.796875 
L 19.671875 42.828125 
L 34.28125 42.828125 
Q 41.5 42.828125 45.03125 45.53125 
Q 48.578125 48.25 48.578125 53.8125 
Q 48.578125 59.328125 45.03125 62.0625 
Q 41.5 64.796875 34.28125 64.796875 
z
M 9.8125 72.90625 
L 35.015625 72.90625 
Q 46.296875 72.90625 52.390625 68.21875 
Q 58.5 63.53125 58.5 54.890625 
Q 58.5 48.1875 55.375 44.234375 
Q 52.25 40.28125 46.1875 39.3125 
Q 53.46875 37.75 57.5 32.78125 
Q 61.53125 27.828125 61.53125 20.40625 
Q 61.53125 10.640625 54.890625 5.3125 
Q 48.25 0 35.984375 0 
L 9.8125 0 
z
" id="DejaVuSans-66"/>
       <path d="M 9.8125 72.90625 
L 51.703125 72.90625 
L 51.703125 64.59375 
L 19.671875 64.59375 
L 19.671875 43.109375 
L 48.578125 43.109375 
L 48.578125 34.8125 
L 19.671875 34.8125 
L 19.671875 0 
L 9.8125 0 
z
" id="DejaVuSans-70"/>
       <path d="M 59.515625 10.40625 
L 59.515625 29.984375 
L 43.40625 29.984375 
L 43.40625 38.09375 
L 69.28125 38.09375 
L 69.28125 6.78125 
Q 63.578125 2.734375 56.6875 0.65625 
Q 49.8125 -1.421875 42 -1.421875 
Q 24.90625 -1.421875 15.25 8.5625 
Q 5.609375 18.5625 5.609375 36.375 
Q 5.609375 54.25 15.25 64.234375 
Q 24.90625 74.21875 42 74.21875 
Q 49.125 74.21875 55.546875 72.453125 
Q 61.96875 70.703125 67.390625 67.28125 
L 67.390625 56.78125 
Q 61.921875 61.421875 55.765625 63.765625 
Q 49.609375 66.109375 42.828125 66.109375 
Q 29.4375 66.109375 22.71875 58.640625 
Q 16.015625 51.171875 16.015625 36.375 
Q 16.015625 21.625 22.71875 14.15625 
Q 29.4375 6.6875 42.828125 6.6875 
Q 48.046875 6.6875 52.140625 7.59375 
Q 56.25 8.5 59.515625 10.40625 
z
" id="DejaVuSans-71"/>
      </defs>
      <use xlink:href="#DejaVuSans-65"/>
      <use x="68.408203" xlink:href="#DejaVuSans-112"/>
      <use x="131.884766" xlink:href="#DejaVuSans-112"/>
      <use x="195.361328" xlink:href="#DejaVuSans-114"/>
      <use x="234.224609" xlink:href="#DejaVuSans-111"/>
      <use x="292.28125" xlink:href="#DejaVuSans-120"/>
      <use x="351.460938" xlink:href="#DejaVuSans-46"/>
      <use x="383.248047" xlink:href="#DejaVuSans-32"/>
      <use x="415.035156" xlink:href="#DejaVuSans-66"/>
      <use x="483.638672" xlink:href="#DejaVuSans-70"/>
      <use x="541.158203" xlink:href="#DejaVuSans-71"/>
      <use x="618.648438" xlink:href="#DejaVuSans-83"/>
     </g>
    </g>
    <g id="line2d_42">
     <path d="M 63 164.556563 
L 83 164.556563 
" style="fill:none;stroke:#0000ff;stroke-linecap:square;stroke-width:1.5;"/>
    </g>
    <g id="line2d_43"/>
    <g id="text_13">
     <!-- Adam  -->
     <g transform="translate(91 168.056563)scale(0.1 -0.1)">
      <defs>
       <path d="M 45.40625 46.390625 
L 45.40625 75.984375 
L 54.390625 75.984375 
L 54.390625 0 
L 45.40625 0 
L 45.40625 8.203125 
Q 42.578125 3.328125 38.25 0.953125 
Q 33.9375 -1.421875 27.875 -1.421875 
Q 17.96875 -1.421875 11.734375 6.484375 
Q 5.515625 14.40625 5.515625 27.296875 
Q 5.515625 40.1875 11.734375 48.09375 
Q 17.96875 56 27.875 56 
Q 33.9375 56 38.25 53.625 
Q 42.578125 51.265625 45.40625 46.390625 
z
M 14.796875 27.296875 
Q 14.796875 17.390625 18.875 11.75 
Q 22.953125 6.109375 30.078125 6.109375 
Q 37.203125 6.109375 41.296875 11.75 
Q 45.40625 17.390625 45.40625 27.296875 
Q 45.40625 37.203125 41.296875 42.84375 
Q 37.203125 48.484375 30.078125 48.484375 
Q 22.953125 48.484375 18.875 42.84375 
Q 14.796875 37.203125 14.796875 27.296875 
z
" id="DejaVuSans-100"/>
       <path d="M 34.28125 27.484375 
Q 23.390625 27.484375 19.1875 25 
Q 14.984375 22.515625 14.984375 16.5 
Q 14.984375 11.71875 18.140625 8.90625 
Q 21.296875 6.109375 26.703125 6.109375 
Q 34.1875 6.109375 38.703125 11.40625 
Q 43.21875 16.703125 43.21875 25.484375 
L 43.21875 27.484375 
z
M 52.203125 31.203125 
L 52.203125 0 
L 43.21875 0 
L 43.21875 8.296875 
Q 40.140625 3.328125 35.546875 0.953125 
Q 30.953125 -1.421875 24.3125 -1.421875 
Q 15.921875 -1.421875 10.953125 3.296875 
Q 6 8.015625 6 15.921875 
Q 6 25.140625 12.171875 29.828125 
Q 18.359375 34.515625 30.609375 34.515625 
L 43.21875 34.515625 
L 43.21875 35.40625 
Q 43.21875 41.609375 39.140625 45 
Q 35.0625 48.390625 27.6875 48.390625 
Q 23 48.390625 18.546875 47.265625 
Q 14.109375 46.140625 10.015625 43.890625 
L 10.015625 52.203125 
Q 14.9375 54.109375 19.578125 55.046875 
Q 24.21875 56 28.609375 56 
Q 40.484375 56 46.34375 49.84375 
Q 52.203125 43.703125 52.203125 31.203125 
z
" id="DejaVuSans-97"/>
      </defs>
      <use xlink:href="#DejaVuSans-65"/>
      <use x="66.658203" xlink:href="#DejaVuSans-100"/>
      <use x="130.134766" xlink:href="#DejaVuSans-97"/>
      <use x="191.414062" xlink:href="#DejaVuSans-109"/>
      <use x="288.826172" xlink:href="#DejaVuSans-32"/>
     </g>
    </g>
    <g id="line2d_44">
     <path d="M 63 179.234688 
L 83 179.234688 
" style="fill:none;stroke:#ee82ee;stroke-linecap:square;stroke-width:1.5;"/>
    </g>
    <g id="line2d_45"/>
    <g id="text_14">
     <!-- DIRECT -->
     <g transform="translate(91 182.734688)scale(0.1 -0.1)">
      <defs>
       <path d="M 19.671875 64.796875 
L 19.671875 8.109375 
L 31.59375 8.109375 
Q 46.6875 8.109375 53.6875 14.9375 
Q 60.6875 21.78125 60.6875 36.53125 
Q 60.6875 51.171875 53.6875 57.984375 
Q 46.6875 64.796875 31.59375 64.796875 
z
M 9.8125 72.90625 
L 30.078125 72.90625 
Q 51.265625 72.90625 61.171875 64.09375 
Q 71.09375 55.28125 71.09375 36.53125 
Q 71.09375 17.671875 61.125 8.828125 
Q 51.171875 0 30.078125 0 
L 9.8125 0 
z
" id="DejaVuSans-68"/>
       <path d="M 9.8125 72.90625 
L 19.671875 72.90625 
L 19.671875 0 
L 9.8125 0 
z
" id="DejaVuSans-73"/>
       <path d="M 44.390625 34.1875 
Q 47.5625 33.109375 50.5625 29.59375 
Q 53.5625 26.078125 56.59375 19.921875 
L 66.609375 0 
L 56 0 
L 46.6875 18.703125 
Q 43.0625 26.03125 39.671875 28.421875 
Q 36.28125 30.8125 30.421875 30.8125 
L 19.671875 30.8125 
L 19.671875 0 
L 9.8125 0 
L 9.8125 72.90625 
L 32.078125 72.90625 
Q 44.578125 72.90625 50.734375 67.671875 
Q 56.890625 62.453125 56.890625 51.90625 
Q 56.890625 45.015625 53.6875 40.46875 
Q 50.484375 35.9375 44.390625 34.1875 
z
M 19.671875 64.796875 
L 19.671875 38.921875 
L 32.078125 38.921875 
Q 39.203125 38.921875 42.84375 42.21875 
Q 46.484375 45.515625 46.484375 51.90625 
Q 46.484375 58.296875 42.84375 61.546875 
Q 39.203125 64.796875 32.078125 64.796875 
z
" id="DejaVuSans-82"/>
       <path d="M 9.8125 72.90625 
L 55.90625 72.90625 
L 55.90625 64.59375 
L 19.671875 64.59375 
L 19.671875 43.015625 
L 54.390625 43.015625 
L 54.390625 34.71875 
L 19.671875 34.71875 
L 19.671875 8.296875 
L 56.78125 8.296875 
L 56.78125 0 
L 9.8125 0 
z
" id="DejaVuSans-69"/>
       <path d="M 64.40625 67.28125 
L 64.40625 56.890625 
Q 59.421875 61.53125 53.78125 63.8125 
Q 48.140625 66.109375 41.796875 66.109375 
Q 29.296875 66.109375 22.65625 58.46875 
Q 16.015625 50.828125 16.015625 36.375 
Q 16.015625 21.96875 22.65625 14.328125 
Q 29.296875 6.6875 41.796875 6.6875 
Q 48.140625 6.6875 53.78125 8.984375 
Q 59.421875 11.28125 64.40625 15.921875 
L 64.40625 5.609375 
Q 59.234375 2.09375 53.4375 0.328125 
Q 47.65625 -1.421875 41.21875 -1.421875 
Q 24.65625 -1.421875 15.125 8.703125 
Q 5.609375 18.84375 5.609375 36.375 
Q 5.609375 53.953125 15.125 64.078125 
Q 24.65625 74.21875 41.21875 74.21875 
Q 47.75 74.21875 53.53125 72.484375 
Q 59.328125 70.75 64.40625 67.28125 
z
" id="DejaVuSans-67"/>
       <path d="M -0.296875 72.90625 
L 61.375 72.90625 
L 61.375 64.59375 
L 35.5 64.59375 
L 35.5 0 
L 25.59375 0 
L 25.59375 64.59375 
L -0.296875 64.59375 
z
" id="DejaVuSans-84"/>
      </defs>
      <use xlink:href="#DejaVuSans-68"/>
      <use x="77.001953" xlink:href="#DejaVuSans-73"/>
      <use x="106.494141" xlink:href="#DejaVuSans-82"/>
      <use x="175.976562" xlink:href="#DejaVuSans-69"/>
      <use x="239.160156" xlink:href="#DejaVuSans-67"/>
      <use x="308.984375" xlink:href="#DejaVuSans-84"/>
     </g>
    </g>
   </g>
  </g>
 </g>
 <defs>
  <clipPath id="pb19ce5a6d1">
   <rect height="217.44" width="334.8" x="54" y="34.56"/>
  </clipPath>
 </defs>
</svg>
