<?xml version="1.0" encoding="utf-8" standalone="no"?>
<!DOCTYPE svg PUBLIC "-//W3C//DTD SVG 1.1//EN"
  "http://www.w3.org/Graphics/SVG/1.1/DTD/svg11.dtd">
<!-- Created with matplotlib (https://matplotlib.org/) -->
<svg height="288pt" version="1.1" viewBox="0 0 432 288" width="432pt" xmlns="http://www.w3.org/2000/svg" xmlns:xlink="http://www.w3.org/1999/xlink">
 <metadata>
  <rdf:RDF xmlns:cc="http://creativecommons.org/ns#" xmlns:dc="http://purl.org/dc/elements/1.1/" xmlns:rdf="http://www.w3.org/1999/02/22-rdf-syntax-ns#">
   <cc:Work>
    <dc:type rdf:resource="http://purl.org/dc/dcmitype/StillImage"/>
    <dc:date>2021-04-09T13:13:44.939053</dc:date>
    <dc:format>image/svg+xml</dc:format>
    <dc:creator>
     <cc:Agent>
      <dc:title>Matplotlib v3.3.4, https://matplotlib.org/</dc:title>
     </cc:Agent>
    </dc:creator>
   </cc:Work>
  </rdf:RDF>
 </metadata>
 <defs>
  <style type="text/css">*{stroke-linecap:butt;stroke-linejoin:round;}</style>
 </defs>
 <g id="figure_1">
  <g id="patch_1">
   <path d="M 0 288 
L 432 288 
L 432 0 
L 0 0 
z
" style="fill:#ffffff;"/>
  </g>
  <g id="axes_1">
   <g id="patch_2">
    <path d="M 54 252 
L 388.8 252 
L 388.8 34.56 
L 54 34.56 
z
" style="fill:#ffffff;"/>
   </g>
   <g id="PolyCollection_1">
    <defs>
     <path d="M 57.381818 -127.458155 
L 57.381818 -117.714672 
L 60.763636 -117.714672 
L 64.145455 -117.714672 
L 67.527273 -117.714672 
L 70.909091 -117.714672 
L 74.290909 -117.714672 
L 77.672727 -117.714672 
L 81.054545 -117.714672 
L 84.436364 -117.714672 
L 87.818182 -117.714672 
L 91.2 -117.714672 
L 94.581818 -117.714672 
L 97.963636 -117.714672 
L 101.345455 -117.714672 
L 104.727273 -117.714672 
L 108.109091 -117.714672 
L 111.490909 -58.298905 
L 114.872727 -58.298905 
L 118.254545 -58.298905 
L 121.636364 -58.298905 
L 125.018182 -58.298905 
L 128.4 -58.298905 
L 131.781818 -58.298905 
L 135.163636 -58.298905 
L 138.545455 -58.298905 
L 141.927273 -58.298905 
L 145.309091 -58.298905 
L 148.690909 -58.298905 
L 152.072727 -58.298905 
L 155.454545 -56.556675 
L 158.836364 -56.556675 
L 162.218182 -56.556675 
L 165.6 -56.556675 
L 168.981818 -56.556675 
L 172.363636 -56.556675 
L 175.745455 -56.556675 
L 179.127273 -56.556675 
L 182.509091 -56.556675 
L 185.890909 -56.556675 
L 189.272727 -56.556675 
L 192.654545 -56.556675 
L 196.036364 -56.556675 
L 199.418182 -52.80912 
L 202.8 -52.80912 
L 206.181818 -52.80912 
L 209.563636 -52.80912 
L 212.945455 -52.80912 
L 216.327273 -52.80912 
L 219.709091 -52.80912 
L 223.090909 -52.062047 
L 226.472727 -52.062047 
L 229.854545 -52.062047 
L 233.236364 -52.062047 
L 236.618182 -52.062047 
L 240 -52.062047 
L 243.381818 -52.062047 
L 246.763636 -52.062047 
L 250.145455 -52.062047 
L 253.527273 -52.062047 
L 256.909091 -52.062047 
L 260.290909 -52.062047 
L 263.672727 -52.062047 
L 267.054545 -50.662843 
L 270.436364 -50.662843 
L 273.818182 -50.662843 
L 277.2 -50.662843 
L 280.581818 -50.662843 
L 283.963636 -50.662843 
L 287.345455 -50.662843 
L 290.727273 -50.662843 
L 294.109091 -50.662843 
L 297.490909 -50.662843 
L 300.872727 -50.662843 
L 304.254545 -50.662843 
L 307.636364 -50.662843 
L 311.018182 -50.662843 
L 314.4 -50.662843 
L 317.781818 -50.662843 
L 321.163636 -50.662843 
L 324.545455 -50.662843 
L 327.927273 -50.662843 
L 331.309091 -50.662843 
L 334.690909 -50.662843 
L 338.072727 -50.662843 
L 341.454545 -50.662843 
L 344.836364 -50.662843 
L 348.218182 -50.662843 
L 351.6 -50.662843 
L 354.981818 -50.662843 
L 358.363636 -50.662843 
L 361.745455 -50.373718 
L 365.127273 -50.373718 
L 368.509091 -50.373718 
L 371.890909 -50.373718 
L 375.272727 -50.373718 
L 378.654545 -50.373718 
L 382.036364 -50.373718 
L 385.418182 -50.373718 
L 388.8 -50.373718 
L 392.181818 -50.373718 
L 392.181818 -63.391486 
L 392.181818 -63.391486 
L 388.8 -63.391486 
L 385.418182 -63.391486 
L 382.036364 -63.391486 
L 378.654545 -63.391486 
L 375.272727 -63.391486 
L 371.890909 -63.391486 
L 368.509091 -63.391486 
L 365.127273 -63.391486 
L 361.745455 -63.391486 
L 358.363636 -63.391486 
L 354.981818 -63.391486 
L 351.6 -63.391486 
L 348.218182 -63.391486 
L 344.836364 -63.391486 
L 341.454545 -63.391486 
L 338.072727 -63.391486 
L 334.690909 -63.391486 
L 331.309091 -63.391486 
L 327.927273 -63.391486 
L 324.545455 -63.391486 
L 321.163636 -63.391486 
L 317.781818 -63.391486 
L 314.4 -63.391486 
L 311.018182 -63.391486 
L 307.636364 -63.391486 
L 304.254545 -63.391486 
L 300.872727 -63.391486 
L 297.490909 -63.391486 
L 294.109091 -63.391486 
L 290.727273 -63.391486 
L 287.345455 -63.391486 
L 283.963636 -63.391486 
L 280.581818 -63.391486 
L 277.2 -63.391486 
L 273.818182 -63.391486 
L 270.436364 -63.391486 
L 267.054545 -63.391486 
L 263.672727 -63.391486 
L 260.290909 -63.391486 
L 256.909091 -63.770101 
L 253.527273 -63.770101 
L 250.145455 -63.770101 
L 246.763636 -63.770101 
L 243.381818 -63.770101 
L 240 -63.770101 
L 236.618182 -63.770101 
L 233.236364 -63.770101 
L 229.854545 -63.770101 
L 226.472727 -63.770101 
L 223.090909 -63.770101 
L 219.709091 -63.770101 
L 216.327273 -63.770101 
L 212.945455 -63.770101 
L 209.563636 -68.334127 
L 206.181818 -68.334127 
L 202.8 -68.334127 
L 199.418182 -68.334127 
L 196.036364 -68.996253 
L 192.654545 -68.996253 
L 189.272727 -68.996253 
L 185.890909 -68.996253 
L 182.509091 -68.996253 
L 179.127273 -68.996253 
L 175.745455 -76.176729 
L 172.363636 -76.176729 
L 168.981818 -76.176729 
L 165.6 -76.176729 
L 162.218182 -76.176729 
L 158.836364 -76.176729 
L 155.454545 -76.176729 
L 152.072727 -77.4131 
L 148.690909 -77.4131 
L 145.309091 -77.4131 
L 141.927273 -77.4131 
L 138.545455 -77.4131 
L 135.163636 -77.4131 
L 131.781818 -77.4131 
L 128.4 -77.4131 
L 125.018182 -77.4131 
L 121.636364 -77.4131 
L 118.254545 -77.4131 
L 114.872727 -77.4131 
L 111.490909 -77.4131 
L 108.109091 -127.458155 
L 104.727273 -127.458155 
L 101.345455 -127.458155 
L 97.963636 -127.458155 
L 94.581818 -127.458155 
L 91.2 -127.458155 
L 87.818182 -127.458155 
L 84.436364 -127.458155 
L 81.054545 -127.458155 
L 77.672727 -127.458155 
L 74.290909 -127.458155 
L 70.909091 -127.458155 
L 67.527273 -127.458155 
L 64.145455 -127.458155 
L 60.763636 -127.458155 
L 57.381818 -127.458155 
z
" id="m0bd33f58fc" style="stroke:#0000ff;stroke-opacity:0.5;"/>
    </defs>
    <g clip-path="url(#pa903533015)">
     <use style="fill:#0000ff;fill-opacity:0.5;stroke:#0000ff;stroke-opacity:0.5;" x="0" xlink:href="#m0bd33f58fc" y="288"/>
    </g>
   </g>
   <g id="PolyCollection_2">
    <defs>
     <path d="M 57.381818 -127.458155 
L 57.381818 -117.714672 
L 60.763636 -117.714672 
L 64.145455 -117.714672 
L 67.527273 -117.714672 
L 70.909091 -117.714672 
L 74.290909 -117.714672 
L 77.672727 -117.714672 
L 81.054545 -52.184392 
L 84.436364 -52.184392 
L 87.818182 -52.184392 
L 91.2 -52.184392 
L 94.581818 -52.184392 
L 97.963636 -52.184392 
L 101.345455 -52.184392 
L 104.727273 -52.184392 
L 108.109091 -52.184392 
L 111.490909 -52.184392 
L 114.872727 -52.184392 
L 118.254545 -52.184392 
L 121.636364 -52.184392 
L 125.018182 -52.184392 
L 128.4 -52.184392 
L 131.781818 -52.184392 
L 135.163636 -52.184392 
L 138.545455 -52.184392 
L 141.927273 -52.184392 
L 145.309091 -52.184392 
L 148.690909 -52.184392 
L 152.072727 -52.184392 
L 155.454545 -52.184392 
L 158.836364 -51.265107 
L 162.218182 -51.265107 
L 165.6 -49.21446 
L 168.981818 -49.21446 
L 172.363636 -49.21446 
L 175.745455 -49.21446 
L 179.127273 -49.21446 
L 182.509091 -49.21446 
L 185.890909 -49.21446 
L 189.272727 -49.21446 
L 192.654545 -49.21446 
L 196.036364 -49.21446 
L 199.418182 -49.21446 
L 202.8 -49.21446 
L 206.181818 -49.21446 
L 209.563636 -49.21446 
L 212.945455 -49.21446 
L 216.327273 -49.21446 
L 219.709091 -49.21446 
L 223.090909 -49.21446 
L 226.472727 -49.21446 
L 229.854545 -49.21446 
L 233.236364 -49.21446 
L 236.618182 -47.814205 
L 240 -47.814205 
L 243.381818 -47.814205 
L 246.763636 -47.814205 
L 250.145455 -47.814205 
L 253.527273 -47.814205 
L 256.909091 -47.814205 
L 260.290909 -47.814205 
L 263.672727 -47.814205 
L 267.054545 -47.814205 
L 270.436364 -47.814205 
L 273.818182 -47.814205 
L 277.2 -47.814205 
L 280.581818 -47.814205 
L 283.963636 -47.814205 
L 287.345455 -47.814205 
L 290.727273 -47.814205 
L 294.109091 -47.814205 
L 297.490909 -47.814205 
L 300.872727 -47.814205 
L 304.254545 -47.814205 
L 307.636364 -47.814205 
L 311.018182 -47.814205 
L 314.4 -47.814205 
L 317.781818 -47.814205 
L 321.163636 -47.814205 
L 324.545455 -47.814205 
L 327.927273 -47.814205 
L 331.309091 -47.814205 
L 334.690909 -47.814205 
L 338.072727 -45.883636 
L 341.454545 -45.883636 
L 344.836364 -45.883636 
L 348.218182 -45.883636 
L 351.6 -45.883636 
L 354.981818 -45.883636 
L 358.363636 -45.883636 
L 361.745455 -45.883636 
L 365.127273 -45.883636 
L 368.509091 -45.883636 
L 371.890909 -45.883636 
L 375.272727 -45.883636 
L 378.654545 -45.883636 
L 382.036364 -45.883636 
L 385.418182 -45.883636 
L 388.8 -45.883636 
L 392.181818 -45.883636 
L 392.181818 -59.665495 
L 392.181818 -59.665495 
L 388.8 -61.083788 
L 385.418182 -61.083788 
L 382.036364 -61.083788 
L 378.654545 -61.083788 
L 375.272727 -61.083788 
L 371.890909 -61.083788 
L 368.509091 -61.083788 
L 365.127273 -61.083788 
L 361.745455 -61.083788 
L 358.363636 -61.083788 
L 354.981818 -61.083788 
L 351.6 -61.083788 
L 348.218182 -61.083788 
L 344.836364 -61.083788 
L 341.454545 -61.083788 
L 338.072727 -61.083788 
L 334.690909 -61.083788 
L 331.309091 -61.083788 
L 327.927273 -61.083788 
L 324.545455 -61.083788 
L 321.163636 -61.083788 
L 317.781818 -61.083788 
L 314.4 -61.083788 
L 311.018182 -61.083788 
L 307.636364 -61.083788 
L 304.254545 -61.083788 
L 300.872727 -61.083788 
L 297.490909 -61.083788 
L 294.109091 -61.083788 
L 290.727273 -61.083788 
L 287.345455 -61.083788 
L 283.963636 -61.083788 
L 280.581818 -61.083788 
L 277.2 -61.083788 
L 273.818182 -61.083788 
L 270.436364 -61.083788 
L 267.054545 -61.083788 
L 263.672727 -61.083788 
L 260.290909 -61.083788 
L 256.909091 -61.083788 
L 253.527273 -61.083788 
L 250.145455 -61.083788 
L 246.763636 -61.083788 
L 243.381818 -61.083788 
L 240 -61.083788 
L 236.618182 -61.083788 
L 233.236364 -61.083788 
L 229.854545 -61.083788 
L 226.472727 -61.083788 
L 223.090909 -61.083788 
L 219.709091 -61.660795 
L 216.327273 -61.660795 
L 212.945455 -61.660795 
L 209.563636 -61.660795 
L 206.181818 -61.660795 
L 202.8 -61.660795 
L 199.418182 -61.660795 
L 196.036364 -61.660795 
L 192.654545 -61.660795 
L 189.272727 -61.660795 
L 185.890909 -61.660795 
L 182.509091 -61.660795 
L 179.127273 -62.974485 
L 175.745455 -62.974485 
L 172.363636 -62.974485 
L 168.981818 -62.974485 
L 165.6 -65.541182 
L 162.218182 -65.541182 
L 158.836364 -65.541182 
L 155.454545 -65.541182 
L 152.072727 -65.541182 
L 148.690909 -65.541182 
L 145.309091 -67.050557 
L 141.927273 -75.518769 
L 138.545455 -75.518769 
L 135.163636 -75.518769 
L 131.781818 -75.518769 
L 128.4 -75.518769 
L 125.018182 -75.688874 
L 121.636364 -75.688874 
L 118.254545 -75.921714 
L 114.872727 -75.921714 
L 111.490909 -75.921714 
L 108.109091 -85.000568 
L 104.727273 -85.000568 
L 101.345455 -85.000568 
L 97.963636 -85.000568 
L 94.581818 -85.000568 
L 91.2 -92.280684 
L 87.818182 -92.280684 
L 84.436364 -92.280684 
L 81.054545 -92.280684 
L 77.672727 -127.458155 
L 74.290909 -127.458155 
L 70.909091 -127.458155 
L 67.527273 -127.458155 
L 64.145455 -127.458155 
L 60.763636 -127.458155 
L 57.381818 -127.458155 
z
" id="m8d73bd23cd" style="stroke:#00bfbf;stroke-opacity:0.5;"/>
    </defs>
    <g clip-path="url(#pa903533015)">
     <use style="fill:#00bfbf;fill-opacity:0.5;stroke:#00bfbf;stroke-opacity:0.5;" x="0" xlink:href="#m8d73bd23cd" y="288"/>
    </g>
   </g>
   <g id="PolyCollection_3">
    <defs>
     <path d="M 60.763636 -127.369308 
L 60.763636 -118.412455 
L 64.145455 -114.612098 
L 67.527273 -114.166979 
L 70.909091 -110.189854 
L 74.290909 -110.189854 
L 77.672727 -110.189854 
L 81.054545 -110.189854 
L 84.436364 -110.189854 
L 87.818182 -110.189854 
L 91.2 -108.586665 
L 94.581818 -107.864059 
L 97.963636 -107.864059 
L 101.345455 -101.663287 
L 104.727273 -101.663287 
L 108.109091 -101.663287 
L 111.490909 -101.663287 
L 114.872727 -101.663287 
L 118.254545 -101.663287 
L 121.636364 -101.663287 
L 125.018182 -101.663287 
L 128.4 -101.663287 
L 131.781818 -101.663287 
L 135.163636 -101.663287 
L 138.545455 -101.663287 
L 141.927273 -101.663287 
L 145.309091 -101.663287 
L 148.690909 -101.663287 
L 152.072727 -101.663287 
L 155.454545 -100.966201 
L 158.836364 -100.966201 
L 162.218182 -100.966201 
L 165.6 -100.966201 
L 168.981818 -100.966201 
L 172.363636 -100.966201 
L 175.745455 -100.966201 
L 179.127273 -100.966201 
L 182.509091 -100.966201 
L 185.890909 -100.966201 
L 189.272727 -100.966201 
L 192.654545 -100.966201 
L 196.036364 -100.966201 
L 199.418182 -100.966201 
L 202.8 -100.966201 
L 206.181818 -100.966201 
L 209.563636 -100.966201 
L 212.945455 -100.966201 
L 216.327273 -100.966201 
L 219.709091 -100.966201 
L 223.090909 -100.966201 
L 226.472727 -100.966201 
L 229.854545 -100.966201 
L 233.236364 -100.966201 
L 236.618182 -100.966201 
L 240 -100.966201 
L 243.381818 -100.966201 
L 246.763636 -100.966201 
L 250.145455 -100.966201 
L 253.527273 -100.966201 
L 256.909091 -100.966201 
L 260.290909 -100.966201 
L 263.672727 -100.966201 
L 267.054545 -100.966201 
L 270.436364 -100.966201 
L 273.818182 -100.966201 
L 277.2 -100.966201 
L 280.581818 -100.966201 
L 283.963636 -100.966201 
L 287.345455 -100.966201 
L 290.727273 -100.966201 
L 294.109091 -100.966201 
L 297.490909 -100.966201 
L 300.872727 -100.966201 
L 304.254545 -100.966201 
L 307.636364 -100.966201 
L 311.018182 -100.966201 
L 314.4 -100.966201 
L 317.781818 -100.966201 
L 321.163636 -100.966201 
L 324.545455 -100.966201 
L 327.927273 -100.966201 
L 331.309091 -100.966201 
L 334.690909 -100.966201 
L 338.072727 -100.966201 
L 341.454545 -100.789316 
L 344.836364 -100.789316 
L 348.218182 -100.789316 
L 351.6 -100.789316 
L 354.981818 -100.789316 
L 358.363636 -100.789316 
L 361.745455 -100.789316 
L 365.127273 -100.789316 
L 368.509091 -100.789316 
L 371.890909 -100.789316 
L 375.272727 -100.789316 
L 378.654545 -100.789316 
L 382.036364 -100.789316 
L 385.418182 -100.789316 
L 388.8 -100.789316 
L 392.181818 -100.789316 
L 392.181818 -110.189854 
L 392.181818 -110.189854 
L 388.8 -110.189854 
L 385.418182 -110.189854 
L 382.036364 -110.189854 
L 378.654545 -111.810641 
L 375.272727 -111.810641 
L 371.890909 -111.810641 
L 368.509091 -111.810641 
L 365.127273 -111.810641 
L 361.745455 -111.810641 
L 358.363636 -111.810641 
L 354.981818 -111.810641 
L 351.6 -111.810641 
L 348.218182 -111.810641 
L 344.836364 -111.810641 
L 341.454545 -111.810641 
L 338.072727 -111.810641 
L 334.690909 -111.810641 
L 331.309091 -111.810641 
L 327.927273 -111.810641 
L 324.545455 -111.810641 
L 321.163636 -111.810641 
L 317.781818 -111.810641 
L 314.4 -111.810641 
L 311.018182 -111.810641 
L 307.636364 -111.810641 
L 304.254545 -111.810641 
L 300.872727 -113.339421 
L 297.490909 -113.339421 
L 294.109091 -113.967564 
L 290.727273 -113.967564 
L 287.345455 -113.967564 
L 283.963636 -113.967564 
L 280.581818 -113.967564 
L 277.2 -113.967564 
L 273.818182 -113.967564 
L 270.436364 -113.967564 
L 267.054545 -117.033399 
L 263.672727 -117.033399 
L 260.290909 -117.092152 
L 256.909091 -117.092152 
L 253.527273 -117.092152 
L 250.145455 -117.092152 
L 246.763636 -117.092152 
L 243.381818 -117.092152 
L 240 -117.092152 
L 236.618182 -117.092152 
L 233.236364 -117.092152 
L 229.854545 -117.092152 
L 226.472727 -117.092152 
L 223.090909 -117.092152 
L 219.709091 -117.092152 
L 216.327273 -117.092152 
L 212.945455 -117.092152 
L 209.563636 -117.092152 
L 206.181818 -117.092152 
L 202.8 -117.092152 
L 199.418182 -117.092152 
L 196.036364 -117.092152 
L 192.654545 -117.092152 
L 189.272727 -117.092152 
L 185.890909 -117.092152 
L 182.509091 -117.092152 
L 179.127273 -117.092152 
L 175.745455 -117.092152 
L 172.363636 -117.092152 
L 168.981818 -117.092152 
L 165.6 -117.092152 
L 162.218182 -117.092152 
L 158.836364 -117.092152 
L 155.454545 -117.092152 
L 152.072727 -117.092152 
L 148.690909 -117.092152 
L 145.309091 -117.092152 
L 141.927273 -117.092152 
L 138.545455 -117.092152 
L 135.163636 -117.092152 
L 131.781818 -117.092152 
L 128.4 -117.092152 
L 125.018182 -117.092152 
L 121.636364 -117.092152 
L 118.254545 -117.092152 
L 114.872727 -117.092152 
L 111.490909 -117.092152 
L 108.109091 -117.092152 
L 104.727273 -117.092152 
L 101.345455 -117.092152 
L 97.963636 -117.092152 
L 94.581818 -117.092152 
L 91.2 -117.092152 
L 87.818182 -117.838328 
L 84.436364 -117.838328 
L 81.054545 -117.838328 
L 77.672727 -117.838328 
L 74.290909 -117.838328 
L 70.909091 -117.838328 
L 67.527273 -119.026523 
L 64.145455 -123.840649 
L 60.763636 -127.369308 
z
" id="mee1d0dea0e" style="stroke:#008000;stroke-opacity:0.5;"/>
    </defs>
    <g clip-path="url(#pa903533015)">
     <use style="fill:#008000;fill-opacity:0.5;stroke:#008000;stroke-opacity:0.5;" x="0" xlink:href="#mee1d0dea0e" y="288"/>
    </g>
   </g>
   <g id="PolyCollection_4">
    <defs>
     <path d="M 60.763636 -124.561586 
L 60.763636 -116.509646 
L 64.145455 -61.32084 
L 67.527273 -55.869689 
L 70.909091 -55.869689 
L 74.290909 -55.869689 
L 77.672727 -55.869689 
L 81.054545 -55.869689 
L 84.436364 -55.869689 
L 87.818182 -55.869689 
L 91.2 -55.869689 
L 94.581818 -55.869689 
L 97.963636 -55.869689 
L 101.345455 -55.869689 
L 104.727273 -55.869689 
L 108.109091 -55.869689 
L 111.490909 -55.869689 
L 114.872727 -55.869689 
L 118.254545 -55.869689 
L 121.636364 -55.869689 
L 125.018182 -53.584168 
L 128.4 -51.960843 
L 131.781818 -50.437349 
L 135.163636 -50.437349 
L 138.545455 -50.437349 
L 141.927273 -50.437349 
L 145.309091 -50.437349 
L 148.690909 -50.437349 
L 152.072727 -50.437349 
L 155.454545 -50.437349 
L 158.836364 -50.437349 
L 162.218182 -50.437349 
L 165.6 -50.437349 
L 168.981818 -50.437349 
L 172.363636 -50.437349 
L 175.745455 -50.437349 
L 179.127273 -50.437349 
L 182.509091 -50.437349 
L 185.890909 -50.437349 
L 189.272727 -50.437349 
L 192.654545 -50.437349 
L 196.036364 -50.437349 
L 199.418182 -50.437349 
L 202.8 -50.437349 
L 206.181818 -50.437349 
L 209.563636 -50.437349 
L 212.945455 -50.437349 
L 216.327273 -50.437349 
L 219.709091 -50.437349 
L 223.090909 -50.437349 
L 226.472727 -50.437349 
L 229.854545 -50.437349 
L 233.236364 -50.437349 
L 236.618182 -50.437349 
L 240 -50.437349 
L 243.381818 -50.437349 
L 246.763636 -50.437349 
L 250.145455 -50.437349 
L 253.527273 -50.437349 
L 256.909091 -50.437349 
L 260.290909 -50.437349 
L 263.672727 -50.437349 
L 267.054545 -50.437349 
L 270.436364 -50.437349 
L 273.818182 -50.437349 
L 277.2 -50.437349 
L 280.581818 -50.437349 
L 283.963636 -50.437349 
L 287.345455 -50.437349 
L 290.727273 -50.437349 
L 294.109091 -50.437349 
L 297.490909 -50.437349 
L 300.872727 -50.437349 
L 304.254545 -50.437349 
L 307.636364 -50.437349 
L 311.018182 -50.437349 
L 314.4 -50.437349 
L 317.781818 -50.437349 
L 321.163636 -50.437349 
L 324.545455 -50.437349 
L 327.927273 -50.437349 
L 331.309091 -50.437349 
L 334.690909 -50.437349 
L 338.072727 -50.437349 
L 341.454545 -50.437349 
L 344.836364 -50.437349 
L 348.218182 -50.437349 
L 351.6 -50.437349 
L 354.981818 -50.437349 
L 358.363636 -50.437349 
L 361.745455 -50.437349 
L 365.127273 -50.437349 
L 368.509091 -50.437349 
L 371.890909 -50.437349 
L 375.272727 -50.437349 
L 378.654545 -50.437349 
L 382.036364 -50.437349 
L 385.418182 -50.437349 
L 388.8 -50.437349 
L 392.181818 -50.437349 
L 392.181818 -60.536016 
L 392.181818 -60.536016 
L 388.8 -60.536016 
L 385.418182 -60.536016 
L 382.036364 -60.536016 
L 378.654545 -60.536016 
L 375.272727 -60.536016 
L 371.890909 -61.40697 
L 368.509091 -61.40697 
L 365.127273 -61.40697 
L 361.745455 -61.40697 
L 358.363636 -61.40697 
L 354.981818 -61.40697 
L 351.6 -61.40697 
L 348.218182 -61.40697 
L 344.836364 -61.40697 
L 341.454545 -61.40697 
L 338.072727 -61.40697 
L 334.690909 -61.40697 
L 331.309091 -61.40697 
L 327.927273 -61.40697 
L 324.545455 -61.40697 
L 321.163636 -61.40697 
L 317.781818 -61.40697 
L 314.4 -61.40697 
L 311.018182 -61.40697 
L 307.636364 -61.40697 
L 304.254545 -61.40697 
L 300.872727 -61.40697 
L 297.490909 -61.40697 
L 294.109091 -61.40697 
L 290.727273 -61.40697 
L 287.345455 -61.40697 
L 283.963636 -61.40697 
L 280.581818 -61.40697 
L 277.2 -61.40697 
L 273.818182 -61.40697 
L 270.436364 -61.40697 
L 267.054545 -61.40697 
L 263.672727 -61.40697 
L 260.290909 -61.40697 
L 256.909091 -61.40697 
L 253.527273 -61.40697 
L 250.145455 -61.40697 
L 246.763636 -61.40697 
L 243.381818 -61.40697 
L 240 -61.40697 
L 236.618182 -61.40697 
L 233.236364 -61.40697 
L 229.854545 -61.40697 
L 226.472727 -61.40697 
L 223.090909 -61.40697 
L 219.709091 -61.40697 
L 216.327273 -61.40697 
L 212.945455 -61.40697 
L 209.563636 -61.40697 
L 206.181818 -61.40697 
L 202.8 -61.40697 
L 199.418182 -61.40697 
L 196.036364 -61.40697 
L 192.654545 -61.40697 
L 189.272727 -61.40697 
L 185.890909 -61.40697 
L 182.509091 -61.40697 
L 179.127273 -61.40697 
L 175.745455 -61.40697 
L 172.363636 -61.40697 
L 168.981818 -61.40697 
L 165.6 -61.40697 
L 162.218182 -61.40697 
L 158.836364 -61.40697 
L 155.454545 -61.40697 
L 152.072727 -61.40697 
L 148.690909 -61.40697 
L 145.309091 -61.40697 
L 141.927273 -61.40697 
L 138.545455 -61.40697 
L 135.163636 -61.40697 
L 131.781818 -63.870107 
L 128.4 -66.266246 
L 125.018182 -69.646662 
L 121.636364 -69.646662 
L 118.254545 -69.646662 
L 114.872727 -69.646662 
L 111.490909 -69.646662 
L 108.109091 -69.646662 
L 104.727273 -69.646662 
L 101.345455 -69.646662 
L 97.963636 -69.646662 
L 94.581818 -69.646662 
L 91.2 -69.646662 
L 87.818182 -69.646662 
L 84.436364 -69.646662 
L 81.054545 -69.646662 
L 77.672727 -84.300834 
L 74.290909 -84.300834 
L 70.909091 -86.791978 
L 67.527273 -124.561586 
L 64.145455 -124.561586 
L 60.763636 -124.561586 
z
" id="mb3f366df08" style="stroke:#ffa500;stroke-opacity:0.5;"/>
    </defs>
    <g clip-path="url(#pa903533015)">
     <use style="fill:#ffa500;fill-opacity:0.5;stroke:#ffa500;stroke-opacity:0.5;" x="0" xlink:href="#mb3f366df08" y="288"/>
    </g>
   </g>
   <g id="PolyCollection_5">
    <defs>
     <path d="M 57.381818 -243.556364 
L 57.381818 -119.407957 
L 60.763636 -119.407957 
L 64.145455 -99.348553 
L 67.527273 -79.188332 
L 70.909091 -50.259603 
L 74.290909 -50.259603 
L 77.672727 -50.259603 
L 81.054545 -50.259603 
L 84.436364 -50.259603 
L 87.818182 -50.259603 
L 91.2 -50.259603 
L 94.581818 -50.259603 
L 97.963636 -50.259603 
L 101.345455 -50.259603 
L 104.727273 -50.259603 
L 108.109091 -50.259603 
L 111.490909 -50.259603 
L 114.872727 -50.259603 
L 118.254545 -50.259603 
L 121.636364 -50.259603 
L 125.018182 -50.259603 
L 128.4 -50.259603 
L 131.781818 -50.259603 
L 135.163636 -50.259603 
L 138.545455 -50.259603 
L 141.927273 -50.259603 
L 145.309091 -50.259603 
L 148.690909 -50.259603 
L 152.072727 -50.259603 
L 155.454545 -50.259603 
L 158.836364 -50.259603 
L 162.218182 -50.259603 
L 165.6 -50.259603 
L 168.981818 -50.259603 
L 172.363636 -50.259603 
L 175.745455 -50.259603 
L 179.127273 -50.259603 
L 182.509091 -50.259603 
L 185.890909 -50.259603 
L 189.272727 -50.259603 
L 192.654545 -50.259603 
L 196.036364 -50.259603 
L 199.418182 -50.259603 
L 202.8 -50.259603 
L 206.181818 -50.259603 
L 209.563636 -50.259603 
L 212.945455 -50.259603 
L 216.327273 -50.259603 
L 219.709091 -50.259603 
L 223.090909 -50.259603 
L 226.472727 -50.259603 
L 229.854545 -50.259603 
L 233.236364 -50.259603 
L 236.618182 -50.259603 
L 240 -50.259603 
L 243.381818 -50.259603 
L 246.763636 -50.259603 
L 250.145455 -50.259603 
L 253.527273 -50.259603 
L 256.909091 -50.259603 
L 260.290909 -50.259603 
L 263.672727 -50.259603 
L 267.054545 -50.259603 
L 270.436364 -50.259603 
L 273.818182 -50.259603 
L 277.2 -50.259603 
L 280.581818 -50.259603 
L 283.963636 -50.259603 
L 287.345455 -50.259603 
L 290.727273 -50.259603 
L 294.109091 -50.259603 
L 297.490909 -50.259603 
L 300.872727 -50.259603 
L 304.254545 -50.259603 
L 307.636364 -50.259603 
L 311.018182 -50.259603 
L 314.4 -50.259603 
L 317.781818 -50.259603 
L 321.163636 -50.259603 
L 324.545455 -50.259603 
L 327.927273 -50.259603 
L 331.309091 -50.259603 
L 334.690909 -50.259603 
L 338.072727 -50.259603 
L 341.454545 -50.259603 
L 344.836364 -50.259603 
L 348.218182 -50.259603 
L 351.6 -50.259603 
L 354.981818 -50.259603 
L 358.363636 -50.259603 
L 361.745455 -50.259603 
L 365.127273 -50.259603 
L 368.509091 -50.259603 
L 371.890909 -50.259603 
L 375.272727 -50.259603 
L 378.654545 -50.259603 
L 382.036364 -50.259603 
L 385.418182 -50.259603 
L 388.8 -50.259603 
L 392.181818 -50.259603 
L 392.181818 -70.562887 
L 392.181818 -70.562887 
L 388.8 -70.562887 
L 385.418182 -70.562887 
L 382.036364 -70.562887 
L 378.654545 -70.562887 
L 375.272727 -70.562887 
L 371.890909 -70.562887 
L 368.509091 -70.562887 
L 365.127273 -70.562887 
L 361.745455 -70.562887 
L 358.363636 -70.562887 
L 354.981818 -70.562887 
L 351.6 -70.562887 
L 348.218182 -70.562887 
L 344.836364 -70.562887 
L 341.454545 -70.562887 
L 338.072727 -70.562887 
L 334.690909 -70.562887 
L 331.309091 -70.562887 
L 327.927273 -70.562887 
L 324.545455 -70.562887 
L 321.163636 -70.562887 
L 317.781818 -70.562887 
L 314.4 -70.562887 
L 311.018182 -70.562887 
L 307.636364 -70.562887 
L 304.254545 -70.562887 
L 300.872727 -70.562887 
L 297.490909 -70.562887 
L 294.109091 -70.562887 
L 290.727273 -70.562887 
L 287.345455 -70.562887 
L 283.963636 -70.562887 
L 280.581818 -70.562887 
L 277.2 -70.562887 
L 273.818182 -70.562887 
L 270.436364 -70.562887 
L 267.054545 -70.562887 
L 263.672727 -70.562887 
L 260.290909 -70.562887 
L 256.909091 -70.562887 
L 253.527273 -70.562887 
L 250.145455 -70.562887 
L 246.763636 -70.562887 
L 243.381818 -70.562887 
L 240 -70.562887 
L 236.618182 -70.562887 
L 233.236364 -70.562887 
L 229.854545 -70.562887 
L 226.472727 -70.562887 
L 223.090909 -70.562887 
L 219.709091 -70.562887 
L 216.327273 -70.562887 
L 212.945455 -70.562887 
L 209.563636 -70.562887 
L 206.181818 -70.562887 
L 202.8 -70.562887 
L 199.418182 -70.562887 
L 196.036364 -70.562887 
L 192.654545 -70.562887 
L 189.272727 -70.562887 
L 185.890909 -70.562887 
L 182.509091 -70.562887 
L 179.127273 -70.562887 
L 175.745455 -70.562887 
L 172.363636 -70.562887 
L 168.981818 -70.562887 
L 165.6 -70.562887 
L 162.218182 -70.562887 
L 158.836364 -70.562887 
L 155.454545 -70.562887 
L 152.072727 -70.562887 
L 148.690909 -70.562887 
L 145.309091 -70.562887 
L 141.927273 -70.562887 
L 138.545455 -70.562887 
L 135.163636 -70.562887 
L 131.781818 -70.562887 
L 128.4 -90.594163 
L 125.018182 -90.594163 
L 121.636364 -90.594163 
L 118.254545 -90.594163 
L 114.872727 -90.594163 
L 111.490909 -90.594163 
L 108.109091 -90.594163 
L 104.727273 -105.828299 
L 101.345455 -105.828299 
L 97.963636 -117.80397 
L 94.581818 -117.80397 
L 91.2 -122.227364 
L 87.818182 -122.227364 
L 84.436364 -122.227364 
L 81.054545 -122.227364 
L 77.672727 -122.227364 
L 74.290909 -129.962682 
L 70.909091 -243.556364 
L 67.527273 -243.556364 
L 64.145455 -243.556364 
L 60.763636 -243.556364 
L 57.381818 -243.556364 
z
" id="mce850346b0" style="stroke:#ff0000;stroke-opacity:0.5;"/>
    </defs>
    <g clip-path="url(#pa903533015)">
     <use style="fill:#ff0000;fill-opacity:0.5;stroke:#ff0000;stroke-opacity:0.5;" x="0" xlink:href="#mce850346b0" y="288"/>
    </g>
   </g>
   <g id="matplotlib.axis_1">
    <g id="xtick_1">
     <g id="line2d_1">
      <defs>
       <path d="M 0 0 
L 0 3.5 
" id="m2ca62a08fb" style="stroke:#000000;stroke-width:0.8;"/>
      </defs>
      <g>
       <use style="stroke:#000000;stroke-width:0.8;" x="54" xlink:href="#m2ca62a08fb" y="252"/>
      </g>
     </g>
     <g id="text_1">
      <!-- 0 -->
      <g transform="translate(50.81875 266.598437)scale(0.1 -0.1)">
       <defs>
        <path d="M 31.78125 66.40625 
Q 24.171875 66.40625 20.328125 58.90625 
Q 16.5 51.421875 16.5 36.375 
Q 16.5 21.390625 20.328125 13.890625 
Q 24.171875 6.390625 31.78125 6.390625 
Q 39.453125 6.390625 43.28125 13.890625 
Q 47.125 21.390625 47.125 36.375 
Q 47.125 51.421875 43.28125 58.90625 
Q 39.453125 66.40625 31.78125 66.40625 
z
M 31.78125 74.21875 
Q 44.046875 74.21875 50.515625 64.515625 
Q 56.984375 54.828125 56.984375 36.375 
Q 56.984375 17.96875 50.515625 8.265625 
Q 44.046875 -1.421875 31.78125 -1.421875 
Q 19.53125 -1.421875 13.0625 8.265625 
Q 6.59375 17.96875 6.59375 36.375 
Q 6.59375 54.828125 13.0625 64.515625 
Q 19.53125 74.21875 31.78125 74.21875 
z
" id="DejaVuSans-48"/>
       </defs>
       <use xlink:href="#DejaVuSans-48"/>
      </g>
     </g>
    </g>
    <g id="xtick_2">
     <g id="line2d_2">
      <g>
       <use style="stroke:#000000;stroke-width:0.8;" x="121.636364" xlink:href="#m2ca62a08fb" y="252"/>
      </g>
     </g>
     <g id="text_2">
      <!-- 20 -->
      <g transform="translate(115.273864 266.598437)scale(0.1 -0.1)">
       <defs>
        <path d="M 19.1875 8.296875 
L 53.609375 8.296875 
L 53.609375 0 
L 7.328125 0 
L 7.328125 8.296875 
Q 12.9375 14.109375 22.625 23.890625 
Q 32.328125 33.6875 34.8125 36.53125 
Q 39.546875 41.84375 41.421875 45.53125 
Q 43.3125 49.21875 43.3125 52.78125 
Q 43.3125 58.59375 39.234375 62.25 
Q 35.15625 65.921875 28.609375 65.921875 
Q 23.96875 65.921875 18.8125 64.3125 
Q 13.671875 62.703125 7.8125 59.421875 
L 7.8125 69.390625 
Q 13.765625 71.78125 18.9375 73 
Q 24.125 74.21875 28.421875 74.21875 
Q 39.75 74.21875 46.484375 68.546875 
Q 53.21875 62.890625 53.21875 53.421875 
Q 53.21875 48.921875 51.53125 44.890625 
Q 49.859375 40.875 45.40625 35.40625 
Q 44.1875 33.984375 37.640625 27.21875 
Q 31.109375 20.453125 19.1875 8.296875 
z
" id="DejaVuSans-50"/>
       </defs>
       <use xlink:href="#DejaVuSans-50"/>
       <use x="63.623047" xlink:href="#DejaVuSans-48"/>
      </g>
     </g>
    </g>
    <g id="xtick_3">
     <g id="line2d_3">
      <g>
       <use style="stroke:#000000;stroke-width:0.8;" x="189.272727" xlink:href="#m2ca62a08fb" y="252"/>
      </g>
     </g>
     <g id="text_3">
      <!-- 40 -->
      <g transform="translate(182.910227 266.598437)scale(0.1 -0.1)">
       <defs>
        <path d="M 37.796875 64.3125 
L 12.890625 25.390625 
L 37.796875 25.390625 
z
M 35.203125 72.90625 
L 47.609375 72.90625 
L 47.609375 25.390625 
L 58.015625 25.390625 
L 58.015625 17.1875 
L 47.609375 17.1875 
L 47.609375 0 
L 37.796875 0 
L 37.796875 17.1875 
L 4.890625 17.1875 
L 4.890625 26.703125 
z
" id="DejaVuSans-52"/>
       </defs>
       <use xlink:href="#DejaVuSans-52"/>
       <use x="63.623047" xlink:href="#DejaVuSans-48"/>
      </g>
     </g>
    </g>
    <g id="xtick_4">
     <g id="line2d_4">
      <g>
       <use style="stroke:#000000;stroke-width:0.8;" x="256.909091" xlink:href="#m2ca62a08fb" y="252"/>
      </g>
     </g>
     <g id="text_4">
      <!-- 60 -->
      <g transform="translate(250.546591 266.598437)scale(0.1 -0.1)">
       <defs>
        <path d="M 33.015625 40.375 
Q 26.375 40.375 22.484375 35.828125 
Q 18.609375 31.296875 18.609375 23.390625 
Q 18.609375 15.53125 22.484375 10.953125 
Q 26.375 6.390625 33.015625 6.390625 
Q 39.65625 6.390625 43.53125 10.953125 
Q 47.40625 15.53125 47.40625 23.390625 
Q 47.40625 31.296875 43.53125 35.828125 
Q 39.65625 40.375 33.015625 40.375 
z
M 52.59375 71.296875 
L 52.59375 62.3125 
Q 48.875 64.0625 45.09375 64.984375 
Q 41.3125 65.921875 37.59375 65.921875 
Q 27.828125 65.921875 22.671875 59.328125 
Q 17.53125 52.734375 16.796875 39.40625 
Q 19.671875 43.65625 24.015625 45.921875 
Q 28.375 48.1875 33.59375 48.1875 
Q 44.578125 48.1875 50.953125 41.515625 
Q 57.328125 34.859375 57.328125 23.390625 
Q 57.328125 12.15625 50.6875 5.359375 
Q 44.046875 -1.421875 33.015625 -1.421875 
Q 20.359375 -1.421875 13.671875 8.265625 
Q 6.984375 17.96875 6.984375 36.375 
Q 6.984375 53.65625 15.1875 63.9375 
Q 23.390625 74.21875 37.203125 74.21875 
Q 40.921875 74.21875 44.703125 73.484375 
Q 48.484375 72.75 52.59375 71.296875 
z
" id="DejaVuSans-54"/>
       </defs>
       <use xlink:href="#DejaVuSans-54"/>
       <use x="63.623047" xlink:href="#DejaVuSans-48"/>
      </g>
     </g>
    </g>
    <g id="xtick_5">
     <g id="line2d_5">
      <g>
       <use style="stroke:#000000;stroke-width:0.8;" x="324.545455" xlink:href="#m2ca62a08fb" y="252"/>
      </g>
     </g>
     <g id="text_5">
      <!-- 80 -->
      <g transform="translate(318.182955 266.598437)scale(0.1 -0.1)">
       <defs>
        <path d="M 31.78125 34.625 
Q 24.75 34.625 20.71875 30.859375 
Q 16.703125 27.09375 16.703125 20.515625 
Q 16.703125 13.921875 20.71875 10.15625 
Q 24.75 6.390625 31.78125 6.390625 
Q 38.8125 6.390625 42.859375 10.171875 
Q 46.921875 13.96875 46.921875 20.515625 
Q 46.921875 27.09375 42.890625 30.859375 
Q 38.875 34.625 31.78125 34.625 
z
M 21.921875 38.8125 
Q 15.578125 40.375 12.03125 44.71875 
Q 8.5 49.078125 8.5 55.328125 
Q 8.5 64.0625 14.71875 69.140625 
Q 20.953125 74.21875 31.78125 74.21875 
Q 42.671875 74.21875 48.875 69.140625 
Q 55.078125 64.0625 55.078125 55.328125 
Q 55.078125 49.078125 51.53125 44.71875 
Q 48 40.375 41.703125 38.8125 
Q 48.828125 37.15625 52.796875 32.3125 
Q 56.78125 27.484375 56.78125 20.515625 
Q 56.78125 9.90625 50.3125 4.234375 
Q 43.84375 -1.421875 31.78125 -1.421875 
Q 19.734375 -1.421875 13.25 4.234375 
Q 6.78125 9.90625 6.78125 20.515625 
Q 6.78125 27.484375 10.78125 32.3125 
Q 14.796875 37.15625 21.921875 38.8125 
z
M 18.3125 54.390625 
Q 18.3125 48.734375 21.84375 45.5625 
Q 25.390625 42.390625 31.78125 42.390625 
Q 38.140625 42.390625 41.71875 45.5625 
Q 45.3125 48.734375 45.3125 54.390625 
Q 45.3125 60.0625 41.71875 63.234375 
Q 38.140625 66.40625 31.78125 66.40625 
Q 25.390625 66.40625 21.84375 63.234375 
Q 18.3125 60.0625 18.3125 54.390625 
z
" id="DejaVuSans-56"/>
       </defs>
       <use xlink:href="#DejaVuSans-56"/>
       <use x="63.623047" xlink:href="#DejaVuSans-48"/>
      </g>
     </g>
    </g>
   </g>
   <g id="matplotlib.axis_2">
    <g id="ytick_1">
     <g id="line2d_6">
      <defs>
       <path d="M 0 0 
L -3.5 0 
" id="mc5c7fe0876" style="stroke:#000000;stroke-width:0.8;"/>
      </defs>
      <g>
       <use style="stroke:#000000;stroke-width:0.8;" x="54" xlink:href="#mc5c7fe0876" y="228.859122"/>
      </g>
     </g>
     <g id="text_6">
      <!-- $\mathdefault{10^{3}}$ -->
      <g transform="translate(29.4 232.658341)scale(0.1 -0.1)">
       <defs>
        <path d="M 12.40625 8.296875 
L 28.515625 8.296875 
L 28.515625 63.921875 
L 10.984375 60.40625 
L 10.984375 69.390625 
L 28.421875 72.90625 
L 38.28125 72.90625 
L 38.28125 8.296875 
L 54.390625 8.296875 
L 54.390625 0 
L 12.40625 0 
z
" id="DejaVuSans-49"/>
        <path d="M 40.578125 39.3125 
Q 47.65625 37.796875 51.625 33 
Q 55.609375 28.21875 55.609375 21.1875 
Q 55.609375 10.40625 48.1875 4.484375 
Q 40.765625 -1.421875 27.09375 -1.421875 
Q 22.515625 -1.421875 17.65625 -0.515625 
Q 12.796875 0.390625 7.625 2.203125 
L 7.625 11.71875 
Q 11.71875 9.328125 16.59375 8.109375 
Q 21.484375 6.890625 26.8125 6.890625 
Q 36.078125 6.890625 40.9375 10.546875 
Q 45.796875 14.203125 45.796875 21.1875 
Q 45.796875 27.640625 41.28125 31.265625 
Q 36.765625 34.90625 28.71875 34.90625 
L 20.21875 34.90625 
L 20.21875 43.015625 
L 29.109375 43.015625 
Q 36.375 43.015625 40.234375 45.921875 
Q 44.09375 48.828125 44.09375 54.296875 
Q 44.09375 59.90625 40.109375 62.90625 
Q 36.140625 65.921875 28.71875 65.921875 
Q 24.65625 65.921875 20.015625 65.03125 
Q 15.375 64.15625 9.8125 62.3125 
L 9.8125 71.09375 
Q 15.4375 72.65625 20.34375 73.4375 
Q 25.25 74.21875 29.59375 74.21875 
Q 40.828125 74.21875 47.359375 69.109375 
Q 53.90625 64.015625 53.90625 55.328125 
Q 53.90625 49.265625 50.4375 45.09375 
Q 46.96875 40.921875 40.578125 39.3125 
z
" id="DejaVuSans-51"/>
       </defs>
       <use transform="translate(0 0.765625)" xlink:href="#DejaVuSans-49"/>
       <use transform="translate(63.623047 0.765625)" xlink:href="#DejaVuSans-48"/>
       <use transform="translate(128.203125 39.046875)scale(0.7)" xlink:href="#DejaVuSans-51"/>
      </g>
     </g>
    </g>
    <g id="ytick_2">
     <g id="line2d_7">
      <g>
       <use style="stroke:#000000;stroke-width:0.8;" x="54" xlink:href="#mc5c7fe0876" y="181.726017"/>
      </g>
     </g>
     <g id="text_7">
      <!-- $\mathdefault{10^{4}}$ -->
      <g transform="translate(29.4 185.525235)scale(0.1 -0.1)">
       <use transform="translate(0 0.684375)" xlink:href="#DejaVuSans-49"/>
       <use transform="translate(63.623047 0.684375)" xlink:href="#DejaVuSans-48"/>
       <use transform="translate(128.203125 38.965625)scale(0.7)" xlink:href="#DejaVuSans-52"/>
      </g>
     </g>
    </g>
    <g id="ytick_3">
     <g id="line2d_8">
      <g>
       <use style="stroke:#000000;stroke-width:0.8;" x="54" xlink:href="#mc5c7fe0876" y="134.592911"/>
      </g>
     </g>
     <g id="text_8">
      <!-- $\mathdefault{10^{5}}$ -->
      <g transform="translate(29.4 138.39213)scale(0.1 -0.1)">
       <defs>
        <path d="M 10.796875 72.90625 
L 49.515625 72.90625 
L 49.515625 64.59375 
L 19.828125 64.59375 
L 19.828125 46.734375 
Q 21.96875 47.46875 24.109375 47.828125 
Q 26.265625 48.1875 28.421875 48.1875 
Q 40.625 48.1875 47.75 41.5 
Q 54.890625 34.8125 54.890625 23.390625 
Q 54.890625 11.625 47.5625 5.09375 
Q 40.234375 -1.421875 26.90625 -1.421875 
Q 22.3125 -1.421875 17.546875 -0.640625 
Q 12.796875 0.140625 7.71875 1.703125 
L 7.71875 11.625 
Q 12.109375 9.234375 16.796875 8.0625 
Q 21.484375 6.890625 26.703125 6.890625 
Q 35.15625 6.890625 40.078125 11.328125 
Q 45.015625 15.765625 45.015625 23.390625 
Q 45.015625 31 40.078125 35.4375 
Q 35.15625 39.890625 26.703125 39.890625 
Q 22.75 39.890625 18.8125 39.015625 
Q 14.890625 38.140625 10.796875 36.28125 
z
" id="DejaVuSans-53"/>
       </defs>
       <use transform="translate(0 0.684375)" xlink:href="#DejaVuSans-49"/>
       <use transform="translate(63.623047 0.684375)" xlink:href="#DejaVuSans-48"/>
       <use transform="translate(128.203125 38.965625)scale(0.7)" xlink:href="#DejaVuSans-53"/>
      </g>
     </g>
    </g>
    <g id="ytick_4">
     <g id="line2d_9">
      <g>
       <use style="stroke:#000000;stroke-width:0.8;" x="54" xlink:href="#mc5c7fe0876" y="87.459805"/>
      </g>
     </g>
     <g id="text_9">
      <!-- $\mathdefault{10^{6}}$ -->
      <g transform="translate(29.4 91.259024)scale(0.1 -0.1)">
       <use transform="translate(0 0.765625)" xlink:href="#DejaVuSans-49"/>
       <use transform="translate(63.623047 0.765625)" xlink:href="#DejaVuSans-48"/>
       <use transform="translate(128.203125 39.046875)scale(0.7)" xlink:href="#DejaVuSans-54"/>
      </g>
     </g>
    </g>
    <g id="ytick_5">
     <g id="line2d_10">
      <g>
       <use style="stroke:#000000;stroke-width:0.8;" x="54" xlink:href="#mc5c7fe0876" y="40.3267"/>
      </g>
     </g>
     <g id="text_10">
      <!-- $\mathdefault{10^{7}}$ -->
      <g transform="translate(29.4 44.125919)scale(0.1 -0.1)">
       <defs>
        <path d="M 8.203125 72.90625 
L 55.078125 72.90625 
L 55.078125 68.703125 
L 28.609375 0 
L 18.3125 0 
L 43.21875 64.59375 
L 8.203125 64.59375 
z
" id="DejaVuSans-55"/>
       </defs>
       <use transform="translate(0 0.684375)" xlink:href="#DejaVuSans-49"/>
       <use transform="translate(63.623047 0.684375)" xlink:href="#DejaVuSans-48"/>
       <use transform="translate(128.203125 38.965625)scale(0.7)" xlink:href="#DejaVuSans-55"/>
      </g>
     </g>
    </g>
    <g id="ytick_6">
     <g id="line2d_11">
      <defs>
       <path d="M 0 0 
L -2 0 
" id="mf316114589" style="stroke:#000000;stroke-width:0.6;"/>
      </defs>
      <g>
       <use style="stroke:#000000;stroke-width:0.6;" x="54" xlink:href="#mf316114589" y="247.615271"/>
      </g>
     </g>
    </g>
    <g id="ytick_7">
     <g id="line2d_12">
      <g>
       <use style="stroke:#000000;stroke-width:0.6;" x="54" xlink:href="#mf316114589" y="243.047601"/>
      </g>
     </g>
    </g>
    <g id="ytick_8">
     <g id="line2d_13">
      <g>
       <use style="stroke:#000000;stroke-width:0.6;" x="54" xlink:href="#mf316114589" y="239.315543"/>
      </g>
     </g>
    </g>
    <g id="ytick_9">
     <g id="line2d_14">
      <g>
       <use style="stroke:#000000;stroke-width:0.6;" x="54" xlink:href="#mf316114589" y="236.160133"/>
      </g>
     </g>
    </g>
    <g id="ytick_10">
     <g id="line2d_15">
      <g>
       <use style="stroke:#000000;stroke-width:0.6;" x="54" xlink:href="#mf316114589" y="233.426792"/>
      </g>
     </g>
    </g>
    <g id="ytick_11">
     <g id="line2d_16">
      <g>
       <use style="stroke:#000000;stroke-width:0.6;" x="54" xlink:href="#mf316114589" y="231.015815"/>
      </g>
     </g>
    </g>
    <g id="ytick_12">
     <g id="line2d_17">
      <g>
       <use style="stroke:#000000;stroke-width:0.6;" x="54" xlink:href="#mf316114589" y="214.670644"/>
      </g>
     </g>
    </g>
    <g id="ytick_13">
     <g id="line2d_18">
      <g>
       <use style="stroke:#000000;stroke-width:0.6;" x="54" xlink:href="#mf316114589" y="206.370916"/>
      </g>
     </g>
    </g>
    <g id="ytick_14">
     <g id="line2d_19">
      <g>
       <use style="stroke:#000000;stroke-width:0.6;" x="54" xlink:href="#mf316114589" y="200.482165"/>
      </g>
     </g>
    </g>
    <g id="ytick_15">
     <g id="line2d_20">
      <g>
       <use style="stroke:#000000;stroke-width:0.6;" x="54" xlink:href="#mf316114589" y="195.914495"/>
      </g>
     </g>
    </g>
    <g id="ytick_16">
     <g id="line2d_21">
      <g>
       <use style="stroke:#000000;stroke-width:0.6;" x="54" xlink:href="#mf316114589" y="192.182437"/>
      </g>
     </g>
    </g>
    <g id="ytick_17">
     <g id="line2d_22">
      <g>
       <use style="stroke:#000000;stroke-width:0.6;" x="54" xlink:href="#mf316114589" y="189.027027"/>
      </g>
     </g>
    </g>
    <g id="ytick_18">
     <g id="line2d_23">
      <g>
       <use style="stroke:#000000;stroke-width:0.6;" x="54" xlink:href="#mf316114589" y="186.293686"/>
      </g>
     </g>
    </g>
    <g id="ytick_19">
     <g id="line2d_24">
      <g>
       <use style="stroke:#000000;stroke-width:0.6;" x="54" xlink:href="#mf316114589" y="183.882709"/>
      </g>
     </g>
    </g>
    <g id="ytick_20">
     <g id="line2d_25">
      <g>
       <use style="stroke:#000000;stroke-width:0.6;" x="54" xlink:href="#mf316114589" y="167.537538"/>
      </g>
     </g>
    </g>
    <g id="ytick_21">
     <g id="line2d_26">
      <g>
       <use style="stroke:#000000;stroke-width:0.6;" x="54" xlink:href="#mf316114589" y="159.23781"/>
      </g>
     </g>
    </g>
    <g id="ytick_22">
     <g id="line2d_27">
      <g>
       <use style="stroke:#000000;stroke-width:0.6;" x="54" xlink:href="#mf316114589" y="153.349059"/>
      </g>
     </g>
    </g>
    <g id="ytick_23">
     <g id="line2d_28">
      <g>
       <use style="stroke:#000000;stroke-width:0.6;" x="54" xlink:href="#mf316114589" y="148.78139"/>
      </g>
     </g>
    </g>
    <g id="ytick_24">
     <g id="line2d_29">
      <g>
       <use style="stroke:#000000;stroke-width:0.6;" x="54" xlink:href="#mf316114589" y="145.049332"/>
      </g>
     </g>
    </g>
    <g id="ytick_25">
     <g id="line2d_30">
      <g>
       <use style="stroke:#000000;stroke-width:0.6;" x="54" xlink:href="#mf316114589" y="141.893921"/>
      </g>
     </g>
    </g>
    <g id="ytick_26">
     <g id="line2d_31">
      <g>
       <use style="stroke:#000000;stroke-width:0.6;" x="54" xlink:href="#mf316114589" y="139.160581"/>
      </g>
     </g>
    </g>
    <g id="ytick_27">
     <g id="line2d_32">
      <g>
       <use style="stroke:#000000;stroke-width:0.6;" x="54" xlink:href="#mf316114589" y="136.749604"/>
      </g>
     </g>
    </g>
    <g id="ytick_28">
     <g id="line2d_33">
      <g>
       <use style="stroke:#000000;stroke-width:0.6;" x="54" xlink:href="#mf316114589" y="120.404432"/>
      </g>
     </g>
    </g>
    <g id="ytick_29">
     <g id="line2d_34">
      <g>
       <use style="stroke:#000000;stroke-width:0.6;" x="54" xlink:href="#mf316114589" y="112.104704"/>
      </g>
     </g>
    </g>
    <g id="ytick_30">
     <g id="line2d_35">
      <g>
       <use style="stroke:#000000;stroke-width:0.6;" x="54" xlink:href="#mf316114589" y="106.215954"/>
      </g>
     </g>
    </g>
    <g id="ytick_31">
     <g id="line2d_36">
      <g>
       <use style="stroke:#000000;stroke-width:0.6;" x="54" xlink:href="#mf316114589" y="101.648284"/>
      </g>
     </g>
    </g>
    <g id="ytick_32">
     <g id="line2d_37">
      <g>
       <use style="stroke:#000000;stroke-width:0.6;" x="54" xlink:href="#mf316114589" y="97.916226"/>
      </g>
     </g>
    </g>
    <g id="ytick_33">
     <g id="line2d_38">
      <g>
       <use style="stroke:#000000;stroke-width:0.6;" x="54" xlink:href="#mf316114589" y="94.760816"/>
      </g>
     </g>
    </g>
    <g id="ytick_34">
     <g id="line2d_39">
      <g>
       <use style="stroke:#000000;stroke-width:0.6;" x="54" xlink:href="#mf316114589" y="92.027475"/>
      </g>
     </g>
    </g>
    <g id="ytick_35">
     <g id="line2d_40">
      <g>
       <use style="stroke:#000000;stroke-width:0.6;" x="54" xlink:href="#mf316114589" y="89.616498"/>
      </g>
     </g>
    </g>
    <g id="ytick_36">
     <g id="line2d_41">
      <g>
       <use style="stroke:#000000;stroke-width:0.6;" x="54" xlink:href="#mf316114589" y="73.271327"/>
      </g>
     </g>
    </g>
    <g id="ytick_37">
     <g id="line2d_42">
      <g>
       <use style="stroke:#000000;stroke-width:0.6;" x="54" xlink:href="#mf316114589" y="64.971599"/>
      </g>
     </g>
    </g>
    <g id="ytick_38">
     <g id="line2d_43">
      <g>
       <use style="stroke:#000000;stroke-width:0.6;" x="54" xlink:href="#mf316114589" y="59.082848"/>
      </g>
     </g>
    </g>
    <g id="ytick_39">
     <g id="line2d_44">
      <g>
       <use style="stroke:#000000;stroke-width:0.6;" x="54" xlink:href="#mf316114589" y="54.515178"/>
      </g>
     </g>
    </g>
    <g id="ytick_40">
     <g id="line2d_45">
      <g>
       <use style="stroke:#000000;stroke-width:0.6;" x="54" xlink:href="#mf316114589" y="50.78312"/>
      </g>
     </g>
    </g>
    <g id="ytick_41">
     <g id="line2d_46">
      <g>
       <use style="stroke:#000000;stroke-width:0.6;" x="54" xlink:href="#mf316114589" y="47.62771"/>
      </g>
     </g>
    </g>
    <g id="ytick_42">
     <g id="line2d_47">
      <g>
       <use style="stroke:#000000;stroke-width:0.6;" x="54" xlink:href="#mf316114589" y="44.89437"/>
      </g>
     </g>
    </g>
    <g id="ytick_43">
     <g id="line2d_48">
      <g>
       <use style="stroke:#000000;stroke-width:0.6;" x="54" xlink:href="#mf316114589" y="42.483392"/>
      </g>
     </g>
    </g>
   </g>
   <g id="line2d_49">
    <path clip-path="url(#pa903533015)" d="M 57.381818 164.715806 
L 111.490909 164.715806 
L 111.490909 225.373108 
L 155.454545 225.373108 
L 155.454545 226.669683 
L 162.218182 226.669683 
L 162.218182 227.557843 
L 199.418182 227.557843 
L 199.418182 228.772375 
L 223.090909 228.772375 
L 223.090909 229.442194 
L 233.236364 229.442194 
L 233.236364 230.160285 
L 236.618182 230.160285 
L 236.618182 230.434356 
L 277.2 230.434356 
L 277.2 230.918852 
L 290.727273 230.918852 
L 290.727273 231.461693 
L 311.018182 231.461693 
L 311.018182 231.757894 
L 314.4 231.757894 
L 314.4 232.730483 
L 334.690909 232.730483 
L 334.690909 233.802943 
L 382.036364 233.802943 
L 382.036364 234.538067 
L 392.181818 234.538067 
L 392.181818 234.538067 
" style="fill:none;stroke:#0000ff;stroke-linecap:square;stroke-width:1.5;"/>
   </g>
   <g id="line2d_50">
    <path clip-path="url(#pa903533015)" d="M 57.381818 164.715806 
L 81.054545 164.715806 
L 81.054545 220.071688 
L 94.581818 220.071688 
L 94.581818 221.605601 
L 111.490909 221.605601 
L 111.490909 222.990549 
L 118.254545 222.990549 
L 118.254545 225.320919 
L 121.636364 225.320919 
L 121.636364 226.229109 
L 125.018182 226.229109 
L 125.018182 227.685765 
L 141.927273 227.685765 
L 141.927273 228.043655 
L 145.309091 228.043655 
L 145.309091 228.720361 
L 152.072727 228.720361 
L 152.072727 230.209596 
L 158.836364 230.209596 
L 158.836364 230.432121 
L 182.509091 230.432121 
L 182.509091 230.811642 
L 185.890909 230.811642 
L 185.890909 231.3307 
L 199.418182 231.3307 
L 199.418182 231.760423 
L 236.618182 231.763494 
L 236.618182 232.573347 
L 270.436364 232.573347 
L 270.436364 232.808068 
L 273.818182 232.808068 
L 273.818182 233.599268 
L 283.963636 233.599268 
L 283.963636 235.383438 
L 338.072727 235.383438 
L 338.072727 236.214662 
L 344.836364 236.214662 
L 344.836364 236.716521 
L 365.127273 236.716521 
L 365.127273 237.013006 
L 392.181818 237.013006 
L 392.181818 237.013006 
" style="fill:none;stroke:#00bfbf;stroke-linecap:square;stroke-width:1.5;"/>
   </g>
   <g id="line2d_51">
    <path clip-path="url(#pa903533015)" d="M 60.763636 163.185066 
L 64.145455 163.185066 
L 64.145455 170.526236 
L 67.527273 170.526236 
L 67.527273 170.854553 
L 70.909091 170.854553 
L 70.909091 172.213622 
L 81.054545 172.213622 
L 81.054545 172.586203 
L 91.2 172.586203 
L 91.2 174.404021 
L 94.581818 174.404021 
L 94.581818 174.92627 
L 101.345455 174.92627 
L 101.345455 176.401029 
L 118.254545 176.401029 
L 118.254545 177.320969 
L 125.018182 177.320969 
L 125.018182 178.093689 
L 152.072727 178.093689 
L 152.072727 178.507325 
L 168.981818 178.507325 
L 168.981818 178.773403 
L 172.363636 178.773403 
L 172.363636 179.331721 
L 189.272727 179.331721 
L 189.272727 179.597867 
L 236.618182 179.679597 
L 236.618182 179.990445 
L 240 179.990445 
L 240 180.773779 
L 300.872727 180.773779 
L 300.872727 181.94591 
L 304.254545 181.94591 
L 304.254545 183.519176 
L 341.454545 183.519176 
L 341.454545 183.923037 
L 392.181818 183.923037 
L 392.181818 183.923037 
" style="fill:none;stroke:#008000;stroke-linecap:square;stroke-width:1.5;"/>
   </g>
   <g id="line2d_52">
    <path clip-path="url(#pa903533015)" d="M 60.763636 167.78419 
L 64.145455 167.78419 
L 64.145455 198.187134 
L 67.527273 198.187134 
L 67.527273 207.468946 
L 70.909091 207.468946 
L 70.909091 208.660159 
L 74.290909 208.660159 
L 74.290909 225.327519 
L 81.054545 225.327519 
L 81.054545 227.433245 
L 108.109091 227.433245 
L 108.109091 228.290182 
L 125.018182 228.290182 
L 125.018182 230.794054 
L 128.4 230.794054 
L 128.4 231.77121 
L 131.781818 231.77121 
L 131.781818 232.048058 
L 172.363636 232.048058 
L 172.363636 233.241189 
L 392.181818 233.241189 
L 392.181818 233.241189 
" style="fill:none;stroke:#ffa500;stroke-linecap:square;stroke-width:1.5;"/>
   </g>
   <g id="line2d_53">
    <path clip-path="url(#pa903533015)" d="M 57.381818 86.754611 
L 60.763636 86.754611 
L 60.763636 108.826577 
L 64.145455 108.826577 
L 64.145455 166.754272 
L 67.527273 166.754272 
L 67.527273 168.296654 
L 70.909091 168.296654 
L 70.909091 175.822958 
L 74.290909 175.822958 
L 74.290909 181.701541 
L 77.672727 181.701541 
L 77.672727 195.700882 
L 81.054545 195.700882 
L 81.054545 213.940929 
L 84.436364 213.940929 
L 84.436364 221.685333 
L 87.818182 221.685333 
L 87.818182 223.333921 
L 94.581818 223.333921 
L 94.581818 224.08559 
L 97.963636 224.08559 
L 97.963636 225.739137 
L 148.690909 225.813593 
L 148.690909 226.259843 
L 185.890909 226.259843 
L 185.890909 226.796657 
L 392.181818 226.796657 
L 392.181818 226.796657 
" style="fill:none;stroke:#ff0000;stroke-linecap:square;stroke-width:1.5;"/>
   </g>
   <g id="patch_3">
    <path d="M 54 252 
L 54 34.56 
" style="fill:none;stroke:#000000;stroke-linecap:square;stroke-linejoin:miter;stroke-width:0.8;"/>
   </g>
   <g id="patch_4">
    <path d="M 388.8 252 
L 388.8 34.56 
" style="fill:none;stroke:#000000;stroke-linecap:square;stroke-linejoin:miter;stroke-width:0.8;"/>
   </g>
   <g id="patch_5">
    <path d="M 54 252 
L 388.8 252 
" style="fill:none;stroke:#000000;stroke-linecap:square;stroke-linejoin:miter;stroke-width:0.8;"/>
   </g>
   <g id="patch_6">
    <path d="M 54 34.56 
L 388.8 34.56 
" style="fill:none;stroke:#000000;stroke-linecap:square;stroke-linejoin:miter;stroke-width:0.8;"/>
   </g>
   <g id="legend_1">
    <g id="patch_7">
     <path d="M 273.004687 116.506875 
L 381.8 116.506875 
Q 383.8 116.506875 383.8 114.506875 
L 383.8 41.56 
Q 383.8 39.56 381.8 39.56 
L 273.004687 39.56 
Q 271.004687 39.56 271.004687 41.56 
L 271.004687 114.506875 
Q 271.004687 116.506875 273.004687 116.506875 
z
" style="fill:#ffffff;opacity:0.8;stroke:#cccccc;stroke-linejoin:miter;"/>
    </g>
    <g id="line2d_54">
     <path d="M 275.004687 47.658437 
L 295.004687 47.658437 
" style="fill:none;stroke:#0000ff;stroke-linecap:square;stroke-width:1.5;"/>
    </g>
    <g id="line2d_55"/>
    <g id="text_11">
     <!-- CUATRO_global -->
     <g transform="translate(303.004687 51.158437)scale(0.1 -0.1)">
      <defs>
       <path d="M 64.40625 67.28125 
L 64.40625 56.890625 
Q 59.421875 61.53125 53.78125 63.8125 
Q 48.140625 66.109375 41.796875 66.109375 
Q 29.296875 66.109375 22.65625 58.46875 
Q 16.015625 50.828125 16.015625 36.375 
Q 16.015625 21.96875 22.65625 14.328125 
Q 29.296875 6.6875 41.796875 6.6875 
Q 48.140625 6.6875 53.78125 8.984375 
Q 59.421875 11.28125 64.40625 15.921875 
L 64.40625 5.609375 
Q 59.234375 2.09375 53.4375 0.328125 
Q 47.65625 -1.421875 41.21875 -1.421875 
Q 24.65625 -1.421875 15.125 8.703125 
Q 5.609375 18.84375 5.609375 36.375 
Q 5.609375 53.953125 15.125 64.078125 
Q 24.65625 74.21875 41.21875 74.21875 
Q 47.75 74.21875 53.53125 72.484375 
Q 59.328125 70.75 64.40625 67.28125 
z
" id="DejaVuSans-67"/>
       <path d="M 8.6875 72.90625 
L 18.609375 72.90625 
L 18.609375 28.609375 
Q 18.609375 16.890625 22.84375 11.734375 
Q 27.09375 6.59375 36.625 6.59375 
Q 46.09375 6.59375 50.34375 11.734375 
Q 54.59375 16.890625 54.59375 28.609375 
L 54.59375 72.90625 
L 64.5 72.90625 
L 64.5 27.390625 
Q 64.5 13.140625 57.4375 5.859375 
Q 50.390625 -1.421875 36.625 -1.421875 
Q 22.796875 -1.421875 15.734375 5.859375 
Q 8.6875 13.140625 8.6875 27.390625 
z
" id="DejaVuSans-85"/>
       <path d="M 34.1875 63.1875 
L 20.796875 26.90625 
L 47.609375 26.90625 
z
M 28.609375 72.90625 
L 39.796875 72.90625 
L 67.578125 0 
L 57.328125 0 
L 50.6875 18.703125 
L 17.828125 18.703125 
L 11.1875 0 
L 0.78125 0 
z
" id="DejaVuSans-65"/>
       <path d="M -0.296875 72.90625 
L 61.375 72.90625 
L 61.375 64.59375 
L 35.5 64.59375 
L 35.5 0 
L 25.59375 0 
L 25.59375 64.59375 
L -0.296875 64.59375 
z
" id="DejaVuSans-84"/>
       <path d="M 44.390625 34.1875 
Q 47.5625 33.109375 50.5625 29.59375 
Q 53.5625 26.078125 56.59375 19.921875 
L 66.609375 0 
L 56 0 
L 46.6875 18.703125 
Q 43.0625 26.03125 39.671875 28.421875 
Q 36.28125 30.8125 30.421875 30.8125 
L 19.671875 30.8125 
L 19.671875 0 
L 9.8125 0 
L 9.8125 72.90625 
L 32.078125 72.90625 
Q 44.578125 72.90625 50.734375 67.671875 
Q 56.890625 62.453125 56.890625 51.90625 
Q 56.890625 45.015625 53.6875 40.46875 
Q 50.484375 35.9375 44.390625 34.1875 
z
M 19.671875 64.796875 
L 19.671875 38.921875 
L 32.078125 38.921875 
Q 39.203125 38.921875 42.84375 42.21875 
Q 46.484375 45.515625 46.484375 51.90625 
Q 46.484375 58.296875 42.84375 61.546875 
Q 39.203125 64.796875 32.078125 64.796875 
z
" id="DejaVuSans-82"/>
       <path d="M 39.40625 66.21875 
Q 28.65625 66.21875 22.328125 58.203125 
Q 16.015625 50.203125 16.015625 36.375 
Q 16.015625 22.609375 22.328125 14.59375 
Q 28.65625 6.59375 39.40625 6.59375 
Q 50.140625 6.59375 56.421875 14.59375 
Q 62.703125 22.609375 62.703125 36.375 
Q 62.703125 50.203125 56.421875 58.203125 
Q 50.140625 66.21875 39.40625 66.21875 
z
M 39.40625 74.21875 
Q 54.734375 74.21875 63.90625 63.9375 
Q 73.09375 53.65625 73.09375 36.375 
Q 73.09375 19.140625 63.90625 8.859375 
Q 54.734375 -1.421875 39.40625 -1.421875 
Q 24.03125 -1.421875 14.8125 8.828125 
Q 5.609375 19.09375 5.609375 36.375 
Q 5.609375 53.65625 14.8125 63.9375 
Q 24.03125 74.21875 39.40625 74.21875 
z
" id="DejaVuSans-79"/>
       <path d="M 50.984375 -16.609375 
L 50.984375 -23.578125 
L -0.984375 -23.578125 
L -0.984375 -16.609375 
z
" id="DejaVuSans-95"/>
       <path d="M 45.40625 27.984375 
Q 45.40625 37.75 41.375 43.109375 
Q 37.359375 48.484375 30.078125 48.484375 
Q 22.859375 48.484375 18.828125 43.109375 
Q 14.796875 37.75 14.796875 27.984375 
Q 14.796875 18.265625 18.828125 12.890625 
Q 22.859375 7.515625 30.078125 7.515625 
Q 37.359375 7.515625 41.375 12.890625 
Q 45.40625 18.265625 45.40625 27.984375 
z
M 54.390625 6.78125 
Q 54.390625 -7.171875 48.1875 -13.984375 
Q 42 -20.796875 29.203125 -20.796875 
Q 24.46875 -20.796875 20.265625 -20.09375 
Q 16.0625 -19.390625 12.109375 -17.921875 
L 12.109375 -9.1875 
Q 16.0625 -11.328125 19.921875 -12.34375 
Q 23.78125 -13.375 27.78125 -13.375 
Q 36.625 -13.375 41.015625 -8.765625 
Q 45.40625 -4.15625 45.40625 5.171875 
L 45.40625 9.625 
Q 42.625 4.78125 38.28125 2.390625 
Q 33.9375 0 27.875 0 
Q 17.828125 0 11.671875 7.65625 
Q 5.515625 15.328125 5.515625 27.984375 
Q 5.515625 40.671875 11.671875 48.328125 
Q 17.828125 56 27.875 56 
Q 33.9375 56 38.28125 53.609375 
Q 42.625 51.21875 45.40625 46.390625 
L 45.40625 54.6875 
L 54.390625 54.6875 
z
" id="DejaVuSans-103"/>
       <path d="M 9.421875 75.984375 
L 18.40625 75.984375 
L 18.40625 0 
L 9.421875 0 
z
" id="DejaVuSans-108"/>
       <path d="M 30.609375 48.390625 
Q 23.390625 48.390625 19.1875 42.75 
Q 14.984375 37.109375 14.984375 27.296875 
Q 14.984375 17.484375 19.15625 11.84375 
Q 23.34375 6.203125 30.609375 6.203125 
Q 37.796875 6.203125 41.984375 11.859375 
Q 46.1875 17.53125 46.1875 27.296875 
Q 46.1875 37.015625 41.984375 42.703125 
Q 37.796875 48.390625 30.609375 48.390625 
z
M 30.609375 56 
Q 42.328125 56 49.015625 48.375 
Q 55.71875 40.765625 55.71875 27.296875 
Q 55.71875 13.875 49.015625 6.21875 
Q 42.328125 -1.421875 30.609375 -1.421875 
Q 18.84375 -1.421875 12.171875 6.21875 
Q 5.515625 13.875 5.515625 27.296875 
Q 5.515625 40.765625 12.171875 48.375 
Q 18.84375 56 30.609375 56 
z
" id="DejaVuSans-111"/>
       <path d="M 48.6875 27.296875 
Q 48.6875 37.203125 44.609375 42.84375 
Q 40.53125 48.484375 33.40625 48.484375 
Q 26.265625 48.484375 22.1875 42.84375 
Q 18.109375 37.203125 18.109375 27.296875 
Q 18.109375 17.390625 22.1875 11.75 
Q 26.265625 6.109375 33.40625 6.109375 
Q 40.53125 6.109375 44.609375 11.75 
Q 48.6875 17.390625 48.6875 27.296875 
z
M 18.109375 46.390625 
Q 20.953125 51.265625 25.265625 53.625 
Q 29.59375 56 35.59375 56 
Q 45.5625 56 51.78125 48.09375 
Q 58.015625 40.1875 58.015625 27.296875 
Q 58.015625 14.40625 51.78125 6.484375 
Q 45.5625 -1.421875 35.59375 -1.421875 
Q 29.59375 -1.421875 25.265625 0.953125 
Q 20.953125 3.328125 18.109375 8.203125 
L 18.109375 0 
L 9.078125 0 
L 9.078125 75.984375 
L 18.109375 75.984375 
z
" id="DejaVuSans-98"/>
       <path d="M 34.28125 27.484375 
Q 23.390625 27.484375 19.1875 25 
Q 14.984375 22.515625 14.984375 16.5 
Q 14.984375 11.71875 18.140625 8.90625 
Q 21.296875 6.109375 26.703125 6.109375 
Q 34.1875 6.109375 38.703125 11.40625 
Q 43.21875 16.703125 43.21875 25.484375 
L 43.21875 27.484375 
z
M 52.203125 31.203125 
L 52.203125 0 
L 43.21875 0 
L 43.21875 8.296875 
Q 40.140625 3.328125 35.546875 0.953125 
Q 30.953125 -1.421875 24.3125 -1.421875 
Q 15.921875 -1.421875 10.953125 3.296875 
Q 6 8.015625 6 15.921875 
Q 6 25.140625 12.171875 29.828125 
Q 18.359375 34.515625 30.609375 34.515625 
L 43.21875 34.515625 
L 43.21875 35.40625 
Q 43.21875 41.609375 39.140625 45 
Q 35.0625 48.390625 27.6875 48.390625 
Q 23 48.390625 18.546875 47.265625 
Q 14.109375 46.140625 10.015625 43.890625 
L 10.015625 52.203125 
Q 14.9375 54.109375 19.578125 55.046875 
Q 24.21875 56 28.609375 56 
Q 40.484375 56 46.34375 49.84375 
Q 52.203125 43.703125 52.203125 31.203125 
z
" id="DejaVuSans-97"/>
      </defs>
      <use xlink:href="#DejaVuSans-67"/>
      <use x="69.824219" xlink:href="#DejaVuSans-85"/>
      <use x="143.017578" xlink:href="#DejaVuSans-65"/>
      <use x="203.675781" xlink:href="#DejaVuSans-84"/>
      <use x="264.759766" xlink:href="#DejaVuSans-82"/>
      <use x="334.242188" xlink:href="#DejaVuSans-79"/>
      <use x="412.953125" xlink:href="#DejaVuSans-95"/>
      <use x="462.953125" xlink:href="#DejaVuSans-103"/>
      <use x="526.429688" xlink:href="#DejaVuSans-108"/>
      <use x="554.212891" xlink:href="#DejaVuSans-111"/>
      <use x="615.394531" xlink:href="#DejaVuSans-98"/>
      <use x="678.871094" xlink:href="#DejaVuSans-97"/>
      <use x="740.150391" xlink:href="#DejaVuSans-108"/>
     </g>
    </g>
    <g id="line2d_56">
     <path d="M 275.004687 62.614688 
L 295.004687 62.614688 
" style="fill:none;stroke:#00bfbf;stroke-linecap:square;stroke-width:1.5;"/>
    </g>
    <g id="line2d_57"/>
    <g id="text_12">
     <!-- CUATRO_local -->
     <g transform="translate(303.004687 66.114688)scale(0.1 -0.1)">
      <defs>
       <path d="M 48.78125 52.59375 
L 48.78125 44.1875 
Q 44.96875 46.296875 41.140625 47.34375 
Q 37.3125 48.390625 33.40625 48.390625 
Q 24.65625 48.390625 19.8125 42.84375 
Q 14.984375 37.3125 14.984375 27.296875 
Q 14.984375 17.28125 19.8125 11.734375 
Q 24.65625 6.203125 33.40625 6.203125 
Q 37.3125 6.203125 41.140625 7.25 
Q 44.96875 8.296875 48.78125 10.40625 
L 48.78125 2.09375 
Q 45.015625 0.34375 40.984375 -0.53125 
Q 36.96875 -1.421875 32.421875 -1.421875 
Q 20.0625 -1.421875 12.78125 6.34375 
Q 5.515625 14.109375 5.515625 27.296875 
Q 5.515625 40.671875 12.859375 48.328125 
Q 20.21875 56 33.015625 56 
Q 37.15625 56 41.109375 55.140625 
Q 45.0625 54.296875 48.78125 52.59375 
z
" id="DejaVuSans-99"/>
      </defs>
      <use xlink:href="#DejaVuSans-67"/>
      <use x="69.824219" xlink:href="#DejaVuSans-85"/>
      <use x="143.017578" xlink:href="#DejaVuSans-65"/>
      <use x="203.675781" xlink:href="#DejaVuSans-84"/>
      <use x="264.759766" xlink:href="#DejaVuSans-82"/>
      <use x="334.242188" xlink:href="#DejaVuSans-79"/>
      <use x="412.953125" xlink:href="#DejaVuSans-95"/>
      <use x="462.953125" xlink:href="#DejaVuSans-108"/>
      <use x="490.736328" xlink:href="#DejaVuSans-111"/>
      <use x="551.917969" xlink:href="#DejaVuSans-99"/>
      <use x="606.898438" xlink:href="#DejaVuSans-97"/>
      <use x="668.177734" xlink:href="#DejaVuSans-108"/>
     </g>
    </g>
    <g id="line2d_58">
     <path d="M 275.004687 77.570937 
L 295.004687 77.570937 
" style="fill:none;stroke:#008000;stroke-linecap:square;stroke-width:1.5;"/>
    </g>
    <g id="line2d_59"/>
    <g id="text_13">
     <!-- Py-BOBYQA  -->
     <g transform="translate(303.004687 81.070937)scale(0.1 -0.1)">
      <defs>
       <path d="M 19.671875 64.796875 
L 19.671875 37.40625 
L 32.078125 37.40625 
Q 38.96875 37.40625 42.71875 40.96875 
Q 46.484375 44.53125 46.484375 51.125 
Q 46.484375 57.671875 42.71875 61.234375 
Q 38.96875 64.796875 32.078125 64.796875 
z
M 9.8125 72.90625 
L 32.078125 72.90625 
Q 44.34375 72.90625 50.609375 67.359375 
Q 56.890625 61.8125 56.890625 51.125 
Q 56.890625 40.328125 50.609375 34.8125 
Q 44.34375 29.296875 32.078125 29.296875 
L 19.671875 29.296875 
L 19.671875 0 
L 9.8125 0 
z
" id="DejaVuSans-80"/>
       <path d="M 32.171875 -5.078125 
Q 28.375 -14.84375 24.75 -17.8125 
Q 21.140625 -20.796875 15.09375 -20.796875 
L 7.90625 -20.796875 
L 7.90625 -13.28125 
L 13.1875 -13.28125 
Q 16.890625 -13.28125 18.9375 -11.515625 
Q 21 -9.765625 23.484375 -3.21875 
L 25.09375 0.875 
L 2.984375 54.6875 
L 12.5 54.6875 
L 29.59375 11.921875 
L 46.6875 54.6875 
L 56.203125 54.6875 
z
" id="DejaVuSans-121"/>
       <path d="M 4.890625 31.390625 
L 31.203125 31.390625 
L 31.203125 23.390625 
L 4.890625 23.390625 
z
" id="DejaVuSans-45"/>
       <path d="M 19.671875 34.8125 
L 19.671875 8.109375 
L 35.5 8.109375 
Q 43.453125 8.109375 47.28125 11.40625 
Q 51.125 14.703125 51.125 21.484375 
Q 51.125 28.328125 47.28125 31.5625 
Q 43.453125 34.8125 35.5 34.8125 
z
M 19.671875 64.796875 
L 19.671875 42.828125 
L 34.28125 42.828125 
Q 41.5 42.828125 45.03125 45.53125 
Q 48.578125 48.25 48.578125 53.8125 
Q 48.578125 59.328125 45.03125 62.0625 
Q 41.5 64.796875 34.28125 64.796875 
z
M 9.8125 72.90625 
L 35.015625 72.90625 
Q 46.296875 72.90625 52.390625 68.21875 
Q 58.5 63.53125 58.5 54.890625 
Q 58.5 48.1875 55.375 44.234375 
Q 52.25 40.28125 46.1875 39.3125 
Q 53.46875 37.75 57.5 32.78125 
Q 61.53125 27.828125 61.53125 20.40625 
Q 61.53125 10.640625 54.890625 5.3125 
Q 48.25 0 35.984375 0 
L 9.8125 0 
z
" id="DejaVuSans-66"/>
       <path d="M -0.203125 72.90625 
L 10.40625 72.90625 
L 30.609375 42.921875 
L 50.6875 72.90625 
L 61.28125 72.90625 
L 35.5 34.71875 
L 35.5 0 
L 25.59375 0 
L 25.59375 34.71875 
z
" id="DejaVuSans-89"/>
       <path d="M 39.40625 66.21875 
Q 28.65625 66.21875 22.328125 58.203125 
Q 16.015625 50.203125 16.015625 36.375 
Q 16.015625 22.609375 22.328125 14.59375 
Q 28.65625 6.59375 39.40625 6.59375 
Q 50.140625 6.59375 56.421875 14.59375 
Q 62.703125 22.609375 62.703125 36.375 
Q 62.703125 50.203125 56.421875 58.203125 
Q 50.140625 66.21875 39.40625 66.21875 
z
M 53.21875 1.3125 
L 66.21875 -12.890625 
L 54.296875 -12.890625 
L 43.5 -1.21875 
Q 41.890625 -1.3125 41.03125 -1.359375 
Q 40.1875 -1.421875 39.40625 -1.421875 
Q 24.03125 -1.421875 14.8125 8.859375 
Q 5.609375 19.140625 5.609375 36.375 
Q 5.609375 53.65625 14.8125 63.9375 
Q 24.03125 74.21875 39.40625 74.21875 
Q 54.734375 74.21875 63.90625 63.9375 
Q 73.09375 53.65625 73.09375 36.375 
Q 73.09375 23.6875 67.984375 14.640625 
Q 62.890625 5.609375 53.21875 1.3125 
z
" id="DejaVuSans-81"/>
       <path id="DejaVuSans-32"/>
      </defs>
      <use xlink:href="#DejaVuSans-80"/>
      <use x="60.302734" xlink:href="#DejaVuSans-121"/>
      <use x="117.732422" xlink:href="#DejaVuSans-45"/>
      <use x="150.191406" xlink:href="#DejaVuSans-66"/>
      <use x="217.044922" xlink:href="#DejaVuSans-79"/>
      <use x="295.755859" xlink:href="#DejaVuSans-66"/>
      <use x="358.859375" xlink:href="#DejaVuSans-89"/>
      <use x="419.943359" xlink:href="#DejaVuSans-81"/>
      <use x="498.654297" xlink:href="#DejaVuSans-65"/>
      <use x="567.0625" xlink:href="#DejaVuSans-32"/>
     </g>
    </g>
    <g id="line2d_60">
     <path d="M 275.004687 92.249062 
L 295.004687 92.249062 
" style="fill:none;stroke:#ffa500;stroke-linecap:square;stroke-width:1.5;"/>
    </g>
    <g id="line2d_61"/>
    <g id="text_14">
     <!-- Snobfit -->
     <g transform="translate(303.004687 95.749062)scale(0.1 -0.1)">
      <defs>
       <path d="M 53.515625 70.515625 
L 53.515625 60.890625 
Q 47.90625 63.578125 42.921875 64.890625 
Q 37.9375 66.21875 33.296875 66.21875 
Q 25.25 66.21875 20.875 63.09375 
Q 16.5 59.96875 16.5 54.203125 
Q 16.5 49.359375 19.40625 46.890625 
Q 22.3125 44.4375 30.421875 42.921875 
L 36.375 41.703125 
Q 47.40625 39.59375 52.65625 34.296875 
Q 57.90625 29 57.90625 20.125 
Q 57.90625 9.515625 50.796875 4.046875 
Q 43.703125 -1.421875 29.984375 -1.421875 
Q 24.8125 -1.421875 18.96875 -0.25 
Q 13.140625 0.921875 6.890625 3.21875 
L 6.890625 13.375 
Q 12.890625 10.015625 18.65625 8.296875 
Q 24.421875 6.59375 29.984375 6.59375 
Q 38.421875 6.59375 43.015625 9.90625 
Q 47.609375 13.234375 47.609375 19.390625 
Q 47.609375 24.75 44.3125 27.78125 
Q 41.015625 30.8125 33.5 32.328125 
L 27.484375 33.5 
Q 16.453125 35.6875 11.515625 40.375 
Q 6.59375 45.0625 6.59375 53.421875 
Q 6.59375 63.09375 13.40625 68.65625 
Q 20.21875 74.21875 32.171875 74.21875 
Q 37.3125 74.21875 42.625 73.28125 
Q 47.953125 72.359375 53.515625 70.515625 
z
" id="DejaVuSans-83"/>
       <path d="M 54.890625 33.015625 
L 54.890625 0 
L 45.90625 0 
L 45.90625 32.71875 
Q 45.90625 40.484375 42.875 44.328125 
Q 39.84375 48.1875 33.796875 48.1875 
Q 26.515625 48.1875 22.3125 43.546875 
Q 18.109375 38.921875 18.109375 30.90625 
L 18.109375 0 
L 9.078125 0 
L 9.078125 54.6875 
L 18.109375 54.6875 
L 18.109375 46.1875 
Q 21.34375 51.125 25.703125 53.5625 
Q 30.078125 56 35.796875 56 
Q 45.21875 56 50.046875 50.171875 
Q 54.890625 44.34375 54.890625 33.015625 
z
" id="DejaVuSans-110"/>
       <path d="M 37.109375 75.984375 
L 37.109375 68.5 
L 28.515625 68.5 
Q 23.6875 68.5 21.796875 66.546875 
Q 19.921875 64.59375 19.921875 59.515625 
L 19.921875 54.6875 
L 34.71875 54.6875 
L 34.71875 47.703125 
L 19.921875 47.703125 
L 19.921875 0 
L 10.890625 0 
L 10.890625 47.703125 
L 2.296875 47.703125 
L 2.296875 54.6875 
L 10.890625 54.6875 
L 10.890625 58.5 
Q 10.890625 67.625 15.140625 71.796875 
Q 19.390625 75.984375 28.609375 75.984375 
z
" id="DejaVuSans-102"/>
       <path d="M 9.421875 54.6875 
L 18.40625 54.6875 
L 18.40625 0 
L 9.421875 0 
z
M 9.421875 75.984375 
L 18.40625 75.984375 
L 18.40625 64.59375 
L 9.421875 64.59375 
z
" id="DejaVuSans-105"/>
       <path d="M 18.3125 70.21875 
L 18.3125 54.6875 
L 36.8125 54.6875 
L 36.8125 47.703125 
L 18.3125 47.703125 
L 18.3125 18.015625 
Q 18.3125 11.328125 20.140625 9.421875 
Q 21.96875 7.515625 27.59375 7.515625 
L 36.8125 7.515625 
L 36.8125 0 
L 27.59375 0 
Q 17.1875 0 13.234375 3.875 
Q 9.28125 7.765625 9.28125 18.015625 
L 9.28125 47.703125 
L 2.6875 47.703125 
L 2.6875 54.6875 
L 9.28125 54.6875 
L 9.28125 70.21875 
z
" id="DejaVuSans-116"/>
      </defs>
      <use xlink:href="#DejaVuSans-83"/>
      <use x="63.476562" xlink:href="#DejaVuSans-110"/>
      <use x="126.855469" xlink:href="#DejaVuSans-111"/>
      <use x="188.037109" xlink:href="#DejaVuSans-98"/>
      <use x="251.513672" xlink:href="#DejaVuSans-102"/>
      <use x="286.71875" xlink:href="#DejaVuSans-105"/>
      <use x="314.501953" xlink:href="#DejaVuSans-116"/>
     </g>
    </g>
    <g id="line2d_62">
     <path d="M 275.004687 106.927188 
L 295.004687 106.927188 
" style="fill:none;stroke:#ff0000;stroke-linecap:square;stroke-width:1.5;"/>
    </g>
    <g id="line2d_63"/>
    <g id="text_15">
     <!-- Bayes. Opt -->
     <g transform="translate(303.004687 110.427188)scale(0.1 -0.1)">
      <defs>
       <path d="M 56.203125 29.59375 
L 56.203125 25.203125 
L 14.890625 25.203125 
Q 15.484375 15.921875 20.484375 11.0625 
Q 25.484375 6.203125 34.421875 6.203125 
Q 39.59375 6.203125 44.453125 7.46875 
Q 49.3125 8.734375 54.109375 11.28125 
L 54.109375 2.78125 
Q 49.265625 0.734375 44.1875 -0.34375 
Q 39.109375 -1.421875 33.890625 -1.421875 
Q 20.796875 -1.421875 13.15625 6.1875 
Q 5.515625 13.8125 5.515625 26.8125 
Q 5.515625 40.234375 12.765625 48.109375 
Q 20.015625 56 32.328125 56 
Q 43.359375 56 49.78125 48.890625 
Q 56.203125 41.796875 56.203125 29.59375 
z
M 47.21875 32.234375 
Q 47.125 39.59375 43.09375 43.984375 
Q 39.0625 48.390625 32.421875 48.390625 
Q 24.90625 48.390625 20.390625 44.140625 
Q 15.875 39.890625 15.1875 32.171875 
z
" id="DejaVuSans-101"/>
       <path d="M 44.28125 53.078125 
L 44.28125 44.578125 
Q 40.484375 46.53125 36.375 47.5 
Q 32.28125 48.484375 27.875 48.484375 
Q 21.1875 48.484375 17.84375 46.4375 
Q 14.5 44.390625 14.5 40.28125 
Q 14.5 37.15625 16.890625 35.375 
Q 19.28125 33.59375 26.515625 31.984375 
L 29.59375 31.296875 
Q 39.15625 29.25 43.1875 25.515625 
Q 47.21875 21.78125 47.21875 15.09375 
Q 47.21875 7.46875 41.1875 3.015625 
Q 35.15625 -1.421875 24.609375 -1.421875 
Q 20.21875 -1.421875 15.453125 -0.5625 
Q 10.6875 0.296875 5.421875 2 
L 5.421875 11.28125 
Q 10.40625 8.6875 15.234375 7.390625 
Q 20.0625 6.109375 24.8125 6.109375 
Q 31.15625 6.109375 34.5625 8.28125 
Q 37.984375 10.453125 37.984375 14.40625 
Q 37.984375 18.0625 35.515625 20.015625 
Q 33.0625 21.96875 24.703125 23.78125 
L 21.578125 24.515625 
Q 13.234375 26.265625 9.515625 29.90625 
Q 5.8125 33.546875 5.8125 39.890625 
Q 5.8125 47.609375 11.28125 51.796875 
Q 16.75 56 26.8125 56 
Q 31.78125 56 36.171875 55.265625 
Q 40.578125 54.546875 44.28125 53.078125 
z
" id="DejaVuSans-115"/>
       <path d="M 10.6875 12.40625 
L 21 12.40625 
L 21 0 
L 10.6875 0 
z
" id="DejaVuSans-46"/>
       <path d="M 18.109375 8.203125 
L 18.109375 -20.796875 
L 9.078125 -20.796875 
L 9.078125 54.6875 
L 18.109375 54.6875 
L 18.109375 46.390625 
Q 20.953125 51.265625 25.265625 53.625 
Q 29.59375 56 35.59375 56 
Q 45.5625 56 51.78125 48.09375 
Q 58.015625 40.1875 58.015625 27.296875 
Q 58.015625 14.40625 51.78125 6.484375 
Q 45.5625 -1.421875 35.59375 -1.421875 
Q 29.59375 -1.421875 25.265625 0.953125 
Q 20.953125 3.328125 18.109375 8.203125 
z
M 48.6875 27.296875 
Q 48.6875 37.203125 44.609375 42.84375 
Q 40.53125 48.484375 33.40625 48.484375 
Q 26.265625 48.484375 22.1875 42.84375 
Q 18.109375 37.203125 18.109375 27.296875 
Q 18.109375 17.390625 22.1875 11.75 
Q 26.265625 6.109375 33.40625 6.109375 
Q 40.53125 6.109375 44.609375 11.75 
Q 48.6875 17.390625 48.6875 27.296875 
z
" id="DejaVuSans-112"/>
      </defs>
      <use xlink:href="#DejaVuSans-66"/>
      <use x="68.603516" xlink:href="#DejaVuSans-97"/>
      <use x="129.882812" xlink:href="#DejaVuSans-121"/>
      <use x="189.0625" xlink:href="#DejaVuSans-101"/>
      <use x="250.585938" xlink:href="#DejaVuSans-115"/>
      <use x="302.685547" xlink:href="#DejaVuSans-46"/>
      <use x="334.472656" xlink:href="#DejaVuSans-32"/>
      <use x="366.259766" xlink:href="#DejaVuSans-79"/>
      <use x="444.970703" xlink:href="#DejaVuSans-112"/>
      <use x="508.447266" xlink:href="#DejaVuSans-116"/>
     </g>
    </g>
   </g>
  </g>
 </g>
 <defs>
  <clipPath id="pa903533015">
   <rect height="217.44" width="334.8" x="54" y="34.56"/>
  </clipPath>
 </defs>
</svg>
