<?xml version="1.0" encoding="utf-8" standalone="no"?>
<!DOCTYPE svg PUBLIC "-//W3C//DTD SVG 1.1//EN"
  "http://www.w3.org/Graphics/SVG/1.1/DTD/svg11.dtd">
<!-- Created with matplotlib (https://matplotlib.org/) -->
<svg height="288pt" version="1.1" viewBox="0 0 432 288" width="432pt" xmlns="http://www.w3.org/2000/svg" xmlns:xlink="http://www.w3.org/1999/xlink">
 <metadata>
  <rdf:RDF xmlns:cc="http://creativecommons.org/ns#" xmlns:dc="http://purl.org/dc/elements/1.1/" xmlns:rdf="http://www.w3.org/1999/02/22-rdf-syntax-ns#">
   <cc:Work>
    <dc:type rdf:resource="http://purl.org/dc/dcmitype/StillImage"/>
    <dc:date>2021-04-01T22:57:25.930041</dc:date>
    <dc:format>image/svg+xml</dc:format>
    <dc:creator>
     <cc:Agent>
      <dc:title>Matplotlib v3.3.4, https://matplotlib.org/</dc:title>
     </cc:Agent>
    </dc:creator>
   </cc:Work>
  </rdf:RDF>
 </metadata>
 <defs>
  <style type="text/css">*{stroke-linecap:butt;stroke-linejoin:round;}</style>
 </defs>
 <g id="figure_1">
  <g id="patch_1">
   <path d="M 0 288 
L 432 288 
L 432 0 
L 0 0 
z
" style="fill:#ffffff;"/>
  </g>
  <g id="axes_1">
   <g id="patch_2">
    <path d="M 54 252 
L 388.8 252 
L 388.8 34.56 
L 54 34.56 
z
" style="fill:#ffffff;"/>
   </g>
   <g id="PolyCollection_1">
    <defs>
     <path d="M 57.381818 -242.113006 
L 57.381818 -218.674836 
L 60.763636 -218.674836 
L 64.145455 -218.674836 
L 67.527273 -218.674836 
L 70.909091 -218.674836 
L 74.290909 -218.674836 
L 77.672727 -218.674836 
L 81.054545 -218.674836 
L 84.436364 -218.674836 
L 87.818182 -218.674836 
L 91.2 -218.674836 
L 94.581818 -218.674836 
L 97.963636 -218.674836 
L 101.345455 -218.674836 
L 104.727273 -218.674836 
L 108.109091 -218.674836 
L 111.490909 -75.748849 
L 114.872727 -75.748849 
L 118.254545 -75.748849 
L 121.636364 -75.748849 
L 125.018182 -75.748849 
L 128.4 -75.748849 
L 131.781818 -75.748849 
L 135.163636 -75.748849 
L 138.545455 -75.748849 
L 141.927273 -75.748849 
L 145.309091 -75.748849 
L 148.690909 -75.748849 
L 152.072727 -75.748849 
L 155.454545 -71.557875 
L 158.836364 -71.557875 
L 162.218182 -71.557875 
L 165.6 -71.557875 
L 168.981818 -71.557875 
L 172.363636 -71.557875 
L 175.745455 -71.557875 
L 179.127273 -71.557875 
L 182.509091 -71.557875 
L 185.890909 -71.557875 
L 189.272727 -71.557875 
L 192.654545 -71.557875 
L 196.036364 -71.557875 
L 199.418182 -62.543046 
L 202.8 -62.543046 
L 206.181818 -62.543046 
L 209.563636 -62.543046 
L 212.945455 -62.543046 
L 216.327273 -62.543046 
L 219.709091 -62.543046 
L 223.090909 -60.745946 
L 226.472727 -60.745946 
L 229.854545 -60.745946 
L 233.236364 -60.745946 
L 236.618182 -60.745946 
L 240 -60.745946 
L 243.381818 -60.745946 
L 246.763636 -60.745946 
L 250.145455 -60.745946 
L 253.527273 -60.745946 
L 256.909091 -60.745946 
L 260.290909 -60.745946 
L 263.672727 -60.745946 
L 267.054545 -57.380126 
L 270.436364 -57.380126 
L 273.818182 -57.380126 
L 277.2 -57.380126 
L 280.581818 -57.380126 
L 283.963636 -57.380126 
L 287.345455 -57.380126 
L 290.727273 -57.380126 
L 294.109091 -57.380126 
L 297.490909 -57.380126 
L 300.872727 -57.380126 
L 304.254545 -57.380126 
L 307.636364 -57.380126 
L 311.018182 -57.380126 
L 314.4 -57.380126 
L 317.781818 -57.380126 
L 321.163636 -57.380126 
L 324.545455 -57.380126 
L 327.927273 -57.380126 
L 331.309091 -57.380126 
L 334.690909 -57.380126 
L 338.072727 -57.380126 
L 341.454545 -57.380126 
L 344.836364 -57.380126 
L 348.218182 -57.380126 
L 351.6 -57.380126 
L 354.981818 -57.380126 
L 358.363636 -57.380126 
L 361.745455 -56.68463 
L 365.127273 -56.68463 
L 368.509091 -56.68463 
L 371.890909 -56.68463 
L 375.272727 -56.68463 
L 378.654545 -56.68463 
L 382.036364 -56.68463 
L 385.418182 -56.68463 
L 388.8 -56.68463 
L 392.181818 -56.68463 
L 392.181818 -87.999169 
L 392.181818 -87.999169 
L 388.8 -87.999169 
L 385.418182 -87.999169 
L 382.036364 -87.999169 
L 378.654545 -87.999169 
L 375.272727 -87.999169 
L 371.890909 -87.999169 
L 368.509091 -87.999169 
L 365.127273 -87.999169 
L 361.745455 -87.999169 
L 358.363636 -87.999169 
L 354.981818 -87.999169 
L 351.6 -87.999169 
L 348.218182 -87.999169 
L 344.836364 -87.999169 
L 341.454545 -87.999169 
L 338.072727 -87.999169 
L 334.690909 -87.999169 
L 331.309091 -87.999169 
L 327.927273 -87.999169 
L 324.545455 -87.999169 
L 321.163636 -87.999169 
L 317.781818 -87.999169 
L 314.4 -87.999169 
L 311.018182 -87.999169 
L 307.636364 -87.999169 
L 304.254545 -87.999169 
L 300.872727 -87.999169 
L 297.490909 -87.999169 
L 294.109091 -87.999169 
L 290.727273 -87.999169 
L 287.345455 -87.999169 
L 283.963636 -87.999169 
L 280.581818 -87.999169 
L 277.2 -87.999169 
L 273.818182 -87.999169 
L 270.436364 -87.999169 
L 267.054545 -87.999169 
L 263.672727 -87.999169 
L 260.290909 -87.999169 
L 256.909091 -88.909935 
L 253.527273 -88.909935 
L 250.145455 -88.909935 
L 246.763636 -88.909935 
L 243.381818 -88.909935 
L 240 -88.909935 
L 236.618182 -88.909935 
L 233.236364 -88.909935 
L 229.854545 -88.909935 
L 226.472727 -88.909935 
L 223.090909 -88.909935 
L 219.709091 -88.909935 
L 216.327273 -88.909935 
L 212.945455 -88.909935 
L 209.563636 -99.888805 
L 206.181818 -99.888805 
L 202.8 -99.888805 
L 199.418182 -99.888805 
L 196.036364 -101.481564 
L 192.654545 -101.481564 
L 189.272727 -101.481564 
L 185.890909 -101.481564 
L 182.509091 -101.481564 
L 179.127273 -101.481564 
L 175.745455 -118.754364 
L 172.363636 -118.754364 
L 168.981818 -118.754364 
L 165.6 -118.754364 
L 162.218182 -118.754364 
L 158.836364 -118.754364 
L 155.454545 -118.754364 
L 152.072727 -121.728482 
L 148.690909 -121.728482 
L 145.309091 -121.728482 
L 141.927273 -121.728482 
L 138.545455 -121.728482 
L 135.163636 -121.728482 
L 131.781818 -121.728482 
L 128.4 -121.728482 
L 125.018182 -121.728482 
L 121.636364 -121.728482 
L 118.254545 -121.728482 
L 114.872727 -121.728482 
L 111.490909 -121.728482 
L 108.109091 -242.113006 
L 104.727273 -242.113006 
L 101.345455 -242.113006 
L 97.963636 -242.113006 
L 94.581818 -242.113006 
L 91.2 -242.113006 
L 87.818182 -242.113006 
L 84.436364 -242.113006 
L 81.054545 -242.113006 
L 77.672727 -242.113006 
L 74.290909 -242.113006 
L 70.909091 -242.113006 
L 67.527273 -242.113006 
L 64.145455 -242.113006 
L 60.763636 -242.113006 
L 57.381818 -242.113006 
z
" id="m6e988968ad" style="stroke:#0000ff;stroke-opacity:0.5;"/>
    </defs>
    <g clip-path="url(#pe345257dc8)">
     <use style="fill:#0000ff;fill-opacity:0.5;stroke:#0000ff;stroke-opacity:0.5;" x="0" xlink:href="#m6e988968ad" y="288"/>
    </g>
   </g>
   <g id="PolyCollection_2">
    <defs>
     <path d="M 57.381818 -242.113006 
L 57.381818 -218.674836 
L 60.763636 -218.674836 
L 64.145455 -218.674836 
L 67.527273 -218.674836 
L 70.909091 -218.674836 
L 74.290909 -218.674836 
L 77.672727 -218.674836 
L 81.054545 -61.040248 
L 84.436364 -61.040248 
L 87.818182 -61.040248 
L 91.2 -61.040248 
L 94.581818 -61.040248 
L 97.963636 -61.040248 
L 101.345455 -61.040248 
L 104.727273 -61.040248 
L 108.109091 -61.040248 
L 111.490909 -61.040248 
L 114.872727 -61.040248 
L 118.254545 -61.040248 
L 121.636364 -61.040248 
L 125.018182 -61.040248 
L 128.4 -61.040248 
L 131.781818 -61.040248 
L 135.163636 -61.040248 
L 138.545455 -61.040248 
L 141.927273 -61.040248 
L 145.309091 -61.040248 
L 148.690909 -61.040248 
L 152.072727 -61.040248 
L 155.454545 -61.040248 
L 158.836364 -58.828887 
L 162.218182 -58.828887 
L 165.6 -53.896009 
L 168.981818 -53.896009 
L 172.363636 -53.896009 
L 175.745455 -53.896009 
L 179.127273 -53.896009 
L 182.509091 -53.896009 
L 185.890909 -53.896009 
L 189.272727 -53.896009 
L 192.654545 -53.896009 
L 196.036364 -53.896009 
L 199.418182 -53.896009 
L 202.8 -53.896009 
L 206.181818 -53.896009 
L 209.563636 -53.896009 
L 212.945455 -53.896009 
L 216.327273 -53.896009 
L 219.709091 -53.896009 
L 223.090909 -53.896009 
L 226.472727 -53.896009 
L 229.854545 -53.896009 
L 233.236364 -53.896009 
L 236.618182 -50.527663 
L 240 -50.527663 
L 243.381818 -50.527663 
L 246.763636 -50.527663 
L 250.145455 -50.527663 
L 253.527273 -50.527663 
L 256.909091 -50.527663 
L 260.290909 -50.527663 
L 263.672727 -50.527663 
L 267.054545 -50.527663 
L 270.436364 -50.527663 
L 273.818182 -50.527663 
L 277.2 -50.527663 
L 280.581818 -50.527663 
L 283.963636 -50.527663 
L 287.345455 -50.527663 
L 290.727273 -50.527663 
L 294.109091 -50.527663 
L 297.490909 -50.527663 
L 300.872727 -50.527663 
L 304.254545 -50.527663 
L 307.636364 -50.527663 
L 311.018182 -50.527663 
L 314.4 -50.527663 
L 317.781818 -50.527663 
L 321.163636 -50.527663 
L 324.545455 -50.527663 
L 327.927273 -50.527663 
L 331.309091 -50.527663 
L 334.690909 -50.527663 
L 338.072727 -45.883636 
L 341.454545 -45.883636 
L 344.836364 -45.883636 
L 348.218182 -45.883636 
L 351.6 -45.883636 
L 354.981818 -45.883636 
L 358.363636 -45.883636 
L 361.745455 -45.883636 
L 365.127273 -45.883636 
L 368.509091 -45.883636 
L 371.890909 -45.883636 
L 375.272727 -45.883636 
L 378.654545 -45.883636 
L 382.036364 -45.883636 
L 385.418182 -45.883636 
L 388.8 -45.883636 
L 392.181818 -45.883636 
L 392.181818 -79.036213 
L 392.181818 -79.036213 
L 388.8 -82.447949 
L 385.418182 -82.447949 
L 382.036364 -82.447949 
L 378.654545 -82.447949 
L 375.272727 -82.447949 
L 371.890909 -82.447949 
L 368.509091 -82.447949 
L 365.127273 -82.447949 
L 361.745455 -82.447949 
L 358.363636 -82.447949 
L 354.981818 -82.447949 
L 351.6 -82.447949 
L 348.218182 -82.447949 
L 344.836364 -82.447949 
L 341.454545 -82.447949 
L 338.072727 -82.447949 
L 334.690909 -82.447949 
L 331.309091 -82.447949 
L 327.927273 -82.447949 
L 324.545455 -82.447949 
L 321.163636 -82.447949 
L 317.781818 -82.447949 
L 314.4 -82.447949 
L 311.018182 -82.447949 
L 307.636364 -82.447949 
L 304.254545 -82.447949 
L 300.872727 -82.447949 
L 297.490909 -82.447949 
L 294.109091 -82.447949 
L 290.727273 -82.447949 
L 287.345455 -82.447949 
L 283.963636 -82.447949 
L 280.581818 -82.447949 
L 277.2 -82.447949 
L 273.818182 -82.447949 
L 270.436364 -82.447949 
L 267.054545 -82.447949 
L 263.672727 -82.447949 
L 260.290909 -82.447949 
L 256.909091 -82.447949 
L 253.527273 -82.447949 
L 250.145455 -82.447949 
L 246.763636 -82.447949 
L 243.381818 -82.447949 
L 240 -82.447949 
L 236.618182 -82.447949 
L 233.236364 -82.447949 
L 229.854545 -82.447949 
L 226.472727 -82.447949 
L 223.090909 -82.447949 
L 219.709091 -83.835952 
L 216.327273 -83.835952 
L 212.945455 -83.835952 
L 209.563636 -83.835952 
L 206.181818 -83.835952 
L 202.8 -83.835952 
L 199.418182 -83.835952 
L 196.036364 -83.835952 
L 192.654545 -83.835952 
L 189.272727 -83.835952 
L 185.890909 -83.835952 
L 182.509091 -83.835952 
L 179.127273 -86.996063 
L 175.745455 -86.996063 
L 172.363636 -86.996063 
L 168.981818 -86.996063 
L 165.6 -93.170312 
L 162.218182 -93.170312 
L 158.836364 -93.170312 
L 155.454545 -93.170312 
L 152.072727 -93.170312 
L 148.690909 -93.170312 
L 145.309091 -96.801148 
L 141.927273 -117.171625 
L 138.545455 -117.171625 
L 135.163636 -117.171625 
L 131.781818 -117.171625 
L 128.4 -117.171625 
L 125.018182 -117.580817 
L 121.636364 -117.580817 
L 118.254545 -118.140918 
L 114.872727 -118.140918 
L 111.490909 -118.140918 
L 108.109091 -139.980311 
L 104.727273 -139.980311 
L 101.345455 -139.980311 
L 97.963636 -139.980311 
L 94.581818 -139.980311 
L 91.2 -157.492795 
L 87.818182 -157.492795 
L 84.436364 -157.492795 
L 81.054545 -157.492795 
L 77.672727 -242.113006 
L 74.290909 -242.113006 
L 70.909091 -242.113006 
L 67.527273 -242.113006 
L 64.145455 -242.113006 
L 60.763636 -242.113006 
L 57.381818 -242.113006 
z
" id="m4521e74dd4" style="stroke:#00bfbf;stroke-opacity:0.5;"/>
    </defs>
    <g clip-path="url(#pe345257dc8)">
     <use style="fill:#00bfbf;fill-opacity:0.5;stroke:#00bfbf;stroke-opacity:0.5;" x="0" xlink:href="#m4521e74dd4" y="288"/>
    </g>
   </g>
   <g id="PolyCollection_3">
    <defs>
     <path d="M 60.763636 -241.899282 
L 60.763636 -220.353368 
L 64.145455 -211.211523 
L 67.527273 -210.140778 
L 70.909091 -200.573715 
L 74.290909 -200.573715 
L 77.672727 -200.573715 
L 81.054545 -200.573715 
L 84.436364 -200.573715 
L 87.818182 -200.573715 
L 91.2 -196.717206 
L 94.581818 -194.978959 
L 97.963636 -194.978959 
L 101.345455 -180.062861 
L 104.727273 -180.062861 
L 108.109091 -180.062861 
L 111.490909 -180.062861 
L 114.872727 -180.062861 
L 118.254545 -180.062861 
L 121.636364 -180.062861 
L 125.018182 -180.062861 
L 128.4 -180.062861 
L 131.781818 -180.062861 
L 135.163636 -180.062861 
L 138.545455 -180.062861 
L 141.927273 -180.062861 
L 145.309091 -180.062861 
L 148.690909 -180.062861 
L 152.072727 -180.062861 
L 155.454545 -178.386006 
L 158.836364 -178.386006 
L 162.218182 -178.386006 
L 165.6 -178.386006 
L 168.981818 -178.386006 
L 172.363636 -178.386006 
L 175.745455 -178.386006 
L 179.127273 -178.386006 
L 182.509091 -178.386006 
L 185.890909 -178.386006 
L 189.272727 -178.386006 
L 192.654545 -178.386006 
L 196.036364 -178.386006 
L 199.418182 -178.386006 
L 202.8 -178.386006 
L 206.181818 -178.386006 
L 209.563636 -178.386006 
L 212.945455 -178.386006 
L 216.327273 -178.386006 
L 219.709091 -178.386006 
L 223.090909 -178.386006 
L 226.472727 -178.386006 
L 229.854545 -178.386006 
L 233.236364 -178.386006 
L 236.618182 -178.386006 
L 240 -178.386006 
L 243.381818 -178.386006 
L 246.763636 -178.386006 
L 250.145455 -178.386006 
L 253.527273 -178.386006 
L 256.909091 -178.386006 
L 260.290909 -178.386006 
L 263.672727 -178.386006 
L 267.054545 -178.386006 
L 270.436364 -178.386006 
L 273.818182 -178.386006 
L 277.2 -178.386006 
L 280.581818 -178.386006 
L 283.963636 -178.386006 
L 287.345455 -178.386006 
L 290.727273 -178.386006 
L 294.109091 -178.386006 
L 297.490909 -178.386006 
L 300.872727 -178.386006 
L 304.254545 -178.386006 
L 307.636364 -178.386006 
L 311.018182 -178.386006 
L 314.4 -178.386006 
L 317.781818 -178.386006 
L 321.163636 -178.386006 
L 324.545455 -178.386006 
L 327.927273 -178.386006 
L 331.309091 -178.386006 
L 334.690909 -178.386006 
L 338.072727 -178.386006 
L 341.454545 -177.960504 
L 344.836364 -177.960504 
L 348.218182 -177.960504 
L 351.6 -177.960504 
L 354.981818 -177.960504 
L 358.363636 -177.960504 
L 361.745455 -177.960504 
L 365.127273 -177.960504 
L 368.509091 -177.960504 
L 371.890909 -177.960504 
L 375.272727 -177.960504 
L 378.654545 -177.960504 
L 382.036364 -177.960504 
L 385.418182 -177.960504 
L 388.8 -177.960504 
L 392.181818 -177.960504 
L 392.181818 -200.573715 
L 392.181818 -200.573715 
L 388.8 -200.573715 
L 385.418182 -200.573715 
L 382.036364 -200.573715 
L 378.654545 -204.472554 
L 375.272727 -204.472554 
L 371.890909 -204.472554 
L 368.509091 -204.472554 
L 365.127273 -204.472554 
L 361.745455 -204.472554 
L 358.363636 -204.472554 
L 354.981818 -204.472554 
L 351.6 -204.472554 
L 348.218182 -204.472554 
L 344.836364 -204.472554 
L 341.454545 -204.472554 
L 338.072727 -204.472554 
L 334.690909 -204.472554 
L 331.309091 -204.472554 
L 327.927273 -204.472554 
L 324.545455 -204.472554 
L 321.163636 -204.472554 
L 317.781818 -204.472554 
L 314.4 -204.472554 
L 311.018182 -204.472554 
L 307.636364 -204.472554 
L 304.254545 -204.472554 
L 300.872727 -208.150068 
L 297.490909 -208.150068 
L 294.109091 -209.661082 
L 290.727273 -209.661082 
L 287.345455 -209.661082 
L 283.963636 -209.661082 
L 280.581818 -209.661082 
L 277.2 -209.661082 
L 273.818182 -209.661082 
L 270.436364 -209.661082 
L 267.054545 -217.036016 
L 263.672727 -217.036016 
L 260.290909 -217.177349 
L 256.909091 -217.177349 
L 253.527273 -217.177349 
L 250.145455 -217.177349 
L 246.763636 -217.177349 
L 243.381818 -217.177349 
L 240 -217.177349 
L 236.618182 -217.177349 
L 233.236364 -217.177349 
L 229.854545 -217.177349 
L 226.472727 -217.177349 
L 223.090909 -217.177349 
L 219.709091 -217.177349 
L 216.327273 -217.177349 
L 212.945455 -217.177349 
L 209.563636 -217.177349 
L 206.181818 -217.177349 
L 202.8 -217.177349 
L 199.418182 -217.177349 
L 196.036364 -217.177349 
L 192.654545 -217.177349 
L 189.272727 -217.177349 
L 185.890909 -217.177349 
L 182.509091 -217.177349 
L 179.127273 -217.177349 
L 175.745455 -217.177349 
L 172.363636 -217.177349 
L 168.981818 -217.177349 
L 165.6 -217.177349 
L 162.218182 -217.177349 
L 158.836364 -217.177349 
L 155.454545 -217.177349 
L 152.072727 -217.177349 
L 148.690909 -217.177349 
L 145.309091 -217.177349 
L 141.927273 -217.177349 
L 138.545455 -217.177349 
L 135.163636 -217.177349 
L 131.781818 -217.177349 
L 128.4 -217.177349 
L 125.018182 -217.177349 
L 121.636364 -217.177349 
L 118.254545 -217.177349 
L 114.872727 -217.177349 
L 111.490909 -217.177349 
L 108.109091 -217.177349 
L 104.727273 -217.177349 
L 101.345455 -217.177349 
L 97.963636 -217.177349 
L 94.581818 -217.177349 
L 91.2 -217.177349 
L 87.818182 -218.972292 
L 84.436364 -218.972292 
L 81.054545 -218.972292 
L 77.672727 -218.972292 
L 74.290909 -218.972292 
L 70.909091 -218.972292 
L 67.527273 -221.830524 
L 64.145455 -233.411012 
L 60.763636 -241.899282 
z
" id="ma33fb51db7" style="stroke:#008000;stroke-opacity:0.5;"/>
    </defs>
    <g clip-path="url(#pe345257dc8)">
     <use style="fill:#008000;fill-opacity:0.5;stroke:#008000;stroke-opacity:0.5;" x="0" xlink:href="#ma33fb51db7" y="288"/>
    </g>
   </g>
   <g id="PolyCollection_4">
    <defs>
     <path d="M 60.763636 -243.556364 
L 60.763636 -221.164645 
L 64.145455 -87.290698 
L 67.527273 -77.734335 
L 70.909091 -70.489585 
L 74.290909 -70.489585 
L 77.672727 -70.489585 
L 81.054545 -70.489585 
L 84.436364 -70.489585 
L 87.818182 -70.489585 
L 91.2 -70.489585 
L 94.581818 -56.402294 
L 97.963636 -56.402294 
L 101.345455 -56.402294 
L 104.727273 -56.402294 
L 108.109091 -56.402294 
L 111.490909 -56.402294 
L 114.872727 -56.402294 
L 118.254545 -56.402294 
L 121.636364 -56.402294 
L 125.018182 -56.402294 
L 128.4 -56.402294 
L 131.781818 -56.402294 
L 135.163636 -56.402294 
L 138.545455 -56.402294 
L 141.927273 -56.402294 
L 145.309091 -56.402294 
L 148.690909 -56.402294 
L 152.072727 -56.402294 
L 155.454545 -56.402294 
L 158.836364 -56.402294 
L 162.218182 -56.402294 
L 165.6 -56.402294 
L 168.981818 -56.402294 
L 172.363636 -56.402294 
L 175.745455 -56.402294 
L 179.127273 -56.402294 
L 182.509091 -56.402294 
L 185.890909 -56.402294 
L 189.272727 -56.402294 
L 192.654545 -56.402294 
L 196.036364 -56.402294 
L 199.418182 -56.402294 
L 202.8 -56.402294 
L 206.181818 -56.402294 
L 209.563636 -56.402294 
L 212.945455 -56.402294 
L 216.327273 -56.402294 
L 219.709091 -56.402294 
L 223.090909 -56.402294 
L 226.472727 -56.402294 
L 229.854545 -56.402294 
L 233.236364 -56.402294 
L 236.618182 -56.402294 
L 240 -56.402294 
L 243.381818 -56.402294 
L 246.763636 -56.402294 
L 250.145455 -56.402294 
L 253.527273 -56.402294 
L 256.909091 -56.402294 
L 260.290909 -56.402294 
L 263.672727 -56.402294 
L 267.054545 -56.402294 
L 270.436364 -56.402294 
L 273.818182 -56.402294 
L 277.2 -56.402294 
L 280.581818 -56.402294 
L 283.963636 -56.402294 
L 287.345455 -56.402294 
L 290.727273 -56.402294 
L 294.109091 -56.402294 
L 297.490909 -56.402294 
L 300.872727 -56.402294 
L 304.254545 -56.402294 
L 307.636364 -56.402294 
L 311.018182 -56.402294 
L 314.4 -56.402294 
L 317.781818 -56.402294 
L 321.163636 -56.402294 
L 324.545455 -56.402294 
L 327.927273 -56.402294 
L 331.309091 -56.402294 
L 334.690909 -56.402294 
L 338.072727 -56.402294 
L 341.454545 -56.402294 
L 344.836364 -56.402294 
L 348.218182 -56.402294 
L 351.6 -56.402294 
L 354.981818 -56.402294 
L 358.363636 -56.402294 
L 361.745455 -56.402294 
L 365.127273 -56.402294 
L 368.509091 -56.402294 
L 371.890909 -56.402294 
L 375.272727 -56.402294 
L 378.654545 -56.402294 
L 382.036364 -56.402294 
L 385.418182 -56.402294 
L 388.8 -56.402294 
L 392.181818 -56.402294 
L 392.181818 -70.489585 
L 392.181818 -70.489585 
L 388.8 -70.489585 
L 385.418182 -70.489585 
L 382.036364 -70.489585 
L 378.654545 -70.489585 
L 375.272727 -70.489585 
L 371.890909 -70.489585 
L 368.509091 -70.489585 
L 365.127273 -70.489585 
L 361.745455 -70.489585 
L 358.363636 -70.489585 
L 354.981818 -70.489585 
L 351.6 -70.489585 
L 348.218182 -70.489585 
L 344.836364 -70.489585 
L 341.454545 -70.489585 
L 338.072727 -70.489585 
L 334.690909 -70.489585 
L 331.309091 -70.489585 
L 327.927273 -70.489585 
L 324.545455 -70.489585 
L 321.163636 -70.489585 
L 317.781818 -70.489585 
L 314.4 -70.489585 
L 311.018182 -70.489585 
L 307.636364 -70.489585 
L 304.254545 -70.489585 
L 300.872727 -70.489585 
L 297.490909 -70.489585 
L 294.109091 -70.489585 
L 290.727273 -70.489585 
L 287.345455 -70.489585 
L 283.963636 -70.489585 
L 280.581818 -70.489585 
L 277.2 -70.489585 
L 273.818182 -70.489585 
L 270.436364 -70.489585 
L 267.054545 -70.489585 
L 263.672727 -70.489585 
L 260.290909 -70.489585 
L 256.909091 -70.489585 
L 253.527273 -70.489585 
L 250.145455 -70.489585 
L 246.763636 -70.489585 
L 243.381818 -70.489585 
L 240 -70.489585 
L 236.618182 -70.489585 
L 233.236364 -70.489585 
L 229.854545 -70.489585 
L 226.472727 -70.489585 
L 223.090909 -70.489585 
L 219.709091 -70.489585 
L 216.327273 -70.489585 
L 212.945455 -70.489585 
L 209.563636 -70.489585 
L 206.181818 -70.489585 
L 202.8 -77.734335 
L 199.418182 -77.734335 
L 196.036364 -77.734335 
L 192.654545 -77.734335 
L 189.272727 -77.734335 
L 185.890909 -77.734335 
L 182.509091 -77.734335 
L 179.127273 -77.734335 
L 175.745455 -77.734335 
L 172.363636 -77.734335 
L 168.981818 -77.734335 
L 165.6 -77.734335 
L 162.218182 -77.734335 
L 158.836364 -77.734335 
L 155.454545 -77.734335 
L 152.072727 -77.734335 
L 148.690909 -77.734335 
L 145.309091 -77.734335 
L 141.927273 -77.734335 
L 138.545455 -77.734335 
L 135.163636 -77.734335 
L 131.781818 -77.734335 
L 128.4 -77.734335 
L 125.018182 -77.734335 
L 121.636364 -77.734335 
L 118.254545 -77.734335 
L 114.872727 -102.253297 
L 111.490909 -102.253297 
L 108.109091 -102.253297 
L 104.727273 -102.253297 
L 101.345455 -102.253297 
L 97.963636 -102.253297 
L 94.581818 -102.253297 
L 91.2 -103.024653 
L 87.818182 -103.024653 
L 84.436364 -139.227456 
L 81.054545 -139.227456 
L 77.672727 -139.227456 
L 74.290909 -139.227456 
L 70.909091 -225.028534 
L 67.527273 -241.042003 
L 64.145455 -243.556364 
L 60.763636 -243.556364 
z
" id="m42bd080539" style="stroke:#ffa500;stroke-opacity:0.5;"/>
    </defs>
    <g clip-path="url(#pe345257dc8)">
     <use style="fill:#ffa500;fill-opacity:0.5;stroke:#ffa500;stroke-opacity:0.5;" x="0" xlink:href="#m42bd080539" y="288"/>
    </g>
   </g>
   <g id="matplotlib.axis_1">
    <g id="xtick_1">
     <g id="line2d_1">
      <defs>
       <path d="M 0 0 
L 0 3.5 
" id="m09c34c1c0a" style="stroke:#000000;stroke-width:0.8;"/>
      </defs>
      <g>
       <use style="stroke:#000000;stroke-width:0.8;" x="54" xlink:href="#m09c34c1c0a" y="252"/>
      </g>
     </g>
     <g id="text_1">
      <!-- 0 -->
      <g transform="translate(50.81875 266.598437)scale(0.1 -0.1)">
       <defs>
        <path d="M 31.78125 66.40625 
Q 24.171875 66.40625 20.328125 58.90625 
Q 16.5 51.421875 16.5 36.375 
Q 16.5 21.390625 20.328125 13.890625 
Q 24.171875 6.390625 31.78125 6.390625 
Q 39.453125 6.390625 43.28125 13.890625 
Q 47.125 21.390625 47.125 36.375 
Q 47.125 51.421875 43.28125 58.90625 
Q 39.453125 66.40625 31.78125 66.40625 
z
M 31.78125 74.21875 
Q 44.046875 74.21875 50.515625 64.515625 
Q 56.984375 54.828125 56.984375 36.375 
Q 56.984375 17.96875 50.515625 8.265625 
Q 44.046875 -1.421875 31.78125 -1.421875 
Q 19.53125 -1.421875 13.0625 8.265625 
Q 6.59375 17.96875 6.59375 36.375 
Q 6.59375 54.828125 13.0625 64.515625 
Q 19.53125 74.21875 31.78125 74.21875 
z
" id="DejaVuSans-48"/>
       </defs>
       <use xlink:href="#DejaVuSans-48"/>
      </g>
     </g>
    </g>
    <g id="xtick_2">
     <g id="line2d_2">
      <g>
       <use style="stroke:#000000;stroke-width:0.8;" x="121.636364" xlink:href="#m09c34c1c0a" y="252"/>
      </g>
     </g>
     <g id="text_2">
      <!-- 20 -->
      <g transform="translate(115.273864 266.598437)scale(0.1 -0.1)">
       <defs>
        <path d="M 19.1875 8.296875 
L 53.609375 8.296875 
L 53.609375 0 
L 7.328125 0 
L 7.328125 8.296875 
Q 12.9375 14.109375 22.625 23.890625 
Q 32.328125 33.6875 34.8125 36.53125 
Q 39.546875 41.84375 41.421875 45.53125 
Q 43.3125 49.21875 43.3125 52.78125 
Q 43.3125 58.59375 39.234375 62.25 
Q 35.15625 65.921875 28.609375 65.921875 
Q 23.96875 65.921875 18.8125 64.3125 
Q 13.671875 62.703125 7.8125 59.421875 
L 7.8125 69.390625 
Q 13.765625 71.78125 18.9375 73 
Q 24.125 74.21875 28.421875 74.21875 
Q 39.75 74.21875 46.484375 68.546875 
Q 53.21875 62.890625 53.21875 53.421875 
Q 53.21875 48.921875 51.53125 44.890625 
Q 49.859375 40.875 45.40625 35.40625 
Q 44.1875 33.984375 37.640625 27.21875 
Q 31.109375 20.453125 19.1875 8.296875 
z
" id="DejaVuSans-50"/>
       </defs>
       <use xlink:href="#DejaVuSans-50"/>
       <use x="63.623047" xlink:href="#DejaVuSans-48"/>
      </g>
     </g>
    </g>
    <g id="xtick_3">
     <g id="line2d_3">
      <g>
       <use style="stroke:#000000;stroke-width:0.8;" x="189.272727" xlink:href="#m09c34c1c0a" y="252"/>
      </g>
     </g>
     <g id="text_3">
      <!-- 40 -->
      <g transform="translate(182.910227 266.598437)scale(0.1 -0.1)">
       <defs>
        <path d="M 37.796875 64.3125 
L 12.890625 25.390625 
L 37.796875 25.390625 
z
M 35.203125 72.90625 
L 47.609375 72.90625 
L 47.609375 25.390625 
L 58.015625 25.390625 
L 58.015625 17.1875 
L 47.609375 17.1875 
L 47.609375 0 
L 37.796875 0 
L 37.796875 17.1875 
L 4.890625 17.1875 
L 4.890625 26.703125 
z
" id="DejaVuSans-52"/>
       </defs>
       <use xlink:href="#DejaVuSans-52"/>
       <use x="63.623047" xlink:href="#DejaVuSans-48"/>
      </g>
     </g>
    </g>
    <g id="xtick_4">
     <g id="line2d_4">
      <g>
       <use style="stroke:#000000;stroke-width:0.8;" x="256.909091" xlink:href="#m09c34c1c0a" y="252"/>
      </g>
     </g>
     <g id="text_4">
      <!-- 60 -->
      <g transform="translate(250.546591 266.598437)scale(0.1 -0.1)">
       <defs>
        <path d="M 33.015625 40.375 
Q 26.375 40.375 22.484375 35.828125 
Q 18.609375 31.296875 18.609375 23.390625 
Q 18.609375 15.53125 22.484375 10.953125 
Q 26.375 6.390625 33.015625 6.390625 
Q 39.65625 6.390625 43.53125 10.953125 
Q 47.40625 15.53125 47.40625 23.390625 
Q 47.40625 31.296875 43.53125 35.828125 
Q 39.65625 40.375 33.015625 40.375 
z
M 52.59375 71.296875 
L 52.59375 62.3125 
Q 48.875 64.0625 45.09375 64.984375 
Q 41.3125 65.921875 37.59375 65.921875 
Q 27.828125 65.921875 22.671875 59.328125 
Q 17.53125 52.734375 16.796875 39.40625 
Q 19.671875 43.65625 24.015625 45.921875 
Q 28.375 48.1875 33.59375 48.1875 
Q 44.578125 48.1875 50.953125 41.515625 
Q 57.328125 34.859375 57.328125 23.390625 
Q 57.328125 12.15625 50.6875 5.359375 
Q 44.046875 -1.421875 33.015625 -1.421875 
Q 20.359375 -1.421875 13.671875 8.265625 
Q 6.984375 17.96875 6.984375 36.375 
Q 6.984375 53.65625 15.1875 63.9375 
Q 23.390625 74.21875 37.203125 74.21875 
Q 40.921875 74.21875 44.703125 73.484375 
Q 48.484375 72.75 52.59375 71.296875 
z
" id="DejaVuSans-54"/>
       </defs>
       <use xlink:href="#DejaVuSans-54"/>
       <use x="63.623047" xlink:href="#DejaVuSans-48"/>
      </g>
     </g>
    </g>
    <g id="xtick_5">
     <g id="line2d_5">
      <g>
       <use style="stroke:#000000;stroke-width:0.8;" x="324.545455" xlink:href="#m09c34c1c0a" y="252"/>
      </g>
     </g>
     <g id="text_5">
      <!-- 80 -->
      <g transform="translate(318.182955 266.598437)scale(0.1 -0.1)">
       <defs>
        <path d="M 31.78125 34.625 
Q 24.75 34.625 20.71875 30.859375 
Q 16.703125 27.09375 16.703125 20.515625 
Q 16.703125 13.921875 20.71875 10.15625 
Q 24.75 6.390625 31.78125 6.390625 
Q 38.8125 6.390625 42.859375 10.171875 
Q 46.921875 13.96875 46.921875 20.515625 
Q 46.921875 27.09375 42.890625 30.859375 
Q 38.875 34.625 31.78125 34.625 
z
M 21.921875 38.8125 
Q 15.578125 40.375 12.03125 44.71875 
Q 8.5 49.078125 8.5 55.328125 
Q 8.5 64.0625 14.71875 69.140625 
Q 20.953125 74.21875 31.78125 74.21875 
Q 42.671875 74.21875 48.875 69.140625 
Q 55.078125 64.0625 55.078125 55.328125 
Q 55.078125 49.078125 51.53125 44.71875 
Q 48 40.375 41.703125 38.8125 
Q 48.828125 37.15625 52.796875 32.3125 
Q 56.78125 27.484375 56.78125 20.515625 
Q 56.78125 9.90625 50.3125 4.234375 
Q 43.84375 -1.421875 31.78125 -1.421875 
Q 19.734375 -1.421875 13.25 4.234375 
Q 6.78125 9.90625 6.78125 20.515625 
Q 6.78125 27.484375 10.78125 32.3125 
Q 14.796875 37.15625 21.921875 38.8125 
z
M 18.3125 54.390625 
Q 18.3125 48.734375 21.84375 45.5625 
Q 25.390625 42.390625 31.78125 42.390625 
Q 38.140625 42.390625 41.71875 45.5625 
Q 45.3125 48.734375 45.3125 54.390625 
Q 45.3125 60.0625 41.71875 63.234375 
Q 38.140625 66.40625 31.78125 66.40625 
Q 25.390625 66.40625 21.84375 63.234375 
Q 18.3125 60.0625 18.3125 54.390625 
z
" id="DejaVuSans-56"/>
       </defs>
       <use xlink:href="#DejaVuSans-56"/>
       <use x="63.623047" xlink:href="#DejaVuSans-48"/>
      </g>
     </g>
    </g>
   </g>
   <g id="matplotlib.axis_2">
    <g id="ytick_1">
     <g id="line2d_6">
      <defs>
       <path d="M 0 0 
L -3.5 0 
" id="m03a69010bf" style="stroke:#000000;stroke-width:0.8;"/>
      </defs>
      <g>
       <use style="stroke:#000000;stroke-width:0.8;" x="54" xlink:href="#m03a69010bf" y="210.225766"/>
      </g>
     </g>
     <g id="text_6">
      <!-- $\mathdefault{10^{3}}$ -->
      <g transform="translate(29.4 214.024985)scale(0.1 -0.1)">
       <defs>
        <path d="M 12.40625 8.296875 
L 28.515625 8.296875 
L 28.515625 63.921875 
L 10.984375 60.40625 
L 10.984375 69.390625 
L 28.421875 72.90625 
L 38.28125 72.90625 
L 38.28125 8.296875 
L 54.390625 8.296875 
L 54.390625 0 
L 12.40625 0 
z
" id="DejaVuSans-49"/>
        <path d="M 40.578125 39.3125 
Q 47.65625 37.796875 51.625 33 
Q 55.609375 28.21875 55.609375 21.1875 
Q 55.609375 10.40625 48.1875 4.484375 
Q 40.765625 -1.421875 27.09375 -1.421875 
Q 22.515625 -1.421875 17.65625 -0.515625 
Q 12.796875 0.390625 7.625 2.203125 
L 7.625 11.71875 
Q 11.71875 9.328125 16.59375 8.109375 
Q 21.484375 6.890625 26.8125 6.890625 
Q 36.078125 6.890625 40.9375 10.546875 
Q 45.796875 14.203125 45.796875 21.1875 
Q 45.796875 27.640625 41.28125 31.265625 
Q 36.765625 34.90625 28.71875 34.90625 
L 20.21875 34.90625 
L 20.21875 43.015625 
L 29.109375 43.015625 
Q 36.375 43.015625 40.234375 45.921875 
Q 44.09375 48.828125 44.09375 54.296875 
Q 44.09375 59.90625 40.109375 62.90625 
Q 36.140625 65.921875 28.71875 65.921875 
Q 24.65625 65.921875 20.015625 65.03125 
Q 15.375 64.15625 9.8125 62.3125 
L 9.8125 71.09375 
Q 15.4375 72.65625 20.34375 73.4375 
Q 25.25 74.21875 29.59375 74.21875 
Q 40.828125 74.21875 47.359375 69.109375 
Q 53.90625 64.015625 53.90625 55.328125 
Q 53.90625 49.265625 50.4375 45.09375 
Q 46.96875 40.921875 40.578125 39.3125 
z
" id="DejaVuSans-51"/>
       </defs>
       <use transform="translate(0 0.765625)" xlink:href="#DejaVuSans-49"/>
       <use transform="translate(63.623047 0.765625)" xlink:href="#DejaVuSans-48"/>
       <use transform="translate(128.203125 39.046875)scale(0.7)" xlink:href="#DejaVuSans-51"/>
      </g>
     </g>
    </g>
    <g id="ytick_2">
     <g id="line2d_7">
      <g>
       <use style="stroke:#000000;stroke-width:0.8;" x="54" xlink:href="#m03a69010bf" y="96.846003"/>
      </g>
     </g>
     <g id="text_7">
      <!-- $\mathdefault{10^{4}}$ -->
      <g transform="translate(29.4 100.645221)scale(0.1 -0.1)">
       <use transform="translate(0 0.684375)" xlink:href="#DejaVuSans-49"/>
       <use transform="translate(63.623047 0.684375)" xlink:href="#DejaVuSans-48"/>
       <use transform="translate(128.203125 38.965625)scale(0.7)" xlink:href="#DejaVuSans-52"/>
      </g>
     </g>
    </g>
    <g id="ytick_3">
     <g id="line2d_8">
      <defs>
       <path d="M 0 0 
L -2 0 
" id="maf6e614caf" style="stroke:#000000;stroke-width:0.6;"/>
      </defs>
      <g>
       <use style="stroke:#000000;stroke-width:0.6;" x="54" xlink:href="#maf6e614caf" y="244.356476"/>
      </g>
     </g>
    </g>
    <g id="ytick_4">
     <g id="line2d_9">
      <g>
       <use style="stroke:#000000;stroke-width:0.6;" x="54" xlink:href="#maf6e614caf" y="235.378925"/>
      </g>
     </g>
    </g>
    <g id="ytick_5">
     <g id="line2d_10">
      <g>
       <use style="stroke:#000000;stroke-width:0.6;" x="54" xlink:href="#maf6e614caf" y="227.788514"/>
      </g>
     </g>
    </g>
    <g id="ytick_6">
     <g id="line2d_11">
      <g>
       <use style="stroke:#000000;stroke-width:0.6;" x="54" xlink:href="#maf6e614caf" y="221.2134"/>
      </g>
     </g>
    </g>
    <g id="ytick_7">
     <g id="line2d_12">
      <g>
       <use style="stroke:#000000;stroke-width:0.6;" x="54" xlink:href="#maf6e614caf" y="215.41374"/>
      </g>
     </g>
    </g>
    <g id="ytick_8">
     <g id="line2d_13">
      <g>
       <use style="stroke:#000000;stroke-width:0.6;" x="54" xlink:href="#maf6e614caf" y="176.095056"/>
      </g>
     </g>
    </g>
    <g id="ytick_9">
     <g id="line2d_14">
      <g>
       <use style="stroke:#000000;stroke-width:0.6;" x="54" xlink:href="#maf6e614caf" y="156.129871"/>
      </g>
     </g>
    </g>
    <g id="ytick_10">
     <g id="line2d_15">
      <g>
       <use style="stroke:#000000;stroke-width:0.6;" x="54" xlink:href="#maf6e614caf" y="141.964347"/>
      </g>
     </g>
    </g>
    <g id="ytick_11">
     <g id="line2d_16">
      <g>
       <use style="stroke:#000000;stroke-width:0.6;" x="54" xlink:href="#maf6e614caf" y="130.976712"/>
      </g>
     </g>
    </g>
    <g id="ytick_12">
     <g id="line2d_17">
      <g>
       <use style="stroke:#000000;stroke-width:0.6;" x="54" xlink:href="#maf6e614caf" y="121.999161"/>
      </g>
     </g>
    </g>
    <g id="ytick_13">
     <g id="line2d_18">
      <g>
       <use style="stroke:#000000;stroke-width:0.6;" x="54" xlink:href="#maf6e614caf" y="114.40875"/>
      </g>
     </g>
    </g>
    <g id="ytick_14">
     <g id="line2d_19">
      <g>
       <use style="stroke:#000000;stroke-width:0.6;" x="54" xlink:href="#maf6e614caf" y="107.833637"/>
      </g>
     </g>
    </g>
    <g id="ytick_15">
     <g id="line2d_20">
      <g>
       <use style="stroke:#000000;stroke-width:0.6;" x="54" xlink:href="#maf6e614caf" y="102.033976"/>
      </g>
     </g>
    </g>
    <g id="ytick_16">
     <g id="line2d_21">
      <g>
       <use style="stroke:#000000;stroke-width:0.6;" x="54" xlink:href="#maf6e614caf" y="62.715293"/>
      </g>
     </g>
    </g>
    <g id="ytick_17">
     <g id="line2d_22">
      <g>
       <use style="stroke:#000000;stroke-width:0.6;" x="54" xlink:href="#maf6e614caf" y="42.750108"/>
      </g>
     </g>
    </g>
   </g>
   <g id="line2d_23">
    <path clip-path="url(#pe345257dc8)" d="M 57.381818 55.927553 
L 111.490909 55.927553 
L 111.490909 201.840078 
L 155.454545 201.840078 
L 155.454545 204.95902 
L 162.218182 204.95902 
L 162.218182 207.09551 
L 199.418182 207.09551 
L 199.418182 210.017093 
L 223.090909 210.017093 
L 223.090909 211.628359 
L 233.236364 211.628359 
L 233.236364 213.355742 
L 236.618182 213.355742 
L 236.618182 214.015028 
L 277.2 214.015028 
L 277.2 215.180494 
L 290.727273 215.180494 
L 290.727273 216.48631 
L 311.018182 216.48631 
L 311.018182 217.198829 
L 314.4 217.198829 
L 314.4 219.538414 
L 334.690909 219.538414 
L 334.690909 222.118239 
L 382.036364 222.118239 
L 382.036364 223.886598 
L 392.181818 223.886598 
L 392.181818 223.886598 
" style="fill:none;stroke:#0000ff;stroke-linecap:square;stroke-width:1.5;"/>
   </g>
   <g id="line2d_24">
    <path clip-path="url(#pe345257dc8)" d="M 57.381818 55.927553 
L 81.054545 55.927553 
L 81.054545 189.087393 
L 94.581818 189.087393 
L 94.581818 192.777254 
L 111.490909 192.777254 
L 111.490909 196.10878 
L 118.254545 196.10878 
L 118.254545 201.714537 
L 121.636364 201.714537 
L 121.636364 203.899209 
L 125.018182 203.899209 
L 125.018182 207.403227 
L 141.927273 207.403227 
L 141.927273 208.26414 
L 145.309091 208.26414 
L 145.309091 209.891972 
L 152.072727 209.891972 
L 152.072727 213.474361 
L 158.836364 213.474361 
L 158.836364 214.00965 
L 182.509091 214.00965 
L 182.509091 214.922597 
L 185.890909 214.922597 
L 185.890909 216.171203 
L 199.418182 216.171203 
L 199.418182 217.204913 
L 236.618182 217.212299 
L 236.618182 219.160418 
L 270.436364 219.160418 
L 270.436364 219.725044 
L 273.818182 219.725044 
L 273.818182 221.628296 
L 283.963636 221.628296 
L 283.963636 225.920156 
L 338.072727 225.920156 
L 338.072727 227.919685 
L 344.836364 227.919685 
L 344.836364 229.126917 
L 365.127273 229.126917 
L 365.127273 229.840119 
L 392.181818 229.840119 
L 392.181818 229.840119 
" style="fill:none;stroke:#00bfbf;stroke-linecap:square;stroke-width:1.5;"/>
   </g>
   <g id="line2d_25">
    <path clip-path="url(#pe345257dc8)" d="M 60.763636 52.245323 
L 64.145455 52.245323 
L 64.145455 69.904675 
L 67.527273 69.904675 
L 67.527273 70.694448 
L 70.909091 70.694448 
L 70.909091 73.96372 
L 81.054545 73.96372 
L 81.054545 74.859973 
L 91.2 74.859973 
L 91.2 79.232774 
L 94.581818 79.232774 
L 94.581818 80.489056 
L 101.345455 80.489056 
L 101.345455 84.036622 
L 118.254545 84.036622 
L 118.254545 86.24956 
L 125.018182 86.24956 
L 125.018182 88.108356 
L 152.072727 88.108356 
L 152.072727 89.103367 
L 168.981818 89.103367 
L 168.981818 89.743423 
L 172.363636 89.743423 
L 172.363636 91.08647 
L 189.272727 91.08647 
L 189.272727 91.726691 
L 202.8 91.726691 
L 202.8 91.923294 
L 236.618182 91.923294 
L 236.618182 92.671045 
L 240 92.671045 
L 240 94.555373 
L 300.872727 94.555373 
L 300.872727 97.374961 
L 304.254545 97.374961 
L 304.254545 101.15949 
L 341.454545 101.15949 
L 341.454545 102.130985 
L 392.181818 102.130985 
L 392.181818 102.130985 
" style="fill:none;stroke:#008000;stroke-linecap:square;stroke-width:1.5;"/>
   </g>
   <g id="line2d_26">
    <path clip-path="url(#pe345257dc8)" d="M 60.763636 56.991502 
L 67.527273 56.991502 
L 67.527273 74.801701 
L 70.909091 74.801701 
L 70.909091 182.991987 
L 74.290909 182.991987 
L 74.290909 189.868212 
L 81.054545 189.868212 
L 81.054545 204.056116 
L 87.818182 204.056116 
L 87.818182 204.167382 
L 94.581818 204.167382 
L 94.581818 211.17321 
L 101.345455 211.17321 
L 101.345455 214.729772 
L 118.254545 214.729772 
L 118.254545 220.584311 
L 135.163636 220.584311 
L 135.163636 224.799548 
L 206.181818 224.799548 
L 206.181818 225.156138 
L 392.181818 225.156138 
L 392.181818 225.156138 
" style="fill:none;stroke:#ffa500;stroke-linecap:square;stroke-width:1.5;"/>
   </g>
   <g id="patch_3">
    <path d="M 54 252 
L 54 34.56 
" style="fill:none;stroke:#000000;stroke-linecap:square;stroke-linejoin:miter;stroke-width:0.8;"/>
   </g>
   <g id="patch_4">
    <path d="M 388.8 252 
L 388.8 34.56 
" style="fill:none;stroke:#000000;stroke-linecap:square;stroke-linejoin:miter;stroke-width:0.8;"/>
   </g>
   <g id="patch_5">
    <path d="M 54 252 
L 388.8 252 
" style="fill:none;stroke:#000000;stroke-linecap:square;stroke-linejoin:miter;stroke-width:0.8;"/>
   </g>
   <g id="patch_6">
    <path d="M 54 34.56 
L 388.8 34.56 
" style="fill:none;stroke:#000000;stroke-linecap:square;stroke-linejoin:miter;stroke-width:0.8;"/>
   </g>
   <g id="legend_1">
    <g id="patch_7">
     <path d="M 273.004687 174.414375 
L 381.8 174.414375 
Q 383.8 174.414375 383.8 172.414375 
L 383.8 114.145625 
Q 383.8 112.145625 381.8 112.145625 
L 273.004687 112.145625 
Q 271.004687 112.145625 271.004687 114.145625 
L 271.004687 172.414375 
Q 271.004687 174.414375 273.004687 174.414375 
z
" style="fill:#ffffff;opacity:0.8;stroke:#cccccc;stroke-linejoin:miter;"/>
    </g>
    <g id="line2d_27">
     <path d="M 275.004687 120.244063 
L 295.004687 120.244063 
" style="fill:none;stroke:#0000ff;stroke-linecap:square;stroke-width:1.5;"/>
    </g>
    <g id="line2d_28"/>
    <g id="text_8">
     <!-- CUATRO_global -->
     <g transform="translate(303.004687 123.744063)scale(0.1 -0.1)">
      <defs>
       <path d="M 64.40625 67.28125 
L 64.40625 56.890625 
Q 59.421875 61.53125 53.78125 63.8125 
Q 48.140625 66.109375 41.796875 66.109375 
Q 29.296875 66.109375 22.65625 58.46875 
Q 16.015625 50.828125 16.015625 36.375 
Q 16.015625 21.96875 22.65625 14.328125 
Q 29.296875 6.6875 41.796875 6.6875 
Q 48.140625 6.6875 53.78125 8.984375 
Q 59.421875 11.28125 64.40625 15.921875 
L 64.40625 5.609375 
Q 59.234375 2.09375 53.4375 0.328125 
Q 47.65625 -1.421875 41.21875 -1.421875 
Q 24.65625 -1.421875 15.125 8.703125 
Q 5.609375 18.84375 5.609375 36.375 
Q 5.609375 53.953125 15.125 64.078125 
Q 24.65625 74.21875 41.21875 74.21875 
Q 47.75 74.21875 53.53125 72.484375 
Q 59.328125 70.75 64.40625 67.28125 
z
" id="DejaVuSans-67"/>
       <path d="M 8.6875 72.90625 
L 18.609375 72.90625 
L 18.609375 28.609375 
Q 18.609375 16.890625 22.84375 11.734375 
Q 27.09375 6.59375 36.625 6.59375 
Q 46.09375 6.59375 50.34375 11.734375 
Q 54.59375 16.890625 54.59375 28.609375 
L 54.59375 72.90625 
L 64.5 72.90625 
L 64.5 27.390625 
Q 64.5 13.140625 57.4375 5.859375 
Q 50.390625 -1.421875 36.625 -1.421875 
Q 22.796875 -1.421875 15.734375 5.859375 
Q 8.6875 13.140625 8.6875 27.390625 
z
" id="DejaVuSans-85"/>
       <path d="M 34.1875 63.1875 
L 20.796875 26.90625 
L 47.609375 26.90625 
z
M 28.609375 72.90625 
L 39.796875 72.90625 
L 67.578125 0 
L 57.328125 0 
L 50.6875 18.703125 
L 17.828125 18.703125 
L 11.1875 0 
L 0.78125 0 
z
" id="DejaVuSans-65"/>
       <path d="M -0.296875 72.90625 
L 61.375 72.90625 
L 61.375 64.59375 
L 35.5 64.59375 
L 35.5 0 
L 25.59375 0 
L 25.59375 64.59375 
L -0.296875 64.59375 
z
" id="DejaVuSans-84"/>
       <path d="M 44.390625 34.1875 
Q 47.5625 33.109375 50.5625 29.59375 
Q 53.5625 26.078125 56.59375 19.921875 
L 66.609375 0 
L 56 0 
L 46.6875 18.703125 
Q 43.0625 26.03125 39.671875 28.421875 
Q 36.28125 30.8125 30.421875 30.8125 
L 19.671875 30.8125 
L 19.671875 0 
L 9.8125 0 
L 9.8125 72.90625 
L 32.078125 72.90625 
Q 44.578125 72.90625 50.734375 67.671875 
Q 56.890625 62.453125 56.890625 51.90625 
Q 56.890625 45.015625 53.6875 40.46875 
Q 50.484375 35.9375 44.390625 34.1875 
z
M 19.671875 64.796875 
L 19.671875 38.921875 
L 32.078125 38.921875 
Q 39.203125 38.921875 42.84375 42.21875 
Q 46.484375 45.515625 46.484375 51.90625 
Q 46.484375 58.296875 42.84375 61.546875 
Q 39.203125 64.796875 32.078125 64.796875 
z
" id="DejaVuSans-82"/>
       <path d="M 39.40625 66.21875 
Q 28.65625 66.21875 22.328125 58.203125 
Q 16.015625 50.203125 16.015625 36.375 
Q 16.015625 22.609375 22.328125 14.59375 
Q 28.65625 6.59375 39.40625 6.59375 
Q 50.140625 6.59375 56.421875 14.59375 
Q 62.703125 22.609375 62.703125 36.375 
Q 62.703125 50.203125 56.421875 58.203125 
Q 50.140625 66.21875 39.40625 66.21875 
z
M 39.40625 74.21875 
Q 54.734375 74.21875 63.90625 63.9375 
Q 73.09375 53.65625 73.09375 36.375 
Q 73.09375 19.140625 63.90625 8.859375 
Q 54.734375 -1.421875 39.40625 -1.421875 
Q 24.03125 -1.421875 14.8125 8.828125 
Q 5.609375 19.09375 5.609375 36.375 
Q 5.609375 53.65625 14.8125 63.9375 
Q 24.03125 74.21875 39.40625 74.21875 
z
" id="DejaVuSans-79"/>
       <path d="M 50.984375 -16.609375 
L 50.984375 -23.578125 
L -0.984375 -23.578125 
L -0.984375 -16.609375 
z
" id="DejaVuSans-95"/>
       <path d="M 45.40625 27.984375 
Q 45.40625 37.75 41.375 43.109375 
Q 37.359375 48.484375 30.078125 48.484375 
Q 22.859375 48.484375 18.828125 43.109375 
Q 14.796875 37.75 14.796875 27.984375 
Q 14.796875 18.265625 18.828125 12.890625 
Q 22.859375 7.515625 30.078125 7.515625 
Q 37.359375 7.515625 41.375 12.890625 
Q 45.40625 18.265625 45.40625 27.984375 
z
M 54.390625 6.78125 
Q 54.390625 -7.171875 48.1875 -13.984375 
Q 42 -20.796875 29.203125 -20.796875 
Q 24.46875 -20.796875 20.265625 -20.09375 
Q 16.0625 -19.390625 12.109375 -17.921875 
L 12.109375 -9.1875 
Q 16.0625 -11.328125 19.921875 -12.34375 
Q 23.78125 -13.375 27.78125 -13.375 
Q 36.625 -13.375 41.015625 -8.765625 
Q 45.40625 -4.15625 45.40625 5.171875 
L 45.40625 9.625 
Q 42.625 4.78125 38.28125 2.390625 
Q 33.9375 0 27.875 0 
Q 17.828125 0 11.671875 7.65625 
Q 5.515625 15.328125 5.515625 27.984375 
Q 5.515625 40.671875 11.671875 48.328125 
Q 17.828125 56 27.875 56 
Q 33.9375 56 38.28125 53.609375 
Q 42.625 51.21875 45.40625 46.390625 
L 45.40625 54.6875 
L 54.390625 54.6875 
z
" id="DejaVuSans-103"/>
       <path d="M 9.421875 75.984375 
L 18.40625 75.984375 
L 18.40625 0 
L 9.421875 0 
z
" id="DejaVuSans-108"/>
       <path d="M 30.609375 48.390625 
Q 23.390625 48.390625 19.1875 42.75 
Q 14.984375 37.109375 14.984375 27.296875 
Q 14.984375 17.484375 19.15625 11.84375 
Q 23.34375 6.203125 30.609375 6.203125 
Q 37.796875 6.203125 41.984375 11.859375 
Q 46.1875 17.53125 46.1875 27.296875 
Q 46.1875 37.015625 41.984375 42.703125 
Q 37.796875 48.390625 30.609375 48.390625 
z
M 30.609375 56 
Q 42.328125 56 49.015625 48.375 
Q 55.71875 40.765625 55.71875 27.296875 
Q 55.71875 13.875 49.015625 6.21875 
Q 42.328125 -1.421875 30.609375 -1.421875 
Q 18.84375 -1.421875 12.171875 6.21875 
Q 5.515625 13.875 5.515625 27.296875 
Q 5.515625 40.765625 12.171875 48.375 
Q 18.84375 56 30.609375 56 
z
" id="DejaVuSans-111"/>
       <path d="M 48.6875 27.296875 
Q 48.6875 37.203125 44.609375 42.84375 
Q 40.53125 48.484375 33.40625 48.484375 
Q 26.265625 48.484375 22.1875 42.84375 
Q 18.109375 37.203125 18.109375 27.296875 
Q 18.109375 17.390625 22.1875 11.75 
Q 26.265625 6.109375 33.40625 6.109375 
Q 40.53125 6.109375 44.609375 11.75 
Q 48.6875 17.390625 48.6875 27.296875 
z
M 18.109375 46.390625 
Q 20.953125 51.265625 25.265625 53.625 
Q 29.59375 56 35.59375 56 
Q 45.5625 56 51.78125 48.09375 
Q 58.015625 40.1875 58.015625 27.296875 
Q 58.015625 14.40625 51.78125 6.484375 
Q 45.5625 -1.421875 35.59375 -1.421875 
Q 29.59375 -1.421875 25.265625 0.953125 
Q 20.953125 3.328125 18.109375 8.203125 
L 18.109375 0 
L 9.078125 0 
L 9.078125 75.984375 
L 18.109375 75.984375 
z
" id="DejaVuSans-98"/>
       <path d="M 34.28125 27.484375 
Q 23.390625 27.484375 19.1875 25 
Q 14.984375 22.515625 14.984375 16.5 
Q 14.984375 11.71875 18.140625 8.90625 
Q 21.296875 6.109375 26.703125 6.109375 
Q 34.1875 6.109375 38.703125 11.40625 
Q 43.21875 16.703125 43.21875 25.484375 
L 43.21875 27.484375 
z
M 52.203125 31.203125 
L 52.203125 0 
L 43.21875 0 
L 43.21875 8.296875 
Q 40.140625 3.328125 35.546875 0.953125 
Q 30.953125 -1.421875 24.3125 -1.421875 
Q 15.921875 -1.421875 10.953125 3.296875 
Q 6 8.015625 6 15.921875 
Q 6 25.140625 12.171875 29.828125 
Q 18.359375 34.515625 30.609375 34.515625 
L 43.21875 34.515625 
L 43.21875 35.40625 
Q 43.21875 41.609375 39.140625 45 
Q 35.0625 48.390625 27.6875 48.390625 
Q 23 48.390625 18.546875 47.265625 
Q 14.109375 46.140625 10.015625 43.890625 
L 10.015625 52.203125 
Q 14.9375 54.109375 19.578125 55.046875 
Q 24.21875 56 28.609375 56 
Q 40.484375 56 46.34375 49.84375 
Q 52.203125 43.703125 52.203125 31.203125 
z
" id="DejaVuSans-97"/>
      </defs>
      <use xlink:href="#DejaVuSans-67"/>
      <use x="69.824219" xlink:href="#DejaVuSans-85"/>
      <use x="143.017578" xlink:href="#DejaVuSans-65"/>
      <use x="203.675781" xlink:href="#DejaVuSans-84"/>
      <use x="264.759766" xlink:href="#DejaVuSans-82"/>
      <use x="334.242188" xlink:href="#DejaVuSans-79"/>
      <use x="412.953125" xlink:href="#DejaVuSans-95"/>
      <use x="462.953125" xlink:href="#DejaVuSans-103"/>
      <use x="526.429688" xlink:href="#DejaVuSans-108"/>
      <use x="554.212891" xlink:href="#DejaVuSans-111"/>
      <use x="615.394531" xlink:href="#DejaVuSans-98"/>
      <use x="678.871094" xlink:href="#DejaVuSans-97"/>
      <use x="740.150391" xlink:href="#DejaVuSans-108"/>
     </g>
    </g>
    <g id="line2d_29">
     <path d="M 275.004687 135.200312 
L 295.004687 135.200312 
" style="fill:none;stroke:#00bfbf;stroke-linecap:square;stroke-width:1.5;"/>
    </g>
    <g id="line2d_30"/>
    <g id="text_9">
     <!-- CUATRO_local -->
     <g transform="translate(303.004687 138.700312)scale(0.1 -0.1)">
      <defs>
       <path d="M 48.78125 52.59375 
L 48.78125 44.1875 
Q 44.96875 46.296875 41.140625 47.34375 
Q 37.3125 48.390625 33.40625 48.390625 
Q 24.65625 48.390625 19.8125 42.84375 
Q 14.984375 37.3125 14.984375 27.296875 
Q 14.984375 17.28125 19.8125 11.734375 
Q 24.65625 6.203125 33.40625 6.203125 
Q 37.3125 6.203125 41.140625 7.25 
Q 44.96875 8.296875 48.78125 10.40625 
L 48.78125 2.09375 
Q 45.015625 0.34375 40.984375 -0.53125 
Q 36.96875 -1.421875 32.421875 -1.421875 
Q 20.0625 -1.421875 12.78125 6.34375 
Q 5.515625 14.109375 5.515625 27.296875 
Q 5.515625 40.671875 12.859375 48.328125 
Q 20.21875 56 33.015625 56 
Q 37.15625 56 41.109375 55.140625 
Q 45.0625 54.296875 48.78125 52.59375 
z
" id="DejaVuSans-99"/>
      </defs>
      <use xlink:href="#DejaVuSans-67"/>
      <use x="69.824219" xlink:href="#DejaVuSans-85"/>
      <use x="143.017578" xlink:href="#DejaVuSans-65"/>
      <use x="203.675781" xlink:href="#DejaVuSans-84"/>
      <use x="264.759766" xlink:href="#DejaVuSans-82"/>
      <use x="334.242188" xlink:href="#DejaVuSans-79"/>
      <use x="412.953125" xlink:href="#DejaVuSans-95"/>
      <use x="462.953125" xlink:href="#DejaVuSans-108"/>
      <use x="490.736328" xlink:href="#DejaVuSans-111"/>
      <use x="551.917969" xlink:href="#DejaVuSans-99"/>
      <use x="606.898438" xlink:href="#DejaVuSans-97"/>
      <use x="668.177734" xlink:href="#DejaVuSans-108"/>
     </g>
    </g>
    <g id="line2d_31">
     <path d="M 275.004687 150.156563 
L 295.004687 150.156563 
" style="fill:none;stroke:#008000;stroke-linecap:square;stroke-width:1.5;"/>
    </g>
    <g id="line2d_32"/>
    <g id="text_10">
     <!-- Py-BOBYQA  -->
     <g transform="translate(303.004687 153.656563)scale(0.1 -0.1)">
      <defs>
       <path d="M 19.671875 64.796875 
L 19.671875 37.40625 
L 32.078125 37.40625 
Q 38.96875 37.40625 42.71875 40.96875 
Q 46.484375 44.53125 46.484375 51.125 
Q 46.484375 57.671875 42.71875 61.234375 
Q 38.96875 64.796875 32.078125 64.796875 
z
M 9.8125 72.90625 
L 32.078125 72.90625 
Q 44.34375 72.90625 50.609375 67.359375 
Q 56.890625 61.8125 56.890625 51.125 
Q 56.890625 40.328125 50.609375 34.8125 
Q 44.34375 29.296875 32.078125 29.296875 
L 19.671875 29.296875 
L 19.671875 0 
L 9.8125 0 
z
" id="DejaVuSans-80"/>
       <path d="M 32.171875 -5.078125 
Q 28.375 -14.84375 24.75 -17.8125 
Q 21.140625 -20.796875 15.09375 -20.796875 
L 7.90625 -20.796875 
L 7.90625 -13.28125 
L 13.1875 -13.28125 
Q 16.890625 -13.28125 18.9375 -11.515625 
Q 21 -9.765625 23.484375 -3.21875 
L 25.09375 0.875 
L 2.984375 54.6875 
L 12.5 54.6875 
L 29.59375 11.921875 
L 46.6875 54.6875 
L 56.203125 54.6875 
z
" id="DejaVuSans-121"/>
       <path d="M 4.890625 31.390625 
L 31.203125 31.390625 
L 31.203125 23.390625 
L 4.890625 23.390625 
z
" id="DejaVuSans-45"/>
       <path d="M 19.671875 34.8125 
L 19.671875 8.109375 
L 35.5 8.109375 
Q 43.453125 8.109375 47.28125 11.40625 
Q 51.125 14.703125 51.125 21.484375 
Q 51.125 28.328125 47.28125 31.5625 
Q 43.453125 34.8125 35.5 34.8125 
z
M 19.671875 64.796875 
L 19.671875 42.828125 
L 34.28125 42.828125 
Q 41.5 42.828125 45.03125 45.53125 
Q 48.578125 48.25 48.578125 53.8125 
Q 48.578125 59.328125 45.03125 62.0625 
Q 41.5 64.796875 34.28125 64.796875 
z
M 9.8125 72.90625 
L 35.015625 72.90625 
Q 46.296875 72.90625 52.390625 68.21875 
Q 58.5 63.53125 58.5 54.890625 
Q 58.5 48.1875 55.375 44.234375 
Q 52.25 40.28125 46.1875 39.3125 
Q 53.46875 37.75 57.5 32.78125 
Q 61.53125 27.828125 61.53125 20.40625 
Q 61.53125 10.640625 54.890625 5.3125 
Q 48.25 0 35.984375 0 
L 9.8125 0 
z
" id="DejaVuSans-66"/>
       <path d="M -0.203125 72.90625 
L 10.40625 72.90625 
L 30.609375 42.921875 
L 50.6875 72.90625 
L 61.28125 72.90625 
L 35.5 34.71875 
L 35.5 0 
L 25.59375 0 
L 25.59375 34.71875 
z
" id="DejaVuSans-89"/>
       <path d="M 39.40625 66.21875 
Q 28.65625 66.21875 22.328125 58.203125 
Q 16.015625 50.203125 16.015625 36.375 
Q 16.015625 22.609375 22.328125 14.59375 
Q 28.65625 6.59375 39.40625 6.59375 
Q 50.140625 6.59375 56.421875 14.59375 
Q 62.703125 22.609375 62.703125 36.375 
Q 62.703125 50.203125 56.421875 58.203125 
Q 50.140625 66.21875 39.40625 66.21875 
z
M 53.21875 1.3125 
L 66.21875 -12.890625 
L 54.296875 -12.890625 
L 43.5 -1.21875 
Q 41.890625 -1.3125 41.03125 -1.359375 
Q 40.1875 -1.421875 39.40625 -1.421875 
Q 24.03125 -1.421875 14.8125 8.859375 
Q 5.609375 19.140625 5.609375 36.375 
Q 5.609375 53.65625 14.8125 63.9375 
Q 24.03125 74.21875 39.40625 74.21875 
Q 54.734375 74.21875 63.90625 63.9375 
Q 73.09375 53.65625 73.09375 36.375 
Q 73.09375 23.6875 67.984375 14.640625 
Q 62.890625 5.609375 53.21875 1.3125 
z
" id="DejaVuSans-81"/>
       <path id="DejaVuSans-32"/>
      </defs>
      <use xlink:href="#DejaVuSans-80"/>
      <use x="60.302734" xlink:href="#DejaVuSans-121"/>
      <use x="117.732422" xlink:href="#DejaVuSans-45"/>
      <use x="150.191406" xlink:href="#DejaVuSans-66"/>
      <use x="217.044922" xlink:href="#DejaVuSans-79"/>
      <use x="295.755859" xlink:href="#DejaVuSans-66"/>
      <use x="358.859375" xlink:href="#DejaVuSans-89"/>
      <use x="419.943359" xlink:href="#DejaVuSans-81"/>
      <use x="498.654297" xlink:href="#DejaVuSans-65"/>
      <use x="567.0625" xlink:href="#DejaVuSans-32"/>
     </g>
    </g>
    <g id="line2d_33">
     <path d="M 275.004687 164.834688 
L 295.004687 164.834688 
" style="fill:none;stroke:#ffa500;stroke-linecap:square;stroke-width:1.5;"/>
    </g>
    <g id="line2d_34"/>
    <g id="text_11">
     <!-- Snobfit -->
     <g transform="translate(303.004687 168.334688)scale(0.1 -0.1)">
      <defs>
       <path d="M 53.515625 70.515625 
L 53.515625 60.890625 
Q 47.90625 63.578125 42.921875 64.890625 
Q 37.9375 66.21875 33.296875 66.21875 
Q 25.25 66.21875 20.875 63.09375 
Q 16.5 59.96875 16.5 54.203125 
Q 16.5 49.359375 19.40625 46.890625 
Q 22.3125 44.4375 30.421875 42.921875 
L 36.375 41.703125 
Q 47.40625 39.59375 52.65625 34.296875 
Q 57.90625 29 57.90625 20.125 
Q 57.90625 9.515625 50.796875 4.046875 
Q 43.703125 -1.421875 29.984375 -1.421875 
Q 24.8125 -1.421875 18.96875 -0.25 
Q 13.140625 0.921875 6.890625 3.21875 
L 6.890625 13.375 
Q 12.890625 10.015625 18.65625 8.296875 
Q 24.421875 6.59375 29.984375 6.59375 
Q 38.421875 6.59375 43.015625 9.90625 
Q 47.609375 13.234375 47.609375 19.390625 
Q 47.609375 24.75 44.3125 27.78125 
Q 41.015625 30.8125 33.5 32.328125 
L 27.484375 33.5 
Q 16.453125 35.6875 11.515625 40.375 
Q 6.59375 45.0625 6.59375 53.421875 
Q 6.59375 63.09375 13.40625 68.65625 
Q 20.21875 74.21875 32.171875 74.21875 
Q 37.3125 74.21875 42.625 73.28125 
Q 47.953125 72.359375 53.515625 70.515625 
z
" id="DejaVuSans-83"/>
       <path d="M 54.890625 33.015625 
L 54.890625 0 
L 45.90625 0 
L 45.90625 32.71875 
Q 45.90625 40.484375 42.875 44.328125 
Q 39.84375 48.1875 33.796875 48.1875 
Q 26.515625 48.1875 22.3125 43.546875 
Q 18.109375 38.921875 18.109375 30.90625 
L 18.109375 0 
L 9.078125 0 
L 9.078125 54.6875 
L 18.109375 54.6875 
L 18.109375 46.1875 
Q 21.34375 51.125 25.703125 53.5625 
Q 30.078125 56 35.796875 56 
Q 45.21875 56 50.046875 50.171875 
Q 54.890625 44.34375 54.890625 33.015625 
z
" id="DejaVuSans-110"/>
       <path d="M 37.109375 75.984375 
L 37.109375 68.5 
L 28.515625 68.5 
Q 23.6875 68.5 21.796875 66.546875 
Q 19.921875 64.59375 19.921875 59.515625 
L 19.921875 54.6875 
L 34.71875 54.6875 
L 34.71875 47.703125 
L 19.921875 47.703125 
L 19.921875 0 
L 10.890625 0 
L 10.890625 47.703125 
L 2.296875 47.703125 
L 2.296875 54.6875 
L 10.890625 54.6875 
L 10.890625 58.5 
Q 10.890625 67.625 15.140625 71.796875 
Q 19.390625 75.984375 28.609375 75.984375 
z
" id="DejaVuSans-102"/>
       <path d="M 9.421875 54.6875 
L 18.40625 54.6875 
L 18.40625 0 
L 9.421875 0 
z
M 9.421875 75.984375 
L 18.40625 75.984375 
L 18.40625 64.59375 
L 9.421875 64.59375 
z
" id="DejaVuSans-105"/>
       <path d="M 18.3125 70.21875 
L 18.3125 54.6875 
L 36.8125 54.6875 
L 36.8125 47.703125 
L 18.3125 47.703125 
L 18.3125 18.015625 
Q 18.3125 11.328125 20.140625 9.421875 
Q 21.96875 7.515625 27.59375 7.515625 
L 36.8125 7.515625 
L 36.8125 0 
L 27.59375 0 
Q 17.1875 0 13.234375 3.875 
Q 9.28125 7.765625 9.28125 18.015625 
L 9.28125 47.703125 
L 2.6875 47.703125 
L 2.6875 54.6875 
L 9.28125 54.6875 
L 9.28125 70.21875 
z
" id="DejaVuSans-116"/>
      </defs>
      <use xlink:href="#DejaVuSans-83"/>
      <use x="63.476562" xlink:href="#DejaVuSans-110"/>
      <use x="126.855469" xlink:href="#DejaVuSans-111"/>
      <use x="188.037109" xlink:href="#DejaVuSans-98"/>
      <use x="251.513672" xlink:href="#DejaVuSans-102"/>
      <use x="286.71875" xlink:href="#DejaVuSans-105"/>
      <use x="314.501953" xlink:href="#DejaVuSans-116"/>
     </g>
    </g>
   </g>
  </g>
 </g>
 <defs>
  <clipPath id="pe345257dc8">
   <rect height="217.44" width="334.8" x="54" y="34.56"/>
  </clipPath>
 </defs>
</svg>
