<?xml version="1.0" encoding="utf-8" standalone="no"?>
<!DOCTYPE svg PUBLIC "-//W3C//DTD SVG 1.1//EN"
  "http://www.w3.org/Graphics/SVG/1.1/DTD/svg11.dtd">
<!-- Created with matplotlib (https://matplotlib.org/) -->
<svg height="288pt" version="1.1" viewBox="0 0 432 288" width="432pt" xmlns="http://www.w3.org/2000/svg" xmlns:xlink="http://www.w3.org/1999/xlink">
 <metadata>
  <rdf:RDF xmlns:cc="http://creativecommons.org/ns#" xmlns:dc="http://purl.org/dc/elements/1.1/" xmlns:rdf="http://www.w3.org/1999/02/22-rdf-syntax-ns#">
   <cc:Work>
    <dc:type rdf:resource="http://purl.org/dc/dcmitype/StillImage"/>
    <dc:date>2021-04-01T00:29:11.582859</dc:date>
    <dc:format>image/svg+xml</dc:format>
    <dc:creator>
     <cc:Agent>
      <dc:title>Matplotlib v3.3.4, https://matplotlib.org/</dc:title>
     </cc:Agent>
    </dc:creator>
   </cc:Work>
  </rdf:RDF>
 </metadata>
 <defs>
  <style type="text/css">*{stroke-linecap:butt;stroke-linejoin:round;}</style>
 </defs>
 <g id="figure_1">
  <g id="patch_1">
   <path d="M 0 288 
L 432 288 
L 432 0 
L 0 0 
z
" style="fill:#ffffff;"/>
  </g>
  <g id="axes_1">
   <g id="patch_2">
    <path d="M 54 252 
L 388.8 252 
L 388.8 34.56 
L 54 34.56 
z
" style="fill:#ffffff;"/>
   </g>
   <g id="PolyCollection_1">
    <defs>
     <path d="M 57.381818 -243.556364 
L 57.381818 -242.867866 
L 60.763636 -242.867866 
L 64.145455 -242.867866 
L 67.527273 -242.867866 
L 70.909091 -242.867866 
L 74.290909 -242.867866 
L 77.672727 -242.867866 
L 81.054545 -242.867866 
L 84.436364 -242.867866 
L 87.818182 -242.867866 
L 91.2 -242.867866 
L 94.581818 -242.867866 
L 97.963636 -242.867866 
L 101.345455 -242.867866 
L 104.727273 -242.867866 
L 108.109091 -242.867866 
L 111.490909 -57.535927 
L 114.872727 -57.535927 
L 118.254545 -57.535927 
L 121.636364 -57.535927 
L 125.018182 -57.535927 
L 128.4 -57.535927 
L 131.781818 -57.535927 
L 135.163636 -57.535927 
L 138.545455 -57.535927 
L 141.927273 -57.535927 
L 145.309091 -57.535927 
L 148.690909 -56.487689 
L 152.072727 -46.021924 
L 155.454545 -45.883636 
L 158.836364 -45.883636 
L 162.218182 -45.883636 
L 165.6 -45.883636 
L 168.981818 -45.883636 
L 172.363636 -45.883636 
L 175.745455 -45.883636 
L 179.127273 -45.883636 
L 182.509091 -45.883636 
L 185.890909 -45.883636 
L 189.272727 -45.883636 
L 192.654545 -45.883636 
L 196.036364 -45.883636 
L 199.418182 -45.883636 
L 202.8 -45.883636 
L 206.181818 -45.883636 
L 209.563636 -45.883636 
L 212.945455 -45.883636 
L 216.327273 -45.883636 
L 219.709091 -45.883636 
L 223.090909 -45.883636 
L 226.472727 -45.883636 
L 229.854545 -45.883636 
L 233.236364 -45.883636 
L 236.618182 -45.883636 
L 240 -45.883636 
L 243.381818 -45.883636 
L 246.763636 -45.883636 
L 250.145455 -45.883636 
L 253.527273 -45.883636 
L 256.909091 -45.883636 
L 260.290909 -45.883636 
L 263.672727 -45.883636 
L 267.054545 -45.883636 
L 270.436364 -45.883636 
L 273.818182 -45.883636 
L 277.2 -45.883636 
L 280.581818 -45.883636 
L 283.963636 -45.883636 
L 287.345455 -45.883636 
L 290.727273 -45.883636 
L 294.109091 -45.883636 
L 297.490909 -45.883636 
L 300.872727 -45.883636 
L 304.254545 -45.883636 
L 307.636364 -45.883636 
L 311.018182 -45.883636 
L 314.4 -45.883636 
L 317.781818 -45.883636 
L 321.163636 -45.883636 
L 324.545455 -45.883636 
L 327.927273 -45.883636 
L 331.309091 -45.883636 
L 334.690909 -45.883636 
L 338.072727 -45.883636 
L 341.454545 -45.883636 
L 344.836364 -45.883636 
L 348.218182 -45.883636 
L 351.6 -45.883636 
L 354.981818 -45.883636 
L 358.363636 -45.883636 
L 361.745455 -45.883636 
L 365.127273 -45.883636 
L 368.509091 -45.883636 
L 371.890909 -45.883636 
L 375.272727 -45.883636 
L 378.654545 -45.883636 
L 382.036364 -45.883636 
L 385.418182 -45.883636 
L 388.8 -45.883636 
L 392.181818 -45.883636 
L 392.181818 -52.240328 
L 392.181818 -52.240328 
L 388.8 -52.240328 
L 385.418182 -52.240328 
L 382.036364 -52.240328 
L 378.654545 -52.240328 
L 375.272727 -52.240328 
L 371.890909 -52.240328 
L 368.509091 -52.240328 
L 365.127273 -52.240328 
L 361.745455 -52.240328 
L 358.363636 -52.240328 
L 354.981818 -52.240328 
L 351.6 -52.240328 
L 348.218182 -52.240328 
L 344.836364 -52.240328 
L 341.454545 -52.240328 
L 338.072727 -52.240328 
L 334.690909 -52.240328 
L 331.309091 -52.240328 
L 327.927273 -52.240328 
L 324.545455 -52.240328 
L 321.163636 -52.240328 
L 317.781818 -52.240328 
L 314.4 -52.240328 
L 311.018182 -52.240328 
L 307.636364 -52.240328 
L 304.254545 -52.240328 
L 300.872727 -52.240328 
L 297.490909 -52.240328 
L 294.109091 -52.240328 
L 290.727273 -52.240328 
L 287.345455 -52.240328 
L 283.963636 -52.240328 
L 280.581818 -52.240328 
L 277.2 -52.240328 
L 273.818182 -52.240328 
L 270.436364 -52.240328 
L 267.054545 -52.240328 
L 263.672727 -52.240328 
L 260.290909 -52.240328 
L 256.909091 -52.240328 
L 253.527273 -52.240328 
L 250.145455 -52.240328 
L 246.763636 -52.240328 
L 243.381818 -52.240328 
L 240 -52.240328 
L 236.618182 -52.240328 
L 233.236364 -52.240328 
L 229.854545 -52.240328 
L 226.472727 -52.240328 
L 223.090909 -52.240328 
L 219.709091 -52.240328 
L 216.327273 -52.240328 
L 212.945455 -52.240328 
L 209.563636 -52.240328 
L 206.181818 -55.087008 
L 202.8 -55.087008 
L 199.418182 -55.087008 
L 196.036364 -55.087008 
L 192.654545 -55.087008 
L 189.272727 -59.492767 
L 185.890909 -59.492767 
L 182.509091 -59.492767 
L 179.127273 -59.492767 
L 175.745455 -59.492767 
L 172.363636 -59.492767 
L 168.981818 -59.492767 
L 165.6 -66.92112 
L 162.218182 -66.92112 
L 158.836364 -70.500768 
L 155.454545 -72.507092 
L 152.072727 -93.383666 
L 148.690909 -93.383666 
L 145.309091 -93.383666 
L 141.927273 -93.383666 
L 138.545455 -96.931502 
L 135.163636 -96.931502 
L 131.781818 -130.316034 
L 128.4 -130.316034 
L 125.018182 -130.316034 
L 121.636364 -141.26659 
L 118.254545 -141.26659 
L 114.872727 -141.26659 
L 111.490909 -141.26659 
L 108.109091 -243.556364 
L 104.727273 -243.556364 
L 101.345455 -243.556364 
L 97.963636 -243.556364 
L 94.581818 -243.556364 
L 91.2 -243.556364 
L 87.818182 -243.556364 
L 84.436364 -243.556364 
L 81.054545 -243.556364 
L 77.672727 -243.556364 
L 74.290909 -243.556364 
L 70.909091 -243.556364 
L 67.527273 -243.556364 
L 64.145455 -243.556364 
L 60.763636 -243.556364 
L 57.381818 -243.556364 
z
" id="m3e9cecc556" style="stroke:#0000ff;stroke-opacity:0.5;"/>
    </defs>
    <g clip-path="url(#pd0269fad4a)">
     <use style="fill:#0000ff;fill-opacity:0.5;stroke:#0000ff;stroke-opacity:0.5;" x="0" xlink:href="#m3e9cecc556" y="288"/>
    </g>
   </g>
   <g id="PolyCollection_2">
    <defs>
     <path d="M 57.381818 -243.556364 
L 57.381818 -242.867866 
L 60.763636 -242.867866 
L 64.145455 -242.867866 
L 67.527273 -242.867866 
L 70.909091 -242.867866 
L 74.290909 -242.867866 
L 77.672727 -242.867866 
L 81.054545 -53.503223 
L 84.436364 -53.503223 
L 87.818182 -48.134234 
L 91.2 -48.134234 
L 94.581818 -48.134234 
L 97.963636 -48.134234 
L 101.345455 -48.134234 
L 104.727273 -48.134234 
L 108.109091 -48.134234 
L 111.490909 -48.134234 
L 114.872727 -48.134234 
L 118.254545 -48.134234 
L 121.636364 -48.134234 
L 125.018182 -46.940517 
L 128.4 -46.940517 
L 131.781818 -46.940517 
L 135.163636 -46.940517 
L 138.545455 -46.940517 
L 141.927273 -46.940517 
L 145.309091 -46.940517 
L 148.690909 -46.940517 
L 152.072727 -46.940517 
L 155.454545 -46.940517 
L 158.836364 -46.940517 
L 162.218182 -46.940517 
L 165.6 -46.940517 
L 168.981818 -46.940517 
L 172.363636 -46.940517 
L 175.745455 -46.940517 
L 179.127273 -46.940517 
L 182.509091 -46.940517 
L 185.890909 -46.940517 
L 189.272727 -46.940517 
L 192.654545 -46.940517 
L 196.036364 -46.940517 
L 199.418182 -46.940517 
L 202.8 -46.940517 
L 206.181818 -46.940517 
L 209.563636 -46.940517 
L 212.945455 -46.940517 
L 216.327273 -46.940517 
L 219.709091 -46.940517 
L 223.090909 -46.940517 
L 226.472727 -46.940517 
L 229.854545 -46.940517 
L 233.236364 -46.940517 
L 236.618182 -46.940517 
L 240 -46.940517 
L 243.381818 -46.940517 
L 246.763636 -46.940517 
L 250.145455 -46.940517 
L 253.527273 -46.940517 
L 256.909091 -46.940517 
L 260.290909 -46.940517 
L 263.672727 -46.940517 
L 267.054545 -46.940517 
L 270.436364 -46.940517 
L 273.818182 -46.940517 
L 277.2 -46.940517 
L 280.581818 -46.940517 
L 283.963636 -46.940517 
L 287.345455 -46.940517 
L 290.727273 -46.940517 
L 294.109091 -46.940517 
L 297.490909 -46.940517 
L 300.872727 -46.940517 
L 304.254545 -46.940517 
L 307.636364 -46.940517 
L 311.018182 -46.940517 
L 314.4 -46.940517 
L 317.781818 -46.940517 
L 321.163636 -46.940517 
L 324.545455 -46.940517 
L 327.927273 -46.940517 
L 331.309091 -46.940517 
L 334.690909 -46.940517 
L 338.072727 -46.940517 
L 341.454545 -46.940517 
L 344.836364 -46.940517 
L 348.218182 -46.940517 
L 351.6 -46.940517 
L 354.981818 -46.940517 
L 358.363636 -46.940517 
L 361.745455 -46.940517 
L 365.127273 -46.940517 
L 368.509091 -46.940517 
L 371.890909 -46.940517 
L 375.272727 -46.940517 
L 378.654545 -46.940517 
L 382.036364 -46.940517 
L 385.418182 -46.940517 
L 388.8 -46.940517 
L 392.181818 -46.940517 
L 392.181818 -51.842637 
L 392.181818 -51.842637 
L 388.8 -51.842637 
L 385.418182 -51.842637 
L 382.036364 -51.842637 
L 378.654545 -51.842637 
L 375.272727 -51.842637 
L 371.890909 -52.491514 
L 368.509091 -52.491514 
L 365.127273 -52.491514 
L 361.745455 -52.491514 
L 358.363636 -52.491514 
L 354.981818 -52.491514 
L 351.6 -52.491514 
L 348.218182 -52.491514 
L 344.836364 -52.491514 
L 341.454545 -52.491514 
L 338.072727 -52.491514 
L 334.690909 -52.491514 
L 331.309091 -52.491514 
L 327.927273 -52.491514 
L 324.545455 -52.491514 
L 321.163636 -52.491514 
L 317.781818 -52.491514 
L 314.4 -52.491514 
L 311.018182 -52.491514 
L 307.636364 -52.491514 
L 304.254545 -52.491514 
L 300.872727 -52.491514 
L 297.490909 -52.491514 
L 294.109091 -52.491514 
L 290.727273 -52.491514 
L 287.345455 -52.491514 
L 283.963636 -52.491514 
L 280.581818 -52.491514 
L 277.2 -52.491514 
L 273.818182 -52.491514 
L 270.436364 -52.491514 
L 267.054545 -52.491514 
L 263.672727 -52.491514 
L 260.290909 -52.491514 
L 256.909091 -52.491514 
L 253.527273 -52.491514 
L 250.145455 -52.491514 
L 246.763636 -52.491514 
L 243.381818 -52.491514 
L 240 -52.491514 
L 236.618182 -52.491514 
L 233.236364 -52.491514 
L 229.854545 -52.956342 
L 226.472727 -52.956342 
L 223.090909 -52.956342 
L 219.709091 -52.956342 
L 216.327273 -52.956342 
L 212.945455 -52.956342 
L 209.563636 -52.956342 
L 206.181818 -52.956342 
L 202.8 -53.067708 
L 199.418182 -53.067708 
L 196.036364 -53.067708 
L 192.654545 -53.067708 
L 189.272727 -53.067708 
L 185.890909 -53.067708 
L 182.509091 -57.228387 
L 179.127273 -57.228387 
L 175.745455 -57.228387 
L 172.363636 -57.228387 
L 168.981818 -57.228387 
L 165.6 -57.228387 
L 162.218182 -57.228387 
L 158.836364 -60.299215 
L 155.454545 -60.299215 
L 152.072727 -60.299215 
L 148.690909 -60.811833 
L 145.309091 -60.811833 
L 141.927273 -60.811833 
L 138.545455 -60.811833 
L 135.163636 -60.811833 
L 131.781818 -60.811833 
L 128.4 -60.811833 
L 125.018182 -60.811833 
L 121.636364 -83.85935 
L 118.254545 -83.85935 
L 114.872727 -144.745152 
L 111.490909 -144.745152 
L 108.109091 -144.745152 
L 104.727273 -144.745152 
L 101.345455 -144.745152 
L 97.963636 -157.189437 
L 94.581818 -157.189437 
L 91.2 -213.972011 
L 87.818182 -213.972011 
L 84.436364 -213.972011 
L 81.054545 -213.972011 
L 77.672727 -243.556364 
L 74.290909 -243.556364 
L 70.909091 -243.556364 
L 67.527273 -243.556364 
L 64.145455 -243.556364 
L 60.763636 -243.556364 
L 57.381818 -243.556364 
z
" id="me2a2f96526" style="stroke:#00bfbf;stroke-opacity:0.5;"/>
    </defs>
    <g clip-path="url(#pd0269fad4a)">
     <use style="fill:#00bfbf;fill-opacity:0.5;stroke:#00bfbf;stroke-opacity:0.5;" x="0" xlink:href="#me2a2f96526" y="288"/>
    </g>
   </g>
   <g id="PolyCollection_3">
    <defs>
     <path d="M 60.763636 -243.548726 
L 60.763636 -242.511475 
L 64.145455 -242.511475 
L 67.527273 -242.511475 
L 70.909091 -240.624469 
L 74.290909 -228.662041 
L 77.672727 -213.375189 
L 81.054545 -134.760769 
L 84.436364 -65.126874 
L 87.818182 -65.126874 
L 91.2 -65.126874 
L 94.581818 -65.126874 
L 97.963636 -65.126874 
L 101.345455 -63.453314 
L 104.727273 -61.929213 
L 108.109091 -60.731686 
L 111.490909 -59.276266 
L 114.872727 -59.276266 
L 118.254545 -59.276266 
L 121.636364 -59.276266 
L 125.018182 -59.276266 
L 128.4 -59.276266 
L 131.781818 -59.276266 
L 135.163636 -59.276266 
L 138.545455 -53.769419 
L 141.927273 -53.769419 
L 145.309091 -53.769419 
L 148.690909 -53.769419 
L 152.072727 -53.769419 
L 155.454545 -53.769419 
L 158.836364 -53.769419 
L 162.218182 -53.769419 
L 165.6 -53.769419 
L 168.981818 -53.769419 
L 172.363636 -53.769419 
L 175.745455 -53.769419 
L 179.127273 -53.769419 
L 182.509091 -53.769419 
L 185.890909 -53.769419 
L 189.272727 -53.769419 
L 192.654545 -53.769419 
L 196.036364 -53.769419 
L 199.418182 -53.769419 
L 202.8 -53.769419 
L 206.181818 -53.769419 
L 209.563636 -53.769419 
L 212.945455 -53.769419 
L 216.327273 -53.769419 
L 219.709091 -53.769419 
L 223.090909 -53.769419 
L 226.472727 -53.769419 
L 229.854545 -53.769419 
L 233.236364 -53.769419 
L 236.618182 -53.769419 
L 240 -53.769419 
L 243.381818 -53.769419 
L 246.763636 -53.769419 
L 250.145455 -53.769419 
L 253.527273 -53.769419 
L 256.909091 -53.769419 
L 260.290909 -53.769419 
L 263.672727 -53.769419 
L 267.054545 -53.769419 
L 270.436364 -53.769419 
L 273.818182 -53.769419 
L 277.2 -53.769419 
L 280.581818 -53.769419 
L 283.963636 -53.769419 
L 287.345455 -53.769419 
L 290.727273 -53.769419 
L 294.109091 -53.769419 
L 297.490909 -53.769419 
L 300.872727 -53.769419 
L 304.254545 -53.769419 
L 307.636364 -53.769419 
L 311.018182 -53.769419 
L 314.4 -53.769419 
L 317.781818 -53.769419 
L 321.163636 -53.769419 
L 324.545455 -53.769419 
L 327.927273 -53.769419 
L 331.309091 -53.769419 
L 334.690909 -53.769419 
L 338.072727 -53.769419 
L 341.454545 -53.769419 
L 344.836364 -53.769419 
L 348.218182 -53.769419 
L 351.6 -53.769419 
L 354.981818 -53.769419 
L 358.363636 -53.769419 
L 361.745455 -53.769419 
L 365.127273 -53.769419 
L 368.509091 -53.769419 
L 371.890909 -53.769419 
L 375.272727 -53.769419 
L 378.654545 -53.769419 
L 382.036364 -53.769419 
L 385.418182 -53.769419 
L 388.8 -53.769419 
L 392.181818 -53.769419 
L 392.181818 -115.294728 
L 392.181818 -115.294728 
L 388.8 -115.294728 
L 385.418182 -115.294728 
L 382.036364 -115.294728 
L 378.654545 -115.294728 
L 375.272727 -115.294728 
L 371.890909 -115.294728 
L 368.509091 -115.294728 
L 365.127273 -115.294728 
L 361.745455 -115.294728 
L 358.363636 -115.294728 
L 354.981818 -115.294728 
L 351.6 -115.294728 
L 348.218182 -115.294728 
L 344.836364 -115.294728 
L 341.454545 -115.294728 
L 338.072727 -115.294728 
L 334.690909 -115.294728 
L 331.309091 -115.294728 
L 327.927273 -115.294728 
L 324.545455 -115.294728 
L 321.163636 -115.294728 
L 317.781818 -115.294728 
L 314.4 -115.294728 
L 311.018182 -115.294728 
L 307.636364 -115.294728 
L 304.254545 -115.294728 
L 300.872727 -115.294728 
L 297.490909 -115.294728 
L 294.109091 -115.294728 
L 290.727273 -115.294728 
L 287.345455 -115.294728 
L 283.963636 -115.294728 
L 280.581818 -115.294728 
L 277.2 -115.294728 
L 273.818182 -115.294728 
L 270.436364 -115.294728 
L 267.054545 -115.294728 
L 263.672727 -115.294728 
L 260.290909 -115.294728 
L 256.909091 -115.294728 
L 253.527273 -115.294728 
L 250.145455 -115.294728 
L 246.763636 -115.294728 
L 243.381818 -115.294728 
L 240 -115.294728 
L 236.618182 -115.294728 
L 233.236364 -115.294728 
L 229.854545 -115.294728 
L 226.472727 -115.294728 
L 223.090909 -115.294728 
L 219.709091 -115.294728 
L 216.327273 -115.294728 
L 212.945455 -115.294728 
L 209.563636 -115.294728 
L 206.181818 -115.294728 
L 202.8 -115.294728 
L 199.418182 -115.294728 
L 196.036364 -115.294728 
L 192.654545 -115.294728 
L 189.272727 -115.457271 
L 185.890909 -115.457271 
L 182.509091 -115.457271 
L 179.127273 -115.457271 
L 175.745455 -115.457271 
L 172.363636 -115.457271 
L 168.981818 -115.457271 
L 165.6 -116.083378 
L 162.218182 -116.083378 
L 158.836364 -116.083378 
L 155.454545 -116.816828 
L 152.072727 -116.816828 
L 148.690909 -116.816828 
L 145.309091 -116.816828 
L 141.927273 -116.816828 
L 138.545455 -116.816828 
L 135.163636 -116.816828 
L 131.781818 -116.816828 
L 128.4 -116.816828 
L 125.018182 -116.816828 
L 121.636364 -116.816828 
L 118.254545 -119.627501 
L 114.872727 -122.954716 
L 111.490909 -122.954716 
L 108.109091 -128.353397 
L 104.727273 -133.799931 
L 101.345455 -133.799931 
L 97.963636 -135.864373 
L 94.581818 -135.864373 
L 91.2 -135.864373 
L 87.818182 -135.864373 
L 84.436364 -137.095881 
L 81.054545 -139.53896 
L 77.672727 -214.61156 
L 74.290909 -230.21431 
L 70.909091 -241.563643 
L 67.527273 -243.548726 
L 64.145455 -243.548726 
L 60.763636 -243.548726 
z
" id="m48beb5a849" style="stroke:#008000;stroke-opacity:0.5;"/>
    </defs>
    <g clip-path="url(#pd0269fad4a)">
     <use style="fill:#008000;fill-opacity:0.5;stroke:#008000;stroke-opacity:0.5;" x="0" xlink:href="#m48beb5a849" y="288"/>
    </g>
   </g>
   <g id="PolyCollection_4">
    <defs>
     <path d="M 60.763636 -243.303459 
L 60.763636 -242.15364 
L 64.145455 -242.15364 
L 67.527273 -242.15364 
L 70.909091 -242.15364 
L 74.290909 -242.15364 
L 77.672727 -112.961414 
L 81.054545 -112.961414 
L 84.436364 -101.242277 
L 87.818182 -101.242277 
L 91.2 -101.242277 
L 94.581818 -101.242277 
L 97.963636 -101.242277 
L 101.345455 -94.240998 
L 104.727273 -94.240998 
L 108.109091 -94.240998 
L 111.490909 -83.915728 
L 114.872727 -83.915728 
L 118.254545 -83.915728 
L 121.636364 -83.915728 
L 125.018182 -83.915728 
L 128.4 -83.915728 
L 131.781818 -83.915728 
L 135.163636 -83.915728 
L 138.545455 -83.915728 
L 141.927273 -78.958485 
L 145.309091 -78.958485 
L 148.690909 -78.958485 
L 152.072727 -78.958485 
L 155.454545 -78.958485 
L 158.836364 -78.958485 
L 162.218182 -78.958485 
L 165.6 -78.958485 
L 168.981818 -78.958485 
L 172.363636 -78.958485 
L 175.745455 -72.191268 
L 179.127273 -72.191268 
L 182.509091 -72.191268 
L 185.890909 -72.191268 
L 189.272727 -72.191268 
L 192.654545 -72.191268 
L 196.036364 -72.191268 
L 199.418182 -72.191268 
L 202.8 -72.191268 
L 206.181818 -72.191268 
L 209.563636 -72.191268 
L 212.945455 -59.609176 
L 216.327273 -59.609176 
L 219.709091 -59.609176 
L 223.090909 -59.609176 
L 226.472727 -59.609176 
L 229.854545 -59.609176 
L 233.236364 -59.609176 
L 236.618182 -59.609176 
L 240 -59.609176 
L 243.381818 -59.609176 
L 246.763636 -59.609176 
L 250.145455 -59.609176 
L 253.527273 -59.609176 
L 256.909091 -59.609176 
L 260.290909 -59.609176 
L 263.672727 -59.609176 
L 267.054545 -59.609176 
L 270.436364 -59.609176 
L 273.818182 -59.609176 
L 277.2 -59.609176 
L 280.581818 -59.609176 
L 283.963636 -59.609176 
L 287.345455 -59.609176 
L 290.727273 -59.609176 
L 294.109091 -59.609176 
L 297.490909 -59.609176 
L 300.872727 -59.609176 
L 304.254545 -59.609176 
L 307.636364 -59.609176 
L 311.018182 -59.609176 
L 314.4 -59.609176 
L 317.781818 -59.609176 
L 321.163636 -59.609176 
L 324.545455 -59.609176 
L 327.927273 -59.609176 
L 331.309091 -59.609176 
L 334.690909 -59.609176 
L 338.072727 -59.609176 
L 341.454545 -59.609176 
L 344.836364 -59.609176 
L 348.218182 -59.609176 
L 351.6 -59.609176 
L 354.981818 -59.609176 
L 358.363636 -59.609176 
L 361.745455 -59.609176 
L 365.127273 -59.609176 
L 368.509091 -59.609176 
L 371.890909 -59.609176 
L 375.272727 -59.609176 
L 378.654545 -59.609176 
L 382.036364 -59.609176 
L 385.418182 -59.609176 
L 388.8 -59.609176 
L 392.181818 -59.609176 
L 392.181818 -79.069402 
L 392.181818 -79.069402 
L 388.8 -79.069402 
L 385.418182 -79.069402 
L 382.036364 -79.069402 
L 378.654545 -87.113867 
L 375.272727 -87.113867 
L 371.890909 -87.113867 
L 368.509091 -87.113867 
L 365.127273 -87.113867 
L 361.745455 -87.113867 
L 358.363636 -87.113867 
L 354.981818 -87.113867 
L 351.6 -87.113867 
L 348.218182 -87.113867 
L 344.836364 -87.113867 
L 341.454545 -87.113867 
L 338.072727 -87.113867 
L 334.690909 -87.113867 
L 331.309091 -89.189742 
L 327.927273 -89.189742 
L 324.545455 -89.189742 
L 321.163636 -89.189742 
L 317.781818 -89.189742 
L 314.4 -89.189742 
L 311.018182 -89.189742 
L 307.636364 -93.513842 
L 304.254545 -93.513842 
L 300.872727 -93.513842 
L 297.490909 -93.513842 
L 294.109091 -93.513842 
L 290.727273 -93.513842 
L 287.345455 -93.513842 
L 283.963636 -93.513842 
L 280.581818 -93.513842 
L 277.2 -115.116876 
L 273.818182 -115.116876 
L 270.436364 -115.116876 
L 267.054545 -115.116876 
L 263.672727 -115.116876 
L 260.290909 -115.116876 
L 256.909091 -115.116876 
L 253.527273 -115.116876 
L 250.145455 -115.116876 
L 246.763636 -115.116876 
L 243.381818 -115.116876 
L 240 -115.116876 
L 236.618182 -115.116876 
L 233.236364 -115.116876 
L 229.854545 -115.116876 
L 226.472727 -115.116876 
L 223.090909 -115.116876 
L 219.709091 -115.116876 
L 216.327273 -115.116876 
L 212.945455 -115.116876 
L 209.563636 -115.116876 
L 206.181818 -115.116876 
L 202.8 -115.116876 
L 199.418182 -115.116876 
L 196.036364 -115.116876 
L 192.654545 -115.116876 
L 189.272727 -115.116876 
L 185.890909 -115.116876 
L 182.509091 -115.116876 
L 179.127273 -115.116876 
L 175.745455 -115.116876 
L 172.363636 -115.116876 
L 168.981818 -115.116876 
L 165.6 -115.116876 
L 162.218182 -115.116876 
L 158.836364 -115.116876 
L 155.454545 -115.116876 
L 152.072727 -115.116876 
L 148.690909 -115.116876 
L 145.309091 -115.116876 
L 141.927273 -115.116876 
L 138.545455 -119.41777 
L 135.163636 -119.41777 
L 131.781818 -119.41777 
L 128.4 -119.41777 
L 125.018182 -119.41777 
L 121.636364 -119.41777 
L 118.254545 -122.562777 
L 114.872727 -122.562777 
L 111.490909 -123.201158 
L 108.109091 -123.201158 
L 104.727273 -123.201158 
L 101.345455 -123.201158 
L 97.963636 -123.201158 
L 94.581818 -242.625995 
L 91.2 -242.625995 
L 87.818182 -242.625995 
L 84.436364 -242.625995 
L 81.054545 -243.147937 
L 77.672727 -243.147937 
L 74.290909 -243.303459 
L 70.909091 -243.303459 
L 67.527273 -243.303459 
L 64.145455 -243.303459 
L 60.763636 -243.303459 
z
" id="md6a3ccffac" style="stroke:#ffa500;stroke-opacity:0.5;"/>
    </defs>
    <g clip-path="url(#pd0269fad4a)">
     <use style="fill:#ffa500;fill-opacity:0.5;stroke:#ffa500;stroke-opacity:0.5;" x="0" xlink:href="#md6a3ccffac" y="288"/>
    </g>
   </g>
   <g id="matplotlib.axis_1">
    <g id="xtick_1">
     <g id="line2d_1">
      <defs>
       <path d="M 0 0 
L 0 3.5 
" id="m15b649548a" style="stroke:#000000;stroke-width:0.8;"/>
      </defs>
      <g>
       <use style="stroke:#000000;stroke-width:0.8;" x="54" xlink:href="#m15b649548a" y="252"/>
      </g>
     </g>
     <g id="text_1">
      <!-- 0 -->
      <g transform="translate(50.81875 266.598437)scale(0.1 -0.1)">
       <defs>
        <path d="M 31.78125 66.40625 
Q 24.171875 66.40625 20.328125 58.90625 
Q 16.5 51.421875 16.5 36.375 
Q 16.5 21.390625 20.328125 13.890625 
Q 24.171875 6.390625 31.78125 6.390625 
Q 39.453125 6.390625 43.28125 13.890625 
Q 47.125 21.390625 47.125 36.375 
Q 47.125 51.421875 43.28125 58.90625 
Q 39.453125 66.40625 31.78125 66.40625 
z
M 31.78125 74.21875 
Q 44.046875 74.21875 50.515625 64.515625 
Q 56.984375 54.828125 56.984375 36.375 
Q 56.984375 17.96875 50.515625 8.265625 
Q 44.046875 -1.421875 31.78125 -1.421875 
Q 19.53125 -1.421875 13.0625 8.265625 
Q 6.59375 17.96875 6.59375 36.375 
Q 6.59375 54.828125 13.0625 64.515625 
Q 19.53125 74.21875 31.78125 74.21875 
z
" id="DejaVuSans-48"/>
       </defs>
       <use xlink:href="#DejaVuSans-48"/>
      </g>
     </g>
    </g>
    <g id="xtick_2">
     <g id="line2d_2">
      <g>
       <use style="stroke:#000000;stroke-width:0.8;" x="121.636364" xlink:href="#m15b649548a" y="252"/>
      </g>
     </g>
     <g id="text_2">
      <!-- 20 -->
      <g transform="translate(115.273864 266.598437)scale(0.1 -0.1)">
       <defs>
        <path d="M 19.1875 8.296875 
L 53.609375 8.296875 
L 53.609375 0 
L 7.328125 0 
L 7.328125 8.296875 
Q 12.9375 14.109375 22.625 23.890625 
Q 32.328125 33.6875 34.8125 36.53125 
Q 39.546875 41.84375 41.421875 45.53125 
Q 43.3125 49.21875 43.3125 52.78125 
Q 43.3125 58.59375 39.234375 62.25 
Q 35.15625 65.921875 28.609375 65.921875 
Q 23.96875 65.921875 18.8125 64.3125 
Q 13.671875 62.703125 7.8125 59.421875 
L 7.8125 69.390625 
Q 13.765625 71.78125 18.9375 73 
Q 24.125 74.21875 28.421875 74.21875 
Q 39.75 74.21875 46.484375 68.546875 
Q 53.21875 62.890625 53.21875 53.421875 
Q 53.21875 48.921875 51.53125 44.890625 
Q 49.859375 40.875 45.40625 35.40625 
Q 44.1875 33.984375 37.640625 27.21875 
Q 31.109375 20.453125 19.1875 8.296875 
z
" id="DejaVuSans-50"/>
       </defs>
       <use xlink:href="#DejaVuSans-50"/>
       <use x="63.623047" xlink:href="#DejaVuSans-48"/>
      </g>
     </g>
    </g>
    <g id="xtick_3">
     <g id="line2d_3">
      <g>
       <use style="stroke:#000000;stroke-width:0.8;" x="189.272727" xlink:href="#m15b649548a" y="252"/>
      </g>
     </g>
     <g id="text_3">
      <!-- 40 -->
      <g transform="translate(182.910227 266.598437)scale(0.1 -0.1)">
       <defs>
        <path d="M 37.796875 64.3125 
L 12.890625 25.390625 
L 37.796875 25.390625 
z
M 35.203125 72.90625 
L 47.609375 72.90625 
L 47.609375 25.390625 
L 58.015625 25.390625 
L 58.015625 17.1875 
L 47.609375 17.1875 
L 47.609375 0 
L 37.796875 0 
L 37.796875 17.1875 
L 4.890625 17.1875 
L 4.890625 26.703125 
z
" id="DejaVuSans-52"/>
       </defs>
       <use xlink:href="#DejaVuSans-52"/>
       <use x="63.623047" xlink:href="#DejaVuSans-48"/>
      </g>
     </g>
    </g>
    <g id="xtick_4">
     <g id="line2d_4">
      <g>
       <use style="stroke:#000000;stroke-width:0.8;" x="256.909091" xlink:href="#m15b649548a" y="252"/>
      </g>
     </g>
     <g id="text_4">
      <!-- 60 -->
      <g transform="translate(250.546591 266.598437)scale(0.1 -0.1)">
       <defs>
        <path d="M 33.015625 40.375 
Q 26.375 40.375 22.484375 35.828125 
Q 18.609375 31.296875 18.609375 23.390625 
Q 18.609375 15.53125 22.484375 10.953125 
Q 26.375 6.390625 33.015625 6.390625 
Q 39.65625 6.390625 43.53125 10.953125 
Q 47.40625 15.53125 47.40625 23.390625 
Q 47.40625 31.296875 43.53125 35.828125 
Q 39.65625 40.375 33.015625 40.375 
z
M 52.59375 71.296875 
L 52.59375 62.3125 
Q 48.875 64.0625 45.09375 64.984375 
Q 41.3125 65.921875 37.59375 65.921875 
Q 27.828125 65.921875 22.671875 59.328125 
Q 17.53125 52.734375 16.796875 39.40625 
Q 19.671875 43.65625 24.015625 45.921875 
Q 28.375 48.1875 33.59375 48.1875 
Q 44.578125 48.1875 50.953125 41.515625 
Q 57.328125 34.859375 57.328125 23.390625 
Q 57.328125 12.15625 50.6875 5.359375 
Q 44.046875 -1.421875 33.015625 -1.421875 
Q 20.359375 -1.421875 13.671875 8.265625 
Q 6.984375 17.96875 6.984375 36.375 
Q 6.984375 53.65625 15.1875 63.9375 
Q 23.390625 74.21875 37.203125 74.21875 
Q 40.921875 74.21875 44.703125 73.484375 
Q 48.484375 72.75 52.59375 71.296875 
z
" id="DejaVuSans-54"/>
       </defs>
       <use xlink:href="#DejaVuSans-54"/>
       <use x="63.623047" xlink:href="#DejaVuSans-48"/>
      </g>
     </g>
    </g>
    <g id="xtick_5">
     <g id="line2d_5">
      <g>
       <use style="stroke:#000000;stroke-width:0.8;" x="324.545455" xlink:href="#m15b649548a" y="252"/>
      </g>
     </g>
     <g id="text_5">
      <!-- 80 -->
      <g transform="translate(318.182955 266.598437)scale(0.1 -0.1)">
       <defs>
        <path d="M 31.78125 34.625 
Q 24.75 34.625 20.71875 30.859375 
Q 16.703125 27.09375 16.703125 20.515625 
Q 16.703125 13.921875 20.71875 10.15625 
Q 24.75 6.390625 31.78125 6.390625 
Q 38.8125 6.390625 42.859375 10.171875 
Q 46.921875 13.96875 46.921875 20.515625 
Q 46.921875 27.09375 42.890625 30.859375 
Q 38.875 34.625 31.78125 34.625 
z
M 21.921875 38.8125 
Q 15.578125 40.375 12.03125 44.71875 
Q 8.5 49.078125 8.5 55.328125 
Q 8.5 64.0625 14.71875 69.140625 
Q 20.953125 74.21875 31.78125 74.21875 
Q 42.671875 74.21875 48.875 69.140625 
Q 55.078125 64.0625 55.078125 55.328125 
Q 55.078125 49.078125 51.53125 44.71875 
Q 48 40.375 41.703125 38.8125 
Q 48.828125 37.15625 52.796875 32.3125 
Q 56.78125 27.484375 56.78125 20.515625 
Q 56.78125 9.90625 50.3125 4.234375 
Q 43.84375 -1.421875 31.78125 -1.421875 
Q 19.734375 -1.421875 13.25 4.234375 
Q 6.78125 9.90625 6.78125 20.515625 
Q 6.78125 27.484375 10.78125 32.3125 
Q 14.796875 37.15625 21.921875 38.8125 
z
M 18.3125 54.390625 
Q 18.3125 48.734375 21.84375 45.5625 
Q 25.390625 42.390625 31.78125 42.390625 
Q 38.140625 42.390625 41.71875 45.5625 
Q 45.3125 48.734375 45.3125 54.390625 
Q 45.3125 60.0625 41.71875 63.234375 
Q 38.140625 66.40625 31.78125 66.40625 
Q 25.390625 66.40625 21.84375 63.234375 
Q 18.3125 60.0625 18.3125 54.390625 
z
" id="DejaVuSans-56"/>
       </defs>
       <use xlink:href="#DejaVuSans-56"/>
       <use x="63.623047" xlink:href="#DejaVuSans-48"/>
      </g>
     </g>
    </g>
   </g>
   <g id="matplotlib.axis_2">
    <g id="ytick_1">
     <g id="line2d_6">
      <defs>
       <path d="M 0 0 
L -3.5 0 
" id="m753d91bc35" style="stroke:#000000;stroke-width:0.8;"/>
      </defs>
      <g>
       <use style="stroke:#000000;stroke-width:0.8;" x="54" xlink:href="#m753d91bc35" y="231.715012"/>
      </g>
     </g>
     <g id="text_6">
      <!-- $\mathdefault{10^{0}}$ -->
      <g transform="translate(29.4 235.51423)scale(0.1 -0.1)">
       <defs>
        <path d="M 12.40625 8.296875 
L 28.515625 8.296875 
L 28.515625 63.921875 
L 10.984375 60.40625 
L 10.984375 69.390625 
L 28.421875 72.90625 
L 38.28125 72.90625 
L 38.28125 8.296875 
L 54.390625 8.296875 
L 54.390625 0 
L 12.40625 0 
z
" id="DejaVuSans-49"/>
       </defs>
       <use transform="translate(0 0.765625)" xlink:href="#DejaVuSans-49"/>
       <use transform="translate(63.623047 0.765625)" xlink:href="#DejaVuSans-48"/>
       <use transform="translate(128.203125 39.046875)scale(0.7)" xlink:href="#DejaVuSans-48"/>
      </g>
     </g>
    </g>
    <g id="ytick_2">
     <g id="line2d_7">
      <g>
       <use style="stroke:#000000;stroke-width:0.8;" x="54" xlink:href="#m753d91bc35" y="58.701007"/>
      </g>
     </g>
     <g id="text_7">
      <!-- $\mathdefault{10^{1}}$ -->
      <g transform="translate(29.4 62.500226)scale(0.1 -0.1)">
       <use transform="translate(0 0.684375)" xlink:href="#DejaVuSans-49"/>
       <use transform="translate(63.623047 0.684375)" xlink:href="#DejaVuSans-48"/>
       <use transform="translate(128.203125 38.965625)scale(0.7)" xlink:href="#DejaVuSans-49"/>
      </g>
     </g>
    </g>
    <g id="ytick_3">
     <g id="line2d_8">
      <defs>
       <path d="M 0 0 
L -2 0 
" id="mefdda3b6a2" style="stroke:#000000;stroke-width:0.6;"/>
      </defs>
      <g>
       <use style="stroke:#000000;stroke-width:0.6;" x="54" xlink:href="#mefdda3b6a2" y="248.481801"/>
      </g>
     </g>
    </g>
    <g id="ytick_4">
     <g id="line2d_9">
      <g>
       <use style="stroke:#000000;stroke-width:0.6;" x="54" xlink:href="#mefdda3b6a2" y="239.631698"/>
      </g>
     </g>
    </g>
    <g id="ytick_5">
     <g id="line2d_10">
      <g>
       <use style="stroke:#000000;stroke-width:0.6;" x="54" xlink:href="#mefdda3b6a2" y="179.632607"/>
      </g>
     </g>
    </g>
    <g id="ytick_6">
     <g id="line2d_11">
      <g>
       <use style="stroke:#000000;stroke-width:0.6;" x="54" xlink:href="#mefdda3b6a2" y="149.166353"/>
      </g>
     </g>
    </g>
    <g id="ytick_7">
     <g id="line2d_12">
      <g>
       <use style="stroke:#000000;stroke-width:0.6;" x="54" xlink:href="#mefdda3b6a2" y="127.550201"/>
      </g>
     </g>
    </g>
    <g id="ytick_8">
     <g id="line2d_13">
      <g>
       <use style="stroke:#000000;stroke-width:0.6;" x="54" xlink:href="#mefdda3b6a2" y="110.783412"/>
      </g>
     </g>
    </g>
    <g id="ytick_9">
     <g id="line2d_14">
      <g>
       <use style="stroke:#000000;stroke-width:0.6;" x="54" xlink:href="#mefdda3b6a2" y="97.083948"/>
      </g>
     </g>
    </g>
    <g id="ytick_10">
     <g id="line2d_15">
      <g>
       <use style="stroke:#000000;stroke-width:0.6;" x="54" xlink:href="#mefdda3b6a2" y="85.501215"/>
      </g>
     </g>
    </g>
    <g id="ytick_11">
     <g id="line2d_16">
      <g>
       <use style="stroke:#000000;stroke-width:0.6;" x="54" xlink:href="#mefdda3b6a2" y="75.467796"/>
      </g>
     </g>
    </g>
    <g id="ytick_12">
     <g id="line2d_17">
      <g>
       <use style="stroke:#000000;stroke-width:0.6;" x="54" xlink:href="#mefdda3b6a2" y="66.617694"/>
      </g>
     </g>
    </g>
   </g>
   <g id="line2d_18">
    <path clip-path="url(#pd0269fad4a)" d="M 57.381818 44.918242 
L 111.490909 44.918242 
L 111.490909 190.52214 
L 125.018182 190.52214 
L 125.018182 192.821478 
L 128.4 192.821478 
L 128.4 196.425948 
L 131.781818 196.425948 
L 131.781818 198.997081 
L 135.163636 198.997081 
L 135.163636 209.948378 
L 138.545455 209.948378 
L 138.545455 214.721091 
L 141.927273 214.721091 
L 141.927273 217.573323 
L 145.309091 217.573323 
L 145.309091 219.540043 
L 148.690909 219.540043 
L 148.690909 224.34726 
L 152.072727 224.34726 
L 152.072727 228.189332 
L 155.454545 228.189332 
L 155.454545 229.341511 
L 158.836364 229.341511 
L 158.836364 230.545063 
L 162.218182 230.545063 
L 162.218182 232.209388 
L 165.6 232.209388 
L 165.6 233.162646 
L 168.981818 233.162646 
L 168.981818 234.577242 
L 172.363636 234.577242 
L 172.363636 236.449631 
L 179.127273 236.449631 
L 179.127273 237.967838 
L 189.272727 237.967838 
L 189.272727 239.063296 
L 290.727273 239.063296 
L 290.727273 239.593511 
L 294.109091 239.593511 
L 294.109091 239.79257 
L 331.309091 239.852306 
L 331.309091 240.380104 
L 334.690909 240.380104 
L 334.690909 240.800046 
L 368.509091 240.800046 
L 368.509091 240.96781 
L 392.181818 241.05409 
L 392.181818 241.05409 
" style="fill:none;stroke:#0000ff;stroke-linecap:square;stroke-width:1.5;"/>
   </g>
   <g id="line2d_19">
    <path clip-path="url(#pd0269fad4a)" d="M 57.381818 44.918242 
L 81.054545 44.918242 
L 81.054545 217.951368 
L 87.818182 217.951368 
L 87.818182 227.910069 
L 91.2 227.910069 
L 91.2 230.367319 
L 94.581818 230.367319 
L 94.581818 231.89179 
L 114.872727 231.89179 
L 114.872727 234.814365 
L 125.018182 234.814365 
L 125.018182 235.709786 
L 138.545455 235.709786 
L 138.545455 236.34627 
L 145.309091 236.34627 
L 145.309091 236.765746 
L 152.072727 236.765746 
L 152.072727 237.492635 
L 172.363636 237.492635 
L 172.363636 238.011197 
L 212.945455 238.011197 
L 212.945455 238.472082 
L 253.527273 238.472082 
L 253.527273 238.946381 
L 341.454545 238.946381 
L 341.454545 239.099795 
L 392.181818 239.099795 
L 392.181818 239.099795 
" style="fill:none;stroke:#00bfbf;stroke-linecap:square;stroke-width:1.5;"/>
   </g>
   <g id="line2d_20">
    <path clip-path="url(#pd0269fad4a)" d="M 60.763636 44.991902 
L 70.909091 44.991902 
L 70.909091 46.622607 
L 74.290909 46.622607 
L 74.290909 58.729667 
L 77.672727 58.729667 
L 77.672727 73.965537 
L 81.054545 73.965537 
L 81.054545 151.325493 
L 84.436364 151.325493 
L 84.436364 153.03373 
L 87.818182 153.03373 
L 87.818182 160.837733 
L 94.581818 160.837733 
L 94.581818 175.085023 
L 97.963636 175.085023 
L 97.963636 180.377453 
L 101.345455 180.377453 
L 101.345455 182.177135 
L 104.727273 182.177135 
L 104.727273 185.662278 
L 108.109091 185.662278 
L 108.109091 191.013427 
L 111.490909 191.013427 
L 111.490909 192.419406 
L 114.872727 192.419406 
L 114.872727 196.111602 
L 121.636364 196.111602 
L 121.636364 199.611867 
L 138.545455 199.719395 
L 138.545455 200.487383 
L 141.927273 200.487383 
L 141.927273 201.17538 
L 148.690909 201.17538 
L 148.690909 201.386706 
L 155.454545 201.386706 
L 155.454545 201.624339 
L 175.745455 201.624339 
L 175.745455 202.620722 
L 223.090909 202.649907 
L 223.090909 205.618372 
L 229.854545 205.618372 
L 229.854545 206.46575 
L 236.618182 206.46575 
L 236.618182 210.175662 
L 256.909091 210.175662 
L 256.909091 211.164681 
L 273.818182 211.164681 
L 273.818182 212.162317 
L 294.109091 212.217049 
L 294.109091 212.920075 
L 351.6 212.920075 
L 351.6 213.366803 
L 354.981818 213.366803 
L 354.981818 219.755716 
L 378.654545 219.755716 
L 378.654545 221.32305 
L 392.181818 221.32305 
L 392.181818 221.32305 
" style="fill:none;stroke:#008000;stroke-linecap:square;stroke-width:1.5;"/>
   </g>
   <g id="line2d_21">
    <path clip-path="url(#pd0269fad4a)" d="M 60.763636 45.168444 
L 81.054545 45.183275 
L 81.054545 83.895806 
L 84.436364 83.895806 
L 84.436364 169.717258 
L 97.963636 169.717258 
L 97.963636 171.869665 
L 111.490909 171.869665 
L 111.490909 174.467172 
L 114.872727 174.467172 
L 114.872727 176.958456 
L 121.636364 176.958456 
L 121.636364 183.77232 
L 141.927273 183.77232 
L 141.927273 190.954625 
L 165.6 190.954625 
L 165.6 191.501776 
L 199.418182 191.501776 
L 199.418182 196.165342 
L 202.8 196.165342 
L 202.8 200.695493 
L 206.181818 200.695493 
L 206.181818 204.887624 
L 212.945455 204.887624 
L 212.945455 206.795114 
L 243.381818 206.795114 
L 243.381818 208.220625 
L 267.054545 208.220625 
L 267.054545 208.732934 
L 280.581818 208.732934 
L 280.581818 209.194811 
L 287.345455 209.194811 
L 287.345455 210.358258 
L 311.018182 210.358258 
L 311.018182 213.784601 
L 344.836364 213.784601 
L 344.836364 214.951174 
L 368.509091 214.951174 
L 368.509091 219.811728 
L 375.272727 219.811728 
L 375.272727 220.771222 
L 392.181818 220.771222 
L 392.181818 220.771222 
" style="fill:none;stroke:#ffa500;stroke-linecap:square;stroke-width:1.5;"/>
   </g>
   <g id="patch_3">
    <path d="M 54 252 
L 54 34.56 
" style="fill:none;stroke:#000000;stroke-linecap:square;stroke-linejoin:miter;stroke-width:0.8;"/>
   </g>
   <g id="patch_4">
    <path d="M 388.8 252 
L 388.8 34.56 
" style="fill:none;stroke:#000000;stroke-linecap:square;stroke-linejoin:miter;stroke-width:0.8;"/>
   </g>
   <g id="patch_5">
    <path d="M 54 252 
L 388.8 252 
" style="fill:none;stroke:#000000;stroke-linecap:square;stroke-linejoin:miter;stroke-width:0.8;"/>
   </g>
   <g id="patch_6">
    <path d="M 54 34.56 
L 388.8 34.56 
" style="fill:none;stroke:#000000;stroke-linecap:square;stroke-linejoin:miter;stroke-width:0.8;"/>
   </g>
   <g id="legend_1">
    <g id="patch_7">
     <path d="M 273.004687 101.82875 
L 381.8 101.82875 
Q 383.8 101.82875 383.8 99.82875 
L 383.8 41.56 
Q 383.8 39.56 381.8 39.56 
L 273.004687 39.56 
Q 271.004687 39.56 271.004687 41.56 
L 271.004687 99.82875 
Q 271.004687 101.82875 273.004687 101.82875 
z
" style="fill:#ffffff;opacity:0.8;stroke:#cccccc;stroke-linejoin:miter;"/>
    </g>
    <g id="line2d_22">
     <path d="M 275.004687 47.658438 
L 295.004687 47.658438 
" style="fill:none;stroke:#0000ff;stroke-linecap:square;stroke-width:1.5;"/>
    </g>
    <g id="line2d_23"/>
    <g id="text_8">
     <!-- CUATRO_global -->
     <g transform="translate(303.004687 51.158438)scale(0.1 -0.1)">
      <defs>
       <path d="M 64.40625 67.28125 
L 64.40625 56.890625 
Q 59.421875 61.53125 53.78125 63.8125 
Q 48.140625 66.109375 41.796875 66.109375 
Q 29.296875 66.109375 22.65625 58.46875 
Q 16.015625 50.828125 16.015625 36.375 
Q 16.015625 21.96875 22.65625 14.328125 
Q 29.296875 6.6875 41.796875 6.6875 
Q 48.140625 6.6875 53.78125 8.984375 
Q 59.421875 11.28125 64.40625 15.921875 
L 64.40625 5.609375 
Q 59.234375 2.09375 53.4375 0.328125 
Q 47.65625 -1.421875 41.21875 -1.421875 
Q 24.65625 -1.421875 15.125 8.703125 
Q 5.609375 18.84375 5.609375 36.375 
Q 5.609375 53.953125 15.125 64.078125 
Q 24.65625 74.21875 41.21875 74.21875 
Q 47.75 74.21875 53.53125 72.484375 
Q 59.328125 70.75 64.40625 67.28125 
z
" id="DejaVuSans-67"/>
       <path d="M 8.6875 72.90625 
L 18.609375 72.90625 
L 18.609375 28.609375 
Q 18.609375 16.890625 22.84375 11.734375 
Q 27.09375 6.59375 36.625 6.59375 
Q 46.09375 6.59375 50.34375 11.734375 
Q 54.59375 16.890625 54.59375 28.609375 
L 54.59375 72.90625 
L 64.5 72.90625 
L 64.5 27.390625 
Q 64.5 13.140625 57.4375 5.859375 
Q 50.390625 -1.421875 36.625 -1.421875 
Q 22.796875 -1.421875 15.734375 5.859375 
Q 8.6875 13.140625 8.6875 27.390625 
z
" id="DejaVuSans-85"/>
       <path d="M 34.1875 63.1875 
L 20.796875 26.90625 
L 47.609375 26.90625 
z
M 28.609375 72.90625 
L 39.796875 72.90625 
L 67.578125 0 
L 57.328125 0 
L 50.6875 18.703125 
L 17.828125 18.703125 
L 11.1875 0 
L 0.78125 0 
z
" id="DejaVuSans-65"/>
       <path d="M -0.296875 72.90625 
L 61.375 72.90625 
L 61.375 64.59375 
L 35.5 64.59375 
L 35.5 0 
L 25.59375 0 
L 25.59375 64.59375 
L -0.296875 64.59375 
z
" id="DejaVuSans-84"/>
       <path d="M 44.390625 34.1875 
Q 47.5625 33.109375 50.5625 29.59375 
Q 53.5625 26.078125 56.59375 19.921875 
L 66.609375 0 
L 56 0 
L 46.6875 18.703125 
Q 43.0625 26.03125 39.671875 28.421875 
Q 36.28125 30.8125 30.421875 30.8125 
L 19.671875 30.8125 
L 19.671875 0 
L 9.8125 0 
L 9.8125 72.90625 
L 32.078125 72.90625 
Q 44.578125 72.90625 50.734375 67.671875 
Q 56.890625 62.453125 56.890625 51.90625 
Q 56.890625 45.015625 53.6875 40.46875 
Q 50.484375 35.9375 44.390625 34.1875 
z
M 19.671875 64.796875 
L 19.671875 38.921875 
L 32.078125 38.921875 
Q 39.203125 38.921875 42.84375 42.21875 
Q 46.484375 45.515625 46.484375 51.90625 
Q 46.484375 58.296875 42.84375 61.546875 
Q 39.203125 64.796875 32.078125 64.796875 
z
" id="DejaVuSans-82"/>
       <path d="M 39.40625 66.21875 
Q 28.65625 66.21875 22.328125 58.203125 
Q 16.015625 50.203125 16.015625 36.375 
Q 16.015625 22.609375 22.328125 14.59375 
Q 28.65625 6.59375 39.40625 6.59375 
Q 50.140625 6.59375 56.421875 14.59375 
Q 62.703125 22.609375 62.703125 36.375 
Q 62.703125 50.203125 56.421875 58.203125 
Q 50.140625 66.21875 39.40625 66.21875 
z
M 39.40625 74.21875 
Q 54.734375 74.21875 63.90625 63.9375 
Q 73.09375 53.65625 73.09375 36.375 
Q 73.09375 19.140625 63.90625 8.859375 
Q 54.734375 -1.421875 39.40625 -1.421875 
Q 24.03125 -1.421875 14.8125 8.828125 
Q 5.609375 19.09375 5.609375 36.375 
Q 5.609375 53.65625 14.8125 63.9375 
Q 24.03125 74.21875 39.40625 74.21875 
z
" id="DejaVuSans-79"/>
       <path d="M 50.984375 -16.609375 
L 50.984375 -23.578125 
L -0.984375 -23.578125 
L -0.984375 -16.609375 
z
" id="DejaVuSans-95"/>
       <path d="M 45.40625 27.984375 
Q 45.40625 37.75 41.375 43.109375 
Q 37.359375 48.484375 30.078125 48.484375 
Q 22.859375 48.484375 18.828125 43.109375 
Q 14.796875 37.75 14.796875 27.984375 
Q 14.796875 18.265625 18.828125 12.890625 
Q 22.859375 7.515625 30.078125 7.515625 
Q 37.359375 7.515625 41.375 12.890625 
Q 45.40625 18.265625 45.40625 27.984375 
z
M 54.390625 6.78125 
Q 54.390625 -7.171875 48.1875 -13.984375 
Q 42 -20.796875 29.203125 -20.796875 
Q 24.46875 -20.796875 20.265625 -20.09375 
Q 16.0625 -19.390625 12.109375 -17.921875 
L 12.109375 -9.1875 
Q 16.0625 -11.328125 19.921875 -12.34375 
Q 23.78125 -13.375 27.78125 -13.375 
Q 36.625 -13.375 41.015625 -8.765625 
Q 45.40625 -4.15625 45.40625 5.171875 
L 45.40625 9.625 
Q 42.625 4.78125 38.28125 2.390625 
Q 33.9375 0 27.875 0 
Q 17.828125 0 11.671875 7.65625 
Q 5.515625 15.328125 5.515625 27.984375 
Q 5.515625 40.671875 11.671875 48.328125 
Q 17.828125 56 27.875 56 
Q 33.9375 56 38.28125 53.609375 
Q 42.625 51.21875 45.40625 46.390625 
L 45.40625 54.6875 
L 54.390625 54.6875 
z
" id="DejaVuSans-103"/>
       <path d="M 9.421875 75.984375 
L 18.40625 75.984375 
L 18.40625 0 
L 9.421875 0 
z
" id="DejaVuSans-108"/>
       <path d="M 30.609375 48.390625 
Q 23.390625 48.390625 19.1875 42.75 
Q 14.984375 37.109375 14.984375 27.296875 
Q 14.984375 17.484375 19.15625 11.84375 
Q 23.34375 6.203125 30.609375 6.203125 
Q 37.796875 6.203125 41.984375 11.859375 
Q 46.1875 17.53125 46.1875 27.296875 
Q 46.1875 37.015625 41.984375 42.703125 
Q 37.796875 48.390625 30.609375 48.390625 
z
M 30.609375 56 
Q 42.328125 56 49.015625 48.375 
Q 55.71875 40.765625 55.71875 27.296875 
Q 55.71875 13.875 49.015625 6.21875 
Q 42.328125 -1.421875 30.609375 -1.421875 
Q 18.84375 -1.421875 12.171875 6.21875 
Q 5.515625 13.875 5.515625 27.296875 
Q 5.515625 40.765625 12.171875 48.375 
Q 18.84375 56 30.609375 56 
z
" id="DejaVuSans-111"/>
       <path d="M 48.6875 27.296875 
Q 48.6875 37.203125 44.609375 42.84375 
Q 40.53125 48.484375 33.40625 48.484375 
Q 26.265625 48.484375 22.1875 42.84375 
Q 18.109375 37.203125 18.109375 27.296875 
Q 18.109375 17.390625 22.1875 11.75 
Q 26.265625 6.109375 33.40625 6.109375 
Q 40.53125 6.109375 44.609375 11.75 
Q 48.6875 17.390625 48.6875 27.296875 
z
M 18.109375 46.390625 
Q 20.953125 51.265625 25.265625 53.625 
Q 29.59375 56 35.59375 56 
Q 45.5625 56 51.78125 48.09375 
Q 58.015625 40.1875 58.015625 27.296875 
Q 58.015625 14.40625 51.78125 6.484375 
Q 45.5625 -1.421875 35.59375 -1.421875 
Q 29.59375 -1.421875 25.265625 0.953125 
Q 20.953125 3.328125 18.109375 8.203125 
L 18.109375 0 
L 9.078125 0 
L 9.078125 75.984375 
L 18.109375 75.984375 
z
" id="DejaVuSans-98"/>
       <path d="M 34.28125 27.484375 
Q 23.390625 27.484375 19.1875 25 
Q 14.984375 22.515625 14.984375 16.5 
Q 14.984375 11.71875 18.140625 8.90625 
Q 21.296875 6.109375 26.703125 6.109375 
Q 34.1875 6.109375 38.703125 11.40625 
Q 43.21875 16.703125 43.21875 25.484375 
L 43.21875 27.484375 
z
M 52.203125 31.203125 
L 52.203125 0 
L 43.21875 0 
L 43.21875 8.296875 
Q 40.140625 3.328125 35.546875 0.953125 
Q 30.953125 -1.421875 24.3125 -1.421875 
Q 15.921875 -1.421875 10.953125 3.296875 
Q 6 8.015625 6 15.921875 
Q 6 25.140625 12.171875 29.828125 
Q 18.359375 34.515625 30.609375 34.515625 
L 43.21875 34.515625 
L 43.21875 35.40625 
Q 43.21875 41.609375 39.140625 45 
Q 35.0625 48.390625 27.6875 48.390625 
Q 23 48.390625 18.546875 47.265625 
Q 14.109375 46.140625 10.015625 43.890625 
L 10.015625 52.203125 
Q 14.9375 54.109375 19.578125 55.046875 
Q 24.21875 56 28.609375 56 
Q 40.484375 56 46.34375 49.84375 
Q 52.203125 43.703125 52.203125 31.203125 
z
" id="DejaVuSans-97"/>
      </defs>
      <use xlink:href="#DejaVuSans-67"/>
      <use x="69.824219" xlink:href="#DejaVuSans-85"/>
      <use x="143.017578" xlink:href="#DejaVuSans-65"/>
      <use x="203.675781" xlink:href="#DejaVuSans-84"/>
      <use x="264.759766" xlink:href="#DejaVuSans-82"/>
      <use x="334.242188" xlink:href="#DejaVuSans-79"/>
      <use x="412.953125" xlink:href="#DejaVuSans-95"/>
      <use x="462.953125" xlink:href="#DejaVuSans-103"/>
      <use x="526.429688" xlink:href="#DejaVuSans-108"/>
      <use x="554.212891" xlink:href="#DejaVuSans-111"/>
      <use x="615.394531" xlink:href="#DejaVuSans-98"/>
      <use x="678.871094" xlink:href="#DejaVuSans-97"/>
      <use x="740.150391" xlink:href="#DejaVuSans-108"/>
     </g>
    </g>
    <g id="line2d_24">
     <path d="M 275.004687 62.614688 
L 295.004687 62.614688 
" style="fill:none;stroke:#00bfbf;stroke-linecap:square;stroke-width:1.5;"/>
    </g>
    <g id="line2d_25"/>
    <g id="text_9">
     <!-- CUATRO_local -->
     <g transform="translate(303.004687 66.114688)scale(0.1 -0.1)">
      <defs>
       <path d="M 48.78125 52.59375 
L 48.78125 44.1875 
Q 44.96875 46.296875 41.140625 47.34375 
Q 37.3125 48.390625 33.40625 48.390625 
Q 24.65625 48.390625 19.8125 42.84375 
Q 14.984375 37.3125 14.984375 27.296875 
Q 14.984375 17.28125 19.8125 11.734375 
Q 24.65625 6.203125 33.40625 6.203125 
Q 37.3125 6.203125 41.140625 7.25 
Q 44.96875 8.296875 48.78125 10.40625 
L 48.78125 2.09375 
Q 45.015625 0.34375 40.984375 -0.53125 
Q 36.96875 -1.421875 32.421875 -1.421875 
Q 20.0625 -1.421875 12.78125 6.34375 
Q 5.515625 14.109375 5.515625 27.296875 
Q 5.515625 40.671875 12.859375 48.328125 
Q 20.21875 56 33.015625 56 
Q 37.15625 56 41.109375 55.140625 
Q 45.0625 54.296875 48.78125 52.59375 
z
" id="DejaVuSans-99"/>
      </defs>
      <use xlink:href="#DejaVuSans-67"/>
      <use x="69.824219" xlink:href="#DejaVuSans-85"/>
      <use x="143.017578" xlink:href="#DejaVuSans-65"/>
      <use x="203.675781" xlink:href="#DejaVuSans-84"/>
      <use x="264.759766" xlink:href="#DejaVuSans-82"/>
      <use x="334.242188" xlink:href="#DejaVuSans-79"/>
      <use x="412.953125" xlink:href="#DejaVuSans-95"/>
      <use x="462.953125" xlink:href="#DejaVuSans-108"/>
      <use x="490.736328" xlink:href="#DejaVuSans-111"/>
      <use x="551.917969" xlink:href="#DejaVuSans-99"/>
      <use x="606.898438" xlink:href="#DejaVuSans-97"/>
      <use x="668.177734" xlink:href="#DejaVuSans-108"/>
     </g>
    </g>
    <g id="line2d_26">
     <path d="M 275.004687 77.570938 
L 295.004687 77.570938 
" style="fill:none;stroke:#008000;stroke-linecap:square;stroke-width:1.5;"/>
    </g>
    <g id="line2d_27"/>
    <g id="text_10">
     <!-- Py-BOBYQA  -->
     <g transform="translate(303.004687 81.070938)scale(0.1 -0.1)">
      <defs>
       <path d="M 19.671875 64.796875 
L 19.671875 37.40625 
L 32.078125 37.40625 
Q 38.96875 37.40625 42.71875 40.96875 
Q 46.484375 44.53125 46.484375 51.125 
Q 46.484375 57.671875 42.71875 61.234375 
Q 38.96875 64.796875 32.078125 64.796875 
z
M 9.8125 72.90625 
L 32.078125 72.90625 
Q 44.34375 72.90625 50.609375 67.359375 
Q 56.890625 61.8125 56.890625 51.125 
Q 56.890625 40.328125 50.609375 34.8125 
Q 44.34375 29.296875 32.078125 29.296875 
L 19.671875 29.296875 
L 19.671875 0 
L 9.8125 0 
z
" id="DejaVuSans-80"/>
       <path d="M 32.171875 -5.078125 
Q 28.375 -14.84375 24.75 -17.8125 
Q 21.140625 -20.796875 15.09375 -20.796875 
L 7.90625 -20.796875 
L 7.90625 -13.28125 
L 13.1875 -13.28125 
Q 16.890625 -13.28125 18.9375 -11.515625 
Q 21 -9.765625 23.484375 -3.21875 
L 25.09375 0.875 
L 2.984375 54.6875 
L 12.5 54.6875 
L 29.59375 11.921875 
L 46.6875 54.6875 
L 56.203125 54.6875 
z
" id="DejaVuSans-121"/>
       <path d="M 4.890625 31.390625 
L 31.203125 31.390625 
L 31.203125 23.390625 
L 4.890625 23.390625 
z
" id="DejaVuSans-45"/>
       <path d="M 19.671875 34.8125 
L 19.671875 8.109375 
L 35.5 8.109375 
Q 43.453125 8.109375 47.28125 11.40625 
Q 51.125 14.703125 51.125 21.484375 
Q 51.125 28.328125 47.28125 31.5625 
Q 43.453125 34.8125 35.5 34.8125 
z
M 19.671875 64.796875 
L 19.671875 42.828125 
L 34.28125 42.828125 
Q 41.5 42.828125 45.03125 45.53125 
Q 48.578125 48.25 48.578125 53.8125 
Q 48.578125 59.328125 45.03125 62.0625 
Q 41.5 64.796875 34.28125 64.796875 
z
M 9.8125 72.90625 
L 35.015625 72.90625 
Q 46.296875 72.90625 52.390625 68.21875 
Q 58.5 63.53125 58.5 54.890625 
Q 58.5 48.1875 55.375 44.234375 
Q 52.25 40.28125 46.1875 39.3125 
Q 53.46875 37.75 57.5 32.78125 
Q 61.53125 27.828125 61.53125 20.40625 
Q 61.53125 10.640625 54.890625 5.3125 
Q 48.25 0 35.984375 0 
L 9.8125 0 
z
" id="DejaVuSans-66"/>
       <path d="M -0.203125 72.90625 
L 10.40625 72.90625 
L 30.609375 42.921875 
L 50.6875 72.90625 
L 61.28125 72.90625 
L 35.5 34.71875 
L 35.5 0 
L 25.59375 0 
L 25.59375 34.71875 
z
" id="DejaVuSans-89"/>
       <path d="M 39.40625 66.21875 
Q 28.65625 66.21875 22.328125 58.203125 
Q 16.015625 50.203125 16.015625 36.375 
Q 16.015625 22.609375 22.328125 14.59375 
Q 28.65625 6.59375 39.40625 6.59375 
Q 50.140625 6.59375 56.421875 14.59375 
Q 62.703125 22.609375 62.703125 36.375 
Q 62.703125 50.203125 56.421875 58.203125 
Q 50.140625 66.21875 39.40625 66.21875 
z
M 53.21875 1.3125 
L 66.21875 -12.890625 
L 54.296875 -12.890625 
L 43.5 -1.21875 
Q 41.890625 -1.3125 41.03125 -1.359375 
Q 40.1875 -1.421875 39.40625 -1.421875 
Q 24.03125 -1.421875 14.8125 8.859375 
Q 5.609375 19.140625 5.609375 36.375 
Q 5.609375 53.65625 14.8125 63.9375 
Q 24.03125 74.21875 39.40625 74.21875 
Q 54.734375 74.21875 63.90625 63.9375 
Q 73.09375 53.65625 73.09375 36.375 
Q 73.09375 23.6875 67.984375 14.640625 
Q 62.890625 5.609375 53.21875 1.3125 
z
" id="DejaVuSans-81"/>
       <path id="DejaVuSans-32"/>
      </defs>
      <use xlink:href="#DejaVuSans-80"/>
      <use x="60.302734" xlink:href="#DejaVuSans-121"/>
      <use x="117.732422" xlink:href="#DejaVuSans-45"/>
      <use x="150.191406" xlink:href="#DejaVuSans-66"/>
      <use x="217.044922" xlink:href="#DejaVuSans-79"/>
      <use x="295.755859" xlink:href="#DejaVuSans-66"/>
      <use x="358.859375" xlink:href="#DejaVuSans-89"/>
      <use x="419.943359" xlink:href="#DejaVuSans-81"/>
      <use x="498.654297" xlink:href="#DejaVuSans-65"/>
      <use x="567.0625" xlink:href="#DejaVuSans-32"/>
     </g>
    </g>
    <g id="line2d_28">
     <path d="M 275.004687 92.249063 
L 295.004687 92.249063 
" style="fill:none;stroke:#ffa500;stroke-linecap:square;stroke-width:1.5;"/>
    </g>
    <g id="line2d_29"/>
    <g id="text_11">
     <!-- Snobfit -->
     <g transform="translate(303.004687 95.749063)scale(0.1 -0.1)">
      <defs>
       <path d="M 53.515625 70.515625 
L 53.515625 60.890625 
Q 47.90625 63.578125 42.921875 64.890625 
Q 37.9375 66.21875 33.296875 66.21875 
Q 25.25 66.21875 20.875 63.09375 
Q 16.5 59.96875 16.5 54.203125 
Q 16.5 49.359375 19.40625 46.890625 
Q 22.3125 44.4375 30.421875 42.921875 
L 36.375 41.703125 
Q 47.40625 39.59375 52.65625 34.296875 
Q 57.90625 29 57.90625 20.125 
Q 57.90625 9.515625 50.796875 4.046875 
Q 43.703125 -1.421875 29.984375 -1.421875 
Q 24.8125 -1.421875 18.96875 -0.25 
Q 13.140625 0.921875 6.890625 3.21875 
L 6.890625 13.375 
Q 12.890625 10.015625 18.65625 8.296875 
Q 24.421875 6.59375 29.984375 6.59375 
Q 38.421875 6.59375 43.015625 9.90625 
Q 47.609375 13.234375 47.609375 19.390625 
Q 47.609375 24.75 44.3125 27.78125 
Q 41.015625 30.8125 33.5 32.328125 
L 27.484375 33.5 
Q 16.453125 35.6875 11.515625 40.375 
Q 6.59375 45.0625 6.59375 53.421875 
Q 6.59375 63.09375 13.40625 68.65625 
Q 20.21875 74.21875 32.171875 74.21875 
Q 37.3125 74.21875 42.625 73.28125 
Q 47.953125 72.359375 53.515625 70.515625 
z
" id="DejaVuSans-83"/>
       <path d="M 54.890625 33.015625 
L 54.890625 0 
L 45.90625 0 
L 45.90625 32.71875 
Q 45.90625 40.484375 42.875 44.328125 
Q 39.84375 48.1875 33.796875 48.1875 
Q 26.515625 48.1875 22.3125 43.546875 
Q 18.109375 38.921875 18.109375 30.90625 
L 18.109375 0 
L 9.078125 0 
L 9.078125 54.6875 
L 18.109375 54.6875 
L 18.109375 46.1875 
Q 21.34375 51.125 25.703125 53.5625 
Q 30.078125 56 35.796875 56 
Q 45.21875 56 50.046875 50.171875 
Q 54.890625 44.34375 54.890625 33.015625 
z
" id="DejaVuSans-110"/>
       <path d="M 37.109375 75.984375 
L 37.109375 68.5 
L 28.515625 68.5 
Q 23.6875 68.5 21.796875 66.546875 
Q 19.921875 64.59375 19.921875 59.515625 
L 19.921875 54.6875 
L 34.71875 54.6875 
L 34.71875 47.703125 
L 19.921875 47.703125 
L 19.921875 0 
L 10.890625 0 
L 10.890625 47.703125 
L 2.296875 47.703125 
L 2.296875 54.6875 
L 10.890625 54.6875 
L 10.890625 58.5 
Q 10.890625 67.625 15.140625 71.796875 
Q 19.390625 75.984375 28.609375 75.984375 
z
" id="DejaVuSans-102"/>
       <path d="M 9.421875 54.6875 
L 18.40625 54.6875 
L 18.40625 0 
L 9.421875 0 
z
M 9.421875 75.984375 
L 18.40625 75.984375 
L 18.40625 64.59375 
L 9.421875 64.59375 
z
" id="DejaVuSans-105"/>
       <path d="M 18.3125 70.21875 
L 18.3125 54.6875 
L 36.8125 54.6875 
L 36.8125 47.703125 
L 18.3125 47.703125 
L 18.3125 18.015625 
Q 18.3125 11.328125 20.140625 9.421875 
Q 21.96875 7.515625 27.59375 7.515625 
L 36.8125 7.515625 
L 36.8125 0 
L 27.59375 0 
Q 17.1875 0 13.234375 3.875 
Q 9.28125 7.765625 9.28125 18.015625 
L 9.28125 47.703125 
L 2.6875 47.703125 
L 2.6875 54.6875 
L 9.28125 54.6875 
L 9.28125 70.21875 
z
" id="DejaVuSans-116"/>
      </defs>
      <use xlink:href="#DejaVuSans-83"/>
      <use x="63.476562" xlink:href="#DejaVuSans-110"/>
      <use x="126.855469" xlink:href="#DejaVuSans-111"/>
      <use x="188.037109" xlink:href="#DejaVuSans-98"/>
      <use x="251.513672" xlink:href="#DejaVuSans-102"/>
      <use x="286.71875" xlink:href="#DejaVuSans-105"/>
      <use x="314.501953" xlink:href="#DejaVuSans-116"/>
     </g>
    </g>
   </g>
  </g>
 </g>
 <defs>
  <clipPath id="pd0269fad4a">
   <rect height="217.44" width="334.8" x="54" y="34.56"/>
  </clipPath>
 </defs>
</svg>
