<?xml version="1.0" encoding="utf-8" standalone="no"?>
<!DOCTYPE svg PUBLIC "-//W3C//DTD SVG 1.1//EN"
  "http://www.w3.org/Graphics/SVG/1.1/DTD/svg11.dtd">
<!-- Created with matplotlib (https://matplotlib.org/) -->
<svg height="288pt" version="1.1" viewBox="0 0 432 288" width="432pt" xmlns="http://www.w3.org/2000/svg" xmlns:xlink="http://www.w3.org/1999/xlink">
 <metadata>
  <rdf:RDF xmlns:cc="http://creativecommons.org/ns#" xmlns:dc="http://purl.org/dc/elements/1.1/" xmlns:rdf="http://www.w3.org/1999/02/22-rdf-syntax-ns#">
   <cc:Work>
    <dc:type rdf:resource="http://purl.org/dc/dcmitype/StillImage"/>
    <dc:date>2021-04-19T22:50:42.764529</dc:date>
    <dc:format>image/svg+xml</dc:format>
    <dc:creator>
     <cc:Agent>
      <dc:title>Matplotlib v3.3.4, https://matplotlib.org/</dc:title>
     </cc:Agent>
    </dc:creator>
   </cc:Work>
  </rdf:RDF>
 </metadata>
 <defs>
  <style type="text/css">*{stroke-linecap:butt;stroke-linejoin:round;}</style>
 </defs>
 <g id="figure_1">
  <g id="patch_1">
   <path d="M 0 288 
L 432 288 
L 432 0 
L 0 0 
z
" style="fill:#ffffff;"/>
  </g>
  <g id="axes_1">
   <g id="patch_2">
    <path d="M 59.95 232.8 
L 415.8 232.8 
L 415.8 16.2 
L 59.95 16.2 
z
" style="fill:#ffffff;"/>
   </g>
   <g id="patch_3">
    <path clip-path="url(#p8cc20ef0ab)" d="M 65.99945 105.913689 
L 77.623883 105.913689 
L 77.623883 105.331152 
L 65.99945 105.331152 
L 65.99945 105.913689 
z
" style="fill:#597dbf;stroke:#545454;stroke-linejoin:miter;stroke-width:1.5;"/>
   </g>
   <g id="patch_4">
    <path clip-path="url(#p8cc20ef0ab)" d="M 77.861117 105.975945 
L 89.48555 105.975945 
L 89.48555 105.975944 
L 77.861117 105.975944 
L 77.861117 105.975945 
z
" style="fill:#d98b5f;stroke:#545454;stroke-linejoin:miter;stroke-width:1.5;"/>
   </g>
   <g id="patch_5">
    <path clip-path="url(#p8cc20ef0ab)" d="M 89.722783 94.293445 
L 101.347217 94.293445 
L 101.347217 94.293445 
L 89.722783 94.293445 
L 89.722783 94.293445 
z
" style="fill:#75bf71;stroke:#545454;stroke-linejoin:miter;stroke-width:1.5;"/>
   </g>
   <g id="patch_6">
    <path clip-path="url(#p8cc20ef0ab)" d="M 101.58445 105.875285 
L 113.208883 105.875285 
L 113.208883 105.384503 
L 101.58445 105.384503 
L 101.58445 105.875285 
z
" style="fill:#c76e6e;stroke:#545454;stroke-linejoin:miter;stroke-width:1.5;"/>
   </g>
   <g id="patch_7">
    <path clip-path="url(#p8cc20ef0ab)" d="M 125.307783 115.073899 
L 136.932217 115.073899 
L 136.932217 105.746715 
L 125.307783 105.746715 
L 125.307783 115.073899 
z
" style="fill:#597dbf;stroke:#545454;stroke-linejoin:miter;stroke-width:1.5;"/>
   </g>
   <g id="patch_8">
    <path clip-path="url(#p8cc20ef0ab)" d="M 137.16945 118.263447 
L 148.793883 118.263447 
L 148.793883 110.666019 
L 137.16945 110.666019 
L 137.16945 118.263447 
z
" style="fill:#d98b5f;stroke:#545454;stroke-linejoin:miter;stroke-width:1.5;"/>
   </g>
   <g id="patch_9">
    <path clip-path="url(#p8cc20ef0ab)" d="M 149.031117 102.399591 
L 160.65555 102.399591 
L 160.65555 86.249214 
L 149.031117 86.249214 
L 149.031117 102.399591 
z
" style="fill:#75bf71;stroke:#545454;stroke-linejoin:miter;stroke-width:1.5;"/>
   </g>
   <g id="patch_10">
    <path clip-path="url(#p8cc20ef0ab)" d="M 160.892783 116.652071 
L 172.517217 116.652071 
L 172.517217 109.105209 
L 160.892783 109.105209 
L 160.892783 116.652071 
z
" style="fill:#c76e6e;stroke:#545454;stroke-linejoin:miter;stroke-width:1.5;"/>
   </g>
   <g id="patch_11">
    <path clip-path="url(#p8cc20ef0ab)" d="M 184.616117 123.345994 
L 196.24055 123.345994 
L 196.24055 106.898454 
L 184.616117 106.898454 
L 184.616117 123.345994 
z
" style="fill:#597dbf;stroke:#545454;stroke-linejoin:miter;stroke-width:1.5;"/>
   </g>
   <g id="patch_12">
    <path clip-path="url(#p8cc20ef0ab)" d="M 196.477783 129.699186 
L 208.102217 129.699186 
L 208.102217 117.033818 
L 196.477783 117.033818 
L 196.477783 129.699186 
z
" style="fill:#d98b5f;stroke:#545454;stroke-linejoin:miter;stroke-width:1.5;"/>
   </g>
   <g id="patch_13">
    <path clip-path="url(#p8cc20ef0ab)" d="M 208.33945 115.665717 
L 219.963883 115.665717 
L 219.963883 92.607494 
L 208.33945 92.607494 
L 208.33945 115.665717 
z
" style="fill:#75bf71;stroke:#545454;stroke-linejoin:miter;stroke-width:1.5;"/>
   </g>
   <g id="patch_14">
    <path clip-path="url(#p8cc20ef0ab)" d="M 220.201117 130.272078 
L 231.82555 130.272078 
L 231.82555 111.503931 
L 220.201117 111.503931 
L 220.201117 130.272078 
z
" style="fill:#c76e6e;stroke:#545454;stroke-linejoin:miter;stroke-width:1.5;"/>
   </g>
   <g id="patch_15">
    <path clip-path="url(#p8cc20ef0ab)" d="M 243.92445 126.337746 
L 255.548883 126.337746 
L 255.548883 104.004592 
L 243.92445 104.004592 
L 243.92445 126.337746 
z
" style="fill:#597dbf;stroke:#545454;stroke-linejoin:miter;stroke-width:1.5;"/>
   </g>
   <g id="patch_16">
    <path clip-path="url(#p8cc20ef0ab)" d="M 255.786117 141.491682 
L 267.41055 141.491682 
L 267.41055 136.556046 
L 255.786117 136.556046 
L 255.786117 141.491682 
z
" style="fill:#d98b5f;stroke:#545454;stroke-linejoin:miter;stroke-width:1.5;"/>
   </g>
   <g id="patch_17">
    <path clip-path="url(#p8cc20ef0ab)" d="M 267.647783 131.87043 
L 279.272217 131.87043 
L 279.272217 98.274275 
L 267.647783 98.274275 
L 267.647783 131.87043 
z
" style="fill:#75bf71;stroke:#545454;stroke-linejoin:miter;stroke-width:1.5;"/>
   </g>
   <g id="patch_18">
    <path clip-path="url(#p8cc20ef0ab)" d="M 279.50945 141.771671 
L 291.133883 141.771671 
L 291.133883 118.091898 
L 279.50945 118.091898 
L 279.50945 141.771671 
z
" style="fill:#c76e6e;stroke:#545454;stroke-linejoin:miter;stroke-width:1.5;"/>
   </g>
   <g id="patch_19">
    <path clip-path="url(#p8cc20ef0ab)" d="M 303.232783 155.734812 
L 314.857217 155.734812 
L 314.857217 126.077012 
L 303.232783 126.077012 
L 303.232783 155.734812 
z
" style="fill:#597dbf;stroke:#545454;stroke-linejoin:miter;stroke-width:1.5;"/>
   </g>
   <g id="patch_20">
    <path clip-path="url(#p8cc20ef0ab)" d="M 315.09445 156.733965 
L 326.718883 156.733965 
L 326.718883 146.290143 
L 315.09445 146.290143 
L 315.09445 156.733965 
z
" style="fill:#d98b5f;stroke:#545454;stroke-linejoin:miter;stroke-width:1.5;"/>
   </g>
   <g id="patch_21">
    <path clip-path="url(#p8cc20ef0ab)" d="M 326.956117 134.17056 
L 338.58055 134.17056 
L 338.58055 104.30565 
L 326.956117 104.30565 
L 326.956117 134.17056 
z
" style="fill:#75bf71;stroke:#545454;stroke-linejoin:miter;stroke-width:1.5;"/>
   </g>
   <g id="patch_22">
    <path clip-path="url(#p8cc20ef0ab)" d="M 338.817783 150.389002 
L 350.442217 150.389002 
L 350.442217 123.746775 
L 338.817783 123.746775 
L 338.817783 150.389002 
z
" style="fill:#c76e6e;stroke:#545454;stroke-linejoin:miter;stroke-width:1.5;"/>
   </g>
   <g id="patch_23">
    <path clip-path="url(#p8cc20ef0ab)" d="M 362.541117 173.827393 
L 374.16555 173.827393 
L 374.16555 139.612578 
L 362.541117 139.612578 
L 362.541117 173.827393 
z
" style="fill:#597dbf;stroke:#545454;stroke-linejoin:miter;stroke-width:1.5;"/>
   </g>
   <g id="patch_24">
    <path clip-path="url(#p8cc20ef0ab)" d="M 374.402783 166.295983 
L 386.027217 166.295983 
L 386.027217 132.513824 
L 374.402783 132.513824 
L 374.402783 166.295983 
z
" style="fill:#d98b5f;stroke:#545454;stroke-linejoin:miter;stroke-width:1.5;"/>
   </g>
   <g id="patch_25">
    <path clip-path="url(#p8cc20ef0ab)" d="M 386.26445 153.207278 
L 397.888883 153.207278 
L 397.888883 113.174488 
L 386.26445 113.174488 
L 386.26445 153.207278 
z
" style="fill:#75bf71;stroke:#545454;stroke-linejoin:miter;stroke-width:1.5;"/>
   </g>
   <g id="patch_26">
    <path clip-path="url(#p8cc20ef0ab)" d="M 398.126117 176.413905 
L 409.75055 176.413905 
L 409.75055 129.572504 
L 398.126117 129.572504 
L 398.126117 176.413905 
z
" style="fill:#c76e6e;stroke:#545454;stroke-linejoin:miter;stroke-width:1.5;"/>
   </g>
   <g id="patch_27">
    <path clip-path="url(#p8cc20ef0ab)" d="M 89.604167 561.593449 
L 89.604167 561.593449 
L 89.604167 561.593449 
L 89.604167 561.593449 
z
" style="fill:#597dbf;stroke:#545454;stroke-linejoin:miter;stroke-width:0.75;"/>
   </g>
   <g id="patch_28">
    <path clip-path="url(#p8cc20ef0ab)" d="M 89.604167 561.593449 
L 89.604167 561.593449 
L 89.604167 561.593449 
L 89.604167 561.593449 
z
" style="fill:#d98b5f;stroke:#545454;stroke-linejoin:miter;stroke-width:0.75;"/>
   </g>
   <g id="patch_29">
    <path clip-path="url(#p8cc20ef0ab)" d="M 89.604167 561.593449 
L 89.604167 561.593449 
L 89.604167 561.593449 
L 89.604167 561.593449 
z
" style="fill:#75bf71;stroke:#545454;stroke-linejoin:miter;stroke-width:0.75;"/>
   </g>
   <g id="patch_30">
    <path clip-path="url(#p8cc20ef0ab)" d="M 89.604167 561.593449 
L 89.604167 561.593449 
L 89.604167 561.593449 
L 89.604167 561.593449 
z
" style="fill:#c76e6e;stroke:#545454;stroke-linejoin:miter;stroke-width:0.75;"/>
   </g>
   <g id="matplotlib.axis_1">
    <g id="xtick_1">
     <g id="line2d_1">
      <defs>
       <path d="M 0 0 
L 0 3.5 
" id="mcecd358fcd" style="stroke:#000000;stroke-width:0.8;"/>
      </defs>
      <g>
       <use style="stroke:#000000;stroke-width:0.8;" x="89.604167" xlink:href="#mcecd358fcd" y="232.8"/>
      </g>
     </g>
     <g id="text_1">
      <!-- 0.000 -->
      <g transform="translate(72.729167 250.215625)scale(0.15 -0.15)">
       <defs>
        <path d="M 3.609375 32.71875 
Q 3.609375 44.046875 7.03125 52.21875 
Q 10.453125 60.40625 16.109375 64.40625 
Q 20.515625 67.578125 25.203125 67.578125 
Q 32.8125 67.578125 38.875 59.8125 
Q 46.4375 50.203125 46.4375 33.734375 
Q 46.4375 22.21875 43.109375 14.15625 
Q 39.796875 6.109375 34.640625 2.46875 
Q 29.5 -1.171875 24.703125 -1.171875 
Q 15.234375 -1.171875 8.9375 10.015625 
Q 3.609375 19.4375 3.609375 32.71875 
z
M 13.1875 31.5 
Q 13.1875 17.828125 16.546875 9.1875 
Q 19.34375 1.90625 24.859375 1.90625 
Q 27.484375 1.90625 30.3125 4.265625 
Q 33.15625 6.640625 34.625 12.203125 
Q 36.859375 20.609375 36.859375 35.890625 
Q 36.859375 47.21875 34.515625 54.78125 
Q 32.765625 60.40625 29.984375 62.75 
Q 27.984375 64.359375 25.140625 64.359375 
Q 21.828125 64.359375 19.234375 61.375 
Q 15.71875 57.328125 14.453125 48.625 
Q 13.1875 39.9375 13.1875 31.5 
z
" id="TimesNewRomanPSMT-48"/>
        <path d="M 12.5 9.46875 
Q 14.796875 9.46875 16.359375 7.875 
Q 17.921875 6.296875 17.921875 4.046875 
Q 17.921875 1.8125 16.328125 0.21875 
Q 14.75 -1.375 12.5 -1.375 
Q 10.25 -1.375 8.65625 0.21875 
Q 7.078125 1.8125 7.078125 4.046875 
Q 7.078125 6.34375 8.65625 7.90625 
Q 10.25 9.46875 12.5 9.46875 
z
" id="TimesNewRomanPSMT-46"/>
       </defs>
       <use xlink:href="#TimesNewRomanPSMT-48"/>
       <use x="50" xlink:href="#TimesNewRomanPSMT-46"/>
       <use x="75" xlink:href="#TimesNewRomanPSMT-48"/>
       <use x="125" xlink:href="#TimesNewRomanPSMT-48"/>
       <use x="175" xlink:href="#TimesNewRomanPSMT-48"/>
      </g>
     </g>
    </g>
    <g id="xtick_2">
     <g id="line2d_2">
      <g>
       <use style="stroke:#000000;stroke-width:0.8;" x="148.9125" xlink:href="#mcecd358fcd" y="232.8"/>
      </g>
     </g>
     <g id="text_2">
      <!-- 0.017 -->
      <g transform="translate(132.0375 250.215625)scale(0.15 -0.15)">
       <defs>
        <path d="M 11.71875 59.71875 
L 27.828125 67.578125 
L 29.4375 67.578125 
L 29.4375 11.671875 
Q 29.4375 6.109375 29.90625 4.734375 
Q 30.375 3.375 31.828125 2.640625 
Q 33.296875 1.90625 37.796875 1.8125 
L 37.796875 0 
L 12.890625 0 
L 12.890625 1.8125 
Q 17.578125 1.90625 18.9375 2.609375 
Q 20.3125 3.328125 20.84375 4.515625 
Q 21.390625 5.71875 21.390625 11.671875 
L 21.390625 47.40625 
Q 21.390625 54.640625 20.90625 56.6875 
Q 20.5625 58.25 19.65625 58.984375 
Q 18.75 59.71875 17.484375 59.71875 
Q 15.671875 59.71875 12.453125 58.203125 
z
" id="TimesNewRomanPSMT-49"/>
        <path d="M 10.0625 66.21875 
L 45.5625 66.21875 
L 45.5625 64.359375 
L 23.484375 -1.375 
L 18.015625 -1.375 
L 37.796875 58.25 
L 19.578125 58.25 
Q 14.0625 58.25 11.71875 56.9375 
Q 7.625 54.6875 5.125 50 
L 3.71875 50.53125 
z
" id="TimesNewRomanPSMT-55"/>
       </defs>
       <use xlink:href="#TimesNewRomanPSMT-48"/>
       <use x="50" xlink:href="#TimesNewRomanPSMT-46"/>
       <use x="75" xlink:href="#TimesNewRomanPSMT-48"/>
       <use x="125" xlink:href="#TimesNewRomanPSMT-49"/>
       <use x="175" xlink:href="#TimesNewRomanPSMT-55"/>
      </g>
     </g>
    </g>
    <g id="xtick_3">
     <g id="line2d_3">
      <g>
       <use style="stroke:#000000;stroke-width:0.8;" x="208.220833" xlink:href="#mcecd358fcd" y="232.8"/>
      </g>
     </g>
     <g id="text_3">
      <!-- 0.033 -->
      <g transform="translate(191.345833 250.215625)scale(0.15 -0.15)">
       <defs>
        <path d="M 5.078125 53.609375 
Q 7.90625 60.296875 12.21875 63.9375 
Q 16.546875 67.578125 23 67.578125 
Q 30.953125 67.578125 35.203125 62.40625 
Q 38.421875 58.546875 38.421875 54.15625 
Q 38.421875 46.921875 29.34375 39.203125 
Q 35.453125 36.8125 38.578125 32.375 
Q 41.703125 27.9375 41.703125 21.921875 
Q 41.703125 13.328125 36.234375 7.03125 
Q 29.109375 -1.171875 15.578125 -1.171875 
Q 8.890625 -1.171875 6.46875 0.484375 
Q 4.046875 2.15625 4.046875 4.046875 
Q 4.046875 5.46875 5.1875 6.546875 
Q 6.34375 7.625 7.953125 7.625 
Q 9.1875 7.625 10.453125 7.234375 
Q 11.28125 6.984375 14.203125 5.4375 
Q 17.140625 3.90625 18.265625 3.609375 
Q 20.0625 3.078125 22.125 3.078125 
Q 27.09375 3.078125 30.78125 6.9375 
Q 34.46875 10.796875 34.46875 16.0625 
Q 34.46875 19.921875 32.765625 23.578125 
Q 31.5 26.3125 29.984375 27.734375 
Q 27.875 29.6875 24.21875 31.265625 
Q 20.5625 32.859375 16.75 32.859375 
L 15.1875 32.859375 
L 15.1875 34.328125 
Q 19.046875 34.8125 22.921875 37.109375 
Q 26.8125 39.40625 28.5625 42.625 
Q 30.328125 45.84375 30.328125 49.703125 
Q 30.328125 54.734375 27.171875 57.828125 
Q 24.03125 60.9375 19.34375 60.9375 
Q 11.765625 60.9375 6.6875 52.828125 
z
" id="TimesNewRomanPSMT-51"/>
       </defs>
       <use xlink:href="#TimesNewRomanPSMT-48"/>
       <use x="50" xlink:href="#TimesNewRomanPSMT-46"/>
       <use x="75" xlink:href="#TimesNewRomanPSMT-48"/>
       <use x="125" xlink:href="#TimesNewRomanPSMT-51"/>
       <use x="175" xlink:href="#TimesNewRomanPSMT-51"/>
      </g>
     </g>
    </g>
    <g id="xtick_4">
     <g id="line2d_4">
      <g>
       <use style="stroke:#000000;stroke-width:0.8;" x="267.529167" xlink:href="#mcecd358fcd" y="232.8"/>
      </g>
     </g>
     <g id="text_4">
      <!-- 0.050 -->
      <g transform="translate(250.654167 250.215625)scale(0.15 -0.15)">
       <defs>
        <path d="M 43.40625 66.21875 
L 39.59375 57.90625 
L 19.671875 57.90625 
L 15.328125 49.03125 
Q 28.265625 47.125 35.84375 39.40625 
Q 42.328125 32.765625 42.328125 23.78125 
Q 42.328125 18.5625 40.203125 14.109375 
Q 38.09375 9.671875 34.859375 6.546875 
Q 31.640625 3.421875 27.6875 1.515625 
Q 22.078125 -1.171875 16.15625 -1.171875 
Q 10.203125 -1.171875 7.484375 0.84375 
Q 4.78125 2.875 4.78125 5.328125 
Q 4.78125 6.6875 5.90625 7.734375 
Q 7.03125 8.796875 8.734375 8.796875 
Q 10.015625 8.796875 10.96875 8.40625 
Q 11.921875 8.015625 14.203125 6.390625 
Q 17.875 3.859375 21.625 3.859375 
Q 27.34375 3.859375 31.65625 8.171875 
Q 35.984375 12.5 35.984375 18.703125 
Q 35.984375 24.703125 32.125 29.90625 
Q 28.265625 35.109375 21.484375 37.9375 
Q 16.15625 40.140625 6.984375 40.484375 
L 19.671875 66.21875 
z
" id="TimesNewRomanPSMT-53"/>
       </defs>
       <use xlink:href="#TimesNewRomanPSMT-48"/>
       <use x="50" xlink:href="#TimesNewRomanPSMT-46"/>
       <use x="75" xlink:href="#TimesNewRomanPSMT-48"/>
       <use x="125" xlink:href="#TimesNewRomanPSMT-53"/>
       <use x="175" xlink:href="#TimesNewRomanPSMT-48"/>
      </g>
     </g>
    </g>
    <g id="xtick_5">
     <g id="line2d_5">
      <g>
       <use style="stroke:#000000;stroke-width:0.8;" x="326.8375" xlink:href="#mcecd358fcd" y="232.8"/>
      </g>
     </g>
     <g id="text_5">
      <!-- 0.067 -->
      <g transform="translate(309.9625 250.215625)scale(0.15 -0.15)">
       <defs>
        <path d="M 44.828125 67.578125 
L 44.828125 65.765625 
Q 38.375 65.140625 34.296875 63.203125 
Q 30.21875 61.28125 26.234375 57.328125 
Q 22.265625 53.375 19.65625 48.515625 
Q 17.046875 43.65625 15.28125 36.96875 
Q 22.3125 41.796875 29.390625 41.796875 
Q 36.1875 41.796875 41.15625 36.328125 
Q 46.140625 30.859375 46.140625 22.265625 
Q 46.140625 13.96875 41.109375 7.125 
Q 35.0625 -1.171875 25.09375 -1.171875 
Q 18.3125 -1.171875 13.578125 3.328125 
Q 4.296875 12.0625 4.296875 25.984375 
Q 4.296875 34.859375 7.859375 42.859375 
Q 11.421875 50.875 18.03125 57.078125 
Q 24.65625 63.28125 30.703125 65.421875 
Q 36.765625 67.578125 42 67.578125 
z
M 14.453125 33.40625 
Q 13.578125 26.8125 13.578125 22.75 
Q 13.578125 18.0625 15.3125 12.5625 
Q 17.046875 7.078125 20.453125 3.859375 
Q 22.953125 1.5625 26.515625 1.5625 
Q 30.765625 1.5625 34.109375 5.5625 
Q 37.453125 9.578125 37.453125 17 
Q 37.453125 25.34375 34.125 31.4375 
Q 30.8125 37.546875 24.703125 37.546875 
Q 22.859375 37.546875 20.734375 36.765625 
Q 18.609375 35.984375 14.453125 33.40625 
z
" id="TimesNewRomanPSMT-54"/>
       </defs>
       <use xlink:href="#TimesNewRomanPSMT-48"/>
       <use x="50" xlink:href="#TimesNewRomanPSMT-46"/>
       <use x="75" xlink:href="#TimesNewRomanPSMT-48"/>
       <use x="125" xlink:href="#TimesNewRomanPSMT-54"/>
       <use x="175" xlink:href="#TimesNewRomanPSMT-55"/>
      </g>
     </g>
    </g>
    <g id="xtick_6">
     <g id="line2d_6">
      <g>
       <use style="stroke:#000000;stroke-width:0.8;" x="386.145833" xlink:href="#mcecd358fcd" y="232.8"/>
      </g>
     </g>
     <g id="text_6">
      <!-- 0.083 -->
      <g transform="translate(369.270833 250.215625)scale(0.15 -0.15)">
       <defs>
        <path d="M 19.1875 33.34375 
Q 11.328125 39.796875 9.046875 43.703125 
Q 6.78125 47.609375 6.78125 51.8125 
Q 6.78125 58.25 11.765625 62.90625 
Q 16.75 67.578125 25 67.578125 
Q 33.015625 67.578125 37.890625 63.234375 
Q 42.78125 58.890625 42.78125 53.328125 
Q 42.78125 49.609375 40.140625 45.75 
Q 37.5 41.890625 29.15625 36.671875 
Q 37.75 30.03125 40.53125 26.21875 
Q 44.234375 21.234375 44.234375 15.71875 
Q 44.234375 8.734375 38.90625 3.78125 
Q 33.59375 -1.171875 24.953125 -1.171875 
Q 15.53125 -1.171875 10.25 4.734375 
Q 6.0625 9.46875 6.0625 15.09375 
Q 6.0625 19.484375 9.015625 23.796875 
Q 11.96875 28.125 19.1875 33.34375 
z
M 26.859375 38.578125 
Q 32.71875 43.84375 34.28125 46.890625 
Q 35.84375 49.953125 35.84375 53.8125 
Q 35.84375 58.9375 32.953125 61.84375 
Q 30.078125 64.75 25.09375 64.75 
Q 20.125 64.75 17 61.859375 
Q 13.875 58.984375 13.875 55.125 
Q 13.875 52.59375 15.15625 50.046875 
Q 16.453125 47.515625 18.84375 45.21875 
z
M 21.484375 31.5 
Q 17.4375 28.078125 15.484375 24.046875 
Q 13.53125 20.015625 13.53125 15.328125 
Q 13.53125 9.03125 16.96875 5.25 
Q 20.40625 1.46875 25.734375 1.46875 
Q 31 1.46875 34.171875 4.4375 
Q 37.359375 7.421875 37.359375 11.671875 
Q 37.359375 15.1875 35.5 17.96875 
Q 32.03125 23.140625 21.484375 31.5 
z
" id="TimesNewRomanPSMT-56"/>
       </defs>
       <use xlink:href="#TimesNewRomanPSMT-48"/>
       <use x="50" xlink:href="#TimesNewRomanPSMT-46"/>
       <use x="75" xlink:href="#TimesNewRomanPSMT-48"/>
       <use x="125" xlink:href="#TimesNewRomanPSMT-56"/>
       <use x="175" xlink:href="#TimesNewRomanPSMT-51"/>
      </g>
     </g>
    </g>
    <g id="text_7">
     <!-- Noise standard deviation -->
     <g transform="translate(163.308594 267.839844)scale(0.15 -0.15)">
      <defs>
       <path d="M -1.3125 66.21875 
L 16.65625 66.21875 
L 57.125 16.546875 
L 57.125 54.734375 
Q 57.125 60.84375 55.765625 62.359375 
Q 53.953125 64.40625 50.046875 64.40625 
L 47.75 64.40625 
L 47.75 66.21875 
L 70.796875 66.21875 
L 70.796875 64.40625 
L 68.453125 64.40625 
Q 64.265625 64.40625 62.5 61.859375 
Q 61.421875 60.296875 61.421875 54.734375 
L 61.421875 -1.078125 
L 59.671875 -1.078125 
L 16.015625 52.25 
L 16.015625 11.46875 
Q 16.015625 5.375 17.328125 3.859375 
Q 19.1875 1.8125 23.046875 1.8125 
L 25.390625 1.8125 
L 25.390625 0 
L 2.34375 0 
L 2.34375 1.8125 
L 4.640625 1.8125 
Q 8.890625 1.8125 10.640625 4.34375 
Q 11.71875 5.90625 11.71875 11.46875 
L 11.71875 57.515625 
Q 8.84375 60.890625 7.34375 61.953125 
Q 5.859375 63.03125 2.984375 63.96875 
Q 1.5625 64.40625 -1.3125 64.40625 
z
" id="TimesNewRomanPSMT-78"/>
       <path d="M 25 46.046875 
Q 35.15625 46.046875 41.3125 38.328125 
Q 46.53125 31.734375 46.53125 23.1875 
Q 46.53125 17.1875 43.640625 11.03125 
Q 40.765625 4.890625 35.71875 1.75 
Q 30.671875 -1.375 24.46875 -1.375 
Q 14.359375 -1.375 8.40625 6.6875 
Q 3.375 13.484375 3.375 21.921875 
Q 3.375 28.078125 6.421875 34.15625 
Q 9.46875 40.234375 14.453125 43.140625 
Q 19.4375 46.046875 25 46.046875 
z
M 23.484375 42.875 
Q 20.90625 42.875 18.28125 41.328125 
Q 15.671875 39.796875 14.0625 35.9375 
Q 12.453125 32.078125 12.453125 26.03125 
Q 12.453125 16.265625 16.328125 9.171875 
Q 20.21875 2.09375 26.5625 2.09375 
Q 31.296875 2.09375 34.375 6 
Q 37.453125 9.90625 37.453125 19.4375 
Q 37.453125 31.34375 32.328125 38.1875 
Q 28.859375 42.875 23.484375 42.875 
z
" id="TimesNewRomanPSMT-111"/>
       <path d="M 14.5 69.4375 
Q 16.546875 69.4375 17.984375 67.984375 
Q 19.4375 66.546875 19.4375 64.5 
Q 19.4375 62.453125 17.984375 60.984375 
Q 16.546875 59.515625 14.5 59.515625 
Q 12.453125 59.515625 10.984375 60.984375 
Q 9.515625 62.453125 9.515625 64.5 
Q 9.515625 66.546875 10.953125 67.984375 
Q 12.40625 69.4375 14.5 69.4375 
z
M 18.5625 46.046875 
L 18.5625 10.109375 
Q 18.5625 5.90625 19.171875 4.515625 
Q 19.78125 3.125 20.96875 2.4375 
Q 22.171875 1.765625 25.34375 1.765625 
L 25.34375 0 
L 3.609375 0 
L 3.609375 1.765625 
Q 6.890625 1.765625 8 2.390625 
Q 9.125 3.03125 9.78125 4.484375 
Q 10.453125 5.953125 10.453125 10.109375 
L 10.453125 27.34375 
Q 10.453125 34.625 10.015625 36.765625 
Q 9.671875 38.328125 8.9375 38.9375 
Q 8.203125 39.546875 6.9375 39.546875 
Q 5.5625 39.546875 3.609375 38.8125 
L 2.9375 40.578125 
L 16.40625 46.046875 
z
" id="TimesNewRomanPSMT-105"/>
       <path d="M 32.03125 46.046875 
L 32.03125 30.8125 
L 30.421875 30.8125 
Q 28.5625 37.984375 25.65625 40.578125 
Q 22.75 43.171875 18.265625 43.171875 
Q 14.84375 43.171875 12.734375 41.359375 
Q 10.640625 39.546875 10.640625 37.359375 
Q 10.640625 34.625 12.203125 32.671875 
Q 13.71875 30.671875 18.359375 28.421875 
L 25.484375 24.953125 
Q 35.40625 20.125 35.40625 12.203125 
Q 35.40625 6.109375 30.78125 2.359375 
Q 26.171875 -1.375 20.453125 -1.375 
Q 16.359375 -1.375 11.078125 0.09375 
Q 9.46875 0.59375 8.453125 0.59375 
Q 7.328125 0.59375 6.6875 -0.6875 
L 5.078125 -0.6875 
L 5.078125 15.28125 
L 6.6875 15.28125 
Q 8.0625 8.453125 11.90625 4.984375 
Q 15.765625 1.515625 20.5625 1.515625 
Q 23.921875 1.515625 26.046875 3.484375 
Q 28.171875 5.46875 28.171875 8.25 
Q 28.171875 11.625 25.796875 13.921875 
Q 23.4375 16.21875 16.359375 19.734375 
Q 9.28125 23.25 7.078125 26.078125 
Q 4.890625 28.859375 4.890625 33.109375 
Q 4.890625 38.625 8.671875 42.328125 
Q 12.453125 46.046875 18.453125 46.046875 
Q 21.09375 46.046875 24.859375 44.921875 
Q 27.34375 44.1875 28.171875 44.1875 
Q 28.953125 44.1875 29.390625 44.53125 
Q 29.828125 44.875 30.421875 46.046875 
z
" id="TimesNewRomanPSMT-115"/>
       <path d="M 10.640625 27.875 
Q 10.59375 17.921875 15.484375 12.25 
Q 20.359375 6.59375 26.953125 6.59375 
Q 31.34375 6.59375 34.59375 9 
Q 37.84375 11.421875 40.046875 17.28125 
L 41.546875 16.3125 
Q 40.53125 9.625 35.59375 4.125 
Q 30.671875 -1.375 23.25 -1.375 
Q 15.1875 -1.375 9.453125 4.90625 
Q 3.71875 11.1875 3.71875 21.78125 
Q 3.71875 33.25 9.59375 39.671875 
Q 15.484375 46.09375 24.359375 46.09375 
Q 31.890625 46.09375 36.71875 41.140625 
Q 41.546875 36.1875 41.546875 27.875 
z
M 10.640625 30.71875 
L 31.34375 30.71875 
Q 31.109375 35.015625 30.328125 36.765625 
Q 29.109375 39.5 26.6875 41.0625 
Q 24.265625 42.625 21.625 42.625 
Q 17.578125 42.625 14.375 39.46875 
Q 11.1875 36.328125 10.640625 30.71875 
z
" id="TimesNewRomanPSMT-101"/>
       <path id="TimesNewRomanPSMT-32"/>
       <path d="M 16.109375 59.421875 
L 16.109375 44.734375 
L 26.5625 44.734375 
L 26.5625 41.3125 
L 16.109375 41.3125 
L 16.109375 12.3125 
Q 16.109375 7.953125 17.359375 6.4375 
Q 18.609375 4.9375 20.5625 4.9375 
Q 22.171875 4.9375 23.6875 5.9375 
Q 25.203125 6.9375 26.03125 8.890625 
L 27.9375 8.890625 
Q 26.21875 4.109375 23.09375 1.6875 
Q 19.96875 -0.734375 16.65625 -0.734375 
Q 14.40625 -0.734375 12.25 0.515625 
Q 10.109375 1.765625 9.078125 4.078125 
Q 8.0625 6.390625 8.0625 11.234375 
L 8.0625 41.3125 
L 0.984375 41.3125 
L 0.984375 42.921875 
Q 3.65625 44 6.46875 46.5625 
Q 9.28125 49.125 11.46875 52.640625 
Q 12.59375 54.5 14.59375 59.421875 
z
" id="TimesNewRomanPSMT-116"/>
       <path d="M 28.46875 6.453125 
Q 21.578125 1.125 19.828125 0.296875 
Q 17.1875 -0.921875 14.203125 -0.921875 
Q 9.578125 -0.921875 6.5625 2.25 
Q 3.5625 5.421875 3.5625 10.59375 
Q 3.5625 13.875 5.03125 16.265625 
Q 7.03125 19.578125 11.984375 22.5 
Q 16.9375 25.4375 28.46875 29.640625 
L 28.46875 31.390625 
Q 28.46875 38.09375 26.34375 40.578125 
Q 24.21875 43.0625 20.171875 43.0625 
Q 17.09375 43.0625 15.28125 41.40625 
Q 13.421875 39.75 13.421875 37.59375 
L 13.53125 34.765625 
Q 13.53125 32.515625 12.375 31.296875 
Q 11.234375 30.078125 9.375 30.078125 
Q 7.5625 30.078125 6.421875 31.34375 
Q 5.28125 32.625 5.28125 34.8125 
Q 5.28125 39.015625 9.578125 42.53125 
Q 13.875 46.046875 21.625 46.046875 
Q 27.59375 46.046875 31.390625 44.046875 
Q 34.28125 42.53125 35.640625 39.3125 
Q 36.53125 37.203125 36.53125 30.71875 
L 36.53125 15.53125 
Q 36.53125 9.125 36.765625 7.6875 
Q 37.015625 6.25 37.578125 5.765625 
Q 38.140625 5.28125 38.875 5.28125 
Q 39.65625 5.28125 40.234375 5.609375 
Q 41.265625 6.25 44.1875 9.1875 
L 44.1875 6.453125 
Q 38.71875 -0.875 33.734375 -0.875 
Q 31.34375 -0.875 29.921875 0.78125 
Q 28.515625 2.4375 28.46875 6.453125 
z
M 28.46875 9.625 
L 28.46875 26.65625 
Q 21.09375 23.734375 18.953125 22.515625 
Q 15.09375 20.359375 13.421875 18.015625 
Q 11.765625 15.671875 11.765625 12.890625 
Q 11.765625 9.375 13.859375 7.046875 
Q 15.96875 4.734375 18.703125 4.734375 
Q 22.40625 4.734375 28.46875 9.625 
z
" id="TimesNewRomanPSMT-97"/>
       <path d="M 16.15625 36.578125 
Q 24.03125 46.046875 31.15625 46.046875 
Q 34.8125 46.046875 37.453125 44.21875 
Q 40.09375 42.390625 41.65625 38.1875 
Q 42.71875 35.25 42.71875 29.203125 
L 42.71875 10.109375 
Q 42.71875 5.859375 43.40625 4.34375 
Q 43.953125 3.125 45.140625 2.4375 
Q 46.34375 1.765625 49.5625 1.765625 
L 49.5625 0 
L 27.4375 0 
L 27.4375 1.765625 
L 28.375 1.765625 
Q 31.5 1.765625 32.734375 2.703125 
Q 33.984375 3.65625 34.46875 5.515625 
Q 34.671875 6.25 34.671875 10.109375 
L 34.671875 28.421875 
Q 34.671875 34.515625 33.078125 37.28125 
Q 31.5 40.046875 27.734375 40.046875 
Q 21.921875 40.046875 16.15625 33.6875 
L 16.15625 10.109375 
Q 16.15625 5.5625 16.703125 4.5 
Q 17.390625 3.078125 18.578125 2.421875 
Q 19.78125 1.765625 23.4375 1.765625 
L 23.4375 0 
L 1.3125 0 
L 1.3125 1.765625 
L 2.296875 1.765625 
Q 5.71875 1.765625 6.90625 3.484375 
Q 8.109375 5.21875 8.109375 10.109375 
L 8.109375 26.703125 
Q 8.109375 34.765625 7.734375 36.515625 
Q 7.375 38.28125 6.609375 38.90625 
Q 5.859375 39.546875 4.59375 39.546875 
Q 3.21875 39.546875 1.3125 38.8125 
L 0.59375 40.578125 
L 14.0625 46.046875 
L 16.15625 46.046875 
z
" id="TimesNewRomanPSMT-110"/>
       <path d="M 34.71875 5.03125 
Q 31.453125 1.609375 28.328125 0.109375 
Q 25.203125 -1.375 21.578125 -1.375 
Q 14.265625 -1.375 8.796875 4.75 
Q 3.328125 10.890625 3.328125 20.515625 
Q 3.328125 30.125 9.375 38.109375 
Q 15.4375 46.09375 24.953125 46.09375 
Q 30.859375 46.09375 34.71875 42.328125 
L 34.71875 50.59375 
Q 34.71875 58.25 34.34375 60 
Q 33.984375 61.765625 33.203125 62.390625 
Q 32.421875 63.03125 31.25 63.03125 
Q 29.984375 63.03125 27.875 62.25 
L 27.25 63.96875 
L 40.578125 69.4375 
L 42.78125 69.4375 
L 42.78125 17.71875 
Q 42.78125 9.859375 43.140625 8.125 
Q 43.5 6.390625 44.3125 5.703125 
Q 45.125 5.03125 46.1875 5.03125 
Q 47.515625 5.03125 49.703125 5.859375 
L 50.25 4.15625 
L 36.96875 -1.375 
L 34.71875 -1.375 
z
M 34.71875 8.453125 
L 34.71875 31.5 
Q 34.421875 34.8125 32.953125 37.546875 
Q 31.5 40.28125 29.078125 41.671875 
Q 26.65625 43.0625 24.359375 43.0625 
Q 20.0625 43.0625 16.703125 39.203125 
Q 12.25 34.125 12.25 24.359375 
Q 12.25 14.5 16.546875 9.25 
Q 20.84375 4 26.125 4 
Q 30.5625 4 34.71875 8.453125 
z
" id="TimesNewRomanPSMT-100"/>
       <path d="M 16.21875 46.046875 
L 16.21875 35.984375 
Q 21.828125 46.046875 27.734375 46.046875 
Q 30.421875 46.046875 32.171875 44.40625 
Q 33.9375 42.78125 33.9375 40.625 
Q 33.9375 38.71875 32.65625 37.390625 
Q 31.390625 36.078125 29.640625 36.078125 
Q 27.9375 36.078125 25.8125 37.765625 
Q 23.6875 39.453125 22.65625 39.453125 
Q 21.78125 39.453125 20.75 38.484375 
Q 18.5625 36.46875 16.21875 31.890625 
L 16.21875 10.453125 
Q 16.21875 6.734375 17.140625 4.828125 
Q 17.78125 3.515625 19.390625 2.640625 
Q 21 1.765625 24.03125 1.765625 
L 24.03125 0 
L 1.125 0 
L 1.125 1.765625 
Q 4.546875 1.765625 6.203125 2.828125 
Q 7.421875 3.609375 7.90625 5.328125 
Q 8.15625 6.15625 8.15625 10.0625 
L 8.15625 27.390625 
Q 8.15625 35.203125 7.828125 36.6875 
Q 7.515625 38.1875 6.65625 38.859375 
Q 5.8125 39.546875 4.546875 39.546875 
Q 3.03125 39.546875 1.125 38.8125 
L 0.640625 40.578125 
L 14.15625 46.046875 
z
" id="TimesNewRomanPSMT-114"/>
       <path d="M 0.828125 44.734375 
L 21.875 44.734375 
L 21.875 42.921875 
L 20.515625 42.921875 
Q 18.609375 42.921875 17.609375 41.984375 
Q 16.609375 41.0625 16.609375 39.5 
Q 16.609375 37.796875 17.625 35.453125 
L 28.03125 10.75 
L 38.484375 36.375 
Q 39.59375 39.109375 39.59375 40.53125 
Q 39.59375 41.21875 39.203125 41.65625 
Q 38.671875 42.390625 37.84375 42.65625 
Q 37.015625 42.921875 34.46875 42.921875 
L 34.46875 44.734375 
L 49.078125 44.734375 
L 49.078125 42.921875 
Q 46.53125 42.71875 45.5625 41.890625 
Q 43.84375 40.4375 42.484375 37.015625 
L 26.609375 -1.375 
L 24.609375 -1.375 
L 8.640625 36.375 
Q 7.5625 39.015625 6.578125 40.15625 
Q 5.609375 41.3125 4.109375 42.09375 
Q 3.265625 42.53125 0.828125 42.921875 
z
" id="TimesNewRomanPSMT-118"/>
      </defs>
      <use xlink:href="#TimesNewRomanPSMT-78"/>
      <use x="72.216797" xlink:href="#TimesNewRomanPSMT-111"/>
      <use x="122.216797" xlink:href="#TimesNewRomanPSMT-105"/>
      <use x="150" xlink:href="#TimesNewRomanPSMT-115"/>
      <use x="188.916016" xlink:href="#TimesNewRomanPSMT-101"/>
      <use x="233.300781" xlink:href="#TimesNewRomanPSMT-32"/>
      <use x="258.300781" xlink:href="#TimesNewRomanPSMT-115"/>
      <use x="297.216797" xlink:href="#TimesNewRomanPSMT-116"/>
      <use x="325" xlink:href="#TimesNewRomanPSMT-97"/>
      <use x="369.384766" xlink:href="#TimesNewRomanPSMT-110"/>
      <use x="419.384766" xlink:href="#TimesNewRomanPSMT-100"/>
      <use x="469.384766" xlink:href="#TimesNewRomanPSMT-97"/>
      <use x="513.769531" xlink:href="#TimesNewRomanPSMT-114"/>
      <use x="547.070312" xlink:href="#TimesNewRomanPSMT-100"/>
      <use x="597.070312" xlink:href="#TimesNewRomanPSMT-32"/>
      <use x="622.070312" xlink:href="#TimesNewRomanPSMT-100"/>
      <use x="672.070312" xlink:href="#TimesNewRomanPSMT-101"/>
      <use x="716.455078" xlink:href="#TimesNewRomanPSMT-118"/>
      <use x="766.455078" xlink:href="#TimesNewRomanPSMT-105"/>
      <use x="794.238281" xlink:href="#TimesNewRomanPSMT-97"/>
      <use x="838.623047" xlink:href="#TimesNewRomanPSMT-116"/>
      <use x="866.40625" xlink:href="#TimesNewRomanPSMT-105"/>
      <use x="894.189453" xlink:href="#TimesNewRomanPSMT-111"/>
      <use x="944.189453" xlink:href="#TimesNewRomanPSMT-110"/>
     </g>
    </g>
   </g>
   <g id="matplotlib.axis_2">
    <g id="ytick_1">
     <g id="line2d_7">
      <defs>
       <path d="M 0 0 
L -3.5 0 
" id="maee5ff1f34" style="stroke:#000000;stroke-width:0.8;"/>
      </defs>
      <g>
       <use style="stroke:#000000;stroke-width:0.8;" x="59.95" xlink:href="#maee5ff1f34" y="187.753446"/>
      </g>
     </g>
     <g id="text_8">
      <!-- 0.8 -->
      <g transform="translate(34.2 192.961258)scale(0.15 -0.15)">
       <use xlink:href="#TimesNewRomanPSMT-48"/>
       <use x="50" xlink:href="#TimesNewRomanPSMT-46"/>
       <use x="75" xlink:href="#TimesNewRomanPSMT-56"/>
      </g>
     </g>
    </g>
    <g id="ytick_2">
     <g id="line2d_8">
      <g>
       <use style="stroke:#000000;stroke-width:0.8;" x="59.95" xlink:href="#maee5ff1f34" y="141.023445"/>
      </g>
     </g>
     <g id="text_9">
      <!-- 0.9 -->
      <g transform="translate(34.2 146.231258)scale(0.15 -0.15)">
       <defs>
        <path d="M 5.28125 -1.375 
L 5.28125 0.4375 
Q 11.625 0.53125 17.09375 3.390625 
Q 22.5625 6.25 27.65625 13.375 
Q 32.765625 20.515625 34.765625 29.046875 
Q 27.09375 24.125 20.90625 24.125 
Q 13.921875 24.125 8.9375 29.515625 
Q 3.953125 34.90625 3.953125 43.84375 
Q 3.953125 52.546875 8.9375 59.328125 
Q 14.9375 67.578125 24.609375 67.578125 
Q 32.765625 67.578125 38.578125 60.84375 
Q 45.703125 52.484375 45.703125 40.234375 
Q 45.703125 29.203125 40.28125 19.65625 
Q 34.859375 10.109375 25.203125 3.8125 
Q 17.328125 -1.375 8.0625 -1.375 
z
M 35.546875 32.671875 
Q 36.421875 39.015625 36.421875 42.828125 
Q 36.421875 47.5625 34.8125 53.046875 
Q 33.203125 58.546875 30.25 61.46875 
Q 27.296875 64.40625 23.53125 64.40625 
Q 19.1875 64.40625 15.90625 60.5 
Q 12.640625 56.59375 12.640625 48.875 
Q 12.640625 38.578125 17 32.765625 
Q 20.171875 28.5625 24.8125 28.5625 
Q 27.046875 28.5625 30.125 29.640625 
Q 33.203125 30.71875 35.546875 32.671875 
z
" id="TimesNewRomanPSMT-57"/>
       </defs>
       <use xlink:href="#TimesNewRomanPSMT-48"/>
       <use x="50" xlink:href="#TimesNewRomanPSMT-46"/>
       <use x="75" xlink:href="#TimesNewRomanPSMT-57"/>
      </g>
     </g>
    </g>
    <g id="ytick_3">
     <g id="line2d_9">
      <g>
       <use style="stroke:#000000;stroke-width:0.8;" x="59.95" xlink:href="#maee5ff1f34" y="94.293445"/>
      </g>
     </g>
     <g id="text_10">
      <!-- 1.0 -->
      <g transform="translate(34.2 99.501257)scale(0.15 -0.15)">
       <use xlink:href="#TimesNewRomanPSMT-49"/>
       <use x="50" xlink:href="#TimesNewRomanPSMT-46"/>
       <use x="75" xlink:href="#TimesNewRomanPSMT-48"/>
      </g>
     </g>
    </g>
    <g id="ytick_4">
     <g id="line2d_10">
      <g>
       <use style="stroke:#000000;stroke-width:0.8;" x="59.95" xlink:href="#maee5ff1f34" y="47.563444"/>
      </g>
     </g>
     <g id="text_11">
      <!-- 1.1 -->
      <g transform="translate(34.2 52.771257)scale(0.15 -0.15)">
       <use xlink:href="#TimesNewRomanPSMT-49"/>
       <use x="50" xlink:href="#TimesNewRomanPSMT-46"/>
       <use x="75" xlink:href="#TimesNewRomanPSMT-49"/>
      </g>
     </g>
    </g>
    <g id="text_12">
     <!-- Best function evaluation -->
     <g transform="translate(26.991406 197.817187)rotate(-90)scale(0.15 -0.15)">
      <defs>
       <path d="M 46.1875 33.796875 
Q 53.078125 32.328125 56.5 29.109375 
Q 61.234375 24.609375 61.234375 18.109375 
Q 61.234375 13.1875 58.109375 8.671875 
Q 54.984375 4.15625 49.53125 2.078125 
Q 44.09375 0 32.90625 0 
L 1.65625 0 
L 1.65625 1.8125 
L 4.15625 1.8125 
Q 8.296875 1.8125 10.109375 4.4375 
Q 11.234375 6.15625 11.234375 11.71875 
L 11.234375 54.5 
Q 11.234375 60.640625 9.8125 62.25 
Q 7.90625 64.40625 4.15625 64.40625 
L 1.65625 64.40625 
L 1.65625 66.21875 
L 30.28125 66.21875 
Q 38.28125 66.21875 43.109375 65.046875 
Q 50.4375 63.28125 54.296875 58.8125 
Q 58.15625 54.34375 58.15625 48.53125 
Q 58.15625 43.5625 55.125 39.625 
Q 52.09375 35.6875 46.1875 33.796875 
z
M 20.609375 36.421875 
Q 22.40625 36.078125 24.71875 35.90625 
Q 27.046875 35.75 29.828125 35.75 
Q 36.96875 35.75 40.546875 37.28125 
Q 44.140625 38.8125 46.046875 41.984375 
Q 47.953125 45.171875 47.953125 48.921875 
Q 47.953125 54.734375 43.21875 58.828125 
Q 38.484375 62.9375 29.390625 62.9375 
Q 24.515625 62.9375 20.609375 61.859375 
z
M 20.609375 4.78125 
Q 26.265625 3.46875 31.78125 3.46875 
Q 40.625 3.46875 45.265625 7.4375 
Q 49.90625 11.421875 49.90625 17.28125 
Q 49.90625 21.140625 47.796875 24.703125 
Q 45.703125 28.265625 40.96875 30.3125 
Q 36.234375 32.375 29.25 32.375 
Q 26.21875 32.375 24.0625 32.265625 
Q 21.921875 32.171875 20.609375 31.9375 
z
" id="TimesNewRomanPSMT-66"/>
       <path d="M 20.609375 41.21875 
L 20.609375 11.8125 
Q 20.609375 5.5625 21.96875 3.90625 
Q 23.78125 1.765625 26.8125 1.765625 
L 30.859375 1.765625 
L 30.859375 0 
L 4.15625 0 
L 4.15625 1.765625 
L 6.15625 1.765625 
Q 8.109375 1.765625 9.71875 2.734375 
Q 11.328125 3.71875 11.9375 5.375 
Q 12.546875 7.03125 12.546875 11.8125 
L 12.546875 41.21875 
L 3.859375 41.21875 
L 3.859375 44.734375 
L 12.546875 44.734375 
L 12.546875 47.65625 
Q 12.546875 54.34375 14.6875 58.984375 
Q 16.84375 63.625 21.265625 66.484375 
Q 25.6875 69.34375 31.203125 69.34375 
Q 36.328125 69.34375 40.625 66.015625 
Q 43.453125 63.8125 43.453125 61.078125 
Q 43.453125 59.625 42.1875 58.328125 
Q 40.921875 57.03125 39.453125 57.03125 
Q 38.328125 57.03125 37.078125 57.828125 
Q 35.84375 58.640625 34.03125 61.296875 
Q 32.234375 63.96875 30.71875 64.890625 
Q 29.203125 65.828125 27.34375 65.828125 
Q 25.09375 65.828125 23.53125 64.625 
Q 21.96875 63.421875 21.28125 60.90625 
Q 20.609375 58.40625 20.609375 47.953125 
L 20.609375 44.734375 
L 32.125 44.734375 
L 32.125 41.21875 
z
" id="TimesNewRomanPSMT-102"/>
       <path d="M 42.328125 44.734375 
L 42.328125 17.625 
Q 42.328125 9.859375 42.6875 8.125 
Q 43.0625 6.390625 43.859375 5.703125 
Q 44.671875 5.03125 45.75 5.03125 
Q 47.265625 5.03125 49.171875 5.859375 
L 49.859375 4.15625 
L 36.46875 -1.375 
L 34.28125 -1.375 
L 34.28125 8.109375 
Q 28.515625 1.859375 25.484375 0.234375 
Q 22.46875 -1.375 19.09375 -1.375 
Q 15.328125 -1.375 12.5625 0.796875 
Q 9.8125 2.984375 8.734375 6.390625 
Q 7.671875 9.8125 7.671875 16.0625 
L 7.671875 36.03125 
Q 7.671875 39.203125 6.984375 40.421875 
Q 6.296875 41.65625 4.953125 42.3125 
Q 3.609375 42.96875 0.09375 42.921875 
L 0.09375 44.734375 
L 15.765625 44.734375 
L 15.765625 14.796875 
Q 15.765625 8.546875 17.9375 6.59375 
Q 20.125 4.640625 23.1875 4.640625 
Q 25.296875 4.640625 27.953125 5.953125 
Q 30.609375 7.28125 34.28125 10.984375 
L 34.28125 36.328125 
Q 34.28125 40.140625 32.890625 41.484375 
Q 31.5 42.828125 27.09375 42.921875 
L 27.09375 44.734375 
z
" id="TimesNewRomanPSMT-117"/>
       <path d="M 41.109375 17 
Q 39.3125 8.15625 34.03125 3.390625 
Q 28.765625 -1.375 22.359375 -1.375 
Q 14.75 -1.375 9.078125 5.015625 
Q 3.421875 11.421875 3.421875 22.3125 
Q 3.421875 32.859375 9.6875 39.453125 
Q 15.96875 46.046875 24.75 46.046875 
Q 31.34375 46.046875 35.59375 42.546875 
Q 39.84375 39.0625 39.84375 35.296875 
Q 39.84375 33.453125 38.640625 32.296875 
Q 37.453125 31.15625 35.296875 31.15625 
Q 32.421875 31.15625 30.953125 33.015625 
Q 30.125 34.03125 29.859375 36.90625 
Q 29.59375 39.796875 27.875 41.3125 
Q 26.171875 42.78125 23.140625 42.78125 
Q 18.265625 42.78125 15.28125 39.15625 
Q 11.328125 34.375 11.328125 26.515625 
Q 11.328125 18.5 15.25 12.375 
Q 19.1875 6.25 25.875 6.25 
Q 30.671875 6.25 34.46875 9.515625 
Q 37.15625 11.765625 39.703125 17.671875 
z
" id="TimesNewRomanPSMT-99"/>
       <path d="M 18.5 69.4375 
L 18.5 10.109375 
Q 18.5 5.90625 19.109375 4.53125 
Q 19.734375 3.171875 21 2.46875 
Q 22.265625 1.765625 25.734375 1.765625 
L 25.734375 0 
L 3.8125 0 
L 3.8125 1.765625 
Q 6.890625 1.765625 8 2.390625 
Q 9.125 3.03125 9.765625 4.484375 
Q 10.40625 5.953125 10.40625 10.109375 
L 10.40625 50.734375 
Q 10.40625 58.296875 10.0625 60.03125 
Q 9.71875 61.765625 8.953125 62.390625 
Q 8.203125 63.03125 7.03125 63.03125 
Q 5.765625 63.03125 3.8125 62.25 
L 2.984375 63.96875 
L 16.3125 69.4375 
z
" id="TimesNewRomanPSMT-108"/>
      </defs>
      <use xlink:href="#TimesNewRomanPSMT-66"/>
      <use x="66.699219" xlink:href="#TimesNewRomanPSMT-101"/>
      <use x="111.083984" xlink:href="#TimesNewRomanPSMT-115"/>
      <use x="150" xlink:href="#TimesNewRomanPSMT-116"/>
      <use x="177.783203" xlink:href="#TimesNewRomanPSMT-32"/>
      <use x="202.783203" xlink:href="#TimesNewRomanPSMT-102"/>
      <use x="236.083984" xlink:href="#TimesNewRomanPSMT-117"/>
      <use x="286.083984" xlink:href="#TimesNewRomanPSMT-110"/>
      <use x="336.083984" xlink:href="#TimesNewRomanPSMT-99"/>
      <use x="380.46875" xlink:href="#TimesNewRomanPSMT-116"/>
      <use x="408.251953" xlink:href="#TimesNewRomanPSMT-105"/>
      <use x="436.035156" xlink:href="#TimesNewRomanPSMT-111"/>
      <use x="486.035156" xlink:href="#TimesNewRomanPSMT-110"/>
      <use x="536.035156" xlink:href="#TimesNewRomanPSMT-32"/>
      <use x="561.035156" xlink:href="#TimesNewRomanPSMT-101"/>
      <use x="605.419922" xlink:href="#TimesNewRomanPSMT-118"/>
      <use x="655.419922" xlink:href="#TimesNewRomanPSMT-97"/>
      <use x="699.804688" xlink:href="#TimesNewRomanPSMT-108"/>
      <use x="727.587891" xlink:href="#TimesNewRomanPSMT-117"/>
      <use x="777.587891" xlink:href="#TimesNewRomanPSMT-97"/>
      <use x="821.972656" xlink:href="#TimesNewRomanPSMT-116"/>
      <use x="849.755859" xlink:href="#TimesNewRomanPSMT-105"/>
      <use x="877.539062" xlink:href="#TimesNewRomanPSMT-111"/>
      <use x="927.539062" xlink:href="#TimesNewRomanPSMT-110"/>
     </g>
    </g>
   </g>
   <g id="line2d_11">
    <path clip-path="url(#p8cc20ef0ab)" d="M 71.811667 105.913689 
L 71.811667 106.572634 
" style="fill:none;stroke:#545454;stroke-linecap:square;stroke-width:1.5;"/>
   </g>
   <g id="line2d_12">
    <path clip-path="url(#p8cc20ef0ab)" d="M 71.811667 105.331152 
L 71.811667 105.243393 
" style="fill:none;stroke:#545454;stroke-linecap:square;stroke-width:1.5;"/>
   </g>
   <g id="line2d_13">
    <path clip-path="url(#p8cc20ef0ab)" d="M 68.905558 106.572634 
L 74.717775 106.572634 
" style="fill:none;stroke:#545454;stroke-linecap:square;stroke-width:1.5;"/>
   </g>
   <g id="line2d_14">
    <path clip-path="url(#p8cc20ef0ab)" d="M 68.905558 105.243393 
L 74.717775 105.243393 
" style="fill:none;stroke:#545454;stroke-linecap:square;stroke-width:1.5;"/>
   </g>
   <g id="line2d_15">
    <defs>
     <path d="M 0 3.535534 
L 2.12132 0 
L 0 -3.535534 
L -2.12132 0 
z
" id="mc18642e6f9" style="stroke:#545454;stroke-linejoin:miter;"/>
    </defs>
    <g clip-path="url(#p8cc20ef0ab)">
     <use style="fill:#545454;stroke:#545454;stroke-linejoin:miter;" x="71.811667" xlink:href="#mc18642e6f9" y="76.421351"/>
     <use style="fill:#545454;stroke:#545454;stroke-linejoin:miter;" x="71.811667" xlink:href="#mc18642e6f9" y="100.87099"/>
     <use style="fill:#545454;stroke:#545454;stroke-linejoin:miter;" x="71.811667" xlink:href="#mc18642e6f9" y="103.399842"/>
     <use style="fill:#545454;stroke:#545454;stroke-linejoin:miter;" x="71.811667" xlink:href="#mc18642e6f9" y="101.617011"/>
    </g>
   </g>
   <g id="line2d_16">
    <path clip-path="url(#p8cc20ef0ab)" d="M 83.673333 105.975945 
L 83.673333 105.975945 
" style="fill:none;stroke:#545454;stroke-linecap:square;stroke-width:1.5;"/>
   </g>
   <g id="line2d_17">
    <path clip-path="url(#p8cc20ef0ab)" d="M 83.673333 105.975944 
L 83.673333 105.975944 
" style="fill:none;stroke:#545454;stroke-linecap:square;stroke-width:1.5;"/>
   </g>
   <g id="line2d_18">
    <path clip-path="url(#p8cc20ef0ab)" d="M 80.767225 105.975945 
L 86.579442 105.975945 
" style="fill:none;stroke:#545454;stroke-linecap:square;stroke-width:1.5;"/>
   </g>
   <g id="line2d_19">
    <path clip-path="url(#p8cc20ef0ab)" d="M 80.767225 105.975944 
L 86.579442 105.975944 
" style="fill:none;stroke:#545454;stroke-linecap:square;stroke-width:1.5;"/>
   </g>
   <g id="line2d_20">
    <g clip-path="url(#p8cc20ef0ab)">
     <use style="fill:#545454;stroke:#545454;stroke-linejoin:miter;" x="83.673333" xlink:href="#mc18642e6f9" y="105.975944"/>
     <use style="fill:#545454;stroke:#545454;stroke-linejoin:miter;" x="83.673333" xlink:href="#mc18642e6f9" y="105.975944"/>
    </g>
   </g>
   <g id="line2d_21">
    <path clip-path="url(#p8cc20ef0ab)" d="M 95.535 94.293445 
L 95.535 94.293445 
" style="fill:none;stroke:#545454;stroke-linecap:square;stroke-width:1.5;"/>
   </g>
   <g id="line2d_22">
    <path clip-path="url(#p8cc20ef0ab)" d="M 95.535 94.293445 
L 95.535 94.293445 
" style="fill:none;stroke:#545454;stroke-linecap:square;stroke-width:1.5;"/>
   </g>
   <g id="line2d_23">
    <path clip-path="url(#p8cc20ef0ab)" d="M 92.628892 94.293445 
L 98.441108 94.293445 
" style="fill:none;stroke:#545454;stroke-linecap:square;stroke-width:1.5;"/>
   </g>
   <g id="line2d_24">
    <path clip-path="url(#p8cc20ef0ab)" d="M 92.628892 94.293445 
L 98.441108 94.293445 
" style="fill:none;stroke:#545454;stroke-linecap:square;stroke-width:1.5;"/>
   </g>
   <g id="line2d_25">
    <g clip-path="url(#p8cc20ef0ab)">
     <use style="fill:#545454;stroke:#545454;stroke-linejoin:miter;" x="95.535" xlink:href="#mc18642e6f9" y="105.190701"/>
     <use style="fill:#545454;stroke:#545454;stroke-linejoin:miter;" x="95.535" xlink:href="#mc18642e6f9" y="105.190701"/>
    </g>
   </g>
   <g id="line2d_26">
    <path clip-path="url(#p8cc20ef0ab)" d="M 107.396667 105.875285 
L 107.396667 105.964977 
" style="fill:none;stroke:#545454;stroke-linecap:square;stroke-width:1.5;"/>
   </g>
   <g id="line2d_27">
    <path clip-path="url(#p8cc20ef0ab)" d="M 107.396667 105.384503 
L 107.396667 105.050607 
" style="fill:none;stroke:#545454;stroke-linecap:square;stroke-width:1.5;"/>
   </g>
   <g id="line2d_28">
    <path clip-path="url(#p8cc20ef0ab)" d="M 104.490558 105.964977 
L 110.302775 105.964977 
" style="fill:none;stroke:#545454;stroke-linecap:square;stroke-width:1.5;"/>
   </g>
   <g id="line2d_29">
    <path clip-path="url(#p8cc20ef0ab)" d="M 104.490558 105.050607 
L 110.302775 105.050607 
" style="fill:none;stroke:#545454;stroke-linecap:square;stroke-width:1.5;"/>
   </g>
   <g id="line2d_30">
    <g clip-path="url(#p8cc20ef0ab)">
     <use style="fill:#545454;stroke:#545454;stroke-linejoin:miter;" x="107.396667" xlink:href="#mc18642e6f9" y="102.820088"/>
     <use style="fill:#545454;stroke:#545454;stroke-linejoin:miter;" x="107.396667" xlink:href="#mc18642e6f9" y="102.96247"/>
     <use style="fill:#545454;stroke:#545454;stroke-linejoin:miter;" x="107.396667" xlink:href="#mc18642e6f9" y="97.754479"/>
    </g>
   </g>
   <g id="line2d_31">
    <path clip-path="url(#p8cc20ef0ab)" d="M 131.12 115.073899 
L 131.12 119.695498 
" style="fill:none;stroke:#545454;stroke-linecap:square;stroke-width:1.5;"/>
   </g>
   <g id="line2d_32">
    <path clip-path="url(#p8cc20ef0ab)" d="M 131.12 105.746715 
L 131.12 95.140573 
" style="fill:none;stroke:#545454;stroke-linecap:square;stroke-width:1.5;"/>
   </g>
   <g id="line2d_33">
    <path clip-path="url(#p8cc20ef0ab)" d="M 128.213892 119.695498 
L 134.026108 119.695498 
" style="fill:none;stroke:#545454;stroke-linecap:square;stroke-width:1.5;"/>
   </g>
   <g id="line2d_34">
    <path clip-path="url(#p8cc20ef0ab)" d="M 128.213892 95.140573 
L 134.026108 95.140573 
" style="fill:none;stroke:#545454;stroke-linecap:square;stroke-width:1.5;"/>
   </g>
   <g id="line2d_35"/>
   <g id="line2d_36">
    <path clip-path="url(#p8cc20ef0ab)" d="M 142.981667 118.263447 
L 142.981667 121.181276 
" style="fill:none;stroke:#545454;stroke-linecap:square;stroke-width:1.5;"/>
   </g>
   <g id="line2d_37">
    <path clip-path="url(#p8cc20ef0ab)" d="M 142.981667 110.666019 
L 142.981667 108.760433 
" style="fill:none;stroke:#545454;stroke-linecap:square;stroke-width:1.5;"/>
   </g>
   <g id="line2d_38">
    <path clip-path="url(#p8cc20ef0ab)" d="M 140.075558 121.181276 
L 145.887775 121.181276 
" style="fill:none;stroke:#545454;stroke-linecap:square;stroke-width:1.5;"/>
   </g>
   <g id="line2d_39">
    <path clip-path="url(#p8cc20ef0ab)" d="M 140.075558 108.760433 
L 145.887775 108.760433 
" style="fill:none;stroke:#545454;stroke-linecap:square;stroke-width:1.5;"/>
   </g>
   <g id="line2d_40"/>
   <g id="line2d_41">
    <path clip-path="url(#p8cc20ef0ab)" d="M 154.843333 102.399591 
L 154.843333 114.052733 
" style="fill:none;stroke:#545454;stroke-linecap:square;stroke-width:1.5;"/>
   </g>
   <g id="line2d_42">
    <path clip-path="url(#p8cc20ef0ab)" d="M 154.843333 86.249214 
L 154.843333 79.882121 
" style="fill:none;stroke:#545454;stroke-linecap:square;stroke-width:1.5;"/>
   </g>
   <g id="line2d_43">
    <path clip-path="url(#p8cc20ef0ab)" d="M 151.937225 114.052733 
L 157.749442 114.052733 
" style="fill:none;stroke:#545454;stroke-linecap:square;stroke-width:1.5;"/>
   </g>
   <g id="line2d_44">
    <path clip-path="url(#p8cc20ef0ab)" d="M 151.937225 79.882121 
L 157.749442 79.882121 
" style="fill:none;stroke:#545454;stroke-linecap:square;stroke-width:1.5;"/>
   </g>
   <g id="line2d_45"/>
   <g id="line2d_46">
    <path clip-path="url(#p8cc20ef0ab)" d="M 166.705 116.652071 
L 166.705 120.157429 
" style="fill:none;stroke:#545454;stroke-linecap:square;stroke-width:1.5;"/>
   </g>
   <g id="line2d_47">
    <path clip-path="url(#p8cc20ef0ab)" d="M 166.705 109.105209 
L 166.705 106.089629 
" style="fill:none;stroke:#545454;stroke-linecap:square;stroke-width:1.5;"/>
   </g>
   <g id="line2d_48">
    <path clip-path="url(#p8cc20ef0ab)" d="M 163.798892 120.157429 
L 169.611108 120.157429 
" style="fill:none;stroke:#545454;stroke-linecap:square;stroke-width:1.5;"/>
   </g>
   <g id="line2d_49">
    <path clip-path="url(#p8cc20ef0ab)" d="M 163.798892 106.089629 
L 169.611108 106.089629 
" style="fill:none;stroke:#545454;stroke-linecap:square;stroke-width:1.5;"/>
   </g>
   <g id="line2d_50">
    <g clip-path="url(#p8cc20ef0ab)">
     <use style="fill:#545454;stroke:#545454;stroke-linejoin:miter;" x="166.705" xlink:href="#mc18642e6f9" y="97.611674"/>
    </g>
   </g>
   <g id="line2d_51">
    <path clip-path="url(#p8cc20ef0ab)" d="M 190.428333 123.345994 
L 190.428333 130.043677 
" style="fill:none;stroke:#545454;stroke-linecap:square;stroke-width:1.5;"/>
   </g>
   <g id="line2d_52">
    <path clip-path="url(#p8cc20ef0ab)" d="M 190.428333 106.898454 
L 190.428333 89.436506 
" style="fill:none;stroke:#545454;stroke-linecap:square;stroke-width:1.5;"/>
   </g>
   <g id="line2d_53">
    <path clip-path="url(#p8cc20ef0ab)" d="M 187.522225 130.043677 
L 193.334442 130.043677 
" style="fill:none;stroke:#545454;stroke-linecap:square;stroke-width:1.5;"/>
   </g>
   <g id="line2d_54">
    <path clip-path="url(#p8cc20ef0ab)" d="M 187.522225 89.436506 
L 193.334442 89.436506 
" style="fill:none;stroke:#545454;stroke-linecap:square;stroke-width:1.5;"/>
   </g>
   <g id="line2d_55"/>
   <g id="line2d_56">
    <path clip-path="url(#p8cc20ef0ab)" d="M 202.29 129.699186 
L 202.29 133.120304 
" style="fill:none;stroke:#545454;stroke-linecap:square;stroke-width:1.5;"/>
   </g>
   <g id="line2d_57">
    <path clip-path="url(#p8cc20ef0ab)" d="M 202.29 117.033818 
L 202.29 112.377494 
" style="fill:none;stroke:#545454;stroke-linecap:square;stroke-width:1.5;"/>
   </g>
   <g id="line2d_58">
    <path clip-path="url(#p8cc20ef0ab)" d="M 199.383892 133.120304 
L 205.196108 133.120304 
" style="fill:none;stroke:#545454;stroke-linecap:square;stroke-width:1.5;"/>
   </g>
   <g id="line2d_59">
    <path clip-path="url(#p8cc20ef0ab)" d="M 199.383892 112.377494 
L 205.196108 112.377494 
" style="fill:none;stroke:#545454;stroke-linecap:square;stroke-width:1.5;"/>
   </g>
   <g id="line2d_60"/>
   <g id="line2d_61">
    <path clip-path="url(#p8cc20ef0ab)" d="M 214.151667 115.665717 
L 214.151667 138.313305 
" style="fill:none;stroke:#545454;stroke-linecap:square;stroke-width:1.5;"/>
   </g>
   <g id="line2d_62">
    <path clip-path="url(#p8cc20ef0ab)" d="M 214.151667 92.607494 
L 214.151667 77.837725 
" style="fill:none;stroke:#545454;stroke-linecap:square;stroke-width:1.5;"/>
   </g>
   <g id="line2d_63">
    <path clip-path="url(#p8cc20ef0ab)" d="M 211.245558 138.313305 
L 217.057775 138.313305 
" style="fill:none;stroke:#545454;stroke-linecap:square;stroke-width:1.5;"/>
   </g>
   <g id="line2d_64">
    <path clip-path="url(#p8cc20ef0ab)" d="M 211.245558 77.837725 
L 217.057775 77.837725 
" style="fill:none;stroke:#545454;stroke-linecap:square;stroke-width:1.5;"/>
   </g>
   <g id="line2d_65"/>
   <g id="line2d_66">
    <path clip-path="url(#p8cc20ef0ab)" d="M 226.013333 130.272078 
L 226.013333 138.65623 
" style="fill:none;stroke:#545454;stroke-linecap:square;stroke-width:1.5;"/>
   </g>
   <g id="line2d_67">
    <path clip-path="url(#p8cc20ef0ab)" d="M 226.013333 111.503931 
L 226.013333 102.246379 
" style="fill:none;stroke:#545454;stroke-linecap:square;stroke-width:1.5;"/>
   </g>
   <g id="line2d_68">
    <path clip-path="url(#p8cc20ef0ab)" d="M 223.107225 138.65623 
L 228.919442 138.65623 
" style="fill:none;stroke:#545454;stroke-linecap:square;stroke-width:1.5;"/>
   </g>
   <g id="line2d_69">
    <path clip-path="url(#p8cc20ef0ab)" d="M 223.107225 102.246379 
L 228.919442 102.246379 
" style="fill:none;stroke:#545454;stroke-linecap:square;stroke-width:1.5;"/>
   </g>
   <g id="line2d_70"/>
   <g id="line2d_71">
    <path clip-path="url(#p8cc20ef0ab)" d="M 249.736667 126.337746 
L 249.736667 150.206339 
" style="fill:none;stroke:#545454;stroke-linecap:square;stroke-width:1.5;"/>
   </g>
   <g id="line2d_72">
    <path clip-path="url(#p8cc20ef0ab)" d="M 249.736667 104.004592 
L 249.736667 93.778995 
" style="fill:none;stroke:#545454;stroke-linecap:square;stroke-width:1.5;"/>
   </g>
   <g id="line2d_73">
    <path clip-path="url(#p8cc20ef0ab)" d="M 246.830558 150.206339 
L 252.642775 150.206339 
" style="fill:none;stroke:#545454;stroke-linecap:square;stroke-width:1.5;"/>
   </g>
   <g id="line2d_74">
    <path clip-path="url(#p8cc20ef0ab)" d="M 246.830558 93.778995 
L 252.642775 93.778995 
" style="fill:none;stroke:#545454;stroke-linecap:square;stroke-width:1.5;"/>
   </g>
   <g id="line2d_75">
    <g clip-path="url(#p8cc20ef0ab)">
     <use style="fill:#545454;stroke:#545454;stroke-linejoin:miter;" x="249.736667" xlink:href="#mc18642e6f9" y="160.215182"/>
    </g>
   </g>
   <g id="line2d_76">
    <path clip-path="url(#p8cc20ef0ab)" d="M 261.598333 141.491682 
L 261.598333 148.145593 
" style="fill:none;stroke:#545454;stroke-linecap:square;stroke-width:1.5;"/>
   </g>
   <g id="line2d_77">
    <path clip-path="url(#p8cc20ef0ab)" d="M 261.598333 136.556046 
L 261.598333 136.094898 
" style="fill:none;stroke:#545454;stroke-linecap:square;stroke-width:1.5;"/>
   </g>
   <g id="line2d_78">
    <path clip-path="url(#p8cc20ef0ab)" d="M 258.692225 148.145593 
L 264.504442 148.145593 
" style="fill:none;stroke:#545454;stroke-linecap:square;stroke-width:1.5;"/>
   </g>
   <g id="line2d_79">
    <path clip-path="url(#p8cc20ef0ab)" d="M 258.692225 136.094898 
L 264.504442 136.094898 
" style="fill:none;stroke:#545454;stroke-linecap:square;stroke-width:1.5;"/>
   </g>
   <g id="line2d_80">
    <g clip-path="url(#p8cc20ef0ab)">
     <use style="fill:#545454;stroke:#545454;stroke-linejoin:miter;" x="261.598333" xlink:href="#mc18642e6f9" y="149.890325"/>
     <use style="fill:#545454;stroke:#545454;stroke-linejoin:miter;" x="261.598333" xlink:href="#mc18642e6f9" y="154.209273"/>
     <use style="fill:#545454;stroke:#545454;stroke-linejoin:miter;" x="261.598333" xlink:href="#mc18642e6f9" y="122.52368"/>
     <use style="fill:#545454;stroke:#545454;stroke-linejoin:miter;" x="261.598333" xlink:href="#mc18642e6f9" y="119.279682"/>
     <use style="fill:#545454;stroke:#545454;stroke-linejoin:miter;" x="261.598333" xlink:href="#mc18642e6f9" y="122.802745"/>
     <use style="fill:#545454;stroke:#545454;stroke-linejoin:miter;" x="261.598333" xlink:href="#mc18642e6f9" y="118.585307"/>
    </g>
   </g>
   <g id="line2d_81">
    <path clip-path="url(#p8cc20ef0ab)" d="M 273.46 131.87043 
L 273.46 160.778147 
" style="fill:none;stroke:#545454;stroke-linecap:square;stroke-width:1.5;"/>
   </g>
   <g id="line2d_82">
    <path clip-path="url(#p8cc20ef0ab)" d="M 273.46 98.274275 
L 273.46 71.180838 
" style="fill:none;stroke:#545454;stroke-linecap:square;stroke-width:1.5;"/>
   </g>
   <g id="line2d_83">
    <path clip-path="url(#p8cc20ef0ab)" d="M 270.553892 160.778147 
L 276.366108 160.778147 
" style="fill:none;stroke:#545454;stroke-linecap:square;stroke-width:1.5;"/>
   </g>
   <g id="line2d_84">
    <path clip-path="url(#p8cc20ef0ab)" d="M 270.553892 71.180838 
L 276.366108 71.180838 
" style="fill:none;stroke:#545454;stroke-linecap:square;stroke-width:1.5;"/>
   </g>
   <g id="line2d_85">
    <g clip-path="url(#p8cc20ef0ab)">
     <use style="fill:#545454;stroke:#545454;stroke-linejoin:miter;" x="273.46" xlink:href="#mc18642e6f9" y="39.225379"/>
    </g>
   </g>
   <g id="line2d_86">
    <path clip-path="url(#p8cc20ef0ab)" d="M 285.321667 141.771671 
L 285.321667 154.703249 
" style="fill:none;stroke:#545454;stroke-linecap:square;stroke-width:1.5;"/>
   </g>
   <g id="line2d_87">
    <path clip-path="url(#p8cc20ef0ab)" d="M 285.321667 118.091898 
L 285.321667 98.610423 
" style="fill:none;stroke:#545454;stroke-linecap:square;stroke-width:1.5;"/>
   </g>
   <g id="line2d_88">
    <path clip-path="url(#p8cc20ef0ab)" d="M 282.415558 154.703249 
L 288.227775 154.703249 
" style="fill:none;stroke:#545454;stroke-linecap:square;stroke-width:1.5;"/>
   </g>
   <g id="line2d_89">
    <path clip-path="url(#p8cc20ef0ab)" d="M 282.415558 98.610423 
L 288.227775 98.610423 
" style="fill:none;stroke:#545454;stroke-linecap:square;stroke-width:1.5;"/>
   </g>
   <g id="line2d_90"/>
   <g id="line2d_91">
    <path clip-path="url(#p8cc20ef0ab)" d="M 309.045 155.734812 
L 309.045 187.506827 
" style="fill:none;stroke:#545454;stroke-linecap:square;stroke-width:1.5;"/>
   </g>
   <g id="line2d_92">
    <path clip-path="url(#p8cc20ef0ab)" d="M 309.045 126.077012 
L 309.045 96.33843 
" style="fill:none;stroke:#545454;stroke-linecap:square;stroke-width:1.5;"/>
   </g>
   <g id="line2d_93">
    <path clip-path="url(#p8cc20ef0ab)" d="M 306.138892 187.506827 
L 311.951108 187.506827 
" style="fill:none;stroke:#545454;stroke-linecap:square;stroke-width:1.5;"/>
   </g>
   <g id="line2d_94">
    <path clip-path="url(#p8cc20ef0ab)" d="M 306.138892 96.33843 
L 311.951108 96.33843 
" style="fill:none;stroke:#545454;stroke-linecap:square;stroke-width:1.5;"/>
   </g>
   <g id="line2d_95"/>
   <g id="line2d_96">
    <path clip-path="url(#p8cc20ef0ab)" d="M 320.906667 156.733965 
L 320.906667 167.462069 
" style="fill:none;stroke:#545454;stroke-linecap:square;stroke-width:1.5;"/>
   </g>
   <g id="line2d_97">
    <path clip-path="url(#p8cc20ef0ab)" d="M 320.906667 146.290143 
L 320.906667 146.074553 
" style="fill:none;stroke:#545454;stroke-linecap:square;stroke-width:1.5;"/>
   </g>
   <g id="line2d_98">
    <path clip-path="url(#p8cc20ef0ab)" d="M 318.000558 167.462069 
L 323.812775 167.462069 
" style="fill:none;stroke:#545454;stroke-linecap:square;stroke-width:1.5;"/>
   </g>
   <g id="line2d_99">
    <path clip-path="url(#p8cc20ef0ab)" d="M 318.000558 146.074553 
L 323.812775 146.074553 
" style="fill:none;stroke:#545454;stroke-linecap:square;stroke-width:1.5;"/>
   </g>
   <g id="line2d_100">
    <g clip-path="url(#p8cc20ef0ab)">
     <use style="fill:#545454;stroke:#545454;stroke-linejoin:miter;" x="320.906667" xlink:href="#mc18642e6f9" y="173.447892"/>
     <use style="fill:#545454;stroke:#545454;stroke-linejoin:miter;" x="320.906667" xlink:href="#mc18642e6f9" y="172.539785"/>
     <use style="fill:#545454;stroke:#545454;stroke-linejoin:miter;" x="320.906667" xlink:href="#mc18642e6f9" y="122.373596"/>
     <use style="fill:#545454;stroke:#545454;stroke-linejoin:miter;" x="320.906667" xlink:href="#mc18642e6f9" y="129.10322"/>
     <use style="fill:#545454;stroke:#545454;stroke-linejoin:miter;" x="320.906667" xlink:href="#mc18642e6f9" y="118.496209"/>
     <use style="fill:#545454;stroke:#545454;stroke-linejoin:miter;" x="320.906667" xlink:href="#mc18642e6f9" y="120.253533"/>
    </g>
   </g>
   <g id="line2d_101">
    <path clip-path="url(#p8cc20ef0ab)" d="M 332.768333 134.17056 
L 332.768333 159.229348 
" style="fill:none;stroke:#545454;stroke-linecap:square;stroke-width:1.5;"/>
   </g>
   <g id="line2d_102">
    <path clip-path="url(#p8cc20ef0ab)" d="M 332.768333 104.30565 
L 332.768333 61.926807 
" style="fill:none;stroke:#545454;stroke-linecap:square;stroke-width:1.5;"/>
   </g>
   <g id="line2d_103">
    <path clip-path="url(#p8cc20ef0ab)" d="M 329.862225 159.229348 
L 335.674442 159.229348 
" style="fill:none;stroke:#545454;stroke-linecap:square;stroke-width:1.5;"/>
   </g>
   <g id="line2d_104">
    <path clip-path="url(#p8cc20ef0ab)" d="M 329.862225 61.926807 
L 335.674442 61.926807 
" style="fill:none;stroke:#545454;stroke-linecap:square;stroke-width:1.5;"/>
   </g>
   <g id="line2d_105"/>
   <g id="line2d_106">
    <path clip-path="url(#p8cc20ef0ab)" d="M 344.63 150.389002 
L 344.63 181.053491 
" style="fill:none;stroke:#545454;stroke-linecap:square;stroke-width:1.5;"/>
   </g>
   <g id="line2d_107">
    <path clip-path="url(#p8cc20ef0ab)" d="M 344.63 123.746775 
L 344.63 116.577089 
" style="fill:none;stroke:#545454;stroke-linecap:square;stroke-width:1.5;"/>
   </g>
   <g id="line2d_108">
    <path clip-path="url(#p8cc20ef0ab)" d="M 341.723892 181.053491 
L 347.536108 181.053491 
" style="fill:none;stroke:#545454;stroke-linecap:square;stroke-width:1.5;"/>
   </g>
   <g id="line2d_109">
    <path clip-path="url(#p8cc20ef0ab)" d="M 341.723892 116.577089 
L 347.536108 116.577089 
" style="fill:none;stroke:#545454;stroke-linecap:square;stroke-width:1.5;"/>
   </g>
   <g id="line2d_110"/>
   <g id="line2d_111">
    <path clip-path="url(#p8cc20ef0ab)" d="M 368.353333 173.827393 
L 368.353333 222.954545 
" style="fill:none;stroke:#545454;stroke-linecap:square;stroke-width:1.5;"/>
   </g>
   <g id="line2d_112">
    <path clip-path="url(#p8cc20ef0ab)" d="M 368.353333 139.612578 
L 368.353333 97.149266 
" style="fill:none;stroke:#545454;stroke-linecap:square;stroke-width:1.5;"/>
   </g>
   <g id="line2d_113">
    <path clip-path="url(#p8cc20ef0ab)" d="M 365.447225 222.954545 
L 371.259442 222.954545 
" style="fill:none;stroke:#545454;stroke-linecap:square;stroke-width:1.5;"/>
   </g>
   <g id="line2d_114">
    <path clip-path="url(#p8cc20ef0ab)" d="M 365.447225 97.149266 
L 371.259442 97.149266 
" style="fill:none;stroke:#545454;stroke-linecap:square;stroke-width:1.5;"/>
   </g>
   <g id="line2d_115">
    <g clip-path="url(#p8cc20ef0ab)">
     <use style="fill:#545454;stroke:#545454;stroke-linejoin:miter;" x="368.353333" xlink:href="#mc18642e6f9" y="78.539423"/>
     <use style="fill:#545454;stroke:#545454;stroke-linejoin:miter;" x="368.353333" xlink:href="#mc18642e6f9" y="67.902378"/>
    </g>
   </g>
   <g id="line2d_116">
    <path clip-path="url(#p8cc20ef0ab)" d="M 380.215 166.295983 
L 380.215 183.881606 
" style="fill:none;stroke:#545454;stroke-linecap:square;stroke-width:1.5;"/>
   </g>
   <g id="line2d_117">
    <path clip-path="url(#p8cc20ef0ab)" d="M 380.215 132.513824 
L 380.215 117.651895 
" style="fill:none;stroke:#545454;stroke-linecap:square;stroke-width:1.5;"/>
   </g>
   <g id="line2d_118">
    <path clip-path="url(#p8cc20ef0ab)" d="M 377.308892 183.881606 
L 383.121108 183.881606 
" style="fill:none;stroke:#545454;stroke-linecap:square;stroke-width:1.5;"/>
   </g>
   <g id="line2d_119">
    <path clip-path="url(#p8cc20ef0ab)" d="M 377.308892 117.651895 
L 383.121108 117.651895 
" style="fill:none;stroke:#545454;stroke-linecap:square;stroke-width:1.5;"/>
   </g>
   <g id="line2d_120"/>
   <g id="line2d_121">
    <path clip-path="url(#p8cc20ef0ab)" d="M 392.076667 153.207278 
L 392.076667 200.140878 
" style="fill:none;stroke:#545454;stroke-linecap:square;stroke-width:1.5;"/>
   </g>
   <g id="line2d_122">
    <path clip-path="url(#p8cc20ef0ab)" d="M 392.076667 113.174488 
L 392.076667 66.53845 
" style="fill:none;stroke:#545454;stroke-linecap:square;stroke-width:1.5;"/>
   </g>
   <g id="line2d_123">
    <path clip-path="url(#p8cc20ef0ab)" d="M 389.170558 200.140878 
L 394.982775 200.140878 
" style="fill:none;stroke:#545454;stroke-linecap:square;stroke-width:1.5;"/>
   </g>
   <g id="line2d_124">
    <path clip-path="url(#p8cc20ef0ab)" d="M 389.170558 66.53845 
L 394.982775 66.53845 
" style="fill:none;stroke:#545454;stroke-linecap:square;stroke-width:1.5;"/>
   </g>
   <g id="line2d_125">
    <g clip-path="url(#p8cc20ef0ab)">
     <use style="fill:#545454;stroke:#545454;stroke-linejoin:miter;" x="392.076667" xlink:href="#mc18642e6f9" y="26.045455"/>
    </g>
   </g>
   <g id="line2d_126">
    <path clip-path="url(#p8cc20ef0ab)" d="M 403.938333 176.413905 
L 403.938333 195.977671 
" style="fill:none;stroke:#545454;stroke-linecap:square;stroke-width:1.5;"/>
   </g>
   <g id="line2d_127">
    <path clip-path="url(#p8cc20ef0ab)" d="M 403.938333 129.572504 
L 403.938333 119.083578 
" style="fill:none;stroke:#545454;stroke-linecap:square;stroke-width:1.5;"/>
   </g>
   <g id="line2d_128">
    <path clip-path="url(#p8cc20ef0ab)" d="M 401.032225 195.977671 
L 406.844442 195.977671 
" style="fill:none;stroke:#545454;stroke-linecap:square;stroke-width:1.5;"/>
   </g>
   <g id="line2d_129">
    <path clip-path="url(#p8cc20ef0ab)" d="M 401.032225 119.083578 
L 406.844442 119.083578 
" style="fill:none;stroke:#545454;stroke-linecap:square;stroke-width:1.5;"/>
   </g>
   <g id="line2d_130"/>
   <g id="line2d_131">
    <path clip-path="url(#p8cc20ef0ab)" d="M 65.99945 105.878043 
L 77.623883 105.878043 
" style="fill:none;stroke:#545454;stroke-linecap:square;stroke-width:1.5;"/>
   </g>
   <g id="line2d_132">
    <path clip-path="url(#p8cc20ef0ab)" d="M 77.861117 105.975944 
L 89.48555 105.975944 
" style="fill:none;stroke:#545454;stroke-linecap:square;stroke-width:1.5;"/>
   </g>
   <g id="line2d_133">
    <path clip-path="url(#p8cc20ef0ab)" d="M 89.722783 94.293445 
L 101.347217 94.293445 
" style="fill:none;stroke:#545454;stroke-linecap:square;stroke-width:1.5;"/>
   </g>
   <g id="line2d_134">
    <path clip-path="url(#p8cc20ef0ab)" d="M 101.58445 105.623125 
L 113.208883 105.623125 
" style="fill:none;stroke:#545454;stroke-linecap:square;stroke-width:1.5;"/>
   </g>
   <g id="line2d_135">
    <path clip-path="url(#p8cc20ef0ab)" d="M 125.307783 112.660797 
L 136.932217 112.660797 
" style="fill:none;stroke:#545454;stroke-linecap:square;stroke-width:1.5;"/>
   </g>
   <g id="line2d_136">
    <path clip-path="url(#p8cc20ef0ab)" d="M 137.16945 117.217926 
L 148.793883 117.217926 
" style="fill:none;stroke:#545454;stroke-linecap:square;stroke-width:1.5;"/>
   </g>
   <g id="line2d_137">
    <path clip-path="url(#p8cc20ef0ab)" d="M 149.031117 97.325042 
L 160.65555 97.325042 
" style="fill:none;stroke:#545454;stroke-linecap:square;stroke-width:1.5;"/>
   </g>
   <g id="line2d_138">
    <path clip-path="url(#p8cc20ef0ab)" d="M 160.892783 111.084868 
L 172.517217 111.084868 
" style="fill:none;stroke:#545454;stroke-linecap:square;stroke-width:1.5;"/>
   </g>
   <g id="line2d_139">
    <path clip-path="url(#p8cc20ef0ab)" d="M 184.616117 113.661161 
L 196.24055 113.661161 
" style="fill:none;stroke:#545454;stroke-linecap:square;stroke-width:1.5;"/>
   </g>
   <g id="line2d_140">
    <path clip-path="url(#p8cc20ef0ab)" d="M 196.477783 127.73156 
L 208.102217 127.73156 
" style="fill:none;stroke:#545454;stroke-linecap:square;stroke-width:1.5;"/>
   </g>
   <g id="line2d_141">
    <path clip-path="url(#p8cc20ef0ab)" d="M 208.33945 106.857124 
L 219.963883 106.857124 
" style="fill:none;stroke:#545454;stroke-linecap:square;stroke-width:1.5;"/>
   </g>
   <g id="line2d_142">
    <path clip-path="url(#p8cc20ef0ab)" d="M 220.201117 118.918671 
L 231.82555 118.918671 
" style="fill:none;stroke:#545454;stroke-linecap:square;stroke-width:1.5;"/>
   </g>
   <g id="line2d_143">
    <path clip-path="url(#p8cc20ef0ab)" d="M 243.92445 111.048331 
L 255.548883 111.048331 
" style="fill:none;stroke:#545454;stroke-linecap:square;stroke-width:1.5;"/>
   </g>
   <g id="line2d_144">
    <path clip-path="url(#p8cc20ef0ab)" d="M 255.786117 139.320639 
L 267.41055 139.320639 
" style="fill:none;stroke:#545454;stroke-linecap:square;stroke-width:1.5;"/>
   </g>
   <g id="line2d_145">
    <path clip-path="url(#p8cc20ef0ab)" d="M 267.647783 112.45696 
L 279.272217 112.45696 
" style="fill:none;stroke:#545454;stroke-linecap:square;stroke-width:1.5;"/>
   </g>
   <g id="line2d_146">
    <path clip-path="url(#p8cc20ef0ab)" d="M 279.50945 125.025935 
L 291.133883 125.025935 
" style="fill:none;stroke:#545454;stroke-linecap:square;stroke-width:1.5;"/>
   </g>
   <g id="line2d_147">
    <path clip-path="url(#p8cc20ef0ab)" d="M 303.232783 136.428004 
L 314.857217 136.428004 
" style="fill:none;stroke:#545454;stroke-linecap:square;stroke-width:1.5;"/>
   </g>
   <g id="line2d_148">
    <path clip-path="url(#p8cc20ef0ab)" d="M 315.09445 150.669693 
L 326.718883 150.669693 
" style="fill:none;stroke:#545454;stroke-linecap:square;stroke-width:1.5;"/>
   </g>
   <g id="line2d_149">
    <path clip-path="url(#p8cc20ef0ab)" d="M 326.956117 121.696612 
L 338.58055 121.696612 
" style="fill:none;stroke:#545454;stroke-linecap:square;stroke-width:1.5;"/>
   </g>
   <g id="line2d_150">
    <path clip-path="url(#p8cc20ef0ab)" d="M 338.817783 132.093674 
L 350.442217 132.093674 
" style="fill:none;stroke:#545454;stroke-linecap:square;stroke-width:1.5;"/>
   </g>
   <g id="line2d_151">
    <path clip-path="url(#p8cc20ef0ab)" d="M 362.541117 162.943268 
L 374.16555 162.943268 
" style="fill:none;stroke:#545454;stroke-linecap:square;stroke-width:1.5;"/>
   </g>
   <g id="line2d_152">
    <path clip-path="url(#p8cc20ef0ab)" d="M 374.402783 162.233941 
L 386.027217 162.233941 
" style="fill:none;stroke:#545454;stroke-linecap:square;stroke-width:1.5;"/>
   </g>
   <g id="line2d_153">
    <path clip-path="url(#p8cc20ef0ab)" d="M 386.26445 136.857081 
L 397.888883 136.857081 
" style="fill:none;stroke:#545454;stroke-linecap:square;stroke-width:1.5;"/>
   </g>
   <g id="line2d_154">
    <path clip-path="url(#p8cc20ef0ab)" d="M 398.126117 143.894917 
L 409.75055 143.894917 
" style="fill:none;stroke:#545454;stroke-linecap:square;stroke-width:1.5;"/>
   </g>
   <g id="patch_31">
    <path d="M 59.95 232.8 
L 59.95 16.2 
" style="fill:none;stroke:#000000;stroke-linecap:square;stroke-linejoin:miter;stroke-width:0.8;"/>
   </g>
   <g id="patch_32">
    <path d="M 415.8 232.8 
L 415.8 16.2 
" style="fill:none;stroke:#000000;stroke-linecap:square;stroke-linejoin:miter;stroke-width:0.8;"/>
   </g>
   <g id="patch_33">
    <path d="M 59.95 232.8 
L 415.8 232.8 
" style="fill:none;stroke:#000000;stroke-linecap:square;stroke-linejoin:miter;stroke-width:0.8;"/>
   </g>
   <g id="patch_34">
    <path d="M 59.95 16.2 
L 415.8 16.2 
" style="fill:none;stroke:#000000;stroke-linecap:square;stroke-linejoin:miter;stroke-width:0.8;"/>
   </g>
   <g id="legend_1">
    <g id="patch_35">
     <path d="M 402.05 32.45 
L 407.05 32.45 
Q 409.55 32.45 409.55 29.95 
L 409.55 24.95 
Q 409.55 22.45 407.05 22.45 
L 402.05 22.45 
Q 399.55 22.45 399.55 24.95 
L 399.55 29.95 
Q 399.55 32.45 402.05 32.45 
z
" style="fill:#ffffff;opacity:0.8;stroke:#cccccc;stroke-linejoin:miter;"/>
    </g>
   </g>
  </g>
 </g>
 <defs>
  <clipPath id="p8cc20ef0ab">
   <rect height="216.6" width="355.85" x="59.95" y="16.2"/>
  </clipPath>
 </defs>
</svg>
