<?xml version="1.0" encoding="utf-8" standalone="no"?>
<!DOCTYPE svg PUBLIC "-//W3C//DTD SVG 1.1//EN"
  "http://www.w3.org/Graphics/SVG/1.1/DTD/svg11.dtd">
<!-- Created with matplotlib (https://matplotlib.org/) -->
<svg height="288pt" version="1.1" viewBox="0 0 432 288" width="432pt" xmlns="http://www.w3.org/2000/svg" xmlns:xlink="http://www.w3.org/1999/xlink">
 <metadata>
  <rdf:RDF xmlns:cc="http://creativecommons.org/ns#" xmlns:dc="http://purl.org/dc/elements/1.1/" xmlns:rdf="http://www.w3.org/1999/02/22-rdf-syntax-ns#">
   <cc:Work>
    <dc:type rdf:resource="http://purl.org/dc/dcmitype/StillImage"/>
    <dc:date>2021-04-05T21:52:35.661581</dc:date>
    <dc:format>image/svg+xml</dc:format>
    <dc:creator>
     <cc:Agent>
      <dc:title>Matplotlib v3.3.4, https://matplotlib.org/</dc:title>
     </cc:Agent>
    </dc:creator>
   </cc:Work>
  </rdf:RDF>
 </metadata>
 <defs>
  <style type="text/css">*{stroke-linecap:butt;stroke-linejoin:round;}</style>
 </defs>
 <g id="figure_1">
  <g id="patch_1">
   <path d="M 0 288 
L 432 288 
L 432 0 
L 0 0 
z
" style="fill:#ffffff;"/>
  </g>
  <g id="axes_1">
   <g id="patch_2">
    <path d="M 54 252 
L 388.8 252 
L 388.8 34.56 
L 54 34.56 
z
" style="fill:#ffffff;"/>
   </g>
   <g id="matplotlib.axis_1">
    <g id="xtick_1">
     <g id="line2d_1">
      <defs>
       <path d="M 0 0 
L 0 3.5 
" id="m3b6533733e" style="stroke:#000000;stroke-width:0.8;"/>
      </defs>
      <g>
       <use style="stroke:#000000;stroke-width:0.8;" x="56.667104" xlink:href="#m3b6533733e" y="252"/>
      </g>
     </g>
     <g id="text_1">
      <!-- 0 -->
      <g transform="translate(53.485854 266.598437)scale(0.1 -0.1)">
       <defs>
        <path d="M 31.78125 66.40625 
Q 24.171875 66.40625 20.328125 58.90625 
Q 16.5 51.421875 16.5 36.375 
Q 16.5 21.390625 20.328125 13.890625 
Q 24.171875 6.390625 31.78125 6.390625 
Q 39.453125 6.390625 43.28125 13.890625 
Q 47.125 21.390625 47.125 36.375 
Q 47.125 51.421875 43.28125 58.90625 
Q 39.453125 66.40625 31.78125 66.40625 
z
M 31.78125 74.21875 
Q 44.046875 74.21875 50.515625 64.515625 
Q 56.984375 54.828125 56.984375 36.375 
Q 56.984375 17.96875 50.515625 8.265625 
Q 44.046875 -1.421875 31.78125 -1.421875 
Q 19.53125 -1.421875 13.0625 8.265625 
Q 6.59375 17.96875 6.59375 36.375 
Q 6.59375 54.828125 13.0625 64.515625 
Q 19.53125 74.21875 31.78125 74.21875 
z
" id="DejaVuSans-48"/>
       </defs>
       <use xlink:href="#DejaVuSans-48"/>
      </g>
     </g>
    </g>
    <g id="xtick_2">
     <g id="line2d_2">
      <g>
       <use style="stroke:#000000;stroke-width:0.8;" x="119.422493" xlink:href="#m3b6533733e" y="252"/>
      </g>
     </g>
     <g id="text_2">
      <!-- 20 -->
      <g transform="translate(113.059993 266.598437)scale(0.1 -0.1)">
       <defs>
        <path d="M 19.1875 8.296875 
L 53.609375 8.296875 
L 53.609375 0 
L 7.328125 0 
L 7.328125 8.296875 
Q 12.9375 14.109375 22.625 23.890625 
Q 32.328125 33.6875 34.8125 36.53125 
Q 39.546875 41.84375 41.421875 45.53125 
Q 43.3125 49.21875 43.3125 52.78125 
Q 43.3125 58.59375 39.234375 62.25 
Q 35.15625 65.921875 28.609375 65.921875 
Q 23.96875 65.921875 18.8125 64.3125 
Q 13.671875 62.703125 7.8125 59.421875 
L 7.8125 69.390625 
Q 13.765625 71.78125 18.9375 73 
Q 24.125 74.21875 28.421875 74.21875 
Q 39.75 74.21875 46.484375 68.546875 
Q 53.21875 62.890625 53.21875 53.421875 
Q 53.21875 48.921875 51.53125 44.890625 
Q 49.859375 40.875 45.40625 35.40625 
Q 44.1875 33.984375 37.640625 27.21875 
Q 31.109375 20.453125 19.1875 8.296875 
z
" id="DejaVuSans-50"/>
       </defs>
       <use xlink:href="#DejaVuSans-50"/>
       <use x="63.623047" xlink:href="#DejaVuSans-48"/>
      </g>
     </g>
    </g>
    <g id="xtick_3">
     <g id="line2d_3">
      <g>
       <use style="stroke:#000000;stroke-width:0.8;" x="182.177882" xlink:href="#m3b6533733e" y="252"/>
      </g>
     </g>
     <g id="text_3">
      <!-- 40 -->
      <g transform="translate(175.815382 266.598437)scale(0.1 -0.1)">
       <defs>
        <path d="M 37.796875 64.3125 
L 12.890625 25.390625 
L 37.796875 25.390625 
z
M 35.203125 72.90625 
L 47.609375 72.90625 
L 47.609375 25.390625 
L 58.015625 25.390625 
L 58.015625 17.1875 
L 47.609375 17.1875 
L 47.609375 0 
L 37.796875 0 
L 37.796875 17.1875 
L 4.890625 17.1875 
L 4.890625 26.703125 
z
" id="DejaVuSans-52"/>
       </defs>
       <use xlink:href="#DejaVuSans-52"/>
       <use x="63.623047" xlink:href="#DejaVuSans-48"/>
      </g>
     </g>
    </g>
    <g id="xtick_4">
     <g id="line2d_4">
      <g>
       <use style="stroke:#000000;stroke-width:0.8;" x="244.933271" xlink:href="#m3b6533733e" y="252"/>
      </g>
     </g>
     <g id="text_4">
      <!-- 60 -->
      <g transform="translate(238.570771 266.598437)scale(0.1 -0.1)">
       <defs>
        <path d="M 33.015625 40.375 
Q 26.375 40.375 22.484375 35.828125 
Q 18.609375 31.296875 18.609375 23.390625 
Q 18.609375 15.53125 22.484375 10.953125 
Q 26.375 6.390625 33.015625 6.390625 
Q 39.65625 6.390625 43.53125 10.953125 
Q 47.40625 15.53125 47.40625 23.390625 
Q 47.40625 31.296875 43.53125 35.828125 
Q 39.65625 40.375 33.015625 40.375 
z
M 52.59375 71.296875 
L 52.59375 62.3125 
Q 48.875 64.0625 45.09375 64.984375 
Q 41.3125 65.921875 37.59375 65.921875 
Q 27.828125 65.921875 22.671875 59.328125 
Q 17.53125 52.734375 16.796875 39.40625 
Q 19.671875 43.65625 24.015625 45.921875 
Q 28.375 48.1875 33.59375 48.1875 
Q 44.578125 48.1875 50.953125 41.515625 
Q 57.328125 34.859375 57.328125 23.390625 
Q 57.328125 12.15625 50.6875 5.359375 
Q 44.046875 -1.421875 33.015625 -1.421875 
Q 20.359375 -1.421875 13.671875 8.265625 
Q 6.984375 17.96875 6.984375 36.375 
Q 6.984375 53.65625 15.1875 63.9375 
Q 23.390625 74.21875 37.203125 74.21875 
Q 40.921875 74.21875 44.703125 73.484375 
Q 48.484375 72.75 52.59375 71.296875 
z
" id="DejaVuSans-54"/>
       </defs>
       <use xlink:href="#DejaVuSans-54"/>
       <use x="63.623047" xlink:href="#DejaVuSans-48"/>
      </g>
     </g>
    </g>
    <g id="xtick_5">
     <g id="line2d_5">
      <g>
       <use style="stroke:#000000;stroke-width:0.8;" x="307.68866" xlink:href="#m3b6533733e" y="252"/>
      </g>
     </g>
     <g id="text_5">
      <!-- 80 -->
      <g transform="translate(301.32616 266.598437)scale(0.1 -0.1)">
       <defs>
        <path d="M 31.78125 34.625 
Q 24.75 34.625 20.71875 30.859375 
Q 16.703125 27.09375 16.703125 20.515625 
Q 16.703125 13.921875 20.71875 10.15625 
Q 24.75 6.390625 31.78125 6.390625 
Q 38.8125 6.390625 42.859375 10.171875 
Q 46.921875 13.96875 46.921875 20.515625 
Q 46.921875 27.09375 42.890625 30.859375 
Q 38.875 34.625 31.78125 34.625 
z
M 21.921875 38.8125 
Q 15.578125 40.375 12.03125 44.71875 
Q 8.5 49.078125 8.5 55.328125 
Q 8.5 64.0625 14.71875 69.140625 
Q 20.953125 74.21875 31.78125 74.21875 
Q 42.671875 74.21875 48.875 69.140625 
Q 55.078125 64.0625 55.078125 55.328125 
Q 55.078125 49.078125 51.53125 44.71875 
Q 48 40.375 41.703125 38.8125 
Q 48.828125 37.15625 52.796875 32.3125 
Q 56.78125 27.484375 56.78125 20.515625 
Q 56.78125 9.90625 50.3125 4.234375 
Q 43.84375 -1.421875 31.78125 -1.421875 
Q 19.734375 -1.421875 13.25 4.234375 
Q 6.78125 9.90625 6.78125 20.515625 
Q 6.78125 27.484375 10.78125 32.3125 
Q 14.796875 37.15625 21.921875 38.8125 
z
M 18.3125 54.390625 
Q 18.3125 48.734375 21.84375 45.5625 
Q 25.390625 42.390625 31.78125 42.390625 
Q 38.140625 42.390625 41.71875 45.5625 
Q 45.3125 48.734375 45.3125 54.390625 
Q 45.3125 60.0625 41.71875 63.234375 
Q 38.140625 66.40625 31.78125 66.40625 
Q 25.390625 66.40625 21.84375 63.234375 
Q 18.3125 60.0625 18.3125 54.390625 
z
" id="DejaVuSans-56"/>
       </defs>
       <use xlink:href="#DejaVuSans-56"/>
       <use x="63.623047" xlink:href="#DejaVuSans-48"/>
      </g>
     </g>
    </g>
    <g id="xtick_6">
     <g id="line2d_6">
      <g>
       <use style="stroke:#000000;stroke-width:0.8;" x="370.444049" xlink:href="#m3b6533733e" y="252"/>
      </g>
     </g>
     <g id="text_6">
      <!-- 100 -->
      <g transform="translate(360.900299 266.598437)scale(0.1 -0.1)">
       <defs>
        <path d="M 12.40625 8.296875 
L 28.515625 8.296875 
L 28.515625 63.921875 
L 10.984375 60.40625 
L 10.984375 69.390625 
L 28.421875 72.90625 
L 38.28125 72.90625 
L 38.28125 8.296875 
L 54.390625 8.296875 
L 54.390625 0 
L 12.40625 0 
z
" id="DejaVuSans-49"/>
       </defs>
       <use xlink:href="#DejaVuSans-49"/>
       <use x="63.623047" xlink:href="#DejaVuSans-48"/>
       <use x="127.246094" xlink:href="#DejaVuSans-48"/>
      </g>
     </g>
    </g>
    <g id="text_7">
     <!-- Nbr. of function evaluations -->
     <g transform="translate(152.382031 280.276563)scale(0.1 -0.1)">
      <defs>
       <path d="M 9.8125 72.90625 
L 23.09375 72.90625 
L 55.421875 11.921875 
L 55.421875 72.90625 
L 64.984375 72.90625 
L 64.984375 0 
L 51.703125 0 
L 19.390625 60.984375 
L 19.390625 0 
L 9.8125 0 
z
" id="DejaVuSans-78"/>
       <path d="M 48.6875 27.296875 
Q 48.6875 37.203125 44.609375 42.84375 
Q 40.53125 48.484375 33.40625 48.484375 
Q 26.265625 48.484375 22.1875 42.84375 
Q 18.109375 37.203125 18.109375 27.296875 
Q 18.109375 17.390625 22.1875 11.75 
Q 26.265625 6.109375 33.40625 6.109375 
Q 40.53125 6.109375 44.609375 11.75 
Q 48.6875 17.390625 48.6875 27.296875 
z
M 18.109375 46.390625 
Q 20.953125 51.265625 25.265625 53.625 
Q 29.59375 56 35.59375 56 
Q 45.5625 56 51.78125 48.09375 
Q 58.015625 40.1875 58.015625 27.296875 
Q 58.015625 14.40625 51.78125 6.484375 
Q 45.5625 -1.421875 35.59375 -1.421875 
Q 29.59375 -1.421875 25.265625 0.953125 
Q 20.953125 3.328125 18.109375 8.203125 
L 18.109375 0 
L 9.078125 0 
L 9.078125 75.984375 
L 18.109375 75.984375 
z
" id="DejaVuSans-98"/>
       <path d="M 41.109375 46.296875 
Q 39.59375 47.171875 37.8125 47.578125 
Q 36.03125 48 33.890625 48 
Q 26.265625 48 22.1875 43.046875 
Q 18.109375 38.09375 18.109375 28.8125 
L 18.109375 0 
L 9.078125 0 
L 9.078125 54.6875 
L 18.109375 54.6875 
L 18.109375 46.1875 
Q 20.953125 51.171875 25.484375 53.578125 
Q 30.03125 56 36.53125 56 
Q 37.453125 56 38.578125 55.875 
Q 39.703125 55.765625 41.0625 55.515625 
z
" id="DejaVuSans-114"/>
       <path d="M 10.6875 12.40625 
L 21 12.40625 
L 21 0 
L 10.6875 0 
z
" id="DejaVuSans-46"/>
       <path id="DejaVuSans-32"/>
       <path d="M 30.609375 48.390625 
Q 23.390625 48.390625 19.1875 42.75 
Q 14.984375 37.109375 14.984375 27.296875 
Q 14.984375 17.484375 19.15625 11.84375 
Q 23.34375 6.203125 30.609375 6.203125 
Q 37.796875 6.203125 41.984375 11.859375 
Q 46.1875 17.53125 46.1875 27.296875 
Q 46.1875 37.015625 41.984375 42.703125 
Q 37.796875 48.390625 30.609375 48.390625 
z
M 30.609375 56 
Q 42.328125 56 49.015625 48.375 
Q 55.71875 40.765625 55.71875 27.296875 
Q 55.71875 13.875 49.015625 6.21875 
Q 42.328125 -1.421875 30.609375 -1.421875 
Q 18.84375 -1.421875 12.171875 6.21875 
Q 5.515625 13.875 5.515625 27.296875 
Q 5.515625 40.765625 12.171875 48.375 
Q 18.84375 56 30.609375 56 
z
" id="DejaVuSans-111"/>
       <path d="M 37.109375 75.984375 
L 37.109375 68.5 
L 28.515625 68.5 
Q 23.6875 68.5 21.796875 66.546875 
Q 19.921875 64.59375 19.921875 59.515625 
L 19.921875 54.6875 
L 34.71875 54.6875 
L 34.71875 47.703125 
L 19.921875 47.703125 
L 19.921875 0 
L 10.890625 0 
L 10.890625 47.703125 
L 2.296875 47.703125 
L 2.296875 54.6875 
L 10.890625 54.6875 
L 10.890625 58.5 
Q 10.890625 67.625 15.140625 71.796875 
Q 19.390625 75.984375 28.609375 75.984375 
z
" id="DejaVuSans-102"/>
       <path d="M 8.5 21.578125 
L 8.5 54.6875 
L 17.484375 54.6875 
L 17.484375 21.921875 
Q 17.484375 14.15625 20.5 10.265625 
Q 23.53125 6.390625 29.59375 6.390625 
Q 36.859375 6.390625 41.078125 11.03125 
Q 45.3125 15.671875 45.3125 23.6875 
L 45.3125 54.6875 
L 54.296875 54.6875 
L 54.296875 0 
L 45.3125 0 
L 45.3125 8.40625 
Q 42.046875 3.421875 37.71875 1 
Q 33.40625 -1.421875 27.6875 -1.421875 
Q 18.265625 -1.421875 13.375 4.4375 
Q 8.5 10.296875 8.5 21.578125 
z
M 31.109375 56 
z
" id="DejaVuSans-117"/>
       <path d="M 54.890625 33.015625 
L 54.890625 0 
L 45.90625 0 
L 45.90625 32.71875 
Q 45.90625 40.484375 42.875 44.328125 
Q 39.84375 48.1875 33.796875 48.1875 
Q 26.515625 48.1875 22.3125 43.546875 
Q 18.109375 38.921875 18.109375 30.90625 
L 18.109375 0 
L 9.078125 0 
L 9.078125 54.6875 
L 18.109375 54.6875 
L 18.109375 46.1875 
Q 21.34375 51.125 25.703125 53.5625 
Q 30.078125 56 35.796875 56 
Q 45.21875 56 50.046875 50.171875 
Q 54.890625 44.34375 54.890625 33.015625 
z
" id="DejaVuSans-110"/>
       <path d="M 48.78125 52.59375 
L 48.78125 44.1875 
Q 44.96875 46.296875 41.140625 47.34375 
Q 37.3125 48.390625 33.40625 48.390625 
Q 24.65625 48.390625 19.8125 42.84375 
Q 14.984375 37.3125 14.984375 27.296875 
Q 14.984375 17.28125 19.8125 11.734375 
Q 24.65625 6.203125 33.40625 6.203125 
Q 37.3125 6.203125 41.140625 7.25 
Q 44.96875 8.296875 48.78125 10.40625 
L 48.78125 2.09375 
Q 45.015625 0.34375 40.984375 -0.53125 
Q 36.96875 -1.421875 32.421875 -1.421875 
Q 20.0625 -1.421875 12.78125 6.34375 
Q 5.515625 14.109375 5.515625 27.296875 
Q 5.515625 40.671875 12.859375 48.328125 
Q 20.21875 56 33.015625 56 
Q 37.15625 56 41.109375 55.140625 
Q 45.0625 54.296875 48.78125 52.59375 
z
" id="DejaVuSans-99"/>
       <path d="M 18.3125 70.21875 
L 18.3125 54.6875 
L 36.8125 54.6875 
L 36.8125 47.703125 
L 18.3125 47.703125 
L 18.3125 18.015625 
Q 18.3125 11.328125 20.140625 9.421875 
Q 21.96875 7.515625 27.59375 7.515625 
L 36.8125 7.515625 
L 36.8125 0 
L 27.59375 0 
Q 17.1875 0 13.234375 3.875 
Q 9.28125 7.765625 9.28125 18.015625 
L 9.28125 47.703125 
L 2.6875 47.703125 
L 2.6875 54.6875 
L 9.28125 54.6875 
L 9.28125 70.21875 
z
" id="DejaVuSans-116"/>
       <path d="M 9.421875 54.6875 
L 18.40625 54.6875 
L 18.40625 0 
L 9.421875 0 
z
M 9.421875 75.984375 
L 18.40625 75.984375 
L 18.40625 64.59375 
L 9.421875 64.59375 
z
" id="DejaVuSans-105"/>
       <path d="M 56.203125 29.59375 
L 56.203125 25.203125 
L 14.890625 25.203125 
Q 15.484375 15.921875 20.484375 11.0625 
Q 25.484375 6.203125 34.421875 6.203125 
Q 39.59375 6.203125 44.453125 7.46875 
Q 49.3125 8.734375 54.109375 11.28125 
L 54.109375 2.78125 
Q 49.265625 0.734375 44.1875 -0.34375 
Q 39.109375 -1.421875 33.890625 -1.421875 
Q 20.796875 -1.421875 13.15625 6.1875 
Q 5.515625 13.8125 5.515625 26.8125 
Q 5.515625 40.234375 12.765625 48.109375 
Q 20.015625 56 32.328125 56 
Q 43.359375 56 49.78125 48.890625 
Q 56.203125 41.796875 56.203125 29.59375 
z
M 47.21875 32.234375 
Q 47.125 39.59375 43.09375 43.984375 
Q 39.0625 48.390625 32.421875 48.390625 
Q 24.90625 48.390625 20.390625 44.140625 
Q 15.875 39.890625 15.1875 32.171875 
z
" id="DejaVuSans-101"/>
       <path d="M 2.984375 54.6875 
L 12.5 54.6875 
L 29.59375 8.796875 
L 46.6875 54.6875 
L 56.203125 54.6875 
L 35.6875 0 
L 23.484375 0 
z
" id="DejaVuSans-118"/>
       <path d="M 34.28125 27.484375 
Q 23.390625 27.484375 19.1875 25 
Q 14.984375 22.515625 14.984375 16.5 
Q 14.984375 11.71875 18.140625 8.90625 
Q 21.296875 6.109375 26.703125 6.109375 
Q 34.1875 6.109375 38.703125 11.40625 
Q 43.21875 16.703125 43.21875 25.484375 
L 43.21875 27.484375 
z
M 52.203125 31.203125 
L 52.203125 0 
L 43.21875 0 
L 43.21875 8.296875 
Q 40.140625 3.328125 35.546875 0.953125 
Q 30.953125 -1.421875 24.3125 -1.421875 
Q 15.921875 -1.421875 10.953125 3.296875 
Q 6 8.015625 6 15.921875 
Q 6 25.140625 12.171875 29.828125 
Q 18.359375 34.515625 30.609375 34.515625 
L 43.21875 34.515625 
L 43.21875 35.40625 
Q 43.21875 41.609375 39.140625 45 
Q 35.0625 48.390625 27.6875 48.390625 
Q 23 48.390625 18.546875 47.265625 
Q 14.109375 46.140625 10.015625 43.890625 
L 10.015625 52.203125 
Q 14.9375 54.109375 19.578125 55.046875 
Q 24.21875 56 28.609375 56 
Q 40.484375 56 46.34375 49.84375 
Q 52.203125 43.703125 52.203125 31.203125 
z
" id="DejaVuSans-97"/>
       <path d="M 9.421875 75.984375 
L 18.40625 75.984375 
L 18.40625 0 
L 9.421875 0 
z
" id="DejaVuSans-108"/>
       <path d="M 44.28125 53.078125 
L 44.28125 44.578125 
Q 40.484375 46.53125 36.375 47.5 
Q 32.28125 48.484375 27.875 48.484375 
Q 21.1875 48.484375 17.84375 46.4375 
Q 14.5 44.390625 14.5 40.28125 
Q 14.5 37.15625 16.890625 35.375 
Q 19.28125 33.59375 26.515625 31.984375 
L 29.59375 31.296875 
Q 39.15625 29.25 43.1875 25.515625 
Q 47.21875 21.78125 47.21875 15.09375 
Q 47.21875 7.46875 41.1875 3.015625 
Q 35.15625 -1.421875 24.609375 -1.421875 
Q 20.21875 -1.421875 15.453125 -0.5625 
Q 10.6875 0.296875 5.421875 2 
L 5.421875 11.28125 
Q 10.40625 8.6875 15.234375 7.390625 
Q 20.0625 6.109375 24.8125 6.109375 
Q 31.15625 6.109375 34.5625 8.28125 
Q 37.984375 10.453125 37.984375 14.40625 
Q 37.984375 18.0625 35.515625 20.015625 
Q 33.0625 21.96875 24.703125 23.78125 
L 21.578125 24.515625 
Q 13.234375 26.265625 9.515625 29.90625 
Q 5.8125 33.546875 5.8125 39.890625 
Q 5.8125 47.609375 11.28125 51.796875 
Q 16.75 56 26.8125 56 
Q 31.78125 56 36.171875 55.265625 
Q 40.578125 54.546875 44.28125 53.078125 
z
" id="DejaVuSans-115"/>
      </defs>
      <use xlink:href="#DejaVuSans-78"/>
      <use x="74.804688" xlink:href="#DejaVuSans-98"/>
      <use x="138.28125" xlink:href="#DejaVuSans-114"/>
      <use x="170.269531" xlink:href="#DejaVuSans-46"/>
      <use x="202.056641" xlink:href="#DejaVuSans-32"/>
      <use x="233.84375" xlink:href="#DejaVuSans-111"/>
      <use x="295.025391" xlink:href="#DejaVuSans-102"/>
      <use x="330.230469" xlink:href="#DejaVuSans-32"/>
      <use x="362.017578" xlink:href="#DejaVuSans-102"/>
      <use x="397.222656" xlink:href="#DejaVuSans-117"/>
      <use x="460.601562" xlink:href="#DejaVuSans-110"/>
      <use x="523.980469" xlink:href="#DejaVuSans-99"/>
      <use x="578.960938" xlink:href="#DejaVuSans-116"/>
      <use x="618.169922" xlink:href="#DejaVuSans-105"/>
      <use x="645.953125" xlink:href="#DejaVuSans-111"/>
      <use x="707.134766" xlink:href="#DejaVuSans-110"/>
      <use x="770.513672" xlink:href="#DejaVuSans-32"/>
      <use x="802.300781" xlink:href="#DejaVuSans-101"/>
      <use x="863.824219" xlink:href="#DejaVuSans-118"/>
      <use x="923.003906" xlink:href="#DejaVuSans-97"/>
      <use x="984.283203" xlink:href="#DejaVuSans-108"/>
      <use x="1012.066406" xlink:href="#DejaVuSans-117"/>
      <use x="1075.445312" xlink:href="#DejaVuSans-97"/>
      <use x="1136.724609" xlink:href="#DejaVuSans-116"/>
      <use x="1175.933594" xlink:href="#DejaVuSans-105"/>
      <use x="1203.716797" xlink:href="#DejaVuSans-111"/>
      <use x="1264.898438" xlink:href="#DejaVuSans-110"/>
      <use x="1328.277344" xlink:href="#DejaVuSans-115"/>
     </g>
    </g>
   </g>
   <g id="matplotlib.axis_2">
    <g id="ytick_1">
     <g id="line2d_7">
      <defs>
       <path d="M 0 0 
L -3.5 0 
" id="m0e7d845760" style="stroke:#000000;stroke-width:0.8;"/>
      </defs>
      <g>
       <use style="stroke:#000000;stroke-width:0.8;" x="54" xlink:href="#m0e7d845760" y="238.21411"/>
      </g>
     </g>
     <g id="text_8">
      <!-- $\mathdefault{10^{0}}$ -->
      <g transform="translate(29.4 242.013329)scale(0.1 -0.1)">
       <use transform="translate(0 0.765625)" xlink:href="#DejaVuSans-49"/>
       <use transform="translate(63.623047 0.765625)" xlink:href="#DejaVuSans-48"/>
       <use transform="translate(128.203125 39.046875)scale(0.7)" xlink:href="#DejaVuSans-48"/>
      </g>
     </g>
    </g>
    <g id="ytick_2">
     <g id="line2d_8">
      <g>
       <use style="stroke:#000000;stroke-width:0.8;" x="54" xlink:href="#m0e7d845760" y="150.516573"/>
      </g>
     </g>
     <g id="text_9">
      <!-- $\mathdefault{10^{1}}$ -->
      <g transform="translate(29.4 154.315792)scale(0.1 -0.1)">
       <use transform="translate(0 0.684375)" xlink:href="#DejaVuSans-49"/>
       <use transform="translate(63.623047 0.684375)" xlink:href="#DejaVuSans-48"/>
       <use transform="translate(128.203125 38.965625)scale(0.7)" xlink:href="#DejaVuSans-49"/>
      </g>
     </g>
    </g>
    <g id="ytick_3">
     <g id="line2d_9">
      <g>
       <use style="stroke:#000000;stroke-width:0.8;" x="54" xlink:href="#m0e7d845760" y="62.819036"/>
      </g>
     </g>
     <g id="text_10">
      <!-- $\mathdefault{10^{2}}$ -->
      <g transform="translate(29.4 66.618254)scale(0.1 -0.1)">
       <use transform="translate(0 0.765625)" xlink:href="#DejaVuSans-49"/>
       <use transform="translate(63.623047 0.765625)" xlink:href="#DejaVuSans-48"/>
       <use transform="translate(128.203125 39.046875)scale(0.7)" xlink:href="#DejaVuSans-50"/>
      </g>
     </g>
    </g>
    <g id="ytick_4">
     <g id="line2d_10">
      <defs>
       <path d="M 0 0 
L -2 0 
" id="m350d7bd279" style="stroke:#000000;stroke-width:0.6;"/>
      </defs>
      <g>
       <use style="stroke:#000000;stroke-width:0.6;" x="54" xlink:href="#m350d7bd279" y="251.798631"/>
      </g>
     </g>
    </g>
    <g id="ytick_5">
     <g id="line2d_11">
      <g>
       <use style="stroke:#000000;stroke-width:0.6;" x="54" xlink:href="#m350d7bd279" y="246.71288"/>
      </g>
     </g>
    </g>
    <g id="ytick_6">
     <g id="line2d_12">
      <g>
       <use style="stroke:#000000;stroke-width:0.6;" x="54" xlink:href="#m350d7bd279" y="242.226929"/>
      </g>
     </g>
    </g>
    <g id="ytick_7">
     <g id="line2d_13">
      <g>
       <use style="stroke:#000000;stroke-width:0.6;" x="54" xlink:href="#m350d7bd279" y="211.814521"/>
      </g>
     </g>
    </g>
    <g id="ytick_8">
     <g id="line2d_14">
      <g>
       <use style="stroke:#000000;stroke-width:0.6;" x="54" xlink:href="#m350d7bd279" y="196.371751"/>
      </g>
     </g>
    </g>
    <g id="ytick_9">
     <g id="line2d_15">
      <g>
       <use style="stroke:#000000;stroke-width:0.6;" x="54" xlink:href="#m350d7bd279" y="185.414932"/>
      </g>
     </g>
    </g>
    <g id="ytick_10">
     <g id="line2d_16">
      <g>
       <use style="stroke:#000000;stroke-width:0.6;" x="54" xlink:href="#m350d7bd279" y="176.916162"/>
      </g>
     </g>
    </g>
    <g id="ytick_11">
     <g id="line2d_17">
      <g>
       <use style="stroke:#000000;stroke-width:0.6;" x="54" xlink:href="#m350d7bd279" y="169.972162"/>
      </g>
     </g>
    </g>
    <g id="ytick_12">
     <g id="line2d_18">
      <g>
       <use style="stroke:#000000;stroke-width:0.6;" x="54" xlink:href="#m350d7bd279" y="164.101093"/>
      </g>
     </g>
    </g>
    <g id="ytick_13">
     <g id="line2d_19">
      <g>
       <use style="stroke:#000000;stroke-width:0.6;" x="54" xlink:href="#m350d7bd279" y="159.015342"/>
      </g>
     </g>
    </g>
    <g id="ytick_14">
     <g id="line2d_20">
      <g>
       <use style="stroke:#000000;stroke-width:0.6;" x="54" xlink:href="#m350d7bd279" y="154.529392"/>
      </g>
     </g>
    </g>
    <g id="ytick_15">
     <g id="line2d_21">
      <g>
       <use style="stroke:#000000;stroke-width:0.6;" x="54" xlink:href="#m350d7bd279" y="124.116984"/>
      </g>
     </g>
    </g>
    <g id="ytick_16">
     <g id="line2d_22">
      <g>
       <use style="stroke:#000000;stroke-width:0.6;" x="54" xlink:href="#m350d7bd279" y="108.674214"/>
      </g>
     </g>
    </g>
    <g id="ytick_17">
     <g id="line2d_23">
      <g>
       <use style="stroke:#000000;stroke-width:0.6;" x="54" xlink:href="#m350d7bd279" y="97.717394"/>
      </g>
     </g>
    </g>
    <g id="ytick_18">
     <g id="line2d_24">
      <g>
       <use style="stroke:#000000;stroke-width:0.6;" x="54" xlink:href="#m350d7bd279" y="89.218625"/>
      </g>
     </g>
    </g>
    <g id="ytick_19">
     <g id="line2d_25">
      <g>
       <use style="stroke:#000000;stroke-width:0.6;" x="54" xlink:href="#m350d7bd279" y="82.274625"/>
      </g>
     </g>
    </g>
    <g id="ytick_20">
     <g id="line2d_26">
      <g>
       <use style="stroke:#000000;stroke-width:0.6;" x="54" xlink:href="#m350d7bd279" y="76.403556"/>
      </g>
     </g>
    </g>
    <g id="ytick_21">
     <g id="line2d_27">
      <g>
       <use style="stroke:#000000;stroke-width:0.6;" x="54" xlink:href="#m350d7bd279" y="71.317805"/>
      </g>
     </g>
    </g>
    <g id="ytick_22">
     <g id="line2d_28">
      <g>
       <use style="stroke:#000000;stroke-width:0.6;" x="54" xlink:href="#m350d7bd279" y="66.831855"/>
      </g>
     </g>
    </g>
    <g id="ytick_23">
     <g id="line2d_29">
      <g>
       <use style="stroke:#000000;stroke-width:0.6;" x="54" xlink:href="#m350d7bd279" y="36.419446"/>
      </g>
     </g>
    </g>
    <g id="text_11">
     <!-- Best function evaluation -->
     <g transform="translate(23.320312 204.253438)rotate(-90)scale(0.1 -0.1)">
      <defs>
       <path d="M 19.671875 34.8125 
L 19.671875 8.109375 
L 35.5 8.109375 
Q 43.453125 8.109375 47.28125 11.40625 
Q 51.125 14.703125 51.125 21.484375 
Q 51.125 28.328125 47.28125 31.5625 
Q 43.453125 34.8125 35.5 34.8125 
z
M 19.671875 64.796875 
L 19.671875 42.828125 
L 34.28125 42.828125 
Q 41.5 42.828125 45.03125 45.53125 
Q 48.578125 48.25 48.578125 53.8125 
Q 48.578125 59.328125 45.03125 62.0625 
Q 41.5 64.796875 34.28125 64.796875 
z
M 9.8125 72.90625 
L 35.015625 72.90625 
Q 46.296875 72.90625 52.390625 68.21875 
Q 58.5 63.53125 58.5 54.890625 
Q 58.5 48.1875 55.375 44.234375 
Q 52.25 40.28125 46.1875 39.3125 
Q 53.46875 37.75 57.5 32.78125 
Q 61.53125 27.828125 61.53125 20.40625 
Q 61.53125 10.640625 54.890625 5.3125 
Q 48.25 0 35.984375 0 
L 9.8125 0 
z
" id="DejaVuSans-66"/>
      </defs>
      <use xlink:href="#DejaVuSans-66"/>
      <use x="68.603516" xlink:href="#DejaVuSans-101"/>
      <use x="130.126953" xlink:href="#DejaVuSans-115"/>
      <use x="182.226562" xlink:href="#DejaVuSans-116"/>
      <use x="221.435547" xlink:href="#DejaVuSans-32"/>
      <use x="253.222656" xlink:href="#DejaVuSans-102"/>
      <use x="288.427734" xlink:href="#DejaVuSans-117"/>
      <use x="351.806641" xlink:href="#DejaVuSans-110"/>
      <use x="415.185547" xlink:href="#DejaVuSans-99"/>
      <use x="470.166016" xlink:href="#DejaVuSans-116"/>
      <use x="509.375" xlink:href="#DejaVuSans-105"/>
      <use x="537.158203" xlink:href="#DejaVuSans-111"/>
      <use x="598.339844" xlink:href="#DejaVuSans-110"/>
      <use x="661.71875" xlink:href="#DejaVuSans-32"/>
      <use x="693.505859" xlink:href="#DejaVuSans-101"/>
      <use x="755.029297" xlink:href="#DejaVuSans-118"/>
      <use x="814.208984" xlink:href="#DejaVuSans-97"/>
      <use x="875.488281" xlink:href="#DejaVuSans-108"/>
      <use x="903.271484" xlink:href="#DejaVuSans-117"/>
      <use x="966.650391" xlink:href="#DejaVuSans-97"/>
      <use x="1027.929688" xlink:href="#DejaVuSans-116"/>
      <use x="1067.138672" xlink:href="#DejaVuSans-105"/>
      <use x="1094.921875" xlink:href="#DejaVuSans-111"/>
      <use x="1156.103516" xlink:href="#DejaVuSans-110"/>
     </g>
    </g>
   </g>
   <g id="line2d_30">
    <path clip-path="url(#p194477c0a3)" d="M 72.355951 48.493168 
L 78.63149 48.493168 
L 78.63149 105.316144 
L 84.907029 105.316144 
L 84.907029 105.563993 
L 91.182568 105.563993 
L 91.182568 111.641262 
L 97.458107 111.641262 
L 97.458107 111.641262 
L 103.733646 111.641262 
L 103.733646 111.641262 
L 106.871415 111.641262 
L 106.871415 111.641262 
L 113.146954 111.641262 
L 113.146954 111.641262 
L 119.422493 111.641262 
L 119.422493 111.641262 
L 122.560262 111.641262 
L 122.560262 122.372166 
L 125.698032 122.372166 
L 125.698032 122.424467 
L 131.973571 122.424467 
L 131.973571 122.424467 
L 138.24911 122.424467 
L 138.24911 122.424467 
L 144.524649 122.424467 
L 144.524649 122.424467 
L 150.800187 122.424467 
L 150.800187 122.424467 
L 157.075726 122.424467 
L 157.075726 122.424467 
L 163.351265 122.424467 
L 163.351265 122.424467 
L 169.626804 122.424467 
L 169.626804 122.424467 
L 175.902343 122.424467 
L 175.902343 122.424467 
L 182.177882 122.424467 
L 182.177882 122.424467 
L 188.453421 122.424467 
L 188.453421 122.424467 
L 194.72896 122.424467 
L 194.72896 123.69947 
L 201.004499 123.69947 
L 201.004499 123.69947 
L 207.280037 123.69947 
L 207.280037 123.727251 
L 213.555576 123.727251 
L 213.555576 123.727251 
L 219.831115 123.727251 
L 219.831115 123.729786 
L 226.106654 123.729786 
L 226.106654 123.743372 
L 232.382193 123.743372 
L 232.382193 123.821615 
L 238.657732 123.821615 
L 238.657732 123.832625 
L 244.933271 123.832625 
L 244.933271 123.832625 
L 251.20881 123.832625 
L 251.20881 123.832625 
L 257.484349 123.832625 
L 257.484349 123.832625 
L 263.759888 123.832625 
L 263.759888 123.832625 
L 266.897657 123.832625 
L 266.897657 123.832625 
L 273.173196 123.832625 
L 273.173196 123.832625 
L 279.448735 123.832625 
L 279.448735 123.832625 
L 285.724274 123.832625 
L 285.724274 123.832625 
L 291.999813 123.832625 
L 291.999813 124.332179 
L 298.275351 124.332179 
L 298.275351 124.332179 
L 304.55089 124.332179 
L 304.55089 124.332179 
L 310.826429 124.332179 
L 310.826429 124.332179 
L 317.101968 124.332179 
L 317.101968 124.332179 
L 323.377507 124.332179 
L 323.377507 124.332179 
L 329.653046 124.332179 
L 329.653046 124.332179 
L 335.928585 124.332179 
L 335.928585 124.332179 
L 342.204124 124.332179 
L 342.204124 124.332179 
L 348.479663 124.332179 
L 348.479663 124.332179 
L 354.755201 124.332179 
L 354.755201 124.332179 
L 361.03074 124.332179 
L 361.03074 124.332179 
L 367.306279 124.332179 
L 367.306279 124.332179 
" style="fill:none;stroke:#1f77b4;stroke-linecap:square;stroke-width:1.5;"/>
   </g>
   <g id="line2d_31">
    <path clip-path="url(#p194477c0a3)" d="M 72.355951 83.56753 
L 78.63149 83.56753 
L 78.63149 177.658941 
L 84.907029 177.658941 
L 84.907029 198.855941 
L 91.182568 198.855941 
L 91.182568 198.855941 
L 97.458107 198.855941 
L 97.458107 198.855941 
L 103.733646 198.855941 
L 103.733646 198.855941 
L 110.009185 198.855941 
L 110.009185 199.735847 
L 116.284724 199.735847 
L 116.284724 220.726603 
L 119.422493 220.726603 
L 119.422493 220.726603 
L 125.698032 220.726603 
L 125.698032 221.78658 
L 131.973571 221.78658 
L 131.973571 223.007904 
L 138.24911 223.007904 
L 138.24911 227.233861 
L 141.386879 227.233861 
L 141.386879 229.981364 
L 147.662418 229.981364 
L 147.662418 229.981364 
L 153.937957 229.981364 
L 153.937957 233.302484 
L 160.213496 233.302484 
L 160.213496 233.302484 
L 166.489035 233.302484 
L 166.489035 233.590106 
L 172.764574 233.590106 
L 172.764574 237.007932 
L 179.040112 237.007932 
L 179.040112 237.007932 
L 185.315651 237.007932 
L 185.315651 239.92359 
L 191.59119 239.92359 
L 191.59119 239.92359 
L 197.866729 239.92359 
L 197.866729 239.92359 
L 204.142268 239.92359 
L 204.142268 239.92359 
L 210.417807 239.92359 
L 210.417807 239.92359 
L 216.693346 239.92359 
L 216.693346 239.92359 
L 222.968885 239.92359 
L 222.968885 239.92359 
L 229.244424 239.92359 
L 229.244424 239.92359 
L 235.519963 239.92359 
L 235.519963 242.116364 
L 241.795501 242.116364 
L 241.795501 242.116364 
L 248.07104 242.116364 
L 248.07104 242.116364 
L 254.346579 242.116364 
L 254.346579 242.116364 
L 260.622118 242.116364 
L 260.622118 242.116364 
L 266.897657 242.116364 
L 266.897657 242.116364 
L 273.173196 242.116364 
L 273.173196 242.116364 
L 279.448735 242.116364 
L 279.448735 242.116364 
L 285.724274 242.116364 
L 285.724274 242.116364 
L 291.999813 242.116364 
L 291.999813 242.116364 
L 298.275351 242.116364 
L 298.275351 242.116364 
L 304.55089 242.116364 
L 304.55089 242.116364 
L 310.826429 242.116364 
L 310.826429 242.116364 
L 317.101968 242.116364 
L 317.101968 242.116364 
L 323.377507 242.116364 
L 323.377507 242.116364 
L 329.653046 242.116364 
L 329.653046 242.116364 
L 335.928585 242.116364 
L 335.928585 242.116364 
L 342.204124 242.116364 
L 342.204124 242.116364 
L 348.479663 242.116364 
L 348.479663 242.116364 
L 354.755201 242.116364 
L 354.755201 242.116364 
L 361.03074 242.116364 
L 361.03074 242.116364 
L 367.306279 242.116364 
L 367.306279 242.116364 
L 373.581818 242.116364 
L 373.581818 242.116364 
" style="fill:none;stroke:#ff7f0e;stroke-linecap:square;stroke-width:1.5;"/>
   </g>
   <g id="line2d_32">
    <path clip-path="url(#p194477c0a3)" d="M 69.218182 164.032182 
L 75.493721 164.032182 
L 75.493721 164.032182 
L 81.76926 164.032182 
L 81.76926 164.032182 
L 88.044799 164.032182 
L 88.044799 164.032182 
L 94.320337 164.032182 
L 94.320337 164.937147 
L 97.458107 164.937147 
L 97.458107 176.846801 
L 103.733646 176.846801 
L 103.733646 176.916205 
L 110.009185 176.916205 
L 110.009185 177.186633 
L 116.284724 177.186633 
L 116.284724 177.186633 
L 119.422493 177.186633 
L 119.422493 177.186633 
L 125.698032 177.186633 
L 125.698032 177.186633 
L 128.835801 177.186633 
L 128.835801 181.377528 
L 135.11134 181.377528 
L 135.11134 182.748828 
L 141.386879 182.748828 
L 141.386879 183.342264 
L 147.662418 183.342264 
L 147.662418 186.719721 
L 153.937957 186.719721 
L 153.937957 186.719721 
L 160.213496 186.719721 
L 160.213496 187.061757 
L 166.489035 187.061757 
L 166.489035 187.159369 
L 172.764574 187.159369 
L 172.764574 193.15546 
L 179.040112 193.15546 
L 179.040112 193.815089 
L 182.177882 193.815089 
L 182.177882 193.815089 
L 188.453421 193.815089 
L 188.453421 193.815089 
L 194.72896 193.815089 
L 194.72896 196.01247 
L 201.004499 196.01247 
L 201.004499 198.964737 
L 207.280037 198.964737 
L 207.280037 206.634464 
L 213.555576 206.634464 
L 213.555576 207.293057 
L 219.831115 207.293057 
L 219.831115 210.457516 
L 226.106654 210.457516 
L 226.106654 210.457516 
L 232.382193 210.457516 
L 232.382193 214.943318 
L 238.657732 214.943318 
L 238.657732 214.943318 
L 244.933271 214.943318 
L 244.933271 216.752659 
L 251.20881 216.752659 
L 251.20881 218.404833 
L 257.484349 218.404833 
L 257.484349 220.194666 
L 260.622118 220.194666 
L 260.622118 222.605011 
L 266.897657 222.605011 
L 266.897657 222.850515 
L 273.173196 222.850515 
L 273.173196 226.45381 
L 279.448735 226.45381 
L 279.448735 226.45381 
L 285.724274 226.45381 
L 285.724274 228.315544 
L 291.999813 228.315544 
L 291.999813 229.406615 
L 298.275351 229.406615 
L 298.275351 234.184359 
L 301.413121 234.184359 
L 301.413121 234.184359 
L 307.68866 234.184359 
L 307.68866 235.301684 
L 313.964199 235.301684 
L 313.964199 235.301684 
L 320.239738 235.301684 
L 320.239738 235.301684 
L 326.515276 235.301684 
L 326.515276 235.301684 
L 332.790815 235.301684 
L 332.790815 235.301684 
L 339.066354 235.301684 
L 339.066354 235.301684 
L 345.341893 235.301684 
L 345.341893 235.301684 
L 351.617432 235.301684 
L 351.617432 235.301684 
L 357.892971 235.301684 
L 357.892971 235.301684 
" style="fill:none;stroke:#2ca02c;stroke-linecap:square;stroke-width:1.5;"/>
   </g>
   <g id="line2d_33">
    <path clip-path="url(#p194477c0a3)" d="M 72.355951 86.394116 
L 78.63149 86.394116 
L 78.63149 111.331206 
L 84.907029 111.331206 
L 84.907029 111.331206 
L 91.182568 111.331206 
L 91.182568 116.851724 
L 97.458107 116.851724 
L 97.458107 134.426065 
L 100.595876 134.426065 
L 100.595876 188.288855 
L 106.871415 188.288855 
L 106.871415 188.751244 
L 113.146954 188.751244 
L 113.146954 188.751244 
L 119.422493 188.751244 
L 119.422493 188.75534 
L 125.698032 188.75534 
L 125.698032 188.75534 
L 131.973571 188.75534 
L 131.973571 188.872355 
L 135.11134 188.872355 
L 135.11134 188.929395 
L 141.386879 188.929395 
L 141.386879 188.929395 
L 147.662418 188.929395 
L 147.662418 189.801739 
L 153.937957 189.801739 
L 153.937957 190.016516 
L 160.213496 190.016516 
L 160.213496 190.144407 
L 166.489035 190.144407 
L 166.489035 190.144407 
L 172.764574 190.144407 
L 172.764574 190.672374 
L 179.040112 190.672374 
L 179.040112 190.884585 
L 185.315651 190.884585 
L 185.315651 190.884585 
L 191.59119 190.884585 
L 191.59119 190.884585 
L 197.866729 190.884585 
L 197.866729 190.884585 
L 204.142268 190.884585 
L 204.142268 190.884585 
L 210.417807 190.884585 
L 210.417807 190.884585 
L 216.693346 190.884585 
L 216.693346 190.884585 
L 222.968885 190.884585 
L 222.968885 190.884585 
L 229.244424 190.884585 
L 229.244424 190.884585 
L 235.519963 190.884585 
L 235.519963 190.884585 
L 241.795501 190.884585 
L 241.795501 190.884585 
L 248.07104 190.884585 
L 248.07104 190.884585 
L 254.346579 190.884585 
L 254.346579 190.884585 
L 257.484349 190.884585 
L 257.484349 190.884585 
L 263.759888 190.884585 
L 263.759888 191.140653 
L 266.897657 191.140653 
L 266.897657 191.140653 
L 273.173196 191.140653 
L 273.173196 191.140653 
L 276.310965 191.140653 
L 276.310965 194.158706 
L 279.448735 194.158706 
L 279.448735 194.942774 
L 285.724274 194.942774 
L 285.724274 194.942774 
L 291.999813 194.942774 
L 291.999813 194.942774 
L 298.275351 194.942774 
L 298.275351 194.942774 
L 304.55089 194.942774 
L 304.55089 195.565339 
L 310.826429 195.565339 
L 310.826429 195.565339 
L 317.101968 195.565339 
L 317.101968 195.565339 
L 323.377507 195.565339 
L 323.377507 195.644041 
L 329.653046 195.644041 
L 329.653046 195.644041 
L 335.928585 195.644041 
L 335.928585 195.644041 
L 342.204124 195.644041 
L 342.204124 195.741874 
L 348.479663 195.741874 
L 348.479663 195.741874 
L 354.755201 195.741874 
L 354.755201 196.758868 
L 361.03074 196.758868 
L 361.03074 196.758868 
" style="fill:none;stroke:#d62728;stroke-linecap:square;stroke-width:1.5;"/>
   </g>
   <g id="line2d_34">
    <path clip-path="url(#p194477c0a3)" d="M 72.355951 95.160207 
L 78.63149 95.160207 
L 78.63149 159.590325 
L 84.907029 159.590325 
L 84.907029 166.776615 
L 91.182568 166.776615 
L 91.182568 166.776615 
L 97.458107 166.776615 
L 97.458107 168.02925 
L 103.733646 168.02925 
L 103.733646 179.527294 
L 106.871415 179.527294 
L 106.871415 191.868467 
L 113.146954 191.868467 
L 113.146954 192.996629 
L 119.422493 192.996629 
L 119.422493 193.63777 
L 125.698032 193.63777 
L 125.698032 193.63777 
L 131.973571 193.63777 
L 131.973571 193.63777 
L 138.24911 193.63777 
L 138.24911 193.63777 
L 144.524649 193.63777 
L 144.524649 193.63777 
L 150.800187 193.63777 
L 150.800187 195.56718 
L 157.075726 195.56718 
L 157.075726 195.56718 
L 163.351265 195.56718 
L 163.351265 195.56718 
L 169.626804 195.56718 
L 169.626804 196.82259 
L 175.902343 196.82259 
L 175.902343 198.895645 
L 182.177882 198.895645 
L 182.177882 202.634871 
L 185.315651 202.634871 
L 185.315651 204.152066 
L 191.59119 204.152066 
L 191.59119 205.419652 
L 194.72896 205.419652 
L 194.72896 212.031371 
L 201.004499 212.031371 
L 201.004499 212.031371 
L 204.142268 212.031371 
L 204.142268 212.125059 
L 210.417807 212.125059 
L 210.417807 212.125059 
L 216.693346 212.125059 
L 216.693346 212.125059 
L 222.968885 212.125059 
L 222.968885 214.473024 
L 229.244424 214.473024 
L 229.244424 215.843489 
L 235.519963 215.843489 
L 235.519963 216.910133 
L 241.795501 216.910133 
L 241.795501 225.771439 
L 248.07104 225.771439 
L 248.07104 225.771439 
L 254.346579 225.771439 
L 254.346579 227.873527 
L 260.622118 227.873527 
L 260.622118 230.546083 
L 266.897657 230.546083 
L 266.897657 230.546083 
L 270.035426 230.546083 
L 270.035426 231.981909 
L 276.310965 231.981909 
L 276.310965 231.981909 
L 282.586504 231.981909 
L 282.586504 231.981909 
L 288.862043 231.981909 
L 288.862043 231.981909 
L 295.137582 231.981909 
L 295.137582 231.981909 
L 301.413121 231.981909 
L 301.413121 231.981909 
L 307.68866 231.981909 
L 307.68866 232.682876 
L 313.964199 232.682876 
L 313.964199 232.682876 
L 320.239738 232.682876 
L 320.239738 232.682876 
L 326.515276 232.682876 
L 326.515276 235.168304 
L 332.790815 235.168304 
L 332.790815 235.168304 
L 339.066354 235.168304 
L 339.066354 235.168304 
L 345.341893 235.168304 
L 345.341893 235.168304 
L 351.617432 235.168304 
L 351.617432 235.168304 
L 357.892971 235.168304 
L 357.892971 235.168304 
L 364.16851 235.168304 
L 364.16851 235.168304 
" style="fill:none;stroke:#9467bd;stroke-linecap:square;stroke-width:1.5;"/>
   </g>
   <g id="line2d_35">
    <path clip-path="url(#p194477c0a3)" d="M 72.355951 44.443636 
L 75.493721 44.443636 
L 75.493721 85.173153 
L 81.76926 85.173153 
L 81.76926 85.18012 
L 88.044799 85.18012 
L 88.044799 85.18012 
L 94.320337 85.18012 
L 94.320337 114.022047 
L 100.595876 114.022047 
L 100.595876 114.022047 
L 106.871415 114.022047 
L 106.871415 114.022047 
L 113.146954 114.022047 
L 113.146954 114.09961 
L 119.422493 114.09961 
L 119.422493 114.09961 
L 125.698032 114.09961 
L 125.698032 114.09961 
L 131.973571 114.09961 
L 131.973571 114.125725 
L 138.24911 114.125725 
L 138.24911 114.125725 
L 144.524649 114.125725 
L 144.524649 114.125725 
L 150.800187 114.125725 
L 150.800187 114.125725 
L 157.075726 114.125725 
L 157.075726 114.125725 
L 163.351265 114.125725 
L 163.351265 114.125725 
L 169.626804 114.125725 
L 169.626804 114.125725 
L 175.902343 114.125725 
L 175.902343 114.125725 
L 182.177882 114.125725 
L 182.177882 114.125725 
L 188.453421 114.125725 
L 188.453421 114.125725 
L 194.72896 114.125725 
L 194.72896 114.125725 
L 201.004499 114.125725 
L 201.004499 114.125725 
L 207.280037 114.125725 
L 207.280037 114.125725 
L 213.555576 114.125725 
L 213.555576 114.125725 
L 219.831115 114.125725 
L 219.831115 114.125725 
L 226.106654 114.125725 
L 226.106654 114.125725 
L 232.382193 114.125725 
L 232.382193 114.129813 
L 238.657732 114.129813 
L 238.657732 114.129813 
L 244.933271 114.129813 
L 244.933271 114.129813 
L 251.20881 114.129813 
L 251.20881 114.129813 
L 257.484349 114.129813 
L 257.484349 114.129813 
L 263.759888 114.129813 
L 263.759888 114.129813 
L 270.035426 114.129813 
L 270.035426 114.129813 
L 276.310965 114.129813 
L 276.310965 114.129813 
L 282.586504 114.129813 
L 282.586504 114.129813 
L 288.862043 114.129813 
L 288.862043 114.129813 
L 295.137582 114.129813 
L 295.137582 114.129813 
L 301.413121 114.129813 
L 301.413121 114.129813 
L 307.68866 114.129813 
L 307.68866 114.129813 
L 313.964199 114.129813 
L 313.964199 114.129813 
L 320.239738 114.129813 
L 320.239738 114.129813 
L 326.515276 114.129813 
L 326.515276 114.129813 
L 332.790815 114.129813 
L 332.790815 114.129813 
L 339.066354 114.129813 
L 339.066354 114.129813 
L 345.341893 114.129813 
L 345.341893 114.129813 
L 351.617432 114.129813 
L 351.617432 114.129813 
L 357.892971 114.129813 
L 357.892971 114.129813 
L 364.16851 114.129813 
L 364.16851 114.129813 
L 370.444049 114.129813 
L 370.444049 114.129813 
" style="fill:none;stroke:#8c564b;stroke-linecap:square;stroke-width:1.5;"/>
   </g>
   <g id="line2d_36">
    <path clip-path="url(#p194477c0a3)" d="M 72.355951 150.700661 
L 78.63149 150.700661 
L 78.63149 173.482766 
L 84.907029 173.482766 
L 84.907029 173.482766 
L 91.182568 173.482766 
L 91.182568 174.045428 
L 97.458107 174.045428 
L 97.458107 174.045428 
L 103.733646 174.045428 
L 103.733646 175.830694 
L 110.009185 175.830694 
L 110.009185 175.924246 
L 116.284724 175.924246 
L 116.284724 179.251432 
L 122.560262 179.251432 
L 122.560262 179.251432 
L 128.835801 179.251432 
L 128.835801 187.184133 
L 135.11134 187.184133 
L 135.11134 192.213359 
L 138.24911 192.213359 
L 138.24911 192.213359 
L 144.524649 192.213359 
L 144.524649 192.213359 
L 150.800187 192.213359 
L 150.800187 199.619724 
L 157.075726 199.619724 
L 157.075726 199.619724 
L 163.351265 199.619724 
L 163.351265 199.619724 
L 169.626804 199.619724 
L 169.626804 201.43517 
L 175.902343 201.43517 
L 175.902343 201.43517 
L 179.040112 201.43517 
L 179.040112 202.025881 
L 182.177882 202.025881 
L 182.177882 202.025881 
L 188.453421 202.025881 
L 188.453421 202.025881 
L 191.59119 202.025881 
L 191.59119 206.509026 
L 194.72896 206.509026 
L 194.72896 206.509026 
L 201.004499 206.509026 
L 201.004499 206.509026 
L 204.142268 206.509026 
L 204.142268 210.12375 
L 210.417807 210.12375 
L 210.417807 210.317701 
L 216.693346 210.317701 
L 216.693346 215.104759 
L 222.968885 215.104759 
L 222.968885 215.104759 
L 229.244424 215.104759 
L 229.244424 215.104759 
L 232.382193 215.104759 
L 232.382193 215.156739 
L 238.657732 215.156739 
L 238.657732 216.349231 
L 244.933271 216.349231 
L 244.933271 216.416503 
L 251.20881 216.416503 
L 251.20881 217.236665 
L 254.346579 217.236665 
L 254.346579 223.039404 
L 260.622118 223.039404 
L 260.622118 223.482355 
L 263.759888 223.482355 
L 263.759888 223.482355 
L 270.035426 223.482355 
L 270.035426 223.482355 
L 273.173196 223.482355 
L 273.173196 225.002935 
L 279.448735 225.002935 
L 279.448735 227.968518 
L 285.724274 227.968518 
L 285.724274 227.968518 
L 291.999813 227.968518 
L 291.999813 234.514405 
L 298.275351 234.514405 
L 298.275351 236.163969 
L 304.55089 236.163969 
L 304.55089 236.355374 
L 310.826429 236.355374 
L 310.826429 236.355374 
L 317.101968 236.355374 
L 317.101968 236.355374 
L 323.377507 236.355374 
L 323.377507 239.453016 
L 329.653046 239.453016 
L 329.653046 239.453016 
L 332.790815 239.453016 
L 332.790815 239.453016 
L 339.066354 239.453016 
L 339.066354 239.453016 
L 345.341893 239.453016 
L 345.341893 239.453016 
" style="fill:none;stroke:#e377c2;stroke-linecap:square;stroke-width:1.5;"/>
   </g>
   <g id="line2d_37">
    <path clip-path="url(#p194477c0a3)" d="M 69.218182 64.890767 
L 75.493721 64.890767 
L 75.493721 64.890767 
L 78.63149 64.890767 
L 78.63149 122.44912 
L 84.907029 122.44912 
L 84.907029 122.491218 
L 91.182568 122.491218 
L 91.182568 122.545898 
L 94.320337 122.545898 
L 94.320337 176.6824 
L 100.595876 176.6824 
L 100.595876 176.772007 
L 106.871415 176.772007 
L 106.871415 177.081035 
L 113.146954 177.081035 
L 113.146954 177.081035 
L 119.422493 177.081035 
L 119.422493 177.081035 
L 125.698032 177.081035 
L 125.698032 177.081035 
L 131.973571 177.081035 
L 131.973571 179.713983 
L 138.24911 179.713983 
L 138.24911 179.987153 
L 144.524649 179.987153 
L 144.524649 181.512876 
L 150.800187 181.512876 
L 150.800187 185.01915 
L 157.075726 185.01915 
L 157.075726 189.258565 
L 163.351265 189.258565 
L 163.351265 189.51306 
L 169.626804 189.51306 
L 169.626804 195.4403 
L 175.902343 195.4403 
L 175.902343 196.732733 
L 179.040112 196.732733 
L 179.040112 196.732733 
L 185.315651 196.732733 
L 185.315651 196.732733 
L 191.59119 196.732733 
L 191.59119 201.906967 
L 197.866729 201.906967 
L 197.866729 201.95647 
L 204.142268 201.95647 
L 204.142268 206.806768 
L 207.280037 206.806768 
L 207.280037 206.806768 
L 213.555576 206.806768 
L 213.555576 206.806768 
L 219.831115 206.806768 
L 219.831115 209.51203 
L 226.106654 209.51203 
L 226.106654 209.85163 
L 232.382193 209.85163 
L 232.382193 214.72228 
L 235.519963 214.72228 
L 235.519963 214.72228 
L 241.795501 214.72228 
L 241.795501 214.72228 
L 248.07104 214.72228 
L 248.07104 217.195927 
L 254.346579 217.195927 
L 254.346579 224.5377 
L 260.622118 224.5377 
L 260.622118 224.980704 
L 263.759888 224.980704 
L 263.759888 224.980704 
L 270.035426 224.980704 
L 270.035426 226.458405 
L 276.310965 226.458405 
L 276.310965 232.103944 
L 282.586504 232.103944 
L 282.586504 232.103944 
L 288.862043 232.103944 
L 288.862043 235.202628 
L 295.137582 235.202628 
L 295.137582 236.968146 
L 298.275351 236.968146 
L 298.275351 236.968146 
L 304.55089 236.968146 
L 304.55089 236.968146 
L 310.826429 236.968146 
L 310.826429 240.085211 
L 317.101968 240.085211 
L 317.101968 240.085211 
L 320.239738 240.085211 
L 320.239738 240.085211 
L 326.515276 240.085211 
L 326.515276 240.085211 
L 329.653046 240.085211 
L 329.653046 240.085211 
L 335.928585 240.085211 
L 335.928585 240.085211 
L 342.204124 240.085211 
L 342.204124 240.085211 
L 348.479663 240.085211 
L 348.479663 240.085211 
" style="fill:none;stroke:#7f7f7f;stroke-linecap:square;stroke-width:1.5;"/>
   </g>
   <g id="line2d_38">
    <path clip-path="url(#p194477c0a3)" d="M 72.355951 175.902653 
L 75.493721 175.902653 
L 75.493721 176.220835 
L 81.76926 176.220835 
L 81.76926 176.220835 
L 88.044799 176.220835 
L 88.044799 176.220835 
L 94.320337 176.220835 
L 94.320337 176.781769 
L 100.595876 176.781769 
L 100.595876 176.781769 
L 106.871415 176.781769 
L 106.871415 176.781769 
L 110.009185 176.781769 
L 110.009185 178.888166 
L 116.284724 178.888166 
L 116.284724 178.888166 
L 122.560262 178.888166 
L 122.560262 186.035098 
L 128.835801 186.035098 
L 128.835801 186.337551 
L 135.11134 186.337551 
L 135.11134 186.337551 
L 141.386879 186.337551 
L 141.386879 189.45617 
L 147.662418 189.45617 
L 147.662418 189.45617 
L 153.937957 189.45617 
L 153.937957 190.501532 
L 160.213496 190.501532 
L 160.213496 191.685315 
L 163.351265 191.685315 
L 163.351265 193.836098 
L 169.626804 193.836098 
L 169.626804 193.836098 
L 175.902343 193.836098 
L 175.902343 195.020956 
L 182.177882 195.020956 
L 182.177882 195.899577 
L 188.453421 195.899577 
L 188.453421 198.759942 
L 194.72896 198.759942 
L 194.72896 198.759942 
L 201.004499 198.759942 
L 201.004499 202.18837 
L 207.280037 202.18837 
L 207.280037 202.18837 
L 213.555576 202.18837 
L 213.555576 209.246028 
L 219.831115 209.246028 
L 219.831115 209.552548 
L 226.106654 209.552548 
L 226.106654 209.812387 
L 232.382193 209.812387 
L 232.382193 221.063272 
L 238.657732 221.063272 
L 238.657732 231.360858 
L 244.933271 231.360858 
L 244.933271 231.360858 
L 251.20881 231.360858 
L 251.20881 231.360858 
L 257.484349 231.360858 
L 257.484349 236.752002 
L 263.759888 236.752002 
L 263.759888 236.752002 
L 270.035426 236.752002 
L 270.035426 236.752002 
L 273.173196 236.752002 
L 273.173196 238.117875 
L 279.448735 238.117875 
L 279.448735 238.117875 
L 285.724274 238.117875 
L 285.724274 238.117875 
L 291.999813 238.117875 
L 291.999813 238.117875 
L 298.275351 238.117875 
L 298.275351 238.117875 
L 304.55089 238.117875 
L 304.55089 238.117875 
L 310.826429 238.117875 
L 310.826429 238.117875 
L 317.101968 238.117875 
L 317.101968 238.117875 
L 323.377507 238.117875 
L 323.377507 238.117875 
L 329.653046 238.117875 
L 329.653046 238.117875 
L 335.928585 238.117875 
L 335.928585 238.117875 
L 342.204124 238.117875 
L 342.204124 238.513759 
L 348.479663 238.513759 
L 348.479663 238.513759 
L 354.755201 238.513759 
L 354.755201 238.513759 
L 361.03074 238.513759 
L 361.03074 240.600072 
L 367.306279 240.600072 
L 367.306279 240.600072 
" style="fill:none;stroke:#bcbd22;stroke-linecap:square;stroke-width:1.5;"/>
   </g>
   <g id="line2d_39">
    <path clip-path="url(#p194477c0a3)" d="M 72.355951 77.923252 
L 75.493721 77.923252 
L 75.493721 174.60556 
L 81.76926 174.60556 
L 81.76926 174.820861 
L 88.044799 174.820861 
L 88.044799 174.820861 
L 94.320337 174.820861 
L 94.320337 175.021867 
L 100.595876 175.021867 
L 100.595876 175.030195 
L 106.871415 175.030195 
L 106.871415 175.141619 
L 110.009185 175.141619 
L 110.009185 176.684742 
L 116.284724 176.684742 
L 116.284724 176.831515 
L 119.422493 176.831515 
L 119.422493 176.831515 
L 125.698032 176.831515 
L 125.698032 176.831515 
L 131.973571 176.831515 
L 131.973571 177.466685 
L 138.24911 177.466685 
L 138.24911 177.466685 
L 144.524649 177.466685 
L 144.524649 177.466685 
L 150.800187 177.466685 
L 150.800187 177.466685 
L 157.075726 177.466685 
L 157.075726 177.542763 
L 163.351265 177.542763 
L 163.351265 177.542763 
L 169.626804 177.542763 
L 169.626804 177.542763 
L 175.902343 177.542763 
L 175.902343 177.542763 
L 182.177882 177.542763 
L 182.177882 177.582004 
L 188.453421 177.582004 
L 188.453421 177.582004 
L 194.72896 177.582004 
L 194.72896 177.582004 
L 201.004499 177.582004 
L 201.004499 177.582004 
L 207.280037 177.582004 
L 207.280037 177.582004 
L 213.555576 177.582004 
L 213.555576 177.645163 
L 219.831115 177.645163 
L 219.831115 177.99922 
L 226.106654 177.99922 
L 226.106654 177.99922 
L 232.382193 177.99922 
L 232.382193 177.99922 
L 238.657732 177.99922 
L 238.657732 178.005528 
L 244.933271 178.005528 
L 244.933271 178.005528 
L 251.20881 178.005528 
L 251.20881 178.005528 
L 257.484349 178.005528 
L 257.484349 178.005528 
L 263.759888 178.005528 
L 263.759888 178.036332 
L 270.035426 178.036332 
L 270.035426 178.036332 
L 276.310965 178.036332 
L 276.310965 178.036332 
L 282.586504 178.036332 
L 282.586504 178.036332 
L 285.724274 178.036332 
L 285.724274 178.036332 
L 291.999813 178.036332 
L 291.999813 178.036332 
L 298.275351 178.036332 
L 298.275351 178.197206 
L 301.413121 178.197206 
L 301.413121 178.197206 
L 307.68866 178.197206 
L 307.68866 178.197206 
L 313.964199 178.197206 
L 313.964199 178.197206 
L 320.239738 178.197206 
L 320.239738 178.197206 
L 326.515276 178.197206 
L 326.515276 178.197206 
L 332.790815 178.197206 
L 332.790815 178.197206 
L 339.066354 178.197206 
L 339.066354 178.197206 
L 345.341893 178.197206 
L 345.341893 178.197206 
L 351.617432 178.197206 
L 351.617432 178.197206 
L 357.892971 178.197206 
L 357.892971 178.197206 
L 364.16851 178.197206 
L 364.16851 178.197206 
" style="fill:none;stroke:#17becf;stroke-linecap:square;stroke-width:1.5;"/>
   </g>
   <g id="patch_3">
    <path d="M 54 252 
L 54 34.56 
" style="fill:none;stroke:#000000;stroke-linecap:square;stroke-linejoin:miter;stroke-width:0.8;"/>
   </g>
   <g id="patch_4">
    <path d="M 388.8 252 
L 388.8 34.56 
" style="fill:none;stroke:#000000;stroke-linecap:square;stroke-linejoin:miter;stroke-width:0.8;"/>
   </g>
   <g id="patch_5">
    <path d="M 54 252 
L 388.8 252 
" style="fill:none;stroke:#000000;stroke-linecap:square;stroke-linejoin:miter;stroke-width:0.8;"/>
   </g>
   <g id="patch_6">
    <path d="M 54 34.56 
L 388.8 34.56 
" style="fill:none;stroke:#000000;stroke-linecap:square;stroke-linejoin:miter;stroke-width:0.8;"/>
   </g>
   <g id="legend_1">
    <g id="patch_7">
     <path d="M 303.546875 189.34125 
L 381.8 189.34125 
Q 383.8 189.34125 383.8 187.34125 
L 383.8 41.56 
Q 383.8 39.56 381.8 39.56 
L 303.546875 39.56 
Q 301.546875 39.56 301.546875 41.56 
L 301.546875 187.34125 
Q 301.546875 189.34125 303.546875 189.34125 
z
" style="fill:#ffffff;opacity:0.8;stroke:#cccccc;stroke-linejoin:miter;"/>
    </g>
    <g id="line2d_40">
     <path d="M 305.546875 47.658437 
L 325.546875 47.658437 
" style="fill:none;stroke:#1f77b4;stroke-linecap:square;stroke-width:1.5;"/>
    </g>
    <g id="line2d_41"/>
    <g id="text_12">
     <!-- Simplex0 -->
     <g transform="translate(333.546875 51.158437)scale(0.1 -0.1)">
      <defs>
       <path d="M 53.515625 70.515625 
L 53.515625 60.890625 
Q 47.90625 63.578125 42.921875 64.890625 
Q 37.9375 66.21875 33.296875 66.21875 
Q 25.25 66.21875 20.875 63.09375 
Q 16.5 59.96875 16.5 54.203125 
Q 16.5 49.359375 19.40625 46.890625 
Q 22.3125 44.4375 30.421875 42.921875 
L 36.375 41.703125 
Q 47.40625 39.59375 52.65625 34.296875 
Q 57.90625 29 57.90625 20.125 
Q 57.90625 9.515625 50.796875 4.046875 
Q 43.703125 -1.421875 29.984375 -1.421875 
Q 24.8125 -1.421875 18.96875 -0.25 
Q 13.140625 0.921875 6.890625 3.21875 
L 6.890625 13.375 
Q 12.890625 10.015625 18.65625 8.296875 
Q 24.421875 6.59375 29.984375 6.59375 
Q 38.421875 6.59375 43.015625 9.90625 
Q 47.609375 13.234375 47.609375 19.390625 
Q 47.609375 24.75 44.3125 27.78125 
Q 41.015625 30.8125 33.5 32.328125 
L 27.484375 33.5 
Q 16.453125 35.6875 11.515625 40.375 
Q 6.59375 45.0625 6.59375 53.421875 
Q 6.59375 63.09375 13.40625 68.65625 
Q 20.21875 74.21875 32.171875 74.21875 
Q 37.3125 74.21875 42.625 73.28125 
Q 47.953125 72.359375 53.515625 70.515625 
z
" id="DejaVuSans-83"/>
       <path d="M 52 44.1875 
Q 55.375 50.25 60.0625 53.125 
Q 64.75 56 71.09375 56 
Q 79.640625 56 84.28125 50.015625 
Q 88.921875 44.046875 88.921875 33.015625 
L 88.921875 0 
L 79.890625 0 
L 79.890625 32.71875 
Q 79.890625 40.578125 77.09375 44.375 
Q 74.3125 48.1875 68.609375 48.1875 
Q 61.625 48.1875 57.5625 43.546875 
Q 53.515625 38.921875 53.515625 30.90625 
L 53.515625 0 
L 44.484375 0 
L 44.484375 32.71875 
Q 44.484375 40.625 41.703125 44.40625 
Q 38.921875 48.1875 33.109375 48.1875 
Q 26.21875 48.1875 22.15625 43.53125 
Q 18.109375 38.875 18.109375 30.90625 
L 18.109375 0 
L 9.078125 0 
L 9.078125 54.6875 
L 18.109375 54.6875 
L 18.109375 46.1875 
Q 21.1875 51.21875 25.484375 53.609375 
Q 29.78125 56 35.6875 56 
Q 41.65625 56 45.828125 52.96875 
Q 50 49.953125 52 44.1875 
z
" id="DejaVuSans-109"/>
       <path d="M 18.109375 8.203125 
L 18.109375 -20.796875 
L 9.078125 -20.796875 
L 9.078125 54.6875 
L 18.109375 54.6875 
L 18.109375 46.390625 
Q 20.953125 51.265625 25.265625 53.625 
Q 29.59375 56 35.59375 56 
Q 45.5625 56 51.78125 48.09375 
Q 58.015625 40.1875 58.015625 27.296875 
Q 58.015625 14.40625 51.78125 6.484375 
Q 45.5625 -1.421875 35.59375 -1.421875 
Q 29.59375 -1.421875 25.265625 0.953125 
Q 20.953125 3.328125 18.109375 8.203125 
z
M 48.6875 27.296875 
Q 48.6875 37.203125 44.609375 42.84375 
Q 40.53125 48.484375 33.40625 48.484375 
Q 26.265625 48.484375 22.1875 42.84375 
Q 18.109375 37.203125 18.109375 27.296875 
Q 18.109375 17.390625 22.1875 11.75 
Q 26.265625 6.109375 33.40625 6.109375 
Q 40.53125 6.109375 44.609375 11.75 
Q 48.6875 17.390625 48.6875 27.296875 
z
" id="DejaVuSans-112"/>
       <path d="M 54.890625 54.6875 
L 35.109375 28.078125 
L 55.90625 0 
L 45.3125 0 
L 29.390625 21.484375 
L 13.484375 0 
L 2.875 0 
L 24.125 28.609375 
L 4.6875 54.6875 
L 15.28125 54.6875 
L 29.78125 35.203125 
L 44.28125 54.6875 
z
" id="DejaVuSans-120"/>
      </defs>
      <use xlink:href="#DejaVuSans-83"/>
      <use x="63.476562" xlink:href="#DejaVuSans-105"/>
      <use x="91.259766" xlink:href="#DejaVuSans-109"/>
      <use x="188.671875" xlink:href="#DejaVuSans-112"/>
      <use x="252.148438" xlink:href="#DejaVuSans-108"/>
      <use x="279.931641" xlink:href="#DejaVuSans-101"/>
      <use x="339.705078" xlink:href="#DejaVuSans-120"/>
      <use x="398.884766" xlink:href="#DejaVuSans-48"/>
     </g>
    </g>
    <g id="line2d_42">
     <path d="M 305.546875 62.336563 
L 325.546875 62.336563 
" style="fill:none;stroke:#ff7f0e;stroke-linecap:square;stroke-width:1.5;"/>
    </g>
    <g id="line2d_43"/>
    <g id="text_13">
     <!-- Simplex1 -->
     <g transform="translate(333.546875 65.836563)scale(0.1 -0.1)">
      <use xlink:href="#DejaVuSans-83"/>
      <use x="63.476562" xlink:href="#DejaVuSans-105"/>
      <use x="91.259766" xlink:href="#DejaVuSans-109"/>
      <use x="188.671875" xlink:href="#DejaVuSans-112"/>
      <use x="252.148438" xlink:href="#DejaVuSans-108"/>
      <use x="279.931641" xlink:href="#DejaVuSans-101"/>
      <use x="339.705078" xlink:href="#DejaVuSans-120"/>
      <use x="398.884766" xlink:href="#DejaVuSans-49"/>
     </g>
    </g>
    <g id="line2d_44">
     <path d="M 305.546875 77.014688 
L 325.546875 77.014688 
" style="fill:none;stroke:#2ca02c;stroke-linecap:square;stroke-width:1.5;"/>
    </g>
    <g id="line2d_45"/>
    <g id="text_14">
     <!-- Simplex2 -->
     <g transform="translate(333.546875 80.514688)scale(0.1 -0.1)">
      <use xlink:href="#DejaVuSans-83"/>
      <use x="63.476562" xlink:href="#DejaVuSans-105"/>
      <use x="91.259766" xlink:href="#DejaVuSans-109"/>
      <use x="188.671875" xlink:href="#DejaVuSans-112"/>
      <use x="252.148438" xlink:href="#DejaVuSans-108"/>
      <use x="279.931641" xlink:href="#DejaVuSans-101"/>
      <use x="339.705078" xlink:href="#DejaVuSans-120"/>
      <use x="398.884766" xlink:href="#DejaVuSans-50"/>
     </g>
    </g>
    <g id="line2d_46">
     <path d="M 305.546875 91.692813 
L 325.546875 91.692813 
" style="fill:none;stroke:#d62728;stroke-linecap:square;stroke-width:1.5;"/>
    </g>
    <g id="line2d_47"/>
    <g id="text_15">
     <!-- Simplex3 -->
     <g transform="translate(333.546875 95.192813)scale(0.1 -0.1)">
      <defs>
       <path d="M 40.578125 39.3125 
Q 47.65625 37.796875 51.625 33 
Q 55.609375 28.21875 55.609375 21.1875 
Q 55.609375 10.40625 48.1875 4.484375 
Q 40.765625 -1.421875 27.09375 -1.421875 
Q 22.515625 -1.421875 17.65625 -0.515625 
Q 12.796875 0.390625 7.625 2.203125 
L 7.625 11.71875 
Q 11.71875 9.328125 16.59375 8.109375 
Q 21.484375 6.890625 26.8125 6.890625 
Q 36.078125 6.890625 40.9375 10.546875 
Q 45.796875 14.203125 45.796875 21.1875 
Q 45.796875 27.640625 41.28125 31.265625 
Q 36.765625 34.90625 28.71875 34.90625 
L 20.21875 34.90625 
L 20.21875 43.015625 
L 29.109375 43.015625 
Q 36.375 43.015625 40.234375 45.921875 
Q 44.09375 48.828125 44.09375 54.296875 
Q 44.09375 59.90625 40.109375 62.90625 
Q 36.140625 65.921875 28.71875 65.921875 
Q 24.65625 65.921875 20.015625 65.03125 
Q 15.375 64.15625 9.8125 62.3125 
L 9.8125 71.09375 
Q 15.4375 72.65625 20.34375 73.4375 
Q 25.25 74.21875 29.59375 74.21875 
Q 40.828125 74.21875 47.359375 69.109375 
Q 53.90625 64.015625 53.90625 55.328125 
Q 53.90625 49.265625 50.4375 45.09375 
Q 46.96875 40.921875 40.578125 39.3125 
z
" id="DejaVuSans-51"/>
      </defs>
      <use xlink:href="#DejaVuSans-83"/>
      <use x="63.476562" xlink:href="#DejaVuSans-105"/>
      <use x="91.259766" xlink:href="#DejaVuSans-109"/>
      <use x="188.671875" xlink:href="#DejaVuSans-112"/>
      <use x="252.148438" xlink:href="#DejaVuSans-108"/>
      <use x="279.931641" xlink:href="#DejaVuSans-101"/>
      <use x="339.705078" xlink:href="#DejaVuSans-120"/>
      <use x="398.884766" xlink:href="#DejaVuSans-51"/>
     </g>
    </g>
    <g id="line2d_48">
     <path d="M 305.546875 106.370938 
L 325.546875 106.370938 
" style="fill:none;stroke:#9467bd;stroke-linecap:square;stroke-width:1.5;"/>
    </g>
    <g id="line2d_49"/>
    <g id="text_16">
     <!-- Simplex4 -->
     <g transform="translate(333.546875 109.870938)scale(0.1 -0.1)">
      <use xlink:href="#DejaVuSans-83"/>
      <use x="63.476562" xlink:href="#DejaVuSans-105"/>
      <use x="91.259766" xlink:href="#DejaVuSans-109"/>
      <use x="188.671875" xlink:href="#DejaVuSans-112"/>
      <use x="252.148438" xlink:href="#DejaVuSans-108"/>
      <use x="279.931641" xlink:href="#DejaVuSans-101"/>
      <use x="339.705078" xlink:href="#DejaVuSans-120"/>
      <use x="398.884766" xlink:href="#DejaVuSans-52"/>
     </g>
    </g>
    <g id="line2d_50">
     <path d="M 305.546875 121.049062 
L 325.546875 121.049062 
" style="fill:none;stroke:#8c564b;stroke-linecap:square;stroke-width:1.5;"/>
    </g>
    <g id="line2d_51"/>
    <g id="text_17">
     <!-- Simplex5 -->
     <g transform="translate(333.546875 124.549062)scale(0.1 -0.1)">
      <defs>
       <path d="M 10.796875 72.90625 
L 49.515625 72.90625 
L 49.515625 64.59375 
L 19.828125 64.59375 
L 19.828125 46.734375 
Q 21.96875 47.46875 24.109375 47.828125 
Q 26.265625 48.1875 28.421875 48.1875 
Q 40.625 48.1875 47.75 41.5 
Q 54.890625 34.8125 54.890625 23.390625 
Q 54.890625 11.625 47.5625 5.09375 
Q 40.234375 -1.421875 26.90625 -1.421875 
Q 22.3125 -1.421875 17.546875 -0.640625 
Q 12.796875 0.140625 7.71875 1.703125 
L 7.71875 11.625 
Q 12.109375 9.234375 16.796875 8.0625 
Q 21.484375 6.890625 26.703125 6.890625 
Q 35.15625 6.890625 40.078125 11.328125 
Q 45.015625 15.765625 45.015625 23.390625 
Q 45.015625 31 40.078125 35.4375 
Q 35.15625 39.890625 26.703125 39.890625 
Q 22.75 39.890625 18.8125 39.015625 
Q 14.890625 38.140625 10.796875 36.28125 
z
" id="DejaVuSans-53"/>
      </defs>
      <use xlink:href="#DejaVuSans-83"/>
      <use x="63.476562" xlink:href="#DejaVuSans-105"/>
      <use x="91.259766" xlink:href="#DejaVuSans-109"/>
      <use x="188.671875" xlink:href="#DejaVuSans-112"/>
      <use x="252.148438" xlink:href="#DejaVuSans-108"/>
      <use x="279.931641" xlink:href="#DejaVuSans-101"/>
      <use x="339.705078" xlink:href="#DejaVuSans-120"/>
      <use x="398.884766" xlink:href="#DejaVuSans-53"/>
     </g>
    </g>
    <g id="line2d_52">
     <path d="M 305.546875 135.727188 
L 325.546875 135.727188 
" style="fill:none;stroke:#e377c2;stroke-linecap:square;stroke-width:1.5;"/>
    </g>
    <g id="line2d_53"/>
    <g id="text_18">
     <!-- Simplex6 -->
     <g transform="translate(333.546875 139.227188)scale(0.1 -0.1)">
      <use xlink:href="#DejaVuSans-83"/>
      <use x="63.476562" xlink:href="#DejaVuSans-105"/>
      <use x="91.259766" xlink:href="#DejaVuSans-109"/>
      <use x="188.671875" xlink:href="#DejaVuSans-112"/>
      <use x="252.148438" xlink:href="#DejaVuSans-108"/>
      <use x="279.931641" xlink:href="#DejaVuSans-101"/>
      <use x="339.705078" xlink:href="#DejaVuSans-120"/>
      <use x="398.884766" xlink:href="#DejaVuSans-54"/>
     </g>
    </g>
    <g id="line2d_54">
     <path d="M 305.546875 150.405312 
L 325.546875 150.405312 
" style="fill:none;stroke:#7f7f7f;stroke-linecap:square;stroke-width:1.5;"/>
    </g>
    <g id="line2d_55"/>
    <g id="text_19">
     <!-- Simplex7 -->
     <g transform="translate(333.546875 153.905312)scale(0.1 -0.1)">
      <defs>
       <path d="M 8.203125 72.90625 
L 55.078125 72.90625 
L 55.078125 68.703125 
L 28.609375 0 
L 18.3125 0 
L 43.21875 64.59375 
L 8.203125 64.59375 
z
" id="DejaVuSans-55"/>
      </defs>
      <use xlink:href="#DejaVuSans-83"/>
      <use x="63.476562" xlink:href="#DejaVuSans-105"/>
      <use x="91.259766" xlink:href="#DejaVuSans-109"/>
      <use x="188.671875" xlink:href="#DejaVuSans-112"/>
      <use x="252.148438" xlink:href="#DejaVuSans-108"/>
      <use x="279.931641" xlink:href="#DejaVuSans-101"/>
      <use x="339.705078" xlink:href="#DejaVuSans-120"/>
      <use x="398.884766" xlink:href="#DejaVuSans-55"/>
     </g>
    </g>
    <g id="line2d_56">
     <path d="M 305.546875 165.083438 
L 325.546875 165.083438 
" style="fill:none;stroke:#bcbd22;stroke-linecap:square;stroke-width:1.5;"/>
    </g>
    <g id="line2d_57"/>
    <g id="text_20">
     <!-- Simplex8 -->
     <g transform="translate(333.546875 168.583438)scale(0.1 -0.1)">
      <use xlink:href="#DejaVuSans-83"/>
      <use x="63.476562" xlink:href="#DejaVuSans-105"/>
      <use x="91.259766" xlink:href="#DejaVuSans-109"/>
      <use x="188.671875" xlink:href="#DejaVuSans-112"/>
      <use x="252.148438" xlink:href="#DejaVuSans-108"/>
      <use x="279.931641" xlink:href="#DejaVuSans-101"/>
      <use x="339.705078" xlink:href="#DejaVuSans-120"/>
      <use x="398.884766" xlink:href="#DejaVuSans-56"/>
     </g>
    </g>
    <g id="line2d_58">
     <path d="M 305.546875 179.761562 
L 325.546875 179.761562 
" style="fill:none;stroke:#17becf;stroke-linecap:square;stroke-width:1.5;"/>
    </g>
    <g id="line2d_59"/>
    <g id="text_21">
     <!-- Simplex9 -->
     <g transform="translate(333.546875 183.261562)scale(0.1 -0.1)">
      <defs>
       <path d="M 10.984375 1.515625 
L 10.984375 10.5 
Q 14.703125 8.734375 18.5 7.8125 
Q 22.3125 6.890625 25.984375 6.890625 
Q 35.75 6.890625 40.890625 13.453125 
Q 46.046875 20.015625 46.78125 33.40625 
Q 43.953125 29.203125 39.59375 26.953125 
Q 35.25 24.703125 29.984375 24.703125 
Q 19.046875 24.703125 12.671875 31.3125 
Q 6.296875 37.9375 6.296875 49.421875 
Q 6.296875 60.640625 12.9375 67.421875 
Q 19.578125 74.21875 30.609375 74.21875 
Q 43.265625 74.21875 49.921875 64.515625 
Q 56.59375 54.828125 56.59375 36.375 
Q 56.59375 19.140625 48.40625 8.859375 
Q 40.234375 -1.421875 26.421875 -1.421875 
Q 22.703125 -1.421875 18.890625 -0.6875 
Q 15.09375 0.046875 10.984375 1.515625 
z
M 30.609375 32.421875 
Q 37.25 32.421875 41.125 36.953125 
Q 45.015625 41.5 45.015625 49.421875 
Q 45.015625 57.28125 41.125 61.84375 
Q 37.25 66.40625 30.609375 66.40625 
Q 23.96875 66.40625 20.09375 61.84375 
Q 16.21875 57.28125 16.21875 49.421875 
Q 16.21875 41.5 20.09375 36.953125 
Q 23.96875 32.421875 30.609375 32.421875 
z
" id="DejaVuSans-57"/>
      </defs>
      <use xlink:href="#DejaVuSans-83"/>
      <use x="63.476562" xlink:href="#DejaVuSans-105"/>
      <use x="91.259766" xlink:href="#DejaVuSans-109"/>
      <use x="188.671875" xlink:href="#DejaVuSans-112"/>
      <use x="252.148438" xlink:href="#DejaVuSans-108"/>
      <use x="279.931641" xlink:href="#DejaVuSans-101"/>
      <use x="339.705078" xlink:href="#DejaVuSans-120"/>
      <use x="398.884766" xlink:href="#DejaVuSans-57"/>
     </g>
    </g>
   </g>
  </g>
 </g>
 <defs>
  <clipPath id="p194477c0a3">
   <rect height="217.44" width="334.8" x="54" y="34.56"/>
  </clipPath>
 </defs>
</svg>
