<?xml version="1.0" encoding="utf-8" standalone="no"?>
<!DOCTYPE svg PUBLIC "-//W3C//DTD SVG 1.1//EN"
  "http://www.w3.org/Graphics/SVG/1.1/DTD/svg11.dtd">
<!-- Created with matplotlib (https://matplotlib.org/) -->
<svg height="288pt" version="1.1" viewBox="0 0 432 288" width="432pt" xmlns="http://www.w3.org/2000/svg" xmlns:xlink="http://www.w3.org/1999/xlink">
 <metadata>
  <rdf:RDF xmlns:cc="http://creativecommons.org/ns#" xmlns:dc="http://purl.org/dc/elements/1.1/" xmlns:rdf="http://www.w3.org/1999/02/22-rdf-syntax-ns#">
   <cc:Work>
    <dc:type rdf:resource="http://purl.org/dc/dcmitype/StillImage"/>
    <dc:date>2021-04-02T14:36:27.948219</dc:date>
    <dc:format>image/svg+xml</dc:format>
    <dc:creator>
     <cc:Agent>
      <dc:title>Matplotlib v3.3.4, https://matplotlib.org/</dc:title>
     </cc:Agent>
    </dc:creator>
   </cc:Work>
  </rdf:RDF>
 </metadata>
 <defs>
  <style type="text/css">*{stroke-linecap:butt;stroke-linejoin:round;}</style>
 </defs>
 <g id="figure_1">
  <g id="patch_1">
   <path d="M 0 288 
L 432 288 
L 432 0 
L 0 0 
z
" style="fill:#ffffff;"/>
  </g>
  <g id="axes_1">
   <g id="patch_2">
    <path d="M 54 252 
L 388.8 252 
L 388.8 34.56 
L 54 34.56 
z
" style="fill:#ffffff;"/>
   </g>
   <g id="matplotlib.axis_1">
    <g id="xtick_1">
     <g id="line2d_1">
      <defs>
       <path d="M 0 0 
L 0 3.5 
" id="m8a9e62d4bb" style="stroke:#000000;stroke-width:0.8;"/>
      </defs>
      <g>
       <use style="stroke:#000000;stroke-width:0.8;" x="59.995041" xlink:href="#m8a9e62d4bb" y="252"/>
      </g>
     </g>
     <g id="text_1">
      <!-- 0 -->
      <g transform="translate(56.813791 266.598437)scale(0.1 -0.1)">
       <defs>
        <path d="M 31.78125 66.40625 
Q 24.171875 66.40625 20.328125 58.90625 
Q 16.5 51.421875 16.5 36.375 
Q 16.5 21.390625 20.328125 13.890625 
Q 24.171875 6.390625 31.78125 6.390625 
Q 39.453125 6.390625 43.28125 13.890625 
Q 47.125 21.390625 47.125 36.375 
Q 47.125 51.421875 43.28125 58.90625 
Q 39.453125 66.40625 31.78125 66.40625 
z
M 31.78125 74.21875 
Q 44.046875 74.21875 50.515625 64.515625 
Q 56.984375 54.828125 56.984375 36.375 
Q 56.984375 17.96875 50.515625 8.265625 
Q 44.046875 -1.421875 31.78125 -1.421875 
Q 19.53125 -1.421875 13.0625 8.265625 
Q 6.59375 17.96875 6.59375 36.375 
Q 6.59375 54.828125 13.0625 64.515625 
Q 19.53125 74.21875 31.78125 74.21875 
z
" id="DejaVuSans-48"/>
       </defs>
       <use xlink:href="#DejaVuSans-48"/>
      </g>
     </g>
    </g>
    <g id="xtick_2">
     <g id="line2d_2">
      <g>
       <use style="stroke:#000000;stroke-width:0.8;" x="121.482645" xlink:href="#m8a9e62d4bb" y="252"/>
      </g>
     </g>
     <g id="text_2">
      <!-- 20 -->
      <g transform="translate(115.120145 266.598437)scale(0.1 -0.1)">
       <defs>
        <path d="M 19.1875 8.296875 
L 53.609375 8.296875 
L 53.609375 0 
L 7.328125 0 
L 7.328125 8.296875 
Q 12.9375 14.109375 22.625 23.890625 
Q 32.328125 33.6875 34.8125 36.53125 
Q 39.546875 41.84375 41.421875 45.53125 
Q 43.3125 49.21875 43.3125 52.78125 
Q 43.3125 58.59375 39.234375 62.25 
Q 35.15625 65.921875 28.609375 65.921875 
Q 23.96875 65.921875 18.8125 64.3125 
Q 13.671875 62.703125 7.8125 59.421875 
L 7.8125 69.390625 
Q 13.765625 71.78125 18.9375 73 
Q 24.125 74.21875 28.421875 74.21875 
Q 39.75 74.21875 46.484375 68.546875 
Q 53.21875 62.890625 53.21875 53.421875 
Q 53.21875 48.921875 51.53125 44.890625 
Q 49.859375 40.875 45.40625 35.40625 
Q 44.1875 33.984375 37.640625 27.21875 
Q 31.109375 20.453125 19.1875 8.296875 
z
" id="DejaVuSans-50"/>
       </defs>
       <use xlink:href="#DejaVuSans-50"/>
       <use x="63.623047" xlink:href="#DejaVuSans-48"/>
      </g>
     </g>
    </g>
    <g id="xtick_3">
     <g id="line2d_3">
      <g>
       <use style="stroke:#000000;stroke-width:0.8;" x="182.970248" xlink:href="#m8a9e62d4bb" y="252"/>
      </g>
     </g>
     <g id="text_3">
      <!-- 40 -->
      <g transform="translate(176.607748 266.598437)scale(0.1 -0.1)">
       <defs>
        <path d="M 37.796875 64.3125 
L 12.890625 25.390625 
L 37.796875 25.390625 
z
M 35.203125 72.90625 
L 47.609375 72.90625 
L 47.609375 25.390625 
L 58.015625 25.390625 
L 58.015625 17.1875 
L 47.609375 17.1875 
L 47.609375 0 
L 37.796875 0 
L 37.796875 17.1875 
L 4.890625 17.1875 
L 4.890625 26.703125 
z
" id="DejaVuSans-52"/>
       </defs>
       <use xlink:href="#DejaVuSans-52"/>
       <use x="63.623047" xlink:href="#DejaVuSans-48"/>
      </g>
     </g>
    </g>
    <g id="xtick_4">
     <g id="line2d_4">
      <g>
       <use style="stroke:#000000;stroke-width:0.8;" x="244.457851" xlink:href="#m8a9e62d4bb" y="252"/>
      </g>
     </g>
     <g id="text_4">
      <!-- 60 -->
      <g transform="translate(238.095351 266.598437)scale(0.1 -0.1)">
       <defs>
        <path d="M 33.015625 40.375 
Q 26.375 40.375 22.484375 35.828125 
Q 18.609375 31.296875 18.609375 23.390625 
Q 18.609375 15.53125 22.484375 10.953125 
Q 26.375 6.390625 33.015625 6.390625 
Q 39.65625 6.390625 43.53125 10.953125 
Q 47.40625 15.53125 47.40625 23.390625 
Q 47.40625 31.296875 43.53125 35.828125 
Q 39.65625 40.375 33.015625 40.375 
z
M 52.59375 71.296875 
L 52.59375 62.3125 
Q 48.875 64.0625 45.09375 64.984375 
Q 41.3125 65.921875 37.59375 65.921875 
Q 27.828125 65.921875 22.671875 59.328125 
Q 17.53125 52.734375 16.796875 39.40625 
Q 19.671875 43.65625 24.015625 45.921875 
Q 28.375 48.1875 33.59375 48.1875 
Q 44.578125 48.1875 50.953125 41.515625 
Q 57.328125 34.859375 57.328125 23.390625 
Q 57.328125 12.15625 50.6875 5.359375 
Q 44.046875 -1.421875 33.015625 -1.421875 
Q 20.359375 -1.421875 13.671875 8.265625 
Q 6.984375 17.96875 6.984375 36.375 
Q 6.984375 53.65625 15.1875 63.9375 
Q 23.390625 74.21875 37.203125 74.21875 
Q 40.921875 74.21875 44.703125 73.484375 
Q 48.484375 72.75 52.59375 71.296875 
z
" id="DejaVuSans-54"/>
       </defs>
       <use xlink:href="#DejaVuSans-54"/>
       <use x="63.623047" xlink:href="#DejaVuSans-48"/>
      </g>
     </g>
    </g>
    <g id="xtick_5">
     <g id="line2d_5">
      <g>
       <use style="stroke:#000000;stroke-width:0.8;" x="305.945455" xlink:href="#m8a9e62d4bb" y="252"/>
      </g>
     </g>
     <g id="text_5">
      <!-- 80 -->
      <g transform="translate(299.582955 266.598437)scale(0.1 -0.1)">
       <defs>
        <path d="M 31.78125 34.625 
Q 24.75 34.625 20.71875 30.859375 
Q 16.703125 27.09375 16.703125 20.515625 
Q 16.703125 13.921875 20.71875 10.15625 
Q 24.75 6.390625 31.78125 6.390625 
Q 38.8125 6.390625 42.859375 10.171875 
Q 46.921875 13.96875 46.921875 20.515625 
Q 46.921875 27.09375 42.890625 30.859375 
Q 38.875 34.625 31.78125 34.625 
z
M 21.921875 38.8125 
Q 15.578125 40.375 12.03125 44.71875 
Q 8.5 49.078125 8.5 55.328125 
Q 8.5 64.0625 14.71875 69.140625 
Q 20.953125 74.21875 31.78125 74.21875 
Q 42.671875 74.21875 48.875 69.140625 
Q 55.078125 64.0625 55.078125 55.328125 
Q 55.078125 49.078125 51.53125 44.71875 
Q 48 40.375 41.703125 38.8125 
Q 48.828125 37.15625 52.796875 32.3125 
Q 56.78125 27.484375 56.78125 20.515625 
Q 56.78125 9.90625 50.3125 4.234375 
Q 43.84375 -1.421875 31.78125 -1.421875 
Q 19.734375 -1.421875 13.25 4.234375 
Q 6.78125 9.90625 6.78125 20.515625 
Q 6.78125 27.484375 10.78125 32.3125 
Q 14.796875 37.15625 21.921875 38.8125 
z
M 18.3125 54.390625 
Q 18.3125 48.734375 21.84375 45.5625 
Q 25.390625 42.390625 31.78125 42.390625 
Q 38.140625 42.390625 41.71875 45.5625 
Q 45.3125 48.734375 45.3125 54.390625 
Q 45.3125 60.0625 41.71875 63.234375 
Q 38.140625 66.40625 31.78125 66.40625 
Q 25.390625 66.40625 21.84375 63.234375 
Q 18.3125 60.0625 18.3125 54.390625 
z
" id="DejaVuSans-56"/>
       </defs>
       <use xlink:href="#DejaVuSans-56"/>
       <use x="63.623047" xlink:href="#DejaVuSans-48"/>
      </g>
     </g>
    </g>
    <g id="xtick_6">
     <g id="line2d_6">
      <g>
       <use style="stroke:#000000;stroke-width:0.8;" x="367.433058" xlink:href="#m8a9e62d4bb" y="252"/>
      </g>
     </g>
     <g id="text_6">
      <!-- 100 -->
      <g transform="translate(357.889308 266.598437)scale(0.1 -0.1)">
       <defs>
        <path d="M 12.40625 8.296875 
L 28.515625 8.296875 
L 28.515625 63.921875 
L 10.984375 60.40625 
L 10.984375 69.390625 
L 28.421875 72.90625 
L 38.28125 72.90625 
L 38.28125 8.296875 
L 54.390625 8.296875 
L 54.390625 0 
L 12.40625 0 
z
" id="DejaVuSans-49"/>
       </defs>
       <use xlink:href="#DejaVuSans-49"/>
       <use x="63.623047" xlink:href="#DejaVuSans-48"/>
       <use x="127.246094" xlink:href="#DejaVuSans-48"/>
      </g>
     </g>
    </g>
    <g id="text_7">
     <!-- Nbr. of function evaluations -->
     <g transform="translate(152.382031 280.276563)scale(0.1 -0.1)">
      <defs>
       <path d="M 9.8125 72.90625 
L 23.09375 72.90625 
L 55.421875 11.921875 
L 55.421875 72.90625 
L 64.984375 72.90625 
L 64.984375 0 
L 51.703125 0 
L 19.390625 60.984375 
L 19.390625 0 
L 9.8125 0 
z
" id="DejaVuSans-78"/>
       <path d="M 48.6875 27.296875 
Q 48.6875 37.203125 44.609375 42.84375 
Q 40.53125 48.484375 33.40625 48.484375 
Q 26.265625 48.484375 22.1875 42.84375 
Q 18.109375 37.203125 18.109375 27.296875 
Q 18.109375 17.390625 22.1875 11.75 
Q 26.265625 6.109375 33.40625 6.109375 
Q 40.53125 6.109375 44.609375 11.75 
Q 48.6875 17.390625 48.6875 27.296875 
z
M 18.109375 46.390625 
Q 20.953125 51.265625 25.265625 53.625 
Q 29.59375 56 35.59375 56 
Q 45.5625 56 51.78125 48.09375 
Q 58.015625 40.1875 58.015625 27.296875 
Q 58.015625 14.40625 51.78125 6.484375 
Q 45.5625 -1.421875 35.59375 -1.421875 
Q 29.59375 -1.421875 25.265625 0.953125 
Q 20.953125 3.328125 18.109375 8.203125 
L 18.109375 0 
L 9.078125 0 
L 9.078125 75.984375 
L 18.109375 75.984375 
z
" id="DejaVuSans-98"/>
       <path d="M 41.109375 46.296875 
Q 39.59375 47.171875 37.8125 47.578125 
Q 36.03125 48 33.890625 48 
Q 26.265625 48 22.1875 43.046875 
Q 18.109375 38.09375 18.109375 28.8125 
L 18.109375 0 
L 9.078125 0 
L 9.078125 54.6875 
L 18.109375 54.6875 
L 18.109375 46.1875 
Q 20.953125 51.171875 25.484375 53.578125 
Q 30.03125 56 36.53125 56 
Q 37.453125 56 38.578125 55.875 
Q 39.703125 55.765625 41.0625 55.515625 
z
" id="DejaVuSans-114"/>
       <path d="M 10.6875 12.40625 
L 21 12.40625 
L 21 0 
L 10.6875 0 
z
" id="DejaVuSans-46"/>
       <path id="DejaVuSans-32"/>
       <path d="M 30.609375 48.390625 
Q 23.390625 48.390625 19.1875 42.75 
Q 14.984375 37.109375 14.984375 27.296875 
Q 14.984375 17.484375 19.15625 11.84375 
Q 23.34375 6.203125 30.609375 6.203125 
Q 37.796875 6.203125 41.984375 11.859375 
Q 46.1875 17.53125 46.1875 27.296875 
Q 46.1875 37.015625 41.984375 42.703125 
Q 37.796875 48.390625 30.609375 48.390625 
z
M 30.609375 56 
Q 42.328125 56 49.015625 48.375 
Q 55.71875 40.765625 55.71875 27.296875 
Q 55.71875 13.875 49.015625 6.21875 
Q 42.328125 -1.421875 30.609375 -1.421875 
Q 18.84375 -1.421875 12.171875 6.21875 
Q 5.515625 13.875 5.515625 27.296875 
Q 5.515625 40.765625 12.171875 48.375 
Q 18.84375 56 30.609375 56 
z
" id="DejaVuSans-111"/>
       <path d="M 37.109375 75.984375 
L 37.109375 68.5 
L 28.515625 68.5 
Q 23.6875 68.5 21.796875 66.546875 
Q 19.921875 64.59375 19.921875 59.515625 
L 19.921875 54.6875 
L 34.71875 54.6875 
L 34.71875 47.703125 
L 19.921875 47.703125 
L 19.921875 0 
L 10.890625 0 
L 10.890625 47.703125 
L 2.296875 47.703125 
L 2.296875 54.6875 
L 10.890625 54.6875 
L 10.890625 58.5 
Q 10.890625 67.625 15.140625 71.796875 
Q 19.390625 75.984375 28.609375 75.984375 
z
" id="DejaVuSans-102"/>
       <path d="M 8.5 21.578125 
L 8.5 54.6875 
L 17.484375 54.6875 
L 17.484375 21.921875 
Q 17.484375 14.15625 20.5 10.265625 
Q 23.53125 6.390625 29.59375 6.390625 
Q 36.859375 6.390625 41.078125 11.03125 
Q 45.3125 15.671875 45.3125 23.6875 
L 45.3125 54.6875 
L 54.296875 54.6875 
L 54.296875 0 
L 45.3125 0 
L 45.3125 8.40625 
Q 42.046875 3.421875 37.71875 1 
Q 33.40625 -1.421875 27.6875 -1.421875 
Q 18.265625 -1.421875 13.375 4.4375 
Q 8.5 10.296875 8.5 21.578125 
z
M 31.109375 56 
z
" id="DejaVuSans-117"/>
       <path d="M 54.890625 33.015625 
L 54.890625 0 
L 45.90625 0 
L 45.90625 32.71875 
Q 45.90625 40.484375 42.875 44.328125 
Q 39.84375 48.1875 33.796875 48.1875 
Q 26.515625 48.1875 22.3125 43.546875 
Q 18.109375 38.921875 18.109375 30.90625 
L 18.109375 0 
L 9.078125 0 
L 9.078125 54.6875 
L 18.109375 54.6875 
L 18.109375 46.1875 
Q 21.34375 51.125 25.703125 53.5625 
Q 30.078125 56 35.796875 56 
Q 45.21875 56 50.046875 50.171875 
Q 54.890625 44.34375 54.890625 33.015625 
z
" id="DejaVuSans-110"/>
       <path d="M 48.78125 52.59375 
L 48.78125 44.1875 
Q 44.96875 46.296875 41.140625 47.34375 
Q 37.3125 48.390625 33.40625 48.390625 
Q 24.65625 48.390625 19.8125 42.84375 
Q 14.984375 37.3125 14.984375 27.296875 
Q 14.984375 17.28125 19.8125 11.734375 
Q 24.65625 6.203125 33.40625 6.203125 
Q 37.3125 6.203125 41.140625 7.25 
Q 44.96875 8.296875 48.78125 10.40625 
L 48.78125 2.09375 
Q 45.015625 0.34375 40.984375 -0.53125 
Q 36.96875 -1.421875 32.421875 -1.421875 
Q 20.0625 -1.421875 12.78125 6.34375 
Q 5.515625 14.109375 5.515625 27.296875 
Q 5.515625 40.671875 12.859375 48.328125 
Q 20.21875 56 33.015625 56 
Q 37.15625 56 41.109375 55.140625 
Q 45.0625 54.296875 48.78125 52.59375 
z
" id="DejaVuSans-99"/>
       <path d="M 18.3125 70.21875 
L 18.3125 54.6875 
L 36.8125 54.6875 
L 36.8125 47.703125 
L 18.3125 47.703125 
L 18.3125 18.015625 
Q 18.3125 11.328125 20.140625 9.421875 
Q 21.96875 7.515625 27.59375 7.515625 
L 36.8125 7.515625 
L 36.8125 0 
L 27.59375 0 
Q 17.1875 0 13.234375 3.875 
Q 9.28125 7.765625 9.28125 18.015625 
L 9.28125 47.703125 
L 2.6875 47.703125 
L 2.6875 54.6875 
L 9.28125 54.6875 
L 9.28125 70.21875 
z
" id="DejaVuSans-116"/>
       <path d="M 9.421875 54.6875 
L 18.40625 54.6875 
L 18.40625 0 
L 9.421875 0 
z
M 9.421875 75.984375 
L 18.40625 75.984375 
L 18.40625 64.59375 
L 9.421875 64.59375 
z
" id="DejaVuSans-105"/>
       <path d="M 56.203125 29.59375 
L 56.203125 25.203125 
L 14.890625 25.203125 
Q 15.484375 15.921875 20.484375 11.0625 
Q 25.484375 6.203125 34.421875 6.203125 
Q 39.59375 6.203125 44.453125 7.46875 
Q 49.3125 8.734375 54.109375 11.28125 
L 54.109375 2.78125 
Q 49.265625 0.734375 44.1875 -0.34375 
Q 39.109375 -1.421875 33.890625 -1.421875 
Q 20.796875 -1.421875 13.15625 6.1875 
Q 5.515625 13.8125 5.515625 26.8125 
Q 5.515625 40.234375 12.765625 48.109375 
Q 20.015625 56 32.328125 56 
Q 43.359375 56 49.78125 48.890625 
Q 56.203125 41.796875 56.203125 29.59375 
z
M 47.21875 32.234375 
Q 47.125 39.59375 43.09375 43.984375 
Q 39.0625 48.390625 32.421875 48.390625 
Q 24.90625 48.390625 20.390625 44.140625 
Q 15.875 39.890625 15.1875 32.171875 
z
" id="DejaVuSans-101"/>
       <path d="M 2.984375 54.6875 
L 12.5 54.6875 
L 29.59375 8.796875 
L 46.6875 54.6875 
L 56.203125 54.6875 
L 35.6875 0 
L 23.484375 0 
z
" id="DejaVuSans-118"/>
       <path d="M 34.28125 27.484375 
Q 23.390625 27.484375 19.1875 25 
Q 14.984375 22.515625 14.984375 16.5 
Q 14.984375 11.71875 18.140625 8.90625 
Q 21.296875 6.109375 26.703125 6.109375 
Q 34.1875 6.109375 38.703125 11.40625 
Q 43.21875 16.703125 43.21875 25.484375 
L 43.21875 27.484375 
z
M 52.203125 31.203125 
L 52.203125 0 
L 43.21875 0 
L 43.21875 8.296875 
Q 40.140625 3.328125 35.546875 0.953125 
Q 30.953125 -1.421875 24.3125 -1.421875 
Q 15.921875 -1.421875 10.953125 3.296875 
Q 6 8.015625 6 15.921875 
Q 6 25.140625 12.171875 29.828125 
Q 18.359375 34.515625 30.609375 34.515625 
L 43.21875 34.515625 
L 43.21875 35.40625 
Q 43.21875 41.609375 39.140625 45 
Q 35.0625 48.390625 27.6875 48.390625 
Q 23 48.390625 18.546875 47.265625 
Q 14.109375 46.140625 10.015625 43.890625 
L 10.015625 52.203125 
Q 14.9375 54.109375 19.578125 55.046875 
Q 24.21875 56 28.609375 56 
Q 40.484375 56 46.34375 49.84375 
Q 52.203125 43.703125 52.203125 31.203125 
z
" id="DejaVuSans-97"/>
       <path d="M 9.421875 75.984375 
L 18.40625 75.984375 
L 18.40625 0 
L 9.421875 0 
z
" id="DejaVuSans-108"/>
       <path d="M 44.28125 53.078125 
L 44.28125 44.578125 
Q 40.484375 46.53125 36.375 47.5 
Q 32.28125 48.484375 27.875 48.484375 
Q 21.1875 48.484375 17.84375 46.4375 
Q 14.5 44.390625 14.5 40.28125 
Q 14.5 37.15625 16.890625 35.375 
Q 19.28125 33.59375 26.515625 31.984375 
L 29.59375 31.296875 
Q 39.15625 29.25 43.1875 25.515625 
Q 47.21875 21.78125 47.21875 15.09375 
Q 47.21875 7.46875 41.1875 3.015625 
Q 35.15625 -1.421875 24.609375 -1.421875 
Q 20.21875 -1.421875 15.453125 -0.5625 
Q 10.6875 0.296875 5.421875 2 
L 5.421875 11.28125 
Q 10.40625 8.6875 15.234375 7.390625 
Q 20.0625 6.109375 24.8125 6.109375 
Q 31.15625 6.109375 34.5625 8.28125 
Q 37.984375 10.453125 37.984375 14.40625 
Q 37.984375 18.0625 35.515625 20.015625 
Q 33.0625 21.96875 24.703125 23.78125 
L 21.578125 24.515625 
Q 13.234375 26.265625 9.515625 29.90625 
Q 5.8125 33.546875 5.8125 39.890625 
Q 5.8125 47.609375 11.28125 51.796875 
Q 16.75 56 26.8125 56 
Q 31.78125 56 36.171875 55.265625 
Q 40.578125 54.546875 44.28125 53.078125 
z
" id="DejaVuSans-115"/>
      </defs>
      <use xlink:href="#DejaVuSans-78"/>
      <use x="74.804688" xlink:href="#DejaVuSans-98"/>
      <use x="138.28125" xlink:href="#DejaVuSans-114"/>
      <use x="170.269531" xlink:href="#DejaVuSans-46"/>
      <use x="202.056641" xlink:href="#DejaVuSans-32"/>
      <use x="233.84375" xlink:href="#DejaVuSans-111"/>
      <use x="295.025391" xlink:href="#DejaVuSans-102"/>
      <use x="330.230469" xlink:href="#DejaVuSans-32"/>
      <use x="362.017578" xlink:href="#DejaVuSans-102"/>
      <use x="397.222656" xlink:href="#DejaVuSans-117"/>
      <use x="460.601562" xlink:href="#DejaVuSans-110"/>
      <use x="523.980469" xlink:href="#DejaVuSans-99"/>
      <use x="578.960938" xlink:href="#DejaVuSans-116"/>
      <use x="618.169922" xlink:href="#DejaVuSans-105"/>
      <use x="645.953125" xlink:href="#DejaVuSans-111"/>
      <use x="707.134766" xlink:href="#DejaVuSans-110"/>
      <use x="770.513672" xlink:href="#DejaVuSans-32"/>
      <use x="802.300781" xlink:href="#DejaVuSans-101"/>
      <use x="863.824219" xlink:href="#DejaVuSans-118"/>
      <use x="923.003906" xlink:href="#DejaVuSans-97"/>
      <use x="984.283203" xlink:href="#DejaVuSans-108"/>
      <use x="1012.066406" xlink:href="#DejaVuSans-117"/>
      <use x="1075.445312" xlink:href="#DejaVuSans-97"/>
      <use x="1136.724609" xlink:href="#DejaVuSans-116"/>
      <use x="1175.933594" xlink:href="#DejaVuSans-105"/>
      <use x="1203.716797" xlink:href="#DejaVuSans-111"/>
      <use x="1264.898438" xlink:href="#DejaVuSans-110"/>
      <use x="1328.277344" xlink:href="#DejaVuSans-115"/>
     </g>
    </g>
   </g>
   <g id="matplotlib.axis_2">
    <g id="ytick_1">
     <g id="line2d_7">
      <defs>
       <path d="M 0 0 
L -3.5 0 
" id="md3e271246a" style="stroke:#000000;stroke-width:0.8;"/>
      </defs>
      <g>
       <use style="stroke:#000000;stroke-width:0.8;" x="54" xlink:href="#md3e271246a" y="121.61389"/>
      </g>
     </g>
     <g id="text_8">
      <!-- $\mathdefault{10^{4}}$ -->
      <g transform="translate(29.4 125.413108)scale(0.1 -0.1)">
       <use transform="translate(0 0.684375)" xlink:href="#DejaVuSans-49"/>
       <use transform="translate(63.623047 0.684375)" xlink:href="#DejaVuSans-48"/>
       <use transform="translate(128.203125 38.965625)scale(0.7)" xlink:href="#DejaVuSans-52"/>
      </g>
     </g>
    </g>
    <g id="ytick_2">
     <g id="line2d_8">
      <defs>
       <path d="M 0 0 
L -2 0 
" id="m93a062a8e8" style="stroke:#000000;stroke-width:0.6;"/>
      </defs>
      <g>
       <use style="stroke:#000000;stroke-width:0.6;" x="54" xlink:href="#m93a062a8e8" y="228.114313"/>
      </g>
     </g>
    </g>
    <g id="ytick_3">
     <g id="line2d_9">
      <g>
       <use style="stroke:#000000;stroke-width:0.6;" x="54" xlink:href="#m93a062a8e8" y="202.666677"/>
      </g>
     </g>
    </g>
    <g id="ytick_4">
     <g id="line2d_10">
      <g>
       <use style="stroke:#000000;stroke-width:0.6;" x="54" xlink:href="#m93a062a8e8" y="182.927956"/>
      </g>
     </g>
    </g>
    <g id="ytick_5">
     <g id="line2d_11">
      <g>
       <use style="stroke:#000000;stroke-width:0.6;" x="54" xlink:href="#m93a062a8e8" y="166.800247"/>
      </g>
     </g>
    </g>
    <g id="ytick_6">
     <g id="line2d_12">
      <g>
       <use style="stroke:#000000;stroke-width:0.6;" x="54" xlink:href="#m93a062a8e8" y="153.164463"/>
      </g>
     </g>
    </g>
    <g id="ytick_7">
     <g id="line2d_13">
      <g>
       <use style="stroke:#000000;stroke-width:0.6;" x="54" xlink:href="#m93a062a8e8" y="141.35261"/>
      </g>
     </g>
    </g>
    <g id="ytick_8">
     <g id="line2d_14">
      <g>
       <use style="stroke:#000000;stroke-width:0.6;" x="54" xlink:href="#m93a062a8e8" y="130.933817"/>
      </g>
     </g>
    </g>
    <g id="ytick_9">
     <g id="line2d_15">
      <g>
       <use style="stroke:#000000;stroke-width:0.6;" x="54" xlink:href="#m93a062a8e8" y="60.299823"/>
      </g>
     </g>
    </g>
    <g id="text_9">
     <!-- Best function evaluation -->
     <g transform="translate(23.320312 204.253438)rotate(-90)scale(0.1 -0.1)">
      <defs>
       <path d="M 19.671875 34.8125 
L 19.671875 8.109375 
L 35.5 8.109375 
Q 43.453125 8.109375 47.28125 11.40625 
Q 51.125 14.703125 51.125 21.484375 
Q 51.125 28.328125 47.28125 31.5625 
Q 43.453125 34.8125 35.5 34.8125 
z
M 19.671875 64.796875 
L 19.671875 42.828125 
L 34.28125 42.828125 
Q 41.5 42.828125 45.03125 45.53125 
Q 48.578125 48.25 48.578125 53.8125 
Q 48.578125 59.328125 45.03125 62.0625 
Q 41.5 64.796875 34.28125 64.796875 
z
M 9.8125 72.90625 
L 35.015625 72.90625 
Q 46.296875 72.90625 52.390625 68.21875 
Q 58.5 63.53125 58.5 54.890625 
Q 58.5 48.1875 55.375 44.234375 
Q 52.25 40.28125 46.1875 39.3125 
Q 53.46875 37.75 57.5 32.78125 
Q 61.53125 27.828125 61.53125 20.40625 
Q 61.53125 10.640625 54.890625 5.3125 
Q 48.25 0 35.984375 0 
L 9.8125 0 
z
" id="DejaVuSans-66"/>
      </defs>
      <use xlink:href="#DejaVuSans-66"/>
      <use x="68.603516" xlink:href="#DejaVuSans-101"/>
      <use x="130.126953" xlink:href="#DejaVuSans-115"/>
      <use x="182.226562" xlink:href="#DejaVuSans-116"/>
      <use x="221.435547" xlink:href="#DejaVuSans-32"/>
      <use x="253.222656" xlink:href="#DejaVuSans-102"/>
      <use x="288.427734" xlink:href="#DejaVuSans-117"/>
      <use x="351.806641" xlink:href="#DejaVuSans-110"/>
      <use x="415.185547" xlink:href="#DejaVuSans-99"/>
      <use x="470.166016" xlink:href="#DejaVuSans-116"/>
      <use x="509.375" xlink:href="#DejaVuSans-105"/>
      <use x="537.158203" xlink:href="#DejaVuSans-111"/>
      <use x="598.339844" xlink:href="#DejaVuSans-110"/>
      <use x="661.71875" xlink:href="#DejaVuSans-32"/>
      <use x="693.505859" xlink:href="#DejaVuSans-101"/>
      <use x="755.029297" xlink:href="#DejaVuSans-118"/>
      <use x="814.208984" xlink:href="#DejaVuSans-97"/>
      <use x="875.488281" xlink:href="#DejaVuSans-108"/>
      <use x="903.271484" xlink:href="#DejaVuSans-117"/>
      <use x="966.650391" xlink:href="#DejaVuSans-97"/>
      <use x="1027.929688" xlink:href="#DejaVuSans-116"/>
      <use x="1067.138672" xlink:href="#DejaVuSans-105"/>
      <use x="1094.921875" xlink:href="#DejaVuSans-111"/>
      <use x="1156.103516" xlink:href="#DejaVuSans-110"/>
     </g>
    </g>
   </g>
   <g id="line2d_16">
    <path clip-path="url(#pfa2c9f4f2f)" d="M 69.218182 59.621927 
L 78.441322 59.621927 
L 78.441322 59.621927 
L 87.664463 59.621927 
L 87.664463 97.600796 
L 96.887603 97.600796 
L 96.887603 124.331272 
L 106.110744 124.331272 
L 106.110744 124.44955 
L 115.333884 124.44955 
L 115.333884 124.44955 
L 124.557025 124.44955 
L 124.557025 124.44955 
L 133.780165 124.44955 
L 133.780165 128.354738 
L 143.003306 128.354738 
L 143.003306 132.197009 
L 152.226446 132.197009 
L 152.226446 132.197009 
L 161.449587 132.197009 
L 161.449587 133.037736 
L 170.672727 133.037736 
L 170.672727 133.037736 
L 179.895868 133.037736 
L 179.895868 133.037736 
L 189.119008 133.037736 
L 189.119008 133.151158 
L 198.342149 133.151158 
L 198.342149 145.529021 
L 207.565289 145.529021 
L 207.565289 152.846912 
L 216.78843 152.846912 
L 216.78843 153.069673 
L 226.01157 153.069673 
L 226.01157 157.966672 
L 235.234711 157.966672 
L 235.234711 160.688435 
L 244.457851 160.688435 
L 244.457851 160.748566 
L 253.680992 160.748566 
L 253.680992 160.748566 
L 262.904132 160.748566 
L 262.904132 162.638033 
L 272.127273 162.638033 
L 272.127273 162.638033 
L 281.350413 162.638033 
L 281.350413 169.770806 
L 290.573554 169.770806 
L 290.573554 169.770806 
L 299.796694 169.770806 
L 299.796694 169.770806 
L 309.019835 169.770806 
L 309.019835 169.770806 
L 318.242975 169.770806 
L 318.242975 169.770806 
L 327.466116 169.770806 
L 327.466116 170.104086 
L 336.689256 170.104086 
L 336.689256 178.442108 
L 345.912397 178.442108 
L 345.912397 178.442108 
L 355.135537 178.442108 
L 355.135537 178.442108 
L 364.358678 178.442108 
L 364.358678 178.442108 
L 373.581818 178.442108 
L 373.581818 182.365459 
" style="fill:none;stroke:#1f77b4;stroke-linecap:square;stroke-width:1.5;"/>
   </g>
   <g id="line2d_17">
    <path clip-path="url(#pfa2c9f4f2f)" d="M 69.218182 44.443636 
L 78.441322 44.443636 
L 78.441322 59.358266 
L 87.664463 59.358266 
L 87.664463 108.534633 
L 96.887603 108.534633 
L 96.887603 118.544407 
L 106.110744 118.544407 
L 106.110744 118.544407 
L 115.333884 118.544407 
L 115.333884 118.544407 
L 124.557025 118.544407 
L 124.557025 123.170212 
L 133.780165 123.170212 
L 133.780165 125.656085 
L 143.003306 125.656085 
L 143.003306 139.081617 
L 152.226446 139.081617 
L 152.226446 152.004565 
L 161.449587 152.004565 
L 161.449587 158.045412 
L 170.672727 158.045412 
L 170.672727 158.045412 
L 179.895868 158.045412 
L 179.895868 162.848127 
L 189.119008 162.848127 
L 189.119008 169.964739 
L 198.342149 169.964739 
L 198.342149 179.227887 
L 207.565289 179.227887 
L 207.565289 179.227887 
L 216.78843 179.227887 
L 216.78843 179.227887 
L 226.01157 179.227887 
L 226.01157 179.227887 
L 235.234711 179.227887 
L 235.234711 179.227887 
L 244.457851 179.227887 
L 244.457851 179.227887 
L 253.680992 179.227887 
L 253.680992 179.227887 
L 262.904132 179.227887 
L 262.904132 179.447814 
L 272.127273 179.447814 
L 272.127273 184.792124 
L 281.350413 184.792124 
L 281.350413 188.777266 
L 290.573554 188.777266 
L 290.573554 201.031421 
L 299.796694 201.031421 
L 299.796694 214.410692 
L 309.019835 214.410692 
L 309.019835 214.410692 
L 318.242975 214.410692 
L 318.242975 214.410692 
L 327.466116 214.410692 
L 327.466116 227.352597 
L 336.689256 227.352597 
L 336.689256 227.352597 
L 345.912397 227.352597 
L 345.912397 227.352597 
L 355.135537 227.352597 
L 355.135537 227.352597 
L 364.358678 227.352597 
L 364.358678 227.352597 
L 373.581818 227.352597 
L 373.581818 227.352597 
" style="fill:none;stroke:#ff7f0e;stroke-linecap:square;stroke-width:1.5;"/>
   </g>
   <g id="line2d_18">
    <path clip-path="url(#pfa2c9f4f2f)" d="M 69.218182 58.099942 
L 78.441322 58.099942 
L 78.441322 60.412211 
L 87.664463 60.412211 
L 87.664463 96.31597 
L 96.887603 96.31597 
L 96.887603 102.434838 
L 106.110744 102.434838 
L 106.110744 102.434838 
L 115.333884 102.434838 
L 115.333884 102.434838 
L 124.557025 102.434838 
L 124.557025 110.455074 
L 133.780165 110.455074 
L 133.780165 124.130234 
L 143.003306 124.130234 
L 143.003306 144.350381 
L 152.226446 144.350381 
L 152.226446 153.882024 
L 161.449587 153.882024 
L 161.449587 153.882024 
L 170.672727 153.882024 
L 170.672727 158.962268 
L 179.895868 158.962268 
L 179.895868 159.594687 
L 189.119008 159.594687 
L 189.119008 167.353372 
L 198.342149 167.353372 
L 198.342149 167.353372 
L 207.565289 167.353372 
L 207.565289 167.353372 
L 216.78843 167.353372 
L 216.78843 172.131166 
L 226.01157 172.131166 
L 226.01157 187.39468 
L 235.234711 187.39468 
L 235.234711 187.39468 
L 244.457851 187.39468 
L 244.457851 193.294717 
L 253.680992 193.294717 
L 253.680992 200.619019 
L 262.904132 200.619019 
L 262.904132 200.619019 
L 272.127273 200.619019 
L 272.127273 200.619019 
L 281.350413 200.619019 
L 281.350413 208.782224 
L 290.573554 208.782224 
L 290.573554 208.782224 
L 299.796694 208.782224 
L 299.796694 218.295495 
L 309.019835 218.295495 
L 309.019835 218.295495 
L 318.242975 218.295495 
L 318.242975 218.295495 
L 327.466116 218.295495 
L 327.466116 219.581422 
L 336.689256 219.581422 
L 336.689256 219.581422 
L 345.912397 219.581422 
L 345.912397 219.581422 
L 355.135537 219.581422 
L 355.135537 227.498012 
L 364.358678 227.498012 
L 364.358678 227.498012 
L 373.581818 227.498012 
L 373.581818 227.498012 
" style="fill:none;stroke:#2ca02c;stroke-linecap:square;stroke-width:1.5;"/>
   </g>
   <g id="line2d_19">
    <path clip-path="url(#pfa2c9f4f2f)" d="M 69.218182 54.995182 
L 78.441322 54.995182 
L 78.441322 55.01664 
L 87.664463 55.01664 
L 87.664463 66.015134 
L 96.887603 66.015134 
L 96.887603 77.195158 
L 106.110744 77.195158 
L 106.110744 126.550429 
L 115.333884 126.550429 
L 115.333884 134.736317 
L 124.557025 134.736317 
L 124.557025 134.736317 
L 133.780165 134.736317 
L 133.780165 139.305861 
L 143.003306 139.305861 
L 143.003306 139.305861 
L 152.226446 139.305861 
L 152.226446 149.525266 
L 161.449587 149.525266 
L 161.449587 149.525266 
L 170.672727 149.525266 
L 170.672727 149.525266 
L 179.895868 149.525266 
L 179.895868 149.525266 
L 189.119008 149.525266 
L 189.119008 150.056756 
L 198.342149 150.056756 
L 198.342149 150.056756 
L 207.565289 150.056756 
L 207.565289 150.056756 
L 216.78843 150.056756 
L 216.78843 150.056756 
L 226.01157 150.056756 
L 226.01157 164.261523 
L 235.234711 164.261523 
L 235.234711 164.261523 
L 244.457851 164.261523 
L 244.457851 165.248343 
L 253.680992 165.248343 
L 253.680992 165.248343 
L 262.904132 165.248343 
L 262.904132 173.185535 
L 272.127273 173.185535 
L 272.127273 173.185535 
L 281.350413 173.185535 
L 281.350413 173.185535 
L 290.573554 173.185535 
L 290.573554 173.185535 
L 299.796694 173.185535 
L 299.796694 173.185535 
L 309.019835 173.185535 
L 309.019835 176.817909 
L 318.242975 176.817909 
L 318.242975 176.817909 
L 327.466116 176.817909 
L 327.466116 177.381383 
L 336.689256 177.381383 
L 336.689256 180.341099 
L 345.912397 180.341099 
L 345.912397 180.341099 
L 355.135537 180.341099 
L 355.135537 180.341099 
L 364.358678 180.341099 
L 364.358678 185.360269 
L 373.581818 185.360269 
L 373.581818 185.360269 
" style="fill:none;stroke:#d62728;stroke-linecap:square;stroke-width:1.5;"/>
   </g>
   <g id="line2d_20">
    <path clip-path="url(#pfa2c9f4f2f)" d="M 69.218182 56.177831 
L 78.441322 56.177831 
L 78.441322 58.284874 
L 87.664463 58.284874 
L 87.664463 74.666473 
L 96.887603 74.666473 
L 96.887603 159.591007 
L 106.110744 159.591007 
L 106.110744 168.224572 
L 115.333884 168.224572 
L 115.333884 185.47447 
L 124.557025 185.47447 
L 124.557025 208.279304 
L 133.780165 208.279304 
L 133.780165 210.139767 
L 143.003306 210.139767 
L 143.003306 210.139767 
L 152.226446 210.139767 
L 152.226446 211.222607 
L 161.449587 211.222607 
L 161.449587 211.222607 
L 170.672727 211.222607 
L 170.672727 211.222607 
L 179.895868 211.222607 
L 179.895868 211.465297 
L 189.119008 211.465297 
L 189.119008 212.807774 
L 198.342149 212.807774 
L 198.342149 213.388696 
L 207.565289 213.388696 
L 207.565289 218.264342 
L 216.78843 218.264342 
L 216.78843 218.264342 
L 226.01157 218.264342 
L 226.01157 221.06936 
L 235.234711 221.06936 
L 235.234711 221.06936 
L 244.457851 221.06936 
L 244.457851 226.055284 
L 253.680992 226.055284 
L 253.680992 226.055284 
L 262.904132 226.055284 
L 262.904132 226.055284 
L 272.127273 226.055284 
L 272.127273 226.055284 
L 281.350413 226.055284 
L 281.350413 226.055284 
L 290.573554 226.055284 
L 290.573554 226.055284 
L 299.796694 226.055284 
L 299.796694 226.055284 
L 309.019835 226.055284 
L 309.019835 226.055284 
L 318.242975 226.055284 
L 318.242975 227.920303 
L 327.466116 227.920303 
L 327.466116 230.389245 
L 336.689256 230.389245 
L 336.689256 235.36751 
L 345.912397 235.36751 
L 345.912397 235.36751 
L 355.135537 235.36751 
L 355.135537 235.36751 
L 364.358678 235.36751 
L 364.358678 235.36751 
L 373.581818 235.36751 
L 373.581818 235.36751 
" style="fill:none;stroke:#9467bd;stroke-linecap:square;stroke-width:1.5;"/>
   </g>
   <g id="line2d_21">
    <path clip-path="url(#pfa2c9f4f2f)" d="M 69.218182 60.496107 
L 78.441322 60.496107 
L 78.441322 96.20051 
L 87.664463 96.20051 
L 87.664463 170.650868 
L 96.887603 170.650868 
L 96.887603 171.992484 
L 106.110744 171.992484 
L 106.110744 179.270853 
L 115.333884 179.270853 
L 115.333884 188.27261 
L 124.557025 188.27261 
L 124.557025 188.27261 
L 133.780165 188.27261 
L 133.780165 188.548129 
L 143.003306 188.548129 
L 143.003306 188.548129 
L 152.226446 188.548129 
L 152.226446 188.548129 
L 161.449587 188.548129 
L 161.449587 188.548129 
L 170.672727 188.548129 
L 170.672727 189.801703 
L 179.895868 189.801703 
L 179.895868 190.118373 
L 189.119008 190.118373 
L 189.119008 205.903856 
L 198.342149 205.903856 
L 198.342149 205.903856 
L 207.565289 205.903856 
L 207.565289 205.903856 
L 216.78843 205.903856 
L 216.78843 207.76176 
L 226.01157 207.76176 
L 226.01157 210.992132 
L 235.234711 210.992132 
L 235.234711 215.750031 
L 244.457851 215.750031 
L 244.457851 215.750031 
L 253.680992 215.750031 
L 253.680992 223.702477 
L 262.904132 223.702477 
L 262.904132 223.702477 
L 272.127273 223.702477 
L 272.127273 225.416073 
L 281.350413 225.416073 
L 281.350413 225.416073 
L 290.573554 225.416073 
L 290.573554 225.416073 
L 299.796694 225.416073 
L 299.796694 225.416073 
L 309.019835 225.416073 
L 309.019835 225.416073 
L 318.242975 225.416073 
L 318.242975 225.416073 
L 327.466116 225.416073 
L 327.466116 225.416073 
L 336.689256 225.416073 
L 336.689256 226.126399 
L 345.912397 226.126399 
L 345.912397 242.116364 
L 355.135537 242.116364 
L 355.135537 242.116364 
L 364.358678 242.116364 
L 364.358678 242.116364 
L 373.581818 242.116364 
L 373.581818 242.116364 
" style="fill:none;stroke:#8c564b;stroke-linecap:square;stroke-width:1.5;"/>
   </g>
   <g id="line2d_22">
    <path clip-path="url(#pfa2c9f4f2f)" d="M 69.218182 55.89438 
L 78.441322 55.89438 
L 78.441322 64.744269 
L 87.664463 64.744269 
L 87.664463 127.544916 
L 96.887603 127.544916 
L 96.887603 138.621557 
L 106.110744 138.621557 
L 106.110744 172.281393 
L 115.333884 172.281393 
L 115.333884 174.965478 
L 124.557025 174.965478 
L 124.557025 185.686605 
L 133.780165 185.686605 
L 133.780165 185.686605 
L 143.003306 185.686605 
L 143.003306 185.686605 
L 152.226446 185.686605 
L 152.226446 193.700487 
L 161.449587 193.700487 
L 161.449587 200.369519 
L 170.672727 200.369519 
L 170.672727 200.369519 
L 179.895868 200.369519 
L 179.895868 200.369519 
L 189.119008 200.369519 
L 189.119008 200.369519 
L 198.342149 200.369519 
L 198.342149 201.74047 
L 207.565289 201.74047 
L 207.565289 201.74047 
L 216.78843 201.74047 
L 216.78843 201.74047 
L 226.01157 201.74047 
L 226.01157 201.74047 
L 235.234711 201.74047 
L 235.234711 208.045238 
L 244.457851 208.045238 
L 244.457851 225.986542 
L 253.680992 225.986542 
L 253.680992 225.986542 
L 262.904132 225.986542 
L 262.904132 225.986542 
L 272.127273 225.986542 
L 272.127273 230.09915 
L 281.350413 230.09915 
L 281.350413 230.09915 
L 290.573554 230.09915 
L 290.573554 230.09915 
L 299.796694 230.09915 
L 299.796694 230.09915 
L 309.019835 230.09915 
L 309.019835 230.09915 
L 318.242975 230.09915 
L 318.242975 230.09915 
L 327.466116 230.09915 
L 327.466116 230.09915 
L 336.689256 230.09915 
L 336.689256 230.09915 
L 345.912397 230.09915 
L 345.912397 230.09915 
L 355.135537 230.09915 
L 355.135537 233.837261 
L 364.358678 233.837261 
L 364.358678 233.837261 
L 373.581818 233.837261 
L 373.581818 233.837261 
" style="fill:none;stroke:#e377c2;stroke-linecap:square;stroke-width:1.5;"/>
   </g>
   <g id="line2d_23">
    <path clip-path="url(#pfa2c9f4f2f)" d="M 69.218182 64.277165 
L 78.441322 64.277165 
L 78.441322 64.277165 
L 87.664463 64.277165 
L 87.664463 64.277165 
L 96.887603 64.277165 
L 96.887603 82.149205 
L 106.110744 82.149205 
L 106.110744 91.037697 
L 115.333884 91.037697 
L 115.333884 91.037697 
L 124.557025 91.037697 
L 124.557025 145.747307 
L 133.780165 145.747307 
L 133.780165 145.747307 
L 143.003306 145.747307 
L 143.003306 145.747307 
L 152.226446 145.747307 
L 152.226446 145.747307 
L 161.449587 145.747307 
L 161.449587 145.747307 
L 170.672727 145.747307 
L 170.672727 145.747307 
L 179.895868 145.747307 
L 179.895868 145.747307 
L 189.119008 145.747307 
L 189.119008 145.747307 
L 198.342149 145.747307 
L 198.342149 145.747307 
L 207.565289 145.747307 
L 207.565289 165.322739 
L 216.78843 165.322739 
L 216.78843 179.525378 
L 226.01157 179.525378 
L 226.01157 179.525378 
L 235.234711 179.525378 
L 235.234711 179.525378 
L 244.457851 179.525378 
L 244.457851 179.525378 
L 253.680992 179.525378 
L 253.680992 179.525378 
L 262.904132 179.525378 
L 262.904132 179.525378 
L 272.127273 179.525378 
L 272.127273 179.525378 
L 281.350413 179.525378 
L 281.350413 179.525378 
L 290.573554 179.525378 
L 290.573554 184.791877 
L 299.796694 184.791877 
L 299.796694 193.575601 
L 309.019835 193.575601 
L 309.019835 193.575601 
L 318.242975 193.575601 
L 318.242975 197.904592 
L 327.466116 197.904592 
L 327.466116 197.904592 
L 336.689256 197.904592 
L 336.689256 201.974296 
L 345.912397 201.974296 
L 345.912397 201.974296 
L 355.135537 201.974296 
L 355.135537 201.974296 
L 364.358678 201.974296 
L 364.358678 207.471255 
L 373.581818 207.471255 
L 373.581818 207.471255 
" style="fill:none;stroke:#7f7f7f;stroke-linecap:square;stroke-width:1.5;"/>
   </g>
   <g id="line2d_24">
    <path clip-path="url(#pfa2c9f4f2f)" d="M 69.218182 60.121995 
L 78.441322 60.121995 
L 78.441322 68.756143 
L 87.664463 68.756143 
L 87.664463 80.513337 
L 96.887603 80.513337 
L 96.887603 83.34157 
L 106.110744 83.34157 
L 106.110744 100.199632 
L 115.333884 100.199632 
L 115.333884 105.593056 
L 124.557025 105.593056 
L 124.557025 107.138837 
L 133.780165 107.138837 
L 133.780165 119.029806 
L 143.003306 119.029806 
L 143.003306 124.734855 
L 152.226446 124.734855 
L 152.226446 124.734855 
L 161.449587 124.734855 
L 161.449587 124.734855 
L 170.672727 124.734855 
L 170.672727 124.734855 
L 179.895868 124.734855 
L 179.895868 133.316219 
L 189.119008 133.316219 
L 189.119008 133.316219 
L 198.342149 133.316219 
L 198.342149 134.18956 
L 207.565289 134.18956 
L 207.565289 134.495954 
L 216.78843 134.495954 
L 216.78843 146.945458 
L 226.01157 146.945458 
L 226.01157 149.468191 
L 235.234711 149.468191 
L 235.234711 149.468191 
L 244.457851 149.468191 
L 244.457851 149.468191 
L 253.680992 149.468191 
L 253.680992 151.205977 
L 262.904132 151.205977 
L 262.904132 151.205977 
L 272.127273 151.205977 
L 272.127273 151.205977 
L 281.350413 151.205977 
L 281.350413 152.430055 
L 290.573554 152.430055 
L 290.573554 163.172584 
L 299.796694 163.172584 
L 299.796694 186.306053 
L 309.019835 186.306053 
L 309.019835 200.274402 
L 318.242975 200.274402 
L 318.242975 201.121668 
L 327.466116 201.121668 
L 327.466116 203.018715 
L 336.689256 203.018715 
L 336.689256 203.018715 
L 345.912397 203.018715 
L 345.912397 203.018715 
L 355.135537 203.018715 
L 355.135537 210.046646 
L 364.358678 210.046646 
L 364.358678 210.046646 
L 373.581818 210.046646 
L 373.581818 210.046646 
" style="fill:none;stroke:#bcbd22;stroke-linecap:square;stroke-width:1.5;"/>
   </g>
   <g id="line2d_25">
    <path clip-path="url(#pfa2c9f4f2f)" d="M 69.218182 50.91262 
L 78.441322 50.91262 
L 78.441322 79.749619 
L 87.664463 79.749619 
L 87.664463 79.749619 
L 96.887603 79.749619 
L 96.887603 85.905858 
L 106.110744 85.905858 
L 106.110744 114.61724 
L 115.333884 114.61724 
L 115.333884 117.52195 
L 124.557025 117.52195 
L 124.557025 121.280563 
L 133.780165 121.280563 
L 133.780165 165.420636 
L 143.003306 165.420636 
L 143.003306 165.420636 
L 152.226446 165.420636 
L 152.226446 165.420636 
L 161.449587 165.420636 
L 161.449587 173.680861 
L 170.672727 173.680861 
L 170.672727 173.680861 
L 179.895868 173.680861 
L 179.895868 173.680861 
L 189.119008 173.680861 
L 189.119008 173.680861 
L 198.342149 173.680861 
L 198.342149 173.680861 
L 207.565289 173.680861 
L 207.565289 174.686677 
L 216.78843 174.686677 
L 216.78843 174.686677 
L 226.01157 174.686677 
L 226.01157 174.686677 
L 235.234711 174.686677 
L 235.234711 177.26334 
L 244.457851 177.26334 
L 244.457851 177.26334 
L 253.680992 177.26334 
L 253.680992 177.26334 
L 262.904132 177.26334 
L 262.904132 181.115045 
L 272.127273 181.115045 
L 272.127273 181.115045 
L 281.350413 181.115045 
L 281.350413 183.166997 
L 290.573554 183.166997 
L 290.573554 183.166997 
L 299.796694 183.166997 
L 299.796694 190.292392 
L 309.019835 190.292392 
L 309.019835 190.292392 
L 318.242975 190.292392 
L 318.242975 190.292392 
L 327.466116 190.292392 
L 327.466116 196.42845 
L 336.689256 196.42845 
L 336.689256 196.42845 
L 345.912397 196.42845 
L 345.912397 196.42845 
L 355.135537 196.42845 
L 355.135537 196.42845 
L 364.358678 196.42845 
L 364.358678 198.86026 
L 373.581818 198.86026 
L 373.581818 198.86026 
" style="fill:none;stroke:#17becf;stroke-linecap:square;stroke-width:1.5;"/>
   </g>
   <g id="patch_3">
    <path d="M 54 252 
L 54 34.56 
" style="fill:none;stroke:#000000;stroke-linecap:square;stroke-linejoin:miter;stroke-width:0.8;"/>
   </g>
   <g id="patch_4">
    <path d="M 388.8 252 
L 388.8 34.56 
" style="fill:none;stroke:#000000;stroke-linecap:square;stroke-linejoin:miter;stroke-width:0.8;"/>
   </g>
   <g id="patch_5">
    <path d="M 54 252 
L 388.8 252 
" style="fill:none;stroke:#000000;stroke-linecap:square;stroke-linejoin:miter;stroke-width:0.8;"/>
   </g>
   <g id="patch_6">
    <path d="M 54 34.56 
L 388.8 34.56 
" style="fill:none;stroke:#000000;stroke-linecap:square;stroke-linejoin:miter;stroke-width:0.8;"/>
   </g>
   <g id="legend_1">
    <g id="patch_7">
     <path d="M 317.495313 189.34125 
L 381.8 189.34125 
Q 383.8 189.34125 383.8 187.34125 
L 383.8 41.56 
Q 383.8 39.56 381.8 39.56 
L 317.495313 39.56 
Q 315.495313 39.56 315.495313 41.56 
L 315.495313 187.34125 
Q 315.495313 189.34125 317.495313 189.34125 
z
" style="fill:#ffffff;opacity:0.8;stroke:#cccccc;stroke-linejoin:miter;"/>
    </g>
    <g id="line2d_26">
     <path d="M 319.495313 47.658437 
L 339.495313 47.658437 
" style="fill:none;stroke:#1f77b4;stroke-linecap:square;stroke-width:1.5;"/>
    </g>
    <g id="line2d_27"/>
    <g id="text_10">
     <!-- Nest.0 -->
     <g transform="translate(347.495313 51.158437)scale(0.1 -0.1)">
      <use xlink:href="#DejaVuSans-78"/>
      <use x="74.804688" xlink:href="#DejaVuSans-101"/>
      <use x="136.328125" xlink:href="#DejaVuSans-115"/>
      <use x="188.427734" xlink:href="#DejaVuSans-116"/>
      <use x="227.636719" xlink:href="#DejaVuSans-46"/>
      <use x="259.423828" xlink:href="#DejaVuSans-48"/>
     </g>
    </g>
    <g id="line2d_28">
     <path d="M 319.495313 62.336563 
L 339.495313 62.336563 
" style="fill:none;stroke:#ff7f0e;stroke-linecap:square;stroke-width:1.5;"/>
    </g>
    <g id="line2d_29"/>
    <g id="text_11">
     <!-- Nest.1 -->
     <g transform="translate(347.495313 65.836563)scale(0.1 -0.1)">
      <use xlink:href="#DejaVuSans-78"/>
      <use x="74.804688" xlink:href="#DejaVuSans-101"/>
      <use x="136.328125" xlink:href="#DejaVuSans-115"/>
      <use x="188.427734" xlink:href="#DejaVuSans-116"/>
      <use x="227.636719" xlink:href="#DejaVuSans-46"/>
      <use x="259.423828" xlink:href="#DejaVuSans-49"/>
     </g>
    </g>
    <g id="line2d_30">
     <path d="M 319.495313 77.014688 
L 339.495313 77.014688 
" style="fill:none;stroke:#2ca02c;stroke-linecap:square;stroke-width:1.5;"/>
    </g>
    <g id="line2d_31"/>
    <g id="text_12">
     <!-- Nest.2 -->
     <g transform="translate(347.495313 80.514688)scale(0.1 -0.1)">
      <use xlink:href="#DejaVuSans-78"/>
      <use x="74.804688" xlink:href="#DejaVuSans-101"/>
      <use x="136.328125" xlink:href="#DejaVuSans-115"/>
      <use x="188.427734" xlink:href="#DejaVuSans-116"/>
      <use x="227.636719" xlink:href="#DejaVuSans-46"/>
      <use x="259.423828" xlink:href="#DejaVuSans-50"/>
     </g>
    </g>
    <g id="line2d_32">
     <path d="M 319.495313 91.692813 
L 339.495313 91.692813 
" style="fill:none;stroke:#d62728;stroke-linecap:square;stroke-width:1.5;"/>
    </g>
    <g id="line2d_33"/>
    <g id="text_13">
     <!-- Nest.3 -->
     <g transform="translate(347.495313 95.192813)scale(0.1 -0.1)">
      <defs>
       <path d="M 40.578125 39.3125 
Q 47.65625 37.796875 51.625 33 
Q 55.609375 28.21875 55.609375 21.1875 
Q 55.609375 10.40625 48.1875 4.484375 
Q 40.765625 -1.421875 27.09375 -1.421875 
Q 22.515625 -1.421875 17.65625 -0.515625 
Q 12.796875 0.390625 7.625 2.203125 
L 7.625 11.71875 
Q 11.71875 9.328125 16.59375 8.109375 
Q 21.484375 6.890625 26.8125 6.890625 
Q 36.078125 6.890625 40.9375 10.546875 
Q 45.796875 14.203125 45.796875 21.1875 
Q 45.796875 27.640625 41.28125 31.265625 
Q 36.765625 34.90625 28.71875 34.90625 
L 20.21875 34.90625 
L 20.21875 43.015625 
L 29.109375 43.015625 
Q 36.375 43.015625 40.234375 45.921875 
Q 44.09375 48.828125 44.09375 54.296875 
Q 44.09375 59.90625 40.109375 62.90625 
Q 36.140625 65.921875 28.71875 65.921875 
Q 24.65625 65.921875 20.015625 65.03125 
Q 15.375 64.15625 9.8125 62.3125 
L 9.8125 71.09375 
Q 15.4375 72.65625 20.34375 73.4375 
Q 25.25 74.21875 29.59375 74.21875 
Q 40.828125 74.21875 47.359375 69.109375 
Q 53.90625 64.015625 53.90625 55.328125 
Q 53.90625 49.265625 50.4375 45.09375 
Q 46.96875 40.921875 40.578125 39.3125 
z
" id="DejaVuSans-51"/>
      </defs>
      <use xlink:href="#DejaVuSans-78"/>
      <use x="74.804688" xlink:href="#DejaVuSans-101"/>
      <use x="136.328125" xlink:href="#DejaVuSans-115"/>
      <use x="188.427734" xlink:href="#DejaVuSans-116"/>
      <use x="227.636719" xlink:href="#DejaVuSans-46"/>
      <use x="259.423828" xlink:href="#DejaVuSans-51"/>
     </g>
    </g>
    <g id="line2d_34">
     <path d="M 319.495313 106.370938 
L 339.495313 106.370938 
" style="fill:none;stroke:#9467bd;stroke-linecap:square;stroke-width:1.5;"/>
    </g>
    <g id="line2d_35"/>
    <g id="text_14">
     <!-- Nest.4 -->
     <g transform="translate(347.495313 109.870938)scale(0.1 -0.1)">
      <use xlink:href="#DejaVuSans-78"/>
      <use x="74.804688" xlink:href="#DejaVuSans-101"/>
      <use x="136.328125" xlink:href="#DejaVuSans-115"/>
      <use x="188.427734" xlink:href="#DejaVuSans-116"/>
      <use x="227.636719" xlink:href="#DejaVuSans-46"/>
      <use x="259.423828" xlink:href="#DejaVuSans-52"/>
     </g>
    </g>
    <g id="line2d_36">
     <path d="M 319.495313 121.049062 
L 339.495313 121.049062 
" style="fill:none;stroke:#8c564b;stroke-linecap:square;stroke-width:1.5;"/>
    </g>
    <g id="line2d_37"/>
    <g id="text_15">
     <!-- Nest.5 -->
     <g transform="translate(347.495313 124.549062)scale(0.1 -0.1)">
      <defs>
       <path d="M 10.796875 72.90625 
L 49.515625 72.90625 
L 49.515625 64.59375 
L 19.828125 64.59375 
L 19.828125 46.734375 
Q 21.96875 47.46875 24.109375 47.828125 
Q 26.265625 48.1875 28.421875 48.1875 
Q 40.625 48.1875 47.75 41.5 
Q 54.890625 34.8125 54.890625 23.390625 
Q 54.890625 11.625 47.5625 5.09375 
Q 40.234375 -1.421875 26.90625 -1.421875 
Q 22.3125 -1.421875 17.546875 -0.640625 
Q 12.796875 0.140625 7.71875 1.703125 
L 7.71875 11.625 
Q 12.109375 9.234375 16.796875 8.0625 
Q 21.484375 6.890625 26.703125 6.890625 
Q 35.15625 6.890625 40.078125 11.328125 
Q 45.015625 15.765625 45.015625 23.390625 
Q 45.015625 31 40.078125 35.4375 
Q 35.15625 39.890625 26.703125 39.890625 
Q 22.75 39.890625 18.8125 39.015625 
Q 14.890625 38.140625 10.796875 36.28125 
z
" id="DejaVuSans-53"/>
      </defs>
      <use xlink:href="#DejaVuSans-78"/>
      <use x="74.804688" xlink:href="#DejaVuSans-101"/>
      <use x="136.328125" xlink:href="#DejaVuSans-115"/>
      <use x="188.427734" xlink:href="#DejaVuSans-116"/>
      <use x="227.636719" xlink:href="#DejaVuSans-46"/>
      <use x="259.423828" xlink:href="#DejaVuSans-53"/>
     </g>
    </g>
    <g id="line2d_38">
     <path d="M 319.495313 135.727188 
L 339.495313 135.727188 
" style="fill:none;stroke:#e377c2;stroke-linecap:square;stroke-width:1.5;"/>
    </g>
    <g id="line2d_39"/>
    <g id="text_16">
     <!-- Nest.6 -->
     <g transform="translate(347.495313 139.227188)scale(0.1 -0.1)">
      <use xlink:href="#DejaVuSans-78"/>
      <use x="74.804688" xlink:href="#DejaVuSans-101"/>
      <use x="136.328125" xlink:href="#DejaVuSans-115"/>
      <use x="188.427734" xlink:href="#DejaVuSans-116"/>
      <use x="227.636719" xlink:href="#DejaVuSans-46"/>
      <use x="259.423828" xlink:href="#DejaVuSans-54"/>
     </g>
    </g>
    <g id="line2d_40">
     <path d="M 319.495313 150.405312 
L 339.495313 150.405312 
" style="fill:none;stroke:#7f7f7f;stroke-linecap:square;stroke-width:1.5;"/>
    </g>
    <g id="line2d_41"/>
    <g id="text_17">
     <!-- Nest.7 -->
     <g transform="translate(347.495313 153.905312)scale(0.1 -0.1)">
      <defs>
       <path d="M 8.203125 72.90625 
L 55.078125 72.90625 
L 55.078125 68.703125 
L 28.609375 0 
L 18.3125 0 
L 43.21875 64.59375 
L 8.203125 64.59375 
z
" id="DejaVuSans-55"/>
      </defs>
      <use xlink:href="#DejaVuSans-78"/>
      <use x="74.804688" xlink:href="#DejaVuSans-101"/>
      <use x="136.328125" xlink:href="#DejaVuSans-115"/>
      <use x="188.427734" xlink:href="#DejaVuSans-116"/>
      <use x="227.636719" xlink:href="#DejaVuSans-46"/>
      <use x="259.423828" xlink:href="#DejaVuSans-55"/>
     </g>
    </g>
    <g id="line2d_42">
     <path d="M 319.495313 165.083438 
L 339.495313 165.083438 
" style="fill:none;stroke:#bcbd22;stroke-linecap:square;stroke-width:1.5;"/>
    </g>
    <g id="line2d_43"/>
    <g id="text_18">
     <!-- Nest.8 -->
     <g transform="translate(347.495313 168.583438)scale(0.1 -0.1)">
      <use xlink:href="#DejaVuSans-78"/>
      <use x="74.804688" xlink:href="#DejaVuSans-101"/>
      <use x="136.328125" xlink:href="#DejaVuSans-115"/>
      <use x="188.427734" xlink:href="#DejaVuSans-116"/>
      <use x="227.636719" xlink:href="#DejaVuSans-46"/>
      <use x="259.423828" xlink:href="#DejaVuSans-56"/>
     </g>
    </g>
    <g id="line2d_44">
     <path d="M 319.495313 179.761562 
L 339.495313 179.761562 
" style="fill:none;stroke:#17becf;stroke-linecap:square;stroke-width:1.5;"/>
    </g>
    <g id="line2d_45"/>
    <g id="text_19">
     <!-- Nest.9 -->
     <g transform="translate(347.495313 183.261562)scale(0.1 -0.1)">
      <defs>
       <path d="M 10.984375 1.515625 
L 10.984375 10.5 
Q 14.703125 8.734375 18.5 7.8125 
Q 22.3125 6.890625 25.984375 6.890625 
Q 35.75 6.890625 40.890625 13.453125 
Q 46.046875 20.015625 46.78125 33.40625 
Q 43.953125 29.203125 39.59375 26.953125 
Q 35.25 24.703125 29.984375 24.703125 
Q 19.046875 24.703125 12.671875 31.3125 
Q 6.296875 37.9375 6.296875 49.421875 
Q 6.296875 60.640625 12.9375 67.421875 
Q 19.578125 74.21875 30.609375 74.21875 
Q 43.265625 74.21875 49.921875 64.515625 
Q 56.59375 54.828125 56.59375 36.375 
Q 56.59375 19.140625 48.40625 8.859375 
Q 40.234375 -1.421875 26.421875 -1.421875 
Q 22.703125 -1.421875 18.890625 -0.6875 
Q 15.09375 0.046875 10.984375 1.515625 
z
M 30.609375 32.421875 
Q 37.25 32.421875 41.125 36.953125 
Q 45.015625 41.5 45.015625 49.421875 
Q 45.015625 57.28125 41.125 61.84375 
Q 37.25 66.40625 30.609375 66.40625 
Q 23.96875 66.40625 20.09375 61.84375 
Q 16.21875 57.28125 16.21875 49.421875 
Q 16.21875 41.5 20.09375 36.953125 
Q 23.96875 32.421875 30.609375 32.421875 
z
" id="DejaVuSans-57"/>
      </defs>
      <use xlink:href="#DejaVuSans-78"/>
      <use x="74.804688" xlink:href="#DejaVuSans-101"/>
      <use x="136.328125" xlink:href="#DejaVuSans-115"/>
      <use x="188.427734" xlink:href="#DejaVuSans-116"/>
      <use x="227.636719" xlink:href="#DejaVuSans-46"/>
      <use x="259.423828" xlink:href="#DejaVuSans-57"/>
     </g>
    </g>
   </g>
  </g>
 </g>
 <defs>
  <clipPath id="pfa2c9f4f2f">
   <rect height="217.44" width="334.8" x="54" y="34.56"/>
  </clipPath>
 </defs>
</svg>
