<?xml version="1.0" encoding="utf-8" standalone="no"?>
<!DOCTYPE svg PUBLIC "-//W3C//DTD SVG 1.1//EN"
  "http://www.w3.org/Graphics/SVG/1.1/DTD/svg11.dtd">
<!-- Created with matplotlib (https://matplotlib.org/) -->
<svg height="288pt" version="1.1" viewBox="0 0 432 288" width="432pt" xmlns="http://www.w3.org/2000/svg" xmlns:xlink="http://www.w3.org/1999/xlink">
 <metadata>
  <rdf:RDF xmlns:cc="http://creativecommons.org/ns#" xmlns:dc="http://purl.org/dc/elements/1.1/" xmlns:rdf="http://www.w3.org/1999/02/22-rdf-syntax-ns#">
   <cc:Work>
    <dc:type rdf:resource="http://purl.org/dc/dcmitype/StillImage"/>
    <dc:date>2021-04-02T14:36:27.322483</dc:date>
    <dc:format>image/svg+xml</dc:format>
    <dc:creator>
     <cc:Agent>
      <dc:title>Matplotlib v3.3.4, https://matplotlib.org/</dc:title>
     </cc:Agent>
    </dc:creator>
   </cc:Work>
  </rdf:RDF>
 </metadata>
 <defs>
  <style type="text/css">*{stroke-linecap:butt;stroke-linejoin:round;}</style>
 </defs>
 <g id="figure_1">
  <g id="patch_1">
   <path d="M 0 288 
L 432 288 
L 432 0 
L 0 0 
z
" style="fill:#ffffff;"/>
  </g>
  <g id="axes_1">
   <g id="patch_2">
    <path d="M 54 252 
L 388.8 252 
L 388.8 34.56 
L 54 34.56 
z
" style="fill:#ffffff;"/>
   </g>
   <g id="matplotlib.axis_1">
    <g id="xtick_1">
     <g id="line2d_1">
      <defs>
       <path d="M 0 0 
L 0 3.5 
" id="m70c46d4c37" style="stroke:#000000;stroke-width:0.8;"/>
      </defs>
      <g>
       <use style="stroke:#000000;stroke-width:0.8;" x="114.07177" xlink:href="#m70c46d4c37" y="252"/>
      </g>
     </g>
     <g id="text_1">
      <!-- 20 -->
      <g transform="translate(107.70927 266.598437)scale(0.1 -0.1)">
       <defs>
        <path d="M 19.1875 8.296875 
L 53.609375 8.296875 
L 53.609375 0 
L 7.328125 0 
L 7.328125 8.296875 
Q 12.9375 14.109375 22.625 23.890625 
Q 32.328125 33.6875 34.8125 36.53125 
Q 39.546875 41.84375 41.421875 45.53125 
Q 43.3125 49.21875 43.3125 52.78125 
Q 43.3125 58.59375 39.234375 62.25 
Q 35.15625 65.921875 28.609375 65.921875 
Q 23.96875 65.921875 18.8125 64.3125 
Q 13.671875 62.703125 7.8125 59.421875 
L 7.8125 69.390625 
Q 13.765625 71.78125 18.9375 73 
Q 24.125 74.21875 28.421875 74.21875 
Q 39.75 74.21875 46.484375 68.546875 
Q 53.21875 62.890625 53.21875 53.421875 
Q 53.21875 48.921875 51.53125 44.890625 
Q 49.859375 40.875 45.40625 35.40625 
Q 44.1875 33.984375 37.640625 27.21875 
Q 31.109375 20.453125 19.1875 8.296875 
z
" id="DejaVuSans-50"/>
        <path d="M 31.78125 66.40625 
Q 24.171875 66.40625 20.328125 58.90625 
Q 16.5 51.421875 16.5 36.375 
Q 16.5 21.390625 20.328125 13.890625 
Q 24.171875 6.390625 31.78125 6.390625 
Q 39.453125 6.390625 43.28125 13.890625 
Q 47.125 21.390625 47.125 36.375 
Q 47.125 51.421875 43.28125 58.90625 
Q 39.453125 66.40625 31.78125 66.40625 
z
M 31.78125 74.21875 
Q 44.046875 74.21875 50.515625 64.515625 
Q 56.984375 54.828125 56.984375 36.375 
Q 56.984375 17.96875 50.515625 8.265625 
Q 44.046875 -1.421875 31.78125 -1.421875 
Q 19.53125 -1.421875 13.0625 8.265625 
Q 6.59375 17.96875 6.59375 36.375 
Q 6.59375 54.828125 13.0625 64.515625 
Q 19.53125 74.21875 31.78125 74.21875 
z
" id="DejaVuSans-48"/>
       </defs>
       <use xlink:href="#DejaVuSans-50"/>
       <use x="63.623047" xlink:href="#DejaVuSans-48"/>
      </g>
     </g>
    </g>
    <g id="xtick_2">
     <g id="line2d_2">
      <g>
       <use style="stroke:#000000;stroke-width:0.8;" x="178.148325" xlink:href="#m70c46d4c37" y="252"/>
      </g>
     </g>
     <g id="text_2">
      <!-- 40 -->
      <g transform="translate(171.785825 266.598437)scale(0.1 -0.1)">
       <defs>
        <path d="M 37.796875 64.3125 
L 12.890625 25.390625 
L 37.796875 25.390625 
z
M 35.203125 72.90625 
L 47.609375 72.90625 
L 47.609375 25.390625 
L 58.015625 25.390625 
L 58.015625 17.1875 
L 47.609375 17.1875 
L 47.609375 0 
L 37.796875 0 
L 37.796875 17.1875 
L 4.890625 17.1875 
L 4.890625 26.703125 
z
" id="DejaVuSans-52"/>
       </defs>
       <use xlink:href="#DejaVuSans-52"/>
       <use x="63.623047" xlink:href="#DejaVuSans-48"/>
      </g>
     </g>
    </g>
    <g id="xtick_3">
     <g id="line2d_3">
      <g>
       <use style="stroke:#000000;stroke-width:0.8;" x="242.22488" xlink:href="#m70c46d4c37" y="252"/>
      </g>
     </g>
     <g id="text_3">
      <!-- 60 -->
      <g transform="translate(235.86238 266.598437)scale(0.1 -0.1)">
       <defs>
        <path d="M 33.015625 40.375 
Q 26.375 40.375 22.484375 35.828125 
Q 18.609375 31.296875 18.609375 23.390625 
Q 18.609375 15.53125 22.484375 10.953125 
Q 26.375 6.390625 33.015625 6.390625 
Q 39.65625 6.390625 43.53125 10.953125 
Q 47.40625 15.53125 47.40625 23.390625 
Q 47.40625 31.296875 43.53125 35.828125 
Q 39.65625 40.375 33.015625 40.375 
z
M 52.59375 71.296875 
L 52.59375 62.3125 
Q 48.875 64.0625 45.09375 64.984375 
Q 41.3125 65.921875 37.59375 65.921875 
Q 27.828125 65.921875 22.671875 59.328125 
Q 17.53125 52.734375 16.796875 39.40625 
Q 19.671875 43.65625 24.015625 45.921875 
Q 28.375 48.1875 33.59375 48.1875 
Q 44.578125 48.1875 50.953125 41.515625 
Q 57.328125 34.859375 57.328125 23.390625 
Q 57.328125 12.15625 50.6875 5.359375 
Q 44.046875 -1.421875 33.015625 -1.421875 
Q 20.359375 -1.421875 13.671875 8.265625 
Q 6.984375 17.96875 6.984375 36.375 
Q 6.984375 53.65625 15.1875 63.9375 
Q 23.390625 74.21875 37.203125 74.21875 
Q 40.921875 74.21875 44.703125 73.484375 
Q 48.484375 72.75 52.59375 71.296875 
z
" id="DejaVuSans-54"/>
       </defs>
       <use xlink:href="#DejaVuSans-54"/>
       <use x="63.623047" xlink:href="#DejaVuSans-48"/>
      </g>
     </g>
    </g>
    <g id="xtick_4">
     <g id="line2d_4">
      <g>
       <use style="stroke:#000000;stroke-width:0.8;" x="306.301435" xlink:href="#m70c46d4c37" y="252"/>
      </g>
     </g>
     <g id="text_4">
      <!-- 80 -->
      <g transform="translate(299.938935 266.598437)scale(0.1 -0.1)">
       <defs>
        <path d="M 31.78125 34.625 
Q 24.75 34.625 20.71875 30.859375 
Q 16.703125 27.09375 16.703125 20.515625 
Q 16.703125 13.921875 20.71875 10.15625 
Q 24.75 6.390625 31.78125 6.390625 
Q 38.8125 6.390625 42.859375 10.171875 
Q 46.921875 13.96875 46.921875 20.515625 
Q 46.921875 27.09375 42.890625 30.859375 
Q 38.875 34.625 31.78125 34.625 
z
M 21.921875 38.8125 
Q 15.578125 40.375 12.03125 44.71875 
Q 8.5 49.078125 8.5 55.328125 
Q 8.5 64.0625 14.71875 69.140625 
Q 20.953125 74.21875 31.78125 74.21875 
Q 42.671875 74.21875 48.875 69.140625 
Q 55.078125 64.0625 55.078125 55.328125 
Q 55.078125 49.078125 51.53125 44.71875 
Q 48 40.375 41.703125 38.8125 
Q 48.828125 37.15625 52.796875 32.3125 
Q 56.78125 27.484375 56.78125 20.515625 
Q 56.78125 9.90625 50.3125 4.234375 
Q 43.84375 -1.421875 31.78125 -1.421875 
Q 19.734375 -1.421875 13.25 4.234375 
Q 6.78125 9.90625 6.78125 20.515625 
Q 6.78125 27.484375 10.78125 32.3125 
Q 14.796875 37.15625 21.921875 38.8125 
z
M 18.3125 54.390625 
Q 18.3125 48.734375 21.84375 45.5625 
Q 25.390625 42.390625 31.78125 42.390625 
Q 38.140625 42.390625 41.71875 45.5625 
Q 45.3125 48.734375 45.3125 54.390625 
Q 45.3125 60.0625 41.71875 63.234375 
Q 38.140625 66.40625 31.78125 66.40625 
Q 25.390625 66.40625 21.84375 63.234375 
Q 18.3125 60.0625 18.3125 54.390625 
z
" id="DejaVuSans-56"/>
       </defs>
       <use xlink:href="#DejaVuSans-56"/>
       <use x="63.623047" xlink:href="#DejaVuSans-48"/>
      </g>
     </g>
    </g>
    <g id="xtick_5">
     <g id="line2d_5">
      <g>
       <use style="stroke:#000000;stroke-width:0.8;" x="370.37799" xlink:href="#m70c46d4c37" y="252"/>
      </g>
     </g>
     <g id="text_5">
      <!-- 100 -->
      <g transform="translate(360.83424 266.598437)scale(0.1 -0.1)">
       <defs>
        <path d="M 12.40625 8.296875 
L 28.515625 8.296875 
L 28.515625 63.921875 
L 10.984375 60.40625 
L 10.984375 69.390625 
L 28.421875 72.90625 
L 38.28125 72.90625 
L 38.28125 8.296875 
L 54.390625 8.296875 
L 54.390625 0 
L 12.40625 0 
z
" id="DejaVuSans-49"/>
       </defs>
       <use xlink:href="#DejaVuSans-49"/>
       <use x="63.623047" xlink:href="#DejaVuSans-48"/>
       <use x="127.246094" xlink:href="#DejaVuSans-48"/>
      </g>
     </g>
    </g>
    <g id="text_6">
     <!-- Nbr. of function evaluations -->
     <g transform="translate(152.382031 280.276563)scale(0.1 -0.1)">
      <defs>
       <path d="M 9.8125 72.90625 
L 23.09375 72.90625 
L 55.421875 11.921875 
L 55.421875 72.90625 
L 64.984375 72.90625 
L 64.984375 0 
L 51.703125 0 
L 19.390625 60.984375 
L 19.390625 0 
L 9.8125 0 
z
" id="DejaVuSans-78"/>
       <path d="M 48.6875 27.296875 
Q 48.6875 37.203125 44.609375 42.84375 
Q 40.53125 48.484375 33.40625 48.484375 
Q 26.265625 48.484375 22.1875 42.84375 
Q 18.109375 37.203125 18.109375 27.296875 
Q 18.109375 17.390625 22.1875 11.75 
Q 26.265625 6.109375 33.40625 6.109375 
Q 40.53125 6.109375 44.609375 11.75 
Q 48.6875 17.390625 48.6875 27.296875 
z
M 18.109375 46.390625 
Q 20.953125 51.265625 25.265625 53.625 
Q 29.59375 56 35.59375 56 
Q 45.5625 56 51.78125 48.09375 
Q 58.015625 40.1875 58.015625 27.296875 
Q 58.015625 14.40625 51.78125 6.484375 
Q 45.5625 -1.421875 35.59375 -1.421875 
Q 29.59375 -1.421875 25.265625 0.953125 
Q 20.953125 3.328125 18.109375 8.203125 
L 18.109375 0 
L 9.078125 0 
L 9.078125 75.984375 
L 18.109375 75.984375 
z
" id="DejaVuSans-98"/>
       <path d="M 41.109375 46.296875 
Q 39.59375 47.171875 37.8125 47.578125 
Q 36.03125 48 33.890625 48 
Q 26.265625 48 22.1875 43.046875 
Q 18.109375 38.09375 18.109375 28.8125 
L 18.109375 0 
L 9.078125 0 
L 9.078125 54.6875 
L 18.109375 54.6875 
L 18.109375 46.1875 
Q 20.953125 51.171875 25.484375 53.578125 
Q 30.03125 56 36.53125 56 
Q 37.453125 56 38.578125 55.875 
Q 39.703125 55.765625 41.0625 55.515625 
z
" id="DejaVuSans-114"/>
       <path d="M 10.6875 12.40625 
L 21 12.40625 
L 21 0 
L 10.6875 0 
z
" id="DejaVuSans-46"/>
       <path id="DejaVuSans-32"/>
       <path d="M 30.609375 48.390625 
Q 23.390625 48.390625 19.1875 42.75 
Q 14.984375 37.109375 14.984375 27.296875 
Q 14.984375 17.484375 19.15625 11.84375 
Q 23.34375 6.203125 30.609375 6.203125 
Q 37.796875 6.203125 41.984375 11.859375 
Q 46.1875 17.53125 46.1875 27.296875 
Q 46.1875 37.015625 41.984375 42.703125 
Q 37.796875 48.390625 30.609375 48.390625 
z
M 30.609375 56 
Q 42.328125 56 49.015625 48.375 
Q 55.71875 40.765625 55.71875 27.296875 
Q 55.71875 13.875 49.015625 6.21875 
Q 42.328125 -1.421875 30.609375 -1.421875 
Q 18.84375 -1.421875 12.171875 6.21875 
Q 5.515625 13.875 5.515625 27.296875 
Q 5.515625 40.765625 12.171875 48.375 
Q 18.84375 56 30.609375 56 
z
" id="DejaVuSans-111"/>
       <path d="M 37.109375 75.984375 
L 37.109375 68.5 
L 28.515625 68.5 
Q 23.6875 68.5 21.796875 66.546875 
Q 19.921875 64.59375 19.921875 59.515625 
L 19.921875 54.6875 
L 34.71875 54.6875 
L 34.71875 47.703125 
L 19.921875 47.703125 
L 19.921875 0 
L 10.890625 0 
L 10.890625 47.703125 
L 2.296875 47.703125 
L 2.296875 54.6875 
L 10.890625 54.6875 
L 10.890625 58.5 
Q 10.890625 67.625 15.140625 71.796875 
Q 19.390625 75.984375 28.609375 75.984375 
z
" id="DejaVuSans-102"/>
       <path d="M 8.5 21.578125 
L 8.5 54.6875 
L 17.484375 54.6875 
L 17.484375 21.921875 
Q 17.484375 14.15625 20.5 10.265625 
Q 23.53125 6.390625 29.59375 6.390625 
Q 36.859375 6.390625 41.078125 11.03125 
Q 45.3125 15.671875 45.3125 23.6875 
L 45.3125 54.6875 
L 54.296875 54.6875 
L 54.296875 0 
L 45.3125 0 
L 45.3125 8.40625 
Q 42.046875 3.421875 37.71875 1 
Q 33.40625 -1.421875 27.6875 -1.421875 
Q 18.265625 -1.421875 13.375 4.4375 
Q 8.5 10.296875 8.5 21.578125 
z
M 31.109375 56 
z
" id="DejaVuSans-117"/>
       <path d="M 54.890625 33.015625 
L 54.890625 0 
L 45.90625 0 
L 45.90625 32.71875 
Q 45.90625 40.484375 42.875 44.328125 
Q 39.84375 48.1875 33.796875 48.1875 
Q 26.515625 48.1875 22.3125 43.546875 
Q 18.109375 38.921875 18.109375 30.90625 
L 18.109375 0 
L 9.078125 0 
L 9.078125 54.6875 
L 18.109375 54.6875 
L 18.109375 46.1875 
Q 21.34375 51.125 25.703125 53.5625 
Q 30.078125 56 35.796875 56 
Q 45.21875 56 50.046875 50.171875 
Q 54.890625 44.34375 54.890625 33.015625 
z
" id="DejaVuSans-110"/>
       <path d="M 48.78125 52.59375 
L 48.78125 44.1875 
Q 44.96875 46.296875 41.140625 47.34375 
Q 37.3125 48.390625 33.40625 48.390625 
Q 24.65625 48.390625 19.8125 42.84375 
Q 14.984375 37.3125 14.984375 27.296875 
Q 14.984375 17.28125 19.8125 11.734375 
Q 24.65625 6.203125 33.40625 6.203125 
Q 37.3125 6.203125 41.140625 7.25 
Q 44.96875 8.296875 48.78125 10.40625 
L 48.78125 2.09375 
Q 45.015625 0.34375 40.984375 -0.53125 
Q 36.96875 -1.421875 32.421875 -1.421875 
Q 20.0625 -1.421875 12.78125 6.34375 
Q 5.515625 14.109375 5.515625 27.296875 
Q 5.515625 40.671875 12.859375 48.328125 
Q 20.21875 56 33.015625 56 
Q 37.15625 56 41.109375 55.140625 
Q 45.0625 54.296875 48.78125 52.59375 
z
" id="DejaVuSans-99"/>
       <path d="M 18.3125 70.21875 
L 18.3125 54.6875 
L 36.8125 54.6875 
L 36.8125 47.703125 
L 18.3125 47.703125 
L 18.3125 18.015625 
Q 18.3125 11.328125 20.140625 9.421875 
Q 21.96875 7.515625 27.59375 7.515625 
L 36.8125 7.515625 
L 36.8125 0 
L 27.59375 0 
Q 17.1875 0 13.234375 3.875 
Q 9.28125 7.765625 9.28125 18.015625 
L 9.28125 47.703125 
L 2.6875 47.703125 
L 2.6875 54.6875 
L 9.28125 54.6875 
L 9.28125 70.21875 
z
" id="DejaVuSans-116"/>
       <path d="M 9.421875 54.6875 
L 18.40625 54.6875 
L 18.40625 0 
L 9.421875 0 
z
M 9.421875 75.984375 
L 18.40625 75.984375 
L 18.40625 64.59375 
L 9.421875 64.59375 
z
" id="DejaVuSans-105"/>
       <path d="M 56.203125 29.59375 
L 56.203125 25.203125 
L 14.890625 25.203125 
Q 15.484375 15.921875 20.484375 11.0625 
Q 25.484375 6.203125 34.421875 6.203125 
Q 39.59375 6.203125 44.453125 7.46875 
Q 49.3125 8.734375 54.109375 11.28125 
L 54.109375 2.78125 
Q 49.265625 0.734375 44.1875 -0.34375 
Q 39.109375 -1.421875 33.890625 -1.421875 
Q 20.796875 -1.421875 13.15625 6.1875 
Q 5.515625 13.8125 5.515625 26.8125 
Q 5.515625 40.234375 12.765625 48.109375 
Q 20.015625 56 32.328125 56 
Q 43.359375 56 49.78125 48.890625 
Q 56.203125 41.796875 56.203125 29.59375 
z
M 47.21875 32.234375 
Q 47.125 39.59375 43.09375 43.984375 
Q 39.0625 48.390625 32.421875 48.390625 
Q 24.90625 48.390625 20.390625 44.140625 
Q 15.875 39.890625 15.1875 32.171875 
z
" id="DejaVuSans-101"/>
       <path d="M 2.984375 54.6875 
L 12.5 54.6875 
L 29.59375 8.796875 
L 46.6875 54.6875 
L 56.203125 54.6875 
L 35.6875 0 
L 23.484375 0 
z
" id="DejaVuSans-118"/>
       <path d="M 34.28125 27.484375 
Q 23.390625 27.484375 19.1875 25 
Q 14.984375 22.515625 14.984375 16.5 
Q 14.984375 11.71875 18.140625 8.90625 
Q 21.296875 6.109375 26.703125 6.109375 
Q 34.1875 6.109375 38.703125 11.40625 
Q 43.21875 16.703125 43.21875 25.484375 
L 43.21875 27.484375 
z
M 52.203125 31.203125 
L 52.203125 0 
L 43.21875 0 
L 43.21875 8.296875 
Q 40.140625 3.328125 35.546875 0.953125 
Q 30.953125 -1.421875 24.3125 -1.421875 
Q 15.921875 -1.421875 10.953125 3.296875 
Q 6 8.015625 6 15.921875 
Q 6 25.140625 12.171875 29.828125 
Q 18.359375 34.515625 30.609375 34.515625 
L 43.21875 34.515625 
L 43.21875 35.40625 
Q 43.21875 41.609375 39.140625 45 
Q 35.0625 48.390625 27.6875 48.390625 
Q 23 48.390625 18.546875 47.265625 
Q 14.109375 46.140625 10.015625 43.890625 
L 10.015625 52.203125 
Q 14.9375 54.109375 19.578125 55.046875 
Q 24.21875 56 28.609375 56 
Q 40.484375 56 46.34375 49.84375 
Q 52.203125 43.703125 52.203125 31.203125 
z
" id="DejaVuSans-97"/>
       <path d="M 9.421875 75.984375 
L 18.40625 75.984375 
L 18.40625 0 
L 9.421875 0 
z
" id="DejaVuSans-108"/>
       <path d="M 44.28125 53.078125 
L 44.28125 44.578125 
Q 40.484375 46.53125 36.375 47.5 
Q 32.28125 48.484375 27.875 48.484375 
Q 21.1875 48.484375 17.84375 46.4375 
Q 14.5 44.390625 14.5 40.28125 
Q 14.5 37.15625 16.890625 35.375 
Q 19.28125 33.59375 26.515625 31.984375 
L 29.59375 31.296875 
Q 39.15625 29.25 43.1875 25.515625 
Q 47.21875 21.78125 47.21875 15.09375 
Q 47.21875 7.46875 41.1875 3.015625 
Q 35.15625 -1.421875 24.609375 -1.421875 
Q 20.21875 -1.421875 15.453125 -0.5625 
Q 10.6875 0.296875 5.421875 2 
L 5.421875 11.28125 
Q 10.40625 8.6875 15.234375 7.390625 
Q 20.0625 6.109375 24.8125 6.109375 
Q 31.15625 6.109375 34.5625 8.28125 
Q 37.984375 10.453125 37.984375 14.40625 
Q 37.984375 18.0625 35.515625 20.015625 
Q 33.0625 21.96875 24.703125 23.78125 
L 21.578125 24.515625 
Q 13.234375 26.265625 9.515625 29.90625 
Q 5.8125 33.546875 5.8125 39.890625 
Q 5.8125 47.609375 11.28125 51.796875 
Q 16.75 56 26.8125 56 
Q 31.78125 56 36.171875 55.265625 
Q 40.578125 54.546875 44.28125 53.078125 
z
" id="DejaVuSans-115"/>
      </defs>
      <use xlink:href="#DejaVuSans-78"/>
      <use x="74.804688" xlink:href="#DejaVuSans-98"/>
      <use x="138.28125" xlink:href="#DejaVuSans-114"/>
      <use x="170.269531" xlink:href="#DejaVuSans-46"/>
      <use x="202.056641" xlink:href="#DejaVuSans-32"/>
      <use x="233.84375" xlink:href="#DejaVuSans-111"/>
      <use x="295.025391" xlink:href="#DejaVuSans-102"/>
      <use x="330.230469" xlink:href="#DejaVuSans-32"/>
      <use x="362.017578" xlink:href="#DejaVuSans-102"/>
      <use x="397.222656" xlink:href="#DejaVuSans-117"/>
      <use x="460.601562" xlink:href="#DejaVuSans-110"/>
      <use x="523.980469" xlink:href="#DejaVuSans-99"/>
      <use x="578.960938" xlink:href="#DejaVuSans-116"/>
      <use x="618.169922" xlink:href="#DejaVuSans-105"/>
      <use x="645.953125" xlink:href="#DejaVuSans-111"/>
      <use x="707.134766" xlink:href="#DejaVuSans-110"/>
      <use x="770.513672" xlink:href="#DejaVuSans-32"/>
      <use x="802.300781" xlink:href="#DejaVuSans-101"/>
      <use x="863.824219" xlink:href="#DejaVuSans-118"/>
      <use x="923.003906" xlink:href="#DejaVuSans-97"/>
      <use x="984.283203" xlink:href="#DejaVuSans-108"/>
      <use x="1012.066406" xlink:href="#DejaVuSans-117"/>
      <use x="1075.445312" xlink:href="#DejaVuSans-97"/>
      <use x="1136.724609" xlink:href="#DejaVuSans-116"/>
      <use x="1175.933594" xlink:href="#DejaVuSans-105"/>
      <use x="1203.716797" xlink:href="#DejaVuSans-111"/>
      <use x="1264.898438" xlink:href="#DejaVuSans-110"/>
      <use x="1328.277344" xlink:href="#DejaVuSans-115"/>
     </g>
    </g>
   </g>
   <g id="matplotlib.axis_2">
    <g id="ytick_1">
     <g id="line2d_6">
      <defs>
       <path d="M 0 0 
L -3.5 0 
" id="m1cf817e46a" style="stroke:#000000;stroke-width:0.8;"/>
      </defs>
      <g>
       <use style="stroke:#000000;stroke-width:0.8;" x="54" xlink:href="#m1cf817e46a" y="251.788632"/>
      </g>
     </g>
     <g id="text_7">
      <!-- $\mathdefault{10^{2}}$ -->
      <g transform="translate(29.4 255.587851)scale(0.1 -0.1)">
       <use transform="translate(0 0.765625)" xlink:href="#DejaVuSans-49"/>
       <use transform="translate(63.623047 0.765625)" xlink:href="#DejaVuSans-48"/>
       <use transform="translate(128.203125 39.046875)scale(0.7)" xlink:href="#DejaVuSans-50"/>
      </g>
     </g>
    </g>
    <g id="ytick_2">
     <g id="line2d_7">
      <g>
       <use style="stroke:#000000;stroke-width:0.8;" x="54" xlink:href="#m1cf817e46a" y="158.664859"/>
      </g>
     </g>
     <g id="text_8">
      <!-- $\mathdefault{10^{3}}$ -->
      <g transform="translate(29.4 162.464078)scale(0.1 -0.1)">
       <defs>
        <path d="M 40.578125 39.3125 
Q 47.65625 37.796875 51.625 33 
Q 55.609375 28.21875 55.609375 21.1875 
Q 55.609375 10.40625 48.1875 4.484375 
Q 40.765625 -1.421875 27.09375 -1.421875 
Q 22.515625 -1.421875 17.65625 -0.515625 
Q 12.796875 0.390625 7.625 2.203125 
L 7.625 11.71875 
Q 11.71875 9.328125 16.59375 8.109375 
Q 21.484375 6.890625 26.8125 6.890625 
Q 36.078125 6.890625 40.9375 10.546875 
Q 45.796875 14.203125 45.796875 21.1875 
Q 45.796875 27.640625 41.28125 31.265625 
Q 36.765625 34.90625 28.71875 34.90625 
L 20.21875 34.90625 
L 20.21875 43.015625 
L 29.109375 43.015625 
Q 36.375 43.015625 40.234375 45.921875 
Q 44.09375 48.828125 44.09375 54.296875 
Q 44.09375 59.90625 40.109375 62.90625 
Q 36.140625 65.921875 28.71875 65.921875 
Q 24.65625 65.921875 20.015625 65.03125 
Q 15.375 64.15625 9.8125 62.3125 
L 9.8125 71.09375 
Q 15.4375 72.65625 20.34375 73.4375 
Q 25.25 74.21875 29.59375 74.21875 
Q 40.828125 74.21875 47.359375 69.109375 
Q 53.90625 64.015625 53.90625 55.328125 
Q 53.90625 49.265625 50.4375 45.09375 
Q 46.96875 40.921875 40.578125 39.3125 
z
" id="DejaVuSans-51"/>
       </defs>
       <use transform="translate(0 0.765625)" xlink:href="#DejaVuSans-49"/>
       <use transform="translate(63.623047 0.765625)" xlink:href="#DejaVuSans-48"/>
       <use transform="translate(128.203125 39.046875)scale(0.7)" xlink:href="#DejaVuSans-51"/>
      </g>
     </g>
    </g>
    <g id="ytick_3">
     <g id="line2d_8">
      <g>
       <use style="stroke:#000000;stroke-width:0.8;" x="54" xlink:href="#m1cf817e46a" y="65.541086"/>
      </g>
     </g>
     <g id="text_9">
      <!-- $\mathdefault{10^{4}}$ -->
      <g transform="translate(29.4 69.340305)scale(0.1 -0.1)">
       <use transform="translate(0 0.684375)" xlink:href="#DejaVuSans-49"/>
       <use transform="translate(63.623047 0.684375)" xlink:href="#DejaVuSans-48"/>
       <use transform="translate(128.203125 38.965625)scale(0.7)" xlink:href="#DejaVuSans-52"/>
      </g>
     </g>
    </g>
    <g id="ytick_4">
     <g id="line2d_9">
      <defs>
       <path d="M 0 0 
L -2 0 
" id="ma01fb9e3bb" style="stroke:#000000;stroke-width:0.6;"/>
      </defs>
      <g>
       <use style="stroke:#000000;stroke-width:0.6;" x="54" xlink:href="#ma01fb9e3bb" y="223.755583"/>
      </g>
     </g>
    </g>
    <g id="ytick_5">
     <g id="line2d_10">
      <g>
       <use style="stroke:#000000;stroke-width:0.6;" x="54" xlink:href="#ma01fb9e3bb" y="207.357301"/>
      </g>
     </g>
    </g>
    <g id="ytick_6">
     <g id="line2d_11">
      <g>
       <use style="stroke:#000000;stroke-width:0.6;" x="54" xlink:href="#ma01fb9e3bb" y="195.722534"/>
      </g>
     </g>
    </g>
    <g id="ytick_7">
     <g id="line2d_12">
      <g>
       <use style="stroke:#000000;stroke-width:0.6;" x="54" xlink:href="#ma01fb9e3bb" y="186.697908"/>
      </g>
     </g>
    </g>
    <g id="ytick_8">
     <g id="line2d_13">
      <g>
       <use style="stroke:#000000;stroke-width:0.6;" x="54" xlink:href="#ma01fb9e3bb" y="179.324252"/>
      </g>
     </g>
    </g>
    <g id="ytick_9">
     <g id="line2d_14">
      <g>
       <use style="stroke:#000000;stroke-width:0.6;" x="54" xlink:href="#ma01fb9e3bb" y="173.089914"/>
      </g>
     </g>
    </g>
    <g id="ytick_10">
     <g id="line2d_15">
      <g>
       <use style="stroke:#000000;stroke-width:0.6;" x="54" xlink:href="#ma01fb9e3bb" y="167.689485"/>
      </g>
     </g>
    </g>
    <g id="ytick_11">
     <g id="line2d_16">
      <g>
       <use style="stroke:#000000;stroke-width:0.6;" x="54" xlink:href="#ma01fb9e3bb" y="162.925969"/>
      </g>
     </g>
    </g>
    <g id="ytick_12">
     <g id="line2d_17">
      <g>
       <use style="stroke:#000000;stroke-width:0.6;" x="54" xlink:href="#ma01fb9e3bb" y="130.63181"/>
      </g>
     </g>
    </g>
    <g id="ytick_13">
     <g id="line2d_18">
      <g>
       <use style="stroke:#000000;stroke-width:0.6;" x="54" xlink:href="#ma01fb9e3bb" y="114.233528"/>
      </g>
     </g>
    </g>
    <g id="ytick_14">
     <g id="line2d_19">
      <g>
       <use style="stroke:#000000;stroke-width:0.6;" x="54" xlink:href="#ma01fb9e3bb" y="102.598761"/>
      </g>
     </g>
    </g>
    <g id="ytick_15">
     <g id="line2d_20">
      <g>
       <use style="stroke:#000000;stroke-width:0.6;" x="54" xlink:href="#ma01fb9e3bb" y="93.574135"/>
      </g>
     </g>
    </g>
    <g id="ytick_16">
     <g id="line2d_21">
      <g>
       <use style="stroke:#000000;stroke-width:0.6;" x="54" xlink:href="#ma01fb9e3bb" y="86.200479"/>
      </g>
     </g>
    </g>
    <g id="ytick_17">
     <g id="line2d_22">
      <g>
       <use style="stroke:#000000;stroke-width:0.6;" x="54" xlink:href="#ma01fb9e3bb" y="79.966141"/>
      </g>
     </g>
    </g>
    <g id="ytick_18">
     <g id="line2d_23">
      <g>
       <use style="stroke:#000000;stroke-width:0.6;" x="54" xlink:href="#ma01fb9e3bb" y="74.565712"/>
      </g>
     </g>
    </g>
    <g id="ytick_19">
     <g id="line2d_24">
      <g>
       <use style="stroke:#000000;stroke-width:0.6;" x="54" xlink:href="#ma01fb9e3bb" y="69.802196"/>
      </g>
     </g>
    </g>
    <g id="ytick_20">
     <g id="line2d_25">
      <g>
       <use style="stroke:#000000;stroke-width:0.6;" x="54" xlink:href="#ma01fb9e3bb" y="37.508037"/>
      </g>
     </g>
    </g>
    <g id="text_10">
     <!-- Best function evaluation -->
     <g transform="translate(23.320312 204.253438)rotate(-90)scale(0.1 -0.1)">
      <defs>
       <path d="M 19.671875 34.8125 
L 19.671875 8.109375 
L 35.5 8.109375 
Q 43.453125 8.109375 47.28125 11.40625 
Q 51.125 14.703125 51.125 21.484375 
Q 51.125 28.328125 47.28125 31.5625 
Q 43.453125 34.8125 35.5 34.8125 
z
M 19.671875 64.796875 
L 19.671875 42.828125 
L 34.28125 42.828125 
Q 41.5 42.828125 45.03125 45.53125 
Q 48.578125 48.25 48.578125 53.8125 
Q 48.578125 59.328125 45.03125 62.0625 
Q 41.5 64.796875 34.28125 64.796875 
z
M 9.8125 72.90625 
L 35.015625 72.90625 
Q 46.296875 72.90625 52.390625 68.21875 
Q 58.5 63.53125 58.5 54.890625 
Q 58.5 48.1875 55.375 44.234375 
Q 52.25 40.28125 46.1875 39.3125 
Q 53.46875 37.75 57.5 32.78125 
Q 61.53125 27.828125 61.53125 20.40625 
Q 61.53125 10.640625 54.890625 5.3125 
Q 48.25 0 35.984375 0 
L 9.8125 0 
z
" id="DejaVuSans-66"/>
      </defs>
      <use xlink:href="#DejaVuSans-66"/>
      <use x="68.603516" xlink:href="#DejaVuSans-101"/>
      <use x="130.126953" xlink:href="#DejaVuSans-115"/>
      <use x="182.226562" xlink:href="#DejaVuSans-116"/>
      <use x="221.435547" xlink:href="#DejaVuSans-32"/>
      <use x="253.222656" xlink:href="#DejaVuSans-102"/>
      <use x="288.427734" xlink:href="#DejaVuSans-117"/>
      <use x="351.806641" xlink:href="#DejaVuSans-110"/>
      <use x="415.185547" xlink:href="#DejaVuSans-99"/>
      <use x="470.166016" xlink:href="#DejaVuSans-116"/>
      <use x="509.375" xlink:href="#DejaVuSans-105"/>
      <use x="537.158203" xlink:href="#DejaVuSans-111"/>
      <use x="598.339844" xlink:href="#DejaVuSans-110"/>
      <use x="661.71875" xlink:href="#DejaVuSans-32"/>
      <use x="693.505859" xlink:href="#DejaVuSans-101"/>
      <use x="755.029297" xlink:href="#DejaVuSans-118"/>
      <use x="814.208984" xlink:href="#DejaVuSans-97"/>
      <use x="875.488281" xlink:href="#DejaVuSans-108"/>
      <use x="903.271484" xlink:href="#DejaVuSans-117"/>
      <use x="966.650391" xlink:href="#DejaVuSans-97"/>
      <use x="1027.929688" xlink:href="#DejaVuSans-116"/>
      <use x="1067.138672" xlink:href="#DejaVuSans-105"/>
      <use x="1094.921875" xlink:href="#DejaVuSans-111"/>
      <use x="1156.103516" xlink:href="#DejaVuSans-110"/>
     </g>
    </g>
   </g>
   <g id="line2d_26">
    <path clip-path="url(#pde16a5ff90)" d="M 72.42201 93.308351 
L 78.829665 93.308351 
L 78.829665 109.52807 
L 85.237321 109.52807 
L 85.237321 135.019272 
L 88.441148 135.019272 
L 88.441148 174.581836 
L 91.644976 174.581836 
L 91.644976 175.380831 
L 98.052632 175.380831 
L 98.052632 175.380831 
L 104.460287 175.380831 
L 104.460287 188.653533 
L 110.867943 188.653533 
L 110.867943 191.743043 
L 117.275598 191.743043 
L 117.275598 191.743043 
L 123.683254 191.743043 
L 123.683254 196.665053 
L 130.090909 196.665053 
L 130.090909 207.221744 
L 136.498565 207.221744 
L 136.498565 208.149028 
L 142.90622 208.149028 
L 142.90622 220.155744 
L 146.110048 220.155744 
L 146.110048 226.575127 
L 152.517703 226.575127 
L 152.517703 227.16152 
L 158.925359 227.16152 
L 158.925359 237.277004 
L 162.129187 237.277004 
L 162.129187 239.864812 
L 165.333014 239.864812 
L 165.333014 239.864812 
L 171.74067 239.864812 
L 171.74067 239.999632 
L 178.148325 239.999632 
L 178.148325 240.152951 
L 181.352153 240.152951 
L 181.352153 240.269212 
L 184.555981 240.269212 
L 184.555981 240.490403 
L 190.963636 240.490403 
L 190.963636 240.490403 
L 197.371292 240.490403 
L 197.371292 240.490403 
L 203.778947 240.490403 
L 203.778947 240.490403 
L 206.982775 240.490403 
L 206.982775 240.585729 
L 213.390431 240.585729 
L 213.390431 240.585729 
L 219.798086 240.585729 
L 219.798086 240.71668 
L 226.205742 240.71668 
L 226.205742 241.251424 
L 232.613397 241.251424 
L 232.613397 241.873237 
L 239.021053 241.873237 
L 239.021053 241.873237 
L 245.428708 241.873237 
L 245.428708 241.873237 
L 248.632536 241.873237 
L 248.632536 241.873237 
L 255.040191 241.873237 
L 255.040191 241.873237 
L 261.447847 241.873237 
L 261.447847 241.873237 
L 267.855502 241.873237 
L 267.855502 241.873237 
L 274.263158 241.873237 
L 274.263158 241.873237 
L 280.670813 241.873237 
L 280.670813 241.873237 
L 287.078469 241.873237 
L 287.078469 241.873237 
L 290.282297 241.873237 
L 290.282297 241.873237 
L 296.689952 241.873237 
L 296.689952 241.873237 
L 303.097608 241.873237 
L 303.097608 241.873237 
L 309.505263 241.873237 
L 309.505263 241.873237 
L 315.912919 241.873237 
L 315.912919 242.116364 
L 322.320574 242.116364 
L 322.320574 242.116364 
L 328.72823 242.116364 
L 328.72823 242.116364 
L 335.135885 242.116364 
L 335.135885 242.116364 
L 341.543541 242.116364 
L 341.543541 242.116364 
L 347.951196 242.116364 
L 347.951196 242.116364 
L 354.358852 242.116364 
L 354.358852 242.116364 
L 360.766507 242.116364 
L 360.766507 242.116364 
L 367.174163 242.116364 
L 367.174163 242.116364 
L 373.581818 242.116364 
L 373.581818 242.116364 
" style="fill:none;stroke:#1f77b4;stroke-linecap:square;stroke-width:1.5;"/>
   </g>
   <g id="line2d_27">
    <path clip-path="url(#pde16a5ff90)" d="M 69.218182 88.468538 
L 75.625837 88.468538 
L 75.625837 88.468538 
L 78.829665 88.468538 
L 78.829665 121.875535 
L 82.033493 121.875535 
L 82.033493 121.875535 
L 88.441148 121.875535 
L 88.441148 121.875535 
L 94.848804 121.875535 
L 94.848804 121.875535 
L 101.256459 121.875535 
L 101.256459 121.875535 
L 107.664115 121.875535 
L 107.664115 121.875535 
L 114.07177 121.875535 
L 114.07177 121.875535 
L 120.479426 121.875535 
L 120.479426 121.875535 
L 126.887081 121.875535 
L 126.887081 121.875535 
L 133.294737 121.875535 
L 133.294737 121.875535 
L 139.702392 121.875535 
L 139.702392 121.875535 
L 146.110048 121.875535 
L 146.110048 121.875535 
L 152.517703 121.875535 
L 152.517703 124.950544 
L 158.925359 124.950544 
L 158.925359 124.950544 
L 165.333014 124.950544 
L 165.333014 124.950544 
L 171.74067 124.950544 
L 171.74067 124.950544 
L 178.148325 124.950544 
L 178.148325 124.950544 
L 184.555981 124.950544 
L 184.555981 124.950544 
L 190.963636 124.950544 
L 190.963636 124.950544 
L 197.371292 124.950544 
L 197.371292 124.950544 
L 203.778947 124.950544 
L 203.778947 124.950544 
L 210.186603 124.950544 
L 210.186603 124.950544 
L 216.594258 124.950544 
L 216.594258 124.950544 
L 223.001914 124.950544 
L 223.001914 124.950544 
L 229.409569 124.950544 
L 229.409569 124.950544 
L 235.817225 124.950544 
L 235.817225 124.950544 
L 242.22488 124.950544 
L 242.22488 124.950544 
L 248.632536 124.950544 
L 248.632536 124.950544 
L 255.040191 124.950544 
L 255.040191 124.950544 
L 261.447847 124.950544 
L 261.447847 124.950544 
L 267.855502 124.950544 
L 267.855502 124.950544 
L 274.263158 124.950544 
L 274.263158 124.950544 
L 280.670813 124.950544 
L 280.670813 124.950544 
L 287.078469 124.950544 
L 287.078469 124.950544 
L 293.486124 124.950544 
L 293.486124 124.950544 
L 299.89378 124.950544 
L 299.89378 124.950544 
L 306.301435 124.950544 
L 306.301435 124.950544 
L 312.709091 124.950544 
L 312.709091 124.950544 
L 319.116746 124.950544 
L 319.116746 124.950544 
L 325.524402 124.950544 
L 325.524402 124.950544 
L 331.932057 124.950544 
L 331.932057 124.950544 
L 338.339713 124.950544 
L 338.339713 124.950544 
L 344.747368 124.950544 
L 344.747368 124.950544 
L 351.155024 124.950544 
L 351.155024 124.950544 
L 357.562679 124.950544 
L 357.562679 124.950544 
L 363.970335 124.950544 
L 363.970335 124.950544 
L 370.37799 124.950544 
L 370.37799 124.950544 
" style="fill:none;stroke:#ff7f0e;stroke-linecap:square;stroke-width:1.5;"/>
   </g>
   <g id="line2d_28">
    <path clip-path="url(#pde16a5ff90)" d="M 72.42201 46.289738 
L 75.625837 46.289738 
L 75.625837 97.069714 
L 82.033493 97.069714 
L 82.033493 97.069714 
L 85.237321 97.069714 
L 85.237321 149.717764 
L 91.644976 149.717764 
L 91.644976 153.444804 
L 94.848804 153.444804 
L 94.848804 185.668239 
L 101.256459 185.668239 
L 101.256459 189.819179 
L 107.664115 189.819179 
L 107.664115 192.104249 
L 114.07177 192.104249 
L 114.07177 193.484592 
L 117.275598 193.484592 
L 117.275598 217.845121 
L 120.479426 217.845121 
L 120.479426 217.845121 
L 126.887081 217.845121 
L 126.887081 217.845121 
L 133.294737 217.845121 
L 133.294737 228.778353 
L 136.498565 228.778353 
L 136.498565 231.817155 
L 139.702392 231.817155 
L 139.702392 231.817155 
L 146.110048 231.817155 
L 146.110048 231.817155 
L 152.517703 231.817155 
L 152.517703 231.823211 
L 155.721531 231.823211 
L 155.721531 231.823211 
L 162.129187 231.823211 
L 162.129187 231.936304 
L 168.536842 231.936304 
L 168.536842 232.997307 
L 171.74067 232.997307 
L 171.74067 232.997307 
L 178.148325 232.997307 
L 178.148325 233.031199 
L 181.352153 233.031199 
L 181.352153 234.790827 
L 184.555981 234.790827 
L 184.555981 234.790827 
L 190.963636 234.790827 
L 190.963636 234.790827 
L 197.371292 234.790827 
L 197.371292 234.790827 
L 203.778947 234.790827 
L 203.778947 234.790827 
L 210.186603 234.790827 
L 210.186603 234.790827 
L 216.594258 234.790827 
L 216.594258 234.790827 
L 223.001914 234.790827 
L 223.001914 235.043923 
L 226.205742 235.043923 
L 226.205742 235.043923 
L 232.613397 235.043923 
L 232.613397 235.043923 
L 235.817225 235.043923 
L 235.817225 236.355364 
L 242.22488 236.355364 
L 242.22488 236.787944 
L 245.428708 236.787944 
L 245.428708 236.787944 
L 251.836364 236.787944 
L 251.836364 236.787944 
L 255.040191 236.787944 
L 255.040191 237.228207 
L 261.447847 237.228207 
L 261.447847 237.228207 
L 264.651675 237.228207 
L 264.651675 237.773403 
L 267.855502 237.773403 
L 267.855502 238.554999 
L 271.05933 238.554999 
L 271.05933 238.587124 
L 277.466986 238.587124 
L 277.466986 238.587124 
L 283.874641 238.587124 
L 283.874641 238.587124 
L 287.078469 238.587124 
L 287.078469 239.11094 
L 290.282297 239.11094 
L 290.282297 239.11094 
L 293.486124 239.11094 
L 293.486124 239.11094 
L 296.689952 239.11094 
L 296.689952 239.11094 
L 303.097608 239.11094 
L 303.097608 239.11094 
L 309.505263 239.11094 
L 309.505263 239.11094 
L 315.912919 239.11094 
L 315.912919 239.11094 
L 319.116746 239.11094 
L 319.116746 239.11094 
L 325.524402 239.11094 
L 325.524402 239.11094 
L 331.932057 239.11094 
L 331.932057 239.11094 
L 338.339713 239.11094 
L 338.339713 239.667607 
L 344.747368 239.667607 
L 344.747368 239.667607 
L 351.155024 239.667607 
L 351.155024 239.667607 
L 357.562679 239.667607 
L 357.562679 239.667607 
L 363.970335 239.667607 
L 363.970335 239.667607 
L 370.37799 239.667607 
L 370.37799 239.667607 
" style="fill:none;stroke:#2ca02c;stroke-linecap:square;stroke-width:1.5;"/>
   </g>
   <g id="line2d_29">
    <path clip-path="url(#pde16a5ff90)" d="M 72.42201 48.963769 
L 78.829665 48.963769 
L 78.829665 104.758713 
L 82.033493 104.758713 
L 82.033493 116.526768 
L 88.441148 116.526768 
L 88.441148 117.001781 
L 94.848804 117.001781 
L 94.848804 117.001781 
L 101.256459 117.001781 
L 101.256459 117.709135 
L 107.664115 117.709135 
L 107.664115 117.709135 
L 114.07177 117.709135 
L 114.07177 117.709135 
L 120.479426 117.709135 
L 120.479426 117.709135 
L 123.683254 117.709135 
L 123.683254 120.338735 
L 126.887081 120.338735 
L 126.887081 124.799785 
L 133.294737 124.799785 
L 133.294737 124.799785 
L 139.702392 124.799785 
L 139.702392 124.799785 
L 146.110048 124.799785 
L 146.110048 124.799785 
L 152.517703 124.799785 
L 152.517703 124.799785 
L 158.925359 124.799785 
L 158.925359 124.799785 
L 165.333014 124.799785 
L 165.333014 124.799785 
L 171.74067 124.799785 
L 171.74067 126.215167 
L 178.148325 126.215167 
L 178.148325 126.215167 
L 184.555981 126.215167 
L 184.555981 126.215167 
L 190.963636 126.215167 
L 190.963636 126.215774 
L 197.371292 126.215774 
L 197.371292 126.215774 
L 203.778947 126.215774 
L 203.778947 126.215774 
L 210.186603 126.215774 
L 210.186603 126.215774 
L 213.390431 126.215774 
L 213.390431 126.215774 
L 219.798086 126.215774 
L 219.798086 126.215774 
L 226.205742 126.215774 
L 226.205742 126.215774 
L 232.613397 126.215774 
L 232.613397 126.215774 
L 239.021053 126.215774 
L 239.021053 126.215774 
L 245.428708 126.215774 
L 245.428708 126.215774 
L 251.836364 126.215774 
L 251.836364 126.215774 
L 258.244019 126.215774 
L 258.244019 126.215774 
L 261.447847 126.215774 
L 261.447847 126.215774 
L 267.855502 126.215774 
L 267.855502 126.215774 
L 274.263158 126.215774 
L 274.263158 126.215774 
L 280.670813 126.215774 
L 280.670813 126.215774 
L 287.078469 126.215774 
L 287.078469 126.215774 
L 293.486124 126.215774 
L 293.486124 126.215774 
L 299.89378 126.215774 
L 299.89378 126.215774 
L 306.301435 126.215774 
L 306.301435 126.215774 
L 312.709091 126.215774 
L 312.709091 126.215774 
L 319.116746 126.215774 
L 319.116746 126.215774 
L 322.320574 126.215774 
L 322.320574 126.944173 
L 328.72823 126.944173 
L 328.72823 126.944173 
L 335.135885 126.944173 
L 335.135885 126.944173 
L 338.339713 126.944173 
L 338.339713 126.944173 
L 344.747368 126.944173 
L 344.747368 126.944173 
L 351.155024 126.944173 
L 351.155024 126.944173 
L 357.562679 126.944173 
L 357.562679 126.944173 
L 363.970335 126.944173 
L 363.970335 126.944173 
L 367.174163 126.944173 
L 367.174163 126.944173 
L 373.581818 126.944173 
L 373.581818 126.944173 
" style="fill:none;stroke:#d62728;stroke-linecap:square;stroke-width:1.5;"/>
   </g>
   <g id="line2d_30">
    <path clip-path="url(#pde16a5ff90)" d="M 69.218182 56.513297 
L 72.42201 56.513297 
L 72.42201 59.947788 
L 78.829665 59.947788 
L 78.829665 59.947788 
L 82.033493 59.947788 
L 82.033493 123.898819 
L 85.237321 123.898819 
L 85.237321 123.898819 
L 88.441148 123.898819 
L 88.441148 123.898819 
L 94.848804 123.898819 
L 94.848804 123.898819 
L 101.256459 123.898819 
L 101.256459 163.481996 
L 104.460287 163.481996 
L 104.460287 168.234941 
L 110.867943 168.234941 
L 110.867943 169.152665 
L 117.275598 169.152665 
L 117.275598 169.152665 
L 123.683254 169.152665 
L 123.683254 169.152665 
L 130.090909 169.152665 
L 130.090909 169.152665 
L 136.498565 169.152665 
L 136.498565 169.152665 
L 142.90622 169.152665 
L 142.90622 169.152665 
L 149.313876 169.152665 
L 149.313876 169.152665 
L 155.721531 169.152665 
L 155.721531 169.526195 
L 158.925359 169.526195 
L 158.925359 170.116 
L 165.333014 170.116 
L 165.333014 170.116 
L 168.536842 170.116 
L 168.536842 174.179869 
L 171.74067 174.179869 
L 171.74067 174.179869 
L 178.148325 174.179869 
L 178.148325 174.179869 
L 181.352153 174.179869 
L 181.352153 174.179869 
L 187.759809 174.179869 
L 187.759809 174.262767 
L 190.963636 174.262767 
L 190.963636 174.262767 
L 197.371292 174.262767 
L 197.371292 174.262767 
L 203.778947 174.262767 
L 203.778947 179.516104 
L 210.186603 179.516104 
L 210.186603 182.390725 
L 213.390431 182.390725 
L 213.390431 182.390725 
L 219.798086 182.390725 
L 219.798086 182.44672 
L 223.001914 182.44672 
L 223.001914 193.194334 
L 226.205742 193.194334 
L 226.205742 193.194334 
L 232.613397 193.194334 
L 232.613397 193.194334 
L 235.817225 193.194334 
L 235.817225 193.305952 
L 239.021053 193.305952 
L 239.021053 194.251438 
L 245.428708 194.251438 
L 245.428708 195.001221 
L 251.836364 195.001221 
L 251.836364 196.034723 
L 258.244019 196.034723 
L 258.244019 196.034723 
L 264.651675 196.034723 
L 264.651675 196.386206 
L 271.05933 196.386206 
L 271.05933 196.398937 
L 274.263158 196.398937 
L 274.263158 198.931078 
L 280.670813 198.931078 
L 280.670813 198.931078 
L 283.874641 198.931078 
L 283.874641 201.566904 
L 290.282297 201.566904 
L 290.282297 201.566904 
L 293.486124 201.566904 
L 293.486124 201.566904 
L 296.689952 201.566904 
L 296.689952 202.095164 
L 299.89378 202.095164 
L 299.89378 202.095164 
L 306.301435 202.095164 
L 306.301435 202.095164 
L 309.505263 202.095164 
L 309.505263 206.359678 
L 312.709091 206.359678 
L 312.709091 207.496276 
L 315.912919 207.496276 
L 315.912919 207.496276 
L 322.320574 207.496276 
L 322.320574 207.496276 
L 328.72823 207.496276 
L 328.72823 208.188737 
L 331.932057 208.188737 
L 331.932057 213.670155 
L 335.135885 213.670155 
L 335.135885 213.715457 
L 341.543541 213.715457 
L 341.543541 214.396702 
L 347.951196 214.396702 
L 347.951196 215.481677 
L 351.155024 215.481677 
L 351.155024 220.590791 
L 354.358852 220.590791 
L 354.358852 221.647757 
L 360.766507 221.647757 
L 360.766507 221.647757 
L 367.174163 221.647757 
L 367.174163 221.647757 
L 370.37799 221.647757 
L 370.37799 221.680133 
" style="fill:none;stroke:#9467bd;stroke-linecap:square;stroke-width:1.5;"/>
   </g>
   <g id="line2d_31">
    <path clip-path="url(#pde16a5ff90)" d="M 69.218182 80.858049 
L 75.625837 80.858049 
L 75.625837 80.858049 
L 78.829665 80.858049 
L 78.829665 128.297046 
L 85.237321 128.297046 
L 85.237321 128.297046 
L 88.441148 128.297046 
L 88.441148 159.609896 
L 94.848804 159.609896 
L 94.848804 160.774505 
L 101.256459 160.774505 
L 101.256459 161.330197 
L 107.664115 161.330197 
L 107.664115 176.624553 
L 110.867943 176.624553 
L 110.867943 176.670119 
L 117.275598 176.670119 
L 117.275598 176.670119 
L 120.479426 176.670119 
L 120.479426 203.309178 
L 123.683254 203.309178 
L 123.683254 203.977461 
L 130.090909 203.977461 
L 130.090909 203.977461 
L 136.498565 203.977461 
L 136.498565 219.751973 
L 139.702392 219.751973 
L 139.702392 232.582146 
L 142.90622 232.582146 
L 142.90622 232.582146 
L 149.313876 232.582146 
L 149.313876 232.582146 
L 155.721531 232.582146 
L 155.721531 233.769683 
L 162.129187 233.769683 
L 162.129187 234.384799 
L 168.536842 234.384799 
L 168.536842 234.384799 
L 174.944498 234.384799 
L 174.944498 234.384799 
L 181.352153 234.384799 
L 181.352153 234.384799 
L 187.759809 234.384799 
L 187.759809 235.044183 
L 194.167464 235.044183 
L 194.167464 235.044183 
L 200.57512 235.044183 
L 200.57512 236.160904 
L 203.778947 236.160904 
L 203.778947 236.160904 
L 206.982775 236.160904 
L 206.982775 236.160904 
L 213.390431 236.160904 
L 213.390431 236.160904 
L 219.798086 236.160904 
L 219.798086 236.160904 
L 223.001914 236.160904 
L 223.001914 236.160904 
L 229.409569 236.160904 
L 229.409569 236.160904 
L 232.613397 236.160904 
L 232.613397 236.160904 
L 239.021053 236.160904 
L 239.021053 236.160904 
L 242.22488 236.160904 
L 242.22488 236.160904 
L 248.632536 236.160904 
L 248.632536 236.160904 
L 251.836364 236.160904 
L 251.836364 236.160904 
L 255.040191 236.160904 
L 255.040191 236.160904 
L 261.447847 236.160904 
L 261.447847 236.160904 
L 267.855502 236.160904 
L 267.855502 236.160904 
L 274.263158 236.160904 
L 274.263158 236.160904 
L 280.670813 236.160904 
L 280.670813 236.160904 
L 287.078469 236.160904 
L 287.078469 236.160904 
L 293.486124 236.160904 
L 293.486124 236.160904 
L 299.89378 236.160904 
L 299.89378 236.160904 
L 306.301435 236.160904 
L 306.301435 236.160904 
L 312.709091 236.160904 
L 312.709091 236.160904 
L 319.116746 236.160904 
L 319.116746 236.160904 
L 325.524402 236.160904 
L 325.524402 236.160904 
L 331.932057 236.160904 
L 331.932057 236.160904 
L 338.339713 236.160904 
L 338.339713 236.160904 
L 344.747368 236.160904 
L 344.747368 236.160904 
L 351.155024 236.160904 
L 351.155024 236.160904 
L 357.562679 236.160904 
L 357.562679 236.160904 
L 363.970335 236.160904 
L 363.970335 236.530128 
L 370.37799 236.530128 
L 370.37799 236.530128 
" style="fill:none;stroke:#8c564b;stroke-linecap:square;stroke-width:1.5;"/>
   </g>
   <g id="line2d_32">
    <path clip-path="url(#pde16a5ff90)" d="M 69.218182 103.356587 
L 72.42201 103.356587 
L 72.42201 105.169674 
L 78.829665 105.169674 
L 78.829665 105.241673 
L 82.033493 105.241673 
L 82.033493 179.914547 
L 88.441148 179.914547 
L 88.441148 179.914547 
L 91.644976 179.914547 
L 91.644976 185.664504 
L 98.052632 185.664504 
L 98.052632 185.664504 
L 104.460287 185.664504 
L 104.460287 185.664504 
L 110.867943 185.664504 
L 110.867943 186.930561 
L 114.07177 186.930561 
L 114.07177 186.930561 
L 120.479426 186.930561 
L 120.479426 186.930561 
L 126.887081 186.930561 
L 126.887081 191.832266 
L 133.294737 191.832266 
L 133.294737 191.832266 
L 139.702392 191.832266 
L 139.702392 194.376826 
L 142.90622 194.376826 
L 142.90622 199.451184 
L 146.110048 199.451184 
L 146.110048 199.698493 
L 152.517703 199.698493 
L 152.517703 200.111918 
L 155.721531 200.111918 
L 155.721531 207.012553 
L 162.129187 207.012553 
L 162.129187 207.458023 
L 168.536842 207.458023 
L 168.536842 209.472306 
L 174.944498 209.472306 
L 174.944498 216.711447 
L 178.148325 216.711447 
L 178.148325 224.42678 
L 181.352153 224.42678 
L 181.352153 224.42678 
L 187.759809 224.42678 
L 187.759809 224.42678 
L 194.167464 224.42678 
L 194.167464 226.949277 
L 197.371292 226.949277 
L 197.371292 229.01892 
L 200.57512 229.01892 
L 200.57512 230.307648 
L 206.982775 230.307648 
L 206.982775 230.307648 
L 210.186603 230.307648 
L 210.186603 230.307648 
L 213.390431 230.307648 
L 213.390431 230.307648 
L 219.798086 230.307648 
L 219.798086 230.307648 
L 223.001914 230.307648 
L 223.001914 234.025441 
L 226.205742 234.025441 
L 226.205742 234.025441 
L 232.613397 234.025441 
L 232.613397 234.025441 
L 239.021053 234.025441 
L 239.021053 236.62357 
L 242.22488 236.62357 
L 242.22488 240.131649 
L 245.428708 240.131649 
L 245.428708 240.131649 
L 251.836364 240.131649 
L 251.836364 240.131649 
L 255.040191 240.131649 
L 255.040191 240.131649 
L 258.244019 240.131649 
L 258.244019 240.197531 
L 261.447847 240.197531 
L 261.447847 240.197531 
L 267.855502 240.197531 
L 267.855502 240.197531 
L 274.263158 240.197531 
L 274.263158 240.197531 
L 277.466986 240.197531 
L 277.466986 240.197531 
L 283.874641 240.197531 
L 283.874641 240.197531 
L 290.282297 240.197531 
L 290.282297 240.197531 
L 293.486124 240.197531 
L 293.486124 240.197531 
L 296.689952 240.197531 
L 296.689952 240.240217 
L 303.097608 240.240217 
L 303.097608 240.240217 
L 309.505263 240.240217 
L 309.505263 240.757505 
L 315.912919 240.757505 
L 315.912919 240.757505 
L 322.320574 240.757505 
L 322.320574 240.757505 
L 325.524402 240.757505 
L 325.524402 240.757505 
L 331.932057 240.757505 
L 331.932057 240.757505 
L 338.339713 240.757505 
L 338.339713 240.757505 
L 344.747368 240.757505 
L 344.747368 240.757505 
L 347.951196 240.757505 
L 347.951196 240.757505 
L 354.358852 240.757505 
L 354.358852 240.757505 
L 360.766507 240.757505 
L 360.766507 240.757505 
L 367.174163 240.757505 
L 367.174163 240.757505 
L 373.581818 240.757505 
L 373.581818 240.757505 
" style="fill:none;stroke:#e377c2;stroke-linecap:square;stroke-width:1.5;"/>
   </g>
   <g id="line2d_33">
    <path clip-path="url(#pde16a5ff90)" d="M 69.218182 71.776206 
L 75.625837 71.776206 
L 75.625837 71.776206 
L 78.829665 71.776206 
L 78.829665 109.42931 
L 85.237321 109.42931 
L 85.237321 109.42931 
L 88.441148 109.42931 
L 88.441148 172.809829 
L 94.848804 172.809829 
L 94.848804 174.057972 
L 98.052632 174.057972 
L 98.052632 191.968188 
L 104.460287 191.968188 
L 104.460287 193.011446 
L 107.664115 193.011446 
L 107.664115 215.250911 
L 114.07177 215.250911 
L 114.07177 215.250911 
L 117.275598 215.250911 
L 117.275598 226.635026 
L 123.683254 226.635026 
L 123.683254 226.806099 
L 130.090909 226.806099 
L 130.090909 229.854073 
L 133.294737 229.854073 
L 133.294737 231.843963 
L 136.498565 231.843963 
L 136.498565 231.85704 
L 142.90622 231.85704 
L 142.90622 232.007597 
L 149.313876 232.007597 
L 149.313876 232.007597 
L 152.517703 232.007597 
L 152.517703 232.007597 
L 158.925359 232.007597 
L 158.925359 232.007597 
L 165.333014 232.007597 
L 165.333014 232.007597 
L 171.74067 232.007597 
L 171.74067 232.007597 
L 178.148325 232.007597 
L 178.148325 232.007597 
L 184.555981 232.007597 
L 184.555981 232.007597 
L 190.963636 232.007597 
L 190.963636 232.007597 
L 197.371292 232.007597 
L 197.371292 232.007597 
L 203.778947 232.007597 
L 203.778947 232.007597 
L 206.982775 232.007597 
L 206.982775 232.007597 
L 210.186603 232.007597 
L 210.186603 232.007597 
L 216.594258 232.007597 
L 216.594258 232.007597 
L 219.798086 232.007597 
L 219.798086 232.007597 
L 226.205742 232.007597 
L 226.205742 232.007597 
L 232.613397 232.007597 
L 232.613397 232.007597 
L 239.021053 232.007597 
L 239.021053 232.007597 
L 245.428708 232.007597 
L 245.428708 232.007597 
L 251.836364 232.007597 
L 251.836364 232.007597 
L 258.244019 232.007597 
L 258.244019 232.007597 
L 261.447847 232.007597 
L 261.447847 232.007597 
L 267.855502 232.007597 
L 267.855502 232.007597 
L 274.263158 232.007597 
L 274.263158 232.007597 
L 280.670813 232.007597 
L 280.670813 232.007597 
L 287.078469 232.007597 
L 287.078469 232.007597 
L 293.486124 232.007597 
L 293.486124 232.185632 
L 299.89378 232.185632 
L 299.89378 232.185632 
L 306.301435 232.185632 
L 306.301435 232.185632 
L 312.709091 232.185632 
L 312.709091 232.185632 
L 319.116746 232.185632 
L 319.116746 232.185632 
L 325.524402 232.185632 
L 325.524402 232.185632 
L 331.932057 232.185632 
L 331.932057 232.185632 
L 338.339713 232.185632 
L 338.339713 232.185632 
L 344.747368 232.185632 
L 344.747368 232.185632 
L 351.155024 232.185632 
L 351.155024 232.185632 
L 357.562679 232.185632 
L 357.562679 232.185632 
L 363.970335 232.185632 
L 363.970335 232.185632 
L 370.37799 232.185632 
L 370.37799 232.185632 
" style="fill:none;stroke:#7f7f7f;stroke-linecap:square;stroke-width:1.5;"/>
   </g>
   <g id="line2d_34">
    <path clip-path="url(#pde16a5ff90)" d="M 72.42201 44.443636 
L 78.829665 44.443636 
L 78.829665 49.40059 
L 85.237321 49.40059 
L 85.237321 109.743899 
L 88.441148 109.743899 
L 88.441148 177.623242 
L 91.644976 177.623242 
L 91.644976 177.623242 
L 98.052632 177.623242 
L 98.052632 177.623242 
L 101.256459 177.623242 
L 101.256459 203.936318 
L 107.664115 203.936318 
L 107.664115 203.936318 
L 110.867943 203.936318 
L 110.867943 219.892361 
L 117.275598 219.892361 
L 117.275598 220.031618 
L 120.479426 220.031618 
L 120.479426 238.822586 
L 123.683254 238.822586 
L 123.683254 238.995471 
L 126.887081 238.995471 
L 126.887081 239.555957 
L 133.294737 239.555957 
L 133.294737 239.570871 
L 139.702392 239.570871 
L 139.702392 239.570871 
L 142.90622 239.570871 
L 142.90622 239.570871 
L 149.313876 239.570871 
L 149.313876 239.942532 
L 152.517703 239.942532 
L 152.517703 240.012447 
L 158.925359 240.012447 
L 158.925359 240.012447 
L 165.333014 240.012447 
L 165.333014 240.447462 
L 171.74067 240.447462 
L 171.74067 240.447462 
L 178.148325 240.447462 
L 178.148325 241.301508 
L 184.555981 241.301508 
L 184.555981 241.301508 
L 190.963636 241.301508 
L 190.963636 241.377821 
L 197.371292 241.377821 
L 197.371292 241.377821 
L 203.778947 241.377821 
L 203.778947 241.377821 
L 210.186603 241.377821 
L 210.186603 241.377821 
L 213.390431 241.377821 
L 213.390431 241.377821 
L 219.798086 241.377821 
L 219.798086 241.377821 
L 226.205742 241.377821 
L 226.205742 241.638071 
L 232.613397 241.638071 
L 232.613397 241.638071 
L 239.021053 241.638071 
L 239.021053 241.638071 
L 242.22488 241.638071 
L 242.22488 241.638071 
L 248.632536 241.638071 
L 248.632536 241.64995 
L 255.040191 241.64995 
L 255.040191 241.64995 
L 261.447847 241.64995 
L 261.447847 241.64995 
L 267.855502 241.64995 
L 267.855502 241.64995 
L 274.263158 241.64995 
L 274.263158 241.64995 
L 280.670813 241.64995 
L 280.670813 241.64995 
L 287.078469 241.64995 
L 287.078469 241.64995 
L 293.486124 241.64995 
L 293.486124 241.64995 
L 299.89378 241.64995 
L 299.89378 241.64995 
L 306.301435 241.64995 
L 306.301435 241.64995 
L 312.709091 241.64995 
L 312.709091 241.64995 
L 315.912919 241.64995 
L 315.912919 241.64995 
L 322.320574 241.64995 
L 322.320574 241.64995 
L 328.72823 241.64995 
L 328.72823 241.64995 
L 335.135885 241.64995 
L 335.135885 241.64995 
L 341.543541 241.64995 
L 341.543541 241.64995 
L 347.951196 241.64995 
L 347.951196 241.64995 
L 354.358852 241.64995 
L 354.358852 241.64995 
L 360.766507 241.64995 
L 360.766507 241.64995 
L 367.174163 241.64995 
L 367.174163 241.64995 
L 373.581818 241.64995 
L 373.581818 241.808217 
" style="fill:none;stroke:#bcbd22;stroke-linecap:square;stroke-width:1.5;"/>
   </g>
   <g id="line2d_35">
    <path clip-path="url(#pde16a5ff90)" d="M 72.42201 87.18635 
L 78.829665 87.18635 
L 78.829665 124.50865 
L 82.033493 124.50865 
L 82.033493 147.970987 
L 88.441148 147.970987 
L 88.441148 153.785968 
L 91.644976 153.785968 
L 91.644976 188.329715 
L 98.052632 188.329715 
L 98.052632 189.472762 
L 101.256459 189.472762 
L 101.256459 207.203091 
L 107.664115 207.203091 
L 107.664115 207.909757 
L 110.867943 207.909757 
L 110.867943 225.926015 
L 117.275598 225.926015 
L 117.275598 227.038149 
L 123.683254 227.038149 
L 123.683254 229.157407 
L 130.090909 229.157407 
L 130.090909 231.55525 
L 133.294737 231.55525 
L 133.294737 232.308417 
L 139.702392 232.308417 
L 139.702392 232.308417 
L 146.110048 232.308417 
L 146.110048 232.308417 
L 152.517703 232.308417 
L 152.517703 232.308417 
L 158.925359 232.308417 
L 158.925359 232.308417 
L 162.129187 232.308417 
L 162.129187 234.939743 
L 168.536842 234.939743 
L 168.536842 234.939743 
L 171.74067 234.939743 
L 171.74067 234.939743 
L 178.148325 234.939743 
L 178.148325 234.939743 
L 181.352153 234.939743 
L 181.352153 235.326047 
L 187.759809 235.326047 
L 187.759809 236.163324 
L 190.963636 236.163324 
L 190.963636 239.206699 
L 194.167464 239.206699 
L 194.167464 239.206699 
L 197.371292 239.206699 
L 197.371292 239.206699 
L 203.778947 239.206699 
L 203.778947 239.206699 
L 206.982775 239.206699 
L 206.982775 241.342913 
L 213.390431 241.342913 
L 213.390431 241.342913 
L 216.594258 241.342913 
L 216.594258 241.67931 
L 223.001914 241.67931 
L 223.001914 241.67931 
L 229.409569 241.67931 
L 229.409569 241.67931 
L 235.817225 241.67931 
L 235.817225 241.67931 
L 242.22488 241.67931 
L 242.22488 241.67931 
L 245.428708 241.67931 
L 245.428708 241.67931 
L 251.836364 241.67931 
L 251.836364 241.67931 
L 258.244019 241.67931 
L 258.244019 241.67931 
L 264.651675 241.67931 
L 264.651675 241.67931 
L 271.05933 241.67931 
L 271.05933 241.67931 
L 277.466986 241.67931 
L 277.466986 241.67931 
L 283.874641 241.67931 
L 283.874641 241.966107 
L 290.282297 241.966107 
L 290.282297 241.966107 
L 296.689952 241.966107 
L 296.689952 241.966107 
L 303.097608 241.966107 
L 303.097608 241.966107 
L 309.505263 241.966107 
L 309.505263 241.966107 
L 315.912919 241.966107 
L 315.912919 241.966107 
L 322.320574 241.966107 
L 322.320574 241.966107 
L 328.72823 241.966107 
L 328.72823 241.966107 
L 335.135885 241.966107 
L 335.135885 241.966107 
L 341.543541 241.966107 
L 341.543541 241.966107 
L 347.951196 241.966107 
L 347.951196 241.966107 
L 354.358852 241.966107 
L 354.358852 241.966107 
L 360.766507 241.966107 
L 360.766507 241.966107 
L 367.174163 241.966107 
L 367.174163 241.966107 
L 373.581818 241.966107 
L 373.581818 241.966107 
" style="fill:none;stroke:#17becf;stroke-linecap:square;stroke-width:1.5;"/>
   </g>
   <g id="patch_3">
    <path d="M 54 252 
L 54 34.56 
" style="fill:none;stroke:#000000;stroke-linecap:square;stroke-linejoin:miter;stroke-width:0.8;"/>
   </g>
   <g id="patch_4">
    <path d="M 388.8 252 
L 388.8 34.56 
" style="fill:none;stroke:#000000;stroke-linecap:square;stroke-linejoin:miter;stroke-width:0.8;"/>
   </g>
   <g id="patch_5">
    <path d="M 54 252 
L 388.8 252 
" style="fill:none;stroke:#000000;stroke-linecap:square;stroke-linejoin:miter;stroke-width:0.8;"/>
   </g>
   <g id="patch_6">
    <path d="M 54 34.56 
L 388.8 34.56 
" style="fill:none;stroke:#000000;stroke-linecap:square;stroke-linejoin:miter;stroke-width:0.8;"/>
   </g>
   <g id="legend_1">
    <g id="patch_7">
     <path d="M 303.546875 189.34125 
L 381.8 189.34125 
Q 383.8 189.34125 383.8 187.34125 
L 383.8 41.56 
Q 383.8 39.56 381.8 39.56 
L 303.546875 39.56 
Q 301.546875 39.56 301.546875 41.56 
L 301.546875 187.34125 
Q 301.546875 189.34125 303.546875 189.34125 
z
" style="fill:#ffffff;opacity:0.8;stroke:#cccccc;stroke-linejoin:miter;"/>
    </g>
    <g id="line2d_36">
     <path d="M 305.546875 47.658437 
L 325.546875 47.658437 
" style="fill:none;stroke:#1f77b4;stroke-linecap:square;stroke-width:1.5;"/>
    </g>
    <g id="line2d_37"/>
    <g id="text_11">
     <!-- Simplex0 -->
     <g transform="translate(333.546875 51.158437)scale(0.1 -0.1)">
      <defs>
       <path d="M 53.515625 70.515625 
L 53.515625 60.890625 
Q 47.90625 63.578125 42.921875 64.890625 
Q 37.9375 66.21875 33.296875 66.21875 
Q 25.25 66.21875 20.875 63.09375 
Q 16.5 59.96875 16.5 54.203125 
Q 16.5 49.359375 19.40625 46.890625 
Q 22.3125 44.4375 30.421875 42.921875 
L 36.375 41.703125 
Q 47.40625 39.59375 52.65625 34.296875 
Q 57.90625 29 57.90625 20.125 
Q 57.90625 9.515625 50.796875 4.046875 
Q 43.703125 -1.421875 29.984375 -1.421875 
Q 24.8125 -1.421875 18.96875 -0.25 
Q 13.140625 0.921875 6.890625 3.21875 
L 6.890625 13.375 
Q 12.890625 10.015625 18.65625 8.296875 
Q 24.421875 6.59375 29.984375 6.59375 
Q 38.421875 6.59375 43.015625 9.90625 
Q 47.609375 13.234375 47.609375 19.390625 
Q 47.609375 24.75 44.3125 27.78125 
Q 41.015625 30.8125 33.5 32.328125 
L 27.484375 33.5 
Q 16.453125 35.6875 11.515625 40.375 
Q 6.59375 45.0625 6.59375 53.421875 
Q 6.59375 63.09375 13.40625 68.65625 
Q 20.21875 74.21875 32.171875 74.21875 
Q 37.3125 74.21875 42.625 73.28125 
Q 47.953125 72.359375 53.515625 70.515625 
z
" id="DejaVuSans-83"/>
       <path d="M 52 44.1875 
Q 55.375 50.25 60.0625 53.125 
Q 64.75 56 71.09375 56 
Q 79.640625 56 84.28125 50.015625 
Q 88.921875 44.046875 88.921875 33.015625 
L 88.921875 0 
L 79.890625 0 
L 79.890625 32.71875 
Q 79.890625 40.578125 77.09375 44.375 
Q 74.3125 48.1875 68.609375 48.1875 
Q 61.625 48.1875 57.5625 43.546875 
Q 53.515625 38.921875 53.515625 30.90625 
L 53.515625 0 
L 44.484375 0 
L 44.484375 32.71875 
Q 44.484375 40.625 41.703125 44.40625 
Q 38.921875 48.1875 33.109375 48.1875 
Q 26.21875 48.1875 22.15625 43.53125 
Q 18.109375 38.875 18.109375 30.90625 
L 18.109375 0 
L 9.078125 0 
L 9.078125 54.6875 
L 18.109375 54.6875 
L 18.109375 46.1875 
Q 21.1875 51.21875 25.484375 53.609375 
Q 29.78125 56 35.6875 56 
Q 41.65625 56 45.828125 52.96875 
Q 50 49.953125 52 44.1875 
z
" id="DejaVuSans-109"/>
       <path d="M 18.109375 8.203125 
L 18.109375 -20.796875 
L 9.078125 -20.796875 
L 9.078125 54.6875 
L 18.109375 54.6875 
L 18.109375 46.390625 
Q 20.953125 51.265625 25.265625 53.625 
Q 29.59375 56 35.59375 56 
Q 45.5625 56 51.78125 48.09375 
Q 58.015625 40.1875 58.015625 27.296875 
Q 58.015625 14.40625 51.78125 6.484375 
Q 45.5625 -1.421875 35.59375 -1.421875 
Q 29.59375 -1.421875 25.265625 0.953125 
Q 20.953125 3.328125 18.109375 8.203125 
z
M 48.6875 27.296875 
Q 48.6875 37.203125 44.609375 42.84375 
Q 40.53125 48.484375 33.40625 48.484375 
Q 26.265625 48.484375 22.1875 42.84375 
Q 18.109375 37.203125 18.109375 27.296875 
Q 18.109375 17.390625 22.1875 11.75 
Q 26.265625 6.109375 33.40625 6.109375 
Q 40.53125 6.109375 44.609375 11.75 
Q 48.6875 17.390625 48.6875 27.296875 
z
" id="DejaVuSans-112"/>
       <path d="M 54.890625 54.6875 
L 35.109375 28.078125 
L 55.90625 0 
L 45.3125 0 
L 29.390625 21.484375 
L 13.484375 0 
L 2.875 0 
L 24.125 28.609375 
L 4.6875 54.6875 
L 15.28125 54.6875 
L 29.78125 35.203125 
L 44.28125 54.6875 
z
" id="DejaVuSans-120"/>
      </defs>
      <use xlink:href="#DejaVuSans-83"/>
      <use x="63.476562" xlink:href="#DejaVuSans-105"/>
      <use x="91.259766" xlink:href="#DejaVuSans-109"/>
      <use x="188.671875" xlink:href="#DejaVuSans-112"/>
      <use x="252.148438" xlink:href="#DejaVuSans-108"/>
      <use x="279.931641" xlink:href="#DejaVuSans-101"/>
      <use x="339.705078" xlink:href="#DejaVuSans-120"/>
      <use x="398.884766" xlink:href="#DejaVuSans-48"/>
     </g>
    </g>
    <g id="line2d_38">
     <path d="M 305.546875 62.336563 
L 325.546875 62.336563 
" style="fill:none;stroke:#ff7f0e;stroke-linecap:square;stroke-width:1.5;"/>
    </g>
    <g id="line2d_39"/>
    <g id="text_12">
     <!-- Simplex1 -->
     <g transform="translate(333.546875 65.836563)scale(0.1 -0.1)">
      <use xlink:href="#DejaVuSans-83"/>
      <use x="63.476562" xlink:href="#DejaVuSans-105"/>
      <use x="91.259766" xlink:href="#DejaVuSans-109"/>
      <use x="188.671875" xlink:href="#DejaVuSans-112"/>
      <use x="252.148438" xlink:href="#DejaVuSans-108"/>
      <use x="279.931641" xlink:href="#DejaVuSans-101"/>
      <use x="339.705078" xlink:href="#DejaVuSans-120"/>
      <use x="398.884766" xlink:href="#DejaVuSans-49"/>
     </g>
    </g>
    <g id="line2d_40">
     <path d="M 305.546875 77.014688 
L 325.546875 77.014688 
" style="fill:none;stroke:#2ca02c;stroke-linecap:square;stroke-width:1.5;"/>
    </g>
    <g id="line2d_41"/>
    <g id="text_13">
     <!-- Simplex2 -->
     <g transform="translate(333.546875 80.514688)scale(0.1 -0.1)">
      <use xlink:href="#DejaVuSans-83"/>
      <use x="63.476562" xlink:href="#DejaVuSans-105"/>
      <use x="91.259766" xlink:href="#DejaVuSans-109"/>
      <use x="188.671875" xlink:href="#DejaVuSans-112"/>
      <use x="252.148438" xlink:href="#DejaVuSans-108"/>
      <use x="279.931641" xlink:href="#DejaVuSans-101"/>
      <use x="339.705078" xlink:href="#DejaVuSans-120"/>
      <use x="398.884766" xlink:href="#DejaVuSans-50"/>
     </g>
    </g>
    <g id="line2d_42">
     <path d="M 305.546875 91.692813 
L 325.546875 91.692813 
" style="fill:none;stroke:#d62728;stroke-linecap:square;stroke-width:1.5;"/>
    </g>
    <g id="line2d_43"/>
    <g id="text_14">
     <!-- Simplex3 -->
     <g transform="translate(333.546875 95.192813)scale(0.1 -0.1)">
      <use xlink:href="#DejaVuSans-83"/>
      <use x="63.476562" xlink:href="#DejaVuSans-105"/>
      <use x="91.259766" xlink:href="#DejaVuSans-109"/>
      <use x="188.671875" xlink:href="#DejaVuSans-112"/>
      <use x="252.148438" xlink:href="#DejaVuSans-108"/>
      <use x="279.931641" xlink:href="#DejaVuSans-101"/>
      <use x="339.705078" xlink:href="#DejaVuSans-120"/>
      <use x="398.884766" xlink:href="#DejaVuSans-51"/>
     </g>
    </g>
    <g id="line2d_44">
     <path d="M 305.546875 106.370938 
L 325.546875 106.370938 
" style="fill:none;stroke:#9467bd;stroke-linecap:square;stroke-width:1.5;"/>
    </g>
    <g id="line2d_45"/>
    <g id="text_15">
     <!-- Simplex4 -->
     <g transform="translate(333.546875 109.870938)scale(0.1 -0.1)">
      <use xlink:href="#DejaVuSans-83"/>
      <use x="63.476562" xlink:href="#DejaVuSans-105"/>
      <use x="91.259766" xlink:href="#DejaVuSans-109"/>
      <use x="188.671875" xlink:href="#DejaVuSans-112"/>
      <use x="252.148438" xlink:href="#DejaVuSans-108"/>
      <use x="279.931641" xlink:href="#DejaVuSans-101"/>
      <use x="339.705078" xlink:href="#DejaVuSans-120"/>
      <use x="398.884766" xlink:href="#DejaVuSans-52"/>
     </g>
    </g>
    <g id="line2d_46">
     <path d="M 305.546875 121.049062 
L 325.546875 121.049062 
" style="fill:none;stroke:#8c564b;stroke-linecap:square;stroke-width:1.5;"/>
    </g>
    <g id="line2d_47"/>
    <g id="text_16">
     <!-- Simplex5 -->
     <g transform="translate(333.546875 124.549062)scale(0.1 -0.1)">
      <defs>
       <path d="M 10.796875 72.90625 
L 49.515625 72.90625 
L 49.515625 64.59375 
L 19.828125 64.59375 
L 19.828125 46.734375 
Q 21.96875 47.46875 24.109375 47.828125 
Q 26.265625 48.1875 28.421875 48.1875 
Q 40.625 48.1875 47.75 41.5 
Q 54.890625 34.8125 54.890625 23.390625 
Q 54.890625 11.625 47.5625 5.09375 
Q 40.234375 -1.421875 26.90625 -1.421875 
Q 22.3125 -1.421875 17.546875 -0.640625 
Q 12.796875 0.140625 7.71875 1.703125 
L 7.71875 11.625 
Q 12.109375 9.234375 16.796875 8.0625 
Q 21.484375 6.890625 26.703125 6.890625 
Q 35.15625 6.890625 40.078125 11.328125 
Q 45.015625 15.765625 45.015625 23.390625 
Q 45.015625 31 40.078125 35.4375 
Q 35.15625 39.890625 26.703125 39.890625 
Q 22.75 39.890625 18.8125 39.015625 
Q 14.890625 38.140625 10.796875 36.28125 
z
" id="DejaVuSans-53"/>
      </defs>
      <use xlink:href="#DejaVuSans-83"/>
      <use x="63.476562" xlink:href="#DejaVuSans-105"/>
      <use x="91.259766" xlink:href="#DejaVuSans-109"/>
      <use x="188.671875" xlink:href="#DejaVuSans-112"/>
      <use x="252.148438" xlink:href="#DejaVuSans-108"/>
      <use x="279.931641" xlink:href="#DejaVuSans-101"/>
      <use x="339.705078" xlink:href="#DejaVuSans-120"/>
      <use x="398.884766" xlink:href="#DejaVuSans-53"/>
     </g>
    </g>
    <g id="line2d_48">
     <path d="M 305.546875 135.727188 
L 325.546875 135.727188 
" style="fill:none;stroke:#e377c2;stroke-linecap:square;stroke-width:1.5;"/>
    </g>
    <g id="line2d_49"/>
    <g id="text_17">
     <!-- Simplex6 -->
     <g transform="translate(333.546875 139.227188)scale(0.1 -0.1)">
      <use xlink:href="#DejaVuSans-83"/>
      <use x="63.476562" xlink:href="#DejaVuSans-105"/>
      <use x="91.259766" xlink:href="#DejaVuSans-109"/>
      <use x="188.671875" xlink:href="#DejaVuSans-112"/>
      <use x="252.148438" xlink:href="#DejaVuSans-108"/>
      <use x="279.931641" xlink:href="#DejaVuSans-101"/>
      <use x="339.705078" xlink:href="#DejaVuSans-120"/>
      <use x="398.884766" xlink:href="#DejaVuSans-54"/>
     </g>
    </g>
    <g id="line2d_50">
     <path d="M 305.546875 150.405312 
L 325.546875 150.405312 
" style="fill:none;stroke:#7f7f7f;stroke-linecap:square;stroke-width:1.5;"/>
    </g>
    <g id="line2d_51"/>
    <g id="text_18">
     <!-- Simplex7 -->
     <g transform="translate(333.546875 153.905312)scale(0.1 -0.1)">
      <defs>
       <path d="M 8.203125 72.90625 
L 55.078125 72.90625 
L 55.078125 68.703125 
L 28.609375 0 
L 18.3125 0 
L 43.21875 64.59375 
L 8.203125 64.59375 
z
" id="DejaVuSans-55"/>
      </defs>
      <use xlink:href="#DejaVuSans-83"/>
      <use x="63.476562" xlink:href="#DejaVuSans-105"/>
      <use x="91.259766" xlink:href="#DejaVuSans-109"/>
      <use x="188.671875" xlink:href="#DejaVuSans-112"/>
      <use x="252.148438" xlink:href="#DejaVuSans-108"/>
      <use x="279.931641" xlink:href="#DejaVuSans-101"/>
      <use x="339.705078" xlink:href="#DejaVuSans-120"/>
      <use x="398.884766" xlink:href="#DejaVuSans-55"/>
     </g>
    </g>
    <g id="line2d_52">
     <path d="M 305.546875 165.083438 
L 325.546875 165.083438 
" style="fill:none;stroke:#bcbd22;stroke-linecap:square;stroke-width:1.5;"/>
    </g>
    <g id="line2d_53"/>
    <g id="text_19">
     <!-- Simplex8 -->
     <g transform="translate(333.546875 168.583438)scale(0.1 -0.1)">
      <use xlink:href="#DejaVuSans-83"/>
      <use x="63.476562" xlink:href="#DejaVuSans-105"/>
      <use x="91.259766" xlink:href="#DejaVuSans-109"/>
      <use x="188.671875" xlink:href="#DejaVuSans-112"/>
      <use x="252.148438" xlink:href="#DejaVuSans-108"/>
      <use x="279.931641" xlink:href="#DejaVuSans-101"/>
      <use x="339.705078" xlink:href="#DejaVuSans-120"/>
      <use x="398.884766" xlink:href="#DejaVuSans-56"/>
     </g>
    </g>
    <g id="line2d_54">
     <path d="M 305.546875 179.761562 
L 325.546875 179.761562 
" style="fill:none;stroke:#17becf;stroke-linecap:square;stroke-width:1.5;"/>
    </g>
    <g id="line2d_55"/>
    <g id="text_20">
     <!-- Simplex9 -->
     <g transform="translate(333.546875 183.261562)scale(0.1 -0.1)">
      <defs>
       <path d="M 10.984375 1.515625 
L 10.984375 10.5 
Q 14.703125 8.734375 18.5 7.8125 
Q 22.3125 6.890625 25.984375 6.890625 
Q 35.75 6.890625 40.890625 13.453125 
Q 46.046875 20.015625 46.78125 33.40625 
Q 43.953125 29.203125 39.59375 26.953125 
Q 35.25 24.703125 29.984375 24.703125 
Q 19.046875 24.703125 12.671875 31.3125 
Q 6.296875 37.9375 6.296875 49.421875 
Q 6.296875 60.640625 12.9375 67.421875 
Q 19.578125 74.21875 30.609375 74.21875 
Q 43.265625 74.21875 49.921875 64.515625 
Q 56.59375 54.828125 56.59375 36.375 
Q 56.59375 19.140625 48.40625 8.859375 
Q 40.234375 -1.421875 26.421875 -1.421875 
Q 22.703125 -1.421875 18.890625 -0.6875 
Q 15.09375 0.046875 10.984375 1.515625 
z
M 30.609375 32.421875 
Q 37.25 32.421875 41.125 36.953125 
Q 45.015625 41.5 45.015625 49.421875 
Q 45.015625 57.28125 41.125 61.84375 
Q 37.25 66.40625 30.609375 66.40625 
Q 23.96875 66.40625 20.09375 61.84375 
Q 16.21875 57.28125 16.21875 49.421875 
Q 16.21875 41.5 20.09375 36.953125 
Q 23.96875 32.421875 30.609375 32.421875 
z
" id="DejaVuSans-57"/>
      </defs>
      <use xlink:href="#DejaVuSans-83"/>
      <use x="63.476562" xlink:href="#DejaVuSans-105"/>
      <use x="91.259766" xlink:href="#DejaVuSans-109"/>
      <use x="188.671875" xlink:href="#DejaVuSans-112"/>
      <use x="252.148438" xlink:href="#DejaVuSans-108"/>
      <use x="279.931641" xlink:href="#DejaVuSans-101"/>
      <use x="339.705078" xlink:href="#DejaVuSans-120"/>
      <use x="398.884766" xlink:href="#DejaVuSans-57"/>
     </g>
    </g>
   </g>
  </g>
 </g>
 <defs>
  <clipPath id="pde16a5ff90">
   <rect height="217.44" width="334.8" x="54" y="34.56"/>
  </clipPath>
 </defs>
</svg>
